<?xml version="1.0" encoding="UTF-8" standalone="no"?>
<!-- Created with Inkscape (http://www.inkscape.org/) -->

<svg
   xmlns:dc="http://purl.org/dc/elements/1.1/"
   xmlns:cc="http://creativecommons.org/ns#"
   xmlns:rdf="http://www.w3.org/1999/02/22-rdf-syntax-ns#"
   xmlns:svg="http://www.w3.org/2000/svg"
   xmlns="http://www.w3.org/2000/svg"
   xmlns:sodipodi="http://sodipodi.sourceforge.net/DTD/sodipodi-0.dtd"
   xmlns:inkscape="http://www.inkscape.org/namespaces/inkscape"
   width="48.149998"
   height="48"
   viewBox="0 0 48.149998 48"
   version="1.1"
   id="svg8"
   inkscape:version="0.92+devel (4546dc857e, 2017-07-25, custom)"
   sodipodi:docname="48x48-icon.svg">
  <defs
     id="ol-defs">
    <style
       id="current-color-scheme">      .ColorScheme-Text {
        color:#d0d0d0;
        stop-color:#d0d0d0;
      }
      .ColorScheme-Background {
        color:#212121;
        stop-color:#212121;
      }
      .ColorScheme-Highlight {
        color:#0039a9;
        stop-color:#0039a9;
      }
      .ColorScheme-ViewText {
        color:#d0d0d0;
        stop-color:#d0d0d0;
      }
      .ColorScheme-ViewBackground {
        color:#19191b;
        stop-color:#19191b;
      }
      .ColorScheme-ViewHover {
        color:#005cc7;
        stop-color:#005cc7;
      }
      .ColorScheme-ViewFocus{
        color:#002466;
        stop-color:#002466;
      }
      .ColorScheme-ButtonText {
        color:#d0d0d0;
        stop-color:#d0d0d0;
      }
      .ColorScheme-ButtonBackground {
        color:#232323;
        stop-color:#232323;                             
      }                                                 
      .ColorScheme-ButtonHover {                        
        color:#005cc7;                                  
        stop-color:#005cc7;                             
      }                                                 
      .ColorScheme-ButtonFocus{                         
        color:#0039a9;                                  
        stop-color:#0039a9;                             
      }</style>
  </defs>
  <sodipodi:namedview
     id="base"
     pagecolor="#002266"
     bordercolor="#ffffff"
     borderopacity="0.46666667"
     inkscape:pageopacity="0"
     inkscape:pageshadow="2"
     inkscape:zoom="12.859375"
     inkscape:cx="31.6838"
     inkscape:cy="21.027627"
     inkscape:document-units="px"
     inkscape:current-layer="svg8"
     inkscape:document-rotation="0"
     showgrid="false"
     inkscape:showpageshadow="false"
     borderlayer="true"
     units="px"
     fit-margin-top="0"
     fit-margin-left="0"
     fit-margin-right="0"
     fit-margin-bottom="0"
     inkscape:window-width="1920"
     inkscape:window-height="1051"
     inkscape:window-x="0"
     inkscape:window-y="0"
     inkscape:window-maximized="1"
     inkscape:snap-page="true" />
  <metadata
     id="metadata5">
    <rdf:RDF>
      <cc:Work
         rdf:about="">
        <dc:format>image/svg+xml</dc:format>
        <dc:type
           rdf:resource="http://purl.org/dc/dcmitype/StillImage" />
        <dc:title></dc:title>
      </cc:Work>
    </rdf:RDF>
  </metadata>
  <g
     id="g846"
     inkscape:label="#babe">
    <rect
       inkscape:label="#boundary"
       y="0"
       x="0"
       height="48"
       width="48.149998"
       id="rect4264"
       style="fill:none;fill-opacity:0.74651441;stroke-width:23.61599922;stroke-opacity:0.3596773" />
    <path
       inkscape:label="#"
       inkscape:connector-curvature="0"
       id="rect841"
       d="M 9.3525868,6 C 7.5059361,6 6.0186024,7.487334 6.0186024,9.333984 V 38.666016 C 6.0186024,40.512666 7.5059361,42 9.3525868,42 H 38.79741 c 1.846651,0 3.333985,-1.487334 3.333985,-3.333984 V 9.333984 C 42.131395,7.487334 40.644061,6 38.79741,6 Z m 7.1279292,8.71875 h 4.21875 V 17.25 h -4.21875 z m 10.96875,0 h 4.21875 V 17.25 h -4.21875 z m -16.875,1.6875 h 4.218751 v 2.53125 h -4.218751 z m 22.78125,0 h 4.21875 v 2.53125 h -4.21875 z m -11.390625,1.6875 h 4.21875 V 20.625 h -4.21875 z m -5.484375,0.84375 h 4.21875 v 2.53125 h -4.21875 z m 10.96875,0 h 4.21875 v 2.53125 h -4.21875 z m -16.875,1.6875 h 4.218751 v 2.53125 h -4.218751 z m 22.78125,0 h 4.21875 v 2.53125 h -4.21875 z m -11.390625,1.6875 h 4.21875 v 2.53125 h -4.21875 z m -5.484375,0.84375 h 4.21875 v 2.53125 h -4.21875 z m 10.96875,0 h 4.21875 v 2.53125 h -4.21875 z m -16.875,1.6875 h 4.218751 V 27.375 h -4.218751 z m 22.78125,0 h 4.21875 V 27.375 h -4.21875 z m -11.390625,1.6875 h 4.21875 v 2.53125 h -4.21875 z M 16.480516,27.375 h 4.21875 v 2.53125 h -4.21875 z m 10.96875,0 h 4.21875 v 2.53125 h -4.21875 z m -5.484375,3.375 h 4.21875 v 2.53125 h -4.21875 z"
       style="font-variation-settings:normal;vector-effect:none;fill:#d0d0d0;stroke-width:1" />
  </g>
</svg>
