<?xml version="1.0" encoding="UTF-8" standalone="no"?>
<!-- Created with Inkscape (http://www.inkscape.org/) -->

<svg
   xmlns:dc="http://purl.org/dc/elements/1.1/"
   xmlns:cc="http://creativecommons.org/ns#"
   xmlns:rdf="http://www.w3.org/1999/02/22-rdf-syntax-ns#"
   xmlns:svg="http://www.w3.org/2000/svg"
   xmlns="http://www.w3.org/2000/svg"
   xmlns:xlink="http://www.w3.org/1999/xlink"
   xmlns:sodipodi="http://sodipodi.sourceforge.net/DTD/sodipodi-0.dtd"
   xmlns:inkscape="http://www.inkscape.org/namespaces/inkscape"
   width="48.149998"
   height="48"
   viewBox="0 0 48.149998 48"
   version="1.1"
   id="svg8"
   inkscape:version="0.92+devel (b8837397f6, 2017-07-27, custom)"
   sodipodi:docname="android-studio.svg">
  <defs
     id="ol-defs">
    <style
       id="current-color-scheme">      .ColorScheme-Text {
        color:#d0d0d0;
        stop-color:#d0d0d0;
      }
      .ColorScheme-Background {
        color:#212121;
        stop-color:#212121;
      }
      .ColorScheme-Highlight {
        color:#0039a9;
        stop-color:#0039a9;
      }
      .ColorScheme-ViewText {
        color:#d0d0d0;
        stop-color:#d0d0d0;
      }
      .ColorScheme-ViewBackground {
        color:#19191b;
        stop-color:#19191b;
      }
      .ColorScheme-ViewHover {
        color:#005cc7;
        stop-color:#005cc7;
      }
      .ColorScheme-ViewFocus{
        color:#002466;
        stop-color:#002466;
      }
      .ColorScheme-ButtonText {
        color:#d0d0d0;
        stop-color:#d0d0d0;
      }
      .ColorScheme-ButtonBackground {
        color:#232323;
        stop-color:#232323;                             
      }                                                 
      .ColorScheme-ButtonHover {                        
        color:#005cc7;                                  
        stop-color:#005cc7;                             
      }                                                 
      .ColorScheme-ButtonFocus{                         
        color:#0039a9;                                  
        stop-color:#0039a9;                             
      }</style>
    <linearGradient
       gradientUnits="userSpaceOnUse"
       y2="1018.362"
       x2="24"
       y1="1032.3621"
       x1="24"
       id="linearGradient4204"
       xlink:href="#linearGradient4198" />
    <linearGradient
       id="linearGradient4198">
      <stop
         id="stop7"
         offset="0"
         style="stop-color:#272b2d;stop-opacity:1;" />
      <stop
         id="stop9"
         offset="1"
         style="stop-color:#3e4447;stop-opacity:1" />
    </linearGradient>
    <radialGradient
       gradientUnits="userSpaceOnUse"
       gradientTransform="matrix(1,0,0,0.9998745,0,0.12868292)"
       r="2"
       fy="1025.3621"
       fx="24"
       cy="1025.3621"
       cx="24"
       id="radialGradient4191"
       xlink:href="#linearGradient4185" />
    <linearGradient
       id="linearGradient4185">
      <stop
         id="stop12"
         offset="0"
         style="stop-color:#acacac;stop-opacity:1" />
      <stop
         id="stop14"
         offset="1"
         style="stop-color:#cbcbcb;stop-opacity:1" />
    </linearGradient>
  </defs>
  <sodipodi:namedview
     id="base"
     pagecolor="#002266"
     bordercolor="#ffffff"
     borderopacity="0.46666667"
     inkscape:pageopacity="0"
     inkscape:pageshadow="2"
     inkscape:zoom="18.185903"
     inkscape:cx="27.722078"
     inkscape:cy="32.218061"
     inkscape:document-units="px"
     inkscape:current-layer="svg8"
     inkscape:document-rotation="0"
     showgrid="false"
     inkscape:showpageshadow="false"
     borderlayer="true"
     units="px"
     fit-margin-top="0"
     fit-margin-left="0"
     fit-margin-right="0"
     fit-margin-bottom="0"
     inkscape:window-width="1920"
     inkscape:window-height="1051"
     inkscape:window-x="0"
     inkscape:window-y="0"
     inkscape:window-maximized="1"
     inkscape:snap-page="true" />
  <metadata
     id="metadata5">
    <rdf:RDF>
      <cc:Work
         rdf:about="">
        <dc:format>image/svg+xml</dc:format>
        <dc:type
           rdf:resource="http://purl.org/dc/dcmitype/StillImage" />
        <dc:title></dc:title>
      </cc:Work>
    </rdf:RDF>
  </metadata>
  <g
     id="g862"
     inkscape:label="#android-studio">
    <rect
       inkscape:label="#boundary"
       y="0"
       x="0"
       height="48"
       width="48.149998"
       id="rect4264"
       style="fill:none;fill-opacity:0.74651441;stroke-width:23.61599922;stroke-opacity:0.3596773" />
    <path
       sodipodi:nodetypes="cccssccccccccscccccccccccccccscccccccscssccccscccccccc"
       inkscape:connector-curvature="0"
       id="path34"
       d="m 21.060473,6.0000897 v 0.01755 3.581537 h -1.357909 c -1.229254,0 -2.245602,1.0171873 -2.245602,2.2324173 v 5.875477 h 0.02182 c -0.01957,0.19296 0.09787,0.404109 0.351562,0.654785 L 18.88946,19.297891 8.1009038,37.983406 7.8592068,42 11.216622,39.780766 17.144836,29.510764 c 2.114355,1.084602 4.508513,1.687497 7.048814,1.687497 1.93787,0 4.084909,-0.354964 5.972158,-0.997558 L 35.698515,39.780766 39.05593,42 38.814231,37.983406 33.391389,28.587913 c 0.780216,-0.52364 1.526188,-1.091433 2.188472,-1.740231 2.892481,-2.814338 4.71093,-6.878555 4.71093,-11.236797 -1.23413,-0.01192 -2.539902,-0.0012 -3.63427,-0.01328 -0.0019,4.801815 -1.430204,5.944874 -3.168452,7.97606 -0.583156,0.671908 -1.254013,1.246683 -1.968746,1.770992 l -3.493643,-6.046864 1.063476,-0.936034 c 0.253663,-0.250679 0.35156,-0.481144 0.35156,-0.654785 h 0.01755 V 11.849083 C 29.438696,10.614654 28.443849,9.5990866 27.195087,9.5990866 h -1.335935 v -3.581537 -0.01755 h -2.408171 z m 2.386396,4.8475393 0.026,0.04557 c 1.945752,0.02301 3.541768,1.579196 3.541768,3.528748 0,1.949375 -1.596016,3.512322 -3.541768,3.535256 h -0.026 c -1.945752,0 -3.541768,-1.585881 -3.541768,-3.535256 0,-1.949552 1.596016,-3.528748 3.541768,-3.528748 z m 1.827952,10.876065 3.019038,5.229482 c -1.340856,0.396199 -2.824355,0.628415 -4.122065,0.628415 -1.874676,0 -3.636144,-0.47218 -5.181142,-1.261227 l 2.649899,-4.592278 0.694335,0.610836 c 0.312196,0.308634 0.725973,0.461425 1.11621,0.461425 v -0.01755 l 0.01755,0.01755 c 0.409753,0 0.819131,-0.152798 1.111815,-0.461425 z"
       style="opacity:0.6;fill:#dcdcdc;fill-opacity:1;stroke:none;stroke-width:4;stroke-linecap:round;stroke-linejoin:round;stroke-miterlimit:4;stroke-dasharray:none;stroke-opacity:1"
       inkscape:label="#" />
    <circle
       inkscape:label="#"
       r="2.1091814"
       cy="14.386143"
       cx="23.453259"
       id="path857"
       style="font-variation-settings:normal;vector-effect:none;fill:#00ff00;stroke-width:1.5;stroke-linecap:round;stroke-miterlimit:26.70000076" />
  </g>
</svg>
