<?xml version="1.0" encoding="UTF-8" standalone="no"?>
<!-- Created with Inkscape (http://www.inkscape.org/) -->

<svg
   xmlns:dc="http://purl.org/dc/elements/1.1/"
   xmlns:cc="http://creativecommons.org/ns#"
   xmlns:rdf="http://www.w3.org/1999/02/22-rdf-syntax-ns#"
   xmlns:svg="http://www.w3.org/2000/svg"
   xmlns="http://www.w3.org/2000/svg"
   xmlns:sodipodi="http://sodipodi.sourceforge.net/DTD/sodipodi-0.dtd"
   xmlns:inkscape="http://www.inkscape.org/namespaces/inkscape"
   width="48.149998"
   height="48"
   viewBox="0 0 48.149998 48"
   version="1.1"
   id="svg8"
   inkscape:version="0.92+devel (b8837397f6, 2017-07-27, custom)"
   sodipodi:docname="anjuta.svg">
  <defs
     id="ol-defs">
    <style
       id="current-color-scheme">      .ColorScheme-Text {
        color:#d0d0d0;
        stop-color:#d0d0d0;
      }
      .ColorScheme-Background {
        color:#212121;
        stop-color:#212121;
      }
      .ColorScheme-Highlight {
        color:#0039a9;
        stop-color:#0039a9;
      }
      .ColorScheme-ViewText {
        color:#d0d0d0;
        stop-color:#d0d0d0;
      }
      .ColorScheme-ViewBackground {
        color:#19191b;
        stop-color:#19191b;
      }
      .ColorScheme-ViewHover {
        color:#005cc7;
        stop-color:#005cc7;
      }
      .ColorScheme-ViewFocus{
        color:#002466;
        stop-color:#002466;
      }
      .ColorScheme-ButtonText {
        color:#d0d0d0;
        stop-color:#d0d0d0;
      }
      .ColorScheme-ButtonBackground {
        color:#232323;
        stop-color:#232323;                             
      }                                                 
      .ColorScheme-ButtonHover {                        
        color:#005cc7;                                  
        stop-color:#005cc7;                             
      }                                                 
      .ColorScheme-ButtonFocus{                         
        color:#0039a9;                                  
        stop-color:#0039a9;                             
      }</style>
  </defs>
  <sodipodi:namedview
     id="base"
     pagecolor="#002266"
     bordercolor="#ffffff"
     borderopacity="0.46666667"
     inkscape:pageopacity="0"
     inkscape:pageshadow="2"
     inkscape:zoom="12.859375"
     inkscape:cx="31.6838"
     inkscape:cy="21.027627"
     inkscape:document-units="px"
     inkscape:current-layer="g843"
     inkscape:document-rotation="0"
     showgrid="false"
     inkscape:showpageshadow="false"
     borderlayer="true"
     units="px"
     fit-margin-top="0"
     fit-margin-left="0"
     fit-margin-right="0"
     fit-margin-bottom="0"
     inkscape:window-width="1920"
     inkscape:window-height="1051"
     inkscape:window-x="0"
     inkscape:window-y="0"
     inkscape:window-maximized="1"
     inkscape:snap-page="true" />
  <metadata
     id="metadata5">
    <rdf:RDF>
      <cc:Work
         rdf:about="">
        <dc:format>image/svg+xml</dc:format>
        <dc:type
           rdf:resource="http://purl.org/dc/dcmitype/StillImage" />
        <dc:title></dc:title>
      </cc:Work>
    </rdf:RDF>
  </metadata>
  <g
     id="g843"
     inkscape:label="#anjuta">
    <rect
       inkscape:label="#boundary"
       y="0"
       x="0"
       height="48"
       width="48.149998"
       id="rect4264"
       style="fill:none;fill-opacity:0.74651441;stroke-width:23.61599922;stroke-opacity:0.3596773" />
    <path
       inkscape:connector-curvature="0"
       style="opacity:0.6;fill:#d0d0d0;fill-opacity:1;stroke-width:2.79999971;stroke-opacity:0.55026502"
       d="m 24.074999,6 c -9.972,0 -18.0000001,8.027998 -18.0000001,18 0,9.972 8.0280001,18 18.0000001,18 9.972,0 18,-8.028 18,-18 0,-9.972002 -8.028,-18 -18,-18 z m 2.928514,4.426171 c -0.331092,0.327037 -0.56074,2.25 -0.56074,2.25 0.330327,-0.592877 1.35,-1.35 1.35,-1.35 -0.9,1.8 0,4.5 0,4.5 1.716012,1.712214 4.125587,7.498829 4.125587,7.498829 l 0.727733,1.052928 c 0.924309,1.317953 0.583749,2.942077 -0.332226,3.433009 -3.432015,1.847394 -3.763479,-1.061718 -3.763479,-1.061718 -2.839554,-0.32931 -5.257615,-3.723048 -5.257615,-3.723048 -3.825983,1.974294 -0.941285,7.776891 0.711916,9.915822 1.92053,2.479468 0.87601,6.460818 0.650389,7.233399 -0.195907,0.0067 -0.387652,0.02815 -0.585353,0.02815 -6.550486,0 -12.125965,-3.814227 -14.6882791,-9.355079 -1.307556,-3.863034 0.411325,-7.822265 0.411325,-7.822265 -0.499214,0.208463 -1.676952,0.822654 -1.8,0.9 0.123052,-2.777346 7.2000001,-7.2 7.2000001,-7.2 h -2.7 C 17.841579,11.595622 23.9291,13.519939 23.9291,13.519939 c 0.196987,-1.120077 3.074413,-3.09375 3.074413,-3.09375 z"
       id="rect22"
       inkscape:label="#1" />
  </g>
</svg>
