<?xml version="1.0" encoding="UTF-8" standalone="no"?>
<!-- Created with Inkscape (http://www.inkscape.org/) -->

<svg
   xmlns:dc="http://purl.org/dc/elements/1.1/"
   xmlns:cc="http://creativecommons.org/ns#"
   xmlns:rdf="http://www.w3.org/1999/02/22-rdf-syntax-ns#"
   xmlns:svg="http://www.w3.org/2000/svg"
   xmlns="http://www.w3.org/2000/svg"
   xmlns:sodipodi="http://sodipodi.sourceforge.net/DTD/sodipodi-0.dtd"
   xmlns:inkscape="http://www.inkscape.org/namespaces/inkscape"
   width="48.149998"
   height="48"
   viewBox="0 0 48.149998 48"
   version="1.1"
   id="svg8"
   inkscape:version="0.92+devel (f96dc7e339, 2017-07-28, custom)"
   sodipodi:docname="artikulate.svg">
  <defs
     id="ol-defs">
    <style
       id="current-color-scheme">      .ColorScheme-Text {
        color:#d0d0d0;
        stop-color:#d0d0d0;
      }
      .ColorScheme-Background {
        color:#212121;
        stop-color:#212121;
      }
      .ColorScheme-Highlight {
        color:#0039a9;
        stop-color:#0039a9;
      }
      .ColorScheme-ViewText {
        color:#d0d0d0;
        stop-color:#d0d0d0;
      }
      .ColorScheme-ViewBackground {
        color:#19191b;
        stop-color:#19191b;
      }
      .ColorScheme-ViewHover {
        color:#005cc7;
        stop-color:#005cc7;
      }
      .ColorScheme-ViewFocus{
        color:#002466;
        stop-color:#002466;
      }
      .ColorScheme-ButtonText {
        color:#d0d0d0;
        stop-color:#d0d0d0;
      }
      .ColorScheme-ButtonBackground {
        color:#232323;
        stop-color:#232323;                             
      }                                                 
      .ColorScheme-ButtonHover {                        
        color:#005cc7;                                  
        stop-color:#005cc7;                             
      }                                                 
      .ColorScheme-ButtonFocus{                         
        color:#0039a9;                                  
        stop-color:#0039a9;                             
      }</style>
    <style
       id="current-color-scheme-7">      .ColorScheme-Text {
        color:#d0d0d0;
        stop-color:#d0d0d0;
      }
      .ColorScheme-Background {
        color:#212121;
        stop-color:#212121;
      }
      .ColorScheme-Highlight {
        color:#0039a9;
        stop-color:#0039a9;
      }
      .ColorScheme-ViewText {
        color:#d0d0d0;
        stop-color:#d0d0d0;
      }
      .ColorScheme-ViewBackground {
        color:#19191b;
        stop-color:#19191b;
      }
      .ColorScheme-ViewHover {
        color:#005cc7;
        stop-color:#005cc7;
      }
      .ColorScheme-ViewFocus{
        color:#002466;
        stop-color:#002466;
      }
      .ColorScheme-ButtonText {
        color:#d0d0d0;
        stop-color:#d0d0d0;
      }
      .ColorScheme-ButtonBackground {
        color:#232323;
        stop-color:#232323;                             
      }                                                 
      .ColorScheme-ButtonHover {                        
        color:#005cc7;                                  
        stop-color:#005cc7;                             
      }                                                 
      .ColorScheme-ButtonFocus{                         
        color:#0039a9;                                  
        stop-color:#0039a9;                             
      }</style>
    <linearGradient
       gradientTransform="matrix(0.26457775,0,0,0.26457775,-3.3753991,-6.0090676)"
       gradientUnits="userSpaceOnUse"
       y2="14.09"
       x2="69.589996"
       y1="30.867001"
       x1="70.209999"
       id="0">
      <stop
         id="stop17"
         stop-color="#1f52b9" />
      <stop
         id="stop19"
         stop-color="#147bdc"
         offset="1" />
    </linearGradient>
  </defs>
  <sodipodi:namedview
     id="base"
     pagecolor="#002266"
     bordercolor="#ffffff"
     borderopacity="0.46666667"
     inkscape:pageopacity="0"
     inkscape:pageshadow="2"
     inkscape:zoom="12.859375"
     inkscape:cx="31.6838"
     inkscape:cy="27.406602"
     inkscape:document-units="px"
     inkscape:current-layer="svg8"
     inkscape:document-rotation="0"
     showgrid="false"
     inkscape:showpageshadow="false"
     borderlayer="true"
     units="px"
     fit-margin-top="0"
     fit-margin-left="0"
     fit-margin-right="0"
     fit-margin-bottom="0"
     inkscape:window-width="1920"
     inkscape:window-height="1051"
     inkscape:window-x="0"
     inkscape:window-y="0"
     inkscape:window-maximized="1"
     inkscape:snap-page="true" />
  <metadata
     id="metadata5">
    <rdf:RDF>
      <cc:Work
         rdf:about="">
        <dc:format>image/svg+xml</dc:format>
        <dc:type
           rdf:resource="http://purl.org/dc/dcmitype/StillImage" />
        <dc:title></dc:title>
      </cc:Work>
    </rdf:RDF>
  </metadata>
  <g
     id="g847"
     style="opacity:0.6"
     inkscape:label="#artikulate">
    <rect
       inkscape:label="#boundary"
       y="0"
       x="0"
       height="48"
       width="48.149998"
       id="rect4264"
       style="fill:none;fill-opacity:0.74651441;stroke-width:23.61599922;stroke-opacity:0.3596773" />
    <path
       style="fill:#d0d0d0;stroke-width:0.99998993"
       d="m 11.672197,6.1999997 c -3.7440556,0 -3.8382766,3.1721558 -3.8382766,3.1721558 V 32.608704 c 0,0 0.04698,2.819455 3.5829786,2.655691 H 24.978523 L 27.574057,42.2 33.792186,35.264395 h 0.199553 l -0.05425,-0.161393 0.04703,-0.05281 h -0.06462 l -0.488625,-1.456981 c 0.607666,-0.472376 1.309614,-1.05536 2.03505,-1.750408 0.570928,0.594961 1.912257,1.637085 2.707042,2.215521 0.12096,0.08791 0.276123,0.11538 0.421097,0.07484 0.144225,-0.04133 0.262782,-0.147127 0.31986,-0.286114 l 0.448967,-1.097489 c 0.09016,-0.22086 0.0076,-0.474645 -0.195142,-0.600098 -0.517586,-0.32152 -1.49259,-0.981306 -2.28888,-1.838443 1.747325,-2.044807 2.744455,-4.038309 2.963808,-5.927614 h 0.384419 c 0.269678,0 0.488585,-0.220365 0.488585,-0.490057 v -1.302902 c 0,-0.269685 -0.218137,-0.488586 -0.488585,-0.488586 h -3.808938 v -0.670527 c 0,-0.270443 -0.218138,-0.488585 -0.488585,-0.488585 h -1.219273 c -0.269676,0 -0.490054,0.21816 -0.490054,0.488585 v 0.670527 H 30.41171 c -0.269676,0 -0.488585,0.21816 -0.488585,0.488586 v 0.553146 L 24.236104,6.1999997 Z m 5.120641,7.8130103 h 3.114933 c 0.245644,0 0.462666,0.160312 0.535543,0.394686 h -0.0015 l 3.770785,12.166285 c 0.05256,0.170528 0.02212,0.355379 -0.08368,0.498857 -0.10517,0.14274 -0.271633,0.227421 -0.450445,0.227421 h -2.052626 c -0.247898,0 -0.466398,-0.161708 -0.537007,-0.39909 L 20.18504,23.888946 h -3.805998 l -0.833387,3.00049 c -0.06761,0.241895 -0.289746,0.410825 -0.541404,0.410825 h -1.930849 c -0.178042,0 -0.344518,-0.08469 -0.450441,-0.227421 -0.10593,-0.143483 -0.136935,-0.327614 -0.0851,-0.497394 l 3.719441,-12.166283 c 0.07211,-0.235883 0.289143,-0.396158 0.53554,-0.396153 z m 1.418814,2.249264 -1.402673,5.381809 h 2.940332 L 18.2498,16.262274 Z m 12.122269,8.103523 c 0.02644,0.0045 0.04993,0.0162 0.07771,0.0162 h 7.293649 c -0.205808,1.316859 -0.903438,2.719937 -2.077587,4.172789 -0.748209,-1.198187 -1.229002,-2.361723 -1.502446,-3.135475 -0.06911,-0.195323 -0.254856,-0.325726 -0.462177,-0.325726 h -1.20019 c -0.15624,0 -0.30229,0.07484 -0.394686,0.201015 -0.09239,0.126202 -0.119228,0.287748 -0.07193,0.43724 0.284719,0.895444 0.940014,2.653447 2.150975,4.439839 -0.496103,0.482283 -0.977834,0.896369 -1.436429,1.275024 z"
       id="path31"
       inkscape:connector-curvature="0"
       inkscape:label="#1" />
  </g>
</svg>
