<?xml version="1.0" encoding="UTF-8" standalone="no"?>
<!-- Created with Inkscape (http://www.inkscape.org/) -->

<svg
   xmlns:dc="http://purl.org/dc/elements/1.1/"
   xmlns:cc="http://creativecommons.org/ns#"
   xmlns:rdf="http://www.w3.org/1999/02/22-rdf-syntax-ns#"
   xmlns:svg="http://www.w3.org/2000/svg"
   xmlns="http://www.w3.org/2000/svg"
   xmlns:xlink="http://www.w3.org/1999/xlink"
   xmlns:sodipodi="http://sodipodi.sourceforge.net/DTD/sodipodi-0.dtd"
   xmlns:inkscape="http://www.inkscape.org/namespaces/inkscape"
   width="48.149998"
   height="48"
   viewBox="0 0 48.149998 48"
   version="1.1"
   id="svg8"
   inkscape:version="0.92+devel (b8837397f6, 2017-07-27, custom)"
   sodipodi:docname="atom.svg">
  <defs
     id="ol-defs">
    <style
       id="current-color-scheme">      .ColorScheme-Text {
        color:#d0d0d0;
        stop-color:#d0d0d0;
      }
      .ColorScheme-Background {
        color:#212121;
        stop-color:#212121;
      }
      .ColorScheme-Highlight {
        color:#0039a9;
        stop-color:#0039a9;
      }
      .ColorScheme-ViewText {
        color:#d0d0d0;
        stop-color:#d0d0d0;
      }
      .ColorScheme-ViewBackground {
        color:#19191b;
        stop-color:#19191b;
      }
      .ColorScheme-ViewHover {
        color:#005cc7;
        stop-color:#005cc7;
      }
      .ColorScheme-ViewFocus{
        color:#002466;
        stop-color:#002466;
      }
      .ColorScheme-ButtonText {
        color:#d0d0d0;
        stop-color:#d0d0d0;
      }
      .ColorScheme-ButtonBackground {
        color:#232323;
        stop-color:#232323;                             
      }                                                 
      .ColorScheme-ButtonHover {                        
        color:#005cc7;                                  
        stop-color:#005cc7;                             
      }                                                 
      .ColorScheme-ButtonFocus{                         
        color:#0039a9;                                  
        stop-color:#0039a9;                             
      }</style>
    <linearGradient
       gradientTransform="matrix(0,-0.10583333,-0.10583333,0,-0.4233333,-0.4233333)"
       gradientUnits="userSpaceOnUse"
       y2="-24"
       x2="-4"
       y1="-24"
       x1="-44"
       id="linearGradient4161"
       xlink:href="#linearGradient4167" />
    <linearGradient
       id="linearGradient4167">
      <stop
         id="stop2"
         offset="0"
         style="stop-color:#009467;stop-opacity:1" />
      <stop
         id="stop4"
         offset="1"
         style="stop-color:#87d770;stop-opacity:1" />
    </linearGradient>
  </defs>
  <sodipodi:namedview
     id="base"
     pagecolor="#002266"
     bordercolor="#ffffff"
     borderopacity="0.46666667"
     inkscape:pageopacity="0"
     inkscape:pageshadow="2"
     inkscape:zoom="51.4375"
     inkscape:cx="21.207417"
     inkscape:cy="28.754312"
     inkscape:document-units="px"
     inkscape:current-layer="g851"
     inkscape:document-rotation="0"
     showgrid="false"
     inkscape:showpageshadow="false"
     borderlayer="true"
     units="px"
     fit-margin-top="0"
     fit-margin-left="0"
     fit-margin-right="0"
     fit-margin-bottom="0"
     inkscape:window-width="1920"
     inkscape:window-height="1051"
     inkscape:window-x="0"
     inkscape:window-y="0"
     inkscape:window-maximized="1"
     inkscape:snap-page="true" />
  <metadata
     id="metadata5">
    <rdf:RDF>
      <cc:Work
         rdf:about="">
        <dc:format>image/svg+xml</dc:format>
        <dc:type
           rdf:resource="http://purl.org/dc/dcmitype/StillImage" />
        <dc:title />
      </cc:Work>
    </rdf:RDF>
  </metadata>
  <g
     id="g851"
     inkscape:label="#atom">
    <rect
       inkscape:label="#boundary"
       y="0"
       x="0"
       height="48"
       width="48.149998"
       id="rect4264"
       style="fill:none;fill-opacity:0.74651441;stroke-width:23.61599922;stroke-opacity:0.3596773" />
    <path
       inkscape:connector-curvature="0"
       style="opacity:0.6;fill:#d0d0d0;fill-opacity:1;stroke-width:1"
       d="M 24.074999,5.9999999 C 14.102999,5.9999999 6.0749989,14.028 6.0749989,24 c 0,9.972 8.0280001,18 18.0000001,18 9.972,0 18,-8.028 18,-18 0,-9.972 -8.028,-18 -18,-18.0000001 z m 5.686729,4.2324821 c 0.495423,0.01733 0.981722,0.136305 1.440929,0.388197 0.751561,0.41226 1.166627,1.14556 1.357587,1.846669 0.190957,0.701111 0.201465,1.41606 0.157905,2.074761 -0.02576,1.029879 -0.38203,2.174096 -0.629231,3.161952 -0.623065,-0.194782 -1.246126,-0.362488 -1.869189,-0.439101 0.319074,-0.921697 0.46102,-2.073487 0.59472,-2.847859 0.03487,-0.528358 0.0079,-1.063986 -0.09644,-1.447508 -0.104508,-0.383517 -0.241085,-0.569545 -0.434252,-0.675499 -0.482924,-0.264911 -1.168772,-0.21564 -2.149335,0.267563 -0.980564,0.483212 -2.13026,1.376948 -3.241539,2.441025 -0.977063,0.935568 -1.912226,1.999879 -2.750265,3.028801 0.643432,-0.01148 1.278726,-0.0295 1.951942,-0.0153 1.952339,0.04099 5.456691,0.473778 8.61048,1.414609 1.576895,0.470412 3.060302,1.061516 4.228479,1.855442 1.168176,0.793919 2.101314,1.884321 2.131785,3.276632 0.03469,1.585272 -1.120966,2.653477 -2.08573,3.305165 -0.964766,0.65169 -2.582946,1.315309 -2.582946,1.315309 -0.177885,-0.802082 -0.34958,-1.364294 -0.52044,-1.893989 0,0 1.301708,-0.508536 2.033106,-1.002593 0.731354,-0.494055 1.26034,-1.110703 1.247882,-1.679992 -0.01215,-0.55471 -0.398018,-1.129489 -1.298372,-1.741396 -0.900353,-0.611904 -2.235388,-1.16852 -3.699918,-1.605418 -2.929056,-0.87379 -6.399915,-1.299956 -8.103852,-1.335654 -1.203887,-0.02524 -2.335281,0.0079 -3.425768,0.06804 -0.386078,0.540868 -0.714706,1.033256 -0.949658,1.42119 -0.390602,0.644965 -0.734501,1.271615 -1.074665,1.897114 0.495846,1.240079 0.996054,2.326496 1.377324,3.020027 1.87776,3.415658 3.904737,6.15555 5.702305,7.818736 0.898783,0.8316 1.739417,1.387942 2.419092,1.647091 0.679678,0.259139 1.138032,0.242837 1.526466,0.05042 0.0272,-0.01372 0.05501,-0.02619 0.08343,-0.03724 1.121548,-0.429951 1.540653,-1.18114 1.697456,-2.410383 0.156802,-1.22924 -0.102893,-2.860047 -0.561458,-4.447795 -0.77198,-2.684212 -1.695466,-4.6116 -3.130682,-6.989515 0.804123,0.04464 1.545176,0.212558 2.423585,0.469784 0,0 1.544238,2.539107 2.540608,5.988974 0.498177,1.724933 0.833971,3.547656 0.620676,5.219802 -0.21177,1.660131 -1.125929,3.238094 -2.879662,3.928009 -0.931642,0.440208 -2.001211,0.391901 -3.00029,0.01103 -1.017603,-0.38799 -2.018333,-1.087677 -3.035387,-2.028699 -2.034108,-1.882042 -4.131727,-4.755969 -6.079536,-8.299046 -0.253175,-0.460526 -0.537602,-1.046995 -0.833414,-1.699727 -0.808627,1.738245 -1.409193,3.350178 -1.717269,4.708789 -0.270783,1.194165 -0.330341,2.20095 -0.214943,2.919141 0.115403,0.7182 0.358542,1.106426 0.719372,1.346621 0.972873,0.647617 1.622561,0.497736 2.206353,0.230287 0.566115,-0.198562 1.103415,-0.82404 1.663571,-1.433974 0.347733,0.652533 0.733369,1.033978 1.151302,1.437264 0,0 -1.015904,1.272111 -2.018742,1.731525 -1.002834,0.459423 -2.557798,0.624668 -4.059601,-0.375039 -0.876515,-0.583465 -1.375614,-1.558766 -1.548405,-2.634025 -0.1728,-1.075257 -0.06736,-2.293785 0.23906,-3.645088 0.447215,-1.972201 1.346004,-4.241027 2.607707,-6.665116 -0.302064,-0.808149 -0.578603,-1.651467 -0.835607,-2.524365 -0.422347,0.09751 -0.863098,0.18963 -1.234768,0.304848 -1.169573,0.362574 -2.071951,0.81301 -2.63622,1.272053 -0.564266,0.459043 -0.779496,0.865782 -0.807095,1.298371 -0.07024,1.101416 0.443747,1.529784 1.118529,1.897113 0.674782,0.367326 1.652209,0.66424 1.652209,0.66424 l -0.461302,1.693447 c 0,0 -1.04636,-0.104513 -2.103273,-0.679892 -1.056917,-0.575352 -2.2288631,-1.832352 -2.1098521,-3.697726 0.06705,-1.050804 0.661919,-1.968689 1.5067241,-2.655959 0.844805,-0.687264 1.950964,-1.203905 3.274438,-1.614188 0.409725,-0.127012 0.847395,-0.240779 1.298372,-0.34652 -0.33818,-1.496194 -0.539944,-2.966146 -0.44303,-4.285503 0.103455,-1.40863 0.581556,-2.764636 1.7721,-3.487178 0.68301,-0.41452 1.459143,-0.477767 2.116434,-0.355293 0.657294,0.122467 1.227683,0.404525 1.712882,0.706205 0.9704,0.603383 1.74481,1.466424 1.74481,1.466424 -0.502353,0.417731 -0.966252,0.851027 -1.356636,1.314074 0,0 -0.689514,-0.719793 -1.39704,-1.159726 -0.353763,-0.219983 -0.737555,-0.390476 -1.05492,-0.449606 -0.317367,-0.05911 -0.536062,-0.03267 -0.7742,0.111847 -0.474316,0.287865 -0.77998,0.907927 -0.859734,1.993613 -0.07612,1.035981 0.09603,2.391637 0.418903,3.805193 0.814619,-0.126923 1.672787,-0.224438 2.576999,-0.293897 1.082927,-1.449057 2.445311,-3.086028 3.949943,-4.526748 1.195188,-1.144422 2.446276,-2.145771 3.717465,-2.772198 0.635592,-0.313214 1.307952,-0.540252 1.973876,-0.603129 0.166477,-0.01575 0.332716,-0.02115 0.497853,-0.0153 z m -10.904813,9.825865 c -0.543681,0.06768 -1.042757,0.150741 -1.56682,0.227645 0.164189,0.540956 0.291724,1.079688 0.466258,1.615616 0.25969,-0.440396 0.474324,-0.863355 0.742757,-1.306599 0.09401,-0.155339 0.255962,-0.373375 0.357857,-0.536729 z m 5.790286,2.835445 c 0.929774,0 1.684372,0.758985 1.684372,1.68876 0,0.929774 -0.754596,1.684372 -1.684372,1.684372 -0.929775,0 -1.684375,-0.754598 -1.684375,-1.684372 0,-0.929775 0.754598,-1.68876 1.684375,-1.68876 z"
       id="rect10"
       inkscape:label="#1"
       sodipodi:nodetypes="ssssscccccccccscccsccsccccssccccsccccscccccccsccccscccccscccccccccccccccsccccccccccsscccccccccsssss" />
  </g>
</svg>
