<?xml version="1.0" encoding="UTF-8" standalone="no"?>
<!-- Created with Inkscape (http://www.inkscape.org/) -->

<svg
   xmlns:dc="http://purl.org/dc/elements/1.1/"
   xmlns:cc="http://creativecommons.org/ns#"
   xmlns:rdf="http://www.w3.org/1999/02/22-rdf-syntax-ns#"
   xmlns:svg="http://www.w3.org/2000/svg"
   xmlns="http://www.w3.org/2000/svg"
   xmlns:sodipodi="http://sodipodi.sourceforge.net/DTD/sodipodi-0.dtd"
   xmlns:inkscape="http://www.inkscape.org/namespaces/inkscape"
   width="48.149998"
   height="48"
   viewBox="0 0 48.149998 48"
   version="1.1"
   id="svg8"
   inkscape:version="0.92+devel (4546dc857e, 2017-07-25, custom)"
   sodipodi:docname="bitcoin128.svg">
  <defs
     id="ol-defs">
    <style
       id="current-color-scheme">      .ColorScheme-Text {
        color:#d0d0d0;
        stop-color:#d0d0d0;
      }
      .ColorScheme-Background {
        color:#212121;
        stop-color:#212121;
      }
      .ColorScheme-Highlight {
        color:#0039a9;
        stop-color:#0039a9;
      }
      .ColorScheme-ViewText {
        color:#d0d0d0;
        stop-color:#d0d0d0;
      }
      .ColorScheme-ViewBackground {
        color:#19191b;
        stop-color:#19191b;
      }
      .ColorScheme-ViewHover {
        color:#005cc7;
        stop-color:#005cc7;
      }
      .ColorScheme-ViewFocus{
        color:#002466;
        stop-color:#002466;
      }
      .ColorScheme-ButtonText {
        color:#d0d0d0;
        stop-color:#d0d0d0;
      }
      .ColorScheme-ButtonBackground {
        color:#232323;
        stop-color:#232323;                             
      }                                                 
      .ColorScheme-ButtonHover {                        
        color:#005cc7;                                  
        stop-color:#005cc7;                             
      }                                                 
      .ColorScheme-ButtonFocus{                         
        color:#0039a9;                                  
        stop-color:#0039a9;                             
      }</style>
  </defs>
  <sodipodi:namedview
     id="base"
     pagecolor="#002266"
     bordercolor="#ffffff"
     borderopacity="0.46666667"
     inkscape:pageopacity="0"
     inkscape:pageshadow="2"
     inkscape:zoom="12.859375"
     inkscape:cx="31.6838"
     inkscape:cy="21.027627"
     inkscape:document-units="px"
     inkscape:current-layer="g847"
     inkscape:document-rotation="0"
     showgrid="false"
     inkscape:showpageshadow="false"
     borderlayer="true"
     units="px"
     fit-margin-top="0"
     fit-margin-left="0"
     fit-margin-right="0"
     fit-margin-bottom="0"
     inkscape:window-width="1920"
     inkscape:window-height="1051"
     inkscape:window-x="0"
     inkscape:window-y="0"
     inkscape:window-maximized="1"
     inkscape:snap-page="true" />
  <metadata
     id="metadata5">
    <rdf:RDF>
      <cc:Work
         rdf:about="">
        <dc:format>image/svg+xml</dc:format>
        <dc:type
           rdf:resource="http://purl.org/dc/dcmitype/StillImage" />
        <dc:title />
      </cc:Work>
    </rdf:RDF>
  </metadata>
  <g
     id="g847"
     inkscape:label="#bitcoin128">
    <rect
       inkscape:label="#boundary"
       y="0"
       x="0"
       height="48"
       width="48.149998"
       id="rect4264"
       style="fill:none;fill-opacity:0.74651441;stroke-width:23.61599922;stroke-opacity:0.3596773" />
    <path
       inkscape:label="#"
       inkscape:connector-curvature="0"
       id="path816"
       d="M 24.074999,6 A 18,18 0 0 0 6.0749988,24 18,18 0 0 0 24.074999,42 a 18,18 0 0 0 18,-18 18,18 0 0 0 -18,-18 z m -3.911133,4.585694 h 2.234619 v 4.471435 c 0.677819,-0.02458 1.569164,0 2.236817,0 v -4.471435 h 2.234619 v 4.471435 c 3.35365,0 5.589844,1.948816 5.589844,4.471436 0,1.949023 -0.707848,4.473572 -2.234619,4.471435 2.644653,0.0021 3.353026,2.236492 3.353026,3.911132 0,1.679008 -0.0011,5.031739 -6.743407,5.031739 l 0.07031,4.471436 h -2.234619 l -0.07031,-4.471436 h -2.201661 v 4.429688 l -2.234619,0.04175 v -4.471436 c -0.594175,0 -1.338305,-0.02237 -1.953369,0 h -3.636475 v -2.234619 c 0,0 2.661151,0.02909 2.62793,0 0.719028,-0.02235 0.685678,-0.803663 0.725098,-1.118409 V 18.522217 c -0.106515,-0.498042 -0.43464,-1.246061 -1.463379,-1.230468 0.03067,-0.03352 -1.889649,0 -1.889649,0 V 15.05713 h 3.504639 c 0.526531,0 1.535552,0.02236 2.085205,0 z m 2.234619,6.706054 v 5.589843 c 2.235765,0 5.590233,-3.2e-5 5.589843,-2.794922 3.9e-4,-2.794666 -3.354078,-2.794921 -5.589843,-2.794921 z m 0,7.826661 v 5.589843 c 4.47153,0 6.708719,-3.2e-5 6.708252,-2.794922 4.67e-4,-2.794665 -2.236722,-2.794781 -6.708252,-2.794921 z"
       style="opacity:0.6;fill:#d0d0d0;stroke-width:3.64724398" />
  </g>
</svg>
