<?xml version="1.0" encoding="UTF-8" standalone="no"?>
<!-- Created with Inkscape (http://www.inkscape.org/) -->

<svg
   xmlns:dc="http://purl.org/dc/elements/1.1/"
   xmlns:cc="http://creativecommons.org/ns#"
   xmlns:rdf="http://www.w3.org/1999/02/22-rdf-syntax-ns#"
   xmlns:svg="http://www.w3.org/2000/svg"
   xmlns="http://www.w3.org/2000/svg"
   xmlns:sodipodi="http://sodipodi.sourceforge.net/DTD/sodipodi-0.dtd"
   xmlns:inkscape="http://www.inkscape.org/namespaces/inkscape"
   width="48.149998"
   height="48"
   viewBox="0 0 48.149998 48"
   version="1.1"
   id="svg8"
   inkscape:version="0.92+devel (f96dc7e339, 2017-07-28, custom)"
   sodipodi:docname="blinken.svg">
  <defs
     id="ol-defs">
    <style
       id="current-color-scheme">      .ColorScheme-Text {
        color:#d0d0d0;
        stop-color:#d0d0d0;
      }
      .ColorScheme-Background {
        color:#212121;
        stop-color:#212121;
      }
      .ColorScheme-Highlight {
        color:#0039a9;
        stop-color:#0039a9;
      }
      .ColorScheme-ViewText {
        color:#d0d0d0;
        stop-color:#d0d0d0;
      }
      .ColorScheme-ViewBackground {
        color:#19191b;
        stop-color:#19191b;
      }
      .ColorScheme-ViewHover {
        color:#005cc7;
        stop-color:#005cc7;
      }
      .ColorScheme-ViewFocus{
        color:#002466;
        stop-color:#002466;
      }
      .ColorScheme-ButtonText {
        color:#d0d0d0;
        stop-color:#d0d0d0;
      }
      .ColorScheme-ButtonBackground {
        color:#232323;
        stop-color:#232323;                             
      }                                                 
      .ColorScheme-ButtonHover {                        
        color:#005cc7;                                  
        stop-color:#005cc7;                             
      }                                                 
      .ColorScheme-ButtonFocus{                         
        color:#0039a9;                                  
        stop-color:#0039a9;                             
      }</style>
    <style
       id="current-color-scheme-7">      .ColorScheme-Text {
        color:#d0d0d0;
        stop-color:#d0d0d0;
      }
      .ColorScheme-Background {
        color:#212121;
        stop-color:#212121;
      }
      .ColorScheme-Highlight {
        color:#0039a9;
        stop-color:#0039a9;
      }
      .ColorScheme-ViewText {
        color:#d0d0d0;
        stop-color:#d0d0d0;
      }
      .ColorScheme-ViewBackground {
        color:#19191b;
        stop-color:#19191b;
      }
      .ColorScheme-ViewHover {
        color:#005cc7;
        stop-color:#005cc7;
      }
      .ColorScheme-ViewFocus{
        color:#002466;
        stop-color:#002466;
      }
      .ColorScheme-ButtonText {
        color:#d0d0d0;
        stop-color:#d0d0d0;
      }
      .ColorScheme-ButtonBackground {
        color:#232323;
        stop-color:#232323;                             
      }                                                 
      .ColorScheme-ButtonHover {                        
        color:#005cc7;                                  
        stop-color:#005cc7;                             
      }                                                 
      .ColorScheme-ButtonFocus{                         
        color:#0039a9;                                  
        stop-color:#0039a9;                             
      }</style>
  </defs>
  <sodipodi:namedview
     id="base"
     pagecolor="#002266"
     bordercolor="#ffffff"
     borderopacity="0.46666667"
     inkscape:pageopacity="0"
     inkscape:pageshadow="2"
     inkscape:zoom="12.859375"
     inkscape:cx="31.6838"
     inkscape:cy="27.406602"
     inkscape:document-units="px"
     inkscape:current-layer="g841"
     inkscape:document-rotation="0"
     showgrid="false"
     inkscape:showpageshadow="false"
     borderlayer="true"
     units="px"
     fit-margin-top="0"
     fit-margin-left="0"
     fit-margin-right="0"
     fit-margin-bottom="0"
     inkscape:window-width="1920"
     inkscape:window-height="1051"
     inkscape:window-x="0"
     inkscape:window-y="0"
     inkscape:window-maximized="1"
     inkscape:snap-page="true" />
  <metadata
     id="metadata5">
    <rdf:RDF>
      <cc:Work
         rdf:about="">
        <dc:format>image/svg+xml</dc:format>
        <dc:type
           rdf:resource="http://purl.org/dc/dcmitype/StillImage" />
        <dc:title></dc:title>
      </cc:Work>
    </rdf:RDF>
  </metadata>
  <g
     id="g841"
     inkscape:label="#blinken">
    <rect
       inkscape:label="#boundary"
       y="0"
       x="0"
       height="48"
       width="48.149998"
       id="rect4264"
       style="fill:none;fill-opacity:0.74651441;stroke-width:23.61599922;stroke-opacity:0.3596773" />
    <path
       inkscape:connector-curvature="0"
       style="font-variation-settings:normal;opacity:0.6;vector-effect:none;fill:#d0d0d0;stroke-width:3.4000001"
       d="M 22.556979,6 A 18.075021,18.075021 0 0 0 6.0749984,22.481981 H 13.55036 a 10.648732,10.648732 0 0 1 9.006619,-9.011031 z m 3.036038,0 v 7.475362 a 10.648732,10.648732 0 0 1 9.011032,9.006619 h 7.47095 A 18.075021,18.075021 0 0 0 25.593017,6 Z m -0.997302,10.621721 -2.731554,0.255945 v 10.555528 l 2.700663,-0.370678 v -4.509929 l 3.605296,4.990928 2.824221,-0.851679 -3.693553,-4.792352 3.720031,-4.540817 -2.88159,-0.626625 -3.574405,4.54082 z m -6.155922,2.581515 c -0.03057,0 -0.06966,0.01401 -0.09268,0.02648 l -1.050256,1.02378 c -0.04476,0.0444 -0.06369,0.115974 -0.03089,0.167691 l 1.231184,1.932825 c -0.221057,0.351114 -0.380863,0.735037 -0.507476,1.134101 l -2.285855,0.454524 c -0.06362,0.01649 -0.119137,0.05287 -0.119137,0.114731 v 1.416526 c 0,0.05985 0.05793,0.126638 0.119137,0.141211 l 2.224074,0.511889 c 0.118346,0.462646 0.300226,0.903473 0.542779,1.306202 l -1.292962,1.844572 c -0.03586,0.05208 -0.01649,0.124175 0.03089,0.167691 l 1.050255,0.99289 c 0.04476,0.04056 0.126299,0.06369 0.180931,0.03089 l 2.012258,-1.164992 c 0.395664,0.215635 0.811058,0.396873 1.262075,0.511891 l 0.476586,2.126992 c 0.01378,0.06175 0.05874,0.114731 0.123565,0.114731 h 1.500367 c 0.06329,0 0.134907,-0.05597 0.150045,-0.114731 l 0.542779,-2.126992 c 0.464901,-0.118572 0.91414,-0.31279 1.319443,-0.538366 l 1.981368,1.248834 c 0.05456,0.03278 0.134545,0.01446 0.18093,-0.03089 l 1.050245,-0.992893 c 0.04501,-0.0444 0.06385,-0.116154 0.03089,-0.167691 l -0.719289,-1.138516 -0.242707,0.08825 c -0.03425,0.01649 -0.06814,-0.0019 -0.08825,-0.03089 0,0 -0.45334,-0.648365 -1.050258,-1.473889 -0.713593,1.31953 -2.171465,2.210835 -3.848002,2.210835 -2.381951,0 -4.324588,-1.80489 -4.324588,-4.055407 0,-1.655396 1.054596,-3.082262 2.555037,-3.720028 v -1.045846 c -0.273098,0.09069 -0.530314,0.179508 -0.781074,0.3089 h -0.03088 L 18.52806,19.229714 c -0.02732,-0.01649 -0.05764,-0.02937 -0.08825,-0.02648 z M 6.0749984,25.518019 A 18.075021,18.075021 0 0 0 22.556979,42 v -7.475362 a 10.648732,10.648732 0 0 1 -9.011031,-9.006619 z m 28.5246376,0 a 10.648732,10.648732 0 0 1 -9.006619,9.011032 V 42 A 18.075021,18.075021 0 0 0 42.074999,25.518019 Z"
       id="path811"
       inkscape:label="#" />
  </g>
</svg>
