<?xml version="1.0" encoding="UTF-8" standalone="no"?>
<!-- Created with Inkscape (http://www.inkscape.org/) -->

<svg
   xmlns:dc="http://purl.org/dc/elements/1.1/"
   xmlns:cc="http://creativecommons.org/ns#"
   xmlns:rdf="http://www.w3.org/1999/02/22-rdf-syntax-ns#"
   xmlns:svg="http://www.w3.org/2000/svg"
   xmlns="http://www.w3.org/2000/svg"
   xmlns:sodipodi="http://sodipodi.sourceforge.net/DTD/sodipodi-0.dtd"
   xmlns:inkscape="http://www.inkscape.org/namespaces/inkscape"
   width="48.149998"
   height="48"
   viewBox="0 0 48.149998 48"
   version="1.1"
   id="svg8"
   inkscape:version="0.92+devel (f96dc7e339, 2017-07-28, custom)"
   sodipodi:docname="bovo.svg">
  <defs
     id="ol-defs">
    <style
       id="current-color-scheme">      .ColorScheme-Text {
        color:#d0d0d0;
        stop-color:#d0d0d0;
      }
      .ColorScheme-Background {
        color:#212121;
        stop-color:#212121;
      }
      .ColorScheme-Highlight {
        color:#0039a9;
        stop-color:#0039a9;
      }
      .ColorScheme-ViewText {
        color:#d0d0d0;
        stop-color:#d0d0d0;
      }
      .ColorScheme-ViewBackground {
        color:#19191b;
        stop-color:#19191b;
      }
      .ColorScheme-ViewHover {
        color:#005cc7;
        stop-color:#005cc7;
      }
      .ColorScheme-ViewFocus{
        color:#002466;
        stop-color:#002466;
      }
      .ColorScheme-ButtonText {
        color:#d0d0d0;
        stop-color:#d0d0d0;
      }
      .ColorScheme-ButtonBackground {
        color:#232323;
        stop-color:#232323;                             
      }                                                 
      .ColorScheme-ButtonHover {                        
        color:#005cc7;                                  
        stop-color:#005cc7;                             
      }                                                 
      .ColorScheme-ButtonFocus{                         
        color:#0039a9;                                  
        stop-color:#0039a9;                             
      }</style>
    <style
       id="current-color-scheme-7">      .ColorScheme-Text {
        color:#d0d0d0;
        stop-color:#d0d0d0;
      }
      .ColorScheme-Background {
        color:#212121;
        stop-color:#212121;
      }
      .ColorScheme-Highlight {
        color:#0039a9;
        stop-color:#0039a9;
      }
      .ColorScheme-ViewText {
        color:#d0d0d0;
        stop-color:#d0d0d0;
      }
      .ColorScheme-ViewBackground {
        color:#19191b;
        stop-color:#19191b;
      }
      .ColorScheme-ViewHover {
        color:#005cc7;
        stop-color:#005cc7;
      }
      .ColorScheme-ViewFocus{
        color:#002466;
        stop-color:#002466;
      }
      .ColorScheme-ButtonText {
        color:#d0d0d0;
        stop-color:#d0d0d0;
      }
      .ColorScheme-ButtonBackground {
        color:#232323;
        stop-color:#232323;                             
      }                                                 
      .ColorScheme-ButtonHover {                        
        color:#005cc7;                                  
        stop-color:#005cc7;                             
      }                                                 
      .ColorScheme-ButtonFocus{                         
        color:#0039a9;                                  
        stop-color:#0039a9;                             
      }</style>
  </defs>
  <sodipodi:namedview
     id="base"
     pagecolor="#002266"
     bordercolor="#ffffff"
     borderopacity="0.46666667"
     inkscape:pageopacity="0"
     inkscape:pageshadow="2"
     inkscape:zoom="12.859375"
     inkscape:cx="31.6838"
     inkscape:cy="27.406602"
     inkscape:document-units="px"
     inkscape:current-layer="svg8"
     inkscape:document-rotation="0"
     showgrid="false"
     inkscape:showpageshadow="false"
     borderlayer="true"
     units="px"
     fit-margin-top="0"
     fit-margin-left="0"
     fit-margin-right="0"
     fit-margin-bottom="0"
     inkscape:window-width="1920"
     inkscape:window-height="1051"
     inkscape:window-x="0"
     inkscape:window-y="0"
     inkscape:window-maximized="1"
     inkscape:snap-page="true" />
  <metadata
     id="metadata5">
    <rdf:RDF>
      <cc:Work
         rdf:about="">
        <dc:format>image/svg+xml</dc:format>
        <dc:type
           rdf:resource="http://purl.org/dc/dcmitype/StillImage" />
        <dc:title></dc:title>
      </cc:Work>
    </rdf:RDF>
  </metadata>
  <g
     id="g841"
     inkscape:label="#bovo">
    <rect
       inkscape:label="#boundary"
       y="0"
       x="0"
       height="48"
       width="48.149998"
       id="rect4264"
       style="fill:none;fill-opacity:0.74651441;stroke-width:23.61599922;stroke-opacity:0.3596773" />
    <path
       style="font-variation-settings:normal;opacity:0.6;vector-effect:none;fill:#d0d0d0;stroke:none;stroke-width:1.89999998;stroke-linecap:square;stroke-miterlimit:4;stroke-dasharray:none;stroke-opacity:1"
       d="m 7.3136484,5.9999999 c -0.68626,0 -1.238672,0.5524161 -1.238672,1.2386738 v 8.8098683 c 0,0.686259 0.552417,1.238673 1.238672,1.238673 h 8.8098696 c 0.68626,0 1.238674,-0.552407 1.238674,-1.238673 V 7.2386737 c 0,-0.6862599 -0.55241,-1.2386738 -1.238674,-1.2386738 z m 24.7128286,0 c -0.68626,0 -1.238671,0.5524161 -1.238671,1.2386738 v 8.8098683 c 0,0.686259 0.552407,1.238673 1.238671,1.238673 h 8.80987 c 0.68626,0 1.238674,-0.552407 1.238674,-1.238673 V 7.2386737 c 0,-0.6862599 -0.552416,-1.2386738 -1.238674,-1.2386738 z m -3.513476,0.00405 c -0.08532,-0.00608 -0.170753,-0.00427 -0.256275,0.00697 -2.862132,0 -5.724529,0 -8.586659,0 -0.74852,-0.025605 -1.3353,0.7083976 -1.238674,1.4301918 0.0043,2.9150543 -0.0092,5.8303243 0.0054,8.7451103 0.04966,0.716637 0.772073,1.202033 1.456371,1.111913 2.904414,-0.0043 5.809275,0.0079 8.713424,-0.007 0.716634,-0.04966 1.20203,-0.770695 1.11191,-1.454991 -0.0043,-2.904414 0.0079,-5.809275 -0.007,-8.7134237 C 29.668118,6.495778 29.11012,6.0463197 28.512854,6.0040331 Z m -7.010419,2.1328856 c 0.856956,0.8570711 1.714972,1.7130802 2.572417,2.5696605 0.857442,-0.8565803 1.715458,-1.7125894 2.572414,-2.5696605 l 0.947951,0.947951 c -0.856956,0.8570688 -1.714972,1.7130775 -2.572417,2.5696605 0.857445,0.856581 1.715461,1.71259 2.572417,2.569659 l -0.947951,0.947951 c -0.856956,-0.857072 -1.71497,-1.713081 -2.572414,-2.569661 -0.857445,0.856583 -1.715461,1.712589 -2.572417,2.569661 l -0.947949,-0.947951 c 0.856956,-0.857069 1.714972,-1.713078 2.572415,-2.569659 -0.857443,-0.856583 -1.715459,-1.7125917 -2.572415,-2.5696605 z m 7.010419,10.2125035 c -0.08532,-0.0061 -0.170753,-0.0043 -0.256275,0.007 -2.862132,0 -5.724529,0 -8.586659,0 -0.74852,-0.0256 -1.3353,0.708389 -1.238674,1.430192 0.0043,2.915057 -0.0092,5.830324 0.0054,8.745113 0.04966,0.716637 0.772073,1.20203 1.456371,1.111913 2.904414,-0.0043 5.809275,0.0079 8.713424,-0.007 0.716634,-0.04966 1.20203,-0.770696 1.11191,-1.454993 -0.0043,-2.904414 0.0079,-5.809274 -0.007,-8.713422 -0.04338,-0.626988 -0.601378,-1.076446 -1.198644,-1.118733 z m -21.1773076,0.018 c -0.686259,0 -1.238671,0.552419 -1.238671,1.238674 v 8.809841 c 0,0.68626 0.552416,1.238674 1.238671,1.238672 h 8.8098706 c 0.686262,0 1.238673,-0.552407 1.238673,-1.238672 v -8.809845 c 0,-0.68626 -0.552416,-1.238672 -1.238673,-1.238672 z m 24.6907836,0 c -0.68626,0 -1.238671,0.552419 -1.238671,1.238674 v 8.809841 c 0,0.68626 0.552407,1.238674 1.238671,1.238672 h 8.80987 c 0.68626,1.1e-5 1.238674,-0.552396 1.238674,-1.238661 v -8.809856 c 0,-0.68626 -0.552416,-1.238672 -1.238674,-1.238672 z m -10.523895,2.114929 c 0.856956,0.857069 1.714972,1.713078 2.572417,2.569658 0.857442,-0.85658 1.715458,-1.712589 2.572414,-2.569658 l 0.947951,0.947949 c -0.856956,0.857068 -1.714972,1.713077 -2.572417,2.56966 0.857445,0.856581 1.715461,1.71259 2.572417,2.569659 l -0.947951,0.947951 c -0.856956,-0.857069 -1.71497,-1.713081 -2.572414,-2.569661 -0.857445,0.856583 -1.715461,1.712589 -2.572417,2.569661 l -0.947949,-0.947951 c 0.856956,-0.857069 1.714972,-1.713078 2.572415,-2.569659 -0.857443,-0.856583 -1.715459,-1.712592 -2.572415,-2.56966 z M 7.3356934,30.712782 c -0.686259,0 -1.238671,0.552418 -1.238671,1.238674 v 8.809868 C 6.0970224,41.447592 6.6494384,42 7.3356934,42 h 8.8098706 c 0.686259,0 1.238673,-0.552417 1.238673,-1.238676 v -8.809868 c 0,-0.68626 -0.552416,-1.238672 -1.238673,-1.238674 z m 12.3453916,0 c -0.68626,0 -1.238671,0.552418 -1.238671,1.238674 v 8.809868 C 18.442414,41.447592 18.994821,42 19.681085,42 h 8.80987 c 0.68626,0 1.238674,-0.552417 1.238674,-1.238676 v -8.809868 c 0,-0.68626 -0.552418,-1.238672 -1.238674,-1.238674 z m 12.345392,0 c -0.68626,0 -1.238671,0.552418 -1.238671,1.238674 v 8.809868 C 30.787806,41.447592 31.340213,42 32.026477,42 h 8.80987 c 0.68626,0 1.238674,-0.552417 1.238674,-1.238676 v -8.809868 c 0,-0.68626 -0.552416,-1.238674 -1.238674,-1.238674 z M 11.788854,32.05066 c 2.32972,0 4.234082,1.90436 4.234082,4.234083 2e-6,2.32972 -1.904362,4.234082 -4.234082,4.234082 -2.3297196,0 -4.2285716,-1.904362 -4.2285716,-4.234082 0,-2.329723 1.898852,-4.234083 4.2285716,-4.234083 z m 12.345392,0 c 2.32972,0 4.234082,1.90436 4.234082,4.234083 0,2.32972 -1.904362,4.234082 -4.234082,4.234082 -2.329721,0 -4.228572,-1.904362 -4.228572,-4.234082 0,-2.329723 1.898851,-4.234083 4.228572,-4.234083 z m -12.345392,1.339254 c -1.605339,0 -2.8906956,1.28949 -2.8906956,2.894829 0,1.605338 1.2853566,2.890695 2.8906956,2.890695 1.605339,0 2.894829,-1.285357 2.894829,-2.890695 0,-1.605339 -1.28949,-2.894829 -2.894829,-2.894829 z m 12.345392,0 c -1.605339,0 -2.890696,1.28949 -2.890696,2.894829 0,1.605338 1.285357,2.890695 2.890696,2.890695 1.605336,0 2.894829,-1.285357 2.894829,-2.890695 0,-1.605339 -1.289493,-2.894829 -2.894829,-2.894829 z"
       id="path855"
       inkscape:label="#"
       inkscape:connector-curvature="0" />
  </g>
</svg>
