<?xml version="1.0" encoding="UTF-8" standalone="no"?>
<!-- Created with Inkscape (http://www.inkscape.org/) -->

<svg
   xmlns:dc="http://purl.org/dc/elements/1.1/"
   xmlns:cc="http://creativecommons.org/ns#"
   xmlns:rdf="http://www.w3.org/1999/02/22-rdf-syntax-ns#"
   xmlns:svg="http://www.w3.org/2000/svg"
   xmlns="http://www.w3.org/2000/svg"
   xmlns:sodipodi="http://sodipodi.sourceforge.net/DTD/sodipodi-0.dtd"
   xmlns:inkscape="http://www.inkscape.org/namespaces/inkscape"
   width="48.149998"
   height="48"
   viewBox="0 0 48.149998 48"
   version="1.1"
   id="svg8"
   inkscape:version="0.92+devel (4546dc857e, 2017-07-25, custom)"
   sodipodi:docname="breeze-settings.svg">
  <defs
     id="ol-defs">
    <style
       id="current-color-scheme">      .ColorScheme-Text {
        color:#d0d0d0;
        stop-color:#d0d0d0;
      }
      .ColorScheme-Background {
        color:#212121;
        stop-color:#212121;
      }
      .ColorScheme-Highlight {
        color:#0039a9;
        stop-color:#0039a9;
      }
      .ColorScheme-ViewText {
        color:#d0d0d0;
        stop-color:#d0d0d0;
      }
      .ColorScheme-ViewBackground {
        color:#19191b;
        stop-color:#19191b;
      }
      .ColorScheme-ViewHover {
        color:#005cc7;
        stop-color:#005cc7;
      }
      .ColorScheme-ViewFocus{
        color:#002466;
        stop-color:#002466;
      }
      .ColorScheme-ButtonText {
        color:#d0d0d0;
        stop-color:#d0d0d0;
      }
      .ColorScheme-ButtonBackground {
        color:#232323;
        stop-color:#232323;                             
      }                                                 
      .ColorScheme-ButtonHover {                        
        color:#005cc7;                                  
        stop-color:#005cc7;                             
      }                                                 
      .ColorScheme-ButtonFocus{                         
        color:#0039a9;                                  
        stop-color:#0039a9;                             
      }</style>
    <style
       id="current-color-scheme-7">      .ColorScheme-Text {
        color:#d0d0d0;
        stop-color:#d0d0d0;
      }
      .ColorScheme-Background {
        color:#212121;
        stop-color:#212121;
      }
      .ColorScheme-Highlight {
        color:#0039a9;
        stop-color:#0039a9;
      }
      .ColorScheme-ViewText {
        color:#d0d0d0;
        stop-color:#d0d0d0;
      }
      .ColorScheme-ViewBackground {
        color:#19191b;
        stop-color:#19191b;
      }
      .ColorScheme-ViewHover {
        color:#005cc7;
        stop-color:#005cc7;
      }
      .ColorScheme-ViewFocus{
        color:#002466;
        stop-color:#002466;
      }
      .ColorScheme-ButtonText {
        color:#d0d0d0;
        stop-color:#d0d0d0;
      }
      .ColorScheme-ButtonBackground {
        color:#232323;
        stop-color:#232323;                             
      }                                                 
      .ColorScheme-ButtonHover {                        
        color:#005cc7;                                  
        stop-color:#005cc7;                             
      }                                                 
      .ColorScheme-ButtonFocus{                         
        color:#0039a9;                                  
        stop-color:#0039a9;                             
      }</style>
  </defs>
  <sodipodi:namedview
     id="base"
     pagecolor="#002266"
     bordercolor="#ffffff"
     borderopacity="0.46666667"
     inkscape:pageopacity="0"
     inkscape:pageshadow="2"
     inkscape:zoom="12.859375"
     inkscape:cx="31.6838"
     inkscape:cy="21.027627"
     inkscape:document-units="px"
     inkscape:current-layer="g845"
     inkscape:document-rotation="0"
     showgrid="false"
     inkscape:showpageshadow="false"
     borderlayer="true"
     units="px"
     fit-margin-top="0"
     fit-margin-left="0"
     fit-margin-right="0"
     fit-margin-bottom="0"
     inkscape:window-width="1920"
     inkscape:window-height="1051"
     inkscape:window-x="0"
     inkscape:window-y="0"
     inkscape:window-maximized="1"
     inkscape:snap-page="true" />
  <metadata
     id="metadata5">
    <rdf:RDF>
      <cc:Work
         rdf:about="">
        <dc:format>image/svg+xml</dc:format>
        <dc:type
           rdf:resource="http://purl.org/dc/dcmitype/StillImage" />
        <dc:title />
      </cc:Work>
    </rdf:RDF>
  </metadata>
  <g
     id="g845"
     inkscape:label="#breeze-settings">
    <rect
       inkscape:label="#boundary"
       y="0"
       x="0"
       height="48"
       width="48.149998"
       id="rect4264"
       style="fill:none;fill-opacity:0.74651441;stroke-width:23.61599922;stroke-opacity:0.3596773" />
    <path
       inkscape:connector-curvature="0"
       style="opacity:0.6;vector-effect:none;fill:#d0d0d0;stroke-width:1.31656802;stroke-linecap:square"
       d="M 29.620099,6.0000002 28.277768,8.9914776 A 8.5707487,8.5707487 0 0 0 26.516761,9.3781963 L 24.030254,7.2560368 21.383948,9.1161219 22.550496,12.1875 a 8.5707487,8.5707487 0 0 0 -0.962002,1.518113 l -3.269532,0.252483 -0.552912,3.186436 2.991477,1.345526 a 8.5707487,8.5707487 0 0 0 0.386719,1.757811 l -2.12216,2.489703 1.866478,2.639914 3.06179,-1.163352 a 8.5707487,8.5707487 0 0 0 1.521308,0.962002 l 0.258877,3.266336 3.183238,0.552911 1.342331,-2.988281 a 8.5707487,8.5707487 0 0 0 1.764205,-0.389914 l 2.483309,2.122158 2.646306,-1.863281 -1.169744,-3.064985 a 8.5707487,8.5707487 0 0 0 0.965198,-1.518111 l 3.269531,-0.255682 0.549718,-3.189629 -2.991478,-1.339135 A 8.5707487,8.5707487 0 0 0 37.383237,14.747514 L 39.508593,12.257813 37.645312,9.6147028 34.577131,10.784446 A 8.5707487,8.5707487 0 0 0 33.062216,9.8192481 L 32.803336,6.552913 Z m -0.351563,8.1498588 a 3.3497963,3.3497963 0 0 1 0.568892,0.04795 3.3497963,3.3497963 0 0 1 2.729403,3.873578 3.3497963,3.3497963 0 0 1 -3.873579,2.729405 3.3497963,3.3497963 0 0 1 -2.726208,-3.873579 3.3497963,3.3497963 0 0 1 3.301492,-2.777345 z m -13.167613,8.705965 -1.160157,2.476918 a 7.1405367,7.1405367 0 0 0 -1.466975,0.300427 l -2.048651,-1.80895 -2.224431,1.514914 0.930043,2.569603 a 7.1405367,7.1405367 0 0 0 -0.830966,1.249646 l -2.7198152,0.172583 -0.5049721,2.646308 2.4801133,1.163354 a 7.1405367,7.1405367 0 0 0 0.300427,1.463778 l -1.8089493,2.045454 1.5149143,2.230824 2.569603,-0.930042 a 7.1405367,7.1405367 0 0 0 1.249645,0.827769 L 12.553336,41.498225 15.199643,42 16.3598,39.529475 a 7.1405367,7.1405367 0 0 0 1.466975,-0.303621 l 2.045455,1.802556 2.227627,-1.511719 -0.926845,-2.566407 a 7.1405367,7.1405367 0 0 0 0.827768,-1.256037 l 2.716619,-0.169389 0.508168,-2.646307 -2.476918,-1.160155 a 7.1405367,7.1405367 0 0 0 -0.303622,-1.466975 l 1.808949,-2.045455 -1.514913,-2.230824 -2.566409,0.93324 A 7.1405367,7.1405367 0 0 0 18.916618,26.077415 L 18.74723,23.357601 Z m 20.055042,5.151989 -1.25284,1.812145 a 5.1920667,5.1920667 0 0 0 -1.249645,0.172584 l -1.700285,-1.387073 -2.428977,1.90483 0.93963,1.987926 a 5.1920667,5.1920667 0 0 0 -0.469813,1.169744 l -2.055045,0.77983 0.434659,3.058594 2.192473,0.178976 a 5.1920667,5.1920667 0 0 0 0.354759,0.520954 5.1920667,5.1920667 0 0 0 0.421873,0.466618 L 30.991192,40.849433 33.858025,42 35.110865,40.187856 A 5.1920667,5.1920667 0 0 0 36.36051,40.01527 l 1.700285,1.387075 2.428977,-1.904831 -0.939631,-1.987926 a 5.1920667,5.1920667 0 0 0 0.469817,-1.169743 l 2.055041,-0.779831 -0.434658,-3.058594 -2.192473,-0.178976 a 5.1920667,5.1920667 0 0 0 -0.354759,-0.520952 5.1920667,5.1920667 0 0 0 -0.421874,-0.466619 l 0.351563,-2.176491 z m -20.496094,1.629971 a 2.7908115,2.7908115 0 0 1 2.297941,1.22088 2.7908115,2.7908115 0 0 1 -0.738282,3.876777 2.7908115,2.7908115 0 0 1 -3.876776,-0.738281 2.7908115,2.7908115 0 0 1 0.738282,-3.876776 2.7908115,2.7908115 0 0 1 1.578835,-0.4826 z m 19.428623,3.042615 a 2.3252421,2.3252421 0 0 1 1.748224,0.888494 2.3252421,2.3252421 0 0 1 -0.396306,3.266335 2.3252421,2.3252421 0 0 1 -3.26314,-0.396307 2.3252421,2.3252421 0 0 1 0.396308,-3.266335 2.3252421,2.3252421 0 0 1 1.514914,-0.492187 z"
       id="path4264"
       inkscape:label="#1" />
  </g>
</svg>
