<?xml version="1.0" encoding="UTF-8" standalone="no"?>
<!-- Created with Inkscape (http://www.inkscape.org/) -->

<svg
   xmlns:dc="http://purl.org/dc/elements/1.1/"
   xmlns:cc="http://creativecommons.org/ns#"
   xmlns:rdf="http://www.w3.org/1999/02/22-rdf-syntax-ns#"
   xmlns:svg="http://www.w3.org/2000/svg"
   xmlns="http://www.w3.org/2000/svg"
   xmlns:sodipodi="http://sodipodi.sourceforge.net/DTD/sodipodi-0.dtd"
   xmlns:inkscape="http://www.inkscape.org/namespaces/inkscape"
   width="48.149998"
   height="48"
   viewBox="0 0 48.149998 48"
   version="1.1"
   id="svg8"
   inkscape:version="0.92+devel (b8837397f6, 2017-07-27, custom)"
   sodipodi:docname="calamares.svg">
  <defs
     id="ol-defs">
    <style
       id="current-color-scheme">      .ColorScheme-Text {
        color:#d0d0d0;
        stop-color:#d0d0d0;
      }
      .ColorScheme-Background {
        color:#212121;
        stop-color:#212121;
      }
      .ColorScheme-Highlight {
        color:#0039a9;
        stop-color:#0039a9;
      }
      .ColorScheme-ViewText {
        color:#d0d0d0;
        stop-color:#d0d0d0;
      }
      .ColorScheme-ViewBackground {
        color:#19191b;
        stop-color:#19191b;
      }
      .ColorScheme-ViewHover {
        color:#005cc7;
        stop-color:#005cc7;
      }
      .ColorScheme-ViewFocus{
        color:#002466;
        stop-color:#002466;
      }
      .ColorScheme-ButtonText {
        color:#d0d0d0;
        stop-color:#d0d0d0;
      }
      .ColorScheme-ButtonBackground {
        color:#232323;
        stop-color:#232323;                             
      }                                                 
      .ColorScheme-ButtonHover {                        
        color:#005cc7;                                  
        stop-color:#005cc7;                             
      }                                                 
      .ColorScheme-ButtonFocus{                         
        color:#0039a9;                                  
        stop-color:#0039a9;                             
      }</style>
  </defs>
  <sodipodi:namedview
     id="base"
     pagecolor="#002266"
     bordercolor="#ffffff"
     borderopacity="0.46666667"
     inkscape:pageopacity="0"
     inkscape:pageshadow="2"
     inkscape:zoom="12.859375"
     inkscape:cx="31.6838"
     inkscape:cy="21.027627"
     inkscape:document-units="px"
     inkscape:current-layer="g851"
     inkscape:document-rotation="0"
     showgrid="false"
     inkscape:showpageshadow="false"
     borderlayer="true"
     units="px"
     fit-margin-top="0"
     fit-margin-left="0"
     fit-margin-right="0"
     fit-margin-bottom="0"
     inkscape:window-width="1920"
     inkscape:window-height="1051"
     inkscape:window-x="0"
     inkscape:window-y="0"
     inkscape:window-maximized="1"
     inkscape:snap-page="true" />
  <metadata
     id="metadata5">
    <rdf:RDF>
      <cc:Work
         rdf:about="">
        <dc:format>image/svg+xml</dc:format>
        <dc:type
           rdf:resource="http://purl.org/dc/dcmitype/StillImage" />
        <dc:title></dc:title>
      </cc:Work>
    </rdf:RDF>
  </metadata>
  <g
     id="g851"
     inkscape:label="#ubiquity">
    <rect
       inkscape:label="#boundary"
       y="0"
       x="0"
       height="48"
       width="48.149998"
       id="rect4264"
       style="fill:none;fill-opacity:0.74651441;stroke-width:23.61599922;stroke-opacity:0.3596773" />
    <path
       inkscape:label="#"
       inkscape:connector-curvature="0"
       id="path814"
       d="m 38.10662,33.947298 a 3.968368,3.968368 0 0 0 -3.915679,3.341238 H 27.988042 A 3.968368,3.968368 0 0 0 24.072363,33.97892 3.968368,3.968368 0 0 0 20.161955,37.288536 H 13.937976 A 3.968368,3.968368 0 0 0 10.043378,34.063241 3.968368,3.968368 0 0 0 6.074998,38.031621 3.968368,3.968368 0 0 0 10.043378,42 3.968368,3.968368 0 0 0 13.895816,38.959156 h 6.345191 a 3.968368,3.968368 0 0 0 3.831356,2.956522 3.968368,3.968368 0 0 0 3.836628,-2.956522 h 6.37154 a 3.968368,3.968368 0 0 0 3.826089,2.9249 3.968368,3.968368 0 0 0 3.96838,-3.968379 3.968368,3.968368 0 0 0 -3.96838,-3.968379 z"
       style="font-variation-settings:normal;vector-effect:none;fill:#ff00ff;stroke-width:1.5;stroke-linecap:round;stroke-miterlimit:26.70000076" />
    <path
       inkscape:label="#"
       id="rect822"
       d="m 7.1472644,5.9999999 c -0.5928853,0 -1.0722656,0.4793803 -1.0722656,1.0722656 V 30.200683 c 0,0.592886 0.4793803,1.067872 1.0722656,1.067872 H 41.002734 c 0.592884,0 1.072265,-0.474986 1.072265,-1.067872 V 7.0722655 c 0,-0.5928853 -0.479381,-1.0722656 -1.072265,-1.0722656 z M 21.5833,11.945801 h 4.983398 v 2.544433 h 4.311036 L 24.074999,26.276367 17.272264,14.490234 H 21.5833 Z"
       style="font-variation-settings:normal;opacity:0.6;vector-effect:none;fill:#d0d0d0;stroke-width:1.5;stroke-linecap:round;stroke-miterlimit:26.70000076"
       inkscape:connector-curvature="0" />
  </g>
</svg>
