<?xml version="1.0" encoding="UTF-8" standalone="no"?>
<!-- Created with Inkscape (http://www.inkscape.org/) -->

<svg
   xmlns:dc="http://purl.org/dc/elements/1.1/"
   xmlns:cc="http://creativecommons.org/ns#"
   xmlns:rdf="http://www.w3.org/1999/02/22-rdf-syntax-ns#"
   xmlns:svg="http://www.w3.org/2000/svg"
   xmlns="http://www.w3.org/2000/svg"
   xmlns:sodipodi="http://sodipodi.sourceforge.net/DTD/sodipodi-0.dtd"
   xmlns:inkscape="http://www.inkscape.org/namespaces/inkscape"
   width="48.149998"
   height="48"
   viewBox="0 0 48.149998 48"
   version="1.1"
   id="svg8"
   inkscape:version="0.92+devel (b8837397f6, 2017-07-27, custom)"
   sodipodi:docname="cantor.svg">
  <defs
     id="ol-defs">
    <style
       id="current-color-scheme">      .ColorScheme-Text {
        color:#d0d0d0;
        stop-color:#d0d0d0;
      }
      .ColorScheme-Background {
        color:#212121;
        stop-color:#212121;
      }
      .ColorScheme-Highlight {
        color:#0039a9;
        stop-color:#0039a9;
      }
      .ColorScheme-ViewText {
        color:#d0d0d0;
        stop-color:#d0d0d0;
      }
      .ColorScheme-ViewBackground {
        color:#19191b;
        stop-color:#19191b;
      }
      .ColorScheme-ViewHover {
        color:#005cc7;
        stop-color:#005cc7;
      }
      .ColorScheme-ViewFocus{
        color:#002466;
        stop-color:#002466;
      }
      .ColorScheme-ButtonText {
        color:#d0d0d0;
        stop-color:#d0d0d0;
      }
      .ColorScheme-ButtonBackground {
        color:#232323;
        stop-color:#232323;                             
      }                                                 
      .ColorScheme-ButtonHover {                        
        color:#005cc7;                                  
        stop-color:#005cc7;                             
      }                                                 
      .ColorScheme-ButtonFocus{                         
        color:#0039a9;                                  
        stop-color:#0039a9;                             
      }</style>
  </defs>
  <sodipodi:namedview
     id="base"
     pagecolor="#002266"
     bordercolor="#ffffff"
     borderopacity="0.46666667"
     inkscape:pageopacity="0"
     inkscape:pageshadow="2"
     inkscape:zoom="12.859375"
     inkscape:cx="31.6838"
     inkscape:cy="21.027627"
     inkscape:document-units="px"
     inkscape:current-layer="svg8"
     inkscape:document-rotation="0"
     showgrid="false"
     inkscape:showpageshadow="false"
     borderlayer="true"
     units="px"
     fit-margin-top="0"
     fit-margin-left="0"
     fit-margin-right="0"
     fit-margin-bottom="0"
     inkscape:window-width="1920"
     inkscape:window-height="1051"
     inkscape:window-x="0"
     inkscape:window-y="0"
     inkscape:window-maximized="1"
     inkscape:snap-page="true" />
  <metadata
     id="metadata5">
    <rdf:RDF>
      <cc:Work
         rdf:about="">
        <dc:format>image/svg+xml</dc:format>
        <dc:type
           rdf:resource="http://purl.org/dc/dcmitype/StillImage" />
        <dc:title></dc:title>
      </cc:Work>
    </rdf:RDF>
  </metadata>
  <g
     id="g887"
     inkscape:label="#cantor">
    <rect
       inkscape:label="#boundary"
       y="0"
       x="0"
       height="48"
       width="48.149998"
       id="rect4264"
       style="fill:none;fill-opacity:0.74651441;stroke-width:23.61599922;stroke-opacity:0.3596773" />
    <path
       inkscape:label="#"
       inkscape:connector-curvature="0"
       id="rect835"
       d="M 13.218309,6 C 9.2295093,6 6.0186024,9.210907 6.0186024,13.199707 V 34.800293 C 6.0186024,38.789093 9.2295093,42 13.218309,42 h 21.713379 c 3.9888,0 7.199707,-3.210907 7.199707,-7.199707 V 13.199707 C 42.131395,9.210907 38.920488,6 34.931688,6 Z m 21.848145,7.571777 c 0.780993,2e-6 1.395025,0.210259 1.841308,0.631348 0.446276,0.421087 0.666504,0.947008 0.666504,1.573242 0,0.356305 -0.06233,0.695619 -0.191895,1.019531 -0.125964,0.320318 -0.329323,0.65657 -0.606445,1.009277 -0.183554,0.233937 -0.513026,0.570201 -0.991699,1.009279 -0.478675,0.439085 -0.78303,0.73055 -0.912598,0.874511 -0.125965,0.143962 -0.228435,0.283655 -0.307617,0.42041 h 3.010254 v 1.40918 h -5.314453 c 0.05758,-0.532658 0.229165,-1.036646 0.517089,-1.511719 0.287927,-0.478674 0.855708,-1.113179 1.705079,-1.901367 0.68382,-0.637032 1.105004,-1.068183 1.259765,-1.294923 0.208745,-0.313115 0.313477,-0.621329 0.313477,-0.927245 0,-0.338313 -0.09476,-0.597884 -0.278321,-0.777832 -0.179944,-0.183549 -0.42822,-0.27539 -0.748534,-0.27539 -0.316717,0 -0.570176,0.09489 -0.757325,0.285644 -0.187149,0.19075 -0.29496,0.506538 -0.32373,0.949219 l -1.50879,-0.149415 c 0.08998,-0.834976 0.370141,-1.435324 0.845216,-1.798827 0.475074,-0.363504 1.070104,-0.544923 1.782715,-0.544923 z m -14.557618,3.127442 c 1.175756,1.844079 2.004626,3.873984 2.487305,6.089355 1.212885,-1.794574 2.127763,-3.048283 2.746582,-3.766113 0.829217,-0.965358 1.511275,-1.591828 2.043457,-1.876465 0.544564,-0.297046 1.120611,-0.446777 1.727051,-0.446777 0.680701,0 1.199674,0.185354 1.558594,0.55664 0.371292,0.371291 0.55664,0.874665 0.55664,1.50586 0,0.594065 -0.185348,1.082637 -0.55664,1.466308 -0.358922,0.371288 -0.810426,0.556641 -1.354981,0.556641 -0.396044,0 -0.854214,-0.06749 -1.374023,-0.203614 -0.50743,-0.148508 -0.861059,-0.225585 -1.059082,-0.225585 -0.519806,0 -1.013583,0.185354 -1.483887,0.55664 -0.643572,0.507431 -1.435372,1.592054 -2.375977,3.250489 1.051993,3.712916 1.894196,5.978574 2.525391,6.79541 0.371295,0.482682 0.747194,0.723633 1.130859,0.723633 0.32178,0 0.599805,-0.0808 0.834961,-0.241699 0.358915,-0.259904 0.908294,-0.908628 1.650879,-1.948243 l 0.670899,0.388184 c -1.089121,1.757449 -2.152278,2.995541 -3.191895,3.713379 -0.792088,0.556934 -1.573485,0.834961 -2.340821,0.834961 -0.792088,0 -1.454138,-0.173481 -1.986327,-0.52002 -0.519805,-0.358907 -0.983183,-0.93496 -1.391602,-1.727051 -0.40842,-0.804465 -0.891794,-2.08484 -1.44873,-3.842285 -1.448036,1.84408 -2.588262,3.194859 -3.417481,4.048828 -0.81684,0.841593 -1.494506,1.392442 -2.039062,1.652344 -0.544564,0.25991 -1.130207,0.388184 -1.749023,0.388184 -0.643572,0 -1.147751,-0.185348 -1.519043,-0.556641 -0.383669,-0.371296 -0.578614,-0.853198 -0.578614,-1.447265 0,-0.631196 0.20535,-1.150175 0.61377,-1.558594 0.408422,-0.408417 0.927399,-0.61377 1.558594,-0.61377 0.334165,0 0.714459,0.09788 1.135254,0.295899 0.618819,0.29703 1.062192,0.445312 1.334472,0.445312 0.358919,0 0.682143,-0.07267 0.966797,-0.221191 0.371292,-0.185639 0.842801,-0.586747 1.412109,-1.205567 0.346539,-0.383668 0.983394,-1.20067 1.911621,-2.450683 -1.188132,-4.405992 -2.117806,-7.042341 -2.786133,-7.908692 -0.420798,-0.556937 -0.954571,-0.83789 -1.598144,-0.83789 -0.334164,0 -0.740469,0.05041 -1.223145,0.149413 L 14.028368,17.8125 Z"
       style="font-variation-settings:normal;opacity:0.6;vector-effect:none;fill:#d0d0d0;stroke-width:2;stroke-linecap:round;stroke-miterlimit:26.70000076" />
  </g>
</svg>
