<?xml version="1.0" encoding="UTF-8" standalone="no"?>
<!-- Created with Inkscape (http://www.inkscape.org/) -->

<svg
   xmlns:dc="http://purl.org/dc/elements/1.1/"
   xmlns:cc="http://creativecommons.org/ns#"
   xmlns:rdf="http://www.w3.org/1999/02/22-rdf-syntax-ns#"
   xmlns:svg="http://www.w3.org/2000/svg"
   xmlns="http://www.w3.org/2000/svg"
   xmlns:sodipodi="http://sodipodi.sourceforge.net/DTD/sodipodi-0.dtd"
   xmlns:inkscape="http://www.inkscape.org/namespaces/inkscape"
   width="48"
   height="48"
   viewBox="0 0 48 48"
   version="1.1"
   id="svg8"
   inkscape:version="0.92+devel (f96dc7e339, 2017-07-28, custom)"
   sodipodi:docname="clipgrab.svg">
  <defs
     id="defs2" />
  <sodipodi:namedview
     id="base"
     pagecolor="#002266"
     bordercolor="#ffffff"
     borderopacity="0.46666667"
     inkscape:pageopacity="0"
     inkscape:pageshadow="2"
     inkscape:zoom="9.0929513"
     inkscape:cx="59.548936"
     inkscape:cy="25.547838"
     inkscape:document-units="px"
     inkscape:current-layer="g12734"
     inkscape:document-rotation="0"
     showgrid="false"
     inkscape:showpageshadow="false"
     borderlayer="true"
     units="px"
     fit-margin-top="0"
     fit-margin-left="0"
     fit-margin-right="0"
     fit-margin-bottom="0"
     inkscape:window-width="1920"
     inkscape:window-height="1051"
     inkscape:window-x="0"
     inkscape:window-y="0"
     inkscape:window-maximized="1" />
  <metadata
     id="metadata5">
    <rdf:RDF>
      <cc:Work
         rdf:about="">
        <dc:format>image/svg+xml</dc:format>
        <dc:type
           rdf:resource="http://purl.org/dc/dcmitype/StillImage" />
        <dc:title />
      </cc:Work>
    </rdf:RDF>
  </metadata>
  <g
     id="g12734"
     inkscape:label="#clipgrab"
     transform="scale(0.75)">
    <rect
       inkscape:label="boundary"
       sodipodi:insensitive="true"
       y="0"
       x="0"
       height="64"
       width="64"
       id="rect12728"
       style="opacity:0.6;fill:none;stroke:none;stroke-width:1.19396269" />
    <path
       style="opacity:0.6;fill:#ffffff;stroke-width:1.13672936"
       d="M 14.972656,7.0644531 A 19.202021,19.202021 0 0 0 4.7988281,24 19.202021,19.202021 0 0 0 23.998047,43.199219 19.202021,19.202021 0 0 0 41.568359,31.683594 c -2.481684,1.103314 -5.165661,1.688084 -7.888671,1.693359 h -0.002 c -10.88743,-0.0012 -19.724612,-8.979045 -19.726562,-19.988281 8.67e-4,-2.153586 0.350107,-4.2878044 1.021484,-6.3242189 z"
       transform="scale(1.3333333)"
       id="path8199"
       inkscape:connector-curvature="0"
       inkscape:label="#" />
    <path
       style="opacity:0.3;fill:#d0d0d0;stroke-width:1.13672936"
       d="m 23.998047,4.8007812 a 19.202021,19.202021 0 0 0 -5.162109,0.7324219 l -0.50586,1.203125 c -0.883956,2.1023423 -1.340897,4.3654169 -1.341797,6.6523439 0.0017,9.391617 7.466756,16.950122 16.689453,16.951172 2.776695,-0.0058 5.507163,-0.714648 7.947266,-2.064453 l 1.228516,-0.679688 A 19.202021,19.202021 0 0 0 43.201172,24 19.202021,19.202021 0 0 0 23.998047,4.8007812 Z"
       transform="scale(1.3333333)"
       id="path821"
       inkscape:connector-curvature="0"
       inkscape:label="#" />
  </g>
</svg>
