<?xml version="1.0" encoding="UTF-8" standalone="no"?>
<!-- Created with Inkscape (http://www.inkscape.org/) -->

<svg
   xmlns:dc="http://purl.org/dc/elements/1.1/"
   xmlns:cc="http://creativecommons.org/ns#"
   xmlns:rdf="http://www.w3.org/1999/02/22-rdf-syntax-ns#"
   xmlns:svg="http://www.w3.org/2000/svg"
   xmlns="http://www.w3.org/2000/svg"
   xmlns:sodipodi="http://sodipodi.sourceforge.net/DTD/sodipodi-0.dtd"
   xmlns:inkscape="http://www.inkscape.org/namespaces/inkscape"
   width="48.149998"
   height="48"
   viewBox="0 0 48.149998 48"
   version="1.1"
   id="svg8"
   inkscape:version="0.92+devel (f96dc7e339, 2017-07-28, custom)"
   sodipodi:docname="filezilla.svg">
  <defs
     id="ol-defs">
    <style
       id="current-color-scheme">      .ColorScheme-Text {
        color:#d0d0d0;
        stop-color:#d0d0d0;
      }
      .ColorScheme-Background {
        color:#212121;
        stop-color:#212121;
      }
      .ColorScheme-Highlight {
        color:#0039a9;
        stop-color:#0039a9;
      }
      .ColorScheme-ViewText {
        color:#d0d0d0;
        stop-color:#d0d0d0;
      }
      .ColorScheme-ViewBackground {
        color:#19191b;
        stop-color:#19191b;
      }
      .ColorScheme-ViewHover {
        color:#005cc7;
        stop-color:#005cc7;
      }
      .ColorScheme-ViewFocus{
        color:#002466;
        stop-color:#002466;
      }
      .ColorScheme-ButtonText {
        color:#d0d0d0;
        stop-color:#d0d0d0;
      }
      .ColorScheme-ButtonBackground {
        color:#232323;
        stop-color:#232323;                             
      }                                                 
      .ColorScheme-ButtonHover {                        
        color:#005cc7;                                  
        stop-color:#005cc7;                             
      }                                                 
      .ColorScheme-ButtonFocus{                         
        color:#0039a9;                                  
        stop-color:#0039a9;                             
      }</style>
    <linearGradient
       gradientTransform="matrix(0.26458333,0,0,0.26458333,-2.0909829,-3.9077387)"
       gradientUnits="userSpaceOnUse"
       x2="0"
       y2="16"
       y1="32"
       id="a">
      <stop
         id="stop2"
         stop-color="#f7abb2" />
      <stop
         id="stop4"
         stop-color="#f9dce0"
         offset="1" />
    </linearGradient>
  </defs>
  <sodipodi:namedview
     id="base"
     pagecolor="#002266"
     bordercolor="#ffffff"
     borderopacity="0.46666667"
     inkscape:pageopacity="0"
     inkscape:pageshadow="2"
     inkscape:zoom="12.859375"
     inkscape:cx="31.6838"
     inkscape:cy="21.027627"
     inkscape:document-units="px"
     inkscape:current-layer="g926"
     inkscape:document-rotation="0"
     showgrid="false"
     inkscape:showpageshadow="false"
     borderlayer="true"
     units="px"
     fit-margin-top="0"
     fit-margin-left="0"
     fit-margin-right="0"
     fit-margin-bottom="0"
     inkscape:window-width="1920"
     inkscape:window-height="1051"
     inkscape:window-x="0"
     inkscape:window-y="0"
     inkscape:window-maximized="1"
     inkscape:snap-page="true"
     inkscape:snap-object-midpoints="true"
     inkscape:snap-center="true" />
  <metadata
     id="metadata5">
    <rdf:RDF>
      <cc:Work
         rdf:about="">
        <dc:format>image/svg+xml</dc:format>
        <dc:type
           rdf:resource="http://purl.org/dc/dcmitype/StillImage" />
        <dc:title />
      </cc:Work>
    </rdf:RDF>
  </metadata>
  <g
     id="g926"
     inkscape:label="#filezilla">
    <rect
       inkscape:label="#boundary"
       y="0"
       x="0"
       height="48"
       width="48.149998"
       id="rect4264"
       style="fill:none;fill-opacity:0.74651441;stroke-width:23.61599922;stroke-opacity:0.3596773" />
    <path
       inkscape:label="#"
       inkscape:connector-curvature="0"
       id="rect4311"
       d="m 7.7112292,8.506348 c -0.9065452,0 -1.636229,0.729685 -1.6362305,1.63623 v 2.843262 24.871582 c 0,0.906546 0.7296853,1.63623 1.6362305,1.63623 H 40.438768 c 0.906548,0 1.636231,-0.729685 1.636231,-1.63623 V 14.623535 c 0,-0.906545 -0.729683,-1.637695 -1.636231,-1.637695 H 26.868456 L 25.158983,10.119141 C 24.69422,9.340798 24.348732,8.506348 23.442186,8.506348 Z m 7.1821288,8.436035 h 1.995118 a 1.376566,1.376566 0 0 0 -0.0059,0.115723 1.376566,1.376566 0 0 0 1.375488,1.376952 1.376566,1.376566 0 0 0 1.376953,-1.376952 1.376566,1.376566 0 0 0 -0.0059,-0.115723 h 3.04541 a 1.376566,1.376566 0 0 0 -0.0058,0.115723 1.376566,1.376566 0 0 0 1.376953,1.376952 1.376566,1.376566 0 0 0 1.375489,-1.376952 1.376566,1.376566 0 0 0 -0.0058,-0.115723 h 2.956054 a 1.376566,1.376566 0 0 0 -0.0059,0.115723 1.376566,1.376566 0 0 0 1.376953,1.376952 1.376566,1.376566 0 0 0 1.375489,-1.376952 1.376566,1.376566 0 0 0 -0.0059,-0.115723 h 1.996582 V 18.9375 a 1.376566,1.376566 0 0 0 -0.115722,-0.0058 1.376566,1.376566 0 0 0 -1.376954,1.375488 1.376566,1.376566 0 0 0 1.376954,1.376953 1.376566,1.376566 0 0 0 0.115722,-0.0059 v 3.04541 a 1.376566,1.376566 0 0 0 -0.115722,-0.0058 1.376566,1.376566 0 0 0 -1.376954,1.376953 1.376566,1.376566 0 0 0 1.376954,1.375488 1.376566,1.376566 0 0 0 0.115722,-0.0058 v 2.956054 a 1.376566,1.376566 0 0 0 -0.115722,-0.0058 1.376566,1.376566 0 0 0 -1.376954,1.376954 1.376566,1.376566 0 0 0 1.376954,1.375487 1.376566,1.376566 0 0 0 0.115722,-0.0059 v 1.995062 h -1.996582 a 1.376566,1.376566 0 0 0 0.0059,-0.115723 1.376566,1.376566 0 0 0 -1.375489,-1.376953 1.376566,1.376566 0 0 0 -1.376953,1.376953 1.376566,1.376566 0 0 0 0.0059,0.115723 h -3.045409 a 1.376566,1.376566 0 0 0 0.0059,-0.115723 1.376566,1.376566 0 0 0 -1.376954,-1.376953 1.376566,1.376566 0 0 0 -1.375488,1.376953 1.376566,1.376566 0 0 0 0.0059,0.115723 h -2.956055 a 1.376566,1.376566 0 0 0 0.0059,-0.115723 1.376566,1.376566 0 0 0 -1.376953,-1.376953 1.376566,1.376566 0 0 0 -1.375488,1.376953 1.376566,1.376566 0 0 0 0.0059,0.115723 h -1.995318 v -1.995117 a 1.376566,1.376566 0 0 0 0.115723,0.0058 1.376566,1.376566 0 0 0 1.376953,-1.375488 1.376566,1.376566 0 0 0 -1.376953,-1.376953 1.376566,1.376566 0 0 0 -0.115723,0.0059 v -3.045392 a 1.376566,1.376566 0 0 0 0.115723,0.0058 1.376566,1.376566 0 0 0 1.376953,-1.376953 1.376566,1.376566 0 0 0 -1.376953,-1.375488 1.376566,1.376566 0 0 0 -0.115723,0.0058 v -2.956054 a 1.376566,1.376566 0 0 0 0.115723,0.0058 1.376566,1.376566 0 0 0 1.376953,-1.376953 1.376566,1.376566 0 0 0 -1.376953,-1.375488 1.376566,1.376566 0 0 0 -0.115723,0.0059 z"
       style="opacity:0.5148936;vector-effect:none;fill:#d0d0d0;stroke-width:1;stroke-linecap:round;stroke-linejoin:round" />
    <path
       style="font-variation-settings:normal;vector-effect:none;fill:#ff0000;stroke:none;stroke-width:1.10000002"
       d="m 29.037394,19.745844 -0.796875,2.392578 h -5.978515 l -0.400391,1.59375 h 8.771484 l -0.796875,2.392578 -3.636718,3.636719 c 1.264479,0.192934 2.15283,0.892203 3.236328,0.269532 l 0.71875,-0.558594 0.478515,1.914062 c -2.391825,2.391826 -4.783956,-0.477362 -7.175781,1.117188 l -1.595703,-1.595703 5.316406,-4.783204 h -5.873047 l -1.037109,4.783204 h -2.392578 l 2.392578,-11.160157 z"
       id="rect822"
       inkscape:connector-curvature="0" />
  </g>
</svg>
