<?xml version="1.0" encoding="UTF-8" standalone="no"?>
<!-- Created with Inkscape (http://www.inkscape.org/) -->

<svg
   xmlns:dc="http://purl.org/dc/elements/1.1/"
   xmlns:cc="http://creativecommons.org/ns#"
   xmlns:rdf="http://www.w3.org/1999/02/22-rdf-syntax-ns#"
   xmlns:svg="http://www.w3.org/2000/svg"
   xmlns="http://www.w3.org/2000/svg"
   xmlns:sodipodi="http://sodipodi.sourceforge.net/DTD/sodipodi-0.dtd"
   xmlns:inkscape="http://www.inkscape.org/namespaces/inkscape"
   width="48.149998"
   height="48"
   viewBox="0 0 48.149998 48"
   version="1.1"
   id="svg8"
   inkscape:version="0.92+devel (4546dc857e, 2017-07-25, custom)"
   sodipodi:docname="fingerprint-gui.svg">
  <defs
     id="ol-defs">
    <style
       id="current-color-scheme">      .ColorScheme-Text {
        color:#d0d0d0;
        stop-color:#d0d0d0;
      }
      .ColorScheme-Background {
        color:#212121;
        stop-color:#212121;
      }
      .ColorScheme-Highlight {
        color:#0039a9;
        stop-color:#0039a9;
      }
      .ColorScheme-ViewText {
        color:#d0d0d0;
        stop-color:#d0d0d0;
      }
      .ColorScheme-ViewBackground {
        color:#19191b;
        stop-color:#19191b;
      }
      .ColorScheme-ViewHover {
        color:#005cc7;
        stop-color:#005cc7;
      }
      .ColorScheme-ViewFocus{
        color:#002466;
        stop-color:#002466;
      }
      .ColorScheme-ButtonText {
        color:#d0d0d0;
        stop-color:#d0d0d0;
      }
      .ColorScheme-ButtonBackground {
        color:#232323;
        stop-color:#232323;                             
      }                                                 
      .ColorScheme-ButtonHover {                        
        color:#005cc7;                                  
        stop-color:#005cc7;                             
      }                                                 
      .ColorScheme-ButtonFocus{                         
        color:#0039a9;                                  
        stop-color:#0039a9;                             
      }</style>
  </defs>
  <sodipodi:namedview
     id="base"
     pagecolor="#002266"
     bordercolor="#ffffff"
     borderopacity="0.46666667"
     inkscape:pageopacity="0"
     inkscape:pageshadow="2"
     inkscape:zoom="12.859375"
     inkscape:cx="31.6838"
     inkscape:cy="21.027627"
     inkscape:document-units="px"
     inkscape:current-layer="svg8"
     inkscape:document-rotation="0"
     showgrid="false"
     inkscape:showpageshadow="false"
     borderlayer="true"
     units="px"
     fit-margin-top="0"
     fit-margin-left="0"
     fit-margin-right="0"
     fit-margin-bottom="0"
     inkscape:window-width="1920"
     inkscape:window-height="1051"
     inkscape:window-x="0"
     inkscape:window-y="0"
     inkscape:window-maximized="1"
     inkscape:snap-page="true" />
  <metadata
     id="metadata5">
    <rdf:RDF>
      <cc:Work
         rdf:about="">
        <dc:format>image/svg+xml</dc:format>
        <dc:type
           rdf:resource="http://purl.org/dc/dcmitype/StillImage" />
        <dc:title></dc:title>
      </cc:Work>
    </rdf:RDF>
  </metadata>
  <g
     id="g847"
     inkscape:label="#fingerprint-gui">
    <rect
       inkscape:label="#boundary"
       y="0"
       x="0"
       height="48"
       width="48.149998"
       id="rect4264"
       style="fill:none;fill-opacity:0.74651441;stroke-width:23.61599922;stroke-opacity:0.3596773" />
    <path
       inkscape:label="#1"
       inkscape:connector-curvature="0"
       id="path816"
       d="M 24.074219,6 A 18,18 0 0 0 6.0742188,24 18,18 0 0 0 24.074219,42 a 18,18 0 0 0 18,-18 18,18 0 0 0 -18,-18 z m -0.05078,6 c 2.722253,0.0129 4.770499,0.555605 7.115234,1.888672 1.188936,0.675952 1.4324,1.057861 0.970703,1.519531 C 31.643201,15.926018 30.394519,14.961825 30,14.757812 c -2.296239,-1.189053 -3.327057,-1.428081 -6.126953,-1.425781 -2.439609,0.0026 -3.380355,0.186726 -5.314453,1.054688 -1.040361,0.466897 -1.391126,0.40101 -1.472656,-0.279297 -0.03992,-0.333332 0.05519,-0.441249 0.671874,-0.75 C 19.61024,12.429931 21.64763,11.9892 24.023438,12 Z m -0.07227,2.75 c 3.134692,0.0024 6.269874,1.24568 8.570312,3.730469 0.831495,0.898107 1.930859,2.586566 2.136719,3.283203 0.127667,0.431906 -0.147869,0.779297 -0.615234,0.779297 -0.271373,0 -0.435839,-0.166866 -0.712891,-0.712891 -1.273221,-2.50941 -3.597424,-4.492303 -6.30664,-5.382812 -2.09825,-0.538112 -4.28194,-0.608566 -6.146485,0 -2.404193,0.793303 -4.271461,2.2292 -5.710937,4.392578 -0.643627,0.967315 -0.913877,1.253906 -1.179688,1.253906 -0.339109,0 -0.52539,-0.251519 -0.52539,-0.705078 0,-0.388991 1.037098,-1.961981 1.925781,-2.921875 2.29724,-2.481292 5.429757,-3.719197 8.564453,-3.716797 z m 0.148437,2.730469 c 2.895237,0.0503 5.601411,1.497622 7.236329,3.980469 1.233641,1.873456 1.820307,4.338246 1.382812,5.804687 -0.447,1.498412 -1.707532,2.46875 -3.205078,2.46875 -1.865994,0 -3.227277,-1.290812 -3.429688,-3.251953 -0.110225,-1.0686 -0.537958,-1.683981 -1.427734,-2.052734 -0.703068,-0.291384 -0.712948,-0.291385 -1.416016,0 -0.97302,0.403244 -1.390625,1.046176 -1.390625,2.148437 0,2.501221 1.57176,5.179013 3.765625,6.414063 1.008842,0.567936 1.616292,0.760722 3.083985,0.984374 l 1.166015,0.177735 c 0.491249,0.268239 0.465761,0.812401 0,1.048828 l -0.824218,0.02734 c -0.453208,0.01554 -1.193277,-0.06357 -1.646485,-0.175781 -3.603685,-0.892639 -6.227821,-3.794858 -6.748047,-7.462891 -0.08362,-0.588861 -0.108487,-1.364118 -0.05469,-1.722656 0.149192,-0.994959 0.886082,-1.977789 1.847656,-2.464844 1.031982,-0.522658 1.909341,-0.536514 2.960938,-0.04687 1.23278,0.573978 1.719409,1.412676 2.064453,3.55664 0.09777,0.607549 0.86151,1.400785 1.505859,1.5625 0.881733,0.221298 1.955614,-0.291954 2.396485,-1.144531 0.667385,-1.290558 -0.171796,-4.247769 -1.701172,-5.996093 -2.44059,-2.78996 -6.729119,-3.386463 -9.847657,-1.369141 -3.154247,2.040419 -4.25029,5.781197 -2.978515,10.179687 0.444451,1.53718 0.371655,1.891018 -0.371094,1.804688 -0.32306,-0.03762 -0.430878,-0.179695 -0.65625,-0.859375 -0.754101,-2.274345 -0.964865,-5.116597 -0.507812,-6.857422 0.861249,-3.280431 3.552542,-5.887686 6.771484,-6.560547 0.677397,-0.141624 1.355304,-0.204909 2.023437,-0.193359 z m -0.09766,2.841797 c 0.932454,-0.01179 1.83965,0.13503 2.521485,0.466796 2.031162,0.997441 3.420899,2.988765 3.46875,4.972657 0.0197,0.816116 -0.02662,1.043247 -0.238282,1.179687 -0.456785,0.294451 -0.757311,-0.06122 -0.955078,-1.132812 -0.331335,-1.795222 -1.266909,-3.103549 -2.730469,-3.822266 -1.226208,-0.602169 -3.015979,-0.602169 -4.242187,0 -1.020597,0.501193 -1.822703,1.349661 -2.347656,2.486328 -0.72331,1.566173 -0.443601,4.302125 0.666015,6.515625 0.675538,1.347622 1.676862,2.631386 2.603516,3.341797 0.854643,0.655206 1.090956,1.186822 0.667969,1.496094 -0.413172,0.30213 -0.519215,0.262067 -1.511719,-0.541016 -1.145049,-0.926509 -2.174434,-2.277506 -2.917969,-3.828125 -0.862894,-1.799559 -1.105133,-2.865243 -1.105469,-4.86914 -2.83e-4,-1.628792 0.02601,-1.776939 0.480469,-2.736329 0.597233,-1.260875 1.75313,-2.445619 2.964844,-3.039062 0.785861,-0.306047 1.74333,-0.478384 2.675781,-0.490234 z m -0.0059,5.421875 c 0.324466,0.0066 0.523499,0.351432 0.605468,1.048828 0.274819,2.338208 1.991123,4.101865 4.302735,4.417969 1.130961,0.154675 1.49608,0.589838 0.951172,1.134765 -0.272831,0.272855 -0.577406,0.278869 -1.712891,0.03125 -2.560078,-0.55845 -4.532361,-2.814396 -4.753906,-5.435547 -0.07004,-0.828423 -0.04659,-0.938248 0.240234,-1.091797 0.136601,-0.07311 0.259037,-0.107768 0.367188,-0.105468 z"
       style="opacity:0.6;fill:#d0d0d0;stroke-width:3.64724398" />
  </g>
</svg>
