<?xml version="1.0" encoding="UTF-8" standalone="no"?>
<!-- Created with Inkscape (http://www.inkscape.org/) -->

<svg
   xmlns:dc="http://purl.org/dc/elements/1.1/"
   xmlns:cc="http://creativecommons.org/ns#"
   xmlns:rdf="http://www.w3.org/1999/02/22-rdf-syntax-ns#"
   xmlns:svg="http://www.w3.org/2000/svg"
   xmlns="http://www.w3.org/2000/svg"
   xmlns:sodipodi="http://sodipodi.sourceforge.net/DTD/sodipodi-0.dtd"
   xmlns:inkscape="http://www.inkscape.org/namespaces/inkscape"
   width="48.149998"
   height="48"
   viewBox="0 0 48.149998 48"
   version="1.1"
   id="svg8"
   inkscape:version="0.92+devel (f96dc7e339, 2017-07-28, custom)"
   sodipodi:docname="frostware.svg">
  <defs
     id="ol-defs">
    <style
       id="current-color-scheme">      .ColorScheme-Text {
        color:#d0d0d0;
        stop-color:#d0d0d0;
      }
      .ColorScheme-Background {
        color:#212121;
        stop-color:#212121;
      }
      .ColorScheme-Highlight {
        color:#0039a9;
        stop-color:#0039a9;
      }
      .ColorScheme-ViewText {
        color:#d0d0d0;
        stop-color:#d0d0d0;
      }
      .ColorScheme-ViewBackground {
        color:#19191b;
        stop-color:#19191b;
      }
      .ColorScheme-ViewHover {
        color:#005cc7;
        stop-color:#005cc7;
      }
      .ColorScheme-ViewFocus{
        color:#002466;
        stop-color:#002466;
      }
      .ColorScheme-ButtonText {
        color:#d0d0d0;
        stop-color:#d0d0d0;
      }
      .ColorScheme-ButtonBackground {
        color:#232323;
        stop-color:#232323;                             
      }                                                 
      .ColorScheme-ButtonHover {                        
        color:#005cc7;                                  
        stop-color:#005cc7;                             
      }                                                 
      .ColorScheme-ButtonFocus{                         
        color:#0039a9;                                  
        stop-color:#0039a9;                             
      }</style>
  </defs>
  <sodipodi:namedview
     id="base"
     pagecolor="#002266"
     bordercolor="#ffffff"
     borderopacity="0.46666667"
     inkscape:pageopacity="0"
     inkscape:pageshadow="2"
     inkscape:zoom="12.859375"
     inkscape:cx="31.6838"
     inkscape:cy="21.027627"
     inkscape:document-units="px"
     inkscape:current-layer="svg8"
     inkscape:document-rotation="0"
     showgrid="false"
     inkscape:showpageshadow="false"
     borderlayer="true"
     units="px"
     fit-margin-top="0"
     fit-margin-left="0"
     fit-margin-right="0"
     fit-margin-bottom="0"
     inkscape:window-width="1920"
     inkscape:window-height="1051"
     inkscape:window-x="0"
     inkscape:window-y="0"
     inkscape:window-maximized="1"
     inkscape:snap-page="true" />
  <metadata
     id="metadata5">
    <rdf:RDF>
      <cc:Work
         rdf:about="">
        <dc:format>image/svg+xml</dc:format>
        <dc:type
           rdf:resource="http://purl.org/dc/dcmitype/StillImage" />
        <dc:title></dc:title>
      </cc:Work>
    </rdf:RDF>
  </metadata>
  <g
     id="g865"
     inkscape:label="#frostwire">
    <rect
       inkscape:label="#boundary"
       y="0"
       x="0"
       height="48"
       width="48.149998"
       id="rect4264"
       style="fill:none;fill-opacity:0.74651441;stroke-width:23.61599922;stroke-opacity:0.3596773" />
    <path
       inkscape:label="#"
       inkscape:connector-curvature="0"
       id="path860"
       d="M 24.074999,6 A 18,18 0 0 0 6.7268542,19.278808 c 1.2168292,0.439431 2.3883968,1.037814 3.2783208,1.927735 0.407319,0.407307 0.79709,0.742673 1.187988,1.081055 1.430815,-1.018799 2.824454,-1.686195 4.190918,-1.986328 a 1.1752656,1.1752656 0 0 1 0.253418,-0.02783 h 3.454102 l -1.028321,2.34961 h -2.238281 c -0.794438,0.18293 -1.683913,0.567442 -2.652832,1.177734 0.970423,0.610838 1.861961,0.992343 2.657226,1.174806 h 1.205567 l -1.028321,2.35107 h -0.36914 a 1.1752656,1.1752656 0 0 1 -0.253418,-0.02783 c -1.366464,-0.30012 -2.760106,-0.966076 -4.190918,-1.984863 -0.390457,0.338124 -0.781123,0.671259 -1.187988,1.078125 -0.9139612,0.913953 -2.1243136,1.522038 -3.3764653,1.964355 A 18,18 0 0 0 24.074999,42 18,18 0 0 0 41.486132,28.482422 c -1.382851,-0.450763 -2.744093,-1.08589 -3.748535,-2.090332 -0.40673,-0.406749 -0.796046,-0.740081 -1.186524,-1.078125 -1.430812,1.01879 -2.827398,1.684731 -4.193847,1.984863 a 1.1752656,1.1752656 0 0 1 -0.251954,0.02783 h -3.474609 l 1.028321,-2.351074 h 2.251464 c 0.795281,-0.182492 1.690624,-0.563955 2.661621,-1.174805 -0.969506,-0.61031 -1.862776,-0.994814 -2.657226,-1.177734 h -1.226075 l 1.028321,-2.34961 h 0.388183 a 1.1752656,1.1752656 0 0 1 0.251954,0.02783 c 1.365946,0.300015 2.76067,0.969635 4.190917,1.987792 0.391028,-0.338394 0.782135,-0.673748 1.189454,-1.081054 0.984889,-0.984894 2.313018,-1.616185 3.667968,-2.06543 A 18,18 0 0 0 24.074999,6 Z m -9.597656,3.682617 a 1.1752656,1.1752656 0 0 1 1.035644,0.666504 l 4.226074,8.447754 -0.177246,0.401367 a 1.1752656,1.1752656 0 0 0 -0.470214,-0.09961 h -1.83252 l -3.848145,-7.699218 a 1.1752656,1.1752656 0 0 1 1.066407,-1.716797 z m 18.78955,0 a 1.1752656,1.1752656 0 0 1 1.073731,1.662598 l -8.226563,18.80127 a 1.1763073,1.1763073 0 0 1 -2.154785,-0.94336 l 8.226563,-18.801269 a 1.1752656,1.1752656 0 0 1 1.081054,-0.719239 z m -10.576171,7.051758 a 1.1752656,1.1752656 0 0 1 1.07373,1.661133 l -8.226563,18.802734 a 1.1763073,1.1763073 0 0 1 -2.154784,-0.943359 l 8.226562,-18.802734 a 1.1752656,1.1752656 0 0 1 1.081055,-0.717774 z m 3.486327,0 a 1.1752656,1.1752656 0 0 1 1.126465,1.627441 l -4.700683,11.750977 a 1.1757008,1.1757008 0 1 1 -2.182617,-0.874512 l 4.700683,-11.750977 a 1.1752656,1.1752656 0 0 1 1.056152,-0.752929 z m 15.70752,4.782715 c -1.053142,0.394727 -1.994557,0.860768 -2.485839,1.352051 -0.328674,0.328673 -0.65243,0.637776 -0.977052,0.93164 0.324622,0.293862 0.648378,0.601506 0.977052,0.930176 0.499889,0.499897 1.465509,0.973074 2.541504,1.371094 A 18,18 0 0 0 42.074999,24 18,18 0 0 0 41.884569,21.51709 Z M 6.2478503,21.659179 A 18,18 0 0 0 6.0749988,24 18,18 0 0 0 6.203905,25.955566 C 7.1149107,25.58923 7.9048874,25.168653 8.3425769,24.730957 8.6712501,24.402287 8.9979354,24.094646 9.3225574,23.800781 8.9979354,23.50691 8.6712501,23.197811 8.3425769,22.869141 7.9116704,22.438233 7.1408086,22.022238 6.2478503,21.659179 Z m 21.9111337,6.741212 a 1.1752656,1.1752656 0 0 0 0.471679,0.101074 h 1.40625 l 4.253906,7.653809 a 1.1753604,1.1753604 0 1 1 -2.055176,1.141113 l -4.457519,-8.021485 z"
       style="font-variation-settings:normal;opacity:0.6;vector-effect:none;fill:#d0d0d0;stroke-width:1.5;stroke-linecap:round;stroke-miterlimit:26.70000076" />
  </g>
</svg>
