<?xml version="1.0" encoding="UTF-8" standalone="no"?>
<!-- Created with Inkscape (http://www.inkscape.org/) -->

<svg
   xmlns:dc="http://purl.org/dc/elements/1.1/"
   xmlns:cc="http://creativecommons.org/ns#"
   xmlns:rdf="http://www.w3.org/1999/02/22-rdf-syntax-ns#"
   xmlns:svg="http://www.w3.org/2000/svg"
   xmlns="http://www.w3.org/2000/svg"
   xmlns:sodipodi="http://sodipodi.sourceforge.net/DTD/sodipodi-0.dtd"
   xmlns:inkscape="http://www.inkscape.org/namespaces/inkscape"
   width="48.149998"
   height="48"
   viewBox="0 0 48.149998 48"
   version="1.1"
   id="svg8"
   inkscape:version="0.92+devel (f96dc7e339, 2017-07-28, custom)"
   sodipodi:docname="grub-customizer.svg">
  <defs
     id="ol-defs">
    <style
       id="current-color-scheme">      .ColorScheme-Text {
        color:#d0d0d0;
        stop-color:#d0d0d0;
      }
      .ColorScheme-Background {
        color:#212121;
        stop-color:#212121;
      }
      .ColorScheme-Highlight {
        color:#0039a9;
        stop-color:#0039a9;
      }
      .ColorScheme-ViewText {
        color:#d0d0d0;
        stop-color:#d0d0d0;
      }
      .ColorScheme-ViewBackground {
        color:#19191b;
        stop-color:#19191b;
      }
      .ColorScheme-ViewHover {
        color:#005cc7;
        stop-color:#005cc7;
      }
      .ColorScheme-ViewFocus{
        color:#002466;
        stop-color:#002466;
      }
      .ColorScheme-ButtonText {
        color:#d0d0d0;
        stop-color:#d0d0d0;
      }
      .ColorScheme-ButtonBackground {
        color:#232323;
        stop-color:#232323;                             
      }                                                 
      .ColorScheme-ButtonHover {                        
        color:#005cc7;                                  
        stop-color:#005cc7;                             
      }                                                 
      .ColorScheme-ButtonFocus{                         
        color:#0039a9;                                  
        stop-color:#0039a9;                             
      }</style>
    <style
       id="current-color-scheme-7">      .ColorScheme-Text {
        color:#d0d0d0;
        stop-color:#d0d0d0;
      }
      .ColorScheme-Background {
        color:#212121;
        stop-color:#212121;
      }
      .ColorScheme-Highlight {
        color:#0039a9;
        stop-color:#0039a9;
      }
      .ColorScheme-ViewText {
        color:#d0d0d0;
        stop-color:#d0d0d0;
      }
      .ColorScheme-ViewBackground {
        color:#19191b;
        stop-color:#19191b;
      }
      .ColorScheme-ViewHover {
        color:#005cc7;
        stop-color:#005cc7;
      }
      .ColorScheme-ViewFocus{
        color:#002466;
        stop-color:#002466;
      }
      .ColorScheme-ButtonText {
        color:#d0d0d0;
        stop-color:#d0d0d0;
      }
      .ColorScheme-ButtonBackground {
        color:#232323;
        stop-color:#232323;                             
      }                                                 
      .ColorScheme-ButtonHover {                        
        color:#005cc7;                                  
        stop-color:#005cc7;                             
      }                                                 
      .ColorScheme-ButtonFocus{                         
        color:#0039a9;                                  
        stop-color:#0039a9;                             
      }</style>
    <style
       id="current-color-scheme-75">      .ColorScheme-Text {
        color:#d0d0d0;
        stop-color:#d0d0d0;
      }
      .ColorScheme-Background {
        color:#212121;
        stop-color:#212121;
      }
      .ColorScheme-Highlight {
        color:#0039a9;
        stop-color:#0039a9;
      }
      .ColorScheme-ViewText {
        color:#d0d0d0;
        stop-color:#d0d0d0;
      }
      .ColorScheme-ViewBackground {
        color:#19191b;
        stop-color:#19191b;
      }
      .ColorScheme-ViewHover {
        color:#005cc7;
        stop-color:#005cc7;
      }
      .ColorScheme-ViewFocus{
        color:#002466;
        stop-color:#002466;
      }
      .ColorScheme-ButtonText {
        color:#d0d0d0;
        stop-color:#d0d0d0;
      }
      .ColorScheme-ButtonBackground {
        color:#232323;
        stop-color:#232323;                             
      }                                                 
      .ColorScheme-ButtonHover {                        
        color:#005cc7;                                  
        stop-color:#005cc7;                             
      }                                                 
      .ColorScheme-ButtonFocus{                         
        color:#0039a9;                                  
        stop-color:#0039a9;                             
      }</style>
  </defs>
  <sodipodi:namedview
     id="base"
     pagecolor="#002266"
     bordercolor="#ffffff"
     borderopacity="0.46666667"
     inkscape:pageopacity="0"
     inkscape:pageshadow="2"
     inkscape:zoom="12.859375"
     inkscape:cx="43.639166"
     inkscape:cy="26.673456"
     inkscape:document-units="px"
     inkscape:current-layer="g851"
     inkscape:document-rotation="0"
     showgrid="false"
     inkscape:showpageshadow="false"
     borderlayer="true"
     units="px"
     fit-margin-top="0"
     fit-margin-left="0"
     fit-margin-right="0"
     fit-margin-bottom="0"
     inkscape:window-width="1920"
     inkscape:window-height="1051"
     inkscape:window-x="0"
     inkscape:window-y="0"
     inkscape:window-maximized="1"
     inkscape:snap-page="true" />
  <metadata
     id="metadata5">
    <rdf:RDF>
      <cc:Work
         rdf:about="">
        <dc:format>image/svg+xml</dc:format>
        <dc:type
           rdf:resource="http://purl.org/dc/dcmitype/StillImage" />
        <dc:title></dc:title>
      </cc:Work>
    </rdf:RDF>
  </metadata>
  <g
     id="g851"
     inkscape:label="#grub-customizer"
     transform="matrix(0.75,0,0,0.75,6.0186022,6)"
     style="stroke-width:1.33333337">
    <rect
       inkscape:label="#boundary"
       y="-8"
       x="-8.0248032"
       height="64"
       width="64.199997"
       id="rect4264"
       style="fill:none;fill-opacity:0.74651441;stroke-width:31.48799896;stroke-opacity:0.3596773" />
    <path
       inkscape:label="#"
       id="rect814"
       d="M 5.4277344,0 C 2.420783,0 0,2.420783 0,5.4277344 V 42.572266 C 0,45.579217 2.420783,48 5.4277344,48 H 42.722656 c 3.006951,0 5.427735,-2.420783 5.427735,-5.427734 V 5.4277344 C 48.150391,2.420783 45.729607,0 42.722656,0 Z m 22.8457036,5.7304688 3.201171,0.5566406 0.261719,3.2871094 a 8.6220864,8.6220864 0 0 1 1.523438,0.9707032 l 3.085937,-1.1777345 1.875,2.6601565 -2.138672,2.503906 a 8.6220864,8.6220864 0 0 1 0.392578,1.771484 l 3.009766,1.347657 -0.552734,3.208984 -3.289063,0.255859 a 8.6220864,8.6220864 0 0 1 -0.970703,1.527344 l 1.175781,3.083984 -2.662109,1.875 -2.498047,-2.134765 a 8.6220864,8.6220864 0 0 1 -1.775391,0.390625 l -1.349609,3.007812 -3.203125,-0.55664 -0.259766,-3.28711 a 8.6220864,8.6220864 0 0 1 -1.53125,-0.966796 l -3.080078,1.169921 -1.876953,-2.65625 2.134766,-2.503906 a 8.6220864,8.6220864 0 0 1 -0.388672,-1.767578 l -3.009766,-1.353516 0.556641,-3.207031 3.289062,-0.253906 a 8.6220864,8.6220864 0 0 1 0.966797,-1.527344 l -1.173828,-3.0878905 2.66211,-1.8730469 2.501953,2.1347656 a 8.6220864,8.6220864 0 0 1 1.771484,-0.3886718 z m -0.353516,8.1992192 a 3.3698612,3.3698612 0 0 0 -3.322266,2.794921 3.3698612,3.3698612 0 0 0 2.742188,3.896485 3.3698612,3.3698612 0 0 0 3.896484,-2.746094 3.3698612,3.3698612 0 0 0 -2.74414,-3.896484 3.3698612,3.3698612 0 0 0 -0.572266,-0.04883 z m -13.248047,8.757812 2.662109,0.505859 0.171875,2.736329 a 7.1833075,7.1833075 0 0 1 1.263672,0.835937 l 2.580078,-0.939453 1.525391,2.24414 -1.820312,2.058594 a 7.1833075,7.1833075 0 0 1 0.304687,1.47461 l 2.492187,1.167968 -0.511718,2.66211 -2.732422,0.169922 a 7.1833075,7.1833075 0 0 1 -0.832031,1.263672 l 0.93164,2.582031 -2.240234,1.519531 -2.058594,-1.8125 a 7.1833075,7.1833075 0 0 1 -1.474609,0.304688 l -1.167969,2.486328 -2.662109,-0.50586 -0.173828,-2.734375 A 7.1833075,7.1833075 0 0 1 9.6738281,37.873047 L 7.0878906,38.808594 5.5644531,36.564453 7.3847656,34.507812 A 7.1833075,7.1833075 0 0 1 7.0820312,33.035156 L 4.5859375,31.865234 5.09375,29.203125 7.8300781,29.029297 A 7.1833075,7.1833075 0 0 1 8.6660156,27.771484 L 7.7304688,25.185547 9.96875,23.662109 l 2.060547,1.820313 a 7.1833075,7.1833075 0 0 1 1.476562,-0.302734 z m 20.175781,5.183594 2.884766,1.158203 -0.353516,2.189453 a 5.2231665,5.2231665 0 0 1 0.423828,0.46875 5.2231665,5.2231665 0 0 1 0.357422,0.523438 l 2.205078,0.179687 0.4375,3.078125 -2.068359,0.785156 a 5.2231665,5.2231665 0 0 1 -0.472656,1.175782 l 0.945312,2 -2.443359,1.916015 -1.710938,-1.394531 A 5.2231665,5.2231665 0 0 1 33.796875,40.125 l -1.261719,1.822266 -2.882812,-1.158204 0.353515,-2.189453 a 5.2231665,5.2231665 0 0 1 -0.423828,-0.46875 5.2231665,5.2231665 0 0 1 -0.357422,-0.523437 l -2.205078,-0.181641 -0.4375,-3.076172 2.066407,-0.785156 a 5.2231665,5.2231665 0 0 1 0.472656,-1.175781 l -0.945313,-2 2.44336,-1.916016 1.710937,1.394532 a 5.2231665,5.2231665 0 0 1 1.257813,-0.173829 z m -20.621094,1.640625 a 2.8075281,2.8075281 0 0 0 -1.585937,0.484375 2.8075281,2.8075281 0 0 0 -0.742187,3.90039 2.8075281,2.8075281 0 0 0 3.90039,0.742188 2.8075281,2.8075281 0 0 0 0.742188,-3.900391 2.8075281,2.8075281 0 0 0 -2.3125,-1.226562 2.8075281,2.8075281 0 0 1 -0.002,0 z m 19.546876,3.060547 a 2.33917,2.33917 0 0 0 -1.523438,0.49414 2.33917,2.33917 0 0 0 -0.398438,3.28711 2.33917,2.33917 0 0 0 3.283204,0.398437 2.33917,2.33917 0 0 0 0.398437,-3.287109 2.33917,2.33917 0 0 0 -1.759765,-0.892578 z"
       style="font-variation-settings:normal;opacity:0.6;vector-effect:none;fill:#d0d0d0;stroke-width:2.5333333;stroke-linecap:square"
       inkscape:connector-curvature="0" />
  </g>
</svg>
