<?xml version="1.0" encoding="UTF-8" standalone="no"?>
<!-- Created with Inkscape (http://www.inkscape.org/) -->

<svg
   xmlns:dc="http://purl.org/dc/elements/1.1/"
   xmlns:cc="http://creativecommons.org/ns#"
   xmlns:rdf="http://www.w3.org/1999/02/22-rdf-syntax-ns#"
   xmlns:svg="http://www.w3.org/2000/svg"
   xmlns="http://www.w3.org/2000/svg"
   xmlns:sodipodi="http://sodipodi.sourceforge.net/DTD/sodipodi-0.dtd"
   xmlns:inkscape="http://www.inkscape.org/namespaces/inkscape"
   width="48.149998"
   height="48"
   viewBox="0 0 48.149998 48"
   version="1.1"
   id="svg8"
   inkscape:version="0.92+devel (b8837397f6, 2017-07-27, custom)"
   sodipodi:docname="internet-web-browser.svg">
  <defs
     id="ol-defs">
    <style
       id="current-color-scheme">      .ColorScheme-Text {
        color:#d0d0d0;
        stop-color:#d0d0d0;
      }
      .ColorScheme-Background {
        color:#212121;
        stop-color:#212121;
      }
      .ColorScheme-Highlight {
        color:#0039a9;
        stop-color:#0039a9;
      }
      .ColorScheme-ViewText {
        color:#d0d0d0;
        stop-color:#d0d0d0;
      }
      .ColorScheme-ViewBackground {
        color:#19191b;
        stop-color:#19191b;
      }
      .ColorScheme-ViewHover {
        color:#005cc7;
        stop-color:#005cc7;
      }
      .ColorScheme-ViewFocus{
        color:#002466;
        stop-color:#002466;
      }
      .ColorScheme-ButtonText {
        color:#d0d0d0;
        stop-color:#d0d0d0;
      }
      .ColorScheme-ButtonBackground {
        color:#232323;
        stop-color:#232323;                             
      }                                                 
      .ColorScheme-ButtonHover {                        
        color:#005cc7;                                  
        stop-color:#005cc7;                             
      }                                                 
      .ColorScheme-ButtonFocus{                         
        color:#0039a9;                                  
        stop-color:#0039a9;                             
      }</style>
    <style
       id="current-color-scheme-5">      .ColorScheme-Text {
        color:#d0d0d0;
        stop-color:#d0d0d0;
      }
      .ColorScheme-Background {
        color:#212121;
        stop-color:#212121;
      }
      .ColorScheme-Highlight {
        color:#0039a9;
        stop-color:#0039a9;
      }
      .ColorScheme-ViewText {
        color:#d0d0d0;
        stop-color:#d0d0d0;
      }
      .ColorScheme-ViewBackground {
        color:#19191b;
        stop-color:#19191b;
      }
      .ColorScheme-ViewHover {
        color:#005cc7;
        stop-color:#005cc7;
      }
      .ColorScheme-ViewFocus{
        color:#002466;
        stop-color:#002466;
      }
      .ColorScheme-ButtonText {
        color:#d0d0d0;
        stop-color:#d0d0d0;
      }
      .ColorScheme-ButtonBackground {
        color:#232323;
        stop-color:#232323;                             
      }                                                 
      .ColorScheme-ButtonHover {                        
        color:#005cc7;                                  
        stop-color:#005cc7;                             
      }                                                 
      .ColorScheme-ButtonFocus{                         
        color:#0039a9;                                  
        stop-color:#0039a9;                             
      }</style>
  </defs>
  <sodipodi:namedview
     id="base"
     pagecolor="#002266"
     bordercolor="#ffffff"
     borderopacity="0.46666667"
     inkscape:pageopacity="0"
     inkscape:pageshadow="2"
     inkscape:zoom="4.5464756"
     inkscape:cx="31.6838"
     inkscape:cy="21.027627"
     inkscape:document-units="px"
     inkscape:current-layer="g874"
     inkscape:document-rotation="0"
     showgrid="false"
     inkscape:showpageshadow="false"
     borderlayer="true"
     units="px"
     fit-margin-top="0"
     fit-margin-left="0"
     fit-margin-right="0"
     fit-margin-bottom="0"
     inkscape:window-width="1920"
     inkscape:window-height="1051"
     inkscape:window-x="0"
     inkscape:window-y="0"
     inkscape:window-maximized="1"
     inkscape:snap-page="true" />
  <metadata
     id="metadata5">
    <rdf:RDF>
      <cc:Work
         rdf:about="">
        <dc:format>image/svg+xml</dc:format>
        <dc:type
           rdf:resource="http://purl.org/dc/dcmitype/StillImage" />
        <dc:title />
      </cc:Work>
    </rdf:RDF>
  </metadata>
  <g
     id="g874"
     inkscape:label="#internet-web-browser">
    <rect
       inkscape:label="#boundary"
       y="0"
       x="0"
       height="48"
       width="48.149998"
       id="rect4264"
       style="fill:none;fill-opacity:0.74651441;stroke-width:23.61599922;stroke-opacity:0.3596773" />
    <path
       inkscape:label="#"
       inkscape:connector-curvature="0"
       id="path1391"
       d="m 25.054688,6 a 17.999825,17.999825 0 0 0 -5.060547,0.7363281 c -0.02399,0.03721 -0.04042,0.076099 -0.0332,0.1464844 0.01125,0.169357 0.165835,0.2368061 0.253906,0.2519531 0.135833,0.02752 0.371822,5.431e-4 0.503906,-0.060547 0.246011,-0.1137601 0.36275,-0.4870973 0.568359,-0.4414063 0.161483,0.03663 0.351306,0.5687994 0.376953,0.7558594 0.02567,0.197708 -0.01012,0.3225864 0,0.5058593 0.02182,0.30841 0.379468,0.2795913 0.570313,0.4414063 0.05494,0.04818 0.07741,0.1832801 0.125,0.2519531 0.09189,0.125168 0.233771,0.1218763 0.251953,0.2539063 0.03674,0.319819 -0.281266,0.3407204 -0.251953,0.6933593 -0.06608,0.139792 -0.26606,0.1956213 -0.251953,0.3789063 0.02205,0.2907637 0.452496,0.024479 0.566406,0.2519537 0.06275,0.121374 -0.01858,0.270939 -0.0625,0.443359 0.14328,0.168809 0.124683,0.376953 -0.125,0.376953 -0.154192,0 -0.162122,-0.211883 -0.316406,-0.25 -0.08813,-0.01514 -0.20418,0.01514 -0.314453,0 -0.09182,-0.01539 -0.228367,-0.05494 -0.316407,-0.0625 -0.227651,-0.02297 -0.432441,0.07148 -0.568359,-0.06055 0.22032,-0.289981 0.475092,-0.570645 0.757813,-0.8203124 0.08402,-0.0772 0.233499,-0.1659493 0.189453,-0.3164063 -0.154215,-0.141863 -0.294588,-0.024273 -0.441407,0.060547 -0.157882,0.08478 -0.329555,0.2311862 -0.505859,0.2539062 -0.304755,0.03965 -0.7601,-0.036815 -1.009765,0.125 -0.03674,0.1357635 0.297947,0.044626 0.253906,0.2539065 -0.12483,0.01514 -0.285334,0.08482 -0.38086,0 -0.0842,-0.07796 -0.0075,-0.2082135 -0.0625,-0.2539065 -0.09547,-0.07245 -0.472943,-0.147725 -0.630859,-0.125 -0.19458,0.03285 -0.290758,0.2140625 -0.316406,0.3789065 0.234974,0.110822 0.610883,-0.153617 0.695312,0.125 -0.124807,0.227452 -0.481782,0.322499 -0.441406,0.630859 0.01463,0.116831 0.152809,0.30126 0.251953,0.316407 0.09916,0.0207 0.152798,-0.06758 0.251953,-0.0625 0.102803,0.0076 0.130783,0.07765 0.251953,0.0625 0.17622,-0.07416 0.2414,-0.269056 0.44336,-0.253907 0.242294,0.296924 -0.186343,0.476724 -0.44336,0.56836 -0.293745,0.106988 -0.721347,0.156531 -0.945312,0.251953 -0.117495,0.04746 -0.505921,0.461288 -0.56836,0.126953 -0.0477,-0.238988 0.196831,-0.180487 0.251954,-0.378906 -0.286396,-0.05495 -0.5633,0.15274 -0.820313,0.251953 -0.370832,0.139678 -0.984209,0.153898 -1.072265,0.568359 -0.01418,0.08396 0.0551,0.325384 0,0.378906 -0.04406,0.04595 -0.327498,0.02439 -0.441407,0.0625 -0.17622,0.06185 -0.333089,0.156954 -0.443359,0.1875 -0.08096,0.02297 -0.19849,0.04736 -0.25,0.0625 -0.146925,0.05877 -0.147587,0.246877 -0.316406,0.378907 -0.06615,0.05731 -0.261293,0.07148 -0.316407,0.125 -0.09547,0.09542 -0.145633,0.340787 -0.314453,0.378906 -0.106425,0.0076 -0.152782,-0.06109 -0.251953,0 -0.01013,0.235101 0.09916,0.517804 0,0.755859 -0.216653,0.179381 -0.478788,0.347832 -0.757812,0.50586 -0.154215,0.08785 -0.256146,0.09782 -0.44336,0.189453 -0.132187,0.06556 -0.290953,0.226599 -0.441406,0.314453 -0.352481,0.205565 -0.757813,0.422131 -0.757813,0.947265 0,0.113749 0.0443,0.246875 0.0625,0.378907 0.01012,0.07722 -0.004,0.167134 0,0.251953 0.02565,0.19082 0.161574,0.498827 0,0.630859 -0.246002,-0.103041 -0.583185,-0.202703 -0.755859,-0.378906 -0.04804,-0.183957 0.08064,-0.338309 0.0625,-0.503906 C 11.296003,16.910989 11.110048,16.679216 11,16.664062 c -0.110272,-0.0182 -0.134377,0.130079 -0.251953,0.125 -0.1395,-0.01132 -0.394005,-0.236808 -0.570313,-0.251953 -0.2606842,-0.03053 -0.406964,0.0381 -0.693359,0 -0.279063,0.146592 -0.2930664,0.401629 -0.6308594,0.378907 -0.09504,-0.0083 -0.1919549,-0.06156 -0.2949218,-0.09766 a 17.999825,17.999825 0 0 0 -1.1621094,3.728516 c 0.133493,-0.02849 0.2811556,-0.0609 0.3847656,-0.0957 0.400217,-0.125111 0.2968374,-0.642272 0.6933594,-0.822266 0.176242,-0.08028 0.3886084,-0.109855 0.6933594,-0.125 0.09875,0.08087 0.2035831,0.254452 0.1894531,0.378906 -0.0108,0.09613 -0.1417981,0.184374 -0.1894531,0.316407 -0.04019,0.117542 -0.02216,0.28153 -0.0625,0.376953 -0.05512,0.124404 -0.2079232,0.198762 -0.2519532,0.316406 -0.02565,0.07722 0.02565,0.120792 0,0.189453 -0.04383,0.120593 -0.2629691,0.189998 -0.1894531,0.314453 0.392866,0.154244 0.8540757,-0.06106 1.1992187,0 0.1468568,0.02594 0.5099008,0.219688 0.5058598,0.44336 -0.0034,0.168684 -0.171273,0.320629 -0.189453,0.503906 -0.02205,0.231264 -0.116874,0.508252 -0.126954,0.695312 -0.01462,0.304476 0.434699,0.82539 0.757813,0.820313 0.348797,-0.003 0.58754,-0.310221 1.009765,-0.126953 0.139522,0.05876 0.287111,0.261475 0.441407,0.253906 0.128497,-0.0076 0.294483,-0.224663 0.378906,-0.378906 0.106492,-0.187011 0.130853,-0.345984 0.314453,-0.441406 0.19827,-0.102243 0.379459,-0.09403 0.632813,-0.189454 0.113805,-0.04039 0.211673,-0.120792 0.314453,-0.189453 0.08825,-0.05604 0.141897,-0.172323 0.251953,-0.0625 0.146993,0.146589 -0.187312,0.156425 -0.0625,0.314453 0.253332,0.135893 0.384777,-0.244931 0.568359,-0.25 0.05877,-0.0038 0.272479,0.181339 0.378906,0.25 0.143077,0.09537 0.158478,0.285861 0.316407,0.316407 0.09913,0.02219 0.296275,-0.1421 0.439453,-0.126953 0.187268,0.02594 0.300169,0.258983 0.443359,0.253906 0.172575,-0.0038 0.294585,-0.223361 0.441407,-0.253906 0.323088,-0.06182 0.425171,0.05168 0.568359,0.253906 0.09117,0.01807 0.114552,-0.02696 0.144531,-0.05664 0.343238,-1.580003 1.122256,-3.081709 2.355469,-4.3125 2.866807,-2.861178 7.230097,-3.358807 10.625,-1.505859 0.04106,-0.0421 0.09007,-0.100093 0.126953,-0.126953 0.0918,-0.06565 0.217244,-0.14376 0.316406,-0.189453 0.341449,-0.158004 0.52816,-0.368626 0.69336,-0.695313 -0.04797,-0.293871 0.06825,-0.361164 0.189453,-0.566406 0.113828,-0.190821 0.188063,-0.458548 0.378906,-0.568359 0.231313,-0.131981 0.533744,-0.07256 0.695313,-0.314454 0.08078,-0.12443 0.126953,-0.37762 0.126953,-0.505859 0,-0.180144 -0.154855,-0.418682 -0.316407,-0.441406 -0.168885,-0.03055 -0.410326,0.180246 -0.505859,0 -0.02943,-0.0588 0.01418,-0.183288 0,-0.251953 -0.0216,-0.12135 -0.183495,-0.291058 -0.1875,-0.378907 -0.01102,-0.173277 0.200666,-0.307439 0.251953,-0.505859 0.06991,-0.27173 0.01823,-0.443662 0,-0.755859 0.257031,-0.407695 0.81762,-0.227572 1.386719,-0.189453 0.08462,0.0076 0.16202,0 0.253906,0 0.337776,0.0069 0.641957,0.03996 0.755859,-0.253907 0.04406,-0.109915 0.02934,-0.46341 0,-0.566406 -0.02934,-0.124421 -0.20056,-0.494075 -0.314453,-0.570313 -0.183577,-0.113799 -0.528064,-0.04099 -0.630859,-0.25 0.08444,-0.363265 0.513538,-0.0391 0.755859,-0.126953 0.124425,-0.04441 0.07921,-0.221409 0.189453,-0.251953 0.07704,-0.02752 0.274423,0.06055 0.38086,0.06055 0.08813,0 0.292533,-0.190862 0.376953,-0.251953 0.11754,-0.0772 0.149164,-0.1852362 0.251953,-0.2539062 0.04898,-0.03066 0.142781,-0.059471 0.222656,-0.087891 A 17.999825,17.999825 0 0 0 35.412109,9.2910156 c -0.06532,0.06404 -0.134247,0.122094 -0.115234,0.234375 -0.25335,0.196898 -0.598542,0.1378783 -1.009766,0.1914063 -0.187267,0.02272 -0.368086,0.154237 -0.566406,0 -0.04421,-0.121365 0.10682,-0.1362763 0.125,-0.2539063 -0.01462,-0.11007 -0.09188,-0.097805 -0.125,-0.1894531 0.05495,-0.142807 0.13913,-0.1014011 0.125,-0.3144531 0.102803,-0.11079 0.349602,-0.1034493 0.378906,-0.2539063 0.02228,-0.102937 -0.08304,-0.1908651 -0.189453,-0.2519531 -0.06199,-0.03283 -0.123416,-0.08689 -0.189453,-0.125 -0.03188,-0.01755 -0.04498,-0.04059 -0.05859,-0.0625 A 17.999825,17.999825 0 0 0 25.054688,6 Z m -7.53711,1.6777344 a 17.999825,17.999825 0 0 0 -2.359375,1.2988281 c -0.02959,0.05762 -0.05664,0.11495 -0.05664,0.171875 0,0.128182 0.242987,0.3068791 0.378907,0.3144531 0.187245,0.0153 0.428711,-0.1273861 0.505859,-0.3144531 0.09148,-0.224393 0.02055,-0.5334965 0.189453,-0.6953125 0.644674,0.01665 1.133294,-0.2705266 1.341796,-0.7753906 z m 15.507813,0.5234375 v 0.00195 c 0.22765,-0.02138 0.491725,0.1180972 0.505859,0.2539062 0.01845,0.135765 -0.137928,0.097715 -0.189453,0.2519532 -0.04693,0.13968 -0.002,0.3421972 -0.06445,0.4414062 -0.0551,0.07623 -0.149167,0.030017 -0.251953,0.060547 -0.231316,0.06615 -0.697555,0.367051 -0.884766,0.0625 0.02925,-0.16479 0.136304,-0.1805963 0.191406,-0.3164063 0.0038,-0.1029379 -0.14511,-0.1381031 -0.126953,-0.2519531 0.02205,-0.13581 0.228446,-0.1359481 0.378906,-0.1894531 0.106425,-0.04034 0.11241,-0.1671261 0.251954,-0.2519531 0.05935,-0.03053 0.121795,-0.04736 0.189453,-0.0625 z M 13.064453,10.603516 a 17.999825,17.999825 0 0 0 -0.560547,0.496093 c 0.132052,0.0059 0.482071,-0.04282 0.515625,-0.05664 0.216428,-0.09285 0.15349,-0.284032 0.04492,-0.439453 z m 0.460938,0.564453 v 0.002 c -0.146925,-0.0106 -0.261298,0.120788 -0.316407,0.189453 -0.0076,0.110772 0.06648,0.142142 0.0625,0.251953 -0.18,0.128241 -0.04934,0.490712 0.126954,0.50586 0.187267,0.01528 0.25423,-0.460169 0.503906,-0.50586 0.08804,-0.01818 0.130782,0.142102 0.251953,0.126953 0.147083,-0.113727 0.09179,-0.403288 -0.0625,-0.441406 -0.05884,-0.0207 -0.217249,0.06812 -0.316406,0.06055 -0.102803,-0.0076 -0.161921,-0.184377 -0.25,-0.189453 z m -0.779297,0.117187 c -0.007,0.0028 -0.01725,0.0078 -0.04297,0.0078 v 0.0039 c -0.125573,-0.0061 -0.30305,0.0044 -0.419922,0.03906 a 17.999825,17.999825 0 0 0 -0.173828,0.1875 c -0.02772,0.07675 -0.05773,0.159392 -0.101563,0.21289 -0.08442,0.102971 -0.176505,0.160315 -0.25,0.251953 -0.06583,0.08396 -0.479523,0.634218 -0.189453,0.695313 0.12483,0.02594 0.413805,-0.28165 0.439453,-0.38086 0.08447,-0.338147 0.247128,-0.53533 0.507813,-0.693359 0.150458,-0.09159 0.226305,-0.121772 0.251953,-0.316406 -0.009,-0.01136 -0.01278,-0.01072 -0.01953,-0.0078 z m 24.824218,0.509766 c -0.117629,0.0068 -0.220891,0.135932 -0.316406,0.189453 -0.08804,0.04418 -0.163879,0.128365 -0.251953,0.189453 -0.106492,0.06867 -0.215294,0.05548 -0.314453,0.06055 -0.231291,0.01514 -0.43449,-0.106242 -0.632812,-0.06055 -0.06608,0.0144 -0.04615,0.04876 -0.126954,0.125 -0.004,0.106985 0.01417,0.136268 0,0.253906 -0.05877,0.10224 -0.31101,0.12079 -0.439453,0.189454 -0.190913,0.09924 -0.289063,0.287163 -0.443359,0.441406 -0.09916,0.09916 -0.237809,0.174958 -0.251953,0.251953 -0.01102,0.05877 0.07663,0.17287 0.0625,0.253906 -0.01845,0.0878 -0.204404,0.237459 -0.314453,0.314453 -0.06581,0.04368 -0.119591,0.08688 -0.189454,0.125 -0.146925,0.08477 -0.195241,0.231183 -0.316406,0.253906 -0.323097,0.0588 -0.951275,-0.08729 -0.947265,0.253907 0.0038,0.222097 0.318654,0.25953 0.505859,0.251953 0.26068,-0.0076 0.425169,0.0381 0.568359,0 0.09914,-0.02526 0.276111,-0.14376 0.378907,-0.189453 0.06624,-0.03053 0.138153,-0.0398 0.189453,-0.0625 0.110272,-0.05502 0.167527,-0.151334 0.251953,-0.189453 0.168885,-0.07725 0.515368,-0.179924 0.695312,-0.1875 0.249692,-0.01514 0.436427,0.02272 0.75586,0 0.113805,-0.0076 0.195242,-0.05493 0.316406,-0.0625 0.201938,-0.0207 0.531793,0.06758 0.693359,0.0625 0.113805,0 0.246629,-0.0625 0.378907,-0.0625 0.150547,0.0038 0.288805,0.09404 0.314453,0.189453 0.01823,0.05195 -0.01417,0.172869 0,0.253906 0.01845,0.13198 0.135009,0.164107 0.126953,0.251953 -0.0074,0.113749 -0.356792,0.305589 -0.316406,0.441406 0.02567,0.08478 0.281704,0.192822 0.380859,0.253907 0.102803,0.06029 0.316594,0.04542 0.441406,0.06055 0.102803,0.01514 0.152798,-0.0076 0.251953,0 0.157882,0.01845 0.406704,0.120783 0.50586,0.189453 0.172575,0.121377 0.112511,0.372737 0.314453,0.441406 0.08811,0.03053 0.268841,-0.02271 0.378906,0 0.268011,0.05876 0.498876,0.274676 0.693359,0.251953 0.308186,-0.03665 0.152666,-0.298672 0.189454,-0.503906 0.0068,-0.0409 0.0193,-0.07049 0.03516,-0.09766 a 17.999825,17.999825 0 0 0 -1.251953,-2.09375 c -0.04345,0.06959 -0.09461,0.123169 -0.171875,0.109374 -0.01597,-0.09639 0.04092,-0.179094 0.05469,-0.27539 a 17.999825,17.999825 0 0 0 -0.441406,-0.617188 c -0.08921,-0.04856 -0.17636,-0.08678 -0.244141,-0.117187 -0.113805,-0.05124 -0.211668,-0.135934 -0.314453,-0.189453 -0.179932,-0.09924 -0.522756,-0.299973 -0.632812,-0.44336 -0.132188,-0.175549 -0.276354,-0.519054 -0.566407,-0.503906 z m -22.574218,0.177734 c -0.04702,0.0047 -0.10054,0.01563 -0.146485,0.01563 -0.09189,0 -0.167529,-0.0051 -0.251953,0 -0.05877,0.0051 -0.140763,-0.0076 -0.189453,0 -0.04847,0.0076 -0.122948,0.01486 -0.126953,0.06055 0.190913,0.09012 0.761536,0.181544 0.820312,-0.06055 -0.01845,-0.01908 -0.05849,-0.02038 -0.105468,-0.01563 z m 22.664062,0.431641 c 0.0054,-0.0048 0.01315,-0.0014 0.03711,0.02539 0.02228,0.154192 0.01997,0.262885 -0.06445,0.316406 -0.179932,-0.03282 -0.121161,-0.278287 0,-0.316406 0.01823,-0.0076 0.02223,-0.02059 0.02734,-0.02539 z m -23.853515,0.01758 c -0.03127,0.0029 -0.0625,0.0078 -0.09375,0.0078 v 0.0039 c -0.187268,0 -0.469294,0.04736 -0.63086,0.0625 -0.124808,0.01843 -0.281414,-0.0034 -0.251953,0.1875 0.0257,0.151974 0.239358,0.108195 0.378906,0.0625 0.293742,-0.09159 0.524527,-0.173017 0.69336,-0.316406 -0.03292,-0.01134 -0.06443,-0.0107 -0.0957,-0.0078 z m 23.763671,0.513672 c 0.176333,-0.04809 0.321805,0.120309 0.251954,0.501953 -0.05877,0.151974 -0.323867,0.289954 -0.441407,0.0625 0.04039,-0.179386 0.0041,-0.29867 0,-0.503906 0.06199,-0.06613 0.130683,-0.0454 0.189453,-0.06055 z m 1.640626,1.007812 c 0.161526,0.0076 0.24662,0 0.378906,0 -0.05128,0.139702 -0.01683,0.360373 -0.126953,0.441407 -0.304756,-0.05495 -0.557442,-0.09382 -0.69336,-0.314454 0.09544,-0.07245 0.21538,-0.132575 0.376953,-0.125 z M 8.4628906,16.820312 c -0.08257,0.18782 -0.157913,0.379477 -0.234375,0.570313 0.07504,-0.191346 0.152873,-0.381626 0.234375,-0.570313 z m -0.6582031,1.728516 c -0.05222,0.161201 -0.096746,0.325125 -0.1445313,0.488281 0.04642,-0.163309 0.093546,-0.326341 0.1445313,-0.488281 z m 18.2695315,0.914063 c -1.523335,0 -3.04807,0.585524 -4.21875,1.753906 -1.068942,1.066843 -1.643431,2.426711 -1.736328,3.8125 0.145329,0.07957 0.274466,0.179814 0.410156,0.285156 0.150547,0.1138 0.268775,0.178645 0.316406,0.314453 0.03683,0.0954 -0.03683,0.272122 0,0.378906 0.0808,0.230534 0.500077,0.297204 0.378906,0.69336 0.0551,0.114557 0.11987,0.173118 0.251953,0.253906 0.106471,0.06565 0.200557,0.174308 0.314454,0.189453 0.07339,0.0076 0.250371,-0.005 0.316406,0 0.209295,0.01462 0.323971,0.05636 0.503906,0.125 0.113805,0.0404 0.242898,0.07341 0.316406,0.126953 0.09149,0.06259 0.07556,0.26093 0.189454,0.314454 0.07346,0.0381 0.316592,-0.01514 0.441406,0 0.19827,0.02219 0.392047,0.184384 0.568359,0.189453 0.106425,0.005 0.15642,-0.005 0.251953,0 0.451593,0.03665 0.765956,0.531546 1.199219,0.693359 0.135877,0.04592 0.351467,0.02441 0.443359,0.0625 0.161573,0.06948 0.237847,0.537168 0.251954,0.757812 0.03674,0.668111 -0.462366,0.883809 -0.759766,1.324219 -0.06199,0.09158 -0.09943,0.31316 -0.1875,0.441407 -0.04097,0.06053 -0.07197,0.09532 -0.109375,0.138671 1.79538,0.261505 3.683048,-0.295153 5.074219,-1.683593 1.186729,-1.184399 1.768221,-2.730367 1.751953,-4.271485 -0.340384,4.58e-4 -0.631377,-0.32765 -0.847657,-0.498047 -0.135854,-0.106987 -0.312962,-0.152746 -0.441406,-0.251953 -0.135832,-0.106758 -0.336931,-0.150906 -0.443359,-0.253906 -0.143189,-0.139677 -0.172863,-0.443807 -0.25,-0.630859 -0.09176,-0.219828 -0.296561,-0.359086 -0.505859,-0.56836 -0.154193,-0.154192 -0.527984,-0.432446 -0.56836,-0.630859 -0.02205,-0.102193 0.07253,-0.20465 0.06445,-0.314453 -0.0108,-0.16098 -0.193459,-0.265056 -0.189453,-0.378906 0.0038,-0.160981 0.207938,-0.243091 0.251953,-0.378907 0.02205,-0.07016 -0.02567,-0.164098 0,-0.251953 0.0511,-0.186984 0.21315,-0.296599 0.1875,-0.568359 -0.0084,-0.08556 -0.03368,-0.158387 -0.04883,-0.246094 -0.970536,-0.61502 -2.072518,-0.927734 -3.177734,-0.927734 z M 7.1992188,21.84375 A 17.999825,17.999825 0 0 0 7.0546875,24 17.999825,17.999825 0 0 0 15.294922,39.103516 c 0.01575,-0.114885 0.04522,-0.258859 0.05859,-0.359375 0.02182,-0.201533 -0.02575,-0.58918 -0.0625,-0.757813 -0.04406,-0.212962 -0.290759,-0.399629 -0.316407,-0.630859 -0.01125,-0.08402 0.135076,-0.208426 0.126953,-0.314453 -0.0074,-0.09918 -0.116895,-0.14006 -0.126953,-0.253907 -0.0081,-0.106088 -0.01012,-0.254452 0,-0.378906 0.01823,-0.231291 -0.004,-0.467864 0,-0.695312 0.004,-0.06633 0,-0.183297 0,-0.251953 0,-0.190846 -0.05238,-0.313062 -0.0625,-0.503907 -0.01418,-0.348978 0.0551,-0.624388 0,-0.947265 -0.04378,-0.245781 -0.101388,-0.601616 -0.189453,-0.75586 -0.09911,-0.172485 -0.498673,-0.396047 -0.693359,-0.505859 -0.128498,-0.07322 -0.239359,-0.120783 -0.378906,-0.189453 -0.297401,-0.146542 -0.940188,-0.45818 -1.072266,-0.75586 -0.03679,-0.08779 0.04037,-0.285437 0,-0.380859 -0.0808,-0.190811 -0.322186,-0.321712 -0.443359,-0.501953 -0.227561,-0.348755 -0.335103,-0.781026 -0.566407,-1.136719 -0.117495,-0.183193 -0.250458,-0.362467 -0.378906,-0.505859 -0.07713,-0.08402 -0.287093,-0.18623 -0.316406,-0.314453 -0.04019,-0.17253 -0.207633,-0.440111 -0.189453,-0.56836 0.02569,-0.176404 0.378906,-0.215131 0.378906,-0.376953 0,-0.135741 -0.152665,-0.265055 -0.189453,-0.378906 -0.09193,-0.28319 0.07918,-0.46029 0.189453,-0.695313 0.0329,-0.07721 0.02573,-0.198411 0.0625,-0.251953 0.06624,-0.09918 0.165841,-0.144095 0.253906,-0.253906 0.0511,-0.05876 0.123438,-0.16409 0.189453,-0.251953 0.139523,-0.183958 0.382639,-0.274726 0.441407,-0.443359 0.04763,-0.135792 0.0551,-0.782317 0,-1.009766 -0.03292,-0.131947 -0.141821,-0.252498 -0.189454,-0.376953 -0.08447,-0.223661 -0.151276,-0.510937 -0.378906,-0.50586 -0.14328,0 -0.224493,0.154692 -0.316406,0.253907 -0.02182,0.131947 -0.05354,0.338838 -0.189453,0.376953 -0.209295,0.06259 -0.261581,-0.300715 -0.503906,-0.376953 -0.09553,-0.03053 -0.189518,0.02271 -0.251953,0 -0.176221,-0.08087 -0.2541908,-0.34036 -0.4414068,-0.44336 -0.1542379,-0.08479 -0.3478353,-0.123714 -0.4433593,-0.251953 -0.03674,-0.08778 0.01013,-0.196826 0,-0.314453 -0.20196,-0.117558 -0.3314103,-0.527859 -0.5664063,-0.630859 -0.154193,-0.07246 -0.4381245,-0.05827 -0.6328125,-0.126953 -0.09169,-0.029 -0.1564431,-0.109855 -0.2519531,-0.125 -0.117428,-0.02296 -0.2225631,-0.01683 -0.3144531,-0.0625 -0.125707,-0.06259 -0.2312631,-0.181943 -0.3300781,-0.304688 z m -0.1640626,0.3125 c -0.0088,0.07381 -0.015287,0.146914 -0.023437,0.220703 0.0079,-0.07399 0.014837,-0.146838 0.023437,-0.220703 z m 6.9941408,1.380859 c -0.132075,0.06259 -0.135922,0.267107 0,0.251953 0.14319,-0.02219 0.17631,-0.332987 0,-0.251953 z m 21.898437,1.138672 c -0.328979,-0.04799 -0.650961,0.0517 -0.949218,0.169922 0.118547,1.858246 -0.331454,3.747781 -1.365235,5.371094 l 4.423828,4.414062 c 5.58e-4,-0.22034 -0.0027,-0.475074 0.03711,-0.992187 0.02943,-0.638653 -0.328597,-0.981555 -0.314453,-1.642578 -0.0038,-0.274788 0.186108,-0.537927 0.376953,-0.757813 0.403868,-0.682756 0.614532,-1.08638 0.695312,-1.703125 -0.04406,-0.128183 0.04761,-0.150903 0,-0.253906 -0.187266,-0.407752 -0.300323,-0.826409 -0.568359,-1.134766 -0.14688,-0.169466 -0.320235,-0.287162 -0.441406,-0.441406 -0.09916,-0.125188 -0.251954,-0.347936 -0.251954,-0.443359 -0.0038,-0.106222 0.03324,-0.208435 0.0625,-0.314453 0.03656,-0.135869 0.07565,-0.417802 0.126954,-0.63086 0.02205,-0.09924 0.14318,-0.220877 0.125,-0.378906 -0.01845,-0.154193 -0.246717,-0.522668 -0.441407,-0.568359 -0.257013,-0.06106 -0.497223,0.03053 -0.820312,0 -0.28273,-0.179357 -0.291436,-0.632268 -0.695313,-0.69336 z m -5.05664,8.269531 c -1.882813,1.184814 -4.116396,1.578077 -6.246094,1.205079 -0.118336,0.240307 -0.244756,0.473119 -0.498047,0.564453 -0.205605,0.07245 -0.47501,0.04805 -0.695312,0.125 -0.0918,0.03283 -0.204404,0.135926 -0.314453,0.189453 -0.319408,0.15039 -0.794757,0.364814 -0.882813,0.695312 -0.0808,0.293565 0.180125,0.548474 0.125,0.882813 -0.05834,0.09916 -0.09943,0.138106 -0.1875,0.251953 -0.07713,0.105975 -0.16949,0.21145 -0.253906,0.314453 -0.11016,0.135855 -0.312883,0.256299 -0.378907,0.44336 -0.02182,0.06183 0.02567,0.09025 0,0.189453 -0.01125,0.03656 -0.09186,0.05638 -0.125,0.125 -0.02934,0.06183 0.02567,0.262889 0,0.316406 -0.08444,0.168682 -0.388415,0.514836 -0.568359,0.568359 -0.381834,0.10683 -0.745407,-0.242972 -1.009765,-0.189453 0.03674,0.18702 0.163879,0.248703 0.251953,0.376953 0.04678,0.07416 -0.0071,0.173128 0.0625,0.253906 0.08402,0.09538 0.179372,0.145925 0.189453,0.251954 0.02182,0.227482 -0.130772,0.426904 -0.251953,0.503906 -0.110138,0.06608 -0.311179,0.03197 -0.50586,0.0625 -0.135832,0.02228 -0.564835,0.101591 -0.630859,0.189453 -0.09189,0.12825 0.06982,0.375665 0,0.503906 -0.02653,0.05085 -0.06356,0.08066 -0.103516,0.101563 A 17.999825,17.999825 0 0 0 25.054688,42 17.999825,17.999825 0 0 0 36.103516,38.169922 Z m -15.640625,6.388672 c -3.450499,1.655842 -6.9009978,3.311685 0,0 z"
       style="opacity:0.30212767;fill:#d0d0d0;stroke-width:0.41562402" />
    <path
       inkscape:label="#"
       style="color:#000000;font-style:normal;font-variant:normal;font-weight:normal;font-stretch:normal;font-size:medium;line-height:normal;font-family:sans-serif;font-variant-ligatures:normal;font-variant-position:normal;font-variant-caps:normal;font-variant-numeric:normal;font-variant-alternates:normal;font-variant-east-asian:normal;font-feature-settings:normal;text-indent:0;text-align:start;text-decoration:none;text-decoration-line:none;text-decoration-style:solid;text-decoration-color:#000000;letter-spacing:normal;word-spacing:normal;text-transform:none;writing-mode:lr-tb;direction:ltr;text-orientation:mixed;dominant-baseline:auto;baseline-shift:baseline;text-anchor:start;white-space:normal;shape-padding:0;clip-rule:nonzero;display:inline;overflow:visible;visibility:visible;opacity:0.8255319;isolation:auto;mix-blend-mode:normal;color-interpolation:sRGB;color-interpolation-filters:linearRGB;solid-color:#000000;solid-opacity:1;vector-effect:none;fill:#d0d0d0;fill-opacity:1;fill-rule:nonzero;stroke:none;stroke-width:2.68048716;stroke-linecap:round;stroke-linejoin:miter;stroke-miterlimit:4;stroke-dasharray:none;stroke-dashoffset:0;stroke-opacity:1;color-rendering:auto;image-rendering:auto;shape-rendering:auto;text-rendering:auto;enable-background:accumulate"
       d="m 19.74843,19.112421 c 3.480266,-3.473433 9.168217,-3.471652 12.648484,0.0018 3.009986,3.004077 3.412687,7.65285 1.216166,11.101978 l 7.443221,7.428605 a 1.9367998,1.9329969 0 0 1 0,2.733672 1.9367998,1.9329969 0 0 1 -2.739048,0 l -7.446789,-7.43219 c -3.280306,2.064226 -7.623403,1.735548 -10.631645,-0.886306 a 1.490132,1.4872062 0 0 1 -0.488605,-0.323915 1.490132,1.4872062 0 0 1 -0.328112,-0.491208 1.490132,1.4872062 0 0 1 -0.0018,-0.0054 c -3.053124,-3.497337 -3.005655,-8.799788 0.328124,-12.12702 z m 2.107784,2.103645 c -2.341363,2.336765 -2.341363,6.081375 0,8.418139 2.341361,2.336765 6.093339,2.336764 8.434699,0 2.341362,-2.336764 2.341362,-6.081375 0,-8.418138 -2.341362,-2.336765 -6.093338,-2.336765 -8.434699,-10e-7 z"
       id="path868"
       inkscape:connector-curvature="0" />
  </g>
</svg>
