<?xml version="1.0" encoding="UTF-8" standalone="no"?>
<!-- Created with Inkscape (http://www.inkscape.org/) -->

<svg
   xmlns:dc="http://purl.org/dc/elements/1.1/"
   xmlns:cc="http://creativecommons.org/ns#"
   xmlns:rdf="http://www.w3.org/1999/02/22-rdf-syntax-ns#"
   xmlns:svg="http://www.w3.org/2000/svg"
   xmlns="http://www.w3.org/2000/svg"
   xmlns:sodipodi="http://sodipodi.sourceforge.net/DTD/sodipodi-0.dtd"
   xmlns:inkscape="http://www.inkscape.org/namespaces/inkscape"
   width="48.149998"
   height="48"
   viewBox="0 0 48.149998 48"
   version="1.1"
   id="svg8"
   inkscape:version="0.92+devel (f96dc7e339, 2017-07-28, custom)"
   sodipodi:docname="kaffeine.svg">
  <defs
     id="ol-defs">
    <style
       id="current-color-scheme">      .ColorScheme-Text {
        color:#d0d0d0;
        stop-color:#d0d0d0;
      }
      .ColorScheme-Background {
        color:#212121;
        stop-color:#212121;
      }
      .ColorScheme-Highlight {
        color:#0039a9;
        stop-color:#0039a9;
      }
      .ColorScheme-ViewText {
        color:#d0d0d0;
        stop-color:#d0d0d0;
      }
      .ColorScheme-ViewBackground {
        color:#19191b;
        stop-color:#19191b;
      }
      .ColorScheme-ViewHover {
        color:#005cc7;
        stop-color:#005cc7;
      }
      .ColorScheme-ViewFocus{
        color:#002466;
        stop-color:#002466;
      }
      .ColorScheme-ButtonText {
        color:#d0d0d0;
        stop-color:#d0d0d0;
      }
      .ColorScheme-ButtonBackground {
        color:#232323;
        stop-color:#232323;                             
      }                                                 
      .ColorScheme-ButtonHover {                        
        color:#005cc7;                                  
        stop-color:#005cc7;                             
      }                                                 
      .ColorScheme-ButtonFocus{                         
        color:#0039a9;                                  
        stop-color:#0039a9;                             
      }</style>
    <style
       id="current-color-scheme-7">      .ColorScheme-Text {
        color:#d0d0d0;
        stop-color:#d0d0d0;
      }
      .ColorScheme-Background {
        color:#212121;
        stop-color:#212121;
      }
      .ColorScheme-Highlight {
        color:#0039a9;
        stop-color:#0039a9;
      }
      .ColorScheme-ViewText {
        color:#d0d0d0;
        stop-color:#d0d0d0;
      }
      .ColorScheme-ViewBackground {
        color:#19191b;
        stop-color:#19191b;
      }
      .ColorScheme-ViewHover {
        color:#005cc7;
        stop-color:#005cc7;
      }
      .ColorScheme-ViewFocus{
        color:#002466;
        stop-color:#002466;
      }
      .ColorScheme-ButtonText {
        color:#d0d0d0;
        stop-color:#d0d0d0;
      }
      .ColorScheme-ButtonBackground {
        color:#232323;
        stop-color:#232323;                             
      }                                                 
      .ColorScheme-ButtonHover {                        
        color:#005cc7;                                  
        stop-color:#005cc7;                             
      }                                                 
      .ColorScheme-ButtonFocus{                         
        color:#0039a9;                                  
        stop-color:#0039a9;                             
      }</style>
  </defs>
  <sodipodi:namedview
     id="base"
     pagecolor="#002266"
     bordercolor="#ffffff"
     borderopacity="0.46666667"
     inkscape:pageopacity="0"
     inkscape:pageshadow="2"
     inkscape:zoom="12.859375"
     inkscape:cx="31.6838"
     inkscape:cy="27.406602"
     inkscape:document-units="px"
     inkscape:current-layer="g875"
     inkscape:document-rotation="0"
     showgrid="false"
     inkscape:showpageshadow="false"
     borderlayer="true"
     units="px"
     fit-margin-top="0"
     fit-margin-left="0"
     fit-margin-right="0"
     fit-margin-bottom="0"
     inkscape:window-width="1920"
     inkscape:window-height="1051"
     inkscape:window-x="0"
     inkscape:window-y="0"
     inkscape:window-maximized="1"
     inkscape:snap-page="true" />
  <metadata
     id="metadata5">
    <rdf:RDF>
      <cc:Work
         rdf:about="">
        <dc:format>image/svg+xml</dc:format>
        <dc:type
           rdf:resource="http://purl.org/dc/dcmitype/StillImage" />
        <dc:title></dc:title>
      </cc:Work>
    </rdf:RDF>
  </metadata>
  <g
     id="g875"
     inkscape:label="#caffeine">
    <rect
       inkscape:label="#boundary"
       y="0"
       x="0"
       height="48"
       width="48.149998"
       id="rect4264"
       style="fill:none;fill-opacity:0.74651441;stroke-width:23.61599922;stroke-opacity:0.3596773" />
    <path
       inkscape:label="#"
       id="rect4820"
       d="m 41.095703,8.4003906 -0.115234,0.017578 -1.869141,4.0351564 2.548828,-0.392578 z m -4.798828,0.7402344 -4.685547,0.7226562 -1.867187,4.0351568 4.683593,-0.722657 z m -9.369141,1.445313 -4.68164,0.720703 -1.867188,4.037109 4.683594,-0.722656 z m -9.365234,1.443359 -4.257812,0.658203 -1.869141,4.035156 4.259765,-0.658203 z m -8.9414062,1.378906 -2.546875,0.392578 0.5644531,3.66211 0.1132812,-0.01758 z m -1.9824219,4.054688 v 3.703125 18.433593 H 42.070312 V 21.166016 h 0.0039 v -3.703125 h -2.580078 l 2.46289,3.703125 H 37.21875 l -2.462891,-3.703125 h -4.738281 l 2.460938,3.703125 h -4.738282 l -2.460937,-3.703125 h -4.738281 l 2.460937,3.703125 h -4.738281 l -2.460938,-3.703125 h -4.310546 l 2.46289,3.703125 H 9.2167969 L 6.7539062,17.462891 Z m 10.6328121,7.679687 h 15.425782 c 0.310835,0 0.560546,0.253628 0.560546,0.564453 v 0.06445 0.619141 c 0,0.08616 -0.02614,0.165461 -0.06055,0.238281 -0.272745,2.618382 -1.77039,4.973548 -4.080078,6.306641 -2.559543,1.478199 -5.713896,1.478199 -8.273438,0 -0.782342,-0.456479 -1.484407,-1.038599 -2.078125,-1.722656 h -2.103516 c -0.97138,0 -1.769531,-0.798153 -1.769531,-1.769532 v -0.169921 c 0,-0.97138 0.798151,-1.783204 1.769531,-1.783204 h 0.240235 c -0.06343,-0.289885 -0.110648,-0.580379 -0.142578,-0.875 -0.03057,-0.06939 -0.04883,-0.143649 -0.04883,-0.224609 v -0.619141 -0.06445 c -1e-6,-0.310831 0.249721,-0.564453 0.560546,-0.564453 z m -0.609375,3.59375 c -0.304404,0 -0.523437,0.232703 -0.523437,0.53711 v 0.169921 c 0,0.304403 0.219029,0.523438 0.523437,0.523438 h 1.199219 c -0.231245,-0.393511 -0.430473,-0.804249 -0.59375,-1.230469 z m 2.179688,5.921875 h 12.708984 c 0.31083,0 0.560547,0.251671 0.560547,0.5625 0,0.310832 -0.249714,0.560547 -0.560547,0.560547 H 18.841797 c -0.310831,0 -0.560547,-0.249713 -0.560547,-0.560547 0,-0.310831 0.249714,-0.5625 0.560547,-0.5625 z"
       style="opacity:0.6;fill:#ffffff;stroke-width:0.96090508"
       inkscape:connector-curvature="0" />
  </g>
</svg>
