<?xml version="1.0" encoding="UTF-8" standalone="no"?>
<!-- Created with Inkscape (http://www.inkscape.org/) -->

<svg
   xmlns:dc="http://purl.org/dc/elements/1.1/"
   xmlns:cc="http://creativecommons.org/ns#"
   xmlns:rdf="http://www.w3.org/1999/02/22-rdf-syntax-ns#"
   xmlns:svg="http://www.w3.org/2000/svg"
   xmlns="http://www.w3.org/2000/svg"
   xmlns:sodipodi="http://sodipodi.sourceforge.net/DTD/sodipodi-0.dtd"
   xmlns:inkscape="http://www.inkscape.org/namespaces/inkscape"
   width="48.149998"
   height="48"
   viewBox="0 0 48.149998 48"
   version="1.1"
   id="svg8"
   inkscape:version="0.92+devel (f96dc7e339, 2017-07-28, custom)"
   sodipodi:docname="karbon.svg">
  <defs
     id="ol-defs">
    <style
       id="current-color-scheme">      .ColorScheme-Text {
        color:#d0d0d0;
        stop-color:#d0d0d0;
      }
      .ColorScheme-Background {
        color:#212121;
        stop-color:#212121;
      }
      .ColorScheme-Highlight {
        color:#0039a9;
        stop-color:#0039a9;
      }
      .ColorScheme-ViewText {
        color:#d0d0d0;
        stop-color:#d0d0d0;
      }
      .ColorScheme-ViewBackground {
        color:#19191b;
        stop-color:#19191b;
      }
      .ColorScheme-ViewHover {
        color:#005cc7;
        stop-color:#005cc7;
      }
      .ColorScheme-ViewFocus{
        color:#002466;
        stop-color:#002466;
      }
      .ColorScheme-ButtonText {
        color:#d0d0d0;
        stop-color:#d0d0d0;
      }
      .ColorScheme-ButtonBackground {
        color:#232323;
        stop-color:#232323;                             
      }                                                 
      .ColorScheme-ButtonHover {                        
        color:#005cc7;                                  
        stop-color:#005cc7;                             
      }                                                 
      .ColorScheme-ButtonFocus{                         
        color:#0039a9;                                  
        stop-color:#0039a9;                             
      }</style>
    <style
       id="current-color-scheme-7">      .ColorScheme-Text {
        color:#d0d0d0;
        stop-color:#d0d0d0;
      }
      .ColorScheme-Background {
        color:#212121;
        stop-color:#212121;
      }
      .ColorScheme-Highlight {
        color:#0039a9;
        stop-color:#0039a9;
      }
      .ColorScheme-ViewText {
        color:#d0d0d0;
        stop-color:#d0d0d0;
      }
      .ColorScheme-ViewBackground {
        color:#19191b;
        stop-color:#19191b;
      }
      .ColorScheme-ViewHover {
        color:#005cc7;
        stop-color:#005cc7;
      }
      .ColorScheme-ViewFocus{
        color:#002466;
        stop-color:#002466;
      }
      .ColorScheme-ButtonText {
        color:#d0d0d0;
        stop-color:#d0d0d0;
      }
      .ColorScheme-ButtonBackground {
        color:#232323;
        stop-color:#232323;                             
      }                                                 
      .ColorScheme-ButtonHover {                        
        color:#005cc7;                                  
        stop-color:#005cc7;                             
      }                                                 
      .ColorScheme-ButtonFocus{                         
        color:#0039a9;                                  
        stop-color:#0039a9;                             
      }</style>
  </defs>
  <sodipodi:namedview
     id="base"
     pagecolor="#002266"
     bordercolor="#ffffff"
     borderopacity="0.46666667"
     inkscape:pageopacity="0"
     inkscape:pageshadow="2"
     inkscape:zoom="10.252014"
     inkscape:cx="46.548779"
     inkscape:cy="16.624814"
     inkscape:document-units="px"
     inkscape:current-layer="svg8"
     inkscape:document-rotation="0"
     showgrid="false"
     inkscape:showpageshadow="false"
     borderlayer="true"
     units="px"
     fit-margin-top="0"
     fit-margin-left="0"
     fit-margin-right="0"
     fit-margin-bottom="0"
     inkscape:window-width="1920"
     inkscape:window-height="1051"
     inkscape:window-x="0"
     inkscape:window-y="0"
     inkscape:window-maximized="1"
     inkscape:snap-page="true" />
  <metadata
     id="metadata5">
    <rdf:RDF>
      <cc:Work
         rdf:about="">
        <dc:format>image/svg+xml</dc:format>
        <dc:type
           rdf:resource="http://purl.org/dc/dcmitype/StillImage" />
        <dc:title />
      </cc:Work>
    </rdf:RDF>
  </metadata>
  <rect
     style="fill:none;fill-opacity:0.74651441;stroke-width:23.61599922;stroke-opacity:0.3596773"
     id="rect4264"
     width="48.149998"
     height="48"
     x="0"
     y="0"
     inkscape:label="#boundary" />
  <path
     style="opacity:0.6;fill:#d0d0d0;stroke-width:1"
     d="M 24.074219 6 A 18.000001 18.000001 0 0 0 11.152344 11.498047 A 1.8000001 1.8000001 0 0 1 12.191406 12.416016 C 15.528549 12.743596 18.520842 13.641022 20.892578 14.683594 C 21.012394 14.72819 21.136684 14.766808 21.253906 14.814453 C 21.256206 14.815443 21.257466 14.817359 21.259766 14.818359 C 21.357446 14.858159 21.448997 14.903838 21.544922 14.945312 C 21.784937 15.04906 22.020431 15.156604 22.248047 15.271484 C 22.375521 15.335774 22.499986 15.402799 22.623047 15.470703 C 22.828893 15.584383 23.024659 15.705869 23.216797 15.830078 C 23.314407 15.893088 23.416044 15.951808 23.509766 16.017578 C 23.513561 16.019847 23.517696 16.023122 23.521484 16.025391 C 23.524531 16.027541 23.526255 16.031049 23.529297 16.033203 C 23.77845 16.209642 24.013852 16.396618 24.232422 16.59375 C 24.603721 16.928116 24.929811 17.29319 25.195312 17.691406 C 25.199912 17.698306 25.206338 17.704057 25.210938 17.710938 A 2.2500001 2.2500001 0 0 1 25.425781 17.699219 A 2.2500001 2.2500001 0 0 1 27.675781 19.949219 A 2.2500001 2.2500001 0 0 1 25.806641 22.166016 C 25.549612 23.019492 25.06724 23.894185 24.304688 24.779297 C 23.74176 25.351214 23.219474 26.048628 22.900391 26.777344 A 2.7000001 2.7000001 0 0 1 24.974609 29.400391 A 2.7000001 2.7000001 0 0 1 24.646484 30.685547 C 26.429075 31.551307 29.435953 32.249983 33.253906 32.798828 A 3.6000001 3.6000001 0 0 1 36.675781 30.300781 A 3.6000001 3.6000001 0 0 1 39.962891 32.441406 A 18.000001 18.000001 0 0 0 42.074219 24 A 18.000001 18.000001 0 0 0 24.074219 6 z M 9.0429688 14.138672 C 9.0056787 14.195562 8.9741042 14.255234 8.9375 14.3125 A 18.000001 18.000001 0 0 1 9.0488281 14.150391 A 1.8000001 1.8000001 0 0 1 9.0429688 14.138672 z M 7.0214844 18.285156 A 18.000001 18.000001 0 0 0 6.7265625 19.271484 C 6.8175805 18.940077 6.9117011 18.610652 7.0214844 18.285156 z M 6.5683594 19.892578 A 18.000001 18.000001 0 0 0 6.375 20.804688 C 6.430845 20.498826 6.4968583 20.194655 6.5683594 19.892578 z M 6.2539062 21.613281 A 18.000001 18.000001 0 0 0 6.15625 22.382812 C 6.180052 22.124471 6.2190362 21.869751 6.2539062 21.613281 z M 6.1171875 25.179688 A 18.000001 18.000001 0 0 0 6.1308594 25.359375 C 6.1263994 25.299595 6.1210735 25.239673 6.1171875 25.179688 z M 6.3339844 27.023438 A 18.000001 18.000001 0 0 0 6.3476562 27.101562 C 6.3430662 27.075112 6.3384704 27.049887 6.3339844 27.023438 z M 6.6308594 28.369141 A 18.000001 18.000001 0 0 0 6.7929688 29.005859 C 6.7322167 28.795752 6.6840881 28.582344 6.6308594 28.369141 z M 7.1640625 30.123047 A 18.000001 18.000001 0 0 0 7.3730469 30.693359 C 7.2977786 30.505686 7.2331314 30.313782 7.1640625 30.123047 z M 7.8496094 31.759766 A 18.000001 18.000001 0 0 0 8.1191406 32.316406 C 8.0238344 32.133886 7.9387732 31.945901 7.8496094 31.759766 z M 8.6738281 33.285156 A 18.000001 18.000001 0 0 0 9.0273438 33.867188 C 8.902887 33.677754 8.7912343 33.479488 8.6738281 33.285156 z M 9.6816406 34.779297 A 18.000001 18.000001 0 0 0 10.058594 35.283203 C 9.9270794 35.120021 9.8075014 34.947097 9.6816406 34.779297 z M 10.828125 36.160156 A 18.000001 18.000001 0 0 0 11.240234 36.613281 C 11.096877 36.467438 10.966481 36.310795 10.828125 36.160156 z M 12.087891 37.404297 A 18.000001 18.000001 0 0 0 12.541016 37.814453 C 12.384168 37.68339 12.240139 37.54053 12.087891 37.404297 z M 35.335938 38.037109 C 35.304477 38.062369 35.273788 38.088191 35.242188 38.113281 A 18.000001 18.000001 0 0 0 35.335938 38.037109 z M 13.667969 38.669922 A 18.000001 18.000001 0 0 0 13.931641 38.867188 C 13.841021 38.805278 13.75739 38.733463 13.667969 38.669922 z M 33.980469 39.019531 C 33.872988 39.090451 33.765186 39.161919 33.65625 39.230469 A 18.000001 18.000001 0 0 0 33.980469 39.019531 z M 32.339844 39.984375 C 32.248074 40.031825 32.15509 40.075196 32.0625 40.121094 A 18.000001 18.000001 0 0 0 32.339844 39.984375 z M 30.703125 40.728516 C 30.655755 40.747226 30.610001 40.770693 30.5625 40.789062 A 18.000001 18.000001 0 0 0 30.703125 40.728516 z M 29.082031 41.28125 C 28.967942 41.31424 28.853109 41.346103 28.738281 41.376953 A 18.000001 18.000001 0 0 0 29.082031 41.28125 z M 27.21875 41.71875 C 27.13422 41.73372 27.047727 41.745816 26.962891 41.759766 A 18.000001 18.000001 0 0 0 27.21875 41.71875 z M 25.490234 41.9375 C 25.418544 41.9433 25.347215 41.952271 25.275391 41.957031 A 18.000001 18.000001 0 0 0 25.490234 41.9375 z "
     id="circle35" />
  <path
     style="opacity:0.3;fill:#d0d0d0;fill-rule:evenodd;stroke-width:1"
     d="M 12.365234 13.367188 A 1.8000001 1.8000001 0 0 1 10.574219 15 A 1.8000001 1.8000001 0 0 1 9.0429688 14.138672 C 7.1205025 17.058571 6.0805461 20.483603 6.0742188 24 C 6.0742188 33.945 14.132819 42 24.074219 42 C 28.536071 41.999326 32.781145 40.34276 36.039062 37.443359 A 3.6000001 3.6000001 0 0 1 33.232422 34.958984 C 33.022195 34.918081 32.793359 34.860762 32.578125 34.816406 C 29.050412 34.154234 25.617639 33.25599 23.292969 31.898438 A 2.7000001 2.7000001 0 0 1 22.275391 32.099609 A 2.7000001 2.7000001 0 0 1 19.574219 29.400391 A 2.7000001 2.7000001 0 0 1 20.875 27.097656 C 21.302526 25.988767 22.185006 24.864514 23.203125 23.779297 C 23.719367 23.251138 24.128429 22.622175 24.40625 21.951172 A 2.2500001 2.2500001 0 0 1 23.175781 19.949219 A 2.2500001 2.2500001 0 0 1 24.15625 18.097656 C 23.822342 17.574225 23.352292 17.077387 22.703125 16.634766 C 20.5369 15.337636 16.879402 13.988308 12.365234 13.367188 z M 21.269531 14.822266 C 21.353551 14.856536 21.432873 14.896124 21.515625 14.931641 C 21.432715 14.896011 21.353779 14.856673 21.269531 14.822266 z M 22.25 15.273438 C 22.378018 15.338067 22.503382 15.406297 22.626953 15.474609 C 22.503186 15.406239 22.378239 15.338145 22.25 15.273438 z "
     id="path39" />
</svg>
