<?xml version="1.0" encoding="UTF-8" standalone="no"?>
<!-- Created with Inkscape (http://www.inkscape.org/) -->

<svg
   xmlns:dc="http://purl.org/dc/elements/1.1/"
   xmlns:cc="http://creativecommons.org/ns#"
   xmlns:rdf="http://www.w3.org/1999/02/22-rdf-syntax-ns#"
   xmlns:svg="http://www.w3.org/2000/svg"
   xmlns="http://www.w3.org/2000/svg"
   xmlns:sodipodi="http://sodipodi.sourceforge.net/DTD/sodipodi-0.dtd"
   xmlns:inkscape="http://www.inkscape.org/namespaces/inkscape"
   width="48.149998"
   height="48"
   viewBox="0 0 48.149998 48"
   version="1.1"
   id="svg8"
   inkscape:version="0.92+devel (f96dc7e339, 2017-07-28, custom)"
   sodipodi:docname="katomic.svg">
  <defs
     id="ol-defs">
    <style
       id="current-color-scheme">      .ColorScheme-Text {
        color:#d0d0d0;
        stop-color:#d0d0d0;
      }
      .ColorScheme-Background {
        color:#212121;
        stop-color:#212121;
      }
      .ColorScheme-Highlight {
        color:#0039a9;
        stop-color:#0039a9;
      }
      .ColorScheme-ViewText {
        color:#d0d0d0;
        stop-color:#d0d0d0;
      }
      .ColorScheme-ViewBackground {
        color:#19191b;
        stop-color:#19191b;
      }
      .ColorScheme-ViewHover {
        color:#005cc7;
        stop-color:#005cc7;
      }
      .ColorScheme-ViewFocus{
        color:#002466;
        stop-color:#002466;
      }
      .ColorScheme-ButtonText {
        color:#d0d0d0;
        stop-color:#d0d0d0;
      }
      .ColorScheme-ButtonBackground {
        color:#232323;
        stop-color:#232323;                             
      }                                                 
      .ColorScheme-ButtonHover {                        
        color:#005cc7;                                  
        stop-color:#005cc7;                             
      }                                                 
      .ColorScheme-ButtonFocus{                         
        color:#0039a9;                                  
        stop-color:#0039a9;                             
      }</style>
    <style
       id="current-color-scheme-7">      .ColorScheme-Text {
        color:#d0d0d0;
        stop-color:#d0d0d0;
      }
      .ColorScheme-Background {
        color:#212121;
        stop-color:#212121;
      }
      .ColorScheme-Highlight {
        color:#0039a9;
        stop-color:#0039a9;
      }
      .ColorScheme-ViewText {
        color:#d0d0d0;
        stop-color:#d0d0d0;
      }
      .ColorScheme-ViewBackground {
        color:#19191b;
        stop-color:#19191b;
      }
      .ColorScheme-ViewHover {
        color:#005cc7;
        stop-color:#005cc7;
      }
      .ColorScheme-ViewFocus{
        color:#002466;
        stop-color:#002466;
      }
      .ColorScheme-ButtonText {
        color:#d0d0d0;
        stop-color:#d0d0d0;
      }
      .ColorScheme-ButtonBackground {
        color:#232323;
        stop-color:#232323;                             
      }                                                 
      .ColorScheme-ButtonHover {                        
        color:#005cc7;                                  
        stop-color:#005cc7;                             
      }                                                 
      .ColorScheme-ButtonFocus{                         
        color:#0039a9;                                  
        stop-color:#0039a9;                             
      }</style>
  </defs>
  <sodipodi:namedview
     id="base"
     pagecolor="#002266"
     bordercolor="#ffffff"
     borderopacity="0.46666667"
     inkscape:pageopacity="0"
     inkscape:pageshadow="2"
     inkscape:zoom="12.859375"
     inkscape:cx="31.6838"
     inkscape:cy="27.406602"
     inkscape:document-units="px"
     inkscape:current-layer="svg8"
     inkscape:document-rotation="0"
     showgrid="false"
     inkscape:showpageshadow="false"
     borderlayer="true"
     units="px"
     fit-margin-top="0"
     fit-margin-left="0"
     fit-margin-right="0"
     fit-margin-bottom="0"
     inkscape:window-width="1920"
     inkscape:window-height="1051"
     inkscape:window-x="0"
     inkscape:window-y="0"
     inkscape:window-maximized="1"
     inkscape:snap-page="true" />
  <metadata
     id="metadata5">
    <rdf:RDF>
      <cc:Work
         rdf:about="">
        <dc:format>image/svg+xml</dc:format>
        <dc:type
           rdf:resource="http://purl.org/dc/dcmitype/StillImage" />
        <dc:title></dc:title>
      </cc:Work>
    </rdf:RDF>
  </metadata>
  <rect
     style="fill:none;fill-opacity:0.74651441;stroke-width:23.61599922;stroke-opacity:0.3596773"
     id="rect4264"
     width="48.149998"
     height="48"
     x="0"
     y="0"
     inkscape:label="#boundary" />
  <g
     id="g841"
     transform="matrix(8.7192833,0,0,8.7192833,5.0762323,5.5441838)"
     style="stroke-width:0.43346769"
     inkscape:label="#katomic">
    <path
       id="path811"
       transform="scale(0.26458333)"
       d="M 8.2363281,0 A 2.8910941,8.0000002 0 0 0 5.7851562,3.7578125 8,2.8910941 30 0 0 1.3085938,4 8,2.8910941 30 0 0 3.3359375,7.9980469 2.8910941,8 60 0 0 1.3066406,12 2.8910941,8 60 0 0 5.7871094,12.240234 2.8910941,8.0000002 0 0 0 8.2363281,16 2.8910941,8.0000002 0 0 0 10.685547,12.240234 8,2.8910941 30 0 0 15.164062,12 8,2.8910941 30 0 0 13.134766,7.9980469 2.8910941,8 60 0 0 15.162109,4 2.8910941,8 60 0 0 10.683594,3.7597656 2.8910941,8.0000002 0 0 0 8.2363281,0 Z m 0,0.90625 A 2.5810107,7.0939959 0 0 1 10.330078,3.8710938 2.8910941,8 60 0 0 8.234375,4.734375 8,2.8910941 30 0 0 6.1386719,3.8710938 2.5810107,7.0939959 0 0 1 8.2363281,0.90625 Z M 3.8945312,3.8105469 A 7.0939958,2.5810108 30 0 1 5.7089844,4.1210938 2.8910941,8.0000002 0 0 0 5.4082031,6.3671875 2.8910941,8 60 0 0 3.6132812,7.7519531 7.0939958,2.5810108 30 0 1 2.0917969,4.453125 7.0939958,2.5810108 30 0 1 3.8945312,3.8105469 Z m 8.6816408,0 A 2.5810108,7.0939958 60 0 1 14.378906,4.453125 2.5810108,7.0939958 60 0 1 12.857422,7.7519531 8,2.8910941 30 0 0 11.064453,6.3691406 2.8910941,8.0000002 0 0 0 10.763672,4.1210938 2.5810108,7.0939958 60 0 1 12.576172,3.8105469 Z M 10.417969,4.21875 A 2.5810107,7.0939959 0 0 1 10.724609,6.140625 8,2.8910941 30 0 0 9.6816406,5.4960938 8,2.8910941 30 0 0 8.5976562,4.9140625 2.5810108,7.0939958 60 0 1 10.417969,4.21875 Z M 6.0546875,4.2207 A 7.0939958,2.5810108 30 0 1 7.8730469,4.9140625 2.8910941,8 60 0 0 6.7890625,5.4960938 2.8910941,8 60 0 0 5.7480469,6.1386719 2.5810107,7.0939959 0 0 1 6.0546875,4.2207031 Z M 8.234375,5.0859375 A 7.0939958,2.5810108 30 0 1 9.5253906,5.765625 7.0939958,2.5810108 30 0 1 10.757812,6.5410156 2.5810107,7.0939959 0 0 1 10.816406,8 2.5810107,7.0939959 0 0 1 10.761719,9.4570312 2.5810108,7.0939958 60 0 1 9.5253906,10.234375 2.5810108,7.0939958 60 0 1 8.234375,10.914062 7.0939958,2.5810108 30 0 1 6.9453125,10.234375 7.0939958,2.5810108 30 0 1 5.7128906,9.4589844 2.5810107,7.0939959 0 0 1 5.6542969,8 2.5810107,7.0939959 0 0 1 5.7089844,6.5429688 2.5810108,7.0939958 60 0 1 6.9453125,5.765625 2.5810108,7.0939958 60 0 1 8.234375,5.0859375 Z M 5.3808594,6.7753906 A 2.8910941,8.0000002 0 0 0 5.34375,8 2.8910941,8.0000002 0 0 0 5.3808594,9.2246094 7.0939958,2.5810108 30 0 1 3.8730469,8 2.5810108,7.0939958 60 0 1 5.3808594,6.7753906 Z m 5.7089846,0 A 7.0939958,2.5810108 30 0 1 12.597656,8 2.5810108,7.0939958 60 0 1 11.091797,9.2226562 2.8910941,8.0000002 0 0 0 11.126953,8 2.8910941,8.0000002 0 0 0 11.089844,6.7753906 Z M 3.6132812,8.2480469 A 8,2.8910941 30 0 0 5.40625,9.6308594 2.8910941,8.0000002 0 0 0 5.7070312,11.878906 2.5810108,7.0939958 60 0 1 2.0917969,11.546875 2.5810108,7.0939958 60 0 1 3.6132812,8.2480469 Z m 9.2441408,0 a 7.0939958,2.5810108 30 0 1 1.521484,3.2988281 7.0939958,2.5810108 30 0 1 -3.61914,0.332031 A 2.8910941,8.0000002 0 0 0 11.0625,9.6308594 2.8910941,8 60 0 0 12.857422,8.2480469 Z M 5.7441406,9.859375 A 8,2.8910941 30 0 0 6.7890625,10.503906 8,2.8910941 30 0 0 7.8730469,11.085938 2.5810108,7.0939958 60 0 1 6.0527344,11.78125 2.5810107,7.0939959 0 0 1 5.7441406,9.859375 Z m 4.9785154,0.00195 A 2.5810107,7.0939959 0 0 1 10.416016,11.78125 7.0939958,2.5810108 30 0 1 8.5976562,11.085938 2.8910941,8 60 0 0 9.6816406,10.503906 2.8910941,8 60 0 0 10.722656,9.8613281 Z m -2.488281,1.4043 a 8,2.8910941 30 0 0 2.097656,0.863281 2.5810107,7.0939959 0 0 1 -2.0957029,2.964844 2.5810107,7.0939959 0 0 1 -2.0957031,-2.964844 2.8910941,8 60 0 0 2.09375,-0.863281 z"
       style="font-variation-settings:normal;opacity:0.5;vector-effect:none;fill:#d0d0d0;stroke-width:1.31644154;stroke-linecap:square"
       inkscape:connector-curvature="0"
       inkscape:label="#" />
    <path
       inkscape:connector-curvature="0"
       id="path828"
       d="M 2.1697562,1.5413224 A 0.28967027,0.28967027 0 0 0 1.8801669,1.8309117 0.28967027,0.28967027 0 0 0 1.9081917,1.9547743 0.28967027,0.28967027 0 0 0 1.6417833,2.2436716 0.28967027,0.28967027 0 0 0 1.9317186,2.5332608 0.28967027,0.28967027 0 0 0 2.1697562,2.4080144 0.28967027,0.28967027 0 0 0 2.4077937,2.5332608 0.28967027,0.28967027 0 0 0 2.6973831,2.2436716 0.28967027,0.28967027 0 0 0 2.4309747,1.9551203 0.28967027,0.28967027 0 0 0 2.4593455,1.8309117 0.28967027,0.28967027 0 0 0 2.1697562,1.5413224 Z"
       style="font-variation-settings:normal;opacity:0.75;vector-effect:none;fill:#d0d0d0;stroke-width:0.34830847;stroke-linecap:square"
       inkscape:label="#" />
  </g>
</svg>
