<?xml version="1.0" encoding="UTF-8" standalone="no"?>
<!-- Created with Inkscape (http://www.inkscape.org/) -->

<svg
   xmlns:dc="http://purl.org/dc/elements/1.1/"
   xmlns:cc="http://creativecommons.org/ns#"
   xmlns:rdf="http://www.w3.org/1999/02/22-rdf-syntax-ns#"
   xmlns:svg="http://www.w3.org/2000/svg"
   xmlns="http://www.w3.org/2000/svg"
   xmlns:sodipodi="http://sodipodi.sourceforge.net/DTD/sodipodi-0.dtd"
   xmlns:inkscape="http://www.inkscape.org/namespaces/inkscape"
   width="48.149998"
   height="48"
   viewBox="0 0 48.149998 48"
   version="1.1"
   id="svg8"
   inkscape:version="0.92+devel (f96dc7e339, 2017-07-28, custom)"
   sodipodi:docname="kblocks.svg">
  <defs
     id="ol-defs">
    <style
       id="current-color-scheme">      .ColorScheme-Text {
        color:#d0d0d0;
        stop-color:#d0d0d0;
      }
      .ColorScheme-Background {
        color:#212121;
        stop-color:#212121;
      }
      .ColorScheme-Highlight {
        color:#0039a9;
        stop-color:#0039a9;
      }
      .ColorScheme-ViewText {
        color:#d0d0d0;
        stop-color:#d0d0d0;
      }
      .ColorScheme-ViewBackground {
        color:#19191b;
        stop-color:#19191b;
      }
      .ColorScheme-ViewHover {
        color:#005cc7;
        stop-color:#005cc7;
      }
      .ColorScheme-ViewFocus{
        color:#002466;
        stop-color:#002466;
      }
      .ColorScheme-ButtonText {
        color:#d0d0d0;
        stop-color:#d0d0d0;
      }
      .ColorScheme-ButtonBackground {
        color:#232323;
        stop-color:#232323;                             
      }                                                 
      .ColorScheme-ButtonHover {                        
        color:#005cc7;                                  
        stop-color:#005cc7;                             
      }                                                 
      .ColorScheme-ButtonFocus{                         
        color:#0039a9;                                  
        stop-color:#0039a9;                             
      }</style>
    <style
       id="current-color-scheme-7">      .ColorScheme-Text {
        color:#d0d0d0;
        stop-color:#d0d0d0;
      }
      .ColorScheme-Background {
        color:#212121;
        stop-color:#212121;
      }
      .ColorScheme-Highlight {
        color:#0039a9;
        stop-color:#0039a9;
      }
      .ColorScheme-ViewText {
        color:#d0d0d0;
        stop-color:#d0d0d0;
      }
      .ColorScheme-ViewBackground {
        color:#19191b;
        stop-color:#19191b;
      }
      .ColorScheme-ViewHover {
        color:#005cc7;
        stop-color:#005cc7;
      }
      .ColorScheme-ViewFocus{
        color:#002466;
        stop-color:#002466;
      }
      .ColorScheme-ButtonText {
        color:#d0d0d0;
        stop-color:#d0d0d0;
      }
      .ColorScheme-ButtonBackground {
        color:#232323;
        stop-color:#232323;                             
      }                                                 
      .ColorScheme-ButtonHover {                        
        color:#005cc7;                                  
        stop-color:#005cc7;                             
      }                                                 
      .ColorScheme-ButtonFocus{                         
        color:#0039a9;                                  
        stop-color:#0039a9;                             
      }</style>
  </defs>
  <sodipodi:namedview
     id="base"
     pagecolor="#002266"
     bordercolor="#ffffff"
     borderopacity="0.46666667"
     inkscape:pageopacity="0"
     inkscape:pageshadow="2"
     inkscape:zoom="12.859375"
     inkscape:cx="31.6838"
     inkscape:cy="27.406602"
     inkscape:document-units="px"
     inkscape:current-layer="svg8"
     inkscape:document-rotation="0"
     showgrid="false"
     inkscape:showpageshadow="false"
     borderlayer="true"
     units="px"
     fit-margin-top="0"
     fit-margin-left="0"
     fit-margin-right="0"
     fit-margin-bottom="0"
     inkscape:window-width="1920"
     inkscape:window-height="1051"
     inkscape:window-x="0"
     inkscape:window-y="0"
     inkscape:window-maximized="1"
     inkscape:snap-page="true" />
  <metadata
     id="metadata5">
    <rdf:RDF>
      <cc:Work
         rdf:about="">
        <dc:format>image/svg+xml</dc:format>
        <dc:type
           rdf:resource="http://purl.org/dc/dcmitype/StillImage" />
        <dc:title></dc:title>
      </cc:Work>
    </rdf:RDF>
  </metadata>
  <g
     id="g852"
     inkscape:label="#kblocks">
    <rect
       inkscape:label="#boundary"
       y="0"
       x="0"
       height="48"
       width="48.149998"
       id="rect4264"
       style="fill:none;fill-opacity:0.74651441;stroke-width:23.61599922;stroke-opacity:0.3596773" />
    <path
       inkscape:label="#"
       inkscape:connector-curvature="0"
       id="rect823"
       d="m 25.582338,6 c -0.5213,4.7e-6 -0.944505,0.423098 -0.944505,0.9442865 v 6.2676345 c 0,0.521174 0.423198,0.938768 0.944505,0.938768 h 6.26907 c 0.521299,0 0.938983,-0.417571 0.938983,-0.938768 V 6.9442865 C 32.790391,6.4231091 32.37272,6 31.851408,6 Z m 0,9.282725 c -0.5213,4e-6 -0.944505,0.417569 -0.944505,0.938768 v 6.273157 c 0,0.521172 0.423198,0.938767 0.944505,0.938767 h 6.26907 c 0.521299,0 0.938983,-0.417568 0.938983,-0.938767 v -6.273162 c 0,-0.521172 -0.417671,-0.938768 -0.938983,-0.938768 z m 9.279329,0 c -0.5213,4e-6 -0.938984,0.417569 -0.938984,0.938768 v 6.273157 c 0,0.521172 0.417671,0.938767 0.938984,0.938767 h 6.274594 c 0.5213,0 0.938984,-0.417568 0.938984,-0.938767 v -6.273162 c 0,-0.521172 -0.417671,-0.938768 -0.938984,-0.938768 z m 0,9.282724 c -0.5213,3e-6 -0.938984,0.417569 -0.938984,0.938768 v 6.267633 c 0,0.521172 0.417671,0.94429 0.938984,0.94429 h 6.274594 c 0.5213,0 0.938984,-0.423105 0.938984,-0.94429 v -6.267635 c 0,-0.521172 -0.417671,-0.938767 -0.938984,-0.938767 z"
       style="font-variation-settings:normal;vector-effect:none;fill:#d0d0d0;stroke-width:0.30000001;stroke-linecap:square" />
    <path
       inkscape:label="#"
       inkscape:connector-curvature="0"
       id="rect841"
       d="m 16.295936,6.0011413 c -0.521309,0 -0.938984,0.4175781 -0.938984,0.9387645 v 6.2676332 c 0,0.521185 0.417671,0.94429 0.938984,0.94429 h 6.269071 c 0.521309,0 0.938972,-0.423105 0.938972,-0.94429 V 6.9399055 c 0,-0.5211851 -0.417671,-0.9387645 -0.938972,-0.9387645 z m -0.0055,9.3489887 c -0.521308,0 -0.938983,0.423105 -0.938983,0.94429 v 6.267634 c 0,0.521189 0.41767,0.938768 0.938983,0.938768 h 6.274595 c 0.521308,0 0.938983,-0.417569 0.938983,-0.938768 v -6.267637 c 0,-0.521189 -0.41767,-0.94429 -0.938983,-0.94429 z m 0.0055,9.216457 c -0.521309,0 -0.938984,0.417586 -0.938984,0.938768 v 6.267631 c 0,0.521189 0.417671,0.94429 0.938984,0.94429 h 6.269071 c 0.521309,0 0.938972,-0.423105 0.938972,-0.94429 v -6.267634 c 0,-0.52119 -0.417671,-0.938768 -0.938972,-0.938768 z m 9.284851,9.282722 c -0.521308,0 -0.944505,0.417569 -0.944505,0.938768 v 6.267633 c 0,0.521181 0.423199,0.94429 0.944505,0.94429 h 6.269073 c 0.521308,0 0.938983,-0.423105 0.938983,-0.94429 v -6.267634 c 0,-0.521173 -0.41767,-0.938768 -0.938983,-0.938768 z"
       style="font-variation-settings:normal;opacity:0.17021275;vector-effect:none;fill:#d0d0d0;stroke-width:0.30000001;stroke-linecap:square" />
    <path
       inkscape:label="#"
       inkscape:connector-curvature="0"
       id="rect815"
       d="m 7.0137332,15.286784 c -0.5213049,5e-6 -0.9389801,0.417585 -0.9389801,0.938768 v 6.267632 c 0,0.521172 0.4176735,0.94429 0.9389801,0.94429 h 6.2690708 c 0.521309,0 0.944505,-0.423105 0.944505,-0.94429 v -6.267635 c 0,-0.521173 -0.423198,-0.938769 -0.944505,-0.938769 z m 0,9.277201 c -0.5213049,5e-6 -0.9389801,0.423105 -0.9389801,0.94429 v 6.267633 c 0,0.521172 0.4176735,0.938767 0.9389801,0.938767 h 6.2690708 c 0.521309,0 0.944505,-0.417585 0.944505,-0.938767 v -6.267636 c 0,-0.521173 -0.423198,-0.94429 -0.944505,-0.94429 z m 0,9.282723 c -0.5213049,5e-6 -0.9389801,0.417568 -0.9389801,0.938768 v 6.273156 c 0,0.521172 0.4176735,0.938767 0.9389801,0.938767 h 6.2690708 c 0.521309,0 0.944505,-0.417568 0.944505,-0.938767 v -6.273159 c 0,-0.521172 -0.423198,-0.938767 -0.944505,-0.938767 z m 9.2848528,0 c -0.521308,5e-6 -0.938983,0.417568 -0.938983,0.938768 v 6.273156 c 0,0.521172 0.417671,0.938767 0.938983,0.938767 h 6.269072 c 0.521308,0 0.938983,-0.417568 0.938983,-0.938767 v -6.273159 c 0,-0.521172 -0.41767,-0.938767 -0.938983,-0.938767 z"
       style="font-variation-settings:normal;opacity:0.74893619;vector-effect:none;fill:#d0d0d0;stroke-width:0.30000001;stroke-linecap:square" />
  </g>
</svg>
