<?xml version="1.0" encoding="UTF-8" standalone="no"?>
<!-- Created with Inkscape (http://www.inkscape.org/) -->

<svg
   xmlns:dc="http://purl.org/dc/elements/1.1/"
   xmlns:cc="http://creativecommons.org/ns#"
   xmlns:rdf="http://www.w3.org/1999/02/22-rdf-syntax-ns#"
   xmlns:svg="http://www.w3.org/2000/svg"
   xmlns="http://www.w3.org/2000/svg"
   xmlns:sodipodi="http://sodipodi.sourceforge.net/DTD/sodipodi-0.dtd"
   xmlns:inkscape="http://www.inkscape.org/namespaces/inkscape"
   width="48.149998"
   height="48"
   viewBox="0 0 48.149998 48"
   version="1.1"
   id="svg8"
   inkscape:version="0.92+devel (4546dc857e, 2017-07-25, custom)"
   sodipodi:docname="kblogger.svg">
  <defs
     id="ol-defs">
    <style
       id="current-color-scheme">      .ColorScheme-Text {
        color:#d0d0d0;
        stop-color:#d0d0d0;
      }
      .ColorScheme-Background {
        color:#212121;
        stop-color:#212121;
      }
      .ColorScheme-Highlight {
        color:#0039a9;
        stop-color:#0039a9;
      }
      .ColorScheme-ViewText {
        color:#d0d0d0;
        stop-color:#d0d0d0;
      }
      .ColorScheme-ViewBackground {
        color:#19191b;
        stop-color:#19191b;
      }
      .ColorScheme-ViewHover {
        color:#005cc7;
        stop-color:#005cc7;
      }
      .ColorScheme-ViewFocus{
        color:#002466;
        stop-color:#002466;
      }
      .ColorScheme-ButtonText {
        color:#d0d0d0;
        stop-color:#d0d0d0;
      }
      .ColorScheme-ButtonBackground {
        color:#232323;
        stop-color:#232323;                             
      }                                                 
      .ColorScheme-ButtonHover {                        
        color:#005cc7;                                  
        stop-color:#005cc7;                             
      }                                                 
      .ColorScheme-ButtonFocus{                         
        color:#0039a9;                                  
        stop-color:#0039a9;                             
      }</style>
  </defs>
  <sodipodi:namedview
     id="base"
     pagecolor="#002266"
     bordercolor="#ffffff"
     borderopacity="0.46666667"
     inkscape:pageopacity="0"
     inkscape:pageshadow="2"
     inkscape:zoom="12.859375"
     inkscape:cx="31.6838"
     inkscape:cy="21.027627"
     inkscape:document-units="px"
     inkscape:current-layer="svg8"
     inkscape:document-rotation="0"
     showgrid="false"
     inkscape:showpageshadow="false"
     borderlayer="true"
     units="px"
     fit-margin-top="0"
     fit-margin-left="0"
     fit-margin-right="0"
     fit-margin-bottom="0"
     inkscape:window-width="1920"
     inkscape:window-height="1051"
     inkscape:window-x="0"
     inkscape:window-y="0"
     inkscape:window-maximized="1"
     inkscape:snap-page="true"
     inkscape:snap-grids="false" />
  <metadata
     id="metadata5">
    <rdf:RDF>
      <cc:Work
         rdf:about="">
        <dc:format>image/svg+xml</dc:format>
        <dc:type
           rdf:resource="http://purl.org/dc/dcmitype/StillImage" />
        <dc:title></dc:title>
      </cc:Work>
    </rdf:RDF>
  </metadata>
  <g
     id="g847"
     inkscape:label="#kblogger">
    <rect
       inkscape:label="#boundary"
       y="0"
       x="0"
       height="48"
       width="48.149998"
       id="rect4264"
       style="fill:none;fill-opacity:0.74651441;stroke-width:23.61599922;stroke-opacity:0.3596773" />
    <path
       inkscape:label="#1"
       inkscape:connector-curvature="0"
       id="rect816"
       d="M 10.997564,6 C 8.2708312,6 6.0749983,8.202712 6.0749983,10.937988 V 37.062011 C 6.0749983,39.797287 8.2708312,42 10.997564,42 h 26.154869 c 2.726733,0 4.922566,-2.202713 4.922566,-4.937989 V 10.937988 C 42.074999,8.202712 39.879166,6 37.152433,6 Z m 10.091916,4.5 c 0.426843,0.0014 0.897063,0.0055 1.41792,0.01172 2.6556,0.03148 3.448459,0.06795 3.80254,0.175782 1.47904,0.450405 2.773713,1.254357 3.935424,2.441894 1.630665,1.666912 2.455876,3.51405 2.459092,5.503418 0.0016,1.041174 0.168367,1.424642 0.772482,1.779785 0.380852,0.223891 0.516505,0.248043 1.723116,0.301758 0.720072,0.03205 1.39575,0.105125 1.501157,0.162598 0.342555,0.186792 0.643205,0.633789 0.749118,1.116211 0.07306,0.332833 0.09305,1.651363 0.06863,4.466309 -0.03234,3.729648 -0.0469,4.039104 -0.223422,4.674316 -0.42489,1.529057 -1.075838,2.681175 -2.114467,3.745605 -1.435724,1.471389 -2.966678,2.256717 -4.919646,2.523926 -1.122934,0.153674 -12.08723,0.112747 -12.975946,-0.04834 -1.867484,-0.338412 -3.734617,-1.535594 -4.980972,-3.194824 -0.654255,-0.870975 -0.971748,-1.484443 -1.286496,-2.48584 -0.380696,-1.21204 -0.423604,-2.110454 -0.385511,-8.226563 0.03041,-4.881997 0.05524,-5.731924 0.183994,-6.262207 0.68546,-2.823338 2.564287,-5.025352 5.17957,-6.070314 C 17.237292,10.619288 18.101578,10.491059 21.08948,10.5 Z m 0.54614,7.16455 c -2.935737,4e-6 -3.066306,0.01719 -3.535311,0.492187 -0.733808,0.743164 -0.360277,2.180475 0.638138,2.456545 0.189192,0.05227 1.458917,0.08269 3.053421,0.07324 2.582246,-0.01521 2.746403,-0.02541 3.019836,-0.199219 0.509233,-0.323694 0.737435,-0.725983 0.737435,-1.300782 0,-0.636422 -0.243696,-1.036306 -0.803148,-1.319823 -0.387138,-0.196237 -0.474846,-0.20215 -3.110371,-0.20215 z m 2.418205,9.697266 c -5.232296,0.0041 -5.419987,0.01658 -5.845455,0.402832 -0.337538,0.306419 -0.557815,0.911072 -0.492112,1.350585 0.06897,0.461393 0.469503,0.981623 0.898066,1.168946 0.212797,0.09302 1.370062,0.168125 5.458485,0.120117 l 4.652415,-0.05566 0.892224,-0.14502 c 0.868707,-0.493551 1.021686,-1.694937 0.300815,-2.370117 -0.510386,-0.478089 -0.48208,-0.47588 -5.864438,-0.471681 z"
       style="opacity:0.6;fill:#d0d0d0;stroke-width:3.64724374" />
  </g>
</svg>
