<?xml version="1.0" encoding="UTF-8" standalone="no"?>
<!-- Created with Inkscape (http://www.inkscape.org/) -->

<svg
   xmlns:dc="http://purl.org/dc/elements/1.1/"
   xmlns:cc="http://creativecommons.org/ns#"
   xmlns:rdf="http://www.w3.org/1999/02/22-rdf-syntax-ns#"
   xmlns:svg="http://www.w3.org/2000/svg"
   xmlns="http://www.w3.org/2000/svg"
   xmlns:xlink="http://www.w3.org/1999/xlink"
   xmlns:sodipodi="http://sodipodi.sourceforge.net/DTD/sodipodi-0.dtd"
   xmlns:inkscape="http://www.inkscape.org/namespaces/inkscape"
   width="48.149998"
   height="48"
   viewBox="0 0 48.149998 48"
   version="1.1"
   id="svg8"
   inkscape:version="0.92+devel (f96dc7e339, 2017-07-28, custom)"
   sodipodi:docname="kdevelop.svg">
  <defs
     id="ol-defs">
    <style
       id="current-color-scheme">      .ColorScheme-Text {
        color:#d0d0d0;
        stop-color:#d0d0d0;
      }
      .ColorScheme-Background {
        color:#212121;
        stop-color:#212121;
      }
      .ColorScheme-Highlight {
        color:#0039a9;
        stop-color:#0039a9;
      }
      .ColorScheme-ViewText {
        color:#d0d0d0;
        stop-color:#d0d0d0;
      }
      .ColorScheme-ViewBackground {
        color:#19191b;
        stop-color:#19191b;
      }
      .ColorScheme-ViewHover {
        color:#005cc7;
        stop-color:#005cc7;
      }
      .ColorScheme-ViewFocus{
        color:#002466;
        stop-color:#002466;
      }
      .ColorScheme-ButtonText {
        color:#d0d0d0;
        stop-color:#d0d0d0;
      }
      .ColorScheme-ButtonBackground {
        color:#232323;
        stop-color:#232323;                             
      }                                                 
      .ColorScheme-ButtonHover {                        
        color:#005cc7;                                  
        stop-color:#005cc7;                             
      }                                                 
      .ColorScheme-ButtonFocus{                         
        color:#0039a9;                                  
        stop-color:#0039a9;                             
      }</style>
    <style
       id="current-color-scheme-7">      .ColorScheme-Text {
        color:#d0d0d0;
        stop-color:#d0d0d0;
      }
      .ColorScheme-Background {
        color:#212121;
        stop-color:#212121;
      }
      .ColorScheme-Highlight {
        color:#0039a9;
        stop-color:#0039a9;
      }
      .ColorScheme-ViewText {
        color:#d0d0d0;
        stop-color:#d0d0d0;
      }
      .ColorScheme-ViewBackground {
        color:#19191b;
        stop-color:#19191b;
      }
      .ColorScheme-ViewHover {
        color:#005cc7;
        stop-color:#005cc7;
      }
      .ColorScheme-ViewFocus{
        color:#002466;
        stop-color:#002466;
      }
      .ColorScheme-ButtonText {
        color:#d0d0d0;
        stop-color:#d0d0d0;
      }
      .ColorScheme-ButtonBackground {
        color:#232323;
        stop-color:#232323;                             
      }                                                 
      .ColorScheme-ButtonHover {                        
        color:#005cc7;                                  
        stop-color:#005cc7;                             
      }                                                 
      .ColorScheme-ButtonFocus{                         
        color:#0039a9;                                  
        stop-color:#0039a9;                             
      }</style>
    <linearGradient
       id="linearGradient3052">
      <stop
         style="stop-color:#555753"
         id="stop3054" />
      <stop
         offset="1"
         style="stop-color:#2e3436"
         id="stop3056" />
    </linearGradient>
    <radialGradient
       cx="25.641"
       cy="3.6836"
       r="17.995"
       xlink:href="#linearGradient3052"
       id="radialGradient3082"
       gradientUnits="userSpaceOnUse"
       gradientTransform="matrix(0.58724559 -0.0000004 0 0.25688859 387.29707 527.70784)" />
    <radialGradient
       cx="25.641001"
       cy="3.6835999"
       r="17.995001"
       xlink:href="#linearGradient3052"
       id="radialGradient3082-6"
       gradientUnits="userSpaceOnUse"
       gradientTransform="matrix(0.5872456,-4.0000001e-7,0,0.25688859,387.45769,529.05333)" />
  </defs>
  <sodipodi:namedview
     id="base"
     pagecolor="#002266"
     bordercolor="#ffffff"
     borderopacity="0.46666667"
     inkscape:pageopacity="0"
     inkscape:pageshadow="2"
     inkscape:zoom="12.859375"
     inkscape:cx="31.6838"
     inkscape:cy="27.406602"
     inkscape:document-units="px"
     inkscape:current-layer="g862"
     inkscape:document-rotation="0"
     showgrid="false"
     inkscape:showpageshadow="false"
     borderlayer="true"
     units="px"
     fit-margin-top="0"
     fit-margin-left="0"
     fit-margin-right="0"
     fit-margin-bottom="0"
     inkscape:window-width="1920"
     inkscape:window-height="1051"
     inkscape:window-x="0"
     inkscape:window-y="0"
     inkscape:window-maximized="1"
     inkscape:snap-page="true" />
  <metadata
     id="metadata5">
    <rdf:RDF>
      <cc:Work
         rdf:about="">
        <dc:format>image/svg+xml</dc:format>
        <dc:type
           rdf:resource="http://purl.org/dc/dcmitype/StillImage" />
        <dc:title></dc:title>
      </cc:Work>
    </rdf:RDF>
  </metadata>
  <g
     id="g862"
     inkscape:label="#kdevelop">
    <rect
       inkscape:label="#boundary"
       y="0"
       x="0"
       height="48"
       width="48.149998"
       id="rect4264"
       style="fill:none;fill-opacity:0.74651441;stroke-width:23.61599922;stroke-opacity:0.3596773" />
    <path
       inkscape:label="#"
       inkscape:connector-curvature="0"
       id="path855"
       d="M 22.433642,5.9999995 20.825244,9.832031 a 14.553392,14.553392 0 0 0 -2.452149,0.791015 L 14.822314,8.4741205 12.168017,10.398926 13.117235,14.4375 a 14.553392,14.553392 0 0 0 -1.511718,2.091796 l -4.1396487,0.347168 -1.0151368,3.120118 3.1333007,2.707031 a 14.553392,14.553392 0 0 0 -0.061524,1.291993 14.553392,14.553392 0 0 0 0.065918,1.291991 l -3.1376954,2.711425 1.0151367,3.124511 4.1352545,0.342775 a 14.553392,14.553392 0 0 0 1.516113,2.083008 l -0.949219,4.047365 2.654297,1.924803 3.541993,-2.140137 a 14.553392,14.553392 0 0 0 2.460937,0.791017 L 22.433642,42 h 3.278319 l 1.608399,-3.832032 a 14.553392,14.553392 0 0 0 2.452149,-0.799804 l 3.555176,2.15332 2.649901,-1.924803 -0.944822,-4.038575 a 14.553392,14.553392 0 0 0 1.511717,-2.091798 l 4.135254,-0.342775 1.019532,-3.124511 -3.133301,-2.702635 a 14.553392,14.553392 0 0 0 0.06151,-1.300781 14.553392,14.553392 0 0 0 -0.06593,-1.287599 L 41.699241,19.996582 40.67971,16.876464 36.548851,16.529296 A 14.553392,14.553392 0 0 0 35.032754,14.450683 L 35.977576,10.398926 33.327675,8.4741205 29.790076,10.618652 A 14.553392,14.553392 0 0 0 27.32035,9.8188474 L 25.711951,5.9999995 Z m 1.757812,6.9038085 a 11.436766,11.436766 0 0 1 11.43457,11.43457 11.436766,11.436766 0 0 1 -11.43457,11.438965 11.436766,11.436766 0 0 1 -11.438965,-11.438965 11.436766,11.436766 0 0 1 11.438965,-11.43457 z"
       style="opacity:0.6;fill:#d0d0d0;fill-opacity:1;stroke-width:2.91517949;stroke-linecap:round;stroke-linejoin:round" />
    <path
       inkscape:label="#"
       id="path851"
       d="m 18.518115,20.211914 a 7.850455,5.3684773 45 0 0 -2.931153,1.173339 7.850455,5.3684773 45 0 0 1.753418,9.342774 7.850455,5.3684773 45 0 0 9.351562,1.753418 7.850455,5.3684773 45 0 0 -1.757812,-9.342774 7.850455,5.3684773 45 0 0 -6.416015,-2.926757 z m 5.000976,4.130858 -1.647949,6.143556 -4.5,-4.495607 z"
       style="fill:#00ff00;fill-opacity:1;stroke-width:2.91517949;stroke-linecap:round;stroke-linejoin:round"
       inkscape:connector-curvature="0" />
  </g>
</svg>
