<?xml version="1.0" encoding="UTF-8" standalone="no"?>
<!-- Created with Inkscape (http://www.inkscape.org/) -->

<svg
   xmlns:dc="http://purl.org/dc/elements/1.1/"
   xmlns:cc="http://creativecommons.org/ns#"
   xmlns:rdf="http://www.w3.org/1999/02/22-rdf-syntax-ns#"
   xmlns:svg="http://www.w3.org/2000/svg"
   xmlns="http://www.w3.org/2000/svg"
   xmlns:xlink="http://www.w3.org/1999/xlink"
   xmlns:sodipodi="http://sodipodi.sourceforge.net/DTD/sodipodi-0.dtd"
   xmlns:inkscape="http://www.inkscape.org/namespaces/inkscape"
   width="48.149998"
   height="48"
   viewBox="0 0 48.149998 48"
   version="1.1"
   id="svg8"
   inkscape:version="0.92+devel (f96dc7e339, 2017-07-28, custom)"
   sodipodi:docname="kdots.svg">
  <defs
     id="ol-defs">
    <style
       id="current-color-scheme">      .ColorScheme-Text {
        color:#d0d0d0;
        stop-color:#d0d0d0;
      }
      .ColorScheme-Background {
        color:#212121;
        stop-color:#212121;
      }
      .ColorScheme-Highlight {
        color:#0039a9;
        stop-color:#0039a9;
      }
      .ColorScheme-ViewText {
        color:#d0d0d0;
        stop-color:#d0d0d0;
      }
      .ColorScheme-ViewBackground {
        color:#19191b;
        stop-color:#19191b;
      }
      .ColorScheme-ViewHover {
        color:#005cc7;
        stop-color:#005cc7;
      }
      .ColorScheme-ViewFocus{
        color:#002466;
        stop-color:#002466;
      }
      .ColorScheme-ButtonText {
        color:#d0d0d0;
        stop-color:#d0d0d0;
      }
      .ColorScheme-ButtonBackground {
        color:#232323;
        stop-color:#232323;                             
      }                                                 
      .ColorScheme-ButtonHover {                        
        color:#005cc7;                                  
        stop-color:#005cc7;                             
      }                                                 
      .ColorScheme-ButtonFocus{                         
        color:#0039a9;                                  
        stop-color:#0039a9;                             
      }</style>
    <style
       id="current-color-scheme-7">      .ColorScheme-Text {
        color:#d0d0d0;
        stop-color:#d0d0d0;
      }
      .ColorScheme-Background {
        color:#212121;
        stop-color:#212121;
      }
      .ColorScheme-Highlight {
        color:#0039a9;
        stop-color:#0039a9;
      }
      .ColorScheme-ViewText {
        color:#d0d0d0;
        stop-color:#d0d0d0;
      }
      .ColorScheme-ViewBackground {
        color:#19191b;
        stop-color:#19191b;
      }
      .ColorScheme-ViewHover {
        color:#005cc7;
        stop-color:#005cc7;
      }
      .ColorScheme-ViewFocus{
        color:#002466;
        stop-color:#002466;
      }
      .ColorScheme-ButtonText {
        color:#d0d0d0;
        stop-color:#d0d0d0;
      }
      .ColorScheme-ButtonBackground {
        color:#232323;
        stop-color:#232323;                             
      }                                                 
      .ColorScheme-ButtonHover {                        
        color:#005cc7;                                  
        stop-color:#005cc7;                             
      }                                                 
      .ColorScheme-ButtonFocus{                         
        color:#0039a9;                                  
        stop-color:#0039a9;                             
      }</style>
    <linearGradient
       gradientTransform="translate(-384.57-499.8)"
       gradientUnits="userSpaceOnUse"
       x2="392.23"
       y2="508.44"
       x1="424.2"
       y1="540.42"
       id="a">
      <stop
         id="stop816"
         stop-color="#eef1f2" />
      <stop
         id="stop818"
         stop-color="#f9fafb"
         offset="1" />
    </linearGradient>
    <linearGradient
       gradientUnits="userSpaceOnUse"
       x2="402.57"
       x1="392.57"
       id="b"
       xlink:href="#a" />
    <linearGradient
       gradientTransform="translate(-484.55 133.21)"
       gradientUnits="userSpaceOnUse"
       x2="0"
       y2="526.8"
       y1="518.8"
       id="c">
      <stop
         id="stop822" />
      <stop
         id="stop824"
         stop-opacity="0"
         offset="1" />
    </linearGradient>
    <linearGradient
       gradientTransform="matrix(.70711-.70711.70711.70711-237.46 425.82)"
       gradientUnits="userSpaceOnUse"
       x2="0"
       y2="526.8"
       y1="518.8"
       id="d"
       xlink:href="#c" />
    <linearGradient
       gradientTransform="matrix(.70711-.70711.70711.70711-226.44 425.82)"
       gradientUnits="userSpaceOnUse"
       x2="0"
       y2="526.8"
       y1="518.8"
       id="e"
       xlink:href="#c" />
    <linearGradient
       gradientTransform="translate(-484.55,148.76)"
       gradientUnits="userSpaceOnUse"
       x2="0"
       y2="526.8"
       y1="518.8"
       id="f"
       xlink:href="#c" />
    <linearGradient
       gradientTransform="translate(-492.33,140.99)"
       gradientUnits="userSpaceOnUse"
       x2="0"
       y2="526.8"
       y1="518.8"
       id="g"
       xlink:href="#c" />
    <linearGradient
       gradientTransform="translate(22-11)"
       gradientUnits="userSpaceOnUse"
       x2="400.6"
       y2="515.82"
       x1="406.57"
       y1="521.8"
       id="h">
      <stop
         id="stop831"
         stop-color="#197cf1" />
      <stop
         id="stop833"
         stop-color="#21c9fb"
         offset="1" />
    </linearGradient>
    <linearGradient
       gradientTransform="translate(22)"
       gradientUnits="userSpaceOnUse"
       x2="400.6"
       y2="515.82"
       x1="406.57"
       y1="521.8"
       id="i"
       xlink:href="#h" />
    <linearGradient
       gradientTransform="translate(11)"
       gradientUnits="userSpaceOnUse"
       x2="400.6"
       y2="515.82"
       x1="406.57"
       y1="521.8"
       id="j">
      <stop
         id="stop837"
         stop-color="#da4453" />
      <stop
         id="stop839"
         stop-color="#ff7336"
         offset="1" />
    </linearGradient>
    <linearGradient
       gradientTransform="translate(11,-11)"
       gradientUnits="userSpaceOnUse"
       x2="400.6"
       y2="515.82"
       x1="406.57"
       y1="521.8"
       id="k"
       xlink:href="#h" />
    <linearGradient
       gradientUnits="userSpaceOnUse"
       x2="400.6"
       y2="515.82"
       x1="406.57"
       y1="521.8"
       id="l"
       xlink:href="#h" />
    <linearGradient
       gradientTransform="translate(11,11)"
       gradientUnits="userSpaceOnUse"
       x2="400.6"
       y2="515.82"
       x1="406.57"
       y1="521.8"
       id="m"
       xlink:href="#h" />
    <linearGradient
       gradientTransform="translate(0,11)"
       gradientUnits="userSpaceOnUse"
       x2="400.6"
       y2="515.82"
       x1="406.57"
       y1="521.8"
       id="n"
       xlink:href="#j" />
    <linearGradient
       gradientUnits="userSpaceOnUse"
       x2="143.68"
       x1="137.98"
       y2="811.81"
       y1="806.11"
       id="o"
       xlink:href="#c" />
  </defs>
  <sodipodi:namedview
     id="base"
     pagecolor="#002266"
     bordercolor="#ffffff"
     borderopacity="0.46666667"
     inkscape:pageopacity="0"
     inkscape:pageshadow="2"
     inkscape:zoom="9.0929513"
     inkscape:cx="29.208542"
     inkscape:cy="28.542491"
     inkscape:document-units="px"
     inkscape:current-layer="svg8"
     inkscape:document-rotation="0"
     showgrid="false"
     inkscape:showpageshadow="false"
     borderlayer="true"
     units="px"
     fit-margin-top="0"
     fit-margin-left="0"
     fit-margin-right="0"
     fit-margin-bottom="0"
     inkscape:window-width="1920"
     inkscape:window-height="1051"
     inkscape:window-x="0"
     inkscape:window-y="0"
     inkscape:window-maximized="1"
     inkscape:snap-page="true" />
  <metadata
     id="metadata5">
    <rdf:RDF>
      <cc:Work
         rdf:about="">
        <dc:format>image/svg+xml</dc:format>
        <dc:type
           rdf:resource="http://purl.org/dc/dcmitype/StillImage" />
        <dc:title></dc:title>
      </cc:Work>
    </rdf:RDF>
  </metadata>
  <g
     id="g995"
     inkscape:label="#kdots">
    <rect
       inkscape:label="#boundary"
       y="0"
       x="0"
       height="48"
       width="48.149998"
       id="rect4264"
       style="fill:none;fill-opacity:0.74651441;stroke-width:23.61599922;stroke-opacity:0.3596773" />
    <path
       inkscape:label="#"
       inkscape:connector-curvature="0"
       id="rect814"
       d="M 9.6643389,6 C 7.676168,6 6.0749988,7.606186 6.0749988,9.600586 V 38.399414 C 6.0749988,40.393814 7.676168,42 9.6643389,42 H 38.485659 c 1.98817,0 3.58934,-1.606186 3.58934,-3.600586 V 9.600586 C 42.074999,7.606186 40.473829,6 38.485659,6 Z M 29.08591,8.852051 a 2.6168012,2.625 0 0 1 2.586136,2.25 h 3.0505 a 2.6168012,2.625 0 0 1 2.587596,-2.25 2.6168012,2.625 0 0 1 2.616802,2.625 2.6168012,2.625 0 0 1 -2.242972,2.594238 v 3.030761 h -0.37383 a 2.6168012,2.625 0 0 1 2.616802,2.625 2.6168012,2.625 0 0 1 -2.616802,2.625 2.6168012,2.625 0 0 1 -1.343446,-0.375 l -4.637813,4.653809 a 2.6168012,2.625 0 0 1 0.373828,1.346192 2.6168012,2.625 0 0 1 -2.616801,2.625 2.6168012,2.625 0 0 1 -2.616801,-2.625 2.6168012,2.625 0 0 1 0.249706,-1.111817 l -4.747333,-4.763672 a 2.6168012,2.625 0 0 1 -1.109804,0.250488 2.6168012,2.625 0 0 1 -2.616801,-2.625 2.6168012,2.625 0 0 1 2.616801,-2.625 2.6168012,2.625 0 0 1 1.768385,0.694337 l 4.531213,-4.546875 a 2.6168012,2.625 0 0 1 -0.692167,-1.772461 2.6168012,2.625 0 0 1 2.616801,-2.625 z m 8.224232,8.249999 h -0.373828 v -3.029296 a 2.6168012,2.625 0 0 1 -2.212307,-2.220703 h -3.050502 a 2.6168012,2.625 0 0 1 -2.587595,2.249999 2.6168012,2.625 0 0 1 -1.343447,-0.375 l -4.637813,4.653809 a 2.6168012,2.625 0 0 1 0.373829,1.346191 2.6168012,2.625 0 0 1 -0.871781,1.951173 l 4.532674,4.548339 a 2.6168012,2.625 0 0 1 1.946538,-0.874512 2.6168012,2.625 0 0 1 1.768385,0.694337 l 4.531214,-4.54541 a 2.6168012,2.625 0 0 1 -0.692168,-1.773927 2.6168012,2.625 0 0 1 2.616801,-2.625 z m -8.224232,0 a 2.6168012,2.625 0 0 1 2.616801,2.625 2.6168012,2.625 0 0 1 -2.616801,2.625 2.6168012,2.625 0 0 1 -2.616801,-2.625 2.6168012,2.625 0 0 1 2.616801,-2.625 z m -8.224232,8.25 a 2.6168012,2.625 0 0 1 2.616801,2.625001 2.6168012,2.625 0 0 1 -2.616801,2.625 2.6168012,2.625 0 0 1 -2.616801,-2.625 2.6168012,2.625 0 0 1 2.616801,-2.625001 z"
       style="font-variation-settings:normal;opacity:0.6;vector-effect:none;fill:#d0d0d0;stroke:none;stroke-width:0.60000002" />
  </g>
</svg>
