<?xml version="1.0" encoding="UTF-8" standalone="no"?>
<!-- Created with Inkscape (http://www.inkscape.org/) -->

<svg
   xmlns:dc="http://purl.org/dc/elements/1.1/"
   xmlns:cc="http://creativecommons.org/ns#"
   xmlns:rdf="http://www.w3.org/1999/02/22-rdf-syntax-ns#"
   xmlns:svg="http://www.w3.org/2000/svg"
   xmlns="http://www.w3.org/2000/svg"
   xmlns:sodipodi="http://sodipodi.sourceforge.net/DTD/sodipodi-0.dtd"
   xmlns:inkscape="http://www.inkscape.org/namespaces/inkscape"
   width="48.149998"
   height="48"
   viewBox="0 0 48.149998 48"
   version="1.1"
   id="svg8"
   inkscape:version="0.92+devel (f96dc7e339, 2017-07-28, custom)"
   sodipodi:docname="kipi-dngconverter.svg">
  <defs
     id="ol-defs">
    <style
       id="current-color-scheme">      .ColorScheme-Text {
        color:#d0d0d0;
        stop-color:#d0d0d0;
      }
      .ColorScheme-Background {
        color:#212121;
        stop-color:#212121;
      }
      .ColorScheme-Highlight {
        color:#0039a9;
        stop-color:#0039a9;
      }
      .ColorScheme-ViewText {
        color:#d0d0d0;
        stop-color:#d0d0d0;
      }
      .ColorScheme-ViewBackground {
        color:#19191b;
        stop-color:#19191b;
      }
      .ColorScheme-ViewHover {
        color:#005cc7;
        stop-color:#005cc7;
      }
      .ColorScheme-ViewFocus{
        color:#002466;
        stop-color:#002466;
      }
      .ColorScheme-ButtonText {
        color:#d0d0d0;
        stop-color:#d0d0d0;
      }
      .ColorScheme-ButtonBackground {
        color:#232323;
        stop-color:#232323;                             
      }                                                 
      .ColorScheme-ButtonHover {                        
        color:#005cc7;                                  
        stop-color:#005cc7;                             
      }                                                 
      .ColorScheme-ButtonFocus{                         
        color:#0039a9;                                  
        stop-color:#0039a9;                             
      }</style>
    <style
       id="current-color-scheme-7">      .ColorScheme-Text {
        color:#d0d0d0;
        stop-color:#d0d0d0;
      }
      .ColorScheme-Background {
        color:#212121;
        stop-color:#212121;
      }
      .ColorScheme-Highlight {
        color:#0039a9;
        stop-color:#0039a9;
      }
      .ColorScheme-ViewText {
        color:#d0d0d0;
        stop-color:#d0d0d0;
      }
      .ColorScheme-ViewBackground {
        color:#19191b;
        stop-color:#19191b;
      }
      .ColorScheme-ViewHover {
        color:#005cc7;
        stop-color:#005cc7;
      }
      .ColorScheme-ViewFocus{
        color:#002466;
        stop-color:#002466;
      }
      .ColorScheme-ButtonText {
        color:#d0d0d0;
        stop-color:#d0d0d0;
      }
      .ColorScheme-ButtonBackground {
        color:#232323;
        stop-color:#232323;                             
      }                                                 
      .ColorScheme-ButtonHover {                        
        color:#005cc7;                                  
        stop-color:#005cc7;                             
      }                                                 
      .ColorScheme-ButtonFocus{                         
        color:#0039a9;                                  
        stop-color:#0039a9;                             
      }</style>
    <style
       id="current-color-scheme-9">      .ColorScheme-Text {
        color:#d0d0d0;
        stop-color:#d0d0d0;
      }
      .ColorScheme-Background {
        color:#212121;
        stop-color:#212121;
      }
      .ColorScheme-Highlight {
        color:#0039a9;
        stop-color:#0039a9;
      }
      .ColorScheme-ViewText {
        color:#d0d0d0;
        stop-color:#d0d0d0;
      }
      .ColorScheme-ViewBackground {
        color:#19191b;
        stop-color:#19191b;
      }
      .ColorScheme-ViewHover {
        color:#005cc7;
        stop-color:#005cc7;
      }
      .ColorScheme-ViewFocus{
        color:#002466;
        stop-color:#002466;
      }
      .ColorScheme-ButtonText {
        color:#d0d0d0;
        stop-color:#d0d0d0;
      }
      .ColorScheme-ButtonBackground {
        color:#232323;
        stop-color:#232323;                             
      }                                                 
      .ColorScheme-ButtonHover {                        
        color:#005cc7;                                  
        stop-color:#005cc7;                             
      }                                                 
      .ColorScheme-ButtonFocus{                         
        color:#0039a9;                                  
        stop-color:#0039a9;                             
      }</style>
  </defs>
  <sodipodi:namedview
     id="base"
     pagecolor="#002266"
     bordercolor="#ffffff"
     borderopacity="0.46666667"
     inkscape:pageopacity="0"
     inkscape:pageshadow="2"
     inkscape:zoom="12.859375"
     inkscape:cx="31.6838"
     inkscape:cy="21.027627"
     inkscape:document-units="px"
     inkscape:current-layer="svg8"
     inkscape:document-rotation="0"
     showgrid="false"
     inkscape:showpageshadow="false"
     borderlayer="true"
     units="px"
     fit-margin-top="0"
     fit-margin-left="0"
     fit-margin-right="0"
     fit-margin-bottom="0"
     inkscape:window-width="1920"
     inkscape:window-height="1051"
     inkscape:window-x="0"
     inkscape:window-y="0"
     inkscape:window-maximized="1"
     inkscape:snap-page="true" />
  <metadata
     id="metadata5">
    <rdf:RDF>
      <cc:Work
         rdf:about="">
        <dc:format>image/svg+xml</dc:format>
        <dc:type
           rdf:resource="http://purl.org/dc/dcmitype/StillImage" />
        <dc:title></dc:title>
      </cc:Work>
    </rdf:RDF>
  </metadata>
  <g
     transform="translate(22.585783,28.099144)"
     inkscape:label="#kipi-dngconverter"
     id="g4292">
    <rect
       style="display:inline;fill:none;fill-opacity:0.74651441;stroke-width:23.61599922;stroke-opacity:0.3596773"
       id="rect4264"
       width="48.149998"
       height="48"
       x="-22.585783"
       y="-28.099144"
       inkscape:label="#boundary" />
    <path
       style="opacity:0.4;vector-effect:none;fill:#ffffff;stroke-width:1.49136364;stroke-linecap:square"
       d="M 5.7402344,6 C 4.7883214,6 4.0234375,6.7687901 4.0234375,7.7207031 V 40.279297 C 4.0234375,41.23121 4.7883214,42 5.7402344,42 H 42.408203 c 0.951913,0 1.71875,-0.76879 1.71875,-1.720703 V 7.7207031 C 44.126953,6.7687901 43.360116,6 42.408203,6 Z M 8.359375,9.0507812 h 31.65625 c 0.634813,0 1.144531,0.51167 1.144531,1.1464848 v 27.808593 c 0,0.634812 -0.509718,1.146485 -1.144531,1.146485 H 8.359375 c -0.634812,0 -1.1445312,-0.511673 -1.1445312,-1.146485 V 10.197266 c 0,-0.6348148 0.5097192,-1.1464847 1.1445312,-1.1464848 z m 2.068359,6.8734378 v 1.732422 h 27.451172 v -1.732422 z m 0,14.974609 v 1.730469 h 27.451172 v -1.730469 z"
       transform="translate(-22.585783,-28.099144)"
       id="rect4264-5"
       inkscape:connector-curvature="0"
       sodipodi:nodetypes="sssssssssssssssssscccccccccc"
       inkscape:label="#" />
    <path
       style="font-style:normal;font-variant:normal;font-weight:bold;font-stretch:normal;font-size:13.33333302px;font-family:arial;-inkscape-font-specification:'arial Bold';display:inline;fill:#ff0000"
       d="m 11.527498,-8.907347 c -0.911458,0 -1.673177,0.159722 -2.285156,0.476562 -0.802951,0.412327 -1.413411,1.004775 -1.830078,1.777344 -0.416667,0.77257 -0.625,1.654514 -0.625,2.648438 0,0.915798 0.187283,1.765625 0.560547,2.546875 0.373264,0.776909 0.93164,1.375868 1.673828,1.796875 0.742187,0.416666 1.611111,0.625 2.609375,0.625 0.785591,0 1.56033,-0.148221 2.324219,-0.44336 0.768229,-0.299479 1.354167,-0.644531 1.757812,-1.035156 v -3.802734 h -4.152344 v 1.609375 h 2.207032 v 1.210937 c -0.290799,0.225695 -0.640842,0.417535 -1.048828,0.578125 -0.403646,0.15625 -0.807292,0.234375 -1.210938,0.234375 -0.815972,0 -1.475043,-0.281467 -1.978516,-0.845703 -0.503472,-0.568576 -0.755859,-1.419922 -0.755859,-2.552734 0,-1.050348 0.247396,-1.841146 0.742187,-2.375 0.499133,-0.533855 1.169706,-0.800782 2.011719,-0.800782 0.555556,0 1.017796,0.136719 1.386719,0.410157 0.373264,0.269097 0.62717,0.636718 0.761719,1.105468 l 1.914062,-0.357421 c -0.190972,-0.876737 -0.62066,-1.561849 -1.289062,-2.056641 -0.664063,-0.499132 -1.588542,-0.75 -2.773438,-0.75 z m -23.685547,0.164062 v 9.542969 h 3.626954 c 0.711805,0 1.27973,-0.06662 1.705078,-0.201172 0.568576,-0.182291 1.021267,-0.436198 1.355468,-0.761718 0.442709,-0.429688 0.782769,-0.991103 1.021485,-1.685547 0.195312,-0.568577 0.292969,-1.24566 0.292969,-2.03125 0,-0.894098 -0.104167,-1.646268 -0.3125,-2.253907 -0.208334,-0.611979 -0.512804,-1.127821 -0.91211,-1.548828 -0.399305,-0.421007 -0.877604,-0.713975 -1.4375,-0.878906 -0.416667,-0.121528 -1.022135,-0.181641 -1.816406,-0.181641 z m 9.66211,0 v 9.542969 h 1.791015 V -5.422972 L 3.142733,0.799684 H 5.076326 V -8.743285 H 3.285311 v 6.373047 l -3.90625,-6.373047 z m -7.734375,1.613282 h 0.865234 c 0.78559,0 1.312934,0.03103 1.582031,0.0918 0.360243,0.07813 0.658204,0.227864 0.892578,0.449218 0.234376,0.221354 0.416667,0.528863 0.546876,0.923828 0.130208,0.394966 0.195312,0.961372 0.195312,1.699219 0,0.737847 -0.0651,1.322266 -0.195312,1.751953 -0.130209,0.425347 -0.29948,0.731337 -0.507813,0.917969 -0.203993,0.186632 -0.462891,0.318359 -0.775391,0.396484 -0.238715,0.06076 -0.625868,0.0918 -1.164062,0.0918 h -1.439453 z"
       id="path825"
       inkscape:connector-curvature="0"
       inkscape:label="#" />
  </g>
</svg>
