<?xml version="1.0" encoding="UTF-8" standalone="no"?>
<!-- Created with Inkscape (http://www.inkscape.org/) -->

<svg
   xmlns:dc="http://purl.org/dc/elements/1.1/"
   xmlns:cc="http://creativecommons.org/ns#"
   xmlns:rdf="http://www.w3.org/1999/02/22-rdf-syntax-ns#"
   xmlns:svg="http://www.w3.org/2000/svg"
   xmlns="http://www.w3.org/2000/svg"
   xmlns:sodipodi="http://sodipodi.sourceforge.net/DTD/sodipodi-0.dtd"
   xmlns:inkscape="http://www.inkscape.org/namespaces/inkscape"
   width="48.149998"
   height="48"
   viewBox="0 0 48.149998 48"
   version="1.1"
   id="svg8"
   inkscape:version="0.92+devel (b8837397f6, 2017-07-27, custom)"
   sodipodi:docname="kjumpingcube.svg">
  <defs
     id="ol-defs">
    <style
       id="current-color-scheme">      .ColorScheme-Text {
        color:#d0d0d0;
        stop-color:#d0d0d0;
      }
      .ColorScheme-Background {
        color:#212121;
        stop-color:#212121;
      }
      .ColorScheme-Highlight {
        color:#0039a9;
        stop-color:#0039a9;
      }
      .ColorScheme-ViewText {
        color:#d0d0d0;
        stop-color:#d0d0d0;
      }
      .ColorScheme-ViewBackground {
        color:#19191b;
        stop-color:#19191b;
      }
      .ColorScheme-ViewHover {
        color:#005cc7;
        stop-color:#005cc7;
      }
      .ColorScheme-ViewFocus{
        color:#002466;
        stop-color:#002466;
      }
      .ColorScheme-ButtonText {
        color:#d0d0d0;
        stop-color:#d0d0d0;
      }
      .ColorScheme-ButtonBackground {
        color:#232323;
        stop-color:#232323;                             
      }                                                 
      .ColorScheme-ButtonHover {                        
        color:#005cc7;                                  
        stop-color:#005cc7;                             
      }                                                 
      .ColorScheme-ButtonFocus{                         
        color:#0039a9;                                  
        stop-color:#0039a9;                             
      }</style>
  </defs>
  <sodipodi:namedview
     id="base"
     pagecolor="#002266"
     bordercolor="#ffffff"
     borderopacity="0.46666667"
     inkscape:pageopacity="0"
     inkscape:pageshadow="2"
     inkscape:zoom="12.859375"
     inkscape:cx="31.6838"
     inkscape:cy="21.027627"
     inkscape:document-units="px"
     inkscape:current-layer="g843"
     inkscape:document-rotation="0"
     showgrid="false"
     inkscape:showpageshadow="false"
     borderlayer="true"
     units="px"
     fit-margin-top="0"
     fit-margin-left="0"
     fit-margin-right="0"
     fit-margin-bottom="0"
     inkscape:window-width="1920"
     inkscape:window-height="1051"
     inkscape:window-x="0"
     inkscape:window-y="0"
     inkscape:window-maximized="1"
     inkscape:snap-page="true" />
  <metadata
     id="metadata5">
    <rdf:RDF>
      <cc:Work
         rdf:about="">
        <dc:format>image/svg+xml</dc:format>
        <dc:type
           rdf:resource="http://purl.org/dc/dcmitype/StillImage" />
        <dc:title></dc:title>
      </cc:Work>
    </rdf:RDF>
  </metadata>
  <g
     id="g843"
     inkscape:label="#kjumpingcube">
    <rect
       inkscape:label="#boundary"
       y="0"
       x="0"
       height="48"
       width="48.149998"
       id="rect4264"
       style="fill:none;fill-opacity:0.74651441;stroke-width:23.61599922;stroke-opacity:0.3596773" />
    <path
       inkscape:connector-curvature="0"
       style="font-variation-settings:normal;opacity:0.6;vector-effect:none;fill:#d0d0d0;stroke-width:1.99999988;stroke-linecap:round;stroke-miterlimit:26.70000076"
       d="m 10.408007,6.0000009 c -2.4015595,0 -4.3330078,1.9314494 -4.3330078,4.3330091 v 27.333982 c 0,2.40156 1.9314483,4.333007 4.3330078,4.333007 h 27.333984 c 2.401561,0 4.333008,-1.931447 4.333008,-4.333007 V 10.33301 c 0,-2.4015597 -1.931447,-4.3330091 -4.333008,-4.3330091 z m 4.851562,6.1171871 a 3.1517578,3.1517578 0 0 1 3.150879,3.15088 3.1517578,3.1517578 0 0 1 -3.150879,3.150879 3.1517578,3.1517578 0 0 1 -3.150879,-3.150879 3.1517578,3.1517578 0 0 1 3.150879,-3.15088 z m 18.549316,0 a 3.1517578,3.1517578 0 0 1 3.150878,3.15088 3.1517578,3.1517578 0 0 1 -3.150878,3.150879 3.1517578,3.1517578 0 0 1 -3.150879,-3.150879 3.1517578,3.1517578 0 0 1 3.150879,-3.15088 z m -9.276854,9.272461 a 3.1517578,3.1517578 0 0 1 3.155273,3.15088 3.1517578,3.1517578 0 0 1 -3.155273,3.155274 3.1517578,3.1517578 0 0 1 -3.150879,-3.155274 3.1517578,3.1517578 0 0 1 3.150879,-3.15088 z m -9.272462,9.276856 a 3.1517578,3.1517578 0 0 1 3.150879,3.150877 3.1517578,3.1517578 0 0 1 -3.150879,3.15088 3.1517578,3.1517578 0 0 1 -3.150879,-3.15088 3.1517578,3.1517578 0 0 1 3.150879,-3.150877 z m 18.549316,0 a 3.1517578,3.1517578 0 0 1 3.150878,3.150877 3.1517578,3.1517578 0 0 1 -3.150878,3.15088 3.1517578,3.1517578 0 0 1 -3.150879,-3.15088 3.1517578,3.1517578 0 0 1 3.150879,-3.150877 z"
       id="rect811"
       inkscape:label="#" />
  </g>
</svg>
