<?xml version="1.0" encoding="UTF-8" standalone="no"?>
<!-- Created with Inkscape (http://www.inkscape.org/) -->

<svg
   xmlns:dc="http://purl.org/dc/elements/1.1/"
   xmlns:cc="http://creativecommons.org/ns#"
   xmlns:rdf="http://www.w3.org/1999/02/22-rdf-syntax-ns#"
   xmlns:svg="http://www.w3.org/2000/svg"
   xmlns="http://www.w3.org/2000/svg"
   xmlns:sodipodi="http://sodipodi.sourceforge.net/DTD/sodipodi-0.dtd"
   xmlns:inkscape="http://www.inkscape.org/namespaces/inkscape"
   width="48.149998"
   height="48"
   viewBox="0 0 48.149998 48"
   version="1.1"
   id="svg8"
   inkscape:version="0.92+devel (f96dc7e339, 2017-07-28, custom)"
   sodipodi:docname="klines.svg">
  <defs
     id="ol-defs">
    <style
       id="current-color-scheme">      .ColorScheme-Text {
        color:#d0d0d0;
        stop-color:#d0d0d0;
      }
      .ColorScheme-Background {
        color:#212121;
        stop-color:#212121;
      }
      .ColorScheme-Highlight {
        color:#0039a9;
        stop-color:#0039a9;
      }
      .ColorScheme-ViewText {
        color:#d0d0d0;
        stop-color:#d0d0d0;
      }
      .ColorScheme-ViewBackground {
        color:#19191b;
        stop-color:#19191b;
      }
      .ColorScheme-ViewHover {
        color:#005cc7;
        stop-color:#005cc7;
      }
      .ColorScheme-ViewFocus{
        color:#002466;
        stop-color:#002466;
      }
      .ColorScheme-ButtonText {
        color:#d0d0d0;
        stop-color:#d0d0d0;
      }
      .ColorScheme-ButtonBackground {
        color:#232323;
        stop-color:#232323;                             
      }                                                 
      .ColorScheme-ButtonHover {                        
        color:#005cc7;                                  
        stop-color:#005cc7;                             
      }                                                 
      .ColorScheme-ButtonFocus{                         
        color:#0039a9;                                  
        stop-color:#0039a9;                             
      }</style>
    <style
       id="current-color-scheme-7">      .ColorScheme-Text {
        color:#d0d0d0;
        stop-color:#d0d0d0;
      }
      .ColorScheme-Background {
        color:#212121;
        stop-color:#212121;
      }
      .ColorScheme-Highlight {
        color:#0039a9;
        stop-color:#0039a9;
      }
      .ColorScheme-ViewText {
        color:#d0d0d0;
        stop-color:#d0d0d0;
      }
      .ColorScheme-ViewBackground {
        color:#19191b;
        stop-color:#19191b;
      }
      .ColorScheme-ViewHover {
        color:#005cc7;
        stop-color:#005cc7;
      }
      .ColorScheme-ViewFocus{
        color:#002466;
        stop-color:#002466;
      }
      .ColorScheme-ButtonText {
        color:#d0d0d0;
        stop-color:#d0d0d0;
      }
      .ColorScheme-ButtonBackground {
        color:#232323;
        stop-color:#232323;                             
      }                                                 
      .ColorScheme-ButtonHover {                        
        color:#005cc7;                                  
        stop-color:#005cc7;                             
      }                                                 
      .ColorScheme-ButtonFocus{                         
        color:#0039a9;                                  
        stop-color:#0039a9;                             
      }</style>
  </defs>
  <sodipodi:namedview
     id="base"
     pagecolor="#002266"
     bordercolor="#ffffff"
     borderopacity="0.46666667"
     inkscape:pageopacity="0"
     inkscape:pageshadow="2"
     inkscape:zoom="12.859375"
     inkscape:cx="31.6838"
     inkscape:cy="27.406602"
     inkscape:document-units="px"
     inkscape:current-layer="g836"
     inkscape:document-rotation="0"
     showgrid="false"
     inkscape:showpageshadow="false"
     borderlayer="true"
     units="px"
     fit-margin-top="0"
     fit-margin-left="0"
     fit-margin-right="0"
     fit-margin-bottom="0"
     inkscape:window-width="1920"
     inkscape:window-height="1051"
     inkscape:window-x="0"
     inkscape:window-y="0"
     inkscape:window-maximized="1"
     inkscape:snap-page="true" />
  <metadata
     id="metadata5">
    <rdf:RDF>
      <cc:Work
         rdf:about="">
        <dc:format>image/svg+xml</dc:format>
        <dc:type
           rdf:resource="http://purl.org/dc/dcmitype/StillImage" />
        <dc:title></dc:title>
      </cc:Work>
    </rdf:RDF>
  </metadata>
  <g
     id="g836"
     inkscape:label="#klines">
    <rect
       inkscape:label="#boundary"
       y="0"
       x="0"
       height="48"
       width="48.149998"
       id="rect4264"
       style="fill:none;fill-opacity:0.74651441;stroke-width:23.61599922;stroke-opacity:0.3596773" />
    <path
       inkscape:label="#"
       inkscape:connector-curvature="0"
       id="rect830"
       d="M 11.384535,6 C 8.4428955,6 6.0749988,8.375316 6.0749988,11.326172 V 36.673828 C 6.0749988,39.624685 8.4428955,42 11.384535,42 h 25.380927 c 2.941639,0 5.309537,-2.375316 5.309537,-5.326172 V 11.326172 C 42.074999,8.375316 39.707101,6 36.765462,6 Z m 1.128788,2.90918 a 3.4319041,3.4426568 0 0 1 2.375857,1.007812 3.4319041,3.4426568 0 0 1 0,4.869141 3.4319041,3.4426568 0 0 1 -4.852473,0 3.4319041,3.4426568 0 0 1 0,-4.869141 3.4319041,3.4426568 0 0 1 2.476616,-1.007812 z m 5.806027,5.824218 a 3.4319041,3.4426568 0 0 1 2.375858,1.007813 3.4319041,3.4426568 0 0 1 0,4.869141 3.4319041,3.4426568 0 0 1 -4.852473,0 3.4319041,3.4426568 0 0 1 0,-4.869141 3.4319041,3.4426568 0 0 1 2.476615,-1.007813 z m 5.806028,5.824219 a 3.4319041,3.4426568 0 0 1 2.375857,1.007812 3.4319041,3.4426568 0 0 1 0,4.869141 3.4319041,3.4426568 0 0 1 -4.852473,0 3.4319041,3.4426568 0 0 1 0,-4.869141 3.4319041,3.4426568 0 0 1 2.476616,-1.007812 z m 5.806027,5.824219 a 3.4319041,3.4426568 0 0 1 2.375858,1.007812 3.4319041,3.4426568 0 0 1 0,4.869141 3.4319041,3.4426568 0 0 1 -4.853933,0 3.4319041,3.4426568 0 0 1 0,-4.869141 3.4319041,3.4426568 0 0 1 2.478075,-1.007812 z m 5.806028,5.824218 a 3.4319041,3.4426568 0 0 1 2.375857,1.007813 3.4319041,3.4426568 0 0 1 0,4.867676 3.4319041,3.4426568 0 0 1 -4.853932,0 3.4319041,3.4426568 0 0 1 0,-4.867676 3.4319041,3.4426568 0 0 1 2.478075,-1.007813 z"
       style="font-variation-settings:normal;opacity:0.6;vector-effect:none;fill:#d0d0d0;stroke-width:0.60000002" />
  </g>
</svg>
