<?xml version="1.0" encoding="UTF-8" standalone="no"?>
<!-- Created with Inkscape (http://www.inkscape.org/) -->

<svg
   xmlns:dc="http://purl.org/dc/elements/1.1/"
   xmlns:cc="http://creativecommons.org/ns#"
   xmlns:rdf="http://www.w3.org/1999/02/22-rdf-syntax-ns#"
   xmlns:svg="http://www.w3.org/2000/svg"
   xmlns="http://www.w3.org/2000/svg"
   xmlns:xlink="http://www.w3.org/1999/xlink"
   xmlns:sodipodi="http://sodipodi.sourceforge.net/DTD/sodipodi-0.dtd"
   xmlns:inkscape="http://www.inkscape.org/namespaces/inkscape"
   width="48.149998"
   height="48"
   viewBox="0 0 48.149998 48"
   version="1.1"
   id="svg8"
   inkscape:version="0.92+devel (b8837397f6, 2017-07-27, custom)"
   sodipodi:docname="konqueror.svg">
  <defs
     id="ol-defs">
    <style
       id="current-color-scheme">      .ColorScheme-Text {
        color:#d0d0d0;
        stop-color:#d0d0d0;
      }
      .ColorScheme-Background {
        color:#212121;
        stop-color:#212121;
      }
      .ColorScheme-Highlight {
        color:#0039a9;
        stop-color:#0039a9;
      }
      .ColorScheme-ViewText {
        color:#d0d0d0;
        stop-color:#d0d0d0;
      }
      .ColorScheme-ViewBackground {
        color:#19191b;
        stop-color:#19191b;
      }
      .ColorScheme-ViewHover {
        color:#005cc7;
        stop-color:#005cc7;
      }
      .ColorScheme-ViewFocus{
        color:#002466;
        stop-color:#002466;
      }
      .ColorScheme-ButtonText {
        color:#d0d0d0;
        stop-color:#d0d0d0;
      }
      .ColorScheme-ButtonBackground {
        color:#232323;
        stop-color:#232323;                             
      }                                                 
      .ColorScheme-ButtonHover {                        
        color:#005cc7;                                  
        stop-color:#005cc7;                             
      }                                                 
      .ColorScheme-ButtonFocus{                         
        color:#0039a9;                                  
        stop-color:#0039a9;                             
      }</style>
    <style
       id="current-color-scheme-7">      .ColorScheme-Text {
        color:#d0d0d0;
        stop-color:#d0d0d0;
      }
      .ColorScheme-Background {
        color:#212121;
        stop-color:#212121;
      }
      .ColorScheme-Highlight {
        color:#0039a9;
        stop-color:#0039a9;
      }
      .ColorScheme-ViewText {
        color:#d0d0d0;
        stop-color:#d0d0d0;
      }
      .ColorScheme-ViewBackground {
        color:#19191b;
        stop-color:#19191b;
      }
      .ColorScheme-ViewHover {
        color:#005cc7;
        stop-color:#005cc7;
      }
      .ColorScheme-ViewFocus{
        color:#002466;
        stop-color:#002466;
      }
      .ColorScheme-ButtonText {
        color:#d0d0d0;
        stop-color:#d0d0d0;
      }
      .ColorScheme-ButtonBackground {
        color:#232323;
        stop-color:#232323;                             
      }                                                 
      .ColorScheme-ButtonHover {                        
        color:#005cc7;                                  
        stop-color:#005cc7;                             
      }                                                 
      .ColorScheme-ButtonFocus{                         
        color:#0039a9;                                  
        stop-color:#0039a9;                             
      }</style>
    <linearGradient
       id="linearGradient3052">
      <stop
         style="stop-color:#555753"
         id="stop3054" />
      <stop
         offset="1"
         style="stop-color:#2e3436"
         id="stop3056" />
    </linearGradient>
    <radialGradient
       cx="25.641001"
       cy="3.6835999"
       r="17.995001"
       xlink:href="#linearGradient3052"
       id="radialGradient3082"
       gradientUnits="userSpaceOnUse"
       gradientTransform="matrix(0.58724559,-4e-7,0,0.25688859,387.29707,527.70784)" />
    <radialGradient
       cx="25.641001"
       cy="3.6835999"
       r="17.995001"
       xlink:href="#linearGradient3052"
       id="radialGradient3082-6"
       gradientUnits="userSpaceOnUse"
       gradientTransform="matrix(0.5872456,-4.0000001e-7,0,0.25688859,387.45769,529.05333)" />
  </defs>
  <sodipodi:namedview
     id="base"
     pagecolor="#002266"
     bordercolor="#ffffff"
     borderopacity="0.46666667"
     inkscape:pageopacity="0"
     inkscape:pageshadow="2"
     inkscape:zoom="12.859375"
     inkscape:cx="31.6838"
     inkscape:cy="21.027627"
     inkscape:document-units="px"
     inkscape:current-layer="svg8"
     inkscape:document-rotation="0"
     showgrid="false"
     inkscape:showpageshadow="false"
     borderlayer="true"
     units="px"
     fit-margin-top="0"
     fit-margin-left="0"
     fit-margin-right="0"
     fit-margin-bottom="0"
     inkscape:window-width="1920"
     inkscape:window-height="1051"
     inkscape:window-x="0"
     inkscape:window-y="0"
     inkscape:window-maximized="1"
     inkscape:snap-page="true" />
  <metadata
     id="metadata5">
    <rdf:RDF>
      <cc:Work
         rdf:about="">
        <dc:format>image/svg+xml</dc:format>
        <dc:type
           rdf:resource="http://purl.org/dc/dcmitype/StillImage" />
        <dc:title></dc:title>
      </cc:Work>
    </rdf:RDF>
  </metadata>
  <g
     id="g855"
     inkscape:label="#konqueror">
    <rect
       inkscape:label="#boundary"
       y="0"
       x="0"
       height="48"
       width="48.149998"
       id="rect4264"
       style="fill:none;fill-opacity:0.74651441;stroke-width:23.61599922;stroke-opacity:0.3596773" />
    <path
       style="opacity:0.6;fill:#ffffff;stroke-width:2.91517925;stroke-linecap:round;stroke-linejoin:round"
       d="M 22.431441,5.9999999 20.827437,9.8320311 A 14.55337,14.55337 0 0 0 18.375289,10.62744 L 14.820113,8.4741201 12.170211,10.40332 13.115035,14.4375 a 14.55337,14.55337 0 0 0 -1.507324,2.09619 L 7.4636676,16.876464 6.448531,20.000976 9.5862262,22.703613 A 14.55337,14.55337 0 0 0 9.5203082,24 a 14.55337,14.55337 0 0 0 0.065918,1.29199 l -3.1376952,2.707031 1.0151366,3.124515 4.1396484,0.342771 a 14.55337,14.55337 0 0 0 1.511719,2.08301 l -0.944824,4.047363 2.649902,1.929199 3.541992,-2.144531 a 14.55337,14.55337 0 0 0 2.465332,0.791015 L 22.431441,42 h 3.282714 l 1.608399,-3.832032 a 14.55337,14.55337 0 0 0 2.452149,-0.795411 l 3.550782,2.153322 2.654295,-1.929199 -0.949218,-4.03418 a 14.55337,14.55337 0 0 0 1.511718,-2.096193 l 4.139649,-0.342771 1.019532,-3.124515 -3.137695,-2.702637 A 14.55337,14.55337 0 0 0 38.629696,24 14.55337,14.55337 0 0 0 38.559386,22.708007 L 41.701467,20.000976 40.681936,16.876464 36.546681,16.53369 A 14.55337,14.55337 0 0 0 35.030568,14.450683 L 35.979787,10.40332 33.325491,8.4741201 29.787893,10.618651 A 14.55337,14.55337 0 0 0 27.322561,9.8232403 L 25.714162,5.9999999 Z m -0.549316,7.6289061 c 0.09765,0.02205 0.217402,0.343908 0.23291,0.457031 0.0155,0.119565 -0.0061,0.192398 0,0.303222 0.01332,0.186502 0.227363,0.170212 0.342774,0.268067 0.03323,0.02914 0.04593,0.112275 0.07471,0.15381 0.05557,0.07569 0.142815,0.07396 0.153808,0.15381 0.02221,0.19341 -0.171533,0.204232 -0.153808,0.417481 -0.03996,0.08453 -0.162337,0.117675 -0.153807,0.228514 0.01332,0.175838 0.273888,0.0162 0.342773,0.15381 0.03795,0.07339 -0.0086,0.1638 -0.03516,0.268067 0.08665,0.102083 0.07189,0.228515 -0.0791,0.228515 -0.09325,0 -0.09566,-0.130748 -0.188964,-0.15381 -0.0533,-0.0092 -0.122283,0.0092 -0.188964,0 -0.05553,-0.0092 -0.140115,-0.03058 -0.193359,-0.03517 -0.137666,-0.01395 -0.260578,0.0403 -0.342773,-0.03956 0.133236,-0.175365 0.28606,-0.3456 0.457031,-0.496582 0.05081,-0.04669 0.140893,-0.09799 0.114258,-0.188955 -0.09326,-0.08579 -0.17928,-0.0162 -0.268067,0.03517 -0.09548,0.05128 -0.196607,0.140063 -0.303222,0.15381 -0.184293,0.02396 -0.45986,-0.02315 -0.61084,0.0747 -0.02221,0.0821 0.180441,0.02725 0.153807,0.15381 -0.07549,0.0092 -0.17075,0.0513 -0.228515,0 -0.05091,-0.04714 -0.0063,-0.12618 -0.03955,-0.15381 -0.05773,-0.04381 -0.286825,-0.08845 -0.382324,-0.0747 -0.117668,0.0198 -0.173457,0.128835 -0.188964,0.228517 0.142095,0.06703 0.366425,-0.08939 0.417481,0.07911 -0.07547,0.137542 -0.288089,0.191452 -0.263672,0.377928 0.0088,0.07065 0.08946,0.184207 0.149413,0.193365 0.05996,0.0126 0.09385,-0.04262 0.153808,-0.03956 0.06217,0.0045 0.08053,0.04871 0.153808,0.03956 0.106564,-0.04484 0.145935,-0.162968 0.268066,-0.15381 0.146523,0.179572 -0.112637,0.287361 -0.268068,0.342776 -0.177635,0.06469 -0.440244,0.0961 -0.575683,0.15381 -0.07106,0.02871 -0.305017,0.276889 -0.342774,0.0747 -0.02885,-0.144518 0.120474,-0.108518 0.153808,-0.228517 -0.173192,-0.03323 -0.341157,0.0938 -0.496582,0.15381 -0.224253,0.08446 -0.592747,0.09214 -0.645996,0.342772 -0.0086,0.05078 0.03332,0.196155 0,0.228517 -0.02664,0.02779 -0.199184,0.01642 -0.268067,0.03956 -0.106564,0.0374 -0.201381,0.09578 -0.268066,0.114255 -0.04895,0.01395 -0.122661,0.02599 -0.153808,0.03517 -0.08885,0.03555 -0.08687,0.14868 -0.188964,0.228515 -0.04002,0.03465 -0.160029,0.04673 -0.193358,0.07911 -0.05773,0.05771 -0.08687,0.20547 -0.188964,0.228516 -0.06436,0.0045 -0.09384,-0.03695 -0.153808,0 -0.0061,0.142178 0.05997,0.313072 0,0.457032 -0.131017,0.108472 -0.288296,0.207652 -0.457031,0.303221 -0.09326,0.05312 -0.154852,0.05884 -0.268067,0.114255 -0.07994,0.03965 -0.177081,0.140242 -0.268066,0.193365 -0.213158,0.124312 -0.457031,0.253723 -0.457031,0.571291 0,0.06878 0.02854,0.14868 0.03955,0.228514 0.0061,0.04669 -0.0025,0.10251 0,0.15381 0.0155,0.115403 0.09771,0.302481 0,0.382325 -0.14877,-0.0623 -0.352609,-0.12195 -0.457031,-0.228515 -0.02905,-0.11124 0.04612,-0.207472 0.03516,-0.307618 -0.01116,-0.07981 -0.122413,-0.219352 -0.188964,-0.228516 -0.06668,-0.01103 -0.08271,0.07778 -0.153807,0.0747 -0.08436,-0.0068 -0.236155,-0.140265 -0.342774,-0.149423 -0.157644,-0.01845 -0.248682,0.02302 -0.421875,0 -0.168759,0.08865 -0.178049,0.242258 -0.382324,0.228517 -0.01888,-0.0016 -0.03804,-0.01575 -0.05713,-0.02205 a 10.62586,10.62586 0 0 1 1.665523,-2.693835 c -0.02653,0.07373 -0.03609,0.138803 0.03516,0.15381 0.07549,0.01575 0.252556,-0.168525 0.268066,-0.228515 0.05108,-0.204502 0.145578,-0.32631 0.303223,-0.421875 0.09099,-0.05539 0.138294,-0.07126 0.153808,-0.188954 -0.0055,-0.007 -0.0091,-0.0061 -0.01319,-0.0045 -0.0042,0.0017 -0.01082,0.0045 -0.02637,0.0045 -0.02877,-0.0014 -0.06245,0.007 -0.09668,0.0088 a 10.62586,10.62586 0 0 1 0.153804,-0.145016 c 0.05502,-0.0072 0.127355,-0.01395 0.136231,-0.01755 0.0851,-0.03649 0.08907,-0.0983 0.07031,-0.162607 a 10.62586,10.62586 0 0 1 1.217292,-0.953627 c 0.03118,0.07196 0.126785,0.158648 0.197755,0.162608 0.113233,0.0092 0.260963,-0.07583 0.307617,-0.188955 0.04493,-0.110205 0.04665,-0.240143 0.09229,-0.342774 a 10.62586,10.62586 0 0 1 0.215325,-0.123053 c 0.190895,-0.03179 0.342463,-0.111127 0.457031,-0.237305 a 10.62586,10.62586 0 0 1 1.661133,-0.645998 c 0.02468,0.07319 0.08619,0.123998 0.131837,0.131828 0.08214,0.01665 0.223346,-0.0027 0.303222,-0.03956 0.148772,-0.0688 0.218435,-0.291301 0.342773,-0.263671 z m 7.092773,0.953613 a 10.62586,10.62586 0 0 1 0.193365,0.0923 10.62586,10.62586 0 0 1 0.109868,0.06593 c -0.0019,0.06473 -0.07634,0.05346 -0.105458,0.140625 -0.02837,0.08446 0.0027,0.20808 -0.03517,0.268065 -0.0333,0.0461 -0.09166,0.02115 -0.15381,0.03956 -0.139883,0.04001 -0.422919,0.21933 -0.536133,0.03517 0.01755,-0.09965 0.08093,-0.10683 0.114255,-0.188955 0.0023,-0.06226 -0.08568,-0.08496 -0.0747,-0.15381 0.0135,-0.08212 0.13752,-0.0819 0.228517,-0.114255 0.06437,-0.02439 0.06941,-0.10251 0.15381,-0.15381 0.03299,-0.01688 0.06836,-0.02228 0.105458,-0.03076 z m 0.637207,0.364745 a 10.62586,10.62586 0 0 1 0.681151,0.448243 c -0.146812,0.07691 -0.32442,0.06797 -0.54492,0.09668 -0.113243,0.01372 -0.227241,0.09326 -0.347169,0 -0.02673,-0.0734 0.06808,-0.08267 0.07911,-0.15381 -0.009,-0.06656 -0.05906,-0.05884 -0.07911,-0.114255 0.03321,-0.08636 0.08764,-0.06012 0.07911,-0.188955 0.03575,-0.03854 0.07994,-0.065 0.131828,-0.08788 z m 0.834961,0.566895 a 10.62586,10.62586 0 0 1 1.476563,1.340331 c -0.05204,-0.05866 -0.110858,-0.10539 -0.193365,-0.10107 v -0.0043 c -0.07115,0.004 -0.131175,0.0819 -0.188955,0.114255 -0.05326,0.02671 -0.100553,0.07731 -0.15381,0.114255 -0.0644,0.04153 -0.129015,0.03209 -0.188978,0.03517 -0.139882,0.0092 -0.262392,-0.0628 -0.382324,-0.03517 -0.03996,0.0088 -0.03029,0.0286 -0.07911,0.0747 -0.0023,0.06469 0.0085,0.08267 0,0.15381 -0.03555,0.06183 -0.185985,0.07274 -0.263671,0.114255 -0.11547,0.06001 -0.174757,0.17478 -0.268067,0.268067 -0.05996,0.05996 -0.14526,0.107235 -0.15381,0.15381 -0.0065,0.03555 0.04808,0.104805 0.03956,0.15381 -0.01103,0.0531 -0.12681,0.142403 -0.193365,0.188955 -0.0398,0.02642 -0.072,0.05166 -0.114255,0.0747 -0.08885,0.05125 -0.115673,0.140063 -0.188955,0.15381 -0.195368,0.03555 -0.573714,-0.05251 -0.571291,0.15381 0.0023,0.134303 0.190013,0.158378 0.303224,0.15381 0.157657,-0.0045 0.256182,0.02302 0.342774,0 0.05994,-0.0153 0.166342,-0.08662 0.228514,-0.114255 0.04005,-0.01845 0.08323,-0.02581 0.114255,-0.03956 0.06669,-0.03328 0.10278,-0.09122 0.15381,-0.114255 0.102128,-0.04671 0.313056,-0.109665 0.421875,-0.114255 0.150998,-0.0092 0.26386,0.01372 0.457031,0 0.06883,-0.0045 0.115673,-0.03058 0.188955,-0.03517 0.122108,-0.01237 0.324169,0.03823 0.421875,0.03517 0.06883,0 0.148545,-0.03517 0.228517,-0.03517 0.09104,0.0023 0.17343,0.05654 0.188955,0.114255 0.01103,0.03141 -0.0085,0.104805 0,0.15381 0.01103,0.07981 0.08399,0.0963 0.07911,0.149422 -0.0045,0.06878 -0.2178,0.18594 -0.193365,0.268068 0.01553,0.05128 0.16857,0.116865 0.228515,0.15381 0.06219,0.03645 0.1926,0.02601 0.268067,0.03517 0.06217,0.0092 0.09383,-0.0045 0.15381,0 0.09547,0.01125 0.243261,0.07274 0.303223,0.114255 0.104355,0.07339 0.07123,0.226537 0.193365,0.268065 0.05328,0.01845 0.161933,-0.01372 0.228517,0 0.157005,0.03443 0.289001,0.154238 0.404296,0.149423 a 10.62586,10.62586 0 0 1 0.962422,4.390141 10.62586,10.62586 0 0 1 -2.632325,6.987305 c -0.01147,-0.05814 -0.01237,-0.12447 -0.07031,-0.15381 0.04057,-0.277458 -4.93e-4,-0.355065 0.03956,-0.874509 0.01778,-0.386217 -0.201893,-0.593422 -0.193365,-0.993166 -0.0023,-0.166185 0.113085,-0.324059 0.228514,-0.457031 0.244233,-0.412884 0.373025,-0.65975 0.421875,-1.032717 -0.02664,-0.07751 0.0288,-0.09153 0,-0.15381 -0.113242,-0.246581 -0.180697,-0.499072 -0.342774,-0.685545 -0.08883,-0.102488 -0.194805,-0.17478 -0.268065,-0.268068 -0.05996,-0.07571 -0.15381,-0.210375 -0.15381,-0.268065 -0.0023,-0.06424 0.0216,-0.124852 0.03956,-0.188955 0.02205,-0.08217 0.04367,-0.253482 0.0747,-0.382324 0.0135,-0.06001 0.09009,-0.132953 0.07911,-0.228517 -0.01103,-0.09324 -0.150345,-0.315142 -0.268067,-0.342771 -0.155408,-0.03692 -0.301201,0.01845 -0.496582,0 -0.170977,-0.108473 -0.177637,-0.380536 -0.421875,-0.417481 -0.319729,-0.04664 -0.654694,0.132952 -0.874512,0.228514 -0.12654,0.05542 -0.271309,0.109665 -0.382324,0.114255 -0.106583,0.007 -0.205538,-0.06995 -0.307616,-0.07911 -0.133245,-0.0135 -0.286481,0.05605 -0.417481,0.07911 -0.126585,0.02182 -0.229565,0.06554 -0.342774,0.0747 -0.215415,0.01553 -0.400691,-0.196515 -0.536134,-0.303223 -0.08217,-0.06471 -0.190395,-0.09383 -0.268067,-0.15381 -0.08215,-0.06446 -0.203715,-0.09153 -0.268065,-0.15381 -0.0866,-0.08447 -0.102758,-0.269206 -0.149423,-0.382322 -0.05548,-0.13293 -0.181057,-0.216225 -0.307615,-0.342774 -0.09324,-0.09324 -0.318357,-0.262337 -0.342774,-0.382325 -0.01328,-0.06181 0.04444,-0.122557 0.03956,-0.188955 -0.0065,-0.09736 -0.116685,-0.15966 -0.114255,-0.228517 0.0023,-0.09736 0.122805,-0.146385 0.149422,-0.228514 0.01328,-0.04243 -0.01553,-0.100688 0,-0.15381 0.03089,-0.113085 0.129758,-0.178425 0.114255,-0.342774 -0.0065,-0.06651 -0.03274,-0.108945 -0.03517,-0.193365 -0.0023,-0.05769 0.04129,-0.100688 0.03517,-0.15381 -0.0068,-0.09551 -0.138442,-0.11952 -0.149422,-0.228517 -0.01328,-0.113085 0.07835,-0.21393 0.149422,-0.342774 0.03089,-0.05767 0.08545,-0.107707 0.114255,-0.15381 0.06217,-0.09324 0.144518,-0.170392 0.193365,-0.263671 0.03328,-0.06876 0.0083,-0.17721 0.03956,-0.228516 0.04217,-0.06653 0.15084,-0.10665 0.228517,-0.193365 0.06228,-0.0711 0.104962,-0.121455 0.149422,-0.15381 0.05551,-0.03969 0.133403,-0.08662 0.193365,-0.114255 0.206483,-0.09556 0.317577,-0.219915 0.417479,-0.417479 -0.029,-0.177705 0.04095,-0.218655 0.114255,-0.342774 0.06883,-0.115402 0.117495,-0.276367 0.232911,-0.342774 0.139882,-0.07981 0.319779,-0.04709 0.417481,-0.193365 0.04885,-0.07524 0.07911,-0.22567 0.07911,-0.303223 0,-0.108945 -0.09567,-0.254325 -0.193365,-0.268065 -0.102128,-0.01845 -0.245451,0.109012 -0.303224,0 -0.01778,-0.03555 0.0085,-0.112275 0,-0.15381 -0.01328,-0.07337 -0.111847,-0.175388 -0.114255,-0.228517 -0.0065,-0.104783 0.118373,-0.187628 0.149423,-0.307618 0.04228,-0.164317 0.01103,-0.268234 0,-0.457031 0.15543,-0.246546 0.495202,-0.137318 0.839355,-0.114255 0.05116,0.0045 0.09821,0 0.15381,0 0.204255,0.0043 0.38815,0.02392 0.457032,-0.15381 0.02664,-0.06647 0.01755,-0.280487 0,-0.342772 -0.01755,-0.07524 -0.120105,-0.296671 -0.188955,-0.342774 -0.111015,-0.06883 -0.320162,-0.0274 -0.382325,-0.15381 0.05105,-0.21969 0.310491,-0.0216 0.457031,-0.0747 0.07526,-0.02684 0.04759,-0.135337 0.114255,-0.15381 0.04658,-0.01665 0.16416,0.03956 0.228517,0.03956 0.0533,0 0.177458,-0.116865 0.228515,-0.15381 0.04266,-0.02801 0.06656,-0.06016 0.0923,-0.0923 z m -13.2583,0.856935 c -0.08885,-0.0063 -0.155635,0.07274 -0.188964,0.114255 -0.0046,0.06698 0.03757,0.08739 0.03516,0.153809 -0.108853,0.07756 -0.02751,0.294062 0.0791,0.303222 0.113247,0.0092 0.152233,-0.275592 0.303223,-0.303222 0.05324,-0.01102 0.08053,0.08386 0.153807,0.0747 0.08895,-0.06876 0.05375,-0.245015 -0.03955,-0.268067 -0.03558,-0.01237 -0.128999,0.04412 -0.188964,0.03956 -0.06217,-0.0045 -0.100544,-0.111195 -0.15381,-0.114254 z m 0.892089,0.48779 c -0.02844,0.0029 -0.06011,0.0088 -0.08789,0.0088 -0.05557,0 -0.102756,-0.0031 -0.153808,0 -0.03554,0.0032 -0.08481,-0.0045 -0.114257,0 -0.02931,0.0045 -0.07668,0.0076 -0.0791,0.03517 0.115452,0.05449 0.461037,0.11124 0.496582,-0.03517 -0.01118,-0.01147 -0.03311,-0.0117 -0.06152,-0.0088 z m 13.882324,0.03956 a 10.62586,10.62586 0 0 1 0.184568,0.210938 c -0.02205,-0.0189 -0.06167,-0.03575 -0.0747,-0.05274 -0.03206,-0.04257 -0.07013,-0.103388 -0.109868,-0.158198 z m -0.175792,0.219735 c 0.0031,-0.0029 0.0076,-0.0029 0.02205,0.01328 0.0135,0.09324 0.0117,0.160988 -0.03956,0.193365 -0.10881,-0.0198 -0.07326,-0.170302 0,-0.193365 0.01103,-0.0045 0.01462,-0.01035 0.01755,-0.01328 z m -14.427246,0.0088 c -0.01892,0.0017 -0.03824,0.0043 -0.05713,0.0043 v 0.0045 c -0.113247,0 -0.28462,0.02601 -0.382324,0.03517 -0.07547,0.01125 -0.167229,-0.0011 -0.149413,0.114255 0.01553,0.09191 0.144126,0.06719 0.228515,0.03956 0.177635,-0.0554 0.315382,-0.10665 0.41748,-0.193365 -0.01991,-0.0068 -0.03822,-0.0061 -0.05713,-0.0045 z m 14.370116,0.312009 c 0.10665,-0.02907 0.196043,0.07243 0.15381,0.303224 -0.03555,0.09191 -0.196987,0.177097 -0.268067,0.03956 0.02441,-0.108473 0.0023,-0.18351 0,-0.307618 0.03749,-0.03998 0.07871,-0.02601 0.114255,-0.03517 z m 0.953613,0.610841 h 0.03956 c 0.06199,0.0029 0.10125,9.61e-4 0.145013,0 a 10.62586,10.62586 0 0 1 0.06151,0.0835 c -0.0083,0.07052 -0.0068,0.150772 -0.05274,0.184567 -0.184298,-0.03323 -0.339681,-0.05994 -0.421875,-0.193365 0.05771,-0.04381 0.130792,-0.07929 0.228514,-0.0747 z m -18.127429,3.361809 c 0.05972,0.04891 0.122801,0.153247 0.114258,0.228514 -0.0067,0.05814 -0.08544,0.109125 -0.114258,0.188955 -0.0243,0.07108 -0.01516,0.17082 -0.03955,0.228517 -0.03334,0.07524 -0.127181,0.12222 -0.153808,0.193365 -0.0155,0.04669 0.0155,0.07274 0,0.114255 -0.02651,0.07292 -0.158715,0.113692 -0.114257,0.188955 0.23758,0.09328 0.520771,-0.03692 0.729492,0 0.08881,0.01575 0.305667,0.132795 0.303223,0.268067 -0.002,0.102015 -0.103264,0.196785 -0.114257,0.307616 -0.01332,0.13986 -0.06861,0.304359 -0.07471,0.41748 -0.0088,0.184118 0.261632,0.499653 0.457031,0.496582 0.210929,-0.0018 0.355506,-0.185535 0.61084,-0.0747 0.08437,0.03553 0.17476,0.158378 0.268066,0.15381 0.07771,-0.0045 0.177465,-0.135247 0.228516,-0.228514 0.0644,-0.113085 0.07794,-0.210375 0.188964,-0.268068 0.1199,-0.06183 0.229113,-0.05654 0.382324,-0.114255 0.06882,-0.02444 0.12681,-0.07274 0.188964,-0.114255 0.05337,-0.03389 0.08725,-0.105952 0.153808,-0.03956 0.08889,0.08865 -0.115038,0.0934 -0.03955,0.188955 0.153199,0.08217 0.23615,-0.14634 0.347169,-0.149422 0.03554,-0.0023 0.164155,0.107887 0.228515,0.149422 0.08653,0.05767 0.09346,0.174893 0.188964,0.193365 0.05995,0.0135 0.181478,-0.08827 0.268067,-0.07911 0.113247,0.01575 0.181476,0.15687 0.268066,0.15381 0.104362,-0.0023 0.17928,-0.135337 0.268066,-0.15381 0.195384,-0.0374 0.256182,0.03152 0.342774,0.15381 0.09551,0.0189 0.06063,-0.08127 0.149413,-0.03517 -0.04886,0.09736 0.03917,0.109125 0.0791,0.188955 0.02212,0.05085 0.0151,0.09121 0.03955,0.114255 0.0533,0.05085 0.185998,0.06525 0.263672,0.114255 0.08213,0.05123 0.100064,0.15921 0.193358,0.268067 0.09769,0.110813 0.253554,0.184208 0.382324,0.193365 0.122119,0.0092 0.240672,-0.0092 0.342774,0 0.228701,0.02912 0.371872,0.139568 0.531738,0.263671 0.09104,0.06883 0.164558,0.11124 0.19336,0.193365 0.02228,0.05769 -0.02228,0.163935 0,0.228517 0.04886,0.13941 0.301792,0.177907 0.228516,0.41748 0.03332,0.06928 0.06954,0.10494 0.149413,0.15381 0.06439,0.03971 0.124482,0.105098 0.193359,0.114255 0.04438,0.0045 0.149033,-0.0031 0.188964,0 0.126567,0.0088 0.198805,0.0376 0.307617,0.07911 0.06882,0.02444 0.14451,0.04232 0.188964,0.0747 0.05532,0.03785 0.04538,0.1566 0.114257,0.188955 0.04444,0.02302 0.192586,-0.0092 0.268066,0 0.1199,0.0135 0.236152,0.111195 0.342774,0.114255 0.06436,0.0032 0.09603,-0.0031 0.153807,0 0.273093,0.02228 0.463092,0.324021 0.725098,0.421875 0.08217,0.02777 0.21249,0.01215 0.268067,0.03517 0.09772,0.04201 0.145282,0.327994 0.15381,0.461425 0.02228,0.404028 -0.281579,0.533473 -0.461426,0.799803 -0.03749,0.05537 -0.06102,0.190508 -0.114255,0.268068 -0.10656,0.15741 -0.20448,0.168525 -0.188955,0.457031 0.0022,0.07981 0.03956,0.100395 0.03956,0.188977 0,0.10665 -0.01507,0.286761 -0.03956,0.382323 -0.01755,0.07294 -0.02855,0.126967 -0.03956,0.193365 -0.01103,0.06698 0.0085,0.131265 0,0.188955 -0.0088,0.06417 -0.06541,0.139815 -0.114257,0.228516 -0.102145,0.191003 -0.173608,0.42132 -0.382324,0.496582 -0.124351,0.04383 -0.284257,0.02815 -0.417481,0.0747 -0.05551,0.01957 -0.12681,0.08188 -0.193358,0.114255 -0.193156,0.09095 -0.478488,0.22203 -0.531738,0.421875 -0.04886,0.177525 0.108042,0.329553 0.07471,0.531738 -0.03528,0.05996 -0.06101,0.08496 -0.114257,0.15381 -0.04664,0.06408 -0.10276,0.131085 -0.153808,0.193365 -0.06662,0.08215 -0.188588,0.15057 -0.228515,0.263673 -0.01332,0.0374 0.0155,0.05427 0,0.114255 -0.0067,0.02205 -0.05467,0.03762 -0.07471,0.07911 -0.01775,0.0374 0.0155,0.156623 0,0.188978 -0.05107,0.101992 -0.233955,0.310405 -0.342773,0.342771 -0.230909,0.0646 -0.450973,-0.146632 -0.61084,-0.114255 0.02221,0.113108 0.09615,0.150975 0.149413,0.228517 0.02829,0.04484 -0.0025,0.104963 0.03955,0.15381 0.05081,0.05767 0.108175,0.08968 0.114257,0.15381 0.01332,0.137588 -0.08052,0.256658 -0.153808,0.303224 -0.0666,0.03996 -0.185492,0.02093 -0.303222,0.03956 -0.08214,0.0135 -0.342398,0.06113 -0.382325,0.114255 -0.0032,0.0045 0.0022,0.0126 0,0.01755 a 10.62586,10.62586 0 0 1 -2.188473,-1.085433 c -0.0059,-0.115132 -0.01121,-0.242404 -0.02637,-0.312012 -0.02664,-0.12879 -0.173457,-0.242491 -0.188964,-0.382324 -0.0068,-0.0508 0.0796,-0.12483 0.07471,-0.188955 -0.0043,-0.05996 -0.06862,-0.08496 -0.07471,-0.15381 -0.0049,-0.06415 -0.0061,-0.153248 0,-0.228517 0.01103,-0.139882 -0.0025,-0.284328 0,-0.421875 0.0025,-0.04012 0,-0.10791 0,-0.149422 0,-0.115426 -0.03344,-0.19224 -0.03955,-0.307618 -0.0086,-0.21105 0.03332,-0.376034 0,-0.571289 -0.02649,-0.148635 -0.06101,-0.363755 -0.114258,-0.457031 -0.05994,-0.10431 -0.299747,-0.241211 -0.41748,-0.307618 -0.07771,-0.04428 -0.144126,-0.07272 -0.228516,-0.114255 -0.179847,-0.08863 -0.570519,-0.277015 -0.65039,-0.457031 -0.02223,-0.0531 0.02441,-0.17082 0,-0.228517 -0.04886,-0.115357 -0.19479,-0.19422 -0.268068,-0.303223 -0.137612,-0.210893 -0.202898,-0.474842 -0.342773,-0.68994 -0.07105,-0.11079 -0.150838,-0.216518 -0.228516,-0.303224 -0.04664,-0.05081 -0.171238,-0.115807 -0.188964,-0.193365 -0.0243,-0.104332 -0.125251,-0.265218 -0.114257,-0.342774 0.01553,-0.106672 0.228515,-0.130657 0.228515,-0.228516 0,-0.08208 -0.09201,-0.15966 -0.114257,-0.228515 -0.0556,-0.171247 0.04757,-0.275355 0.114257,-0.417481 0.01989,-0.04669 0.01289,-0.121432 0.03516,-0.15381 0.04006,-0.05998 0.100554,-0.08739 0.153807,-0.15381 0.0309,-0.03553 0.07434,-0.100665 0.114258,-0.15381 0.08437,-0.11124 0.232527,-0.166095 0.268066,-0.268067 0.02881,-0.08213 0.03332,-0.473292 0,-0.610839 -0.01991,-0.07978 -0.08545,-0.153247 -0.114257,-0.228514 -0.05108,-0.135248 -0.09086,-0.306295 -0.228516,-0.303224 -0.08665,0 -0.137778,0.0938 -0.193358,0.15381 -0.01319,0.07978 -0.03206,0.20547 -0.114257,0.228515 -0.126567,0.03785 -0.156681,-0.182408 -0.303223,-0.228515 -0.05777,-0.01845 -0.116048,0.01372 -0.153808,0 -0.106566,-0.04892 -0.154854,-0.205785 -0.268068,-0.268069 -0.09327,-0.05128 -0.210298,-0.07625 -0.268066,-0.15381 -0.02223,-0.05308 0.0061,-0.117833 0,-0.188955 -0.12213,-0.0711 -0.200664,-0.320038 -0.342774,-0.382325 -0.09325,-0.04381 -0.264591,-0.03317 -0.382324,-0.0747 -0.05545,-0.01755 -0.09164,-0.06995 -0.149414,-0.07911 -0.07101,-0.01395 -0.137792,-0.0076 -0.193358,-0.03517 -0.02359,-0.0117 -0.04014,-0.03969 -0.06152,-0.05713 a 10.62586,10.62586 0 0 1 0.140625,-0.953613 c 0.02436,-0.0065 0.05466,-0.0108 0.07471,-0.01755 0.242024,-0.07567 0.177689,-0.387733 0.417481,-0.496584 0.106578,-0.04856 0.237582,-0.06554 0.421875,-0.0747 z m 2.939942,2.438964 c -0.07987,0.03785 -0.0822,0.162967 0,0.15381 0.08659,-0.0135 0.106621,-0.202815 0,-0.15381 z"
       id="path4814"
       inkscape:connector-curvature="0"
       inkscape:label="#" />
  </g>
</svg>
