<?xml version="1.0" encoding="UTF-8" standalone="no"?>
<!-- Created with Inkscape (http://www.inkscape.org/) -->

<svg
   xmlns:dc="http://purl.org/dc/elements/1.1/"
   xmlns:cc="http://creativecommons.org/ns#"
   xmlns:rdf="http://www.w3.org/1999/02/22-rdf-syntax-ns#"
   xmlns:svg="http://www.w3.org/2000/svg"
   xmlns="http://www.w3.org/2000/svg"
   xmlns:sodipodi="http://sodipodi.sourceforge.net/DTD/sodipodi-0.dtd"
   xmlns:inkscape="http://www.inkscape.org/namespaces/inkscape"
   width="16"
   height="16"
   viewBox="0 0 4.2333332 4.2333332"
   version="1.1"
   id="svg8"
   inkscape:version="0.92+devel (f96dc7e339, 2017-07-28, custom)"
   sodipodi:docname="kronometer.svg">
  <defs
     id="defs2" />
  <sodipodi:namedview
     id="base"
     pagecolor="#002466"
     bordercolor="#ffffff"
     borderopacity="0.38039216"
     inkscape:pageopacity="1"
     inkscape:pageshadow="2"
     inkscape:zoom="25.75"
     inkscape:cx="10.094581"
     inkscape:cy="7.9551128"
     inkscape:document-units="px"
     inkscape:current-layer="svg8"
     inkscape:document-rotation="0"
     showgrid="false"
     inkscape:showpageshadow="false"
     borderlayer="true"
     inkscape:window-width="1920"
     inkscape:window-height="1051"
     inkscape:window-x="0"
     inkscape:window-y="0"
     inkscape:window-maximized="1"
     units="px"
     inkscape:snap-object-midpoints="true"
     inkscape:snap-center="true"
     inkscape:snap-page="true"
     inkscape:snap-grids="false"
     inkscape:snap-to-guides="false">
    <inkscape:grid
       type="xygrid"
       id="grid1021" />
  </sodipodi:namedview>
  <metadata
     id="metadata5">
    <rdf:RDF>
      <cc:Work
         rdf:about="">
        <dc:format>image/svg+xml</dc:format>
        <dc:type
           rdf:resource="http://purl.org/dc/dcmitype/StillImage" />
        <dc:title></dc:title>
      </cc:Work>
    </rdf:RDF>
  </metadata>
  <g
     id="g1059"
     inkscape:label="#kronometer">
    <rect
       inkscape:label="#boundary"
       y="0"
       x="0"
       height="4.2333331"
       width="4.2333331"
       id="rect1052"
       style="font-variation-settings:normal;vector-effect:none;fill:none;stroke:none;stroke-width:1.03187501;stroke-linecap:butt;stroke-miterlimit:5.5;stroke-dasharray:none;stroke-opacity:1" />
    <path
       inkscape:label="#"
       inkscape:connector-curvature="0"
       id="path998"
       d="M 0.91015114,0.52916665 0.54893288,0.89038485 0.70628761,1.0477396 0.79581703,0.95859775 0.91712744,1.0799082 a 1.5874999,1.5874999 0 0 0 -0.38796079,1.0367583 1.5874999,1.5874999 0 0 0 1.58749985,1.5875 1.5874999,1.5874999 0 0 0 1.5875,-1.5875 A 1.5874999,1.5874999 0 0 0 3.3076791,1.0690561 L 3.4181375,0.95859775 3.5072792,1.0477396 3.664634,0.89038485 3.3034158,0.52916665 l -0.1573547,0.1573547 0.079065,0.079065 -0.1139466,0.1143341 a 1.5874999,1.5874999 0 0 0 -0.994513,-0.3507538 1.5874999,1.5874999 0 0 0 -1.0053649,0.359668 L 0.98805335,0.76558635 1.0675059,0.68652135 Z M 2.1166665,0.83689975 A 1.2798142,1.2798142 0 0 1 3.3964334,2.1166665 1.2798142,1.2798142 0 0 1 2.1166665,3.3964334 1.2798142,1.2798142 0 0 1 0.83689978,2.1166665 1.2798142,1.2798142 0 0 1 2.1166665,0.83689975 Z"
       style="font-variation-settings:normal;opacity:0.36170211;vector-effect:none;fill:#d0d0d0;stroke:none;stroke-width:1.03187501;stroke-linecap:butt;stroke-miterlimit:5.5;stroke-dasharray:none;stroke-opacity:1" />
    <path
       inkscape:label="#"
       inkscape:connector-curvature="0"
       id="path994"
       d="M 3.080685,1.5595091 2.6895877,1.7850899 c 0.05319,0.092128 0.083146,0.1962163 0.087786,0.3024957 L 3.2290792,2.0680172 C 3.221272,1.8892031 3.1701771,1.714514 3.080685,1.5595091 Z M 2.7784609,2.1166665 c 0,0.1063813 -0.026163,0.2108528 -0.075284,0.3052136 L 3.1040584,2.6306103 C 3.1867041,2.4718492 3.2298946,2.2956509 3.2298944,2.1166665 Z M 1.455144,2.1454755 1.0042541,2.1647725 c 0.00781,0.1788141 0.057815,0.3532314 0.147307,0.5082363 L 1.5434737,2.4468843 C 1.4902834,2.354756 1.4597842,2.2517551 1.455144,2.1454755 Z m 1.2339,0.3019523 C 2.6358537,2.5395562 2.5618807,2.617481 2.4721603,2.6746395 L 2.7143199,3.0551374 C 2.8652739,2.9589684 2.9911928,2.8285574 3.080685,2.6735523 Z M 1.5584219,2.4718878 1.1771088,2.714863 C 1.2732774,2.8658168 1.404504,2.9911923 1.5595091,3.0806845 L 1.7850899,2.6895877 C 1.6929615,2.6363971 1.6155802,2.561609 1.5584219,2.4718878 Z m 0.8890059,0.2171557 c -0.092128,0.05319 -0.1959445,0.083961 -0.3022239,0.088601 l 0.019297,0.4508906 C 2.3433149,3.2207253 2.5185472,3.1701773 2.6735523,3.080685 Z M 1.8106376,2.7031768 1.6019074,3.1040584 c 0.1587611,0.082646 0.3357748,0.1258362 0.5147591,0.125836 V 2.7784609 c -0.1063801,0 -0.2116681,-0.026163 -0.3060289,-0.075284 z"
       style="color:#000000;font-style:normal;font-variant:normal;font-weight:normal;font-stretch:normal;font-size:medium;line-height:normal;font-family:sans-serif;font-variant-ligatures:normal;font-variant-position:normal;font-variant-caps:normal;font-variant-numeric:normal;font-variant-alternates:normal;font-variant-east-asian:normal;font-feature-settings:normal;font-variation-settings:normal;text-indent:0;text-align:start;text-decoration:none;text-decoration-line:none;text-decoration-style:solid;text-decoration-color:#000000;letter-spacing:normal;word-spacing:normal;text-transform:none;writing-mode:lr-tb;direction:ltr;text-orientation:mixed;dominant-baseline:auto;baseline-shift:baseline;text-anchor:start;white-space:normal;shape-padding:0;clip-rule:nonzero;display:inline;overflow:visible;visibility:visible;opacity:0.1744681;isolation:auto;mix-blend-mode:normal;color-interpolation:sRGB;color-interpolation-filters:linearRGB;solid-color:#000000;solid-opacity:1;vector-effect:none;fill:#d0d0d0;fill-opacity:1;fill-rule:nonzero;stroke:none;stroke-width:1.03187501;stroke-linecap:butt;stroke-linejoin:miter;stroke-miterlimit:5.5;stroke-dasharray:none;stroke-dashoffset:0;stroke-opacity:1;color-rendering:auto;image-rendering:auto;shape-rendering:auto;text-rendering:auto;enable-background:accumulate" />
    <path
       inkscape:label="#"
       inkscape:connector-curvature="0"
       id="path913"
       d="m 2.1166665,1.0034386 v 0.4514336 c 0.1063813,0 0.2108529,0.025348 0.3052136,0.074469 L 2.6306103,1.129003 C 2.4718492,1.0463572 2.2956509,1.0034386 2.1166665,1.0034386 Z m -0.048921,2.718e-4 c -0.1788139,0.00781 -0.3529594,0.05863 -0.5079643,0.1481224 l 0.2261244,0.3919127 c 0.092128,-0.05319 0.1954009,-0.083689 0.3016803,-0.08833 z M 2.6730087,1.151561 2.4468843,1.5434737 c 0.092128,0.05319 0.1705968,0.1277068 0.2277552,0.2174274 L 3.055409,1.5187414 C 2.9592408,1.3677875 2.8280138,1.2410532 2.6730087,1.151561 Z M 1.5181978,1.1771088 C 1.3672439,1.273277 1.241325,1.4047758 1.1518329,1.5597809 L 1.5437455,1.7859053 C 1.5969359,1.6937768 1.6714523,1.6153084 1.7611729,1.5581501 Z M 1.129003,1.6019074 C 1.0463572,1.7606684 1.0034387,1.9376822 1.0034387,2.1166665 h 0.4514335 c 0,-0.1063801 0.025348,-0.2116681 0.074469,-0.3060289 z"
       style="color:#000000;font-style:normal;font-variant:normal;font-weight:normal;font-stretch:normal;font-size:medium;line-height:normal;font-family:sans-serif;font-variant-ligatures:normal;font-variant-position:normal;font-variant-caps:normal;font-variant-numeric:normal;font-variant-alternates:normal;font-variant-east-asian:normal;font-feature-settings:normal;font-variation-settings:normal;text-indent:0;text-align:start;text-decoration:none;text-decoration-line:none;text-decoration-style:solid;text-decoration-color:#000000;letter-spacing:normal;word-spacing:normal;text-transform:none;writing-mode:lr-tb;direction:ltr;text-orientation:mixed;dominant-baseline:auto;baseline-shift:baseline;text-anchor:start;white-space:normal;shape-padding:0;clip-rule:nonzero;display:inline;overflow:visible;visibility:visible;opacity:0.81702127;isolation:auto;mix-blend-mode:normal;color-interpolation:sRGB;color-interpolation-filters:linearRGB;solid-color:#000000;solid-opacity:1;vector-effect:none;fill:#d0d0d0;fill-opacity:1;fill-rule:nonzero;stroke:none;stroke-width:1.03187501;stroke-linecap:butt;stroke-linejoin:miter;stroke-miterlimit:5.5;stroke-dasharray:none;stroke-dashoffset:0;stroke-opacity:1;color-rendering:auto;image-rendering:auto;shape-rendering:auto;text-rendering:auto;enable-background:accumulate" />
    <path
       inkscape:label="#"
       inkscape:connector-curvature="0"
       id="path1018"
       d="M 2.3761589,2.1166665 A 0.25949238,0.25949238 0 0 1 2.1166665,2.3761589 0.25949238,0.25949238 0 0 1 1.8571741,2.1166665 0.25949238,0.25949238 0 0 1 2.1166665,1.8571742 0.25949238,0.25949238 0 0 1 2.3761589,2.1166665 Z"
       style="font-variation-settings:normal;vector-effect:none;fill:#00ff00;stroke:none;stroke-width:1.03187501;stroke-linecap:butt;stroke-miterlimit:5.5;stroke-dasharray:none;stroke-opacity:1" />
  </g>
</svg>
