<?xml version="1.0" encoding="UTF-8" standalone="no"?>
<!-- Created with Inkscape (http://www.inkscape.org/) -->

<svg
   xmlns:dc="http://purl.org/dc/elements/1.1/"
   xmlns:cc="http://creativecommons.org/ns#"
   xmlns:rdf="http://www.w3.org/1999/02/22-rdf-syntax-ns#"
   xmlns:svg="http://www.w3.org/2000/svg"
   xmlns="http://www.w3.org/2000/svg"
   xmlns:sodipodi="http://sodipodi.sourceforge.net/DTD/sodipodi-0.dtd"
   xmlns:inkscape="http://www.inkscape.org/namespaces/inkscape"
   width="48.149998"
   height="48"
   viewBox="0 0 48.149998 48"
   version="1.1"
   id="svg8"
   inkscape:version="0.92+devel (f96dc7e339, 2017-07-28, custom)"
   sodipodi:docname="kshisen.svg">
  <defs
     id="ol-defs">
    <style
       id="current-color-scheme">      .ColorScheme-Text {
        color:#d0d0d0;
        stop-color:#d0d0d0;
      }
      .ColorScheme-Background {
        color:#212121;
        stop-color:#212121;
      }
      .ColorScheme-Highlight {
        color:#0039a9;
        stop-color:#0039a9;
      }
      .ColorScheme-ViewText {
        color:#d0d0d0;
        stop-color:#d0d0d0;
      }
      .ColorScheme-ViewBackground {
        color:#19191b;
        stop-color:#19191b;
      }
      .ColorScheme-ViewHover {
        color:#005cc7;
        stop-color:#005cc7;
      }
      .ColorScheme-ViewFocus{
        color:#002466;
        stop-color:#002466;
      }
      .ColorScheme-ButtonText {
        color:#d0d0d0;
        stop-color:#d0d0d0;
      }
      .ColorScheme-ButtonBackground {
        color:#232323;
        stop-color:#232323;                             
      }                                                 
      .ColorScheme-ButtonHover {                        
        color:#005cc7;                                  
        stop-color:#005cc7;                             
      }                                                 
      .ColorScheme-ButtonFocus{                         
        color:#0039a9;                                  
        stop-color:#0039a9;                             
      }</style>
    <style
       id="current-color-scheme-7">      .ColorScheme-Text {
        color:#d0d0d0;
        stop-color:#d0d0d0;
      }
      .ColorScheme-Background {
        color:#212121;
        stop-color:#212121;
      }
      .ColorScheme-Highlight {
        color:#0039a9;
        stop-color:#0039a9;
      }
      .ColorScheme-ViewText {
        color:#d0d0d0;
        stop-color:#d0d0d0;
      }
      .ColorScheme-ViewBackground {
        color:#19191b;
        stop-color:#19191b;
      }
      .ColorScheme-ViewHover {
        color:#005cc7;
        stop-color:#005cc7;
      }
      .ColorScheme-ViewFocus{
        color:#002466;
        stop-color:#002466;
      }
      .ColorScheme-ButtonText {
        color:#d0d0d0;
        stop-color:#d0d0d0;
      }
      .ColorScheme-ButtonBackground {
        color:#232323;
        stop-color:#232323;                             
      }                                                 
      .ColorScheme-ButtonHover {                        
        color:#005cc7;                                  
        stop-color:#005cc7;                             
      }                                                 
      .ColorScheme-ButtonFocus{                         
        color:#0039a9;                                  
        stop-color:#0039a9;                             
      }</style>
  </defs>
  <sodipodi:namedview
     id="base"
     pagecolor="#002266"
     bordercolor="#ffffff"
     borderopacity="0.46666667"
     inkscape:pageopacity="0"
     inkscape:pageshadow="2"
     inkscape:zoom="12.859375"
     inkscape:cx="31.6838"
     inkscape:cy="27.406602"
     inkscape:document-units="px"
     inkscape:current-layer="svg8"
     inkscape:document-rotation="0"
     showgrid="false"
     inkscape:showpageshadow="false"
     borderlayer="true"
     units="px"
     fit-margin-top="0"
     fit-margin-left="0"
     fit-margin-right="0"
     fit-margin-bottom="0"
     inkscape:window-width="1920"
     inkscape:window-height="1051"
     inkscape:window-x="0"
     inkscape:window-y="0"
     inkscape:window-maximized="1"
     inkscape:snap-page="true">
    <inkscape:grid
       type="xygrid"
       id="grid859" />
  </sodipodi:namedview>
  <metadata
     id="metadata5">
    <rdf:RDF>
      <cc:Work
         rdf:about="">
        <dc:format>image/svg+xml</dc:format>
        <dc:type
           rdf:resource="http://purl.org/dc/dcmitype/StillImage" />
        <dc:title></dc:title>
      </cc:Work>
    </rdf:RDF>
  </metadata>
  <g
     id="g864"
     inkscape:label="#kshisen">
    <rect
       inkscape:label="#boundary"
       y="0"
       x="0"
       height="48"
       width="48.149998"
       id="rect4264"
       style="fill:none;fill-opacity:0.74651441;stroke-width:23.61599922;stroke-opacity:0.3596773" />
    <path
       inkscape:connector-curvature="0"
       inkscape:label="#"
       id="path853"
       d="M 8.0195312,6 C 7.4810382,6 7.0488281,6.4432552 7.0488281,6.9941406 V 34.195312 c 0,0.550886 0.4322171,0.994141 0.9707031,0.994141 H 27.480469 c 0.538495,0 0.972656,-0.443251 0.972656,-0.994141 V 6.9941406 C 28.453125,6.4432552 28.018957,6 27.480469,6 Z m 2.3632808,2.9179688 h 5.00586 l 0.416016,0.7382812 -2.208985,3.675781 2.207031,3.601563 -0.414062,0.742187 h -5.00586 L 9.96875,16.933594 12.175781,13.332031 9.9667969,9.65625 Z m 9.730469,0 h 5.00586 l 0.416015,0.7382812 -2.208984,3.675781 2.207031,3.601563 -0.414062,0.742187 h -5.00586 L 19.699219,16.933594 21.904297,13.332031 19.697266,9.65625 Z M 10.382812,23.513672 h 5.00586 l 0.416016,0.736328 -2.208985,3.675781 2.207031,3.603516 -0.414062,0.740234 h -5.00586 L 9.96875,31.529297 12.175781,27.925781 9.9667969,24.25 Z m 9.730469,0 h 5.00586 l 0.416015,0.736328 -2.208984,3.675781 2.207031,3.603516 -0.414062,0.740234 h -5.00586 L 19.699219,31.529297 21.904297,27.925781 19.697266,24.25 Z"
       style="opacity:0.65;fill:#d0d0d0;fill-opacity:1;stroke:none;stroke-width:1" />
    <path
       inkscape:connector-curvature="0"
       inkscape:label="#"
       id="path847"
       d="m 29.425781,12.810547 v 21.384765 c 0,1.062478 -0.873209,1.966797 -1.945312,1.966797 h -7.783203 v 4.84375 C 19.697266,41.556745 20.129483,42 20.667969,42 h 19.460937 c 0.538495,0 0.972656,-0.443251 0.972656,-0.994141 V 13.804688 c 0,-0.550887 -0.434174,-0.994141 -0.972656,-0.994141 z m 3.335938,2.919922 h 5.005859 l 0.416016,0.736328 -2.208985,3.675781 2.207032,3.603516 -0.414063,0.740234 h -5.005859 l -0.414063,-0.740234 2.205078,-3.603516 -2.207031,-3.675781 z m 0,14.59375 h 5.005859 l 0.416016,0.738281 -2.208985,3.673828 2.207032,3.603516 -0.414063,0.742187 H 32.761719 L 32.347656,38.339844 34.552734,34.736328 32.345703,31.0625 Z"
       style="opacity:0.3;fill:#d0d0d0;fill-opacity:1;stroke:none;stroke-width:1" />
  </g>
</svg>
