<?xml version="1.0" encoding="UTF-8" standalone="no"?>
<!-- Created with Inkscape (http://www.inkscape.org/) -->

<svg
   xmlns:dc="http://purl.org/dc/elements/1.1/"
   xmlns:cc="http://creativecommons.org/ns#"
   xmlns:rdf="http://www.w3.org/1999/02/22-rdf-syntax-ns#"
   xmlns:svg="http://www.w3.org/2000/svg"
   xmlns="http://www.w3.org/2000/svg"
   xmlns:sodipodi="http://sodipodi.sourceforge.net/DTD/sodipodi-0.dtd"
   xmlns:inkscape="http://www.inkscape.org/namespaces/inkscape"
   width="48.149998"
   height="48"
   viewBox="0 0 48.149998 48"
   version="1.1"
   id="svg8"
   inkscape:version="0.92+devel (b8837397f6, 2017-07-27, custom)"
   sodipodi:docname="kwin.svg">
  <defs
     id="ol-defs">
    <style
       id="current-color-scheme">      .ColorScheme-Text {
        color:#d0d0d0;
        stop-color:#d0d0d0;
      }
      .ColorScheme-Background {
        color:#212121;
        stop-color:#212121;
      }
      .ColorScheme-Highlight {
        color:#0039a9;
        stop-color:#0039a9;
      }
      .ColorScheme-ViewText {
        color:#d0d0d0;
        stop-color:#d0d0d0;
      }
      .ColorScheme-ViewBackground {
        color:#19191b;
        stop-color:#19191b;
      }
      .ColorScheme-ViewHover {
        color:#005cc7;
        stop-color:#005cc7;
      }
      .ColorScheme-ViewFocus{
        color:#002466;
        stop-color:#002466;
      }
      .ColorScheme-ButtonText {
        color:#d0d0d0;
        stop-color:#d0d0d0;
      }
      .ColorScheme-ButtonBackground {
        color:#232323;
        stop-color:#232323;                             
      }                                                 
      .ColorScheme-ButtonHover {                        
        color:#005cc7;                                  
        stop-color:#005cc7;                             
      }                                                 
      .ColorScheme-ButtonFocus{                         
        color:#0039a9;                                  
        stop-color:#0039a9;                             
      }</style>
  </defs>
  <sodipodi:namedview
     id="base"
     pagecolor="#002266"
     bordercolor="#ffffff"
     borderopacity="0.46666667"
     inkscape:pageopacity="0"
     inkscape:pageshadow="2"
     inkscape:zoom="12.859375"
     inkscape:cx="31.6838"
     inkscape:cy="21.027627"
     inkscape:document-units="px"
     inkscape:current-layer="g869"
     inkscape:document-rotation="0"
     showgrid="false"
     inkscape:showpageshadow="false"
     borderlayer="true"
     units="px"
     fit-margin-top="0"
     fit-margin-left="0"
     fit-margin-right="0"
     fit-margin-bottom="0"
     inkscape:window-width="1920"
     inkscape:window-height="1051"
     inkscape:window-x="0"
     inkscape:window-y="0"
     inkscape:window-maximized="1"
     inkscape:snap-page="true" />
  <metadata
     id="metadata5">
    <rdf:RDF>
      <cc:Work
         rdf:about="">
        <dc:format>image/svg+xml</dc:format>
        <dc:type
           rdf:resource="http://purl.org/dc/dcmitype/StillImage" />
        <dc:title></dc:title>
      </cc:Work>
    </rdf:RDF>
  </metadata>
  <g
     id="g869"
     inkscape:label="#kwin">
    <rect
       inkscape:label="#boundary"
       y="0"
       x="0"
       height="48"
       width="48.149998"
       id="rect4264"
       style="fill:none;fill-opacity:0.74651441;stroke-width:23.61599922;stroke-opacity:0.3596773" />
    <path
       inkscape:label="#"
       id="path1417"
       d="M 6.0742188,6 V 42 H 42.074219 V 6 Z m 1.6347656,8.181641 H 40.439453 V 40.365234 H 7.7089844 Z m 17.9765626,3.71875 -3.408203,0.318359 v 13.158203 l 3.36914,-0.460937 v -5.623047 l 4.494141,6.224609 3.519531,-1.060547 -4.605468,-5.978515 4.642578,-5.658204 -3.59375,-0.779296 -4.457032,5.660156 z m -7.675781,3.21875 c -0.03809,0 -0.08259,0.01953 -0.111328,0.03516 l -1.310547,1.273437 c -0.05581,0.05532 -0.07801,0.148426 -0.03711,0.212891 l 1.533203,2.404297 c -0.275563,0.437664 -0.476931,0.918578 -0.634765,1.416016 l -2.845703,0.564453 c -0.07933,0.02046 -0.150391,0.06549 -0.150391,0.142578 V 28.9375 c 0,0.07457 0.07404,0.157616 0.150391,0.175781 L 17.373047,29.75 c 0.147509,0.576695 0.371483,1.124945 0.673828,1.626953 L 16.4375,33.675781 c -0.04466,0.06495 -0.02188,0.158648 0.03711,0.212891 L 17.785156,35.125 c 0.0558,0.05051 0.156509,0.07799 0.22461,0.03711 l 2.507812,-1.449218 c 0.493204,0.268802 1.010071,0.491402 1.572266,0.634765 l 0.599609,2.654297 c 0.01719,0.07697 0.06961,0.140625 0.150391,0.140625 h 1.871094 c 0.0789,0 0.16863,-0.06738 0.1875,-0.140625 l 0.673828,-2.654297 c 0.5795,-0.147812 1.141268,-0.390683 1.646484,-0.671875 l 2.472656,1.556641 c 0.068,0.04092 0.166789,0.02139 0.22461,-0.03516 l 1.308593,-1.238282 c 0.05614,-0.05533 0.0802,-0.148664 0.03906,-0.21289 l -0.898435,-1.41406 -0.300781,0.105469 c -0.04273,0.02046 -0.08624,9.34e-4 -0.111328,-0.03516 0,0 -0.566477,-0.810812 -1.310547,-1.839844 -0.889507,1.644816 -2.703139,2.759766 -4.792969,2.759766 -2.969138,0 -5.390625,-2.253291 -5.390625,-5.058594 0,-2.063476 1.311318,-3.837827 3.181641,-4.632813 v -1.308593 c -0.340418,0.113054 -0.660087,0.22739 -0.972656,0.388672 h -0.03711 l -2.507812,-1.556641 c -0.03411,-0.02045 -0.0751,-0.03877 -0.113281,-0.03516 z"
       style="opacity:0.6;fill:#d0d0d0;fill-rule:evenodd;stroke-width:0.99999994"
       inkscape:connector-curvature="0" />
  </g>
</svg>
