<?xml version="1.0" encoding="UTF-8" standalone="no"?>
<!-- Created with Inkscape (http://www.inkscape.org/) -->

<svg
   xmlns:dc="http://purl.org/dc/elements/1.1/"
   xmlns:cc="http://creativecommons.org/ns#"
   xmlns:rdf="http://www.w3.org/1999/02/22-rdf-syntax-ns#"
   xmlns:svg="http://www.w3.org/2000/svg"
   xmlns="http://www.w3.org/2000/svg"
   xmlns:sodipodi="http://sodipodi.sourceforge.net/DTD/sodipodi-0.dtd"
   xmlns:inkscape="http://www.inkscape.org/namespaces/inkscape"
   width="48.149998"
   height="48"
   viewBox="0 0 48.149998 48"
   version="1.1"
   id="svg8"
   inkscape:version="0.92+devel (b8837397f6, 2017-07-27, custom)"
   sodipodi:docname="libreoffice-writer.svg">
  <defs
     id="ol-defs">
    <style
       id="current-color-scheme">      .ColorScheme-Text {
        color:#d0d0d0;
        stop-color:#d0d0d0;
      }
      .ColorScheme-Background {
        color:#212121;
        stop-color:#212121;
      }
      .ColorScheme-Highlight {
        color:#0039a9;
        stop-color:#0039a9;
      }
      .ColorScheme-ViewText {
        color:#d0d0d0;
        stop-color:#d0d0d0;
      }
      .ColorScheme-ViewBackground {
        color:#19191b;
        stop-color:#19191b;
      }
      .ColorScheme-ViewHover {
        color:#005cc7;
        stop-color:#005cc7;
      }
      .ColorScheme-ViewFocus{
        color:#002466;
        stop-color:#002466;
      }
      .ColorScheme-ButtonText {
        color:#d0d0d0;
        stop-color:#d0d0d0;
      }
      .ColorScheme-ButtonBackground {
        color:#232323;
        stop-color:#232323;                             
      }                                                 
      .ColorScheme-ButtonHover {                        
        color:#005cc7;                                  
        stop-color:#005cc7;                             
      }                                                 
      .ColorScheme-ButtonFocus{                         
        color:#0039a9;                                  
        stop-color:#0039a9;                             
      }</style>
    <linearGradient
       id="a"
       y1="392.35999"
       y2="365.35999"
       gradientUnits="userSpaceOnUse"
       x2="0"
       gradientTransform="translate(471.31814,349.93102)">
      <stop
         stop-color="#ffffff"
         stop-opacity="0"
         id="stop2" />
      <stop
         offset="1"
         stop-color="#ffffff"
         stop-opacity=".2"
         id="stop4" />
    </linearGradient>
    <linearGradient
       id="linearGradient4314"
       y1="392.35999"
       y2="365.35999"
       gradientUnits="userSpaceOnUse"
       x2="0"
       gradientTransform="translate(309.57,152.44)">
      <stop
         stop-color="#ffffff"
         stop-opacity="0"
         id="stop4310" />
      <stop
         offset="1"
         stop-color="#ffffff"
         stop-opacity=".2"
         id="stop4312" />
    </linearGradient>
  </defs>
  <sodipodi:namedview
     id="base"
     pagecolor="#002266"
     bordercolor="#ffffff"
     borderopacity="0.46666667"
     inkscape:pageopacity="0"
     inkscape:pageshadow="2"
     inkscape:zoom="12.87517"
     inkscape:cx="29.378478"
     inkscape:cy="16.677738"
     inkscape:document-units="px"
     inkscape:current-layer="svg8"
     inkscape:document-rotation="0"
     showgrid="false"
     inkscape:showpageshadow="false"
     borderlayer="true"
     units="px"
     fit-margin-top="0"
     fit-margin-left="0"
     fit-margin-right="0"
     fit-margin-bottom="0"
     inkscape:window-width="1920"
     inkscape:window-height="1051"
     inkscape:window-x="0"
     inkscape:window-y="0"
     inkscape:window-maximized="1"
     inkscape:snap-page="true" />
  <metadata
     id="metadata5">
    <rdf:RDF>
      <cc:Work
         rdf:about="">
        <dc:format>image/svg+xml</dc:format>
        <dc:type
           rdf:resource="http://purl.org/dc/dcmitype/StillImage" />
        <dc:title></dc:title>
      </cc:Work>
    </rdf:RDF>
  </metadata>
  <g
     inkscape:label="#libreoffice-writer"
     id="g854"
     transform="matrix(8.5039373,0,0,8.5039373,6.074998,5.9999999)"
     style="stroke-width:0.44444445">
    <rect
       style="fill:none;fill-opacity:0.74651441;stroke-width:23.61600113;stroke-opacity:0.3596773"
       id="rect4264"
       width="5.6444449"
       height="5.6444445"
       x="-0.7055558"
       y="-0.70555562"
       inkscape:label="#boundary" />
    <path
       style="color:#000000;opacity:0.6;color-interpolation:sRGB;color-interpolation-filters:linearRGB;fill:#eeeeee;stroke-width:0.78571475;color-rendering:auto;image-rendering:auto;shape-rendering:auto;text-rendering:auto"
       d="m 9.9316406,6 v 36 h 10.2871094 18 V 16.349609 L 27.867188,6 Z m 19.6503904,6.675781 c 0.303207,-0.01308 0.581248,0.158126 0.697266,0.421875 0.05162,0.117091 0.07264,0.251596 0.04883,0.396485 -0.01607,0.07878 -0.221863,0.477272 -0.457031,0.884765 l -0.435547,0.746094 0.193359,0.121094 c 0.260527,0.172221 0.392059,0.387091 0.386719,0.644531 -0.0033,0.177843 -0.303887,0.722621 -2.373047,4.318359 -1.303786,2.268375 -2.389968,4.121927 -2.416016,4.128907 -0.02176,0.0058 -0.729168,-0.38461 -1.566406,-0.867188 l -1.533203,-0.884765 1.546875,-2.681641 c 0.85102,-1.476313 1.529989,-2.690345 1.507813,-2.703125 -0.07152,-0.04141 -1.099328,0.264799 -1.40625,0.421875 -0.168829,0.0824 -0.453519,0.278967 -0.63086,0.433594 -0.316916,0.276173 -0.33337,0.301304 -2.259765,3.630859 -1.064791,1.841171 -1.976456,3.383811 -2.021485,3.423828 -0.123426,0.112312 -0.418759,0.174187 -0.621093,0.13086 -0.340422,-0.07126 -0.615854,-0.490885 -0.539063,-0.828126 0.05374,-0.23328 3.908689,-6.846069 4.146484,-7.105468 0.673963,-0.749087 1.716402,-1.290245 2.88086,-1.496094 0.461993,-0.08215 0.921441,-0.128399 1.261719,-0.126953 0.09391,0.0027 0.16738,-0.09855 0.527343,-0.716797 0.345226,-0.586295 0.452494,-0.730533 0.580078,-0.792969 0.271353,-0.133367 0.460921,-0.113582 0.789063,0.06836 l 0.304687,0.167968 0.460938,-0.794921 c 0.383323,-0.652324 0.493347,-0.801118 0.621094,-0.863282 0.101958,-0.04909 0.205571,-0.07376 0.30664,-0.07813 z m -8.152343,11.123047 1.542968,0.890625 c 0.848404,0.489062 1.543335,0.897014 1.546875,0.910156 0.0035,0.01318 0.314685,-0.513703 -1.380859,2.427735 -2.731971,4.732997 -3.144541,5.413504 -3.53711,5.910156 -0.782156,0.987581 -2.078559,2.254391 -3.326171,3.259766 -0.79903,0.64754 -0.710934,0.625027 -0.671875,0.18164 0.125492,-1.369731 0.478009,-3.240238 0.833984,-4.392578 0.348883,-1.127144 0.469742,-1.342586 3.638672,-6.839844 z"
       transform="matrix(0.11759259,0,0,0.11759259,-0.71437474,-0.70555552)"
       id="use15"
       inkscape:connector-curvature="0" />
    <path
       style="fill:#00ff00;stroke:none;stroke-width:0.11759259px;stroke-linecap:butt;stroke-linejoin:miter;stroke-opacity:1"
       d="M 3.7797616,0.93512166 V 0 H 2.8446398 Z"
       id="path850"
       inkscape:connector-curvature="0"
       inkscape:label="#1" />
  </g>
</svg>
