<?xml version="1.0" encoding="UTF-8" standalone="no"?>
<!-- Created with Inkscape (http://www.inkscape.org/) -->

<svg
   xmlns:dc="http://purl.org/dc/elements/1.1/"
   xmlns:cc="http://creativecommons.org/ns#"
   xmlns:rdf="http://www.w3.org/1999/02/22-rdf-syntax-ns#"
   xmlns:svg="http://www.w3.org/2000/svg"
   xmlns="http://www.w3.org/2000/svg"
   xmlns:sodipodi="http://sodipodi.sourceforge.net/DTD/sodipodi-0.dtd"
   xmlns:inkscape="http://www.inkscape.org/namespaces/inkscape"
   width="48.149998"
   height="48"
   viewBox="0 0 48.149998 48"
   version="1.1"
   id="svg8"
   inkscape:version="0.92+devel (f96dc7e339, 2017-07-28, custom)"
   sodipodi:docname="mathematica.svg">
  <defs
     id="ol-defs">
    <style
       id="current-color-scheme">      .ColorScheme-Text {
        color:#d0d0d0;
        stop-color:#d0d0d0;
      }
      .ColorScheme-Background {
        color:#212121;
        stop-color:#212121;
      }
      .ColorScheme-Highlight {
        color:#0039a9;
        stop-color:#0039a9;
      }
      .ColorScheme-ViewText {
        color:#d0d0d0;
        stop-color:#d0d0d0;
      }
      .ColorScheme-ViewBackground {
        color:#19191b;
        stop-color:#19191b;
      }
      .ColorScheme-ViewHover {
        color:#005cc7;
        stop-color:#005cc7;
      }
      .ColorScheme-ViewFocus{
        color:#002466;
        stop-color:#002466;
      }
      .ColorScheme-ButtonText {
        color:#d0d0d0;
        stop-color:#d0d0d0;
      }
      .ColorScheme-ButtonBackground {
        color:#232323;
        stop-color:#232323;                             
      }                                                 
      .ColorScheme-ButtonHover {                        
        color:#005cc7;                                  
        stop-color:#005cc7;                             
      }                                                 
      .ColorScheme-ButtonFocus{                         
        color:#0039a9;                                  
        stop-color:#0039a9;                             
      }</style>
    <style
       id="current-color-scheme-7">      .ColorScheme-Text {
        color:#d0d0d0;
        stop-color:#d0d0d0;
      }
      .ColorScheme-Background {
        color:#212121;
        stop-color:#212121;
      }
      .ColorScheme-Highlight {
        color:#0039a9;
        stop-color:#0039a9;
      }
      .ColorScheme-ViewText {
        color:#d0d0d0;
        stop-color:#d0d0d0;
      }
      .ColorScheme-ViewBackground {
        color:#19191b;
        stop-color:#19191b;
      }
      .ColorScheme-ViewHover {
        color:#005cc7;
        stop-color:#005cc7;
      }
      .ColorScheme-ViewFocus{
        color:#002466;
        stop-color:#002466;
      }
      .ColorScheme-ButtonText {
        color:#d0d0d0;
        stop-color:#d0d0d0;
      }
      .ColorScheme-ButtonBackground {
        color:#232323;
        stop-color:#232323;                             
      }                                                 
      .ColorScheme-ButtonHover {                        
        color:#005cc7;                                  
        stop-color:#005cc7;                             
      }                                                 
      .ColorScheme-ButtonFocus{                         
        color:#0039a9;                                  
        stop-color:#0039a9;                             
      }</style>
  </defs>
  <sodipodi:namedview
     id="base"
     pagecolor="#002266"
     bordercolor="#ffffff"
     borderopacity="0.46666667"
     inkscape:pageopacity="0"
     inkscape:pageshadow="2"
     inkscape:zoom="12.859375"
     inkscape:cx="31.6838"
     inkscape:cy="27.406602"
     inkscape:document-units="px"
     inkscape:current-layer="svg8"
     inkscape:document-rotation="0"
     showgrid="false"
     inkscape:showpageshadow="false"
     borderlayer="true"
     units="px"
     fit-margin-top="0"
     fit-margin-left="0"
     fit-margin-right="0"
     fit-margin-bottom="0"
     inkscape:window-width="1920"
     inkscape:window-height="1051"
     inkscape:window-x="0"
     inkscape:window-y="0"
     inkscape:window-maximized="1"
     inkscape:snap-page="true" />
  <metadata
     id="metadata5">
    <rdf:RDF>
      <cc:Work
         rdf:about="">
        <dc:format>image/svg+xml</dc:format>
        <dc:type
           rdf:resource="http://purl.org/dc/dcmitype/StillImage" />
        <dc:title></dc:title>
      </cc:Work>
    </rdf:RDF>
  </metadata>
  <g
     id="g841"
     inkscape:label="#mathmatica">
    <rect
       inkscape:label="#boundary"
       y="0"
       x="0"
       height="48"
       width="48.149998"
       id="rect4264"
       style="fill:none;fill-opacity:0.74651441;stroke-width:23.61599922;stroke-opacity:0.3596773" />
    <path
       d="m 24.564623,6.000001 -3.990816,6.251693 3.582945,5.063237 -3.584702,-5.063237 -7.165888,-2.928942 0.813989,7.75484 -7.2485174,1.265811 5.2935454,5.300576 -6.1901609,5.696142 8.2277619,1.265808 1.81081,-0.362164 c -0.06761,-0.04387 -0.130478,-0.09353 -0.188123,-0.1512 -0.249419,-0.241359 -0.376231,-0.554381 -0.376231,-0.940567 0,-0.410332 0.133582,-0.748907 0.399082,-1.014405 0.2655,-0.265511 0.604084,-0.399082 1.014405,-0.399082 0.217238,0 0.463082,0.06462 0.736636,0.193387 0.402287,0.193118 0.689729,0.290079 0.866727,0.290079 0.233323,0 0.444348,-0.04763 0.629385,-0.144157 0.241376,-0.120668 0.547609,-0.381809 0.917712,-0.784089 0.225279,-0.249419 0.63953,-0.780209 1.242955,-1.59281 -0.77237,-2.864225 -1.376344,-4.577406 -1.81081,-5.140592 -0.273546,-0.362063 -0.620635,-0.545001 -1.03902,-0.545001 -0.217237,0 -0.480872,0.03231 -0.79465,0.09668 l 0.08266,-0.458853 4.21409,-0.724322 c 0.76432,1.198786 1.30188,2.519015 1.615665,3.959169 0.788463,-1.166606 1.383911,-1.982352 1.786198,-2.448988 0.539043,-0.627565 0.983143,-1.03506 1.329101,-1.2201 0.35401,-0.193095 0.727418,-0.290079 1.121647,-0.290079 0.442502,0 0.781087,0.120803 1.014407,0.362167 0.241366,0.241384 0.360405,0.568921 0.360405,0.979244 0,0.386181 -0.119025,0.703453 -0.360405,0.952872 -0.233323,0.24136 -0.528545,0.362167 -0.882551,0.362167 -0.257456,0 -0.555189,-0.04516 -0.893098,-0.133605 -0.329868,-0.0965 -0.558668,-0.145913 -0.687409,-0.145913 -0.337902,0 -0.659436,0.12078 -0.965179,0.362156 -0.418367,0.329868 -0.932116,1.0351 -1.543585,2.113198 0.683878,2.413684 1.229955,3.885262 1.640278,4.416268 0.241369,0.313787 0.487235,0.471161 0.73663,0.471161 0.209182,0 0.388613,-0.05366 0.541487,-0.15822 0.233313,-0.168952 0.591441,-0.589981 1.074178,-1.265813 l 0.436007,0.253163 c -0.70802,1.142484 -1.400473,1.947192 -2.076301,2.41383 -0.514912,0.362054 -1.021911,0.54324 -1.520729,0.54324 -0.514921,0 -0.946223,-0.11403 -1.292181,-0.339309 -0.337907,-0.233313 -0.638153,-0.60673 -0.903647,-1.121649 -0.265511,-0.522965 -0.580283,-1.355741 -0.942324,-2.498216 -0.941329,1.198786 -1.681397,2.076674 -2.22044,2.63183 -0.232038,0.239062 -0.440172,0.425698 -0.638178,0.59247 -0.255126,0.214897 -0.489843,0.386579 -0.689168,0.481713 -0.354002,0.168953 -0.733437,0.253161 -1.135712,0.253161 -0.317416,0 -0.583123,-0.07034 -0.798162,-0.209205 l -1.814325,0.362169 -1.302729,8.069534 7.329389,-3.718314 3.829072,7.041065 3.827315,-6.961952 6.842406,3.560089 -0.163508,-7.594857 7.412018,-0.872002 -5.212675,-6.012593 5.049172,-5.775256 -7.165886,-1.344923 0.650486,-7.438389 -7.248517,2.768958 z m 6.907453,10.894752 c 0.507701,0 0.905374,0.137632 1.195485,0.411387 0.290112,0.273733 0.434245,0.616093 0.434245,1.023196 0,0.231631 -0.04057,0.452223 -0.12483,0.662787 -0.0819,0.208237 -0.21366,0.426483 -0.393808,0.655764 -0.119318,0.152078 -0.334042,0.370339 -0.64521,0.655756 -0.311177,0.285443 -0.509973,0.47605 -0.594229,0.569618 -0.0819,0.0936 -0.147262,0.183668 -0.198652,0.2725 h 1.956727 v 0.915956 h -3.454603 c 0.03742,-0.346263 0.148612,-0.673928 0.335785,-0.982761 0.187155,-0.311175 0.557178,-0.723548 1.109342,-1.235922 0.444534,-0.414114 0.716914,-0.694718 0.817501,-0.842118 0.135742,-0.203535 0.203939,-0.404149 0.203939,-0.603013 0,-0.219938 -0.06174,-0.387585 -0.181079,-0.504565 -0.116978,-0.119317 -0.278768,-0.179325 -0.486986,-0.179325 -0.205897,0 -0.368842,0.06232 -0.490499,0.186345 -0.121635,0.12402 -0.19233,0.327546 -0.21096,0.615328 l -0.981002,-0.09668 c 0.0585,-0.542796 0.239675,-0.932813 0.548521,-1.169115 0.308828,-0.236299 0.697083,-0.355133 1.160319,-0.35514 z"
       id="path2"
       inkscape:connector-curvature="0"
       style="opacity:0.6;fill:#d0d0d0;stroke-width:1"
       inkscape:label="#" />
  </g>
</svg>
