<?xml version="1.0" encoding="UTF-8" standalone="no"?>
<!-- Created with Inkscape (http://www.inkscape.org/) -->

<svg
   xmlns:dc="http://purl.org/dc/elements/1.1/"
   xmlns:cc="http://creativecommons.org/ns#"
   xmlns:rdf="http://www.w3.org/1999/02/22-rdf-syntax-ns#"
   xmlns:svg="http://www.w3.org/2000/svg"
   xmlns="http://www.w3.org/2000/svg"
   xmlns:sodipodi="http://sodipodi.sourceforge.net/DTD/sodipodi-0.dtd"
   xmlns:inkscape="http://www.inkscape.org/namespaces/inkscape"
   width="48.149998"
   height="48"
   viewBox="0 0 48.149998 48"
   version="1.1"
   id="svg8"
   inkscape:version="0.92+devel (f96dc7e339, 2017-07-28, custom)"
   sodipodi:docname="matlab.svg">
  <defs
     id="ol-defs">
    <style
       id="current-color-scheme">      .ColorScheme-Text {
        color:#d0d0d0;
        stop-color:#d0d0d0;
      }
      .ColorScheme-Background {
        color:#212121;
        stop-color:#212121;
      }
      .ColorScheme-Highlight {
        color:#0039a9;
        stop-color:#0039a9;
      }
      .ColorScheme-ViewText {
        color:#d0d0d0;
        stop-color:#d0d0d0;
      }
      .ColorScheme-ViewBackground {
        color:#19191b;
        stop-color:#19191b;
      }
      .ColorScheme-ViewHover {
        color:#005cc7;
        stop-color:#005cc7;
      }
      .ColorScheme-ViewFocus{
        color:#002466;
        stop-color:#002466;
      }
      .ColorScheme-ButtonText {
        color:#d0d0d0;
        stop-color:#d0d0d0;
      }
      .ColorScheme-ButtonBackground {
        color:#232323;
        stop-color:#232323;                             
      }                                                 
      .ColorScheme-ButtonHover {                        
        color:#005cc7;                                  
        stop-color:#005cc7;                             
      }                                                 
      .ColorScheme-ButtonFocus{                         
        color:#0039a9;                                  
        stop-color:#0039a9;                             
      }</style>
    <style
       id="current-color-scheme-7">      .ColorScheme-Text {
        color:#d0d0d0;
        stop-color:#d0d0d0;
      }
      .ColorScheme-Background {
        color:#212121;
        stop-color:#212121;
      }
      .ColorScheme-Highlight {
        color:#0039a9;
        stop-color:#0039a9;
      }
      .ColorScheme-ViewText {
        color:#d0d0d0;
        stop-color:#d0d0d0;
      }
      .ColorScheme-ViewBackground {
        color:#19191b;
        stop-color:#19191b;
      }
      .ColorScheme-ViewHover {
        color:#005cc7;
        stop-color:#005cc7;
      }
      .ColorScheme-ViewFocus{
        color:#002466;
        stop-color:#002466;
      }
      .ColorScheme-ButtonText {
        color:#d0d0d0;
        stop-color:#d0d0d0;
      }
      .ColorScheme-ButtonBackground {
        color:#232323;
        stop-color:#232323;                             
      }                                                 
      .ColorScheme-ButtonHover {                        
        color:#005cc7;                                  
        stop-color:#005cc7;                             
      }                                                 
      .ColorScheme-ButtonFocus{                         
        color:#0039a9;                                  
        stop-color:#0039a9;                             
      }</style>
  </defs>
  <sodipodi:namedview
     id="base"
     pagecolor="#002266"
     bordercolor="#ffffff"
     borderopacity="0.46666667"
     inkscape:pageopacity="0"
     inkscape:pageshadow="2"
     inkscape:zoom="12.859375"
     inkscape:cx="31.6838"
     inkscape:cy="27.406602"
     inkscape:document-units="px"
     inkscape:current-layer="g848"
     inkscape:document-rotation="0"
     showgrid="false"
     inkscape:showpageshadow="false"
     borderlayer="true"
     units="px"
     fit-margin-top="0"
     fit-margin-left="0"
     fit-margin-right="0"
     fit-margin-bottom="0"
     inkscape:window-width="1920"
     inkscape:window-height="1051"
     inkscape:window-x="0"
     inkscape:window-y="0"
     inkscape:window-maximized="1"
     inkscape:snap-page="true" />
  <metadata
     id="metadata5">
    <rdf:RDF>
      <cc:Work
         rdf:about="">
        <dc:format>image/svg+xml</dc:format>
        <dc:type
           rdf:resource="http://purl.org/dc/dcmitype/StillImage" />
        <dc:title />
      </cc:Work>
    </rdf:RDF>
  </metadata>
  <g
     id="g848"
     inkscape:label="#matlab">
    <rect
       inkscape:label="#boundary"
       y="0"
       x="0"
       height="48"
       width="48.149998"
       id="rect4264"
       style="fill:none;fill-opacity:0.74651441;stroke-width:23.61599922;stroke-opacity:0.3596773" />
    <path
       style="opacity:0.7;fill:#d0d0d0;stroke-width:1"
       d="m 30.632812,8.5371094 c -0.183685,-0.011394 -0.373573,0.013372 -0.544921,0.072266 -0.247293,0.08496 -0.363834,0.1440874 -0.464844,0.2402344 -0.0295,0.028148 -0.145169,0.1275981 -0.257813,0.2207031 -0.162562,0.13437 -0.368628,0.3858528 -0.603515,0.7089844 -0.09493,0.3561887 -0.148735,0.7083877 -0.251953,1.0644527 -0.484452,1.671449 -1.060781,3.339231 -1.730469,4.978516 -0.669685,1.639285 -1.431723,3.250153 -2.289063,4.808593 -0.428675,0.779223 -0.881389,1.546995 -1.357422,2.296875 -0.47604,0.749878 -0.976285,1.482803 -1.5,2.197266 -0.523714,0.714459 -1.070886,1.40907 -1.642578,2.082031 -0.571705,0.672967 -1.167131,1.323853 -1.787109,1.949219 -0.500661,0.505032 -1.028227,0.980757 -1.560547,1.451172 0.151583,-0.0017 0.282981,7.7e-5 0.494141,0.05273 0.55103,0.13761 0.717031,0.241258 1.220703,0.763672 0.390498,0.405034 0.502339,0.554323 0.914062,1.21875 0.515714,0.832264 0.721355,1.222247 0.914063,1.722656 0.07006,0.18207 0.253578,0.591566 0.40625,0.910157 0.152685,0.318585 0.35144,0.779188 0.443359,1.023437 0.09191,0.244249 0.249714,0.626612 0.34961,0.84961 0.0999,0.222996 0.300182,0.703333 0.445312,1.066406 0.145148,0.363067 0.32435,0.792464 0.398438,0.955078 0.09569,0.21006 0.155488,0.295075 0.205078,0.294922 0.08969,-3.11e-4 0.657528,-0.136345 0.96289,-0.230469 0.229853,-0.07092 0.933321,-0.415177 1.519532,-0.742187 0.1593,-0.08883 0.463726,-0.296865 0.675781,-0.464844 0.441932,-0.350064 1.646829,-1.423735 1.771484,-1.578125 0.04601,-0.0569 0.316789,-0.36267 0.603516,-0.679688 0.286726,-0.317034 0.738417,-0.825466 1.003906,-1.130859 0.265484,-0.305402 0.613359,-0.704877 0.773438,-0.886719 0.160065,-0.181845 0.46712,-0.538107 0.68164,-0.792969 0.532483,-0.632659 1.687874,-1.761429 2.15625,-2.107422 0.853929,-0.630797 1.409813,-0.905817 2.095703,-1.037109 0.511223,-0.09785 0.928869,-0.05996 1.515625,0.138672 0.478397,0.161977 0.622996,0.232576 0.984375,0.476563 0.148658,0.100394 0.317707,0.21025 0.376954,0.246093 0.282195,0.170617 1.157648,0.918049 1.767578,1.509766 1.330412,1.290695 2.651962,2.400762 2.746093,2.306641 0.04082,-0.04082 -0.102166,-0.396371 -0.529297,-1.322266 -0.142088,-0.307962 -0.33246,-0.759657 -0.423828,-1.003906 -0.09135,-0.244242 -0.29071,-0.738546 -0.443359,-1.09961 -0.152663,-0.36106 -0.351775,-0.864266 -0.443359,-1.11914 -0.09153,-0.254864 -0.29106,-0.760027 -0.44336,-1.121094 C 39.632854,28.465113 39.413918,27.92625 39.300781,27.628906 39.187629,27.331566 38.974157,26.774894 38.826172,26.392578 38.516909,25.593724 37.821387,23.60063 36.751953,20.447266 35.686715,17.306203 35.169147,15.843323 34.560547,14.267578 34.04261,12.926611 33.074909,10.937895 32.556641,10.148438 32.1924,9.5935648 31.487118,8.8595004 31.140625,8.6738281 30.993396,8.5949431 30.816498,8.5485028 30.632812,8.5371094 Z"
       id="path821"
       inkscape:connector-curvature="0" />
    <path
       style="opacity:0.31914894;fill:#d0d0d0;stroke-width:1"
       d="m 27.251953,9.1328125 c -0.277441,0.3816384 -0.598079,0.8715235 -0.988281,1.5332035 -0.219173,0.37168 -0.521057,0.867922 -0.671875,1.101562 -0.150795,0.233619 -0.325636,0.510194 -0.386719,0.615234 -0.24732,0.425258 -1.066593,1.545544 -1.71289,2.339844 -0.547144,0.67244 -1.584649,1.635036 -1.976563,1.833985 -0.07432,0.03775 -0.204103,0.114747 -0.289063,0.171875 -0.190574,0.128115 -0.544842,0.269245 -1.017578,0.404296 -0.39971,0.114188 -1.149407,0.484567 -1.470703,0.726563 -0.549772,0.414082 -1.778643,1.736822 -2.291015,2.466797 -0.07967,0.113535 -0.201632,0.269729 -0.271485,0.345703 -0.06973,0.07594 -0.161523,0.183014 -0.203125,0.238281 -0.04651,0.06183 -0.20225,0.152214 -0.404297,0.234375 -0.18054,0.07348 -0.484639,0.202616 -0.675781,0.28711 -0.19116,0.08453 -0.721096,0.297253 -1.177734,0.472656 -0.456635,0.175411 -1.013314,0.401416 -1.236328,0.503906 -0.22302,0.102488 -0.542974,0.238193 -0.712891,0.300781 -0.472181,0.173947 -1.481865,0.580442 -1.638672,0.660157 -0.07679,0.03913 -0.6775104,0.283228 -1.3359374,0.541015 -0.658399,0.25779 -1.3270261,0.529131 -1.4863281,0.603516 -0.1593,0.0745 -0.4990422,0.218594 -0.7539063,0.320312 -0.612079,0.244352 -0.6163873,0.269971 -0.1152343,0.59961 0.174511,0.114795 0.7873577,0.554801 1.3867187,0.996094 0.125123,0.09212 0.3420649,0.245735 0.4824219,0.341796 0.140378,0.09607 0.4193027,0.294957 0.6210937,0.44336 0.2017571,0.14841 0.4397169,0.318905 0.5292969,0.376953 0.148005,0.09587 0.7571619,0.531914 1.3398439,0.960937 0.125123,0.09211 0.342065,0.2456 0.482422,0.341797 0.237821,0.16299 0.759442,0.537936 1.294922,0.931641 0.434576,0.319509 0.87548,0.613281 0.923828,0.613281 0.04957,0 0.673237,-0.245093 0.791015,-0.310547 0.146498,-0.08129 0.468177,-0.161997 0.722657,-0.18164 0.04124,-0.0034 0.08503,0.01435 0.123046,0.01367 0.532321,-0.470412 1.059885,-0.946144 1.560547,-1.451172 0.619969,-0.625363 1.215412,-1.276258 1.78711,-1.949219 0.571695,-0.672966 1.118861,-1.36757 1.642578,-2.082031 0.523714,-0.714467 1.023959,-1.447388 1.5,-2.197266 0.476035,-0.749869 0.928752,-1.517648 1.357422,-2.296875 0.857338,-1.558431 1.619381,-3.169318 2.289062,-4.808594 0.669694,-1.639294 1.247975,-3.307068 1.732422,-4.978515 0.10323,-0.3560696 0.155129,-0.7082626 0.25,-1.0644535 z"
       id="path44"
       inkscape:connector-curvature="0" />
  </g>
</svg>
