<?xml version="1.0" encoding="UTF-8" standalone="no"?>
<!-- Created with Inkscape (http://www.inkscape.org/) -->

<svg
   xmlns:dc="http://purl.org/dc/elements/1.1/"
   xmlns:cc="http://creativecommons.org/ns#"
   xmlns:rdf="http://www.w3.org/1999/02/22-rdf-syntax-ns#"
   xmlns:svg="http://www.w3.org/2000/svg"
   xmlns="http://www.w3.org/2000/svg"
   xmlns:xlink="http://www.w3.org/1999/xlink"
   xmlns:sodipodi="http://sodipodi.sourceforge.net/DTD/sodipodi-0.dtd"
   xmlns:inkscape="http://www.inkscape.org/namespaces/inkscape"
   width="48.149998"
   height="48"
   viewBox="0 0 48.149998 48"
   version="1.1"
   id="svg8"
   inkscape:version="0.92+devel (b8837397f6, 2017-07-27, custom)"
   sodipodi:docname="mendeleydesktop.svg">
  <defs
     id="ol-defs">
    <style
       id="current-color-scheme">      .ColorScheme-Text {
        color:#d0d0d0;
        stop-color:#d0d0d0;
      }
      .ColorScheme-Background {
        color:#212121;
        stop-color:#212121;
      }
      .ColorScheme-Highlight {
        color:#0039a9;
        stop-color:#0039a9;
      }
      .ColorScheme-ViewText {
        color:#d0d0d0;
        stop-color:#d0d0d0;
      }
      .ColorScheme-ViewBackground {
        color:#19191b;
        stop-color:#19191b;
      }
      .ColorScheme-ViewHover {
        color:#005cc7;
        stop-color:#005cc7;
      }
      .ColorScheme-ViewFocus{
        color:#002466;
        stop-color:#002466;
      }
      .ColorScheme-ButtonText {
        color:#d0d0d0;
        stop-color:#d0d0d0;
      }
      .ColorScheme-ButtonBackground {
        color:#232323;
        stop-color:#232323;                             
      }                                                 
      .ColorScheme-ButtonHover {                        
        color:#005cc7;                                  
        stop-color:#005cc7;                             
      }                                                 
      .ColorScheme-ButtonFocus{                         
        color:#0039a9;                                  
        stop-color:#0039a9;                             
      }</style>
    <linearGradient
       id="linearGradient4144">
      <stop
         id="stop2"
         offset="0"
         style="stop-color:#ffffff;stop-opacity:1;" />
      <stop
         id="stop4"
         offset="1"
         style="stop-color:#eea9a9;stop-opacity:1" />
    </linearGradient>
    <linearGradient
       id="linearGradient4176">
      <stop
         id="stop7"
         offset="0"
         style="stop-color:#000000;stop-opacity:1;" />
      <stop
         id="stop9"
         offset="1"
         style="stop-color:#000000;stop-opacity:0;" />
    </linearGradient>
    <linearGradient
       id="linearGradient4159">
      <stop
         id="stop12"
         offset="0"
         style="stop-color:#cf2134;stop-opacity:1;" />
      <stop
         id="stop14"
         offset="1"
         style="stop-color:#e55a6a;stop-opacity:1" />
    </linearGradient>
    <linearGradient
       gradientUnits="userSpaceOnUse"
       y2="2.652"
       x2="22.872"
       y1="43.737"
       x1="36.771"
       id="linearGradient4165"
       xlink:href="#linearGradient4159" />
    <linearGradient
       gradientUnits="userSpaceOnUse"
       y2="33.075001"
       x2="35.019001"
       y1="13.478"
       x1="15.422"
       id="linearGradient4182"
       xlink:href="#linearGradient4176" />
    <linearGradient
       gradientTransform="translate(-22.392835,-31.556292)"
       gradientUnits="userSpaceOnUse"
       y2="34.944"
       x2="27.879"
       y1="8.1289997"
       x1="14.023"
       id="linearGradient4150"
       xlink:href="#linearGradient4144" />
  </defs>
  <sodipodi:namedview
     id="base"
     pagecolor="#002266"
     bordercolor="#ffffff"
     borderopacity="0.46666667"
     inkscape:pageopacity="0"
     inkscape:pageshadow="2"
     inkscape:zoom="12.859375"
     inkscape:cx="31.6838"
     inkscape:cy="21.027627"
     inkscape:document-units="px"
     inkscape:current-layer="g871"
     inkscape:document-rotation="0"
     showgrid="false"
     inkscape:showpageshadow="false"
     borderlayer="true"
     units="px"
     fit-margin-top="0"
     fit-margin-left="0"
     fit-margin-right="0"
     fit-margin-bottom="0"
     inkscape:window-width="1920"
     inkscape:window-height="1051"
     inkscape:window-x="0"
     inkscape:window-y="0"
     inkscape:window-maximized="1"
     inkscape:snap-page="true" />
  <metadata
     id="metadata5">
    <rdf:RDF>
      <cc:Work
         rdf:about="">
        <dc:format>image/svg+xml</dc:format>
        <dc:type
           rdf:resource="http://purl.org/dc/dcmitype/StillImage" />
        <dc:title></dc:title>
      </cc:Work>
    </rdf:RDF>
  </metadata>
  <g
     id="g871"
     inkscape:label="#mendeleydesktop">
    <rect
       inkscape:label="#boundary"
       y="0"
       x="0"
       height="48"
       width="48.149998"
       id="rect4264"
       style="fill:none;fill-opacity:0.74651441;stroke-width:23.61599922;stroke-opacity:0.3596773" />
    <path
       inkscape:label="#"
       inkscape:connector-curvature="0"
       id="rect865"
       d="M 13.218309,6 C 9.2295093,6 6.0186024,9.210907 6.0186024,13.199707 V 34.800293 C 6.0186024,38.789093 9.2295093,42 13.218309,42 h 21.713379 c 3.988801,0 7.199707,-3.210907 7.199707,-7.199707 V 13.199707 C 42.131395,9.210907 38.920489,6 34.931688,6 Z m 3.224122,8.10205 h 0.0015 c 0.587132,-0.0181 1.178562,0.08585 1.719726,0.317871 0.541614,0.232192 1.031577,0.592818 1.40625,1.053223 0.429534,0.527763 0.699076,1.169021 0.946289,1.806152 0.247213,0.637293 0.481137,1.287864 0.855469,1.857423 0.617313,0.939181 1.591312,1.831054 2.702637,1.831054 1.111325,0 2.085341,-0.89181 2.702636,-1.831054 0.374338,-0.569613 0.608254,-1.220202 0.855468,-1.857423 0.247213,-0.637113 0.518232,-1.278352 0.947755,-1.806152 0.374673,-0.460378 0.863171,-0.821003 1.404785,-1.053223 0.541622,-0.232209 1.133622,-0.336178 1.721191,-0.317871 1.175136,0.03663 2.310682,0.566851 3.180176,1.371094 0.883651,0.817384 1.516719,1.940593 1.64502,3.14795 0.06415,0.603722 0.0023,1.222776 -0.194825,1.795898 -0.197073,0.573212 -0.530097,1.099477 -0.972656,1.507324 -0.521911,0.481043 -1.174451,0.785366 -1.773925,1.161621 -0.299728,0.188173 -0.589616,0.396383 -0.837891,0.650391 -0.248284,0.25401 -0.454673,0.554659 -0.568359,0.893555 -0.101148,0.30151 -0.125724,0.628177 -0.08057,0.943359 0.04515,0.315262 0.159395,0.619761 0.32666,0.88916 0.334532,0.538877 0.874394,0.931331 1.466309,1.141114 0.686523,0.243288 1.441777,0.254836 2.103515,0.561034 0.523676,0.242282 0.964557,0.665413 1.239258,1.1792 0.27471,0.513812 0.383179,1.115472 0.316406,1.696289 -0.07845,0.682475 -0.398501,1.331552 -0.880371,1.813477 -0.481862,0.481927 -1.120293,0.795666 -1.788574,0.899413 -0.979926,0.152129 -2.026894,-0.166508 -2.739258,-0.867187 -0.356175,-0.350373 -0.629089,-0.787551 -0.780761,-1.26709 -0.15166,-0.479702 -0.182046,-1.000406 -0.0835,-1.49414 0.07526,-0.376939 0.223125,-0.734285 0.360352,-1.092774 0.137228,-0.358553 0.265738,-0.725675 0.298828,-1.108886 0.05841,-0.676533 -0.196509,-1.364232 -0.638672,-1.873536 -0.442173,-0.50933 -1.060179,-0.845001 -1.712402,-0.993164 -0.420824,-0.09558 -0.859668,-0.116566 -1.284668,-0.04248 -0.424963,0.07417 -0.836294,0.244582 -1.180664,0.508301 -0.344369,0.263728 -0.619085,0.621488 -0.771973,1.03125 -0.152885,0.409754 -0.180499,0.870135 -0.0586,1.290528 0.124858,0.430544 0.393149,0.800569 0.66504,1.154296 0.271891,0.353721 0.557676,0.708728 0.719238,1.126466 0.178182,0.460711 0.195316,0.979713 0.07325,1.458984 -0.122076,0.479144 -0.379886,0.919404 -0.717774,1.275879 -0.373773,0.39438 -0.847484,0.689546 -1.362305,0.851074 -0.514892,0.161632 -1.076919,0.188965 -1.615723,0.188965 -0.538832,0 -1.06428,-0.02734 -1.579101,-0.188965 -0.514837,-0.161525 -0.988531,-0.456694 -1.362338,-0.851075 -0.337888,-0.356402 -0.5957,-0.796698 -0.717774,-1.275879 -0.122073,-0.479252 -0.104933,-0.998308 0.07325,-1.458984 0.161568,-0.417728 0.445891,-0.772745 0.717774,-1.126466 0.271881,-0.353718 0.540164,-0.723742 0.665039,-1.154296 0.121918,-0.420374 0.09576,-0.880755 -0.05713,-1.290527 -0.152892,-0.409782 -0.429069,-0.767531 -0.773437,-1.03125 -0.344342,-0.26372 -0.755663,-0.434118 -1.180664,-0.508302 -0.425009,-0.07409 -0.863854,-0.05311 -1.284668,0.04248 -0.652233,0.148187 -1.268773,0.48386 -1.710937,0.993165 -0.442163,0.509311 -0.697097,1.19694 -0.638672,1.873535 0.03308,0.383185 0.1616,0.750306 0.298828,1.108886 0.137241,0.358444 0.285089,0.71579 0.360352,1.092774 0.09855,0.493743 0.06671,1.01451 -0.08496,1.49414 -0.151669,0.479559 -0.423115,0.916752 -0.779296,1.26709 -0.712356,0.700671 -1.759336,1.019282 -2.73926,0.867188 -0.668347,-0.103752 -1.306707,-0.417488 -1.788579,-0.899413 -0.481872,-0.481953 -0.803383,-1.13102 -0.881836,-1.813477 -0.06676,-0.580771 0.04317,-1.182504 0.317871,-1.696289 0.274771,-0.51376 0.714154,-0.93691 1.237793,-1.179199 0.661687,-0.306199 1.418431,-0.317737 2.104981,-0.561035 0.591932,-0.20979 1.131787,-0.602237 1.466309,-1.141114 0.167262,-0.269389 0.281502,-0.573888 0.32666,-0.88916 0.04516,-0.315154 0.02058,-0.641821 -0.08057,-0.943359 C 15.852677,24.290995 15.646272,23.990338 15.397997,23.736329 15.149711,23.482321 14.859844,23.27411 14.560106,23.085937 13.960704,22.709646 13.308138,22.405324 12.78618,21.924316 12.34364,21.516434 12.010616,20.990204 11.813524,20.416992 11.616321,19.84387 11.554545,19.224797 11.6187,18.621094 c 0.12825,-1.207357 0.76136,-2.33061 1.645019,-3.14795 0.869135,-0.803875 2.004096,-1.334062 3.178712,-1.371094 z m 7.631835,8.696778 a 1.8018982,1.8314183 0 0 0 -1.801758,1.831055 1.8018982,1.8314183 0 0 0 1.801758,1.832519 1.8018982,1.8314183 0 0 0 1.803223,-1.832519 1.8018982,1.8314183 0 0 0 -1.803223,-1.831055 z"
       style="font-variation-settings:normal;opacity:0.6;vector-effect:none;fill:#d0d0d0;stroke-width:1.5;stroke-linecap:round;stroke-miterlimit:26.70000076" />
  </g>
</svg>
