<?xml version="1.0" encoding="UTF-8" standalone="no"?>
<!-- Created with Inkscape (http://www.inkscape.org/) -->

<svg
   xmlns:dc="http://purl.org/dc/elements/1.1/"
   xmlns:cc="http://creativecommons.org/ns#"
   xmlns:rdf="http://www.w3.org/1999/02/22-rdf-syntax-ns#"
   xmlns:svg="http://www.w3.org/2000/svg"
   xmlns="http://www.w3.org/2000/svg"
   xmlns:sodipodi="http://sodipodi.sourceforge.net/DTD/sodipodi-0.dtd"
   xmlns:inkscape="http://www.inkscape.org/namespaces/inkscape"
   width="48.149998"
   height="48"
   viewBox="0 0 48.149998 48"
   version="1.1"
   id="svg8"
   inkscape:version="0.92+devel (f96dc7e339, 2017-07-28, custom)"
   sodipodi:docname="ntfs-config.svg">
  <defs
     id="ol-defs">
    <style
       id="current-color-scheme">      .ColorScheme-Text {
        color:#d0d0d0;
        stop-color:#d0d0d0;
      }
      .ColorScheme-Background {
        color:#212121;
        stop-color:#212121;
      }
      .ColorScheme-Highlight {
        color:#0039a9;
        stop-color:#0039a9;
      }
      .ColorScheme-ViewText {
        color:#d0d0d0;
        stop-color:#d0d0d0;
      }
      .ColorScheme-ViewBackground {
        color:#19191b;
        stop-color:#19191b;
      }
      .ColorScheme-ViewHover {
        color:#005cc7;
        stop-color:#005cc7;
      }
      .ColorScheme-ViewFocus{
        color:#002466;
        stop-color:#002466;
      }
      .ColorScheme-ButtonText {
        color:#d0d0d0;
        stop-color:#d0d0d0;
      }
      .ColorScheme-ButtonBackground {
        color:#232323;
        stop-color:#232323;                             
      }                                                 
      .ColorScheme-ButtonHover {                        
        color:#005cc7;                                  
        stop-color:#005cc7;                             
      }                                                 
      .ColorScheme-ButtonFocus{                         
        color:#0039a9;                                  
        stop-color:#0039a9;                             
      }</style>
    <style
       id="current-color-scheme-7">      .ColorScheme-Text {
        color:#d0d0d0;
        stop-color:#d0d0d0;
      }
      .ColorScheme-Background {
        color:#212121;
        stop-color:#212121;
      }
      .ColorScheme-Highlight {
        color:#0039a9;
        stop-color:#0039a9;
      }
      .ColorScheme-ViewText {
        color:#d0d0d0;
        stop-color:#d0d0d0;
      }
      .ColorScheme-ViewBackground {
        color:#19191b;
        stop-color:#19191b;
      }
      .ColorScheme-ViewHover {
        color:#005cc7;
        stop-color:#005cc7;
      }
      .ColorScheme-ViewFocus{
        color:#002466;
        stop-color:#002466;
      }
      .ColorScheme-ButtonText {
        color:#d0d0d0;
        stop-color:#d0d0d0;
      }
      .ColorScheme-ButtonBackground {
        color:#232323;
        stop-color:#232323;                             
      }                                                 
      .ColorScheme-ButtonHover {                        
        color:#005cc7;                                  
        stop-color:#005cc7;                             
      }                                                 
      .ColorScheme-ButtonFocus{                         
        color:#0039a9;                                  
        stop-color:#0039a9;                             
      }</style>
    <style
       id="current-color-scheme-75">      .ColorScheme-Text {
        color:#d0d0d0;
        stop-color:#d0d0d0;
      }
      .ColorScheme-Background {
        color:#212121;
        stop-color:#212121;
      }
      .ColorScheme-Highlight {
        color:#0039a9;
        stop-color:#0039a9;
      }
      .ColorScheme-ViewText {
        color:#d0d0d0;
        stop-color:#d0d0d0;
      }
      .ColorScheme-ViewBackground {
        color:#19191b;
        stop-color:#19191b;
      }
      .ColorScheme-ViewHover {
        color:#005cc7;
        stop-color:#005cc7;
      }
      .ColorScheme-ViewFocus{
        color:#002466;
        stop-color:#002466;
      }
      .ColorScheme-ButtonText {
        color:#d0d0d0;
        stop-color:#d0d0d0;
      }
      .ColorScheme-ButtonBackground {
        color:#232323;
        stop-color:#232323;                             
      }                                                 
      .ColorScheme-ButtonHover {                        
        color:#005cc7;                                  
        stop-color:#005cc7;                             
      }                                                 
      .ColorScheme-ButtonFocus{                         
        color:#0039a9;                                  
        stop-color:#0039a9;                             
      }</style>
  </defs>
  <sodipodi:namedview
     id="base"
     pagecolor="#002266"
     bordercolor="#ffffff"
     borderopacity="0.46666667"
     inkscape:pageopacity="0"
     inkscape:pageshadow="2"
     inkscape:zoom="12.859375"
     inkscape:cx="31.6838"
     inkscape:cy="27.406602"
     inkscape:document-units="px"
     inkscape:current-layer="g876"
     inkscape:document-rotation="0"
     showgrid="false"
     inkscape:showpageshadow="false"
     borderlayer="true"
     units="px"
     fit-margin-top="0"
     fit-margin-left="0"
     fit-margin-right="0"
     fit-margin-bottom="0"
     inkscape:window-width="1920"
     inkscape:window-height="1051"
     inkscape:window-x="0"
     inkscape:window-y="0"
     inkscape:window-maximized="1"
     inkscape:snap-page="true" />
  <metadata
     id="metadata5">
    <rdf:RDF>
      <cc:Work
         rdf:about="">
        <dc:format>image/svg+xml</dc:format>
        <dc:type
           rdf:resource="http://purl.org/dc/dcmitype/StillImage" />
        <dc:title />
      </cc:Work>
    </rdf:RDF>
  </metadata>
  <g
     id="g876"
     inkscape:label="#ntfs-config">
    <rect
       inkscape:label="#boundary"
       y="0"
       x="0"
       height="48"
       width="48.149998"
       id="rect4264"
       style="fill:none;fill-opacity:0.74651441;stroke-width:23.61599922;stroke-opacity:0.3596773" />
    <path
       inkscape:label="#"
       id="rect814"
       d="M 9.6191883,6 C 7.6247882,6 6.0186024,7.606186 6.0186024,9.600586 V 34.612793 H 42.131395 V 9.600586 C 42.131395,7.606186 40.525209,6 38.530809,6 Z M 26.631883,9.027832 28.628465,9.375 l 0.162598,2.047852 a 5.3764756,5.3764756 0 0 1 0.950683,0.606445 l 1.92334,-0.733887 1.168945,1.658203 -1.333008,1.561524 a 5.3764756,5.3764756 0 0 1 0.244629,1.104492 l 1.876466,0.839355 -0.344239,2.000977 -2.050781,0.161133 a 5.3764756,5.3764756 0 0 1 -0.606446,0.952148 l 0.733887,1.92334 -1.659668,1.16748 -1.557128,-1.330078 a 5.3764756,5.3764756 0 0 1 -1.107422,0.244629 l -0.842285,1.873535 -1.996582,-0.345703 -0.162598,-2.049316 a 5.3764756,5.3764756 0 0 1 -0.953613,-0.603516 l -1.92041,0.729493 -1.171875,-1.655274 1.331542,-1.562988 a 5.3764756,5.3764756 0 0 1 -0.243164,-1.101563 l -1.876465,-0.845215 0.347169,-1.998047 2.050781,-0.158203 a 5.3764756,5.3764756 0 0 1 0.603515,-0.952148 l -0.730957,-1.927734 1.659669,-1.166016 1.560058,1.330078 a 5.3764756,5.3764756 0 0 1 1.104492,-0.241699 z m -0.221191,5.112305 a 2.1013448,2.1013448 0 0 0 -2.07129,1.741699 2.1013448,2.1013448 0 0 0 1.710938,2.430176 2.1013448,2.1013448 0 0 0 2.430176,-1.712403 2.1013448,2.1013448 0 0 0 -1.712402,-2.430176 2.1013448,2.1013448 0 0 0 -0.357422,-0.0293 z m -8.260254,5.460937 1.661133,0.314942 0.105469,1.706542 a 4.479296,4.479296 0 0 1 0.788085,0.521485 l 1.609864,-0.585937 0.950683,1.398925 -1.135254,1.283203 a 4.479296,4.479296 0 0 1 0.19043,0.919922 l 1.554199,0.728027 -0.319336,1.661134 -1.703613,0.105468 a 4.479296,4.479296 0 0 1 -0.520019,0.788086 l 0.581542,1.609863 -1.397461,0.947754 -1.283202,-1.130859 a 4.479296,4.479296 0 0 1 -0.919923,0.190429 l -0.728027,1.549805 -1.659668,-0.313476 -0.108398,-1.706543 a 4.479296,4.479296 0 0 1 -0.783691,-0.52002 l -1.611328,0.584472 -0.950684,-1.40039 1.135254,-1.283203 a 4.479296,4.479296 0 0 1 -0.188965,-0.916992 l -1.555664,-0.730957 0.316406,-1.659668 1.706543,-0.108399 a 4.479296,4.479296 0 0 1 0.521485,-0.783691 l -0.584473,-1.611328 1.395996,-0.950684 1.284668,1.135254 a 4.479296,4.479296 0 0 1 0.919922,-0.188965 z m 12.581543,3.231445 1.797363,0.722168 -0.219726,1.365234 a 3.2570107,3.2570107 0 0 1 0.263671,0.29297 3.2570107,3.2570107 0 0 1 0.222657,0.326659 l 1.375488,0.112794 0.272461,1.918945 -1.289062,0.489257 a 3.2570107,3.2570107 0 0 1 -0.294435,0.732423 l 0.590333,1.248047 -1.524902,1.195312 -1.066407,-0.870117 a 3.2570107,3.2570107 0 0 1 -0.783691,0.106933 l -0.785156,1.136719 -1.798829,-0.720703 0.219727,-1.365234 a 3.2570107,3.2570107 0 0 1 -0.263672,-0.292969 3.2570107,3.2570107 0 0 1 -0.222656,-0.326661 l -1.375489,-0.112792 -0.27246,-1.918946 1.289062,-0.489257 a 3.2570107,3.2570107 0 0 1 0.294434,-0.733887 l -0.588867,-1.246582 1.523437,-1.195313 1.066406,0.870118 a 3.2570107,3.2570107 0 0 1 0.783692,-0.108399 z m -12.858398,1.022462 a 1.7506907,1.7506907 0 0 0 -0.990235,0.303223 1.7506907,1.7506907 0 0 0 -0.46289,2.43164 1.7506907,1.7506907 0 0 0 2.43164,0.46289 1.7506907,1.7506907 0 0 0 0.462891,-2.43164 1.7506907,1.7506907 0 0 0 -1.441406,-0.766113 z m 12.188964,1.90869 a 1.4586366,1.4586366 0 0 0 -0.950683,0.309083 1.4586366,1.4586366 0 0 0 -0.249024,2.049316 1.4586366,1.4586366 0 0 0 2.046387,0.249024 1.4586366,1.4586366 0 0 0 0.249023,-2.049317 1.4586366,1.4586366 0 0 0 -1.095703,-0.558106 z"
       style="font-variation-settings:normal;opacity:0.57099998;vector-effect:none;fill:#d0d0d0;stroke-width:3.9000001;stroke-miterlimit:5.5"
       inkscape:connector-curvature="0" />
    <path
       inkscape:label="#"
       id="path844"
       d="m 6.0186024,34.612793 v 3.786621 C 6.0186024,40.393814 7.6247882,42 9.6191883,42 H 38.530809 c 1.9944,0 3.600586,-1.606186 3.600586,-3.600586 v -3.786621 z m 19.9790036,0.376465 c 0.348287,0 0.688686,0.05225 1.022461,0.156738 l -0.165528,0.852539 c -0.19446,-0.04644 -0.381087,-0.06885 -0.561035,-0.06885 -0.177046,0 -0.305425,0.04181 -0.383789,0.125977 -0.07546,0.08127 -0.112793,0.239515 -0.112793,0.474609 v 0.32666 h 0.914063 v 0.962402 h -0.914063 v 3.660646 H 24.573777 V 37.819333 H 23.89409 v -0.962402 h 0.679687 v -0.348633 c 0,-0.38892 0.04031,-0.678559 0.121583,-0.870117 0.08417,-0.191558 0.236449,-0.346822 0.457031,-0.46582 0.223484,-0.121901 0.505635,-0.183105 0.845215,-0.183105 z m -3.260742,0.234375 v 1.6333 h 0.834961 v 0.974121 h -0.834961 v 1.864747 c 0,0.37731 0.006,0.596792 0.0205,0.660644 0.01741,0.06095 0.05472,0.111711 0.109864,0.152344 0.05805,0.04064 0.126741,0.06152 0.208008,0.06152 0.113192,0 0.27741,-0.03882 0.492187,-0.117188 l 0.105468,0.949219 c -0.284434,0.121901 -0.6069,0.18164 -0.966796,0.18164 -0.220582,0 -0.419146,-0.03584 -0.596192,-0.108398 -0.177046,-0.07546 -0.308408,-0.171013 -0.392578,-0.287109 -0.08127,-0.118998 -0.137996,-0.278739 -0.169922,-0.479004 -0.02612,-0.142217 -0.03955,-0.428872 -0.03955,-0.861328 v -2.01709 H 20.946817 V 36.85693 h 0.561036 v -0.918457 z m -4.083985,1.527832 c 0.269922,0 0.516262,0.04927 0.739746,0.147949 0.223485,0.09578 0.392178,0.219681 0.505371,0.370605 0.116097,0.150925 0.195234,0.322603 0.23877,0.51416 0.04644,0.191559 0.07031,0.466249 0.07031,0.823242 v 2.87256 h -1.223145 v -2.359864 c 0,-0.49921 -0.02686,-0.821678 -0.0791,-0.966797 -0.05225,-0.148022 -0.13735,-0.261506 -0.256348,-0.342774 -0.116096,-0.08127 -0.256438,-0.123046 -0.421875,-0.123046 -0.211875,0 -0.402951,0.05822 -0.571289,0.174317 -0.168339,0.116096 -0.284781,0.269868 -0.348633,0.461425 -0.06095,0.191558 -0.09082,0.546851 -0.09082,1.063477 v 2.093262 h -1.223143 v -4.623048 h 1.136719 v 0.678223 c 0.403432,-0.52243 0.911033,-0.783691 1.523437,-0.783691 z m 10.439942,0 c 0.632722,0 1.102991,0.103012 1.410644,0.309081 0.307654,0.206071 0.519647,0.512096 0.635743,0.915528 l -1.154298,0.212403 c -0.04934,-0.179949 -0.143399,-0.317308 -0.282714,-0.413086 -0.136413,-0.09578 -0.331992,-0.143555 -0.587403,-0.143555 -0.322164,0 -0.553556,0.04479 -0.692871,0.134766 -0.09288,0.06386 -0.13916,0.145974 -0.13916,0.247558 0,0.08707 0.04031,0.161706 0.121582,0.222657 0.110291,0.08127 0.490978,0.196216 1.141114,0.344237 0.653037,0.148023 1.108386,0.32868 1.366698,0.543458 0.255411,0.217679 0.38379,0.520748 0.38379,0.909667 0,0.42375 -0.177647,0.788023 -0.531738,1.092774 -0.354093,0.304751 -0.878106,0.457031 -1.571778,0.457031 -0.629819,10e-7 -1.128466,-0.126914 -1.49707,-0.382324 -0.365702,-0.25541 -0.606045,-0.601778 -0.719239,-1.040039 l 1.227539,-0.1875 c 0.05224,0.237996 0.15824,0.418654 0.317871,0.543457 0.159632,0.121899 0.383563,0.183105 0.6709,0.183105 0.316359,0 0.555212,-0.05822 0.714842,-0.174316 0.107389,-0.08127 0.161133,-0.190247 0.161133,-0.32666 0,-0.09288 -0.02984,-0.169031 -0.08789,-0.22998 -0.06095,-0.05805 -0.196817,-0.111793 -0.408691,-0.161133 -0.986814,-0.21768 -1.612347,-0.416244 -1.876465,-0.596192 -0.365702,-0.249606 -0.549317,-0.597438 -0.549317,-1.041504 0,-0.40053 0.158249,-0.736452 0.474609,-1.009277 0.316361,-0.272825 0.807521,-0.410156 1.472169,-0.410156 z"
       style="font-variation-settings:normal;opacity:1;vector-effect:none;fill:#005cc7;stroke-width:3.9000001;stroke-miterlimit:5.5"
       inkscape:connector-curvature="0" />
  </g>
</svg>
