<?xml version="1.0" encoding="UTF-8" standalone="no"?>
<!-- Created with Inkscape (http://www.inkscape.org/) -->

<svg
   xmlns:dc="http://purl.org/dc/elements/1.1/"
   xmlns:cc="http://creativecommons.org/ns#"
   xmlns:rdf="http://www.w3.org/1999/02/22-rdf-syntax-ns#"
   xmlns:svg="http://www.w3.org/2000/svg"
   xmlns="http://www.w3.org/2000/svg"
   xmlns:xlink="http://www.w3.org/1999/xlink"
   xmlns:sodipodi="http://sodipodi.sourceforge.net/DTD/sodipodi-0.dtd"
   xmlns:inkscape="http://www.inkscape.org/namespaces/inkscape"
   width="48.149998"
   height="48"
   viewBox="0 0 48.149998 48"
   version="1.1"
   id="svg8"
   inkscape:version="0.92+devel (f96dc7e339, 2017-07-28, custom)"
   sodipodi:docname="nylas.svg">
  <defs
     id="ol-defs">
    <style
       id="current-color-scheme">      .ColorScheme-Text {
        color:#d0d0d0;
        stop-color:#d0d0d0;
      }
      .ColorScheme-Background {
        color:#212121;
        stop-color:#212121;
      }
      .ColorScheme-Highlight {
        color:#0039a9;
        stop-color:#0039a9;
      }
      .ColorScheme-ViewText {
        color:#d0d0d0;
        stop-color:#d0d0d0;
      }
      .ColorScheme-ViewBackground {
        color:#19191b;
        stop-color:#19191b;
      }
      .ColorScheme-ViewHover {
        color:#005cc7;
        stop-color:#005cc7;
      }
      .ColorScheme-ViewFocus{
        color:#002466;
        stop-color:#002466;
      }
      .ColorScheme-ButtonText {
        color:#d0d0d0;
        stop-color:#d0d0d0;
      }
      .ColorScheme-ButtonBackground {
        color:#232323;
        stop-color:#232323;                             
      }                                                 
      .ColorScheme-ButtonHover {                        
        color:#005cc7;                                  
        stop-color:#005cc7;                             
      }                                                 
      .ColorScheme-ButtonFocus{                         
        color:#0039a9;                                  
        stop-color:#0039a9;                             
      }</style>
    <linearGradient
       xlink:href="#linearGradient4903"
       id="linearGradient4279"
       x1="400.16101"
       y1="518.67603"
       x2="416.66901"
       y2="518.67603"
       gradientUnits="userSpaceOnUse"
       gradientTransform="matrix(0.76841047,0,0,0.76052133,-290.27788,-380.14605)" />
    <linearGradient
       id="linearGradient4903">
      <stop
         style="stop-color:#eef1f2;stop-opacity:1"
         offset="0"
         id="stop18" />
      <stop
         style="stop-color:#f9fafb;stop-opacity:1"
         offset="1"
         id="stop20" />
    </linearGradient>
  </defs>
  <sodipodi:namedview
     id="base"
     pagecolor="#002266"
     bordercolor="#ffffff"
     borderopacity="0.46666667"
     inkscape:pageopacity="0"
     inkscape:pageshadow="2"
     inkscape:zoom="11.596497"
     inkscape:cx="25.85856"
     inkscape:cy="33.266187"
     inkscape:document-units="px"
     inkscape:current-layer="g843"
     inkscape:document-rotation="0"
     showgrid="false"
     inkscape:showpageshadow="false"
     borderlayer="true"
     units="px"
     fit-margin-top="0"
     fit-margin-left="0"
     fit-margin-right="0"
     fit-margin-bottom="0"
     inkscape:window-width="1920"
     inkscape:window-height="1051"
     inkscape:window-x="0"
     inkscape:window-y="0"
     inkscape:window-maximized="1"
     inkscape:snap-page="true"
     inkscape:snap-bbox="true"
     inkscape:bbox-nodes="true"
     inkscape:snap-intersection-paths="false"
     inkscape:object-paths="true" />
  <metadata
     id="metadata5">
    <rdf:RDF>
      <cc:Work
         rdf:about="">
        <dc:format>image/svg+xml</dc:format>
        <dc:type
           rdf:resource="http://purl.org/dc/dcmitype/StillImage" />
        <dc:title></dc:title>
      </cc:Work>
    </rdf:RDF>
  </metadata>
  <g
     id="g843"
     inkscape:label="#nylas"
     style="opacity:1">
    <rect
       inkscape:label="#boundary"
       y="0"
       x="0"
       height="48"
       width="48.149998"
       id="rect4264"
       style="fill:none;fill-opacity:0.74651441;stroke-width:23.61599922;stroke-opacity:0.3596773" />
    <path
       style="opacity:0.46808514;fill:#d0d0d0;stroke-width:3.3592155"
       d="M 6.078125,13.777962 V 36.998665 L 17.736328,25.340462 6.1757812,13.777962 Z m 3.6953125,0 3.6640625,3.664063 -0.03125,-3.664063 z m 24.9062505,0 0.03125,3.660157 3.660156,-3.660157 z m 7.294921,0 -11.5625,11.564453 11.66211,11.66211 V 13.777962 Z M 19.535156,27.135384 7,39.668587 6.0742188,40.594369 v 1.171875 H 42.072266 V 40.594369 L 41.144531,39.668587 28.611328,27.135384 24.072266,31.668587 Z"
       id="path821"
       inkscape:connector-curvature="0"
       inkscape:label="#" />
    <path
       style="opacity:0.77872338;fill:#d0d0d0;stroke:none;stroke-width:1px;stroke-linecap:butt;stroke-linejoin:miter;stroke-opacity:1"
       d="M 13.34375,6.234375 13.4375,17.443359 24.072266,28.076172 34.710938,17.439453 34.615238,6.234375 H 13.343754 Z m 10.992969,1.3730469 c 1.913623,1.0665543 3.805323,2.172091 5.707031,3.2597661 -4.76e-4,0.943979 0.09465,1.896596 -0.02148,2.833984 -1.960688,-1.044064 -3.86095,-2.199585 -5.812504,-3.261719 0.03222,-0.9415805 -0.08238,-1.9082595 0.09335,-2.8294967 z m -5.988281,0.6816406 c 1.186852,0.028124 2.122747,0.9082598 3.156886,1.3890616 0.629707,0.3533929 1.258687,0.7080779 1.888035,1.0621099 -0.01844,0.951287 0.05707,1.912453 -0.07222,2.855469 -1.990611,-1.081366 -3.941885,-2.233936 -5.910156,-3.355469 -0.0025,-0.7276704 -0.0115,-1.8377514 0.937455,-1.9511715 z m -0.851563,2.8183595 c 1.97414,1.099319 3.930329,2.23066 5.894531,3.347656 -0.01831,0.95063 0.05635,1.910982 -0.07027,2.853516 -1.987772,-1.085308 -3.94001,-2.234933 -5.908203,-3.355469 0.02336,-0.946314 -0.06294,-1.911906 0.08394,-2.845703 z m 6.763672,0.177734 c 1.94416,1.110904 3.8886,2.221318 5.833984,3.330078 -0.01955,0.933063 0.05423,1.876197 -0.07617,2.800782 -1.910234,-1.051314 -3.813252,-2.133749 -5.685547,-3.25586 -0.226508,-0.925988 -0.04983,-1.921138 -0.07227,-2.875 z m -6.757813,3.539063 c 1.976318,1.093403 3.930589,2.226305 5.894532,3.341797 -0.0065,0.955672 0.01795,1.912433 -0.02539,2.867187 -1.957493,-1.118568 -3.955231,-2.185404 -5.86048,-3.384053 -0.177231,-0.90565 -0.128885,-1.91401 -0.0087,-2.824931 z m 6.707032,0.105469 c 1.958297,1.115142 3.917281,2.229073 5.876953,3.341796 0.0082,0.728896 0.101488,1.787383 -0.778052,2.023362 -1.086318,0.0914 -1.938554,-0.778894 -2.879626,-1.190336 -0.725431,-0.621332 -2.266247,-0.755165 -2.214512,-1.917466 -0.0087,-0.752399 -0.0033,-1.504914 -0.0048,-2.257356 z"
       id="path826"
       inkscape:connector-curvature="0"
       sodipodi:nodetypes="cccccccccccccccccccccccccccccccccccccccccccc"
       inkscape:label="#" />
  </g>
</svg>
