<?xml version="1.0" encoding="UTF-8" standalone="no"?>
<!-- Created with Inkscape (http://www.inkscape.org/) -->

<svg
   xmlns:dc="http://purl.org/dc/elements/1.1/"
   xmlns:cc="http://creativecommons.org/ns#"
   xmlns:rdf="http://www.w3.org/1999/02/22-rdf-syntax-ns#"
   xmlns:svg="http://www.w3.org/2000/svg"
   xmlns="http://www.w3.org/2000/svg"
   xmlns:sodipodi="http://sodipodi.sourceforge.net/DTD/sodipodi-0.dtd"
   xmlns:inkscape="http://www.inkscape.org/namespaces/inkscape"
   width="48.149998"
   height="48"
   viewBox="0 0 48.149998 48"
   version="1.1"
   id="svg8"
   inkscape:version="0.92+devel (b8837397f6, 2017-07-27, custom)"
   sodipodi:docname="octave.svg">
  <defs
     id="ol-defs">
    <style
       id="current-color-scheme">      .ColorScheme-Text {
        color:#d0d0d0;
        stop-color:#d0d0d0;
      }
      .ColorScheme-Background {
        color:#212121;
        stop-color:#212121;
      }
      .ColorScheme-Highlight {
        color:#0039a9;
        stop-color:#0039a9;
      }
      .ColorScheme-ViewText {
        color:#d0d0d0;
        stop-color:#d0d0d0;
      }
      .ColorScheme-ViewBackground {
        color:#19191b;
        stop-color:#19191b;
      }
      .ColorScheme-ViewHover {
        color:#005cc7;
        stop-color:#005cc7;
      }
      .ColorScheme-ViewFocus{
        color:#002466;
        stop-color:#002466;
      }
      .ColorScheme-ButtonText {
        color:#d0d0d0;
        stop-color:#d0d0d0;
      }
      .ColorScheme-ButtonBackground {
        color:#232323;
        stop-color:#232323;                             
      }                                                 
      .ColorScheme-ButtonHover {                        
        color:#005cc7;                                  
        stop-color:#005cc7;                             
      }                                                 
      .ColorScheme-ButtonFocus{                         
        color:#0039a9;                                  
        stop-color:#0039a9;                             
      }</style>
  </defs>
  <sodipodi:namedview
     id="base"
     pagecolor="#002266"
     bordercolor="#ffffff"
     borderopacity="0.46666667"
     inkscape:pageopacity="0"
     inkscape:pageshadow="2"
     inkscape:zoom="12.859375"
     inkscape:cx="31.6838"
     inkscape:cy="21.027627"
     inkscape:document-units="px"
     inkscape:current-layer="g843"
     inkscape:document-rotation="0"
     showgrid="false"
     inkscape:showpageshadow="false"
     borderlayer="true"
     units="px"
     fit-margin-top="0"
     fit-margin-left="0"
     fit-margin-right="0"
     fit-margin-bottom="0"
     inkscape:window-width="1920"
     inkscape:window-height="1051"
     inkscape:window-x="0"
     inkscape:window-y="0"
     inkscape:window-maximized="1"
     inkscape:snap-page="true" />
  <metadata
     id="metadata5">
    <rdf:RDF>
      <cc:Work
         rdf:about="">
        <dc:format>image/svg+xml</dc:format>
        <dc:type
           rdf:resource="http://purl.org/dc/dcmitype/StillImage" />
        <dc:title></dc:title>
      </cc:Work>
    </rdf:RDF>
  </metadata>
  <g
     id="g843"
     inkscape:label="#octave">
    <rect
       inkscape:label="#boundary"
       y="0"
       x="0"
       height="48"
       width="48.149998"
       id="rect4264"
       style="fill:none;fill-opacity:0.74651441;stroke-width:23.61599922;stroke-opacity:0.3596773" />
    <path
       style="opacity:0.6;fill:#d0d0d0;fill-opacity:1;stroke:none;stroke-width:1.13376546"
       d="m 22.580078,6 c -0.0235,0 -3.245574,2.1281928 -7.160156,4.728516 l -7.1171876,4.728515 v 7.341797 c 0,4.039627 0.020709,7.345703 0.046875,7.345703 0.026116,0 3.2481906,-2.131183 7.1601566,-4.736328 l 7.113281,-4.736328 V 13.333984 C 22.623047,9.2991816 22.603638,6 22.580078,6 Z m 3.046875,0.2109375 c -0.02338,0 -0.04426,3.2474831 -0.04297,7.2167965 l 0.0039,7.214844 7.109375,4.757813 c 3.909222,2.615907 7.115821,4.761718 7.126953,4.761718 0.01195,0.0031 0.02148,-3.251605 0.02148,-7.232421 V 15.693359 L 32.7578,10.949219 C 28.859071,8.3416609 25.650329,6.2109385 25.626953,6.2109375 Z M 15.566797,15.814453 c 1.146015,-3.36e-4 2.075429,0.928205 2.076172,2.074219 3.36e-4,1.146777 -0.929395,2.076508 -2.076172,2.076172 -1.146014,-7.43e-4 -2.074555,-0.930157 -2.074219,-2.076172 7.42e-4,-1.145252 0.928967,-2.073477 2.074219,-2.074219 z m 16.883203,0 c 1.146015,-3.36e-4 2.075429,0.928205 2.076172,2.074219 3.36e-4,1.146777 -0.929395,2.076508 -2.076172,2.076172 -1.146777,3.36e-4 -2.076508,-0.929395 -2.076172,-2.076172 7.43e-4,-1.146014 0.930157,-2.074555 2.076172,-2.074219 z m -8.129688,7.306641 c -0.212855,0.0087 -14.25406,9.482726 -14.171874,9.5625 0.04066,0.03913 3.193782,2.160892 7.007812,4.710937 3.814028,2.550046 6.956075,4.624021 6.982422,4.605469 1.187382,-0.769559 14.104199,-9.510064 14.117187,-9.552734 0.02788,-0.09239 -13.779149,-9.326172 -13.935547,-9.326172 z m -0.160649,6.416671 c 1.483346,9.61e-4 2.685595,1.20321 2.686557,2.686556 4.35e-4,1.484334 -1.202223,2.688124 -2.686557,2.689086 -1.485321,4.35e-4 -2.689521,-1.203765 -2.689086,-2.689086 9.62e-4,-1.484334 1.204753,-2.686991 2.689086,-2.686556 z"
       id="path6"
       inkscape:connector-curvature="0"
       sodipodi:nodetypes="sccssccsscccccscccccccccccccccscccccccc" />
  </g>
</svg>
