<?xml version="1.0" encoding="UTF-8" standalone="no"?>
<!-- Created with Inkscape (http://www.inkscape.org/) -->

<svg
   xmlns:dc="http://purl.org/dc/elements/1.1/"
   xmlns:cc="http://creativecommons.org/ns#"
   xmlns:rdf="http://www.w3.org/1999/02/22-rdf-syntax-ns#"
   xmlns:svg="http://www.w3.org/2000/svg"
   xmlns="http://www.w3.org/2000/svg"
   xmlns:sodipodi="http://sodipodi.sourceforge.net/DTD/sodipodi-0.dtd"
   xmlns:inkscape="http://www.inkscape.org/namespaces/inkscape"
   width="48.149998"
   height="48"
   viewBox="0 0 48.149998 48"
   version="1.1"
   id="svg8"
   inkscape:version="0.92+devel (f96dc7e339, 2017-07-28, custom)"
   sodipodi:docname="okteta.svg">
  <defs
     id="ol-defs">
    <style
       id="current-color-scheme">      .ColorScheme-Text {
        color:#d0d0d0;
        stop-color:#d0d0d0;
      }
      .ColorScheme-Background {
        color:#212121;
        stop-color:#212121;
      }
      .ColorScheme-Highlight {
        color:#0039a9;
        stop-color:#0039a9;
      }
      .ColorScheme-ViewText {
        color:#d0d0d0;
        stop-color:#d0d0d0;
      }
      .ColorScheme-ViewBackground {
        color:#19191b;
        stop-color:#19191b;
      }
      .ColorScheme-ViewHover {
        color:#005cc7;
        stop-color:#005cc7;
      }
      .ColorScheme-ViewFocus{
        color:#002466;
        stop-color:#002466;
      }
      .ColorScheme-ButtonText {
        color:#d0d0d0;
        stop-color:#d0d0d0;
      }
      .ColorScheme-ButtonBackground {
        color:#232323;
        stop-color:#232323;                             
      }                                                 
      .ColorScheme-ButtonHover {                        
        color:#005cc7;                                  
        stop-color:#005cc7;                             
      }                                                 
      .ColorScheme-ButtonFocus{                         
        color:#0039a9;                                  
        stop-color:#0039a9;                             
      }</style>
    <style
       id="current-color-scheme-7">      .ColorScheme-Text {
        color:#d0d0d0;
        stop-color:#d0d0d0;
      }
      .ColorScheme-Background {
        color:#212121;
        stop-color:#212121;
      }
      .ColorScheme-Highlight {
        color:#0039a9;
        stop-color:#0039a9;
      }
      .ColorScheme-ViewText {
        color:#d0d0d0;
        stop-color:#d0d0d0;
      }
      .ColorScheme-ViewBackground {
        color:#19191b;
        stop-color:#19191b;
      }
      .ColorScheme-ViewHover {
        color:#005cc7;
        stop-color:#005cc7;
      }
      .ColorScheme-ViewFocus{
        color:#002466;
        stop-color:#002466;
      }
      .ColorScheme-ButtonText {
        color:#d0d0d0;
        stop-color:#d0d0d0;
      }
      .ColorScheme-ButtonBackground {
        color:#232323;
        stop-color:#232323;                             
      }                                                 
      .ColorScheme-ButtonHover {                        
        color:#005cc7;                                  
        stop-color:#005cc7;                             
      }                                                 
      .ColorScheme-ButtonFocus{                         
        color:#0039a9;                                  
        stop-color:#0039a9;                             
      }</style>
  </defs>
  <sodipodi:namedview
     id="base"
     pagecolor="#002266"
     bordercolor="#ffffff"
     borderopacity="0.46666667"
     inkscape:pageopacity="0"
     inkscape:pageshadow="2"
     inkscape:zoom="12.859375"
     inkscape:cx="31.6838"
     inkscape:cy="27.406602"
     inkscape:document-units="px"
     inkscape:current-layer="svg8"
     inkscape:document-rotation="0"
     showgrid="false"
     inkscape:showpageshadow="false"
     borderlayer="true"
     units="px"
     fit-margin-top="0"
     fit-margin-left="0"
     fit-margin-right="0"
     fit-margin-bottom="0"
     inkscape:window-width="1920"
     inkscape:window-height="1051"
     inkscape:window-x="0"
     inkscape:window-y="0"
     inkscape:window-maximized="1"
     inkscape:snap-page="true" />
  <metadata
     id="metadata5">
    <rdf:RDF>
      <cc:Work
         rdf:about="">
        <dc:format>image/svg+xml</dc:format>
        <dc:type
           rdf:resource="http://purl.org/dc/dcmitype/StillImage" />
        <dc:title></dc:title>
      </cc:Work>
    </rdf:RDF>
  </metadata>
  <g
     id="g841"
     inkscape:label="#okteta">
    <rect
       inkscape:label="#boundary"
       y="0"
       x="0"
       height="48"
       width="48.149998"
       id="rect4264"
       style="fill:none;fill-opacity:0.74651441;stroke-width:23.61599922;stroke-opacity:0.3596773" />
    <path
       inkscape:label="#"
       style="font-variation-settings:normal;opacity:0.6;vector-effect:none;fill:#d0d0d0;stroke-width:1.90000021;stroke-linecap:square"
       d="m 10.183242,6.0000005 c -2.2759586,0 -4.1082426,1.832289 -4.1082426,4.1082455 V 37.891755 C 6.0749994,40.167713 7.9072834,42 10.183242,42 h 27.783511 c 2.275958,0 4.108245,-1.832287 4.108245,-4.108245 V 10.108246 c 0,-2.2759565 -1.832287,-4.1082455 -4.108245,-4.1082455 z m 7.552727,3.824409 c 0.824577,2.3e-6 1.454174,0.3263815 1.887813,0.9801255 0.436924,0.650457 0.654896,1.596582 0.654896,2.838372 0,1.238499 -0.217969,2.186101 -0.654896,2.839847 -0.433642,0.650457 -1.063239,0.975691 -1.887813,0.975691 -0.824574,0 -1.455321,-0.325234 -1.892246,-0.975691 -0.433642,-0.653748 -0.650459,-1.601348 -0.650459,-2.839847 0,-1.24179 0.216815,-2.187913 0.650459,-2.838372 0.436925,-0.653748 1.067674,-0.9801232 1.892246,-0.9801255 z m 12.851019,0 c 0.824577,0 1.454174,0.3263815 1.887813,0.9801255 0.436925,0.650457 0.654897,1.596582 0.654897,2.838372 0,1.238499 -0.21797,2.186101 -0.654897,2.839847 -0.433641,0.650457 -1.063238,0.975691 -1.887813,0.975691 -0.824574,0 -1.455319,-0.325234 -1.892246,-0.975691 -0.433641,-0.653748 -0.650458,-1.601348 -0.650458,-2.839847 0,-1.24179 0.216815,-2.187913 0.650458,-2.838372 0.436925,-0.653748 1.067677,-0.9801232 1.892246,-0.9801255 z m 6.426249,0 c 0.824577,0 1.454174,0.3263815 1.887813,0.9801255 0.436925,0.650457 0.654897,1.596582 0.654897,2.838372 0,1.238499 -0.21797,2.186101 -0.654897,2.839847 -0.433641,0.650457 -1.063238,0.975691 -1.887813,0.975691 -0.824574,0 -1.455321,-0.325234 -1.892246,-0.975691 -0.433643,-0.653748 -0.650459,-1.601348 -0.650459,-2.839847 0,-1.24179 0.216816,-2.187913 0.650459,-2.838372 0.436923,-0.653748 1.067674,-0.9801232 1.892246,-0.9801255 z M 10.96971,9.957451 h 0.996385 v 6.520859 h 1.62615 v 0.838206 H 9.3539064 V 16.47831 h 1.6261506 v -5.614653 l -1.7695466,0.35479 V 10.31372 Z m 12.852494,0 h 0.994911 v 6.520859 h 1.626147 v 0.838206 H 22.204925 V 16.47831 h 1.62615 v -5.614653 l -1.768069,0.354792 V 10.31372 Z m -6.086235,0.654897 c -0.512482,0 -0.897994,0.253944 -1.157522,0.759851 -0.256239,0.502626 -0.384363,1.25887 -0.384363,2.270699 0,1.008541 0.128106,1.767738 0.384363,2.273651 0.259524,0.502626 0.64504,0.753944 1.157522,0.753944 0.515774,0 0.901281,-0.251309 1.157524,-0.753944 0.259522,-0.505916 0.390279,-1.26511 0.390279,-2.273651 0,-1.011829 -0.130755,-1.768069 -0.390279,-2.270699 -0.25624,-0.505913 -0.641757,-0.759851 -1.157524,-0.759851 z m 12.851019,0 c -0.512479,0 -0.897994,0.253944 -1.157522,0.759851 -0.256241,0.502626 -0.38436,1.25887 -0.38436,2.270699 0,1.008541 0.128106,1.767738 0.38436,2.273651 0.259524,0.502626 0.645041,0.753944 1.157522,0.753944 0.515772,0 0.90276,-0.251309 1.159003,-0.753944 0.259533,-0.505916 0.3888,-1.26511 0.3888,-2.273651 0,-1.011829 -0.12926,-1.768069 -0.3888,-2.270699 -0.256243,-0.505916 -0.643231,-0.759851 -1.159003,-0.759851 z m 6.426249,0 c -0.512481,0 -0.897996,0.253944 -1.157522,0.759851 -0.256241,0.502626 -0.384362,1.25887 -0.384362,2.270699 0,1.008541 0.128105,1.767738 0.384362,2.273651 0.259522,0.502626 0.645041,0.753944 1.157522,0.753944 0.515774,0 0.901284,-0.251309 1.157523,-0.753944 0.259523,-0.505916 0.39028,-1.26511 0.39028,-2.273651 0,-1.011829 -0.130754,-1.768069 -0.39028,-2.270699 -0.256239,-0.505916 -0.641749,-0.759851 -1.157523,-0.759851 z m -25.876478,9.731766 c 0.824575,0 1.454172,0.327863 1.887813,0.981605 0.436922,0.650459 0.654894,1.596584 0.654894,2.838371 0,1.238502 -0.217969,2.184625 -0.654894,2.838369 -0.433644,0.650459 -1.063241,0.975691 -1.887813,0.975691 -0.824576,0 -1.4553226,-0.325225 -1.8922476,-0.975691 -0.433641,-0.653746 -0.650457,-1.599869 -0.650457,-2.838371 0,-1.241787 0.216838,-2.18791 0.650457,-2.838369 0.436925,-0.653749 1.0676736,-0.981605 1.8922476,-0.981605 z m 6.426249,0 c 0.824575,0 1.452693,0.327863 1.886332,0.981605 0.436923,0.650459 0.656378,1.596584 0.656378,2.838371 0,1.238502 -0.219442,2.184625 -0.656378,2.838369 -0.433641,0.650459 -1.061762,0.975691 -1.886332,0.975691 -0.824576,0 -1.455324,-0.325225 -1.892248,-0.975691 -0.433642,-0.653746 -0.650459,-1.599867 -0.650459,-2.838369 0,-1.241787 0.216815,-2.18791 0.650459,-2.838371 0.436922,-0.65374 1.067674,-0.981603 1.892248,-0.981605 z m 12.85102,0 c 0.824574,0 1.454169,0.327863 1.88781,0.981605 0.436925,0.650459 0.654897,1.596584 0.654897,2.838371 0,1.238502 -0.21797,2.184625 -0.654897,2.838369 -0.433641,0.650459 -1.063241,0.975691 -1.88781,0.975691 -0.824577,0 -1.455324,-0.325225 -1.892251,-0.975691 -0.433641,-0.653746 -0.650457,-1.599869 -0.650457,-2.838371 0,-1.241787 0.216838,-2.18791 0.650457,-2.838369 0.436925,-0.653749 1.067676,-0.981605 1.892251,-0.981605 z m -6.766264,0.133042 h 0.996385 v 6.51938 h 1.626152 v 0.836729 h -4.238339 v -0.836729 h 1.62615 V 21.38484 l -1.769548,0.354795 V 20.83195 Z m 12.852496,0 h 0.994911 v 6.51938 h 1.626149 v 0.836729 h -4.238339 v -0.836729 h 1.62615 V 21.38484 l -1.768069,0.354797 v -0.907684 z m -25.363501,0.656377 c -0.512481,0 -0.897996,0.252466 -1.1575236,0.758382 -0.256239,0.502626 -0.38436,1.260349 -0.38436,2.272175 0,1.008541 0.128105,1.764784 0.38436,2.270697 0.2595236,0.502626 0.6450406,0.752463 1.1575236,0.752463 0.515765,0 0.90128,-0.249837 1.157523,-0.752463 0.259521,-0.505916 0.390278,-1.262156 0.390278,-2.270697 0,-1.011826 -0.130755,-1.769547 -0.390278,-2.272175 -0.256241,-0.505916 -0.641758,-0.758382 -1.157523,-0.758382 z m 6.426249,0 c -0.512484,0 -0.899477,0.252466 -1.159003,0.758382 -0.256241,0.502626 -0.38436,1.260349 -0.38436,2.272175 0,1.008541 0.128106,1.764784 0.38436,2.270697 0.259531,0.502626 0.646519,0.752463 1.159003,0.752463 0.515762,0 0.901279,-0.249837 1.157522,-0.752463 0.259524,-0.505916 0.3888,-1.262156 0.3888,-2.270697 0,-1.011826 -0.12926,-1.769547 -0.3888,-2.272175 -0.256243,-0.505907 -0.64176,-0.758373 -1.157522,-0.758371 z m 12.85102,0 c -0.512484,0 -0.897997,0.250986 -1.157525,0.756903 -0.256241,0.502626 -0.38436,1.261828 -0.38436,2.273652 0,1.008543 0.128106,1.764783 0.38436,2.270697 0.259522,0.502625 0.645041,0.752463 1.157525,0.752463 0.515771,0 0.901281,-0.249838 1.15752,-0.752463 0.259523,-0.505916 0.39028,-1.262154 0.39028,-2.270697 0,-1.011827 -0.130754,-1.769545 -0.39028,-2.272173 -0.256239,-0.505918 -0.641749,-0.758384 -1.15752,-0.758382 z m 0.375491,9.408018 c 0.824574,0 1.454169,0.327861 1.88781,0.981603 0.436923,0.650458 0.654895,1.596581 0.654895,2.838371 0,1.238502 -0.21797,2.184625 -0.654895,2.838371 -0.433643,0.650457 -1.06324,0.975688 -1.88781,0.975688 -0.824577,0 -1.455324,-0.325222 -1.892248,-0.975688 -0.433644,-0.653739 -0.650459,-1.59986 -0.650459,-2.838362 0,-1.241789 0.216838,-2.187912 0.650459,-2.838371 0.436924,-0.653749 1.067674,-0.981607 1.892248,-0.981603 z m -18.622376,0.131548 v 6.520872 h 1.626151 v 0.838207 H 9.5564364 V 37.193971 H 11.182586 V 31.580797 L 9.4130414,31.9356 V 31.029394 L 11.172239,30.6746 Z m 6.426251,0 v 6.520858 h 1.626152 v 0.838209 h -4.238339 v -0.838195 h 1.626149 v -5.611694 l -1.768068,0.354795 v -0.907678 l 1.759197,-0.354792 z m 6.426247,0 v 6.520872 h 1.626151 v 0.838209 h -4.238339 v -0.838209 h 1.626152 v -5.611696 l -1.769549,0.354804 V 31.029392 L 24.023258,30.6746 Z m 12.851019,0 v 6.520872 h 1.626152 v 0.838209 h -4.238337 v -0.838209 h 1.626149 v -5.611696 l -1.768068,0.354806 V 31.029394 L 36.875754,30.6746 Z m -7.081141,0.657853 c -0.512482,0 -0.897996,0.252467 -1.157522,0.758384 -0.256241,0.502624 -0.384363,1.260349 -0.384363,2.272173 0,1.008541 0.128106,1.764783 0.384363,2.270699 0.259521,0.502623 0.645038,0.753939 1.157522,0.753939 0.515771,0 0.901281,-0.251309 1.157522,-0.753939 0.259522,-0.505918 0.390279,-1.262158 0.390279,-2.270699 0,-1.011824 -0.130755,-1.769547 -0.390279,-2.272173 -0.256241,-0.505908 -0.641748,-0.758375 -1.157522,-0.758375 z"
       id="rect885"
       inkscape:connector-curvature="0" />
  </g>
</svg>
