<?xml version="1.0" encoding="UTF-8" standalone="no"?>
<!-- Created with Inkscape (http://www.inkscape.org/) -->

<svg
   xmlns:dc="http://purl.org/dc/elements/1.1/"
   xmlns:cc="http://creativecommons.org/ns#"
   xmlns:rdf="http://www.w3.org/1999/02/22-rdf-syntax-ns#"
   xmlns:svg="http://www.w3.org/2000/svg"
   xmlns="http://www.w3.org/2000/svg"
   xmlns:sodipodi="http://sodipodi.sourceforge.net/DTD/sodipodi-0.dtd"
   xmlns:inkscape="http://www.inkscape.org/namespaces/inkscape"
   width="48.149998"
   height="48"
   viewBox="0 0 48.149998 48"
   version="1.1"
   id="svg8"
   inkscape:version="0.92+devel (b8837397f6, 2017-07-27, custom)"
   sodipodi:docname="phonon-gstreamer.svg">
  <defs
     id="ol-defs">
    <style
       id="current-color-scheme">      .ColorScheme-Text {
        color:#d0d0d0;
        stop-color:#d0d0d0;
      }
      .ColorScheme-Background {
        color:#212121;
        stop-color:#212121;
      }
      .ColorScheme-Highlight {
        color:#0039a9;
        stop-color:#0039a9;
      }
      .ColorScheme-ViewText {
        color:#d0d0d0;
        stop-color:#d0d0d0;
      }
      .ColorScheme-ViewBackground {
        color:#19191b;
        stop-color:#19191b;
      }
      .ColorScheme-ViewHover {
        color:#005cc7;
        stop-color:#005cc7;
      }
      .ColorScheme-ViewFocus{
        color:#002466;
        stop-color:#002466;
      }
      .ColorScheme-ButtonText {
        color:#d0d0d0;
        stop-color:#d0d0d0;
      }
      .ColorScheme-ButtonBackground {
        color:#232323;
        stop-color:#232323;                             
      }                                                 
      .ColorScheme-ButtonHover {                        
        color:#005cc7;                                  
        stop-color:#005cc7;                             
      }                                                 
      .ColorScheme-ButtonFocus{                         
        color:#0039a9;                                  
        stop-color:#0039a9;                             
      }</style>
  </defs>
  <sodipodi:namedview
     id="base"
     pagecolor="#002266"
     bordercolor="#ffffff"
     borderopacity="0.46666667"
     inkscape:pageopacity="0"
     inkscape:pageshadow="2"
     inkscape:zoom="12.859375"
     inkscape:cx="31.6838"
     inkscape:cy="21.027627"
     inkscape:document-units="px"
     inkscape:current-layer="svg8"
     inkscape:document-rotation="0"
     showgrid="false"
     inkscape:showpageshadow="false"
     borderlayer="true"
     units="px"
     fit-margin-top="0"
     fit-margin-left="0"
     fit-margin-right="0"
     fit-margin-bottom="0"
     inkscape:window-width="1920"
     inkscape:window-height="1051"
     inkscape:window-x="0"
     inkscape:window-y="0"
     inkscape:window-maximized="1"
     inkscape:snap-page="true" />
  <metadata
     id="metadata5">
    <rdf:RDF>
      <cc:Work
         rdf:about="">
        <dc:format>image/svg+xml</dc:format>
        <dc:type
           rdf:resource="http://purl.org/dc/dcmitype/StillImage" />
        <dc:title></dc:title>
      </cc:Work>
    </rdf:RDF>
  </metadata>
  <g
     id="g857"
     inkscape:label="#phonon-gstreamer">
    <rect
       inkscape:label="#boundary"
       y="0"
       x="0"
       height="48"
       width="48.149998"
       id="rect4264"
       style="fill:none;fill-opacity:0.74651441;stroke-width:23.61599922;stroke-opacity:0.3596773" />
    <path
       inkscape:connector-curvature="0"
       inkscape:label="#1"
       id="path849"
       d="M 11.599609,6 C 8.5387725,6 6.0742187,8.4626009 6.0742188,11.523438 V 36.476562 C 6.0742188,39.537384 8.5387725,42 11.599609,42 h 24.951172 c 3.060837,0 5.523438,-2.462616 5.523438,-5.523438 V 11.523438 C 42.074219,8.4626009 39.611618,6 36.550781,6 Z m 12.47461,4.5 a 13.5,13.5 0 0 1 13.5,13.5 13.5,13.5 0 0 1 -13.5,13.5 13.5,13.5 0 0 1 -13.5,-13.5 13.5,13.5 0 0 1 13.5,-13.5 z"
       style="font-variation-settings:normal;opacity:0.6;vector-effect:none;fill:#d0d0d0;stroke-width:1.70000017" />
    <path
       inkscape:label="#4"
       id="path845"
       d="m 31.506151,16.155762 c -0.09621,-0.0099 -0.201105,0.0135 -0.303224,0.06149 -0.408505,0.193657 -3.049175,1.612793 -4.618653,1.612793 -1.695578,0 -4.174016,-1.419435 -6.591798,-1.419435 -2.417767,0 -3.862116,1.423526 -4.113282,1.61719 -0.251163,0.193658 -0.406309,0.933467 0.347166,0.70752 0.753474,-0.225934 1.377552,-0.224123 2.570801,-0.224123 1.193247,0 4.058577,1.678709 6.943358,1.678709 2.88884,0 5.302355,-2.295603 5.835938,-3.102539 0.400187,-0.605956 0.218227,-0.902857 -0.07034,-0.931641 z"
       style="font-variation-settings:normal;vector-effect:none;fill:#ff0000;stroke-width:1.70000017"
       inkscape:connector-curvature="0" />
    <path
       inkscape:label="#3"
       id="path843"
       d="m 35.540331,22.207031 c -0.09621,-0.0099 -0.201082,0.0135 -0.303223,0.06149 -0.408506,0.193658 -3.04916,1.612794 -4.618654,1.612794 -1.695575,0 -4.174031,-1.419433 -6.591798,-1.419433 -2.417783,0 -3.862134,1.423523 -4.113281,1.617187 -0.251166,0.193658 -0.406294,0.933451 0.347163,0.707517 0.753476,-0.225949 1.381932,-0.224122 2.575197,-0.224122 1.193247,0 4.054183,1.678711 6.938964,1.678711 2.888825,0 5.306749,-2.291206 5.840332,-3.098144 0.400187,-0.605956 0.213908,-0.907252 -0.07465,-0.936036 z"
       style="font-variation-settings:normal;vector-effect:none;fill:#00ff00;stroke-width:1.70000017"
       inkscape:connector-curvature="0" />
    <path
       inkscape:label="#2"
       id="rect1444"
       d="m 29.489062,28.262697 c -0.09621,-0.0097 -0.201083,0.009 -0.303224,0.05715 -0.408496,0.193657 -3.049175,1.612793 -4.618653,1.612793 v 0.0045 c -1.695576,0 -4.174032,-1.419435 -6.591796,-1.419435 -2.417783,0 -3.862134,1.419131 -4.113281,1.612793 -0.251166,0.193658 -0.410704,0.934468 0.342774,0.70752 0.753475,-0.22595 1.386324,-0.224123 2.579589,-0.224123 1.193247,0 4.049772,1.683106 6.934569,1.683106 2.888825,0 5.306736,-2.295603 5.840334,-3.102541 0.400188,-0.605954 0.218228,-0.902839 -0.07034,-0.931637 z"
       style="font-variation-settings:normal;vector-effect:none;fill:#005cc7;stroke-width:1.70000017"
       inkscape:connector-curvature="0" />
  </g>
</svg>
