<?xml version="1.0" encoding="UTF-8" standalone="no"?>
<!-- Created with Inkscape (http://www.inkscape.org/) -->

<svg
   xmlns:dc="http://purl.org/dc/elements/1.1/"
   xmlns:cc="http://creativecommons.org/ns#"
   xmlns:rdf="http://www.w3.org/1999/02/22-rdf-syntax-ns#"
   xmlns:svg="http://www.w3.org/2000/svg"
   xmlns="http://www.w3.org/2000/svg"
   xmlns:xlink="http://www.w3.org/1999/xlink"
   xmlns:sodipodi="http://sodipodi.sourceforge.net/DTD/sodipodi-0.dtd"
   xmlns:inkscape="http://www.inkscape.org/namespaces/inkscape"
   width="48.149998"
   height="48"
   viewBox="0 0 48.149998 48"
   version="1.1"
   id="svg8"
   inkscape:version="0.92+devel (b8837397f6, 2017-07-27, custom)"
   sodipodi:docname="plank.svg">
  <defs
     id="ol-defs">
    <style
       id="current-color-scheme">      .ColorScheme-Text {
        color:#d0d0d0;
        stop-color:#d0d0d0;
      }
      .ColorScheme-Background {
        color:#212121;
        stop-color:#212121;
      }
      .ColorScheme-Highlight {
        color:#0039a9;
        stop-color:#0039a9;
      }
      .ColorScheme-ViewText {
        color:#d0d0d0;
        stop-color:#d0d0d0;
      }
      .ColorScheme-ViewBackground {
        color:#19191b;
        stop-color:#19191b;
      }
      .ColorScheme-ViewHover {
        color:#005cc7;
        stop-color:#005cc7;
      }
      .ColorScheme-ViewFocus{
        color:#002466;
        stop-color:#002466;
      }
      .ColorScheme-ButtonText {
        color:#d0d0d0;
        stop-color:#d0d0d0;
      }
      .ColorScheme-ButtonBackground {
        color:#232323;
        stop-color:#232323;                             
      }                                                 
      .ColorScheme-ButtonHover {                        
        color:#005cc7;                                  
        stop-color:#005cc7;                             
      }                                                 
      .ColorScheme-ButtonFocus{                         
        color:#0039a9;                                  
        stop-color:#0039a9;                             
      }</style>
    <linearGradient
       gradientUnits="userSpaceOnUse"
       y2="1040.1071"
       x2="28.563999"
       y1="1016.939"
       x1="21.051001"
       id="linearGradient4152"
       xlink:href="#linearGradient4146"
       gradientTransform="matrix(0.17638889,0,0,0.17638889,-2.1165777,-179.27491)" />
    <linearGradient
       id="linearGradient4146">
      <stop
         id="stop2"
         offset="0"
         style="stop-color:#e4f2f6;stop-opacity:1;" />
      <stop
         id="stop4"
         offset="1"
         style="stop-color:#b1caee;stop-opacity:1" />
    </linearGradient>
  </defs>
  <sodipodi:namedview
     id="base"
     pagecolor="#002266"
     bordercolor="#ffffff"
     borderopacity="0.46666667"
     inkscape:pageopacity="0"
     inkscape:pageshadow="2"
     inkscape:zoom="12.859375"
     inkscape:cx="31.6838"
     inkscape:cy="21.027627"
     inkscape:document-units="px"
     inkscape:current-layer="g854"
     inkscape:document-rotation="0"
     showgrid="false"
     inkscape:showpageshadow="false"
     borderlayer="true"
     units="px"
     fit-margin-top="0"
     fit-margin-left="0"
     fit-margin-right="0"
     fit-margin-bottom="0"
     inkscape:window-width="1920"
     inkscape:window-height="1051"
     inkscape:window-x="0"
     inkscape:window-y="0"
     inkscape:window-maximized="1"
     inkscape:snap-page="true" />
  <metadata
     id="metadata5">
    <rdf:RDF>
      <cc:Work
         rdf:about="">
        <dc:format>image/svg+xml</dc:format>
        <dc:type
           rdf:resource="http://purl.org/dc/dcmitype/StillImage" />
        <dc:title></dc:title>
      </cc:Work>
    </rdf:RDF>
  </metadata>
  <g
     id="g854"
     inkscape:label="#plank">
    <rect
       inkscape:label="#boundary"
       y="0"
       x="0"
       height="48"
       width="48.149998"
       id="rect4264"
       style="fill:none;fill-opacity:0.74651441;stroke-width:23.61599922;stroke-opacity:0.3596773" />
    <path
       inkscape:label="#"
       id="rect849"
       d="M 13.274706,6 C 9.2859058,6 6.0749989,9.210907 6.0749989,13.199707 V 34.800293 C 6.0749989,38.789093 9.2859058,42 13.274706,42 h 21.600586 c 3.9888,0 7.199707,-3.210907 7.199707,-7.199707 V 13.199707 C 42.074999,9.210907 38.864092,6 34.875292,6 Z m 10.855957,4.6875 c 1.838207,0 3.328125,1.489996 3.328125,3.328125 -0.0023,1.408828 -0.891337,2.66406 -2.219239,3.1333 v 2.412598 h 4.437012 v 2.219239 h -4.437012 v 8.874023 c 0,1.109313 1.549964,1.769 2.291016,1.671386 3.262623,-0.43152 5.908714,-1.141067 7.434082,-2.553221 l -1.959961,0.114257 1.625977,-1.782715 1.913086,-1.782715 c 0.512529,1.675062 0.899414,3.225323 0.899414,5.002442 l -1.193848,-1.174805 c -0.561336,2.350632 -8.333466,3.834792 -9.435058,4.803223 L 24.130663,37.3125 21.44707,34.951171 C 20.348807,33.98496 12.572326,32.505152 12.003222,30.156738 l -1.183594,1.167481 c 0.09319,-1.746057 0.177223,-3.368425 0.899414,-5.002442 l 3.826172,3.56543 -2.244141,-0.112793 c 1.528696,1.4177 4.187087,2.123919 7.461914,2.553223 0.731066,0.0954 2.258789,-0.562076 2.258789,-1.671387 v -8.874023 h -4.437011 v -2.219239 h 4.437011 v -2.411132 c -1.32901,-0.469239 -2.218188,-1.72483 -2.219238,-3.134766 0,-1.838131 1.489919,-3.328125 3.328125,-3.328125 z m 0,2.219238 c -0.612365,0 -1.110352,0.496548 -1.110352,1.108887 0,0.612341 0.497985,1.108887 1.110352,1.108887 0.612368,0 1.108886,-0.496547 1.108886,-1.108887 0,-0.612339 -0.496511,-1.108887 -1.108886,-1.108887 z"
       style="font-variation-settings:normal;opacity:0.6;vector-effect:none;fill:#d0d0d0;stroke-width:1.5;stroke-linecap:round;stroke-miterlimit:26.70000076"
       inkscape:connector-curvature="0" />
  </g>
</svg>
