<?xml version="1.0" encoding="UTF-8" standalone="no"?>
<!-- Created with Inkscape (http://www.inkscape.org/) -->

<svg
   xmlns:dc="http://purl.org/dc/elements/1.1/"
   xmlns:cc="http://creativecommons.org/ns#"
   xmlns:rdf="http://www.w3.org/1999/02/22-rdf-syntax-ns#"
   xmlns:svg="http://www.w3.org/2000/svg"
   xmlns="http://www.w3.org/2000/svg"
   xmlns:sodipodi="http://sodipodi.sourceforge.net/DTD/sodipodi-0.dtd"
   xmlns:inkscape="http://www.inkscape.org/namespaces/inkscape"
   width="48.149998"
   height="48"
   viewBox="0 0 48.149998 48"
   version="1.1"
   id="svg8"
   inkscape:version="0.92+devel (b8837397f6, 2017-07-27, custom)"
   sodipodi:docname="plasma-mobile-phone.svg">
  <defs
     id="ol-defs">
    <style
       id="current-color-scheme">      .ColorScheme-Text {
        color:#d0d0d0;
        stop-color:#d0d0d0;
      }
      .ColorScheme-Background {
        color:#212121;
        stop-color:#212121;
      }
      .ColorScheme-Highlight {
        color:#0039a9;
        stop-color:#0039a9;
      }
      .ColorScheme-ViewText {
        color:#d0d0d0;
        stop-color:#d0d0d0;
      }
      .ColorScheme-ViewBackground {
        color:#19191b;
        stop-color:#19191b;
      }
      .ColorScheme-ViewHover {
        color:#005cc7;
        stop-color:#005cc7;
      }
      .ColorScheme-ViewFocus{
        color:#002466;
        stop-color:#002466;
      }
      .ColorScheme-ButtonText {
        color:#d0d0d0;
        stop-color:#d0d0d0;
      }
      .ColorScheme-ButtonBackground {
        color:#232323;
        stop-color:#232323;                             
      }                                                 
      .ColorScheme-ButtonHover {                        
        color:#005cc7;                                  
        stop-color:#005cc7;                             
      }                                                 
      .ColorScheme-ButtonFocus{                         
        color:#0039a9;                                  
        stop-color:#0039a9;                             
      }</style>
  </defs>
  <sodipodi:namedview
     id="base"
     pagecolor="#002266"
     bordercolor="#ffffff"
     borderopacity="0.46666667"
     inkscape:pageopacity="0"
     inkscape:pageshadow="2"
     inkscape:zoom="12.859375"
     inkscape:cx="31.6838"
     inkscape:cy="21.027627"
     inkscape:document-units="px"
     inkscape:current-layer="svg8"
     inkscape:document-rotation="0"
     showgrid="false"
     inkscape:showpageshadow="false"
     borderlayer="true"
     units="px"
     fit-margin-top="0"
     fit-margin-left="0"
     fit-margin-right="0"
     fit-margin-bottom="0"
     inkscape:window-width="1920"
     inkscape:window-height="1051"
     inkscape:window-x="0"
     inkscape:window-y="0"
     inkscape:window-maximized="1"
     inkscape:snap-page="true" />
  <metadata
     id="metadata5">
    <rdf:RDF>
      <cc:Work
         rdf:about="">
        <dc:format>image/svg+xml</dc:format>
        <dc:type
           rdf:resource="http://purl.org/dc/dcmitype/StillImage" />
        <dc:title></dc:title>
      </cc:Work>
    </rdf:RDF>
  </metadata>
  <g
     id="g850"
     inkscape:label="#plasma-mobile-phone">
    <rect
       inkscape:label="#boundary"
       y="0"
       x="0"
       height="48"
       width="48.149998"
       id="rect4264"
       style="fill:none;fill-opacity:0.74651441;stroke-width:23.61599922;stroke-opacity:0.3596773" />
    <path
       style="opacity:0.6;fill:#d0d0d0;stroke-width:1.70000005"
       d="M 15.232422,6 C 14.216277,6 13.400391,6.8158862 13.400391,7.8320312 V 40.167969 C 13.400391,41.184114 14.216277,42 15.232422,42 H 32.916016 C 33.932159,42 34.75,41.184114 34.75,40.167969 V 7.8320312 C 34.75,6.8158863 33.932161,6 32.916016,6 Z m 8.841797,2.3066406 A 1.3633756,1.3633756 0 0 1 25.4375,9.6738281 1.3633756,1.3633756 0 0 1 24.074219,11.035156 1.3633756,1.3633756 0 0 1 22.712891,9.6738281 1.3633756,1.3633756 0 0 1 24.074219,8.3066406 Z M 16.673828,13 h 14.802734 c 0.550804,0 0.994141,0.443339 0.994141,0.994141 v 20.753906 c 0,0.550801 -0.443339,0.99414 -0.994141,0.994141 H 16.673828 c -0.550802,0 -0.994142,-0.44334 -0.99414,-0.994141 V 13.994141 C 15.679688,13.443339 16.123026,13 16.673828,13 Z m 3.638672,3.650391 a 1.023279,1.023279 0 0 0 -0.738281,0.298828 1.023279,1.023279 0 0 0 0,1.447265 1.023279,1.023279 0 0 0 1.447265,0 1.023279,1.023279 0 0 0 0,-1.447265 1.023279,1.023279 0 0 0 -0.708984,-0.298828 z m 5.818359,0.06445 -2.201171,2.199218 3.126953,3.126954 -3.009766,3.009765 2.083984,2.083985 5.208985,-5.210938 z m -7.814453,5.673828 a 1.5286319,1.5474217 0 0 0 -1.103515,0.453125 1.5286319,1.5474217 0 0 0 0,2.1875 1.5286319,1.5474217 0 0 0 2.162109,0 1.5286319,1.5474217 0 0 0 0,-2.1875 1.5286319,1.5474217 0 0 0 -1.058594,-0.453125 z m 3.980469,6.167969 a 2.0466749,2.0466749 0 0 0 -1.476563,0.599609 2.0466749,2.0466749 0 0 0 0,2.894531 2.0466749,2.0466749 0 0 0 2.894532,0 2.0466749,2.0466749 0 0 0 0,-2.894531 2.0466749,2.0466749 0 0 0 -1.417969,-0.599609 z m -1.099609,9.830078 h 5.755859 c 0.362498,0 0.654297,0.289837 0.654297,0.652343 0,0.362499 -0.29179,0.654297 -0.654297,0.654297 h -5.755859 c -0.362496,0 -0.65625,-0.291792 -0.65625,-0.654297 0,-0.362496 0.293745,-0.652343 0.65625,-0.652343 z"
       id="rect811"
       inkscape:connector-curvature="0" />
    <path
       inkscape:label="#2"
       inkscape:connector-curvature="0"
       id="rect841"
       d="m 16.674275,12.999381 h 14.801447 c 0.550802,0 0.994228,0.443425 0.994228,0.994227 v 20.754367 c 0,0.550801 -0.443426,0.994227 -0.994228,0.994227 H 16.674275 c -0.550802,0 -0.994227,-0.443426 -0.994227,-0.994227 V 13.993608 c 0,-0.550802 0.443425,-0.994227 0.994227,-0.994227 z"
       style="font-variation-settings:normal;opacity:0.18723402;vector-effect:none;fill:#d0d0d0;stroke-width:1.70000005" />
  </g>
</svg>
