<?xml version="1.0" encoding="UTF-8" standalone="no"?>
<!-- Created with Inkscape (http://www.inkscape.org/) -->

<svg
   xmlns:dc="http://purl.org/dc/elements/1.1/"
   xmlns:cc="http://creativecommons.org/ns#"
   xmlns:rdf="http://www.w3.org/1999/02/22-rdf-syntax-ns#"
   xmlns:svg="http://www.w3.org/2000/svg"
   xmlns="http://www.w3.org/2000/svg"
   xmlns:sodipodi="http://sodipodi.sourceforge.net/DTD/sodipodi-0.dtd"
   xmlns:inkscape="http://www.inkscape.org/namespaces/inkscape"
   width="48.149998"
   height="48"
   viewBox="0 0 48.149998 48"
   version="1.1"
   id="svg8"
   inkscape:version="0.92+devel (f96dc7e339, 2017-07-28, custom)"
   sodipodi:docname="plasma-media-center.svg">
  <defs
     id="ol-defs">
    <style
       id="current-color-scheme">      .ColorScheme-Text {
        color:#d0d0d0;
        stop-color:#d0d0d0;
      }
      .ColorScheme-Background {
        color:#212121;
        stop-color:#212121;
      }
      .ColorScheme-Highlight {
        color:#0039a9;
        stop-color:#0039a9;
      }
      .ColorScheme-ViewText {
        color:#d0d0d0;
        stop-color:#d0d0d0;
      }
      .ColorScheme-ViewBackground {
        color:#19191b;
        stop-color:#19191b;
      }
      .ColorScheme-ViewHover {
        color:#005cc7;
        stop-color:#005cc7;
      }
      .ColorScheme-ViewFocus{
        color:#002466;
        stop-color:#002466;
      }
      .ColorScheme-ButtonText {
        color:#d0d0d0;
        stop-color:#d0d0d0;
      }
      .ColorScheme-ButtonBackground {
        color:#232323;
        stop-color:#232323;                             
      }                                                 
      .ColorScheme-ButtonHover {                        
        color:#005cc7;                                  
        stop-color:#005cc7;                             
      }                                                 
      .ColorScheme-ButtonFocus{                         
        color:#0039a9;                                  
        stop-color:#0039a9;                             
      }</style>
  </defs>
  <sodipodi:namedview
     id="base"
     pagecolor="#002266"
     bordercolor="#ffffff"
     borderopacity="0.46666667"
     inkscape:pageopacity="0"
     inkscape:pageshadow="2"
     inkscape:zoom="12.859375"
     inkscape:cx="31.6838"
     inkscape:cy="21.027627"
     inkscape:document-units="px"
     inkscape:current-layer="g861"
     inkscape:document-rotation="0"
     showgrid="false"
     inkscape:showpageshadow="false"
     borderlayer="true"
     units="px"
     fit-margin-top="0"
     fit-margin-left="0"
     fit-margin-right="0"
     fit-margin-bottom="0"
     inkscape:window-width="1920"
     inkscape:window-height="1051"
     inkscape:window-x="0"
     inkscape:window-y="0"
     inkscape:window-maximized="1"
     inkscape:snap-page="true" />
  <metadata
     id="metadata5">
    <rdf:RDF>
      <cc:Work
         rdf:about="">
        <dc:format>image/svg+xml</dc:format>
        <dc:type
           rdf:resource="http://purl.org/dc/dcmitype/StillImage" />
        <dc:title />
      </cc:Work>
    </rdf:RDF>
  </metadata>
  <g
     id="g861"
     inkscape:label="#plasma-media-center">
    <rect
       inkscape:label="#boundary"
       y="0"
       x="0"
       height="48"
       width="48.149998"
       id="rect4264"
       style="fill:none;fill-opacity:0.74651441;stroke-width:23.61599922;stroke-opacity:0.3596773" />
    <path
       style="opacity:0.6;fill:#d0d0d0;stroke-width:0.96090508"
       d="m 41.09375,8.4003906 -0.115234,0.019531 -1.869141,4.0351564 2.550781,-0.392578 z m -4.796875,0.7421875 -4.685547,0.7207031 -1.867187,4.0371098 4.683593,-0.722657 z m -9.371094,1.4433599 -4.68164,0.722656 -1.867188,4.037109 4.681641,-0.722656 z m -9.365234,1.445312 -4.255859,0.654297 -1.869141,4.037109 4.259765,-0.654297 z m -8.9375001,1.376953 -2.5488281,0.392578 0.5625,3.664063 L 6.75,17.445312 Z m -1.9863281,4.056641 v 3.703125 18.43164 H 42.068359 v -18.43164 h 0.0059 v -3.703125 h -2.582031 l 2.464843,3.703125 h -4.740234 l -2.460938,-3.703125 h -4.740234 l 2.460937,3.703125 h -4.738281 l -2.458984,-3.703125 h -4.738281 l 2.460937,3.703125 h -4.740234 l -2.458985,-3.703125 h -4.314453 l 2.464844,3.703125 H 9.2167969 L 6.7519531,17.464844 Z m 14.6308592,6.736328 a 0.82286795,0.82286795 0 0 1 0.56836,0.240234 0.82286795,0.82286795 0 0 1 0,1.164063 0.82286795,0.82286795 0 0 1 -1.164063,0 0.82286795,0.82286795 0 0 1 0,-1.164063 0.82286795,0.82286795 0 0 1 0.595703,-0.240234 z m 4.677734,0.05273 4.189454,4.189453 -4.189454,4.189453 -1.675781,-1.675781 2.419922,-2.421875 -2.513672,-2.513672 z m -6.285156,4.5625 a 1.2292466,1.2443564 0 0 1 0.851563,0.363282 1.2292466,1.2443564 0 0 1 0,1.759765 1.2292466,1.2443564 0 0 1 -1.738281,0 1.2292466,1.2443564 0 0 1 0,-1.759765 1.2292466,1.2443564 0 0 1 0.886718,-0.363282 z m 3.201172,4.958985 a 1.6458299,1.6458299 0 0 1 1.140625,0.482421 1.6458299,1.6458299 0 0 1 0,2.328126 1.6458299,1.6458299 0 0 1 -2.328125,0 1.6458299,1.6458299 0 0 1 0,-2.328126 1.6458299,1.6458299 0 0 1 1.1875,-0.482421 z"
       id="rect4820"
       inkscape:connector-curvature="0"
       inkscape:label="#" />
  </g>
</svg>
