<?xml version="1.0" encoding="UTF-8" standalone="no"?>
<!-- Created with Inkscape (http://www.inkscape.org/) -->

<svg
   xmlns:dc="http://purl.org/dc/elements/1.1/"
   xmlns:cc="http://creativecommons.org/ns#"
   xmlns:rdf="http://www.w3.org/1999/02/22-rdf-syntax-ns#"
   xmlns:svg="http://www.w3.org/2000/svg"
   xmlns="http://www.w3.org/2000/svg"
   xmlns:xlink="http://www.w3.org/1999/xlink"
   xmlns:sodipodi="http://sodipodi.sourceforge.net/DTD/sodipodi-0.dtd"
   xmlns:inkscape="http://www.inkscape.org/namespaces/inkscape"
   width="48.149998"
   height="48"
   viewBox="0 0 48.149998 48"
   version="1.1"
   id="svg8"
   inkscape:version="0.92+devel (b8837397f6, 2017-07-27, custom)"
   sodipodi:docname="preferences-desktop-font-installer.svg">
  <defs
     id="ol-defs">
    <style
       id="current-color-scheme">      .ColorScheme-Text {
        color:#d0d0d0;
        stop-color:#d0d0d0;
      }
      .ColorScheme-Background {
        color:#212121;
        stop-color:#212121;
      }
      .ColorScheme-Highlight {
        color:#0039a9;
        stop-color:#0039a9;
      }
      .ColorScheme-ViewText {
        color:#d0d0d0;
        stop-color:#d0d0d0;
      }
      .ColorScheme-ViewBackground {
        color:#19191b;
        stop-color:#19191b;
      }
      .ColorScheme-ViewHover {
        color:#005cc7;
        stop-color:#005cc7;
      }
      .ColorScheme-ViewFocus{
        color:#002466;
        stop-color:#002466;
      }
      .ColorScheme-ButtonText {
        color:#d0d0d0;
        stop-color:#d0d0d0;
      }
      .ColorScheme-ButtonBackground {
        color:#232323;
        stop-color:#232323;                             
      }                                                 
      .ColorScheme-ButtonHover {                        
        color:#005cc7;                                  
        stop-color:#005cc7;                             
      }                                                 
      .ColorScheme-ButtonFocus{                         
        color:#0039a9;                                  
        stop-color:#0039a9;                             
      }</style>
    <linearGradient
       id="linearGradient3052">
      <stop
         id="stop3054"
         style="stop-color:#555753" />
      <stop
         id="stop3056"
         style="stop-color:#2e3436"
         offset="1" />
    </linearGradient>
    <radialGradient
       gradientTransform="matrix(0.58724559 -0.0000004 0 0.25688859 387.29707 527.70784)"
       gradientUnits="userSpaceOnUse"
       id="radialGradient3082"
       xlink:href="#linearGradient3052"
       r="17.995"
       cy="3.6836"
       cx="25.641" />
    <radialGradient
       gradientTransform="matrix(0.5872456,-4.0000001e-7,0,0.25688859,387.45769,529.05333)"
       gradientUnits="userSpaceOnUse"
       id="radialGradient3082-6"
       xlink:href="#linearGradient3052"
       r="17.995001"
       cy="3.6835999"
       cx="25.641001" />
  </defs>
  <sodipodi:namedview
     id="base"
     pagecolor="#002266"
     bordercolor="#ffffff"
     borderopacity="0.46666667"
     inkscape:pageopacity="0"
     inkscape:pageshadow="2"
     inkscape:zoom="12.859375"
     inkscape:cx="31.6838"
     inkscape:cy="21.027627"
     inkscape:document-units="px"
     inkscape:current-layer="svg8"
     inkscape:document-rotation="0"
     showgrid="false"
     inkscape:showpageshadow="false"
     borderlayer="true"
     units="px"
     fit-margin-top="0"
     fit-margin-left="0"
     fit-margin-right="0"
     fit-margin-bottom="0"
     inkscape:window-width="1920"
     inkscape:window-height="1051"
     inkscape:window-x="0"
     inkscape:window-y="0"
     inkscape:window-maximized="1"
     inkscape:snap-page="true" />
  <metadata
     id="metadata5">
    <rdf:RDF>
      <cc:Work
         rdf:about="">
        <dc:format>image/svg+xml</dc:format>
        <dc:type
           rdf:resource="http://purl.org/dc/dcmitype/StillImage" />
        <dc:title></dc:title>
      </cc:Work>
    </rdf:RDF>
  </metadata>
  <g
     id="g879"
     transform="matrix(0.99688478,0,0,0.99688478,0.07499892,0.07476528)"
     style="stroke-width:1.00312495"
     inkscape:label="#preferences-desktop-font-installer">
    <rect
       inkscape:label="#boundary"
       y="0"
       x="0"
       height="48"
       width="48.149998"
       id="rect4264"
       style="fill:none;fill-opacity:0.74651441;stroke-width:23.68979836;stroke-opacity:0.3596773" />
    <path
       inkscape:connector-curvature="0"
       inkscape:label="#1"
       id="path4814"
       d="m 22.393639,5.5590183 -1.646983,3.9259124 a 14.910006,14.910006 0 0 0 -2.511405,0.8120323 l -3.641046,-2.203619 -2.717688,1.97769 0.972474,4.132195 a 14.910006,14.910006 0 0 0 -1.548755,2.144681 l -4.2402471,0.353627 -1.041235,3.199013 3.212111,2.773351 a 14.910006,14.910006 0 0 0 -0.06877,1.322825 14.910006,14.910006 0 0 0 0.07204,1.326102 l -3.215385,2.776625 1.041235,3.199012 4.2369731,0.353626 a 14.910006,14.910006 0 0 0 1.552028,2.131585 l -0.972473,4.145291 2.717688,1.97769 3.627948,-2.197069 a 14.910006,14.910006 0 0 0 2.524503,0.808756 l 1.646982,3.922638 h 3.362729 l 1.646985,-3.925912 a 14.910006,14.910006 0 0 0 2.511405,-0.812032 l 3.63777,2.203619 2.717688,-1.97769 -0.969199,-4.132195 a 14.910006,14.910006 0 0 0 1.548754,-2.144681 l 4.240247,-0.353626 1.041235,-3.199012 -3.212111,-2.773351 a 14.910006,14.910006 0 0 0 0.06548,-1.329376 14.910006,14.910006 0 0 0 -0.06877,-1.319551 L 42.131236,19.90055 41.090001,16.701537 36.853028,16.34791 A 14.910006,14.910006 0 0 0 35.301,14.216327 l 0.969199,-4.145293 -2.717687,-1.97769 -3.6214,2.19707 A 14.910006,14.910006 0 0 0 27.403336,9.4783824 L 25.756352,5.5590183 Z m 1.493092,7.6717367 h 0.484599 l 6.538822,15.625066 c 0.526374,1.25591 0.999538,2.073848 1.424329,2.452466 0.434029,0.369387 1.034404,0.575949 1.800878,0.622122 v 0.514068 h -7.409791 v -0.514068 c 0.748005,-0.03695 1.250892,-0.160889 1.509463,-0.373272 0.267803,-0.212398 0.402741,-0.471273 0.402741,-0.776015 0,-0.406325 -0.183974,-1.048013 -0.55336,-1.925301 l -1.136191,-2.701317 h -7.272268 l -1.276986,2.963263 c -0.313978,0.729535 -0.468229,1.273735 -0.468229,1.633886 0,0.286275 0.131669,0.541287 0.399467,0.762917 0.277039,0.212396 0.869689,0.351197 1.774683,0.415839 v 0.514068 h -5.9167 v -0.514068 c 0.784944,-0.138525 1.294968,-0.318632 1.525835,-0.540264 0.470966,-0.443261 0.992578,-1.343823 1.565125,-2.701315 z m -0.514069,4.309009 -3.267774,7.589878 h 6.45369 z"
       style="opacity:0.6;fill:#ffffff;stroke-width:2.92428899;stroke-linecap:round;stroke-linejoin:round" />
  </g>
</svg>
