<?xml version="1.0" encoding="UTF-8" standalone="no"?>
<!-- Created with Inkscape (http://www.inkscape.org/) -->

<svg
   xmlns:dc="http://purl.org/dc/elements/1.1/"
   xmlns:cc="http://creativecommons.org/ns#"
   xmlns:rdf="http://www.w3.org/1999/02/22-rdf-syntax-ns#"
   xmlns:svg="http://www.w3.org/2000/svg"
   xmlns="http://www.w3.org/2000/svg"
   xmlns:sodipodi="http://sodipodi.sourceforge.net/DTD/sodipodi-0.dtd"
   xmlns:inkscape="http://www.inkscape.org/namespaces/inkscape"
   width="48.149998"
   height="48"
   viewBox="0 0 48.149998 48"
   version="1.1"
   id="svg8"
   inkscape:version="0.92+devel (b8837397f6, 2017-07-27, custom)"
   sodipodi:docname="qbittorrent.svg">
  <defs
     id="ol-defs">
    <style
       id="current-color-scheme">      .ColorScheme-Text {
        color:#d0d0d0;
        stop-color:#d0d0d0;
      }
      .ColorScheme-Background {
        color:#212121;
        stop-color:#212121;
      }
      .ColorScheme-Highlight {
        color:#0039a9;
        stop-color:#0039a9;
      }
      .ColorScheme-ViewText {
        color:#d0d0d0;
        stop-color:#d0d0d0;
      }
      .ColorScheme-ViewBackground {
        color:#19191b;
        stop-color:#19191b;
      }
      .ColorScheme-ViewHover {
        color:#005cc7;
        stop-color:#005cc7;
      }
      .ColorScheme-ViewFocus{
        color:#002466;
        stop-color:#002466;
      }
      .ColorScheme-ButtonText {
        color:#d0d0d0;
        stop-color:#d0d0d0;
      }
      .ColorScheme-ButtonBackground {
        color:#232323;
        stop-color:#232323;                             
      }                                                 
      .ColorScheme-ButtonHover {                        
        color:#005cc7;                                  
        stop-color:#005cc7;                             
      }                                                 
      .ColorScheme-ButtonFocus{                         
        color:#0039a9;                                  
        stop-color:#0039a9;                             
      }</style>
  </defs>
  <sodipodi:namedview
     id="base"
     pagecolor="#002266"
     bordercolor="#ffffff"
     borderopacity="0.46666667"
     inkscape:pageopacity="0"
     inkscape:pageshadow="2"
     inkscape:zoom="12.859375"
     inkscape:cx="31.6838"
     inkscape:cy="21.027627"
     inkscape:document-units="px"
     inkscape:current-layer="svg8"
     inkscape:document-rotation="0"
     showgrid="false"
     inkscape:showpageshadow="false"
     borderlayer="true"
     units="px"
     fit-margin-top="0"
     fit-margin-left="0"
     fit-margin-right="0"
     fit-margin-bottom="0"
     inkscape:window-width="1920"
     inkscape:window-height="1051"
     inkscape:window-x="0"
     inkscape:window-y="0"
     inkscape:window-maximized="1"
     inkscape:snap-page="true" />
  <metadata
     id="metadata5">
    <rdf:RDF>
      <cc:Work
         rdf:about="">
        <dc:format>image/svg+xml</dc:format>
        <dc:type
           rdf:resource="http://purl.org/dc/dcmitype/StillImage" />
        <dc:title></dc:title>
      </cc:Work>
    </rdf:RDF>
  </metadata>
  <g
     id="g843"
     inkscape:label="#qbittorrent">
    <rect
       inkscape:label="#boundary"
       y="0"
       x="0"
       height="48"
       width="48.149998"
       id="rect4264"
       style="fill:none;fill-opacity:0.74651441;stroke-width:23.61599922;stroke-opacity:0.3596773" />
    <path
       style="color:#000000;opacity:0.6;fill:#d0d0d0;fill-rule:evenodd;stroke-width:2.00000024"
       d="M 24.074999,6.0000001 C 14.13292,6.0000001 6.0749989,14.05892 6.0749989,24 c 0,9.942078 8.0589201,18 18.0000001,18 9.942077,0 18,-8.058921 18,-18 0,-9.942079 -8.058922,-17.9999998 -18,-17.9999999 z m 1.001084,6.9978289 h 1.997289 V 19.07759 A 7.00076,6.0006508 0 0 1 31.07771,17.998373 7.00076,6.0006508 0 0 1 38.075541,24 7.00076,6.0006508 0 0 1 31.07771,30.001628 7.00076,6.0006508 0 0 1 27.073372,28.912641 v 2.09007 h -1.997289 z m -3.999456,3.999458 h 1.997286 V 35.002172 H 21.076627 V 28.922408 A 7.00076,6.0006508 0 0 1 17.072286,30.001628 7.00076,6.0006508 0 0 1 10.074457,24 a 7.00076,6.0006508 0 0 1 6.997829,-6.001627 7.00076,6.0006508 0 0 1 4.004341,1.088984 z m -4.004341,3.003255 A 5.0005424,4.0004341 0 0 0 12.071744,24 a 5.0005424,4.0004341 0 0 0 5.000542,3.999456 5.0005424,4.0004341 0 0 0 4.004341,-1.606619 v -4.785674 a 5.0005424,4.0004341 0 0 0 -4.004341,-1.606621 z m 13.858926,0 a 5.0005424,4.0004341 0 0 0 -3.85784,1.606621 v 4.785674 A 5.0005424,4.0004341 0 0 0 31.07771,27.999456 5.0005424,4.0004341 0 0 0 36.078254,24 5.0005424,4.0004341 0 0 0 31.07771,20.000542 a 5.0005424,4.0004341 0 0 0 -0.146498,0 z"
       id="path822"
       inkscape:connector-curvature="0"
       inkscape:label="#2" />
  </g>
</svg>
