<?xml version="1.0" encoding="UTF-8" standalone="no"?>
<!-- Created with Inkscape (http://www.inkscape.org/) -->

<svg
   xmlns:dc="http://purl.org/dc/elements/1.1/"
   xmlns:cc="http://creativecommons.org/ns#"
   xmlns:rdf="http://www.w3.org/1999/02/22-rdf-syntax-ns#"
   xmlns:svg="http://www.w3.org/2000/svg"
   xmlns="http://www.w3.org/2000/svg"
   xmlns:sodipodi="http://sodipodi.sourceforge.net/DTD/sodipodi-0.dtd"
   xmlns:inkscape="http://www.inkscape.org/namespaces/inkscape"
   width="48"
   height="48"
   viewBox="0 0 48 48"
   version="1.1"
   id="svg8"
   inkscape:version="0.92+devel 15645 custom"
   sodipodi:docname="qpaeq.svg">
  <defs
     id="defs2" />
  <sodipodi:namedview
     id="base"
     pagecolor="#002266"
     bordercolor="#ffffff"
     borderopacity="0.46666667"
     inkscape:pageopacity="0"
     inkscape:pageshadow="2"
     inkscape:zoom="8.5729167"
     inkscape:cx="24"
     inkscape:cy="24"
     inkscape:document-units="px"
     inkscape:current-layer="svg8"
     inkscape:document-rotation="0"
     showgrid="false"
     inkscape:showpageshadow="false"
     borderlayer="true"
     units="px"
     fit-margin-top="0"
     fit-margin-left="0"
     fit-margin-right="0"
     fit-margin-bottom="0"
     inkscape:window-width="1920"
     inkscape:window-height="1051"
     inkscape:window-x="0"
     inkscape:window-y="0"
     inkscape:window-maximized="1"
     inkscape:snap-page="true"
     inkscape:snap-bbox="true"
     inkscape:bbox-nodes="true" />
  <metadata
     id="metadata5">
    <rdf:RDF>
      <cc:Work
         rdf:about="">
        <dc:format>image/svg+xml</dc:format>
        <dc:type
           rdf:resource="http://purl.org/dc/dcmitype/StillImage" />
        <dc:title></dc:title>
      </cc:Work>
    </rdf:RDF>
  </metadata>
  <g
     id="g4270"
     inkscape:label="qpaeq"
     transform="scale(2.1818182)">
    <rect
       inkscape:label="boundary"
       y="0"
       x="0"
       height="22"
       width="22"
       id="rect4264"
       style="fill:none;stroke-width:0.91843742" />
    <g
       transform="matrix(0.8,0,0,0.8,2.2,2.2)"
       inkscape:label="glyph"
       id="g4330">
      <path
         inkscape:connector-curvature="0"
         style="fill:#ffffff;stroke-width:0.51700002"
         d="M 18.646484,0 V 3.3535156 H 22 V 0 Z M 0,4.6816406 V 8.0351562 H 3.3535156 V 4.6816406 Z m 13.984375,0 v 3.3535156 h 3.353516 V 4.6816406 Z M 4.6621094,9.3964844 V 12.75 H 8.015625 V 9.3964844 Z m 4.6621094,0 V 12.75 H 12.675781 V 9.3964844 Z"
         id="rect4269" />
      <path
         inkscape:connector-curvature="0"
         id="rect4271"
         d="M 18.646484,4.6816406 V 8.0351562 H 22 V 4.6816406 Z M 0,9.3964844 V 12.75 H 3.3535156 V 9.3964844 Z m 13.984375,0 V 12.75 h 3.353516 V 9.3964844 Z m 4.662109,0 V 12.75 H 22 V 9.3964844 Z M 0,14.050781 v 3.353516 h 3.3535156 v -3.353516 z m 4.6621094,0 v 3.353516 H 8.015625 v -3.353516 z m 4.6621094,0 v 3.353516 h 3.3515622 v -3.353516 z m 4.6601562,0 v 3.353516 h 3.353516 v -3.353516 z m 4.662109,0 v 3.353516 H 22 V 14.050781 Z M 0,18.646484 V 22 h 3.3535156 v -3.353516 z m 4.6621094,0 V 22 H 8.015625 v -3.353516 z m 4.6621094,0 V 22 h 3.3515622 v -3.353516 z m 4.6601562,0 V 22 h 3.353516 v -3.353516 z m 4.662109,0 V 22 H 22 v -3.353516 z"
         style="opacity:0.37900002;fill:#ffffff;stroke-width:0.51700002" />
    </g>
  </g>
</svg>
