<?xml version="1.0" encoding="UTF-8" standalone="no"?>
<!-- Created with Inkscape (http://www.inkscape.org/) -->

<svg
   xmlns:dc="http://purl.org/dc/elements/1.1/"
   xmlns:cc="http://creativecommons.org/ns#"
   xmlns:rdf="http://www.w3.org/1999/02/22-rdf-syntax-ns#"
   xmlns:svg="http://www.w3.org/2000/svg"
   xmlns="http://www.w3.org/2000/svg"
   xmlns:sodipodi="http://sodipodi.sourceforge.net/DTD/sodipodi-0.dtd"
   xmlns:inkscape="http://www.inkscape.org/namespaces/inkscape"
   width="48.149998"
   height="48"
   viewBox="0 0 48.149998 48"
   version="1.1"
   id="svg8"
   inkscape:version="0.92+devel (b8837397f6, 2017-07-27, custom)"
   sodipodi:docname="r.svg">
  <defs
     id="ol-defs">
    <style
       id="current-color-scheme">      .ColorScheme-Text {
        color:#d0d0d0;
        stop-color:#d0d0d0;
      }
      .ColorScheme-Background {
        color:#212121;
        stop-color:#212121;
      }
      .ColorScheme-Highlight {
        color:#0039a9;
        stop-color:#0039a9;
      }
      .ColorScheme-ViewText {
        color:#d0d0d0;
        stop-color:#d0d0d0;
      }
      .ColorScheme-ViewBackground {
        color:#19191b;
        stop-color:#19191b;
      }
      .ColorScheme-ViewHover {
        color:#005cc7;
        stop-color:#005cc7;
      }
      .ColorScheme-ViewFocus{
        color:#002466;
        stop-color:#002466;
      }
      .ColorScheme-ButtonText {
        color:#d0d0d0;
        stop-color:#d0d0d0;
      }
      .ColorScheme-ButtonBackground {
        color:#232323;
        stop-color:#232323;                             
      }                                                 
      .ColorScheme-ButtonHover {                        
        color:#005cc7;                                  
        stop-color:#005cc7;                             
      }                                                 
      .ColorScheme-ButtonFocus{                         
        color:#0039a9;                                  
        stop-color:#0039a9;                             
      }</style>
  </defs>
  <sodipodi:namedview
     id="base"
     pagecolor="#002266"
     bordercolor="#ffffff"
     borderopacity="0.46666667"
     inkscape:pageopacity="0"
     inkscape:pageshadow="2"
     inkscape:zoom="12.859375"
     inkscape:cx="31.6838"
     inkscape:cy="21.027627"
     inkscape:document-units="px"
     inkscape:current-layer="svg8"
     inkscape:document-rotation="0"
     showgrid="false"
     inkscape:showpageshadow="false"
     borderlayer="true"
     units="px"
     fit-margin-top="0"
     fit-margin-left="0"
     fit-margin-right="0"
     fit-margin-bottom="0"
     inkscape:window-width="1920"
     inkscape:window-height="1051"
     inkscape:window-x="0"
     inkscape:window-y="0"
     inkscape:window-maximized="1"
     inkscape:snap-page="true" />
  <metadata
     id="metadata5">
    <rdf:RDF>
      <cc:Work
         rdf:about="">
        <dc:format>image/svg+xml</dc:format>
        <dc:type
           rdf:resource="http://purl.org/dc/dcmitype/StillImage" />
        <dc:title></dc:title>
      </cc:Work>
    </rdf:RDF>
  </metadata>
  <g
     id="g868"
     inkscape:label="#r">
    <rect
       inkscape:label="#boundary"
       y="0"
       x="0"
       height="48"
       width="48.149998"
       id="rect4264"
       style="fill:none;fill-opacity:0.74651441;stroke-width:23.61599922;stroke-opacity:0.3596773" />
    <g
       style="opacity:0.72340423"
       inkscape:label="#1"
       id="g862">
      <path
         style="opacity:0.48085106;fill:#d0d0d0;fill-rule:evenodd;stroke-width:1"
         d="M 21.265625,8.2441406 A 18.302091,14.547983 17.343928 0 0 6.6054688,17.703125 18.302091,14.547983 17.343928 0 0 19.738281,37.044922 a 18.302091,14.547983 17.343928 0 0 1.09961,0.294922 v -2.50586 A 13.65031,10.844856 17.343928 0 1 13.027344,21.185547 13.65031,10.844856 17.343928 0 1 29.289062,14.902344 13.65031,10.844856 17.343928 0 1 39.085938,29.324219 13.65031,10.844856 17.343928 0 1 35.908203,33.8125 c 0.299433,0.38045 0.563742,0.698682 0.875,1.105469 0.01215,0.01575 0.02116,0.02919 0.0332,0.04492 A 18.302091,14.547983 17.343928 0 0 41.544922,28.615234 18.302091,14.547983 17.343928 0 0 28.412109,9.2734375 18.302091,14.547983 17.343928 0 0 21.265625,8.2441406 Z m 8.673828,27.9765624 a 13.65031,10.844856 17.343928 0 1 -2.294922,0.150391 v 1.654297 a 18.302091,14.547983 17.343928 0 0 3.212891,-0.447266 z"
         id="path847"
         inkscape:connector-curvature="0" />
      <path
         inkscape:connector-curvature="0"
         style="fill:#d0d0d0;fill-rule:evenodd;stroke-width:1"
         d="m 21.693359,20.085938 v 19.669921 l 5.095703,-0.002 -0.002,-7.697265 h 0.742188 c 0.326704,0 0.466751,0.09559 0.796875,0.363281 0.395978,0.321567 1.041015,1.429687 1.041016,1.429687 l 4.001953,5.91211 5.86914,-0.0039 v -0.0039 c -0.692753,-1.146899 -5.599194,-7.711206 -6.208984,-7.960937 0,0 4.447477,-1.459111 4.345703,-6.423828 -0.09151,-4.453281 -4.585937,-5.283203 -4.585938,-5.283203 z m 5.146485,4.263671 3.601562,0.002 v 0.002 c 0,2e-6 1.669922,-0.09149 1.669922,1.638672 0,1.695958 -1.669922,1.701171 -1.669922,1.701171 h -3.603515 z"
         id="path845" />
    </g>
  </g>
</svg>
