<?xml version="1.0" encoding="UTF-8" standalone="no"?>
<!-- Created with Inkscape (http://www.inkscape.org/) -->

<svg
   xmlns:dc="http://purl.org/dc/elements/1.1/"
   xmlns:cc="http://creativecommons.org/ns#"
   xmlns:rdf="http://www.w3.org/1999/02/22-rdf-syntax-ns#"
   xmlns:svg="http://www.w3.org/2000/svg"
   xmlns="http://www.w3.org/2000/svg"
   xmlns:xlink="http://www.w3.org/1999/xlink"
   xmlns:sodipodi="http://sodipodi.sourceforge.net/DTD/sodipodi-0.dtd"
   xmlns:inkscape="http://www.inkscape.org/namespaces/inkscape"
   width="48.149998"
   height="48"
   viewBox="0 0 48.149998 48"
   version="1.1"
   id="svg8"
   inkscape:version="0.92+devel (f96dc7e339, 2017-07-28, custom)"
   sodipodi:docname="rekonq.svg">
  <defs
     id="ol-defs">
    <style
       id="current-color-scheme">      .ColorScheme-Text {
        color:#d0d0d0;
        stop-color:#d0d0d0;
      }
      .ColorScheme-Background {
        color:#212121;
        stop-color:#212121;
      }
      .ColorScheme-Highlight {
        color:#0039a9;
        stop-color:#0039a9;
      }
      .ColorScheme-ViewText {
        color:#d0d0d0;
        stop-color:#d0d0d0;
      }
      .ColorScheme-ViewBackground {
        color:#19191b;
        stop-color:#19191b;
      }
      .ColorScheme-ViewHover {
        color:#005cc7;
        stop-color:#005cc7;
      }
      .ColorScheme-ViewFocus{
        color:#002466;
        stop-color:#002466;
      }
      .ColorScheme-ButtonText {
        color:#d0d0d0;
        stop-color:#d0d0d0;
      }
      .ColorScheme-ButtonBackground {
        color:#232323;
        stop-color:#232323;                             
      }                                                 
      .ColorScheme-ButtonHover {                        
        color:#005cc7;                                  
        stop-color:#005cc7;                             
      }                                                 
      .ColorScheme-ButtonFocus{                         
        color:#0039a9;                                  
        stop-color:#0039a9;                             
      }</style>
    <linearGradient
       id="linearGradient3052">
      <stop
         id="stop3054"
         style="stop-color:#555753" />
      <stop
         id="stop3056"
         style="stop-color:#2e3436"
         offset="1" />
    </linearGradient>
    <radialGradient
       gradientTransform="matrix(0.58724559 -0.0000004 0 0.25688859 387.29707 527.70784)"
       gradientUnits="userSpaceOnUse"
       id="radialGradient3082"
       xlink:href="#linearGradient3052"
       r="17.995"
       cy="3.6836"
       cx="25.641" />
    <radialGradient
       gradientTransform="matrix(0.5872456,-4.0000001e-7,0,0.25688859,387.45769,529.05333)"
       gradientUnits="userSpaceOnUse"
       id="radialGradient3082-6"
       xlink:href="#linearGradient3052"
       r="17.995001"
       cy="3.6835999"
       cx="25.641001" />
    <style
       id="current-color-scheme-5">      .ColorScheme-Text {
        color:#d0d0d0;
        stop-color:#d0d0d0;
      }
      .ColorScheme-Background {
        color:#212121;
        stop-color:#212121;
      }
      .ColorScheme-Highlight {
        color:#0039a9;
        stop-color:#0039a9;
      }
      .ColorScheme-ViewText {
        color:#d0d0d0;
        stop-color:#d0d0d0;
      }
      .ColorScheme-ViewBackground {
        color:#19191b;
        stop-color:#19191b;
      }
      .ColorScheme-ViewHover {
        color:#005cc7;
        stop-color:#005cc7;
      }
      .ColorScheme-ViewFocus{
        color:#002466;
        stop-color:#002466;
      }
      .ColorScheme-ButtonText {
        color:#d0d0d0;
        stop-color:#d0d0d0;
      }
      .ColorScheme-ButtonBackground {
        color:#232323;
        stop-color:#232323;                             
      }                                                 
      .ColorScheme-ButtonHover {                        
        color:#005cc7;                                  
        stop-color:#005cc7;                             
      }                                                 
      .ColorScheme-ButtonFocus{                         
        color:#0039a9;                                  
        stop-color:#0039a9;                             
      }</style>
  </defs>
  <sodipodi:namedview
     id="base"
     pagecolor="#002266"
     bordercolor="#ffffff"
     borderopacity="0.46666667"
     inkscape:pageopacity="0"
     inkscape:pageshadow="2"
     inkscape:zoom="12.859375"
     inkscape:cx="31.6838"
     inkscape:cy="21.027627"
     inkscape:document-units="px"
     inkscape:current-layer="svg8"
     inkscape:document-rotation="0"
     showgrid="false"
     inkscape:showpageshadow="false"
     borderlayer="true"
     units="px"
     fit-margin-top="0"
     fit-margin-left="0"
     fit-margin-right="0"
     fit-margin-bottom="0"
     inkscape:window-width="1920"
     inkscape:window-height="1051"
     inkscape:window-x="0"
     inkscape:window-y="0"
     inkscape:window-maximized="1"
     inkscape:snap-page="true" />
  <metadata
     id="metadata5">
    <rdf:RDF>
      <cc:Work
         rdf:about="">
        <dc:format>image/svg+xml</dc:format>
        <dc:type
           rdf:resource="http://purl.org/dc/dcmitype/StillImage" />
        <dc:title></dc:title>
      </cc:Work>
    </rdf:RDF>
  </metadata>
  <g
     id="g881"
     inkscape:label="#rekonq">
    <rect
       inkscape:label="#boundary"
       y="0"
       x="0"
       height="48"
       width="48.149998"
       id="rect4264"
       style="fill:none;fill-opacity:0.74651441;stroke-width:23.61599922;stroke-opacity:0.3596773" />
    <path
       style="opacity:0.6;fill:#d0d0d0;stroke-width:2.91517925;stroke-linecap:round;stroke-linejoin:round"
       d="M 22.433594,5.9 20.826172,9.7320312 C 19.987217,9.924007 19.166946,10.190023 18.375,10.526953 L 14.822266,8.3746094 12.169922,10.302344 13.117188,14.3375 c -0.564278,0.65182 -1.069521,1.352492 -1.509766,2.09375 L 7.4667969,16.776953 6.4492188,19.9 9.5859375,22.605078 c -0.041304,0.429791 -0.063462,0.861208 -0.066406,1.292969 0.00424,0.431819 0.027704,0.863236 0.070313,1.292969 L 6.4492188,27.9 7.4667969,31.023047 11.601562,31.36875 c 0.442692,0.737434 0.949885,1.434171 1.515626,2.082031 l -0.947266,4.046875 2.652344,1.927735 3.541015,-2.142579 c 0.795921,0.335589 1.620138,0.599652 2.462891,0.789063 L 22.433594,41.9 h 3.28125 l 1.609375,-3.832031 c 0.838955,-0.191976 1.659226,-0.457992 2.451172,-0.794922 l 3.550781,2.152344 2.654297,-1.927735 -0.947266,-4.035156 c 0.564278,-0.65182 1.069521,-1.352492 1.509766,-2.09375 L 40.683594,31.023047 41.699219,27.9 38.564453,25.194922 c 0.04077,-0.431118 0.06227,-0.86384 0.06445,-1.296875 -0.0037,-0.430487 -0.02652,-0.860598 -0.06836,-1.289063 L 41.699219,19.9 40.683594,16.776953 36.546875,16.43125 c -0.44207,-0.737357 -0.948608,-1.434092 -1.513672,-2.082031 L 35.980469,10.302344 33.326172,8.3746094 29.791016,10.517188 C 28.993963,10.180045 28.168426,9.914671 27.324219,9.7242188 L 25.714844,5.9 Z m 1.839844,9.248047 -0.03906,6.121094 4.701172,-5.972657 3.792969,0.822266 -4.900391,5.970703 4.859375,6.306641 -3.712891,1.121094 -4.740234,-6.570313 v 5.935547 l -3.554687,0.484375 V 15.483984 Z m -8.097657,3.396484 c 0.0403,-0.0038 0.0812,0.01554 0.117188,0.03711 l 2.648437,1.642578 h 0.03906 c 0.329819,-0.170183 0.66814,-0.292817 1.027343,-0.41211 v 1.382813 c -1.973532,0.838855 -3.359374,2.711327 -3.359374,4.888672 0,2.960108 2.55647,5.335937 5.689453,5.335937 2.205153,0 4.118047,-1.174575 5.05664,-2.910156 0.78513,1.085817 1.382813,1.939453 1.382813,1.939453 0.02647,0.03808 0.07405,0.06065 0.11914,0.03906 l 0.314454,-0.111329 0.949218,1.492188 c 0.04342,0.06777 0.02018,0.166229 -0.03906,0.224609 l -1.382813,1.304688 c -0.06101,0.05968 -0.166531,0.08223 -0.238281,0.03906 l -2.607422,-1.642578 c -0.533095,0.296709 -1.126803,0.553016 -1.738281,0.708985 l -0.710938,2.798828 c -0.01991,0.07728 -0.114015,0.15039 -0.197265,0.15039 h -1.97461 c -0.08525,0 -0.140063,-0.06917 -0.158203,-0.15039 L 20.480468,32.503511 C 19.88725,32.352236 19.342686,32.11527 18.822265,31.831636 l -2.646485,1.53125 c -0.07186,0.04314 -0.179391,0.01424 -0.238281,-0.03906 L 14.55664,32.017186 C 14.4944,31.959946 14.4685,31.863059 14.51562,31.794529 l 1.699219,-2.427734 c -0.319028,-0.52971 -0.555289,-1.106324 -0.710938,-1.714844 l -2.923828,-0.671875 c -0.08056,-0.01917 -0.158203,-0.10882 -0.158203,-0.1875 v -1.865234 c 0,-0.08135 0.07449,-0.128801 0.158203,-0.150391 l 3.001953,-0.597656 c 0.166544,-0.524888 0.381105,-1.030373 0.671875,-1.492188 L 14.634766,20.15 c -0.04316,-0.06802 -0.01983,-0.166229 0.03906,-0.224609 l 1.382813,-1.34375 c 0.03031,-0.01649 0.07895,-0.03711 0.11914,-0.03711 z"
       id="path4814"
       inkscape:connector-curvature="0" />
  </g>
</svg>
