<?xml version="1.0" encoding="UTF-8" standalone="no"?>
<!-- Created with Inkscape (http://www.inkscape.org/) -->

<svg
   xmlns:dc="http://purl.org/dc/elements/1.1/"
   xmlns:cc="http://creativecommons.org/ns#"
   xmlns:rdf="http://www.w3.org/1999/02/22-rdf-syntax-ns#"
   xmlns:svg="http://www.w3.org/2000/svg"
   xmlns="http://www.w3.org/2000/svg"
   xmlns:xlink="http://www.w3.org/1999/xlink"
   xmlns:sodipodi="http://sodipodi.sourceforge.net/DTD/sodipodi-0.dtd"
   xmlns:inkscape="http://www.inkscape.org/namespaces/inkscape"
   width="48.149998"
   height="48"
   viewBox="0 0 48.149998 48"
   version="1.1"
   id="svg8"
   inkscape:version="0.92+devel (d0390b9f4f, 2017-07-31, custom)"
   sodipodi:docname="rosegarden.svg">
  <defs
     id="ol-defs">
    <style
       id="current-color-scheme">      .ColorScheme-Text {
        color:#d0d0d0;
        stop-color:#d0d0d0;
      }
      .ColorScheme-Background {
        color:#212121;
        stop-color:#212121;
      }
      .ColorScheme-Highlight {
        color:#0039a9;
        stop-color:#0039a9;
      }
      .ColorScheme-ViewText {
        color:#d0d0d0;
        stop-color:#d0d0d0;
      }
      .ColorScheme-ViewBackground {
        color:#19191b;
        stop-color:#19191b;
      }
      .ColorScheme-ViewHover {
        color:#005cc7;
        stop-color:#005cc7;
      }
      .ColorScheme-ViewFocus{
        color:#002466;
        stop-color:#002466;
      }
      .ColorScheme-ButtonText {
        color:#d0d0d0;
        stop-color:#d0d0d0;
      }
      .ColorScheme-ButtonBackground {
        color:#232323;
        stop-color:#232323;                             
      }                                                 
      .ColorScheme-ButtonHover {                        
        color:#005cc7;                                  
        stop-color:#005cc7;                             
      }                                                 
      .ColorScheme-ButtonFocus{                         
        color:#0039a9;                                  
        stop-color:#0039a9;                             
      }</style>
    <style
       id="current-color-scheme-7">      .ColorScheme-Text {
        color:#d0d0d0;
        stop-color:#d0d0d0;
      }
      .ColorScheme-Background {
        color:#212121;
        stop-color:#212121;
      }
      .ColorScheme-Highlight {
        color:#0039a9;
        stop-color:#0039a9;
      }
      .ColorScheme-ViewText {
        color:#d0d0d0;
        stop-color:#d0d0d0;
      }
      .ColorScheme-ViewBackground {
        color:#19191b;
        stop-color:#19191b;
      }
      .ColorScheme-ViewHover {
        color:#005cc7;
        stop-color:#005cc7;
      }
      .ColorScheme-ViewFocus{
        color:#002466;
        stop-color:#002466;
      }
      .ColorScheme-ButtonText {
        color:#d0d0d0;
        stop-color:#d0d0d0;
      }
      .ColorScheme-ButtonBackground {
        color:#232323;
        stop-color:#232323;                             
      }                                                 
      .ColorScheme-ButtonHover {                        
        color:#005cc7;                                  
        stop-color:#005cc7;                             
      }                                                 
      .ColorScheme-ButtonFocus{                         
        color:#0039a9;                                  
        stop-color:#0039a9;                             
      }</style>
    <linearGradient
       gradientTransform="matrix(0.26458333,0,0,0.26458333,-106.64804,-134.81697)"
       gradientUnits="userSpaceOnUse"
       y2="504.664"
       x2="402.98599"
       y1="534.987"
       x1="417.39099"
       id="linearGradient4181"
       xlink:href="#linearGradient4174" />
    <linearGradient
       id="linearGradient4174">
      <stop
         id="stop2"
         offset="0"
         style="stop-color:#df2323;stop-opacity:1" />
      <stop
         id="stop4"
         offset="1"
         style="stop-color:#e76f6f;stop-opacity:1" />
    </linearGradient>
  </defs>
  <sodipodi:namedview
     id="base"
     pagecolor="#002266"
     bordercolor="#ffffff"
     borderopacity="0.46666667"
     inkscape:pageopacity="0"
     inkscape:pageshadow="2"
     inkscape:zoom="12.859375"
     inkscape:cx="31.6838"
     inkscape:cy="27.406602"
     inkscape:document-units="px"
     inkscape:current-layer="svg8"
     inkscape:document-rotation="0"
     showgrid="false"
     inkscape:showpageshadow="false"
     borderlayer="true"
     units="px"
     fit-margin-top="0"
     fit-margin-left="0"
     fit-margin-right="0"
     fit-margin-bottom="0"
     inkscape:window-width="1920"
     inkscape:window-height="1051"
     inkscape:window-x="0"
     inkscape:window-y="0"
     inkscape:window-maximized="1"
     inkscape:snap-page="true" />
  <metadata
     id="metadata5">
    <rdf:RDF>
      <cc:Work
         rdf:about="">
        <dc:format>image/svg+xml</dc:format>
        <dc:type
           rdf:resource="http://purl.org/dc/dcmitype/StillImage" />
        <dc:title></dc:title>
      </cc:Work>
    </rdf:RDF>
  </metadata>
  <g
     id="g856"
     inkscape:label="#rosegarden">
    <rect
       inkscape:label="#boundary"
       y="0"
       x="0"
       height="48"
       width="48.149998"
       id="rect4264"
       style="fill:none;fill-opacity:0.74651441;stroke-width:23.61599922;stroke-opacity:0.3596773" />
    <path
       inkscape:connector-curvature="0"
       inkscape:label="#"
       id="path10"
       d="m 25.907815,30.018751 c -0.199823,0.0067 -0.396318,0.04831 -0.588056,0.119048 0.01598,0.05495 0.03742,0.126675 0.05051,0.174982 0.124177,0.457724 0.210577,0.870098 0.310266,1.237451 0.133605,0.492504 0.184567,0.782651 0.308463,1.23925 0.146115,0.538546 0.292784,0.908719 0.517712,1.426855 0.210712,0.485438 0.333414,0.807381 0.5159,1.143648 0.209205,0.385508 0.196583,1.009649 0.310266,1.428658 0.129173,0.47605 0.311832,0.953334 0.414891,1.333055 0.130613,0.481509 0.308461,0.632351 0.308461,1.23925 0,0.711261 -0.133987,0.79506 -0.826163,0.476222 C 26.755229,39.618425 26.573143,38.480877 25.162839,38.305692 22.25937,37.912905 20.421531,39.635331 20.380802,42 c 1.850044,-0.982262 4.667908,-1.837334 6.125912,-1.782216 0.593082,0 1.020024,0.03996 1.343878,0.189405 0.244955,0.112883 -0.322904,1.592809 -0.0812,1.592809 h 1.847155 c 0,0 0.0704,-1.823371 0.03784,-1.973423 -0.10161,-0.468099 0,-1.044927 0,-1.524263 0,-0.39869 0.104625,-0.906983 0.104625,-1.428657 0,-0.409286 0.119767,-0.749734 0.445556,-1.049848 0.121815,-0.11223 0.20691,-0.253528 0.310266,-0.380619 0.407185,-0.50022 -1.3799,0.227012 -1.85978,0.669233 0,0 -0.104625,-0.18018 -0.104625,-0.761228 0,-0.49669 -0.288718,-0.970288 -0.413087,-1.428658 -0.137745,-0.507857 -0.164677,-0.89228 -0.310223,-1.428658 -0.191272,-0.704985 -0.354717,-1.310751 -0.5159,-1.904879 -0.04345,-0.160245 -0.102397,-0.32184 -0.162337,-0.488848 -0.414678,-0.17595 -0.833641,-0.295027 -1.241058,-0.281403 z"
       style="opacity:0.3;fill:#d0d0d0;fill-rule:evenodd;stroke:none;stroke-width:1.00000012" />
    <path
       inkscape:label="#"
       inkscape:connector-curvature="0"
       id="path12"
       d="m 26.566282,6 c -1.403604,0.303658 -1.935628,2.7710401 -3.472432,2.7508891 -1.860185,-0.01485 -4.184367,-0.076455 -6.286457,-0.8496201 -1.950567,-0.044055 -2.387477,3.153287 -4.313031,2.940293 -1.485933,0.189 -5.0906154,1.861981 -5.7416914,4.441106 -0.468124,1.591047 -0.218295,3.373393 0.853227,4.675607 1.317075,1.995159 2.9903874,3.82176 5.0345774,5.095908 1.499195,0.728116 3.215792,0.730489 4.783839,1.242862 0.164408,0.122692 0.419618,0.391018 0.656606,0.640372 -0.02093,-0.03155 -0.0083,-0.02025 -0.03249,-0.05596 -1.282983,-1.309884 -1.441127,-3.358156 -1.23385,-5.067042 0.839092,-0.226229 0.178987,-1.280909 -0.12807,-1.971616 v -0.009 c 1.437178,1.157093 3.298565,2.051183 5.222178,2.036549 1.818467,-0.07909 3.653803,-1.668202 5.445856,-0.674645 1.43993,0.491324 3.246563,1.938301 1.619867,3.31189 -1.143017,0.630711 -2.365584,1.16937 -3.169383,2.211534 -1.221763,0.980174 -2.766337,1.491808 -4.192173,2.135771 -1.405766,0.774624 -2.669287,-0.71718 -3.118877,-1.379952 -0.807024,0.748967 -2.380748,1.254011 -1.509831,2.575913 0.521367,2.498931 3.13431,5.364688 5.272685,5.483738 2.137637,-0.163778 1.042585,-2.865533 1.756962,-4.130843 1.428273,-2.62934 3.744961,-0.920569 5.272686,0.245322 1.608502,1.053525 2.327098,-1.984747 3.831401,-0.674642 1.028819,-0.463635 2.319779,-2.156121 3.551802,-2.956529 0.954904,-1.335255 -0.497677,-3.408891 1.56577,-3.966684 1.337506,-1.00708 1.478183,-2.867877 2.648068,-4.031631 1.251994,-1.305614 0.9765,-4.12638 -1.309604,-3.876498 -1.490726,-0.0135 -4.318649,2.407023 -4.608863,-0.586253 C 34.177905,13.177215 33.603383,10.485155 31.472784,8.8789613 30.111433,7.4021712 27.826984,6.048653 26.566282,6 Z m -0.694483,1.493596 c -0.814345,0.8111069 -0.789003,2.3867323 -2.161024,2.393723 1.227618,0.21456 1.193871,0.94133 -0.05229,0.658411 -1.47548,-0.168143 -3.54752,-0.430675 -4.332874,1.176117 -1.011872,1.370856 -0.740846,3.10604 0.16776,4.419459 0.192195,1.99888 2.529974,0.536665 3.825992,0.802721 1.623222,-0.575098 3.467074,-1.950203 3.044916,-3.910772 -0.258111,-1.39752 1.876034,-0.946354 0.864049,-2.332392 -1.024429,-0.555894 -2.560819,-2.8109363 -0.404064,-2.812221 2.213444,0.4435154 3.128234,2.727486 4.49883,4.251701 1.071027,1.477696 1.754314,3.221372 1.805665,5.056222 0.235713,1.304341 0.99153,3.010855 -0.326499,3.995554 -1.372518,0.770618 1.407651,0.360857 1.132823,-0.752206 0.22095,-1.288834 2.125388,-2.534648 3.026882,-2.177262 -0.825021,0.62345 -2.852244,2.779397 -0.853227,3.142327 0.602113,0.05868 1.569287,0.215865 0.340931,0.111848 -1.715933,-0.598948 -3.250523,0.554831 -4.10559,1.960793 -0.773598,0.416363 0.151605,-1.867943 -0.613312,-2.337801 0.680809,-1.893413 -0.521951,-3.745579 -2.25304,-4.534913 -1.552356,-0.356677 -2.064217,-2.932276 -2.370271,-3.539178 -0.257717,1.957993 -1.50419,3.544657 -3.495883,4.031631 1.378568,0.03937 2.680184,0.771518 4.110999,0.654802 0.789761,0.3447 3.172473,-0.326347 2.635441,0.928988 -1.71511,0.252478 -3.361466,-0.613363 -5.083281,-0.551981 -1.838038,-0.360045 -3.725095,-0.449475 -5.573931,-0.413086 -1.195459,-0.979157 -1.376194,-2.847319 -1.529674,-4.325658 -0.197257,-1.348119 1.388437,-2.418186 1.706452,-3.100838 -1.115809,-0.9520129 -3.042292,0.02695 -3.638387,1.203176 -0.610949,1.258632 -1.379673,2.463829 -1.556732,3.874694 -0.462155,1.110822 -0.226537,2.568095 1.241057,2.451446 -0.389295,1.543649 -2.210924,-1.103937 -2.534424,-1.903072 -0.25074,-1.739974 1.179656,-3.112368 1.899465,-4.552947 1.141319,-1.015148 2.511128,-2.1547929 4.096568,-2.1628277 1.043347,-0.3520979 1.594858,0.8921457 2.556072,0.328302 1.8409,0.5364537 2.828558,-0.199485 3.384042,-1.5621433 0.154755,-0.18612 0.317887,-0.3731625 0.546572,-0.4726125 z m -11.992067,3.569841 c -0.791019,1.975428 -1.808525,4.496116 -0.335515,6.405511 0.93892,1.200474 2.588267,2.1091 2.206122,3.890929 -0.06489,1.126568 -0.128025,2.936862 -1.392581,1.578379 -1.422499,-0.666751 -2.043085,-2.184122 -3.389463,-2.967351 -1.1029654,-0.727963 -2.9462714,-2.608223 -2.2187494,-3.476041 0.687764,1.545174 1.9427584,3.281877 3.7808934,3.376827 2.343716,-0.203873 -0.673767,-2.316058 -0.820758,-3.575252 -0.92573,-1.64808 -0.576882,-4.034405 1.213999,-4.937168 0.297603,-0.154305 0.622598,-0.257992 0.956052,-0.295834 z m 9.466663,0.869463 c 1.046011,0.05587 2.424203,1.21005 2.2891,1.466538 -1.058418,-0.9873 -0.75145,-0.07747 -0.636768,0.735973 0.09767,0.262568 0.104715,0.537754 -0.04874,0.791894 0.10962,-0.17019 0.09382,-0.471764 0.04874,-0.791894 -0.317918,-0.854638 -1.620868,-1.571593 -1.686609,-0.959654 0.81619,0.353542 1.225224,1.733404 0.366179,2.148399 0.953115,-0.896661 -0.389412,-2.530904 -1.212195,-1.540499 1.530957,1.358645 -2.347591,0.865771 -0.941615,-0.604289 0.294322,-0.491143 0.853816,-1.009386 1.399796,-1.197763 0.130455,-0.04268 0.272669,-0.05663 0.4221,-0.04874 z"
       style="opacity:0.7;fill:#d0d0d0;fill-opacity:1;fill-rule:evenodd;stroke:none;stroke-width:1" />
  </g>
</svg>
