<?xml version="1.0" encoding="UTF-8" standalone="no"?>
<!-- Created with Inkscape (http://www.inkscape.org/) -->

<svg
   xmlns:dc="http://purl.org/dc/elements/1.1/"
   xmlns:cc="http://creativecommons.org/ns#"
   xmlns:rdf="http://www.w3.org/1999/02/22-rdf-syntax-ns#"
   xmlns:svg="http://www.w3.org/2000/svg"
   xmlns="http://www.w3.org/2000/svg"
   xmlns:sodipodi="http://sodipodi.sourceforge.net/DTD/sodipodi-0.dtd"
   xmlns:inkscape="http://www.inkscape.org/namespaces/inkscape"
   width="48.149998"
   height="48"
   viewBox="0 0 48.149998 48"
   version="1.1"
   id="svg8"
   inkscape:version="0.92+devel (f96dc7e339, 2017-07-28, custom)"
   sodipodi:docname="sage-notebook.svg">
  <defs
     id="ol-defs">
    <style
       id="current-color-scheme">      .ColorScheme-Text {
        color:#d0d0d0;
        stop-color:#d0d0d0;
      }
      .ColorScheme-Background {
        color:#212121;
        stop-color:#212121;
      }
      .ColorScheme-Highlight {
        color:#0039a9;
        stop-color:#0039a9;
      }
      .ColorScheme-ViewText {
        color:#d0d0d0;
        stop-color:#d0d0d0;
      }
      .ColorScheme-ViewBackground {
        color:#19191b;
        stop-color:#19191b;
      }
      .ColorScheme-ViewHover {
        color:#005cc7;
        stop-color:#005cc7;
      }
      .ColorScheme-ViewFocus{
        color:#002466;
        stop-color:#002466;
      }
      .ColorScheme-ButtonText {
        color:#d0d0d0;
        stop-color:#d0d0d0;
      }
      .ColorScheme-ButtonBackground {
        color:#232323;
        stop-color:#232323;                             
      }                                                 
      .ColorScheme-ButtonHover {                        
        color:#005cc7;                                  
        stop-color:#005cc7;                             
      }                                                 
      .ColorScheme-ButtonFocus{                         
        color:#0039a9;                                  
        stop-color:#0039a9;                             
      }</style>
    <style
       id="current-color-scheme-7">      .ColorScheme-Text {
        color:#d0d0d0;
        stop-color:#d0d0d0;
      }
      .ColorScheme-Background {
        color:#212121;
        stop-color:#212121;
      }
      .ColorScheme-Highlight {
        color:#0039a9;
        stop-color:#0039a9;
      }
      .ColorScheme-ViewText {
        color:#d0d0d0;
        stop-color:#d0d0d0;
      }
      .ColorScheme-ViewBackground {
        color:#19191b;
        stop-color:#19191b;
      }
      .ColorScheme-ViewHover {
        color:#005cc7;
        stop-color:#005cc7;
      }
      .ColorScheme-ViewFocus{
        color:#002466;
        stop-color:#002466;
      }
      .ColorScheme-ButtonText {
        color:#d0d0d0;
        stop-color:#d0d0d0;
      }
      .ColorScheme-ButtonBackground {
        color:#232323;
        stop-color:#232323;                             
      }                                                 
      .ColorScheme-ButtonHover {                        
        color:#005cc7;                                  
        stop-color:#005cc7;                             
      }                                                 
      .ColorScheme-ButtonFocus{                         
        color:#0039a9;                                  
        stop-color:#0039a9;                             
      }</style>
  </defs>
  <sodipodi:namedview
     id="base"
     pagecolor="#002266"
     bordercolor="#ffffff"
     borderopacity="0.46666667"
     inkscape:pageopacity="0"
     inkscape:pageshadow="2"
     inkscape:zoom="12.859375"
     inkscape:cx="31.6838"
     inkscape:cy="27.406602"
     inkscape:document-units="px"
     inkscape:current-layer="svg8"
     inkscape:document-rotation="0"
     showgrid="false"
     inkscape:showpageshadow="false"
     borderlayer="true"
     units="px"
     fit-margin-top="0"
     fit-margin-left="0"
     fit-margin-right="0"
     fit-margin-bottom="0"
     inkscape:window-width="1920"
     inkscape:window-height="1051"
     inkscape:window-x="0"
     inkscape:window-y="0"
     inkscape:window-maximized="1"
     inkscape:snap-page="true" />
  <metadata
     id="metadata5">
    <rdf:RDF>
      <cc:Work
         rdf:about="">
        <dc:format>image/svg+xml</dc:format>
        <dc:type
           rdf:resource="http://purl.org/dc/dcmitype/StillImage" />
        <dc:title></dc:title>
      </cc:Work>
    </rdf:RDF>
  </metadata>
  <g
     id="g867"
     inkscape:label="#sage-notebook">
    <rect
       inkscape:label="#boundary"
       y="0"
       x="0"
       height="48"
       width="48.149998"
       id="rect4264"
       style="fill:none;fill-opacity:0.74651441;stroke-width:23.61599922;stroke-opacity:0.3596773" />
    <path
       inkscape:label="#"
       inkscape:connector-curvature="0"
       id="rect811"
       d="m 6.0742188,6 v 6.355469 h 3.5644531 v 3.527343 H 6.0742188 v 6.355469 h 3.5644531 v 3.523438 H 6.0742188 v 6.355469 h 3.5644531 v 3.529296 H 6.0742188 V 42 H 42.074219 V 6 Z m 14.9628902,4.099609 c 0.467002,0 0.852178,0.304624 0.998047,0.71875 l 8.296875,0.308594 c 0.15282,-0.203957 0.364854,-0.34375 0.640625,-0.34375 0.463078,0 0.855469,0.36262 0.855469,0.822266 0,0.04632 -0.02951,0.09233 -0.03711,0.136719 l 5.376953,6.503906 c 0.03805,-0.0052 0.06792,-0.0332 0.107422,-0.0332 0.463066,0 0.855468,0.360692 0.855468,0.820312 0,0.25695 -0.137916,0.464534 -0.322265,0.617188 l 1.175781,3.867187 c 0.489458,0.09742 0.855469,0.512868 0.855469,1.027344 0,0.586358 -0.477621,1.0625 -1.06836,1.0625 l -3.703125,8.113281 c 0.143507,0.180687 0.248047,0.402493 0.248047,0.650391 0,0.586365 -0.477613,1.060547 -1.068359,1.060547 -0.358357,0 -0.694568,-0.176813 -0.888672,-0.445313 l -8.546875,2.5 c -0.05574,0.534374 -0.480113,0.957031 -1.033203,0.957031 -0.59076,0 -1.068359,-0.474193 -1.068359,-1.060547 -1e-6,-0.04951 0.02856,-0.08898 0.03516,-0.136718 l -3.203125,-1.677735 c -0.129346,0.08103 -0.298616,0.136719 -0.462891,0.136719 -0.463089,0 -0.820312,-0.395823 -0.820312,-0.855469 0,-0.01212 -5.22e-4,-0.02311 0,-0.03516 l -5.839844,-5.921875 c -0.02388,0.0021 -0.04579,0 -0.07031,0 -0.463087,0 -0.855468,-0.360665 -0.855468,-0.820312 0,-0.315214 0.167409,-0.612662 0.427734,-0.753907 l 0.427734,-7.941406 c -0.272788,-0.192409 -0.46289,-0.49997 -0.46289,-0.857422 0,-0.586358 0.477599,-1.060547 1.068359,-1.060547 0.227194,0 0.43223,0.08518 0.605469,0.205078 L 15.910156,16.125 c -0.0016,-0.02648 -0.03516,-0.04131 -0.03516,-0.06836 0,-0.713061 0.597976,-1.302735 1.316406,-1.302735 0.115648,0 0.213578,0.0422 0.320313,0.07031 L 20.18359,11.77734 c -0.125895,-0.174127 -0.214844,-0.386526 -0.214844,-0.617188 0,-0.586346 0.477587,-1.060547 1.068359,-1.060547 z m 0.998047,1.4375 c -0.154565,0.397559 -0.543015,0.683594 -0.998047,0.683594 -0.04142,0 -0.06536,-0.0288 -0.105468,-0.0332 l -0.605469,2.806641 9.115234,-1.095703 c 0.170057,-0.340454 0.473872,-0.595074 0.855469,-0.683594 l 0.212891,-0.923828 c -0.155819,-0.108081 -0.266693,-0.259402 -0.320313,-0.445313 z m 9.292969,0.822266 c -0.03424,0.01667 -0.06871,0.02133 -0.105469,0.0332 l -0.179687,0.855469 c 0.499575,0.18023 0.855469,0.641082 0.855469,1.199219 0,0.222837 -0.07766,0.432285 -0.177735,0.615234 l 4.558594,5.751953 0.425781,-1.199219 c -0.15182,-0.150623 -0.248047,-0.352198 -0.248047,-0.582031 0,-0.131682 0.05062,-0.231146 0.105469,-0.341797 z m -10.824219,0.169922 -2.349609,2.669922 c 0.01078,0.01219 0.02546,0.02258 0.03516,0.03516 l 1.744141,-0.205078 z m 8.972656,2.841797 -0.390624,0.03516 -4.558594,1.675781 c 0.0136,0.05949 0.03516,0.108395 0.03516,0.171875 0,0.459641 -0.355284,0.855469 -0.818359,0.855469 -0.31759,0 -0.605739,-0.186941 -0.748047,-0.445313 l -3.169922,0.34375 6.767578,7.632813 c 0.0772,-0.03065 0.165527,-0.04974 0.248047,-0.06836 z m -1.957031,0.205078 -7.513672,0.855469 -0.25,1.232421 3.132813,-0.376953 c -4.25e-4,-0.01098 0,-0.02186 0,-0.0332 0,-0.459621 0.392382,-0.822265 0.855469,-0.822265 0.258852,0 0.451681,0.12561 0.605468,0.308593 z m 3.382813,0.171875 -2.636719,10.201172 c 0.142771,0.124739 0.265962,0.242958 0.357422,0.410156 l 6.195312,-1.4375 1.033203,-2.875 z M 19.578125,16.5 l -0.998047,0.103516 0.783203,0.890625 z m -3.382813,0.34375 -2.208984,1.4375 c 0.0021,0.01111 -0.0021,0.02186 0,0.0332 l 2.244141,-0.273437 0.177734,-0.992188 c -0.07894,-0.05996 -0.14966,-0.128988 -0.212891,-0.205078 z m 0.925782,0.478516 -0.107422,0.65039 0.748047,-0.103515 -0.498047,-0.546875 c -0.02407,0.0011 -0.04775,0 -0.07227,0 -0.02452,0 -0.04613,0.0011 -0.07031,0 z m 0.960937,0.890625 -1.138672,0.136718 -1.638671,8.455079 2.8125,-4.244141 c -0.187317,-0.15264 -0.320313,-0.357868 -0.320313,-0.617188 0,-0.447023 0.337721,-0.800562 0.783203,-0.820312 l 0.427734,-1.882813 z m -1.921875,0.205078 -2.173828,0.240234 c -0.06505,0.46955 -0.415597,0.824112 -0.888672,0.888672 l -0.427734,7.736328 c 0.300945,0.126343 0.498047,0.444335 0.498047,0.789063 l 0.498047,0.101562 c 0.148713,-0.272659 0.397206,-0.484075 0.71289,-0.546875 z m 3.132813,1.197265 -0.320313,1.576172 c 0.278657,0.135266 0.498047,0.423312 0.498047,0.751953 0,0.45964 -0.390442,0.822266 -0.853515,0.822266 -0.07627,0 -0.144634,-0.0162 -0.214844,-0.03516 l -3.275391,5.033203 c 0.08173,0.04677 0.146721,0.104162 0.212891,0.169922 l 10.255859,-1.09375 c 0.0084,-0.04569 0.02294,-0.09442 0.03516,-0.138672 z m 17.732422,0.207032 -0.462891,1.333984 1.496094,1.951172 -0.960938,-3.285156 c -0.02291,-0.0055 -0.05004,0.0066 -0.07227,0 z m -0.925782,2.566406 -0.853515,2.429687 2.349609,-0.546875 z m 1.603516,2.943359 -2.884766,0.685547 -0.25,0.650391 c 0.25746,0.127713 0.462891,0.378468 0.462891,0.683593 0,0.376319 -0.283121,0.681307 -0.640625,0.753907 l -0.07031,4.58789 z m -3.277344,0.789063 -5.625,1.300781 c -0.135301,0.738783 -0.787219,1.316804 -1.566406,1.333984 l -1.425781,4.314453 1.140625,-0.27539 c 0.01915,-0.442787 0.402692,-0.78711 0.853515,-0.78711 0.463074,0 0.855469,0.362646 0.855469,0.822266 l 4.664063,1.027344 c 0.133483,-0.231173 0.344192,-0.433762 0.605468,-0.513672 l 0.107422,-5.238281 c -0.333247,-0.08987 -0.570312,-0.394668 -0.570312,-0.753907 0,-0.430066 0.349883,-0.787109 0.783203,-0.787109 z M 25.773438,27.900391 15.625,28.996094 c -0.0069,0.02147 -0.02756,0.04753 -0.03516,0.06836 l 5.519531,5.167969 3.417969,-0.855469 1.638672,-4.998047 C 26.01025,28.249252 25.871227,28.079018 25.773438,27.900391 Z m -12.355469,0.890625 0.142578,0.169922 c -0.01151,-0.04034 0.0066,-0.09454 0,-0.136719 z m 0.853515,0.855468 4.38086,4.517578 c 0.129351,-0.08103 0.263459,-0.136718 0.427734,-0.136718 0.08015,0 0.174667,0.01434 0.248047,0.03516 l -4.664063,-4.347656 c -0.02356,0.0011 -0.04838,0 -0.07226,0 -0.111778,0 -0.219034,-0.03683 -0.320313,-0.06836 z m 12.748047,3.492188 -1.316406,0.30664 -0.962891,2.910157 7.90625,-2.292969 -4.060546,-0.890625 c -0.127285,0.298711 -0.435889,0.478516 -0.783204,0.478516 -0.358442,0 -0.663252,-0.197669 -0.783203,-0.511719 z m -2.599609,0.65039 -3.025391,0.71875 2.029297,1.882813 c 0.04464,-0.01547 0.09551,-0.02646 0.142578,-0.03516 z m -4.271484,1.025391 -0.214844,0.03516 c 0,0.02214 0.0011,0.04666 0,0.06836 l 0.748047,0.410156 z"
       style="font-variation-settings:normal;opacity:0.6;vector-effect:none;fill:#d0d0d0;stroke:none;stroke-width:1.49999988;stroke-linecap:round;stroke-miterlimit:26.70000076" />
  </g>
</svg>
