<?xml version="1.0" encoding="UTF-8" standalone="no"?>
<!-- Created with Inkscape (http://www.inkscape.org/) -->

<svg
   xmlns:dc="http://purl.org/dc/elements/1.1/"
   xmlns:cc="http://creativecommons.org/ns#"
   xmlns:rdf="http://www.w3.org/1999/02/22-rdf-syntax-ns#"
   xmlns:svg="http://www.w3.org/2000/svg"
   xmlns="http://www.w3.org/2000/svg"
   xmlns:sodipodi="http://sodipodi.sourceforge.net/DTD/sodipodi-0.dtd"
   xmlns:inkscape="http://www.inkscape.org/namespaces/inkscape"
   width="48.149998"
   height="48"
   viewBox="0 0 48.149998 48"
   version="1.1"
   id="svg8"
   inkscape:version="0.92+devel (4546dc857e, 2017-07-25, custom)"
   sodipodi:docname="skanlite.svg">
  <defs
     id="ol-defs">
    <style
       id="current-color-scheme">      .ColorScheme-Text {
        color:#d0d0d0;
        stop-color:#d0d0d0;
      }
      .ColorScheme-Background {
        color:#212121;
        stop-color:#212121;
      }
      .ColorScheme-Highlight {
        color:#0039a9;
        stop-color:#0039a9;
      }
      .ColorScheme-ViewText {
        color:#d0d0d0;
        stop-color:#d0d0d0;
      }
      .ColorScheme-ViewBackground {
        color:#19191b;
        stop-color:#19191b;
      }
      .ColorScheme-ViewHover {
        color:#005cc7;
        stop-color:#005cc7;
      }
      .ColorScheme-ViewFocus{
        color:#002466;
        stop-color:#002466;
      }
      .ColorScheme-ButtonText {
        color:#d0d0d0;
        stop-color:#d0d0d0;
      }
      .ColorScheme-ButtonBackground {
        color:#232323;
        stop-color:#232323;                             
      }                                                 
      .ColorScheme-ButtonHover {                        
        color:#005cc7;                                  
        stop-color:#005cc7;                             
      }                                                 
      .ColorScheme-ButtonFocus{                         
        color:#0039a9;                                  
        stop-color:#0039a9;                             
      }</style>
  </defs>
  <sodipodi:namedview
     id="base"
     pagecolor="#002266"
     bordercolor="#ffffff"
     borderopacity="0.46666667"
     inkscape:pageopacity="0"
     inkscape:pageshadow="2"
     inkscape:zoom="12.859375"
     inkscape:cx="31.6838"
     inkscape:cy="21.027627"
     inkscape:document-units="px"
     inkscape:current-layer="g843"
     inkscape:document-rotation="0"
     showgrid="false"
     inkscape:showpageshadow="false"
     borderlayer="true"
     units="px"
     fit-margin-top="0"
     fit-margin-left="0"
     fit-margin-right="0"
     fit-margin-bottom="0"
     inkscape:window-width="1920"
     inkscape:window-height="1051"
     inkscape:window-x="0"
     inkscape:window-y="0"
     inkscape:window-maximized="1"
     inkscape:snap-page="true" />
  <metadata
     id="metadata5">
    <rdf:RDF>
      <cc:Work
         rdf:about="">
        <dc:format>image/svg+xml</dc:format>
        <dc:type
           rdf:resource="http://purl.org/dc/dcmitype/StillImage" />
        <dc:title></dc:title>
      </cc:Work>
    </rdf:RDF>
  </metadata>
  <g
     id="g843"
     inkscape:label="#skanlite">
    <rect
       inkscape:label="#boundary"
       y="0"
       x="0"
       height="48"
       width="48.149998"
       id="rect4264"
       style="fill:none;fill-opacity:0.74651441;stroke-width:23.61599922;stroke-opacity:0.3596773" />
    <path
       inkscape:label="#1"
       style="opacity:0.6;fill:#d0d0d0;stroke-width:1.3165127;stroke-linejoin:round"
       d="m 15.606249,10.205893 c -0.17298,0.0124 -0.341738,0.0924 -0.464844,0.234376 -0.24622,0.28396 -0.209752,0.714718 0.07422,0.960938 l 23.011716,19.953126 c 0.28397,0.24622 0.714716,0.21758 0.960938,-0.06644 0.246222,-0.283942 0.18434,-0.680604 -0.0703,-0.957032 l -5.984388,-6.492154 -9.757812,-8.460938 -7.273438,-5.003906 c -0.14198,-0.1231 -0.323126,-0.18028 -0.496094,-0.16796 z M 8.7546869,32.768395 c -0.37583,0 -0.679688,0.299952 -0.679688,0.675782 v 2.210936 c 0,0.375836 0.303858,0.67578 0.679688,0.67578 h 3.7851561 a 1.5416154,1.5416154 0 0 0 1.535156,1.464844 1.5416154,1.5416154 0 0 0 1.539062,-1.464842 h 16.925782 a 1.5416154,1.5416154 0 0 0 1.535156,1.464842 1.5416154,1.5416154 0 0 0 1.535156,-1.464842 h 3.785156 c 0.37582,0 0.679688,-0.299952 0.679688,-0.67578 v -2.210938 c 0,-0.375836 -0.303844,-0.67578 -0.679688,-0.67578 z m 22.1406241,0.835938 c 0.522534,-0.0016 0.946876,0.422778 0.945312,0.945312 0.0016,0.52253 -0.422782,0.946876 -0.945312,0.945312 -0.520018,-0.002 -0.939056,-0.425292 -0.9375,-0.945312 -0.0016,-0.520022 0.41748,-0.94332 0.9375,-0.945312 z m 3.625,0 c 0.520018,0.002 0.939056,0.425288 0.9375,0.945312 0.0016,0.520018 -0.417478,0.943318 -0.9375,0.945312 -0.52253,0.0016 -0.946872,-0.422782 -0.945312,-0.945312 -0.0016,-0.522534 0.42278,-0.946876 0.945312,-0.945312 z m 3.621094,0 c 0.522534,-0.0016 0.946876,0.422778 0.945312,0.945312 0.0016,0.522526 -0.422778,0.946872 -0.945312,0.945312 -0.520018,-0.002 -0.942962,-0.425292 -0.941406,-0.945312 -0.0016,-0.520022 0.421388,-0.94332 0.941406,-0.945312 z"
       id="rect812"
       inkscape:connector-curvature="0" />
  </g>
</svg>
