<?xml version="1.0" encoding="UTF-8" standalone="no"?>
<!-- Created with Inkscape (http://www.inkscape.org/) -->

<svg
   xmlns:dc="http://purl.org/dc/elements/1.1/"
   xmlns:cc="http://creativecommons.org/ns#"
   xmlns:rdf="http://www.w3.org/1999/02/22-rdf-syntax-ns#"
   xmlns:svg="http://www.w3.org/2000/svg"
   xmlns="http://www.w3.org/2000/svg"
   xmlns:sodipodi="http://sodipodi.sourceforge.net/DTD/sodipodi-0.dtd"
   xmlns:inkscape="http://www.inkscape.org/namespaces/inkscape"
   width="48.149998"
   height="48"
   viewBox="0 0 48.149998 48"
   version="1.1"
   id="svg8"
   inkscape:version="0.92+devel (4546dc857e, 2017-07-25, custom)"
   sodipodi:docname="subtitlecomposer.svg">
  <defs
     id="ol-defs">
    <style
       id="current-color-scheme">      .ColorScheme-Text {
        color:#d0d0d0;
        stop-color:#d0d0d0;
      }
      .ColorScheme-Background {
        color:#212121;
        stop-color:#212121;
      }
      .ColorScheme-Highlight {
        color:#0039a9;
        stop-color:#0039a9;
      }
      .ColorScheme-ViewText {
        color:#d0d0d0;
        stop-color:#d0d0d0;
      }
      .ColorScheme-ViewBackground {
        color:#19191b;
        stop-color:#19191b;
      }
      .ColorScheme-ViewHover {
        color:#005cc7;
        stop-color:#005cc7;
      }
      .ColorScheme-ViewFocus{
        color:#002466;
        stop-color:#002466;
      }
      .ColorScheme-ButtonText {
        color:#d0d0d0;
        stop-color:#d0d0d0;
      }
      .ColorScheme-ButtonBackground {
        color:#232323;
        stop-color:#232323;                             
      }                                                 
      .ColorScheme-ButtonHover {                        
        color:#005cc7;                                  
        stop-color:#005cc7;                             
      }                                                 
      .ColorScheme-ButtonFocus{                         
        color:#0039a9;                                  
        stop-color:#0039a9;                             
      }</style>
  </defs>
  <sodipodi:namedview
     id="base"
     pagecolor="#002266"
     bordercolor="#ffffff"
     borderopacity="0.46666667"
     inkscape:pageopacity="0"
     inkscape:pageshadow="2"
     inkscape:zoom="12.859375"
     inkscape:cx="31.6838"
     inkscape:cy="21.027627"
     inkscape:document-units="px"
     inkscape:current-layer="svg8"
     inkscape:document-rotation="0"
     showgrid="false"
     inkscape:showpageshadow="false"
     borderlayer="true"
     units="px"
     fit-margin-top="0"
     fit-margin-left="0"
     fit-margin-right="0"
     fit-margin-bottom="0"
     inkscape:window-width="1920"
     inkscape:window-height="1051"
     inkscape:window-x="0"
     inkscape:window-y="0"
     inkscape:window-maximized="1"
     inkscape:snap-page="true" />
  <metadata
     id="metadata5">
    <rdf:RDF>
      <cc:Work
         rdf:about="">
        <dc:format>image/svg+xml</dc:format>
        <dc:type
           rdf:resource="http://purl.org/dc/dcmitype/StillImage" />
        <dc:title></dc:title>
      </cc:Work>
    </rdf:RDF>
  </metadata>
  <g
     id="g862"
     inkscape:label="#subtitlecomposer"
     style="opacity:0.6">
    <rect
       inkscape:label="#boundary"
       y="0"
       x="0"
       height="48"
       width="48.149998"
       id="rect4264"
       style="fill:none;fill-opacity:0.74651441;stroke-width:23.61599922;stroke-opacity:0.3596773" />
    <path
       style="opacity:1;fill:#d0d0d0;stroke-width:1.30000007"
       d="m 8.5475265,8.811139 c -1.3712379,0 -2.4725277,1.101289 -2.4725277,2.472527 v 17.228572 c 0,0.903408 0.5031261,1.655484 1.2214288,2.086809 l -0.06923,0.0052 12.3923084,8.584614 v -8.203956 h 19.982966 c 1.37124,0 2.472527,-1.10129 2.472527,-2.472528 V 11.283666 c 0,-1.371238 -1.101287,-2.47253 -2.472527,-2.472527 z m 4.7373625,7.882416 a 3.2062919,3.2062919 0 0 1 3.204396,3.204396 3.2062919,3.2062919 0 0 1 -3.204396,3.204396 3.2062919,3.2062919 0 0 1 -3.204396,-3.204396 3.2062919,3.2062919 0 0 1 3.204396,-3.204396 z m 10.79011,0 a 3.2062919,3.2062919 0 0 1 3.204396,3.204396 3.2062919,3.2062919 0 0 1 -3.204396,3.204396 3.2062919,3.2062919 0 0 1 -3.20934,-3.204396 3.2062919,3.2062919 0 0 1 3.20934,-3.204396 z m 10.790111,0 a 3.2062919,3.2062919 0 0 1 3.204396,3.204396 3.2062919,3.2062919 0 0 1 -3.204396,3.204396 3.2062919,3.2062919 0 0 1 -3.209341,-3.204396 3.2062919,3.2062919 0 0 1 3.209341,-3.204396 z"
       id="rect811"
       inkscape:connector-curvature="0"
       inkscape:label="#1" />
  </g>
</svg>
