<?xml version="1.0" encoding="UTF-8" standalone="no"?>
<!-- Created with Inkscape (http://www.inkscape.org/) -->

<svg
   xmlns:dc="http://purl.org/dc/elements/1.1/"
   xmlns:cc="http://creativecommons.org/ns#"
   xmlns:rdf="http://www.w3.org/1999/02/22-rdf-syntax-ns#"
   xmlns:svg="http://www.w3.org/2000/svg"
   xmlns="http://www.w3.org/2000/svg"
   xmlns:sodipodi="http://sodipodi.sourceforge.net/DTD/sodipodi-0.dtd"
   xmlns:inkscape="http://www.inkscape.org/namespaces/inkscape"
   width="48.149998"
   height="48"
   viewBox="0 0 48.149998 48"
   version="1.1"
   id="svg8"
   inkscape:version="0.92+devel (f96dc7e339, 2017-07-28, custom)"
   sodipodi:docname="synfig_icon.svg">
  <defs
     id="ol-defs">
    <style
       id="current-color-scheme">      .ColorScheme-Text {
        color:#d0d0d0;
        stop-color:#d0d0d0;
      }
      .ColorScheme-Background {
        color:#212121;
        stop-color:#212121;
      }
      .ColorScheme-Highlight {
        color:#0039a9;
        stop-color:#0039a9;
      }
      .ColorScheme-ViewText {
        color:#d0d0d0;
        stop-color:#d0d0d0;
      }
      .ColorScheme-ViewBackground {
        color:#19191b;
        stop-color:#19191b;
      }
      .ColorScheme-ViewHover {
        color:#005cc7;
        stop-color:#005cc7;
      }
      .ColorScheme-ViewFocus{
        color:#002466;
        stop-color:#002466;
      }
      .ColorScheme-ButtonText {
        color:#d0d0d0;
        stop-color:#d0d0d0;
      }
      .ColorScheme-ButtonBackground {
        color:#232323;
        stop-color:#232323;                             
      }                                                 
      .ColorScheme-ButtonHover {                        
        color:#005cc7;                                  
        stop-color:#005cc7;                             
      }                                                 
      .ColorScheme-ButtonFocus{                         
        color:#0039a9;                                  
        stop-color:#0039a9;                             
      }</style>
    <style
       id="current-color-scheme-7">      .ColorScheme-Text {
        color:#d0d0d0;
        stop-color:#d0d0d0;
      }
      .ColorScheme-Background {
        color:#212121;
        stop-color:#212121;
      }
      .ColorScheme-Highlight {
        color:#0039a9;
        stop-color:#0039a9;
      }
      .ColorScheme-ViewText {
        color:#d0d0d0;
        stop-color:#d0d0d0;
      }
      .ColorScheme-ViewBackground {
        color:#19191b;
        stop-color:#19191b;
      }
      .ColorScheme-ViewHover {
        color:#005cc7;
        stop-color:#005cc7;
      }
      .ColorScheme-ViewFocus{
        color:#002466;
        stop-color:#002466;
      }
      .ColorScheme-ButtonText {
        color:#d0d0d0;
        stop-color:#d0d0d0;
      }
      .ColorScheme-ButtonBackground {
        color:#232323;
        stop-color:#232323;                             
      }                                                 
      .ColorScheme-ButtonHover {                        
        color:#005cc7;                                  
        stop-color:#005cc7;                             
      }                                                 
      .ColorScheme-ButtonFocus{                         
        color:#0039a9;                                  
        stop-color:#0039a9;                             
      }</style>
    <linearGradient
       gradientTransform="matrix(-0.10583333,0,0,0.10583333,45.356992,-53.318831)"
       gradientUnits="userSpaceOnUse"
       x2="0"
       y2="503.79999"
       y1="543.79999"
       id="a">
      <stop
         id="stop2"
         stop-color="#18222a" />
      <stop
         id="stop4"
         stop-color="#566069"
         offset="1" />
    </linearGradient>
  </defs>
  <sodipodi:namedview
     id="base"
     pagecolor="#002266"
     bordercolor="#ffffff"
     borderopacity="0.46666667"
     inkscape:pageopacity="0"
     inkscape:pageshadow="2"
     inkscape:zoom="12.859375"
     inkscape:cx="31.6838"
     inkscape:cy="27.406602"
     inkscape:document-units="px"
     inkscape:current-layer="svg8"
     inkscape:document-rotation="0"
     showgrid="false"
     inkscape:showpageshadow="false"
     borderlayer="true"
     units="px"
     fit-margin-top="0"
     fit-margin-left="0"
     fit-margin-right="0"
     fit-margin-bottom="0"
     inkscape:window-width="1920"
     inkscape:window-height="1051"
     inkscape:window-x="0"
     inkscape:window-y="0"
     inkscape:window-maximized="1"
     inkscape:snap-page="true" />
  <metadata
     id="metadata5">
    <rdf:RDF>
      <cc:Work
         rdf:about="">
        <dc:format>image/svg+xml</dc:format>
        <dc:type
           rdf:resource="http://purl.org/dc/dcmitype/StillImage" />
        <dc:title></dc:title>
      </cc:Work>
    </rdf:RDF>
  </metadata>
  <g
     id="g847"
     inkscape:label="#synfig_icon">
    <rect
       inkscape:label="#boundary"
       y="0"
       x="0"
       height="48"
       width="48.149998"
       id="rect4264"
       style="fill:none;fill-opacity:0.74651441;stroke-width:23.61599922;stroke-opacity:0.3596773" />
    <path
       inkscape:connector-curvature="0"
       style="opacity:0.6;fill:#d0d0d0;stroke-width:1"
       d="M 24.074999,6.0000001 C 14.103001,6.0000001 6.0749992,14.028 6.0749992,24 c 0,9.972 8.0280018,18 17.9999998,18 9.972,0 18,-8.028 18,-18 0,-9.972 -8.028,-17.9999999 -18,-17.9999999 z m 0,4.4999979 c 0.07731,0.0045 0.149805,0.03733 0.20214,0.09493 1.0791,1.178102 2.067836,2.447509 3.090236,3.658009 0.0018,0.0045 0.01238,0.0095 0.01238,0.01417 1.5192,2.021401 2.789944,4.253934 3.677344,6.465233 0.985499,2.4534 1.572538,4.62465 2.090038,7.70625 0.0873,0.518403 0.18279,1.200602 0.258401,1.800002 0.0756,0.599401 0.131828,1.082601 0.131828,1.316602 v 0.1125 c 0,0.1539 -0.116798,0.282714 -0.270707,0.295308 l -0.19161,0.01575 c -2.357109,0.199755 -3.89272,0.707035 -5.61622,1.850933 -0.7893,0.523801 -1.338383,0.978525 -2.471484,2.053126 -0.198,0.188099 -0.381716,0.356543 -0.520314,0.481636 -0.0693,0.06208 -0.12726,0.115133 -0.17226,0.152934 -0.0225,0.0189 -0.04176,0.03393 -0.06156,0.04923 -0.0099,0.0081 -0.0198,0.01552 -0.0369,0.02637 -0.0081,0.0054 -0.0189,0.01215 -0.0387,0.02115 -0.0198,0.009 -0.03904,0.03087 -0.137115,0.02637 -0.0819,-0.0045 -0.09977,-0.02182 -0.117765,-0.02986 -0.0171,-0.009 -0.02619,-0.01665 -0.03512,-0.02115 -0.0153,-0.0108 -0.02441,-0.01732 -0.03341,-0.02457 -0.0189,-0.0144 -0.03733,-0.02943 -0.05801,-0.04745 -0.04142,-0.03512 -0.0943,-0.083 -0.158198,-0.140648 -0.127777,-0.1161 -0.295445,-0.27193 -0.476345,-0.44473 -1.3698,-1.313098 -2.2275,-1.978254 -3.375,-2.622654 -0.1188,-0.06658 -0.228415,-0.129061 -0.307622,-0.172261 -0.03335,-0.018 -0.05663,-0.03139 -0.07738,-0.04219 0.0018,9e-4 0.01237,-9e-4 0.01237,0 -0.0018,-9e-4 -0.01237,-0.0027 -0.01237,-0.0036 -0.0081,-0.0027 -0.0068,-0.0052 -0.01575,-0.007 v 0.0018 c -0.0036,-0.0027 -0.01237,-0.0052 -0.01237,-0.007 0,0 -0.0018,-0.0018 -0.0018,-0.0018 -0.0081,-0.0036 -0.01733,-0.0079 -0.02815,-0.01238 -0.0225,-0.009 -0.05452,-0.0207 -0.09142,-0.0369 -0.07382,-0.0324 -0.17325,-0.07713 -0.28125,-0.124808 -0.468891,-0.207922 -0.784156,-0.323687 -1.263854,-0.464087 -0.710998,-0.2079 -1.782956,-0.392821 -2.510156,-0.432425 -0.0918,-0.0054 -0.177638,-0.01395 -0.247856,-0.02115 -0.03512,-0.0036 -0.06615,-0.0061 -0.09493,-0.01057 -0.0144,-0.0027 -0.02772,-0.0061 -0.04567,-0.01057 -0.018,-0.0045 -0.02824,0.0054 -0.100193,-0.0387 -0.1341,-0.0819 -0.124582,-0.149513 -0.133582,-0.182813 -0.0126,-0.03334 -0.01237,-0.05229 -0.01237,-0.07034 0,-0.03598 -9e-4,-0.06685 0,-0.101947 0.0018,-0.07015 0.0068,-0.155723 0.01575,-0.261911 0.0171,-0.2115 0.04653,-0.498612 0.08613,-0.824416 0.07925,-0.651605 0.19422,-1.461776 0.307629,-2.130478 0.517495,-3.056125 1.085497,-5.150439 2.058394,-7.574139 1.044,-2.600999 2.485926,-5.031675 4.382226,-7.396875 0,-9e-4 -9e-4,-0.0027 0,-0.0036 0.769505,-0.9342 1.621281,-1.913989 2.459181,-2.787889 0.0585,-0.06037 0.13959,-0.09414 0.22329,-0.09144 z"
       id="rect25"
       inkscape:label="#" />
  </g>
</svg>
