<?xml version="1.0" encoding="UTF-8" standalone="no"?>
<!-- Created with Inkscape (http://www.inkscape.org/) -->

<svg
   xmlns:dc="http://purl.org/dc/elements/1.1/"
   xmlns:cc="http://creativecommons.org/ns#"
   xmlns:rdf="http://www.w3.org/1999/02/22-rdf-syntax-ns#"
   xmlns:svg="http://www.w3.org/2000/svg"
   xmlns="http://www.w3.org/2000/svg"
   xmlns:sodipodi="http://sodipodi.sourceforge.net/DTD/sodipodi-0.dtd"
   xmlns:inkscape="http://www.inkscape.org/namespaces/inkscape"
   width="48"
   height="48"
   viewBox="0 0 48 48"
   version="1.1"
   id="svg8"
   inkscape:version="0.92+devel 15665 custom"
   sodipodi:docname="system-settings.svg">
  <defs
     id="defs2" />
  <sodipodi:namedview
     id="base"
     pagecolor="#002266"
     bordercolor="#ffffff"
     borderopacity="0.46666667"
     inkscape:pageopacity="0"
     inkscape:pageshadow="2"
     inkscape:zoom="12.859375"
     inkscape:cx="32"
     inkscape:cy="32"
     inkscape:document-units="px"
     inkscape:current-layer="svg8"
     inkscape:document-rotation="0"
     showgrid="false"
     inkscape:showpageshadow="false"
     borderlayer="true"
     units="px"
     fit-margin-top="0"
     fit-margin-left="0"
     fit-margin-right="0"
     fit-margin-bottom="0"
     inkscape:window-width="1920"
     inkscape:window-height="1051"
     inkscape:window-x="0"
     inkscape:window-y="0"
     inkscape:window-maximized="1"
     inkscape:snap-page="true"
     inkscape:snap-object-midpoints="true" />
  <metadata
     id="metadata5">
    <rdf:RDF>
      <cc:Work
         rdf:about="">
        <dc:format>image/svg+xml</dc:format>
        <dc:type
           rdf:resource="http://purl.org/dc/dcmitype/StillImage" />
        <dc:title></dc:title>
      </cc:Work>
    </rdf:RDF>
  </metadata>
  <g
     id="g4308"
     inkscape:label="system-settings"
     transform="scale(0.75)">
    <rect
       style="fill:none;stroke-width:0.51700002"
       id="rect4280"
       width="64"
       height="64"
       x="0"
       y="0"
       inkscape:label="boundary"
       sodipodi:insensitive="true" />
    <path
       inkscape:label="glyph"
       inkscape:connector-curvature="0"
       id="circle4269"
       d="M 32,6.4 A 5.7140654,5.7140654 0 0 0 26.285049,12.115007 5.7140654,5.7140654 0 0 0 32,17.827472 5.7140654,5.7140654 0 0 0 37.714951,12.115007 5.7140654,5.7140654 0 0 0 32,6.4 Z m 0,19.886294 A 5.7140654,5.7140654 0 0 0 26.285049,32.001238 5.7140654,5.7140654 0 0 0 32,37.713706 5.7140654,5.7140654 0 0 0 37.714951,32.001238 5.7140654,5.7140654 0 0 0 32,26.286294 Z m 0,19.886294 A 5.7140654,5.7140654 0 0 0 26.285049,51.887472 5.7140654,5.7140654 0 0 0 32,57.6 5.7140654,5.7140654 0 0 0 37.714951,51.887472 5.7140654,5.7140654 0 0 0 32,46.172588 Z"
       style="opacity:0.6;fill:#d0d0d0;stroke-width:2.52900195" />
  </g>
</svg>
