<?xml version="1.0" encoding="UTF-8" standalone="no"?>
<!-- Created with Inkscape (http://www.inkscape.org/) -->

<svg
   xmlns:dc="http://purl.org/dc/elements/1.1/"
   xmlns:cc="http://creativecommons.org/ns#"
   xmlns:rdf="http://www.w3.org/1999/02/22-rdf-syntax-ns#"
   xmlns:svg="http://www.w3.org/2000/svg"
   xmlns="http://www.w3.org/2000/svg"
   xmlns:sodipodi="http://sodipodi.sourceforge.net/DTD/sodipodi-0.dtd"
   xmlns:inkscape="http://www.inkscape.org/namespaces/inkscape"
   width="48"
   height="48"
   viewBox="0 0 48 48"
   version="1.1"
   id="svg8"
   inkscape:version="0.92+devel (4546dc857e, 2017-07-25, custom)"
   sodipodi:docname="systemsettings.svg">
  <defs
     id="defs2" />
  <sodipodi:namedview
     id="base"
     pagecolor="#002266"
     bordercolor="#ffffff"
     borderopacity="0.46666667"
     inkscape:pageopacity="0"
     inkscape:pageshadow="2"
     inkscape:zoom="12.859375"
     inkscape:cx="32"
     inkscape:cy="32"
     inkscape:document-units="px"
     inkscape:current-layer="g4308"
     inkscape:document-rotation="0"
     showgrid="false"
     inkscape:showpageshadow="false"
     borderlayer="true"
     units="px"
     fit-margin-top="0"
     fit-margin-left="0"
     fit-margin-right="0"
     fit-margin-bottom="0"
     inkscape:window-width="1920"
     inkscape:window-height="1051"
     inkscape:window-x="0"
     inkscape:window-y="0"
     inkscape:window-maximized="1"
     inkscape:snap-page="true"
     inkscape:snap-object-midpoints="true" />
  <metadata
     id="metadata5">
    <rdf:RDF>
      <cc:Work
         rdf:about="">
        <dc:format>image/svg+xml</dc:format>
        <dc:type
           rdf:resource="http://purl.org/dc/dcmitype/StillImage" />
        <dc:title />
      </cc:Work>
    </rdf:RDF>
  </metadata>
  <g
     id="g4308"
     inkscape:label="system-settings"
     transform="scale(0.75)">
    <rect
       style="fill:none;stroke-width:0.51700002"
       id="rect4280"
       width="64"
       height="64"
       x="0"
       y="0"
       inkscape:label="boundary"
       sodipodi:insensitive="true" />
    <path
       inkscape:label="#"
       id="path5737"
       d="M 26.645466,7.9999993 24.962371,15.444621 A 18.006791,18.006791 0 0 0 21.180707,17.62798 L 13.89295,15.364069 8.5384188,24.63593 14.143082,29.816639 A 18.006791,18.006791 0 0 0 13.994699,32 a 18.006791,18.006791 0 0 0 0.152622,2.17912 l -5.6089024,5.18495 5.3545304,9.271859 7.296237,-2.263909 a 18.006791,18.006791 0 0 0 3.777424,2.204557 l 1.678854,7.423424 h 10.709063 l 1.683095,-7.444622 a 18.006791,18.006791 0 0 0 3.781663,-2.183359 l 7.287759,2.263909 5.354531,-9.271859 -5.604665,-5.180711 A 18.006791,18.006791 0 0 0 50.005295,32 18.006791,18.006791 0 0 0 49.852677,29.82088 l 5.608904,-5.18495 -5.354531,-9.271861 -7.296237,2.263911 a 18.006791,18.006791 0 0 0 -3.77743,-2.204557 L 37.354529,7.9999993 Z M 31.999998,23.936406 A 8.0642553,8.0642553 0 0 1 40.063591,32 8.0642553,8.0642553 0 0 1 31.999998,40.063594 8.0642553,8.0642553 0 0 1 23.936404,32 8.0642553,8.0642553 0 0 1 31.999998,23.936406 Z"
       style="opacity:0.6;fill:#ffffff;stroke-width:0.90979505"
       inkscape:connector-curvature="0" />
  </g>
</svg>
