<?xml version="1.0" encoding="UTF-8" standalone="no"?>
<!-- Created with Inkscape (http://www.inkscape.org/) -->

<svg
   xmlns:dc="http://purl.org/dc/elements/1.1/"
   xmlns:cc="http://creativecommons.org/ns#"
   xmlns:rdf="http://www.w3.org/1999/02/22-rdf-syntax-ns#"
   xmlns:svg="http://www.w3.org/2000/svg"
   xmlns="http://www.w3.org/2000/svg"
   xmlns:sodipodi="http://sodipodi.sourceforge.net/DTD/sodipodi-0.dtd"
   xmlns:inkscape="http://www.inkscape.org/namespaces/inkscape"
   width="16"
   height="16"
   viewBox="0 0 4.2333332 4.2333332"
   version="1.1"
   id="svg8"
   inkscape:version="0.92+devel (f96dc7e339, 2017-07-28, custom)"
   sodipodi:docname="truecrypt.svg">
  <defs
     id="defs2" />
  <sodipodi:namedview
     id="base"
     pagecolor="#002466"
     bordercolor="#ffffff"
     borderopacity="0.38039216"
     inkscape:pageopacity="1"
     inkscape:pageshadow="2"
     inkscape:zoom="72.831998"
     inkscape:cx="10.094581"
     inkscape:cy="7.9162778"
     inkscape:document-units="px"
     inkscape:current-layer="g1408"
     inkscape:document-rotation="0"
     showgrid="false"
     inkscape:showpageshadow="false"
     borderlayer="true"
     inkscape:window-width="1920"
     inkscape:window-height="1051"
     inkscape:window-x="0"
     inkscape:window-y="0"
     inkscape:window-maximized="1"
     units="px"
     inkscape:snap-page="true"
     inkscape:snap-grids="false"
     inkscape:snap-to-guides="false" />
  <metadata
     id="metadata5">
    <rdf:RDF>
      <cc:Work
         rdf:about="">
        <dc:format>image/svg+xml</dc:format>
        <dc:type
           rdf:resource="http://purl.org/dc/dcmitype/StillImage" />
        <dc:title />
      </cc:Work>
    </rdf:RDF>
  </metadata>
  <g
     id="g1408"
     inkscape:label="#truecrypt">
    <rect
       inkscape:label="#boundary"
       y="0"
       x="0"
       height="4.2333331"
       width="4.2333331"
       id="rect1403"
       style="font-variation-settings:normal;vector-effect:none;fill:none;stroke-width:1.03187501;stroke-miterlimit:5.5" />
    <path
       style="fill:#ffb900;stroke-width:0.26458332"
       d="m 1.6713651,0.5550632 c -0.048339,0 -0.089949,0.0165679 -0.1240235,0.0506429 -0.034075,0.034273 -0.05116,0.0758824 -0.05116,0.12402343 0,0.04814 0.017086,0.089114 0.05116,0.1229899 0.010499,0.0106979 0.022022,0.0200575 0.034107,0.0273885 0.026547,0.0162449 0.056635,0.024288 0.089917,0.024288 0.048338,0 0.088914,-0.0174035 0.1229899,-0.0516764 0.034075,-0.033876 0.051676,-0.07485 0.051676,-0.12298989 0,-0.033283 -0.00804,-0.0630523 -0.024288,-0.0894002 C 1.8144135,0.6282443 1.805053,0.61640311 1.794355,0.60570612 1.76028,0.57163109 1.7197032,0.5550632 1.6713651,0.5550632 Z m 0.4464843,0 c -0.048338,0 -0.089432,0.0165679 -0.1235066,0.0506429 -0.034272,0.034273 -0.05116,0.0758824 -0.05116,0.12402343 0,0.04814 0.016888,0.089114 0.05116,0.1229899 0.010501,0.0106979 0.021504,0.0200575 0.03359,0.0273885 0.026545,0.0162449 0.056635,0.024288 0.089917,0.024288 0.048141,0 0.089234,-0.0174035 0.1235067,-0.0516764 0.034075,-0.033876 0.05116,-0.07485 0.05116,-0.12298992 0,-0.033283 -0.00825,-0.063372 -0.024288,-0.089917 -0.00733,-0.012085 -0.016373,-0.0234094 -0.026872,-0.0341064 -0.034273,-0.034075 -0.075366,-0.0506429 -0.1235071,-0.050643 z m 0.4470012,0 c -0.048538,0 -0.089751,0.0165679 -0.1240235,0.0506429 -0.034075,0.034273 -0.05116,0.0758824 -0.05116,0.12402343 0,0.04814 0.017085,0.089114 0.05116,0.1229899 0.010698,0.0106979 0.022022,0.0200575 0.034107,0.0273885 0.026547,0.0162449 0.056634,0.024288 0.089917,0.024288 0.04814,0 0.088915,-0.0174035 0.1229898,-0.0516764 0.034273,-0.033876 0.05116,-0.07485 0.05116,-0.12298989 0,-0.033283 -0.00804,-0.063372 -0.024289,-0.089917 -0.00733,-0.0120851 -0.016174,-0.0234095 -0.026872,-0.0341064 -0.034074,-0.034075 -0.07485,-0.0506429 -0.1229893,-0.050643 z M 1.2243639,1.0258355 c -0.048339,0 -0.089234,0.016887 -0.1235066,0.05116 -0.034075,0.034075 -0.05116,0.075367 -0.05116,0.1235066 0,0.048141 0.017085,0.089432 0.05116,0.1235067 0.010698,0.010698 0.022022,0.01954 0.034106,0.026872 0.026348,0.016046 0.056118,0.024288 0.0894,0.024288 0.04814,0 0.089431,-0.017085 0.1235067,-0.05116 0.034272,-0.034075 0.051676,-0.075366 0.051676,-0.1235066 0,-0.033281 -0.00836,-0.06337 -0.024805,-0.089917 -0.00733,-0.012084 -0.016373,-0.02309 -0.026872,-0.03359 -0.034075,-0.034272 -0.075367,-0.051159 -0.1235067,-0.05116 z m 1.7864542,0 c -0.048338,0 -0.089432,0.016887 -0.1235065,0.05116 -0.034274,0.034075 -0.050643,0.075367 -0.050643,0.1235066 0,0.048141 0.01637,0.089432 0.050643,0.1235067 0.010697,0.010698 0.022021,0.01954 0.034106,0.026872 0.026347,0.016046 0.056117,0.024288 0.0894,0.024288 0.048141,0 0.089233,-0.017085 0.1235067,-0.05116 0.034075,-0.034075 0.05116,-0.075366 0.05116,-0.1235066 0,-0.033281 -0.00804,-0.063173 -0.024289,-0.089917 -0.00733,-0.011887 -0.016373,-0.023091 -0.026871,-0.03359 -0.034274,-0.034273 -0.075365,-0.051159 -0.1235062,-0.05116 z m -1.339453,0.4707723 c -0.048339,0 -0.089949,0.016887 -0.1240235,0.05116 -0.034075,0.034075 -0.05116,0.075366 -0.05116,0.1235067 0,0.048339 0.017086,0.089234 0.05116,0.1235067 0.010499,0.0105 0.022022,0.020059 0.034107,0.027389 0.026547,0.016047 0.056635,0.023771 0.089917,0.023771 0.048338,0 0.088914,-0.017284 0.1229899,-0.05116 0.034075,-0.034273 0.051676,-0.075168 0.051676,-0.1235067 0,-0.033084 -0.00804,-0.062853 -0.024288,-0.0894 -0.00733,-0.012084 -0.01669,-0.023409 -0.027388,-0.034107 -0.034075,-0.034273 -0.074652,-0.05116 -0.1229904,-0.05116 z m 0.4464843,0 c -0.048338,0 -0.089432,0.016887 -0.1235066,0.05116 -0.034272,0.034075 -0.05116,0.075366 -0.05116,0.1235067 0,0.048339 0.016888,0.089234 0.05116,0.1235067 0.010501,0.0105 0.021504,0.020059 0.03359,0.027389 0.026545,0.016047 0.056635,0.023771 0.089917,0.023771 0.048141,0 0.089234,-0.017284 0.1235067,-0.05116 0.034075,-0.034273 0.05116,-0.075168 0.05116,-0.1235067 0,-0.033283 -0.00825,-0.062853 -0.024288,-0.0894 -0.00733,-0.012085 -0.016373,-0.023607 -0.026872,-0.034107 -0.034273,-0.034273 -0.075366,-0.051159 -0.1235071,-0.05116 z m 0.4470012,0 c -0.048538,0 -0.089751,0.016887 -0.1240235,0.05116 -0.034075,0.034075 -0.05116,0.075366 -0.05116,0.1235067 0,0.048339 0.017085,0.089234 0.05116,0.1235067 0.010698,0.0105 0.022022,0.020059 0.034107,0.027389 0.026547,0.016047 0.056634,0.023771 0.089917,0.023771 0.04814,0 0.088915,-0.017284 0.1229898,-0.05116 0.034273,-0.034273 0.05116,-0.075168 0.05116,-0.1235067 0,-0.033283 -0.00804,-0.062853 -0.024289,-0.0894 -0.00733,-0.012085 -0.016375,-0.023606 -0.026872,-0.034107 -0.034074,-0.034273 -0.074849,-0.051159 -0.1229893,-0.05116 z M 2.1178494,1.9673801 c -0.048338,0 -0.089432,0.017086 -0.1235066,0.05116 -0.034272,0.034075 -0.05116,0.075366 -0.05116,0.1235067 0,0.048338 0.016888,0.089949 0.05116,0.1240235 0.010501,0.010698 0.021504,0.019542 0.03359,0.026872 0.026545,0.016244 0.056635,0.024288 0.089917,0.024288 0.048141,0 0.089234,-0.017284 0.1235067,-0.05116 0.034075,-0.034075 0.05116,-0.075686 0.05116,-0.1240235 0,-0.033084 -0.00804,-0.062655 -0.024288,-0.0894 -0.00733,-0.012084 -0.016373,-0.023605 -0.026872,-0.034107 -0.034274,-0.034075 -0.075366,-0.051159 -0.1235071,-0.05116 z m 0,0.471289 c -0.048338,0 -0.089432,0.017284 -0.1235066,0.05116 -0.034272,0.034274 -0.05116,0.075168 -0.05116,0.1235067 0,0.04814 0.016888,0.089432 0.05116,0.1235066 0.010501,0.010499 0.021504,0.019542 0.03359,0.026872 0.026545,0.016245 0.056635,0.024289 0.089917,0.024289 0.048141,0 0.089234,-0.017084 0.1235067,-0.05116 0.034075,-0.034075 0.05116,-0.075367 0.05116,-0.1235066 0,-0.033283 -0.00825,-0.063371 -0.024288,-0.089917 -0.00733,-0.012085 -0.016372,-0.022893 -0.026872,-0.03359 -0.034274,-0.033876 -0.075366,-0.05116 -0.1235071,-0.051161 z m 0,0.4707723 c -0.048338,0 -0.089432,0.017283 -0.1235066,0.05116 -0.034272,0.034272 -0.05116,0.075169 -0.05116,0.1235067 0,0.048141 0.016888,0.089432 0.05116,0.1235067 0.010501,0.010501 0.021504,0.019542 0.03359,0.026872 0.026545,0.016243 0.056635,0.024289 0.089917,0.024289 0.048141,0 0.089234,-0.017084 0.1235067,-0.05116 0.034075,-0.034075 0.05116,-0.075366 0.05116,-0.1235067 0,-0.033282 -0.00825,-0.062852 -0.024288,-0.0894 -0.00733,-0.012086 -0.016372,-0.02341 -0.026872,-0.034107 -0.034274,-0.033879 -0.075366,-0.05116 -0.1235071,-0.051161 z M 1.6713651,3.3807305 c -0.048339,0 -0.089949,0.016767 -0.1240235,0.050643 -0.034075,0.034273 -0.05116,0.075366 -0.05116,0.1235067 0,0.048141 0.017086,0.089432 0.05116,0.1235067 0.010499,0.010499 0.022022,0.020058 0.034107,0.027389 0.026547,0.016243 0.056635,0.024289 0.089917,0.024289 0.048338,0 0.088914,-0.017603 0.1229899,-0.051677 0.034075,-0.034075 0.051676,-0.075366 0.051676,-0.1235067 0,-0.033084 -0.00804,-0.062656 -0.024288,-0.0894 -0.00733,-0.012086 -0.01669,-0.02341 -0.027388,-0.034107 C 1.76028,3.3974974 1.7197031,3.3807305 1.6713651,3.3807305 Z m 0.4464843,0 c -0.048338,0 -0.089432,0.016767 -0.1235066,0.050643 -0.034272,0.034273 -0.05116,0.075366 -0.05116,0.1235067 0,0.048141 0.016888,0.089432 0.05116,0.1235067 0.010501,0.010499 0.021504,0.020058 0.03359,0.027389 0.026545,0.016243 0.056635,0.024289 0.089917,0.024289 0.048141,0 0.089234,-0.017603 0.1235067,-0.051677 0.034075,-0.034075 0.05116,-0.075366 0.05116,-0.1235067 0,-0.033282 -0.00825,-0.062854 -0.024288,-0.0894 -0.00733,-0.012086 -0.016372,-0.02341 -0.026872,-0.034107 -0.034273,-0.033877 -0.075365,-0.050644 -0.1235071,-0.050644 z"
       id="path839"
       inkscape:connector-curvature="0"
       inkscape:label="#" />
    <path
       inkscape:label="#"
       style="opacity:0.3;fill:#d0d0d0;stroke-width:0.26458332"
       d="m 1.670106,1.0000621 c -0.048339,0 -0.089632,0.016832 -0.1237069,0.051105 -0.034075,0.034075 -0.051105,0.075364 -0.051105,0.1235034 0,0.048141 0.017031,0.08943 0.051105,0.1235045 0.010698,0.010698 0.021985,0.019642 0.03407,0.026971 0.026546,0.016246 0.056552,0.024336 0.089636,0.024336 0.048338,0 0.089225,-0.017233 0.123301,-0.051308 0.034075,-0.034075 0.05151,-0.075364 0.05151,-0.1235045 0,-0.033281 -0.0081,-0.06309 -0.024539,-0.089636 -0.00733,-0.012083 -0.016272,-0.023366 -0.02697,-0.033866 -0.034075,-0.034273 -0.074963,-0.051105 -0.1233011,-0.051105 z m 0.4467628,0 c -0.048338,0 -0.089632,0.016832 -0.123707,0.051105 -0.034272,0.034075 -0.051104,0.075364 -0.051104,0.1235034 0,0.048141 0.016832,0.08943 0.051104,0.1235045 0.010501,0.010698 0.021783,0.019642 0.033868,0.026971 0.026545,0.016246 0.056557,0.024336 0.089839,0.024336 0.048141,0 0.089028,-0.017233 0.123301,-0.051308 0.034075,-0.034075 0.051105,-0.075364 0.051105,-0.1235045 0,-0.033281 -0.00809,-0.06309 -0.024336,-0.089636 -0.00733,-0.012083 -0.01627,-0.023366 -0.026769,-0.033866 -0.034273,-0.034273 -0.07516,-0.051105 -0.123301,-0.051105 z m 0.4467637,0 c -0.048538,0 -0.089637,0.016832 -0.1239093,0.051105 -0.034075,0.034075 -0.051105,0.075364 -0.051105,0.1235034 0,0.048141 0.01703,0.08943 0.051105,0.1235045 0.010698,0.010698 0.022188,0.019844 0.034272,0.027176 0.026348,0.016046 0.056355,0.024133 0.089637,0.024133 0.04814,0 0.089023,-0.017233 0.1230974,-0.051308 0.034273,-0.034075 0.051307,-0.075364 0.051307,-0.1235044 0,-0.033281 -0.0081,-0.063094 -0.024538,-0.089839 -0.00733,-0.011887 -0.01627,-0.023165 -0.026769,-0.033664 C 2.6526553,1.0168951 2.611772,1.0000629 2.5636325,1.0000621 Z M 0.77678204,1.4709586 c -0.0483382,0 -0.0894288,0.016832 -0.12350346,0.051105 -0.0342735,0.034075 -0.0513075,0.075363 -0.0513075,0.1235035 0,0.048339 0.0170347,0.089434 0.0513075,0.123707 0.0105,0.0105 0.0219855,0.019642 0.0340695,0.026971 0.026349,0.016047 0.0561517,0.024133 0.089434,0.024133 0.0483383,0 0.0892315,-0.017228 0.12350346,-0.051104 0.0340755,-0.034273 0.0513075,-0.075368 0.0513075,-0.123707 0,-0.033283 -0.008089,-0.063089 -0.0243352,-0.089636 -0.007327,-0.012085 -0.0164715,-0.023367 -0.0269722,-0.033867 -0.034272,-0.034273 -0.0751654,-0.051105 -0.1235036,-0.051106 z m 0.44676376,0 c -0.048339,0 -0.089637,0.016832 -0.1239094,0.051105 -0.034075,0.034075 -0.050903,0.075363 -0.050903,0.1235035 0,0.048339 0.016828,0.089434 0.050903,0.123707 0.010698,0.0105 0.021984,0.019642 0.034069,0.026971 0.026547,0.016047 0.056558,0.024133 0.08984,0.024133 0.04814,0 0.089225,-0.017228 0.1233009,-0.051104 0.034272,-0.034273 0.05151,-0.075368 0.05151,-0.123707 0,-0.033283 -0.0083,-0.063089 -0.024538,-0.089636 -0.00733,-0.012085 -0.016274,-0.023367 -0.026972,-0.033867 -0.034075,-0.034273 -0.075161,-0.051105 -0.1233005,-0.051106 z m 1.7864435,0 c -0.048338,0 -0.089429,0.016832 -0.1235034,0.051105 -0.034274,0.034075 -0.051105,0.075363 -0.051105,0.1235035 0,0.048339 0.016832,0.089434 0.051105,0.123707 0.0105,0.0105 0.021985,0.019642 0.034071,0.026971 0.026348,0.016047 0.05615,0.024133 0.089433,0.024133 0.048141,0 0.089231,-0.017228 0.1235045,-0.051104 0.034075,-0.034273 0.051104,-0.075368 0.051104,-0.123707 0,-0.033283 -0.00809,-0.063089 -0.024335,-0.089636 -0.00733,-0.012085 -0.01627,-0.023367 -0.02677,-0.033867 -0.034274,-0.034273 -0.075364,-0.051105 -0.1235041,-0.051106 z m 0.4467638,0 c -0.048536,0 -0.089434,0.016832 -0.123707,0.051105 -0.034075,0.034075 -0.050902,0.075363 -0.050902,0.1235035 0,0.048339 0.016827,0.089434 0.050902,0.123707 0.010698,0.0105 0.021985,0.019642 0.034071,0.026971 0.026545,0.016047 0.056354,0.024133 0.089636,0.024133 0.04814,0 0.089226,-0.017228 0.1233009,-0.051104 0.034273,-0.034273 0.051308,-0.075368 0.051308,-0.123707 0,-0.033283 -0.00809,-0.063089 -0.024336,-0.089636 C 3.599696,1.5438461 3.590553,1.5325641 3.580054,1.5220641 3.545979,1.4877911 3.504893,1.4709591 3.4567531,1.4709586 Z M 0.77678204,1.9418551 c -0.0483382,0 -0.0894288,0.01703 -0.12350346,0.051104 -0.0342735,0.034075 -0.0513075,0.075364 -0.0513075,0.1235045 0,0.048338 0.0170347,0.089631 0.0513075,0.1237059 0.010698,0.010698 0.0219855,0.019846 0.0340695,0.027175 0.026349,0.016047 0.0561517,0.024133 0.089434,0.024133 0.0483383,0 0.0892315,-0.017431 0.12350346,-0.051307 0.0340755,-0.034075 0.0513075,-0.075368 0.0513075,-0.1237059 0,-0.033084 -0.008089,-0.062892 -0.0243352,-0.089638 -0.007327,-0.012085 -0.0164715,-0.023367 -0.0269722,-0.033868 -0.034272,-0.034075 -0.0751654,-0.051104 -0.1235036,-0.051103 z m 0.44676376,0 c -0.048339,0 -0.089637,0.01703 -0.1239094,0.051104 -0.034075,0.034075 -0.050903,0.075364 -0.050903,0.1235045 0,0.048338 0.016828,0.089631 0.050903,0.1237059 0.010698,0.010698 0.022188,0.019846 0.034272,0.027175 0.026348,0.016047 0.056355,0.024133 0.089637,0.024133 0.04814,0 0.089225,-0.017431 0.1233009,-0.051307 0.034272,-0.034075 0.05151,-0.075368 0.05151,-0.1237059 0,-0.033084 -0.0083,-0.062892 -0.024741,-0.089638 -0.00733,-0.012085 -0.01627,-0.023367 -0.026769,-0.033868 -0.034075,-0.034075 -0.075161,-0.051104 -0.1233005,-0.051103 z m 0.4465602,0 c -0.048339,0 -0.089632,0.01703 -0.1237069,0.051104 -0.034075,0.034075 -0.051105,0.075364 -0.051105,0.1235045 0,0.048338 0.017031,0.089631 0.051105,0.1237059 0.010698,0.010698 0.021985,0.019642 0.03407,0.026972 0.026546,0.016244 0.056552,0.024335 0.089636,0.024335 0.048338,0 0.089225,-0.017431 0.123301,-0.051307 0.034075,-0.034075 0.05151,-0.075368 0.05151,-0.123706 0,-0.033084 -0.00809,-0.062887 -0.024335,-0.089434 -0.00733,-0.012085 -0.016477,-0.023373 -0.027176,-0.03407 -0.034075,-0.034075 -0.074963,-0.051104 -0.1233009,-0.051104 z m 0.8935265,0 c -0.048538,0 -0.089637,0.01703 -0.1239093,0.051104 -0.034075,0.034075 -0.051105,0.075364 -0.051105,0.1235045 0,0.048338 0.01703,0.089631 0.051105,0.1237059 0.010698,0.010698 0.022188,0.019846 0.034272,0.027175 0.026348,0.016047 0.056355,0.024133 0.089637,0.024133 0.04814,0 0.089023,-0.017431 0.1230974,-0.051307 0.034273,-0.034075 0.051307,-0.075368 0.051307,-0.1237059 0,-0.033282 -0.0081,-0.063091 -0.024538,-0.089638 -0.00733,-0.012085 -0.01627,-0.023367 -0.026769,-0.033868 -0.034075,-0.034075 -0.074958,-0.051104 -0.1230971,-0.051103 z m 0.4463568,0 c -0.048338,0 -0.089429,0.01703 -0.1235034,0.051104 -0.034274,0.034075 -0.051105,0.075364 -0.051105,0.1235045 0,0.048338 0.016832,0.089631 0.051105,0.1237059 0.010698,0.010698 0.021985,0.019846 0.034071,0.027175 0.026348,0.016047 0.05615,0.024133 0.089433,0.024133 0.048141,0 0.089231,-0.017431 0.1235045,-0.051307 0.034075,-0.034075 0.051104,-0.075368 0.051104,-0.1237059 0,-0.033282 -0.00809,-0.063091 -0.024335,-0.089638 -0.00733,-0.012085 -0.01627,-0.023367 -0.02677,-0.033868 -0.034273,-0.034075 -0.075364,-0.051104 -0.1235041,-0.051103 z m 0.4467638,0 c -0.048536,0 -0.089434,0.01703 -0.123707,0.051104 -0.034075,0.034075 -0.050902,0.075364 -0.050902,0.1235045 0,0.048338 0.016827,0.089631 0.050902,0.1237059 0.010698,0.010698 0.022188,0.019846 0.034273,0.027175 0.026348,0.016047 0.056152,0.024133 0.089434,0.024133 0.04814,0 0.089226,-0.017431 0.123301,-0.051307 0.034274,-0.034075 0.051308,-0.075368 0.051308,-0.1237059 0,-0.033282 -0.0081,-0.063091 -0.024538,-0.089638 -0.00733,-0.012085 -0.016271,-0.023367 -0.02677,-0.033868 -0.034075,-0.034074 -0.075161,-0.051103 -0.123301,-0.051103 z M 0.77678204,2.4127506 c -0.0483382,0 -0.0894288,0.017229 -0.12350346,0.051105 -0.0342735,0.034274 -0.0513075,0.075368 -0.0513075,0.1237069 0,0.04814 0.0170347,0.089429 0.0513075,0.1235035 0.0105,0.010698 0.0219855,0.019844 0.0340695,0.027175 0.026349,0.016046 0.0561517,0.024133 0.089434,0.024133 0.0483383,0 0.0892315,-0.017233 0.12350346,-0.051308 0.0340755,-0.034075 0.0513075,-0.075364 0.0513075,-0.1235035 0,-0.033283 -0.008089,-0.063091 -0.0243352,-0.089637 -0.007327,-0.012085 -0.0164715,-0.023372 -0.0269722,-0.03407 -0.034272,-0.033876 -0.0751654,-0.051105 -0.1235036,-0.051105 z m 0.44676376,0 c -0.048339,0 -0.089637,0.017229 -0.1239094,0.051105 -0.034075,0.034274 -0.050903,0.075368 -0.050903,0.1237069 0,0.04814 0.016828,0.089429 0.050903,0.1235035 0.010698,0.010698 0.021984,0.019844 0.034069,0.027175 0.026547,0.016046 0.056558,0.024133 0.08984,0.024133 0.04814,0 0.089225,-0.017233 0.1233009,-0.051308 0.034272,-0.034075 0.05151,-0.075364 0.05151,-0.1235035 0,-0.033283 -0.0083,-0.063091 -0.024538,-0.089637 -0.00733,-0.012084 -0.016274,-0.023372 -0.026972,-0.03407 -0.034075,-0.033877 -0.075161,-0.051106 -0.1233005,-0.051105 z m 0.4465602,0 c -0.048339,0 -0.089632,0.017229 -0.1237069,0.051105 -0.034075,0.034274 -0.051105,0.075368 -0.051105,0.1237069 0,0.04814 0.017031,0.089429 0.051105,0.1235035 0.010499,0.0105 0.021783,0.019642 0.033867,0.026971 0.026547,0.016246 0.056558,0.024336 0.08984,0.024336 0.048338,0 0.089225,-0.017233 0.123301,-0.051308 0.034075,-0.034075 0.05151,-0.075364 0.05151,-0.1235035 0,-0.033084 -0.00809,-0.062892 -0.024335,-0.089637 -0.00733,-0.012084 -0.016477,-0.023372 -0.027175,-0.03407 -0.034075,-0.033876 -0.074963,-0.051105 -0.123301,-0.051105 z m 0.8935265,0 c -0.048538,0 -0.089637,0.017229 -0.1239093,0.051105 -0.034075,0.034274 -0.051105,0.075368 -0.051105,0.1237069 0,0.04814 0.01703,0.089429 0.051105,0.1235035 0.010698,0.010698 0.021985,0.019844 0.03407,0.027175 0.026547,0.016046 0.056557,0.024133 0.08984,0.024133 0.04814,0 0.089023,-0.017233 0.1230975,-0.051308 0.034273,-0.034075 0.051307,-0.075364 0.051307,-0.1235035 0,-0.033283 -0.00809,-0.063095 -0.024335,-0.08984 -0.00733,-0.011887 -0.016473,-0.023169 -0.026972,-0.033867 -0.034075,-0.033877 -0.074958,-0.051106 -0.1230982,-0.051105 z m 0.4463568,0 c -0.048338,0 -0.089429,0.017229 -0.1235034,0.051105 -0.034274,0.034274 -0.051105,0.075368 -0.051105,0.1237069 0,0.04814 0.016832,0.089429 0.051105,0.1235035 0.0105,0.010698 0.021985,0.019844 0.034071,0.027175 0.026348,0.016046 0.05615,0.024133 0.089433,0.024133 0.048141,0 0.089231,-0.017233 0.1235045,-0.051308 0.034075,-0.034075 0.051104,-0.075364 0.051104,-0.1235035 0,-0.033283 -0.00809,-0.063095 -0.024335,-0.08984 -0.00733,-0.011887 -0.016269,-0.023169 -0.026769,-0.033867 -0.034273,-0.033877 -0.075364,-0.051106 -0.1235048,-0.051106 z m 0.4467638,0 c -0.048536,0 -0.089434,0.017229 -0.123707,0.051105 -0.034075,0.034274 -0.050902,0.075368 -0.050902,0.1237069 0,0.04814 0.016827,0.089429 0.050902,0.1235035 0.010698,0.010698 0.021985,0.019844 0.034071,0.027175 0.026545,0.016046 0.056354,0.024133 0.089636,0.024133 0.04814,0 0.089226,-0.017233 0.1233009,-0.051308 0.034273,-0.034075 0.051308,-0.075364 0.051308,-0.1235035 0,-0.033283 -0.00809,-0.063095 -0.024336,-0.08984 C 3.599696,2.4858355 3.590554,2.4745535 3.580054,2.4638555 3.545979,2.4299785 3.504893,2.4127495 3.4567529,2.4127495 Z m -2.2332073,0.471099 c -0.048339,0 -0.089637,0.017026 -0.1239094,0.050903 -0.034075,0.034272 -0.050903,0.075368 -0.050903,0.1237058 0,0.048141 0.016828,0.089429 0.050903,0.1235035 0.010698,0.010698 0.021984,0.019846 0.034069,0.027175 0.026547,0.016047 0.056558,0.024134 0.08984,0.024134 0.04814,0 0.089225,-0.017233 0.1233009,-0.051309 0.034272,-0.034075 0.05151,-0.075363 0.05151,-0.1235034 0,-0.033282 -0.0083,-0.063089 -0.024538,-0.089637 -0.00733,-0.012085 -0.016274,-0.023372 -0.026972,-0.03407 -0.034075,-0.033878 -0.075161,-0.050903 -0.1233005,-0.050902 z m 0.4465602,0 c -0.048339,0 -0.089632,0.017026 -0.1237069,0.050903 -0.034075,0.034272 -0.051105,0.075368 -0.051105,0.1237058 0,0.048141 0.017031,0.089429 0.051105,0.1235035 0.010499,0.010501 0.021783,0.019643 0.033867,0.026972 0.026547,0.016244 0.056558,0.024336 0.08984,0.024336 0.048338,0 0.089225,-0.017233 0.123301,-0.051309 0.034075,-0.034075 0.05151,-0.075363 0.05151,-0.1235034 0,-0.033084 -0.00809,-0.062891 -0.024335,-0.089637 -0.00733,-0.012085 -0.016477,-0.023372 -0.027175,-0.034069 -0.034075,-0.033878 -0.074963,-0.050903 -0.1233011,-0.050902 z m 0.8935265,0 c -0.048538,0 -0.089637,0.017026 -0.1239093,0.050903 -0.034075,0.034272 -0.051105,0.075368 -0.051105,0.1237058 0,0.048141 0.01703,0.089429 0.051105,0.1235035 0.010698,0.010698 0.021985,0.019846 0.03407,0.027175 0.026547,0.016047 0.056557,0.024134 0.08984,0.024134 0.04814,0 0.089023,-0.017233 0.1230975,-0.051309 0.034273,-0.034075 0.051307,-0.075363 0.051307,-0.1235034 0,-0.033282 -0.00809,-0.063095 -0.024335,-0.089839 -0.00733,-0.011887 -0.016473,-0.023169 -0.026972,-0.033867 -0.034075,-0.033879 -0.074959,-0.050904 -0.1230982,-0.050904 z m 0.4463568,0 c -0.048338,0 -0.089429,0.017026 -0.1235034,0.050903 -0.034274,0.034272 -0.051105,0.075368 -0.051105,0.1237058 0,0.048141 0.016832,0.089429 0.051105,0.1235035 0.0105,0.010698 0.021985,0.019846 0.034071,0.027175 0.026348,0.016047 0.05615,0.024134 0.089433,0.024134 0.048141,0 0.089231,-0.017233 0.1235045,-0.051309 0.034075,-0.034075 0.051104,-0.075363 0.051104,-0.1235034 0,-0.033282 -0.00809,-0.063095 -0.024335,-0.089839 -0.00733,-0.011887 -0.016269,-0.023169 -0.026769,-0.033867 -0.034274,-0.033879 -0.075364,-0.050904 -0.123505,-0.050904 z M 2.5636325,3.3547461 c -0.048538,0 -0.089637,0.017026 -0.1239093,0.050902 -0.034075,0.034273 -0.051105,0.075566 -0.051105,0.1237069 0,0.048141 0.01703,0.089429 0.051105,0.1235036 0.010698,0.010698 0.021985,0.019844 0.03407,0.027175 0.026547,0.016047 0.056557,0.024133 0.08984,0.024133 0.04814,0 0.089023,-0.017233 0.1230975,-0.051307 0.034273,-0.034075 0.051307,-0.075363 0.051307,-0.1235036 0,-0.033282 -0.00809,-0.063094 -0.024335,-0.08984 C 2.7063748,3.4276288 2.6972285,3.4163451 2.68673,3.4056471 2.6526553,3.3717711 2.611772,3.3547453 2.5636325,3.3547461 Z"
       fill="#64a2f1"
       id="path18"
       inkscape:connector-curvature="0" />
  </g>
</svg>
