<?xml version="1.0" encoding="UTF-8" standalone="no"?>
<!-- Created with Inkscape (http://www.inkscape.org/) -->

<svg
   xmlns:dc="http://purl.org/dc/elements/1.1/"
   xmlns:cc="http://creativecommons.org/ns#"
   xmlns:rdf="http://www.w3.org/1999/02/22-rdf-syntax-ns#"
   xmlns:svg="http://www.w3.org/2000/svg"
   xmlns="http://www.w3.org/2000/svg"
   xmlns:xlink="http://www.w3.org/1999/xlink"
   xmlns:sodipodi="http://sodipodi.sourceforge.net/DTD/sodipodi-0.dtd"
   xmlns:inkscape="http://www.inkscape.org/namespaces/inkscape"
   width="48.149998"
   height="48"
   viewBox="0 0 48.149998 48"
   version="1.1"
   id="svg8"
   inkscape:version="0.92+devel (b8837397f6, 2017-07-27, custom)"
   sodipodi:docname="wayland.svg">
  <defs
     id="ol-defs">
    <style
       id="current-color-scheme">      .ColorScheme-Text {
        color:#d0d0d0;
        stop-color:#d0d0d0;
      }
      .ColorScheme-Background {
        color:#212121;
        stop-color:#212121;
      }
      .ColorScheme-Highlight {
        color:#0039a9;
        stop-color:#0039a9;
      }
      .ColorScheme-ViewText {
        color:#d0d0d0;
        stop-color:#d0d0d0;
      }
      .ColorScheme-ViewBackground {
        color:#19191b;
        stop-color:#19191b;
      }
      .ColorScheme-ViewHover {
        color:#005cc7;
        stop-color:#005cc7;
      }
      .ColorScheme-ViewFocus{
        color:#002466;
        stop-color:#002466;
      }
      .ColorScheme-ButtonText {
        color:#d0d0d0;
        stop-color:#d0d0d0;
      }
      .ColorScheme-ButtonBackground {
        color:#232323;
        stop-color:#232323;                             
      }                                                 
      .ColorScheme-ButtonHover {                        
        color:#005cc7;                                  
        stop-color:#005cc7;                             
      }                                                 
      .ColorScheme-ButtonFocus{                         
        color:#0039a9;                                  
        stop-color:#0039a9;                             
      }</style>
    <linearGradient
       gradientUnits="userSpaceOnUse"
       y2="523.79797"
       x2="428.57101"
       y1="523.79797"
       x1="388.57101"
       id="linearGradient4205"
       xlink:href="#d"
       gradientTransform="matrix(0.10583333,0,0,0.10583333,-42.4491,-50.220678)" />
    <linearGradient
       id="d"
       y1="537.59998"
       x1="400.57001"
       y2="546.58002"
       x2="392.89999"
       gradientUnits="userSpaceOnUse"
       gradientTransform="matrix(1.25,0,0,1.26667,-92.14,-151.08)">
      <stop
         id="stop3"
         stop-color="#ffc35a" />
      <stop
         id="stop5"
         offset="1"
         stop-color="#faae2a" />
    </linearGradient>
  </defs>
  <sodipodi:namedview
     id="base"
     pagecolor="#002266"
     bordercolor="#ffffff"
     borderopacity="0.46666667"
     inkscape:pageopacity="0"
     inkscape:pageshadow="2"
     inkscape:zoom="17.145833"
     inkscape:cx="24.074999"
     inkscape:cy="23.970838"
     inkscape:document-units="px"
     inkscape:current-layer="g851"
     inkscape:document-rotation="0"
     showgrid="false"
     inkscape:showpageshadow="false"
     borderlayer="true"
     units="px"
     fit-margin-top="0"
     fit-margin-left="0"
     fit-margin-right="0"
     fit-margin-bottom="0"
     inkscape:window-width="1920"
     inkscape:window-height="1051"
     inkscape:window-x="0"
     inkscape:window-y="0"
     inkscape:window-maximized="1"
     inkscape:snap-page="true" />
  <metadata
     id="metadata5">
    <rdf:RDF>
      <cc:Work
         rdf:about="">
        <dc:format>image/svg+xml</dc:format>
        <dc:type
           rdf:resource="http://purl.org/dc/dcmitype/StillImage" />
        <dc:title></dc:title>
      </cc:Work>
    </rdf:RDF>
  </metadata>
  <g
     id="g851"
     inkscape:label="#wayland">
    <rect
       inkscape:label="#boundary"
       y="0"
       x="0"
       height="48"
       width="48.149998"
       id="rect4264"
       style="fill:none;fill-opacity:0.74651441;stroke-width:23.61599922;stroke-opacity:0.3596773" />
    <path
       inkscape:label="#"
       inkscape:connector-curvature="0"
       style="opacity:0.6;fill:#d0d0d0;fill-opacity:1;stroke-width:2.79999971;stroke-opacity:0.55026502"
       d="m 24.074999,6 c -9.972,0 -18.0000001,8.028 -18.0000001,18 0,9.972 8.0280001,18 18.0000001,18 9.972001,0 18,-8.028 18,-18 0,-5.096626 -2.106047,-9.675767 -5.487891,-12.944531 l -0.474613,4.025389 h 0.182812 l 0.391991,-0.312891 h 0.105457 v 0.09317 c -0.540814,0.395257 -1.063822,1.476797 -1.569712,3.244919 -0.191925,1.518551 -0.514982,2.923787 -0.968555,4.213478 -0.401265,1.331316 -0.601198,2.557568 -0.601171,3.680858 l -0.759375,2.216601 c -1.6e-5,0.187223 0.287356,0.373545 0.863086,0.56074 -0.104692,0.43684 -0.261758,0.655664 -0.471091,0.655664 v 0.124808 h 0.182812 v 0.09317 c -1.8e-5,0.228823 -0.296336,0.344545 -0.889454,0.344527 l 0.105458,0.124807 v 0.435938 H 32.50194 c 0.122085,0.436855 0.382721,0.655677 0.783988,0.655661 v 0.21798 H 32.50194 v 0.124808 c 0.261659,0 0.391973,0.188077 0.391991,0.562502 l -1.098635,0.435937 0.103703,0.124808 v 0.09317 c -2.7e-5,0.14562 -0.13032,0.219713 -0.391988,0.219713 v 0.124807 c 0.331431,0 0.49743,0.07245 0.497463,0.21798 -0.471051,0.187223 -1.090411,1.113217 -1.858012,2.777344 -0.785049,1.476929 -1.465125,2.214844 -2.040821,2.214844 h -0.210915 c -0.436161,-0.33287 -0.793161,-1.436092 -1.072267,-3.308236 -1.116542,-2.849823 -1.675206,-4.522822 -1.675197,-5.02207 -9e-6,-1.289691 -0.357017,-2.664184 -1.072265,-4.120312 -0.191902,-0.644823 -0.322224,-1.455107 -0.391992,-2.432813 l -0.471094,-0.124807 c -1.186308,2.142594 -1.805699,3.817343 -1.858007,5.023829 -0.331493,0.707272 -0.593847,1.559138 -0.785748,2.557616 0.715257,0.228834 1.074015,0.447657 1.074024,0.655663 v 0.124808 c -0.558256,-0.08325 -0.950967,-0.238752 -1.177731,-0.467584 -0.244242,0.561649 -0.567324,2.120686 -0.968555,4.679296 -0.314028,1.185705 -0.706718,1.778906 -1.177733,1.778906 -1.325862,-0.520049 -2.434311,-1.371922 -3.324024,-2.557618 -0.139568,0 -0.366264,-0.593208 -0.680272,-1.778906 -0.191902,0 -0.322216,-0.593208 -0.391993,-1.778906 -0.662922,-1.684925 -1.116313,-3.609253 -1.360545,-5.772646 V 22.5375 h -0.105458 l -0.471094,0.124808 V 22.5375 c 0,-0.14562 0.157073,-0.217957 0.471094,-0.21798 L 12.352167,20.447455 V 18.981438 L 11.592792,14.300385 V 12.30351 c 0.33147,-1.248068 0.907985,-1.872045 1.72793,-1.872072 0,0 0.07175,-0.0054 0.312889,0.311135 l -0.312889,-0.09315 c 1.273507,1.664163 2.023198,3.067638 2.249998,4.211718 h 0.889454 v 0.219713 h -0.680272 v 0.249608 c 0.261682,0.956894 0.452689,1.434388 0.574805,1.434371 h 0.210938 l 0.469332,-0.124808 0.105457,0.124808 0.105458,-0.124808 0.103725,0.124808 v 0.09315 c -0.34891,0.249632 -0.584519,0.593244 -0.706644,1.030081 h -0.07738 v 0.21798 h 0.182813 c 0.244233,3.473901 0.697612,6.105395 1.360545,7.894337 l 0.391991,0.312891 h 0.209182 c 0.261682,9e-6 0.811436,-1.217153 1.648823,-3.650978 0.540866,-1.102473 0.933539,-2.070081 1.17779,-2.902149 l -0.105458,-0.342774 c 0.540803,-0.811242 1.099494,-1.216379 1.675197,-1.216406 h 0.182813 c 0.366349,2.7e-5 0.628719,0.227941 0.785738,0.685546 0.488466,0.686479 0.881156,1.717337 1.177733,3.090233 l 1.466014,3.244925 c 0.19188,0.228841 0.286507,0.487496 0.286525,0.778714 0.540798,1.227321 1.029865,2.039335 1.466014,2.43457 h 0.314645 c 0.366342,0 0.853645,-1.519173 1.464259,-4.55625 0.104647,1.8e-5 0.393791,-0.810273 0.864842,-2.432813 v -0.124807 l -1.648823,-0.21798 -0.39375,0.124807 h -0.495733 v -0.249611 l 0.993163,-0.09493 h 1.93711 c 0.750133,-2.683413 1.439123,-4.763279 2.067186,-6.240233 0.209317,-3.037014 0.496698,-4.554457 0.863086,-4.554493 L 35.09824,9.772261 C 32.054796,7.414656 28.239965,6 24.074999,6 Z m 1.569727,6.210351 h 0.288283 v 0.09317 c -1.8e-5,0.145643 -0.09639,0.21798 -0.288283,0.21798 l -0.103725,0.124808 v 0.124807 l -0.288284,-0.124807 v -0.21798 z m -1.464258,1.216406 v 0.124808 c -9e-6,0.166455 -0.419449,0.343669 -1.256836,0.530858 v -0.219735 l 0.576567,-0.311132 0.103725,0.09317 h 0.07909 z M 21.353906,14.55 v 0.09317 c -0.366377,0.332852 -0.96073,0.634869 -1.780664,0.90527 v -0.21798 c 0.139568,1.8e-5 0.210938,-0.115695 0.210938,-0.344527 z m 4.971093,1.091601 0.105458,0.124807 v 0.09317 l -0.182812,0.249608 h -0.10548 l -0.209183,-0.249608 v -0.09317 z m 3.612304,0.124807 h 0.103725 v 0.09317 l -0.182813,0.249608 h -0.105457 v -0.124804 z m -1.648828,1.56094 0.391991,0.311132 c -0.06973,0.228832 -0.2608,0.342795 -0.574808,0.342777 l -0.209182,-0.342768 c -1.8e-5,-0.103995 0.130297,-0.207112 0.391999,-0.311141 z m 2.355469,1.434375 0.07738,0.124808 v 0.09315 l -0.07738,0.124807 h -0.209182 v -0.124807 z m -3.716017,1.123243 v 0.09315 l -0.497463,0.469339 H 26.14218 v -0.124808 c -1.8e-5,-0.1872 0.262355,-0.333661 0.785738,-0.437697 z m -3.427733,9.548437 h 0.103703 v 0.21798 l -0.785748,0.46758 -0.103702,-0.124808 v -0.21798 z m -0.288283,2.902149 h 0.07731 l 0.314646,0.342768 -0.103725,0.09317 H 23.39473 l -0.182813,-0.311134 z"
       id="rect20" />
  </g>
</svg>
