<?xml version="1.0" encoding="UTF-8" standalone="no"?>
<svg
   xmlns:dc="http://purl.org/dc/elements/1.1/"
   xmlns:cc="http://creativecommons.org/ns#"
   xmlns:rdf="http://www.w3.org/1999/02/22-rdf-syntax-ns#"
   xmlns:svg="http://www.w3.org/2000/svg"
   xmlns="http://www.w3.org/2000/svg"
   xmlns:sodipodi="http://sodipodi.sourceforge.net/DTD/sodipodi-0.dtd"
   xmlns:inkscape="http://www.inkscape.org/namespaces/inkscape"
   height="16"
   viewBox="0 0 16 16"
   width="16"
   version="1.1"
   id="svg14"
   sodipodi:docname="draw-ellipse-arc.svg"
   inkscape:version="0.92+devel (262af300f2, 2017-08-19, custom)">
  <defs
     id="defs16" />
  <sodipodi:namedview
     id="namedview2"
     inkscape:document-rotation="0"
     showgrid="false"
     pagecolor="#002466"
     inkscape:pageopacity="0"
     inkscape:showpageshadow="false"
     borderlayer="true"
     bordercolor="#ffffff"
     borderopacity="0.23921569"
     inkscape:zoom="50.25"
     inkscape:cx="8"
     inkscape:cy="8"
     inkscape:window-width="1920"
     inkscape:window-height="1023"
     inkscape:window-x="0"
     inkscape:window-y="28"
     inkscape:window-maximized="1"
     inkscape:current-layer="svg14" />
  <metadata
     id="metadata4">
    <rdf:RDF>
      <cc:Work>
        <dc:format>image/svg+xml			</dc:format>
        <dc:type
           rdf:resource="http://purl.org/dc/dcmitype/StillImage" />
        <dc:title></dc:title>
      </cc:Work>
    </rdf:RDF>
  </metadata>
  <g
     fill="none"
     transform="matrix(0.89414601,0,0,0.89414601,-446.05573,-133.35386)"
     id="g12"
     inkscape:label="#draw-ellipse-arc"
     style="display:inline">
    <rect
       style="fill:none;stroke-width:3.19701362"
       id="rect846"
       width="17.894169"
       height="17.894169"
       x="498.8623"
       y="149.14104"
       inkscape:label="#boundary" />
    <path
       d="m 5.6503906,3.1796875 -0.3261718,0.1875 c -2.25226,1.30032 -3.2410326,4.0190906 -2.3515626,6.4628906 0.88947,2.4437999 3.3959013,3.8910529 5.9570313,3.4394529 C 11.490817,12.817941 13.349609,10.60064 13.349609,8 V 7.6269531 l 0.04102,0.021484 z"
       fill="#d0d0d0"
       opacity=".3"
       transform="translate(500,150)"
       id="path8"
       inkscape:connector-curvature="0"
       inkscape:label="#" />
    <path
       d="m 504.39805,152.40971 c -2.59421,1.67113 -3.71112,4.93955 -2.6461,7.86568 1.1023,3.02852 4.22842,4.83309 7.40235,4.27344 3.07531,-0.54226 5.35097,-3.15618 5.48941,-6.24981 l -1.2941,-0.67122 V 158 c 0,2.60064 -1.85879,4.81794 -4.41992,5.26953 -2.56113,0.4516 -5.06756,-0.99565 -5.95703,-3.43945 -0.88947,-2.4438 0.0993,-5.16257 2.35156,-6.46289 l 0.33148,-0.19155 z"
       fill="#d0d0d0"
       opacity=".6"
       id="path10"
       inkscape:connector-curvature="0"
       inkscape:label="#" />
  </g>
</svg>
