<?xml version="1.0" encoding="UTF-8" standalone="no"?>
<!-- Created with Inkscape (http://www.inkscape.org/) -->

<svg
   xmlns:dc="http://purl.org/dc/elements/1.1/"
   xmlns:cc="http://creativecommons.org/ns#"
   xmlns:rdf="http://www.w3.org/1999/02/22-rdf-syntax-ns#"
   xmlns:svg="http://www.w3.org/2000/svg"
   xmlns="http://www.w3.org/2000/svg"
   xmlns:sodipodi="http://sodipodi.sourceforge.net/DTD/sodipodi-0.dtd"
   xmlns:inkscape="http://www.inkscape.org/namespaces/inkscape"
   width="16"
   height="16"
   viewBox="0 0 4.2333332 4.2333332"
   version="1.1"
   id="svg8"
   inkscape:version="0.92+devel (262af300f2, 2017-08-19, custom)"
   sodipodi:docname="edit-find-replace.svg">
  <defs
     id="defs2">
    <style
       id="current-color-scheme">      .ColorScheme-Text {
        color:#d0d0d0;
        stop-color:#d0d0d0;
      }
      .ColorScheme-Background {
        color:#212121;
        stop-color:#212121;
      }
      .ColorScheme-Highlight {
        color:#0039a9;
        stop-color:#0039a9;
      }
      .ColorScheme-ViewText {
        color:#d0d0d0;
        stop-color:#d0d0d0;
      }
      .ColorScheme-ViewBackground {
        color:#19191b;
        stop-color:#19191b;
      }
      .ColorScheme-ViewHover {
        color:#005cc7;
        stop-color:#005cc7;
      }
      .ColorScheme-ViewFocus{
        color:#002466;
        stop-color:#002466;
      }
      .ColorScheme-ButtonText {
        color:#d0d0d0;
        stop-color:#d0d0d0;
      }
      .ColorScheme-ButtonBackground {
        color:#232323;
        stop-color:#232323;                             
      }                                                 
      .ColorScheme-ButtonHover {                        
        color:#005cc7;                                  
        stop-color:#005cc7;                             
      }                                                 
      .ColorScheme-ButtonFocus{                         
        color:#0039a9;                                  
        stop-color:#0039a9;                             
      }</style>
  </defs>
  <sodipodi:namedview
     id="base"
     pagecolor="#002466"
     bordercolor="#ffffff"
     borderopacity="0.38039216"
     inkscape:pageopacity="1"
     inkscape:pageshadow="2"
     inkscape:zoom="25.25"
     inkscape:cx="7.5247528"
     inkscape:cy="8.0000004"
     inkscape:document-units="px"
     inkscape:current-layer="svg8"
     inkscape:document-rotation="0"
     showgrid="false"
     inkscape:showpageshadow="false"
     borderlayer="true"
     inkscape:window-width="1920"
     inkscape:window-height="1023"
     inkscape:window-x="0"
     inkscape:window-y="28"
     inkscape:window-maximized="1"
     units="px"
     inkscape:snap-page="true" />
  <metadata
     id="metadata5">
    <rdf:RDF>
      <cc:Work
         rdf:about="">
        <dc:format>image/svg+xml</dc:format>
        <dc:type
           rdf:resource="http://purl.org/dc/dcmitype/StillImage" />
        <dc:title></dc:title>
      </cc:Work>
    </rdf:RDF>
  </metadata>
  <g
     id="g848"
     inkscape:label="#edit-find-replace">
    <path
       inkscape:label="#boundary"
       inkscape:connector-curvature="0"
       id="rect811"
       d="M 0,0 H 4.2333332 V 4.2333332 H 0 Z"
       style="fill:none;stroke-width:0.25454992;stroke-linecap:round" />
    <path
       style="opacity:0.6;fill:#d0d0d0;stroke-width:0.81818181"
       d="M 14.455078,3 C 12.766736,3.0003278 11.078669,3.6406451 9.796875,4.9199219 7.579699,7.1327438 7.2824185,10.557006 8.9003906,13.097656 l -5.4824218,5.470703 a 1.4266596,1.4238584 0 0 0 0,2.013672 1.4266596,1.4238584 0 0 0 2.0175781,0 l 5.4843751,-5.474609 c 2.416296,1.520522 5.61614,1.278931 7.832031,-0.652344 a 1.0976411,1.0954859 0 0 0 0.359375,-0.238281 1.0976411,1.0954859 0 0 0 0.242188,-0.361328 1.0976411,1.0954859 0 0 0 0.002,-0.0039 C 21.604423,11.275411 21.568965,7.36883 19.113281,4.9179688 17.831488,3.638692 16.14342,2.9996722 14.455078,3 Z m 0,2.1777344 c 1.122099,-1e-7 2.243138,0.4303778 3.105469,1.2910156 1.724663,1.7212768 1.724663,4.477943 0,6.199219 -1.724662,1.721277 -4.488229,1.721276 -6.212891,0 -1.7246623,-1.721276 -1.7246623,-4.4779433 0,-6.199219 0.862332,-0.8606381 1.985324,-1.2910156 3.107422,-1.2910156 z M 11.457031,18.697266 a 1.154142,1.154142 0 0 0 -1.154297,1.154296 1.154142,1.154142 0 0 0 1.154297,1.154297 1.154142,1.154142 0 0 0 1.152344,-1.154297 1.154142,1.154142 0 0 0 -1.152344,-1.154296 z m 3.898438,0 a 1.154142,1.154142 0 0 0 -1.154297,1.154296 1.154142,1.154142 0 0 0 1.154297,1.154297 1.154142,1.154142 0 0 0 1.154297,-1.154297 1.154142,1.154142 0 0 0 -1.154297,-1.154296 z m 3.90039,0 a 1.154142,1.154142 0 0 0 -1.154297,1.154296 1.154142,1.154142 0 0 0 1.154297,1.154297 1.154142,1.154142 0 0 0 1.152344,-1.154297 1.154142,1.154142 0 0 0 -1.152344,-1.154296 z"
       transform="scale(0.17638888)"
       id="path839"
       inkscape:connector-curvature="0"
       inkscape:label="#" />
  </g>
</svg>
