<?xml version="1.0" encoding="UTF-8" standalone="no"?>
<svg
   xmlns:dc="http://purl.org/dc/elements/1.1/"
   xmlns:cc="http://creativecommons.org/ns#"
   xmlns:rdf="http://www.w3.org/1999/02/22-rdf-syntax-ns#"
   xmlns:svg="http://www.w3.org/2000/svg"
   xmlns="http://www.w3.org/2000/svg"
   xmlns:sodipodi="http://sodipodi.sourceforge.net/DTD/sodipodi-0.dtd"
   xmlns:inkscape="http://www.inkscape.org/namespaces/inkscape"
   height="16"
   viewBox="0 0 16 16"
   width="16"
   version="1.1"
   id="svg14"
   sodipodi:docname="edit-select-original.svg"
   inkscape:version="0.92+devel (262af300f2, 2017-08-19, custom)">
  <defs
     id="defs16" />
  <sodipodi:namedview
     id="namedview2"
     inkscape:document-rotation="0"
     showgrid="false"
     borderlayer="true"
     inkscape:showpageshadow="false"
     bordercolor="#ffffff"
     borderopacity="0.28235294"
     inkscape:pagecheckerboard="false"
     pagecolor="#002466"
     inkscape:pageopacity="0"
     inkscape:zoom="45.9375"
     inkscape:cx="8"
     inkscape:cy="8"
     inkscape:window-width="1920"
     inkscape:window-height="1023"
     inkscape:window-x="0"
     inkscape:window-y="28"
     inkscape:window-maximized="1"
     inkscape:current-layer="svg14" />
  <metadata
     id="metadata4">
    <rdf:RDF>
      <cc:Work>
        <dc:format>image/svg+xml			</dc:format>
        <dc:type
           rdf:resource="http://purl.org/dc/dcmitype/StillImage" />
        <dc:title></dc:title>
      </cc:Work>
    </rdf:RDF>
  </metadata>
  <rect
     fill="none"
     height="16"
     stroke-linecap="round"
     stroke-width="2.181818"
     width="16"
     id="rect6" />
  <g
     transform="matrix(3.7795275 0 0 3.7795275 27.097358 -22.23783)"
     id="g12">
    <path
       d="m -6.6403426 6.412926 v .2164772 v .2736972 h .2164773 V 6.6294032 h .2813077 V 6.412926 h -.2813077 z m .8949418 0 v .2164772 h .4941206 V 6.412926 Z m .8909956 0 v .2164772 h .4941206 V 6.412926 Z m .8912774 0 v .2164772 h .2813077 v .2736972 h .2164773 V 6.412926 Z m -2.6772148 .8873312 v .4941206 h .2164773 V 7.3002572 Z m 2.9585225 0 v .4941206 h .2164773 V 7.3002572 Z m -2.9585225 .8909957 v .4941206 h .2164773 V 8.1912529 Z m 2.9585225 0 v .4941206 h .2164773 V 8.1912529 Z M -6.6403426 9.0825303 V 9.3714485 V 9.587926 h .2164773 h .2813077 V 9.3714485 H -6.4238653 V 9.0825303 Z m 2.9585225 0 V 9.3714485 H -3.9631278 V 9.587926 h .2813077 h .2164773 V 9.3714485 V 9.0825303 Z M -5.7454008 9.3714485 V 9.587926 h .4941206 V 9.3714485 Z m .8909956 0 V 9.587926 h .4941206 V 9.3714485 Z"
       fill="#d0d0d0"
       fill-rule="evenodd"
       opacity=".6"
       stroke-linecap="square"
       stroke-width=".297656"
       id="path8" />
    <path
       d="M -4.2304618 8.761876 L -4.8186493 8.509526 L -5.0097578 9.1203637 L -5.2472308 8.5260138 L -5.8142924 8.8228072 L -5.5619423 8.2346196 L -6.17278 8.0435111 l .5943499 -.237473 l -.2967934 -.5670615 l .5881876 .25235 l .1911085 -.6108377 l .2374729 .5943499 l .5670616 -.2967934 l -.25235 .5881876 l .6108376 .1911085 l -.5943498 .237473 z"
       fill="#ffb900"
       opacity=".99"
       stroke-linecap="square"
       stroke-width=".474388"
       id="path10" />
  </g>
</svg>
