<?xml version="1.0" encoding="UTF-8" standalone="no"?>
<svg
   xmlns:dc="http://purl.org/dc/elements/1.1/"
   xmlns:cc="http://creativecommons.org/ns#"
   xmlns:rdf="http://www.w3.org/1999/02/22-rdf-syntax-ns#"
   xmlns:svg="http://www.w3.org/2000/svg"
   xmlns="http://www.w3.org/2000/svg"
   xmlns:sodipodi="http://sodipodi.sourceforge.net/DTD/sodipodi-0.dtd"
   xmlns:inkscape="http://www.inkscape.org/namespaces/inkscape"
   height="16"
   viewBox="0 0 4.2333332 4.2333332"
   width="16"
   version="1.1"
   id="svg16"
   sodipodi:docname="exchange-positions-zorder.svg"
   inkscape:version="0.92+devel (262af300f2, 2017-08-19, custom)">
  <defs
     id="defs18" />
  <sodipodi:namedview
     id="namedview2"
     inkscape:document-rotation="0"
     showgrid="false"
     pagecolor="#002466"
     inkscape:pageopacity="0"
     borderlayer="true"
     inkscape:showpageshadow="false"
     bordercolor="#ffffff"
     borderopacity="0.26666667"
     inkscape:zoom="22.96875"
     inkscape:cx="8"
     inkscape:cy="8"
     inkscape:window-width="1920"
     inkscape:window-height="1023"
     inkscape:window-x="0"
     inkscape:window-y="28"
     inkscape:window-maximized="1"
     inkscape:current-layer="svg16" />
  <metadata
     id="metadata4">
    <rdf:RDF>
      <cc:Work>
        <dc:format>image/svg+xml			</dc:format>
        <dc:type
           rdf:resource="http://purl.org/dc/dcmitype/StillImage" />
        <dc:title></dc:title>
      </cc:Work>
    </rdf:RDF>
  </metadata>
  <g
     id="g14">
    <path
       d="M 0 0 H 4.2333332 V 4.2333332 H 0 Z"
       fill="none"
       stroke-linecap="round"
       stroke-width=".25455"
       id="path6" />
    <path
       d="M .75294152 .57727272 V 1.5099666 H 1.9054507 V .57727272 Z"
       fill="#d0d0d0"
       opacity=".765"
       stroke-width=".186221"
       id="path8" />
    <path
       d="M 3.0023755 .79692937 L 2.679927 .9159629 L 2.3574782 1.0347319 L 2.5294157 1.3320513 L 2.7013529 1.6296351 L 2.8016056 1.3518901 c .3118758 .153479 .500491 .4660415 .4814245 .7977892 c -.0004917 .0045 -.00102 .009 -.00159 .013491 C 3.3463917 2.0529248 3.3841872 1.9300477 3.3920134 1.8036888 C 3.4108987 1.4771577 3.2285243 1.168627 2.9243423 1.0125124 Z M 1.1186302 1.8684958 C 1.0536808 1.9787411 1.0158865 2.1016183 1.0080612 2.227977 C .98917439 2.5545078 1.1715489 2.8630384 1.4757308 3.0191531 L 1.3976977 3.2347363 L 1.7201462 3.1157027 L 2.042595 2.9969336 L 1.8706576 2.6996143 L 1.6987203 2.4020304 L 1.5984676 2.6797754 C 1.2865919 2.5262965 1.0979766 2.2137339 1.117043 1.8819862 c .0004908 -.00451 .00102 -.009 .00158 -.013491 z"
       fill="#0f0"
       stroke-linecap="round"
       stroke-width=".410948"
       id="path10" />
    <path
       d="M 2.4429824 2.496882 H 3.4566705 V 2.7285596 L 2.8067083 3.4069874 H 3.4803917 V 3.6560605 H 2.3805163 V 3.4156852 L 3.0233623 2.7443738 H 2.4429824 Z"
       fill="#ffb900"
       stroke-width=".208747"
       id="path12" />
  </g>
</svg>
