<?xml version="1.0" encoding="UTF-8" standalone="no"?>
<!-- Created with Inkscape (http://www.inkscape.org/) -->

<svg
   xmlns:dc="http://purl.org/dc/elements/1.1/"
   xmlns:cc="http://creativecommons.org/ns#"
   xmlns:rdf="http://www.w3.org/1999/02/22-rdf-syntax-ns#"
   xmlns:svg="http://www.w3.org/2000/svg"
   xmlns="http://www.w3.org/2000/svg"
   xmlns:sodipodi="http://sodipodi.sourceforge.net/DTD/sodipodi-0.dtd"
   xmlns:inkscape="http://www.inkscape.org/namespaces/inkscape"
   width="16"
   height="16"
   viewBox="0 0 4.2333332 4.2333332"
   version="1.1"
   id="svg8"
   inkscape:version="0.92+devel (262af300f2, 2017-08-19, custom)"
   sodipodi:docname="filename-discnumber-amarok.svg">
  <defs
     id="defs2">
    <style
       id="current-color-scheme">      .ColorScheme-Text {
        color:#d0d0d0;
        stop-color:#d0d0d0;
      }
      .ColorScheme-Background {
        color:#212121;
        stop-color:#212121;
      }
      .ColorScheme-Highlight {
        color:#0039a9;
        stop-color:#0039a9;
      }
      .ColorScheme-ViewText {
        color:#d0d0d0;
        stop-color:#d0d0d0;
      }
      .ColorScheme-ViewBackground {
        color:#19191b;
        stop-color:#19191b;
      }
      .ColorScheme-ViewHover {
        color:#005cc7;
        stop-color:#005cc7;
      }
      .ColorScheme-ViewFocus{
        color:#002466;
        stop-color:#002466;
      }
      .ColorScheme-ButtonText {
        color:#d0d0d0;
        stop-color:#d0d0d0;
      }
      .ColorScheme-ButtonBackground {
        color:#232323;
        stop-color:#232323;                             
      }                                                 
      .ColorScheme-ButtonHover {                        
        color:#005cc7;                                  
        stop-color:#005cc7;                             
      }                                                 
      .ColorScheme-ButtonFocus{                         
        color:#0039a9;                                  
        stop-color:#0039a9;                             
      }</style>
  </defs>
  <sodipodi:namedview
     id="base"
     pagecolor="#002466"
     bordercolor="#ffffff"
     borderopacity="0.38039216"
     inkscape:pageopacity="1"
     inkscape:pageshadow="2"
     inkscape:zoom="25.25"
     inkscape:cx="9.4974706"
     inkscape:cy="3.0538378"
     inkscape:document-units="px"
     inkscape:current-layer="svg8"
     inkscape:document-rotation="0"
     showgrid="false"
     inkscape:showpageshadow="false"
     borderlayer="true"
     inkscape:window-width="1920"
     inkscape:window-height="1023"
     inkscape:window-x="0"
     inkscape:window-y="28"
     inkscape:window-maximized="1"
     units="px"
     inkscape:snap-page="true">
    <inkscape:grid
       type="xygrid"
       id="grid850" />
  </sodipodi:namedview>
  <metadata
     id="metadata5">
    <rdf:RDF>
      <cc:Work
         rdf:about="">
        <dc:format>image/svg+xml</dc:format>
        <dc:type
           rdf:resource="http://purl.org/dc/dcmitype/StillImage" />
        <dc:title></dc:title>
      </cc:Work>
    </rdf:RDF>
  </metadata>
  <g
     id="g873"
     inkscape:label="#filename-discnumber-amarok">
    <path
       inkscape:label="#boundary"
       inkscape:connector-curvature="0"
       id="rect811"
       d="M 0,0 H 4.2333332 V 4.2333332 H 0 Z"
       style="fill:none;stroke-width:0.25454992;stroke-linecap:round" />
    <path
       inkscape:label="#"
       sodipodi:nodetypes="ssssssssssccccccccccccccccccccccccccccccccccccccc"
       inkscape:connector-curvature="0"
       id="path811"
       d="m 2.1166666,0.5291667 c -0.876752,0 -1.58749986,0.7107479 -1.5874999,1.5874999 4e-8,0.876752 0.7107479,1.5874999 1.5874999,1.5874999 0.876752,0 1.5874999,-0.7107479 1.5874999,-1.5874999 0,-0.876752 -0.7107479,-1.5874999 -1.5874999,-1.5874999 z m 0,1.0914062 c 0.273985,0 0.4960937,0.2221087 0.4960937,0.4960937 0,0.273985 -0.2221087,0.4960937 -0.4960937,0.4960937 -0.273985,0 -0.4960937,-0.2221087 -0.4960937,-0.4960937 0,-0.273985 0.2221087,-0.4960937 0.4960937,-0.4960937 z m 0,0.3282745 c -0.092711,-6.56e-5 -0.1678848,0.075108 -0.1678192,0.1678192 -6.56e-5,0.092711 0.075108,0.1678849 0.1678192,0.1678192 0.092711,6.57e-5 0.1678849,-0.075108 0.1678192,-0.1678192 6.57e-5,-0.092711 -0.075108,-0.1678848 -0.1678192,-0.1678192 z M 1.959622,2.7088009 h 0.1620056 l -0.04147,0.2023134 h 0.124411 l 0.040695,-0.2023134 h 0.1612305 l -0.03992,0.2023134 h 0.077902 V 3.0669187 H 2.3347928 l -0.02868,0.143402 H 2.444476 V 3.3661251 H 2.274719 L 2.2344114,3.5653379 H 2.0727933 L 2.1123258,3.3661251 H 1.9886899 L 1.9479948,3.5653379 H 1.7871519 l 0.04147,-0.1992128 H 1.7491697 V 3.2103207 h 0.1096832 l 0.029456,-0.143402 H 1.7491697 V 2.9111143 h 0.1701446 z m 0.090305,0.3581178 -0.029843,0.143402 h 0.1240234 l 0.029456,-0.143402 z"
       style="opacity:0.6;fill:#d0d0d0;stroke-width:0.32099283" />
  </g>
</svg>
