<?xml version="1.0" encoding="UTF-8" standalone="no"?>
<!-- Created with Inkscape (http://www.inkscape.org/) -->

<svg
   xmlns:dc="http://purl.org/dc/elements/1.1/"
   xmlns:cc="http://creativecommons.org/ns#"
   xmlns:rdf="http://www.w3.org/1999/02/22-rdf-syntax-ns#"
   xmlns:svg="http://www.w3.org/2000/svg"
   xmlns="http://www.w3.org/2000/svg"
   xmlns:sodipodi="http://sodipodi.sourceforge.net/DTD/sodipodi-0.dtd"
   xmlns:inkscape="http://www.inkscape.org/namespaces/inkscape"
   width="16"
   height="16"
   viewBox="0 0 4.2333332 4.2333332"
   version="1.1"
   id="svg8"
   inkscape:version="0.92+devel (7f48eea3d0, 2017-08-15, custom)"
   sodipodi:docname="help-whatsthis.svg">
  <defs
     id="defs2">
    <style
       id="current-color-scheme">      .ColorScheme-Text {
        color:#d0d0d0;
        stop-color:#d0d0d0;
      }
      .ColorScheme-Background {
        color:#212121;
        stop-color:#212121;
      }
      .ColorScheme-Highlight {
        color:#0039a9;
        stop-color:#0039a9;
      }
      .ColorScheme-ViewText {
        color:#d0d0d0;
        stop-color:#d0d0d0;
      }
      .ColorScheme-ViewBackground {
        color:#19191b;
        stop-color:#19191b;
      }
      .ColorScheme-ViewHover {
        color:#005cc7;
        stop-color:#005cc7;
      }
      .ColorScheme-ViewFocus{
        color:#002466;
        stop-color:#002466;
      }
      .ColorScheme-ButtonText {
        color:#d0d0d0;
        stop-color:#d0d0d0;
      }
      .ColorScheme-ButtonBackground {
        color:#232323;
        stop-color:#232323;                             
      }                                                 
      .ColorScheme-ButtonHover {                        
        color:#005cc7;                                  
        stop-color:#005cc7;                             
      }                                                 
      .ColorScheme-ButtonFocus{                         
        color:#0039a9;                                  
        stop-color:#0039a9;                             
      }</style>
  </defs>
  <sodipodi:namedview
     id="base"
     pagecolor="#002466"
     bordercolor="#ffffff"
     borderopacity="0.38039216"
     inkscape:pageopacity="1"
     inkscape:pageshadow="2"
     inkscape:zoom="17.766058"
     inkscape:cx="8"
     inkscape:cy="8"
     inkscape:document-units="px"
     inkscape:current-layer="svg8"
     inkscape:document-rotation="0"
     showgrid="false"
     inkscape:showpageshadow="false"
     borderlayer="true"
     inkscape:window-width="1920"
     inkscape:window-height="1023"
     inkscape:window-x="0"
     inkscape:window-y="28"
     inkscape:window-maximized="1"
     units="px" />
  <metadata
     id="metadata5">
    <rdf:RDF>
      <cc:Work
         rdf:about="">
        <dc:format>image/svg+xml</dc:format>
        <dc:type
           rdf:resource="http://purl.org/dc/dcmitype/StillImage" />
        <dc:title></dc:title>
      </cc:Work>
    </rdf:RDF>
  </metadata>
  <g
     id="g833"
     inkscape:label="#help-whatisthis">
    <path
       inkscape:label="#boundary"
       inkscape:connector-curvature="0"
       id="rect811"
       d="M 0,0 H 4.2333332 V 4.2333332 H 0 Z"
       style="fill:none;stroke-width:0.25454992;stroke-linecap:round" />
    <path
       inkscape:label="#"
       id="path827"
       d="m 2.1166665,0.52916665 a 1.5874999,1.5874999 0 0 0 -1.58749985,1.58749995 1.5874999,1.5874999 0 0 0 1.58749985,1.5875 1.5874999,1.5874999 0 0 0 1.5875,-1.5875 1.5874999,1.5874999 0 0 0 -1.5875,-1.58749995 z m 0,0.396875 c 0.1929258,0 0.373063,0.067655 0.4999696,0.19456175 0.1269078,0.1269068 0.1945618,0.3070447 0.1945618,0.4999695 0,0.157097 -0.044084,0.2920351 -0.1131713,0.3910614 -0.069088,0.099026 -0.154106,0.1594598 -0.2197541,0.2054138 -0.065649,0.045953 -0.1123228,0.079691 -0.1337128,0.1046448 -0.021394,0.024954 -0.029456,0.034752 -0.029456,0.09263 v 0.099219 H 1.9182291 v -0.099219 c 0,-0.1405593 0.053558,-0.2671878 0.1251861,-0.3507538 0.071628,-0.083566 0.1493638,-0.1304451 0.2077394,-0.1713074 0.058374,-0.040862 0.097382,-0.073446 0.1213104,-0.1077453 0.023929,-0.0343 0.041858,-0.072993 0.041858,-0.1639435 0,-0.1047303 -0.031564,-0.1726399 -0.07829,-0.2193665 -0.046727,-0.046726 -0.1146351,-0.07829 -0.2193665,-0.07829 -0.1047303,0 -0.17264,0.031563 -0.2193665,0.07829 C 1.850574,1.4479324 1.81901,1.5158425 1.81901,1.6205729 H 1.4221354 c 0,-0.1929248 0.067655,-0.3730628 0.1945617,-0.4999695 C 1.7436038,0.99369665 1.9237419,0.92604165 2.1166665,0.92604165 Z M 1.9182291,2.9104165 H 2.315104 V 3.3072916 H 1.9182291 Z"
       style="opacity:0.6;fill:#d0d0d0;stroke-width:0.38011372"
       inkscape:connector-curvature="0" />
  </g>
</svg>
