<?xml version="1.0" encoding="UTF-8" standalone="no"?>
<!-- Created with Inkscape (http://www.inkscape.org/) -->

<svg
   xmlns:dc="http://purl.org/dc/elements/1.1/"
   xmlns:cc="http://creativecommons.org/ns#"
   xmlns:rdf="http://www.w3.org/1999/02/22-rdf-syntax-ns#"
   xmlns:svg="http://www.w3.org/2000/svg"
   xmlns="http://www.w3.org/2000/svg"
   xmlns:sodipodi="http://sodipodi.sourceforge.net/DTD/sodipodi-0.dtd"
   xmlns:inkscape="http://www.inkscape.org/namespaces/inkscape"
   width="16"
   height="16"
   viewBox="0 0 4.2333332 4.2333332"
   version="1.1"
   id="svg8"
   inkscape:version="0.92+devel (7f3bd2b258, 2017-08-07, custom)"
   sodipodi:docname="im-twitter.svg">
  <defs
     id="defs2" />
  <sodipodi:namedview
     id="base"
     pagecolor="#002466"
     bordercolor="#ffffff"
     borderopacity="0.38039216"
     inkscape:pageopacity="1"
     inkscape:pageshadow="2"
     inkscape:zoom="50.5"
     inkscape:cx="7.970297"
     inkscape:cy="8"
     inkscape:document-units="px"
     inkscape:current-layer="svg8"
     inkscape:document-rotation="0"
     showgrid="false"
     inkscape:showpageshadow="false"
     borderlayer="true"
     inkscape:window-width="1920"
     inkscape:window-height="1027"
     inkscape:window-x="0"
     inkscape:window-y="24"
     inkscape:window-maximized="1"
     units="px" />
  <metadata
     id="metadata5">
    <rdf:RDF>
      <cc:Work
         rdf:about="">
        <dc:format>image/svg+xml</dc:format>
        <dc:type
           rdf:resource="http://purl.org/dc/dcmitype/StillImage" />
        <dc:title></dc:title>
      </cc:Work>
    </rdf:RDF>
  </metadata>
  <g
     id="g839"
     inkscape:label="#twitter"
     style="opacity:0.6">
    <path
       inkscape:label="#boundary"
       inkscape:connector-curvature="0"
       id="rect811"
       d="M 0,0 H 4.2333332 V 4.2333332 H 0 Z"
       style="fill:none;stroke-width:0.25454992;stroke-linecap:round" />
    <path
       inkscape:label="#"
       style="fill:#d0d0d0;stroke-width:0.0103799"
       d="m 2.7273299,0.82652305 c 0.1873574,0 0.356665,0.0791 0.475481,0.20569955 C 3.3511932,1.0030141 3.4905791,0.94880415 3.6164581,0.87414675 3.5678123,1.0262633 3.464532,1.1539341 3.3300526,1.2345505 3.4618154,1.2187943 3.5873351,1.1837718 3.7041666,1.1319667 3.6168413,1.2625902 3.5064014,1.3773127 3.3791131,1.469147 c 0.0012,0.027945 0.00195,0.056042 0.00195,0.084282 0,0.8607974 -0.6552131,1.8533811 -1.8533634,1.8533811 -0.3678596,0 -0.71026164,-0.1078306 -0.99853308,-0.292672 0.0509633,0.00605 0.10282283,0.00911 0.15540314,0.00911 0.3051947,0 0.58605904,-0.1041238 0.80899544,-0.2788487 -0.2850479,-0.00524 -0.52559458,-0.1935927 -0.6084926,-0.452371 0.0397806,0.00762 0.0805842,0.011708 0.1225609,0.011708 0.059408,0 0.1169515,-0.00798 0.1716041,-0.022854 -0.29798331,-0.059853 -0.52251577,-0.3231282 -0.52251577,-0.638736 0,-0.00274 -6.75e-6,-0.00548 5.625e-5,-0.00818 0.0878166,0.04879 0.18825215,0.078094 0.29503129,0.08148 C 0.77702068,1.6986323 0.66203116,1.4992452 0.66203116,1.2732472 c 0,-0.1193799 0.032138,-0.2312805 0.0882074,-0.32748645 C 1.0715121,1.3398709 1.5514917,1.5991969 2.0928614,1.6263714 2.0817464,1.5786904 2.0759934,1.5289704 2.0759934,1.477916 c 0,-0.359735 0.2916382,-0.65137905 0.651379,-0.65137905 z"
       id="rect848"
       inkscape:connector-curvature="0" />
  </g>
</svg>
