<?xml version="1.0" encoding="UTF-8" standalone="no"?>
<!-- Created with Inkscape (http://www.inkscape.org/) -->

<svg
   xmlns:dc="http://purl.org/dc/elements/1.1/"
   xmlns:cc="http://creativecommons.org/ns#"
   xmlns:rdf="http://www.w3.org/1999/02/22-rdf-syntax-ns#"
   xmlns:svg="http://www.w3.org/2000/svg"
   xmlns="http://www.w3.org/2000/svg"
   xmlns:sodipodi="http://sodipodi.sourceforge.net/DTD/sodipodi-0.dtd"
   xmlns:inkscape="http://www.inkscape.org/namespaces/inkscape"
   width="16"
   height="16"
   viewBox="0 0 4.2333332 4.2333332"
   version="1.1"
   id="svg8"
   inkscape:version="0.92+devel (262af300f2, 2017-08-19, custom)"
   sodipodi:docname="media-playlist-shuffle.svg">
  <defs
     id="defs2">
    <style
       id="current-color-scheme">      .ColorScheme-Text {
        color:#d0d0d0;
        stop-color:#d0d0d0;
      }
      .ColorScheme-Background {
        color:#212121;
        stop-color:#212121;
      }
      .ColorScheme-Highlight {
        color:#0039a9;
        stop-color:#0039a9;
      }
      .ColorScheme-ViewText {
        color:#d0d0d0;
        stop-color:#d0d0d0;
      }
      .ColorScheme-ViewBackground {
        color:#19191b;
        stop-color:#19191b;
      }
      .ColorScheme-ViewHover {
        color:#005cc7;
        stop-color:#005cc7;
      }
      .ColorScheme-ViewFocus{
        color:#002466;
        stop-color:#002466;
      }
      .ColorScheme-ButtonText {
        color:#d0d0d0;
        stop-color:#d0d0d0;
      }
      .ColorScheme-ButtonBackground {
        color:#232323;
        stop-color:#232323;                             
      }                                                 
      .ColorScheme-ButtonHover {                        
        color:#005cc7;                                  
        stop-color:#005cc7;                             
      }                                                 
      .ColorScheme-ButtonFocus{                         
        color:#0039a9;                                  
        stop-color:#0039a9;                             
      }</style>
  </defs>
  <sodipodi:namedview
     id="base"
     pagecolor="#002466"
     bordercolor="#ffffff"
     borderopacity="0.38039216"
     inkscape:pageopacity="1"
     inkscape:pageshadow="2"
     inkscape:zoom="25.25"
     inkscape:cx="7.5841587"
     inkscape:cy="8"
     inkscape:document-units="px"
     inkscape:current-layer="svg8"
     inkscape:document-rotation="0"
     showgrid="false"
     inkscape:showpageshadow="false"
     borderlayer="true"
     inkscape:window-width="1920"
     inkscape:window-height="1023"
     inkscape:window-x="0"
     inkscape:window-y="28"
     inkscape:window-maximized="1"
     units="px"
     inkscape:snap-page="true" />
  <metadata
     id="metadata5">
    <rdf:RDF>
      <cc:Work
         rdf:about="">
        <dc:format>image/svg+xml</dc:format>
        <dc:type
           rdf:resource="http://purl.org/dc/dcmitype/StillImage" />
        <dc:title></dc:title>
      </cc:Work>
    </rdf:RDF>
  </metadata>
  <g
     id="g862"
     inkscape:label="#media-playlist-shuffle">
    <path
       inkscape:label="#boundary"
       inkscape:connector-curvature="0"
       id="rect811"
       d="M 0,0 H 4.2333332 V 4.2333332 H 0 Z"
       style="fill:none;stroke-width:0.25454992;stroke-linecap:round" />
    <path
       inkscape:label="#"
       inkscape:connector-curvature="0"
       style="font-variation-settings:normal;opacity:0.6;vector-effect:none;fill:#d0d0d0;stroke-width:0.39687496;stroke-linecap:round;stroke-miterlimit:26.70000076"
       d="m 0.91131386,0.52916665 c -0.2118042,0 -0.3821472,0.170343 -0.3821472,0.38214719 V 3.3220193 c 0,0.2118043 0.170343,0.3821472 0.3821472,0.3821472 H 3.3220193 c 0.2118043,0 0.3821472,-0.1703429 0.3821472,-0.3821472 V 0.91131384 c 0,-0.21180419 -0.1703429,-0.38214719 -0.3821472,-0.38214719 z M 1.3391947,1.0686686 a 0.27796753,0.27796753 0 0 1 0.27789,0.2778899 0.27796753,0.27796753 0 0 1 -0.27789,0.27789 0.27796753,0.27796753 0 0 1 -0.27789,-0.27789 0.27796753,0.27796753 0 0 1 0.27789,-0.2778899 z m 1.6359466,0 A 0.27796753,0.27796753 0 0 1 3.2530312,1.3465585 0.27796753,0.27796753 0 0 1 2.9751413,1.6244485 0.27796753,0.27796753 0 0 1 2.6972512,1.3465585 0.27796753,0.27796753 0 0 1 2.9751413,1.0686686 Z M 2.1569742,1.886448 A 0.27796753,0.27796753 0 0 1 2.4352518,2.1643381 0.27796753,0.27796753 0 0 1 2.1569742,2.4426156 0.27796753,0.27796753 0 0 1 1.8790842,2.1643381 0.27796753,0.27796753 0 0 1 2.1569742,1.886448 Z M 1.3391947,2.7046152 a 0.27796753,0.27796753 0 0 1 0.27789,0.2778899 0.27796753,0.27796753 0 0 1 -0.27789,0.2778901 0.27796753,0.27796753 0 0 1 -0.27789,-0.2778901 0.27796753,0.27796753 0 0 1 0.27789,-0.2778899 z m 1.6359466,0 A 0.27796753,0.27796753 0 0 1 3.2530312,2.9825051 0.27796753,0.27796753 0 0 1 2.9751413,3.2603952 0.27796753,0.27796753 0 0 1 2.6972512,2.9825051 0.27796753,0.27796753 0 0 1 2.9751413,2.7046152 Z"
       id="rect811-3" />
  </g>
</svg>
