<?xml version="1.0" encoding="UTF-8" standalone="no"?>
<!-- Created with Inkscape (http://www.inkscape.org/) -->

<svg
   xmlns:dc="http://purl.org/dc/elements/1.1/"
   xmlns:cc="http://creativecommons.org/ns#"
   xmlns:rdf="http://www.w3.org/1999/02/22-rdf-syntax-ns#"
   xmlns:svg="http://www.w3.org/2000/svg"
   xmlns="http://www.w3.org/2000/svg"
   xmlns:sodipodi="http://sodipodi.sourceforge.net/DTD/sodipodi-0.dtd"
   xmlns:inkscape="http://www.inkscape.org/namespaces/inkscape"
   width="16"
   height="16"
   viewBox="0 0 4.2333332 4.2333332"
   version="1.1"
   id="svg8"
   inkscape:version="0.92+devel (262af300f2, 2017-08-19, custom)"
   sodipodi:docname="new-audio-alarm.svg">
  <defs
     id="defs2">
    <style
       id="current-color-scheme">      .ColorScheme-Text {
        color:#d0d0d0;
        stop-color:#d0d0d0;
      }
      .ColorScheme-Background {
        color:#212121;
        stop-color:#212121;
      }
      .ColorScheme-Highlight {
        color:#0039a9;
        stop-color:#0039a9;
      }
      .ColorScheme-ViewText {
        color:#d0d0d0;
        stop-color:#d0d0d0;
      }
      .ColorScheme-ViewBackground {
        color:#19191b;
        stop-color:#19191b;
      }
      .ColorScheme-ViewHover {
        color:#005cc7;
        stop-color:#005cc7;
      }
      .ColorScheme-ViewFocus{
        color:#002466;
        stop-color:#002466;
      }
      .ColorScheme-ButtonText {
        color:#d0d0d0;
        stop-color:#d0d0d0;
      }
      .ColorScheme-ButtonBackground {
        color:#232323;
        stop-color:#232323;                             
      }                                                 
      .ColorScheme-ButtonHover {                        
        color:#005cc7;                                  
        stop-color:#005cc7;                             
      }                                                 
      .ColorScheme-ButtonFocus{                         
        color:#0039a9;                                  
        stop-color:#0039a9;                             
      }</style>
  </defs>
  <sodipodi:namedview
     id="base"
     pagecolor="#002466"
     bordercolor="#ffffff"
     borderopacity="0.38039216"
     inkscape:pageopacity="1"
     inkscape:pageshadow="2"
     inkscape:zoom="25.25"
     inkscape:cx="7.5247528"
     inkscape:cy="8"
     inkscape:document-units="px"
     inkscape:current-layer="svg8"
     inkscape:document-rotation="0"
     showgrid="false"
     inkscape:showpageshadow="false"
     borderlayer="true"
     inkscape:window-width="1920"
     inkscape:window-height="1023"
     inkscape:window-x="0"
     inkscape:window-y="28"
     inkscape:window-maximized="1"
     units="px"
     inkscape:snap-page="true" />
  <metadata
     id="metadata5">
    <rdf:RDF>
      <cc:Work
         rdf:about="">
        <dc:format>image/svg+xml</dc:format>
        <dc:type
           rdf:resource="http://purl.org/dc/dcmitype/StillImage" />
        <dc:title></dc:title>
      </cc:Work>
    </rdf:RDF>
  </metadata>
  <g
     id="g843"
     inkscape:label="#new-audio-alarm">
    <path
       inkscape:label="#boundary"
       inkscape:connector-curvature="0"
       id="rect811"
       d="M 0,0 H 4.2333332 V 4.2333332 H 0 Z"
       style="fill:none;stroke-width:0.25454992;stroke-linecap:round" />
    <path
       inkscape:label="#"
       style="opacity:0.6"
       inkscape:connector-curvature="0"
       id="path6"
       stroke-width=".284125"
       fill="#d0d0d0"
       d="m 2.1166667,0.52916663 a 0.23211918,0.28043133 0 0 0 -0.2320213,0.2799687 0.23211918,0.28043133 0 0 0 0.0011,0.024249 C 1.3719694,0.93941143 0.98797369,1.3917353 0.98797369,1.937828 v 0.8790358 c 0,0.071255 -0.028425,0.1397514 -0.0788101,0.1901363 -0.050385,0.050385 -0.11832991,0.07881 -0.18958517,0.07881 -0.0668153,0 -0.12124628,0.05388 -0.12124628,0.120695 0,0.066815 0.0544305,0.1212465 0.12124628,0.1212465 H 1.740252 A 0.37623101,0.37623101 0 0 0 2.1166667,3.7041665 0.37623101,0.37623101 0 0 0 2.4930814,3.3277519 h 1.0206735 c 0.066815,-4e-7 0.1212462,-0.054431 0.1212462,-0.1212465 0,-0.066815 -0.054431,-0.1206954 -0.1212462,-0.120695 -0.071255,0 -0.1392002,-0.028425 -0.1895851,-0.07881 -0.050385,-0.050385 -0.07881,-0.1188812 -0.07881,-0.190136 V 1.9378283 c 0,-0.5460927 -0.3839959,-0.99841657 -0.897774,-1.10444367 a 0.23211918,0.28043133 0 0 0 0.0011,-0.024249 0.23211918,0.28043133 0 0 0 -0.2320216,-0.279969 z" />
  </g>
</svg>
