<?xml version="1.0" encoding="UTF-8" standalone="no"?>
<!-- Created with Inkscape (http://www.inkscape.org/) -->

<svg
   xmlns:dc="http://purl.org/dc/elements/1.1/"
   xmlns:cc="http://creativecommons.org/ns#"
   xmlns:rdf="http://www.w3.org/1999/02/22-rdf-syntax-ns#"
   xmlns:svg="http://www.w3.org/2000/svg"
   xmlns="http://www.w3.org/2000/svg"
   xmlns:sodipodi="http://sodipodi.sourceforge.net/DTD/sodipodi-0.dtd"
   xmlns:inkscape="http://www.inkscape.org/namespaces/inkscape"
   width="16"
   height="16"
   viewBox="0 0 16 16"
   version="1.1"
   id="svg8"
   inkscape:version="0.92+devel 15740 custom"
   sodipodi:docname="object-tweak-attract.svg">
  <defs
     id="ol-defs">
    <style
       id="current-color-scheme">      .ColorScheme-Text {
        color:#d0d0d0;
        stop-color:#d0d0d0;
      }
      .ColorScheme-Background {
        color:#212121;
        stop-color:#212121;
      }
      .ColorScheme-Highlight {
        color:#0039a9;
        stop-color:#0039a9;
      }
      .ColorScheme-ViewText {
        color:#d0d0d0;
        stop-color:#d0d0d0;
      }
      .ColorScheme-ViewBackground {
        color:#19191b;
        stop-color:#19191b;
      }
      .ColorScheme-ViewHover {
        color:#005cc7;
        stop-color:#005cc7;
      }
      .ColorScheme-ViewFocus{
        color:#002466;
        stop-color:#002466;
      }
      .ColorScheme-ButtonText {
        color:#d0d0d0;
        stop-color:#d0d0d0;
      }
      .ColorScheme-ButtonBackground {
        color:#232323;
        stop-color:#232323;                             
      }                                                 
      .ColorScheme-ButtonHover {                        
        color:#005cc7;                                  
        stop-color:#005cc7;                             
      }                                                 
      .ColorScheme-ButtonFocus{                         
        color:#0039a9;                                  
        stop-color:#0039a9;                             
      }</style>
    <style
       id="current-color-scheme-7">      .ColorScheme-Text {
        color:#d0d0d0;
        stop-color:#d0d0d0;
      }
      .ColorScheme-Background {
        color:#212121;
        stop-color:#212121;
      }
      .ColorScheme-Highlight {
        color:#0039a9;
        stop-color:#0039a9;
      }
      .ColorScheme-ViewText {
        color:#d0d0d0;
        stop-color:#d0d0d0;
      }
      .ColorScheme-ViewBackground {
        color:#19191b;
        stop-color:#19191b;
      }
      .ColorScheme-ViewHover {
        color:#005cc7;
        stop-color:#005cc7;
      }
      .ColorScheme-ViewFocus{
        color:#002466;
        stop-color:#002466;
      }
      .ColorScheme-ButtonText {
        color:#d0d0d0;
        stop-color:#d0d0d0;
      }
      .ColorScheme-ButtonBackground {
        color:#232323;
        stop-color:#232323;                             
      }                                                 
      .ColorScheme-ButtonHover {                        
        color:#005cc7;                                  
        stop-color:#005cc7;                             
      }                                                 
      .ColorScheme-ButtonFocus{                         
        color:#0039a9;                                  
        stop-color:#0039a9;                             
      }</style>
    <style
       type="text/css"
       id="current-color-scheme-6">
      .ColorScheme-Text {
        color:#f2f2f2;
      }
      </style>
  </defs>
  <sodipodi:namedview
     id="base"
     pagecolor="#002266"
     bordercolor="#ffffff"
     borderopacity="0.46666667"
     inkscape:pageopacity="0"
     inkscape:pageshadow="2"
     inkscape:zoom="22.46875"
     inkscape:cx="15.700676"
     inkscape:cy="7.9814781"
     inkscape:document-units="px"
     inkscape:current-layer="g4480"
     inkscape:document-rotation="0"
     showgrid="false"
     inkscape:showpageshadow="false"
     borderlayer="true"
     units="px"
     fit-margin-top="0"
     fit-margin-left="0"
     fit-margin-right="0"
     fit-margin-bottom="0"
     inkscape:window-width="1920"
     inkscape:window-height="1051"
     inkscape:window-x="0"
     inkscape:window-y="0"
     inkscape:window-maximized="1"
     inkscape:snap-page="true"
     guidecolor="#f4ff00"
     guideopacity="0.42745098"
     guidehicolor="#4fff00"
     guidehiopacity="0.49803922" />
  <metadata
     id="metadata5">
    <rdf:RDF>
      <cc:Work
         rdf:about="">
        <dc:format>image/svg+xml</dc:format>
        <dc:type
           rdf:resource="http://purl.org/dc/dcmitype/StillImage" />
        <dc:title></dc:title>
      </cc:Work>
    </rdf:RDF>
  </metadata>
  <g
     id="g4480"
     inkscape:label="#object-tweak-attract">
    <rect
       inkscape:label="#boundary"
       y="0"
       x="0"
       height="16"
       width="16"
       id="rect4264"
       style="vector-effect:none;fill:none;stroke-width:2.18181825;stroke-linecap:round" />
    <path
       inkscape:label="#1"
       style="opacity:0.6;fill:#d0d0d0;stroke:none;stroke-width:0.375305;stroke-linecap:square"
       d="M 2.7890625,2.1738281 A 0.64574372,0.66473041 0 0 0 2.1894531,2.8378906 0.64574372,0.66473041 0 0 0 2.8359375,3.5019531 0.64574372,0.66473041 0 0 0 3.4804688,2.8378906 0.64574372,0.66473041 0 0 0 2.8359375,2.1738281 a 0.64574372,0.66473041 0 0 0 -0.046875,0 z m 10.3300785,0 a 0.64574365,0.66473041 0 0 0 -0.59961,0.6640625 0.64574365,0.66473041 0 0 0 0.644531,0.6640625 0.64574365,0.66473041 0 0 0 0.646485,-0.6640625 0.64574365,0.66473041 0 0 0 -0.646485,-0.6640625 0.64574365,0.66473041 0 0 0 -0.04492,0 z M 5.4179688,2.7148438 A 0.64574372,0.66473041 0 0 0 4.7714844,3.3808594 0.64574372,0.66473041 0 0 0 5.4179688,4.0449219 0.64574372,0.66473041 0 0 0 6.0625,3.3808594 0.64574372,0.66473041 0 0 0 5.4179688,2.7148438 Z m 5.1640622,0 A 0.64574365,0.66473041 0 0 0 9.9375,3.3808594 0.64574365,0.66473041 0 0 0 10.582031,4.0449219 0.64574365,0.66473041 0 0 0 11.228516,3.3808594 0.64574365,0.66473041 0 0 0 10.582031,2.7148438 Z M 8,3.2578125 a 0.64574365,0.66473041 0 0 0 -0.044922,0.00195 0.64574365,0.66473041 0 0 0 -0.064453,0.00781 0.64574365,0.66473041 0 0 0 -0.5371094,0.6542969 0.64574365,0.66473041 0 0 0 0.00195,0.046875 0.64574365,0.66473041 0 0 0 0.00781,0.066406 A 0.64574365,0.66473041 0 0 0 8,4.5878906 0.64574365,0.66473041 0 0 0 8.6464844,3.921875 0.64574365,0.66473041 0 0 0 8,3.2578125 Z M 3.3808594,4.7714844 A 0.66473041,0.64574365 0 0 0 2.7148438,5.4179688 0.66473041,0.64574365 0 0 0 3.3808594,6.0625 0.66473041,0.64574365 0 0 0 4.0449219,5.4179688 0.66473041,0.64574365 0 0 0 3.3808594,4.7714844 Z m 9.2382816,0 A 0.66473041,0.64574365 0 0 0 11.955078,5.4179688 0.66473041,0.64574365 0 0 0 12.619141,6.0625 0.66473041,0.64574365 0 0 0 13.285156,5.4179688 0.66473041,0.64574365 0 0 0 12.619141,4.7714844 Z M 5.7207031,5.015625 a 0.66473041,0.64574365 0 0 0 -0.6640625,0.6464844 0.66473041,0.64574365 0 0 0 0.6640625,0.6445312 0.66473041,0.64574365 0 0 0 0.023437,-0.00195 0.66473041,0.64574365 0 0 0 0.03125,0.00195 0.66473041,0.64574365 0 0 0 0.6640625,-0.6445312 0.66473041,0.64574365 0 0 0 -0.6640625,-0.6464844 0.66473041,0.64574365 0 0 0 -0.023437,0.00195 0.66473041,0.64574365 0 0 0 -0.03125,-0.00195 z m 4.6562499,0 A 0.66473041,0.64574365 0 0 0 9.7128906,5.6621094 0.66473041,0.64574365 0 0 0 10.376953,6.3066406 0.66473041,0.64574365 0 0 0 11.041016,5.6621094 0.66473041,0.64574365 0 0 0 10.376953,5.015625 Z M 8.0019531,5.3164062 A 0.66473041,0.64574365 0 0 0 7.3359375,5.9609375 0.66473041,0.64574365 0 0 0 8.0019531,6.6074219 0.66473041,0.64574365 0 0 0 8.6660156,5.9609375 0.66473041,0.64574365 0 0 0 8.0019531,5.3164062 Z m -2.03125,2.0058594 A 0.64574372,0.66473041 0 0 0 5.3242188,7.9882812 0.64574372,0.66473041 0 0 0 5.9707031,8.6523438 0.64574372,0.66473041 0 0 0 6.6171875,7.9882812 0.64574372,0.66473041 0 0 0 5.9707031,7.3222656 Z m 2.0488281,0.00781 A 0.66473041,0.64574365 0 0 0 7.3535156,7.9765625 0.66473041,0.64574365 0 0 0 8.0195312,8.6210938 0.66473041,0.64574365 0 0 0 8.6835938,7.9765625 0.66473041,0.64574365 0 0 0 8.0195312,7.3300781 Z M 10.025391,7.34375 A 0.66473041,0.64574365 0 0 0 9.359375,7.9902344 0.66473041,0.64574365 0 0 0 10.025391,8.6347656 0.66473041,0.64574365 0 0 0 10.689453,7.9902344 0.66473041,0.64574365 0 0 0 10.025391,7.34375 Z M 3.8691406,7.35352 A 0.66473041,0.64574365 0 0 0 3.203125,8 0.66473041,0.64574365 0 0 0 3.8691406,8.6464844 0.66473041,0.64574365 0 0 0 4.5332031,8 0.66473041,0.64574365 0 0 0 3.8691406,7.3535156 Z m 8.2617184,0 A 0.66473041,0.64574365 0 0 0 11.466797,8 0.66473041,0.64574365 0 0 0 12.130859,8.6464844 0.66473041,0.64574365 0 0 0 12.796875,8 0.66473041,0.64574365 0 0 0 12.130859,7.3535156 Z M 8,9.3496094 A 0.64574365,0.66473041 0 0 0 7.3535156,10.015625 0.64574365,0.66473041 0 0 0 8,10.679688 0.64574365,0.66473041 0 0 0 8.6464844,10.015625 0.64574365,0.66473041 0 0 0 8,9.3496094 Z M 5.7207031,9.6503906 A 0.66473041,0.64574372 0 0 0 5.0566406,10.296875 0.66473041,0.64574372 0 0 0 5.7207031,10.941406 0.66473041,0.64574372 0 0 0 6.3847656,10.296875 0.66473041,0.64574372 0 0 0 5.7207031,9.6503906 Z m 4.6562499,0 A 0.66473041,0.64574372 0 0 0 9.7128906,10.296875 0.66473041,0.64574372 0 0 0 10.376953,10.941406 0.66473041,0.64574372 0 0 0 11.041016,10.296875 0.66473041,0.64574372 0 0 0 10.376953,9.6503906 Z M 3.3339844,9.9375 A 0.66473041,0.64574372 0 0 0 2.7148438,10.582031 0.66473041,0.64574372 0 0 0 3.3808594,11.228516 0.66473041,0.64574372 0 0 0 4.0449219,10.582031 0.66473041,0.64574372 0 0 0 3.3808594,9.9375 a 0.66473041,0.64574372 0 0 0 -0.046875,0 z m 9.2324216,0 a 0.66473041,0.64574372 0 0 0 -0.666015,0.644531 0.66473041,0.64574372 0 0 0 0.666015,0.646485 0.66473041,0.64574372 0 0 0 0.664063,-0.646485 A 0.66473041,0.64574372 0 0 0 12.566406,9.9375 Z M 8,11.412109 A 0.64574365,0.66473041 0 0 0 7.3535156,12.078125 0.64574365,0.66473041 0 0 0 8,12.742188 0.64574365,0.66473041 0 0 0 8.6464844,12.078125 0.64574365,0.66473041 0 0 0 8,11.412109 Z M 5.4179688,11.900391 A 0.64574372,0.66473041 0 0 0 4.7714844,12.566406 0.64574372,0.66473041 0 0 0 5.4179688,13.230469 0.64574372,0.66473041 0 0 0 6.0625,12.566406 0.64574372,0.66473041 0 0 0 5.4179688,11.900391 Z m 5.1640622,0 a 0.64574365,0.66473041 0 0 0 -0.644531,0.666015 0.64574365,0.66473041 0 0 0 0.644531,0.664063 0.64574365,0.66473041 0 0 0 0.646485,-0.664063 0.64574365,0.66473041 0 0 0 -0.646485,-0.666015 z m -7.7460935,0.597656 a 0.64574372,0.66473041 0 0 0 -0.6464844,0.664062 0.64574372,0.66473041 0 0 0 0.6464844,0.664063 0.64574372,0.66473041 0 0 0 0.6445313,-0.664063 0.64574372,0.66473041 0 0 0 -0.6445313,-0.664062 z m 10.3281245,0 a 0.64574365,0.66473041 0 0 0 -0.644531,0.664062 0.64574365,0.66473041 0 0 0 0.644531,0.664063 0.64574365,0.66473041 0 0 0 0.646485,-0.664063 0.64574365,0.66473041 0 0 0 -0.646485,-0.664062 z"
       id="ellipse4331"
       inkscape:connector-curvature="0" />
  </g>
</svg>
