<?xml version="1.0" encoding="UTF-8" standalone="no"?>
<svg
   xmlns:dc="http://purl.org/dc/elements/1.1/"
   xmlns:cc="http://creativecommons.org/ns#"
   xmlns:rdf="http://www.w3.org/1999/02/22-rdf-syntax-ns#"
   xmlns:svg="http://www.w3.org/2000/svg"
   xmlns="http://www.w3.org/2000/svg"
   xmlns:sodipodi="http://sodipodi.sourceforge.net/DTD/sodipodi-0.dtd"
   xmlns:inkscape="http://www.inkscape.org/namespaces/inkscape"
   height="16"
   viewBox="0 0 4.2333332 4.2333332"
   width="16"
   version="1.1"
   id="svg8"
   sodipodi:docname="package-downgrade.svg"
   inkscape:version="0.92+devel (262af300f2, 2017-08-19, custom)">
  <defs
     id="defs10" />
  <sodipodi:namedview
     id="namedview2"
     inkscape:document-rotation="0"
     showgrid="false"
     pagecolor="#002466"
     inkscape:pageopacity="0"
     borderlayer="true"
     inkscape:showpageshadow="false"
     bordercolor="#ffffff"
     borderopacity="0.12941176"
     inkscape:zoom="22.96875"
     inkscape:cx="7.9346939"
     inkscape:cy="8"
     inkscape:window-width="1920"
     inkscape:window-height="1023"
     inkscape:window-x="0"
     inkscape:window-y="28"
     inkscape:window-maximized="1"
     inkscape:current-layer="svg8" />
  <metadata
     id="metadata4">
    <rdf:RDF>
      <cc:Work>
        <dc:format>image/svg+xml			</dc:format>
        <dc:type
           rdf:resource="http://purl.org/dc/dcmitype/StillImage" />
        <dc:title></dc:title>
      </cc:Work>
    </rdf:RDF>
  </metadata>
  <g
     id="g890"
     inkscape:label="#package-downgrade">
    <path
       inkscape:label="#boundary"
       id="path6"
       stroke-width=".25455"
       stroke-linecap="round"
       fill="none"
       d="M 0,0 H 4.2333332 V 4.2333332 H 0 Z"
       inkscape:connector-curvature="0" />
    <path
       inkscape:label="#"
       inkscape:connector-curvature="0"
       id="rect9"
       d="M 1.0299114,0.5291667 0.52916675,1.3395823 H 2.0550425 V 0.5291667 Z m 1.2038024,0 V 1.3395823 H 3.7041664 L 3.203422,0.5291667 Z M 0.52916675,1.5159281 V 3.7041665 H 3.7041664 V 1.5159281 Z M 1.9488475,1.832963 1.9410965,2.1228678 A 1.064363,1.122769 75 0 1 2.8177867,2.8856119 1.064363,1.122769 75 0 1 2.8286386,3.3611641 1.064363,1.122769 75 0 0 2.8251504,3.3441104 1.064363,1.122769 75 0 0 1.9294687,2.5790408 L 1.9197795,2.9522744 1.5946055,2.6639201 1.2698192,2.3755654 1.6093333,2.1042642 Z"
       style="opacity:0.93199978;fill:#ff6600;stroke-width:0.29999998" />
  </g>
</svg>
