<?xml version="1.0" encoding="UTF-8" standalone="no"?>
<svg
   xmlns:dc="http://purl.org/dc/elements/1.1/"
   xmlns:cc="http://creativecommons.org/ns#"
   xmlns:rdf="http://www.w3.org/1999/02/22-rdf-syntax-ns#"
   xmlns:svg="http://www.w3.org/2000/svg"
   xmlns="http://www.w3.org/2000/svg"
   xmlns:sodipodi="http://sodipodi.sourceforge.net/DTD/sodipodi-0.dtd"
   xmlns:inkscape="http://www.inkscape.org/namespaces/inkscape"
   height="16"
   viewBox="0 0 4.2333332 4.2333332"
   width="16"
   version="1.1"
   id="svg8"
   sodipodi:docname="package-upgrade.svg"
   inkscape:version="0.92+devel (262af300f2, 2017-08-19, custom)">
  <defs
     id="defs10" />
  <sodipodi:namedview
     id="namedview2"
     inkscape:document-rotation="0"
     showgrid="false"
     pagecolor="#002466"
     inkscape:pageopacity="0"
     borderlayer="true"
     inkscape:showpageshadow="false"
     bordercolor="#ffffff"
     borderopacity="0.12941176"
     inkscape:zoom="22.96875"
     inkscape:cx="7.9346939"
     inkscape:cy="8"
     inkscape:window-width="1920"
     inkscape:window-height="1023"
     inkscape:window-x="0"
     inkscape:window-y="28"
     inkscape:window-maximized="1"
     inkscape:current-layer="svg8" />
  <metadata
     id="metadata4">
    <rdf:RDF>
      <cc:Work>
        <dc:format>image/svg+xml			</dc:format>
        <dc:type
           rdf:resource="http://purl.org/dc/dcmitype/StillImage" />
        <dc:title></dc:title>
      </cc:Work>
    </rdf:RDF>
  </metadata>
  <g
     id="g865"
     inkscape:label="#package-upgrade">
    <path
       inkscape:label="#boundary"
       id="path6"
       stroke-width=".25455"
       stroke-linecap="round"
       fill="none"
       d="M 0,0 H 4.2333332 V 4.2333332 H 0 Z"
       inkscape:connector-curvature="0" />
    <path
       inkscape:connector-curvature="0"
       inkscape:label="#"
       id="rect9"
       d="M 1.0299113,0.5291667 0.5291667,1.3391947 H 2.05543 v -0.810028 z m 1.2038024,0 v 0.810028 H 3.7041665 L 3.2034218,0.5291667 Z M 0.5291667,1.5159281 V 3.7041665 H 3.7041665 V 1.5159281 Z m 1.8328338,0.240683 0.1410766,0.024417 0.011239,0.1445648 a 0.37931933,0.37931933 0 0 1 0.06705,0.042633 l 0.1360382,-0.051547 0.082165,0.1170471 -0.093793,0.1100709 a 0.37931933,0.37931933 0 0 1 0.017054,0.077902 l 0.1325499,0.059299 -0.024417,0.1410766 -0.1445647,0.01124 a 0.37931933,0.37931933 0 0 1 -0.043021,0.067438 l 0.051936,0.13565 -0.1170468,0.082165 -0.1100708,-0.093793 a 0.37931933,0.37931933 0 0 1 -0.077902,0.017441 L 2.3309946,2.7743784 2.189918,2.7499612 2.1782908,2.6053965 a 0.37931933,0.37931933 0 0 1 -0.06705,-0.042633 l -0.1356506,0.051547 -0.082553,-0.117047 0.093793,-0.1100708 a 0.37931933,0.37931933 0 0 1 -0.017053,-0.077902 l -0.1321625,-0.059299 0.024417,-0.1410766 0.1445648,-0.01124 a 0.37931933,0.37931933 0 0 1 0.042633,-0.06705 l -0.051547,-0.1360382 0.1170472,-0.082553 0.1100708,0.09418 a 0.37931933,0.37931933 0 0 1 0.077902,-0.017053 z M 2.3464975,2.1174418 A 0.14825338,0.14825338 0 0 0 2.2003824,2.2403025 0.14825338,0.14825338 0 0 0 2.3209177,2.4116098 0.14825338,0.14825338 0 0 0 2.4926126,2.290687 0.14825338,0.14825338 0 0 0 2.3716898,2.1193796 0.14825338,0.14825338 0 0 0 2.3464975,2.1174418 Z m -0.5829101,0.3852477 0.1174347,0.022092 0.00736,0.1205351 a 0.31602182,0.31602182 0 0 1 0.055423,0.036432 l 0.1135589,-0.041083 0.06705,0.098831 -0.07984,0.090304 a 0.31602182,0.31602182 0 0 1 0.013565,0.065112 l 0.1092957,0.05116 -0.022479,0.117047 -0.1201477,0.00775 a 0.31602182,0.31602182 0 0 1 -0.036432,0.055424 l 0.040695,0.1135589 -0.098444,0.06705 -0.090305,-0.07984 A 0.31602182,0.31602182 0 0 1 1.77521,3.2406275 L 1.72405,3.3499231 1.6066153,3.3278311 1.5992553,3.2072958 a 0.31602182,0.31602182 0 0 1 -0.055423,-0.03682 l -0.1139465,0.04147 -0.066663,-0.098831 0.07984,-0.090692 a 0.31602182,0.31602182 0 0 1 -0.013176,-0.064722 l -0.1096833,-0.051547 0.022092,-0.1170471 0.1205353,-0.00775 a 0.31602182,0.31602182 0 0 1 0.03682,-0.055035 l -0.04147,-0.1139466 0.098444,-0.06705 0.090692,0.080228 a 0.31602182,0.31602182 0 0 1 0.065112,-0.01318 z M 2.6515176,2.7305826 2.778254,2.7813546 2.76275,2.8778606 a 0.22978754,0.22978754 0 0 1 0.018603,0.020541 0.22978754,0.22978754 0 0 1 0.015504,0.023255 l 0.097281,0.00775 0.01899,0.1352632 -0.090692,0.034882 a 0.22978754,0.22978754 0 0 1 -0.020929,0.051547 l 0.04147,0.087979 -0.1073577,0.084491 -0.075189,-0.061624 a 0.22978754,0.22978754 0 0 1 -0.055423,0.00775 l -0.055423,0.080228 -0.1267365,-0.05116 0.015503,-0.096118 a 0.22978754,0.22978754 0 0 1 -0.018603,-0.020541 0.22978754,0.22978754 0 0 1 -0.015891,-0.023255 l -0.096893,-0.00775 -0.019379,-0.1356506 0.09108,-0.034494 a 0.22978754,0.22978754 0 0 1 0.020929,-0.051547 l -0.041858,-0.087979 0.1077453,-0.084491 0.075189,0.061624 a 0.22978754,0.22978754 0 0 1 0.055035,-0.00775 z m -0.9073088,0.072089 a 0.12351415,0.12351415 0 0 0 -0.069763,0.021317 0.12351415,0.12351415 0 0 0 -0.032944,0.1716951 0.12351415,0.12351415 0 0 0 0.1716949,0.032556 0.12351415,0.12351415 0 0 0 0.032556,-0.1713073 0.12351415,0.12351415 0 0 0 -0.1015439,-0.054261 z m 0.8495605,0.1348756 a 0.10290925,0.10290925 0 0 0 -0.056586,0.021704 0.10290925,0.10290925 0 0 0 -0.017828,0.1445646 0.10290925,0.10290925 0 0 0 0.1445647,0.017441 0.10290925,0.10290925 0 0 0 0.017441,-0.1445649 0.10290925,0.10290925 0 0 0 -0.077127,-0.039145 0.10290925,0.10290925 0 0 0 -0.010465,3e-7 z"
       style="opacity:0.93199978;fill:#00ff00;stroke-width:0.29999998" />
  </g>
</svg>
