<?xml version="1.0" encoding="UTF-8" standalone="no"?>
<svg
   xmlns:dc="http://purl.org/dc/elements/1.1/"
   xmlns:cc="http://creativecommons.org/ns#"
   xmlns:rdf="http://www.w3.org/1999/02/22-rdf-syntax-ns#"
   xmlns:svg="http://www.w3.org/2000/svg"
   xmlns="http://www.w3.org/2000/svg"
   xmlns:sodipodi="http://sodipodi.sourceforge.net/DTD/sodipodi-0.dtd"
   xmlns:inkscape="http://www.inkscape.org/namespaces/inkscape"
   height="16"
   viewBox="0 0 16 16"
   width="16"
   version="1.1"
   id="svg14"
   sodipodi:docname="zoom-out.svg"
   inkscape:version="0.92+devel (262af300f2, 2017-08-19, custom)">
  <defs
     id="defs16" />
  <sodipodi:namedview
     id="namedview2"
     inkscape:document-rotation="0"
     showgrid="false"
     pagecolor="#002466"
     inkscape:pageopacity="0"
     borderlayer="true"
     inkscape:showpageshadow="false"
     bordercolor="#ffffff"
     borderopacity="0.3254902"
     inkscape:zoom="11.484375"
     inkscape:cx="7.9346939"
     inkscape:cy="8"
     inkscape:window-width="1920"
     inkscape:window-height="1023"
     inkscape:window-x="0"
     inkscape:window-y="28"
     inkscape:window-maximized="1"
     inkscape:current-layer="svg14" />
  <metadata
     id="metadata4">
    <rdf:RDF>
      <cc:Work>
        <dc:format>image/svg+xml			</dc:format>
        <dc:type
           rdf:resource="http://purl.org/dc/dcmitype/StillImage" />
        <dc:title></dc:title>
      </cc:Work>
    </rdf:RDF>
  </metadata>
  <g
     id="g12"
     inkscape:label="#zoom-out"
     style="stroke-width:1">
    <rect
       fill="none"
       height="16"
       stroke-linecap="round"
       stroke-width="2.181818"
       width="16"
       id="rect6"
       x="0"
       y="0"
       inkscape:label="#boundary" />
    <path
       d="M 12.74226,3.2788403 C 11.033202,1.5731378 8.2400137,1.5740119 6.5309551,3.2797131 5.0528378,4.7549281 4.8550827,7.0378066 5.9337309,8.7315737 L 2.2785797,12.379547 a 0.95110648,0.949239 0 0 0 1e-7,1.342427 0.95110648,0.949239 0 0 0 1.3450676,0 l 3.6569028,-3.649722 c 1.6108639,1.013681 3.7436328,0.852278 5.2208938,-0.4352398 a 0.7317608,0.73032401 0 0 0 0.23994,-0.159065 0.7317608,0.73032401 0 0 0 0.161126,-0.241218 0.7317608,0.73032401 0 0 0 8.73e-4,-0.0027 C 14.402684,7.5166156 14.379374,4.9127354 12.742251,3.2788276 Z m -1.035072,1.0330393 c 1.149776,1.1475178 1.149776,2.9863878 0,4.1339051 -1.149775,1.1475185 -2.9922623,1.1475175 -4.142037,0 -1.1497752,-1.1475172 -1.1497751,-2.9863874 0,-4.1339049 1.1497753,-1.1475176 2.992262,-1.1475176 4.142037,-2e-7 z"
       fill="#fff"
       opacity=".6"
       id="path8"
       inkscape:connector-curvature="0"
       inkscape:label="#"
       style="stroke-width:1" />
    <path
       d="M 7.3450354,5.7735266 V 6.9540001 H 11.845036 V 5.7735266 Z"
       fill="#0f0"
       stroke-linecap="square"
       stroke-width="1.5"
       id="path10"
       inkscape:connector-curvature="0"
       inkscape:label="#"
       sodipodi:nodetypes="ccccc"
       style="fill:#ff0000" />
  </g>
</svg>
