<?xml version="1.0" encoding="UTF-8" standalone="no"?>
<!-- Created with Inkscape (http://www.inkscape.org/) -->

<svg xmlns:dc="http://purl.org/dc/elements/1.1/" xmlns:cc="http://creativecommons.org/ns#" xmlns:rdf="http://www.w3.org/1999/02/22-rdf-syntax-ns#" xmlns:svg="http://www.w3.org/2000/svg" xmlns="http://www.w3.org/2000/svg" xmlns:sodipodi="http://sodipodi.sourceforge.net/DTD/sodipodi-0.dtd" xmlns:inkscape="http://www.inkscape.org/namespaces/inkscape" width="16" height="16" viewBox="0 0 16 16" version="1.1" id="main" inkscape:version="0.92+devel (8ef6761023, 2017-10-07, custom)" sodipodi:docname="16x16-icon.svg">
  <defs id="ol-defs" />
  <sodipodi:namedview id="base" pagecolor="#002466" bordercolor="#ffffff" borderopacity="0.30" inkscape:pageopacity="1" inkscape:pageshadow="2" inkscape:zoom="37.1673" inkscape:document-units="px" inkscape:current-layer="main" inkscape:document-rotation="0" showgrid="false" inkscape:showpageshadow="false" borderlayer="true" inkscape:window-width="1920" inkscape:window-height="1029" inkscape:window-x="0" inkscape:window-y="22" inkscape:window-maximized="1" units="px" inkscape:cx="6.7489001" inkscape:cy="5.6323703" />
  <metadata id="metadata5">
    <rdf:RDF>
      <cc:Work rdf:about="">
        <dc:format>image/svg+xml</dc:format>
        <dc:type rdf:resource="http://purl.org/dc/dcmitype/StillImage" />
        <dc:title></dc:title>
      </cc:Work>
    </rdf:RDF>
  </metadata>
  <g id="g848" style="stroke:none" inkscape:label="#newpolar">
    <path style="fill:none;stroke:none" d="M -5.5000004e-8,-4.9999999e-8 H 16.000001 V 16 H -5.5000004e-8 Z" id="boundary" inkscape:label="#boundary" inkscape:connector-curvature="0" />
    <path inkscape:connector-curvature="0" style="opacity:0.6;fill:#d0d0d0;stroke:none;stroke-width:0.89999992" d="M 7.4275308,1.9770397 6.1091714,4.2602426 h 0.8183594 v 3.658203 H 1.837687 v 1 H 6.9275308 V 13.97704 h 1 V 8.9184456 h 3.6269532 v 0.81836 l 2.283203,-1.31836 -2.283203,-1.318359 v 0.818359 H 7.9275308 v -3.658203 h 0.8183593 z" id="rect811" inkscape:label="#" />
    <path inkscape:transform-center-y="-0.68548549" inkscape:transform-center-x="0.30636661" inkscape:connector-curvature="0" id="path818" d="M 3.9211552,7.1650863 C 3.3760565,8.6430795 3.6767683,10.387921 4.9304556,11.499782 6.3220604,12.733957 8.5709464,12.738661 9.821181,11.268053 10.826607,10.085403 10.81307,8.191238 9.539998,7.175594 8.5666065,6.3990322 7.0225188,6.4315027 6.24644,7.5137319 5.9725062,7.8957277 5.8523376,8.371382 5.9058504,8.8320588 5.9593631,9.2927361 6.2054625,9.7496996 6.658874,10.011147 6.9382619,10.172249 7.2727343,10.226562 7.59759,10.158277 7.9224459,10.089992 8.2567305,9.8529927 8.3614418,9.4660952 8.4300446,9.212614 8.3690337,9.0296556 8.2429771,8.8342062 8.179949,8.7364812 8.0829907,8.6266023 7.9160519,8.5831951 7.7491129,8.5397892 7.5550788,8.6103675 7.4372814,8.7178352 a 0.33048487,0.33048487 0 0 0 -0.020754,0.4672309 0.33048487,0.33048487 0 0 0 0.3038689,0.1016505 c 0.00101,-0.00238 0.00124,0.011047 0.00236,0.00691 C 7.6863517,9.4281513 7.6117574,9.4795046 7.462268,9.5109271 7.3127783,9.5423495 7.1079232,9.5084137 6.9883065,9.4394177 6.7279908,9.2893129 6.5966254,9.0466036 6.5628836,8.7561299 6.5291417,8.4656562 6.6113437,8.1393188 6.7833734,7.8994265 7.3162333,7.1563619 8.4279881,7.1339146 9.1281732,7.692516 10.085716,8.456433 10.095897,9.9249392 9.3179945,10.839959 8.3240901,12.009055 6.4964285,12.004483 5.369001,11.0046 3.9896989,9.7813343 4.0083737,7.5937196 5.2318603,6.255194 6.6841039,4.6664022 9.2340295,4.7008717 10.782858,6.1490071 a 0.33048487,0.33048487 0 0 0 0.46638,-0.015613 0.33048487,0.33048487 0 0 0 -0.01504,-0.4675404 C 9.4253075,3.9745655 6.4581439,3.9345362 4.7447044,5.8090829 4.3790071,6.209165 4.1028547,6.6724218 3.9211552,7.1650863 Z" style="color:#000000;font-style:normal;font-variant:normal;font-weight:normal;font-stretch:normal;font-size:medium;line-height:normal;font-family:sans-serif;font-variant-ligatures:normal;font-variant-position:normal;font-variant-caps:normal;font-variant-numeric:normal;font-variant-alternates:normal;font-variant-east-asian:normal;font-feature-settings:normal;font-variation-settings:normal;text-indent:0;text-align:start;text-decoration:none;text-decoration-line:none;text-decoration-style:solid;text-decoration-color:#000000;letter-spacing:normal;word-spacing:normal;text-transform:none;writing-mode:lr-tb;direction:ltr;text-orientation:mixed;dominant-baseline:auto;baseline-shift:baseline;text-anchor:start;white-space:normal;shape-padding:0;clip-rule:nonzero;display:inline;overflow:visible;visibility:visible;opacity:1;isolation:auto;mix-blend-mode:normal;color-interpolation:sRGB;color-interpolation-filters:linearRGB;solid-color:#000000;solid-opacity:1;vector-effect:none;fill:#00ff00;fill-opacity:1;fill-rule:evenodd;stroke:none;stroke-width:1;stroke-linecap:round;stroke-linejoin:miter;stroke-miterlimit:4;stroke-dasharray:none;stroke-dashoffset:0;stroke-opacity:1;color-rendering:auto;image-rendering:auto;shape-rendering:auto;text-rendering:auto;enable-background:accumulate" inkscape:label="#" />
  </g>
</svg>
