<?xml version="1.0" encoding="UTF-8" standalone="no"?>
<!-- Created with Inkscape (http://www.inkscape.org/) -->

<svg
   xmlns:dc="http://purl.org/dc/elements/1.1/"
   xmlns:cc="http://creativecommons.org/ns#"
   xmlns:rdf="http://www.w3.org/1999/02/22-rdf-syntax-ns#"
   xmlns:svg="http://www.w3.org/2000/svg"
   xmlns="http://www.w3.org/2000/svg"
   xmlns:sodipodi="http://sodipodi.sourceforge.net/DTD/sodipodi-0.dtd"
   xmlns:inkscape="http://www.inkscape.org/namespaces/inkscape"
   width="16"
   height="16"
   viewBox="0 0 16 16"
   version="1.1"
   id="main"
   inkscape:version="0.92+devel (42c84a5464, 2017-09-20, custom)"
   sodipodi:docname="22x22-icon.svg">
  <defs
     id="ol-defs" />
  <sodipodi:namedview
     id="base"
     pagecolor="#002466"
     bordercolor="#ffffff"
     borderopacity="0.30"
     inkscape:pageopacity="1"
     inkscape:pageshadow="2"
     inkscape:zoom="26.28125"
     inkscape:document-units="px"
     inkscape:current-layer="main"
     inkscape:document-rotation="0"
     showgrid="false"
     inkscape:showpageshadow="false"
     borderlayer="true"
     inkscape:window-width="1920"
     inkscape:window-height="1017"
     inkscape:window-x="0"
     inkscape:window-y="34"
     inkscape:window-maximized="1"
     units="px"
     inkscape:cx="14.032105"
     inkscape:cy="10.391837" />
  <metadata
     id="metadata5">
    <rdf:RDF>
      <cc:Work
         rdf:about="">
        <dc:format>image/svg+xml</dc:format>
        <dc:type
           rdf:resource="http://purl.org/dc/dcmitype/StillImage" />
        <dc:title></dc:title>
      </cc:Work>
    </rdf:RDF>
  </metadata>
  <g
     id="g825"
     inkscape:label="#format-list-unordered"
     style="stroke:none;stroke-width:1.375"
     transform="scale(0.72727273)">
    <path
       style="fill:none;stroke:none;stroke-width:1.375"
       d="M 0,0 H 22.000001 V 22 H 0 Z"
       id="boundary"
       inkscape:label="#boundary"
       inkscape:connector-curvature="0" />
    <path
       inkscape:label="#"
       id="rect812"
       d="M 4.421875,3 A 1.4226339,1.4226339 0 0 0 3,4.421875 1.4226339,1.4226339 0 0 0 4.421875,5.84375 1.4226339,1.4226339 0 0 0 5.8457031,4.421875 1.4226339,1.4226339 0 0 0 4.421875,3 Z M 9,3.921875 v 1 h 10 v -1 z M 4.421875,9.578125 A 1.4226339,1.4226339 0 0 0 3,11 1.4226339,1.4226339 0 0 0 4.421875,12.421875 1.4226339,1.4226339 0 0 0 5.8457031,11 1.4226339,1.4226339 0 0 0 4.421875,9.578125 Z M 9,10.5 v 1 h 10 v -1 z M 4.421875,16.15625 A 1.4226339,1.4226339 0 0 0 3,17.578125 1.4226339,1.4226339 0 0 0 4.421875,19 1.4226339,1.4226339 0 0 0 5.8457031,17.578125 1.4226339,1.4226339 0 0 0 4.421875,16.15625 Z M 9,17.078125 v 1 h 10 v -1 z"
       style="opacity:0.6;fill:#d0d0d0;stroke:none;stroke-width:1.375"
       inkscape:connector-curvature="0" />
  </g>
</svg>
