<?xml version="1.0" encoding="UTF-8" standalone="no"?>
<!-- Created with Inkscape (http://www.inkscape.org/) -->

<svg
   xmlns:dc="http://purl.org/dc/elements/1.1/"
   xmlns:cc="http://creativecommons.org/ns#"
   xmlns:rdf="http://www.w3.org/1999/02/22-rdf-syntax-ns#"
   xmlns:svg="http://www.w3.org/2000/svg"
   xmlns="http://www.w3.org/2000/svg"
   xmlns:sodipodi="http://sodipodi.sourceforge.net/DTD/sodipodi-0.dtd"
   xmlns:inkscape="http://www.inkscape.org/namespaces/inkscape"
   width="16"
   height="16"
   viewBox="0 0 16 16"
   version="1.1"
   id="main"
   inkscape:version="0.92+devel (42c84a5464, 2017-09-20, custom)"
   sodipodi:docname="tag-recents.svg">
  <defs
     id="ol-defs" />
  <sodipodi:namedview
     id="base"
     pagecolor="#002466"
     bordercolor="#ffffff"
     borderopacity="0.30"
     inkscape:pageopacity="1"
     inkscape:pageshadow="2"
     inkscape:zoom="13.140625"
     inkscape:document-units="px"
     inkscape:current-layer="main"
     inkscape:document-rotation="0"
     showgrid="false"
     inkscape:showpageshadow="false"
     borderlayer="true"
     inkscape:window-width="1920"
     inkscape:window-height="1017"
     inkscape:window-x="0"
     inkscape:window-y="34"
     inkscape:window-maximized="1"
     units="px"
     inkscape:cx="6.823088"
     inkscape:cy="8.0269055" />
  <metadata
     id="metadata5">
    <rdf:RDF>
      <cc:Work
         rdf:about="">
        <dc:format>image/svg+xml</dc:format>
        <dc:type
           rdf:resource="http://purl.org/dc/dcmitype/StillImage" />
        <dc:title></dc:title>
      </cc:Work>
    </rdf:RDF>
  </metadata>
  <g
     id="g880"
     inkscape:label="#tag-recents"
     style="stroke:none;stroke-width:1.375"
     transform="scale(0.72727273)">
    <path
       style="fill:none;stroke:none;stroke-width:1.375"
       d="M 0,0 H 22.000001 V 22 H 0 Z"
       id="boundary"
       inkscape:label="#boundary"
       inkscape:connector-curvature="0" />
    <path
       inkscape:label="#"
       inkscape:connector-curvature="0"
       id="path844"
       d="M 4.7959928,3 3.0021672,4.7938256 3.9106344,11.108323 11.802312,19 18.997835,11.804477 11.106157,3.9128001 Z m 1.268099,1.871818 a 1.1779989,1.1779989 0 0 1 0.8145874,0.346633 1.1779989,1.1779989 0 0 1 0,1.662394 1.1779989,1.1779989 0 0 1 -1.6623939,0.00144 1.1779989,1.1779989 0 0 1 -0.00289,-1.6667269 1.1779989,1.1779989 0 0 1 0.8506951,-0.3437444 z m 5.6544502,3.479328 a 3.3209825,3.3209825 0 0 1 3.3219,3.320455 3.3209825,3.3209825 0 0 1 -3.3219,3.321899 3.3209825,3.3209825 0 0 1 -3.3204549,-3.321899 3.3209825,3.3209825 0 0 1 3.3204549,-3.320455 z m -0.039,0.55028 c -0.228497,0.01595 -0.405453,0.247711 -0.375518,0.472288 10e-4,0.862293 -0.0022,1.724508 0.0015,2.586748 0.01579,0.190714 0.182603,0.353996 0.37263,0.369742 l 1.818379,0.498285 c 0.272301,0.05148 0.542043,-0.227963 0.472287,-0.498285 -0.03843,-0.177587 -0.198822,-0.309705 -0.375519,-0.333634 l -1.458779,-0.389963 c -0.0013,-0.777433 0.003,-1.555188 -0.0015,-2.33255 -0.0184,-0.219149 -0.235513,-0.395015 -0.453511,-0.372631 z"
       style="opacity:0.6;fill:#ffffff;stroke:none;stroke-width:1.375" />
  </g>
</svg>
