<?xml version="1.0" encoding="UTF-8" standalone="no"?>
<!-- Created with Inkscape (http://www.inkscape.org/) -->

<svg xmlns:dc="http://purl.org/dc/elements/1.1/" xmlns:cc="http://creativecommons.org/ns#" xmlns:rdf="http://www.w3.org/1999/02/22-rdf-syntax-ns#" xmlns:svg="http://www.w3.org/2000/svg" xmlns="http://www.w3.org/2000/svg" xmlns:sodipodi="http://sodipodi.sourceforge.net/DTD/sodipodi-0.dtd" xmlns:inkscape="http://www.inkscape.org/namespaces/inkscape" width="16" height="16" viewBox="0 0 16 16" version="1.1" id="main" inkscape:version="0.92+devel (8ef6761023, 2017-10-07, custom)" sodipodi:docname="babelfish.svg">
  <defs id="ol-defs" />
  <sodipodi:namedview id="base" pagecolor="#002466" bordercolor="#ffffff" borderopacity="0.30" inkscape:pageopacity="1" inkscape:pageshadow="2" inkscape:zoom="37.1673" inkscape:document-units="px" inkscape:current-layer="main" inkscape:document-rotation="0" showgrid="false" inkscape:showpageshadow="false" borderlayer="true" inkscape:window-width="1920" inkscape:window-height="1029" inkscape:window-x="0" inkscape:window-y="22" inkscape:window-maximized="1" units="px" inkscape:cx="6.7489001" inkscape:cy="8.0269054" />
  <metadata id="metadata5">
    <rdf:RDF>
      <cc:Work rdf:about="">
        <dc:format>image/svg+xml</dc:format>
        <dc:type rdf:resource="http://purl.org/dc/dcmitype/StillImage" />
        <dc:title></dc:title>
      </cc:Work>
    </rdf:RDF>
  </metadata>
  <g id="g880" sodipodi:insensitive="true" inkscape:label="#babelfish">
    <path inkscape:connector-curvature="0" inkscape:label="#boundary" id="boundary" d="M -5e-7,-1.5e-7 H 16 V 16 H -5e-7 Z" style="fill:none;stroke:none" />
    <path sodipodi:nodetypes="sccccsccccccccssssss" inkscape:connector-curvature="0" id="path2" d="m 7.648756,3.0536598 c 0.585547,-0.2454724 1.481623,-0.2121915 1.943275,0.4004357 0.0027,0.7327598 -0.540721,1.4744262 0.43297,2.3586982 0.419957,0.321314 0.827806,0.641889 1.199999,0.95625 0.692811,-0.677529 1.732619,-1.48125 2.775,-1.48125 0,0 -0.6,1.5 -0.6,3.0000004 0,1.5 0.6,2.9999999 0.6,2.9999999 -1.10664,0 -2.217897,-0.913632 -2.90625,-1.6124999 -0.729747,0.5237859 -1.566982,1.0862239 -2.362499,1.5187499 -0.05317,0.563185 0.117824,1.199228 0.46875,1.89375 -0.691553,-0.04573 -1.180069,0.197374 -2.4,-0.6 l -0.31875,-0.61875 C 4.681027,11.742527 2.5665,10.553795 2,8.2877941 2.515044,6.2276167 4.474324,4.4803394 6.638165,4.4652327 c 0,0 0.398512,-1.154978 1.010591,-1.4115729 z M 4.4,7.0877937 c -0.36,0 -0.6,0.24 -0.6,0.6000004 0,0.36 0.24,0.6 0.6,0.6 0.36,0 0.6,-0.24 0.6,-0.6 C 5,7.3277937 4.76,7.0877937 4.4,7.0877937 Z" style="opacity:0.6;fill:#d0d0d0;stroke-width:1" inkscape:label="#" />
  </g>
</svg>
