<?xml version="1.0" encoding="UTF-8" standalone="no"?>
<svg height="16" viewBox="0 0 16 16" width="16" xmlns="http://www.w3.org/2000/svg">
	<sodipodi:namedview/>
	<metadata>
		<rdf:RDF>
			<cc:Work>
				<dc:format>image/svg+xml			</dc:format>
			<dc:type/>
			<dc:title/>
		</cc:Work>
	</rdf:RDF>
</metadata>
<g transform="scale(.72727273)">
	<rect fill="none" height="22" stroke-linecap="round" stroke-width="3" width="22"/>
	<path d="M 8 2.1816406 C 7.2924313 4.6580286 5.5604029 6.7878209 4.796875 8.4921875 C 4.5296718 8.99893 4.3632813 9.5667893 4.3632812 10.181641 c 0 2.014547 1.6221717 3.636718 3.6367188 3.636718 c 2.014546 0 3.636719 -1.622171 3.636719 -3.636718 c 0 -.6148517 -.166392 -1.182711 -.433594 -1.6894535 C 10.439597 6.7878209 8.7075615 4.6580286 8 2.1816406 Z M 7.7246094 8.078125 H 8.28125 V 8.5429688 A 1.818638 1.818638 0 0 1 9.0722656 8.8730469 L 9.4023438 8.5429688 L 9.7988281 8.9394531 L 9.46875 9.2695312 A 1.818638 1.818638 0 0 1 9.7988281 10.0625 h .4648439 v .556641 H 9.7988281 A 1.818638 1.818638 0 0 1 9.46875 11.412109 L 9.7988281 11.742188 L 9.4023438 12.136719 L 9.0722656 11.808594 A 1.818638 1.818638 0 0 1 8.28125 12.136719 v .464843 H 7.7246094 V 12.136719 A 1.818638 1.818638 0 0 1 6.9316406 11.808594 L 6.6015625 12.136719 L 6.2050781 11.742188 L 6.5351562 11.412109 A 1.818638 1.818638 0 0 1 6.2050781 10.619141 H 5.7402344 V 10.0625 H 6.2050781 A 1.818638 1.818638 0 0 1 6.5351562 9.2695312 L 6.2050781 8.9394531 L 6.6015625 8.5429688 L 6.9316406 8.8730469 A 1.818638 1.818638 0 0 1 7.7246094 8.5429688 Z" fill="#d0d0d0" opacity=".6" transform="scale(1.375)"/>
</g>
</svg>
