<?xml version="1.0" encoding="UTF-8" standalone="no"?>
<!-- Created with Inkscape (http://www.inkscape.org/) -->

<svg xmlns:dc="http://purl.org/dc/elements/1.1/" xmlns:cc="http://creativecommons.org/ns#" xmlns:rdf="http://www.w3.org/1999/02/22-rdf-syntax-ns#" xmlns:svg="http://www.w3.org/2000/svg" xmlns="http://www.w3.org/2000/svg" xmlns:sodipodi="http://sodipodi.sourceforge.net/DTD/sodipodi-0.dtd" xmlns:inkscape="http://www.inkscape.org/namespaces/inkscape" width="16" height="16" viewBox="0 0 16 16" version="1.1" id="main" inkscape:version="0.92+devel (f318dbfe43, 2017-10-09, custom)" sodipodi:docname="default.svg">
  <sodipodi:namedview id="base" pagecolor="#002466" bordercolor="#ffffff" borderopacity="0.30" inkscape:pageopacity="1" inkscape:pageshadow="2" inkscape:zoom="18.58365" inkscape:document-units="px" inkscape:current-layer="main" inkscape:document-rotation="0" showgrid="false" inkscape:showpageshadow="false" borderlayer="true" inkscape:window-width="1920" inkscape:window-height="1027" inkscape:window-x="0" inkscape:window-y="24" inkscape:window-maximized="1" units="px" inkscape:cx="6.7489001" inkscape:cy="8.0269054" />
  <metadata id="metadata5">
    <rdf:RDF>
      <cc:Work rdf:about="">
        <dc:format>image/svg+xml</dc:format>
        <dc:type rdf:resource="http://purl.org/dc/dcmitype/StillImage" />
        <dc:title></dc:title>
      </cc:Work>
    </rdf:RDF>
  </metadata>
  <defs id="ol-defs" />
  <g id="g863" inkscape:label="#rocsadvancedsetup" style="stroke:none">
    <path style="fill:none;stroke:none" d="M -5.5000004e-8,-4.9999999e-8 H 16.000001 V 16 H -5.5000004e-8 Z" id="boundary" inkscape:label="#boundary" inkscape:connector-curvature="0" />
    <path inkscape:label="#" id="rect857" d="M 3.1992188,2 C 2.5344187,2 2,2.5344187 2,3.1992188 V 12.800781 C 2,13.465581 2.5344187,14 3.1992188,14 H 12.800781 C 13.465581,14 14,13.465581 14,12.800781 V 3.1992188 C 14,2.5344187 13.465581,2 12.800781,2 Z m 6.1582031,1.5898438 0.7812501,0.1367187 0.0625,0.7988281 a 2.0995933,2.0995933 0 0 1 0.371094,0.2363282 l 0.751953,-0.2851563 0.457031,0.6464844 -0.521484,0.609375 a 2.0995933,2.0995933 0 0 1 0.0957,0.4316406 l 0.732422,0.328125 -0.134766,0.78125 -0.800781,0.0625 a 2.0995933,2.0995933 0 0 1 -0.236328,0.3730469 l 0.287109,0.75 L 10.554688,8.9160156 9.9472656,8.3964844 A 2.0995933,2.0995933 0 0 1 9.5136719,8.4921875 L 9.1855469,9.2246094 8.40625,9.0878906 8.3417969,8.2890625 A 2.0995933,2.0995933 0 0 1 7.96875,8.0527344 L 7.21875,8.3378906 6.7617188,7.6914062 7.28125,7.0800781 A 2.0995933,2.0995933 0 0 1 7.1875,6.6503906 L 6.4550781,6.3203125 6.5898438,5.5390625 7.390625,5.4785156 A 2.0995933,2.0995933 0 0 1 7.6269531,5.1054688 L 7.3398438,4.3535156 7.9882812,3.8984375 8.5976562,4.4179688 a 2.0995933,2.0995933 0 0 1 0.4316407,-0.09375 z M 9.2714844,5.5878906 A 0.82060627,0.82060627 0 0 0 8.4628906,6.2675781 0.82060627,0.82060627 0 0 0 9.1308594,7.2167969 0.82060627,0.82060627 0 0 0 10.080078,6.546875 0.82060627,0.82060627 0 0 0 9.4121094,5.5996094 0.82060627,0.82060627 0 0 0 9.2714844,5.5878906 Z M 6.046875,7.71875 6.6953125,7.8417969 6.7363281,8.5097656 a 1.7492314,1.7492314 0 0 1 0.3085938,0.203125 L 7.671875,8.484375 8.0429688,9.03125 l -0.4414063,0.5 a 1.7492314,1.7492314 0 0 1 0.074219,0.359375 l 0.6054688,0.285156 -0.1230469,0.648438 -0.6660156,0.04101 A 1.7492314,1.7492314 0 0 1 7.2890628,11.17187 L 7.515625,11.800781 6.9707031,12.171875 6.46875,11.730469 a 1.7492314,1.7492314 0 0 1 -0.359375,0.07422 L 5.8261719,12.410156 5.1777344,12.287109 5.1347656,11.621094 A 1.7492314,1.7492314 0 0 1 4.8300781,11.417969 L 4.1992188,11.644531 3.828125,11.099609 4.2714844,10.597656 a 1.7492314,1.7492314 0 0 1 -0.074219,-0.359375 l -0.6074218,-0.2832029 0.125,-0.6484375 0.6660156,-0.042969 A 1.7492314,1.7492314 0 0 1 4.5839844,8.9570312 L 4.3554688,8.328125 4.9003906,7.9570312 5.4023438,8.4003906 a 1.7492314,1.7492314 0 0 1 0.359375,-0.074219 z m 4.912109,1.2636719 0.703125,0.28125 -0.08594,0.5332031 a 1.2719109,1.2719109 0 0 1 0.103516,0.1152344 1.2719109,1.2719109 0 0 1 0.08594,0.1269526 l 0.537109,0.04297 0.107422,0.75 -0.503906,0.191407 a 1.2719109,1.2719109 0 0 1 -0.115234,0.285156 l 0.230468,0.488281 -0.595703,0.466797 -0.416015,-0.339844 a 1.2719109,1.2719109 0 0 1 -0.306641,0.04102 L 10.396484,12.410156 9.6933594,12.126953 9.78125,11.59375 A 1.2719109,1.2719109 0 0 1 9.6777344,11.480469 1.2719109,1.2719109 0 0 1 9.5898438,11.351562 l -0.5371094,-0.04297 -0.1054688,-0.75 0.5019532,-0.189453 a 1.2719109,1.2719109 0 0 1 0.1152343,-0.28711 L 9.3339844,9.5957031 9.9296875,9.1289062 10.345703,9.46875 A 1.2719109,1.2719109 0 0 1 10.652344,9.425781 Z M 5.9375,9.3808594 A 0.68367063,0.68367063 0 0 0 5.5507812,9.5 a 0.68367063,0.68367063 0 0 0 -0.1796874,0.949219 0.68367063,0.68367063 0 0 0 0.9492187,0.179687 0.68367063,0.68367063 0 0 0 0.1816406,-0.9492185 0.68367063,0.68367063 0 0 0 -0.5625,-0.2988281 0.68367063,0.68367063 0 0 1 -0.00195,0 z m 4.703125,0.7460936 a 0.56961918,0.56961918 0 0 0 -0.314453,0.119141 0.56961918,0.56961918 0 0 0 -0.0957,0.800781 0.56961918,0.56961918 0 0 0 0.798828,0.09766 0.56961918,0.56961918 0 0 0 0.09766,-0.800781 0.56961918,0.56961918 0 0 0 -0.429687,-0.216797 0.56961918,0.56961918 0 0 0 -0.05664,0 z" style="opacity:0.6;fill:#d0d0d0;stroke:none;stroke-width:1.5;stroke-linecap:round" inkscape:connector-curvature="0" />
  </g>
</svg>
