<?xml version="1.0" encoding="UTF-8" standalone="no"?>
<svg height="16" viewBox="0 0 4.2333332 4.2333332" width="16" xmlns="http://www.w3.org/2000/svg">
	<sodipodi:namedview/>
	<metadata>
		<rdf:RDF>
			<cc:Work>
				<dc:format>image/svg+xml			</dc:format>
			<dc:type/>
			<dc:title/>
		</cc:Work>
	</rdf:RDF>
</metadata>
<path d="M 0 0 H 4.2333332 V 4.2333332 H 0 Z" fill="none" stroke-linecap="round" stroke-width=".25455"/>
<g transform="matrix(.26458333 0 0 .26458333 0 -.000171)">
	<path d="m 9 5.4589844 v 4.9999996 h 5 V 5.4589844 Z m 7 0 v 4.9999996 h 5 V 5.4589844 Z M 9 12.458984 v 5 h 5 v -5 z" fill="#d0d0d0" opacity=".6" transform="translate(-7 -3.458338)"/>
	<path d="m 11.5 8.103591 c -.923334 0 -1.6666667 .743333 -1.6666667 1.666667 v .422676 H 9 V 14 h 5 V 10.192934 H 13.166667 V 9.770258 c 0 -.923334 -.743333 -1.666667 -1.666667 -1.666667 z m 0 .833334 c .461667 0 .833334 .371666 .833334 .833333 v .422676 H 10.666667 V 9.770258 c 0 -.461667 .371667 -.833333 .833333 -.833333 z" fill="#0f0" stroke-width=".281655"/>
</g>
</svg>
