<?xml version="1.0" encoding="UTF-8" standalone="no"?>
<!-- Created with Inkscape (http://www.inkscape.org/) -->

<svg xmlns:dc="http://purl.org/dc/elements/1.1/" xmlns:cc="http://creativecommons.org/ns#" xmlns:rdf="http://www.w3.org/1999/02/22-rdf-syntax-ns#" xmlns:svg="http://www.w3.org/2000/svg" xmlns="http://www.w3.org/2000/svg" xmlns:sodipodi="http://sodipodi.sourceforge.net/DTD/sodipodi-0.dtd" xmlns:inkscape="http://www.inkscape.org/namespaces/inkscape" width="16" height="16" viewBox="0 0 16 16" version="1.1" id="main" inkscape:version="0.92+devel (f318dbfe43, 2017-10-09, custom)" sodipodi:docname="document-properties-key.svg">
  <sodipodi:namedview id="base" pagecolor="#002466" bordercolor="#ffffff" borderopacity="0.30" inkscape:pageopacity="1" inkscape:pageshadow="2" inkscape:zoom="13.140625" inkscape:document-units="px" inkscape:current-layer="g868" inkscape:document-rotation="0" showgrid="false" inkscape:showpageshadow="false" borderlayer="true" inkscape:window-width="1920" inkscape:window-height="1027" inkscape:window-x="0" inkscape:window-y="24" inkscape:window-maximized="1" units="px" inkscape:cx="6.7489002" inkscape:cy="8.0269055" />
  <metadata id="metadata5">
    <rdf:RDF>
      <cc:Work rdf:about="">
        <dc:format>image/svg+xml</dc:format>
        <dc:type rdf:resource="http://purl.org/dc/dcmitype/StillImage" />
        <dc:title></dc:title>
      </cc:Work>
    </rdf:RDF>
  </metadata>
  <defs id="ol-defs" />
  <g id="g868" inkscape:label="#document-properties-key">
    <path style="fill:none;stroke:none" d="M -5.5000004e-8,-4.9999999e-8 H 16.000001 V 16 H -5.5000004e-8 Z" id="boundary" inkscape:label="#boundary" inkscape:connector-curvature="0" />
    <path inkscape:label="#" id="path6" d="M 3.3916017,2.0000001 V 14 H 12.608398 V 5.6816408 L 8.9267579,2.0000001 Z m 5.5410156,3.25 0.6445312,0.1132813 0.050781,0.6601563 a 1.7320107,1.7320107 0 0 1 0.3066408,0.1953124 l 0.6210937,-0.2382812 0.375,0.5351562 -0.429688,0.5039063 a 1.7320107,1.7320107 0 0 1 0.08008,0.3554687 l 0.603515,0.2695313 -0.111328,0.6445313 -0.660156,0.052734 a 1.7320107,1.7320107 0 0 1 -0.195314,0.306641 L 10.454101,9.2675783 9.9189453,9.6445314 9.4189454,9.2148439 A 1.7320107,1.7320107 0 0 1 9.0615235,9.294922 L 8.7900392,9.8984379 8.1474611,9.7871099 8.0947267,9.1269533 A 1.7320107,1.7320107 0 0 1 7.7880861,8.9316408 L 7.1689454,9.1660158 6.7919923,8.6328127 7.2197267,8.1308595 A 1.7320107,1.7320107 0 0 1 7.1416017,7.7753908 L 6.5380861,7.5039064 6.6494142,6.8593751 7.3095704,6.8085939 A 1.7320107,1.7320107 0 0 1 7.5048829,6.5019533 L 7.2685548,5.8808595 7.8037111,5.5039064 8.3056642,5.9335939 A 1.7320107,1.7320107 0 0 1 8.6611329,5.8554689 Z M 8.8623048,6.8984377 A 0.67694004,0.67694004 0 0 0 8.1943361,7.4589845 0.67694004,0.67694004 0 0 0 8.7451173,8.2421877 0.67694004,0.67694004 0 0 0 9.5283204,7.6894533 0.67694004,0.67694004 0 0 0 8.9775392,6.9082033 0.67694004,0.67694004 0 0 0 8.8623048,6.8984377 Z M 6.2001954,8.6562501 6.7353517,8.7578127 6.7705079,9.3085939 A 1.4429878,1.4429878 0 0 1 7.0244142,9.4765627 L 7.5419923,9.2871095 7.8486329,9.7382814 7.4833985,10.152344 a 1.4429878,1.4429878 0 0 1 0.060547,0.294922 l 0.5019531,0.236328 -0.1035156,0.533203 -0.5488281,0.03516 a 1.4429878,1.4429878 0 0 1 -0.1679687,0.253907 l 0.1875,0.517578 -0.4492189,0.306636 -0.4140625,-0.365234 a 1.4429878,1.4429878 0 0 1 -0.296875,0.0625 L 6.0185548,12.525391 5.4833985,12.423828 5.4482423,11.875 A 1.4429878,1.4429878 0 0 1 5.1962892,11.707031 L 4.6767579,11.896485 4.3720704,11.445313 4.7373048,11.03125 A 1.4429878,1.4429878 0 0 1 4.6767578,10.736328 L 4.1748047,10.5 4.2763672,9.9648439 4.8271484,9.9316439 A 1.4429878,1.4429878 0 0 1 4.9951173,9.6777345 L 4.8056642,9.1582033 5.2568361,8.8535158 5.6708985,9.2187501 a 1.4429878,1.4429878 0 0 1 0.2949219,-0.060547 z m 4.0527336,1.0429688 0.580079,0.232422 -0.07031,0.4394531 a 1.0492333,1.0492333 0 0 1 0.08398,0.09375 1.0492333,1.0492333 0 0 1 0.07227,0.105469 l 0.44336,0.03516 0.08789,0.619141 -0.416016,0.158203 a 1.0492333,1.0492333 0 0 1 -0.09375,0.236328 l 0.189454,0.40039 -0.490235,0.384766 -0.34375,-0.279297 a 1.0492333,1.0492333 0 0 1 -0.253906,0.03516 l -0.2519527,0.365234 -0.5800782,-0.232422 0.070312,-0.439453 a 1.0492333,1.0492333 0 0 1 -0.083984,-0.09375 1.0492333,1.0492333 0 0 1 -0.072266,-0.105469 l -0.4433593,-0.03711 -0.087891,-0.617188 0.4160157,-0.158203 a 1.0492333,1.0492333 0 0 1 0.09375,-0.236328 L 8.9130884,10.203131 9.4052758,9.8183659 9.7490253,10.099616 a 1.0492333,1.0492333 0 0 1 0.2519527,-0.03516 z M 6.1123048,10.027344 a 0.56397819,0.56397819 0 0 0 -0.3203125,0.09766 0.56397819,0.56397819 0 0 0 -0.1484375,0.783203 0.56397819,0.56397819 0 0 0 0.7832031,0.150391 0.56397819,0.56397819 0 0 0 0.1503906,-0.783203 0.56397819,0.56397819 0 0 0 -0.4648437,-0.248047 z m 3.8789065,0.615234 a 0.4698941,0.4698941 0 0 0 -0.259766,0.09961 0.4698941,0.4698941 0 0 0 -0.080078,0.660156 0.4698941,0.4698941 0 0 0 0.6601557,0.08008 0.4698941,0.4698941 0 0 0 0.08008,-0.660156 0.4698941,0.4698941 0 0 0 -0.353515,-0.179688 0.4698941,0.4698941 0 0 0 -0.04687,0 z" style="opacity:0.6;fill:#d0d0d0;stroke:none" inkscape:connector-curvature="0" />
  </g>
</svg>
