<?xml version="1.0" encoding="UTF-8" standalone="no"?>
<svg
   xmlns:dc="http://purl.org/dc/elements/1.1/"
   xmlns:cc="http://creativecommons.org/ns#"
   xmlns:rdf="http://www.w3.org/1999/02/22-rdf-syntax-ns#"
   xmlns:svg="http://www.w3.org/2000/svg"
   xmlns="http://www.w3.org/2000/svg"
   xmlns:sodipodi="http://sodipodi.sourceforge.net/DTD/sodipodi-0.dtd"
   xmlns:inkscape="http://www.inkscape.org/namespaces/inkscape"
   height="16"
   viewBox="0 0 16 16"
   width="16"
   version="1.1"
   id="svg14"
   sodipodi:docname="draw-geometry-line-segment.svg"
   inkscape:version="0.92+devel (262af300f2, 2017-08-19, custom)">
  <defs
     id="defs16" />
  <sodipodi:namedview
     id="namedview2"
     inkscape:document-rotation="0"
     showgrid="false"
     borderlayer="true"
     inkscape:showpageshadow="false"
     bordercolor="#ffffff"
     borderopacity="0.29411765"
     pagecolor="#002466"
     inkscape:pageopacity="0"
     inkscape:zoom="45.9375"
     inkscape:cx="7.9673469"
     inkscape:cy="8"
     inkscape:window-width="1920"
     inkscape:window-height="1023"
     inkscape:window-x="0"
     inkscape:window-y="28"
     inkscape:window-maximized="1"
     inkscape:current-layer="svg14" />
  <metadata
     id="metadata4">
    <rdf:RDF>
      <cc:Work>
        <dc:format>image/svg+xml			</dc:format>
        <dc:type
           rdf:resource="http://purl.org/dc/dcmitype/StillImage" />
        <dc:title></dc:title>
      </cc:Work>
    </rdf:RDF>
  </metadata>
  <g
     stroke-width=".444444"
     transform="matrix(2.2499999,0,0,2.2499999,-4.805347,-18.468618)"
     id="g12"
     inkscape:label="#draw-geometry-line-segment">
    <rect
       fill="none"
       height="7.1111121"
       stroke-linecap="round"
       stroke-width="1.454546"
       width="7.1111121"
       x="2.13571"
       y="8.2082758"
       id="rect6"
       inkscape:label="#boundary" />
    <path
       d="M 7.5151016,9.5869543 3.5146133,13.587442 3.8676406,13.94047 7.868129,9.9399813 Z"
       fill="#d0d0d0"
       opacity=".6"
       id="path8"
       inkscape:connector-curvature="0"
       inkscape:label="#" />
    <path
       d="m 7.7652745,9.0971641 c -0.3273156,0 -0.592658,0.2653423 -0.592658,0.5926584 0,0.3273155 0.2653424,0.5926575 0.592658,0.5926575 0.3273161,0 0.592658,-0.265342 0.592658,-0.5926575 0,-0.3273161 -0.2653419,-0.5926584 -0.592658,-0.5926584 z M 3.632524,13.214647 c -0.3357478,0 -0.6079251,0.272178 -0.6079251,0.607926 0,0.335747 0.2721773,0.607924 0.6079251,0.607924 0.3357477,0 0.607925,-0.272177 0.607925,-0.607924 0,-0.335748 -0.2721773,-0.607926 -0.607925,-0.607926 z"
       fill="#0f0"
       id="path10"
       inkscape:connector-curvature="0"
       inkscape:label="#" />
  </g>
</svg>
