<?xml version="1.0" encoding="UTF-8" standalone="no"?>
<svg
   xmlns:dc="http://purl.org/dc/elements/1.1/"
   xmlns:cc="http://creativecommons.org/ns#"
   xmlns:rdf="http://www.w3.org/1999/02/22-rdf-syntax-ns#"
   xmlns:svg="http://www.w3.org/2000/svg"
   xmlns="http://www.w3.org/2000/svg"
   xmlns:sodipodi="http://sodipodi.sourceforge.net/DTD/sodipodi-0.dtd"
   xmlns:inkscape="http://www.inkscape.org/namespaces/inkscape"
   height="16"
   viewBox="0 0 16 16"
   width="16"
   version="1.1"
   id="svg14"
   sodipodi:docname="draw-geometry-circle-from-radius.svg"
   inkscape:version="0.92+devel (262af300f2, 2017-08-19, custom)">
  <defs
     id="defs16" />
  <sodipodi:namedview
     id="namedview2"
     inkscape:document-rotation="0"
     showgrid="false"
     pagecolor="#002466"
     inkscape:pageopacity="0"
     borderlayer="true"
     inkscape:showpageshadow="false"
     bordercolor="#ffffff"
     borderopacity="0.26666667"
     inkscape:zoom="45.9375"
     inkscape:cx="7.9673469"
     inkscape:cy="8"
     inkscape:window-width="1920"
     inkscape:window-height="1023"
     inkscape:window-x="0"
     inkscape:window-y="28"
     inkscape:window-maximized="1"
     inkscape:current-layer="svg14" />
  <metadata
     id="metadata4">
    <rdf:RDF>
      <cc:Work>
        <dc:format>image/svg+xml			</dc:format>
        <dc:type
           rdf:resource="http://purl.org/dc/dcmitype/StillImage" />
        <dc:title></dc:title>
      </cc:Work>
    </rdf:RDF>
  </metadata>
  <g
     id="g12"
     inkscape:label="#draw-geometry-circle-from-radius">
    <rect
       fill="none"
       height="16"
       stroke-linecap="round"
       stroke-width="2.181818"
       width="16"
       id="rect6"
       x="0"
       y="0"
       inkscape:label="#boundary" />
    <circle
       cx="8"
       cy="8"
       r="5.25"
       style="opacity:0.5;fill:none;stroke:#d0d0d0;stroke-width:1.5;stroke-linecap:square;stroke-linejoin:round"
       id="circle10"
       inkscape:label="#" />
    <path
       d="m 11.042255,3.5576279 a 0.99035784,0.99035784 0 0 0 -0.207017,1.095092 L 8.2540214,7.2339358 a 0.80725746,0.80725746 0 0 0 -0.8250691,0.1950163 0.80725746,0.80725746 0 0 0 0,1.1420959 0.80725746,0.80725746 0 0 0 1.1420956,0 0.80725746,0.80725746 0 0 0 0.1950162,-0.8250694 L 11.346281,5.1657627 a 0.99035784,0.99035784 0 0 0 1.096091,-0.2080175 0.99035784,0.99035784 0 0 0 0,-1.4001171 0.99035784,0.99035784 0 0 0 -1.400117,-2e-7 z"
       fill="#0f0"
       id="path8"
       inkscape:connector-curvature="0"
       inkscape:label="#" />
  </g>
</svg>
