<?xml version="1.0" encoding="UTF-8" standalone="no"?>
<!-- Created with Inkscape (http://www.inkscape.org/) -->

<svg
   xmlns:dc="http://purl.org/dc/elements/1.1/"
   xmlns:cc="http://creativecommons.org/ns#"
   xmlns:rdf="http://www.w3.org/1999/02/22-rdf-syntax-ns#"
   xmlns:svg="http://www.w3.org/2000/svg"
   xmlns="http://www.w3.org/2000/svg"
   xmlns:sodipodi="http://sodipodi.sourceforge.net/DTD/sodipodi-0.dtd"
   xmlns:inkscape="http://www.inkscape.org/namespaces/inkscape"
   width="16"
   height="16"
   viewBox="0 0 16 16"
   version="1.1"
   id="svg8"
   inkscape:version="0.92+devel 15700 custom"
   sodipodi:docname="edit-find-replace.svg">
  <defs
     id="ol-defs">
    <style
       id="current-color-scheme">      .ColorScheme-Text {
        color:#d0d0d0;
        stop-color:#d0d0d0;
      }
      .ColorScheme-Background {
        color:#212121;
        stop-color:#212121;
      }
      .ColorScheme-Highlight {
        color:#0039a9;
        stop-color:#0039a9;
      }
      .ColorScheme-ViewText {
        color:#d0d0d0;
        stop-color:#d0d0d0;
      }
      .ColorScheme-ViewBackground {
        color:#19191b;
        stop-color:#19191b;
      }
      .ColorScheme-ViewHover {
        color:#005cc7;
        stop-color:#005cc7;
      }
      .ColorScheme-ViewFocus{
        color:#002466;
        stop-color:#002466;
      }
      .ColorScheme-ButtonText {
        color:#d0d0d0;
        stop-color:#d0d0d0;
      }
      .ColorScheme-ButtonBackground {
        color:#232323;
        stop-color:#232323;                             
      }                                                 
      .ColorScheme-ButtonHover {                        
        color:#005cc7;                                  
        stop-color:#005cc7;                             
      }                                                 
      .ColorScheme-ButtonFocus{                         
        color:#0039a9;                                  
        stop-color:#0039a9;                             
      }</style>
    <style
       id="current-color-scheme-7">      .ColorScheme-Text {
        color:#d0d0d0;
        stop-color:#d0d0d0;
      }
      .ColorScheme-Background {
        color:#212121;
        stop-color:#212121;
      }
      .ColorScheme-Highlight {
        color:#0039a9;
        stop-color:#0039a9;
      }
      .ColorScheme-ViewText {
        color:#d0d0d0;
        stop-color:#d0d0d0;
      }
      .ColorScheme-ViewBackground {
        color:#19191b;
        stop-color:#19191b;
      }
      .ColorScheme-ViewHover {
        color:#005cc7;
        stop-color:#005cc7;
      }
      .ColorScheme-ViewFocus{
        color:#002466;
        stop-color:#002466;
      }
      .ColorScheme-ButtonText {
        color:#d0d0d0;
        stop-color:#d0d0d0;
      }
      .ColorScheme-ButtonBackground {
        color:#232323;
        stop-color:#232323;                             
      }                                                 
      .ColorScheme-ButtonHover {                        
        color:#005cc7;                                  
        stop-color:#005cc7;                             
      }                                                 
      .ColorScheme-ButtonFocus{                         
        color:#0039a9;                                  
        stop-color:#0039a9;                             
      }</style>
  </defs>
  <sodipodi:namedview
     id="base"
     pagecolor="#002266"
     bordercolor="#ffffff"
     borderopacity="0.46666667"
     inkscape:pageopacity="0"
     inkscape:pageshadow="2"
     inkscape:zoom="18.681818"
     inkscape:cx="24.58078"
     inkscape:cy="10.355498"
     inkscape:document-units="px"
     inkscape:current-layer="svg8"
     inkscape:document-rotation="0"
     showgrid="false"
     inkscape:showpageshadow="false"
     borderlayer="true"
     units="px"
     fit-margin-top="0"
     fit-margin-left="0"
     fit-margin-right="0"
     fit-margin-bottom="0"
     inkscape:window-width="1920"
     inkscape:window-height="1054"
     inkscape:window-x="0"
     inkscape:window-y="0"
     inkscape:window-maximized="1"
     inkscape:snap-page="true" />
  <metadata
     id="metadata5">
    <rdf:RDF>
      <cc:Work
         rdf:about="">
        <dc:format>image/svg+xml</dc:format>
        <dc:type
           rdf:resource="http://purl.org/dc/dcmitype/StillImage" />
        <dc:title></dc:title>
      </cc:Work>
    </rdf:RDF>
  </metadata>
  <g
     id="g4267"
     inkscape:label="#edit-find-replace"
     style="fill:none;stroke-width:1.375"
     transform="scale(0.72727273)">
    <rect
       inkscape:label="#boundary"
       y="0"
       x="0"
       height="22"
       width="22"
       id="rect4264"
       style="vector-effect:none;fill:none;stroke-width:4.125;stroke-linecap:round"
       sodipodi:insensitive="true" />
    <path
       style="color:#000000;font-style:normal;font-variant:normal;font-weight:normal;font-stretch:normal;font-size:medium;line-height:normal;font-family:sans-serif;font-variant-ligatures:normal;font-variant-position:normal;font-variant-caps:normal;font-variant-numeric:normal;font-variant-alternates:normal;font-variant-east-asian:normal;font-feature-settings:normal;text-indent:0;text-align:start;text-decoration:none;text-decoration-line:none;text-decoration-style:solid;text-decoration-color:#000000;letter-spacing:normal;word-spacing:normal;text-transform:none;writing-mode:lr-tb;direction:ltr;text-orientation:mixed;dominant-baseline:auto;baseline-shift:baseline;text-anchor:start;white-space:normal;shape-padding:0;clip-rule:nonzero;display:inline;overflow:visible;visibility:visible;opacity:0.6;isolation:auto;mix-blend-mode:normal;color-interpolation:sRGB;color-interpolation-filters:linearRGB;solid-color:#000000;solid-opacity:1;vector-effect:none;fill:#d0d0d0;fill-opacity:1;fill-rule:nonzero;stroke:none;stroke-width:3.68566942;stroke-linecap:round;stroke-linejoin:miter;stroke-miterlimit:4;stroke-dasharray:none;stroke-dashoffset:0;stroke-opacity:1;color-rendering:auto;image-rendering:auto;shape-rendering:auto;text-rendering:auto;enable-background:accumulate"
       d="M 13.181882,2.9468729 C 11.68118,2.9471641 10.180726,3.5154498 9.0413892,4.6525473 7.0706301,6.6194372 6.8063889,9.6648637 8.2445402,11.923147 L 3.3723008,16.78497 a 1.2681013,1.2656114 0 0 0 0,1.791609 1.2681013,1.2656114 0 0 0 1.7916091,0 l 4.8774471,-4.86703 c 2.14775,1.351531 4.991096,1.135925 6.960714,-0.580711 a 0.97564975,0.9737341 0 0 0 0.320303,-0.21093 0.97564975,0.9737341 0 0 0 0.213534,-0.322907 0.97564975,0.9737341 0 0 0 0.0027,-0.0027 C 19.537516,10.302549 19.505132,6.8310216 17.322374,4.6525473 16.183039,3.5154486 14.682583,2.9465817 13.181882,2.9468729 Z m 0,1.9348337 c 0.997388,-1e-7 1.993836,0.3834138 2.760327,1.1484006 1.532984,1.5299748 1.532984,3.9802638 0,5.5102388 -1.532984,1.529975 -3.990276,1.529975 -5.52326,0 -1.5329848,-1.529973 -1.5329848,-3.9802649 0,-5.5102388 C 11.185442,5.26512 12.184492,4.8817066 13.181882,4.8817066 Z M 9.7887612,16.78497 a 1.1341678,1.1341678 0 0 0 -1.132776,1.132777 1.1341678,1.1341678 0 0 0 1.132776,1.13538 1.1341678,1.1341678 0 0 0 1.1353798,-1.13538 1.1341678,1.1341678 0 0 0 -1.1353798,-1.132777 z m 3.9347698,0 a 1.1341678,1.1341678 0 0 0 -1.135381,1.132777 1.1341678,1.1341678 0 0 0 1.135381,1.13538 1.1341678,1.1341678 0 0 0 1.132775,-1.13538 1.1341678,1.1341678 0 0 0 -1.132775,-1.132777 z m 3.934769,0 a 1.1341678,1.1341678 0 0 0 -1.13538,1.132777 1.1341678,1.1341678 0 0 0 1.13538,1.13538 1.1341678,1.1341678 0 0 0 1.132776,-1.13538 A 1.1341678,1.1341678 0 0 0 17.6583,16.78497 Z"
       id="path4284"
       inkscape:connector-curvature="0"
       inkscape:label="#glyph" />
  </g>
</svg>
