<?xml version="1.0" encoding="UTF-8" standalone="no"?>
<!-- Created with Inkscape (http://www.inkscape.org/) -->

<svg
   xmlns:dc="http://purl.org/dc/elements/1.1/"
   xmlns:cc="http://creativecommons.org/ns#"
   xmlns:rdf="http://www.w3.org/1999/02/22-rdf-syntax-ns#"
   xmlns:svg="http://www.w3.org/2000/svg"
   xmlns="http://www.w3.org/2000/svg"
   xmlns:sodipodi="http://sodipodi.sourceforge.net/DTD/sodipodi-0.dtd"
   xmlns:inkscape="http://www.inkscape.org/namespaces/inkscape"
   width="16"
   height="16"
   viewBox="0 0 4.2333332 4.2333335"
   version="1.1"
   id="svg8"
   inkscape:version="0.92+devel 15740 custom"
   sodipodi:docname="edit-clone.svg">
  <defs
     id="defs2" />
  <sodipodi:namedview
     id="base"
     pagecolor="#002466"
     bordercolor="#ffffff"
     borderopacity="0.32156863"
     inkscape:pageopacity="1"
     inkscape:pageshadow="2"
     inkscape:zoom="19.090909"
     inkscape:cx="-3.3262318"
     inkscape:cy="12.535528"
     inkscape:document-units="px"
     inkscape:current-layer="svg8"
     inkscape:document-rotation="0"
     showgrid="false"
     units="px"
     inkscape:pagecheckerboard="false"
     borderlayer="true"
     inkscape:showpageshadow="false"
     inkscape:window-width="1920"
     inkscape:window-height="1051"
     inkscape:window-x="0"
     inkscape:window-y="0"
     inkscape:window-maximized="1"
     inkscape:object-paths="true"
     inkscape:snap-bbox="true"
     inkscape:snap-smooth-nodes="false"
     inkscape:snap-intersection-paths="true"
     inkscape:snap-midpoints="true"
     inkscape:bbox-nodes="true"
     inkscape:snap-center="true"
     inkscape:snap-global="false" />
  <metadata
     id="metadata5">
    <rdf:RDF>
      <cc:Work
         rdf:about="">
        <dc:format>image/svg+xml</dc:format>
        <dc:type
           rdf:resource="http://purl.org/dc/dcmitype/StillImage" />
        <dc:title />
        <cc:license
           rdf:resource="http://creativecommons.org/licenses/by/4.0/" />
        <dc:creator>
          <cc:Agent>
            <dc:title>PixelPimps &amp; CodePoets</dc:title>
          </cc:Agent>
        </dc:creator>
      </cc:Work>
      <cc:License
         rdf:about="http://creativecommons.org/licenses/by/4.0/">
        <cc:permits
           rdf:resource="http://creativecommons.org/ns#Reproduction" />
        <cc:permits
           rdf:resource="http://creativecommons.org/ns#Distribution" />
        <cc:requires
           rdf:resource="http://creativecommons.org/ns#Notice" />
        <cc:requires
           rdf:resource="http://creativecommons.org/ns#Attribution" />
        <cc:permits
           rdf:resource="http://creativecommons.org/ns#DerivativeWorks" />
      </cc:License>
    </rdf:RDF>
  </metadata>
  <g
     id="g4285"
     inkscape:label="#edit-clone"
     transform="scale(0.72727275)">
    <rect
       inkscape:label="#boundary"
       y="7.1911622e-08"
       x="7.1911622e-08"
       height="5.8208332"
       width="5.8208332"
       id="rect4280"
       style="display:inline;fill:none;stroke-width:0.78829896;stroke-linecap:round" />
    <path
       style="opacity:0.4;fill:#d0d0d0;stroke-width:0.19242422;stroke-linecap:round"
       d="M 1.6879168,3.1912585 C 1.1627144,3.1883906 0.73421738,3.611443 0.73133743,4.1366464 0.7314905,4.6618578 1.157376,5.0875052 1.6825875,5.0873636 2.0786465,5.086927 2.4458217,4.8418086 2.5720197,4.4729147 2.6467398,4.2544973 3.1546344,4.2489961 3.2466877,4.4707865 3.3842559,4.8444602 3.7400592,5.0928634 4.1382514,5.093229 4.659635,5.0933693 5.0821407,4.6736286 5.0884356,4.1537029 h 0.00106 c 9.9e-6,-0.00199 -5.184e-4,-0.00385 -5.457e-4,-0.00586 1.09e-5,-0.00183 5.457e-4,-0.0035 5.457e-4,-0.00533 h -0.00106 C 5.0848368,3.6225648 4.6649559,3.2007576 4.1435808,3.198191 3.7453918,3.1964885 3.3883254,3.4428829 3.2488194,3.8158374 3.1556158,4.0371436 2.6477365,4.0287794 2.5741512,3.8099755 2.4498703,3.440433 2.0839679,3.1937484 1.6879168,3.1912632 Z"
       id="path4277"
       inkscape:connector-curvature="0"
       inkscape:label="#2" />
    <path
       style="opacity:0.6;fill:#ffffff;stroke-width:0.05987087"
       d="M 2.6802001,0.72760417 2.6077241,1.047885 C 2.5498971,1.072474 2.4953922,1.103894 2.4451856,1.141678 L 2.1318325,1.0441546 1.901081,1.4433066 2.1424907,1.6660643 c -0.00403,0.031144 -0.00617,0.062391 -0.00639,0.093793 2.892e-4,0.031346 0.00231,0.062713 0.00639,0.093793 L 1.901081,2.0764075 2.1318325,2.4755594 2.4451854,2.3780363 c 0.050103,0.038091 0.1047312,0.069972 0.1625385,0.094859 l 0.072476,0.319215 h 0.460437 L 3.2131133,2.471829 c 0.057827,-0.024589 0.1123321,-0.056007 0.1625385,-0.093793 L 3.6890049,2.4755594 3.9197563,2.0764075 3.6783465,1.8536498 c 0.00403,-0.031145 0.00617,-0.06239 0.0064,-0.093793 -3.001e-4,-0.031346 -0.00232,-0.062713 -0.0064,-0.093793 L 3.9197563,1.4433066 3.6890049,1.0441546 3.3756518,1.1416777 C 3.3255488,1.1035867 3.2709205,1.0717059 3.2131133,1.0468192 L 3.1406371,0.72760417 Z M 2.9104186,1.4017394 A 0.35807365,0.35807365 0 0 1 3.2685363,1.759857 0.35807365,0.35807365 0 0 1 2.9104186,2.1179747 0.35807365,0.35807365 0 0 1 2.552301,1.759857 0.35807365,0.35807365 0 0 1 2.9104186,1.4017394 Z"
       id="path5737"
       inkscape:connector-curvature="0"
       inkscape:label="#1" />
    <path
       style="opacity:0.6;fill:#d0d0d0;stroke-width:0.54570311;stroke-linecap:square"
       d="M 4.1595671,3.6506331 A 0.46391012,0.46391012 0 0 0 3.6959326,4.1148003 0.46391012,0.46391012 0 0 0 4.1595671,4.5784348 0.46391012,0.46391012 0 0 0 4.6237345,4.1148003 0.46391012,0.46391012 0 0 0 4.1595671,3.6506331 Z M 1.6825867,3.6820749 A 0.46391012,0.46391012 0 0 0 1.2184193,4.1457094 0.46391012,0.46391012 0 0 0 1.6825867,4.6098768 0.46391012,0.46391012 0 0 0 2.1462211,4.1457094 0.46391012,0.46391012 0 0 0 1.6825867,3.6820749 Z"
       id="circle4296"
       inkscape:connector-curvature="0"
       inkscape:label="#3" />
  </g>
</svg>
