<?xml version="1.0" encoding="UTF-8" standalone="no"?>
<!-- Created with Inkscape (http://www.inkscape.org/) -->

<svg
   xmlns:dc="http://purl.org/dc/elements/1.1/"
   xmlns:cc="http://creativecommons.org/ns#"
   xmlns:rdf="http://www.w3.org/1999/02/22-rdf-syntax-ns#"
   xmlns:svg="http://www.w3.org/2000/svg"
   xmlns="http://www.w3.org/2000/svg"
   xmlns:sodipodi="http://sodipodi.sourceforge.net/DTD/sodipodi-0.dtd"
   xmlns:inkscape="http://www.inkscape.org/namespaces/inkscape"
   width="16"
   height="16"
   viewBox="0 0 4.2333332 4.2333332"
   version="1.1"
   id="svg8"
   inkscape:version="0.92+devel (01e32517f0, 2017-08-26, custom)"
   sodipodi:docname="escape-direction-all.svg">
  <defs
     id="defs2" />
  <sodipodi:namedview
     id="base"
     pagecolor="#002466"
     bordercolor="#ffffff"
     borderopacity="0.38039216"
     inkscape:pageopacity="1"
     inkscape:pageshadow="2"
     inkscape:zoom="36.769553"
     inkscape:cx="7.9592054"
     inkscape:cy="8"
     inkscape:document-units="px"
     inkscape:current-layer="svg8"
     inkscape:document-rotation="0"
     showgrid="false"
     inkscape:showpageshadow="false"
     borderlayer="true"
     inkscape:window-width="1920"
     inkscape:window-height="1051"
     inkscape:window-x="0"
     inkscape:window-y="0"
     inkscape:window-maximized="1"
     units="px"
     inkscape:snap-page="true"
     inkscape:snap-grids="false"
     inkscape:snap-to-guides="false"
     inkscape:snap-object-midpoints="true"
     inkscape:snap-center="true"
     showguides="false" />
  <metadata
     id="metadata5">
    <rdf:RDF>
      <cc:Work
         rdf:about="">
        <dc:format>image/svg+xml</dc:format>
        <dc:type
           rdf:resource="http://purl.org/dc/dcmitype/StillImage" />
        <dc:title></dc:title>
      </cc:Work>
    </rdf:RDF>
  </metadata>
  <g
     id="g841"
     inkscape:label="#escape-direction-all">
    <rect
       inkscape:label="#boundary"
       y="4.4595335e-08"
       x="4.4595339e-08"
       height="4.2333331"
       width="4.2333331"
       id="rect811"
       style="fill:none;stroke-width:0.20485653" />
    <path
       inkscape:label="#"
       inkscape:connector-curvature="0"
       id="rect830"
       d="m 1.0847916,0.82682285 h 2.06375 c 0.1429147,0 0.2579686,0.115054 0.2579686,0.25796865 v 2.06375 c 0,0.1429147 -0.115054,0.2579688 -0.2579686,0.2579688 h -2.06375 c -0.1429147,0 -0.25796874,-0.1150541 -0.25796874,-0.2579688 v -2.06375 c 0,-0.14291465 0.11505404,-0.25796865 0.25796874,-0.25796865 z"
       style="opacity:0.3;fill:#d0d0d0;stroke-width:0.19843748" />
    <path
       inkscape:label="#"
       id="rect814"
       d="M 2.1166666,0.52916665 1.8190103,0.82682285 V 1.6310373 a 0.57026526,0.57026526 0 0 1 0.2976563,-0.084491 0.57026526,0.57026526 0 0 1 0.2976563,0.084878 V 0.82682285 Z M 0.82682289,1.8190103 0.52916665,2.1166665 0.82682289,2.4143228 H 1.6310374 A 0.57026526,0.57026526 0 0 1 1.5465463,2.1166665 0.57026526,0.57026526 0 0 1 1.6314249,1.8190103 Z m 1.77547301,0 a 0.57026526,0.57026526 0 0 1 0.084491,0.2976562 0.57026526,0.57026526 0 0 1 -0.084879,0.2976563 H 3.4065104 L 3.7041666,2.1166665 3.4065104,1.8190103 Z M 1.8190103,2.6019081 V 3.4065102 L 2.1166666,3.7041665 2.4143229,3.4065102 V 2.6022959 A 0.57026526,0.57026526 0 0 1 2.1166666,2.6867868 0.57026526,0.57026526 0 0 1 1.8190103,2.6019081 Z"
       style="fill:#00ff00;stroke-width:0.1984375"
       inkscape:connector-curvature="0" />
    <circle
       inkscape:label="#"
       style="fill:#ffffff;stroke-width:0.11068051"
       id="circle817"
       cx="2.1166666"
       cy="2.1166666"
       r="0.30378664" />
  </g>
</svg>
