<?xml version="1.0" encoding="UTF-8" standalone="no"?>
<!-- Created with Inkscape (http://www.inkscape.org/) -->

<svg
   xmlns:dc="http://purl.org/dc/elements/1.1/"
   xmlns:cc="http://creativecommons.org/ns#"
   xmlns:rdf="http://www.w3.org/1999/02/22-rdf-syntax-ns#"
   xmlns:svg="http://www.w3.org/2000/svg"
   xmlns="http://www.w3.org/2000/svg"
   xmlns:sodipodi="http://sodipodi.sourceforge.net/DTD/sodipodi-0.dtd"
   xmlns:inkscape="http://www.inkscape.org/namespaces/inkscape"
   width="16"
   height="16"
   viewBox="0 0 4.2333332 4.2333332"
   version="1.1"
   id="svg8"
   inkscape:version="0.92+devel (01e32517f0, 2017-08-26, custom)"
   sodipodi:docname="filename-discnumber-amarok.svg">
  <defs
     id="defs2" />
  <sodipodi:namedview
     id="base"
     pagecolor="#002466"
     bordercolor="#ffffff"
     borderopacity="0.38039216"
     inkscape:pageopacity="1"
     inkscape:pageshadow="2"
     inkscape:zoom="10.137867"
     inkscape:cx="1.7057214"
     inkscape:cy="0.14928292"
     inkscape:document-units="px"
     inkscape:current-layer="svg8"
     inkscape:document-rotation="0"
     showgrid="false"
     inkscape:showpageshadow="false"
     borderlayer="true"
     inkscape:window-width="1920"
     inkscape:window-height="1051"
     inkscape:window-x="0"
     inkscape:window-y="0"
     inkscape:window-maximized="1"
     units="px" />
  <metadata
     id="metadata5">
    <rdf:RDF>
      <cc:Work
         rdf:about="">
        <dc:format>image/svg+xml</dc:format>
        <dc:type
           rdf:resource="http://purl.org/dc/dcmitype/StillImage" />
        <dc:title></dc:title>
      </cc:Work>
    </rdf:RDF>
  </metadata>
  <g
     id="g843"
     inkscape:label="#filename-discnumber-amarok">
    <rect
       inkscape:label="#boundary"
       y="4.4595335e-08"
       x="4.4595339e-08"
       height="4.2333331"
       width="4.2333331"
       id="rect811"
       style="fill:none;stroke-width:0.20485653" />
    <path
       inkscape:label="#"
       inkscape:connector-curvature="0"
       id="path812"
       d="M 2.1166666,0.52916665 A 1.5873716,1.5873716 0 0 0 0.52916667,2.1166665 1.5873716,1.5873716 0 0 0 2.1166666,3.7041665 1.5873716,1.5873716 0 0 0 3.7041665,2.1166665 1.5873716,1.5873716 0 0 0 2.1166666,0.52916665 Z M 1.5046347,1.1986187 H 1.8106506 V 1.5046346 H 2.4226825 V 1.1986187 H 2.7286983 V 1.5046346 H 3.0347144 V 1.8106505 H 2.7286983 V 2.4226824 H 3.0347144 V 2.7286983 H 2.7286983 v 0.306016 H 2.4226825 V 2.7286983 H 1.8106506 v 0.306016 H 1.5046347 V 2.7286983 H 1.1986188 V 2.4226824 H 1.5046347 V 1.8106505 H 1.1986188 V 1.5046346 H 1.5046347 Z M 1.8106506,1.8106505 V 2.4226824 H 2.4226825 V 1.8106505 Z"
       style="opacity:0.6;fill:#d0d0d0;stroke-width:0.17293616" />
  </g>
</svg>
