<?xml version="1.0" encoding="UTF-8" standalone="no"?>
<!-- Created with Inkscape (http://www.inkscape.org/) -->

<svg
   xmlns:dc="http://purl.org/dc/elements/1.1/"
   xmlns:cc="http://creativecommons.org/ns#"
   xmlns:rdf="http://www.w3.org/1999/02/22-rdf-syntax-ns#"
   xmlns:svg="http://www.w3.org/2000/svg"
   xmlns="http://www.w3.org/2000/svg"
   xmlns:sodipodi="http://sodipodi.sourceforge.net/DTD/sodipodi-0.dtd"
   xmlns:inkscape="http://www.inkscape.org/namespaces/inkscape"
   width="16"
   height="16"
   viewBox="0 0 4.2333332 4.2333332"
   version="1.1"
   id="svg8"
   inkscape:version="0.92+devel (01e32517f0, 2017-08-26, custom)"
   sodipodi:docname="folder-sync.svg">
  <defs
     id="defs2" />
  <sodipodi:namedview
     id="base"
     pagecolor="#002466"
     bordercolor="#ffffff"
     borderopacity="0.38039216"
     inkscape:pageopacity="1"
     inkscape:pageshadow="2"
     inkscape:zoom="10.137867"
     inkscape:cx="1.7057214"
     inkscape:cy="0.14928292"
     inkscape:document-units="px"
     inkscape:current-layer="svg8"
     inkscape:document-rotation="0"
     showgrid="false"
     inkscape:showpageshadow="false"
     borderlayer="true"
     inkscape:window-width="1920"
     inkscape:window-height="1051"
     inkscape:window-x="0"
     inkscape:window-y="0"
     inkscape:window-maximized="1"
     units="px" />
  <metadata
     id="metadata5">
    <rdf:RDF>
      <cc:Work
         rdf:about="">
        <dc:format>image/svg+xml</dc:format>
        <dc:type
           rdf:resource="http://purl.org/dc/dcmitype/StillImage" />
        <dc:title></dc:title>
      </cc:Work>
    </rdf:RDF>
  </metadata>
  <g
     id="g844"
     inkscape:label="#folder-sync">
    <rect
       inkscape:label="#boundary"
       y="4.4595335e-08"
       x="4.4595339e-08"
       height="4.2333331"
       width="4.2333331"
       id="rect811"
       style="fill:none;stroke-width:0.20485653" />
    <path
       inkscape:label="#"
       style="opacity:0.6;stroke-width:1"
       inkscape:connector-curvature="0"
       d="M 2.2345778,0.5291884 A 0.08086509,0.08086509 0 0 0 2.1961965,0.5402509 L 1.483542,0.9517299 a 0.08086509,0.08086509 0 0 0 0,0.1400414 L 2.1961962,1.5029045 A 0.08086509,0.08086509 0 0 0 2.3172191,1.433057 V 1.2342329 c 0.250545,0.044857 0.4720818,0.1961279 0.6020047,0.4211607 0.1560506,0.2702879 0.1560506,0.6024626 0,0.8727512 l 0.3526961,0.2036646 c 0.2284625,-0.395708 0.2284625,-0.8843724 0,-1.2800804 C 3.0693927,1.1009423 2.7136437,0.8704607 2.3172191,0.8224082 V 0.6100983 A 0.08086509,0.08086509 0 0 0 2.2345777,0.5291861 Z M 0.96141283,1.5015238 c -0.22846185,0.3957079 -0.22846185,0.8843724 0,1.2800803 C 1.1639399,3.1323909 1.5196893,3.3628725 1.9161136,3.410925 v 0.2123091 a 0.08086509,0.08086509 0 0 0 0.082641,0.080913 0.08086509,0.08086509 0 0 0 0.038381,-0.011063 L 2.749791,3.2816056 a 0.08086509,0.08086509 0 0 0 0,-0.1400414 L 2.0371368,2.7304309 A 0.08086509,0.08086509 0 0 0 1.9161136,2.8002784 V 2.9991025 C 1.6655688,2.954245 1.4440321,2.8029739 1.3141094,2.5779418 c -0.1560508,-0.2702886 -0.1560508,-0.6024634 0,-0.8727512 z"
       fill="#d0d0d0"
       id="path835" />
  </g>
</svg>
