<?xml version="1.0" encoding="UTF-8" standalone="no"?>
<!-- Created with Inkscape (http://www.inkscape.org/) -->

<svg
   xmlns:dc="http://purl.org/dc/elements/1.1/"
   xmlns:cc="http://creativecommons.org/ns#"
   xmlns:rdf="http://www.w3.org/1999/02/22-rdf-syntax-ns#"
   xmlns:svg="http://www.w3.org/2000/svg"
   xmlns="http://www.w3.org/2000/svg"
   xmlns:sodipodi="http://sodipodi.sourceforge.net/DTD/sodipodi-0.dtd"
   xmlns:inkscape="http://www.inkscape.org/namespaces/inkscape"
   width="16"
   height="16"
   viewBox="0 0 16 16"
   version="1.1"
   id="main"
   inkscape:version="0.92+devel (327bdefa15, 2017-09-17, custom)"
   sodipodi:docname="foreign_red.svg">
  <defs
     id="ol-defs" />
  <sodipodi:namedview
     id="base"
     pagecolor="#002466"
     bordercolor="#ffffff"
     borderopacity="0.30"
     inkscape:pageopacity="1"
     inkscape:pageshadow="2"
     inkscape:zoom="26.28125"
     inkscape:document-units="px"
     inkscape:current-layer="g880"
     inkscape:document-rotation="0"
     showgrid="false"
     inkscape:showpageshadow="false"
     borderlayer="true"
     inkscape:window-width="1920"
     inkscape:window-height="1029"
     inkscape:window-x="0"
     inkscape:window-y="22"
     inkscape:window-maximized="1"
     units="px"
     inkscape:cx="6.7489001"
     inkscape:cy="8.0269054" />
  <metadata
     id="metadata5">
    <rdf:RDF>
      <cc:Work
         rdf:about="">
        <dc:format>image/svg+xml</dc:format>
        <dc:type
           rdf:resource="http://purl.org/dc/dcmitype/StillImage" />
        <dc:title></dc:title>
      </cc:Work>
    </rdf:RDF>
  </metadata>
  <g
     id="g880"
     inkscape:label="#foreign_red"
     style="stroke:none">
    <path
       style="fill:none;stroke:none"
       d="M -5.5000004e-8,-4.9999999e-8 H 16.000001 V 16 H -5.5000004e-8 Z"
       id="boundary"
       inkscape:label="#boundary"
       inkscape:connector-curvature="0" />
    <path
       style="fill:#ff0000;fill-opacity:1;stroke:none;stroke-width:1"
       d="M 3.8925781,2 2,5.0625 H 7.7695312 V 2 Z M 8.4433594,2 V 5.0625 H 14 L 12.107422,2 Z M 2,5.7304688 V 14 H 14 V 5.7304688 Z M 8.1328125,7.25 A 2.6425822,2.6425822 0 0 1 10.775391,9.8925781 2.6425822,2.6425822 0 0 1 8.1328125,12.535156 2.6425822,2.6425822 0 0 1 5.4902344,9.8925781 2.6425822,2.6425822 0 0 1 8.1328125,7.25 Z m -0.03125,0.4394531 c -0.1818201,0.012693 -0.3226451,0.1962986 -0.2988281,0.375 7.629e-4,0.6861456 -9.9e-4,1.3724896 0.00195,2.0585939 0.012564,0.151755 0.1456659,0.282391 0.296875,0.294922 L 9.546875,10.8125 c 0.216676,0.04096 0.4305,-0.181382 0.375,-0.396484 C 9.891294,10.274707 9.7636499,10.171384 9.6230469,10.152344 L 8.4628906,9.8417969 c -9.376e-4,-0.6186225 0.00352,-1.2388568 0,-1.8574219 C 8.4482498,7.8099932 8.2750278,7.6716381 8.1015625,7.6894531 Z"
       id="path816"
       inkscape:connector-curvature="0"
       inkscape:label="#" />
  </g>
</svg>
