<?xml version="1.0" encoding="UTF-8" standalone="no"?>
<!-- Created with Inkscape (http://www.inkscape.org/) -->

<svg
   xmlns:dc="http://purl.org/dc/elements/1.1/"
   xmlns:cc="http://creativecommons.org/ns#"
   xmlns:rdf="http://www.w3.org/1999/02/22-rdf-syntax-ns#"
   xmlns:svg="http://www.w3.org/2000/svg"
   xmlns="http://www.w3.org/2000/svg"
   xmlns:sodipodi="http://sodipodi.sourceforge.net/DTD/sodipodi-0.dtd"
   xmlns:inkscape="http://www.inkscape.org/namespaces/inkscape"
   width="16"
   height="16"
   viewBox="0 0 4.2333332 4.2333332"
   version="1.1"
   id="main"
   inkscape:version="0.92+devel (5451be0409, 2017-08-29, custom)"
   sodipodi:docname="format-text-bold.svg">
  <defs
     id="ol-defs" />
  <sodipodi:namedview
     id="base"
     pagecolor="#002466"
     bordercolor="#ffffff"
     borderopacity="0.38039216"
     inkscape:pageopacity="1"
     inkscape:pageshadow="2"
     inkscape:zoom="40.551468"
     inkscape:cx="5.8365414"
     inkscape:cy="6.9377666"
     inkscape:document-units="px"
     inkscape:current-layer="main"
     inkscape:document-rotation="0"
     showgrid="false"
     inkscape:showpageshadow="false"
     borderlayer="true"
     inkscape:window-width="1920"
     inkscape:window-height="1025"
     inkscape:window-x="0"
     inkscape:window-y="26"
     inkscape:window-maximized="1"
     units="px" />
  <metadata
     id="metadata5">
    <rdf:RDF>
      <cc:Work
         rdf:about="">
        <dc:format>image/svg+xml</dc:format>
        <dc:type
           rdf:resource="http://purl.org/dc/dcmitype/StillImage" />
        <dc:title></dc:title>
      </cc:Work>
    </rdf:RDF>
  </metadata>
  <g
     id="g822"
     inkscape:label="#format-text-bold">
    <path
       inkscape:connector-curvature="0"
       inkscape:label="#boundary"
       id="rect811"
       d="M 4.4595339e-8,4.4595335e-8 H 4.2333332 V 4.2333332 H 4.4595339e-8 Z"
       style="fill:none;stroke-width:0.20485653" />
    <path
       inkscape:label="#"
       d="M 0.78689171,0.52916662 H 2.0560254 q 0.3768417,0 0.5609311,0.0324864 0.1862551,0.0303206 0.3313608,0.12994543 0.1472715,0.0996248 0.2447306,0.26638812 0.097459,0.16459753 0.097459,0.37034443 0,0.223073 -0.1212824,0.4093281 -0.1191166,0.1862551 -0.3248635,0.2793827 0.2902114,0.084464 0.4461459,0.2880457 0.1559346,0.2035812 0.1559346,0.4786323 0,0.2165757 -0.1017906,0.4223227 Q 3.245026,3.4096236 3.0695997,3.5330718 2.8963392,3.6543542 2.6407798,3.682509 2.4805138,3.6998351 1.8676045,3.7041666 H 0.78689171 Z M 1.4279558,1.0576114 v 0.7341917 h 0.4201569 q 0.374676,0 0.4656378,-0.010829 0.1645975,-0.019492 0.2577251,-0.1126194 0.095293,-0.095293 0.095293,-0.2490621 0,-0.1472715 -0.082299,-0.2382333 Q 2.5043366,1.0879317 2.3440706,1.06844 2.2487776,1.0576112 1.796134,1.0576112 Z m 0,1.2626364 v 0.8489768 h 0.5934175 q 0.3465211,0 0.4396487,-0.019492 Q 2.6039619,3.1237436 2.692758,3.0241187 2.78372,2.9223281 2.78372,2.753399 2.78372,2.610459 2.714416,2.5108342 2.6451113,2.4112096 2.5130001,2.3657287 2.3830547,2.3202478 1.9455718,2.3202478 Z"
       style="font-weight:bold;font-size:4.43547058px;font-family:Arial;-inkscape-font-specification:'Arial Bold';opacity:0.6;fill:#d0d0d0;stroke-width:0.26458332"
       id="path816"
       inkscape:connector-curvature="0" />
  </g>
</svg>
