<?xml version="1.0" encoding="UTF-8" standalone="no"?>
<!-- Created with Inkscape (http://www.inkscape.org/) -->

<svg
   xmlns:dc="http://purl.org/dc/elements/1.1/"
   xmlns:cc="http://creativecommons.org/ns#"
   xmlns:rdf="http://www.w3.org/1999/02/22-rdf-syntax-ns#"
   xmlns:svg="http://www.w3.org/2000/svg"
   xmlns="http://www.w3.org/2000/svg"
   xmlns:sodipodi="http://sodipodi.sourceforge.net/DTD/sodipodi-0.dtd"
   xmlns:inkscape="http://www.inkscape.org/namespaces/inkscape"
   width="16"
   height="16"
   viewBox="0 0 16 16"
   version="1.1"
   id="svg8"
   inkscape:version="0.92+devel (5451be0409, 2017-08-29, custom)"
   sodipodi:docname="format-text-subscript.svg">
  <defs
     id="ol-defs">
    <style
       id="current-color-scheme">      .ColorScheme-Text {
        color:#d0d0d0;
        stop-color:#d0d0d0;
      }
      .ColorScheme-Background {
        color:#212121;
        stop-color:#212121;
      }
      .ColorScheme-Highlight {
        color:#0039a9;
        stop-color:#0039a9;
      }
      .ColorScheme-ViewText {
        color:#d0d0d0;
        stop-color:#d0d0d0;
      }
      .ColorScheme-ViewBackground {
        color:#19191b;
        stop-color:#19191b;
      }
      .ColorScheme-ViewHover {
        color:#005cc7;
        stop-color:#005cc7;
      }
      .ColorScheme-ViewFocus{
        color:#002466;
        stop-color:#002466;
      }
      .ColorScheme-ButtonText {
        color:#d0d0d0;
        stop-color:#d0d0d0;
      }
      .ColorScheme-ButtonBackground {
        color:#232323;
        stop-color:#232323;                             
      }                                                 
      .ColorScheme-ButtonHover {                        
        color:#005cc7;                                  
        stop-color:#005cc7;                             
      }                                                 
      .ColorScheme-ButtonFocus{                         
        color:#0039a9;                                  
        stop-color:#0039a9;                             
      }</style>
  </defs>
  <sodipodi:namedview
     id="base"
     pagecolor="#002266"
     bordercolor="#ffffff"
     borderopacity="0.46666667"
     inkscape:pageopacity="0"
     inkscape:pageshadow="2"
     inkscape:zoom="18.500001"
     inkscape:cx="9.2593919"
     inkscape:cy="10.661038"
     inkscape:document-units="px"
     inkscape:current-layer="svg8"
     inkscape:document-rotation="0"
     showgrid="false"
     inkscape:showpageshadow="false"
     borderlayer="true"
     units="px"
     fit-margin-top="0"
     fit-margin-left="0"
     fit-margin-right="0"
     fit-margin-bottom="0"
     inkscape:window-width="1920"
     inkscape:window-height="1025"
     inkscape:window-x="0"
     inkscape:window-y="26"
     inkscape:window-maximized="1"
     inkscape:snap-page="true" />
  <metadata
     id="metadata5">
    <rdf:RDF>
      <cc:Work
         rdf:about="">
        <dc:format>image/svg+xml</dc:format>
        <dc:type
           rdf:resource="http://purl.org/dc/dcmitype/StillImage" />
        <dc:title></dc:title>
      </cc:Work>
    </rdf:RDF>
  </metadata>
  <g
     id="g4267"
     inkscape:label="#format-text-subscript"
     style="fill:none"
     transform="scale(0.72727273)">
    <rect
       inkscape:label="#boundary"
       y="0"
       x="0"
       height="22"
       width="22"
       id="rect4264"
       style="vector-effect:none;fill:none;stroke-width:3;stroke-linecap:round" />
    <path
       inkscape:connector-curvature="0"
       id="path4271"
       style="font-style:normal;font-variant:normal;font-weight:normal;font-stretch:normal;font-size:medium;line-height:37.84999847;font-family:'Times New Roman';-inkscape-font-specification:'Times New Roman, ';opacity:0.6;fill:#d0d0d0;stroke-width:2.13333321"
       d="M 13.233334,13.661112 H 7.4000001 l -1.0222223,2.377777 q -0.3777777,0.877779 -0.3777777,1.311112 0,0.344444 0.3222221,0.611112 0.3333334,0.255555 1.4222223,0.333332 v 0.411111 H 3.0000001 v -0.411111 q 0.9444444,-0.166667 1.222222,-0.433333 0.5666668,-0.533333 1.2555557,-2.166667 L 10.777778,3.2944444 h 0.388889 l 5.244444,12.5333326 q 0.633333,1.511112 1.144445,1.966668 0.522223,0.444444 1.444444,0.5 v 0.411111 h -5.944444 v -0.411111 q 0.9,-0.04444 1.211111,-0.3 0.322221,-0.255555 0.322221,-0.622223 0,-0.488888 -0.444443,-1.544445 z M 12.922223,12.83889 10.366667,6.7500005 7.7444445,12.83889 Z"
       inkscape:label="#1" />
    <path
       inkscape:connector-curvature="0"
       id="path838"
       style="font-style:italic;font-variant:normal;font-weight:normal;font-stretch:normal;font-size:medium;font-family:'Times New Roman';-inkscape-font-specification:'Times New Roman, Italic';fill:#00ff00;stroke-width:1.375"
       d="m 16.170772,13.969406 -0.769507,2.632522 q 1.081937,-1.614229 1.654729,-2.123375 0.578575,-0.509147 1.110867,-0.509147 0.289287,0 0.474432,0.190929 0.19093,0.19093 0.19093,0.497576 0,0.347146 -0.167787,0.925723 l -0.705863,2.435806 q -0.121495,0.42236 -0.121495,0.514934 0,0.081 0.04628,0.138858 0.04628,0.05207 0.09835,0.05207 0.06942,0 0.167787,-0.07521 0.306645,-0.243003 0.671148,-0.740578 L 19,18.019445 q -0.538076,0.769507 -1.018294,1.099295 -0.335575,0.225646 -0.60172,0.225646 -0.214073,0 -0.34136,-0.133073 -0.127284,-0.127284 -0.127284,-0.347146 0,-0.277717 0.196716,-0.954652 l 0.671149,-2.325876 q 0.127283,-0.433932 0.127283,-0.676935 0,-0.11572 -0.07521,-0.185145 -0.07521,-0.07521 -0.185143,-0.07521 -0.162001,0 -0.387647,0.138857 -0.428146,0.260361 -0.891007,0.86208 -0.462862,0.595933 -0.977794,1.527442 -0.271931,0.491789 -0.45129,1.076152 l -0.289287,0.95465 H 13.78125 l 1.053009,-3.62189 q 0.185145,-0.653792 0.185145,-0.786864 0,-0.127284 -0.104142,-0.219859 -0.09835,-0.09835 -0.248788,-0.09835 -0.06942,0 -0.243003,0.02314 l -0.219858,0.03472 -0.03472,-0.208287 z"
       inkscape:label="#" />
  </g>
</svg>
