<?xml version="1.0" encoding="UTF-8" standalone="no"?>
<!-- Created with Inkscape (http://www.inkscape.org/) -->

<svg
   xmlns:dc="http://purl.org/dc/elements/1.1/"
   xmlns:cc="http://creativecommons.org/ns#"
   xmlns:rdf="http://www.w3.org/1999/02/22-rdf-syntax-ns#"
   xmlns:svg="http://www.w3.org/2000/svg"
   xmlns="http://www.w3.org/2000/svg"
   xmlns:sodipodi="http://sodipodi.sourceforge.net/DTD/sodipodi-0.dtd"
   xmlns:inkscape="http://www.inkscape.org/namespaces/inkscape"
   width="16"
   height="16"
   viewBox="0 0 4.2333332 4.2333332"
   version="1.1"
   id="main"
   inkscape:version="0.92+devel (5451be0409, 2017-08-29, custom)"
   sodipodi:docname="games-config-tiles.svg">
  <defs
     id="ol-defs" />
  <sodipodi:namedview
     id="base"
     pagecolor="#002466"
     bordercolor="#ffffff"
     borderopacity="0.38039216"
     inkscape:pageopacity="1"
     inkscape:pageshadow="2"
     inkscape:zoom="40.551468"
     inkscape:cx="4.1405959"
     inkscape:cy="7.9030552"
     inkscape:document-units="px"
     inkscape:current-layer="main"
     inkscape:document-rotation="0"
     showgrid="false"
     inkscape:showpageshadow="false"
     borderlayer="true"
     inkscape:window-width="1920"
     inkscape:window-height="1025"
     inkscape:window-x="0"
     inkscape:window-y="26"
     inkscape:window-maximized="1"
     units="px" />
  <metadata
     id="metadata5">
    <rdf:RDF>
      <cc:Work
         rdf:about="">
        <dc:format>image/svg+xml</dc:format>
        <dc:type
           rdf:resource="http://purl.org/dc/dcmitype/StillImage" />
        <dc:title></dc:title>
      </cc:Work>
    </rdf:RDF>
  </metadata>
  <g
     id="g839"
     inkscape:label="#games-config-tiles">
    <path
       inkscape:connector-curvature="0"
       inkscape:label="#boundary"
       id="rect811"
       d="M 4.4595339e-8,4.4595335e-8 H 4.2333332 V 4.2333332 H 4.4595339e-8 Z"
       style="fill:none;stroke-width:0.20485653" />
    <path
       inkscape:connector-curvature="0"
       style="opacity:0.6;fill:#d0d0d0;stroke-width:0.45772916;stroke-linecap:square"
       d="m 0.84658913,0.52916665 c -0.17589503,0 -0.31742248,0.1415275 -0.31742248,0.3174225 V 3.3867443 c 0,0.1758949 0.14152745,0.3174223 0.31742248,0.3174223 H 3.3867442 c 0.175895,0 0.3174224,-0.1415274 0.3174224,-0.3174223 V 0.84658915 c 0,-0.175895 -0.1415274,-0.3174225 -0.3174224,-0.3174225 z m 1.65261227,0.3461029 0.2193664,0.03837 0.017828,0.22517995 a 0.59101,0.59101 0 0 1 0.1046448,0.066662 L 3.0522677,1.1248663 3.1809419,1.3070257 3.03444,1.4787207 A 0.59101,0.59101 0 0 1 3.061183,1.600031 L 3.2673714,1.692273 3.2297774,1.9124147 3.0042097,1.9298557 A 0.59101,0.59101 0 0 1 2.9375468,2.034501 L 3.0181621,2.2461161 2.835615,2.3744027 2.6646952,2.2282877 a 0.59101,0.59101 0 0 1 -0.1216979,0.026743 l -0.09263,0.2061888 -0.2193665,-0.03837 -0.018216,-0.22518 A 0.59101,0.59101 0 0 1 2.1081399,2.1313941 L 1.8969125,2.2116221 1.7682382,2.0294626 1.9147409,1.8577676 A 0.59101,0.59101 0 0 1 1.8879982,1.7368447 l -0.206189,-0.093018 0.037982,-0.219754 0.2255677,-0.01744 A 0.59101,0.59101 0 0 1 2.0116344,1.301988 L 1.9310192,1.0903729 2.1135663,0.96208625 2.2848736,1.1085889 a 0.59101,0.59101 0 0 1 0.121698,-0.026743 z M 2.4747843,1.4372507 A 0.23099069,0.23099069 0 0 0 2.2472787,1.6290994 0.23099069,0.23099069 0 0 0 2.4352518,1.8961374 0.23099069,0.23099069 0 0 0 2.7022897,1.7077767 0.23099069,0.23099069 0 0 0 2.5139292,1.4407389 0.23099069,0.23099069 0 0 0 2.4747843,1.4372507 Z m -0.9080841,0.600351 0.1825469,0.034882 0.011627,0.1875854 a 0.4923874,0.4923874 0 0 1 0.086816,0.056973 L 2.0244242,2.2527051 2.1290689,2.4065716 2.0042703,2.5476483 a 0.4923874,0.4923874 0 0 1 0.020929,0.1011568 l 0.17092,0.080228 -0.03527,0.1821593 -0.1871979,0.012015 A 0.4923874,0.4923874 0 0 1 1.916679,3.0096354 L 1.9806283,3.1867562 1.8267618,3.2910135 1.6856851,3.1666026 A 0.4923874,0.4923874 0 0 1 1.5845286,3.1875313 L 1.5046885,3.3580635 1.3221415,3.3231815 1.3101267,3.1355963 A 0.4923874,0.4923874 0 0 1 1.2240854,3.0786232 L 1.0469645,3.1429602 0.94231968,2.9890936 1.0671182,2.848017 A 0.4923874,0.4923874 0 0 1 1.0465768,2.7468604 L 0.8752695,2.6666323 0.9101511,2.4840854 1.0977365,2.4724583 a 0.4923874,0.4923874 0 0 1 0.057361,-0.086429 l -0.06395,-0.177121 0.1530914,-0.1042572 0.1414642,0.1247986 a 0.4923874,0.4923874 0 0 1 0.1011567,-0.020929 z m 1.3828614,0.3554046 0.1976621,0.079453 -0.024029,0.1499908 a 0.35802746,0.35802746 0 0 1 0.029068,0.032169 0.35802746,0.35802746 0 0 1 0.024417,0.036044 L 3.3278334,2.7030651 3.3580634,2.913905 3.2162118,2.96739 A 0.35802746,0.35802746 0 0 1 3.1836558,3.048393 L 3.2483805,3.185206 3.0809486,3.3165933 2.9639015,3.2208627 a 0.35802746,0.35802746 0 0 1 -0.086429,0.012015 L 2.7914315,3.3580635 2.593769,3.2786116 2.617799,3.1286206 A 0.35802746,0.35802746 0 0 1 2.588731,3.0964519 0.35802746,0.35802746 0 0 1 2.5643141,3.0604077 L 2.4131606,3.0480057 2.3829296,2.8371659 2.5247814,2.7832935 a 0.35802746,0.35802746 0 0 1 0.032556,-0.080615 L 2.4926124,2.5654765 2.660044,2.4340891 2.7770912,2.5298201 a 0.35802746,0.35802746 0 0 1 0.086429,-0.012016 z M 1.5364695,2.5054026 A 0.19244498,0.19244498 0 0 0 1.4275614,2.5387346 0.19244498,0.19244498 0 0 0 1.3767894,2.80616 0.19244498,0.19244498 0 0 0 1.6438273,2.856932 0.19244498,0.19244498 0 0 0 1.6949873,2.5895063 0.19244498,0.19244498 0 0 0 1.5364695,2.5054026 Z m 1.3398407,0.209677 a 0.16034088,0.16034088 0 0 0 -0.104645,0.034106 0.16034088,0.16034088 0 0 0 -0.027518,0.2251801 0.16034088,0.16034088 0 0 0 0.2251801,0.027518 0.16034088,0.16034088 0 0 0 0.027518,-0.2255677 0.16034088,0.16034088 0 0 0 -0.1205351,-0.061236 z"
       id="rect812"
       inkscape:label="#" />
  </g>
</svg>
