<?xml version="1.0" encoding="UTF-8" standalone="no"?>
<!-- Created with Inkscape (http://www.inkscape.org/) -->

<svg
   xmlns:dc="http://purl.org/dc/elements/1.1/"
   xmlns:cc="http://creativecommons.org/ns#"
   xmlns:rdf="http://www.w3.org/1999/02/22-rdf-syntax-ns#"
   xmlns:svg="http://www.w3.org/2000/svg"
   xmlns="http://www.w3.org/2000/svg"
   xmlns:sodipodi="http://sodipodi.sourceforge.net/DTD/sodipodi-0.dtd"
   xmlns:inkscape="http://www.inkscape.org/namespaces/inkscape"
   width="16"
   height="16"
   viewBox="0 0 4.2333332 4.2333332"
   version="1.1"
   id="svg8"
   inkscape:version="0.92+devel (7f3bd2b258, 2017-08-07, custom)"
   sodipodi:docname="games-config-tiles.svg">
  <defs
     id="defs2">
    <style
       id="current-color-scheme">      .ColorScheme-Text {
        color:#d0d0d0;
        stop-color:#d0d0d0;
      }
      .ColorScheme-Background {
        color:#212121;
        stop-color:#212121;
      }
      .ColorScheme-Highlight {
        color:#0039a9;
        stop-color:#0039a9;
      }
      .ColorScheme-ViewText {
        color:#d0d0d0;
        stop-color:#d0d0d0;
      }
      .ColorScheme-ViewBackground {
        color:#19191b;
        stop-color:#19191b;
      }
      .ColorScheme-ViewHover {
        color:#005cc7;
        stop-color:#005cc7;
      }
      .ColorScheme-ViewFocus{
        color:#002466;
        stop-color:#002466;
      }
      .ColorScheme-ButtonText {
        color:#d0d0d0;
        stop-color:#d0d0d0;
      }
      .ColorScheme-ButtonBackground {
        color:#232323;
        stop-color:#232323;                             
      }                                                 
      .ColorScheme-ButtonHover {                        
        color:#005cc7;                                  
        stop-color:#005cc7;                             
      }                                                 
      .ColorScheme-ButtonFocus{                         
        color:#0039a9;                                  
        stop-color:#0039a9;                             
      }</style>
  </defs>
  <sodipodi:namedview
     id="base"
     pagecolor="#002466"
     bordercolor="#ffffff"
     borderopacity="0.38039216"
     inkscape:pageopacity="1"
     inkscape:pageshadow="2"
     inkscape:zoom="17.854446"
     inkscape:cx="7.8862843"
     inkscape:cy="8"
     inkscape:document-units="px"
     inkscape:current-layer="g845"
     inkscape:document-rotation="0"
     showgrid="false"
     inkscape:showpageshadow="false"
     borderlayer="true"
     inkscape:window-width="1920"
     inkscape:window-height="1027"
     inkscape:window-x="0"
     inkscape:window-y="24"
     inkscape:window-maximized="1"
     units="px" />
  <metadata
     id="metadata5">
    <rdf:RDF>
      <cc:Work
         rdf:about="">
        <dc:format>image/svg+xml</dc:format>
        <dc:type
           rdf:resource="http://purl.org/dc/dcmitype/StillImage" />
        <dc:title />
      </cc:Work>
    </rdf:RDF>
  </metadata>
  <g
     id="g845"
     inkscape:label="#games-configure-tiles">
    <path
       inkscape:label="#boundary"
       inkscape:connector-curvature="0"
       id="rect811"
       d="M 0,0 H 4.2333332 V 4.2333332 H 0 Z"
       style="fill:none;stroke-width:0.25454992;stroke-linecap:round" />
    <path
       inkscape:label="#"
       id="rect812"
       d="m 0.84658913,0.52916665 c -0.175895,0 -0.31742248,0.1415275 -0.31742248,0.3174225 V 3.3867441 c 0,0.1758948 0.14152748,0.3174224 0.31742248,0.3174224 H 3.3867442 c 0.175895,0 0.3174224,-0.1415276 0.3174224,-0.3174224 V 0.84658915 c 0,-0.175895 -0.1415274,-0.3174225 -0.3174224,-0.3174225 z m 1.53705257,0.46952879 0.1837977,0.0319191 0.015082,0.1883573 c 0.030986,0.015481 0.060259,0.034173 0.087339,0.05577 L 2.8469939,1.207046 2.954326,1.3596259 2.8315606,1.503437 c 0.011162,0.033009 0.018804,0.067105 0.022799,0.10172 l 0.1725731,0.077167 -0.031919,0.1841483 -0.188708,0.014732 c -0.01537,0.03097 -0.033945,0.060243 -0.05542,0.087339 L 2.8182318,2.145676 2.6656516,2.2530081 2.5221914,2.1305933 c -0.033022,0.011043 -0.067118,0.018567 -0.10172,0.022448 L 2.3429538,2.3256151 2.1591563,2.2936962 2.1444245,2.104988 C 2.113211,2.0896611 2.0837009,2.0710851 2.056384,2.0495682 L 1.8799524,2.1169138 1.7722696,1.9643338 1.8946844,1.8208736 C 1.8836658,1.787965 1.8761414,1.7539881 1.8722357,1.7195043 L 1.6996625,1.6416361 1.7315814,1.4578387 1.9202896,1.4431069 c 0.01537,-0.03097 0.033945,-0.060243 0.05542,-0.087339 L 1.9083638,1.1782838 2.0612946,1.0709517 2.204755,1.1933664 c 0.032922,-0.010899 0.066898,-0.018306 0.1013692,-0.022098 z M 2.3632978,1.4687119 c -0.094022,1.4e-6 -0.1744074,0.067655 -0.1904619,0.1602967 -0.01842,0.1053114 0.052142,0.2055756 0.1574905,0.223784 0.1051881,0.018204 0.2052194,-0.052304 0.2234334,-0.1574907 0.01842,-0.1053114 -0.052142,-0.2055756 -0.1574906,-0.2237839 -0.01089,-0.00188 -0.021921,-0.00281 -0.032971,-0.00281 z m -0.7597431,0.5026371 0.15258,0.028762 0.00982,0.1571399 c 0.025816,0.013298 0.050153,0.029288 0.072607,0.047703 l 0.1480203,-0.053666 0.087339,0.1287285 -0.1041753,0.1178548 c 0.00881,0.027599 0.014693,0.056051 0.017538,0.084884 l 0.1427588,0.066994 -0.029113,0.15258 -0.1567891,0.00982 c -0.013298,0.025816 -0.029288,0.050153 -0.047703,0.072607 L 1.9497538,2.932779 1.8213761,3.019767 1.7031704,2.9159425 c -0.027486,0.00879 -0.055819,0.014668 -0.084533,0.017538 L 1.5516424,3.075889 1.3987116,3.0471269 1.3888904,2.8899871 C 1.3631965,2.8766673 1.3389775,2.8606777 1.3166342,2.842283 L 1.168614,2.8959487 1.0812751,2.7672202 1.1854504,2.6493653 c -0.00867,-0.027499 -0.014431,-0.055831 -0.017187,-0.084533 l -0.1431095,-0.067346 0.029113,-0.1525801 0.1567891,-0.00982 c 0.01343,-0.02571 0.029538,-0.049929 0.048054,-0.072256 l -0.053667,-0.148371 0.1283777,-0.087339 0.1182057,0.104526 c 0.027486,-0.00879 0.055819,-0.014668 0.084533,-0.017538 z m 1.1575033,0.2970925 0.1652073,0.066644 -0.020344,0.1255716 c 0.00871,0.00838 0.016914,0.017285 0.024553,0.026658 0.00739,0.00963 0.01418,0.019707 0.020344,0.030165 l 0.1266238,0.010522 0.024904,0.1764316 -0.1185564,0.044897 c -0.00621,0.023581 -0.015284,0.046314 -0.027008,0.067697 L 3.011149,2.9317253 2.8708455,3.0415128 2.7726332,2.9615397 c -0.023482,0.00618 -0.047628,0.00947 -0.071906,0.00982 l -0.072607,0.104526 -0.1652074,-0.066293 0.020344,-0.1255714 c -0.00873,-0.0085 -0.016925,-0.017515 -0.024553,-0.027008 -0.00739,-0.00963 -0.01418,-0.019707 -0.020344,-0.030165 L 2.3117362,2.8166769 2.2868324,2.6402453 2.4053888,2.5953482 c 0.00621,-0.02358 0.015284,-0.046314 0.027008,-0.067696 l -0.054367,-0.1146983 0.1403035,-0.1097875 0.098212,0.079973 c 0.023468,-0.00629 0.047614,-0.00971 0.071906,-0.010172 z m -1.1831088,0.094354 c -0.032379,-1.061e-4 -0.064038,0.00955 -0.090846,0.02771 -0.073643,0.04996 -0.092807,0.1501781 -0.042793,0.223784 0.050072,0.073523 0.1502693,0.092525 0.2237839,0.042442 0.073643,-0.04996 0.092807,-0.1501782 0.042793,-0.2237841 -0.029943,-0.043795 -0.079534,-0.070034 -0.1325868,-0.070152 -1.167e-4,1e-7 -2.335e-4,1e-7 -3.502e-4,0 z m 1.1213752,0.1753792 c -0.031549,-0.0011 -0.062475,0.00896 -0.087339,0.028412 -0.058412,0.045618 -0.068777,0.1299528 -0.02315,0.1883574 0.045618,0.058412 0.1299528,0.068777 0.1883573,0.02315 0.058637,-0.045642 0.069016,-0.1302463 0.02315,-0.1887081 -0.024465,-0.031141 -0.061438,-0.049885 -0.1010182,-0.051211 z"
       style="opacity:0.6;fill:#d0d0d0;stroke-width:0.31750003"
       inkscape:connector-curvature="0"
       sodipodi:nodetypes="sssssssssccccccccccccccccccccccccccccccccccccccccccccccccccccccccccccccccccccccccccccccccccccccccccccccccccccccccccccccccc" />
  </g>
</svg>
