<?xml version="1.0" encoding="UTF-8" standalone="no"?>
<!-- Created with Inkscape (http://www.inkscape.org/) -->

<svg
   xmlns:dc="http://purl.org/dc/elements/1.1/"
   xmlns:cc="http://creativecommons.org/ns#"
   xmlns:rdf="http://www.w3.org/1999/02/22-rdf-syntax-ns#"
   xmlns:svg="http://www.w3.org/2000/svg"
   xmlns="http://www.w3.org/2000/svg"
   xmlns:sodipodi="http://sodipodi.sourceforge.net/DTD/sodipodi-0.dtd"
   xmlns:inkscape="http://www.inkscape.org/namespaces/inkscape"
   width="16"
   height="16"
   viewBox="0 0 4.2333332 4.2333332"
   version="1.1"
   id="main"
   inkscape:version="0.92+devel (5451be0409, 2017-08-29, custom)"
   sodipodi:docname="games-hint.svg">
  <defs
     id="ol-defs" />
  <sodipodi:namedview
     id="base"
     pagecolor="#002466"
     bordercolor="#ffffff"
     borderopacity="0.38039216"
     inkscape:pageopacity="1"
     inkscape:pageshadow="2"
     inkscape:zoom="40.551468"
     inkscape:cx="4.1405959"
     inkscape:cy="7.9030552"
     inkscape:document-units="px"
     inkscape:current-layer="main"
     inkscape:document-rotation="0"
     showgrid="false"
     inkscape:showpageshadow="false"
     borderlayer="true"
     inkscape:window-width="1920"
     inkscape:window-height="1025"
     inkscape:window-x="0"
     inkscape:window-y="26"
     inkscape:window-maximized="1"
     units="px" />
  <metadata
     id="metadata5">
    <rdf:RDF>
      <cc:Work
         rdf:about="">
        <dc:format>image/svg+xml</dc:format>
        <dc:type
           rdf:resource="http://purl.org/dc/dcmitype/StillImage" />
        <dc:title></dc:title>
      </cc:Work>
    </rdf:RDF>
  </metadata>
  <g
     id="g839"
     inkscape:label="#games-hint">
    <path
       inkscape:connector-curvature="0"
       inkscape:label="#boundary"
       id="rect811"
       d="M 4.4595339e-8,4.4595335e-8 H 4.2333332 V 4.2333332 H 4.4595339e-8 Z"
       style="fill:none;stroke-width:0.20485653" />
    <path
       d="M 1.9706588,0.52997584 C 1.4584137,0.54865854 0.93276657,0.86685614 0.76879737,1.3682607 1.1070453,0.88213094 1.7956538,0.73026874 2.334863,0.93680064 2.5812123,1.0287662 2.8041132,1.196521 2.938893,1.4247144 3.0010229,1.1001952 2.803753,0.76488404 2.5046936,0.63490534 2.3392825,0.55537654 2.1533609,0.52352564 1.9706588,0.52997584 Z m 0.7626577,0.09622 C 3.0412541,0.84432464 3.1582262,1.2732168 3.0206876,1.6215294 2.7859647,2.2420628 2.0615224,2.5940656 1.4217524,2.4819556 1.0494138,2.4241231 0.69009319,2.1543889 0.62109522,1.7691173 0.53800234,2.339161 0.85418269,2.9523825 1.3718531,3.1954851 1.7358999,3.3801702 2.1646046,3.4732486 2.5629482,3.3361132 3.4867616,3.1105546 3.9557358,1.8908045 3.3604909,1.1288989 3.2029043,0.90781604 2.9825417,0.73310714 2.7333165,0.62619584 Z M 1.4394967,1.2610338 c 0.329178,0.123685 0.5092441,0.4739604 0.5613424,0.8045521 0.011743,0.074512 0.031793,0.1455678 0.035488,0.2397764 C 2.1264112,2.2896798 2.3366696,2.1823496 2.4622148,2.0908158 2.4276752,1.7001287 2.1062621,1.3752948 1.7274826,1.2989949 1.6331314,1.2764164 1.536374,1.2647136 1.4394967,1.2610338 Z M 1.247412,1.3458918 C 1.0147212,1.3339773 0.81676151,1.5233882 0.74358642,1.7307776 0.76264917,1.8565297 0.87353592,2.1122028 0.98218669,2.0959726 1.1305758,1.8572436 1.4405581,1.7756161 1.7022182,1.8465077 1.7849743,1.8735902 1.8661211,1.9078329 1.7928754,1.7962629 1.6967644,1.5744925 1.5044509,1.3574958 1.247412,1.3458918 Z M 1.4693213,3.3789364 C 1.3778726,3.4931811 1.139022,3.6464792 1.1166786,3.7041665 1.365792,3.6787968 1.6147524,3.6180783 1.8357377,3.4975246 1.7098608,3.4709264 1.5877888,3.4286993 1.4693213,3.3789364 Z"
       id="path10"
       inkscape:connector-curvature="0"
       sodipodi:nodetypes="cccccccccccccccscccccccccccccc"
       style="opacity:0.6;fill:#d0d0d0;stroke-width:1"
       inkscape:label="#" />
  </g>
</svg>
