<?xml version="1.0" encoding="UTF-8" standalone="no"?>
<!-- Created with Inkscape (http://www.inkscape.org/) -->

<svg
   xmlns:dc="http://purl.org/dc/elements/1.1/"
   xmlns:cc="http://creativecommons.org/ns#"
   xmlns:rdf="http://www.w3.org/1999/02/22-rdf-syntax-ns#"
   xmlns:svg="http://www.w3.org/2000/svg"
   xmlns="http://www.w3.org/2000/svg"
   xmlns:sodipodi="http://sodipodi.sourceforge.net/DTD/sodipodi-0.dtd"
   xmlns:inkscape="http://www.inkscape.org/namespaces/inkscape"
   width="16"
   height="16"
   viewBox="0 0 4.2333332 4.2333332"
   version="1.1"
   id="main"
   inkscape:version="0.92+devel (5451be0409, 2017-08-29, custom)"
   sodipodi:docname="go-jump-declaration.svg">
  <defs
     id="ol-defs" />
  <sodipodi:namedview
     id="base"
     pagecolor="#002466"
     bordercolor="#ffffff"
     borderopacity="0.38039216"
     inkscape:pageopacity="1"
     inkscape:pageshadow="2"
     inkscape:zoom="20.275734"
     inkscape:cx="4.0666158"
     inkscape:cy="7.9030552"
     inkscape:document-units="px"
     inkscape:current-layer="g856"
     inkscape:document-rotation="0"
     showgrid="false"
     inkscape:showpageshadow="false"
     borderlayer="true"
     inkscape:window-width="1920"
     inkscape:window-height="1025"
     inkscape:window-x="0"
     inkscape:window-y="26"
     inkscape:window-maximized="1"
     units="px"
     inkscape:snap-page="true" />
  <metadata
     id="metadata5">
    <rdf:RDF>
      <cc:Work
         rdf:about="">
        <dc:format>image/svg+xml</dc:format>
        <dc:type
           rdf:resource="http://purl.org/dc/dcmitype/StillImage" />
        <dc:title />
      </cc:Work>
    </rdf:RDF>
  </metadata>
  <g
     id="g856"
     inkscape:label="#go-jump-declaration"
     transform="matrix(0.74999999,0,0,0.74999999,0.52916667,0.52916664)"
     style="stroke-width:1.33333337">
    <path
       inkscape:connector-curvature="0"
       inkscape:label="#boundary"
       id="rect811"
       d="M -0.70555563,-0.70555556 H 4.9388888 V 4.9388888 h -5.64444443 z"
       style="fill:none;stroke-width:0.27314204" />
    <path
       inkscape:label="#"
       id="rect812"
       transform="scale(0.26458333)"
       d="M 0.4921875,0 C 0.22003966,0 0,0.22003966 0,0.4921875 V 0.63085938 7.7285156 15.507812 C 0,15.77996 0.22003966,16 0.4921875,16 0.76433549,16 0.98242188,15.779961 0.98242188,15.507812 V 7.8925781 H 8.015625 c 0.090444,0 0.1640625,-0.073618 0.1640625,-0.1640625 V 0.63085938 c 0,-0.0904433 -0.073618,-0.1640625 -0.1640625,-0.1640625 H 0.9765625 C 0.96274978,0.20719516 0.7553513,0 0.4921875,0 Z"
       style="opacity:0.6;fill:#d0d0d0;stroke-width:2.30666685;stroke-linecap:square"
       inkscape:connector-curvature="0" />
    <path
       style="fill:#00ff00;stroke-width:0.61030555;stroke-linecap:square"
       d="M 3.4152955,1.8472671 3.8240561,2.3593805 4.2333332,2.8714941 3.7961508,2.8601249 A 1.6935677,1.605469 75 0 1 2.6458332,4.1825248 1.6935677,1.605469 75 0 1 1.9285645,4.1985453 1.6935677,1.605469 75 0 0 1.9538851,4.193378 1.6935677,1.605469 75 0 0 3.1083365,2.8420393 L 2.5450643,2.827569 2.9801798,2.3371597 Z"
       id="rect815"
       inkscape:connector-curvature="0"
       inkscape:label="#" />
  </g>
</svg>
