<?xml version="1.0" encoding="UTF-8" standalone="no"?>
<!-- Created with Inkscape (http://www.inkscape.org/) -->

<svg
   xmlns:dc="http://purl.org/dc/elements/1.1/"
   xmlns:cc="http://creativecommons.org/ns#"
   xmlns:rdf="http://www.w3.org/1999/02/22-rdf-syntax-ns#"
   xmlns:svg="http://www.w3.org/2000/svg"
   xmlns="http://www.w3.org/2000/svg"
   xmlns:sodipodi="http://sodipodi.sourceforge.net/DTD/sodipodi-0.dtd"
   xmlns:inkscape="http://www.inkscape.org/namespaces/inkscape"
   width="16"
   height="16"
   viewBox="0 0 4.2333332 4.2333332"
   version="1.1"
   id="main"
   inkscape:version="0.92+devel (5451be0409, 2017-08-29, custom)"
   sodipodi:docname="grid-axonometric.svg">
  <defs
     id="ol-defs">
    <style
       id="current-color-scheme">      .ColorScheme-Text {
        color:#d0d0d0;
        stop-color:#d0d0d0;
      }
      .ColorScheme-Background {
        color:#212121;
        stop-color:#212121;
      }
      .ColorScheme-Highlight {
        color:#0039a9;
        stop-color:#0039a9;
      }
      .ColorScheme-ViewText {
        color:#d0d0d0;
        stop-color:#d0d0d0;
      }
      .ColorScheme-ViewBackground {
        color:#19191b;
        stop-color:#19191b;
      }
      .ColorScheme-ViewHover {
        color:#005cc7;
        stop-color:#005cc7;
      }
      .ColorScheme-ViewFocus{
        color:#002466;
        stop-color:#002466;
      }
      .ColorScheme-ButtonText {
        color:#d0d0d0;
        stop-color:#d0d0d0;
      }
      .ColorScheme-ButtonBackground {
        color:#232323;
        stop-color:#232323;                             
      }                                                 
      .ColorScheme-ButtonHover {                        
        color:#005cc7;                                  
        stop-color:#005cc7;                             
      }                                                 
      .ColorScheme-ButtonFocus{                         
        color:#0039a9;                                  
        stop-color:#0039a9;                             
      }</style>
  </defs>
  <sodipodi:namedview
     id="base"
     pagecolor="#002466"
     bordercolor="#ffffff"
     borderopacity="0.38039216"
     inkscape:pageopacity="1"
     inkscape:pageshadow="2"
     inkscape:zoom="40.551468"
     inkscape:cx="4.0296259"
     inkscape:cy="7.9030552"
     inkscape:document-units="px"
     inkscape:current-layer="main"
     inkscape:document-rotation="0"
     showgrid="false"
     inkscape:showpageshadow="false"
     borderlayer="true"
     inkscape:window-width="1920"
     inkscape:window-height="1025"
     inkscape:window-x="0"
     inkscape:window-y="26"
     inkscape:window-maximized="1"
     units="px" />
  <metadata
     id="metadata5">
    <rdf:RDF>
      <cc:Work
         rdf:about="">
        <dc:format>image/svg+xml</dc:format>
        <dc:type
           rdf:resource="http://purl.org/dc/dcmitype/StillImage" />
        <dc:title />
      </cc:Work>
    </rdf:RDF>
  </metadata>
  <g
     id="g824"
     inkscape:label="#grid-axonometric">
    <path
       style="fill:none;stroke-width:0.20485653"
       d="M -5.5e-8,-3e-8 H 4.2333333 V 4.2333332 H -5.5e-8 Z"
       id="rect811-3"
       inkscape:label="#boundary"
       inkscape:connector-curvature="0" />
    <path
       style="opacity:0.6;fill:#d0d0d0;fill-opacity:1;stroke:none;stroke-width:1"
       d="M 3 2 L 3 4.5546875 L 2.1230469 4.9453125 L 2 4.890625 L 2 5 L 2 5.9824219 L 2 6.09375 L 2.1269531 6.0371094 L 3 6.4199219 L 3 9.703125 L 2.265625 10.023438 L 2.203125 9.9960938 L 2 9.90625 L 2 11 L 2 11.232422 L 2.2636719 11.117188 L 3 11.445312 L 3 14 L 4 14 L 4 11.888672 L 6 12.777344 L 6 13.460938 L 4.796875 13.996094 L 4.7890625 14 L 7.25 14 L 8 13.666016 L 8.75 14 L 11.210938 14 L 11.203125 13.996094 L 10 13.460938 L 10 12.777344 L 12 11.888672 L 12 14 L 13 14 L 13 11.445312 L 13.736328 11.117188 L 14 11.232422 L 14 11 L 14 10.140625 L 14 9.90625 L 13.796875 9.9960938 L 13.734375 10.023438 L 13 9.703125 L 13 6.4199219 L 13.873047 6.0371094 L 14 6.09375 L 14 5.9824219 L 14 4.890625 L 13.876953 4.9453125 L 13 4.5546875 L 13 2 L 12 2 L 12 4.1113281 L 10 3.2226562 L 10 2.5390625 L 11.203125 2.0039062 L 11.210938 2 L 8.75 2 L 8 2.3339844 L 7.25 2 L 4.7890625 2 L 4.796875 2.0039062 L 6 2.5390625 L 6 3.2226562 L 4 4.1113281 L 4 2 L 3 2 z M 8 3.4277344 L 9 3.8710938 L 9 7.078125 L 8 7.515625 L 7 7.078125 L 7 3.8710938 L 8 3.4277344 z M 6 4.3164062 L 6 6.640625 L 4 5.765625 L 4 5.2050781 L 6 4.3164062 z M 10 4.3164062 L 12 5.2050781 L 12 5.765625 L 10 6.640625 L 10 4.3164062 z M 4 6.8574219 L 6 7.7324219 L 6 8.390625 L 4 9.265625 L 4 6.8574219 z M 12 6.8574219 L 12 9.265625 L 10 8.390625 L 10 7.7324219 L 12 6.8574219 z M 8 8.6074219 L 9 9.0449219 L 9 12.128906 L 8 12.572266 L 7 12.128906 L 7 9.0449219 L 8 8.6074219 z M 6 9.4824219 L 6 11.683594 L 4 10.794922 L 4 10.357422 L 6 9.4824219 z M 10 9.4824219 L 12 10.357422 L 12 10.794922 L 10 11.683594 L 10 9.4824219 z "
       transform="scale(0.26458333)"
       id="path831" />
  </g>
</svg>
