<?xml version="1.0" encoding="UTF-8" standalone="no"?>
<!-- Created with Inkscape (http://www.inkscape.org/) -->

<svg xmlns:dc="http://purl.org/dc/elements/1.1/" xmlns:cc="http://creativecommons.org/ns#" xmlns:rdf="http://www.w3.org/1999/02/22-rdf-syntax-ns#" xmlns:svg="http://www.w3.org/2000/svg" xmlns="http://www.w3.org/2000/svg" xmlns:sodipodi="http://sodipodi.sourceforge.net/DTD/sodipodi-0.dtd" xmlns:inkscape="http://www.inkscape.org/namespaces/inkscape" width="16" height="16" viewBox="0 0 16 16" version="1.1" id="main" inkscape:version="0.92+devel (8ef6761023, 2017-10-07, custom)" sodipodi:docname="im-groupwise.svg">
  <defs id="ol-defs" />
  <sodipodi:namedview id="base" pagecolor="#002466" bordercolor="#ffffff" borderopacity="0.30" inkscape:pageopacity="1" inkscape:pageshadow="2" inkscape:zoom="37.1673" inkscape:document-units="px" inkscape:current-layer="main" inkscape:document-rotation="0" showgrid="false" inkscape:showpageshadow="false" borderlayer="true" inkscape:window-width="1920" inkscape:window-height="1029" inkscape:window-x="0" inkscape:window-y="22" inkscape:window-maximized="1" units="px" inkscape:cx="6.7489001" inkscape:cy="8.0269054" />
  <metadata id="metadata5">
    <rdf:RDF>
      <cc:Work rdf:about="">
        <dc:format>image/svg+xml</dc:format>
        <dc:type rdf:resource="http://purl.org/dc/dcmitype/StillImage" />
        <dc:title></dc:title>
      </cc:Work>
    </rdf:RDF>
  </metadata>
  <g id="g839" inkscape:label="#im-groupwise" style="stroke:none">
    <path style="fill:none;stroke:none" d="M -5.5000004e-8,-4.9999999e-8 H 16.000001 V 16 H -5.5000004e-8 Z" id="boundary" inkscape:label="#boundary" inkscape:connector-curvature="0" />
    <path inkscape:label="#" inkscape:connector-curvature="0" style="opacity:0.6;fill:#d0d0d0;stroke:none;stroke-width:0.99999994" d="M 8,2.0205078 A 6,4.7181683 0 0 0 2,6.7373043 6,4.7181683 0 0 0 4.4375,10.52832 l 2.3984375,3.451172 -0.044922,-2.621094 A 6,4.7181683 0 0 0 8,11.456054 6,4.7181683 0 0 0 14,6.7373043 6,4.7181683 0 0 0 8,2.0205078 Z M 5.6113282,3.7548827 6.8027344,4.946289 8.6113279,6.7568363 V 3.7548827 h 1.19336 v 5.8808596 0.01758 l -1.19336,-1.210938 -1.8085935,-1.808593 v 3.019531 H 5.6113282 Z" id="path811" />
  </g>
</svg>
