<?xml version="1.0" encoding="UTF-8" standalone="no"?>
<!-- Created with Inkscape (http://www.inkscape.org/) -->

<svg
   xmlns:dc="http://purl.org/dc/elements/1.1/"
   xmlns:cc="http://creativecommons.org/ns#"
   xmlns:rdf="http://www.w3.org/1999/02/22-rdf-syntax-ns#"
   xmlns:svg="http://www.w3.org/2000/svg"
   xmlns="http://www.w3.org/2000/svg"
   xmlns:sodipodi="http://sodipodi.sourceforge.net/DTD/sodipodi-0.dtd"
   xmlns:inkscape="http://www.inkscape.org/namespaces/inkscape"
   width="16"
   height="16"
   viewBox="0 0 4.2333333 4.2333331"
   version="1.1"
   id="main"
   inkscape:version="0.92+devel (039bd1db37, 2017-09-02, custom)"
   sodipodi:docname="insert-text.svg">
  <defs
     id="ol-defs" />
  <sodipodi:namedview
     id="base"
     pagecolor="#002466"
     bordercolor="#ffffff"
     borderopacity="0.30"
     inkscape:pageopacity="1"
     inkscape:pageshadow="2"
     inkscape:zoom="19.113636"
     inkscape:document-units="px"
     inkscape:current-layer="main"
     inkscape:document-rotation="0"
     showgrid="false"
     inkscape:showpageshadow="false"
     borderlayer="true"
     inkscape:window-width="1920"
     inkscape:window-height="1025"
     inkscape:window-x="0"
     inkscape:window-y="26"
     inkscape:window-maximized="1"
     units="px"
     inkscape:cx="11.000002"
     inkscape:cy="11.000005" />
  <metadata
     id="metadata5">
    <rdf:RDF>
      <cc:Work
         rdf:about="">
        <dc:format>image/svg+xml</dc:format>
        <dc:type
           rdf:resource="http://purl.org/dc/dcmitype/StillImage" />
        <dc:title></dc:title>
      </cc:Work>
    </rdf:RDF>
  </metadata>
  <g
     id="g832"
     inkscape:label="#insert-text"
     style="stroke-width:1.00000012">
    <path
       style="fill:none;stroke-width:0.20485654"
       d="M -5.5e-8,-3e-8 H 4.2333333 V 4.2333332 H -5.5e-8 Z"
       id="boundary"
       inkscape:label="#boundary"
       inkscape:connector-curvature="0" />
    <path
       d="M 3.53426,0.52916688 3.572643,1.342876 H 3.4754069 C 3.4566421,1.1995813 3.4310538,1.0972281 3.3986418,1.035816 3.3457593,0.93687467 3.2749649,0.8643741 3.1862586,0.81831513 3.0992584,0.77055033 2.9841107,0.74666741 2.8408161,0.74666741 H 2.3520788 V 3.1028415 c 0,0.2132361 0.023029,0.3462956 0.069088,0.3991782 0.064824,0.071646 0.1646182,0.1074706 0.2993836,0.1074706 h 0.1202662 v 0.094676 H 1.3694865 v -0.094676 h 0.1228242 c 0.1467063,0 0.2507658,-0.044353 0.3121778,-0.1330589 0.037529,-0.054588 0.056294,-0.1791185 0.056294,-0.3735897 V 0.74666785 H 1.4436928 c -0.1620595,0 -0.277207,0.0119529 -0.3454426,0.0358245 -0.088706,0.032412 -0.16461827,0.0946765 -0.22773607,0.18679485 -0.063118,0.0921185 -0.100647,0.216648 -0.112588,0.3735898 h -0.097236 l 0.040942,-0.81370926 z"
       style="font-style:normal;font-variant:normal;font-weight:normal;font-stretch:normal;font-size:4.23333311px;font-family:'Times New Roman';-inkscape-font-specification:'Times New Roman, ';opacity:0.6;fill:#d0d0d0;stroke-width:0.26458338"
       id="path825"
       inkscape:connector-curvature="0"
       sodipodi:nodetypes="cccccscscsccccscscscscccc"
       inkscape:label="#" />
    <path
       style="fill:#00ff00;stroke:none;stroke-width:0.35268959;stroke-linecap:square;stroke-miterlimit:4;stroke-dasharray:none;stroke-opacity:1"
       d="m 3.0357104,2.8251555 v 0.342078 H 2.6936323 V 3.3620881 H 3.0357104 V 3.7041663 H 3.2302041 V 3.3620881 H 3.572643 V 3.1672335 H 3.2302041 v -0.342078 z"
       id="rect948"
       inkscape:connector-curvature="0"
       inkscape:label="#" />
  </g>
</svg>
