<?xml version="1.0" encoding="UTF-8" standalone="no"?>
<!-- Created with Inkscape (http://www.inkscape.org/) -->

<svg
   xmlns:dc="http://purl.org/dc/elements/1.1/"
   xmlns:cc="http://creativecommons.org/ns#"
   xmlns:rdf="http://www.w3.org/1999/02/22-rdf-syntax-ns#"
   xmlns:svg="http://www.w3.org/2000/svg"
   xmlns="http://www.w3.org/2000/svg"
   xmlns:sodipodi="http://sodipodi.sourceforge.net/DTD/sodipodi-0.dtd"
   xmlns:inkscape="http://www.inkscape.org/namespaces/inkscape"
   width="16"
   height="16"
   viewBox="0 0 4.2333332 4.2333332"
   version="1.1"
   id="main"
   inkscape:version="0.92+devel (039bd1db37, 2017-09-02, custom)"
   sodipodi:docname="insert-text-frame.svg">
  <defs
     id="ol-defs" />
  <sodipodi:namedview
     id="base"
     pagecolor="#002466"
     bordercolor="#ffffff"
     borderopacity="0.30"
     inkscape:pageopacity="1"
     inkscape:pageshadow="2"
     inkscape:zoom="19.113636"
     inkscape:document-units="px"
     inkscape:current-layer="g832"
     inkscape:document-rotation="0"
     showgrid="false"
     inkscape:showpageshadow="false"
     borderlayer="true"
     inkscape:window-width="1920"
     inkscape:window-height="1025"
     inkscape:window-x="0"
     inkscape:window-y="26"
     inkscape:window-maximized="1"
     units="px"
     inkscape:cx="11.000001"
     inkscape:cy="11.000002" />
  <metadata
     id="metadata5">
    <rdf:RDF>
      <cc:Work
         rdf:about="">
        <dc:format>image/svg+xml</dc:format>
        <dc:type
           rdf:resource="http://purl.org/dc/dcmitype/StillImage" />
        <dc:title></dc:title>
      </cc:Work>
    </rdf:RDF>
  </metadata>
  <g
     id="g832"
     inkscape:label="#insert-text-frame"
     style="stroke-width:1">
    <path
       style="fill:none;stroke-width:0.20485653"
       d="M -5.5e-8,-3e-8 H 4.2333333 V 4.2333332 H -5.5e-8 Z"
       id="boundary"
       inkscape:label="#boundary"
       inkscape:connector-curvature="0" />
    <path
       inkscape:connector-curvature="0"
       id="path818"
       d="m 0.52916662,0.52916665 c 0,1.05833325 0,2.11666665 0,3.17499995 1.05833328,0 2.11666668,0 3.17499998,0 0,-1.0583333 0,-2.1166666 0,-3.17499995 -1.0583333,0 -2.1166667,0 -3.17499998,0 z m 0.26519379,0.2651938 c 0.88202579,0 1.76405169,0 2.64607749,0 0,0.88202575 0,1.76405155 0,2.64607735 -0.8820258,0 -1.7640517,0 -2.64607749,0 0,-0.8820258 0,-1.7640516 0,-2.64607735 z"
       style="color:#000000;font-style:normal;font-variant:normal;font-weight:normal;font-stretch:normal;font-size:medium;line-height:normal;font-family:sans-serif;font-variant-ligatures:normal;font-variant-position:normal;font-variant-caps:normal;font-variant-numeric:normal;font-variant-alternates:normal;font-variant-east-asian:normal;font-feature-settings:normal;font-variation-settings:normal;text-indent:0;text-align:start;text-decoration:none;text-decoration-line:none;text-decoration-style:solid;text-decoration-color:#000000;letter-spacing:normal;word-spacing:normal;text-transform:none;writing-mode:lr-tb;direction:ltr;text-orientation:mixed;dominant-baseline:auto;baseline-shift:baseline;text-anchor:start;white-space:normal;shape-padding:0;clip-rule:nonzero;display:inline;overflow:visible;visibility:visible;opacity:0.4;isolation:auto;mix-blend-mode:normal;color-interpolation:sRGB;color-interpolation-filters:linearRGB;solid-color:#000000;solid-opacity:1;vector-effect:none;fill:#d0d0d0;fill-opacity:1;fill-rule:nonzero;stroke:none;stroke-width:0.35268956;stroke-linecap:square;stroke-linejoin:miter;stroke-miterlimit:4;stroke-dasharray:none;stroke-dashoffset:0;stroke-opacity:1;color-rendering:auto;image-rendering:auto;shape-rendering:auto;text-rendering:auto;enable-background:accumulate"
       inkscape:label="#" />
    <path
       d="M 3.0964499,1.0251719 3.122364,1.5745492 H 3.0567151 C 3.044046,1.4778035 3.02677,1.4086995 3.004887,1.367237 2.9691833,1.3004366 2.9213863,1.2514877 2.8614961,1.2203909 2.8027577,1.1881424 2.7250155,1.1720178 2.6282699,1.1720178 H 2.298298 v 1.5907755 c 0,0.1439667 0.015548,0.2338021 0.046645,0.2695059 0.043766,0.048372 0.1111423,0.072559 0.2021294,0.072559 h 0.081198 v 0.063921 H 1.6348989 v -0.063921 h 0.082925 c 0.099049,0 0.169305,-0.029945 0.2107674,-0.089835 0.025338,-0.036855 0.038007,-0.1209322 0.038007,-0.2522298 V 1.1720181 H 1.6849994 c -0.1094148,0 -0.1871568,0.00807 -0.2332262,0.024187 -0.05989,0.021883 -0.1111424,0.063921 -0.1537565,0.1261149 -0.042614,0.062194 -0.067952,0.1462703 -0.076014,0.2522299 h -0.065649 l 0.027642,-0.5493774 z"
       style="font-style:normal;font-variant:normal;font-weight:normal;font-stretch:normal;font-size:4.23333311px;font-family:'Times New Roman';-inkscape-font-specification:'Times New Roman, ';fill:#d0d0d0;stroke-width:0.26458332"
       id="path825"
       inkscape:connector-curvature="0"
       sodipodi:nodetypes="cccccscscsccccscscscscccc"
       inkscape:label="#" />
  </g>
</svg>
