<?xml version="1.0" encoding="UTF-8" standalone="no"?>
<!-- Created with Inkscape (http://www.inkscape.org/) -->

<svg xmlns:dc="http://purl.org/dc/elements/1.1/" xmlns:cc="http://creativecommons.org/ns#" xmlns:rdf="http://www.w3.org/1999/02/22-rdf-syntax-ns#" xmlns:svg="http://www.w3.org/2000/svg" xmlns="http://www.w3.org/2000/svg" xmlns:sodipodi="http://sodipodi.sourceforge.net/DTD/sodipodi-0.dtd" xmlns:inkscape="http://www.inkscape.org/namespaces/inkscape" width="16" height="16" viewBox="0 0 16 16" version="1.1" id="main" inkscape:version="0.92+devel (f318dbfe43, 2017-10-09, custom)" sodipodi:docname="krcd_flash.svg">
  <defs id="ol-defs" />
  <sodipodi:namedview id="base" pagecolor="#002466" bordercolor="#ffffff" borderopacity="0.30" inkscape:pageopacity="1" inkscape:pageshadow="2" inkscape:zoom="18.58365" inkscape:document-units="px" inkscape:current-layer="main" inkscape:document-rotation="0" showgrid="false" inkscape:showpageshadow="false" borderlayer="true" inkscape:window-width="1920" inkscape:window-height="1027" inkscape:window-x="0" inkscape:window-y="24" inkscape:window-maximized="1" units="px" inkscape:cx="6.7489001" inkscape:cy="8.0269054" />
  <metadata id="metadata5">
    <rdf:RDF>
      <cc:Work rdf:about="">
        <dc:format>image/svg+xml</dc:format>
        <dc:type rdf:resource="http://purl.org/dc/dcmitype/StillImage" />
        <dc:title></dc:title>
      </cc:Work>
    </rdf:RDF>
  </metadata>
  <g id="g843" inkscape:label="#krcd_flash" style="stroke:none">
    <path style="fill:none;stroke:none" d="M -5.5000004e-8,-4.9999999e-8 H 16.000001 V 16 H -5.5000004e-8 Z" id="boundary" inkscape:label="#boundary" inkscape:connector-curvature="0" />
    <path inkscape:label="#" id="rect812" d="M 3.1992188,2 C 2.5344187,2 2,2.5344187 2,3.1992188 V 12.800781 C 2,13.465581 2.5344187,14 3.1992188,14 H 12.800781 C 13.465581,14 14,13.465581 14,12.800781 V 3.1992188 C 14,2.5344187 13.465581,2 12.800781,2 Z m 2.7148437,1.8886719 c 0.7584339,2.99e-5 1.3345233,0.6146111 1.2871094,1.3730469 L 7.1015625,6.2558594 C 6.76644,5.7247262 6.2772353,5.5018204 5.6835938,5.5019531 5.1699058,5.5018383 4.6309935,5.7357055 4.2246094,6.109375 4.2901061,5.8500824 4.3949746,5.4996095 4.4550781,5.2617188 4.6157621,4.6257323 5.1556248,3.8887018 5.9140625,3.8886719 Z m 4.1718755,0 c 0.758439,2.99e-5 1.2983,0.7370604 1.458984,1.3730469 0.0601,0.2378908 0.164972,0.5883636 0.230469,0.8476562 C 11.369007,5.7357055 10.830094,5.5018383 10.316406,5.5019531 9.7227649,5.5018204 9.23356,5.7247262 8.8984375,6.2558594 L 8.7988281,5.2617188 C 8.7514146,4.503283 9.3275041,3.8887018 10.085938,3.8886719 Z M 5.6445312,6.03125 C 6.2976252,6.0306624 6.5984741,6.3665157 6.9160156,6.7636719 7.2325039,7.1595112 7.4937251,6.5976562 8,6.5976562 c 0.5062749,0 0.7674959,0.561855 1.0839844,0.1660157 C 9.4015258,6.3665157 9.7023743,6.0306624 10.355469,6.03125 c 0.793904,7.158e-4 1.490669,0.5810516 1.80664,1.6679688 0.202065,0.695191 0.509766,2.0253906 0.509766,2.0253906 0.0043,0.0165 0.0099,0.032258 0.01367,0.048828 l 0.01563,0.064453 h -0.002 c 0.02193,0.098453 0.03597,0.1991286 0.04297,0.2988286 0.06787,1.09125 -0.762251,1.974846 -1.853516,1.974609 C 9.8136724,12.111561 8.88987,11.252394 8.796875,10.183594 8.8076835,9.2424346 9.3840203,8.3930259 10.242188,8.140625 10.674694,8.0138205 11.132386,8.0549907 11.541016,8.2558594 11.099975,7.8536895 10.494385,7.7905368 9.9570312,7.8730469 9.5090991,7.9418264 9.1363285,8.1489365 8.7910156,8.5742188 8.5528395,8.8675533 8.3585007,9.1875008 8,9.1875 7.6414993,9.1875008 7.4471605,8.8675533 7.2089844,8.5742188 6.8636715,8.1489365 6.4909009,7.9418259 6.0429688,7.8730469 5.5056153,7.7905368 4.900026,7.8536895 4.4589844,8.2558594 4.8675722,8.054997 5.3253068,8.0138206 5.7578125,8.140625 6.6159798,8.393026 7.1923179,9.242439 7.203125,10.183594 7.11013,11.252396 6.1863306,12.111561 5.1113281,12.111328 c -1.0912644,2.37e-4 -1.9213936,-0.88336 -1.8535156,-1.974609 0.00698,-0.0997 0.021042,-0.2003784 0.042969,-0.2988284 h -0.00195 l 0.015625,-0.064453 c 0.00383,-0.01658 0.0094,-0.032328 0.013672,-0.048828 -8e-7,0 0.3076997,-1.3301996 0.5097656,-2.0253906 C 4.1538164,6.6122993 4.8506269,6.0319658 5.6445312,6.03125 Z M 5.2597656,8.7421875 C 4.4626927,8.7421808 3.79426,9.388475 3.765625,10.185547 c -0.028548,0.797001 0.5936266,1.443265 1.390625,1.443359 0.7970728,7e-6 1.4674558,-0.646286 1.4960938,-1.443359 C 6.6808914,9.388546 6.0567637,8.7422821 5.2597656,8.7421875 Z m 5.4804684,0 c -0.7969988,9.46e-5 -1.4211257,0.6463585 -1.3925778,1.4433595 0.028638,0.797073 0.6990198,1.443366 1.4960938,1.443359 0.796998,-9.4e-5 1.419175,-0.646358 1.390625,-1.443359 -0.02864,-0.797072 -0.697069,-1.4433662 -1.494141,-1.4433595 z" style="opacity:0.6;fill:#d0d0d0;stroke:none;stroke-width:1.5;stroke-linecap:round" inkscape:connector-curvature="0" />
  </g>
</svg>
