<?xml version="1.0" encoding="UTF-8" standalone="no"?>
<!-- Created with Inkscape (http://www.inkscape.org/) -->

<svg
   xmlns:dc="http://purl.org/dc/elements/1.1/"
   xmlns:cc="http://creativecommons.org/ns#"
   xmlns:rdf="http://www.w3.org/1999/02/22-rdf-syntax-ns#"
   xmlns:svg="http://www.w3.org/2000/svg"
   xmlns="http://www.w3.org/2000/svg"
   xmlns:sodipodi="http://sodipodi.sourceforge.net/DTD/sodipodi-0.dtd"
   xmlns:inkscape="http://www.inkscape.org/namespaces/inkscape"
   width="16"
   height="16"
   viewBox="0 0 16 16"
   version="1.1"
   id="main"
   inkscape:version="0.92+devel (9279f97481, 2017-09-04, custom)"
   sodipodi:docname="mail-queue.svg">
  <defs
     id="ol-defs" />
  <sodipodi:namedview
     id="base"
     pagecolor="#002466"
     bordercolor="#ffffff"
     borderopacity="0.30"
     inkscape:pageopacity="1"
     inkscape:pageshadow="2"
     inkscape:zoom="37.1673"
     inkscape:document-units="px"
     inkscape:current-layer="g1592"
     inkscape:document-rotation="0"
     showgrid="false"
     inkscape:showpageshadow="false"
     borderlayer="true"
     inkscape:window-width="1920"
     inkscape:window-height="1025"
     inkscape:window-x="0"
     inkscape:window-y="26"
     inkscape:window-maximized="1"
     units="px"
     inkscape:cx="7.9596419"
     inkscape:cy="8" />
  <metadata
     id="metadata5">
    <rdf:RDF>
      <cc:Work
         rdf:about="">
        <dc:format>image/svg+xml</dc:format>
        <dc:type
           rdf:resource="http://purl.org/dc/dcmitype/StillImage" />
        <dc:title></dc:title>
      </cc:Work>
    </rdf:RDF>
  </metadata>
  <g
     id="g1592"
     inkscape:label="#mail-queue">
    <path
       style="fill:none;stroke:none"
       d="M -5.5000004e-8,-4.9999999e-8 H 16.000001 V 16 H -5.5000004e-8 Z"
       id="boundary"
       inkscape:label="#boundary"
       inkscape:connector-curvature="0" />
    <path
       inkscape:label="#"
       id="rect836"
       d="M 4,3 C 3.446,3 3,3.446 3,4 v 8 c 0,0.554 0.446,1 1,1 h 8 c 0.554,0 1,-0.446 1,-1 V 4 C 13,3.446 12.554,3 12,3 Z M 8,4.96875 A 3.030994,3.030994 0 0 1 11.03125,8 3.030994,3.030994 0 0 1 8,11.03125 3.030994,3.030994 0 0 1 4.96875,8 3.030994,3.030994 0 0 1 8,4.96875 Z M 7.964844,5.4707031 c -0.2085456,0.014558 -0.37107,0.2266736 -0.34375,0.4316407 9.282e-4,0.7869969 -0.00139,1.5743791 0.00195,2.3613281 0.01441,0.1740612 0.16641,0.3235196 0.3398437,0.3378906 l 1.6601563,0.453125 c 0.248527,0.046985 0.49335,-0.2083607 0.42969,-0.4550781 C 10.017657,8.4375295 9.8722021,8.318719 9.7109375,8.296875 L 8.3789062,7.9394531 C 8.3777521,7.2299049 8.3810031,6.5200299 8.3769531,5.8105469 8.3601602,5.6105338 8.163806,5.4502701 7.964844,5.4707031 Z"
       style="opacity:0.6;fill:#d0d0d0;fill-opacity:1;stroke:none"
       inkscape:connector-curvature="0" />
  </g>
</svg>
