<?xml version="1.0" encoding="UTF-8" standalone="no"?>
<!-- Created with Inkscape (http://www.inkscape.org/) -->

<svg
   xmlns:dc="http://purl.org/dc/elements/1.1/"
   xmlns:cc="http://creativecommons.org/ns#"
   xmlns:rdf="http://www.w3.org/1999/02/22-rdf-syntax-ns#"
   xmlns:svg="http://www.w3.org/2000/svg"
   xmlns="http://www.w3.org/2000/svg"
   xmlns:sodipodi="http://sodipodi.sourceforge.net/DTD/sodipodi-0.dtd"
   xmlns:inkscape="http://www.inkscape.org/namespaces/inkscape"
   width="16"
   height="16"
   viewBox="0 0 16 16"
   version="1.1"
   id="main"
   inkscape:version="0.92+devel (9279f97481, 2017-09-04, custom)"
   sodipodi:docname="mail-attachment.svg">
  <defs
     id="ol-defs" />
  <sodipodi:namedview
     id="base"
     pagecolor="#002466"
     bordercolor="#ffffff"
     borderopacity="0.30"
     inkscape:pageopacity="1"
     inkscape:pageshadow="2"
     inkscape:zoom="37.1673"
     inkscape:document-units="px"
     inkscape:current-layer="main"
     inkscape:document-rotation="0"
     showgrid="false"
     inkscape:showpageshadow="false"
     borderlayer="true"
     inkscape:window-width="1920"
     inkscape:window-height="1025"
     inkscape:window-x="0"
     inkscape:window-y="26"
     inkscape:window-maximized="1"
     units="px"
     inkscape:cx="7.9596419"
     inkscape:cy="8" />
  <metadata
     id="metadata5">
    <rdf:RDF>
      <cc:Work
         rdf:about="">
        <dc:format>image/svg+xml</dc:format>
        <dc:type
           rdf:resource="http://purl.org/dc/dcmitype/StillImage" />
        <dc:title></dc:title>
      </cc:Work>
    </rdf:RDF>
  </metadata>
  <g
     id="g844"
     inkscape:label="#mail-attachment">
    <path
       style="fill:none;stroke:none"
       d="M -5.5000004e-8,-4.9999999e-8 H 16.000001 V 16 H -5.5000004e-8 Z"
       id="boundary"
       inkscape:label="#boundary"
       inkscape:connector-curvature="0" />
    <path
       inkscape:label="#"
       style="opacity:0.6;stroke-width:0.99999994"
       inkscape:connector-curvature="0"
       d="m 13.198692,4.0066814 c -1.070065,-1.108277 -2.804989,-1.108277 -3.875068,0 l -4.6773297,4.844352 0.00157,0.0016 c -0.6159937,0.668638 -0.6045801,1.7241166 0.025735,2.3782796 0.6420421,0.664969 1.6829987,0.664969 2.3250416,1e-6 L 11.261211,6.8161464 10.486183,6.0134434 6.2236066,10.428231 c -0.2140139,0.221656 -0.5609996,0.221656 -0.7750137,0 -0.2140137,-0.221656 -0.2140135,-0.5810326 -1e-7,-0.8026886 l 4.6500842,-4.816132 c 0.642042,-0.664969 1.682998,-0.664969 2.325041,0 0.642042,0.664969 0.642042,1.743097 0,2.408066 L 7.7736348,12.033609 C 6.7035636,13.14189 4.9686366,13.14189 3.898565,12.033608 2.8284945,10.925327 2.8284943,9.1284474 3.8985651,8.0201654 L 8.9361554,2.8026884 8.1611419,2.0000004 3.1235516,7.2174774 c -1.4981018,1.551597 -1.498108,4.0672286 -4e-7,5.6188196 1.4980957,1.551603 3.9270016,1.551603 5.4250969,0 l 4.6773299,-4.8443516 -0.0015,-0.0016 c 1.044012,-1.111973 1.032517,-2.886111 -0.02569,-3.983599 z"
       fill="#d0d0d0"
       id="path835" />
  </g>
</svg>
