<?xml version="1.0" encoding="UTF-8" standalone="no"?>
<!-- Created with Inkscape (http://www.inkscape.org/) -->

<svg
   xmlns:dc="http://purl.org/dc/elements/1.1/"
   xmlns:cc="http://creativecommons.org/ns#"
   xmlns:rdf="http://www.w3.org/1999/02/22-rdf-syntax-ns#"
   xmlns:svg="http://www.w3.org/2000/svg"
   xmlns="http://www.w3.org/2000/svg"
   xmlns:sodipodi="http://sodipodi.sourceforge.net/DTD/sodipodi-0.dtd"
   xmlns:inkscape="http://www.inkscape.org/namespaces/inkscape"
   width="16"
   height="16"
   viewBox="0 0 16 16"
   version="1.1"
   id="main"
   inkscape:version="0.92+devel (9279f97481, 2017-09-04, custom)"
   sodipodi:docname="mail-meeting-request-reply.svg">
  <defs
     id="ol-defs" />
  <sodipodi:namedview
     id="base"
     pagecolor="#002466"
     bordercolor="#ffffff"
     borderopacity="0.30"
     inkscape:pageopacity="1"
     inkscape:pageshadow="2"
     inkscape:zoom="37.1673"
     inkscape:document-units="px"
     inkscape:current-layer="g853"
     inkscape:document-rotation="0"
     showgrid="false"
     inkscape:showpageshadow="false"
     borderlayer="true"
     inkscape:window-width="1920"
     inkscape:window-height="1025"
     inkscape:window-x="0"
     inkscape:window-y="26"
     inkscape:window-maximized="1"
     units="px"
     inkscape:cx="14.61913"
     inkscape:cy="8">
    <inkscape:grid
       type="xygrid"
       id="grid855" />
  </sodipodi:namedview>
  <metadata
     id="metadata5">
    <rdf:RDF>
      <cc:Work
         rdf:about="">
        <dc:format>image/svg+xml</dc:format>
        <dc:type
           rdf:resource="http://purl.org/dc/dcmitype/StillImage" />
        <dc:title />
      </cc:Work>
    </rdf:RDF>
  </metadata>
  <g
     id="g853"
     inkscape:label="#mail-meeting-request-reply">
    <path
       style="fill:none;stroke:none"
       d="M -5.5000004e-8,-4.9999999e-8 H 16.000001 V 16 H -5.5000004e-8 Z"
       id="boundary"
       inkscape:label="#boundary"
       inkscape:connector-curvature="0" />
    <path
       inkscape:label="#"
       id="path835"
       opacity=".355372"
       fill="#d0d0d0"
       d="M 3.7151989,4.2650756 A 1.4549979,1.4925871 0 0 0 2.2599432,5.7576182 1.4549979,1.4925871 0 0 0 3.5830966,7.2427033 C 3.0128696,7.274176 2.474692,7.4901493 2,7.8371637 V 12.293485 H 3.4797586 V 9.4543508 C 3.8661854,8.677462 4.3896176,8.0371589 4.9957387,7.542064 4.640949,7.3685102 4.2609532,7.2617184 3.868608,7.241638 A 1.4549979,1.4925871 0 0 0 5.1704545,5.7576182 1.4549979,1.4925871 0 0 0 3.7151989,4.2650756 Z m 8.6218041,0 a 1.4549979,1.4925871 0 0 0 -1.455256,1.4925426 1.4549979,1.4925871 0 0 0 1.301847,1.4840198 c -0.433415,0.022184 -0.852239,0.1454613 -1.237926,0.3536929 0.60455,0.5099329 1.124614,1.1665424 1.50213,1.959162 V 12.293485 H 14 V 7.7966806 C 13.538266,7.4728371 13.017875,7.2729962 12.469105,7.2427033 A 1.4549979,1.4925871 0 0 0 13.792259,5.7576182 1.4549979,1.4925871 0 0 0 12.337003,4.2650756 Z"
       inkscape:connector-curvature="0"
       style="stroke-width:1" />
    <path
       style="fill:#ffb900;stroke-width:1"
       d="m 7.9648438,2 a 2.2308978,2.2308978 0 0 0 -2.2324219,2.2304688 2.2308978,2.2308978 0 0 0 1.9960937,2.21875 c -1.7515811,0.08739 -3.3557355,1.2079909 -4.25,3.0058593 V 14 H 12.447266 V 9.5546875 C 11.567445,7.7074457 9.9451776,6.5469112 8.1660156,6.4511719 A 2.2308978,2.2308978 0 0 0 10.195312,4.2304688 2.2308978,2.2308978 0 0 0 7.9648438,2 Z"
       id="path840"
       inkscape:connector-curvature="0"
       inkscape:label="#" />
  </g>
</svg>
