<?xml version="1.0" encoding="UTF-8" standalone="no"?>
<!-- Created with Inkscape (http://www.inkscape.org/) -->

<svg
   xmlns:dc="http://purl.org/dc/elements/1.1/"
   xmlns:cc="http://creativecommons.org/ns#"
   xmlns:rdf="http://www.w3.org/1999/02/22-rdf-syntax-ns#"
   xmlns:svg="http://www.w3.org/2000/svg"
   xmlns="http://www.w3.org/2000/svg"
   xmlns:sodipodi="http://sodipodi.sourceforge.net/DTD/sodipodi-0.dtd"
   xmlns:inkscape="http://www.inkscape.org/namespaces/inkscape"
   width="16"
   height="16"
   viewBox="0 0 16 16"
   version="1.1"
   id="svg8"
   inkscape:version="0.92+devel (4754229fb9, 2017-09-06, custom)"
   sodipodi:docname="mesh-gradient.svg">
  <defs
     id="defs2" />
  <sodipodi:namedview
     id="base"
     pagecolor="#002466"
     bordercolor="#ffffff"
     borderopacity="0.37647059"
     inkscape:pageopacity="1"
     inkscape:pageshadow="2"
     inkscape:zoom="18.613637"
     inkscape:cx="12.721283"
     inkscape:cy="6.9394663"
     inkscape:document-units="px"
     inkscape:current-layer="svg8"
     inkscape:document-rotation="0"
     showgrid="false"
     inkscape:showpageshadow="false"
     borderlayer="true"
     units="px"
     inkscape:window-width="1920"
     inkscape:window-height="1025"
     inkscape:window-x="0"
     inkscape:window-y="26"
     inkscape:window-maximized="1"
     inkscape:snap-page="true"
     inkscape:snap-object-midpoints="true" />
  <metadata
     id="metadata5">
    <rdf:RDF>
      <cc:Work
         rdf:about="">
        <dc:format>image/svg+xml</dc:format>
        <dc:type
           rdf:resource="http://purl.org/dc/dcmitype/StillImage" />
        <dc:title></dc:title>
      </cc:Work>
    </rdf:RDF>
  </metadata>
  <g
     id="g4318"
     inkscape:label="#mesh-gradient"
     transform="scale(2.7487474)"
     style="stroke-width:0.36380208">
    <rect
       style="fill:none;stroke-width:0.14438395;stroke-linecap:round;stroke-linejoin:round"
       id="rect4271"
       width="5.8208332"
       height="5.8208332"
       x="7.1911622e-08"
       y="7.1911622e-08"
       inkscape:label="#boundary" />
    <path
       inkscape:label="#1"
       inkscape:connector-curvature="0"
       id="path4282"
       d="m 2.0335442,0.79416096 c -0.27649,-0.006567 -0.5827211,0.06504 -0.9243936,0.26780844 l -0.11642327,0.068875 0.0699239,0.1146752 c 0.3572923,0.5969842 0.2165384,1.087914 -0.00909,1.6229333 v 0.0014 C 0.95083965,3.1207376 0.83291243,3.3840658 0.8011359,3.690406 0.76935939,3.9967463 0.82951713,4.3410896 1.0612527,4.7315725 L 1.1301277,4.8465973 1.246551,4.7791209 C 1.5965145,4.5714316 1.8687725,4.5280121 2.1223476,4.5543154 c 0.253166,0.026261 0.4909049,0.1286371 0.7453887,0.2328465 0.5561012,0.2345193 1.1815543,0.399312 1.8645201,-0.00944 L 4.8472811,4.7091976 4.7784062,4.5941728 C 4.5707171,4.2442095 4.5276473,3.9716018 4.5539504,3.7180268 4.5802113,3.4648604 4.6836362,3.2271222 4.7878459,2.9726381 v -0.00105 C 5.0221058,2.4157718 5.1868734,1.7906007 4.7784069,1.1081106 L 4.7098804,0.99344402 4.5948556,1.0619694 C 3.9978717,1.4192617 3.5072917,1.2795567 2.9722724,1.0539282 v -0.00105 h -0.0014 C 2.7199855,0.95015784 2.4566574,0.83362911 2.1503171,0.8018526 2.1120246,0.79788052 2.0730429,0.79509907 2.0335442,0.79416096 Z M 1.9454402,1.0679129 c 0.061072,-0.00548 0.1198261,-0.00522 0.1769074,6.999e-4 0.2417943,0.025081 0.470157,0.1203559 0.7118252,0.219561 0.2957218,0.5318146 0.1977353,0.9817245 0.00734,1.4582625 C 2.6261029,2.6582364 2.3990926,2.5714898 2.1408774,2.5447052 1.9198923,2.5217826 1.6786861,2.5479272 1.4150676,2.6506399 1.5415534,2.2248686 1.564604,1.7615275 1.3336062,1.2706922 1.560045,1.1519488 1.7622234,1.0843364 1.9454402,1.0679129 Z M 4.5710817,1.3329245 C 4.852183,1.8706421 4.7585952,2.3311102 4.5584959,2.8198556 4.0213658,3.1294121 3.5688641,3.0361887 3.090444,2.8467764 3.263073,2.4082265 3.3729285,1.9291163 3.185191,1.4136865 3.6126587,1.5415727 4.0778519,1.5655189 4.5710817,1.3329245 Z M 1.9185195,2.8062207 c 0.066679,-0.00348 0.1313442,-0.00132 0.194738,0.00524 0.2129884,0.022093 0.4165876,0.1008022 0.6268676,0.186347 -0.086028,0.2102424 -0.1700768,0.4319304 -0.1961365,0.6831575 -0.023117,0.222856 0.00414,0.4662127 0.1094309,0.7324526 C 2.496174,4.3558109 2.3312678,4.3063279 2.1503171,4.2875579 1.891451,4.2607059 1.5885225,4.354176 1.2703251,4.5067694 1.1120007,4.2048511 1.0442114,3.9463532 1.0678955,3.718028 1.0929582,3.4764121 1.1889614,3.2483787 1.2881557,3.006902 1.5278391,2.8729281 1.7318043,2.8159575 1.9185195,2.8062207 Z M 2.9928998,3.097104 C 3.4286995,3.2664335 3.9042556,3.370685 4.4155012,3.1817119 4.3566111,3.3406104 4.3058334,3.5073161 4.2868413,3.6904081 4.2599878,3.9492882 4.3548371,4.2521821 4.5074512,4.5704 3.9700112,4.8513559 3.5100321,4.7593661 3.0215686,4.5595612 2.8269422,4.2219411 2.7864934,3.956247 2.8121467,3.7089373 2.8337079,3.5010779 2.9098995,3.3019407 2.9928998,3.0971034 Z"
       style="color:#000000;font-style:normal;font-variant:normal;font-weight:normal;font-stretch:normal;font-size:medium;line-height:normal;font-family:sans-serif;font-variant-ligatures:normal;font-variant-position:normal;font-variant-caps:normal;font-variant-numeric:normal;font-variant-alternates:normal;font-variant-east-asian:normal;font-feature-settings:normal;text-indent:0;text-align:start;text-decoration:none;text-decoration-line:none;text-decoration-style:solid;text-decoration-color:#000000;letter-spacing:normal;word-spacing:normal;text-transform:none;writing-mode:lr-tb;direction:ltr;text-orientation:mixed;dominant-baseline:auto;baseline-shift:baseline;text-anchor:start;white-space:normal;shape-padding:0;clip-rule:nonzero;display:inline;overflow:visible;visibility:visible;opacity:0.5;isolation:auto;mix-blend-mode:normal;color-interpolation:sRGB;color-interpolation-filters:linearRGB;solid-color:#000000;solid-opacity:1;vector-effect:none;fill:#d0d0d0;fill-opacity:1;fill-rule:nonzero;stroke:none;stroke-width:0.14438395;stroke-linecap:butt;stroke-linejoin:miter;stroke-miterlimit:4;stroke-dasharray:none;stroke-dashoffset:0;stroke-opacity:1;color-rendering:auto;image-rendering:auto;shape-rendering:auto;text-rendering:auto;enable-background:accumulate" />
    <path
       inkscape:label="#2"
       id="path4313"
       d="M 0.79374997,0.79375 V 1.4935429 H 1.4942945 V 0.79375 Z m 3.53278883,0 V 1.4935429 H 5.0270833 V 0.79375 Z M 0.79374997,4.3269146 V 5.0270833 H 1.4942945 V 4.3269146 Z m 3.53278883,0 V 5.0270833 H 5.0270833 V 4.3269146 Z"
       style="fill:#00ff00;stroke-width:0.14438397;stroke-linecap:round;stroke-linejoin:round;stroke-miterlimit:4;stroke-dasharray:none"
       inkscape:connector-curvature="0" />
  </g>
</svg>
