<?xml version="1.0" encoding="UTF-8" standalone="no"?>
<!-- Created with Inkscape (http://www.inkscape.org/) -->

<svg
   xmlns:dc="http://purl.org/dc/elements/1.1/"
   xmlns:cc="http://creativecommons.org/ns#"
   xmlns:rdf="http://www.w3.org/1999/02/22-rdf-syntax-ns#"
   xmlns:svg="http://www.w3.org/2000/svg"
   xmlns="http://www.w3.org/2000/svg"
   xmlns:sodipodi="http://sodipodi.sourceforge.net/DTD/sodipodi-0.dtd"
   xmlns:inkscape="http://www.inkscape.org/namespaces/inkscape"
   id="svg3699"
   height="16"
   viewBox="0 0 16 16"
   width="16"
   version="1.1"
   sodipodi:docname="minuet-intervals.svg"
   inkscape:version="0.92+devel (1c31310676, 2017-09-09, custom)">
  <sodipodi:namedview
     pagecolor="#002466"
     bordercolor="#ffffff"
     inkscape:document-rotation="0"
     borderopacity="0.32156863"
     objecttolerance="10"
     gridtolerance="10"
     guidetolerance="10"
     inkscape:pageopacity="0"
     inkscape:pageshadow="2"
     inkscape:window-width="1920"
     inkscape:window-height="1027"
     id="namedview8"
     showgrid="false"
     borderlayer="true"
     inkscape:showpageshadow="false"
     inkscape:zoom="32.482718"
     inkscape:cx="7.7495578"
     inkscape:cy="11.455502"
     inkscape:window-x="0"
     inkscape:window-y="24"
     inkscape:window-maximized="1"
     inkscape:current-layer="g857">
    <inkscape:grid
       type="xygrid"
       id="grid852" />
  </sodipodi:namedview>
  <defs
     id="defs4339">
    <style
       id="current-color-scheme"
       type="text/css">.ColorScheme-Text {
        color:#f2f2f2;
      }</style>
  </defs>
  <metadata
     id="metadata3704">
    <rdf:RDF>
      <cc:Work
         rdf:about="">
        <dc:format>image/svg+xml</dc:format>
        <dc:type
           rdf:resource="http://purl.org/dc/dcmitype/StillImage" />
        <dc:title />
      </cc:Work>
    </rdf:RDF>
  </metadata>
  <g
     id="g857"
     inkscape:label="#minuet-intervals">
    <path
       inkscape:label="#boundary"
       inkscape:connector-curvature="0"
       id="rect849"
       d="M -2.15e-7,1e-7 H 16 V 16 H -2.15e-7 Z"
       style="fill:none;fill-opacity:1;stroke:none;stroke-width:2.6329999;stroke-linecap:square" />
    <path
       style="opacity:0.32999998;fill:#d0d0d0;fill-opacity:1;stroke:none;stroke-width:2.6329999;stroke-linecap:square"
       d="M 2,4 V 5 H 5.8457031 C 6.0395426,4.6174988 6.2461425,4.2801173 6.4667969,4 Z M 7.3339844,4 C 7.0557411,4.2145186 6.778946,4.5538592 6.5,5 H 9.9414062 C 9.6225712,4.5527121 9.3074186,4.2205994 8.9960938,4 Z M 9.9160156,4 C 10.095359,4.2796228 10.260821,4.6081901 10.40625,5 H 14 V 4 Z M 2,8 V 9 H 4.7597656 C 4.7989712,8.6575088 4.8383231,8.3157338 4.8945312,8 Z M 5.1953125,8 C 5.0861525,8.3190539 4.9772048,8.6421224 4.8671875,9 H 9.3066406 A 2,2 0 0 1 9.2539062,8.5527344 2,2 0 0 1 9.3320312,8 Z M 13.173828,8 A 2,2 0 0 1 13.253906,8.5527344 2,2 0 0 1 13.201172,9 H 14 V 8 Z M 2,12 v 1 h 1.1347656 a 2,2 0 0 1 -0.035156,-0.109375 2,2 0 0 1 -0.011719,-0.04297 2,2 0 0 1 -0.033203,-0.148437 2,2 0 0 1 -0.00977,-0.06055 2,2 0 0 1 -0.015625,-0.140625 2,2 0 0 1 -0.00781,-0.15625 2,2 0 0 1 0.00586,-0.140625 2,2 0 0 1 0.00195,-0.01367 2,2 0 0 1 0.013672,-0.125 A 2,2 0 0 1 3.0527344,12 Z m 4.9902344,0 a 2,2 0 0 1 0.011719,0.07031 2,2 0 0 1 0.00977,0.08984 2,2 0 0 1 0.00977,0.181641 2,2 0 0 1 -0.00781,0.15625 2,2 0 0 1 -0.015625,0.140625 2,2 0 0 1 -0.00977,0.0625 2,2 0 0 1 -0.023437,0.09961 2,2 0 0 1 -0.029297,0.117188 2,2 0 0 1 -0.00391,0.01367 2,2 0 0 1 -0.015625,0.04297 A 2,2 0 0 1 6.90625,13 H 14 v -1 z"
       id="path826"
       inkscape:connector-curvature="0"
       inkscape:label="#" />
    <path
       style="opacity:1;fill:#d0d0d0;fill-opacity:1;stroke:none;stroke-width:1px;stroke-linecap:butt;stroke-linejoin:miter;stroke-opacity:1"
       d="M 8.4570312,2.9101562 C 8.3156497,2.8928191 8.172778,2.8967691 8.0292969,2.9199219 6.5534907,3.1580646 5.0269492,5.5158994 4.6933594,9.53125 6.7606472,2.4455827 8.6546286,2.2976189 10.798828,6.4296875 10.357237,4.1562126 9.4467023,3.031516 8.4570312,2.9101562 Z"
       id="path821"
       inkscape:connector-curvature="0"
       inkscape:label="#" />
    <path
       style="opacity:1;fill:#00ff00;fill-opacity:1;stroke:none;stroke-width:1px;stroke-linecap:butt;stroke-linejoin:miter;stroke-opacity:1"
       d="m 11.253906,6.5527344 a 2,2 0 0 0 -1.9999998,2 2,2 0 0 0 1.9999998,1.9999996 2,2 0 0 0 2,-1.9999996 2,2 0 0 0 -2,-2 z M 5.0214844,10.341797 a 2,2 0 0 0 -0.1777344,0.0078 2,2 0 0 0 -0.097656,0.01367 2,2 0 0 0 -0.083984,0.01172 2,2 0 0 0 -0.1035156,0.02344 2,2 0 0 0 -0.1132813,0.0293 2,2 0 0 0 -0.046875,0.01563 2,2 0 0 0 -0.1425781,0.05078 2,2 0 0 0 -0.060547,0.0293 2,2 0 0 0 -0.1015625,0.04883 2,2 0 0 0 -0.091797,0.05078 2,2 0 0 0 -0.089844,0.05469 2,2 0 0 0 -0.082031,0.06055 2,2 0 0 0 -0.064453,0.05078 2,2 0 0 0 -0.091797,0.07813 2,2 0 0 0 -0.066406,0.06055 2,2 0 0 0 -0.070312,0.07617 2,2 0 0 0 -0.060547,0.06836 2,2 0 0 0 -0.074219,0.09961 2,2 0 0 0 -0.041016,0.05664 2,2 0 0 0 -0.078125,0.128906 2,2 0 0 0 -0.021484,0.03711 2,2 0 0 0 -0.054688,0.113281 2,2 0 0 0 -0.039062,0.08984 2,2 0 0 0 -0.03125,0.08203 2,2 0 0 0 -0.029297,0.08984 2,2 0 0 0 -0.035156,0.138672 2,2 0 0 0 -0.013672,0.05469 2,2 0 0 0 -0.015625,0.09961 2,2 0 0 0 -0.013672,0.125 2,2 0 0 0 -0.00195,0.01367 2,2 0 0 0 -0.00586,0.140625 2,2 0 0 0 0.00781,0.15625 2,2 0 0 0 0.015625,0.140625 2,2 0 0 0 0.00977,0.06055 2,2 0 0 0 0.033203,0.148437 2,2 0 0 0 0.011719,0.04297 2,2 0 0 0 0.042969,0.130859 2,2 0 0 0 0.023437,0.0625 2,2 0 0 0 0.072266,0.158204 2,2 0 0 0 0.00391,0.0078 2,2 0 0 0 0.085937,0.152344 2,2 0 0 0 0.019531,0.0293 2,2 0 0 0 0.082031,0.115234 2,2 0 0 0 0.037109,0.05078 2,2 0 0 0 0.1054687,0.119141 2,2 0 0 0 0.023437,0.02344 2,2 0 0 0 0.1230469,0.117188 2,2 0 0 0 0.021484,0.01953 2,2 0 0 0 0.1191406,0.08984 2,2 0 0 0 0.048828,0.03516 2,2 0 0 0 0.1289063,0.07813 2,2 0 0 0 0.037109,0.02148 2,2 0 0 0 0.1132812,0.05469 2,2 0 0 0 0.087891,0.03906 2,2 0 0 0 0.1074219,0.03906 2,2 0 0 0 0.060547,0.02148 2,2 0 0 0 0.1582031,0.03906 2,2 0 0 0 0.035156,0.0078 2,2 0 0 0 0.1113281,0.01758 2,2 0 0 0 0.1171875,0.01367 2,2 0 0 0 0.15625,0.0078 2,2 0 0 0 0.1582031,-0.0078 2,2 0 0 0 0.1367187,-0.01563 2,2 0 0 0 0.0625,-0.0098 2,2 0 0 0 0.1484376,-0.0332 2,2 0 0 0 0.029297,-0.0078 2,2 0 0 0 0.013672,-0.0039 2,2 0 0 0 0.1308594,-0.04297 2,2 0 0 0 0.064453,-0.02344 2,2 0 0 0 0.1289062,-0.05859 2,2 0 0 0 0.035156,-0.01563 2,2 0 0 0 0.011719,-0.0059 2,2 0 0 0 0.1367188,-0.08008 2,2 0 0 0 0.023437,-0.01367 2,2 0 0 0 0.011719,-0.0078 2,2 0 0 0 0.09375,-0.06641 2,2 0 0 0 0.083984,-0.0625 2,2 0 0 0 0.070312,-0.0625 2,2 0 0 0 0.072266,-0.06836 2,2 0 0 0 0.099609,-0.107421 2,2 0 0 0 0.017578,-0.01953 2,2 0 0 0 0.00586,-0.0059 2,2 0 0 0 0.089844,-0.119141 2,2 0 0 0 0.025391,-0.0332 2,2 0 0 0 0.011719,-0.01758 2,2 0 0 0 0.056641,-0.0918 2,2 0 0 0 0.050781,-0.08984 2,2 0 0 0 0.046875,-0.09766 2,2 0 0 0 0.033203,-0.07813 2,2 0 0 0 0.044922,-0.121094 2,2 0 0 0 0.015625,-0.04297 2,2 0 0 0 0.00391,-0.01367 2,2 0 0 0 0.029297,-0.117188 2,2 0 0 0 0.023437,-0.09961 2,2 0 0 0 0.00977,-0.0625 2,2 0 0 0 0.015625,-0.140625 2,2 0 0 0 0.00781,-0.15625 2,2 0 0 0 -0.00977,-0.181641 2,2 0 0 0 -0.00977,-0.08984 2,2 0 0 0 -0.013672,-0.08789 2,2 0 0 0 -0.023437,-0.103516 2,2 0 0 0 -0.029297,-0.113281 2,2 0 0 0 -0.00391,-0.01563 2,2 0 0 0 -0.011719,-0.03125 2,2 0 0 0 -0.052734,-0.144531 2,2 0 0 0 -0.00391,-0.01172 2,2 0 0 0 -0.015625,-0.03125 2,2 0 0 0 -0.060547,-0.130859 2,2 0 0 0 -0.033203,-0.05469 2,2 0 0 0 -0.078125,-0.126953 2,2 0 0 0 -0.019531,-0.02734 2,2 0 0 0 -0.091797,-0.121094 2,2 0 0 0 -0.042969,-0.04883 2,2 0 0 0 -0.097656,-0.105468 2,2 0 0 0 -0.00977,-0.0098 2,2 0 0 0 -0.039063,-0.0332 2,2 0 0 0 -0.083984,-0.07617 2,2 0 0 0 -0.099609,-0.07422 2,2 0 0 0 -0.041016,-0.03125 2,2 0 0 0 -0.017578,-0.01172 2,2 0 0 0 -0.091797,-0.05664 2,2 0 0 0 -0.091797,-0.05078 2,2 0 0 0 -0.078125,-0.03906 2,2 0 0 0 -0.109375,-0.04883 2,2 0 0 0 -0.015625,-0.0059 2,2 0 0 0 -0.027344,-0.0098 2,2 0 0 0 -0.1464844,-0.04883 2,2 0 0 0 -0.056641,-0.01563 2,2 0 0 0 -0.1386719,-0.0293 2,2 0 0 0 -0.054687,-0.0078 2,2 0 0 0 -0.1445312,-0.01758 2,2 0 0 0 -0.15625,-0.0078 z"
       id="path819"
       inkscape:connector-curvature="0"
       inkscape:label="#" />
  </g>
</svg>
