<?xml version="1.0" encoding="UTF-8" standalone="no"?>
<svg
   xmlns:dc="http://purl.org/dc/elements/1.1/"
   xmlns:cc="http://creativecommons.org/ns#"
   xmlns:rdf="http://www.w3.org/1999/02/22-rdf-syntax-ns#"
   xmlns:svg="http://www.w3.org/2000/svg"
   xmlns="http://www.w3.org/2000/svg"
   xmlns:sodipodi="http://sodipodi.sourceforge.net/DTD/sodipodi-0.dtd"
   xmlns:inkscape="http://www.inkscape.org/namespaces/inkscape"
   height="16"
   viewBox="0 0 4.2333332 4.2333332"
   width="16"
   version="1.1"
   id="svg4"
   sodipodi:docname="minuet-scales.svg"
   inkscape:version="0.92+devel (1c31310676, 2017-09-09, custom)">
  <metadata
     id="metadata10">
    <rdf:RDF>
      <cc:Work
         rdf:about="">
        <dc:format>image/svg+xml</dc:format>
        <dc:type
           rdf:resource="http://purl.org/dc/dcmitype/StillImage" />
        <dc:title></dc:title>
      </cc:Work>
    </rdf:RDF>
  </metadata>
  <defs
     id="defs8" />
  <sodipodi:namedview
     pagecolor="#002466"
     bordercolor="#ffffff"
     inkscape:document-rotation="0"
     borderopacity="0.13333333"
     objecttolerance="10"
     gridtolerance="10"
     guidetolerance="10"
     inkscape:pageopacity="0"
     inkscape:pageshadow="2"
     inkscape:window-width="1920"
     inkscape:window-height="1027"
     id="namedview6"
     showgrid="false"
     borderlayer="true"
     inkscape:showpageshadow="false"
     inkscape:zoom="45.9375"
     inkscape:cx="7.847619"
     inkscape:cy="8"
     inkscape:window-x="0"
     inkscape:window-y="24"
     inkscape:window-maximized="1"
     inkscape:current-layer="svg4"
     inkscape:snap-intersection-paths="true"
     inkscape:object-paths="true" />
  <g
     id="g861"
     inkscape:label="#minuet-scales">
    <path
       id="path2"
       stroke-width=".25455"
       stroke-linecap="round"
       fill="none"
       d="M 0,0 H 4.2333332 V 4.2333332 H 0 Z"
       inkscape:connector-curvature="0" />
    <path
       inkscape:label="#"
       sodipodi:nodetypes="ccccccccccccccc"
       inkscape:connector-curvature="0"
       id="rect812"
       transform="scale(0.26458333)"
       d="m 2,3.5 v 1 h 12 v -1 z m 0,4 v 1 h 12 v -1 z m 0,4 v 1 h 12 v -1 z"
       style="opacity:0.6;fill:#d0d0d0;stroke-width:3.29999995" />
    <path
       inkscape:label="#"
       id="path843"
       transform="scale(0.26458333)"
       d="m 11.349609,2.8085938 v 3.484375 a 2,2 0 0 0 -0.949218,-0.2402344 2,2 0 0 0 -2.0000004,2 A 2,2 0 0 0 10.400391,10.052734 2,2 0 0 0 12.347656,8.5 h 0.002 V 8.49414 a 2,2 0 0 0 0.05078,-0.4414062 2,2 0 0 0 -0.05078,-0.4394532 V 2.8085938 Z m -4.5019528,4 v 3.4765622 a 2,2 0 0 0 -0.9472656,-0.240234 2,2 0 0 0 -2,2 2,2 0 0 0 2,2 A 2,2 0 0 0 7.8457031,12.5 a 2,2 0 0 0 0.00195,-0.0039 2,2 0 0 0 0.052734,-0.451172 2,2 0 0 0 -0.052734,-0.447266 V 6.8085938 Z"
       style="fill:#00ff00;stroke-width:3.29999995"
       inkscape:connector-curvature="0" />
  </g>
</svg>
