<?xml version="1.0" encoding="UTF-8" standalone="no"?>
<!-- Created with Inkscape (http://www.inkscape.org/) -->

<svg xmlns:dc="http://purl.org/dc/elements/1.1/" xmlns:cc="http://creativecommons.org/ns#" xmlns:rdf="http://www.w3.org/1999/02/22-rdf-syntax-ns#" xmlns:svg="http://www.w3.org/2000/svg" xmlns="http://www.w3.org/2000/svg" xmlns:sodipodi="http://sodipodi.sourceforge.net/DTD/sodipodi-0.dtd" xmlns:inkscape="http://www.inkscape.org/namespaces/inkscape" width="16" height="16" viewBox="0 0 16 16" version="1.1" id="main" inkscape:version="0.92+devel (8ef6761023, 2017-10-07, custom)" sodipodi:docname="newparametric.svg">
  <defs id="ol-defs" />
  <sodipodi:namedview id="base" pagecolor="#002466" bordercolor="#ffffff" borderopacity="0.30" inkscape:pageopacity="1" inkscape:pageshadow="2" inkscape:zoom="37.1673" inkscape:document-units="px" inkscape:current-layer="main" inkscape:document-rotation="0" showgrid="false" inkscape:showpageshadow="false" borderlayer="true" inkscape:window-width="1920" inkscape:window-height="1029" inkscape:window-x="0" inkscape:window-y="22" inkscape:window-maximized="1" units="px" inkscape:cx="6.7489001" inkscape:cy="8.0269054" />
  <metadata id="metadata5">
    <rdf:RDF>
      <cc:Work rdf:about="">
        <dc:format>image/svg+xml</dc:format>
        <dc:type rdf:resource="http://purl.org/dc/dcmitype/StillImage" />
        <dc:title></dc:title>
      </cc:Work>
    </rdf:RDF>
  </metadata>
  <g id="g865" inkscape:label="#newparametric" style="stroke:none">
    <path style="fill:none;stroke:none" d="M -5.5000004e-8,-4.9999999e-8 H 16.000001 V 16 H -5.5000004e-8 Z" id="boundary" inkscape:label="#boundary" inkscape:connector-curvature="0" />
    <path inkscape:label="#" inkscape:connector-curvature="0" style="opacity:0.4;fill:#d0d0d0;stroke:none;stroke-width:0.89999992" d="M 7.6898436,1.9 6.3714842,4.1832031 H 7.1898436 V 7.8414064 H 2.0999998 v 1 H 7.1898436 V 13.9 h 1 V 8.8414064 H 11.816796 V 9.659765 L 14.1,8.3414064 11.816796,7.0230474 v 0.818359 H 8.1898436 V 4.1832031 h 0.8183597 z" id="rect811" />
    <path inkscape:label="#" inkscape:connector-curvature="0" style="color:#000000;font-style:normal;font-variant:normal;font-weight:normal;font-stretch:normal;font-size:medium;line-height:normal;font-family:sans-serif;font-variant-ligatures:normal;font-variant-position:normal;font-variant-caps:normal;font-variant-numeric:normal;font-variant-alternates:normal;font-variant-east-asian:normal;font-feature-settings:normal;font-variation-settings:normal;text-indent:0;text-align:start;text-decoration:none;text-decoration-line:none;text-decoration-style:solid;text-decoration-color:#000000;letter-spacing:normal;word-spacing:normal;text-transform:none;writing-mode:lr-tb;direction:ltr;text-orientation:mixed;dominant-baseline:auto;baseline-shift:baseline;text-anchor:start;white-space:normal;shape-padding:0;clip-rule:nonzero;display:inline;overflow:visible;visibility:visible;opacity:1;isolation:auto;mix-blend-mode:normal;color-interpolation:sRGB;color-interpolation-filters:linearRGB;solid-color:#000000;solid-opacity:1;vector-effect:none;fill:#00ff00;fill-opacity:1;fill-rule:nonzero;stroke:none;stroke-width:0.80000001;stroke-linecap:round;stroke-linejoin:miter;stroke-miterlimit:4;stroke-dasharray:none;stroke-dashoffset:0;stroke-opacity:1;color-rendering:auto;image-rendering:auto;shape-rendering:auto;text-rendering:auto;enable-background:accumulate" d="m 5.7570449,4.3837367 c -0.3683685,0 -0.6942863,0.1659382 -0.9431237,0.4068655 -0.2488381,0.2409281 -0.4355527,0.554648 -0.5822641,0.898556 -0.293422,0.6878152 -0.425954,1.5011238 -0.4298686,2.1450308 -0.0076,1.2509445 0.8427672,2.437295 1.5196367,3.154288 -0.1779815,0.127546 -0.3500758,0.260694 -0.6009536,0.372362 -0.3590377,0.159809 -0.751425,0.265972 -1.0063823,0.265971 a 0.29443861,0.29443861 0 0 0 -0.2932881,0.294727 0.29443861,0.29443861 0 0 0 0.2932881,0.294726 c 0.4000426,0 0.8367503,-0.135997 1.245038,-0.317729 0.3143795,-0.139932 0.5604712,-0.320599 0.7921664,-0.498878 0.5108797,0.412992 1.276041,0.816607 2.048706,0.816607 0.7726658,0 1.5378274,-0.403615 2.0487063,-0.816607 0.231695,0.178279 0.477788,0.358946 0.792167,0.498878 0.408287,0.181732 0.844995,0.317729 1.245038,0.317729 a 0.29443861,0.29443861 0 0 0 0.293288,-0.294726 0.29443861,0.29443861 0 0 0 -0.293288,-0.294727 c -0.254958,0 -0.647344,-0.106162 -1.006382,-0.265971 -0.250878,-0.111668 -0.422972,-0.244816 -0.600954,-0.372362 0.676869,-0.716993 1.527242,-1.9033435 1.519637,-3.154288 C 11.794311,7.1902886 11.66176,6.3769726 11.368343,5.6891582 11.221634,5.3452502 11.034915,5.031531 10.786079,4.7906022 10.537244,4.5496742 10.211324,4.3837367 9.842956,4.3837367 c -0.3683688,0 -0.6942869,0.1659382 -0.9431243,0.4068655 C 8.6509943,5.0315303 8.464279,5.3452502 8.3175676,5.6891582 8.0241455,6.3769734 7.890176,7.190282 7.8862614,7.834189 7.8787679,9.0673906 8.704995,10.229474 9.3771443,10.951097 8.9562395,11.254736 8.3202492,11.62681 7.7999997,11.62681 7.2797503,11.62681 6.64376,11.254736 6.2228556,10.951097 6.8950052,10.229474 7.7212367,9.0673906 7.7137388,7.834189 7.7098375,7.190282 7.5758547,6.3769734 7.2824319,5.6891582 7.1357212,5.3452502 6.9490059,5.0315303 6.7001685,4.7906022 6.4513303,4.5496749 6.1254133,4.3837367 5.7570449,4.3837367 Z m 0,0.5894521 c 0.1997508,0 0.3652827,0.078775 0.5333821,0.2415316 C 6.4585264,5.3774765 6.614668,5.6258391 6.7404234,5.9206259 6.9919351,6.510198 7.1208727,7.2770258 7.1242867,7.8385018 7.1301019,8.797213 6.3505639,9.951311 5.7570449,10.59455 5.1635258,9.951311 4.3839746,8.797213 4.389803,7.8385018 4.3931891,7.2770258 4.5221539,6.510198 4.7736656,5.9206259 4.8994218,5.6258391 5.0555626,5.3774765 5.223662,5.2147204 5.3917614,5.0519643 5.5572933,4.9731888 5.7570449,4.9731888 Z m 4.0859111,0 c 0.199751,0 0.365285,0.078776 0.533382,0.2415316 0.168097,0.1627561 0.324242,0.4111187 0.449996,0.7059055 0.251509,0.5895728 0.380434,1.3563933 0.383863,1.9178759 C 11.216012,8.797213 10.436475,9.951311 9.842956,10.59455 9.2494363,9.951311 8.4698851,8.797213 8.4757135,7.8385018 8.4790995,7.2770258 8.6080644,6.510198 8.859576,5.9206259 8.9853322,5.6258391 9.1414738,5.3774765 9.3095736,5.2147204 9.477673,5.0519643 9.6432049,4.9731888 9.842956,4.9731888 Z" id="path824" />
  </g>
</svg>
