<?xml version="1.0" encoding="UTF-8" standalone="no"?>
<svg
   xmlns:dc="http://purl.org/dc/elements/1.1/"
   xmlns:cc="http://creativecommons.org/ns#"
   xmlns:rdf="http://www.w3.org/1999/02/22-rdf-syntax-ns#"
   xmlns:svg="http://www.w3.org/2000/svg"
   xmlns="http://www.w3.org/2000/svg"
   xmlns:sodipodi="http://sodipodi.sourceforge.net/DTD/sodipodi-0.dtd"
   xmlns:inkscape="http://www.inkscape.org/namespaces/inkscape"
   height="16"
   viewBox="0 0 16 16"
   width="16"
   version="1.1"
   id="svg4"
   sodipodi:docname="office-chart-polar-stacked.svg"
   inkscape:version="0.92+devel (1c31310676, 2017-09-09, custom)">
  <metadata
     id="metadata10">
    <rdf:RDF>
      <cc:Work
         rdf:about="">
        <dc:format>image/svg+xml</dc:format>
        <dc:type
           rdf:resource="http://purl.org/dc/dcmitype/StillImage" />
        <dc:title></dc:title>
      </cc:Work>
    </rdf:RDF>
  </metadata>
  <defs
     id="defs8" />
  <sodipodi:namedview
     pagecolor="#002466"
     bordercolor="#ffffff"
     inkscape:document-rotation="0"
     borderopacity="0.13333333"
     objecttolerance="10"
     gridtolerance="10"
     guidetolerance="10"
     inkscape:pageopacity="0"
     inkscape:pageshadow="2"
     inkscape:window-width="1920"
     inkscape:window-height="1027"
     id="namedview6"
     showgrid="false"
     borderlayer="true"
     inkscape:showpageshadow="false"
     inkscape:zoom="32.482718"
     inkscape:cx="7.542857"
     inkscape:cy="6.6021187"
     inkscape:window-x="0"
     inkscape:window-y="24"
     inkscape:window-maximized="1"
     inkscape:current-layer="svg4" />
  <g
     id="g878"
     inkscape:label="#office-chart-polar-stacked"
     style="stroke:none">
    <path
       inkscape:connector-curvature="0"
       inkscape:label="#boundary"
       style="stroke:none"
       id="path2"
       stroke-width=".25455"
       stroke-linecap="round"
       fill="none"
       d="M 0,-4.9999999e-8 H 16 V 16 H 0 Z" />
    <path
       inkscape:label="#"
       style="opacity:0.27083333;fill:#d0d0d0;stroke:none;stroke-width:1.20000005"
       d="M 8,2 V 5.1445312 A 2.854711,2.854711 0 0 1 10.855469,8 H 14 A 5.9999999,5.9999999 0 0 0 8,2 Z"
       id="path834"
       inkscape:connector-curvature="0" />
    <path
       inkscape:label="#"
       style="opacity:0.79861109;fill:#d0d0d0;stroke:none;stroke-width:1.20000005"
       d="M 10.855469,8 A 2.854711,2.854711 0 0 1 9.4277344,10.472656 L 11,13.195312 A 5.9999999,5.9999999 0 0 0 14,8 Z"
       id="path828"
       inkscape:connector-curvature="0" />
    <path
       inkscape:label="#"
       style="opacity:0.50347224;fill:#d0d0d0;stroke:none;stroke-width:1.20000005"
       d="M 5.1894531,8.4960938 2.0917969,9.0410156 A 5.9999999,5.9999999 0 0 0 5.4648438,13.4375 5.9999999,5.9999999 0 0 0 11,13.195312 L 9.4277344,10.472656 A 2.854711,2.854711 0 0 1 6.7929688,10.587891 2.854711,2.854711 0 0 1 5.1894531,8.4960938 Z"
       id="path830"
       inkscape:connector-curvature="0" />
    <path
       inkscape:label="#"
       style="opacity:0.88888891;fill:#d0d0d0;fill-opacity:1;stroke:none;stroke-width:1.20000005"
       d="m 8,2 a 5.9999999,5.9999999 0 0 0 -4.5957031,2.1425781 5.9999999,5.9999999 0 0 0 -1.3125,4.8984375 L 5.1894531,8.4960938 A 2.854711,2.854711 0 0 1 5.8125,6.1640625 2.854711,2.854711 0 0 1 8,5.1445312 Z"
       id="path832"
       inkscape:connector-curvature="0" />
  </g>
</svg>
