<?xml version="1.0" encoding="UTF-8" standalone="no"?>
<svg
   xmlns:dc="http://purl.org/dc/elements/1.1/"
   xmlns:cc="http://creativecommons.org/ns#"
   xmlns:rdf="http://www.w3.org/1999/02/22-rdf-syntax-ns#"
   xmlns:svg="http://www.w3.org/2000/svg"
   xmlns="http://www.w3.org/2000/svg"
   xmlns:sodipodi="http://sodipodi.sourceforge.net/DTD/sodipodi-0.dtd"
   xmlns:inkscape="http://www.inkscape.org/namespaces/inkscape"
   height="16"
   viewBox="0 0 16 16"
   width="16"
   version="1.1"
   id="svg4"
   sodipodi:docname="office-chart-ring.svg"
   inkscape:version="0.92+devel (1c31310676, 2017-09-09, custom)">
  <metadata
     id="metadata10">
    <rdf:RDF>
      <cc:Work
         rdf:about="">
        <dc:format>image/svg+xml</dc:format>
        <dc:type
           rdf:resource="http://purl.org/dc/dcmitype/StillImage" />
        <dc:title></dc:title>
      </cc:Work>
    </rdf:RDF>
  </metadata>
  <defs
     id="defs8">
    <style
       id="current-color-scheme"
       type="text/css">
      .ColorScheme-Text {
        color:#f2f2f2;
      }
      </style>
  </defs>
  <sodipodi:namedview
     pagecolor="#002466"
     bordercolor="#ffffff"
     inkscape:document-rotation="0"
     borderopacity="0.13333333"
     objecttolerance="10"
     gridtolerance="10"
     guidetolerance="10"
     inkscape:pageopacity="0"
     inkscape:pageshadow="2"
     inkscape:window-width="1920"
     inkscape:window-height="1027"
     id="namedview6"
     showgrid="false"
     borderlayer="true"
     inkscape:showpageshadow="false"
     inkscape:zoom="22.96875"
     inkscape:cx="7.847619"
     inkscape:cy="8"
     inkscape:window-x="0"
     inkscape:window-y="24"
     inkscape:window-maximized="1"
     inkscape:current-layer="svg4" />
  <g
     id="g833"
     inkscape:label="#office-chart-ring"
     style="stroke:none">
    <path
       inkscape:connector-curvature="0"
       inkscape:label="#boundary"
       style="stroke:none"
       id="path2"
       stroke-width=".25455"
       stroke-linecap="round"
       fill="none"
       d="M 0,-4.9999999e-8 H 16 V 16 H 0 Z" />
    <path
       inkscape:label="#"
       inkscape:connector-curvature="0"
       id="path828"
       d="m 8,1.9999999 c -3.324,0 -6,2.676 -6,6.0000002 C 2,11.324 4.676,14 8,14 11.324,14 14,11.324 14,8.0000001 14,7.1182199 13.80752,6.2839699 13.46875,5.5312499 l -0.78125,0.78125 C 12.87723,6.8417699 13,7.4038598 13,8.0000001 13,10.77 10.77,13 8,13 5.23,13 3,10.77 3,8.0000001 3,5.2299999 5.23,2.9999999 8,2.9999999 c 1.6415701,0 3.079714,0.7951356 3.990234,2.0097656 L 12.71289,4.2871092 C 11.616,2.8947092 9.9180601,1.9999999 8,1.9999999 Z m 0,2 c -1.108,0 -2.1070781,0.4469218 -2.8300781,1.1699218 L 5.8769531,5.876953 C 6.4192031,5.334703 7.169,4.9999998 8,4.9999999 c 1.6620001,0 3,1.338 3,3.0000002 C 11,9.6620001 9.6620001,11 8,11 6.338,11 5,9.6620001 5,8.0000001 5,7.6981501 5.0565,7.4130717 5.1386719,7.1386717 l -0.78125,-0.78125 C 4.1318318,6.8590017 4,7.4125099 4,8.0000001 4,10.216 5.784,12 8,12 10.216,12 12,10.216 12,8.0000001 12,5.7839998 10.216,3.9999999 8,3.9999999 Z M 8,6.0253905 A 2,2 0 0 0 6.7539062,6.4511717 2,2 0 0 0 6.4121093,9.2578121 2,2 0 0 0 8.7871091,9.8574221 L 8.125,9.0136721 a 1,1 0 0 1 -0.9257813,-0.371094 1,1 0 0 1 0.171875,-1.404297 1,1 0 0 1 1.4023434,0.1699219 1,1 0 0 1 0.140625,0.9902341 l 0.658204,0.841797 A 2,2 0 0 0 9.5625001,6.7929686 2,2 0 0 0 8,6.0253905 Z"
       style="opacity:0.6;fill:#d0d0d0;fill-opacity:1;stroke:none" />
  </g>
</svg>
