<?xml version="1.0" encoding="UTF-8" standalone="no"?>
<svg
   xmlns:dc="http://purl.org/dc/elements/1.1/"
   xmlns:cc="http://creativecommons.org/ns#"
   xmlns:rdf="http://www.w3.org/1999/02/22-rdf-syntax-ns#"
   xmlns:svg="http://www.w3.org/2000/svg"
   xmlns="http://www.w3.org/2000/svg"
   xmlns:sodipodi="http://sodipodi.sourceforge.net/DTD/sodipodi-0.dtd"
   xmlns:inkscape="http://www.inkscape.org/namespaces/inkscape"
   height="16"
   viewBox="0 0 16 16"
   width="16"
   version="1.1"
   id="svg4"
   sodipodi:docname="package-upgrade.svg"
   inkscape:version="0.92+devel (1c31310676, 2017-09-09, custom)">
  <metadata
     id="metadata10">
    <rdf:RDF>
      <cc:Work
         rdf:about="">
        <dc:format>image/svg+xml</dc:format>
        <dc:type
           rdf:resource="http://purl.org/dc/dcmitype/StillImage" />
        <dc:title></dc:title>
      </cc:Work>
    </rdf:RDF>
  </metadata>
  <defs
     id="defs8" />
  <sodipodi:namedview
     pagecolor="#002466"
     bordercolor="#ffffff"
     inkscape:document-rotation="0"
     borderopacity="0.13333333"
     objecttolerance="10"
     gridtolerance="10"
     guidetolerance="10"
     inkscape:pageopacity="0"
     inkscape:pageshadow="2"
     inkscape:window-width="1920"
     inkscape:window-height="1027"
     id="namedview6"
     showgrid="false"
     borderlayer="true"
     inkscape:showpageshadow="false"
     inkscape:zoom="22.96875"
     inkscape:cx="7.542857"
     inkscape:cy="8"
     inkscape:window-x="0"
     inkscape:window-y="24"
     inkscape:window-maximized="1"
     inkscape:current-layer="svg4" />
  <g
     id="g866"
     inkscape:label="#package-upgrade">
    <path
       inkscape:connector-curvature="0"
       inkscape:label="#boundary"
       style="stroke:none"
       id="path2"
       stroke-width=".25455"
       stroke-linecap="round"
       fill="none"
       d="M 0,-4.9999999e-8 H 16 V 16 H 0 Z" />
    <path
       inkscape:label="#"
       inkscape:connector-curvature="0"
       id="path821"
       d="M 12.107422,2 14,5.0615234 H 8.2314453 V 2 Z M 7.5576171,2 V 5.0615234 H 2 L 3.892579,2 Z M 14,5.7294922 V 14 H 2 V 5.7294922 Z M 8.7309571,7.5327148 8.7543941,8.454102 a 3.5681696,3.3825549 15 0 0 -2.7861321,2.424316 3.5681696,3.3825549 15 0 0 -0.03369,1.511719 3.5681696,3.3825549 15 0 1 0.01172,-0.0542 3.5681696,3.3825549 15 0 1 2.8461917,-2.431641 L 8.8232422,11.090821 9.8559571,10.173829 10.888672,9.256836 9.8090821,8.395508 Z"
       style="fill:#00ff00;fill-opacity:1;stroke:none;stroke-width:1" />
  </g>
</svg>
