<?xml version="1.0" encoding="UTF-8" standalone="no"?>
<svg
   xmlns:dc="http://purl.org/dc/elements/1.1/"
   xmlns:cc="http://creativecommons.org/ns#"
   xmlns:rdf="http://www.w3.org/1999/02/22-rdf-syntax-ns#"
   xmlns:svg="http://www.w3.org/2000/svg"
   xmlns="http://www.w3.org/2000/svg"
   xmlns:sodipodi="http://sodipodi.sourceforge.net/DTD/sodipodi-0.dtd"
   xmlns:inkscape="http://www.inkscape.org/namespaces/inkscape"
   height="16"
   viewBox="0 0 16 16"
   width="16"
   version="1.1"
   id="svg4"
   sodipodi:docname="package-reinstall.svg"
   inkscape:version="0.92+devel (1c31310676, 2017-09-09, custom)">
  <metadata
     id="metadata10">
    <rdf:RDF>
      <cc:Work
         rdf:about="">
        <dc:format>image/svg+xml</dc:format>
        <dc:type
           rdf:resource="http://purl.org/dc/dcmitype/StillImage" />
        <dc:title></dc:title>
      </cc:Work>
    </rdf:RDF>
  </metadata>
  <defs
     id="defs8" />
  <sodipodi:namedview
     pagecolor="#002466"
     bordercolor="#ffffff"
     inkscape:document-rotation="0"
     borderopacity="0.13333333"
     objecttolerance="10"
     gridtolerance="10"
     guidetolerance="10"
     inkscape:pageopacity="0"
     inkscape:pageshadow="2"
     inkscape:window-width="1920"
     inkscape:window-height="1027"
     id="namedview6"
     showgrid="false"
     borderlayer="true"
     inkscape:showpageshadow="false"
     inkscape:zoom="45.9375"
     inkscape:cx="7.542857"
     inkscape:cy="8"
     inkscape:window-x="0"
     inkscape:window-y="24"
     inkscape:window-maximized="1"
     inkscape:current-layer="g870" />
  <g
     id="g870"
     inkscape:label="#package-reinstall">
    <path
       inkscape:connector-curvature="0"
       inkscape:label="#boundary"
       style="stroke:none"
       id="path2"
       stroke-width=".25455"
       stroke-linecap="round"
       fill="none"
       d="M 0,-4.9999999e-8 H 16 V 16 H 0 Z" />
    <path
       inkscape:label="#"
       id="path821"
       d="M 3.8925781,2 2,5.0615234 H 7.7685547 V 2 Z M 8.4423829,2 V 5.0615234 H 14 L 12.107421,2 Z M 2,5.7294922 V 14 H 14 V 5.7294922 Z m 6.2065429,1.4033203 a 0.14196652,0.14196652 0 0 1 0.1450196,0.1420898 v 0.3735352 c 0.6959618,0.084361 1.321689,0.4886515 1.6772465,1.1044925 0.401088,0.694704 0.401088,1.552366 0,2.24707 L 9.4091796,10.642579 c 0.2739621,-0.474518 0.2739621,-1.057711 0,-1.532227 C 9.1810875,8.715285 8.7914187,8.449362 8.3515625,8.370605 V 8.719238 A 0.14196652,0.14196652 0 0 1 8.1391602,8.842285 L 6.8881836,8.120117 a 0.14196652,0.14196652 0 0 1 0,-0.2446287 L 8.1391602,7.1518554 a 0.14196652,0.14196652 0 0 1 0.067383,-0.019043 z M 5.9711914,8.84082 6.5908203,9.198242 c -0.2739624,0.474517 -0.2739624,1.057709 0,1.532227 0.2280919,0.395066 0.6177617,0.659524 1.0576172,0.738281 v -0.348633 a 0.14196652,0.14196652 0 0 1 0.2124023,-0.123046 l 1.2509766,0.722167 a 0.14196652,0.14196652 0 0 1 0,0.246094 L 7.8608398,12.6875 A 0.14196652,0.14196652 0 0 1 7.7934568,12.70654 0.14196652,0.14196652 0 0 1 7.6484372,12.564451 V 12.19238 C 6.9524754,12.10802 6.3267468,11.703728 5.9711911,11.087888 c -0.4010875,-0.694704 -0.4010875,-1.552367 0,-2.247071 z"
       style="fill:#00ff00;fill-opacity:1;stroke:none;stroke-width:1"
       inkscape:connector-curvature="0" />
  </g>
</svg>
