<?xml version="1.0" encoding="UTF-8" standalone="no"?>
<svg
   xmlns:dc="http://purl.org/dc/elements/1.1/"
   xmlns:cc="http://creativecommons.org/ns#"
   xmlns:rdf="http://www.w3.org/1999/02/22-rdf-syntax-ns#"
   xmlns:svg="http://www.w3.org/2000/svg"
   xmlns="http://www.w3.org/2000/svg"
   xmlns:sodipodi="http://sodipodi.sourceforge.net/DTD/sodipodi-0.dtd"
   xmlns:inkscape="http://www.inkscape.org/namespaces/inkscape"
   height="16"
   viewBox="0 0 16 16"
   width="16"
   version="1.1"
   id="svg4"
   sodipodi:docname="package-installed-outdated.svg"
   inkscape:version="0.92+devel (1c31310676, 2017-09-09, custom)">
  <metadata
     id="metadata10">
    <rdf:RDF>
      <cc:Work
         rdf:about="">
        <dc:format>image/svg+xml</dc:format>
        <dc:type
           rdf:resource="http://purl.org/dc/dcmitype/StillImage" />
        <dc:title></dc:title>
      </cc:Work>
    </rdf:RDF>
  </metadata>
  <defs
     id="defs8" />
  <sodipodi:namedview
     pagecolor="#002466"
     bordercolor="#ffffff"
     inkscape:document-rotation="0"
     borderopacity="0.13333333"
     objecttolerance="10"
     gridtolerance="10"
     guidetolerance="10"
     inkscape:pageopacity="0"
     inkscape:pageshadow="2"
     inkscape:window-width="1920"
     inkscape:window-height="1027"
     id="namedview6"
     showgrid="false"
     borderlayer="true"
     inkscape:showpageshadow="false"
     inkscape:zoom="16.241359"
     inkscape:cx="7.542857"
     inkscape:cy="8"
     inkscape:window-x="0"
     inkscape:window-y="24"
     inkscape:window-maximized="1"
     inkscape:current-layer="svg4" />
  <g
     id="g883"
     inkscape:label="#package-installed-outdated">
    <path
       inkscape:connector-curvature="0"
       inkscape:label="#boundary"
       style="stroke:none"
       id="path2"
       stroke-width=".25455"
       stroke-linecap="round"
       fill="none"
       d="M 0,-4.9999999e-8 H 16 V 16 H 0 Z" />
    <path
       inkscape:connector-curvature="0"
       inkscape:label="#"
       id="path876"
       d="M 3.8925781,2 2,5.0615234 H 7.7685547 V 2 Z M 8.4423829,2 V 5.0615234 H 14 L 12.107421,2 Z M 2,5.7294922 V 14 H 14 V 5.7294922 Z M 8,7.3657227 A 2.4722707,2.4722707 0 0 1 10.472656,9.836914 2.4722707,2.4722707 0 0 1 8,12.309571 2.4722707,2.4722707 0 0 1 5.5273438,9.836914 2.4722707,2.4722707 0 0 1 8,7.3657227 Z M 7.970703,7.7744141 C 7.8006006,7.7862891 7.6686334,7.9587922 7.6909179,8.125977 c 7.417e-4,0.641924 -0.00125,1.284384 0.00146,1.926269 0.011754,0.141976 0.1353919,0.263669 0.2768554,0.275391 l 1.3549805,0.370605 c 0.2027122,0.03833 0.4020202,-0.17083 0.3500977,-0.37207 -0.02861,-0.132201 -0.148242,-0.228283 -0.279783,-0.246093 L 8.3090821,9.788575 C 8.3081484,9.209821 8.3109098,8.629969 8.3076171,8.05127 8.2939201,7.8881262 8.1329894,7.7577483 7.970703,7.7744141 Z"
       style="fill:#ff6600;fill-opacity:1;stroke:none;stroke-width:1" />
  </g>
</svg>
