<?xml version="1.0" encoding="UTF-8" standalone="no"?>
<!-- Created with Inkscape (http://www.inkscape.org/) -->

<svg
   xmlns:dc="http://purl.org/dc/elements/1.1/"
   xmlns:cc="http://creativecommons.org/ns#"
   xmlns:rdf="http://www.w3.org/1999/02/22-rdf-syntax-ns#"
   xmlns:svg="http://www.w3.org/2000/svg"
   xmlns="http://www.w3.org/2000/svg"
   xmlns:sodipodi="http://sodipodi.sourceforge.net/DTD/sodipodi-0.dtd"
   xmlns:inkscape="http://www.inkscape.org/namespaces/inkscape"
   width="16"
   height="16"
   viewBox="0 0 16 16"
   version="1.1"
   id="svg8"
   inkscape:version="0.92+devel 15739 custom"
   sodipodi:docname="paint-pattern.svg">
  <defs
     id="ol-defs">
    <style
       id="current-color-scheme">      .ColorScheme-Text {
        color:#d0d0d0;
        stop-color:#d0d0d0;
      }
      .ColorScheme-Background {
        color:#212121;
        stop-color:#212121;
      }
      .ColorScheme-Highlight {
        color:#0039a9;
        stop-color:#0039a9;
      }
      .ColorScheme-ViewText {
        color:#d0d0d0;
        stop-color:#d0d0d0;
      }
      .ColorScheme-ViewBackground {
        color:#19191b;
        stop-color:#19191b;
      }
      .ColorScheme-ViewHover {
        color:#005cc7;
        stop-color:#005cc7;
      }
      .ColorScheme-ViewFocus{
        color:#002466;
        stop-color:#002466;
      }
      .ColorScheme-ButtonText {
        color:#d0d0d0;
        stop-color:#d0d0d0;
      }
      .ColorScheme-ButtonBackground {
        color:#232323;
        stop-color:#232323;                             
      }                                                 
      .ColorScheme-ButtonHover {                        
        color:#005cc7;                                  
        stop-color:#005cc7;                             
      }                                                 
      .ColorScheme-ButtonFocus{                         
        color:#0039a9;                                  
        stop-color:#0039a9;                             
      }</style>
    <style
       id="current-color-scheme-7">      .ColorScheme-Text {
        color:#d0d0d0;
        stop-color:#d0d0d0;
      }
      .ColorScheme-Background {
        color:#212121;
        stop-color:#212121;
      }
      .ColorScheme-Highlight {
        color:#0039a9;
        stop-color:#0039a9;
      }
      .ColorScheme-ViewText {
        color:#d0d0d0;
        stop-color:#d0d0d0;
      }
      .ColorScheme-ViewBackground {
        color:#19191b;
        stop-color:#19191b;
      }
      .ColorScheme-ViewHover {
        color:#005cc7;
        stop-color:#005cc7;
      }
      .ColorScheme-ViewFocus{
        color:#002466;
        stop-color:#002466;
      }
      .ColorScheme-ButtonText {
        color:#d0d0d0;
        stop-color:#d0d0d0;
      }
      .ColorScheme-ButtonBackground {
        color:#232323;
        stop-color:#232323;                             
      }                                                 
      .ColorScheme-ButtonHover {                        
        color:#005cc7;                                  
        stop-color:#005cc7;                             
      }                                                 
      .ColorScheme-ButtonFocus{                         
        color:#0039a9;                                  
        stop-color:#0039a9;                             
      }</style>
    <style
       type="text/css"
       id="current-color-scheme-6">
      .ColorScheme-Text {
        color:#f2f2f2;
      }
      </style>
    <style
       id="current-color-scheme-75">      .ColorScheme-Text {
        color:#d0d0d0;
        stop-color:#d0d0d0;
      }
      .ColorScheme-Background {
        color:#212121;
        stop-color:#212121;
      }
      .ColorScheme-Highlight {
        color:#0039a9;
        stop-color:#0039a9;
      }
      .ColorScheme-ViewText {
        color:#d0d0d0;
        stop-color:#d0d0d0;
      }
      .ColorScheme-ViewBackground {
        color:#19191b;
        stop-color:#19191b;
      }
      .ColorScheme-ViewHover {
        color:#005cc7;
        stop-color:#005cc7;
      }
      .ColorScheme-ViewFocus{
        color:#002466;
        stop-color:#002466;
      }
      .ColorScheme-ButtonText {
        color:#d0d0d0;
        stop-color:#d0d0d0;
      }
      .ColorScheme-ButtonBackground {
        color:#232323;
        stop-color:#232323;                             
      }                                                 
      .ColorScheme-ButtonHover {                        
        color:#005cc7;                                  
        stop-color:#005cc7;                             
      }                                                 
      .ColorScheme-ButtonFocus{                         
        color:#0039a9;                                  
        stop-color:#0039a9;                             
      }</style>
    <style
       id="current-color-scheme-2">      .ColorScheme-Text {
        color:#d0d0d0;
        stop-color:#d0d0d0;
      }
      .ColorScheme-Background {
        color:#212121;
        stop-color:#212121;
      }
      .ColorScheme-Highlight {
        color:#0039a9;
        stop-color:#0039a9;
      }
      .ColorScheme-ViewText {
        color:#d0d0d0;
        stop-color:#d0d0d0;
      }
      .ColorScheme-ViewBackground {
        color:#19191b;
        stop-color:#19191b;
      }
      .ColorScheme-ViewHover {
        color:#005cc7;
        stop-color:#005cc7;
      }
      .ColorScheme-ViewFocus{
        color:#002466;
        stop-color:#002466;
      }
      .ColorScheme-ButtonText {
        color:#d0d0d0;
        stop-color:#d0d0d0;
      }
      .ColorScheme-ButtonBackground {
        color:#232323;
        stop-color:#232323;                             
      }                                                 
      .ColorScheme-ButtonHover {                        
        color:#005cc7;                                  
        stop-color:#005cc7;                             
      }                                                 
      .ColorScheme-ButtonFocus{                         
        color:#0039a9;                                  
        stop-color:#0039a9;                             
      }</style>
  </defs>
  <sodipodi:namedview
     id="base"
     pagecolor="#002266"
     bordercolor="#ffffff"
     borderopacity="0.46666667"
     inkscape:pageopacity="0"
     inkscape:pageshadow="2"
     inkscape:zoom="15.887805"
     inkscape:cx="13.981425"
     inkscape:cy="8.4728493"
     inkscape:document-units="px"
     inkscape:current-layer="g4552"
     inkscape:document-rotation="0"
     showgrid="false"
     inkscape:showpageshadow="false"
     borderlayer="true"
     units="px"
     fit-margin-top="0"
     fit-margin-left="0"
     fit-margin-right="0"
     fit-margin-bottom="0"
     inkscape:window-width="1920"
     inkscape:window-height="1051"
     inkscape:window-x="0"
     inkscape:window-y="0"
     inkscape:window-maximized="1"
     inkscape:snap-page="true"
     inkscape:snap-object-midpoints="true"
     inkscape:snap-bbox="true"
     inkscape:snap-intersection-paths="true"
     inkscape:object-paths="true"
     inkscape:bbox-paths="true"
     inkscape:bbox-nodes="true" />
  <metadata
     id="metadata5">
    <rdf:RDF>
      <cc:Work
         rdf:about="">
        <dc:format>image/svg+xml</dc:format>
        <dc:type
           rdf:resource="http://purl.org/dc/dcmitype/StillImage" />
        <dc:title></dc:title>
      </cc:Work>
    </rdf:RDF>
  </metadata>
  <g
     id="g4552"
     inkscape:label="#paint-pattern">
    <rect
       y="0"
       x="0"
       height="16"
       width="16"
       id="rect4548"
       style="fill:none;fill-opacity:1;stroke:none;stroke-width:0.60600001;stroke-linecap:round;stroke-miterlimit:4;stroke-dasharray:none;stroke-opacity:0.6533403"
       inkscape:label="#boundary" />
    <path
       inkscape:label="#1"
       inkscape:connector-curvature="0"
       id="circle4501"
       d="m 3.2000001,2 a 1.2,1.2 0 0 0 -1.2,1.2 1.2,1.2 0 0 0 1.2,1.1999999 1.2,1.2 0 0 0 1.2,-1.1999999 1.2,1.2 0 0 0 -1.2,-1.2 z m 3.2,0 a 1.2,1.2 0 0 0 -1.2,1.2 1.2,1.2 0 0 0 1.2,1.1999999 1.2,1.2 0 0 0 1.2,-1.1999999 1.2,1.2 0 0 0 -1.2,-1.2 z M 9.6,2 A 1.2,1.2 0 0 0 8.4000002,3.2 1.2,1.2 0 0 0 9.6,4.3999999 1.2,1.2 0 0 0 10.8,3.2 1.2,1.2 0 0 0 9.6,2 Z m 3.2,0 A 1.2,1.2 0 0 0 11.6,3.2 1.2,1.2 0 0 0 12.8,4.3999999 1.2,1.2 0 0 0 14,3.2 1.2,1.2 0 0 0 12.8,2 Z M 3.2000001,5.1999999 a 1.2,1.2 0 0 0 -1.2,1.2 1.2,1.2 0 0 0 1.2,1.2 1.2,1.2 0 0 0 1.2,-1.2 1.2,1.2 0 0 0 -1.2,-1.2 z m 3.2,0 a 1.2,1.2 0 0 0 -1.2,1.2 1.2,1.2 0 0 0 1.2,1.2 1.2,1.2 0 0 0 1.2,-1.2 1.2,1.2 0 0 0 -1.2,-1.2 z m 3.1999999,0 a 1.2,1.2 0 0 0 -1.1999998,1.2 1.2,1.2 0 0 0 1.1999998,1.2 1.2,1.2 0 0 0 1.2,-1.2 1.2,1.2 0 0 0 -1.2,-1.2 z m 3.2,0 a 1.2,1.2 0 0 0 -1.2,1.2 1.2,1.2 0 0 0 1.2,1.2 1.2,1.2 0 0 0 1.2,-1.2 1.2,1.2 0 0 0 -1.2,-1.2 z m -9.5999999,3.2 a 1.2,1.2 0 0 0 -1.2,1.2000001 1.2,1.2 0 0 0 1.2,1.2 1.2,1.2 0 0 0 1.2,-1.2 1.2,1.2 0 0 0 -1.2,-1.2000001 z m 3.2,0 a 1.2,1.2 0 0 0 -1.2,1.2000001 1.2,1.2 0 0 0 1.2,1.2 1.2,1.2 0 0 0 1.2,-1.2 1.2,1.2 0 0 0 -1.2,-1.2000001 z m 3.1999999,0 A 1.2,1.2 0 0 0 8.4000002,9.6 1.2,1.2 0 0 0 9.6,10.8 1.2,1.2 0 0 0 10.8,9.6 1.2,1.2 0 0 0 9.6,8.3999999 Z m 3.2,0 A 1.2,1.2 0 0 0 11.6,9.6 1.2,1.2 0 0 0 12.8,10.8 1.2,1.2 0 0 0 14,9.6 1.2,1.2 0 0 0 12.8,8.3999999 Z M 3.2000001,11.6 a 1.2,1.2 0 0 0 -1.2,1.2 1.2,1.2 0 0 0 1.2,1.2 1.2,1.2 0 0 0 1.2,-1.2 1.2,1.2 0 0 0 -1.2,-1.2 z m 3.2,0 a 1.2,1.2 0 0 0 -1.2,1.2 1.2,1.2 0 0 0 1.2,1.2 1.2,1.2 0 0 0 1.2,-1.2 1.2,1.2 0 0 0 -1.2,-1.2 z M 9.6,11.6 A 1.2,1.2 0 0 0 8.4000002,12.8 1.2,1.2 0 0 0 9.6,14 1.2,1.2 0 0 0 10.8,12.8 1.2,1.2 0 0 0 9.6,11.6 Z m 3.2,0 a 1.2,1.2 0 0 0 -1.2,1.2 1.2,1.2 0 0 0 1.2,1.2 1.2,1.2 0 0 0 1.2,-1.2 1.2,1.2 0 0 0 -1.2,-1.2 z"
       style="opacity:0.6;fill:#d0d0d0;fill-opacity:1;stroke:none;stroke-width:0.38831648;stroke-linecap:round;stroke-miterlimit:4;stroke-dasharray:none;stroke-opacity:0.6533403" />
  </g>
</svg>
