<?xml version="1.0" encoding="UTF-8" standalone="no"?>
<svg
   xmlns:dc="http://purl.org/dc/elements/1.1/"
   xmlns:cc="http://creativecommons.org/ns#"
   xmlns:rdf="http://www.w3.org/1999/02/22-rdf-syntax-ns#"
   xmlns:svg="http://www.w3.org/2000/svg"
   xmlns="http://www.w3.org/2000/svg"
   xmlns:sodipodi="http://sodipodi.sourceforge.net/DTD/sodipodi-0.dtd"
   xmlns:inkscape="http://www.inkscape.org/namespaces/inkscape"
   height="16"
   viewBox="0 0 16 16"
   width="16"
   version="1.1"
   id="svg4"
   sodipodi:docname="path-simplify.svg"
   inkscape:version="0.92+devel (1c31310676, 2017-09-09, custom)">
  <metadata
     id="metadata10">
    <rdf:RDF>
      <cc:Work
         rdf:about="">
        <dc:format>image/svg+xml</dc:format>
        <dc:type
           rdf:resource="http://purl.org/dc/dcmitype/StillImage" />
        <dc:title></dc:title>
      </cc:Work>
    </rdf:RDF>
  </metadata>
  <defs
     id="defs8">
    <style
       id="current-color-scheme"
       type="text/css">
      .ColorScheme-Text {
        color:#f2f2f2;
      }
      </style>
  </defs>
  <sodipodi:namedview
     pagecolor="#002466"
     bordercolor="#ffffff"
     inkscape:document-rotation="0"
     borderopacity="0.13333333"
     objecttolerance="10"
     gridtolerance="10"
     guidetolerance="10"
     inkscape:pageopacity="0"
     inkscape:pageshadow="2"
     inkscape:window-width="1920"
     inkscape:window-height="1027"
     id="namedview6"
     showgrid="false"
     borderlayer="true"
     inkscape:showpageshadow="false"
     inkscape:zoom="45.9375"
     inkscape:cx="7.542857"
     inkscape:cy="8"
     inkscape:window-x="0"
     inkscape:window-y="24"
     inkscape:window-maximized="1"
     inkscape:current-layer="svg4" />
  <g
     id="g834"
     inkscape:label="#path-simplify"
     style="stroke:none">
    <path
       inkscape:connector-curvature="0"
       inkscape:label="#boundary"
       style="stroke:none"
       id="path2"
       stroke-width=".25455"
       stroke-linecap="round"
       fill="none"
       d="M 0,-4.9999999e-8 H 16 V 16 H 0 Z" />
    <path
       style="opacity:0.6;fill:#d0d0d0;fill-opacity:1;stroke:none"
       d="m 12.998047,2 v 0.5957031 h -0.0098 c 0,0 0.05125,0.9255469 -0.09375,1.8105469 -0.072,0.442 -0.199422,0.8640469 -0.357422,1.1230469 -0.158,0.259 -0.283921,0.3594218 -0.544921,0.3574219 -0.187,-10e-4 -0.304235,-0.090625 -0.490235,-0.390625 -0.186,-0.3 -0.368734,-0.7735313 -0.552734,-1.2695313 -0.184,-0.496 -0.365344,-1.0141249 -0.652344,-1.453125 -0.288,-0.44 -0.7755156,-0.825625 -1.3535156,-0.765625 -0.537,0.057 -0.91075,0.5187031 -1.09375,0.9707031 -0.183,0.4520001 -0.2627031,0.9490156 -0.3457032,1.4160156 -0.083,0.468 -0.1693437,0.9068282 -0.2773437,1.1738282 -0.108,0.267 -0.15025,0.3073125 -0.28125,0.3203125 -0.177,0.019 -0.2584531,-0.040078 -0.4394531,-0.3300781 -0.182,-0.2900001 -0.3667813,-0.7752032 -0.5507813,-1.2832032 -0.184,-0.508 -0.3663437,-1.0431405 -0.6523437,-1.4941406 -0.287,-0.451 -0.7821875,-0.8514844 -1.3671875,-0.7714844 -0.58,0.079 -0.9814219,0.5544531 -1.2324219,1.0644532 -0.251,0.509 -0.399,1.1017812 -0.5,1.6757812 C 2.002125,5.898 2,6.9941406 2,6.9941406 L 3,7 c 0,0 0.00655,-1.0181094 0.1855469,-2.0371094 0.089,-0.51 0.2235781,-1.0144687 0.3925781,-1.3554687 0.168,-0.341 0.3214688,-0.4721407 0.4804688,-0.4941407 0.1769999,-0.024 0.2477343,0.025594 0.4277343,0.3085938 0.179,0.282 0.3609219,0.7634844 0.5449219,1.2714844 0.184,0.508 0.369297,1.0469531 0.6542969,1.5019531 0.285,0.455 0.7704219,0.8647344 1.3574219,0.8027344 0.5369999,-0.057 0.9127031,-0.5187031 1.0957031,-0.9707031 0.183,-0.452 0.2627031,-0.9490157 0.3457031,-1.4160157 0.083,-0.468 0.1693438,-0.9068281 0.2773438,-1.1738281 0.108,-0.267 0.1482968,-0.3073125 0.2792968,-0.3203125 0.187,-0.02 0.2673125,0.036594 0.4453125,0.3085937 0.178,0.2720001 0.3599686,0.7325626 0.5429689,1.2265626 0.183,0.4939999 0.367437,1.0206093 0.648437,1.4746093 0.281,0.454 0.7305,0.8700469 1.3125,0.8730469 0.6,0.003 1.09,-0.3777031 1.375,-0.8457031 0.285,-0.467 0.426672,-1.017875 0.513672,-1.546875 0.109,-0.667 0.121188,-1.2125156 0.117188,-1.6035157 H 14 v -1 z M 4.9980469,8 C 4.5810469,8 4.223375,8.1709063 3.859375,8.3789062 3.495375,8.5869063 3.1355469,8.849375 2.8105469,9.109375 c -0.32,0.256 -0.6025,0.510125 -0.8125,0.703125 v 1.394531 l 0.3535156,-0.353515 c 0,0 0.4839844,-0.482891 1.0839844,-0.962891 0.3,-0.24 0.6269218,-0.4765313 0.9199219,-0.6445312 C 4.6474687,9.0790938 4.9140469,9 4.9980469,9 5.7480468,9 6.4119687,9.6074682 7.1679688,10.355469 7.9239688,11.104469 8.7690469,12 9.9980469,12 c 1.1670001,0 2.2362501,-0.555984 3.0312501,-1.083984 0.409,-0.272 0.738656,-0.537282 0.972656,-0.738282 V 8.7929688 l -0.353515,0.3535156 c 0,0 -0.465829,0.4664995 -1.173829,0.9374996 C 11.767609,10.555984 10.835953,11 10.001953,11 9.2869529,11 8.6310469,10.395532 7.8730469,9.6445312 7.1150468,8.8935316 6.251953,8 5.0019531,8 Z m -2.9960938,5 v 1 H 14.001953 v -1 z"
       id="path828"
       inkscape:connector-curvature="0"
       inkscape:label="#" />
  </g>
</svg>
