<?xml version="1.0" encoding="UTF-8" standalone="no"?>
<!-- Created with Inkscape (http://www.inkscape.org/) -->

<svg
   xmlns:dc="http://purl.org/dc/elements/1.1/"
   xmlns:cc="http://creativecommons.org/ns#"
   xmlns:rdf="http://www.w3.org/1999/02/22-rdf-syntax-ns#"
   xmlns:svg="http://www.w3.org/2000/svg"
   xmlns="http://www.w3.org/2000/svg"
   xmlns:sodipodi="http://sodipodi.sourceforge.net/DTD/sodipodi-0.dtd"
   xmlns:inkscape="http://www.inkscape.org/namespaces/inkscape"
   width="16"
   height="16"
   viewBox="0 0 16 16"
   version="1.1"
   id="main"
   inkscape:version="0.92+devel (1da36c2be7, 2017-09-15, custom)"
   sodipodi:docname="run-build-file.svg">
  <defs
     id="ol-defs" />
  <sodipodi:namedview
     id="base"
     pagecolor="#002466"
     bordercolor="#ffffff"
     borderopacity="0.30"
     inkscape:pageopacity="1"
     inkscape:pageshadow="2"
     inkscape:zoom="37.1673"
     inkscape:document-units="px"
     inkscape:current-layer="main"
     inkscape:document-rotation="0"
     showgrid="false"
     inkscape:showpageshadow="false"
     borderlayer="true"
     inkscape:window-width="1920"
     inkscape:window-height="1029"
     inkscape:window-x="0"
     inkscape:window-y="22"
     inkscape:window-maximized="1"
     units="px"
     inkscape:cx="7.5022505"
     inkscape:cy="8" />
  <metadata
     id="metadata5">
    <rdf:RDF>
      <cc:Work
         rdf:about="">
        <dc:format>image/svg+xml</dc:format>
        <dc:type
           rdf:resource="http://purl.org/dc/dcmitype/StillImage" />
        <dc:title></dc:title>
      </cc:Work>
    </rdf:RDF>
  </metadata>
  <g
     id="g870"
     inkscape:label="#run-build-file"
     style="stroke:none">
    <path
       style="fill:none;stroke:none"
       d="M -5.5000004e-8,-4.9999999e-8 H 16.000001 V 16 H -5.5000004e-8 Z"
       id="boundary"
       inkscape:label="#boundary"
       inkscape:connector-curvature="0" />
    <path
       inkscape:label="#"
       inkscape:connector-curvature="0"
       id="path6"
       d="M 7.453125,2 6.9179688,3.2773438 A 4.8511233,4.8511233 0 0 0 6.0996094,3.5429688 L 4.9160156,2.8242188 4.03125,3.4667969 4.3476562,4.8125 A 4.8511233,4.8511233 0 0 0 3.84375,5.5097656 L 2.4628906,5.625 2.125,6.6660156 3.1699219,7.5683594 A 4.8511233,4.8511233 0 0 0 3.1484375,8 4.8511233,4.8511233 0 0 0 3.171875,8.4296875 L 2.125,9.3339844 2.4628906,10.375 3.8417969,10.490234 a 4.8511233,4.8511233 0 0 0 0.5058593,0.69336 L 4.03125,12.533203 4.9160156,13.175781 6.0957031,12.460938 a 4.8511233,4.8511233 0 0 0 0.8222657,0.263671 L 7.453125,14 h 1.09375 L 9.0820312,12.722656 A 4.8511233,4.8511233 0 0 0 9.9003906,12.457031 L 11.083984,13.175781 11.96875,12.533203 11.652344,11.1875 A 4.8511233,4.8511233 0 0 0 12.15625,10.490234 L 13.537109,10.375 13.875,9.3339844 12.830078,8.4316406 A 4.8511233,4.8511233 0 0 0 12.851562,8 4.8511233,4.8511233 0 0 0 12.828125,7.5703125 L 13.875,6.6660156 13.537109,5.625 12.158203,5.5097656 A 4.8511233,4.8511233 0 0 0 11.652344,4.8164062 L 11.96875,3.4667969 11.083984,2.8242188 9.9042969,3.5390625 A 4.8511233,4.8511233 0 0 0 9.0820312,3.2753906 L 8.546875,2 Z M 6.1464844,5.5859375 H 8.3730469 L 9.8535156,7.0664062 V 10.414062 H 6.1464844 Z"
       style="opacity:0.6;fill:#d0d0d0;stroke:none" />
  </g>
</svg>
