<?xml version="1.0" encoding="UTF-8" standalone="no"?>
<!-- Created with Inkscape (http://www.inkscape.org/) -->

<svg
   xmlns:dc="http://purl.org/dc/elements/1.1/"
   xmlns:cc="http://creativecommons.org/ns#"
   xmlns:rdf="http://www.w3.org/1999/02/22-rdf-syntax-ns#"
   xmlns:svg="http://www.w3.org/2000/svg"
   xmlns="http://www.w3.org/2000/svg"
   xmlns:xlink="http://www.w3.org/1999/xlink"
   xmlns:sodipodi="http://sodipodi.sourceforge.net/DTD/sodipodi-0.dtd"
   xmlns:inkscape="http://www.inkscape.org/namespaces/inkscape"
   width="16"
   height="16"
   viewBox="0 0 4.2333333 4.2333333"
   version="1.1"
   id="svg8"
   inkscape:version="0.92+devel (01e32517f0, 2017-08-26, custom)"
   sodipodi:docname="Info-amarok.svg">
  <defs
     id="defs2">
    <linearGradient
       id="linearGradient3052">
      <stop
         id="stop3054"
         style="stop-color:#555753" />
      <stop
         id="stop3056"
         style="stop-color:#2e3436"
         offset="1" />
    </linearGradient>
    <radialGradient
       gradientTransform="matrix(0.58724559,-4e-7,0,0.25688859,387.29707,527.70784)"
       gradientUnits="userSpaceOnUse"
       id="radialGradient3082"
       xlink:href="#linearGradient3052"
       r="17.995001"
       cy="3.6835999"
       cx="25.641001" />
    <radialGradient
       gradientTransform="matrix(0.5872456,-4.0000001e-7,0,0.25688859,387.45769,529.05333)"
       gradientUnits="userSpaceOnUse"
       id="radialGradient3082-6"
       xlink:href="#linearGradient3052"
       r="17.995001"
       cy="3.6835999"
       cx="25.641001" />
  </defs>
  <sodipodi:namedview
     id="base"
     pagecolor="#002466"
     bordercolor="#ffffff"
     borderopacity="0.29019608"
     inkscape:pageopacity="1"
     inkscape:pageshadow="2"
     inkscape:zoom="13.21004"
     inkscape:cx="40.038466"
     inkscape:cy="21.777159"
     inkscape:document-units="px"
     inkscape:current-layer="g4329"
     inkscape:document-rotation="0"
     showgrid="false"
     units="px"
     inkscape:showpageshadow="false"
     borderlayer="true"
     inkscape:window-width="1920"
     inkscape:window-height="1051"
     inkscape:window-x="0"
     inkscape:window-y="0"
     inkscape:window-maximized="1"
     inkscape:snap-page="true" />
  <metadata
     id="metadata5">
    <rdf:RDF>
      <cc:Work
         rdf:about="">
        <dc:format>image/svg+xml</dc:format>
        <dc:type
           rdf:resource="http://purl.org/dc/dcmitype/StillImage" />
        <dc:title />
      </cc:Work>
    </rdf:RDF>
  </metadata>
  <g
     id="g4329"
     inkscape:label="#run-build"
     transform="matrix(0.33333334,0,0,0.33333334,0.43839844,1.8697164)"
     style="stroke-width:3">
    <rect
       style="fill:none;stroke:none;stroke-width:1.05251253;stroke-linecap:round;stroke-linejoin:round;stroke-miterlimit:4;stroke-dasharray:none;stroke-opacity:1"
       id="rect4331"
       width="12.7"
       height="12.7"
       x="-1.3151948"
       y="-5.6091485"
       inkscape:label="#boundary" />
    <path
       style="opacity:0.6;fill:#d0d0d0;stroke-width:8.74553776;stroke-linecap:round;stroke-linejoin:round"
       d="M 22.25,4.8007812 20.535156,8.8867188 A 15.523594,15.523594 0 0 0 17.919922,9.734375 L 14.130859,7.4394531 11.300781,9.4960938 12.3125,13.800781 a 15.523594,15.523594 0 0 0 -1.611328,2.234375 l -4.4160158,0.367188 -1.0859374,3.330078 3.3457031,2.886719 a 15.523594,15.523594 0 0 0 -0.070312,1.378906 15.523594,15.523594 0 0 0 0.074219,1.378906 l -3.3496093,2.890625 1.0859374,3.330078 4.410156,0.367188 A 15.523594,15.523594 0 0 0 12.3125,34.1875 l -1.011719,4.316406 2.830078,2.056641 3.777344,-2.287109 a 15.523594,15.523594 0 0 0 2.626953,0.84375 L 22.25,43.199219 h 3.5 l 1.714844,-4.085938 a 15.523594,15.523594 0 0 0 2.615234,-0.847656 l 3.789063,2.294922 2.830078,-2.056641 -1.011719,-4.304687 a 15.523594,15.523594 0 0 0 1.611328,-2.234375 l 4.416016,-0.367188 1.085937,-3.330078 -3.345703,-2.886719 a 15.523594,15.523594 0 0 0 0.07031,-1.382812 15.523594,15.523594 0 0 0 -0.07422,-1.375 L 42.800777,19.732422 41.71484,16.402344 37.304684,16.035156 A 15.523594,15.523594 0 0 0 35.6875,13.8125 L 36.699219,9.4960938 33.869141,7.4394531 30.097656,9.7265625 A 15.523594,15.523594 0 0 0 27.464844,8.8789062 L 25.75,4.8007812 Z m -3.257812,11.3964848 13.8125,7.955078 -13.8125,7.953125 z"
       transform="matrix(0.26458333,0,0,0.26458333,-1.315195,-5.6091484)"
       id="path4814"
       inkscape:connector-curvature="0"
       inkscape:label="#1" />
  </g>
</svg>
