<?xml version="1.0" encoding="UTF-8" standalone="no"?>
<svg
   xmlns:dc="http://purl.org/dc/elements/1.1/"
   xmlns:cc="http://creativecommons.org/ns#"
   xmlns:rdf="http://www.w3.org/1999/02/22-rdf-syntax-ns#"
   xmlns:svg="http://www.w3.org/2000/svg"
   xmlns="http://www.w3.org/2000/svg"
   xmlns:sodipodi="http://sodipodi.sourceforge.net/DTD/sodipodi-0.dtd"
   xmlns:inkscape="http://www.inkscape.org/namespaces/inkscape"
   viewBox="0 0 16 16"
   version="1.1"
   id="svg6"
   sodipodi:docname="stateshape.svg"
   inkscape:version="0.92+devel (1da36c2be7, 2017-09-15, custom)">
  <metadata
     id="metadata10">
    <rdf:RDF>
      <cc:Work
         rdf:about="">
        <dc:format>image/svg+xml</dc:format>
        <dc:type
           rdf:resource="http://purl.org/dc/dcmitype/StillImage" />
        <dc:title></dc:title>
      </cc:Work>
    </rdf:RDF>
  </metadata>
  <sodipodi:namedview
     pagecolor="#002466"
     bordercolor="#ffffff"
     inkscape:document-rotation="0"
     borderopacity="0.29019608"
     objecttolerance="10"
     gridtolerance="10"
     guidetolerance="10"
     inkscape:pageopacity="0"
     inkscape:pageshadow="2"
     inkscape:window-width="1920"
     inkscape:window-height="1029"
     id="namedview8"
     showgrid="false"
     inkscape:zoom="16.241359"
     inkscape:cx="7.847619"
     inkscape:cy="8"
     inkscape:window-x="0"
     inkscape:window-y="22"
     inkscape:window-maximized="1"
     inkscape:current-layer="svg6"
     borderlayer="true"
     inkscape:showpageshadow="false" />
  <defs
     id="defs3051">
    <style
       type="text/css"
       id="current-color-scheme">
      .ColorScheme-Text {
        color:#d0d0d0;
      }
      </style>
  </defs>
  <path
     style="opacity:1;fill:currentColor;stroke:none"
     d="m 8.0000002,1.9999996 a 5.9999975,5.9999975 0 0 0 -6,5.9999997 5.9999975,5.9999975 0 0 0 6,6.0000007 A 5.9999975,5.9999975 0 0 0 14,7.9999993 5.9999975,5.9999975 0 0 0 8.0000002,1.9999996 Z m 0,1.348976 c 2.5648618,1.1e-6 4.6510228,2.086163 4.6510238,4.6510237 0,2.5648617 -2.086162,4.6510227 -4.6510238,4.6510237 -2.564863,0 -4.651024,-2.086161 -4.651024,-4.6510237 1e-6,-2.5648617 2.086163,-4.6510247 4.651024,-4.6510237 z m 0,0.65529 c -2.210717,-1e-6 -3.995733,1.7850171 -3.995734,3.9957337 0,2.2107177 1.785017,3.9957337 3.995734,3.9957337 2.2107168,-10e-7 3.9957338,-1.785017 3.9957338,-3.9957337 -1e-6,-2.2107166 -1.785017,-3.9957327 -3.9957338,-3.9957337 z"
     id="path817"
     inkscape:connector-curvature="0"
     class="ColorScheme-Text"
     sodipodi:insensitive="true"
     inkscape:label="#" />
</svg>
