<?xml version="1.0" encoding="UTF-8" standalone="no"?>
<!-- Created with Inkscape (http://www.inkscape.org/) -->

<svg
   xmlns:dc="http://purl.org/dc/elements/1.1/"
   xmlns:cc="http://creativecommons.org/ns#"
   xmlns:rdf="http://www.w3.org/1999/02/22-rdf-syntax-ns#"
   xmlns:svg="http://www.w3.org/2000/svg"
   xmlns="http://www.w3.org/2000/svg"
   xmlns:sodipodi="http://sodipodi.sourceforge.net/DTD/sodipodi-0.dtd"
   xmlns:inkscape="http://www.inkscape.org/namespaces/inkscape"
   width="16"
   height="16"
   viewBox="0 0 4.2333332 4.2333332"
   version="1.1"
   id="main"
   inkscape:version="0.92+devel (5451be0409, 2017-08-29, custom)"
   sodipodi:docname="help-donate.svg">
  <defs
     id="ol-defs">
    <style
       id="current-color-scheme">      .ColorScheme-Text {
        color:#d0d0d0;
        stop-color:#d0d0d0;
      }
      .ColorScheme-Background {
        color:#212121;
        stop-color:#212121;
      }
      .ColorScheme-Highlight {
        color:#0039a9;
        stop-color:#0039a9;
      }
      .ColorScheme-ViewText {
        color:#d0d0d0;
        stop-color:#d0d0d0;
      }
      .ColorScheme-ViewBackground {
        color:#19191b;
        stop-color:#19191b;
      }
      .ColorScheme-ViewHover {
        color:#005cc7;
        stop-color:#005cc7;
      }
      .ColorScheme-ViewFocus{
        color:#002466;
        stop-color:#002466;
      }
      .ColorScheme-ButtonText {
        color:#d0d0d0;
        stop-color:#d0d0d0;
      }
      .ColorScheme-ButtonBackground {
        color:#232323;
        stop-color:#232323;                             
      }                                                 
      .ColorScheme-ButtonHover {                        
        color:#005cc7;                                  
        stop-color:#005cc7;                             
      }                                                 
      .ColorScheme-ButtonFocus{                         
        color:#0039a9;                                  
        stop-color:#0039a9;                             
      }</style>
  </defs>
  <sodipodi:namedview
     id="base"
     pagecolor="#002466"
     bordercolor="#ffffff"
     borderopacity="0.38039216"
     inkscape:pageopacity="1"
     inkscape:pageshadow="2"
     inkscape:zoom="40.551468"
     inkscape:cx="8.2571178"
     inkscape:cy="6.678894"
     inkscape:document-units="px"
     inkscape:current-layer="g826"
     inkscape:document-rotation="0"
     showgrid="false"
     inkscape:showpageshadow="false"
     borderlayer="true"
     inkscape:window-width="1920"
     inkscape:window-height="1025"
     inkscape:window-x="0"
     inkscape:window-y="26"
     inkscape:window-maximized="1"
     units="px" />
  <metadata
     id="metadata5">
    <rdf:RDF>
      <cc:Work
         rdf:about="">
        <dc:format>image/svg+xml</dc:format>
        <dc:type
           rdf:resource="http://purl.org/dc/dcmitype/StillImage" />
        <dc:title></dc:title>
      </cc:Work>
    </rdf:RDF>
  </metadata>
  <g
     id="g826"
     inkscape:label="#help-donate">
    <path
       style="fill:none;stroke-width:0.20485653"
       d="M -5.5e-8,-3e-8 H 4.2333333 V 4.2333332 H -5.5e-8 Z"
       id="rect811-3"
       inkscape:label="#boundary"
       inkscape:connector-curvature="0" />
    <path
       inkscape:label="#"
       d="M 1.9924353,2.9552285 V 2.2116148 Q 1.6445873,2.1122297 1.4813117,1.9116847 1.3198109,1.709365 1.3198109,1.421858 q 0,-0.2910564 0.1827976,-0.48805195 0.1845724,-0.1987702 0.4898268,-0.2289407 v -0.1756987 h 0.2573364 v 0.1756987 q 0.2821827,0.03372 0.4490078,0.1934461 Q 2.8656046,1.0562627 2.9117477,1.3224729 L 2.4627398,1.3810391 Q 2.4219209,1.1716205 2.2497717,1.0970816 v 0.6939211 q 0.4259363,0.1153578 0.5803382,0.2999302 0.1544018,0.1827976 0.1544018,0.4703046 0,0.3212269 -0.1952208,0.541294 -0.193446,0.2200671 -0.5395192,0.2697596 V 3.7041665 H 1.9924353 V 3.3811648 Q 1.6854062,3.3438954 1.4937349,3.1522241 1.3020635,2.9605527 1.2488215,2.61093 L 1.7120272,2.561237 q 0.028396,0.1419787 0.1064841,0.2449133 0.078088,0.1029347 0.173924,0.1490782 z m 0,-1.8634711 q -0.1047094,0.035495 -0.1668251,0.120682 -0.062116,0.085187 -0.062116,0.1881218 0,0.094061 0.056792,0.1756987 0.056792,0.079863 0.1721493,0.1295556 z m 0.2573364,1.8883174 q 0.1331051,-0.024846 0.2165176,-0.1224566 0.083413,-0.099385 0.083413,-0.2324903 0,-0.1189071 -0.070989,-0.2040944 -0.069215,-0.086962 -0.228941,-0.1331051 z"
       style="font-style:normal;font-variant:normal;font-weight:bold;font-stretch:normal;font-size:4.23333311px;font-family:Arial;-inkscape-font-specification:'Arial Bold';opacity:0.6;fill:#d0d0d0;stroke-width:0.26458332"
       id="path820"
       inkscape:connector-curvature="0" />
  </g>
</svg>
