<?xml version="1.0" encoding="UTF-8" standalone="no"?>
<!-- Created with Inkscape (http://www.inkscape.org/) -->

<svg
   xmlns:dc="http://purl.org/dc/elements/1.1/"
   xmlns:cc="http://creativecommons.org/ns#"
   xmlns:rdf="http://www.w3.org/1999/02/22-rdf-syntax-ns#"
   xmlns:svg="http://www.w3.org/2000/svg"
   xmlns="http://www.w3.org/2000/svg"
   xmlns:sodipodi="http://sodipodi.sourceforge.net/DTD/sodipodi-0.dtd"
   xmlns:inkscape="http://www.inkscape.org/namespaces/inkscape"
   width="16"
   height="16"
   viewBox="0 0 16 16"
   version="1.1"
   id="main"
   inkscape:version="0.92+devel (1da36c2be7, 2017-09-15, custom)"
   sodipodi:docname="text-frame-link.svg">
  <defs
     id="ol-defs" />
  <sodipodi:namedview
     id="base"
     pagecolor="#002466"
     bordercolor="#ffffff"
     borderopacity="0.30"
     inkscape:pageopacity="1"
     inkscape:pageshadow="2"
     inkscape:zoom="18.58365"
     inkscape:document-units="px"
     inkscape:current-layer="main"
     inkscape:document-rotation="0"
     showgrid="false"
     inkscape:showpageshadow="false"
     borderlayer="true"
     inkscape:window-width="1920"
     inkscape:window-height="1029"
     inkscape:window-x="0"
     inkscape:window-y="22"
     inkscape:window-maximized="1"
     units="px"
     inkscape:cx="7.1255753"
     inkscape:cy="8.0269054" />
  <metadata
     id="metadata5">
    <rdf:RDF>
      <cc:Work
         rdf:about="">
        <dc:format>image/svg+xml</dc:format>
        <dc:type
           rdf:resource="http://purl.org/dc/dcmitype/StillImage" />
        <dc:title></dc:title>
      </cc:Work>
    </rdf:RDF>
  </metadata>
  <g
     id="g876"
     inkscape:label="#text-frame-link"
     style="stroke:none">
    <path
       style="fill:none;stroke:none"
       d="M -5.5000004e-8,-4.9999999e-8 H 16.000001 V 16 H -5.5000004e-8 Z"
       id="boundary"
       inkscape:label="#boundary"
       inkscape:connector-curvature="0" />
    <path
       inkscape:connector-curvature="0"
       style="opacity:0.4;fill:#d0d0d0;stroke:none;stroke-dasharray:3, 1"
       d="M 1.9999998,1.9999997 V 14 H 7.1914057 V 1.9999997 Z m 6.8085939,0 V 14 H 14 V 1.9999997 Z m -5.839844,1.0390625 h 3.152344 v 1 h -3.152344 z m 6.808594,0 h 3.1523443 v 1 H 9.7773437 Z m -6.808594,1.7988281 h 3.152344 v 1 h -3.152344 z m 6.808594,0 h 3.1523443 v 1 H 9.7773437 Z m -6.808594,1.8378906 h 3.152344 v 1 h -3.152344 z m 6.808594,0 h 3.1523443 v 1 H 9.7773437 Z"
       id="rect811"
       inkscape:label="#" />
    <path
       inkscape:label="#"
       inkscape:connector-curvature="0"
       id="path869"
       d="m 6.7436641,8.874991 c -0.8192399,0 -1.5112068,0.5537959 -1.7374749,1.30255 H 4.3675096 c -0.2914806,0 -0.5267995,0.233838 -0.5267995,0.525318 0,0.291481 0.2353189,0.526799 0.5267995,0.526799 h 0.6438657 c 0.2319305,0.740375 0.9195704,1.287732 1.7322888,1.287732 h 2.5665723 c 0.8164376,0 1.5035576,-0.55254 1.7315496,-1.298104 h 0.618673 c 0.291481,0 0.526059,-0.234578 0.526059,-0.526059 0,-0.291481 -0.234578,-0.526058 -0.526059,-0.526058 H 11.041044 C 10.812187,9.4237324 10.125674,8.874991 9.3102364,8.874991 Z m 0,1.0521175 h 2.5665723 c 0.2269925,0 0.4238164,0.091676 0.5623641,0.2400605 h -1.126951 c -0.2914803,0 -0.5245762,0.234577 -0.5245762,0.526058 0,0.291481 0.2330959,0.526059 0.5245762,0.526059 H 9.8763056 C 9.737626,11.370593 9.5390659,11.465273 9.3102364,11.465273 H 6.7436641 c -0.224001,0 -0.4210808,-0.08993 -0.5601413,-0.235615 h 1.0172935 c 0.2914804,0 0.5260585,-0.235318 0.5260585,-0.526799 0,-0.29148 -0.2345781,-0.525318 -0.5260585,-0.525318 H 6.1701862 C 6.3098347,10.023348 6.5117099,9.9271085 6.7436641,9.9271085 Z"
       style="fill:#00ff00;stroke:none;stroke-width:3.77952766" />
  </g>
</svg>
