<?xml version="1.0" encoding="UTF-8" standalone="no"?>
<svg
   xmlns:dc="http://purl.org/dc/elements/1.1/"
   xmlns:cc="http://creativecommons.org/ns#"
   xmlns:rdf="http://www.w3.org/1999/02/22-rdf-syntax-ns#"
   xmlns:svg="http://www.w3.org/2000/svg"
   xmlns="http://www.w3.org/2000/svg"
   xmlns:sodipodi="http://sodipodi.sourceforge.net/DTD/sodipodi-0.dtd"
   xmlns:inkscape="http://www.inkscape.org/namespaces/inkscape"
   height="16"
   viewBox="0 0 16 16"
   width="16"
   version="1.1"
   id="svg4"
   sodipodi:docname="tools-rip-video-cd.svg"
   inkscape:version="0.92+devel (1c31310676, 2017-09-09, custom)">
  <metadata
     id="metadata10">
    <rdf:RDF>
      <cc:Work
         rdf:about="">
        <dc:format>image/svg+xml</dc:format>
        <dc:type
           rdf:resource="http://purl.org/dc/dcmitype/StillImage" />
        <dc:title></dc:title>
      </cc:Work>
    </rdf:RDF>
  </metadata>
  <defs
     id="defs8" />
  <sodipodi:namedview
     pagecolor="#002466"
     bordercolor="#ffffff"
     inkscape:document-rotation="0"
     borderopacity="0.13333333"
     objecttolerance="10"
     gridtolerance="10"
     guidetolerance="10"
     inkscape:pageopacity="0"
     inkscape:pageshadow="2"
     inkscape:window-width="1920"
     inkscape:window-height="1027"
     id="namedview6"
     showgrid="false"
     borderlayer="true"
     inkscape:showpageshadow="false"
     inkscape:zoom="45.9375"
     inkscape:cx="7.695238"
     inkscape:cy="8"
     inkscape:window-x="0"
     inkscape:window-y="24"
     inkscape:window-maximized="1"
     inkscape:current-layer="svg4" />
  <g
     id="g847"
     inkscape:label="#tools-rip-video-cd"
     style="stroke:none">
    <path
       inkscape:connector-curvature="0"
       inkscape:label="#boundary"
       style="stroke:none"
       id="path2"
       stroke-width=".25455"
       stroke-linecap="round"
       fill="none"
       d="M 0,-4.9999999e-8 H 16 V 16 H 0 Z" />
    <path
       style="opacity:0.6;fill:#d0d0d0;stroke:none;stroke-width:1.20000005"
       d="M 8,2 C 4.6862915,2 2,4.6862915 2,8 c 0,3.313708 2.6862915,6 6,6 3.313708,0 6,-2.686292 6,-6 C 14,4.6862915 11.313708,2 8,2 Z M 3.3398438,6.5019531 h 0.9160156 l 0.25,0.7402344 c 0.2544706,0.7418174 0.2421875,0.8769531 0.2421875,0.8769531 0,0 -5.23e-4,-0.077974 0.640625,-0.8691406 L 6.0195312,6.5019531 h 5.0527348 c 1.016096,0 1.726177,0.5341229 1.564453,1.2167969 C 12.435457,8.5690749 11.229988,8.9375 10.496094,8.9375 H 9.1484375 l 0.40625,-1.7011719 H 10.5 L 10.224609,8.3984375 H 10.4375 c 0.56619,0 1.104243,-0.204225 1.216797,-0.6796875 C 11.786426,7.1643208 11.156286,7.0390625 10.769531,7.0390625 H 8.4160156 c -0.6076692,0 -1.0965959,0.2475881 -1.1972656,0.6816406 -0.1301871,0.5642477 0.5038813,0.6796875 0.8925781,0.6796875 H 9.0410156 L 8.9160156,8.9375 H 7.8046875 C 6.7925529,8.9375 6.084458,8.403331 6.234375,7.7207031 6.2615618,7.5963964 6.4124171,7.283138 6.5742188,7.0957031 l 0.025391,-0.027344 c 0.029518,-0.035502 2.201e-4,-0.056904 -0.029297,-0.021484 l -0.029297,0.035156 -2.140625,2.4160157 z"
       id="path812"
       inkscape:connector-curvature="0"
       inkscape:label="#" />
  </g>
</svg>
