<?xml version="1.0" encoding="UTF-8" standalone="no"?>
<svg
   xmlns:dc="http://purl.org/dc/elements/1.1/"
   xmlns:cc="http://creativecommons.org/ns#"
   xmlns:rdf="http://www.w3.org/1999/02/22-rdf-syntax-ns#"
   xmlns:svg="http://www.w3.org/2000/svg"
   xmlns="http://www.w3.org/2000/svg"
   xmlns:sodipodi="http://sodipodi.sourceforge.net/DTD/sodipodi-0.dtd"
   xmlns:inkscape="http://www.inkscape.org/namespaces/inkscape"
   height="16"
   viewBox="0 0 16 16"
   width="16"
   version="1.1"
   id="svg4"
   sodipodi:docname="tool_imageeffects.svg"
   inkscape:version="0.92+devel (58ef38f81c, 2017-09-13, custom)">
  <defs
     id="defs8" />
  <metadata
     id="metadata10">
    <rdf:RDF>
      <cc:Work
         rdf:about="">
        <dc:format>image/svg+xml</dc:format>
        <dc:type
           rdf:resource="http://purl.org/dc/dcmitype/StillImage" />
        <dc:title></dc:title>
      </cc:Work>
    </rdf:RDF>
  </metadata>
  <sodipodi:namedview
     pagecolor="#002466"
     bordercolor="#ffffff"
     inkscape:document-rotation="0"
     borderopacity="0.13333333"
     objecttolerance="10"
     gridtolerance="10"
     guidetolerance="10"
     inkscape:pageopacity="0"
     inkscape:pageshadow="2"
     inkscape:window-width="1920"
     inkscape:window-height="1027"
     id="namedview6"
     showgrid="false"
     borderlayer="true"
     inkscape:showpageshadow="false"
     inkscape:zoom="22.96875"
     inkscape:cx="9.4577214"
     inkscape:cy="10.525131"
     inkscape:window-x="0"
     inkscape:window-y="24"
     inkscape:window-maximized="1"
     inkscape:current-layer="svg4" />
  <g
     id="g853"
     inkscape:label="#tool_imageeffects"
     style="stroke:none;stroke-width:1">
    <path
       inkscape:connector-curvature="0"
       inkscape:label="#boundary"
       style="stroke:none"
       id="path2"
       stroke-width=".25455"
       stroke-linecap="round"
       fill="none"
       d="M 0,-4.9999999e-8 H 16 V 16 H 0 Z" />
    <path
       inkscape:connector-curvature="0"
       inkscape:label="#"
       id="path847"
       d="M 4.1152344,2 C 2.9464884,1.9999568 1.9999558,2.9500521 2,4.1191406 1.9999558,5.288229 2.9464884,6.2344185 4.1152344,6.234375 5.2839786,6.2344185 6.23442,5.288229 6.234375,4.1191406 6.23442,2.9500521 5.2839786,1.9999568 4.1152344,2 Z M 10.210938,8.044922 7.4453125,10.525391 5.4316406,8.845703 2,12.138672 V 14 h 12 v -1.861328 z"
       style="opacity:0.6;fill:#d0d0d0;stroke:none;stroke-width:1" />
    <path
       inkscape:label="#"
       inkscape:connector-curvature="0"
       id="path842"
       d="M 12.823925,6.2541156 11.827898,5.7806578 11.458386,6.8197401 11.088874,5.7806578 10.092847,6.2541156 10.566305,5.2580893 9.527222,4.8885767 10.566304,4.5190646 10.092847,3.5230378 11.088874,3.9964954 11.458386,2.957413 11.827898,3.9964954 12.823925,3.5230378 12.350467,4.5190645 13.38955,4.8885767 12.350467,5.2580886 Z"
       style="fill:#ffb900;stroke:none;stroke-width:1" />
  </g>
</svg>
