<?xml version="1.0" encoding="UTF-8" standalone="no"?>
<svg
   xmlns:dc="http://purl.org/dc/elements/1.1/"
   xmlns:cc="http://creativecommons.org/ns#"
   xmlns:rdf="http://www.w3.org/1999/02/22-rdf-syntax-ns#"
   xmlns:svg="http://www.w3.org/2000/svg"
   xmlns="http://www.w3.org/2000/svg"
   xmlns:sodipodi="http://sodipodi.sourceforge.net/DTD/sodipodi-0.dtd"
   xmlns:inkscape="http://www.inkscape.org/namespaces/inkscape"
   height="16"
   viewBox="0 0 16 16"
   width="16"
   version="1.1"
   id="svg4"
   sodipodi:docname="transform-rotate.svg"
   inkscape:version="0.92+devel (58ef38f81c, 2017-09-13, custom)">
  <defs
     id="defs8" />
  <metadata
     id="metadata10">
    <rdf:RDF>
      <cc:Work
         rdf:about="">
        <dc:format>image/svg+xml</dc:format>
        <dc:type
           rdf:resource="http://purl.org/dc/dcmitype/StillImage" />
        <dc:title></dc:title>
      </cc:Work>
    </rdf:RDF>
  </metadata>
  <sodipodi:namedview
     pagecolor="#002466"
     bordercolor="#ffffff"
     inkscape:document-rotation="0"
     borderopacity="0.13333333"
     objecttolerance="10"
     gridtolerance="10"
     guidetolerance="10"
     inkscape:pageopacity="0"
     inkscape:pageshadow="2"
     inkscape:window-width="1920"
     inkscape:window-height="1027"
     id="namedview6"
     showgrid="false"
     borderlayer="true"
     inkscape:showpageshadow="false"
     inkscape:zoom="22.96875"
     inkscape:cx="10.104219"
     inkscape:cy="10.525131"
     inkscape:window-x="0"
     inkscape:window-y="24"
     inkscape:window-maximized="1"
     inkscape:current-layer="svg4"
     inkscape:snap-object-midpoints="true"
     inkscape:snap-center="true" />
  <g
     id="g848"
     inkscape:label="#transform-rotate"
     style="stroke:none">
    <path
       inkscape:connector-curvature="0"
       inkscape:label="#boundary"
       style="stroke:none"
       id="path2"
       stroke-width=".25455"
       stroke-linecap="round"
       fill="none"
       d="M 0,-4.9999999e-8 H 16 V 16 H 0 Z" />
    <rect
       inkscape:label="#"
       y="5.912066"
       x="5.9120727"
       height="4.175869"
       width="4.175869"
       id="rect838"
       style="opacity:0.6;fill:#d0d0d0;stroke-width:1;stroke:none" />
    <path
       inkscape:label="#"
       id="path840"
       d="M 5.5308225,2.0000015 5.5512705,2.741268 A 2.8706228,2.7212941 15 0 0 3.3087261,4.692418 2.8706228,2.7212941 15 0 0 3.2814611,5.9074136 2.8706228,2.7212941 15 0 1 3.2916861,5.8648126 2.8706228,2.7212941 15 0 1 5.5802402,3.9085504 L 5.6058011,4.8628242 6.4356789,4.1249657 7.2672607,3.3871072 6.3998936,2.6952584 Z m 7.1877305,8.0925875 a 2.8706228,2.7212941 15 0 1 -0.01023,0.0426 2.8706228,2.7212941 15 0 1 -2.288554,1.956261 l -0.02556,-0.954274 -0.8298776,0.737859 -0.8315818,0.737858 0.867367,0.691849 0.8690714,0.695257 -0.02045,-0.741266 a 2.8706228,2.7212941 15 0 0 2.242544,-1.95115 2.8706228,2.7212941 15 0 0 0.02726,-1.214996 z"
       style="fill:#00ff00;stroke-width:1.20000005;stroke:none"
       inkscape:connector-curvature="0" />
  </g>
</svg>
