<?xml version="1.0" encoding="UTF-8" standalone="no"?>
<!-- Created with Inkscape (http://www.inkscape.org/) -->

<svg
   xmlns:dc="http://purl.org/dc/elements/1.1/"
   xmlns:cc="http://creativecommons.org/ns#"
   xmlns:rdf="http://www.w3.org/1999/02/22-rdf-syntax-ns#"
   xmlns:svg="http://www.w3.org/2000/svg"
   xmlns="http://www.w3.org/2000/svg"
   xmlns:sodipodi="http://sodipodi.sourceforge.net/DTD/sodipodi-0.dtd"
   xmlns:inkscape="http://www.inkscape.org/namespaces/inkscape"
   width="16"
   height="16"
   viewBox="0 0 16 16"
   version="1.1"
   id="svg8"
   inkscape:version="0.92+devel (f008c6912a, 2017-09-14, custom)"
   sodipodi:docname="transform-scale-textbox-points.svg">
  <defs
     id="defs2">
    <style
       id="current-color-scheme">      .ColorScheme-Text {
        color:#d0d0d0;
        stop-color:#d0d0d0;
      }
      .ColorScheme-Background {
        color:#212121;
        stop-color:#212121;
      }
      .ColorScheme-Highlight {
        color:#0039a9;
        stop-color:#0039a9;
      }
      .ColorScheme-ViewText {
        color:#d0d0d0;
        stop-color:#d0d0d0;
      }
      .ColorScheme-ViewBackground {
        color:#19191b;
        stop-color:#19191b;
      }
      .ColorScheme-ViewHover {
        color:#005cc7;
        stop-color:#005cc7;
      }
      .ColorScheme-ViewFocus{
        color:#002466;
        stop-color:#002466;
      }
      .ColorScheme-ButtonText {
        color:#d0d0d0;
        stop-color:#d0d0d0;
      }
      .ColorScheme-ButtonBackground {
        color:#232323;
        stop-color:#232323;                             
      }                                                 
      .ColorScheme-ButtonHover {                        
        color:#005cc7;                                  
        stop-color:#005cc7;                             
      }                                                 
      .ColorScheme-ButtonFocus{                         
        color:#0039a9;                                  
        stop-color:#0039a9;                             
      }</style>
  </defs>
  <sodipodi:namedview
     id="base"
     pagecolor="#002466"
     bordercolor="#ffffff"
     borderopacity="0.38039216"
     inkscape:pageopacity="1"
     inkscape:pageshadow="2"
     inkscape:zoom="25.25"
     inkscape:cx="13.139507"
     inkscape:cy="9.0869563"
     inkscape:document-units="px"
     inkscape:current-layer="svg8"
     inkscape:document-rotation="0"
     showgrid="false"
     inkscape:showpageshadow="false"
     borderlayer="true"
     inkscape:window-width="1920"
     inkscape:window-height="1027"
     inkscape:window-x="0"
     inkscape:window-y="24"
     inkscape:window-maximized="1"
     units="px"
     inkscape:snap-page="true"
     inkscape:object-paths="true">
    <inkscape:grid
       type="xygrid"
       id="grid876" />
  </sodipodi:namedview>
  <metadata
     id="metadata5">
    <rdf:RDF>
      <cc:Work
         rdf:about="">
        <dc:format>image/svg+xml</dc:format>
        <dc:type
           rdf:resource="http://purl.org/dc/dcmitype/StillImage" />
        <dc:title />
      </cc:Work>
    </rdf:RDF>
  </metadata>
  <g
     id="g862"
     inkscape:label="#transform-scale-textbox-points"
     style="stroke:none;stroke-width:0.26458332"
     transform="scale(3.7795277)">
    <path
       inkscape:label="#boundary"
       inkscape:connector-curvature="0"
       id="rect811"
       d="M 0,0 H 4.2333332 V 4.2333332 H 0 Z"
       style="fill:none;stroke:none;stroke-width:0.06734966;stroke-linecap:round" />
    <path
       inkscape:label="#"
       id="path835"
       d="M 0.52929556,0.52903761 V 1.2433349 H 1.2435931 V 0.52903761 Z m 2.46070264,0 V 1.2433349 H 3.7042956 V 0.52903761 Z m -0.0093,2.46044379 V 3.703779 H 3.6949931 V 2.9894814 Z M 0.52929556,2.98974 V 3.7040374 H 1.2435931 V 2.98974 Z"
       style="fill:#00ff00;stroke:none;stroke-width:0.12670204"
       inkscape:connector-curvature="0"
       sodipodi:nodetypes="cccccccccccccccccscc" />
    <path
       style="opacity:0.6;fill:#d0d0d0;stroke:none;stroke-width:0.43001407"
       d="M 4.6992188,4.0800781 V 4.6992188 H 5.9140625 V 4.0800781 Z m 0,0.6191407 H 4.0800781 V 5.9140625 H 4.6992188 Z M 6.515625,4.0800781 V 4.6992188 H 7.7011719 V 4.0800781 Z m 1.7832031,0 V 4.6992188 H 9.484375 V 4.0800781 Z m 1.7871099,0 v 0.6191407 h 1.214843 V 4.0800781 Z m 1.214843,0.6191407 v 1.2148437 h 0.619141 V 4.6992188 Z M 4.0800781,6.5136719 v 1.1875 h 0.6191407 v -1.1875 z m 7.2207029,0 v 1.1875 h 0.619141 v -1.1875 z M 4.0800781,8.2988281 V 9.484375 H 4.6992188 V 8.2988281 Z m 7.2207029,0 V 9.484375 h 0.619141 V 8.2988281 Z m -0.03516,1.7851559 v 1.214844 h 0.619141 v -1.214844 z m 0,1.214844 h -1.214844 v 0.619141 h 1.214844 z m -7.1855469,-1.21289 v 1.214843 h 0.6191407 v -1.214843 z m 0.6328125,1.21289 v 0.619141 h 1.2148438 v -0.619141 z m 1.8164063,0 v 0.619141 h 1.1855469 v -0.619141 z m 1.7832031,0 v 0.619141 h 1.1855469 v -0.619141 z"
       transform="scale(0.26458332)"
       id="path848"
       inkscape:connector-curvature="0"
       inkscape:label="#" />
    <path
       sodipodi:nodetypes="cccccscscsccccscscscccccc"
       inkscape:connector-curvature="0"
       id="path822"
       style="font-style:normal;font-variant:normal;font-weight:normal;font-stretch:normal;font-size:2.82222223px;line-height:1.25;font-family:'Times New Roman';-inkscape-font-specification:'Times New Roman, ';letter-spacing:0px;word-spacing:0px;fill:#d0d0d0;fill-opacity:1;stroke:none;stroke-width:0.07000434"
       d="m 2.7857161,1.4547751 0.017933,0.3801655 H 2.75822 C 2.7494531,1.7679933 2.7374981,1.7201736 2.7223552,1.6914819 2.6976485,1.6452564 2.6645732,1.6113837 2.6231296,1.5898654 2.582483,1.5675499 2.528686,1.5563917 2.4617386,1.5563917 H 2.2334002 v 0.9401328 c 0,0.099624 0.010759,0.1617895 0.032278,0.1864964 0.030286,0.033474 0.081586,0.026401 0.1398723,0.050211 h 0.056188 v 0.044233 H 1.7743323 v -0.044233 h 0.057384 c 0.068542,0 0.1171579,-0.020722 0.1458496,-0.062165 0.017534,-0.025504 0.026301,-0.083685 0.026301,-0.1745414 V 1.5563916 h -0.194865 c -0.075714,0 -0.1295112,0.00558 -0.161391,0.016737 -0.041444,0.015143 -0.07691,0.044234 -0.1063985,0.087271 -0.029488,0.043037 -0.047023,0.101218 -0.052602,0.1745414 h -0.045428 l 0.019128,-0.3801656 z"
       inkscape:label="#" />
  </g>
</svg>
