<?xml version="1.0" encoding="UTF-8" standalone="no"?>
<svg
   xmlns:dc="http://purl.org/dc/elements/1.1/"
   xmlns:cc="http://creativecommons.org/ns#"
   xmlns:rdf="http://www.w3.org/1999/02/22-rdf-syntax-ns#"
   xmlns:svg="http://www.w3.org/2000/svg"
   xmlns="http://www.w3.org/2000/svg"
   xmlns:sodipodi="http://sodipodi.sourceforge.net/DTD/sodipodi-0.dtd"
   xmlns:inkscape="http://www.inkscape.org/namespaces/inkscape"
   viewBox="0 0 16 16"
   version="1.1"
   id="svg6"
   sodipodi:docname="umbrello_diagram_deployment.svg"
   inkscape:version="0.92+devel (58ef38f81c, 2017-09-13, custom)">
  <metadata
     id="metadata10">
    <rdf:RDF>
      <cc:Work
         rdf:about="">
        <dc:format>image/svg+xml</dc:format>
        <dc:type
           rdf:resource="http://purl.org/dc/dcmitype/StillImage" />
        <dc:title></dc:title>
      </cc:Work>
    </rdf:RDF>
  </metadata>
  <sodipodi:namedview
     pagecolor="#002466"
     bordercolor="#ffffff"
     inkscape:document-rotation="0"
     borderopacity="0.46666667"
     objecttolerance="10"
     gridtolerance="10"
     guidetolerance="10"
     inkscape:pageopacity="0"
     inkscape:pageshadow="2"
     inkscape:window-width="1920"
     inkscape:window-height="1027"
     id="namedview8"
     showgrid="false"
     borderlayer="true"
     inkscape:showpageshadow="false"
     inkscape:zoom="47.0625"
     inkscape:cx="7.8512616"
     inkscape:cy="8"
     inkscape:window-x="0"
     inkscape:window-y="24"
     inkscape:window-maximized="1"
     inkscape:current-layer="svg6"
     inkscape:snap-page="true"
     inkscape:snap-grids="false"
     inkscape:snap-to-guides="false" />
  <defs
     id="defs3051">
    <style
       type="text/css"
       id="current-color-scheme">
      .ColorScheme-Text {
        color:#f2f2f2;
      }
      </style>
  </defs>
  <g
     id="g822"
     inkscape:label="#umbrello_diagram_deployment"
     style="stroke:none">
    <path
       inkscape:label="#boundary"
       id="rect817"
       d="M 0,0 H 16 V 16 H 0 Z"
       style="fill:none;stroke:none;stroke-width:0.5"
       inkscape:connector-curvature="0" />
    <path
       inkscape:label="#"
       sodipodi:nodetypes="sssssssssssscccsssccccsssc"
       inkscape:connector-curvature="0"
       id="path4"
       class="ColorScheme-Text"
       d="M 8,2 C 4.6862915,2 2,2.8954305 2,4 v 8 c 0,1.104569 2.6862915,2 6,2 3.313708,0 6,-0.895431 6,-2 V 4 C 14,2.8954305 11.313708,2 8,2 Z m 0,1 c 2.761424,0 5,0.4477153 5,1 C 13,4.5522847 10.761424,5 8,5 5.2385763,5 3,4.5522847 3,4 3,3.4477153 5.2385763,3 8,3 Z M 3,5.1015625 C 4.1088973,5.6617019 5.9866816,5.9991162 8,6 10.012202,5.9995498 11.889752,5.6629109 13,5.1035156 V 8 C 13,8.5522847 10.761424,9 8,9 5.2385763,9 3,8.5522847 3,8 Z m 0,4 C 4.1088973,9.6617019 5.9866816,9.9991162 8,10 10.012202,9.9995498 11.889752,9.6629109 13,9.1035156 V 12 c 0,0.552285 -2.259338,1.265608 -5.020762,1.265608 C 5.2178142,13.265608 3,12.552285 3,12 Z"
       style="opacity:0.6;fill:#d0d0d0;fill-opacity:1;stroke:none" />
  </g>
</svg>
