<?xml version="1.0" encoding="UTF-8" standalone="no"?>
<!-- Created with Inkscape (http://www.inkscape.org/) -->

<svg
   xmlns:dc="http://purl.org/dc/elements/1.1/"
   xmlns:cc="http://creativecommons.org/ns#"
   xmlns:rdf="http://www.w3.org/1999/02/22-rdf-syntax-ns#"
   xmlns:svg="http://www.w3.org/2000/svg"
   xmlns="http://www.w3.org/2000/svg"
   xmlns:sodipodi="http://sodipodi.sourceforge.net/DTD/sodipodi-0.dtd"
   xmlns:inkscape="http://www.inkscape.org/namespaces/inkscape"
   width="16"
   height="16"
   viewBox="0 0 4.2333332 4.2333332"
   version="1.1"
   id="svg8"
   inkscape:version="0.92+devel (7f3bd2b258, 2017-08-07, custom)"
   sodipodi:docname="view-pim-notes.svg">
  <defs
     id="defs2" />
  <sodipodi:namedview
     id="base"
     pagecolor="#002466"
     bordercolor="#ffffff"
     borderopacity="0.38039216"
     inkscape:pageopacity="1"
     inkscape:pageshadow="2"
     inkscape:zoom="25.25"
     inkscape:cx="7.9405941"
     inkscape:cy="8"
     inkscape:document-units="px"
     inkscape:current-layer="svg8"
     inkscape:document-rotation="0"
     showgrid="false"
     inkscape:showpageshadow="false"
     borderlayer="true"
     inkscape:window-width="1920"
     inkscape:window-height="1027"
     inkscape:window-x="0"
     inkscape:window-y="24"
     inkscape:window-maximized="1"
     units="px" />
  <metadata
     id="metadata5">
    <rdf:RDF>
      <cc:Work
         rdf:about="">
        <dc:format>image/svg+xml</dc:format>
        <dc:type
           rdf:resource="http://purl.org/dc/dcmitype/StillImage" />
        <dc:title></dc:title>
      </cc:Work>
    </rdf:RDF>
  </metadata>
  <g
     id="g894"
     inkscape:label="#view-pim-notes">
    <path
       inkscape:label="#boundary"
       inkscape:connector-curvature="0"
       id="rect811"
       d="M 0,0 H 4.2333332 V 4.2333332 H 0 Z"
       style="fill:none;stroke-width:0.25454992;stroke-linecap:round" />
    <path
       inkscape:label="#"
       inkscape:connector-curvature="0"
       id="rect812"
       d="M 0.52916668,0.52916665 V 1.0434762 h 0.3329254 v 0.3724579 h -0.3329254 v 0.5143097 h 0.3329254 v 0.3728454 h -0.3329254 v 0.5143097 h 0.3329254 V 3.1898568 H 0.52916668 V 3.7041665 H 0.98146463 1.3081888 3.5851816 c 0.06596,0 0.1189849,-0.053024 0.1189849,-0.1189849 V 0.64815165 c 0,-0.065961 -0.053025,-0.118985 -0.1189849,-0.118985 H 1.3081888 0.98146463 Z m 2.71688822,0.4608246 c 0.042173,0.00424 0.077243,0.043918 0.070538,0.0934049 -0.00217,0.015518 -0.013999,0.032109 -0.069376,0.094568 l -0.067826,0.075577 0.027905,0.026355 c 0.030276,0.028228 0.038839,0.047206 0.034106,0.080228 -0.0022,0.015518 -0.013816,0.031766 -0.063563,0.087979 -0.052581,0.058847 -0.060453,0.070078 -0.056973,0.07984 0.01176,0.035659 0.022323,0.085537 0.029455,0.1368133 0.018104,0.1292 -0.00289,0.2568192 -0.058523,0.3530792 -0.019112,0.033793 -0.5815749,0.6638796 -0.6042267,0.6774779 -0.03277,0.019562 -0.086326,0.005 -0.1054198,-0.028293 -0.01146,-0.019756 -0.014934,-0.052982 -0.00736,-0.069763 0.00266,-0.00609 0.1334109,-0.1541618 0.2902923,-0.3286621 0.2836742,-0.3156533 0.2856924,-0.318547 0.3038574,-0.3612183 0.010178,-0.023879 0.021134,-0.060092 0.024029,-0.080615 0.00601,-0.037563 0.0033,-0.1559081 -0.00349,-0.1620056 -0.00208,-0.00188 -0.1062683,0.110742 -0.2321551,0.2503722 L 2.5286569,2.1686013 2.3833169,2.0379892 C 2.3041352,1.9665976 2.239265,1.9055962 2.2391397,1.9031137 2.2389922,1.9001504 2.3963363,1.7230944 2.5898935,1.5089518 c 0.3067368,-0.339706 0.3535303,-0.3896725 0.3720703,-0.3961 0.026828,-0.00934 0.054057,-0.00286 0.081003,0.018604 l 0.019379,0.01589 0.063174,-0.070926 c 0.034737,-0.038559 0.0698,-0.073895 0.077515,-0.07829 0.01439,-0.00746 0.028964,-0.00956 0.043021,-0.00814 z M 2.1310068,2.0205484 c 0.0015,-8.01e-5 0.067811,0.059043 0.148053,0.1313873 L 2.4251749,2.2833231 2.2247996,2.5054025 C 1.7560421,3.0253374 1.7374084,3.045053 1.6310373,3.1200937 1.5222637,3.1967332 1.3383334,3.2978046 1.1988932,3.357676 1.1537012,3.376893 1.1543156,3.386853 1.1950172,3.280936 1.2579649,3.1157489 1.3467321,2.9366272 1.4236857,2.8208871 1.4624082,2.762759 1.5198039,2.696084 1.9232675,2.2480538 2.1740873,1.9698544 2.1295068,2.0206257 2.1310068,2.0205484 Z"
       style="opacity:0.6;fill:#d0d0d0;stroke-width:0.32950205" />
  </g>
</svg>
