<?xml version="1.0" encoding="UTF-8" standalone="no"?>
<svg
   xmlns:dc="http://purl.org/dc/elements/1.1/"
   xmlns:cc="http://creativecommons.org/ns#"
   xmlns:rdf="http://www.w3.org/1999/02/22-rdf-syntax-ns#"
   xmlns:svg="http://www.w3.org/2000/svg"
   xmlns="http://www.w3.org/2000/svg"
   xmlns:sodipodi="http://sodipodi.sourceforge.net/DTD/sodipodi-0.dtd"
   xmlns:inkscape="http://www.inkscape.org/namespaces/inkscape"
   height="16"
   viewBox="0 0 16 16"
   width="16"
   version="1.1"
   id="svg4"
   sodipodi:docname="view-calendar-upcoming-events.svg"
   inkscape:version="0.92+devel (58ef38f81c, 2017-09-13, custom)">
  <metadata
     id="metadata10">
    <rdf:RDF>
      <cc:Work
         rdf:about="">
        <dc:format>image/svg+xml</dc:format>
        <dc:type
           rdf:resource="http://purl.org/dc/dcmitype/StillImage" />
        <dc:title></dc:title>
      </cc:Work>
    </rdf:RDF>
  </metadata>
  <defs
     id="defs8" />
  <sodipodi:namedview
     pagecolor="#002466"
     bordercolor="#ffffff"
     inkscape:document-rotation="0"
     borderopacity="0.13333333"
     objecttolerance="10"
     gridtolerance="10"
     guidetolerance="10"
     inkscape:pageopacity="0"
     inkscape:pageshadow="2"
     inkscape:window-width="1920"
     inkscape:window-height="1027"
     id="namedview6"
     showgrid="false"
     borderlayer="true"
     inkscape:showpageshadow="false"
     inkscape:zoom="22.96875"
     inkscape:cx="7.542857"
     inkscape:cy="8"
     inkscape:window-x="0"
     inkscape:window-y="24"
     inkscape:window-maximized="1"
     inkscape:current-layer="svg4" />
  <g
     id="g879"
     inkscape:label="#view-calendar-upcoming-events"
     style="stroke:none">
    <path
       inkscape:connector-curvature="0"
       inkscape:label="#boundary"
       style="stroke:none"
       id="path2"
       stroke-width=".25455"
       stroke-linecap="round"
       fill="none"
       d="M 0,-4.9999999e-8 H 16 V 16 H 0 Z" />
    <path
       inkscape:label="#"
       id="path835"
       d="M 2.5996094,2 C 2.2672093,2 2,2.2672093 2,2.5996094 V 13.400391 C 2,13.732793 2.2672115,14 2.5996094,14 H 13.398438 C 13.730838,14 14,13.732795 14,13.400391 V 2.5996094 C 14,2.2672094 13.730835,2 13.398438,2 H 11.880859 V 3.1875 H 10.705078 V 2 H 8.5859375 V 3.1875 H 7.4121094 V 2 H 5.2929688 V 3.1875 H 4.1171875 V 2 Z M 8,4.5410156 c 0.5421256,0 1.0280656,0.4386589 0.9785156,0.9785156 L 8.5820312,9.8417969 C 8.5511743,10.177999 8.3223396,10.427734 8,10.427734 c -0.3223402,0 -0.5511742,-0.249735 -0.5820312,-0.5859371 L 7.0214844,5.5195312 C 6.9719367,4.9796746 7.4578744,4.5410156 8,4.5410156 Z M 8.00391,11.240234 A 0.7605207,0.7605207 0 0 1 8.7636719,12 0.7605207,0.7605207 0 0 1 8.0039062,12.761719 0.7605207,0.7605207 0 0 1 7.2421875,12 0.7605207,0.7605207 0 0 1 8.0039062,11.240234 Z"
       style="fill:#ffb900;stroke-width:3.77952766;stroke:none"
       inkscape:connector-curvature="0" />
  </g>
</svg>
