<?xml version="1.0" encoding="UTF-8" standalone="no"?>
<svg
   xmlns:dc="http://purl.org/dc/elements/1.1/"
   xmlns:cc="http://creativecommons.org/ns#"
   xmlns:rdf="http://www.w3.org/1999/02/22-rdf-syntax-ns#"
   xmlns:svg="http://www.w3.org/2000/svg"
   xmlns="http://www.w3.org/2000/svg"
   xmlns:sodipodi="http://sodipodi.sourceforge.net/DTD/sodipodi-0.dtd"
   xmlns:inkscape="http://www.inkscape.org/namespaces/inkscape"
   height="16"
   viewBox="0 0 16 16"
   width="16"
   version="1.1"
   id="svg4"
   sodipodi:docname="view-calendar-agenda.svg"
   inkscape:version="0.92+devel (f008c6912a, 2017-09-14, custom)">
  <defs
     id="defs8" />
  <metadata
     id="metadata10">
    <rdf:RDF>
      <cc:Work
         rdf:about="">
        <dc:format>image/svg+xml</dc:format>
        <dc:type
           rdf:resource="http://purl.org/dc/dcmitype/StillImage" />
        <dc:title></dc:title>
      </cc:Work>
    </rdf:RDF>
  </metadata>
  <sodipodi:namedview
     pagecolor="#002466"
     bordercolor="#ffffff"
     inkscape:document-rotation="0"
     borderopacity="0.13333333"
     objecttolerance="10"
     gridtolerance="10"
     guidetolerance="10"
     inkscape:pageopacity="0"
     inkscape:pageshadow="2"
     inkscape:window-width="1920"
     inkscape:window-height="1027"
     id="namedview6"
     showgrid="false"
     borderlayer="true"
     inkscape:showpageshadow="false"
     inkscape:zoom="26.65625"
     inkscape:cx="6.686987"
     inkscape:cy="8"
     inkscape:window-x="0"
     inkscape:window-y="24"
     inkscape:window-maximized="1"
     inkscape:current-layer="svg4"
     inkscape:object-paths="true" />
  <g
     id="g870"
     inkscape:label="#view-calendar-agenda"
     style="stroke:none">
    <path
       d="M -1e-7,1.75e-7 H 16 V 16 H -1e-7 Z"
       fill="none"
       stroke-linecap="round"
       stroke-width=".25455"
       id="path2"
       style="stroke:none"
       inkscape:label="#boundary"
       inkscape:connector-curvature="0" />
    <path
       inkscape:label="#"
       inkscape:connector-curvature="0"
       id="path841"
       d="M 2.5991209,2 C 2.2667209,2 1.9999998,2.266721 1.9999998,2.5991211 V 13.399414 C 1.9999998,13.731816 2.2667231,14 2.5991209,14 H 13.397949 C 13.73035,14 13.999999,13.731818 14,13.399414 V 2.5991211 C 14,2.2667211 13.730347,2 13.397949,2 h -1.517578 v 1.1865235 h -1.17627 V 2 H 8.5859377 V 3.1865235 H 7.4111326 V 2 H 5.2929686 V 3.1865235 H 4.116699 V 2 Z M 4.116699,6.2231446 H 9.6303711 V 7.7231444 H 4.116699 Z m 6.263672,0 h 1.5 v 1.4999998 h -1.5 z M 4.116699,9.262696 h 5.5136721 v 1.499999 H 4.116699 Z m 6.263672,0 h 1.5 v 1.499999 h -1.5 z"
       style="opacity:0.6;fill:#d0d0d0;stroke-width:3.77952766;stroke:none" />
  </g>
</svg>
