<?xml version="1.0" encoding="UTF-8" standalone="no"?>
<svg
   xmlns:dc="http://purl.org/dc/elements/1.1/"
   xmlns:cc="http://creativecommons.org/ns#"
   xmlns:rdf="http://www.w3.org/1999/02/22-rdf-syntax-ns#"
   xmlns:svg="http://www.w3.org/2000/svg"
   xmlns="http://www.w3.org/2000/svg"
   xmlns:sodipodi="http://sodipodi.sourceforge.net/DTD/sodipodi-0.dtd"
   xmlns:inkscape="http://www.inkscape.org/namespaces/inkscape"
   height="16"
   viewBox="0 0 16 16"
   width="16"
   version="1.1"
   id="svg4"
   sodipodi:docname="view-calendar-time-spent.svg"
   inkscape:version="0.92+devel (58ef38f81c, 2017-09-13, custom)">
  <defs
     id="defs8" />
  <metadata
     id="metadata10">
    <rdf:RDF>
      <cc:Work
         rdf:about="">
        <dc:format>image/svg+xml</dc:format>
        <dc:type
           rdf:resource="http://purl.org/dc/dcmitype/StillImage" />
        <dc:title></dc:title>
      </cc:Work>
    </rdf:RDF>
  </metadata>
  <sodipodi:namedview
     pagecolor="#002466"
     bordercolor="#ffffff"
     inkscape:document-rotation="0"
     borderopacity="0.13333333"
     objecttolerance="10"
     gridtolerance="10"
     guidetolerance="10"
     inkscape:pageopacity="0"
     inkscape:pageshadow="2"
     inkscape:window-width="1920"
     inkscape:window-height="1027"
     id="namedview6"
     showgrid="false"
     borderlayer="true"
     inkscape:showpageshadow="false"
     inkscape:zoom="32.482718"
     inkscape:cx="9.8887198"
     inkscape:cy="10.525131"
     inkscape:window-x="0"
     inkscape:window-y="24"
     inkscape:window-maximized="1"
     inkscape:current-layer="svg4" />
  <g
     id="g881"
     inkscape:label="#view-calendar-time-spent"
     style="stroke:none">
    <path
       inkscape:connector-curvature="0"
       inkscape:label="#boundary"
       style="stroke:none"
       id="path2"
       stroke-width=".25455"
       stroke-linecap="round"
       fill="none"
       d="M 0,-4.9999999e-8 H 16 V 16 H 0 Z" />
    <path
       inkscape:label="#"
       inkscape:connector-curvature="0"
       id="path841"
       d="M 2.5991211,2 C 2.2667211,2 2,2.266721 2,2.5991211 V 13.400879 C 2,13.733281 2.2667233,14 2.5991211,14 H 13.39795 C 13.730351,14 14,13.733283 14,13.400879 V 2.5991211 C 14,2.2667211 13.730348,2 13.39795,2 H 11.880371 V 3.1879883 H 10.705567 V 2 H 8.5859375 V 3.1879883 H 7.4125977 V 2 H 5.2929688 V 3.1879883 H 4.1166992 V 2 Z M 8,5.6123047 A 3.0628466,3.0628466 0 0 1 11.062988,8.675293 3.0628466,3.0628466 0 0 1 8,11.738281 3.0628466,3.0628466 0 0 1 4.9370117,8.675293 3.0628466,3.0628466 0 0 1 8,5.6123047 Z M 7.963379,6.1206054 C 7.7526426,6.1353167 7.590065,6.348543 7.6176759,6.5556641 c 9.375e-4,0.7952673 -0.00188,1.5910119 0.00146,2.3862309 0.014561,0.17589 0.1675169,0.325321 0.3427734,0.339843 L 9.639158,9.7417 C 9.890294,9.78918 10.138552,9.531049 10.074217,9.281738 10.038777,9.117955 9.8914783,8.997658 9.728516,8.975586 L 8.3823242,8.61377 C 8.3811562,7.8967647 8.3849169,7.1803178 8.3808594,6.4633789 8.3638905,6.2612639 8.1644321,6.099958 7.963379,6.1206054 Z"
       style="opacity:0.6;fill:#d0d0d0;stroke-width:3.77952766;stroke:none" />
  </g>
</svg>
