<?xml version="1.0" encoding="UTF-8" standalone="no"?>
<svg
   xmlns:dc="http://purl.org/dc/elements/1.1/"
   xmlns:cc="http://creativecommons.org/ns#"
   xmlns:rdf="http://www.w3.org/1999/02/22-rdf-syntax-ns#"
   xmlns:svg="http://www.w3.org/2000/svg"
   xmlns="http://www.w3.org/2000/svg"
   xmlns:sodipodi="http://sodipodi.sourceforge.net/DTD/sodipodi-0.dtd"
   xmlns:inkscape="http://www.inkscape.org/namespaces/inkscape"
   height="16"
   viewBox="0 0 16 16"
   width="16"
   version="1.1"
   id="svg4"
   sodipodi:docname="view-readermode-active.svg"
   inkscape:version="0.92+devel (1c31310676, 2017-09-09, custom)">
  <metadata
     id="metadata10">
    <rdf:RDF>
      <cc:Work
         rdf:about="">
        <dc:format>image/svg+xml</dc:format>
        <dc:type
           rdf:resource="http://purl.org/dc/dcmitype/StillImage" />
        <dc:title></dc:title>
      </cc:Work>
    </rdf:RDF>
  </metadata>
  <defs
     id="defs8" />
  <sodipodi:namedview
     pagecolor="#002466"
     bordercolor="#ffffff"
     inkscape:document-rotation="0"
     borderopacity="0.13333333"
     objecttolerance="10"
     gridtolerance="10"
     guidetolerance="10"
     inkscape:pageopacity="0"
     inkscape:pageshadow="2"
     inkscape:window-width="1920"
     inkscape:window-height="1027"
     id="namedview6"
     showgrid="false"
     borderlayer="true"
     inkscape:showpageshadow="false"
     inkscape:zoom="45.9375"
     inkscape:cx="7.542857"
     inkscape:cy="8"
     inkscape:window-x="0"
     inkscape:window-y="24"
     inkscape:window-maximized="1"
     inkscape:current-layer="svg4" />
  <g
     id="g839"
     inkscape:label="#view-readermode-active">
    <path
       inkscape:connector-curvature="0"
       inkscape:label="#boundary"
       style="stroke:none"
       id="path2"
       stroke-width=".25455"
       stroke-linecap="round"
       fill="none"
       d="M 0,-4.9999999e-8 H 16 V 16 H 0 Z" />
    <path
       inkscape:connector-curvature="0"
       style="opacity:1;fill:#00ff00;fill-opacity:1;stroke:none;stroke-width:0.99999994"
       d="m 5.7495027,4.4381354 c -1.4997325,0 -2.2652184,1.1247993 -2.9994649,1.1247993 -0.7342689,0 -0.7498662,-0.3749331 -0.7498662,-0.3749331 v 5.9989304 c 0,0 -0.031269,0.374933 0.7498662,0.374933 0.7811131,0 1.4997324,-1.124799 2.9994649,-1.124799 1.4997326,0 2.2495987,0.749866 2.2495987,0.749866 0,0 0.7498661,-0.749866 2.2495996,-0.749866 1.499731,0 2.171484,1.124799 2.999464,1.124799 0.827981,0 0.749867,-0.374933 0.749867,-0.374933 V 5.2348682 c -0.02782,0.1054313 -0.164034,0.3280665 -0.749867,0.3280665 -0.781113,0 -1.499733,-1.1247993 -2.999464,-1.1247993 -1.4997335,0 -2.2495996,0.7498662 -2.2495996,0.7498662 0,0 -0.7498661,-0.7498662 -2.2495987,-0.7498662 z"
       id="path819"
       inkscape:label="#" />
  </g>
</svg>
