<?xml version="1.0" encoding="UTF-8" standalone="no"?>
<svg
   xmlns:dc="http://purl.org/dc/elements/1.1/"
   xmlns:cc="http://creativecommons.org/ns#"
   xmlns:rdf="http://www.w3.org/1999/02/22-rdf-syntax-ns#"
   xmlns:svg="http://www.w3.org/2000/svg"
   xmlns="http://www.w3.org/2000/svg"
   xmlns:sodipodi="http://sodipodi.sourceforge.net/DTD/sodipodi-0.dtd"
   xmlns:inkscape="http://www.inkscape.org/namespaces/inkscape"
   height="16"
   viewBox="0 0 16 16"
   width="16"
   version="1.1"
   id="svg4"
   sodipodi:docname="view-media-equalizer.svg"
   inkscape:version="0.92+devel (58ef38f81c, 2017-09-13, custom)">
  <defs
     id="defs8" />
  <metadata
     id="metadata10">
    <rdf:RDF>
      <cc:Work
         rdf:about="">
        <dc:format>image/svg+xml</dc:format>
        <dc:type
           rdf:resource="http://purl.org/dc/dcmitype/StillImage" />
        <dc:title></dc:title>
      </cc:Work>
    </rdf:RDF>
  </metadata>
  <sodipodi:namedview
     pagecolor="#002466"
     bordercolor="#ffffff"
     inkscape:document-rotation="0"
     borderopacity="0.13333333"
     objecttolerance="10"
     gridtolerance="10"
     guidetolerance="10"
     inkscape:pageopacity="0"
     inkscape:pageshadow="2"
     inkscape:window-width="1920"
     inkscape:window-height="1027"
     id="namedview6"
     showgrid="false"
     borderlayer="true"
     inkscape:showpageshadow="false"
     inkscape:zoom="22.96875"
     inkscape:cx="3.764042"
     inkscape:cy="7.0401779"
     inkscape:window-x="0"
     inkscape:window-y="24"
     inkscape:window-maximized="1"
     inkscape:current-layer="svg4" />
  <g
     id="g840"
     inkscape:label="#view-media-equalizer"
     style="stroke:none">
    <path
       inkscape:connector-curvature="0"
       inkscape:label="#boundary"
       style="stroke:none"
       id="path2"
       stroke-width=".25455"
       stroke-linecap="round"
       fill="none"
       d="M 0,-4.9999999e-8 H 16 V 16 H 0 Z" />
    <path
       style="opacity:0.4;fill:#d0d0d0;stroke-width:1;stroke:none"
       d="M 3.0625,2 C 2.9292629,2 2.8222656,2.1069973 2.8222656,2.2402344 v 8.0605466 a 1.3220503,1.3220503 0 0 1 0.5,-0.09766 1.3220503,1.3220503 0 0 1 0.5,0.09961 V 2.2402344 C 3.8222656,2.1069973 3.7133152,2 3.5800781,2 Z M 7.7402344,2 C 7.6069973,2 7.5,2.1069973 7.5,2.2402344 V 6.7753906 A 1.3220503,1.3220503 0 0 1 8,6.6777344 1.3220503,1.3220503 0 0 1 8.5,6.7773438 V 2.2402344 C 8.5,2.1069973 8.3930027,2 8.2597656,2 Z M 12.419922,2 C 12.286685,2 12.177734,2.1069973 12.177734,2.2402344 V 3.25 a 1.3220503,1.3220503 0 0 1 0.5,-0.097656 1.3220503,1.3220503 0 0 1 0.5,0.099609 V 2.2402344 C 13.177734,2.1069973 13.070737,2 12.9375,2 Z M 12.177734,5.6972656 V 13.759766 C 12.177734,13.893003 12.286685,14 12.419922,14 H 12.9375 c 0.133237,0 0.240234,-0.106997 0.240234,-0.240234 V 5.6992188 a 1.3220503,1.3220503 0 0 1 -0.5,0.097656 1.3220503,1.3220503 0 0 1 -0.5,-0.099609 z M 7.5,9.2226562 V 13.759766 C 7.5,13.893003 7.6069973,14 7.7402344,14 H 8.2597656 C 8.3930027,14 8.5,13.893003 8.5,13.759766 V 9.2246094 A 1.3220503,1.3220503 0 0 1 8,9.3222656 1.3220503,1.3220503 0 0 1 7.5,9.2226562 Z M 2.8222656,12.748047 v 1.011719 C 2.8222656,13.893003 2.9292629,14 3.0625,14 h 0.5175781 c 0.133237,0 0.2421875,-0.106997 0.2421875,-0.240234 V 12.75 a 1.3220503,1.3220503 0 0 1 -0.5,0.09766 1.3220503,1.3220503 0 0 1 -0.5,-0.09961 z"
       id="path833"
       inkscape:connector-curvature="0"
       inkscape:label="#" />
    <path
       inkscape:label="#"
       id="path819"
       d="M 12.677734,3.1523438 A 1.3220503,1.3220503 0 0 0 11.355469,4.4746094 1.3220503,1.3220503 0 0 0 12.677734,5.796875 1.3220503,1.3220503 0 0 0 14,4.4746094 1.3220503,1.3220503 0 0 0 12.677734,3.1523438 Z M 8,6.6777344 A 1.3220503,1.3220503 0 0 0 6.6777344,8 1.3220503,1.3220503 0 0 0 8,9.3222656 1.3220503,1.3220503 0 0 0 9.3222656,8 1.3220503,1.3220503 0 0 0 8,6.6777344 Z M 3.3222656,10.203125 A 1.3220503,1.3220503 0 0 0 2,11.525391 1.3220503,1.3220503 0 0 0 3.3222656,12.847656 1.3220503,1.3220503 0 0 0 4.6445312,11.525391 1.3220503,1.3220503 0 0 0 3.3222656,10.203125 Z"
       style="opacity:0.70689655;fill:#d0d0d0;stroke-width:1;stroke:none"
       inkscape:connector-curvature="0" />
  </g>
</svg>
