<?xml version="1.0" encoding="UTF-8" standalone="no"?>
<!-- Created with Inkscape (http://www.inkscape.org/) -->

<svg xmlns:dc="http://purl.org/dc/elements/1.1/" xmlns:cc="http://creativecommons.org/ns#" xmlns:rdf="http://www.w3.org/1999/02/22-rdf-syntax-ns#" xmlns:svg="http://www.w3.org/2000/svg" xmlns="http://www.w3.org/2000/svg" xmlns:sodipodi="http://sodipodi.sourceforge.net/DTD/sodipodi-0.dtd" xmlns:inkscape="http://www.inkscape.org/namespaces/inkscape" width="16" height="16" viewBox="0 0 16 16" version="1.1" id="main" inkscape:version="0.92+devel (8a5208f4a8, 2017-10-10, custom)" sodipodi:docname="webarchiver.svg">
  <sodipodi:namedview id="base" pagecolor="#002466" bordercolor="#ffffff" borderopacity="0.30" inkscape:pageopacity="1" inkscape:pageshadow="2" inkscape:zoom="37.1673" inkscape:document-units="px" inkscape:current-layer="main" inkscape:document-rotation="0" showgrid="false" inkscape:showpageshadow="false" borderlayer="true" inkscape:window-width="1920" inkscape:window-height="1027" inkscape:window-x="0" inkscape:window-y="24" inkscape:window-maximized="1" units="px" inkscape:cx="5.6457799" inkscape:cy="7.4149068" />
  <metadata id="metadata5">
    <rdf:RDF>
      <cc:Work rdf:about="">
        <dc:format>image/svg+xml</dc:format>
        <dc:type rdf:resource="http://purl.org/dc/dcmitype/StillImage" />
        <dc:title />
      </cc:Work>
    </rdf:RDF>
  </metadata>
  <defs id="ol-defs" />
  <g id="g917" inkscape:label="#webarchiver" style="stroke:none" sodipodi:insensitive="true">
    <path style="fill:none;stroke:none" d="M -5.5000004e-8,-4.9999999e-8 H 16.000001 V 16 H -5.5000004e-8 Z" id="boundary" inkscape:label="#boundary" inkscape:connector-curvature="0" />
    <path inkscape:label="#" id="path816" d="M 3.8925781,2 2,5.0605469 H 7.7695312 V 2 Z M 8.4433594,2 V 5.0605469 H 14 L 12.107422,2 Z M 2,5.7304688 V 14 H 14 V 5.7304688 Z m 6.1699219,1.1308593 a 3.105825,3.105825 0 0 1 1.5058593,0.3925781 c 0.0024,0.00382 0.00427,0.00677 0.00977,0.00977 0.01139,0.00658 0.022503,0.015784 0.033203,0.021484 0.01836,0.01054 0.037003,0.027162 0.033203,0.044922 -0.00506,0.02596 -0.048666,0.023849 -0.066406,0.042969 0.00244,0.03676 -0.011984,0.030047 -0.021484,0.054687 0.00571,0.01582 0.018984,0.01226 0.021484,0.03125 -0.00314,0.0203 -0.029084,0.023982 -0.021484,0.044922 0.03422,0.02661 0.065346,0.0039 0.097656,0 0.070956,-0.00924 0.1320712,7.669e-4 0.1757812,-0.033203 -0.00328,-0.01938 0.00826,-0.029966 0.019531,-0.041016 a 3.105825,3.105825 0 0 1 0.060547,0.046875 c -0.01378,0.0049 -0.028709,0.010325 -0.037109,0.015625 -0.01774,0.01185 -0.022689,0.031602 -0.042969,0.044922 -0.01457,0.01054 -0.051196,0.042969 -0.066406,0.042969 -0.01837,0 -0.053116,-0.014466 -0.066406,-0.00977 -0.01903,0.00527 -0.00978,0.035269 -0.03125,0.042969 -0.041811,0.01519 -0.1162894,-0.041196 -0.1308594,0.021484 0.01774,0.03602 0.077695,0.023329 0.109375,0.042969 0.01965,0.01315 0.047634,0.078139 0.052734,0.099609 0.0051,0.01777 0.0076,0.078686 0,0.097656 -0.019654,0.05072 -0.070626,0.044169 -0.1289063,0.042969 -0.01585,0 -0.030322,0.0013 -0.044922,0 -0.098197,-0.00658 -0.1939313,-0.037147 -0.2382813,0.033203 0.0031,0.053872 0.01206,0.082016 0,0.1289062 -0.00885,0.03424 -0.046822,0.057991 -0.044922,0.087891 7.001e-4,0.01516 0.029503,0.045466 0.033203,0.066406 0.0024,0.01185 -0.0051,0.032819 0,0.042969 0.01648,0.0311 0.058751,-0.0053 0.087891,0 0.02787,0.00392 0.054687,0.045092 0.054687,0.076172 0,0.02213 -0.0095,0.066421 -0.023437,0.087891 -0.027876,0.04174 -0.079231,0.029964 -0.1191406,0.052734 -0.03293,0.01895 -0.044813,0.064726 -0.064453,0.097656 -0.02092,0.03541 -0.041503,0.048899 -0.033203,0.099609 -0.028506,0.056366 -0.060221,0.091881 -0.1191406,0.1191407 -0.01711,0.00789 -0.038847,0.021873 -0.054687,0.033203 -0.01268,0.00923 -0.027152,0.022679 -0.044922,0.042969 C 9.0422931,8.9114688 9.01203,8.9224262 9,8.9414062 c -0.00887,0.01464 -0.00222,0.044833 -0.011719,0.064453 -0.01393,0.02661 -0.036948,0.051515 -0.054687,0.078125 -0.00822,0.01315 -0.02245,0.026509 -0.03125,0.042969 -0.02028,0.03677 -0.048722,0.065386 -0.044922,0.097656 0.00313,0.0311 0.043022,0.039156 0.044922,0.066406 0.00174,0.01516 -0.012379,0.026509 -0.011719,0.042969 7.2e-4,0.02409 0.00982,0.035707 0.011719,0.054687 0.00442,0.0469 -0.024403,0.065396 -0.033203,0.097656 -0.0044,0.01516 0.0038,0.030859 0,0.042969 -0.00759,0.02343 -0.042309,0.038626 -0.042969,0.066406 -6.9e-4,0.01964 0.02935,0.036673 0.03125,0.064453 0.00139,0.01895 -0.013566,0.037058 -0.00977,0.054688 0.00697,0.034232 0.071046,0.080812 0.097656,0.1074218 0.03611,0.03611 0.072061,0.061679 0.087891,0.099609 0.01331,0.032272 0.018259,0.083322 0.042969,0.107422 0.01837,0.01777 0.052732,0.0265 0.076172,0.04492 0.02217,0.01712 0.052732,0.02451 0.076172,0.04297 0.038646,0.03045 0.090884,0.09239 0.1523438,0.08789 0.0323,-0.0026 0.061546,-0.01724 0.097656,-0.02344 0.037377,-0.0066 0.081131,-0.02333 0.1191406,-0.01953 0.02913,0.0026 0.057481,0.02153 0.087891,0.01953 0.031671,-0.0013 0.073265,-0.01544 0.109375,-0.03125 0.06272,-0.02727 0.15877,-0.07972 0.2500006,-0.06641 0.06969,0.01054 0.07035,0.09014 0.11914,0.121094 0.05575,0.0053 0.09823,-0.01054 0.142579,0 0.03359,0.0079 0.07297,0.07106 0.07617,0.09766 0.0031,0.02727 -0.01768,0.04928 -0.02148,0.06641 -0.0089,0.03676 -0.01518,0.08397 -0.02148,0.107421 -0.005,0.01829 -0.01238,0.03636 -0.01172,0.05469 0,0.01647 0.02586,0.05457 0.04297,0.07617 0.0209,0.02662 0.05279,0.04693 0.07813,0.07617 0.04625,0.05321 0.06535,0.124982 0.09766,0.195312 0.0082,0.01777 -0.0076,0.0228 0,0.04492 -0.01394,0.106418 -0.0514,0.175161 -0.121094,0.292969 -0.03293,0.03794 -0.06511,0.08345 -0.06445,0.130859 -0.0024,0.114058 0.05979,0.173004 0.05469,0.283203 -0.01142,0.148213 -1.39e-4,0.17083 -0.01172,0.25 0.05004,0.02531 0.02627,0.101667 0.01172,0.154297 -0.02154,0.0627 -0.04266,0.07726 -0.05469,0.119141 0.003,0.0014 0.0049,8.53e-4 0.0078,0.002 A 3.105825,3.105825 0 0 1 8.1699219,13.074219 3.105825,3.105825 0 0 1 7.0976562,12.878906 c 0.00689,-0.0036 0.012978,-0.0088 0.017578,-0.01758 0.01205,-0.02213 -0.01586,-0.06576 0,-0.08789 0.01139,-0.01516 0.085935,-0.02745 0.109375,-0.03125 0.03359,-0.0053 0.068891,-3.19e-4 0.087891,-0.01172 0.02091,-0.01328 0.046769,-0.04669 0.042969,-0.08594 -0.00174,-0.0183 -0.018703,-0.02651 -0.033203,-0.04297 -0.01202,-0.01394 -0.00167,-0.03212 -0.00977,-0.04492 -0.0152,-0.02213 -0.038622,-0.03218 -0.044922,-0.06445 0.045615,-0.0092 0.1099013,0.05163 0.1757813,0.0332 0.03105,-0.0092 0.083086,-0.06856 0.097656,-0.09766 0.0044,-0.0092 -0.0051,-0.04402 0,-0.05469 0.00572,-0.01184 0.019584,-0.01714 0.021484,-0.02344 0.0044,-0.01711 -0.0038,-0.02058 0,-0.03125 0.01139,-0.03228 0.045443,-0.05273 0.064453,-0.07617 0.01457,-0.01778 0.031612,-0.0364 0.044922,-0.05469 0.0152,-0.01964 0.023133,-0.02781 0.033203,-0.04492 0.00951,-0.05769 -0.037377,-0.101694 -0.023437,-0.152344 0.015194,-0.05703 0.097234,-0.09319 0.1523438,-0.11914 0.01898,-0.0092 0.038848,-0.0275 0.054687,-0.0332 0.038016,-0.01329 0.085614,-0.009 0.1210937,-0.02149 0.059552,-0.02148 0.078282,-0.08613 0.1074219,-0.140625 0.01394,-0.02531 0.030703,-0.04614 0.033203,-0.06445 0.0024,-0.01646 -0.0031,-0.03558 0,-0.05469 0.00317,-0.01894 0.00672,-0.03388 0.011719,-0.05469 0.00692,-0.02727 0.00977,-0.07895 0.00977,-0.109375 0,-0.02527 -0.00914,-0.03192 -0.00977,-0.05469 -0.00443,-0.08232 0.024287,-0.08595 0.054687,-0.13086 0.0152,-0.02213 0.02055,-0.06037 0.03125,-0.07617 0.051312,-0.07599 0.1371593,-0.113234 0.1308593,-0.228515 -0.00243,-0.03807 -0.015089,-0.11887 -0.042969,-0.13086 -0.01585,-0.0066 -0.052732,-0.0019 -0.076172,-0.0098 -0.074758,-0.02792 -0.1291112,-0.114794 -0.2070312,-0.121094 -0.01648,-8.54e-4 -0.024609,8.54e-4 -0.042969,0 -0.03043,-8.7e-4 -0.063446,-0.02745 -0.097656,-0.03125 -0.02154,-0.0026 -0.065445,0.0066 -0.078125,0 -0.01966,-0.0092 -0.01546,-0.04389 -0.03125,-0.05469 -0.01268,-0.0092 -0.035048,-0.01449 -0.054687,-0.02149 -0.03105,-0.01184 -0.051781,-0.01898 -0.087891,-0.02148 -0.01139,-8.54e-4 -0.042027,0.0013 -0.054687,0 -0.01966,-0.0026 -0.034364,-0.02187 -0.052734,-0.0332 -0.02279,-0.01394 -0.035422,-0.02516 -0.044922,-0.04492 0.02091,-0.06836 -0.050513,-0.07936 -0.064453,-0.119141 -0.0064,-0.01842 0.0064,-0.04799 0,-0.06445 -0.00821,-0.02343 -0.028708,-0.03505 -0.054687,-0.05469 -0.045615,-0.03542 -0.087084,-0.06787 -0.1523438,-0.07617 -0.02914,-0.0026 -0.062816,0.0026 -0.097656,0 -0.036741,-0.0026 -0.081505,-0.02308 -0.109375,-0.05469 -0.02663,-0.03106 -0.031258,-0.06156 -0.054687,-0.076172 C 6.9524362,9.97424 6.9136442,9.969537 6.8984342,9.955027 6.8914142,9.948457 6.8930142,9.936334 6.8867152,9.921824 6.8753252,9.899044 6.8512912,9.89687 6.8652312,9.86909 6.8399012,9.85598 6.8495122,9.884256 6.8222622,9.87886 6.7975522,9.84394 6.7803562,9.825221 6.7246062,9.835891 6.6992662,9.841161 6.6782142,9.8782 6.6484342,9.87886 c -0.0247,8.801e-4 -0.043862,-0.038469 -0.076172,-0.042969 -0.02471,-0.00261 -0.059072,0.025284 -0.076172,0.021484 -0.02726,-0.00528 -0.029998,-0.038227 -0.054688,-0.054687 -0.01836,-0.01184 -0.056266,-0.043629 -0.066406,-0.042969 -0.03167,8.7e-4 -0.053946,0.066419 -0.097656,0.042969 -0.02154,-0.02727 0.037079,-0.029397 0.011719,-0.054687 -0.01899,-0.01894 -0.029692,6.56e-5 -0.044922,0.00977 -0.01774,0.01185 -0.035048,0.026203 -0.054687,0.033203 -0.043712,0.01647 -0.073212,0.015563 -0.1074219,0.033203 -0.03168,0.01646 -0.036308,0.043902 -0.054687,0.076172 -0.01457,0.02661 -0.044236,0.063153 -0.066406,0.064453 -0.02662,0.0013 -0.052102,-0.032829 -0.076172,-0.042969 -0.072854,-0.03162 -0.1136481,0.02094 -0.1738281,0.021484 -0.055751,8.75e-4 -0.1333594,-0.088085 -0.1308594,-0.140625 0.00174,-0.032274 0.017684,-0.081194 0.021484,-0.1210938 0.00314,-0.03162 0.03262,-0.056827 0.033203,-0.085937 7e-4,-0.03859 -0.062551,-0.071672 -0.087891,-0.076172 -0.059554,-0.01054 -0.1392413,0.02661 -0.2070312,0 -0.01269,-0.02147 0.025603,-0.033877 0.033203,-0.054687 0.0044,-0.01185 -0.0044,-0.019883 0,-0.033203 0.0076,-0.0203 0.035422,-0.033217 0.044922,-0.054687 0.00692,-0.01646 0.00287,-0.044173 0.00977,-0.064453 0.00823,-0.02278 0.031303,-0.038108 0.033203,-0.054687 0.00243,-0.02147 -0.016163,-0.052456 -0.033203,-0.066406 -0.052586,0.00261 -0.088731,0.00959 -0.1191406,0.023438 -0.068416,0.031057 -0.052034,0.1190449 -0.1210938,0.140625 -0.01788,0.006 -0.041423,0.012678 -0.064453,0.017578 A 3.105825,3.105825 0 0 1 5.3222656,8.7285156 c 0.01777,0.00623 0.034381,0.016178 0.050781,0.017578 0.058281,0.00392 0.061225,-0.041116 0.109375,-0.066406 0.049416,0.0066 0.074161,-0.0053 0.1191406,0 0.03042,0.00261 0.073586,0.042922 0.097656,0.044922 0.02029,8.8e-4 0.025892,-0.024584 0.044922,-0.021484 0.01899,0.00261 0.051488,0.041683 0.054687,0.064453 0.00313,0.02857 -0.020019,0.056151 -0.011719,0.087891 0.029794,0.0304 0.088409,0.046673 0.1308594,0.064453 0.02788,-0.022781 0.0044,-0.076445 0,-0.109375 -6.991e-4,-0.01463 0.0017,-0.029649 0,-0.042969 -0.00312,-0.02278 -0.011719,-0.044823 -0.011719,-0.064453 0,-0.090608 0.071993,-0.1285925 0.1328125,-0.1640625 0.02596,-0.01516 0.051409,-0.043378 0.074219,-0.054687 0.03231,-0.01581 0.049562,-0.01609 0.076172,-0.03125 0.04815,-0.02727 0.093479,-0.056941 0.1308594,-0.087891 0.01711,-0.041072 -0.0017,-0.090289 0,-0.1308594 0.01711,-0.01054 0.026562,0.0013 0.044922,0 0.02913,-0.00658 0.038218,-0.047983 0.054687,-0.064453 0.0095,-0.00923 0.041314,-0.013537 0.052734,-0.023437 0.02913,-0.02278 0.029337,-0.054313 0.054688,-0.064453 0.00889,-0.00262 0.030952,-0.00577 0.044922,-0.00977 0.01902,-0.00527 0.045762,-0.022533 0.076172,-0.033203 0.01966,-0.00661 0.068572,-0.00187 0.076172,-0.00977 0.0095,-0.00923 -0.0024,-0.051916 0,-0.066406 0.015193,-0.07152 0.1196037,-0.073556 0.1835937,-0.097656 0.044345,-0.01712 0.093158,-0.052469 0.1425781,-0.042969 -0.00951,0.03424 -0.053122,0.023213 -0.044922,0.064453 0.01077,0.05769 0.079339,-0.013284 0.099609,-0.021484 0.038645,-0.01646 0.1114293,-0.024509 0.1621093,-0.042969 0.04434,-0.01582 0.119935,-0.048379 0.078125,-0.099609 -0.03484,-0.00261 -0.047715,0.032122 -0.078125,0.044922 -0.02091,0.00261 -0.025229,-0.010419 -0.042969,-0.011719 -0.01711,-8.7e-4 -0.025859,0.015319 -0.042969,0.011719 -0.01711,-0.00262 -0.040469,-0.034527 -0.042969,-0.054687 -0.00697,-0.053202 0.054632,-0.070125 0.076172,-0.109375 -0.014568,-0.04808 -0.080554,-0.00236 -0.1210938,-0.021484 0.00442,-0.02844 0.021117,-0.060706 0.054687,-0.066406 0.027251,-0.00392 0.092905,0.00898 0.109375,0.021484 0.00952,0.00789 -0.00476,0.031472 0.00977,0.044922 0.01648,0.01464 0.044866,0.0026 0.066406,0 0.0076,-0.03608 -0.049269,-0.021492 -0.042969,-0.044922 0.043079,-0.02793 0.1212482,-0.014684 0.1738282,-0.021484 0.03042,-0.00392 0.060651,-0.028339 0.087891,-0.042969 0.02534,-0.01462 0.047609,-0.034246 0.074219,-0.00977 0.0076,0.02597 -0.01675,0.039414 -0.03125,0.052734 -0.048782,0.043076 -0.092839,0.092538 -0.1308593,0.1425781 0.02346,0.02278 0.058376,0.00577 0.097656,0.00977 0.0152,0.00132 0.038848,0.00902 0.054687,0.011719 0.01903,0.0026 0.037524,-0.0026 0.052734,0 0.02662,0.00658 0.028077,0.042969 0.054687,0.042969 0.04308,0 0.048157,-0.035323 0.023437,-0.064453 0.00762,-0.02976 0.020596,-0.057185 0.00977,-0.078125 -0.01966,-0.03922 -0.093856,0.0072 -0.097656,-0.042969 -0.00243,-0.03162 0.033522,-0.040333 0.044922,-0.064453 -0.00506,-0.060846 0.049269,-0.063961 0.042969,-0.1191406 -0.00314,-0.02278 -0.027109,-0.023322 -0.042969,-0.044922 -0.00821,-0.01185 -0.013937,-0.034669 -0.023437,-0.042969 -0.03293,-0.02792 -0.093856,-0.022952 -0.097656,-0.076172 -0.0017,-0.03162 0.0044,-0.053781 0,-0.087891 -0.00443,-0.032272 -0.036593,-0.1245594 -0.064453,-0.1308594 -0.03547,-0.00789 -0.057159,0.058495 -0.099609,0.078125 -0.02279,0.010546 -0.062498,0.014466 -0.085937,0.00977 -0.0152,-0.00261 -0.041069,-0.015702 -0.042969,-0.044922 -0.0012,-0.01214 0.00176,-0.017038 0.00586,-0.023437 A 3.105825,3.105825 0 0 1 8.1699219,6.8613281 Z M 6.8691406,7.1523438 c -0.035977,0.087113 -0.1211848,0.1357125 -0.2324218,0.1328124 -0.02911,0.027926 -0.017413,0.082374 -0.033203,0.1210938 -0.01331,0.03228 -0.053627,0.055334 -0.085937,0.052734 -0.02345,-0.00131 -0.066406,-0.030614 -0.066406,-0.052734 0,-0.00982 0.00467,-0.02135 0.00977,-0.03125 A 3.105825,3.105825 0 0 1 6.8691406,7.1523438 Z M 6.0996094,7.65625 c 0.01877,0.02682 0.029527,0.060152 -0.00781,0.076172 -0.00579,0.0024 -0.065101,0.010766 -0.087891,0.00977 A 3.105825,3.105825 0 0 1 6.0996094,7.65625 Z m 0.080078,0.097656 c 0.0152,8.7e-4 0.025229,0.031903 0.042969,0.033203 0.01711,0.00126 0.044537,-0.013366 0.054688,-0.00977 0.02662,0.00658 0.037099,0.054599 0.011719,0.074219 -0.02091,0.00261 -0.029732,-0.024584 -0.044922,-0.021484 -0.04308,0.00788 -0.053627,0.090491 -0.085937,0.087891 C 6.1277744,7.915355 6.1056604,7.852204 6.1367204,7.830074 6.1374087,7.8111281 6.1237,7.8062194 6.125,7.7871094 6.13451,7.7752594 6.154337,7.7521064 6.1796874,7.753906 Z M 6.0449218,7.773437 c 0.0012,-5e-4 0.00241,-4.69e-5 0.00391,0.00195 -0.00443,0.03359 -0.017009,0.038888 -0.042969,0.054687 -0.04498,0.027266 -0.073321,0.062744 -0.087891,0.1210938 -0.00443,0.01712 -0.054632,0.068953 -0.076172,0.064453 -0.050053,-0.010538 0.02184,-0.1046464 0.0332,-0.1191364 0.01268,-0.01581 0.028399,-0.027152 0.042969,-0.044922 0.00754,-0.00923 0.012778,-0.023869 0.017578,-0.037109 a 3.105825,3.105825 0 0 1 0.029297,-0.03125 c 0.02016,-0.00596 0.052549,-0.00696 0.074219,-0.00586 v -0.00195 c 0.0044,0 0.00466,-0.00147 0.00586,-0.00195 z m 4.2832032,0.089844 c 0.05005,-0.00261 0.07485,0.057601 0.09766,0.087891 0.01899,0.02474 0.07832,0.057099 0.109375,0.074219 0.01774,0.00924 0.03505,0.024403 0.05469,0.033203 0.01169,0.00524 0.02758,0.013084 0.04297,0.021484 a 3.105825,3.105825 0 0 1 0.07422,0.1054688 c -0.0024,0.01661 -0.01061,0.030245 -0.0078,0.046875 0.01333,0.00238 0.0218,-0.00557 0.0293,-0.017578 a 3.105825,3.105825 0 0 1 0.216796,0.3613281 c -0.0028,0.00469 -0.0066,0.00853 -0.0078,0.015625 -0.0063,0.03541 0.02193,0.081591 -0.03125,0.087891 -0.03356,0.00392 -0.07485,-0.032829 -0.121094,-0.042969 -0.01899,-0.0039 -0.04925,0.0053 -0.06445,0 -0.03485,-0.01184 -0.02491,-0.055232 -0.05469,-0.076172 -0.01711,-0.01185 -0.06065,-0.030003 -0.08789,-0.033203 -0.01711,-0.0013 -0.02523,0.0026 -0.04297,0 -0.02154,-0.00262 -0.05843,6.343e-4 -0.07617,-0.00977 -0.01711,-0.01054 -0.06005,-0.030292 -0.06445,-0.044922 -0.007,-0.02344 0.05339,-0.056542 0.05469,-0.076172 0.0014,-0.01516 -0.02024,-0.020199 -0.02344,-0.042969 -0.0025,-0.01398 0.0031,-0.033969 0,-0.042969 -0.0044,-0.01647 -0.02871,-0.032547 -0.05469,-0.033203 -0.02282,0 -0.04481,0.00977 -0.06445,0.00977 -0.02788,8.8e-4 -0.0843,-0.013366 -0.119141,-0.00977 -0.0209,0.00131 -0.03505,0.00847 -0.05469,0.00977 -0.05512,0.0039 -0.08778,-0.0026 -0.130859,0 -0.031046,0.00131 -0.090001,0.019873 -0.1191406,0.033203 -0.01457,0.00658 -0.025892,0.023703 -0.044922,0.033203 -0.00886,0.00392 -0.01982,0.00447 -0.03125,0.00977 -0.01774,0.00789 -0.049296,0.028803 -0.066406,0.033203 -0.02471,0.0066 -0.052676,-0.0013 -0.097656,0 -0.0323,0.00131 -0.087231,-0.0066 -0.087891,-0.044922 -6.92e-4,-0.05887 0.1083125,-0.032829 0.1640625,-0.042969 0.0209,-0.00392 0.029338,-0.028339 0.054687,-0.042969 0.01206,-0.00658 0.021843,-0.013984 0.033203,-0.021484 0.01899,-0.01328 0.049534,-0.039537 0.052734,-0.054687 0.00243,-0.01398 -0.011666,-0.034782 -0.00977,-0.044922 0.00244,-0.01328 0.025859,-0.025859 0.042969,-0.042969 0.02662,-0.02661 0.043232,-0.059052 0.076172,-0.076172 0.022171,-0.01185 0.066032,-0.015563 0.076172,-0.033203 0.0024,-0.0203 -7e-4,-0.024509 0,-0.042969 0.01389,-0.01319 0.01008,-0.018984 0.02148,-0.021484 0.03422,-0.00788 0.06946,0.012366 0.109375,0.00977 0.0171,-9.2e-4 0.03631,0.00208 0.05469,-0.00977 0.0152,-0.01054 0.02778,-0.025603 0.04297,-0.033203 0.01648,-0.00924 0.03439,-0.03005 0.05469,-0.03125 z M 6.4335937,7.892578 c 0.00811,-8e-4 0.014378,6.063e-4 0.017578,0.00391 -0.010142,0.04178 -0.107685,0.025316 -0.140625,0.00977 6.9e-4,-0.00792 0.013084,-0.00847 0.021484,-0.00977 0.00841,-0.0013 0.023063,8.78e-4 0.033203,0 0.01457,-8.77e-4 0.027119,0 0.042969,0 0.00793,0 0.017291,-0.00309 0.025391,-0.00391 z M 6.2285155,7.970703 c 0.00539,-5e-4 0.00992,-4.68e-5 0.015625,0.00195 -0.029136,0.02475 -0.068461,0.036934 -0.1191406,0.052734 -0.02408,0.00788 -0.060053,0.016454 -0.064453,-0.00977 -0.00508,-0.032931 0.021429,-0.030003 0.042969,-0.033203 0.027882,-0.00262 0.077065,-0.00977 0.109375,-0.00977 0.00539,0 0.010225,-0.00146 0.015625,-0.00195 z m -1.140625,1.625 c 0.01705,0.02118 0.034951,0.041934 0.056641,0.052734 0.01585,0.00782 0.034427,0.00772 0.054688,0.011719 0.01648,0.00261 0.027149,0.016484 0.042969,0.021484 0.03359,0.01183 0.082765,0.00898 0.109375,0.021484 0.04055,0.01777 0.062806,0.089095 0.097656,0.109375 0.0017,0.0203 -0.0063,0.039537 0,0.054687 0.01649,0.02213 0.049562,0.028339 0.076172,0.042969 0.0323,0.01777 0.045762,0.062222 0.076172,0.076172 0.01077,0.0039 0.028442,-0.0053 0.044922,0 0.04181,0.01315 0.049828,0.075253 0.085937,0.064453 0.02351,-0.0066 0.029403,-0.04168 0.033203,-0.064453 0.01585,-0.01712 0.029967,-0.044922 0.054687,-0.044922 0.03928,-8.8e-4 0.049883,0.049301 0.064453,0.087891 0.00821,0.02147 0.027503,0.04168 0.033203,0.06445 0.0095,0.03925 0.0082,0.152351 0,0.175781 -0.01014,0.02909 -0.052102,0.04443 -0.076172,0.07617 -0.0114,0.01516 -0.024403,0.03283 -0.033203,0.04297 -0.0152,0.01895 -0.031539,0.02781 -0.042969,0.04492 -0.00632,0.0092 -0.00602,0.02965 -0.011719,0.04297 -0.01903,0.04056 -0.04711,0.07028 -0.03125,0.119141 0.00635,0.01964 0.03125,0.04103 0.03125,0.06445 0,0.02792 -0.060053,0.03597 -0.064453,0.06641 -0.00313,0.02213 0.026303,0.06789 0.033203,0.09766 0.00506,0.02213 0.041378,0.04019 0.054688,0.05469 0.02216,0.02474 0.044183,0.05628 0.064453,0.08789 0.03991,0.06137 0.058386,0.135132 0.097656,0.195312 0.0209,0.0311 0.062232,0.05301 0.076172,0.08594 0.007,0.01647 -0.0063,0.05126 0,0.06641 0.02279,0.05136 0.1342269,0.105569 0.1855469,0.130859 0.02408,0.01184 0.044236,0.02057 0.066406,0.0332 0.033596,0.01895 0.1020406,0.05618 0.1191407,0.08594 0.0152,0.02661 0.025603,0.08845 0.033203,0.130859 0.0095,0.05571 -0.0024,0.103853 0,0.164063 0.00172,0.03293 0.00977,0.05301 0.00977,0.08594 0,0.01185 6.99e-4,0.03348 0,0.04492 -6.99e-4,0.03925 0.0031,0.07923 0,0.119141 -0.0018,0.02147 -0.0014,0.04614 0,0.06445 0.00174,0.01965 0.020284,0.02781 0.021484,0.04492 0.0014,0.0183 -0.023384,0.03823 -0.021484,0.05273 0.00442,0.0399 0.047087,0.07263 0.054687,0.109375 0.00632,0.0291 0.013566,0.09609 0.00977,0.13086 -0.0023,0.01735 -0.00707,0.04268 -0.00977,0.0625 A 3.105825,3.105825 0 0 1 5.0625,9.96875 3.105825,3.105825 0 0 1 5.0878905,9.595703 Z" style="opacity:0.6;fill:#d0d0d0;fill-opacity:1;stroke:none;stroke-width:1" inkscape:connector-curvature="0" />
  </g>
</svg>
