<?xml version="1.0" encoding="UTF-8" standalone="no"?>
<!-- Created with Inkscape (http://www.inkscape.org/) -->

<svg
   xmlns:dc="http://purl.org/dc/elements/1.1/"
   xmlns:cc="http://creativecommons.org/ns#"
   xmlns:rdf="http://www.w3.org/1999/02/22-rdf-syntax-ns#"
   xmlns:svg="http://www.w3.org/2000/svg"
   xmlns="http://www.w3.org/2000/svg"
   xmlns:sodipodi="http://sodipodi.sourceforge.net/DTD/sodipodi-0.dtd"
   xmlns:inkscape="http://www.inkscape.org/namespaces/inkscape"
   width="22"
   height="22"
   viewBox="0 0 22 22"
   version="1.1"
   id="svg8"
   inkscape:version="0.92+devel 15739 custom"
   sodipodi:docname="distribute-graph.svg">
  <defs
     id="ol-defs">
    <style
       id="current-color-scheme">      .ColorScheme-Text {
        color:#d0d0d0;
        stop-color:#d0d0d0;
      }
      .ColorScheme-Background {
        color:#212121;
        stop-color:#212121;
      }
      .ColorScheme-Highlight {
        color:#0039a9;
        stop-color:#0039a9;
      }
      .ColorScheme-ViewText {
        color:#d0d0d0;
        stop-color:#d0d0d0;
      }
      .ColorScheme-ViewBackground {
        color:#19191b;
        stop-color:#19191b;
      }
      .ColorScheme-ViewHover {
        color:#005cc7;
        stop-color:#005cc7;
      }
      .ColorScheme-ViewFocus{
        color:#002466;
        stop-color:#002466;
      }
      .ColorScheme-ButtonText {
        color:#d0d0d0;
        stop-color:#d0d0d0;
      }
      .ColorScheme-ButtonBackground {
        color:#232323;
        stop-color:#232323;                             
      }                                                 
      .ColorScheme-ButtonHover {                        
        color:#005cc7;                                  
        stop-color:#005cc7;                             
      }                                                 
      .ColorScheme-ButtonFocus{                         
        color:#0039a9;                                  
        stop-color:#0039a9;                             
      }</style>
  </defs>
  <sodipodi:namedview
     id="base"
     pagecolor="#002266"
     bordercolor="#ffffff"
     borderopacity="0.46666667"
     inkscape:pageopacity="0"
     inkscape:pageshadow="2"
     inkscape:zoom="13.081476"
     inkscape:cx="16.621911"
     inkscape:cy="12.794693"
     inkscape:document-units="px"
     inkscape:current-layer="svg8"
     inkscape:document-rotation="0"
     showgrid="false"
     inkscape:showpageshadow="false"
     borderlayer="true"
     units="px"
     fit-margin-top="0"
     fit-margin-left="0"
     fit-margin-right="0"
     fit-margin-bottom="0"
     inkscape:window-width="1920"
     inkscape:window-height="1051"
     inkscape:window-x="0"
     inkscape:window-y="0"
     inkscape:window-maximized="1"
     inkscape:snap-page="true" />
  <metadata
     id="metadata5">
    <rdf:RDF>
      <cc:Work
         rdf:about="">
        <dc:format>image/svg+xml</dc:format>
        <dc:type
           rdf:resource="http://purl.org/dc/dcmitype/StillImage" />
        <dc:title></dc:title>
      </cc:Work>
    </rdf:RDF>
  </metadata>
  <g
     id="g4267"
     inkscape:label="#distribute-graph"
     style="fill:none"
     sodipodi:insensitive="true">
    <rect
       inkscape:label="#boundary"
       y="-9.1666664e-08"
       x="-9.1666664e-08"
       height="22"
       width="22"
       id="rect4264"
       style="vector-effect:none;fill:none;stroke-width:3;stroke-linecap:round" />
    <path
       inkscape:connector-curvature="0"
       style="opacity:0.6;fill:#d0d0d0;fill-opacity:1;stroke:none;stroke-width:0.82499999"
       d="m 8.5080805,5.4779771 -4.125,3.3000006 0.515625,0.64292 4.125,-3.3000006 z m 1.4002444,0.058006 -0.6348635,0.5269044 4.1250006,4.9499995 0.634863,-0.526903 z m 7.5893551,0.033841 -3.3,4.9500009 0.686427,0.457618 3.3,-4.9500021 z M 3.815893,9.9220227 v 5.7750003 h 0.825 V 9.9220227 Z m 0.825,5.7750003 v 0.825 h 4.95 v -0.825 z m 8.752735,-4.37959 -3.300001,4.125 0.644532,0.514013 3.3,-4.125 z m 1.469531,0 -0.644531,0.514013 3.3,4.125 0.644531,-0.514013 z"
       class="ColorScheme-Text"
       id="path4"
       inkscape:label="#2" />
    <path
       inkscape:connector-curvature="0"
       style="fill:#00ff00;fill-opacity:1;stroke:none;stroke-width:0.82499999"
       d="M 8.9374999,4.3999998 A 1.2374966,1.2375 0 0 0 7.7,5.6374998 a 1.2374966,1.2375 0 0 0 1.2374999,1.2375 1.2374966,1.2375 0 0 0 1.2375001,-1.2375 1.2374966,1.2375 0 0 0 -1.2375001,-1.2375 z m 9.0750001,0 a 1.2374966,1.2375 0 0 0 -1.2375,1.2375 1.2374966,1.2375 0 0 0 1.2375,1.2375 1.2374966,1.2375 0 0 0 1.2375,-1.2375 1.2374966,1.2375 0 0 0 -1.2375,-1.2375 z M 3.9874998,8.5250001 a 1.2374966,1.2375 0 0 0 -1.2375,1.2374999 1.2374966,1.2375 0 0 0 1.2375,1.2375 1.2374966,1.2375 0 0 0 1.2375,-1.2375 1.2374966,1.2375 0 0 0 -1.2375,-1.2374999 z M 13.8875,10.175 A 1.2374966,1.2375 0 0 0 12.65,11.4125 1.2374966,1.2375 0 0 0 13.8875,12.65 1.2374966,1.2375 0 0 0 15.125,11.4125 1.2374966,1.2375 0 0 0 13.8875,10.175 Z m -9.9000002,4.95 a 1.2374966,1.2375 0 0 0 -1.2375,1.2375 1.2374966,1.2375 0 0 0 1.2375,1.2375 1.2374966,1.2375 0 0 0 1.2375,-1.2375 1.2374966,1.2375 0 0 0 -1.2375,-1.2375 z m 5.7750001,0 a 1.2374966,1.2375 0 0 0 -1.2375,1.2375 1.2374966,1.2375 0 0 0 1.2375,1.2375 A 1.2374966,1.2375 0 0 0 11,16.3625 1.2374966,1.2375 0 0 0 9.7624999,15.125 Z m 8.2500001,0 A 1.2374966,1.2375 0 0 0 16.775,16.3625 1.2374966,1.2375 0 0 0 18.0125,17.6 1.2374966,1.2375 0 0 0 19.25,16.3625 1.2374966,1.2375 0 0 0 18.0125,15.125 Z"
       class="ColorScheme-Highlight"
       id="path6"
       inkscape:label="#1" />
  </g>
</svg>
