<?xml version="1.0" encoding="UTF-8" standalone="no"?>
<svg
   xmlns:dc="http://purl.org/dc/elements/1.1/"
   xmlns:cc="http://creativecommons.org/ns#"
   xmlns:rdf="http://www.w3.org/1999/02/22-rdf-syntax-ns#"
   xmlns:svg="http://www.w3.org/2000/svg"
   xmlns="http://www.w3.org/2000/svg"
   xmlns:sodipodi="http://sodipodi.sourceforge.net/DTD/sodipodi-0.dtd"
   xmlns:inkscape="http://www.inkscape.org/namespaces/inkscape"
   height="16"
   viewBox="0 0 16 16"
   width="16"
   version="1.1"
   id="svg14"
   sodipodi:docname="draw-ellipse-segment.svg"
   inkscape:version="0.92+devel (262af300f2, 2017-08-19, custom)">
  <defs
     id="defs16" />
  <sodipodi:namedview
     id="namedview2"
     inkscape:document-rotation="0"
     showgrid="false"
     borderlayer="true"
     inkscape:showpageshadow="false"
     bordercolor="#ffffff"
     borderopacity="0.27058824"
     pagecolor="#002466"
     inkscape:pageopacity="0"
     inkscape:zoom="45.9375"
     inkscape:cx="7.9673469"
     inkscape:cy="8"
     inkscape:window-width="1920"
     inkscape:window-height="1023"
     inkscape:window-x="0"
     inkscape:window-y="28"
     inkscape:window-maximized="1"
     inkscape:current-layer="svg14" />
  <metadata
     id="metadata4">
    <rdf:RDF>
      <cc:Work>
        <dc:format>image/svg+xml			</dc:format>
        <dc:type
           rdf:resource="http://purl.org/dc/dcmitype/StillImage" />
        <dc:title></dc:title>
      </cc:Work>
    </rdf:RDF>
  </metadata>
  <g
     fill="none"
     transform="translate(-500,-150)"
     id="g12"
     inkscape:label="#draw-ellipse-segment">
    <rect
       height="16"
       width="16"
       x="500"
       y="150"
       id="rect6"
       inkscape:label="#boundary" />
    <path
       d="m 505.50737,152.25494 -0.50755,0.29254 c -2.51843,1.45403 -3.6328,4.51753 -2.63819,7.25019 0.99461,2.73266 3.81533,4.36093 6.6792,3.85596 C 511.90468,163.14865 514,160.65261 514,157.74457 v -0.58686 h -0.58686 -5.07548 z m -0.37713,1.69182 2.53069,4.38466 h 5.06138 c -0.26076,2.07709 -1.7755,3.79607 -3.88415,4.16789 -2.31093,0.40748 -4.5725,-0.89839 -5.37508,-3.10345 -0.73249,-2.01251 -0.002,-4.18487 1.66716,-5.4491 z"
       fill="#d0d0d0"
       opacity=".6"
       id="path8"
       inkscape:connector-curvature="0"
       inkscape:label="#" />
    <path
       d="m 505.13023,153.94677 2.5307,4.38465 h 5.06139 c -0.26077,2.07709 -1.77551,3.79607 -3.88416,4.16789 -2.31093,0.40748 -4.5725,-0.89839 -5.37508,-3.10345 -0.73249,-2.01251 -0.002,-4.18487 1.66715,-5.44909 z"
       fill="#d0d0d0"
       opacity=".3"
       id="path10"
       inkscape:connector-curvature="0"
       inkscape:label="#" />
  </g>
</svg>
