<?xml version="1.0" encoding="UTF-8" standalone="no"?>
<!-- Created with Inkscape (http://www.inkscape.org/) -->

<svg
   xmlns:dc="http://purl.org/dc/elements/1.1/"
   xmlns:cc="http://creativecommons.org/ns#"
   xmlns:rdf="http://www.w3.org/1999/02/22-rdf-syntax-ns#"
   xmlns:svg="http://www.w3.org/2000/svg"
   xmlns="http://www.w3.org/2000/svg"
   xmlns:sodipodi="http://sodipodi.sourceforge.net/DTD/sodipodi-0.dtd"
   xmlns:inkscape="http://www.inkscape.org/namespaces/inkscape"
   width="22"
   height="22"
   viewBox="0 0 5.8208331 5.8208336"
   version="1.1"
   id="svg8"
   inkscape:version="0.92+devel 15740 custom"
   sodipodi:docname="draw-geometry-mirror.svg">
  <defs
     id="defs2" />
  <sodipodi:namedview
     id="base"
     pagecolor="#002466"
     bordercolor="#ffffff"
     borderopacity="0.32156863"
     inkscape:pageopacity="1"
     inkscape:pageshadow="2"
     inkscape:zoom="25.8125"
     inkscape:cx="21.315838"
     inkscape:cy="12.09221"
     inkscape:document-units="px"
     inkscape:current-layer="svg8"
     inkscape:document-rotation="0"
     showgrid="false"
     units="px"
     inkscape:pagecheckerboard="false"
     borderlayer="true"
     inkscape:showpageshadow="false"
     inkscape:window-width="1920"
     inkscape:window-height="1051"
     inkscape:window-x="0"
     inkscape:window-y="0"
     inkscape:window-maximized="1"
     inkscape:snap-page="true"
     inkscape:snap-grids="false"
     inkscape:snap-to-guides="false">
    <inkscape:grid
       type="xygrid"
       id="grid4293"
       originx="-9.3823238e-08"
       originy="-4.9999997e-08" />
  </sodipodi:namedview>
  <metadata
     id="metadata5">
    <rdf:RDF>
      <cc:Work
         rdf:about="">
        <dc:format>image/svg+xml</dc:format>
        <dc:type
           rdf:resource="http://purl.org/dc/dcmitype/StillImage" />
        <dc:title></dc:title>
        <cc:license
           rdf:resource="http://creativecommons.org/licenses/by/4.0/" />
        <dc:creator>
          <cc:Agent>
            <dc:title>PixelPimps &amp; CodePoets</dc:title>
          </cc:Agent>
        </dc:creator>
      </cc:Work>
      <cc:License
         rdf:about="http://creativecommons.org/licenses/by/4.0/">
        <cc:permits
           rdf:resource="http://creativecommons.org/ns#Reproduction" />
        <cc:permits
           rdf:resource="http://creativecommons.org/ns#Distribution" />
        <cc:requires
           rdf:resource="http://creativecommons.org/ns#Notice" />
        <cc:requires
           rdf:resource="http://creativecommons.org/ns#Attribution" />
        <cc:permits
           rdf:resource="http://creativecommons.org/ns#DerivativeWorks" />
      </cc:License>
    </rdf:RDF>
  </metadata>
  <g
     id="g4296"
     transform="matrix(0,-1,-1,0,5.8208332,5.8208332)"
     inkscape:label="#draw-geometry-mirror"
     style="stroke-width:1">
    <rect
       style="fill:none;fill-opacity:1;stroke-width:0.39687499;stroke-linecap:square"
       id="rect4302"
       width="5.8208332"
       height="5.8208332"
       x="0"
       y="-5.8208332"
       transform="scale(1,-1)"
       inkscape:label="#boundary" />
    <path
       style="opacity:0.6;fill:#d0d0d0;fill-opacity:1;stroke-width:1.09090877;stroke-linecap:square"
       d="m 4.1210938,2.1816406 c -1.0744343,0 -1.9394532,0.8650189 -1.9394532,1.9394532 0,1.0744339 0.8650189,1.9394514 1.9394532,1.9394531 h 0.2324218 c -0.1308233,0 -0.2574296,0.012645 -0.3808594,0.037109 0.9301877,0.1440641 1.640625,0.9383628 1.640625,1.9101563 0,0.9439539 -0.6678289,1.7243086 -1.5585937,1.9003906 0.098566,0.015308 0.1958353,0.03125 0.2988281,0.03125 H 4.1210938 c -1.0744343,0 -1.9394532,0.8650192 -1.9394532,1.9394532 0,1.074434 0.8650189,1.939453 1.9394532,1.939453 h 2.828125 V 2.1816406 Z m 4.9296874,0 V 13.818359 h 2.8281248 c 1.074434,0 1.939453,-0.865019 1.939453,-1.939453 0,-1.074434 -0.865019,-1.9394501 -1.939453,-1.9394529 h -0.232422 c 0.102994,0 0.200264,-0.015939 0.298828,-0.03125 -0.890764,-0.1760817 -1.558593,-0.9564364 -1.558593,-1.9003906 0,-0.9717935 0.710437,-1.7660917 1.640625,-1.9101563 -0.123429,-0.024461 -0.250036,-0.037109 -0.38086,-0.037109 h 0.232422 c 1.074434,0 1.939453,-0.8650192 1.939453,-1.9394531 0,-1.0744343 -0.865019,-1.9394532 -1.939453,-1.9394532 z"
       transform="matrix(0,-0.36380208,-0.36380208,0,5.8208332,5.8208332)"
       id="rect4280"
       inkscape:connector-curvature="0"
       inkscape:label="#1" />
  </g>
</svg>
