<?xml version="1.0" encoding="UTF-8" standalone="no"?>
<svg
   xmlns:dc="http://purl.org/dc/elements/1.1/"
   xmlns:cc="http://creativecommons.org/ns#"
   xmlns:rdf="http://www.w3.org/1999/02/22-rdf-syntax-ns#"
   xmlns:svg="http://www.w3.org/2000/svg"
   xmlns="http://www.w3.org/2000/svg"
   xmlns:sodipodi="http://sodipodi.sourceforge.net/DTD/sodipodi-0.dtd"
   xmlns:inkscape="http://www.inkscape.org/namespaces/inkscape"
   height="22"
   viewBox="0 0 22 22"
   width="22"
   version="1.1"
   id="svg14"
   sodipodi:docname="draw-geometry-circle-from-three-points.svg"
   inkscape:version="0.92+devel (262af300f2, 2017-08-19, custom)">
  <defs
     id="defs16" />
  <sodipodi:namedview
     id="namedview2"
     inkscape:document-rotation="0"
     showgrid="false"
     pagecolor="#002466"
     inkscape:pageopacity="0"
     borderlayer="true"
     inkscape:showpageshadow="false"
     bordercolor="#ffffff"
     borderopacity="0.26666667"
     inkscape:zoom="22.96875"
     inkscape:cx="7.9673469"
     inkscape:cy="8"
     inkscape:window-width="1920"
     inkscape:window-height="1023"
     inkscape:window-x="0"
     inkscape:window-y="28"
     inkscape:window-maximized="1"
     inkscape:current-layer="svg14" />
  <metadata
     id="metadata4">
    <rdf:RDF>
      <cc:Work>
        <dc:format>image/svg+xml			</dc:format>
        <dc:type
           rdf:resource="http://purl.org/dc/dcmitype/StillImage" />
        <dc:title></dc:title>
      </cc:Work>
    </rdf:RDF>
  </metadata>
  <g
     id="g12"
     inkscape:label="#draw-geometry-from-three-points"
     transform="scale(1.375)">
    <rect
       fill="none"
       height="16"
       stroke-linecap="round"
       stroke-width="2.181818"
       width="16"
       id="rect6"
       x="0"
       y="0"
       inkscape:label="#boundary" />
    <circle
       cx="8"
       cy="8"
       r="5.4375"
       style="opacity:0.6;fill:none;stroke:#d0d0d0;stroke-width:1.125;stroke-linecap:square;stroke-linejoin:round"
       id="circle8"
       inkscape:label="#" />
    <path
       d="m 11.194824,2.5683594 c -0.62132,0 -1.125,0.5036796 -1.125,1.125 0,0.6213203 0.50368,1.125 1.125,1.125 0.621321,0 1.125001,-0.5036797 1.125001,-1.125 0,-0.6213204 -0.50368,-1.125 -1.125001,-1.125 z M 3.5029297,9.847168 c -0.6213204,0 -1.125,0.50368 -1.125,1.125 0,0.62132 0.5036796,1.125 1.125,1.125 0.6213203,0 1.125,-0.50368 1.125,-1.125 0,-0.62132 -0.5036797,-1.125 -1.125,-1.125 z m 6.7983393,1.824609 c -0.62132,0 -1.1249995,0.50368 -1.1249995,1.125 0,0.621321 0.5036795,1.125 1.1249995,1.125 0.621321,0 1.125,-0.503679 1.125,-1.125 0,-0.62132 -0.503679,-1.125 -1.125,-1.125 z"
       fill="#0f0"
       id="path10"
       inkscape:connector-curvature="0"
       inkscape:label="#" />
  </g>
</svg>
