<?xml version="1.0" encoding="UTF-8" standalone="no"?>
<!-- Created with Inkscape (http://www.inkscape.org/) -->

<svg
   xmlns:dc="http://purl.org/dc/elements/1.1/"
   xmlns:cc="http://creativecommons.org/ns#"
   xmlns:rdf="http://www.w3.org/1999/02/22-rdf-syntax-ns#"
   xmlns:svg="http://www.w3.org/2000/svg"
   xmlns="http://www.w3.org/2000/svg"
   xmlns:sodipodi="http://sodipodi.sourceforge.net/DTD/sodipodi-0.dtd"
   xmlns:inkscape="http://www.inkscape.org/namespaces/inkscape"
   width="22"
   height="22"
   viewBox="0 0 5.8208331 5.8208331"
   version="1.1"
   id="svg8"
   inkscape:version="0.92+devel (262af300f2, 2017-08-19, custom)"
   sodipodi:docname="folder-sync.svg">
  <defs
     id="defs2">
    <style
       id="current-color-scheme">      .ColorScheme-Text {
        color:#d0d0d0;
        stop-color:#d0d0d0;
      }
      .ColorScheme-Background {
        color:#212121;
        stop-color:#212121;
      }
      .ColorScheme-Highlight {
        color:#0039a9;
        stop-color:#0039a9;
      }
      .ColorScheme-ViewText {
        color:#d0d0d0;
        stop-color:#d0d0d0;
      }
      .ColorScheme-ViewBackground {
        color:#19191b;
        stop-color:#19191b;
      }
      .ColorScheme-ViewHover {
        color:#005cc7;
        stop-color:#005cc7;
      }
      .ColorScheme-ViewFocus{
        color:#002466;
        stop-color:#002466;
      }
      .ColorScheme-ButtonText {
        color:#d0d0d0;
        stop-color:#d0d0d0;
      }
      .ColorScheme-ButtonBackground {
        color:#232323;
        stop-color:#232323;                             
      }                                                 
      .ColorScheme-ButtonHover {                        
        color:#005cc7;                                  
        stop-color:#005cc7;                             
      }                                                 
      .ColorScheme-ButtonFocus{                         
        color:#0039a9;                                  
        stop-color:#0039a9;                             
      }</style>
  </defs>
  <sodipodi:namedview
     id="base"
     pagecolor="#002466"
     bordercolor="#ffffff"
     borderopacity="0.38039216"
     inkscape:pageopacity="1"
     inkscape:pageshadow="2"
     inkscape:zoom="25.25"
     inkscape:cx="7.5247528"
     inkscape:cy="8.0000002"
     inkscape:document-units="px"
     inkscape:current-layer="svg8"
     inkscape:document-rotation="0"
     showgrid="false"
     inkscape:showpageshadow="false"
     borderlayer="true"
     inkscape:window-width="1920"
     inkscape:window-height="1023"
     inkscape:window-x="0"
     inkscape:window-y="28"
     inkscape:window-maximized="1"
     units="px"
     inkscape:snap-page="true" />
  <metadata
     id="metadata5">
    <rdf:RDF>
      <cc:Work
         rdf:about="">
        <dc:format>image/svg+xml</dc:format>
        <dc:type
           rdf:resource="http://purl.org/dc/dcmitype/StillImage" />
        <dc:title></dc:title>
      </cc:Work>
    </rdf:RDF>
  </metadata>
  <g
     id="g848"
     inkscape:label="#folder-sync"
     transform="scale(1.375)"
     style="stroke-width:0.72727275">
    <path
       inkscape:label="#boundary"
       inkscape:connector-curvature="0"
       id="rect811"
       d="M 0,0 H 4.2333332 V 4.2333332 H 0 Z"
       style="fill:none;stroke-width:0.18512721;stroke-linecap:round" />
    <path
       inkscape:label="#"
       style="opacity:0.6;stroke-width:0.72727275"
       inkscape:connector-curvature="0"
       d="m 2.2345779,0.52918599 a 0.08086514,0.08086514 0 0 0 -0.038381,0.011065 l -0.712655,0.4114793 a 0.08086514,0.08086514 0 0 0 0,0.14004131 L 2.1961962,1.5029049 A 0.08086514,0.08086514 0 0 0 2.3172193,1.4330574 V 1.2342331 c 0.2505451,0.04486 0.4720821,0.1961283 0.6020051,0.4211612 0.1560507,0.2702881 0.1560507,0.6024631 0,0.8727513 l 0.3526963,0.2036648 c 0.2284626,-0.3957083 0.2284626,-0.8843726 0,-1.280081 C 3.0693935,1.1009425 2.7136442,0.87046089 2.3172193,0.82240829 V 0.61009879 A 0.08086514,0.08086514 0 0 0 2.2345779,0.52918599 Z M 0.96141233,1.5015222 C 0.73295,1.8972305 0.73295,2.3858949 0.96141233,2.7816032 1.1639394,3.1323905 1.5196889,3.3628719 1.9161136,3.4109247 v 0.2123095 a 0.08086514,0.08086514 0 0 0 0.082642,0.080913 0.08086514,0.08086514 0 0 0 0.038381,-0.011065 L 2.7497915,3.2816026 a 0.08086514,0.08086514 0 0 0 0,-0.1400413 L 2.0371369,2.7304278 A 0.08086514,0.08086514 0 0 0 1.9161136,2.8002753 V 2.9990997 C 1.6655686,2.9542391 1.4440318,2.8029712 1.3141089,2.5779384 1.158058,2.3076501 1.158058,1.9754752 1.3141089,1.7051871 Z"
       fill="#d0d0d0"
       id="path820" />
  </g>
</svg>
