<?xml version="1.0" encoding="UTF-8" standalone="no"?>
<!-- Created with Inkscape (http://www.inkscape.org/) -->

<svg
   xmlns:dc="http://purl.org/dc/elements/1.1/"
   xmlns:cc="http://creativecommons.org/ns#"
   xmlns:rdf="http://www.w3.org/1999/02/22-rdf-syntax-ns#"
   xmlns:svg="http://www.w3.org/2000/svg"
   xmlns="http://www.w3.org/2000/svg"
   xmlns:sodipodi="http://sodipodi.sourceforge.net/DTD/sodipodi-0.dtd"
   xmlns:inkscape="http://www.inkscape.org/namespaces/inkscape"
   width="22"
   height="22"
   viewBox="0 0 5.8208331 5.8208331"
   version="1.1"
   id="svg8"
   inkscape:version="0.92+devel (7f3bd2b258, 2017-08-07, custom)"
   sodipodi:docname="games-hint.svg">
  <defs
     id="defs2" />
  <sodipodi:namedview
     id="base"
     pagecolor="#002466"
     bordercolor="#ffffff"
     borderopacity="0.38039216"
     inkscape:pageopacity="1"
     inkscape:pageshadow="2"
     inkscape:zoom="17.854446"
     inkscape:cx="7.970297"
     inkscape:cy="8.0000002"
     inkscape:document-units="px"
     inkscape:current-layer="svg8"
     inkscape:document-rotation="0"
     showgrid="false"
     inkscape:showpageshadow="false"
     borderlayer="true"
     inkscape:window-width="1920"
     inkscape:window-height="1027"
     inkscape:window-x="0"
     inkscape:window-y="24"
     inkscape:window-maximized="1"
     units="px" />
  <metadata
     id="metadata5">
    <rdf:RDF>
      <cc:Work
         rdf:about="">
        <dc:format>image/svg+xml</dc:format>
        <dc:type
           rdf:resource="http://purl.org/dc/dcmitype/StillImage" />
        <dc:title></dc:title>
      </cc:Work>
    </rdf:RDF>
  </metadata>
  <g
     id="g839"
     inkscape:label="#games-hint"
     transform="scale(1.375)">
    <path
       inkscape:label="#boundary"
       inkscape:connector-curvature="0"
       id="rect811"
       d="M 0,0 H 4.2333332 V 4.2333332 H 0 Z"
       style="fill:none;stroke-width:0.25454992;stroke-linecap:round" />
    <path
       style="opacity:0.6;fill:#d0d0d0;stroke:none;stroke-width:0.33734375"
       d="m 2.1164554,0.52916685 c -0.4345498,0 -0.945484,0.3674175 -0.945484,1.11496935 0,0.4239873 0.4522432,0.9375422 0.4522432,1.3613785 h 0.982255 c 0,-0.3997459 0.4568922,-0.9412994 0.4568922,-1.3613785 0,-0.74755185 -0.5113567,-1.11496935 -0.9459064,-1.11496935 z M 1.6519553,3.1352703 v 0.013103 c -0.034798,0.00829 -0.060017,0.037597 -0.060017,0.076924 0,0.039325 0.025222,0.074589 0.060017,0.090871 v 0.048605 c -0.034798,0.00829 -0.060017,0.037597 -0.060017,0.076924 0,0.039325 0.025222,0.074589 0.060017,0.090871 v 0.090871 h 0.351228 a 0.14008178,0.08525249 0 0 0 0.1398994,0.080727 0.14008178,0.08525249 0 0 0 0.1394768,-0.080728 h 0.2785311 c 0.04951,0.00569 0.089603,-0.020324 0.089603,-0.070161 0,-0.039326 -0.025222,-0.074589 -0.060017,-0.090871 v -0.048183 c 0.034799,-0.00829 0.060017,-0.038019 0.060017,-0.077346 0,-0.039325 -0.025222,-0.074589 -0.060017,-0.090871 v -0.110736 z"
       id="path811"
       inkscape:connector-curvature="0"
       inkscape:label="#" />
  </g>
</svg>
