<?xml version="1.0" encoding="UTF-8" standalone="no"?>
<!-- Created with Inkscape (http://www.inkscape.org/) -->

<svg
   xmlns:dc="http://purl.org/dc/elements/1.1/"
   xmlns:cc="http://creativecommons.org/ns#"
   xmlns:rdf="http://www.w3.org/1999/02/22-rdf-syntax-ns#"
   xmlns:svg="http://www.w3.org/2000/svg"
   xmlns="http://www.w3.org/2000/svg"
   xmlns:sodipodi="http://sodipodi.sourceforge.net/DTD/sodipodi-0.dtd"
   xmlns:inkscape="http://www.inkscape.org/namespaces/inkscape"
   width="22"
   height="22"
   viewBox="0 0 5.8208331 5.8208331"
   version="1.1"
   id="svg8"
   inkscape:version="0.92+devel (7f3bd2b258, 2017-08-07, custom)"
   sodipodi:docname="games-config-tiles.svg">
  <defs
     id="defs2">
    <style
       id="current-color-scheme">      .ColorScheme-Text {
        color:#d0d0d0;
        stop-color:#d0d0d0;
      }
      .ColorScheme-Background {
        color:#212121;
        stop-color:#212121;
      }
      .ColorScheme-Highlight {
        color:#0039a9;
        stop-color:#0039a9;
      }
      .ColorScheme-ViewText {
        color:#d0d0d0;
        stop-color:#d0d0d0;
      }
      .ColorScheme-ViewBackground {
        color:#19191b;
        stop-color:#19191b;
      }
      .ColorScheme-ViewHover {
        color:#005cc7;
        stop-color:#005cc7;
      }
      .ColorScheme-ViewFocus{
        color:#002466;
        stop-color:#002466;
      }
      .ColorScheme-ButtonText {
        color:#d0d0d0;
        stop-color:#d0d0d0;
      }
      .ColorScheme-ButtonBackground {
        color:#232323;
        stop-color:#232323;                             
      }                                                 
      .ColorScheme-ButtonHover {                        
        color:#005cc7;                                  
        stop-color:#005cc7;                             
      }                                                 
      .ColorScheme-ButtonFocus{                         
        color:#0039a9;                                  
        stop-color:#0039a9;                             
      }</style>
  </defs>
  <sodipodi:namedview
     id="base"
     pagecolor="#002466"
     bordercolor="#ffffff"
     borderopacity="0.38039216"
     inkscape:pageopacity="1"
     inkscape:pageshadow="2"
     inkscape:zoom="17.854446"
     inkscape:cx="7.970297"
     inkscape:cy="8.0000002"
     inkscape:document-units="px"
     inkscape:current-layer="svg8"
     inkscape:document-rotation="0"
     showgrid="false"
     inkscape:showpageshadow="false"
     borderlayer="true"
     inkscape:window-width="1920"
     inkscape:window-height="1027"
     inkscape:window-x="0"
     inkscape:window-y="24"
     inkscape:window-maximized="1"
     units="px" />
  <metadata
     id="metadata5">
    <rdf:RDF>
      <cc:Work
         rdf:about="">
        <dc:format>image/svg+xml</dc:format>
        <dc:type
           rdf:resource="http://purl.org/dc/dcmitype/StillImage" />
        <dc:title></dc:title>
      </cc:Work>
    </rdf:RDF>
  </metadata>
  <g
     id="g845"
     inkscape:label="#games-configure-tiles"
     transform="scale(1.375)">
    <path
       inkscape:label="#boundary"
       inkscape:connector-curvature="0"
       id="rect811"
       d="M 0,0 H 4.2333332 V 4.2333332 H 0 Z"
       style="fill:none;stroke-width:0.25454992;stroke-linecap:round" />
    <path
       inkscape:label="#"
       id="rect812"
       d="m 0.84658913,0.52916665 c -0.175895,0 -0.31742248,0.1415275 -0.31742248,0.3174225 V 3.3867441 c 0,0.1758948 0.14152748,0.3174224 0.31742248,0.3174224 H 3.3867442 c 0.175895,0 0.3174224,-0.1415276 0.3174224,-0.3174224 V 0.84658915 c 0,-0.175895 -0.1415274,-0.3174225 -0.3174224,-0.3174225 z m 1.62354417,0.4398956 0.2030886,0.0352692 0.016665,0.2081268 a 0.5464944,0.5464944 0 0 1 0.096506,0.061624 L 2.9821176,1.1992807 3.100715,1.367875 2.9650645,1.5267801 a 0.5464944,0.5464944 0 0 1 0.025192,0.1123962 l 0.1906859,0.085266 -0.035269,0.203476 -0.2085143,0.016278 a 0.5464944,0.5464944 0 0 1 -0.061237,0.096506 L 2.9503367,2.2364266 2.7817422,2.355024 2.6232248,2.2197609 A 0.5464944,0.5464944 0 0 1 2.5108285,2.2445656 L 2.4251749,2.4352517 2.2220865,2.3999826 2.2058085,2.1914682 A 0.5464944,0.5464944 0 0 1 2.1085275,2.1302316 L 1.9135782,2.2046457 1.7945933,2.0360513 1.9298564,1.8775339 A 0.5464944,0.5464944 0 0 1 1.9050516,1.7655252 l -0.190686,-0.086041 0.035269,-0.2030883 0.2085145,-0.016278 a 0.5464944,0.5464944 0 0 1 0.061237,-0.096506 L 1.9449716,1.1674997 2.1139536,1.0489023 2.2724711,1.1841653 A 0.5464944,0.5464944 0 0 1 2.3844798,1.1597482 Z M 2.4476542,1.4884103 A 0.21359218,0.21359218 0 0 0 2.2372019,1.6655313 0.21359218,0.21359218 0 0 0 2.4112222,1.912803 0.21359218,0.21359218 0 0 0 2.6581065,1.7387826 0.21359218,0.21359218 0 0 0 2.4840861,1.4915109 a 0.21359218,0.21359218 0 0 0 -0.036432,-0.0031 z m -0.8394836,0.5553925 0.1685943,0.031781 0.010852,0.1736328 a 0.45530016,0.45530016 0 0 1 0.080228,0.05271 L 2.031401,2.2426276 2.127907,2.384867 2.0127977,2.5150915 a 0.45530016,0.45530016 0 0 1 0.019379,0.093793 L 2.189919,2.6829105 2.15775,2.8515048 1.9845047,2.8623578 a 0.45530016,0.45530016 0 0 1 -0.05271,0.080228 l 0.058911,0.163556 -0.1418518,0.096118 -0.1306122,-0.1147217 a 0.45530016,0.45530016 0 0 1 -0.093405,0.019379 L 1.5508097,3.2642722 1.3818277,3.2324913 1.3709757,3.0588585 a 0.45530016,0.45530016 0 0 1 -0.07984,-0.052711 L 1.1275797,3.0654458 1.031074,2.9232064 1.1461832,2.7929818 A 0.45530016,0.45530016 0 0 1 1.1271921,2.6995767 L 0.96906227,2.6251626 1.0012308,2.4565682 1.1744761,2.4457162 a 0.45530016,0.45530016 0 0 1 0.053098,-0.07984 L 1.1682749,2.2019326 1.3101267,2.1054269 1.4407389,2.2209237 a 0.45530016,0.45530016 0 0 1 0.093405,-0.019379 z m 1.2789915,0.3282745 0.182547,0.073639 -0.022479,0.1387512 a 0.33106037,0.33106037 0 0 1 0.02713,0.029456 0.33106037,0.33106037 0 0 1 0.022479,0.033331 l 0.1399139,0.011626 0.027518,0.1949494 -0.1309997,0.049609 a 0.33106037,0.33106037 0 0 1 -0.029843,0.074802 L 3.163502,3.1049775 3.0084726,3.2262879 2.8999522,3.1379211 a 0.33106037,0.33106037 0 0 1 -0.079453,0.010853 l -0.080228,0.1154967 -0.1825471,-0.073251 0.022479,-0.138751 a 0.33106037,0.33106037 0 0 1 -0.02713,-0.029843 0.33106037,0.33106037 0 0 1 -0.022479,-0.033331 L 2.3906808,2.9778539 2.3631632,2.7829045 2.4941629,2.7332952 a 0.33106037,0.33106037 0 0 1 0.029843,-0.074801 L 2.4639323,2.5317575 2.6189616,2.410447 2.7274821,2.4988137 a 0.33106037,0.33106037 0 0 1 0.079453,-0.01124 z M 1.5798776,2.4763345 a 0.17794978,0.17794978 0 0 0 -0.1003814,0.030618 0.17794978,0.17794978 0 0 0 -0.047284,0.2472718 0.17794978,0.17794978 0 0 0 0.2472716,0.046896 0.17794978,0.17794978 0 0 0 0.047284,-0.2472718 0.17794978,0.17794978 0 0 0 -0.1465027,-0.077515 0.17794978,0.17794978 0 0 1 -3.87e-4,0 z M 2.8189492,2.670121 A 0.1482638,0.1482638 0 0 0 2.7224432,2.701515 0.1482638,0.1482638 0 0 0 2.6968632,2.9096418 0.1482638,0.1482638 0 0 0 2.90499,2.9352218 0.1482638,0.1482638 0 0 0 2.93057,2.7267074 0.1482638,0.1482638 0 0 0 2.8189492,2.670121 Z"
       style="opacity:0.6;fill:#d0d0d0;stroke-width:0.31750003"
       inkscape:connector-curvature="0" />
  </g>
</svg>
