<?xml version="1.0" encoding="UTF-8" standalone="no"?>
<!-- Created with Inkscape (http://www.inkscape.org/) -->

<svg
   xmlns:dc="http://purl.org/dc/elements/1.1/"
   xmlns:cc="http://creativecommons.org/ns#"
   xmlns:rdf="http://www.w3.org/1999/02/22-rdf-syntax-ns#"
   xmlns:svg="http://www.w3.org/2000/svg"
   xmlns="http://www.w3.org/2000/svg"
   xmlns:sodipodi="http://sodipodi.sourceforge.net/DTD/sodipodi-0.dtd"
   xmlns:inkscape="http://www.inkscape.org/namespaces/inkscape"
   width="22"
   height="22"
   viewBox="0 0 5.8208331 5.8208336"
   version="1.1"
   id="svg8"
   inkscape:version="0.92+devel unknown"
   sodipodi:docname="interactive_simplify.svg">
  <defs
     id="defs2" />
  <sodipodi:namedview
     id="base"
     pagecolor="#002466"
     bordercolor="#ffffff"
     borderopacity="0.32156863"
     inkscape:pageopacity="1"
     inkscape:pageshadow="2"
     inkscape:zoom="19.090909"
     inkscape:cx="11.000014"
     inkscape:cy="10.999978"
     inkscape:document-units="px"
     inkscape:current-layer="svg8"
     inkscape:document-rotation="0"
     showgrid="false"
     units="px"
     inkscape:pagecheckerboard="false"
     borderlayer="true"
     inkscape:showpageshadow="false"
     inkscape:window-width="1920"
     inkscape:window-height="1051"
     inkscape:window-x="0"
     inkscape:window-y="0"
     inkscape:window-maximized="1" />
  <metadata
     id="metadata5">
    <rdf:RDF>
      <cc:Work
         rdf:about="">
        <dc:format>image/svg+xml</dc:format>
        <dc:type
           rdf:resource="http://purl.org/dc/dcmitype/StillImage" />
        <dc:title></dc:title>
        <cc:license
           rdf:resource="http://creativecommons.org/licenses/by/4.0/" />
        <dc:creator>
          <cc:Agent>
            <dc:title>PixelPimps &amp; CodePoets</dc:title>
          </cc:Agent>
        </dc:creator>
      </cc:Work>
      <cc:License
         rdf:about="http://creativecommons.org/licenses/by/4.0/">
        <cc:permits
           rdf:resource="http://creativecommons.org/ns#Reproduction" />
        <cc:permits
           rdf:resource="http://creativecommons.org/ns#Distribution" />
        <cc:requires
           rdf:resource="http://creativecommons.org/ns#Notice" />
        <cc:requires
           rdf:resource="http://creativecommons.org/ns#Attribution" />
        <cc:permits
           rdf:resource="http://creativecommons.org/ns#DerivativeWorks" />
      </cc:License>
    </rdf:RDF>
  </metadata>
  <g
     inkscape:label="#interactive_simplify"
     id="interactive_simplify"
     transform="matrix(0.36380208,0,0,0.36380208,-103.58342,-194.81561)">
    <rect
       style="color:#000000;fill:none;stroke-width:1.01774704"
       id="rect17937-7"
       width="16"
       height="16"
       x="284.72464"
       y="535.4989"
       inkscape:label="#boundary" />
    <path
       style="color:#000000;opacity:0.6;solid-opacity:1;fill:#d0d0d0;stroke-width:1.03182936"
       d="m 290.57268,537.91007 c -0.58346,-0.0159 -1.10826,0.18542 -1.4617,0.58878 -0.35344,0.40313 -0.51219,0.93809 -0.57759,1.48687 -0.13096,1.09747 0.0706,2.37225 0.27931,3.62894 0.20835,1.25661 0.4317,2.49552 0.43377,3.30193 0,0.40313 -0.0651,0.67784 -0.11533,0.76919 -0.0508,0.0913 -0.0325,0.10803 -0.25193,0.10176 -0.49583,-0.0143 -0.66537,-0.20311 -0.84133,-0.62267 -0.17597,-0.41956 -0.25375,-1.09993 -0.23772,-1.80562 0.0325,-1.41139 0.0937,-1.6972 0.0937,-1.6972 l -1.09684,-0.01 c 0,0 -0.027,0.34924 -0.0643,1.98246 -0.0183,0.81658 -0.0325,1.35607 0.27685,2.09295 0.30923,0.73689 0.97325,1.3355 1.84078,1.36067 0.50417,0.0143 1.00064,-0.26566 1.24542,-0.70816 0.24478,-0.44249 0.2924,-0.94103 0.29113,-1.46781 0,-1.05318 -0.24914,-2.30543 -0.45392,-3.54077 -0.20478,-1.23549 -0.359,-2.45218 -0.26859,-3.20978 0.0452,-0.37892 0.14159,-0.61354 0.25311,-0.74069 0.11136,-0.12716 0.26137,-0.21732 0.62743,-0.20756 0.36106,0.01 0.54846,0.0991 0.65244,0.18994 0.10397,0.0908 0.16469,0.20096 0.20795,0.42193 0.0865,0.44179 -0.01,1.25939 -0.16874,2.11224 -0.15883,0.853 -0.36622,1.73371 -0.34702,2.55314 0.01,0.4098 0.0778,0.83555 0.32805,1.19653 0.25025,0.36106 0.66656,0.5656 1.10755,0.59147 0.36558,0.0214 0.69926,-0.0405 0.98158,-0.21708 0.28233,-0.17708 0.48584,-0.46845 0.59775,-0.76101 0.22383,-0.58537 0.18867,-1.17605 0.16874,-1.71205 -0.0198,-0.53607 -0.0325,-1.03262 0.0167,-1.24811 0.0246,-0.10779 0.0444,-0.12303 0.0452,-0.12342 4.8e-4,-4.8e-4 0.0175,-0.027 0.15922,-0.023 0.17303,0 0.18907,0.0341 0.2151,0.0587 0.0262,0.0246 0.073,0.0971 0.15454,0.25637 0.0811,0.15922 0.197,0.40313 0.42662,0.61458 0.22962,0.21144 0.55838,0.34812 0.93047,0.36622 1.2774,-0.21891 1.81284,-0.79705 2.70355,-0.0667 v -1.31859 c -1.18065,-0.58426 -1.8207,-0.12779 -2.65482,0.084 -0.19057,-0.01 -0.22843,-0.0468 -0.26264,-0.0786 -0.0341,-0.0317 -0.0796,-0.1027 -0.15802,-0.25645 -0.0786,-0.15382 -0.18708,-0.3913 -0.41123,-0.6037 -0.22422,-0.21239 -0.55234,-0.34622 -0.91499,-0.35677 -0.32836,-0.01 -0.65252,0.0856 -0.8973,0.30796 -0.24478,0.22264 -0.37423,0.53044 -0.43845,0.81395 -0.12858,0.56688 -0.0722,1.12144 -0.0532,1.63069 0.019,0.50941 -0.008,0.95778 -0.0738,1.13414 -0.0341,0.0883 -0.0524,0.10937 -0.10104,0.13969 -0.0484,0.0302 -0.15581,0.0714 -0.37432,0.0587 -0.21874,-0.0127 -0.24319,-0.0556 -0.27216,-0.0977 -0.0294,-0.0421 -0.0778,-0.17192 -0.0832,-0.42463 -0.0119,-0.50536 0.1589,-1.36519 0.32328,-2.24788 0.16438,-0.88254 0.33629,-1.79777 0.16636,-2.66577 -0.085,-0.43401 -0.28431,-0.87127 -0.62862,-1.17208 -0.34447,-0.30082 -0.7938,-0.44583 -1.31797,-0.45988 z"
       id="path14318-5-3"
       inkscape:connector-curvature="0"
       sodipodi:nodetypes="cccccccccccccccccccccsccccccccccccsccccccccccccccccccccc"
       inkscape:label="#1" />
  </g>
</svg>
