<?xml version="1.0" encoding="UTF-8" standalone="no"?>
<!-- Created with Inkscape (http://www.inkscape.org/) -->

<svg
   xmlns:dc="http://purl.org/dc/elements/1.1/"
   xmlns:cc="http://creativecommons.org/ns#"
   xmlns:rdf="http://www.w3.org/1999/02/22-rdf-syntax-ns#"
   xmlns:svg="http://www.w3.org/2000/svg"
   xmlns="http://www.w3.org/2000/svg"
   xmlns:sodipodi="http://sodipodi.sourceforge.net/DTD/sodipodi-0.dtd"
   xmlns:inkscape="http://www.inkscape.org/namespaces/inkscape"
   width="64"
   height="64"
   viewBox="0 0 64 64"
   version="1.1"
   id="svg8"
   inkscape:version="0.92+devel 15690 custom"
   sodipodi:docname="folder-television.svg">
  <defs
     id="ol-defs">
    <style
       id="current-color-scheme">      .ColorScheme-Text {
        color:#d0d0d0;
        stop-color:#d0d0d0;
      }
      .ColorScheme-Background {
        color:#212121;
        stop-color:#212121;
      }
      .ColorScheme-Highlight {
        color:#0039a9;
        stop-color:#0039a9;
      }
      .ColorScheme-ViewText {
        color:#d0d0d0;
        stop-color:#d0d0d0;
      }
      .ColorScheme-ViewBackground {
        color:#19191b;
        stop-color:#19191b;
      }
      .ColorScheme-ViewHover {
        color:#005cc7;
        stop-color:#005cc7;
      }
      .ColorScheme-ViewFocus{
        color:#002466;
        stop-color:#002466;
      }
      .ColorScheme-ButtonText {
        color:#d0d0d0;
        stop-color:#d0d0d0;
      }
      .ColorScheme-ButtonBackground {
        color:#232323;
        stop-color:#232323;                             
      }                                                 
      .ColorScheme-ButtonHover {                        
        color:#005cc7;                                  
        stop-color:#005cc7;                             
      }                                                 
      .ColorScheme-ButtonFocus{                         
        color:#0039a9;                                  
        stop-color:#0039a9;                             
      }</style>
    <style
       id="current-color-scheme-7">      .ColorScheme-Text {
        color:#d0d0d0;
        stop-color:#d0d0d0;
      }
      .ColorScheme-Background {
        color:#212121;
        stop-color:#212121;
      }
      .ColorScheme-Highlight {
        color:#0039a9;
        stop-color:#0039a9;
      }
      .ColorScheme-ViewText {
        color:#d0d0d0;
        stop-color:#d0d0d0;
      }
      .ColorScheme-ViewBackground {
        color:#19191b;
        stop-color:#19191b;
      }
      .ColorScheme-ViewHover {
        color:#005cc7;
        stop-color:#005cc7;
      }
      .ColorScheme-ViewFocus{
        color:#002466;
        stop-color:#002466;
      }
      .ColorScheme-ButtonText {
        color:#d0d0d0;
        stop-color:#d0d0d0;
      }
      .ColorScheme-ButtonBackground {
        color:#232323;
        stop-color:#232323;                             
      }                                                 
      .ColorScheme-ButtonHover {                        
        color:#005cc7;                                  
        stop-color:#005cc7;                             
      }                                                 
      .ColorScheme-ButtonFocus{                         
        color:#0039a9;                                  
        stop-color:#0039a9;                             
      }</style>
  </defs>
  <sodipodi:namedview
     id="base"
     pagecolor="#002266"
     bordercolor="#ffffff"
     borderopacity="0.46666667"
     inkscape:pageopacity="0"
     inkscape:pageshadow="2"
     inkscape:zoom="6.540738"
     inkscape:cx="22.613485"
     inkscape:cy="30.60679"
     inkscape:document-units="px"
     inkscape:current-layer="svg8"
     inkscape:document-rotation="0"
     showgrid="false"
     inkscape:showpageshadow="false"
     borderlayer="true"
     units="px"
     fit-margin-top="0"
     fit-margin-left="0"
     fit-margin-right="0"
     fit-margin-bottom="0"
     inkscape:window-width="1920"
     inkscape:window-height="1051"
     inkscape:window-x="0"
     inkscape:window-y="0"
     inkscape:window-maximized="1"
     inkscape:snap-page="true" />
  <metadata
     id="metadata5">
    <rdf:RDF>
      <cc:Work
         rdf:about="">
        <dc:format>image/svg+xml</dc:format>
        <dc:type
           rdf:resource="http://purl.org/dc/dcmitype/StillImage" />
        <dc:title></dc:title>
      </cc:Work>
    </rdf:RDF>
  </metadata>
  <g
     id="g4351"
     transform="matrix(2.3272727,0,0,2.3272727,5.1136372,7.8601797)"
     inkscape:label="#folder-television">
    <g
       transform="translate(0.55281797,-0.5687764)"
       id="g4331"
       inkscape:label="#glyph">
      <path
         inkscape:label="#tab"
         inkscape:connector-curvature="0"
         id="rect4313"
         d="m 1,1.4724453 c -0.554,0 -1,0.446 -1,1 V 4.2107265 H 1 3.0898438 12.707031 L 11.662109,2.4587734 C 11.378087,1.983119 11.167281,1.4724453 10.613281,1.4724453 Z"
         style="opacity:1;vector-effect:none;fill:#31363b;fill-opacity:1;stroke-linecap:round;stroke-linejoin:round" />
      <path
         style="vector-effect:none;fill:#4d4d4d;stroke-width:2.32727265;stroke-linecap:round;stroke-linejoin:round"
         d="m 6.4003906,16.333984 v 2.328125 16.746094 16.300781 c 0,1.289309 1.0368628,2.328125 2.3261719,2.328125 H 55.273438 c 1.289309,0 2.326171,-1.038816 2.326171,-2.328125 V 18.662109 c 0,-1.289309 -1.036862,-2.328125 -2.326171,-2.328125 H 13.591797 8.7265625 Z m 18.4687504,6.150391 c 0.579325,0.02051 1.116991,0.330074 1.441406,0.826172 0.379644,0.581119 0.403109,1.322223 0.05664,1.902344 l 2.865234,4.373047 h 5.871094 l 2.865234,-4.373047 c -0.346469,-0.580121 -0.324961,-1.321225 0.05469,-1.902344 0.542689,-0.827779 1.632106,-1.07485 2.433593,-0.550781 0.801262,0.524619 1.010196,1.620488 0.46875,2.449218 -0.381157,0.581543 -1.053325,0.899076 -1.724609,0.8125 l -2.333984,3.564454 h 6.074218 c 0.777916,0 1.404297,0.628333 1.404297,1.40625 v 14.429687 c 0,0.777915 -0.626381,1.404297 -1.404297,1.404297 H 21.390625 c -0.777915,0 -1.402344,-0.626382 -1.402344,-1.404297 V 30.992188 c 0,-0.777917 0.624429,-1.406251 1.402344,-1.40625 h 6.076172 l -2.335938,-3.564454 c -0.670601,0.08571 -1.34186,-0.231711 -1.722656,-0.8125 -0.541818,-0.828179 -0.333709,-1.923902 0.466797,-2.449218 0.292245,-0.191878 0.640963,-0.287537 0.994141,-0.275391 z m -1.574219,9.529297 c -0.431956,0 -0.78125,0.349294 -0.78125,0.78125 v 11.033203 c 0,0.431956 0.349294,0.779297 0.78125,0.779297 h 17.583984 c 0.431956,0 0.779297,-0.347341 0.779297,-0.779297 V 32.794922 c 0,-0.431956 -0.347341,-0.78125 -0.779297,-0.78125 z"
         transform="matrix(0.42968751,0,0,0.42968751,-2.750084,-2.8086446)"
         id="rect4311"
         inkscape:connector-curvature="0"
         inkscape:label="#folder" />
    </g>
    <rect
       sodipodi:insensitive="true"
       style="fill:none;fill-opacity:0.74651441;stroke-width:10.14750004;stroke-opacity:0.3596773"
       id="rect4266"
       width="27.5"
       height="27.5"
       x="-2.1972659"
       y="-3.3774209"
       inkscape:label="#boundary" />
  </g>
</svg>
