<?xml version="1.0" encoding="UTF-8" standalone="no"?>
<!-- Created with Inkscape (http://www.inkscape.org/) -->

<svg
   xmlns:dc="http://purl.org/dc/elements/1.1/"
   xmlns:cc="http://creativecommons.org/ns#"
   xmlns:rdf="http://www.w3.org/1999/02/22-rdf-syntax-ns#"
   xmlns:svg="http://www.w3.org/2000/svg"
   xmlns="http://www.w3.org/2000/svg"
   xmlns:sodipodi="http://sodipodi.sourceforge.net/DTD/sodipodi-0.dtd"
   xmlns:inkscape="http://www.inkscape.org/namespaces/inkscape"
   width="64"
   height="64"
   viewBox="0 0 64 64"
   version="1.1"
   id="svg8"
   inkscape:version="0.92+devel 15716 custom"
   sodipodi:docname="folder-git.svg">
  <defs
     id="ol-defs">
    <style
       id="current-color-scheme">      .ColorScheme-Text {
        color:#d0d0d0;
        stop-color:#d0d0d0;
      }
      .ColorScheme-Background {
        color:#212121;
        stop-color:#212121;
      }
      .ColorScheme-Highlight {
        color:#0039a9;
        stop-color:#0039a9;
      }
      .ColorScheme-ViewText {
        color:#d0d0d0;
        stop-color:#d0d0d0;
      }
      .ColorScheme-ViewBackground {
        color:#19191b;
        stop-color:#19191b;
      }
      .ColorScheme-ViewHover {
        color:#005cc7;
        stop-color:#005cc7;
      }
      .ColorScheme-ViewFocus{
        color:#002466;
        stop-color:#002466;
      }
      .ColorScheme-ButtonText {
        color:#d0d0d0;
        stop-color:#d0d0d0;
      }
      .ColorScheme-ButtonBackground {
        color:#232323;
        stop-color:#232323;                             
      }                                                 
      .ColorScheme-ButtonHover {                        
        color:#005cc7;                                  
        stop-color:#005cc7;                             
      }                                                 
      .ColorScheme-ButtonFocus{                         
        color:#0039a9;                                  
        stop-color:#0039a9;                             
      }</style>
    <style
       type="text/css"
       id="current-color-scheme-1">      .ColorScheme-Text {
        color:#d0d0d0;
        stop-color:#d0d0d0;
      }
      .ColorScheme-Background {
        color:#212121;
        stop-color:#212121;
      }
      .ColorScheme-Highlight {
        color:#0039a9;
        stop-color:#0039a9;
      }
      .ColorScheme-ViewText {
        color:#d0d0d0;
        stop-color:#d0d0d0;
      }
      .ColorScheme-ViewBackground {
        color:#19191b;
        stop-color:#19191b;
      }
      .ColorScheme-ViewHover {
        color:#005cc7;
        stop-color:#005cc7;
      }
      .ColorScheme-ViewFocus{
        color:#002466;
        stop-color:#002466;
      }
      .ColorScheme-ButtonText {
        color:#d0d0d0;                                                             
        stop-color:#d0d0d0;                                                        
      }                                                                            
      .ColorScheme-ButtonBackground {                                              
        color:#232323;                                                             
        stop-color:#232323;                                                        
      }                                                                            
      .ColorScheme-ButtonHover {                                                   
        color:#005cc7;                                                             
        stop-color:#005cc7;                                                        
      }                                                                            
      .ColorScheme-ButtonFocus{                                                    
        color:#0039a9;                                                             
        stop-color:#0039a9;                                                        
      } </style>
  </defs>
  <sodipodi:namedview
     id="base"
     pagecolor="#002266"
     bordercolor="#ffffff"
     borderopacity="0.46666667"
     inkscape:pageopacity="0"
     inkscape:pageshadow="2"
     inkscape:zoom="9.0929513"
     inkscape:cx="46.936243"
     inkscape:cy="31.404774"
     inkscape:document-units="px"
     inkscape:current-layer="svg8"
     inkscape:document-rotation="0"
     showgrid="false"
     inkscape:showpageshadow="false"
     borderlayer="true"
     units="px"
     fit-margin-top="0"
     fit-margin-left="0"
     fit-margin-right="0"
     fit-margin-bottom="0"
     inkscape:window-width="1920"
     inkscape:window-height="1051"
     inkscape:window-x="0"
     inkscape:window-y="0"
     inkscape:window-maximized="1"
     inkscape:snap-page="true" />
  <metadata
     id="metadata5">
    <rdf:RDF>
      <cc:Work
         rdf:about="">
        <dc:format>image/svg+xml</dc:format>
        <dc:type
           rdf:resource="http://purl.org/dc/dcmitype/StillImage" />
        <dc:title></dc:title>
      </cc:Work>
    </rdf:RDF>
  </metadata>
  <g
     id="g4360"
     inkscape:label="#folder-git"
     transform="scale(2)">
    <rect
       inkscape:label="#boundary"
       y="0"
       x="0"
       height="32"
       width="32"
       id="rect4264"
       style="fill:none;fill-opacity:0.74651441;stroke-width:23.61599922;stroke-opacity:0.3596773" />
    <g
       transform="matrix(1.0909091,0,0,1.0909091,4.0009528,4.0643161)"
       id="g4331"
       inkscape:label="#1">
      <path
         inkscape:label="#2"
         inkscape:connector-curvature="0"
         id="rect4313"
         d="m 1,1.4724453 c -0.554,0 -1,0.446 -1,1 V 4.2107265 H 1 3.0898438 12.707031 L 11.662109,2.4587734 C 11.378087,1.983119 11.167281,1.4724453 10.613281,1.4724453 Z"
         style="opacity:1;vector-effect:none;fill:#31363b;fill-opacity:1;stroke-linecap:round;stroke-linejoin:round" />
      <path
         inkscape:label="#1"
         inkscape:connector-curvature="0"
         id="rect4311"
         transform="translate(-4.7704046,-4.3637963)"
         d="M 4.7695312,8.5742188 V 23.773438 c 0,0.553999 0.446,0.999999 1,1 H 25.769531 c 0.554,0 1,-0.446 1,-1 V 9.5742188 c 0,-0.5540001 -0.446,-1 -1,-1 z M 15.685547,10.578125 c 0.208166,-10e-6 0.414735,0.0788 0.574219,0.238281 l 5.185546,5.185547 c 0.318965,0.318966 0.318997,0.833347 0,1.152344 l -5.183593,5.185547 c -0.318997,0.318997 -0.833378,0.318965 -1.152344,0 L 9.9238281,17.154297 c -0.3189658,-0.318966 -0.318997,-0.833347 0,-1.152344 l 3.6640629,-3.664062 1.509765,1.511718 a 0.86378581,0.86386905 45 0 0 0.205078,0.896485 0.86378581,0.86386905 45 0 0 0.189454,0.142578 v 3.378906 a 0.86378581,0.86386905 45 0 0 -0.189454,0.142578 0.86378581,0.86386905 45 0 0 0,1.222656 0.86378581,0.86386905 45 0 0 1.220704,0 0.86378581,0.86386905 45 0 0 0,-1.222656 0.86378581,0.86386905 45 0 0 -0.283204,-0.1875 l 0.002,-3.230468 1.298828,1.300781 a 0.86378581,0.86386905 45 0 0 0.205078,0.896484 0.86378581,0.86386905 45 0 0 1.220703,0 0.86378581,0.86386905 45 0 0 0,-1.222656 0.86378581,0.86386905 45 0 0 -0.894531,-0.203125 l -1.34375,-1.34375 a 0.86378581,0.86386905 45 0 0 -0.203125,-0.896484 0.86378581,0.86386905 45 0 0 -0.896485,-0.203126 l -1.511718,-1.511718 0.992187,-0.992188 c 0.159498,-0.159498 0.368005,-0.238271 0.576172,-0.238281 z"
         style="vector-effect:none;fill:#4d4d4d;stroke-linecap:round;stroke-linejoin:round" />
    </g>
  </g>
</svg>
