<?xml version="1.0" encoding="UTF-8" standalone="no"?>
<!-- Created with Inkscape (http://www.inkscape.org/) -->

<svg
   xmlns:dc="http://purl.org/dc/elements/1.1/"
   xmlns:cc="http://creativecommons.org/ns#"
   xmlns:rdf="http://www.w3.org/1999/02/22-rdf-syntax-ns#"
   xmlns:svg="http://www.w3.org/2000/svg"
   xmlns="http://www.w3.org/2000/svg"
   xmlns:sodipodi="http://sodipodi.sourceforge.net/DTD/sodipodi-0.dtd"
   xmlns:inkscape="http://www.inkscape.org/namespaces/inkscape"
   width="16"
   height="16"
   viewBox="0 0 16 16"
   version="1.1"
   id="svg8"
   inkscape:version="0.92+devel (c0065a33f9, 2017-07-22, custom)"
   sodipodi:docname="vcs-update-required.svg">
  <defs
     id="ol-defs">
    <style
       id="current-color-scheme">      .ColorScheme-Text {
        color:#d0d0d0;
        stop-color:#d0d0d0;
      }
      .ColorScheme-Background {
        color:#212121;
        stop-color:#212121;
      }
      .ColorScheme-Highlight {
        color:#0039a9;
        stop-color:#0039a9;
      }
      .ColorScheme-ViewText {
        color:#d0d0d0;
        stop-color:#d0d0d0;
      }
      .ColorScheme-ViewBackground {
        color:#19191b;
        stop-color:#19191b;
      }
      .ColorScheme-ViewHover {
        color:#005cc7;
        stop-color:#005cc7;
      }
      .ColorScheme-ViewFocus{
        color:#002466;
        stop-color:#002466;
      }
      .ColorScheme-ButtonText {
        color:#d0d0d0;
        stop-color:#d0d0d0;
      }
      .ColorScheme-ButtonBackground {
        color:#232323;
        stop-color:#232323;                             
      }                                                 
      .ColorScheme-ButtonHover {                        
        color:#005cc7;                                  
        stop-color:#005cc7;                             
      }                                                 
      .ColorScheme-ButtonFocus{                         
        color:#0039a9;                                  
        stop-color:#0039a9;                             
      }</style>
    <style
       id="current-color-scheme-7">      .ColorScheme-Text {
        color:#d0d0d0;
        stop-color:#d0d0d0;
      }
      .ColorScheme-Background {
        color:#212121;
        stop-color:#212121;
      }
      .ColorScheme-Highlight {
        color:#0039a9;
        stop-color:#0039a9;
      }
      .ColorScheme-ViewText {
        color:#d0d0d0;
        stop-color:#d0d0d0;
      }
      .ColorScheme-ViewBackground {
        color:#19191b;
        stop-color:#19191b;
      }
      .ColorScheme-ViewHover {
        color:#005cc7;
        stop-color:#005cc7;
      }
      .ColorScheme-ViewFocus{
        color:#002466;
        stop-color:#002466;
      }
      .ColorScheme-ButtonText {
        color:#d0d0d0;
        stop-color:#d0d0d0;
      }
      .ColorScheme-ButtonBackground {
        color:#232323;
        stop-color:#232323;                             
      }                                                 
      .ColorScheme-ButtonHover {                        
        color:#005cc7;                                  
        stop-color:#005cc7;                             
      }                                                 
      .ColorScheme-ButtonFocus{                         
        color:#0039a9;                                  
        stop-color:#0039a9;                             
      }</style>
  </defs>
  <sodipodi:namedview
     id="base"
     pagecolor="#002266"
     bordercolor="#ffffff"
     borderopacity="0.46666667"
     inkscape:pageopacity="0"
     inkscape:pageshadow="2"
     inkscape:zoom="27.375"
     inkscape:cx="8"
     inkscape:cy="8"
     inkscape:document-units="px"
     inkscape:current-layer="g820"
     inkscape:document-rotation="0"
     showgrid="false"
     inkscape:showpageshadow="false"
     borderlayer="true"
     units="px"
     fit-margin-top="0"
     fit-margin-left="0"
     fit-margin-right="0"
     fit-margin-bottom="0"
     inkscape:window-width="1920"
     inkscape:window-height="1051"
     inkscape:window-x="0"
     inkscape:window-y="0"
     inkscape:window-maximized="1"
     inkscape:snap-page="true"
     inkscape:snap-grids="false"
     inkscape:snap-to-guides="false" />
  <metadata
     id="metadata5">
    <rdf:RDF>
      <cc:Work
         rdf:about="">
        <dc:format>image/svg+xml</dc:format>
        <dc:type
           rdf:resource="http://purl.org/dc/dcmitype/StillImage" />
        <dc:title></dc:title>
      </cc:Work>
    </rdf:RDF>
  </metadata>
  <g
     id="g820"
     inkscape:label="#vcs-update-required"
     transform="scale(2)">
    <rect
       inkscape:label="#boundary"
       y="0"
       x="0"
       height="8"
       width="8"
       id="rect816"
       style="fill:none" />
    <path
       style="vector-effect:none;fill:#ffb900;stroke-width:1.72208464;stroke-linecap:round;stroke-linejoin:round"
       d="M 8,4 C 5.790861,4 4,5.790861 4,8 c 0,2.209139 1.790861,4 4,4 2.209139,0 4,-1.790861 4,-4 C 12,5.790861 10.209139,4 8,4 Z m 0.203125,1.0566406 a 0.14996712,0.14996712 0 0 1 0.015625,0 0.14996712,0.14996712 0 0 1 0.1523438,0.1484375 v 0.3945313 c 0.7351832,0.089115 1.3958921,0.5174221 1.7714842,1.1679687 0.423691,0.7338546 0.423691,1.6391925 0,2.3730469 L 9.4882812,8.7636719 c 0.2894016,-0.5012584 0.2894016,-1.1178821 0,-1.6191407 C 9.2473351,6.7272003 8.835738,6.4464773 8.3710938,6.3632812 V 6.7324219 A 0.14996712,0.14996712 0 0 1 8.1484375,6.8613281 L 6.8261719,6.0996094 a 0.14996712,0.14996712 0 0 1 0,-0.2597656 L 8.1484375,5.0761719 A 0.14996712,0.14996712 0 0 1 8.203125,5.0566406 Z M 5.8574219,6.859375 6.5117188,7.2363281 c -0.2894016,0.5012584 -0.2894016,1.1178823 0,1.6191407 0.2409463,0.4173309 0.6525439,0.6980541 1.1171874,0.78125 V 9.2675781 A 0.14996712,0.14996712 0 0 1 7.8515625,9.1386719 l 1.3222656,0.7617187 a 0.14996712,0.14996712 0 0 1 0,0.2597654 L 7.8515625,10.923828 A 0.14996712,0.14996712 0 0 1 7.78125,10.943359 0.14996712,0.14996712 0 0 1 7.6289062,10.794922 V 10.400391 C 6.8937236,10.311275 6.2330151,9.8829687 5.8574219,9.2324219 c -0.423691,-0.7338542 -0.423691,-1.6391925 0,-2.3730469 z"
       transform="scale(0.5)"
       id="path4283"
       inkscape:connector-curvature="0"
       inkscape:label="#1" />
  </g>
</svg>
