<?xml version="1.0" encoding="UTF-8" standalone="no"?>
<!-- Created with Inkscape (http://www.inkscape.org/) -->

<svg xmlns:dc="http://purl.org/dc/elements/1.1/" xmlns:cc="http://creativecommons.org/ns#" xmlns:rdf="http://www.w3.org/1999/02/22-rdf-syntax-ns#" xmlns:svg="http://www.w3.org/2000/svg" xmlns="http://www.w3.org/2000/svg" xmlns:sodipodi="http://sodipodi.sourceforge.net/DTD/sodipodi-0.dtd" xmlns:inkscape="http://www.inkscape.org/namespaces/inkscape" width="24.000002" height="24" viewBox="0 0 24.000002 24" version="1.1" id="main" inkscape:version="0.92+devel (f318dbfe43, 2017-10-09, custom)" sodipodi:docname="artikulate-word.svg">
  <sodipodi:namedview id="base" pagecolor="#002466" bordercolor="#ffffff" borderopacity="0.30" inkscape:pageopacity="1" inkscape:pageshadow="2" inkscape:zoom="13.140625" inkscape:document-units="px" inkscape:current-layer="main" inkscape:document-rotation="0" showgrid="false" inkscape:showpageshadow="false" borderlayer="true" inkscape:window-width="1920" inkscape:window-height="1027" inkscape:window-x="0" inkscape:window-y="24" inkscape:window-maximized="1" units="px" inkscape:cx="6.7489002" inkscape:cy="8.0269056" />
  <metadata id="metadata5">
    <rdf:RDF>
      <cc:Work rdf:about="">
        <dc:format>image/svg+xml</dc:format>
        <dc:type rdf:resource="http://purl.org/dc/dcmitype/StillImage" />
        <dc:title></dc:title>
      </cc:Work>
    </rdf:RDF>
  </metadata>
  <defs id="ol-defs" />
  <g id="g831" inkscape:label="#artikulate-word" style="stroke:none;stroke-width:0.66666669" transform="scale(1.5)">
    <path style="fill:none;stroke:none;stroke-width:0.66666669" d="M -5.5000004e-8,-4.9999999e-8 H 16.000001 V 16 H -5.5000004e-8 Z" id="boundary" inkscape:label="#boundary" inkscape:connector-curvature="0" />
    <path inkscape:connector-curvature="0" id="rect812" d="M 3.1992188,2 C 2.5344187,2 2,2.5344187 2,3.1992188 V 12.800781 C 2,13.465581 2.5344187,14 3.1992188,14 H 12.800781 C 13.465581,14 14,13.465581 14,12.800781 V 3.1992188 C 14,2.5344188 13.465581,2 12.800781,2 Z m 1.9746093,2.4804688 c 0.3030304,0.8434344 0.5008878,2.1392438 0.5917969,3.8867187 0.030303,0.6616161 0.055968,1.0782828 0.076172,1.25 L 8.9550781,4.4804688 H 9.234375 L 9.7578125,10.162109 C 10.6366,9.1318061 11.338029,8.1657592 11.863281,7.2617188 12.171362,6.7314156 12.326172,6.3467487 12.326172,6.109375 12.326172,5.9982645 12.300507,5.9003125 12.25,5.8144531 12.2298,5.7689991 12.149228,5.7030466 12.007812,5.6171875 11.871448,5.5262791 11.774305,5.4346598 11.71875,5.34375 11.6632,5.24779 11.63672,5.147076 11.63672,5.0410156 c 0,-0.1565656 0.05767,-0.2865174 0.173828,-0.3925781 0.116162,-0.1111105 0.265447,-0.1679688 0.447265,-0.1679687 0.207071,0 0.382024,0.079762 0.523438,0.2363281 C 12.927714,4.868312 13,5.0725024 13,5.3300781 13,5.5927044 12.962477,5.8371803 12.886719,6.0644531 12.735203,6.4987966 12.439394,7.0592249 12,7.7460938 11.464647,8.569326 10.912504,9.3339446 10.341797,10.041016 9.7761405,10.743035 9.3539497,11.236703 9.0761719,11.519531 h -0.28125 L 8.3027344,6.2773438 5.1738281,11.519531 H 4.8417969 C 4.806443,9.3629657 4.6974428,7.6595842 4.515625,6.4121094 4.4398671,5.8919073 4.3134862,5.5522412 4.1367188,5.390625 4.0104564,5.2744631 3.8181229,5.2167969 3.5605469,5.2167969 3.4140821,5.2167969 3.2272727,5.2314161 3,5.2617188 V 4.9882812 Z" style="opacity:0.6;fill:#d0d0d0;stroke:none;stroke-width:1;stroke-linecap:round" />
  </g>
</svg>
