<?xml version="1.0" encoding="UTF-8" standalone="no"?>
<!-- Created with Inkscape (http://www.inkscape.org/) -->

<svg
   xmlns:dc="http://purl.org/dc/elements/1.1/"
   xmlns:cc="http://creativecommons.org/ns#"
   xmlns:rdf="http://www.w3.org/1999/02/22-rdf-syntax-ns#"
   xmlns:svg="http://www.w3.org/2000/svg"
   xmlns="http://www.w3.org/2000/svg"
   xmlns:sodipodi="http://sodipodi.sourceforge.net/DTD/sodipodi-0.dtd"
   xmlns:inkscape="http://www.inkscape.org/namespaces/inkscape"
   width="24.000002"
   height="24"
   viewBox="0 0 24.000002 24"
   version="1.1"
   id="main"
   inkscape:version="0.92+devel (327bdefa15, 2017-09-17, custom)"
   sodipodi:docname="contrast.svg">
  <defs
     id="ol-defs" />
  <sodipodi:namedview
     id="base"
     pagecolor="#002466"
     bordercolor="#ffffff"
     borderopacity="0.30"
     inkscape:pageopacity="1"
     inkscape:pageshadow="2"
     inkscape:zoom="13.140625"
     inkscape:document-units="px"
     inkscape:current-layer="main"
     inkscape:document-rotation="0"
     showgrid="false"
     inkscape:showpageshadow="false"
     borderlayer="true"
     inkscape:window-width="1920"
     inkscape:window-height="1017"
     inkscape:window-x="0"
     inkscape:window-y="34"
     inkscape:window-maximized="1"
     units="px"
     inkscape:cx="6.4045386"
     inkscape:cy="8.0269056" />
  <metadata
     id="metadata5">
    <rdf:RDF>
      <cc:Work
         rdf:about="">
        <dc:format>image/svg+xml</dc:format>
        <dc:type
           rdf:resource="http://purl.org/dc/dcmitype/StillImage" />
        <dc:title></dc:title>
      </cc:Work>
    </rdf:RDF>
  </metadata>
  <g
     id="g839"
     inkscape:label="#contrast"
     transform="scale(1.0909091)"
     style="stroke-width:0.91666669;stroke:none">
    <path
       style="fill:none;stroke:none;stroke-width:0.91666669"
       d="M 0,0 H 22.000001 V 22 H 0 Z"
       id="boundary"
       inkscape:label="#boundary"
       inkscape:connector-curvature="0" />
    <path
       style="opacity:0.6;fill:#d0d0d0;stroke-width:1.6500001;stroke-dasharray:3.29999986, 1.64999992999999989;stroke-dashoffset:7.37999964;stroke:none"
       d="M 4.5623863,6.1270186 5.6840403,7.248674 A 6.5145967,6.5145967 0 0 0 4.5555889,10.103793 H 3.0011354 v 2.003116 h 1.5861762 a 6.5145967,6.5145967 0 0 0 1.216825,2.812066 l -1.0989941,1.098995 1.418496,1.418495 1.1216541,-1.121655 a 6.5145967,6.5145967 0 0 0 2.8505874,1.128453 v 1.554454 l 2.009913,0.0023 v -1.586175 a 6.5145967,6.5145967 0 0 0 2.814332,-1.219094 l 1.098995,1.098996 1.418496,-1.418496 -1.121654,-1.121654 a 6.5145967,6.5145967 0 0 0 1.128451,-2.850624 h 1.554454 l -0.0023,-2.0053811 H 17.414955 A 6.5145967,6.5145967 0 0 0 16.191334,7.0787256 L 17.290326,5.9797316 15.874098,4.563501 14.752444,5.6851564 A 6.5145967,6.5145967 0 0 0 11.901856,4.5567036 l -0.0023,-1.5567202 -2.0053815,0.00227 V 4.588425 A 6.5145967,6.5145967 0 0 0 7.0821429,5.8052513 L 5.9831476,4.7062573 Z m 3.065855,8.2458574 3.3717597,-3.37176 3.37176,-3.37176 a 4.7699203,4.7699203 0 0 1 1.234953,4.606714 4.7699203,4.7699203 0 0 1 -3.371761,3.371759 4.7699203,4.7699203 0 0 1 -4.6067117,-1.234953 z"
       id="circle813"
       inkscape:connector-curvature="0"
       inkscape:label="#" />
  </g>
</svg>
