<?xml version="1.0" encoding="UTF-8" standalone="no"?>
<!-- Created with Inkscape (http://www.inkscape.org/) -->

<svg
   xmlns:dc="http://purl.org/dc/elements/1.1/"
   xmlns:cc="http://creativecommons.org/ns#"
   xmlns:rdf="http://www.w3.org/1999/02/22-rdf-syntax-ns#"
   xmlns:svg="http://www.w3.org/2000/svg"
   xmlns="http://www.w3.org/2000/svg"
   xmlns:sodipodi="http://sodipodi.sourceforge.net/DTD/sodipodi-0.dtd"
   xmlns:inkscape="http://www.inkscape.org/namespaces/inkscape"
   width="24"
   height="24"
   viewBox="0 0 6.3499997 6.3499997"
   version="1.1"
   id="svg8"
   inkscape:version="0.92+devel (262af300f2, 2017-08-19, custom)"
   sodipodi:docname="draw-geometry-show-measuring-info.svg">
  <defs
     id="defs2">
    <style
       id="current-color-scheme">      .ColorScheme-Text {
        color:#d0d0d0;
        stop-color:#d0d0d0;
      }
      .ColorScheme-Background {
        color:#212121;
        stop-color:#212121;
      }
      .ColorScheme-Highlight {
        color:#0039a9;
        stop-color:#0039a9;
      }
      .ColorScheme-ViewText {
        color:#d0d0d0;
        stop-color:#d0d0d0;
      }
      .ColorScheme-ViewBackground {
        color:#19191b;
        stop-color:#19191b;
      }
      .ColorScheme-ViewHover {
        color:#005cc7;
        stop-color:#005cc7;
      }
      .ColorScheme-ViewFocus{
        color:#002466;
        stop-color:#002466;
      }
      .ColorScheme-ButtonText {
        color:#d0d0d0;
        stop-color:#d0d0d0;
      }
      .ColorScheme-ButtonBackground {
        color:#232323;
        stop-color:#232323;                             
      }                                                 
      .ColorScheme-ButtonHover {                        
        color:#005cc7;                                  
        stop-color:#005cc7;                             
      }                                                 
      .ColorScheme-ButtonFocus{                         
        color:#0039a9;                                  
        stop-color:#0039a9;                             
      }</style>
  </defs>
  <sodipodi:namedview
     id="base"
     pagecolor="#002466"
     bordercolor="#ffffff"
     borderopacity="0.38039216"
     inkscape:pageopacity="1"
     inkscape:pageshadow="2"
     inkscape:zoom="25.25"
     inkscape:cx="7.5841587"
     inkscape:cy="8.0000006"
     inkscape:document-units="px"
     inkscape:current-layer="svg8"
     inkscape:document-rotation="0"
     showgrid="false"
     inkscape:showpageshadow="false"
     borderlayer="true"
     inkscape:window-width="1920"
     inkscape:window-height="1023"
     inkscape:window-x="0"
     inkscape:window-y="28"
     inkscape:window-maximized="1"
     units="px"
     inkscape:snap-page="true" />
  <metadata
     id="metadata5">
    <rdf:RDF>
      <cc:Work
         rdf:about="">
        <dc:format>image/svg+xml</dc:format>
        <dc:type
           rdf:resource="http://purl.org/dc/dcmitype/StillImage" />
        <dc:title></dc:title>
      </cc:Work>
    </rdf:RDF>
  </metadata>
  <g
     id="g868"
     inkscape:label="#draw-geometry-show-measuring-info"
     transform="scale(1.5)">
    <path
       inkscape:label="#boundary"
       inkscape:connector-curvature="0"
       id="rect811"
       d="M 0,0 H 4.2333332 V 4.2333332 H 0 Z"
       style="fill:none;stroke-width:0.25454992;stroke-linecap:round" />
    <path
       inkscape:connector-curvature="0"
       style="opacity:0.6;fill:#d0d0d0;stroke-width:0.05772727;stroke-linecap:round"
       d="m 2.1166665,0.52916665 a 1.5874999,1.5874999 0 0 0 -1.58749985,1.58749995 1.5874999,1.5874999 0 0 0 1.58749985,1.5875 1.5874999,1.5874999 0 0 0 1.5875,-1.5875 1.5874999,1.5874999 0 0 0 -1.5875,-1.58749995 z m 0.2012562,0.3630504 c 0.072275,0 0.1328467,0.024851 0.1818072,0.074978 0.050126,0.0501261 0.07526,0.11097985 0.07526,0.18208905 0,0.071109 -0.025133,0.1316808 -0.07526,0.181807 -0.050126,0.050126 -0.1106978,0.074978 -0.1818072,0.074978 -0.069943,0 -0.1299897,-0.024851 -0.1801158,-0.074978 -0.050126,-0.050126 -0.07526,-0.1106978 -0.07526,-0.181807 0,-0.071109 0.024326,-0.1319628 0.073287,-0.18208905 0.050126,-0.050126 0.1109798,-0.074978 0.1820888,-0.074978 z m 0.00338,0.80417925 H 2.4261616 L 2.0679027,2.9397312 c -0.019817,0.071109 -0.029878,0.1176594 -0.029878,0.1398083 0,0.012823 0.00529,0.024986 0.015785,0.036643 0.010492,0.010492 0.021604,0.015785 0.033261,0.015785 0.019818,0 0.039658,-0.00873 0.059475,-0.026214 0.052457,-0.043132 0.1154123,-0.1211599 0.1888529,-0.2342352 l 0.059475,0.034952 C 2.218849,3.2130556 2.031559,3.3664845 1.8333856,3.3664845 c -0.075772,0 -0.1363438,-0.021173 -0.181807,-0.063139 -0.044298,-0.043132 -0.066522,-0.097359 -0.066522,-0.1626398 0,-0.043132 0.010061,-0.097885 0.029878,-0.1643311 L 1.8579078,2.1406259 C 1.8812222,2.0601909 1.89286,1.999619 1.89286,1.9588187 c 0,-0.025646 -0.011112,-0.048395 -0.033261,-0.068213 -0.022149,-0.019817 -0.052294,-0.029878 -0.090762,-0.029878 -0.017486,0 -0.038659,8.073e-4 -0.063139,0.00197 L 1.72853,1.7925117 Z"
       id="path811"
       inkscape:label="#" />
  </g>
</svg>
