<?xml version="1.0" encoding="UTF-8" standalone="no"?>
<svg
   xmlns:dc="http://purl.org/dc/elements/1.1/"
   xmlns:cc="http://creativecommons.org/ns#"
   xmlns:rdf="http://www.w3.org/1999/02/22-rdf-syntax-ns#"
   xmlns:svg="http://www.w3.org/2000/svg"
   xmlns="http://www.w3.org/2000/svg"
   xmlns:sodipodi="http://sodipodi.sourceforge.net/DTD/sodipodi-0.dtd"
   xmlns:inkscape="http://www.inkscape.org/namespaces/inkscape"
   height="24"
   viewBox="0 0 24 24"
   width="24"
   version="1.1"
   id="svg14"
   sodipodi:docname="draw-ellipse-whole.svg"
   inkscape:version="0.92+devel (262af300f2, 2017-08-19, custom)">
  <defs
     id="defs16" />
  <sodipodi:namedview
     id="namedview2"
     inkscape:document-rotation="0"
     showgrid="false"
     pagecolor="#002466"
     inkscape:pageopacity="0"
     borderlayer="true"
     inkscape:showpageshadow="false"
     bordercolor="#ffffff"
     borderopacity="0.33333333"
     inkscape:zoom="22.96875"
     inkscape:cx="7.9673469"
     inkscape:cy="8"
     inkscape:window-width="1920"
     inkscape:window-height="1023"
     inkscape:window-x="0"
     inkscape:window-y="28"
     inkscape:window-maximized="1"
     inkscape:current-layer="svg14" />
  <metadata
     id="metadata4">
    <rdf:RDF>
      <cc:Work>
        <dc:format>image/svg+xml			</dc:format>
        <dc:type
           rdf:resource="http://purl.org/dc/dcmitype/StillImage" />
        <dc:title></dc:title>
      </cc:Work>
    </rdf:RDF>
  </metadata>
  <g
     fill="none"
     transform="matrix(1.5,0,0,1.5,-750,-225)"
     id="g12"
     inkscape:label="#draw-ellipse-whole">
    <rect
       height="16"
       width="16"
       x="500"
       y="150"
       id="rect6"
       inkscape:label="#boundary" />
    <path
       d="m 508,153.17357 c -2.6727,0 -4.82643,2.15373 -4.82643,4.82643 0,2.6727 2.15373,4.82643 4.82643,4.82643 2.6727,0 4.82643,-2.15373 4.82643,-4.82643 0,-2.6727 -2.15373,-4.82643 -4.82643,-4.82643 z"
       fill="#d0d0d0"
       opacity=".3"
       stroke-width=".902203"
       id="path8"
       inkscape:connector-curvature="0"
       inkscape:label="#" />
    <path
       d="m 508,152 c -3.30656,0 -6,2.69344 -6,6 0,3.30656 2.69344,6 6,6 3.30656,0 6,-2.69344 6,-6 0,-3.30656 -2.69344,-6 -6,-6 z m 0,1.17357 c 2.6727,0 4.82643,2.15373 4.82643,4.82643 0,2.6727 -2.15373,4.82643 -4.82643,4.82643 -2.6727,0 -4.82643,-2.15373 -4.82643,-4.82643 0,-2.6727 2.15373,-4.82643 4.82643,-4.82643 z"
       fill="#d0d0d0"
       opacity=".6"
       id="path10"
       inkscape:connector-curvature="0"
       inkscape:label="#" />
  </g>
</svg>
