<?xml version="1.0" encoding="UTF-8" standalone="no"?>
<!-- Created with Inkscape (http://www.inkscape.org/) -->

<svg
   xmlns:dc="http://purl.org/dc/elements/1.1/"
   xmlns:cc="http://creativecommons.org/ns#"
   xmlns:rdf="http://www.w3.org/1999/02/22-rdf-syntax-ns#"
   xmlns:svg="http://www.w3.org/2000/svg"
   xmlns="http://www.w3.org/2000/svg"
   xmlns:sodipodi="http://sodipodi.sourceforge.net/DTD/sodipodi-0.dtd"
   xmlns:inkscape="http://www.inkscape.org/namespaces/inkscape"
   width="24"
   height="24"
   viewBox="0 0 6.3499998 6.3500002"
   version="1.1"
   id="svg8"
   inkscape:version="0.92+devel 15724 custom"
   sodipodi:docname="draw-text.svg">
  <defs
     id="defs2" />
  <sodipodi:namedview
     id="base"
     pagecolor="#002466"
     bordercolor="#ffffff"
     borderopacity="0.37647059"
     inkscape:pageopacity="1"
     inkscape:pageshadow="2"
     inkscape:zoom="37.227273"
     inkscape:cx="11.377444"
     inkscape:cy="10.327815"
     inkscape:document-units="px"
     inkscape:current-layer="g4305"
     inkscape:document-rotation="0"
     showgrid="false"
     inkscape:showpageshadow="false"
     borderlayer="true"
     units="px"
     inkscape:window-width="1920"
     inkscape:window-height="1051"
     inkscape:window-x="0"
     inkscape:window-y="0"
     inkscape:window-maximized="1"
     inkscape:snap-bbox="true"
     inkscape:bbox-paths="false"
     inkscape:bbox-nodes="true"
     inkscape:snap-page="true" />
  <metadata
     id="metadata5">
    <rdf:RDF>
      <cc:Work
         rdf:about="">
        <dc:format>image/svg+xml</dc:format>
        <dc:type
           rdf:resource="http://purl.org/dc/dcmitype/StillImage" />
        <dc:title />
      </cc:Work>
    </rdf:RDF>
  </metadata>
  <g
     id="g4314"
     inkscape:label="#draw-text"
     transform="scale(1.0909091)">
    <rect
       inkscape:label="#boundary"
       y="9.4595343e-08"
       x="-2.220446e-16"
       height="5.8208332"
       width="5.8208332"
       id="rect4307"
       style="fill:none;stroke:none;stroke-width:0.31971428;stroke-linecap:round;stroke-linejoin:round" />
    <g
       inkscape:label="#1"
       id="g4305"
       transform="matrix(0.77811551,0,0,0.77974492,0.64577635,0.6366017)">
      <path
         inkscape:connector-curvature="0"
         style="fill:#00ff00;stroke:none;stroke-width:0.43760914;stroke-linecap:round;stroke-linejoin:round"
         d="M 0.71875,0.76171875 V 4.0449219 H 4 V 0.76171875 Z m 17.28125,0 V 4.0449219 h 3.28125 V 0.76171875 Z M 0.71875,18 v 3.28125 H 4 V 18 Z M 18,18 v 3.28125 h 3.28125 V 18 Z"
         transform="scale(0.26458333)"
         id="path4267"
         inkscape:label="#3" />
      <path
         style="opacity:0.22314052;fill:#d0d0d0;stroke:none;stroke-width:0.31891674;stroke-linecap:round;stroke-linejoin:round"
         d="m 4,1.3125 v 1.375 H 18 V 1.3125 Z M 1.3125,4 v 14 h 1.375 V 4 Z m 18,0 v 14 h 1.375 V 4 Z M 4,19.3125 v 1.375 h 14 v -1.375 z"
         transform="scale(0.26458333)"
         id="rect4273"
         inkscape:connector-curvature="0"
         inkscape:label="#2" />
      <path
         inkscape:connector-curvature="0"
         id="path4290"
         style="font-style:normal;font-variant:normal;font-weight:bold;font-stretch:normal;font-size:5.0535078px;font-family:C059;-inkscape-font-specification:'C059 Bold';opacity:1;fill:#d0d0d0;stroke-width:0.44477969"
         d="M 4.4807856,1.1977182 H 1.3400477 L 1.268883,2.4834281 H 1.5203318 C 1.5820079,2.1323487 1.6484283,1.9473203 1.7622919,1.7812692 1.91411,1.553542 2.0896498,1.4444227 2.3126327,1.4444227 c 0.1423295,0 0.1707954,0.033211 0.1707954,0.1897726 v 2.3057381 c 0,0.2941477 0,0.3083806 -0.033211,0.3558238 -0.042698,0.052188 -0.1375852,0.071165 -0.3937783,0.071165 H 1.9520646 v 0.256193 H 3.8687687 V 4.366922 h -0.104375 c -0.2561931,0 -0.3510794,-0.018977 -0.3937783,-0.071165 -0.03321,-0.042698 -0.03321,-0.06642 -0.03321,-0.3558234 V 1.6341953 c 0,-0.1565624 0.028466,-0.1897726 0.1707954,-0.1897726 0.2040056,0 0.3605681,0.085398 0.5123862,0.2799147 0.1328409,0.1707954 0.20875,0.3700567 0.2799148,0.7590907 h 0.2514488 z"
         inkscape:label="#1" />
    </g>
  </g>
</svg>
