<?xml version="1.0" encoding="UTF-8" standalone="no"?>
<!-- Created with Inkscape (http://www.inkscape.org/) -->

<svg
   xmlns:dc="http://purl.org/dc/elements/1.1/"
   xmlns:cc="http://creativecommons.org/ns#"
   xmlns:rdf="http://www.w3.org/1999/02/22-rdf-syntax-ns#"
   xmlns:svg="http://www.w3.org/2000/svg"
   xmlns="http://www.w3.org/2000/svg"
   xmlns:sodipodi="http://sodipodi.sourceforge.net/DTD/sodipodi-0.dtd"
   xmlns:inkscape="http://www.inkscape.org/namespaces/inkscape"
   width="24"
   height="24"
   viewBox="0 0 6.3499997 6.3499997"
   version="1.1"
   id="svg8"
   inkscape:version="0.92+devel (262af300f2, 2017-08-19, custom)"
   sodipodi:docname="edit-cut.svg">
  <defs
     id="defs2">
    <style
       id="current-color-scheme">      .ColorScheme-Text {
        color:#d0d0d0;
        stop-color:#d0d0d0;
      }
      .ColorScheme-Background {
        color:#212121;
        stop-color:#212121;
      }
      .ColorScheme-Highlight {
        color:#0039a9;
        stop-color:#0039a9;
      }
      .ColorScheme-ViewText {
        color:#d0d0d0;
        stop-color:#d0d0d0;
      }
      .ColorScheme-ViewBackground {
        color:#19191b;
        stop-color:#19191b;
      }
      .ColorScheme-ViewHover {
        color:#005cc7;
        stop-color:#005cc7;
      }
      .ColorScheme-ViewFocus{
        color:#002466;
        stop-color:#002466;
      }
      .ColorScheme-ButtonText {
        color:#d0d0d0;
        stop-color:#d0d0d0;
      }
      .ColorScheme-ButtonBackground {
        color:#232323;
        stop-color:#232323;                             
      }                                                 
      .ColorScheme-ButtonHover {                        
        color:#005cc7;                                  
        stop-color:#005cc7;                             
      }                                                 
      .ColorScheme-ButtonFocus{                         
        color:#0039a9;                                  
        stop-color:#0039a9;                             
      }</style>
  </defs>
  <sodipodi:namedview
     id="base"
     pagecolor="#002466"
     bordercolor="#ffffff"
     borderopacity="0.38039216"
     inkscape:pageopacity="1"
     inkscape:pageshadow="2"
     inkscape:zoom="25.25"
     inkscape:cx="7.5841587"
     inkscape:cy="8.0000006"
     inkscape:document-units="px"
     inkscape:current-layer="svg8"
     inkscape:document-rotation="0"
     showgrid="false"
     inkscape:showpageshadow="false"
     borderlayer="true"
     inkscape:window-width="1920"
     inkscape:window-height="1023"
     inkscape:window-x="0"
     inkscape:window-y="28"
     inkscape:window-maximized="1"
     units="px"
     inkscape:snap-page="true" />
  <metadata
     id="metadata5">
    <rdf:RDF>
      <cc:Work
         rdf:about="">
        <dc:format>image/svg+xml</dc:format>
        <dc:type
           rdf:resource="http://purl.org/dc/dcmitype/StillImage" />
        <dc:title></dc:title>
      </cc:Work>
    </rdf:RDF>
  </metadata>
  <g
     id="g843"
     inkscape:label="#edit-cut"
     transform="scale(1.5)">
    <path
       inkscape:label="#boundary"
       inkscape:connector-curvature="0"
       id="rect811"
       d="M 0,0 H 4.2333332 V 4.2333332 H 0 Z"
       style="fill:none;stroke-width:0.25454992;stroke-linecap:round" />
    <path
       style="opacity:0.6;fill:#ffffff;fill-opacity:1;stroke:none;stroke-width:0.26247701"
       d="M 1.3886557,0.5291642 C 1.2211653,0.6987279 1.0637088,0.8584838 1.1773614,1.0553416 l 0.6890021,1.1811465 -0.299002,0.4751852 c -0.071394,-0.036222 -0.152565,-0.057417 -0.2378698,-0.057417 -0.2900374,0 -0.524954,0.234917 -0.524954,0.5249539 0,0.2900371 0.2349166,0.5249541 0.524954,0.5249541 0.290037,0 0.5249538,-0.234917 0.524954,-0.5249541 0,-0.1063031 -0.010911,-0.1600936 -0.065242,-0.2427738 -0.00131,-0.00211 0,-0.0082 0,-0.0082 l 0.163931,-0.2492031 c 0.074331,0.0738 0.156343,-0.00923 0.2385257,-0.055506 0.079711,0.1058922 5.25e-4,-0.00319 0.246903,0.3006955 -0.065485,0.087484 -0.070404,0.2029894 -0.053522,0.3009647 0.044792,0.2599534 0.228763,0.4789815 0.5188001,0.4789815 0.2900372,0 0.524954,-0.234917 0.524954,-0.5249541 0,-0.2900369 -0.2349168,-0.5249539 -0.524954,-0.5249539 -0.085305,0 -0.1662259,0.021195 -0.237357,0.057417 L 2.3910767,2.2126395 c 0,0 0.6916266,-1.1832464 0.689002,-1.1811466 C 3.1957638,0.8357259 3.0877387,0.78899 2.9038416,0.55444 L 2.1205108,1.808495 Z m -0.059689,2.4144285 c 0.1300609,0 0.2356177,0.1055567 0.2356177,0.2356177 0,0.1300611 -0.1055568,0.2356178 -0.2356177,0.2356178 -0.130061,0 -0.2356177,-0.1055567 -0.2356177,-0.2356178 0,-0.130061 0.1055567,-0.2356177 0.2356177,-0.2356177 z m 1.574862,-0.00835 c 0.1346693,0 0.2439662,0.1092967 0.2439662,0.2439661 0,0.1346693 -0.1092969,0.243966 -0.2439662,0.243966 -0.1346692,0 -0.2439661,-0.1092967 -0.2439661,-0.243966 0,-0.1346694 0.1092969,-0.2439661 0.2439661,-0.2439661 z"
       id="path4290"
       inkscape:connector-curvature="0"
       sodipodi:nodetypes="ccccsssscccccssssccccccssssssssss"
       inkscape:label="#" />
  </g>
</svg>
