<?xml version="1.0" encoding="UTF-8" standalone="no"?>
<!-- Created with Inkscape (http://www.inkscape.org/) -->

<svg
   xmlns:dc="http://purl.org/dc/elements/1.1/"
   xmlns:cc="http://creativecommons.org/ns#"
   xmlns:rdf="http://www.w3.org/1999/02/22-rdf-syntax-ns#"
   xmlns:svg="http://www.w3.org/2000/svg"
   xmlns="http://www.w3.org/2000/svg"
   xmlns:sodipodi="http://sodipodi.sourceforge.net/DTD/sodipodi-0.dtd"
   xmlns:inkscape="http://www.inkscape.org/namespaces/inkscape"
   width="24"
   height="24"
   viewBox="0 0 24 24"
   version="1.1"
   id="svg8"
   inkscape:version="0.92+devel (5451be0409, 2017-08-29, custom)"
   sodipodi:docname="format-text-superscript.svg">
  <defs
     id="ol-defs">
    <style
       id="current-color-scheme">      .ColorScheme-Text {
        color:#d0d0d0;
        stop-color:#d0d0d0;
      }
      .ColorScheme-Background {
        color:#212121;
        stop-color:#212121;
      }
      .ColorScheme-Highlight {
        color:#0039a9;
        stop-color:#0039a9;
      }
      .ColorScheme-ViewText {
        color:#d0d0d0;
        stop-color:#d0d0d0;
      }
      .ColorScheme-ViewBackground {
        color:#19191b;
        stop-color:#19191b;
      }
      .ColorScheme-ViewHover {
        color:#005cc7;
        stop-color:#005cc7;
      }
      .ColorScheme-ViewFocus{
        color:#002466;
        stop-color:#002466;
      }
      .ColorScheme-ButtonText {
        color:#d0d0d0;
        stop-color:#d0d0d0;
      }
      .ColorScheme-ButtonBackground {
        color:#232323;
        stop-color:#232323;                             
      }                                                 
      .ColorScheme-ButtonHover {                        
        color:#005cc7;                                  
        stop-color:#005cc7;                             
      }                                                 
      .ColorScheme-ButtonFocus{                         
        color:#0039a9;                                  
        stop-color:#0039a9;                             
      }</style>
  </defs>
  <sodipodi:namedview
     id="base"
     pagecolor="#002266"
     bordercolor="#ffffff"
     borderopacity="0.46666667"
     inkscape:pageopacity="0"
     inkscape:pageshadow="2"
     inkscape:zoom="13.081476"
     inkscape:cx="27.497659"
     inkscape:cy="12.341316"
     inkscape:document-units="px"
     inkscape:current-layer="svg8"
     inkscape:document-rotation="0"
     showgrid="false"
     inkscape:showpageshadow="false"
     borderlayer="true"
     units="px"
     fit-margin-top="0"
     fit-margin-left="0"
     fit-margin-right="0"
     fit-margin-bottom="0"
     inkscape:window-width="1920"
     inkscape:window-height="1025"
     inkscape:window-x="0"
     inkscape:window-y="26"
     inkscape:window-maximized="1"
     inkscape:snap-page="true" />
  <metadata
     id="metadata5">
    <rdf:RDF>
      <cc:Work
         rdf:about="">
        <dc:format>image/svg+xml</dc:format>
        <dc:type
           rdf:resource="http://purl.org/dc/dcmitype/StillImage" />
        <dc:title></dc:title>
      </cc:Work>
    </rdf:RDF>
  </metadata>
  <g
     id="g4267"
     inkscape:label="#format-text-superscript"
     style="fill:none;stroke-width:0.66666669"
     transform="scale(1.0909091)">
    <rect
       inkscape:label="#boundary"
       y="0"
       x="0"
       height="22"
       width="22"
       id="rect4264"
       style="vector-effect:none;fill:none;stroke-width:2;stroke-linecap:round" />
    <path
       inkscape:connector-curvature="0"
       id="path4271"
       style="font-style:normal;font-variant:normal;font-weight:normal;font-stretch:normal;font-size:medium;line-height:37.84999847;font-family:'Times New Roman';-inkscape-font-specification:'Times New Roman, ';opacity:0.6;fill:#d0d0d0;stroke-width:1.42222214"
       d="M 13.233334,13.661112 H 7.4000001 l -1.0222223,2.377777 q -0.3777777,0.877779 -0.3777777,1.311112 0,0.344444 0.3222221,0.611112 0.3333334,0.255555 1.4222223,0.333332 v 0.411111 H 3.0000001 v -0.411111 q 0.9444444,-0.166667 1.222222,-0.433333 0.5666668,-0.533333 1.2555557,-2.166667 L 10.777778,3.2944444 h 0.388889 l 5.244444,12.5333326 q 0.633333,1.511112 1.144445,1.966668 0.522223,0.444444 1.444444,0.5 v 0.411111 h -5.944444 v -0.411111 q 0.9,-0.04444 1.211111,-0.3 0.322221,-0.255555 0.322221,-0.622223 0,-0.488888 -0.444443,-1.544445 z M 12.922223,12.83889 10.366667,6.7500005 7.7444445,12.83889 Z"
       inkscape:label="#1" />
    <path
       inkscape:connector-curvature="0"
       id="path823"
       style="font-style:italic;font-variant:normal;font-weight:normal;font-stretch:normal;font-size:medium;font-family:'Times New Roman';-inkscape-font-specification:'Times New Roman, Italic';fill:#00ff00;stroke-width:0.91666669"
       d="m 15.354429,3.2252607 q 0.273113,0.2898343 0.412455,0.5796685 0.100332,0.2006546 0.328851,1.0534363 l 0.490488,-0.7357332 q 0.195081,-0.2675393 0.473768,-0.50721 0.278687,-0.2452444 0.490489,-0.3344242 0.13377,-0.055737 0.295408,-0.055737 0.239671,0 0.379015,0.1281959 0.144916,0.128196 0.144916,0.3121293 0,0.2118019 -0.0836,0.2898343 -0.156063,0.1393433 -0.356719,0.1393433 -0.117049,0 -0.250817,-0.050163 -0.261966,-0.089179 -0.351145,-0.089179 -0.133769,0 -0.317703,0.1560646 -0.345572,0.2898343 -0.824913,1.1203208 l 0.457048,1.917365 q 0.105896,0.4403245 0.178361,0.5295042 0.07246,0.083604 0.144916,0.083604 0.117049,0 0.273113,-0.1281957 0.306556,-0.2563913 0.523932,-0.668848 l 0.19508,0.1003279 q -0.351146,0.6577008 -0.891798,1.0924517 -0.306554,0.2452451 -0.518357,0.2452451 -0.31213,0 -0.496062,-0.3511456 -0.11705,-0.2173754 -0.484916,-1.8727756 -0.869502,1.5104829 -1.393432,1.9452338 -0.339998,0.2786874 -0.657702,0.2786874 -0.222949,0 -0.406882,-0.1616389 -0.13377,-0.1226221 -0.13377,-0.3288504 0,-0.1839331 0.122623,-0.3065552 0.122622,-0.1226221 0.300981,-0.1226221 0.17836,0 0.379015,0.1783595 0.144916,0.1281957 0.222948,0.1281957 0.06688,0 0.172787,-0.089182 Q 14.434762,7.4891622 14.886235,6.7868719 15.337707,6.0845808 15.477051,5.772452 15.131479,4.4180404 15.10361,4.340008 14.975414,3.9777151 14.769187,3.8272242 14.562959,3.6767334 14.161649,3.6767334 q -0.128196,0 -0.295408,0.011153 V 3.4872265 Z"
       inkscape:label="#" />
  </g>
</svg>
