<?xml version="1.0" encoding="UTF-8" standalone="no"?>
<!-- Created with Inkscape (http://www.inkscape.org/) -->

<svg
   xmlns:dc="http://purl.org/dc/elements/1.1/"
   xmlns:cc="http://creativecommons.org/ns#"
   xmlns:rdf="http://www.w3.org/1999/02/22-rdf-syntax-ns#"
   xmlns:svg="http://www.w3.org/2000/svg"
   xmlns="http://www.w3.org/2000/svg"
   xmlns:sodipodi="http://sodipodi.sourceforge.net/DTD/sodipodi-0.dtd"
   xmlns:inkscape="http://www.inkscape.org/namespaces/inkscape"
   width="24"
   height="24"
   viewBox="0 0 6.3499998 6.3499998"
   version="1.1"
   id="svg8"
   inkscape:version="0.92+devel (5451be0409, 2017-08-29, custom)"
   sodipodi:docname="format-number-percent.svg">
  <defs
     id="defs2" />
  <sodipodi:namedview
     id="base"
     pagecolor="#002466"
     bordercolor="#ffffff"
     borderopacity="0.38039216"
     inkscape:pageopacity="1"
     inkscape:pageshadow="2"
     inkscape:zoom="20.275734"
     inkscape:cx="14.802669"
     inkscape:cy="6.500793"
     inkscape:document-units="px"
     inkscape:current-layer="g822"
     inkscape:document-rotation="0"
     showgrid="false"
     inkscape:showpageshadow="false"
     borderlayer="true"
     inkscape:window-width="1920"
     inkscape:window-height="1051"
     inkscape:window-x="0"
     inkscape:window-y="0"
     inkscape:window-maximized="1"
     units="px" />
  <metadata
     id="metadata5">
    <rdf:RDF>
      <cc:Work
         rdf:about="">
        <dc:format>image/svg+xml</dc:format>
        <dc:type
           rdf:resource="http://purl.org/dc/dcmitype/StillImage" />
        <dc:title />
      </cc:Work>
    </rdf:RDF>
  </metadata>
  <g
     id="g822"
     inkscape:label="#format-number-percent"
     transform="scale(1.5)"
     style="stroke-width:0.66666663">
    <rect
       inkscape:label="#boundary"
       y="4.4595335e-08"
       x="4.4595339e-08"
       height="4.2333331"
       width="4.2333331"
       id="rect811"
       style="fill:none;stroke-width:0.13657102" />
    <path
       d="m 0.42581381,1.3146484 q 0,-0.40721023 0.17776692,-0.60358067 Q 0.7834147,0.5146973 1.0893392,0.5146973 q 0.3162597,0 0.4940266,0.19637043 0.179834,0.19430338 0.179834,0.60358067 0,0.4072103 -0.179834,0.6035807 -0.1777669,0.1963705 -0.4836913,0.1963705 -0.3162598,0 -0.49609377,-0.1943034 Q 0.42581381,1.7239258 0.42581381,1.3146484 Z m 0.45268549,-0.00413 q 0,0.2955892 0.068213,0.396875 0.051676,0.074414 0.142627,0.074414 0.093017,0 0.144694,-0.074414 0.066146,-0.1012858 0.066146,-0.396875 0,-0.2955891 -0.066146,-0.39480789 -0.051676,-0.0764811 -0.144694,-0.0764811 -0.090951,0 -0.142627,0.0744141 Q 0.8784993,1.0149253 0.8784993,1.3105144 Z M 1.5316894,3.7124348 H 1.1017415 L 2.7161132,0.5146973 h 0.4175455 z m 0.938444,-0.7958171 q 0,-0.4072102 0.1777669,-0.6035806 0.179834,-0.1963705 0.4898925,-0.1963705 0.3121257,0 0.4898926,0.1963705 0.179834,0.1963704 0.179834,0.6035806 0,0.4092774 -0.179834,0.6056478 -0.1777669,0.1963704 -0.4836914,0.1963704 -0.3162597,0 -0.4960937,-0.1963704 Q 2.4701334,3.3258951 2.4701334,2.9166177 Z m 0.4526855,-0.00207 q 0,0.2955892 0.068213,0.3948079 0.051676,0.076481 0.1426269,0.076481 0.093018,0 0.142627,-0.074414 0.068213,-0.1012858 0.068213,-0.396875 0,-0.2955892 -0.066146,-0.396875 -0.051676,-0.074414 -0.144694,-0.074414 -0.093018,0 -0.1426269,0.074414 -0.068213,0.1012858 -0.068213,0.3968751 z"
       style="font-style:normal;font-variant:normal;font-weight:bold;font-stretch:normal;font-size:4.23333311px;font-family:Arial;-inkscape-font-specification:'Arial Bold';opacity:0.6;fill:#d0d0d0;fill-opacity:1;stroke:none;stroke-width:0.17638887"
       id="path816"
       inkscape:connector-curvature="0"
       inkscape:label="#" />
  </g>
</svg>
