<?xml version="1.0" encoding="UTF-8" standalone="no"?>
<!-- Created with Inkscape (http://www.inkscape.org/) -->

<svg
   xmlns:dc="http://purl.org/dc/elements/1.1/"
   xmlns:cc="http://creativecommons.org/ns#"
   xmlns:rdf="http://www.w3.org/1999/02/22-rdf-syntax-ns#"
   xmlns:svg="http://www.w3.org/2000/svg"
   xmlns="http://www.w3.org/2000/svg"
   xmlns:sodipodi="http://sodipodi.sourceforge.net/DTD/sodipodi-0.dtd"
   xmlns:inkscape="http://www.inkscape.org/namespaces/inkscape"
   width="24"
   height="24"
   viewBox="0 0 6.3499998 6.3499998"
   version="1.1"
   id="main"
   inkscape:version="0.92+devel (5451be0409, 2017-08-29, custom)"
   sodipodi:docname="go-jump-definition.svg">
  <defs
     id="ol-defs">
    <style
       id="current-color-scheme">      .ColorScheme-Text {
        color:#d0d0d0;
        stop-color:#d0d0d0;
      }
      .ColorScheme-Background {
        color:#212121;
        stop-color:#212121;
      }
      .ColorScheme-Highlight {
        color:#0039a9;
        stop-color:#0039a9;
      }
      .ColorScheme-ViewText {
        color:#d0d0d0;
        stop-color:#d0d0d0;
      }
      .ColorScheme-ViewBackground {
        color:#19191b;
        stop-color:#19191b;
      }
      .ColorScheme-ViewHover {
        color:#005cc7;
        stop-color:#005cc7;
      }
      .ColorScheme-ViewFocus{
        color:#002466;
        stop-color:#002466;
      }
      .ColorScheme-ButtonText {
        color:#d0d0d0;
        stop-color:#d0d0d0;
      }
      .ColorScheme-ButtonBackground {
        color:#232323;
        stop-color:#232323;                             
      }                                                 
      .ColorScheme-ButtonHover {                        
        color:#005cc7;                                  
        stop-color:#005cc7;                             
      }                                                 
      .ColorScheme-ButtonFocus{                         
        color:#0039a9;                                  
        stop-color:#0039a9;                             
      }</style>
  </defs>
  <sodipodi:namedview
     id="base"
     pagecolor="#002466"
     bordercolor="#ffffff"
     borderopacity="0.38039216"
     inkscape:pageopacity="1"
     inkscape:pageshadow="2"
     inkscape:zoom="20.275734"
     inkscape:cx="3.9186558"
     inkscape:cy="7.9030556"
     inkscape:document-units="px"
     inkscape:current-layer="main"
     inkscape:document-rotation="0"
     showgrid="false"
     inkscape:showpageshadow="false"
     borderlayer="true"
     inkscape:window-width="1920"
     inkscape:window-height="1025"
     inkscape:window-x="0"
     inkscape:window-y="26"
     inkscape:window-maximized="1"
     units="px"
     inkscape:snap-page="true" />
  <metadata
     id="metadata5">
    <rdf:RDF>
      <cc:Work
         rdf:about="">
        <dc:format>image/svg+xml</dc:format>
        <dc:type
           rdf:resource="http://purl.org/dc/dcmitype/StillImage" />
        <dc:title></dc:title>
      </cc:Work>
    </rdf:RDF>
  </metadata>
  <g
     id="g856"
     inkscape:label="#go-jump-definition"
     transform="matrix(1.125,0,0,1.125,0.79375008,0.79375001)"
     style="stroke-width:0.8888889">
    <path
       inkscape:connector-curvature="0"
       inkscape:label="#boundary"
       id="rect811"
       d="M -0.70555563,-0.70555556 H 4.9388888 V 4.9388888 h -5.64444443 z"
       style="fill:none;stroke-width:0.18209469" />
    <path
       style="fill:#00ff00;stroke-width:0.40687037;stroke-linecap:square"
       d="M 3.4152955,1.8472671 3.8240561,2.3593805 4.2333332,2.8714941 3.7961508,2.8601249 A 1.6935677,1.605469 75 0 1 2.6458332,4.1825248 1.6935677,1.605469 75 0 1 1.9285645,4.1985453 1.6935677,1.605469 75 0 0 1.9538851,4.193378 1.6935677,1.605469 75 0 0 3.1083365,2.8420393 L 2.5450643,2.827569 2.9801798,2.3371597 Z"
       id="rect815"
       inkscape:connector-curvature="0"
       inkscape:label="#" />
    <path
       inkscape:label="#"
       id="path6"
       d="m 1.1478018,2.9675622 c -0.00186,0 -0.25797707,-0.1691795 -0.56913494,-0.3758709 L 0.01298799,2.2158201 V 1.632284 c 0,-0.3210973 0.0016711,-0.5838243 0.0037465,-0.5838243 0.0020755,0 0.25818496,0.1693724 0.56913495,0.376447 L 1.1512566,1.8013539 V 2.384602 c 0,0.3207139 -0.00159,0.5829602 -0.00346,0.5829602 z m 0.242228,-0.016705 c -0.00186,0 -0.00357,-0.2582352 -0.00346,-0.5737434 L 1.3868727,1.803658 1.9519755,1.4254829 c 0.3107317,-0.2079302 0.565658,-0.3784635 0.5665429,-0.3784635 9.531e-4,-2.503e-4 0.00171,0.2584732 0.00171,0.5748957 V 2.1970983 L 1.9568692,2.5741216 C 1.6469707,2.7813881 1.3918965,2.9508567 1.3900384,2.950857 Z M 1.2860535,1.6066497 C 1.2691344,1.6059551 0.15305951,0.852896 0.15959234,0.846555 0.16282799,0.84344707 0.41346515,0.67481906 0.71663041,0.47212388 1.0197954,0.26942889 1.2695579,0.10457116 1.2716521,0.10604577 c 0.094381,0.06117 1.1211084,0.75583895 1.1221408,0.75923068 0.00221,0.007345 -1.0953079,0.74137315 -1.1077394,0.74137325 z"
       style="opacity:0.6;fill:#d0d0d0;fill-opacity:1;stroke:none;stroke-width:0.14544265"
       inkscape:connector-curvature="0" />
  </g>
</svg>
