<?xml version="1.0" encoding="UTF-8" standalone="no"?>
<svg
   xmlns:dc="http://purl.org/dc/elements/1.1/"
   xmlns:cc="http://creativecommons.org/ns#"
   xmlns:rdf="http://www.w3.org/1999/02/22-rdf-syntax-ns#"
   xmlns:svg="http://www.w3.org/2000/svg"
   xmlns="http://www.w3.org/2000/svg"
   xmlns:sodipodi="http://sodipodi.sourceforge.net/DTD/sodipodi-0.dtd"
   xmlns:inkscape="http://www.inkscape.org/namespaces/inkscape"
   viewBox="0 0 24 24"
   version="1.1"
   id="svg6"
   sodipodi:docname="go-next-previous.svg"
   inkscape:version="0.92+devel (ab74a354e7, 2017-08-02, custom)"
   width="24"
   height="24">
  <metadata
     id="metadata10">
    <rdf:RDF>
      <cc:Work
         rdf:about="">
        <dc:format>image/svg+xml</dc:format>
        <dc:type
           rdf:resource="http://purl.org/dc/dcmitype/StillImage" />
        <dc:title></dc:title>
      </cc:Work>
    </rdf:RDF>
  </metadata>
  <sodipodi:namedview
     pagecolor="#002466"
     bordercolor="#ffffff"
     inkscape:document-rotation="0"
     borderopacity="0.2627451"
     objecttolerance="10"
     gridtolerance="10"
     guidetolerance="10"
     inkscape:pageopacity="1"
     inkscape:pageshadow="2"
     inkscape:window-width="1920"
     inkscape:window-height="1051"
     id="namedview8"
     showgrid="false"
     inkscape:zoom="22.96875"
     inkscape:cx="8"
     inkscape:cy="8"
     inkscape:window-x="0"
     inkscape:window-y="0"
     inkscape:window-maximized="1"
     inkscape:current-layer="svg6"
     borderlayer="true"
     inkscape:showpageshadow="false"
     inkscape:snap-page="true"
     inkscape:snap-grids="false"
     inkscape:snap-to-guides="false" />
  <defs
     id="defs3051">
    <style
       type="text/css"
       id="current-color-scheme">
      .ColorScheme-Text {
        color:#f2f2f2;
      }
      </style>
  </defs>
  <g
     id="g848"
     inkscape:label="#go-previous-context"
     transform="matrix(-1.5,0,0,1.5,24,0)">
    <rect
       inkscape:label="#boundary"
       y="0"
       x="0"
       height="16"
       width="16"
       id="rect844"
       style="fill:none;stroke-width:1.29999995" />
    <path
       inkscape:label="#"
       id="path4"
       d="m 2,3.5 v 9 H 2.75 9.5 L 13.470703,8.5292969 14,8 13.470703,7.4707031 9.5,3.5 H 2.75 Z M 5.21875,5.1542969 H 5.375 v 0.7089843 c -0.2191009,10e-8 -0.3606641,0.011448 -0.4238281,0.037109 -0.06119,0.023685 -0.1071098,0.061959 -0.1367188,0.1132813 -0.02961,0.049347 -0.042969,0.1354319 -0.042969,0.2578125 0,0.1243539 -0.00958,0.3596273 -0.027344,0.7070312 -0.00987,0.1954146 -0.03472,0.3541816 -0.076172,0.4765625 C 4.6265169,7.5754845 4.5729502,7.6749506 4.5078125,7.7539062 4.4446486,7.8328623 4.3470941,7.9151238 4.2148438,8 c 0.1164586,0.067112 0.2101691,0.1455294 0.2832031,0.2363281 0.075008,0.088825 0.1323995,0.1978722 0.171875,0.3261719 0.039478,0.1283029 0.066281,0.3004727 0.078125,0.515625 0.013823,0.3276641 0.019531,0.5361521 0.019531,0.6269531 0,0.1302753 0.015292,0.2221175 0.046875,0.2734375 0.031583,0.051323 0.079414,0.089585 0.1425781,0.1152344 0.065138,0.02764 0.204789,0.04102 0.4179688,0.04102 v 0.710937 H 5.21875 c -0.2664742,0 -0.4711618,-0.02299 -0.6132812,-0.06641 -0.142123,-0.04145 -0.2626332,-0.110285 -0.3613282,-0.208985 -0.096721,-0.09869 -0.1617575,-0.221119 -0.1953125,-0.367187 -0.033557,-0.144093 -0.050781,-0.3717198 -0.050781,-0.6835938 0,-0.3631937 -0.015292,-0.6004251 -0.046875,-0.7089843 C 3.9077468,8.6526359 3.8407781,8.5417214 3.7519531,8.4746094 3.6651022,8.4055256 3.5312066,8.3652987 3.3496094,8.3554688 V 7.6445312 c 0.1440934,-0.00789 0.253138,-0.02892 0.3261718,-0.064453 0.073033,-0.03553 0.1361587,-0.094832 0.1894532,-0.1777343 0.053295,-0.084878 0.089636,-0.1900782 0.109375,-0.3164063 0.01579,-0.094747 0.023437,-0.2612018 0.023437,-0.4960937 0,-0.3829332 0.017204,-0.6488131 0.052734,-0.7988282 C 4.0863118,5.6390266 4.1513696,5.5185334 4.2441406,5.4277344 4.3369134,5.3349619 4.4727414,5.2603253 4.6503906,5.2070312 4.770797,5.1715012 4.960171,5.1542969 5.21875,5.1542969 Z m 1.796875,0 h 0.15625 c 0.2664744,0 0.4711618,0.021048 0.6132812,0.0625 0.1421202,0.041452 0.260702,0.1122226 0.3574219,0.2128906 0.09672,0.098694 0.1617566,0.2211202 0.1953125,0.3671875 0.035532,0.1440934 0.054687,0.3717204 0.054687,0.6835938 0,0.3612207 0.01336,0.5984468 0.042969,0.7089843 0.043426,0.1579106 0.1103938,0.270758 0.1992187,0.3398438 0.088825,0.067112 0.2246518,0.1053653 0.40625,0.1152343 v 0.7109376 c -0.1440936,0.00789 -0.2531368,0.028914 -0.3261718,0.064453 -0.073033,0.035531 -0.1361572,0.096759 -0.1894532,0.1816406 -0.051322,0.082904 -0.087662,0.1861678 -0.109375,0.3125 -0.015789,0.094747 -0.023437,0.2592691 -0.023437,0.4921875 0,0.3829332 -0.019156,0.6507451 -0.054687,0.8027341 -0.033556,0.151989 -0.096681,0.272482 -0.1894531,0.363282 -0.092773,0.09277 -0.2285799,0.167403 -0.4082031,0.220703 -0.1204063,0.03553 -0.3097804,0.05273 -0.5683594,0.05273 h -0.15625 v -0.710937 c 0.2112055,0 0.3489235,-0.01339 0.4140625,-0.04102 0.065138,-0.02566 0.1129691,-0.06391 0.1425781,-0.1152345 0.031582,-0.049347 0.046875,-0.1354526 0.046875,-0.2558594 0.00198,-0.1204068 0.011555,-0.3499447 0.027344,-0.6894531 0.00987,-0.2052839 0.036652,-0.3698061 0.080078,-0.4921875 C 7.7699883,8.4166537 7.827379,8.313389 7.8984383,8.2285075 7.9714712,8.1416639 8.06327,8.0651387 8.1757812,8 8.0297136,7.9052536 7.9225807,7.8115021 7.8554688,7.7207031 7.7626972,7.590427 7.6995716,7.4259455 7.6660156,7.2246094 7.6443016,7.0864374 7.6290106,6.7822841 7.6191406,6.3125 7.6171656,6.1644588 7.603785,6.064973 7.578125,6.015625 7.554439,5.9662779 7.5104515,5.9299579 7.4453125,5.9042969 7.3821483,5.8766639 7.2386738,5.8632812 7.015625,5.8632812 Z"
       style="opacity:0.6;fill:#d0d0d0;fill-opacity:1;stroke:none;stroke-width:0.75"
       inkscape:connector-curvature="0" />
  </g>
</svg>
