<?xml version="1.0" encoding="UTF-8" standalone="no"?>
<!-- Created with Inkscape (http://www.inkscape.org/) -->

<svg
   xmlns:dc="http://purl.org/dc/elements/1.1/"
   xmlns:cc="http://creativecommons.org/ns#"
   xmlns:rdf="http://www.w3.org/1999/02/22-rdf-syntax-ns#"
   xmlns:svg="http://www.w3.org/2000/svg"
   xmlns="http://www.w3.org/2000/svg"
   xmlns:sodipodi="http://sodipodi.sourceforge.net/DTD/sodipodi-0.dtd"
   xmlns:inkscape="http://www.inkscape.org/namespaces/inkscape"
   width="24.000002"
   height="24"
   viewBox="0 0 24.000002 24"
   version="1.1"
   id="main"
   inkscape:version="0.92+devel (9d04be7596, 2017-09-23, custom)"
   sodipodi:docname="im-gadugadu.svg">
  <defs
     id="ol-defs" />
  <sodipodi:namedview
     id="base"
     pagecolor="#002466"
     bordercolor="#ffffff"
     borderopacity="0.30"
     inkscape:pageopacity="1"
     inkscape:pageshadow="0"
     inkscape:zoom="13.140625"
     inkscape:document-units="px"
     inkscape:current-layer="main"
     inkscape:document-rotation="0"
     showgrid="false"
     inkscape:showpageshadow="false"
     borderlayer="true"
     inkscape:window-width="1920"
     inkscape:window-height="1017"
     inkscape:window-x="0"
     inkscape:window-y="34"
     inkscape:window-maximized="1"
     units="px"
     inkscape:cx="6.5947884"
     inkscape:cy="8.0269056" />
  <metadata
     id="metadata5">
    <rdf:RDF>
      <cc:Work
         rdf:about="">
        <dc:format>image/svg+xml</dc:format>
        <dc:type
           rdf:resource="http://purl.org/dc/dcmitype/StillImage" />
        <dc:title></dc:title>
      </cc:Work>
    </rdf:RDF>
  </metadata>
  <g
     id="g839"
     inkscape:label="#im-gadugadu"
     style="stroke:none;stroke-width:0.91666669"
     transform="scale(1.0909091)">
    <path
       style="fill:none;stroke:none;stroke-width:0.91666669"
       d="M 0,0 H 22.000001 V 22 H 0 Z"
       id="boundary"
       inkscape:label="#boundary"
       inkscape:connector-curvature="0" />
    <path
       inkscape:label="#"
       style="opacity:0.6;fill:#d0d0d0;fill-opacity:1;stroke:none;stroke-width:0.91666669"
       d="m 10.000001,2.9999999 v 2.089844 C 9.0867582,5.2421266 8.2459632,5.5958572 7.5234381,6.1093746 L 6.0507821,4.6367186 4.6367195,6.0507812 6.1093754,7.5234372 C 5.5958581,8.2459625 5.2421261,9.0867558 5.0898448,9.9999999 H 3.0000008 V 12 h 2.089844 c 0.1522813,0.913242 0.5060133,1.754038 1.0195306,2.476562 l -1.4726559,1.472656 1.4140626,1.414063 1.472656,-1.472657 c 0.7225251,0.513518 1.5633201,0.86725 2.4765629,1.019532 V 19 h 2 v -2.089844 c 0.913242,-0.152282 1.754037,-0.506014 2.476561,-1.019532 l 1.472657,1.472657 1.414063,-1.414063 -1.472656,-1.472656 C 16.404143,13.754038 16.757875,12.913242 16.910157,12 h 2.089844 V 9.9999999 H 16.910157 C 16.757875,9.0867558 16.404143,8.2459625 15.890626,7.5234372 l 1.472656,-1.472656 -1.414063,-1.4140626 -1.472657,1.472656 C 13.754039,5.5958572 12.913243,5.2421266 12.000001,5.0898439 V 2.9999999 Z M 9.0000002,8.9999998 c 0.554,0 1.0000008,0.4460003 1.0000008,1.0000001 C 10.000001,10.554 9.5540002,11 9.0000002,11 c -0.554,0 -0.999999,-0.446 -0.999999,-1.0000001 0,-0.5539998 0.445999,-1.0000001 0.999999,-1.0000001 z m 4.0000008,0 c 0.554,0 1,0.4460003 1,1.0000001 0,0.5540001 -0.446,1.0000001 -1,1.0000001 -0.554,0 -1,-0.446 -1,-1.0000001 0,-0.5539998 0.446,-1.0000001 1,-1.0000001 z M 8.0917982,11.726562 A 2.9999999,2.9999999 0 0 0 11.000001,14 a 2.9999999,2.9999999 0 0 0 2.90625,-2.273438 l 0.970703,0.242187 A 3.9999999,3.9999999 0 0 1 11.000001,15 3.9999999,3.9999999 0 0 1 7.1250007,11.968749 Z"
       id="path1387"
       inkscape:connector-curvature="0" />
  </g>
</svg>
