<?xml version="1.0" encoding="UTF-8" standalone="no"?>
<!-- Created with Inkscape (http://www.inkscape.org/) -->

<svg
   xmlns:dc="http://purl.org/dc/elements/1.1/"
   xmlns:cc="http://creativecommons.org/ns#"
   xmlns:rdf="http://www.w3.org/1999/02/22-rdf-syntax-ns#"
   xmlns:svg="http://www.w3.org/2000/svg"
   xmlns="http://www.w3.org/2000/svg"
   xmlns:sodipodi="http://sodipodi.sourceforge.net/DTD/sodipodi-0.dtd"
   xmlns:inkscape="http://www.inkscape.org/namespaces/inkscape"
   width="24.000002"
   height="24"
   viewBox="0 0 6.3500003 6.3499997"
   version="1.1"
   id="main"
   inkscape:version="0.92+devel (039bd1db37, 2017-09-02, custom)"
   sodipodi:docname="im-yahoo.svg">
  <defs
     id="ol-defs">
    <style
       id="current-color-scheme">      .ColorScheme-Text {
        color:#d0d0d0;
        stop-color:#d0d0d0;
      }
      .ColorScheme-Background {
        color:#212121;
        stop-color:#212121;
      }
      .ColorScheme-Highlight {
        color:#0039a9;
        stop-color:#0039a9;
      }
      .ColorScheme-ViewText {
        color:#d0d0d0;
        stop-color:#d0d0d0;
      }
      .ColorScheme-ViewBackground {
        color:#19191b;
        stop-color:#19191b;
      }
      .ColorScheme-ViewHover {
        color:#005cc7;
        stop-color:#005cc7;
      }
      .ColorScheme-ViewFocus{
        color:#002466;
        stop-color:#002466;
      }
      .ColorScheme-ButtonText {
        color:#d0d0d0;
        stop-color:#d0d0d0;
      }
      .ColorScheme-ButtonBackground {
        color:#232323;
        stop-color:#232323;                             
      }                                                 
      .ColorScheme-ButtonHover {                        
        color:#005cc7;                                  
        stop-color:#005cc7;                             
      }                                                 
      .ColorScheme-ButtonFocus{                         
        color:#0039a9;                                  
        stop-color:#0039a9;                             
      }</style>
  </defs>
  <sodipodi:namedview
     id="base"
     pagecolor="#002466"
     bordercolor="#ffffff"
     borderopacity="0.30"
     inkscape:pageopacity="1"
     inkscape:pageshadow="2"
     inkscape:zoom="20.275734"
     inkscape:document-units="px"
     inkscape:current-layer="main"
     inkscape:document-rotation="0"
     showgrid="false"
     inkscape:showpageshadow="false"
     borderlayer="true"
     inkscape:window-width="1920"
     inkscape:window-height="1025"
     inkscape:window-x="0"
     inkscape:window-y="26"
     inkscape:window-maximized="1"
     units="px"
     inkscape:cx="4.0666164"
     inkscape:cy="7.903056" />
  <metadata
     id="metadata5">
    <rdf:RDF>
      <cc:Work
         rdf:about="">
        <dc:format>image/svg+xml</dc:format>
        <dc:type
           rdf:resource="http://purl.org/dc/dcmitype/StillImage" />
        <dc:title></dc:title>
      </cc:Work>
    </rdf:RDF>
  </metadata>
  <g
     id="g843"
     inkscape:label="#im-yahoo"
     transform="scale(1.5)"
     style="stroke-width:0.66666669">
    <path
       style="fill:none;stroke-width:0.13657102"
       d="M -5.5e-8,-3e-8 H 4.2333333 V 4.2333332 H -5.5e-8 Z"
       id="boundary"
       inkscape:label="#boundary"
       inkscape:connector-curvature="0" />
    <path
       inkscape:label="#"
       style="opacity:0.6;fill:#d0d0d0;stroke-width:0.30515277;stroke-linecap:square"
       d="m 1.7027368,1.1103213 c 0.1613329,0.00195 0.3027485,0.00612 0.3338301,0.00982 l -0.01602,0.1116212 c -0.06622,0.01658 -0.3853686,0.022909 -0.4681886,0.044959 0.2153071,0.3201692 0.5562024,0.7323544 0.6666265,0.8924525 0.06076,-0.08831 0.5942739,-0.4554347 0.610816,-0.5823937 -0.08283,-0.01663 -0.3573464,-0.05581 -0.4015264,-0.05581 L 2.4024364,1.3862737 c 0.07516,-0.01176 0.4701422,0 0.6666263,0 0.169568,0 0.5321438,-1.318e-4 0.6351038,0.00827 l -0.094568,0.1359091 c -0.05525,0.0055 -0.2849459,0.057327 -0.3622522,0.073897 -0.08278,0.02203 -0.839154,0.6063513 -0.888835,0.7498255 -0.01101,0.04965 -0.016537,0.1261288 -0.016537,0.1979209 l -0.00568,0.1157553 c 0,0.08274 0.023106,0.2161009 0.034106,0.287838 0.04972,0.01108 0.4097173,0.0014 0.4759405,0.012401 l -0.00827,0.1483116 c -0.06471,-0.0047 -0.5218396,-0.00361 -0.7828987,-0.00361 -0.1325221,0 -0.5584759,0.014793 -0.6893641,0.01085 L 1.390611,2.9825576 c 0.07177,-0.0056 0.3687552,0.012623 0.4340823,-0.056327 0.03245,-0.03421 0.022221,-0.070536 0.022221,-0.2692345 v -0.094049 c 0,-0.04417 2.279e-4,-0.1268159 -0.010853,-0.204122 C 1.8084823,2.2760051 1.1421171,1.444305 0.97099796,1.3118598 0.92127796,1.2953198 0.61005359,1.2638638 0.53278155,1.2472638 l -0.003615,-0.1271241 c 0.03855,-0.01933 0.38437574,0.00465 0.72036995,-0.00775 0.1104107,-0.0041 0.2918698,-0.00402 0.4532026,-0.00207 z"
       id="rect836"
       inkscape:connector-curvature="0" />
  </g>
</svg>
