<?xml version="1.0" encoding="UTF-8" standalone="no"?>
<!-- Created with Inkscape (http://www.inkscape.org/) -->

<svg
   xmlns:dc="http://purl.org/dc/elements/1.1/"
   xmlns:cc="http://creativecommons.org/ns#"
   xmlns:rdf="http://www.w3.org/1999/02/22-rdf-syntax-ns#"
   xmlns:svg="http://www.w3.org/2000/svg"
   xmlns="http://www.w3.org/2000/svg"
   xmlns:sodipodi="http://sodipodi.sourceforge.net/DTD/sodipodi-0.dtd"
   xmlns:inkscape="http://www.inkscape.org/namespaces/inkscape"
   width="24.000002"
   height="24"
   viewBox="0 0 24.000002 24"
   version="1.1"
   id="main"
   inkscape:version="0.92+devel (9cbd9e9661, 2017-09-28, custom)"
   sodipodi:docname="kstars_fitsviewer.svg">
  <defs
     id="ol-defs" />
  <sodipodi:namedview
     id="base"
     pagecolor="#002466"
     bordercolor="#ffffff"
     borderopacity="0.30"
     inkscape:pageopacity="1"
     inkscape:pageshadow="0"
     inkscape:zoom="13.140625"
     inkscape:document-units="px"
     inkscape:current-layer="main"
     inkscape:document-rotation="0"
     showgrid="false"
     inkscape:showpageshadow="false"
     borderlayer="true"
     inkscape:window-width="1920"
     inkscape:window-height="1027"
     inkscape:window-x="0"
     inkscape:window-y="24"
     inkscape:window-maximized="1"
     units="px"
     inkscape:cx="6.5947884"
     inkscape:cy="8.0269056" />
  <metadata
     id="metadata5">
    <rdf:RDF>
      <cc:Work
         rdf:about="">
        <dc:format>image/svg+xml</dc:format>
        <dc:type
           rdf:resource="http://purl.org/dc/dcmitype/StillImage" />
        <dc:title></dc:title>
      </cc:Work>
    </rdf:RDF>
  </metadata>
  <g
     id="g820"
     inkscape:label="#kstars_fitsviewer"
     style="stroke:none"
     transform="scale(1.0909091)">
    <path
       style="fill:none;stroke:none;stroke-width:1"
       d="M 0,0 H 22.000001 V 22 H 0 Z"
       id="boundary"
       inkscape:label="#boundary"
       inkscape:connector-curvature="0" />
    <path
       inkscape:label="#"
       id="path4"
       class="ColorScheme-Text"
       d="m 9.0000017,4.9990237 c -3.8659938,0 -7.0000005,2.6779219 -7.0000005,5.9824213 0,3.3046 2.1340067,5.765625 6,5.765625 -3.2216794,0 -4.83401,-3.011725 -4.8339844,-5.765625 -2.56e-5,-2.7538994 2.6123053,-4.9863276 5.8339849,-4.9863276 1.4560843,0 2.7709003,0.4724625 3.7929693,1.2265622 A 5,3.9164941 0 0 0 11.000002,6.9560549 5,3.9164941 0 0 0 6.0000012,10.874023 v 0.0098 a 5,3.9164941 0 0 0 0.019531,0.316407 c 0.1929501,3.230265 3.2389805,5.800746 6.9804698,5.800746 3.865991,0 6.999999,-2.741847 6.999999,-6.123047 0,-3.3812994 -2.134006,-5.8769522 -5.999999,-5.8769522 3.221677,0 4.834009,3.0572998 4.833983,5.8749992 2.6e-5,2.8177 -2.612308,5.101563 -5.833983,5.101562 -1.67251,0 -3.1765903,-0.619168 -4.2402353,-1.605468 a 5,3.9164941 0 0 0 2.2402353,0.417968 5,3.9164941 0 0 0 4.992187,-3.808593 h 0.0078 c 0,-0.019 -0.0037,-0.03764 -0.0039,-0.05664 a 5,3.9164941 0 0 0 0.0039,-0.05078 5,3.9164941 0 0 0 -0.03125,-0.40039 C 15.66616,7.4076336 12.665134,4.9990237 9.0000017,4.9990237 Z"
       style="opacity:0.6;fill:#d0d0d0;fill-opacity:1;stroke:none"
       inkscape:connector-curvature="0" />
  </g>
</svg>
