<?xml version="1.0" encoding="UTF-8" standalone="no"?>
<!-- Created with Inkscape (http://www.inkscape.org/) -->

<svg xmlns:dc="http://purl.org/dc/elements/1.1/" xmlns:cc="http://creativecommons.org/ns#" xmlns:rdf="http://www.w3.org/1999/02/22-rdf-syntax-ns#" xmlns:svg="http://www.w3.org/2000/svg" xmlns="http://www.w3.org/2000/svg" xmlns:sodipodi="http://sodipodi.sourceforge.net/DTD/sodipodi-0.dtd" xmlns:inkscape="http://www.inkscape.org/namespaces/inkscape" width="24.000002" height="24" viewBox="0 0 24.000002 24" version="1.1" id="main" inkscape:version="0.92+devel (f318dbfe43, 2017-10-09, custom)" sodipodi:docname="lastmoves.svg">
  <defs id="ol-defs" />
  <sodipodi:namedview id="base" pagecolor="#002466" bordercolor="#ffffff" borderopacity="0.30" inkscape:pageopacity="1" inkscape:pageshadow="2" inkscape:zoom="13.140625" inkscape:document-units="px" inkscape:current-layer="main" inkscape:document-rotation="0" showgrid="false" inkscape:showpageshadow="false" borderlayer="true" inkscape:window-width="1920" inkscape:window-height="1027" inkscape:window-x="0" inkscape:window-y="24" inkscape:window-maximized="1" units="px" inkscape:cx="6.7489002" inkscape:cy="8.0269056" />
  <metadata id="metadata5">
    <rdf:RDF>
      <cc:Work rdf:about="">
        <dc:format>image/svg+xml</dc:format>
        <dc:type rdf:resource="http://purl.org/dc/dcmitype/StillImage" />
        <dc:title></dc:title>
      </cc:Work>
    </rdf:RDF>
  </metadata>
  <g id="g844" inkscape:label="#lastmoves" style="stroke:none;stroke-width:0.66666669" transform="scale(1.5)">
    <path style="fill:none;stroke:none;stroke-width:0.66666669" d="M -5.5000004e-8,-4.9999999e-8 H 16.000001 V 16 H -5.5000004e-8 Z" id="boundary" inkscape:label="#boundary" inkscape:connector-curvature="0" />
    <path inkscape:label="#" inkscape:connector-curvature="0" id="rect838" d="M 3.5996093,2 C 2.7132093,2 2,2.7151625 2,3.6015625 V 12.400391 C 1.9999999,13.286791 2.7132093,14 3.5996093,14 H 12.400391 C 13.286791,14 14,13.286791 14,12.400391 V 3.6015625 C 14,2.7151625 13.286791,2 12.400391,2 Z M 7.1875,3.9726562 7.1503906,5.4785156 A 5.4981991,5.6610259 56.858638 0 1 11.546875,9.4375 a 5.4981991,5.6610259 56.858638 0 1 0.05469,2.470703 5.4981991,5.6610259 56.858638 0 0 -0.01758,-0.08789 A 5.4981991,5.6610259 56.858638 0 0 7.0898437,7.8457031 L 7.0429687,9.785156 5.4121093,8.2871094 3.78125,6.7890625 5.484375,5.3808594 Z" style="opacity:0.6;fill:#d0d0d0;stroke:none;stroke-width:1;stroke-linecap:round" />
  </g>
</svg>
