<?xml version="1.0" encoding="UTF-8" standalone="no"?>
<!-- Created with Inkscape (http://www.inkscape.org/) -->

<svg xmlns:dc="http://purl.org/dc/elements/1.1/" xmlns:cc="http://creativecommons.org/ns#" xmlns:rdf="http://www.w3.org/1999/02/22-rdf-syntax-ns#" xmlns:svg="http://www.w3.org/2000/svg" xmlns="http://www.w3.org/2000/svg" xmlns:sodipodi="http://sodipodi.sourceforge.net/DTD/sodipodi-0.dtd" xmlns:inkscape="http://www.inkscape.org/namespaces/inkscape" width="24.000002" height="24" viewBox="0 0 24.000002 24" version="1.1" id="main" inkscape:version="0.92+devel (d87c943c36, 2017-10-04, custom)" sodipodi:docname="mail-thread-watch.svg">
  <defs id="ol-defs" />
  <sodipodi:namedview id="base" pagecolor="#002466" bordercolor="#ffffff" borderopacity="0.30" inkscape:pageopacity="1" inkscape:pageshadow="2" inkscape:zoom="13.140625" inkscape:document-units="px" inkscape:current-layer="main" inkscape:document-rotation="0" showgrid="false" inkscape:showpageshadow="false" borderlayer="true" inkscape:window-width="1920" inkscape:window-height="1029" inkscape:window-x="0" inkscape:window-y="22" inkscape:window-maximized="1" units="px" inkscape:cx="6.7489002" inkscape:cy="8.0269056" />
  <metadata id="metadata5">
    <rdf:RDF>
      <cc:Work rdf:about="">
        <dc:format>image/svg+xml</dc:format>
        <dc:type rdf:resource="http://purl.org/dc/dcmitype/StillImage" />
        <dc:title></dc:title>
      </cc:Work>
    </rdf:RDF>
  </metadata>
  <g id="g843" inkscape:label="#mail-thread-watch" style="stroke:none;stroke-width:0.66666669" transform="scale(1.5)">
    <path style="fill:none;stroke:none;stroke-width:0.66666669" d="M -5.5000004e-8,-4.9999999e-8 H 16.000001 V 16 H -5.5000004e-8 Z" id="boundary" inkscape:label="#boundary" inkscape:connector-curvature="0" />
    <path inkscape:label="#" inkscape:connector-curvature="0" id="rect812" d="M 3.1992188,2 C 2.5344187,2 2,2.5344187 2,3.1992188 V 12.800781 C 2,13.465581 2.5344187,14 3.1992188,14 H 12.800781 C 13.465581,14 14,13.465581 14,12.800781 V 3.1992188 C 14,2.5344187 13.465581,2 12.800781,2 Z M 8,5.4921875 C 10.421106,5.4921875 12.384766,8 12.384766,8 12.384766,8 10.421104,10.507812 8,10.507812 5.5788949,10.507812 3.6152344,8 3.6152344,8 3.6152344,8 5.5788947,5.4921875 8,5.4921875 Z M 8,6.2773438 A 1.7232036,1.7232036 0 0 0 6.2773438,8 1.7232036,1.7232036 0 0 0 8,9.7226562 1.7232036,1.7232036 0 0 0 9.7226562,8 1.7232036,1.7232036 0 0 0 8,6.2773438 Z" style="opacity:0.6;fill:#d0d0d0;stroke:none;stroke-width:0.59999996" />
  </g>
</svg>
