<?xml version="1.0" encoding="UTF-8" standalone="no"?>
<!-- Created with Inkscape (http://www.inkscape.org/) -->

<svg
   xmlns:dc="http://purl.org/dc/elements/1.1/"
   xmlns:cc="http://creativecommons.org/ns#"
   xmlns:rdf="http://www.w3.org/1999/02/22-rdf-syntax-ns#"
   xmlns:svg="http://www.w3.org/2000/svg"
   xmlns="http://www.w3.org/2000/svg"
   xmlns:sodipodi="http://sodipodi.sourceforge.net/DTD/sodipodi-0.dtd"
   xmlns:inkscape="http://www.inkscape.org/namespaces/inkscape"
   width="24.000002"
   height="24"
   viewBox="0 0 24.000002 24"
   version="1.1"
   id="main"
   inkscape:version="0.92+devel (df5ad324d0, 2017-09-05, custom)"
   sodipodi:docname="media-repeat-track-amarok.svg">
  <defs
     id="ol-defs" />
  <sodipodi:namedview
     id="base"
     pagecolor="#002466"
     bordercolor="#ffffff"
     borderopacity="0.30"
     inkscape:pageopacity="1"
     inkscape:pageshadow="2"
     inkscape:zoom="37.1673"
     inkscape:document-units="px"
     inkscape:current-layer="main"
     inkscape:document-rotation="0"
     showgrid="false"
     inkscape:showpageshadow="false"
     borderlayer="true"
     inkscape:window-width="1920"
     inkscape:window-height="1025"
     inkscape:window-x="0"
     inkscape:window-y="26"
     inkscape:window-maximized="1"
     units="px"
     inkscape:cx="7.959642"
     inkscape:cy="8.0000001" />
  <metadata
     id="metadata5">
    <rdf:RDF>
      <cc:Work
         rdf:about="">
        <dc:format>image/svg+xml</dc:format>
        <dc:type
           rdf:resource="http://purl.org/dc/dcmitype/StillImage" />
        <dc:title></dc:title>
      </cc:Work>
    </rdf:RDF>
  </metadata>
  <g
     id="g848"
     inkscape:label="#media-repeat-track-amarok"
     transform="scale(1.5)"
     style="stroke-width:0.66666669">
    <path
       style="fill:none;stroke:none;stroke-width:0.66666669"
       d="M -5.5000004e-8,-4.9999999e-8 H 16.000001 V 16 H -5.5000004e-8 Z"
       id="boundary"
       inkscape:label="#boundary"
       inkscape:connector-curvature="0" />
    <path
       inkscape:label="#"
       sodipodi:nodetypes="sssssssssccsssccscsccccccssscccccsssc"
       inkscape:connector-curvature="0"
       id="rect812"
       d="M 3.199707,2 C 2.534907,2 2,2.534907 2,3.199707 v 9.600586 C 2,13.465093 2.534907,14 3.199707,14 h 9.600586 C 13.465093,14 14,13.465093 14,12.800293 V 3.199707 C 14,2.534907 13.465093,2 12.800293,2 Z m 4.7473628,2.7541301 v 0.5651084 h 2.1467882 c 1.429782,0 2.601367,1.1715851 2.601367,2.6013661 V 8.080952 c 0,0.653543 -0.04136,0.806051 -0.353387,1.327927 L 11.228746,8.741024 C 11.385023,8.479642 11.393763,8.415888 11.393763,8.080952 V 7.9206046 C 11.393764,7.1878537 10.82661,6.6175864 10.093858,6.6175864 H 7.9470698 V 7.1826946 L 5.9310499,5.9684124 Z M 3.798272,6.3965247 4.9689647,7.0254607 C 4.8195333,7.2523933 4.6062368,7.6220596 4.6062368,7.9206046 V 8.080952 c 0,0.732751 0.5671539,1.303018 1.2999047,1.303018 H 8.0529302 V 8.817305 L 10.328931,10.031587 8.0529302,11.24587 V 10.682318 H 5.9061415 c -1.4297809,0 -2.6013662,-1.171585 -2.6013662,-2.601366 V 7.9206046 c 0,-0.5825363 0.1948404,-1.0705284 0.4934967,-1.5240799 z"
       style="opacity:0.6;fill:#d0d0d0;stroke-width:1.7553333;stroke-linecap:square" />
  </g>
</svg>
