<?xml version="1.0" encoding="UTF-8" standalone="no"?>
<!-- Created with Inkscape (http://www.inkscape.org/) -->

<svg
   xmlns:dc="http://purl.org/dc/elements/1.1/"
   xmlns:cc="http://creativecommons.org/ns#"
   xmlns:rdf="http://www.w3.org/1999/02/22-rdf-syntax-ns#"
   xmlns:svg="http://www.w3.org/2000/svg"
   xmlns="http://www.w3.org/2000/svg"
   xmlns:sodipodi="http://sodipodi.sourceforge.net/DTD/sodipodi-0.dtd"
   xmlns:inkscape="http://www.inkscape.org/namespaces/inkscape"
   width="24.000002"
   height="24"
   viewBox="0 0 24.000002 24"
   version="1.1"
   id="main"
   inkscape:version="0.92+devel (df5ad324d0, 2017-09-05, custom)"
   sodipodi:docname="meeting-participant-no-response.svg">
  <defs
     id="ol-defs" />
  <sodipodi:namedview
     id="base"
     pagecolor="#002466"
     bordercolor="#ffffff"
     borderopacity="0.30"
     inkscape:pageopacity="1"
     inkscape:pageshadow="2"
     inkscape:zoom="37.1673"
     inkscape:document-units="px"
     inkscape:current-layer="main"
     inkscape:document-rotation="0"
     showgrid="false"
     inkscape:showpageshadow="false"
     borderlayer="true"
     inkscape:window-width="1920"
     inkscape:window-height="1025"
     inkscape:window-x="0"
     inkscape:window-y="26"
     inkscape:window-maximized="1"
     units="px"
     inkscape:cx="7.9596421"
     inkscape:cy="8.0000002" />
  <metadata
     id="metadata5">
    <rdf:RDF>
      <cc:Work
         rdf:about="">
        <dc:format>image/svg+xml</dc:format>
        <dc:type
           rdf:resource="http://purl.org/dc/dcmitype/StillImage" />
        <dc:title></dc:title>
      </cc:Work>
    </rdf:RDF>
  </metadata>
  <g
     id="g902"
     inkscape:label="#meeting-participant-no-response"
     transform="scale(1.5)"
     style="stroke-width:0.66666669">
    <path
       style="fill:none;stroke:none;stroke-width:0.66666669"
       d="M -5.5000004e-8,-4.9999999e-8 H 16.000001 V 16 H -5.5000004e-8 Z"
       id="boundary"
       inkscape:label="#boundary"
       inkscape:connector-curvature="0" />
    <path
       inkscape:label="#"
       id="path1400"
       d="m 8,2 c -1.2317558,2.368e-4 -2.230232,0.998713 -2.2304688,2.2304688 -1.245e-4,1.1412885 0.8611443,2.0986284 1.9960938,2.21875 -1.7515844,0.087389 -3.3557336,1.2079903 -4.25,3.0058593 V 14 h 8.96875 V 9.5546875 C 11.604554,7.7074452 9.982288,6.5449582 8.203125,6.4492188 9.3504502,6.3440959 10.229001,5.3825989 10.230469,4.2304688 10.230232,2.9987129 9.2317559,2.0002367 8,2 Z m 0,7.8339472 c 0.9321566,0 1.6879278,0.7557708 1.6879278,1.6879278 0,0.932156 -0.7557712,1.687928 -1.6879278,1.687928 -0.9321555,0 -1.6879278,-0.755772 -1.6879278,-1.687928 C 6.3120722,10.589718 7.0678445,9.8339472 8,9.8339472 Z M 6.913252,11.186602 v 0.671991 h 2.173496 v -0.671991 z"
       style="fill:#ff0000;stroke-width:2.51968503"
       inkscape:connector-curvature="0"
       sodipodi:nodetypes="ccccccccccsssssccccc" />
  </g>
</svg>
