<?xml version="1.0" encoding="UTF-8" standalone="no"?>
<!-- Created with Inkscape (http://www.inkscape.org/) -->

<svg
   xmlns:dc="http://purl.org/dc/elements/1.1/"
   xmlns:cc="http://creativecommons.org/ns#"
   xmlns:rdf="http://www.w3.org/1999/02/22-rdf-syntax-ns#"
   xmlns:svg="http://www.w3.org/2000/svg"
   xmlns="http://www.w3.org/2000/svg"
   xmlns:sodipodi="http://sodipodi.sourceforge.net/DTD/sodipodi-0.dtd"
   xmlns:inkscape="http://www.inkscape.org/namespaces/inkscape"
   width="24"
   height="24"
   viewBox="0 0 6.3499997 6.3499997"
   version="1.1"
   id="svg8"
   inkscape:version="0.92+devel (7f3bd2b258, 2017-08-07, custom)"
   sodipodi:docname="merge.svg">
  <defs
     id="defs2" />
  <sodipodi:namedview
     id="base"
     pagecolor="#002466"
     bordercolor="#ffffff"
     borderopacity="0.38039216"
     inkscape:pageopacity="1"
     inkscape:pageshadow="2"
     inkscape:zoom="17.854446"
     inkscape:cx="10.655492"
     inkscape:cy="4.1964842"
     inkscape:document-units="px"
     inkscape:current-layer="svg8"
     inkscape:document-rotation="0"
     showgrid="false"
     inkscape:showpageshadow="false"
     borderlayer="true"
     inkscape:window-width="1920"
     inkscape:window-height="1027"
     inkscape:window-x="0"
     inkscape:window-y="24"
     inkscape:window-maximized="1"
     units="px" />
  <metadata
     id="metadata5">
    <rdf:RDF>
      <cc:Work
         rdf:about="">
        <dc:format>image/svg+xml</dc:format>
        <dc:type
           rdf:resource="http://purl.org/dc/dcmitype/StillImage" />
        <dc:title></dc:title>
      </cc:Work>
    </rdf:RDF>
  </metadata>
  <g
     id="g839"
     inkscape:label="#merge"
     transform="scale(1.5)">
    <path
       inkscape:label="#boundary"
       inkscape:connector-curvature="0"
       id="rect811"
       d="M 0,0 H 4.2333332 V 4.2333332 H 0 Z"
       style="fill:none;stroke-width:0.25454992;stroke-linecap:round" />
    <path
       inkscape:label="#"
       inkscape:connector-curvature="0"
       id="rect814"
       d="m 2.1164639,0.7173975 v 0.9328462 h 1.5046297 c 0.045977,0 0.083073,-0.037095 0.083073,-0.083073 V 0.8004702 c 0,-0.045977 -0.037095,-0.083073 -0.083073,-0.083073 z m 0,0.9328462 H 0.61223933 c -0.0459773,0 -0.0830727,0.037096 -0.0830727,0.083073 v 0.7667008 c 0,0.045978 0.0370959,0.083073 0.0830727,0.083073 H 2.1164639 Z m 0,0.9328461 V 3.515936 h 1.5046297 c 0.045977,0 0.083073,-0.037095 0.083073,-0.083073 V 2.6661626 c 0,-0.045977 -0.037095,-0.083073 -0.083073,-0.083073 z"
       style="opacity:0.6;fill:#d0d0d0;stroke-width:0.33196688" />
    <path
       inkscape:label="#"
       id="path828"
       d="M 1.8498207,0.8426144 1.3525998,1.1299246 1.8498207,1.4172347 Z m 0.5304499,0.9535131 v 0.574215 L 2.8778965,2.0834376 Z M 1.8498207,2.7500458 1.3525998,3.0369506 1.8498207,3.3242608 Z"
       style="fill:#00ff00;stroke-width:0.44348654"
       inkscape:connector-curvature="0" />
  </g>
</svg>
