<?xml version="1.0" encoding="UTF-8" standalone="no"?>
<!-- Created with Inkscape (http://www.inkscape.org/) -->

<svg xmlns:dc="http://purl.org/dc/elements/1.1/" xmlns:cc="http://creativecommons.org/ns#" xmlns:rdf="http://www.w3.org/1999/02/22-rdf-syntax-ns#" xmlns:svg="http://www.w3.org/2000/svg" xmlns="http://www.w3.org/2000/svg" xmlns:sodipodi="http://sodipodi.sourceforge.net/DTD/sodipodi-0.dtd" xmlns:inkscape="http://www.inkscape.org/namespaces/inkscape" width="24.000002" height="24" viewBox="0 0 24.000002 24" version="1.1" id="main" inkscape:version="0.92+devel (8ef6761023, 2017-10-07, custom)" sodipodi:docname="newimplicit.svg">
  <defs id="ol-defs" />
  <sodipodi:namedview id="base" pagecolor="#002466" bordercolor="#ffffff" borderopacity="0.30" inkscape:pageopacity="1" inkscape:pageshadow="2" inkscape:zoom="9.291825" inkscape:document-units="px" inkscape:current-layer="main" inkscape:document-rotation="0" showgrid="false" inkscape:showpageshadow="false" borderlayer="true" inkscape:window-width="1920" inkscape:window-height="1029" inkscape:window-x="0" inkscape:window-y="22" inkscape:window-maximized="1" units="px" inkscape:cx="9.4800746" inkscape:cy="6.2857648" />
  <metadata id="metadata5">
    <rdf:RDF>
      <cc:Work rdf:about="">
        <dc:format>image/svg+xml</dc:format>
        <dc:type rdf:resource="http://purl.org/dc/dcmitype/StillImage" />
        <dc:title></dc:title>
      </cc:Work>
    </rdf:RDF>
  </metadata>
  <g id="g864" inkscape:label="#newimplicit" style="stroke:none;stroke-width:0.66666669" transform="scale(1.5)">
    <path style="fill:none;stroke:none;stroke-width:0.66666669" d="M -5.5000004e-8,-4.9999999e-8 H 16.000001 V 16 H -5.5000004e-8 Z" id="boundary" inkscape:label="#boundary" inkscape:connector-curvature="0" />
    <path inkscape:connector-curvature="0" id="rect811" d="m 7.5898439,1.9999999 -1.31836,2.283203 h 0.81836 v 3.658203 H 2 v 1 H 7.0898439 V 14 h 1 V 8.9414059 h 3.6269531 v 0.81836 L 14,8.4414059 11.716797,7.1230469 v 0.818359 H 8.0898439 v -3.658203 h 0.818359 z" style="opacity:0.4;fill:#d0d0d0;stroke:none;stroke-width:0.5999999" inkscape:label="#" />
    <path id="path852" d="M 3.2558594,3.9355469 A 0.34999999,0.34999999 0 0 0 2.9394531,4.1601562 0.34999999,0.34999999 0 0 0 3.1425781,4.6113281 C 4.634611,5.1825321 5.6542076,6.7371442 5.65625,8.5 5.65421,10.262856 4.6346108,11.817469 3.1425781,12.388672 a 0.34999999,0.34999999 0 0 0 -0.203125,0.451172 0.34999999,0.34999999 0 0 0 0.453125,0.201172 C 5.1788976,12.357149 6.3550672,10.532436 6.3574219,8.5 6.3550671,6.4675644 5.1788973,4.6428518 3.3925781,3.9589844 A 0.34999999,0.34999999 0 0 0 3.2558594,3.9355469 Z m 8.7148436,0 A 0.34999999,0.34999999 0 0 0 11.84375,3.9589844 C 10.057431,4.6428518 8.8832141,6.4675644 8.8808594,8.5 c 0.00235,2.032436 1.1765716,3.857149 2.9628906,4.541016 a 0.34999999,0.34999999 0 0 0 0.453125,-0.201172 0.34999999,0.34999999 0 0 0 -0.201172,-0.451172 C 10.60367,11.817469 9.5821205,10.262856 9.5800781,8.5 9.5821206,6.7371442 10.60367,5.1825321 12.095703,4.6113281 A 0.34999999,0.34999999 0 0 0 12.296875,4.1601562 0.34999999,0.34999999 0 0 0 11.970703,3.9355469 Z" style="color:#000000;font-style:normal;font-variant:normal;font-weight:normal;font-stretch:normal;font-size:medium;line-height:normal;font-family:sans-serif;font-variant-ligatures:normal;font-variant-position:normal;font-variant-caps:normal;font-variant-numeric:normal;font-variant-alternates:normal;font-variant-east-asian:normal;font-feature-settings:normal;font-variation-settings:normal;text-indent:0;text-align:start;text-decoration:none;text-decoration-line:none;text-decoration-style:solid;text-decoration-color:#000000;letter-spacing:normal;word-spacing:normal;text-transform:none;writing-mode:lr-tb;direction:ltr;text-orientation:mixed;dominant-baseline:auto;baseline-shift:baseline;text-anchor:start;white-space:normal;shape-padding:0;clip-rule:nonzero;display:inline;overflow:visible;visibility:visible;opacity:1;isolation:auto;mix-blend-mode:normal;color-interpolation:sRGB;color-interpolation-filters:linearRGB;solid-color:#000000;solid-opacity:1;vector-effect:none;fill:#00ff00;fill-opacity:1;fill-rule:nonzero;stroke:none;stroke-width:0.46666667;stroke-linecap:round;stroke-linejoin:miter;stroke-miterlimit:4;stroke-dasharray:none;stroke-dashoffset:0;stroke-opacity:1;color-rendering:auto;image-rendering:auto;shape-rendering:auto;text-rendering:auto;enable-background:accumulate" inkscape:connector-curvature="0" inkscape:label="#" />
  </g>
</svg>
