<?xml version="1.0" encoding="UTF-8" standalone="no"?>
<svg
   xmlns:dc="http://purl.org/dc/elements/1.1/"
   xmlns:cc="http://creativecommons.org/ns#"
   xmlns:rdf="http://www.w3.org/1999/02/22-rdf-syntax-ns#"
   xmlns:svg="http://www.w3.org/2000/svg"
   xmlns="http://www.w3.org/2000/svg"
   xmlns:sodipodi="http://sodipodi.sourceforge.net/DTD/sodipodi-0.dtd"
   xmlns:inkscape="http://www.inkscape.org/namespaces/inkscape"
   height="24"
   viewBox="0 0 24 24"
   width="24"
   version="1.1"
   id="svg4"
   sodipodi:docname="node.svg"
   inkscape:version="0.92+devel (1c31310676, 2017-09-09, custom)">
  <metadata
     id="metadata10">
    <rdf:RDF>
      <cc:Work
         rdf:about="">
        <dc:format>image/svg+xml</dc:format>
        <dc:type
           rdf:resource="http://purl.org/dc/dcmitype/StillImage" />
        <dc:title></dc:title>
      </cc:Work>
    </rdf:RDF>
  </metadata>
  <defs
     id="defs8">
    <style
       id="current-color-scheme"
       type="text/css">
      .ColorScheme-Text {
        color:#f2f2f2;
      }
      </style>
  </defs>
  <sodipodi:namedview
     pagecolor="#002466"
     bordercolor="#ffffff"
     inkscape:document-rotation="0"
     borderopacity="0.13333333"
     objecttolerance="10"
     gridtolerance="10"
     guidetolerance="10"
     inkscape:pageopacity="0"
     inkscape:pageshadow="2"
     inkscape:window-width="1920"
     inkscape:window-height="1027"
     id="namedview6"
     showgrid="false"
     borderlayer="true"
     inkscape:showpageshadow="false"
     inkscape:zoom="16.241359"
     inkscape:cx="7.847619"
     inkscape:cy="8.0000002"
     inkscape:window-x="0"
     inkscape:window-y="24"
     inkscape:window-maximized="1"
     inkscape:current-layer="svg4" />
  <g
     id="g841"
     inkscape:label="#node"
     transform="scale(1.5)"
     style="stroke-width:0.66666669">
    <path
       inkscape:connector-curvature="0"
       inkscape:label="#boundary"
       style="stroke:none"
       id="path2"
       stroke-width=".25455"
       stroke-linecap="round"
       fill="none"
       d="M 0,-4.9999999e-8 H 16 V 16 H 0 Z" />
    <path
       style="opacity:0.6;fill:#d0d0d0;fill-opacity:1;stroke:none;stroke-width:0.66666669"
       d="m 5.3046743,2.0000012 c 0.00997,-0.0023 -3.3046872,3.3124997 -3.3046872,3.3124997 V 6.000001 13.3125 14 h 0.6875 7.3124994 0.6874995 c 0,0 3.32345,-3.282654 3.3125,-3.28125 V 10 2.0000012 H 5.9999867 Z m 0.6953124,0.9999999 h 6.2812493 c -0.833338,0.8443302 -1.627194,1.6611777 -1.96875,1.9999998 H 5.9999867 Z M 4.9999868,3.718751 V 5.0000009 H 3.687487 Z m 7.9999992,0 V 10 h -2 V 6.000001 5.6875009 Z m -9.999999,2.28125 h 1.9999998 v 4.281249 l -0.34375,0.375 -1.6562498,1.65625 z m 2.9999997,0 H 9.9999865 V 10 H 5.9999867 Z M 5.7187367,11 h 4.2812498 v 2 H 3.687487 l 1.6562498,-1.656249 z m 5.2812493,0 h 1.28125 c -0.544632,0.551816 -0.735567,0.761999 -1.28125,1.3125 z"
       class="ColorScheme-Text"
       id="path4"
       inkscape:label="#"
       inkscape:connector-curvature="0" />
  </g>
</svg>
