<?xml version="1.0" encoding="UTF-8" standalone="no"?>
<!-- Created with Inkscape (http://www.inkscape.org/) -->

<svg
   xmlns:dc="http://purl.org/dc/elements/1.1/"
   xmlns:cc="http://creativecommons.org/ns#"
   xmlns:rdf="http://www.w3.org/1999/02/22-rdf-syntax-ns#"
   xmlns:svg="http://www.w3.org/2000/svg"
   xmlns="http://www.w3.org/2000/svg"
   xmlns:sodipodi="http://sodipodi.sourceforge.net/DTD/sodipodi-0.dtd"
   xmlns:inkscape="http://www.inkscape.org/namespaces/inkscape"
   width="24"
   height="24"
   viewBox="0 0 6.3499997 6.3500003"
   version="1.1"
   id="svg8"
   inkscape:version="0.92+devel 15740 custom"
   sodipodi:docname="object-tweak-shrink.svg">
  <defs
     id="defs2">
    <style
       id="current-color-scheme">      .ColorScheme-Text {
        color:#d0d0d0;
        stop-color:#d0d0d0;
      }
      .ColorScheme-Background {
        color:#212121;
        stop-color:#212121;
      }
      .ColorScheme-Highlight {
        color:#0039a9;
        stop-color:#0039a9;
      }
      .ColorScheme-ViewText {
        color:#d0d0d0;
        stop-color:#d0d0d0;
      }
      .ColorScheme-ViewBackground {
        color:#19191b;
        stop-color:#19191b;
      }
      .ColorScheme-ViewHover {
        color:#005cc7;
        stop-color:#005cc7;
      }
      .ColorScheme-ViewFocus{
        color:#002466;
        stop-color:#002466;
      }
      .ColorScheme-ButtonText {
        color:#d0d0d0;
        stop-color:#d0d0d0;
      }
      .ColorScheme-ButtonBackground {
        color:#232323;
        stop-color:#232323;                             
      }                                                 
      .ColorScheme-ButtonHover {                        
        color:#005cc7;                                  
        stop-color:#005cc7;                             
      }                                                 
      .ColorScheme-ButtonFocus{                         
        color:#0039a9;                                  
        stop-color:#0039a9;                             
      }</style>
    <style
       id="current-color-scheme-7">      .ColorScheme-Text {
        color:#d0d0d0;
        stop-color:#d0d0d0;
      }
      .ColorScheme-Background {
        color:#212121;
        stop-color:#212121;
      }
      .ColorScheme-Highlight {
        color:#0039a9;
        stop-color:#0039a9;
      }
      .ColorScheme-ViewText {
        color:#d0d0d0;
        stop-color:#d0d0d0;
      }
      .ColorScheme-ViewBackground {
        color:#19191b;
        stop-color:#19191b;
      }
      .ColorScheme-ViewHover {
        color:#005cc7;
        stop-color:#005cc7;
      }
      .ColorScheme-ViewFocus{
        color:#002466;
        stop-color:#002466;
      }
      .ColorScheme-ButtonText {
        color:#d0d0d0;
        stop-color:#d0d0d0;
      }
      .ColorScheme-ButtonBackground {
        color:#232323;
        stop-color:#232323;                             
      }                                                 
      .ColorScheme-ButtonHover {                        
        color:#005cc7;                                  
        stop-color:#005cc7;                             
      }                                                 
      .ColorScheme-ButtonFocus{                         
        color:#0039a9;                                  
        stop-color:#0039a9;                             
      }</style>
    <style
       id="current-color-scheme-6"
       type="text/css">
      .ColorScheme-Text {
        color:#f2f2f2;
      }
      </style>
  </defs>
  <sodipodi:namedview
     id="base"
     pagecolor="#002466"
     bordercolor="#ffffff"
     borderopacity="0.32156863"
     inkscape:pageopacity="1"
     inkscape:pageshadow="2"
     inkscape:zoom="19.090909"
     inkscape:cx="18.804762"
     inkscape:cy="10.999999"
     inkscape:document-units="px"
     inkscape:current-layer="svg8"
     inkscape:document-rotation="0"
     showgrid="false"
     units="px"
     inkscape:pagecheckerboard="false"
     borderlayer="true"
     inkscape:showpageshadow="false"
     inkscape:window-width="1920"
     inkscape:window-height="1051"
     inkscape:window-x="0"
     inkscape:window-y="0"
     inkscape:window-maximized="1" />
  <metadata
     id="metadata5">
    <rdf:RDF>
      <cc:Work
         rdf:about="">
        <dc:format>image/svg+xml</dc:format>
        <dc:type
           rdf:resource="http://purl.org/dc/dcmitype/StillImage" />
        <dc:title></dc:title>
        <cc:license
           rdf:resource="http://creativecommons.org/licenses/by/4.0/" />
        <dc:creator>
          <cc:Agent>
            <dc:title>PixelPimps &amp; CodePoets</dc:title>
          </cc:Agent>
        </dc:creator>
      </cc:Work>
      <cc:License
         rdf:about="http://creativecommons.org/licenses/by/4.0/">
        <cc:permits
           rdf:resource="http://creativecommons.org/ns#Reproduction" />
        <cc:permits
           rdf:resource="http://creativecommons.org/ns#Distribution" />
        <cc:requires
           rdf:resource="http://creativecommons.org/ns#Notice" />
        <cc:requires
           rdf:resource="http://creativecommons.org/ns#Attribution" />
        <cc:permits
           rdf:resource="http://creativecommons.org/ns#DerivativeWorks" />
      </cc:License>
    </rdf:RDF>
  </metadata>
  <g
     id="g4359"
     transform="scale(0.396875)"
     style="opacity:0.98999999"
     inkscape:label="#object-tweak-shrink">
    <rect
       inkscape:label="#boundary"
       y="0"
       x="0"
       height="16"
       width="16"
       id="rect4264"
       style="vector-effect:none;fill:none;stroke-width:2.18181825;stroke-linecap:round" />
    <path
       inkscape:connector-curvature="0"
       id="ellipse4331"
       d="M 2.8359375,2.0117188 A 0.80290115,0.82650868 0 0 0 2.03125,2.8378906 0.80290115,0.82650868 0 0 0 2.8359375,3.6640625 0.80290115,0.82650868 0 0 0 3.6386719,2.8378906 0.80290115,0.82650868 0 0 0 2.8359375,2.0117188 Z m 2.5820313,0 A 0.80290115,0.82650868 0 0 0 4.6152344,2.8378906 0.80290115,0.82650868 0 0 0 5.4179688,3.6640625 0.80290115,0.82650868 0 0 0 6.2207031,2.8378906 0.80290115,0.82650868 0 0 0 5.4179688,2.0117188 Z M 8,2.0117188 A 0.80290109,0.82650868 0 0 0 7.1972656,2.8378906 0.80290109,0.82650868 0 0 0 8,3.6640625 0.80290109,0.82650868 0 0 0 8.8027344,2.8378906 0.80290109,0.82650868 0 0 0 8,2.0117188 Z m 2.582031,0 A 0.80290109,0.82650868 0 0 0 9.7792969,2.8378906 0.80290109,0.82650868 0 0 0 10.582031,3.6640625 0.80290109,0.82650868 0 0 0 11.384766,2.8378906 0.80290109,0.82650868 0 0 0 10.582031,2.0117188 Z m 2.582031,0 A 0.80290109,0.82650868 0 0 0 12.361328,2.8378906 0.80290109,0.82650868 0 0 0 13.164062,3.6640625 0.80290109,0.82650868 0 0 0 13.96875,2.8378906 0.80290109,0.82650868 0 0 0 13.164062,2.0117188 Z M 2.8535156,4.6152344 A 0.82650868,0.80290109 0 0 0 2.0273438,5.4179688 0.82650868,0.80290109 0 0 0 2.8535156,6.2207031 0.82650868,0.80290109 0 0 0 3.6796875,5.4179688 0.82650868,0.80290109 0 0 0 2.8535156,4.6152344 Z m 10.2929684,0 A 0.82650868,0.80290109 0 0 0 12.320312,5.4179688 0.82650868,0.80290109 0 0 0 13.146484,6.2207031 0.82650868,0.80290109 0 0 0 13.972656,5.4179688 0.82650868,0.80290109 0 0 0 13.146484,4.6152344 Z M 5.4277344,4.96875 A 0.46292695,0.44970444 0 0 0 4.9648438,5.4179688 0.46292695,0.44970444 0 0 0 5.4277344,5.8671875 0.46292695,0.44970444 0 0 0 5.890625,5.4179688 0.46292695,0.44970444 0 0 0 5.4277344,4.96875 Z M 8,4.96875 A 0.46292695,0.44970444 0 0 0 7.5371094,5.4179688 0.46292695,0.44970444 0 0 0 8,5.8671875 0.46292695,0.44970444 0 0 0 8.4628906,5.4179688 0.46292695,0.44970444 0 0 0 8,4.96875 Z m 2.572266,0 A 0.46292695,0.44970444 0 0 0 10.109375,5.4179688 0.46292695,0.44970444 0 0 0 10.572266,5.8671875 0.46292695,0.44970444 0 0 0 11.035156,5.4179688 0.46292695,0.44970444 0 0 0 10.572266,4.96875 Z M 2.8535156,7.1972656 A 0.82650868,0.80290109 0 0 0 2.0273438,8 0.82650868,0.80290109 0 0 0 2.8535156,8.8027344 0.82650868,0.80290109 0 0 0 3.6796875,8 0.82650868,0.80290109 0 0 0 2.8535156,7.1972656 Z m 10.2929684,0 A 0.82650868,0.80290109 0 0 0 12.320312,8 0.82650868,0.80290109 0 0 0 13.146484,8.8027344 0.82650868,0.80290109 0 0 0 13.972656,8 0.82650868,0.80290109 0 0 0 13.146484,7.1972656 Z M 5.4179688,7.5371094 A 0.44970447,0.46292695 0 0 0 4.96875,8 0.44970447,0.46292695 0 0 0 5.4179688,8.4628906 0.44970447,0.46292695 0 0 0 5.8671875,8 0.44970447,0.46292695 0 0 0 5.4179688,7.5371094 Z M 10.53125,7.5507812 A 0.46292695,0.44970444 0 0 0 10.101562,8 0.46292695,0.44970444 0 0 0 10.564453,8.4492188 0.46292695,0.44970444 0 0 0 11.027344,8 0.46292695,0.44970444 0 0 0 10.564453,7.5507812 a 0.46292695,0.44970444 0 0 0 -0.0332,0 z M 7.9511719,7.7148438 A 0.29450747,0.28609539 0 0 0 7.6855469,8 0.29450747,0.28609539 0 0 0 7.9804688,8.2851562 0.29450747,0.28609539 0 0 0 8.2753906,8 0.29450747,0.28609539 0 0 0 7.9804688,7.7148438 a 0.29450747,0.28609539 0 0 0 -0.029297,0 z M 2.8535156,9.7792969 A 0.82650868,0.80290115 0 0 0 2.0273438,10.582031 0.82650868,0.80290115 0 0 0 2.8535156,11.384766 0.82650868,0.80290115 0 0 0 3.6796875,10.582031 0.82650868,0.80290115 0 0 0 2.8535156,9.7792969 Z m 10.2929684,0 a 0.82650868,0.80290115 0 0 0 -0.826172,0.8027341 0.82650868,0.80290115 0 0 0 0.826172,0.802735 0.82650868,0.80290115 0 0 0 0.826172,-0.802735 0.82650868,0.80290115 0 0 0 -0.826172,-0.8027341 z M 8,10.119141 A 0.44970444,0.46292695 0 0 0 7.5507812,10.582031 0.44970444,0.46292695 0 0 0 8,11.044922 0.44970444,0.46292695 0 0 0 8.4492188,10.582031 0.44970444,0.46292695 0 0 0 8,10.119141 Z m -2.5644531,0.01367 a 0.46292695,0.44970447 0 0 0 -0.4628907,0.44922 0.46292695,0.44970447 0 0 0 0.4628907,0.449219 0.46292695,0.44970447 0 0 0 0.4628906,-0.449219 0.46292695,0.44970447 0 0 0 -0.4628906,-0.44922 z m 5.1289061,0 a 0.46292695,0.44970447 0 0 0 -0.462891,0.449219 0.46292695,0.44970447 0 0 0 0.462891,0.449219 0.46292695,0.44970447 0 0 0 0.462891,-0.449219 0.46292695,0.44970447 0 0 0 -0.462891,-0.449219 z M 2.8359375,12.335938 A 0.80290115,0.82650868 0 0 0 2.03125,13.162109 0.80290115,0.82650868 0 0 0 2.8359375,13.988281 0.80290115,0.82650868 0 0 0 3.6386719,13.162109 0.80290115,0.82650868 0 0 0 2.8359375,12.335938 Z m 2.5820313,0 A 0.80290115,0.82650868 0 0 0 4.6152344,13.162109 0.80290115,0.82650868 0 0 0 5.4179688,13.988281 0.80290115,0.82650868 0 0 0 6.2207031,13.162109 0.80290115,0.82650868 0 0 0 5.4179688,12.335938 Z M 8,12.335938 A 0.80290109,0.82650868 0 0 0 7.1972656,13.162109 0.80290109,0.82650868 0 0 0 8,13.988281 0.80290109,0.82650868 0 0 0 8.8027344,13.162109 0.80290109,0.82650868 0 0 0 8,12.335938 Z m 2.582031,0 a 0.80290109,0.82650868 0 0 0 -0.8027341,0.826171 0.80290109,0.82650868 0 0 0 0.8027341,0.826172 0.80290109,0.82650868 0 0 0 0.802735,-0.826172 0.80290109,0.82650868 0 0 0 -0.802735,-0.826171 z m 2.582031,0 a 0.80290109,0.82650868 0 0 0 -0.802734,0.826171 0.80290109,0.82650868 0 0 0 0.802734,0.826172 0.80290109,0.82650868 0 0 0 0.804688,-0.826172 0.80290109,0.82650868 0 0 0 -0.804688,-0.826171 z"
       style="opacity:0.6;fill:#d0d0d0;stroke:none;stroke-width:0.26136729;stroke-linecap:square"
       inkscape:label="#1" />
  </g>
</svg>
