<?xml version="1.0" encoding="UTF-8" standalone="no"?>
<!-- Created with Inkscape (http://www.inkscape.org/) -->

<svg
   xmlns:dc="http://purl.org/dc/elements/1.1/"
   xmlns:cc="http://creativecommons.org/ns#"
   xmlns:rdf="http://www.w3.org/1999/02/22-rdf-syntax-ns#"
   xmlns:svg="http://www.w3.org/2000/svg"
   xmlns="http://www.w3.org/2000/svg"
   xmlns:sodipodi="http://sodipodi.sourceforge.net/DTD/sodipodi-0.dtd"
   xmlns:inkscape="http://www.inkscape.org/namespaces/inkscape"
   width="24"
   height="24"
   viewBox="0 0 24 24"
   version="1.1"
   id="svg8"
   inkscape:version="0.92+devel 15740 custom"
   sodipodi:docname="object-tweak-randomize.svg">
  <defs
     id="ol-defs">
    <style
       id="current-color-scheme">      .ColorScheme-Text {
        color:#d0d0d0;
        stop-color:#d0d0d0;
      }
      .ColorScheme-Background {
        color:#212121;
        stop-color:#212121;
      }
      .ColorScheme-Highlight {
        color:#0039a9;
        stop-color:#0039a9;
      }
      .ColorScheme-ViewText {
        color:#d0d0d0;
        stop-color:#d0d0d0;
      }
      .ColorScheme-ViewBackground {
        color:#19191b;
        stop-color:#19191b;
      }
      .ColorScheme-ViewHover {
        color:#005cc7;
        stop-color:#005cc7;
      }
      .ColorScheme-ViewFocus{
        color:#002466;
        stop-color:#002466;
      }
      .ColorScheme-ButtonText {
        color:#d0d0d0;
        stop-color:#d0d0d0;
      }
      .ColorScheme-ButtonBackground {
        color:#232323;
        stop-color:#232323;                             
      }                                                 
      .ColorScheme-ButtonHover {                        
        color:#005cc7;                                  
        stop-color:#005cc7;                             
      }                                                 
      .ColorScheme-ButtonFocus{                         
        color:#0039a9;                                  
        stop-color:#0039a9;                             
      }</style>
    <style
       id="current-color-scheme-7">      .ColorScheme-Text {
        color:#d0d0d0;
        stop-color:#d0d0d0;
      }
      .ColorScheme-Background {
        color:#212121;
        stop-color:#212121;
      }
      .ColorScheme-Highlight {
        color:#0039a9;
        stop-color:#0039a9;
      }
      .ColorScheme-ViewText {
        color:#d0d0d0;
        stop-color:#d0d0d0;
      }
      .ColorScheme-ViewBackground {
        color:#19191b;
        stop-color:#19191b;
      }
      .ColorScheme-ViewHover {
        color:#005cc7;
        stop-color:#005cc7;
      }
      .ColorScheme-ViewFocus{
        color:#002466;
        stop-color:#002466;
      }
      .ColorScheme-ButtonText {
        color:#d0d0d0;
        stop-color:#d0d0d0;
      }
      .ColorScheme-ButtonBackground {
        color:#232323;
        stop-color:#232323;                             
      }                                                 
      .ColorScheme-ButtonHover {                        
        color:#005cc7;                                  
        stop-color:#005cc7;                             
      }                                                 
      .ColorScheme-ButtonFocus{                         
        color:#0039a9;                                  
        stop-color:#0039a9;                             
      }</style>
    <style
       type="text/css"
       id="current-color-scheme-6">
      .ColorScheme-Text {
        color:#f2f2f2;
      }
      </style>
  </defs>
  <sodipodi:namedview
     id="base"
     pagecolor="#002266"
     bordercolor="#ffffff"
     borderopacity="0.46666667"
     inkscape:pageopacity="0"
     inkscape:pageshadow="2"
     inkscape:zoom="22.46875"
     inkscape:cx="15.700676"
     inkscape:cy="7.9814781"
     inkscape:document-units="px"
     inkscape:current-layer="svg8"
     inkscape:document-rotation="0"
     showgrid="false"
     inkscape:showpageshadow="false"
     borderlayer="true"
     units="px"
     fit-margin-top="0"
     fit-margin-left="0"
     fit-margin-right="0"
     fit-margin-bottom="0"
     inkscape:window-width="1920"
     inkscape:window-height="1051"
     inkscape:window-x="0"
     inkscape:window-y="0"
     inkscape:window-maximized="1"
     inkscape:snap-page="true"
     guidecolor="#f4ff00"
     guideopacity="0.42745098"
     guidehicolor="#4fff00"
     guidehiopacity="0.49803922" />
  <metadata
     id="metadata5">
    <rdf:RDF>
      <cc:Work
         rdf:about="">
        <dc:format>image/svg+xml</dc:format>
        <dc:type
           rdf:resource="http://purl.org/dc/dcmitype/StillImage" />
        <dc:title></dc:title>
      </cc:Work>
    </rdf:RDF>
  </metadata>
  <g
     id="g4378"
     inkscape:label="object-tweak-randomize"
     transform="scale(1.5)"
     style="stroke-width:0.66666669">
    <path
       inkscape:connector-curvature="0"
       inkscape:label="#1"
       id="ellipse4331"
       d="M 2.7890625,2.1738281 A 0.64574373,0.66473043 0 0 0 2.1894531,2.8378906 0.64574373,0.66473043 0 0 0 2.8359375,3.5019531 0.64574373,0.66473043 0 0 0 3.4804688,2.8378906 0.64574373,0.66473043 0 0 0 2.8359375,2.1738281 a 0.64574373,0.66473043 0 0 0 -0.046875,0 z m 5.1660156,0 A 0.64574367,0.66473043 0 0 0 7.3574219,2.7714844 0.64574367,0.66473043 0 0 0 7.3535156,2.8378906 0.64574367,0.66473043 0 0 0 7.9355469,3.4980469 0.64574367,0.66473043 0 0 0 8,3.5019531 0.64574367,0.66473043 0 0 0 8.6464844,2.8378906 0.64574367,0.66473043 0 0 0 8,2.1738281 a 0.64574367,0.66473043 0 0 0 -0.044922,0 z m 5.1640629,0 a 0.64574367,0.66473043 0 0 0 -0.570313,0.4667969 0.64574367,0.66473043 0 0 0 -0.01758,0.064453 0.64574367,0.66473043 0 0 0 -0.01172,0.1328125 0.64574367,0.66473043 0 0 0 0.002,0.046875 0.64574367,0.66473043 0 0 0 0.0078,0.066406 0.64574367,0.66473043 0 0 0 0.634765,0.5507812 0.64574367,0.66473043 0 0 0 0.646485,-0.6640625 0.64574367,0.66473043 0 0 0 -0.646485,-0.6640625 0.64574367,0.66473043 0 0 0 -0.04492,0 z M 10.568359,2.3984375 A 0.64574367,0.66473043 0 0 0 9.921875,3.0644531 0.64574367,0.66473043 0 0 0 10.568359,3.7285156 0.64574367,0.66473043 0 0 0 11.212891,3.0644531 0.64574367,0.66473043 0 0 0 10.568359,2.3984375 Z m -5.146484,0.1875 A 0.64574373,0.66473043 0 0 0 4.7753906,3.25 0.64574373,0.66473043 0 0 0 5.421875,3.9160156 0.64574373,0.66473043 0 0 0 6.0683594,3.25 0.64574373,0.66473043 0 0 0 5.421875,2.5859375 Z M 9.7109375,4.2480469 A 0.66473043,0.64574367 0 0 0 9.046875,4.8925781 0.66473043,0.64574367 0 0 0 9.7109375,5.5390625 0.66473043,0.64574367 0 0 0 10.375,4.8925781 0.66473043,0.64574367 0 0 0 9.7109375,4.2480469 Z m 2.6992185,0.1875 A 0.66473043,0.64574367 0 0 0 11.744141,5.0820312 0.66473043,0.64574367 0 0 0 12.410156,5.7265625 0.66473043,0.64574367 0 0 0 13.074219,5.0820312 0.66473043,0.64574367 0 0 0 12.410156,4.4355469 Z M 3.0332031,4.6015625 A 0.66473043,0.64574367 0 0 0 2.3691406,5.2460938 0.66473043,0.64574367 0 0 0 3.0332031,5.8925781 0.66473043,0.64574367 0 0 0 3.6992188,5.2460938 0.66473043,0.64574367 0 0 0 3.0332031,4.6015625 Z M 5.4179688,4.7714844 A 0.66473043,0.64574367 0 0 0 4.7519531,5.4179688 0.66473043,0.64574367 0 0 0 5.4179688,6.0625 0.66473043,0.64574367 0 0 0 6.0820312,5.4179688 0.66473043,0.64574367 0 0 0 5.4179688,4.7714844 Z M 7.7089844,5.2539062 A 0.66473043,0.64574367 0 0 0 7.0429688,5.9003906 0.66473043,0.64574367 0 0 0 7.7089844,6.5449219 0.66473043,0.64574367 0 0 0 8.3730469,5.9003906 0.66473043,0.64574367 0 0 0 7.7089844,5.2539062 Z M 11.039062,6.3378906 A 0.66473043,0.64574373 0 0 0 10.375,6.984375 0.66473043,0.64574373 0 0 0 11.039062,7.6289062 0.66473043,0.64574373 0 0 0 11.703125,6.984375 0.66473043,0.64574373 0 0 0 11.039062,6.3378906 Z M 3.984375,7.1386719 A 0.66473043,0.64574367 0 0 0 3.3203125,7.7851562 0.66473043,0.64574367 0 0 0 3.984375,8.4296875 0.66473043,0.64574367 0 0 0 4.6503906,7.7851562 0.66473043,0.64574367 0 0 0 3.984375,7.1386719 Z m 8.914063,0.265625 A 0.66473043,0.64574367 0 0 0 12.232422,8.0488281 0.66473043,0.64574367 0 0 0 12.898438,8.6953125 0.66473043,0.64574367 0 0 0 13.5625,8.0488281 0.66473043,0.64574367 0 0 0 12.898438,7.4042969 Z M 6.7558594,7.4882812 A 0.66473043,0.64574367 0 0 0 6.0917969,8.1328125 0.66473043,0.64574367 0 0 0 6.7558594,8.7792969 0.66473043,0.64574367 0 0 0 7.4199219,8.1328125 0.66473043,0.64574367 0 0 0 6.7558594,7.4882812 Z M 9.4257812,8.1894531 A 0.66473043,0.64574367 0 0 0 8.7597656,8.8359375 0.66473043,0.64574367 0 0 0 9.4257812,9.4804688 0.66473043,0.64574367 0 0 0 10.089844,8.8359375 0.66473043,0.64574367 0 0 0 9.4257812,8.1894531 Z M 4.7871094,9.2792969 A 0.64574373,0.66473043 0 0 0 4.140625,9.9453125 0.64574373,0.66473043 0 0 0 4.7871094,10.609375 0.64574373,0.66473043 0 0 0 5.4316406,9.9453125 0.64574373,0.66473043 0 0 0 4.7871094,9.2792969 Z M 2.8378906,9.6308594 A 0.66473043,0.64574373 0 0 0 2.1738281,10.277344 0.66473043,0.64574373 0 0 0 2.8378906,10.923828 0.66473043,0.64574373 0 0 0 3.5039062,10.277344 0.66473043,0.64574373 0 0 0 2.8378906,9.6308594 Z M 12.40625,9.6875 a 0.66473043,0.64574373 0 0 0 -0.664062,0.646484 0.66473043,0.64574373 0 0 0 0.664062,0.644532 0.66473043,0.64574373 0 0 0 0.666016,-0.644532 A 0.66473043,0.64574373 0 0 0 12.40625,9.6875 Z m -2.251953,0.560547 a 0.64574367,0.66473043 0 0 0 -0.6445314,0.664062 0.64574367,0.66473043 0 0 0 0.6445314,0.666016 0.64574367,0.66473043 0 0 0 0.646484,-0.666016 0.64574367,0.66473043 0 0 0 -0.646484,-0.664062 z M 7.1386719,10.535156 A 0.66473043,0.64574373 0 0 0 6.4746094,11.181641 0.66473043,0.64574373 0 0 0 7.1386719,11.828125 0.66473043,0.64574373 0 0 0 7.8046875,11.181641 0.66473043,0.64574373 0 0 0 7.1386719,10.535156 Z M 4.8808594,11.869141 A 0.64574373,0.66473043 0 0 0 4.234375,12.533203 0.64574373,0.66473043 0 0 0 4.8808594,13.197266 0.64574373,0.66473043 0 0 0 5.5253906,12.533203 0.64574373,0.66473043 0 0 0 4.8808594,11.869141 Z M 2.8359375,12.498047 A 0.64574373,0.66473043 0 0 0 2.1894531,13.162109 0.64574373,0.66473043 0 0 0 2.8359375,13.826172 0.64574373,0.66473043 0 0 0 3.4804688,13.162109 0.64574373,0.66473043 0 0 0 2.8359375,12.498047 Z M 8,12.498047 A 0.64574367,0.66473043 0 0 0 7.3535156,13.162109 0.64574367,0.66473043 0 0 0 8,13.826172 0.64574367,0.66473043 0 0 0 8.6464844,13.162109 0.64574367,0.66473043 0 0 0 8,12.498047 Z m 2.582031,0 a 0.64574367,0.66473043 0 0 0 -0.644531,0.664062 0.64574367,0.66473043 0 0 0 0.644531,0.664063 0.64574367,0.66473043 0 0 0 0.646485,-0.664063 0.64574367,0.66473043 0 0 0 -0.646485,-0.664062 z m 2.582031,0 a 0.64574367,0.66473043 0 0 0 -0.644531,0.664062 0.64574367,0.66473043 0 0 0 0.644531,0.664063 0.64574367,0.66473043 0 0 0 0.646485,-0.664063 0.64574367,0.66473043 0 0 0 -0.646485,-0.664062 z"
       style="opacity:0.6;fill:#d0d0d0;stroke:none;stroke-width:0.25020334;stroke-linecap:square" />
    <rect
       inkscape:label="#boundary"
       y="0"
       x="0"
       height="16"
       width="16"
       id="rect4374"
       style="opacity:0.98999999;fill:none;stroke-width:0.45533335;stroke-linecap:square;stroke-dasharray:0.45533335, 1.82133341" />
  </g>
</svg>
