<?xml version="1.0" encoding="UTF-8" standalone="no"?>
<svg
   xmlns:dc="http://purl.org/dc/elements/1.1/"
   xmlns:cc="http://creativecommons.org/ns#"
   xmlns:rdf="http://www.w3.org/1999/02/22-rdf-syntax-ns#"
   xmlns:svg="http://www.w3.org/2000/svg"
   xmlns="http://www.w3.org/2000/svg"
   xmlns:sodipodi="http://sodipodi.sourceforge.net/DTD/sodipodi-0.dtd"
   xmlns:inkscape="http://www.inkscape.org/namespaces/inkscape"
   height="24"
   viewBox="0 0 24 24"
   width="24"
   version="1.1"
   id="svg4"
   sodipodi:docname="office-chart-line-percentage.svg"
   inkscape:version="0.92+devel (1c31310676, 2017-09-09, custom)">
  <metadata
     id="metadata10">
    <rdf:RDF>
      <cc:Work
         rdf:about="">
        <dc:format>image/svg+xml</dc:format>
        <dc:type
           rdf:resource="http://purl.org/dc/dcmitype/StillImage" />
        <dc:title></dc:title>
      </cc:Work>
    </rdf:RDF>
  </metadata>
  <defs
     id="defs8" />
  <sodipodi:namedview
     pagecolor="#002466"
     bordercolor="#ffffff"
     inkscape:document-rotation="0"
     borderopacity="0.13333333"
     objecttolerance="10"
     gridtolerance="10"
     guidetolerance="10"
     inkscape:pageopacity="0"
     inkscape:pageshadow="2"
     inkscape:window-width="1920"
     inkscape:window-height="1027"
     id="namedview6"
     showgrid="false"
     borderlayer="true"
     inkscape:showpageshadow="false"
     inkscape:zoom="22.96875"
     inkscape:cx="7.695238"
     inkscape:cy="8.0000001"
     inkscape:window-x="0"
     inkscape:window-y="24"
     inkscape:window-maximized="1"
     inkscape:current-layer="svg4"
     inkscape:snap-intersection-paths="true"
     inkscape:object-paths="true" />
  <g
     id="g823"
     inkscape:label="#office-chart-line-percentage"
     transform="scale(1.5)"
     style="stroke-width:0.66666669">
    <path
       inkscape:connector-curvature="0"
       inkscape:label="#boundary"
       style="stroke:none"
       id="path2"
       stroke-width=".25455"
       stroke-linecap="round"
       fill="none"
       d="M 0,-4.9999999e-8 H 16 V 16 H 0 Z" />
    <path
       style="fill:#ffb900;stroke:none;stroke-width:0.66666669px;stroke-linecap:butt;stroke-linejoin:miter;stroke-opacity:1"
       d="M 4.8496094,6.8867188 4.4609375,7.2753906 H 3 v 1 H 4.875 L 6.2636719,6.8867188 Z m 2.7421875,1.3828124 -2,1.9999998 h -2.59375 v 1 l 3,-0.0078 2.0078125,-1.9921878 h 1.5917968 l 1.9999998,1.9999998 h 2.400391 v -1 h -1.986328 l -2,-1.9999998 z"
       id="path817"
       inkscape:connector-curvature="0"
       inkscape:label="#" />
    <path
       style="opacity:0.6;fill:#d0d0d0;stroke:none;stroke-width:0.80000001"
       d="M 2,1.9999999 V 13 14 H 3 14 V 13 H 3 V 1.9999999 Z"
       id="rect844"
       inkscape:connector-curvature="0"
       inkscape:label="#" />
    <path
       inkscape:label="#"
       id="path836"
       d="m 4.6877402,2.1283993 v 1 h 1 v 3.0000003 h 1 V 2.1283993 h -1 z m 4.3007813,0 c -0.831,0 -1.5,0.6690001 -1.5,1.5 v 1 c 0,0.831 0.669,1.5000003 1.5,1.5000003 0.8310005,0 1.4999995,-0.6690003 1.4999995,-1.5000003 v -1 c 0,-0.8309999 -0.668999,-1.4999999 -1.4999995,-1.5 z m 3.5996095,0 c -0.830999,0 -1.5,0.6690001 -1.5,1.5 v 1 c 0,0.831 0.669,1.5000003 1.5,1.5000003 0.831,0 1.5,-0.6690003 1.5,-1.5000003 v -1 c 0,-0.8309999 -0.668999,-1.4999999 -1.5,-1.5 z m -3.5996095,1 c 0.277,0 0.5,0.223 0.5,0.5 v 1 c 0,0.2770001 -0.223,0.5 -0.5,0.5 -0.277,0 -0.5,-0.223 -0.5,-0.5 v -1 c 0,-0.277 0.223,-0.5 0.5,-0.5 z m 3.5996095,0 c 0.277,0 0.5,0.223 0.5,0.5 v 1 c 0,0.2770001 -0.222999,0.5 -0.5,0.5 -0.276999,0 -0.499999,-0.223 -0.5,-0.5 v -1 c 0,-0.277 0.223,-0.5 0.5,-0.5 z"
       style="fill:#00ff00;fill-opacity:1;stroke:none;stroke-width:0.66666669"
       inkscape:connector-curvature="0" />
  </g>
</svg>
