<?xml version="1.0" encoding="UTF-8" standalone="no"?>
<svg
   xmlns:dc="http://purl.org/dc/elements/1.1/"
   xmlns:cc="http://creativecommons.org/ns#"
   xmlns:rdf="http://www.w3.org/1999/02/22-rdf-syntax-ns#"
   xmlns:svg="http://www.w3.org/2000/svg"
   xmlns="http://www.w3.org/2000/svg"
   xmlns:sodipodi="http://sodipodi.sourceforge.net/DTD/sodipodi-0.dtd"
   xmlns:inkscape="http://www.inkscape.org/namespaces/inkscape"
   viewBox="0 0 24 24"
   version="1.1"
   id="svg8"
   sodipodi:docname="office-chart-area-stacked.svg"
   inkscape:version="0.92+devel (1c31310676, 2017-09-09, custom)"
   width="24"
   height="24">
  <metadata
     id="metadata12">
    <rdf:RDF>
      <cc:Work
         rdf:about="">
        <dc:format>image/svg+xml</dc:format>
        <dc:type
           rdf:resource="http://purl.org/dc/dcmitype/StillImage" />
        <dc:title></dc:title>
      </cc:Work>
    </rdf:RDF>
  </metadata>
  <sodipodi:namedview
     pagecolor="#002466"
     bordercolor="#ffffff"
     inkscape:document-rotation="0"
     borderopacity="0.19215686"
     objecttolerance="10"
     gridtolerance="10"
     guidetolerance="10"
     inkscape:pageopacity="0"
     inkscape:pageshadow="2"
     inkscape:window-width="1920"
     inkscape:window-height="1027"
     id="namedview10"
     showgrid="false"
     borderlayer="true"
     inkscape:showpageshadow="false"
     inkscape:zoom="45.9375"
     inkscape:cx="6.3780685"
     inkscape:cy="8.021769"
     inkscape:window-x="0"
     inkscape:window-y="24"
     inkscape:window-maximized="1"
     inkscape:current-layer="svg8"
     inkscape:snap-page="false"
     inkscape:snap-intersection-paths="true"
     inkscape:object-paths="true" />
  <defs
     id="defs3051">
    <style
       type="text/css"
       id="current-color-scheme">
      .ColorScheme-Text {
        color:#f2f2f2;
      }
      </style>
  </defs>
  <g
     id="g835"
     inkscape:label="#office-chart-area-stacked"
     transform="scale(1.5)"
     style="stroke-width:0.66666669">
    <path
       style="fill:none;stroke:none;stroke-width:0.80000007"
       d="M 0,-2e-7 H 16 V 16 H 0 Z"
       id="rect856"
       inkscape:connector-curvature="0"
       inkscape:label="#boundary" />
    <path
       inkscape:label="#"
       inkscape:connector-curvature="0"
       id="path824"
       d="M 3,2 H 2 V 14 H 14 V 13 H 3"
       style="opacity:0.80898874;fill:#d0d0d0;fill-opacity:1;stroke:none;stroke-width:0.66666663" />
    <path
       inkscape:label="#"
       id="path820"
       d="M 8.98584,2.2197264 4.4506836,6.7548828 H 2.9887696 V 7.755371 h 1.875 l 4.1235352,-4.1235353 2.1225582,2.1225588 0.0058,-0.00293 0.0044,0.00293 2.828614,-2.8271486 c 0.003,0.005 -0.70752,-0.7075195 -0.70752,-0.7075195 l -2.125504,2.1254883 -2.1269533,-2.1254883 -0.00146,0.00146 z M 7.5942384,8.640137 5.5932618,10.641113 H 3.0004883 v 0.999024 h 3.0000001 v -0.0073 l 0.00733,0.0073 1.9995118,-1.999512 h 1.5922845 l 1.9995123,1.999512 H 14 V 10.641113 H 12.013672 L 10.01416,8.640137 H 8.5991213 Z"
       style="opacity:0.6;fill:#d0d0d0;fill-opacity:1;stroke:none;stroke-width:0.66666663"
       inkscape:connector-curvature="0" />
    <path
       inkscape:label="#"
       inkscape:connector-curvature="0"
       id="path826"
       d="M 3.0000035,10.640537 2.9890834,7.7548646 H 4.8640835 L 8.98713,3.6318176 11.116101,5.7509569 13.948126,2.9267394 14,10.640537 H 12.013673 L 10.013672,8.640536 H 7.5937536 l -2,2.000001 z"
       style="opacity:0.3;fill:#d0d0d0;stroke:none;stroke-width:0.66666663px;stroke-linecap:butt;stroke-linejoin:miter;stroke-opacity:1" />
    <path
       inkscape:label="#"
       inkscape:connector-curvature="0"
       id="path828"
       d="M 14,11.640537 V 13 H 3 l 3.5e-6,-1.359463 3,-0.0078 2.0078102,-1.9922 h 1.591797 l 1.9999993,2 z"
       style="opacity:0.17999998;fill:#d0d0d0;stroke:none;stroke-width:0.66666663px;stroke-linecap:butt;stroke-linejoin:miter;stroke-opacity:1" />
  </g>
</svg>
