<?xml version="1.0" encoding="UTF-8" standalone="no"?>
<svg
   xmlns:dc="http://purl.org/dc/elements/1.1/"
   xmlns:cc="http://creativecommons.org/ns#"
   xmlns:rdf="http://www.w3.org/1999/02/22-rdf-syntax-ns#"
   xmlns:svg="http://www.w3.org/2000/svg"
   xmlns="http://www.w3.org/2000/svg"
   xmlns:sodipodi="http://sodipodi.sourceforge.net/DTD/sodipodi-0.dtd"
   xmlns:inkscape="http://www.inkscape.org/namespaces/inkscape"
   height="24"
   viewBox="0 0 24 24"
   width="24"
   version="1.1"
   id="svg4"
   sodipodi:docname="office-chart-polar.svg"
   inkscape:version="0.92+devel (1c31310676, 2017-09-09, custom)">
  <metadata
     id="metadata10">
    <rdf:RDF>
      <cc:Work
         rdf:about="">
        <dc:format>image/svg+xml</dc:format>
        <dc:type
           rdf:resource="http://purl.org/dc/dcmitype/StillImage" />
        <dc:title></dc:title>
      </cc:Work>
    </rdf:RDF>
  </metadata>
  <defs
     id="defs8" />
  <sodipodi:namedview
     pagecolor="#002466"
     bordercolor="#ffffff"
     inkscape:document-rotation="0"
     borderopacity="0.13333333"
     objecttolerance="10"
     gridtolerance="10"
     guidetolerance="10"
     inkscape:pageopacity="0"
     inkscape:pageshadow="2"
     inkscape:window-width="1920"
     inkscape:window-height="1027"
     id="namedview6"
     showgrid="false"
     borderlayer="true"
     inkscape:showpageshadow="false"
     inkscape:zoom="32.482718"
     inkscape:cx="7.3273578"
     inkscape:cy="6.6021188"
     inkscape:window-x="0"
     inkscape:window-y="24"
     inkscape:window-maximized="1"
     inkscape:current-layer="svg4"
     inkscape:snap-object-midpoints="true" />
  <g
     id="g878"
     inkscape:label="#office-chart-polar"
     style="stroke:none;stroke-width:0.66666669"
     transform="scale(1.5)">
    <path
       inkscape:connector-curvature="0"
       inkscape:label="#boundary"
       style="stroke:none"
       id="path2"
       stroke-width=".25455"
       stroke-linecap="round"
       fill="none"
       d="M 0,-4.9999999e-8 H 16 V 16 H 0 Z" />
    <path
       inkscape:label="#"
       style="opacity:0.27083333;fill:#d0d0d0;stroke:none;stroke-width:0.80000001"
       d="m 8,2 0.00451,3.690442 c 1.2608469,-3.348e-4 2.283053,1.0218711 2.282718,2.2827228 L 14,8 C 14,4.6862915 11.313709,1.9999999 8,2 Z"
       id="path834"
       inkscape:connector-curvature="0"
       sodipodi:nodetypes="ccccc" />
    <path
       inkscape:label="#"
       style="opacity:0.59722224;fill:#d0d0d0;stroke:none;stroke-width:0.80000001"
       d="m 10.287228,7.9731648 c 5.3e-5,0.8154997 -0.4350554,1.5690525 -1.1413614,1.976694 L 11,13.195312 C 12.856146,12.123665 13.9997,10.143293 14,8 Z"
       id="path828"
       inkscape:connector-curvature="0"
       sodipodi:nodetypes="ccccc" />
    <path
       inkscape:label="#"
       style="opacity:0.39583333;fill:#d0d0d0;stroke:none;stroke-width:0.80000001"
       d="M 5.757694,8.3697528 2.0917969,9.0410156 C 2.4315513,10.969041 3.6905662,12.610062 5.4648438,13.4375 7.2389474,14.264469 9.3049053,14.174074 11,13.195312 L 9.1458666,9.9498588 C 8.5008792,10.322471 7.7146344,10.356859 7.0395787,10.04198 6.365134,9.7269903 5.8866958,9.1028645 5.757694,8.3697528 Z"
       id="path830"
       inkscape:connector-curvature="0"
       sodipodi:nodetypes="ccccccc" />
    <path
       inkscape:label="#"
       style="opacity:0.59722224;fill:#d0d0d0;fill-opacity:1;stroke:none;stroke-width:0.80000001"
       d="M 8,2 C 6.2267533,1.9999939 4.5443237,2.784365 3.4042969,4.1425781 2.2643562,5.5011722 1.7838548,7.294472 2.0917969,9.0410156 L 5.757694,8.3697528 C 5.6399036,7.7052504 5.8222628,7.0226895 6.255771,6.5054771 6.689532,5.9886401 7.3297689,5.690244 8.0045052,5.690442 Z"
       id="path832"
       inkscape:connector-curvature="0"
       sodipodi:nodetypes="ccccccc" />
    <path
       style="color:#000000;font-style:normal;font-variant:normal;font-weight:normal;font-stretch:normal;font-size:medium;line-height:normal;font-family:sans-serif;font-variant-ligatures:normal;font-variant-position:normal;font-variant-caps:normal;font-variant-numeric:normal;font-variant-alternates:normal;font-variant-east-asian:normal;font-feature-settings:normal;font-variation-settings:normal;text-indent:0;text-align:start;text-decoration:none;text-decoration-line:none;text-decoration-style:solid;text-decoration-color:#000000;letter-spacing:normal;word-spacing:normal;text-transform:none;writing-mode:lr-tb;direction:ltr;text-orientation:mixed;dominant-baseline:auto;baseline-shift:baseline;text-anchor:start;white-space:normal;shape-padding:0;clip-rule:nonzero;display:inline;overflow:visible;visibility:visible;opacity:1;isolation:auto;mix-blend-mode:normal;color-interpolation:sRGB;color-interpolation-filters:linearRGB;solid-color:#000000;solid-opacity:1;vector-effect:none;fill:#d0d0d0;fill-opacity:1;fill-rule:nonzero;stroke:none;stroke-width:0.33333334;stroke-linecap:butt;stroke-linejoin:miter;stroke-miterlimit:4;stroke-dasharray:none;stroke-dashoffset:0;stroke-opacity:1;color-rendering:auto;image-rendering:auto;shape-rendering:auto;text-rendering:auto;enable-background:accumulate"
       d="m 7.7360721,1.7127231 v 4.5642135 a 1.7621837,1.7621837 0 0 1 0.2626885,-0.022575 1.7621837,1.7621837 0 0 1 0.2626886,0.022575 V 1.7127231 Z m 2.0030002,6.0418366 a 1.7621837,1.7621837 0 0 1 0.022575,0.2626886 1.7621837,1.7621837 0 0 1 -0.022575,0.2626885 H 14.303286 V 7.7545597 Z M 6.2379265,8.0623979 1.7455418,8.8525158 1.835841,9.3696839 6.3302779,8.5775137 A 1.7621837,1.7621837 0 0 1 6.2379265,8.0623979 Z m 2.8608424,1.331913 A 1.7621837,1.7621837 0 0 1 8.6411162,9.6569995 L 10.923223,13.607588 11.378824,13.3449 Z"
       id="path847"
       inkscape:connector-curvature="0"
       inkscape:label="#" />
  </g>
</svg>
