<?xml version="1.0" encoding="UTF-8" standalone="no"?>
<!-- Created with Inkscape (http://www.inkscape.org/) -->

<svg
   xmlns:dc="http://purl.org/dc/elements/1.1/"
   xmlns:cc="http://creativecommons.org/ns#"
   xmlns:rdf="http://www.w3.org/1999/02/22-rdf-syntax-ns#"
   xmlns:svg="http://www.w3.org/2000/svg"
   xmlns="http://www.w3.org/2000/svg"
   xmlns:sodipodi="http://sodipodi.sourceforge.net/DTD/sodipodi-0.dtd"
   xmlns:inkscape="http://www.inkscape.org/namespaces/inkscape"
   width="24"
   height="24"
   viewBox="0 0 24 24"
   version="1.1"
   id="svg8"
   inkscape:version="0.92+devel unknown"
   sodipodi:docname="path-inset.svg">
  <defs
     id="ol-defs">
    <style
       id="current-color-scheme">      .ColorScheme-Text {
        color:#d0d0d0;
        stop-color:#d0d0d0;
      }
      .ColorScheme-Background {
        color:#212121;
        stop-color:#212121;
      }
      .ColorScheme-Highlight {
        color:#0039a9;
        stop-color:#0039a9;
      }
      .ColorScheme-ViewText {
        color:#d0d0d0;
        stop-color:#d0d0d0;
      }
      .ColorScheme-ViewBackground {
        color:#19191b;
        stop-color:#19191b;
      }
      .ColorScheme-ViewHover {
        color:#005cc7;
        stop-color:#005cc7;
      }
      .ColorScheme-ViewFocus{
        color:#002466;
        stop-color:#002466;
      }
      .ColorScheme-ButtonText {
        color:#d0d0d0;
        stop-color:#d0d0d0;
      }
      .ColorScheme-ButtonBackground {
        color:#232323;
        stop-color:#232323;                             
      }                                                 
      .ColorScheme-ButtonHover {                        
        color:#005cc7;                                  
        stop-color:#005cc7;                             
      }                                                 
      .ColorScheme-ButtonFocus{                         
        color:#0039a9;                                  
        stop-color:#0039a9;                             
      }</style>
    <style
       id="current-color-scheme-7">      .ColorScheme-Text {
        color:#d0d0d0;
        stop-color:#d0d0d0;
      }
      .ColorScheme-Background {
        color:#212121;
        stop-color:#212121;
      }
      .ColorScheme-Highlight {
        color:#0039a9;
        stop-color:#0039a9;
      }
      .ColorScheme-ViewText {
        color:#d0d0d0;
        stop-color:#d0d0d0;
      }
      .ColorScheme-ViewBackground {
        color:#19191b;
        stop-color:#19191b;
      }
      .ColorScheme-ViewHover {
        color:#005cc7;
        stop-color:#005cc7;
      }
      .ColorScheme-ViewFocus{
        color:#002466;
        stop-color:#002466;
      }
      .ColorScheme-ButtonText {
        color:#d0d0d0;
        stop-color:#d0d0d0;
      }
      .ColorScheme-ButtonBackground {
        color:#232323;
        stop-color:#232323;                             
      }                                                 
      .ColorScheme-ButtonHover {                        
        color:#005cc7;                                  
        stop-color:#005cc7;                             
      }                                                 
      .ColorScheme-ButtonFocus{                         
        color:#0039a9;                                  
        stop-color:#0039a9;                             
      }</style>
    <style
       type="text/css"
       id="current-color-scheme-6">
      .ColorScheme-Text {
        color:#f2f2f2;
      }
      </style>
  </defs>
  <sodipodi:namedview
     id="base"
     pagecolor="#002266"
     bordercolor="#ffffff"
     borderopacity="0.46666667"
     inkscape:pageopacity="0"
     inkscape:pageshadow="2"
     inkscape:zoom="22.46875"
     inkscape:cx="27.680894"
     inkscape:cy="13.522236"
     inkscape:document-units="px"
     inkscape:current-layer="svg8"
     inkscape:document-rotation="0"
     showgrid="false"
     inkscape:showpageshadow="false"
     borderlayer="true"
     units="px"
     fit-margin-top="0"
     fit-margin-left="0"
     fit-margin-right="0"
     fit-margin-bottom="0"
     inkscape:window-width="1920"
     inkscape:window-height="1051"
     inkscape:window-x="0"
     inkscape:window-y="0"
     inkscape:window-maximized="1"
     inkscape:snap-page="true"
     guidecolor="#f4ff00"
     guideopacity="0.42745098"
     guidehicolor="#4fff00"
     guidehiopacity="0.49803922" />
  <metadata
     id="metadata5">
    <rdf:RDF>
      <cc:Work
         rdf:about="">
        <dc:format>image/svg+xml</dc:format>
        <dc:type
           rdf:resource="http://purl.org/dc/dcmitype/StillImage" />
        <dc:title></dc:title>
      </cc:Work>
    </rdf:RDF>
  </metadata>
  <g
     transform="matrix(1.5,0,0,1.5,-458.74965,-248.00487)"
     id="path-inset"
     inkscape:label="#inset_path">
    <rect
       style="vector-effect:none;fill:none;stroke-width:2.18181825;stroke-linecap:round"
       id="rect4264"
       width="16"
       height="16"
       x="305.8331"
       y="165.33658"
       inkscape:label="#boundary" />
    <path
       style="color:#000000;opacity:0.3;fill:#d0d0d0;fill-opacity:1;fill-rule:evenodd;stroke-width:0.77205324px"
       d="m 308.93837,173.25063 -0.0965,0.53229 -0.46142,-0.0829 -0.5142,-0.0317 v 5.63508 h 5.63508 l -0.0317,-0.51269 -0.0543,-0.30007 0.53229,-0.0965 c -0.0663,-0.35072 -0.16818,-0.69638 -0.30309,-1.03444 l -0.50063,0.20509 -0.12516,-0.30762 -0.25182,-0.47801 -0.0588,-0.092 0.45388,-0.29405 c -0.18644,-0.30548 -0.39404,-0.60096 -0.62729,-0.87761 l -0.0829,0.0633 -0.32118,0.29556 -0.0241,-0.0272 -0.37698,-0.40713 -0.31968,-0.29556 0.36643,-0.39808 c -0.27127,-0.23943 -0.5597,-0.45594 -0.86103,-0.64992 l -0.29404,0.45388 -0.23071,-0.14777 -0.47952,-0.25183 -0.15229,-0.0633 0.20507,-0.50063 c -0.33434,-0.14409 -0.67704,-0.25892 -1.02538,-0.33626 z"
       id="path10754"
       inkscape:connector-curvature="0"
       inkscape:label="#3" />
    <path
       style="opacity:0.4;fill:#d0d0d0;fill-opacity:1;fill-rule:evenodd;stroke-width:0.77205324"
       d="m 307.86624,168.27903 v 4.84795 l 0.0332,-0.53984 0.57753,0.0362 0.0317,0.002 0.0317,0.006 0.49309,0.089 -0.095,0.53078 c 0.34836,0.0773 0.69102,0.19218 1.02538,0.33627 l 0.20356,-0.49911 0.17191,0.0693 0.0226,0.0106 0.0241,0.0121 0.53229,0.27896 0.0211,0.0121 0.0211,0.012 0.2473,0.15985 -0.29404,0.45388 c 0.30184,0.1942 0.59082,0.41011 0.86253,0.64991 l 0.36491,-0.39659 0.33777,0.30913 0.0166,0.0151 0.0151,0.0166 0.41468,0.45238 0.0151,0.0166 0.015,0.0181 0.006,0.008 -0.42825,0.33024 c 0.23379,0.27712 0.442,0.57153 0.6288,0.87761 l 0.45388,-0.29254 0.0709,0.10857 0.012,0.0211 0.012,0.0211 0.27897,0.5323 0.012,0.0241 0.0106,0.0226 0.13269,0.32421 -0.50063,0.20507 c 0.13527,0.3388 0.23671,0.68442 0.30309,1.03594 l 0.5323,-0.0965 0.0588,0.33023 0.006,0.0317 0.002,0.0317 0.0362,0.57753 -0.53984,0.0332 h 4.84796 c 0,-5.86048 -5.16391,-11.02438 -11.02438,-11.02438 z m 8.54847,5.56411 h -3.0882 v -3.08821 z"
       id="path10752"
       inkscape:connector-curvature="0"
       inkscape:label="#2"
       sodipodi:nodetypes="cccccccccccccccccccccccccccccccccccccccccccccccccccc" />
    <path
       style="color:#000000;font-style:normal;font-variant:normal;font-weight:normal;font-stretch:normal;font-size:medium;line-height:normal;font-family:sans-serif;font-variant-ligatures:normal;font-variant-position:normal;font-variant-caps:normal;font-variant-numeric:normal;font-variant-alternates:normal;font-variant-east-asian:normal;font-feature-settings:normal;font-variation-settings:normal;text-indent:0;text-align:start;text-decoration:none;text-decoration-line:none;text-decoration-style:solid;text-decoration-color:#000000;letter-spacing:normal;word-spacing:normal;text-transform:none;writing-mode:lr-tb;direction:ltr;text-orientation:mixed;dominant-baseline:auto;baseline-shift:baseline;text-anchor:start;white-space:normal;shape-padding:0;clip-rule:nonzero;display:inline;overflow:visible;visibility:visible;opacity:0.83687942;isolation:auto;mix-blend-mode:normal;color-interpolation:sRGB;color-interpolation-filters:linearRGB;solid-color:#000000;solid-opacity:1;vector-effect:none;fill:#d0d0d0;fill-opacity:1;fill-rule:nonzero;stroke:none;stroke-width:0.77205324px;stroke-linecap:butt;stroke-linejoin:miter;stroke-miterlimit:4;stroke-dasharray:none;stroke-dashoffset:0;stroke-opacity:1;color-rendering:auto;image-rendering:auto;shape-rendering:auto;text-rendering:auto;enable-background:accumulate"
       d="m 307.86624,167.33658 v 0.94245 c 5.86047,0 11.02437,5.1639 11.02437,11.02437 h 0.94245 c 0,-6.40161 -5.56522,-11.96682 -11.96682,-11.96682 z m 0.0332,5.25056 -0.0663,1.07967 0.54737,0.0332 0.46143,0.0829 0.1915,-1.06308 -0.49309,-0.089 -0.0317,-0.006 -0.0317,-0.002 z m 2.26791,0.50063 -0.40865,0.99975 0.15229,0.0633 0.47953,0.25183 0.23071,0.14777 0.58657,-0.90777 -0.24729,-0.15983 -0.0211,-0.0121 -0.0211,-0.012 -0.53229,-0.27897 -0.0241,-0.012 -0.0226,-0.0106 z m 1.97386,1.26213 -0.73135,0.79467 0.31968,0.29556 0.37698,0.40713 0.0241,0.0272 0.32119,-0.29556 0.50968,-0.39356 -0.006,-0.008 -0.0151,-0.0181 -0.0151,-0.0166 -0.41468,-0.45237 -0.015,-0.0166 -0.0166,-0.0151 z m 1.47474,1.75069 -0.90777,0.58658 0.0588,0.092 0.25182,0.47801 0.12516,0.30762 1.00126,-0.41015 -0.1327,-0.3242 -0.0106,-0.0226 -0.012,-0.0241 -0.27897,-0.5323 -0.012,-0.0211 -0.012,-0.0211 z m 0.86403,2.19854 -1.06459,0.19151 0.0543,0.30008 0.0332,0.54586 1.07967,-0.0663 -0.0362,-0.57753 -0.002,-0.0317 -0.006,-0.0316 z"
       id="path4293"
       inkscape:connector-curvature="0"
       inkscape:label="#1" />
  </g>
</svg>
