<?xml version="1.0" encoding="UTF-8" standalone="no"?>
<!-- Created with Inkscape (http://www.inkscape.org/) -->

<svg
   xmlns:dc="http://purl.org/dc/elements/1.1/"
   xmlns:cc="http://creativecommons.org/ns#"
   xmlns:rdf="http://www.w3.org/1999/02/22-rdf-syntax-ns#"
   xmlns:svg="http://www.w3.org/2000/svg"
   xmlns="http://www.w3.org/2000/svg"
   xmlns:sodipodi="http://sodipodi.sourceforge.net/DTD/sodipodi-0.dtd"
   xmlns:inkscape="http://www.inkscape.org/namespaces/inkscape"
   width="24"
   height="24"
   viewBox="0 0 24 24"
   version="1.1"
   id="svg8"
   inkscape:version="0.92+devel 15698 custom"
   sodipodi:docname="plugins.svg">
  <defs
     id="ol-defs">
    <style
       id="current-color-scheme">      .ColorScheme-Text {
        color:#d0d0d0;
        stop-color:#d0d0d0;
      }
      .ColorScheme-Background {
        color:#212121;
        stop-color:#212121;
      }
      .ColorScheme-Highlight {
        color:#0039a9;
        stop-color:#0039a9;
      }
      .ColorScheme-ViewText {
        color:#d0d0d0;
        stop-color:#d0d0d0;
      }
      .ColorScheme-ViewBackground {
        color:#19191b;
        stop-color:#19191b;
      }
      .ColorScheme-ViewHover {
        color:#005cc7;
        stop-color:#005cc7;
      }
      .ColorScheme-ViewFocus{
        color:#002466;
        stop-color:#002466;
      }
      .ColorScheme-ButtonText {
        color:#d0d0d0;
        stop-color:#d0d0d0;
      }
      .ColorScheme-ButtonBackground {
        color:#232323;
        stop-color:#232323;                             
      }                                                 
      .ColorScheme-ButtonHover {                        
        color:#005cc7;                                  
        stop-color:#005cc7;                             
      }                                                 
      .ColorScheme-ButtonFocus{                         
        color:#0039a9;                                  
        stop-color:#0039a9;                             
      }</style>
  </defs>
  <sodipodi:namedview
     id="base"
     pagecolor="#002266"
     bordercolor="#ffffff"
     borderopacity="0.46666667"
     inkscape:pageopacity="0"
     inkscape:pageshadow="2"
     inkscape:zoom="13.081476"
     inkscape:cx="16.621911"
     inkscape:cy="12.794693"
     inkscape:document-units="px"
     inkscape:current-layer="svg8"
     inkscape:document-rotation="0"
     showgrid="false"
     inkscape:showpageshadow="false"
     borderlayer="true"
     units="px"
     fit-margin-top="0"
     fit-margin-left="0"
     fit-margin-right="0"
     fit-margin-bottom="0"
     inkscape:window-width="1920"
     inkscape:window-height="1054"
     inkscape:window-x="0"
     inkscape:window-y="0"
     inkscape:window-maximized="1"
     inkscape:snap-page="true" />
  <metadata
     id="metadata5">
    <rdf:RDF>
      <cc:Work
         rdf:about="">
        <dc:format>image/svg+xml</dc:format>
        <dc:type
           rdf:resource="http://purl.org/dc/dcmitype/StillImage" />
        <dc:title></dc:title>
      </cc:Work>
    </rdf:RDF>
  </metadata>
  <g
     id="g4267"
     inkscape:label="#plugins"
     style="fill:none;stroke-width:0.91666669"
     transform="scale(1.0909091)">
    <rect
       inkscape:label="#boundary"
       y="0"
       x="0"
       height="22"
       width="22"
       id="rect4264"
       style="vector-effect:none;fill:none;stroke-width:2.75;stroke-linecap:round"
       sodipodi:insensitive="true" />
    <path
       inkscape:label="#glyph"
       sodipodi:nodetypes="ssccscssccscssscccssccsccsscscsss"
       inkscape:connector-curvature="0"
       id="path4288"
       d="M 11.001473,5 C 9.568389,5 8.4075177,5.782227 8.4075177,6.747794 c 0,0.61732 0.5685502,0.878401 1.1904742,1.327289 0.3810371,0.27502 0.3673969,0.362074 0.3681054,0.525503 0.00196,0.457331 -0.6463576,0.928877 -1.5968689,0.928877 H 5.9355248 v 1.361199 c 0,0.748888 0.1104551,1.54648 0.7794033,1.54648 0.1360947,0 0.5397485,-0.101064 0.726084,-0.519921 0.1525145,-0.342824 0.523135,-1.068608 1.1085753,-1.066377 0.8666149,0.0033 1.4857076,1.423349 1.4857076,2.428709 0,1.005361 -0.6190927,2.425407 -1.4857076,2.42871 -0.5854429,0.0023 -0.956064,-0.721204 -1.1085753,-1.064029 -0.1863355,-0.418856 -0.5899877,-0.522269 -0.726084,-0.522269 -0.6689482,0 -0.7794033,0.795122 -0.7794033,1.544011 V 17 h 5.0659482 5.063002 v -1.334024 c 0,-0.748889 -0.110457,-1.544011 -0.779404,-1.544011 -0.136098,0 -0.539749,0.103414 -0.726084,0.522269 -0.152513,0.342825 -0.520438,1.06626 -1.105881,1.064029 -0.866614,-0.0033 -1.485707,-1.423349 -1.485707,-2.42871 0,-1.00536 0.619093,-2.425405 1.485707,-2.428709 0.585441,-0.0023 0.953368,0.723553 1.105881,1.066377 0.186336,0.418854 0.58999,0.519921 0.726084,0.519921 0.668947,0 0.779404,-0.797589 0.779404,-1.54648 V 9.529463 h -2.430756 c -0.950513,0 -1.598853,-0.471544 -1.596868,-0.928877 7.12e-4,-0.163428 -0.01295,-0.250481 0.368104,-0.525503 C 13.02688,7.626195 13.59543,7.365114 13.59543,6.747794 13.59543,5.782227 12.434558,5 11.001473,5 Z"
       style="opacity:0.6;fill:#ffffff;stroke:none;stroke-width:0.91666657px;stroke-linecap:butt;stroke-linejoin:miter;stroke-opacity:1" />
  </g>
</svg>
