<?xml version="1.0" encoding="UTF-8" standalone="no"?>
<svg
   xmlns:dc="http://purl.org/dc/elements/1.1/"
   xmlns:cc="http://creativecommons.org/ns#"
   xmlns:rdf="http://www.w3.org/1999/02/22-rdf-syntax-ns#"
   xmlns:svg="http://www.w3.org/2000/svg"
   xmlns="http://www.w3.org/2000/svg"
   xmlns:sodipodi="http://sodipodi.sourceforge.net/DTD/sodipodi-0.dtd"
   xmlns:inkscape="http://www.inkscape.org/namespaces/inkscape"
   height="24"
   viewBox="0 0 24 24"
   width="24"
   version="1.1"
   id="svg4"
   sodipodi:docname="preferences-activities.svg"
   inkscape:version="0.92+devel (1c31310676, 2017-09-09, custom)">
  <metadata
     id="metadata10">
    <rdf:RDF>
      <cc:Work
         rdf:about="">
        <dc:format>image/svg+xml</dc:format>
        <dc:type
           rdf:resource="http://purl.org/dc/dcmitype/StillImage" />
        <dc:title></dc:title>
      </cc:Work>
    </rdf:RDF>
  </metadata>
  <defs
     id="defs8" />
  <sodipodi:namedview
     pagecolor="#002466"
     bordercolor="#ffffff"
     inkscape:document-rotation="0"
     borderopacity="0.13333333"
     objecttolerance="10"
     gridtolerance="10"
     guidetolerance="10"
     inkscape:pageopacity="0"
     inkscape:pageshadow="2"
     inkscape:window-width="1920"
     inkscape:window-height="1027"
     id="namedview6"
     showgrid="false"
     borderlayer="true"
     inkscape:showpageshadow="false"
     inkscape:zoom="16.241359"
     inkscape:cx="7.542857"
     inkscape:cy="8.0000002"
     inkscape:window-x="0"
     inkscape:window-y="24"
     inkscape:window-maximized="1"
     inkscape:current-layer="svg4" />
  <g
     id="g844"
     inkscape:label="#preferences-activities"
     transform="scale(1.5)"
     style="stroke:none;stroke-width:0.66666669">
    <path
       inkscape:connector-curvature="0"
       inkscape:label="#boundary"
       style="stroke:none"
       id="path2"
       stroke-width=".25455"
       stroke-linecap="round"
       fill="none"
       d="M 0,-4.9999999e-8 H 16 V 16 H 0 Z" />
    <path
       inkscape:label="#"
       style="opacity:0.6;stroke:none"
       inkscape:connector-curvature="0"
       d="M 6.9160158,2 6.6962893,3.2363281 A 4.939164,4.939164 0 0 0 5.5581056,3.7138671 C 5.1900291,3.4535328 4.9270796,3.2636562 4.523926,2.9902343 l -1.5336915,1.5336915 0.7221679,1.03125 A 4.939164,4.939164 0 0 0 3.2421876,6.6962891 C 2.7978735,6.7727611 2.4781056,6.8243401 2.0000001,6.9160156 V 9.083985 l 1.2363281,0.219726 a 4.939164,4.939164 0 0 0 0.477539,1.138183 C 3.453533,10.809971 3.2636564,11.07292 2.9902345,11.476075 l 1.5336915,1.533691 1.03125,-0.722168 a 4.939164,4.939164 0 0 0 1.1411133,0.470215 C 6.7727613,13.202127 6.8243402,13.521894 6.9160158,14 h 2.1679689 l 0.2197268,-1.236328 a 4.939164,4.939164 0 0 0 1.1381825,-0.477539 c 0.368077,0.260334 0.631026,0.45021 1.034181,0.723633 l 1.533691,-1.533691 -0.722168,-1.03125 A 4.939164,4.939164 0 0 0 12.757813,9.303711 C 13.202127,9.227241 13.521895,9.17566 14,9.083985 V 6.9160156 L 12.763672,6.6962891 A 4.939164,4.939164 0 0 0 12.286133,5.5581055 c 0.260334,-0.3680766 0.45021,-0.6310261 0.723633,-1.0341797 L 11.476075,2.9902343 10.444825,3.7124022 A 4.939164,4.939164 0 0 0 9.3037115,3.2421874 C 9.2272392,2.7978733 9.1756602,2.4781055 9.0839847,2 Z M 8.0000003,5.6577148 A 2.3417403,2.3417403 0 0 1 10.342285,8 2.3417403,2.3417403 0 0 1 8.0000003,10.342285 2.3417403,2.3417403 0 0 1 5.657715,8 2.3417403,2.3417403 0 0 1 8.0000003,5.6577148 Z"
       fill="#d0d0d0"
       stroke-width="3.647244"
       id="path835" />
  </g>
</svg>
