<?xml version="1.0" encoding="UTF-8" standalone="no"?>
<!-- Created with Inkscape (http://www.inkscape.org/) -->

<svg
   xmlns:dc="http://purl.org/dc/elements/1.1/"
   xmlns:cc="http://creativecommons.org/ns#"
   xmlns:rdf="http://www.w3.org/1999/02/22-rdf-syntax-ns#"
   xmlns:svg="http://www.w3.org/2000/svg"
   xmlns="http://www.w3.org/2000/svg"
   xmlns:sodipodi="http://sodipodi.sourceforge.net/DTD/sodipodi-0.dtd"
   xmlns:inkscape="http://www.inkscape.org/namespaces/inkscape"
   width="24.000002"
   height="24"
   viewBox="0 0 24.000002 24"
   version="1.1"
   id="main"
   inkscape:version="0.92+devel (1da36c2be7, 2017-09-15, custom)"
   sodipodi:docname="redeyes.svg">
  <defs
     id="ol-defs" />
  <sodipodi:namedview
     id="base"
     pagecolor="#002466"
     bordercolor="#ffffff"
     borderopacity="0.30"
     inkscape:pageopacity="1"
     inkscape:pageshadow="2"
     inkscape:zoom="13.140625"
     inkscape:document-units="px"
     inkscape:current-layer="main"
     inkscape:document-rotation="0"
     showgrid="false"
     inkscape:showpageshadow="false"
     borderlayer="true"
     inkscape:window-width="1920"
     inkscape:window-height="1029"
     inkscape:window-x="0"
     inkscape:window-y="22"
     inkscape:window-maximized="1"
     units="px"
     inkscape:cx="7.1255755"
     inkscape:cy="8.0269057" />
  <metadata
     id="metadata5">
    <rdf:RDF>
      <cc:Work
         rdf:about="">
        <dc:format>image/svg+xml</dc:format>
        <dc:type
           rdf:resource="http://purl.org/dc/dcmitype/StillImage" />
        <dc:title></dc:title>
      </cc:Work>
    </rdf:RDF>
  </metadata>
  <g
     id="g843"
     inkscape:label="#redeyes"
     transform="scale(1.5)"
     style="stroke:none;stroke-width:0.66666669">
    <path
       style="fill:none;stroke:none;stroke-width:0.66666669"
       d="M -5.5000004e-8,-4.9999999e-8 H 16.000001 V 16 H -5.5000004e-8 Z"
       id="boundary"
       inkscape:label="#boundary"
       inkscape:connector-curvature="0" />
    <path
       d="m 8,4.5678711 c -3.3134146,0 -6.0000001,3.4321288 -6.0000001,3.4321288 0,0 2.6865858,3.4321291 6.0000002,3.4321291 C 11.313414,11.432129 14,7.9999999 14,7.9999999 c 0,0 -2.686585,-3.4321288 -6,-3.4321288 z M 8,5.6416015 A 2.358298,2.358298 0 0 1 10.358398,7.9999999 2.358298,2.358298 0 0 1 8,10.358398 2.358298,2.358298 0 0 1 5.6416016,7.9999999 2.358298,2.358298 0 0 1 8,5.6416015 Z"
       id="path814"
       inkscape:label="#"
       inkscape:connector-curvature="0"
       style="opacity:0.5;fill:#d0d0d0;stroke:none;stroke-width:0.66666669" />
    <path
       inkscape:label="#"
       inkscape:connector-curvature="0"
       id="path837"
       d="M 9.683288,8.0000002 A 1.6832878,1.6832878 0 0 1 8.0000002,9.683288 1.6832878,1.6832878 0 0 1 6.3167124,8.0000002 1.6832878,1.6832878 0 0 1 8.0000002,6.3167124 1.6832878,1.6832878 0 0 1 9.683288,8.0000002 Z"
       style="fill:#ff0000;stroke:none;stroke-width:0.66666669;stroke-dasharray:2.00000006, 0.66666668" />
  </g>
</svg>
