<?xml version="1.0" encoding="UTF-8" standalone="no"?>
<!-- Created with Inkscape (http://www.inkscape.org/) -->

<svg
   xmlns:dc="http://purl.org/dc/elements/1.1/"
   xmlns:cc="http://creativecommons.org/ns#"
   xmlns:rdf="http://www.w3.org/1999/02/22-rdf-syntax-ns#"
   xmlns:svg="http://www.w3.org/2000/svg"
   xmlns="http://www.w3.org/2000/svg"
   xmlns:sodipodi="http://sodipodi.sourceforge.net/DTD/sodipodi-0.dtd"
   xmlns:inkscape="http://www.inkscape.org/namespaces/inkscape"
   width="24.000002"
   height="24"
   viewBox="0 0 24.000002 24"
   version="1.1"
   id="main"
   inkscape:version="0.92+devel (1da36c2be7, 2017-09-15, custom)"
   sodipodi:docname="resource-calendar-child.svg">
  <defs
     id="ol-defs" />
  <sodipodi:namedview
     id="base"
     pagecolor="#002466"
     bordercolor="#ffffff"
     borderopacity="0.30"
     inkscape:pageopacity="1"
     inkscape:pageshadow="2"
     inkscape:zoom="18.58365"
     inkscape:document-units="px"
     inkscape:current-layer="main"
     inkscape:document-rotation="0"
     showgrid="false"
     inkscape:showpageshadow="false"
     borderlayer="true"
     inkscape:window-width="1920"
     inkscape:window-height="1029"
     inkscape:window-x="0"
     inkscape:window-y="22"
     inkscape:window-maximized="1"
     units="px"
     inkscape:cx="7.6098722"
     inkscape:cy="7.5426091" />
  <metadata
     id="metadata5">
    <rdf:RDF>
      <cc:Work
         rdf:about="">
        <dc:format>image/svg+xml</dc:format>
        <dc:type
           rdf:resource="http://purl.org/dc/dcmitype/StillImage" />
        <dc:title></dc:title>
      </cc:Work>
    </rdf:RDF>
  </metadata>
  <g
     id="g866"
     inkscape:label="#resource-calendar-child"
     style="stroke:none;stroke-width:0.66666669"
     transform="scale(1.5)">
    <path
       style="fill:none;stroke:none;stroke-width:0.66666669"
       d="M -5.5000004e-8,-4.9999999e-8 H 16.000001 V 16 H -5.5000004e-8 Z"
       id="boundary"
       inkscape:label="#boundary"
       inkscape:connector-curvature="0" />
    <path
       inkscape:label="#"
       id="path861"
       d="M 2.5996094,2 C 2.2672095,2 2,2.2672093 2,2.5996094 V 13.400391 C 2,13.732793 2.2672115,14 2.5996094,14 H 13.398438 C 13.73084,14 14,13.732795 14,13.400391 V 2.5996094 C 14,2.2672094 13.730837,2 13.398438,2 H 11.880859 V 3.1875 H 10.705078 V 2 H 8.5859375 V 3.1875 H 7.4121094 V 2 H 5.2929688 V 3.1875 H 4.1171875 V 2 Z M 5.3945312,6.15625 H 6.1269531 V 6.7285156 H 6.6933594 V 6.15625 H 7.7167969 V 6.7285156 H 8.2832031 V 6.15625 H 9.3046875 V 6.7285156 H 9.8730469 V 6.15625 h 0.7304691 c 0.160363,0 0.291015,0.128699 0.291015,0.2890625 v 4.3105465 c 0,0.160365 -0.13065,0.289063 -0.291015,0.289063 H 5.3945312 c -0.1603624,0 -0.2890624,-0.128699 -0.2890624,-0.289063 V 6.4453125 c 0,-0.1603636 0.1286988,-0.2890625 0.2890624,-0.2890625 z"
       style="opacity:0.6;fill:#d0d0d0;stroke:none;stroke-width:2.51968527"
       inkscape:connector-curvature="0" />
  </g>
</svg>
