<?xml version="1.0" encoding="UTF-8" standalone="no"?>
<!-- Created with Inkscape (http://www.inkscape.org/) -->

<svg xmlns:dc="http://purl.org/dc/elements/1.1/" xmlns:cc="http://creativecommons.org/ns#" xmlns:rdf="http://www.w3.org/1999/02/22-rdf-syntax-ns#" xmlns:svg="http://www.w3.org/2000/svg" xmlns="http://www.w3.org/2000/svg" xmlns:sodipodi="http://sodipodi.sourceforge.net/DTD/sodipodi-0.dtd" xmlns:inkscape="http://www.inkscape.org/namespaces/inkscape" width="24.000002" height="24" viewBox="0 0 24.000002 24" version="1.1" id="main" inkscape:version="0.92+devel (f318dbfe43, 2017-10-09, custom)" sodipodi:docname="rocsvisible.svg">
  <sodipodi:namedview id="base" pagecolor="#002466" bordercolor="#ffffff" borderopacity="0.30" inkscape:pageopacity="1" inkscape:pageshadow="2" inkscape:zoom="6.5703125" inkscape:document-units="px" inkscape:current-layer="main" inkscape:document-rotation="0" showgrid="false" inkscape:showpageshadow="false" borderlayer="true" inkscape:window-width="1920" inkscape:window-height="1027" inkscape:window-x="0" inkscape:window-y="24" inkscape:window-maximized="1" units="px" inkscape:cx="6.7489002" inkscape:cy="8.0269056" />
  <metadata id="metadata5">
    <rdf:RDF>
      <cc:Work rdf:about="">
        <dc:format>image/svg+xml</dc:format>
        <dc:type rdf:resource="http://purl.org/dc/dcmitype/StillImage" />
        <dc:title></dc:title>
      </cc:Work>
    </rdf:RDF>
  </metadata>
  <defs id="ol-defs" />
  <g id="g844" inkscape:label="#rocsvisible" style="stroke:none;stroke-width:0.66666669" transform="scale(1.5)">
    <path style="fill:none;stroke:none;stroke-width:0.66666669" d="M -5.5000004e-8,-4.9999999e-8 H 16.000001 V 16 H -5.5000004e-8 Z" id="boundary" inkscape:label="#boundary" inkscape:connector-curvature="0" />
    <path inkscape:connector-curvature="0" inkscape:label="#" id="path814" d="M 8,4.5683593 C 4.6865854,4.5683593 2,8 2,7.9999999 c 0,0 2.6865857,3.4316411 6,3.4316411 3.313414,0 6,-3.4316411 6,-3.4316411 0,0 -2.686585,-3.4316406 -6,-3.4316406 z M 8,5.6425781 A 2.358298,2.358298 0 0 1 10.357422,7.9999999 2.358298,2.358298 0 0 1 8,10.359375 2.358298,2.358298 0 0 1 5.640625,7.9999999 2.358298,2.358298 0 0 1 8,5.6425781 Z" style="opacity:0.6;fill:#d0d0d0;stroke:none;stroke-width:0.66666669" />
  </g>
</svg>
