<?xml version="1.0" encoding="UTF-8" standalone="no"?>
<!-- Created with Inkscape (http://www.inkscape.org/) -->

<svg
   xmlns:dc="http://purl.org/dc/elements/1.1/"
   xmlns:cc="http://creativecommons.org/ns#"
   xmlns:rdf="http://www.w3.org/1999/02/22-rdf-syntax-ns#"
   xmlns:svg="http://www.w3.org/2000/svg"
   xmlns="http://www.w3.org/2000/svg"
   xmlns:sodipodi="http://sodipodi.sourceforge.net/DTD/sodipodi-0.dtd"
   xmlns:inkscape="http://www.inkscape.org/namespaces/inkscape"
   width="24.000002"
   height="24"
   viewBox="0 0 24.000002 24"
   version="1.1"
   id="main"
   inkscape:version="0.92+devel (1da36c2be7, 2017-09-15, custom)"
   sodipodi:docname="svn-commit.svg">
  <defs
     id="ol-defs" />
  <sodipodi:namedview
     id="base"
     pagecolor="#002466"
     bordercolor="#ffffff"
     borderopacity="0.30"
     inkscape:pageopacity="1"
     inkscape:pageshadow="2"
     inkscape:zoom="37.1673"
     inkscape:document-units="px"
     inkscape:current-layer="main"
     inkscape:document-rotation="0"
     showgrid="false"
     inkscape:showpageshadow="false"
     borderlayer="true"
     inkscape:window-width="1920"
     inkscape:window-height="1029"
     inkscape:window-x="0"
     inkscape:window-y="22"
     inkscape:window-maximized="1"
     units="px"
     inkscape:cx="7.1255754"
     inkscape:cy="8.0269055" />
  <metadata
     id="metadata5">
    <rdf:RDF>
      <cc:Work
         rdf:about="">
        <dc:format>image/svg+xml</dc:format>
        <dc:type
           rdf:resource="http://purl.org/dc/dcmitype/StillImage" />
        <dc:title></dc:title>
      </cc:Work>
    </rdf:RDF>
  </metadata>
  <g
     id="g843"
     inkscape:label="#svn-commit"
     style="stroke:none;stroke-width:0.66666669"
     transform="scale(1.5)">
    <path
       style="fill:none;stroke:none;stroke-width:0.66666669"
       d="M -5.5000004e-8,-4.9999999e-8 H 16.000001 V 16 H -5.5000004e-8 Z"
       id="boundary"
       inkscape:label="#boundary"
       inkscape:connector-curvature="0" />
    <path
       style="opacity:0.6;fill:#d0d0d0;stroke:none;stroke-width:0.66666496;stroke-dasharray:2, 0.666665"
       d="m 3.5000005,2 a 1.5,1.5 0 0 0 -1.5,1.4999999 1.5,1.5 0 0 0 1,1.4121095 V 11.08789 a 1.5,1.5 0 0 0 -1,1.41211 1.5,1.5 0 0 0 1.5,1.5 1.5,1.5 0 0 0 1.4999999,-1.5 1.5,1.5 0 0 0 -0.9999999,-1.41211 V 4.9121094 A 1.5,1.5 0 0 0 4.103516,4.8710941 L 6.6289068,7.3964847 A 1.5,1.5 0 0 0 6.5000006,8 a 1.5,1.5 0 0 0 1.4999999,1.5 1.5,1.5 0 0 0 1.5,-1.5 1.5,1.5 0 0 0 -1.5,-1.4999998 A 1.5,1.5 0 0 0 7.3144532,6.667969 L 4.8320316,4.1855468 A 1.5,1.5 0 0 0 5.0000004,3.4999999 1.5,1.5 0 0 0 3.5000005,2 Z"
       id="path811"
       inkscape:label="#"
       inkscape:connector-curvature="0" />
    <path
       inkscape:label="#"
       inkscape:connector-curvature="0"
       id="path837"
       d="M 14,13.999999 H 8.7994392 L 11.39972,9.496182 Z"
       inkscape:transform-center-y="-0.75063705"
       style="fill:#00ff00;stroke:none;stroke-width:0.66666663;stroke-dasharray:1.99999989, 0.66666662" />
  </g>
</svg>
