<?xml version="1.0" encoding="UTF-8" standalone="no"?>
<!-- Created with Inkscape (http://www.inkscape.org/) -->

<svg
   xmlns:dc="http://purl.org/dc/elements/1.1/"
   xmlns:cc="http://creativecommons.org/ns#"
   xmlns:rdf="http://www.w3.org/1999/02/22-rdf-syntax-ns#"
   xmlns:svg="http://www.w3.org/2000/svg"
   xmlns="http://www.w3.org/2000/svg"
   xmlns:sodipodi="http://sodipodi.sourceforge.net/DTD/sodipodi-0.dtd"
   xmlns:inkscape="http://www.inkscape.org/namespaces/inkscape"
   width="24.000002"
   height="24"
   viewBox="0 0 6.3500003 6.3499998"
   version="1.1"
   id="main"
   inkscape:version="0.92+devel (5451be0409, 2017-08-29, custom)"
   sodipodi:docname="help-donate.svg">
  <defs
     id="ol-defs">
    <style
       id="current-color-scheme">      .ColorScheme-Text {
        color:#d0d0d0;
        stop-color:#d0d0d0;
      }
      .ColorScheme-Background {
        color:#212121;
        stop-color:#212121;
      }
      .ColorScheme-Highlight {
        color:#0039a9;
        stop-color:#0039a9;
      }
      .ColorScheme-ViewText {
        color:#d0d0d0;
        stop-color:#d0d0d0;
      }
      .ColorScheme-ViewBackground {
        color:#19191b;
        stop-color:#19191b;
      }
      .ColorScheme-ViewHover {
        color:#005cc7;
        stop-color:#005cc7;
      }
      .ColorScheme-ViewFocus{
        color:#002466;
        stop-color:#002466;
      }
      .ColorScheme-ButtonText {
        color:#d0d0d0;
        stop-color:#d0d0d0;
      }
      .ColorScheme-ButtonBackground {
        color:#232323;
        stop-color:#232323;                             
      }                                                 
      .ColorScheme-ButtonHover {                        
        color:#005cc7;                                  
        stop-color:#005cc7;                             
      }                                                 
      .ColorScheme-ButtonFocus{                         
        color:#0039a9;                                  
        stop-color:#0039a9;                             
      }</style>
  </defs>
  <sodipodi:namedview
     id="base"
     pagecolor="#002466"
     bordercolor="#ffffff"
     borderopacity="0.38039216"
     inkscape:pageopacity="1"
     inkscape:pageshadow="2"
     inkscape:zoom="14.337109"
     inkscape:cx="8.0478715"
     inkscape:cy="6.678892"
     inkscape:document-units="px"
     inkscape:current-layer="main"
     inkscape:document-rotation="0"
     showgrid="false"
     inkscape:showpageshadow="false"
     borderlayer="true"
     inkscape:window-width="1920"
     inkscape:window-height="1025"
     inkscape:window-x="0"
     inkscape:window-y="26"
     inkscape:window-maximized="1"
     units="px" />
  <metadata
     id="metadata5">
    <rdf:RDF>
      <cc:Work
         rdf:about="">
        <dc:format>image/svg+xml</dc:format>
        <dc:type
           rdf:resource="http://purl.org/dc/dcmitype/StillImage" />
        <dc:title />
      </cc:Work>
    </rdf:RDF>
  </metadata>
  <g
     id="g826"
     inkscape:label="#help-donate"
     transform="matrix(1.5,0,0,1.125,6.1875003e-8,1.5874999)"
     style="stroke-width:0.76980042">
    <path
       style="fill:none;stroke-width:0.15769863"
       d="M -4.1250001e-8,-1.411111 H 4.2333334 V 4.2333331 H -4.1250002e-8 Z"
       id="rect811-3"
       inkscape:label="#boundary"
       inkscape:connector-curvature="0" />
    <path
       inkscape:label="#"
       d="M 1.9510249,2.5291937 V 1.5377088 Q 1.4872276,1.4051953 1.2695268,1.137802 1.0541924,0.8680424 1.0541924,0.48469969 q 0,-0.38807519 0.2437301,-0.65073592 0.2460965,-0.26502693 0.6531024,-0.30525429 v -0.2342649 h 0.3431152 v 0.2342649 q 0.3762436,0.04496 0.598677,0.25792816 0.2224335,0.21060166 0.2839576,0.56554858 L 2.5780975,0.43027449 Q 2.5236725,0.15104969 2.2941401,0.0516645 v 0.92522816 q 0.567915,0.15381044 0.7737842,0.39990694 0.2058691,0.2437301 0.2058691,0.6270728 0,0.4283025 -0.2602944,0.7217253 Q 2.755571,3.0190205 2.2941401,3.0852772 V 3.5277777 H 1.9510249 V 3.0971088 Q 1.5416528,3.0474162 1.286091,2.7918545 1.0305292,2.5362926 0.95953991,2.0701291 L 1.5771474,2.0038717 q 0.037861,0.189305 0.1419788,0.3265511 0.1041174,0.1372462 0.2318987,0.1987709 z m 0,-2.48462814 q -0.1396125,0.0473267 -0.2224335,0.16090933 -0.082821,0.11358267 -0.082821,0.25082906 0,0.12541467 0.075723,0.23426493 0.075723,0.106484 0.2295324,0.17274085 z M 2.2941401,2.5623221 q 0.1774735,-0.033128 0.2886901,-0.1632755 0.1112173,-0.1325133 0.1112173,-0.309987 0,-0.1585428 -0.094652,-0.2721259 Q 2.5071089,1.7009844 2.2941409,1.6394603 Z"
       style="font-style:normal;font-variant:normal;font-weight:bold;font-stretch:normal;font-size:4.23333311px;font-family:Arial;-inkscape-font-specification:'Arial Bold';opacity:0.6;fill:#d0d0d0;stroke-width:0.2036763"
       id="path820"
       inkscape:connector-curvature="0" />
  </g>
</svg>
