<?xml version="1.0" encoding="UTF-8" standalone="no"?>
<!-- Created with Inkscape (http://www.inkscape.org/) -->

<svg xmlns:dc="http://purl.org/dc/elements/1.1/" xmlns:cc="http://creativecommons.org/ns#" xmlns:rdf="http://www.w3.org/1999/02/22-rdf-syntax-ns#" xmlns:svg="http://www.w3.org/2000/svg" xmlns="http://www.w3.org/2000/svg" xmlns:sodipodi="http://sodipodi.sourceforge.net/DTD/sodipodi-0.dtd" xmlns:inkscape="http://www.inkscape.org/namespaces/inkscape" width="24.000002" height="24" viewBox="0 0 24.000002 24" version="1.1" id="main" inkscape:version="0.92+devel (f318dbfe43, 2017-10-09, custom)" sodipodi:docname="teleport-random.svg">
  <defs id="ol-defs" />
  <sodipodi:namedview id="base" pagecolor="#002466" bordercolor="#ffffff" borderopacity="0.30" inkscape:pageopacity="1" inkscape:pageshadow="2" inkscape:zoom="18.58365" inkscape:document-units="px" inkscape:current-layer="main" inkscape:document-rotation="0" showgrid="false" inkscape:showpageshadow="false" borderlayer="true" inkscape:window-width="1920" inkscape:window-height="1027" inkscape:window-x="0" inkscape:window-y="24" inkscape:window-maximized="1" units="px" inkscape:cx="6.7489002" inkscape:cy="8.0269055" />
  <metadata id="metadata5">
    <rdf:RDF>
      <cc:Work rdf:about="">
        <dc:format>image/svg+xml</dc:format>
        <dc:type rdf:resource="http://purl.org/dc/dcmitype/StillImage" />
        <dc:title></dc:title>
      </cc:Work>
    </rdf:RDF>
  </metadata>
  <g id="g825" inkscape:label="#teleport-random" style="stroke:none;stroke-width:0.66666669" transform="scale(1.5)">
    <path style="fill:none;stroke:none;stroke-width:0.66666669" d="M -5.5000004e-8,-4.9999999e-8 H 16.000001 V 16 H -5.5000004e-8 Z" id="boundary" inkscape:label="#boundary" inkscape:connector-curvature="0" />
    <path style="opacity:0.6;fill:#d0d0d0;stroke:none;stroke-width:1.5;stroke-linecap:round" d="M 4.7988281,3 C 3.8016281,3 3,3.801628 3,4.7988281 V 19.201172 C 3,20.198372 3.801628,21 4.7988281,21 H 19.201172 C 20.198372,21 21,20.198372 21,19.201172 V 4.7988281 C 21,3.8016281 20.198372,3 19.201172,3 Z M 6.9667969,5.2578125 A 1.7102134,1.7102134 0 0 1 8.6777344,6.9667969 1.7102134,1.7102134 0 0 1 6.9667969,8.6777344 1.7102134,1.7102134 0 0 1 5.2578125,6.9667969 1.7102134,1.7102134 0 0 1 6.9667969,5.2578125 Z m 10.0664061,0 a 1.7102134,1.7102134 0 0 1 1.708985,1.7089844 1.7102134,1.7102134 0 0 1 -1.708985,1.7109375 1.7102134,1.7102134 0 0 1 -1.710937,-1.7109375 1.7102134,1.7102134 0 0 1 1.710937,-1.7089844 z m -5.035156,5.0312495 a 1.7102134,1.7102134 0 0 1 1.712891,1.708985 1.7102134,1.7102134 0 0 1 -1.712891,1.712891 1.7102134,1.7102134 0 0 1 -1.708985,-1.712891 1.7102134,1.7102134 0 0 1 1.708985,-1.708985 z m -5.0312501,5.033204 a 1.7102134,1.7102134 0 0 1 1.7109375,1.710937 1.7102134,1.7102134 0 0 1 -1.7109375,1.708985 1.7102134,1.7102134 0 0 1 -1.7089844,-1.708985 1.7102134,1.7102134 0 0 1 1.7089844,-1.710937 z m 10.0664061,0 a 1.7102134,1.7102134 0 0 1 1.708985,1.710937 1.7102134,1.7102134 0 0 1 -1.708985,1.708985 1.7102134,1.7102134 0 0 1 -1.710937,-1.708985 1.7102134,1.7102134 0 0 1 1.710937,-1.710937 z" transform="scale(0.66666667)" id="rect812" inkscape:connector-curvature="0" inkscape:label="#" />
  </g>
</svg>
