<?xml version="1.0" encoding="UTF-8" standalone="no"?>
<!-- Created with Inkscape (http://www.inkscape.org/) -->

<svg
   xmlns:dc="http://purl.org/dc/elements/1.1/"
   xmlns:cc="http://creativecommons.org/ns#"
   xmlns:rdf="http://www.w3.org/1999/02/22-rdf-syntax-ns#"
   xmlns:svg="http://www.w3.org/2000/svg"
   xmlns="http://www.w3.org/2000/svg"
   xmlns:sodipodi="http://sodipodi.sourceforge.net/DTD/sodipodi-0.dtd"
   xmlns:inkscape="http://www.inkscape.org/namespaces/inkscape"
   width="24.000002"
   height="24"
   viewBox="0 0 24.000002 24"
   version="1.1"
   id="main"
   inkscape:version="0.92+devel (1da36c2be7, 2017-09-15, custom)"
   sodipodi:docname="text-frame-unlink.svg">
  <defs
     id="ol-defs" />
  <sodipodi:namedview
     id="base"
     pagecolor="#002466"
     bordercolor="#ffffff"
     borderopacity="0.30"
     inkscape:pageopacity="1"
     inkscape:pageshadow="2"
     inkscape:zoom="18.58365"
     inkscape:document-units="px"
     inkscape:current-layer="main"
     inkscape:document-rotation="0"
     showgrid="false"
     inkscape:showpageshadow="false"
     borderlayer="true"
     inkscape:window-width="1920"
     inkscape:window-height="1029"
     inkscape:window-x="0"
     inkscape:window-y="22"
     inkscape:window-maximized="1"
     units="px"
     inkscape:cx="7.1255754"
     inkscape:cy="8.0269056" />
  <metadata
     id="metadata5">
    <rdf:RDF>
      <cc:Work
         rdf:about="">
        <dc:format>image/svg+xml</dc:format>
        <dc:type
           rdf:resource="http://purl.org/dc/dcmitype/StillImage" />
        <dc:title></dc:title>
      </cc:Work>
    </rdf:RDF>
  </metadata>
  <g
     id="g1487"
     inkscape:label="#text-frame-unlink"
     style="stroke:none;stroke-width:0.66666669"
     transform="scale(1.5)">
    <path
       style="fill:none;stroke:none;stroke-width:0.66666669"
       d="M -5.5000004e-8,-4.9999999e-8 H 16.000001 V 16 H -5.5000004e-8 Z"
       id="boundary"
       inkscape:label="#boundary"
       inkscape:connector-curvature="0" />
    <path
       inkscape:connector-curvature="0"
       style="opacity:0.4;fill:#d0d0d0;stroke:none;stroke-width:0.66666669;stroke-dasharray:2.00000001, 0.66666667"
       d="M 2.0000001,2.0000002 V 14 H 7.1914063 V 2.0000002 Z m 6.8085938,0 V 14 H 14 V 2.0000002 Z M 2.9687501,3.0390627 h 3.1523438 v 1 H 2.9687501 Z m 6.8085938,0 h 3.1523441 v 1 H 9.7773439 Z M 2.9687501,4.8378908 h 3.1523438 v 1 H 2.9687501 Z m 6.8085938,0 h 3.1523441 v 1 H 9.7773439 Z M 2.9687501,6.6757814 h 3.1523438 v 1 H 2.9687501 Z m 6.8085938,0 h 3.1523441 v 1 H 9.7773439 Z"
       id="rect811"
       inkscape:label="#" />
    <path
       inkscape:label="#"
       inkscape:connector-curvature="0"
       id="path911"
       d="m 6.7362838,9.092786 c -0.8147439,0 -1.502912,0.5507565 -1.7279386,1.295401 H 4.3731711 C 4.0832904,10.388187 3.85,10.620741 3.85,10.910622 c 0,0.289881 0.2332904,0.523908 0.5231711,0.523908 h 0.641069 c 0.230657,0.736311 0.9137855,1.280664 1.7220437,1.280664 h 2.5524858 c 0.8119554,0 1.4960404,-0.549508 1.7227804,-1.29098 h 0.614542 c 0.28988,0 0.523908,-0.232554 0.523908,-0.522435 0,-0.289881 -0.234027,-0.523908 -0.523908,-0.523908 H 11.010813 C 10.783213,9.6385157 10.099731,9.092786 9.2887696,9.092786 Z m 0,1.046342 h 2.5524858 c 0.2257457,0 0.4222263,0.09117 0.5600142,0.238743 H 8.7280185 c -0.2898808,0 -0.5224343,0.234027 -0.5224343,0.523908 0,0.289881 0.2325535,0.522435 0.5224343,0.522435 H 9.8517311 C 9.713813,11.574691 9.5163428,11.668851 9.2887696,11.668851 H 6.7362838 c -0.222772,0 -0.4180326,-0.08944 -0.5563298,-0.234321 h 1.0117097 c 0.2898809,0 0.5224344,-0.234027 0.5224344,-0.523908 0,-0.289881 -0.2325535,-0.522435 -0.5224344,-0.522435 H 6.1666902 c 0.138882,-0.153347 0.338912,-0.249059 0.5695936,-0.249059 z"
       style="fill:#ff0000;stroke:none;stroke-width:2.51968479" />
  </g>
</svg>
