<?xml version="1.0" encoding="UTF-8" standalone="no"?>
<!-- Created with Inkscape (http://www.inkscape.org/) -->

<svg
   xmlns:dc="http://purl.org/dc/elements/1.1/"
   xmlns:cc="http://creativecommons.org/ns#"
   xmlns:rdf="http://www.w3.org/1999/02/22-rdf-syntax-ns#"
   xmlns:svg="http://www.w3.org/2000/svg"
   xmlns="http://www.w3.org/2000/svg"
   xmlns:sodipodi="http://sodipodi.sourceforge.net/DTD/sodipodi-0.dtd"
   xmlns:inkscape="http://www.inkscape.org/namespaces/inkscape"
   width="24.000002"
   height="24"
   viewBox="0 0 24.000002 24"
   version="1.1"
   id="main"
   inkscape:version="0.92+devel (1da36c2be7, 2017-09-15, custom)"
   sodipodi:docname="text-speak.svg">
  <defs
     id="ol-defs" />
  <sodipodi:namedview
     id="base"
     pagecolor="#002466"
     bordercolor="#ffffff"
     borderopacity="0.30"
     inkscape:pageopacity="1"
     inkscape:pageshadow="2"
     inkscape:zoom="18.58365"
     inkscape:document-units="px"
     inkscape:current-layer="main"
     inkscape:document-rotation="0"
     showgrid="false"
     inkscape:showpageshadow="false"
     borderlayer="true"
     inkscape:window-width="1920"
     inkscape:window-height="1029"
     inkscape:window-x="0"
     inkscape:window-y="22"
     inkscape:window-maximized="1"
     units="px"
     inkscape:cx="7.5022506"
     inkscape:cy="8.0000002" />
  <metadata
     id="metadata5">
    <rdf:RDF>
      <cc:Work
         rdf:about="">
        <dc:format>image/svg+xml</dc:format>
        <dc:type
           rdf:resource="http://purl.org/dc/dcmitype/StillImage" />
        <dc:title></dc:title>
      </cc:Work>
    </rdf:RDF>
  </metadata>
  <g
     id="g845"
     inkscape:label="#text-speak"
     style="stroke:none;stroke-width:0.66666669"
     transform="scale(1.5)">
    <path
       style="fill:none;stroke:none;stroke-width:0.66666669"
       d="M -5.5000004e-8,-4.9999999e-8 H 16.000001 V 16 H -5.5000004e-8 Z"
       id="boundary"
       inkscape:label="#boundary"
       inkscape:connector-curvature="0" />
    <path
       inkscape:label="#"
       inkscape:connector-curvature="0"
       style="opacity:0.6;fill:#d0d0d0;stroke:none;stroke-width:0.66666669"
       id="path835"
       d="m 2.8232419,2.7724336 c -0.4570792,0 -0.8232422,0.3661632 -0.8232422,0.8232422 V 9.789035 c 0,0.301136 0.1677928,0.552026 0.4072266,0.695801 l -0.023437,0.0015 4.1308593,2.862305 V 10.613743 H 13.175293 C 13.632373,10.613743 14,10.246115 14,9.789035 V 3.5956758 C 14,3.1385968 13.632373,2.7724336 13.175293,2.7724336 Z M 8.0703123,3.7582735 V 9.46384 L 5.6928708,7.5610078 H 4.9794919 V 5.6596406 h 0.7133789 z m 2.2426757,0.5815429 c 1.517747,1.3075393 1.517747,3.4385546 0,4.7460938 L 9.7416991,8.5937227 c 1.2089549,-1.0415147 1.2089549,-2.7202039 0,-3.7617188 z M 9.2685544,5.3637422 c 0.7373176,0.7373524 0.7358876,1.9433112 -0.00146,2.680664 L 8.7368161,7.5141328 C 9.1875547,7.0633917 9.1890217,6.3447564 8.738281,5.8940156 Z" />
  </g>
</svg>
