<?xml version="1.0" encoding="UTF-8" standalone="no"?>
<svg
   xmlns:dc="http://purl.org/dc/elements/1.1/"
   xmlns:cc="http://creativecommons.org/ns#"
   xmlns:rdf="http://www.w3.org/1999/02/22-rdf-syntax-ns#"
   xmlns:svg="http://www.w3.org/2000/svg"
   xmlns="http://www.w3.org/2000/svg"
   xmlns:sodipodi="http://sodipodi.sourceforge.net/DTD/sodipodi-0.dtd"
   xmlns:inkscape="http://www.inkscape.org/namespaces/inkscape"
   height="24"
   viewBox="0 0 24 24"
   width="24"
   version="1.1"
   id="svg4"
   sodipodi:docname="tools-rip-video-dvd.svg"
   inkscape:version="0.92+devel (1c31310676, 2017-09-09, custom)">
  <metadata
     id="metadata10">
    <rdf:RDF>
      <cc:Work
         rdf:about="">
        <dc:format>image/svg+xml</dc:format>
        <dc:type
           rdf:resource="http://purl.org/dc/dcmitype/StillImage" />
        <dc:title></dc:title>
      </cc:Work>
    </rdf:RDF>
  </metadata>
  <defs
     id="defs8" />
  <sodipodi:namedview
     pagecolor="#002466"
     bordercolor="#ffffff"
     inkscape:document-rotation="0"
     borderopacity="0.13333333"
     objecttolerance="10"
     gridtolerance="10"
     guidetolerance="10"
     inkscape:pageopacity="0"
     inkscape:pageshadow="2"
     inkscape:window-width="1920"
     inkscape:window-height="1027"
     id="namedview6"
     showgrid="false"
     borderlayer="true"
     inkscape:showpageshadow="false"
     inkscape:zoom="22.96875"
     inkscape:cx="7.695238"
     inkscape:cy="8.0000002"
     inkscape:window-x="0"
     inkscape:window-y="24"
     inkscape:window-maximized="1"
     inkscape:current-layer="svg4" />
  <g
     id="g847"
     inkscape:label="#tools-rip-video-dvd"
     style="stroke:none;stroke-width:0.66666669"
     transform="scale(1.5)">
    <path
       inkscape:connector-curvature="0"
       inkscape:label="#boundary"
       style="stroke:none"
       id="path2"
       stroke-width=".25455"
       stroke-linecap="round"
       fill="none"
       d="M 0,-4.9999999e-8 H 16 V 16 H 0 Z" />
    <path
       style="opacity:0.6;fill:#d0d0d0;stroke:none;stroke-width:0.80000007"
       d="M 8,2 C 4.6862915,2 2,4.6862915 2,8 c 0,3.313708 2.6862915,6 6,6 3.313708,0 6,-2.686292 6,-6 C 14,4.6862915 11.313708,2 8,2 Z M 3.5585938,6.3808594 h 1.3300781 1.765625 0.7265625 c 0.2008587,0.6120632 0.265625,0.7988281 0.265625,0.7988281 0,0 0.3064724,0.8873454 0.2558594,0.9433594 -0.036495,-0.056015 0.6777343,-0.9335938 0.6777343,-0.9335938 0,0 0.1055354,-0.1311706 0.6679688,-0.8085937 h 1.1796871 0.941407 c 1.079237,0 1.830005,0.5740263 1.65625,1.3125 -0.169292,0.7382661 -1.193677,1.3125 -2.263672,1.3125 H 9.3378906 L 9.7636719,7.1699219 h 1.0019531 l -0.292969,1.2578125 h 0.228516 c 0.599345,0 1.16626,-0.2203765 1.285156,-0.734375 0.110109,-0.4720521 -0.286663,-0.7382813 -0.93164,-0.7382813 h -0.238282 l -0.9746091,0.00586 -2.3046875,2.6582031 -0.90625,-2.6113281 c -0.00885,-0.01854 -0.017578,-0.042969 -0.017578,-0.042969 0,-0.00451 -0.018494,-0.024301 -0.027344,-0.019531 -0.01839,0.00478 -0.014276,0.038149 -0.00977,0.042969 0.00453,0.013801 0.00977,0.022524 0.00977,0.027344 0.082243,0.2008025 0.086716,0.5420327 0.054687,0.6777344 -0.1830476,0.7382661 -1.1975305,1.3125 -2.2675781,1.3125 H 2.9511719 L 3.375,7.1699219 H 4.3769531 L 4.0898438,8.4277344 H 4.3125 c 0.5991892,0 1.1625196,-0.2203763 1.28125,-0.734375 C 5.703651,7.2213073 5.3105264,6.9550781 4.6660156,6.9550781 H 4.4277344 3.4257812 Z"
       id="path812"
       inkscape:connector-curvature="0"
       inkscape:label="#" />
  </g>
</svg>
