<?xml version="1.0" encoding="UTF-8" standalone="no"?>
<!-- Created with Inkscape (http://www.inkscape.org/) -->

<svg
   xmlns:dc="http://purl.org/dc/elements/1.1/"
   xmlns:cc="http://creativecommons.org/ns#"
   xmlns:rdf="http://www.w3.org/1999/02/22-rdf-syntax-ns#"
   xmlns:svg="http://www.w3.org/2000/svg"
   xmlns="http://www.w3.org/2000/svg"
   xmlns:sodipodi="http://sodipodi.sourceforge.net/DTD/sodipodi-0.dtd"
   xmlns:inkscape="http://www.inkscape.org/namespaces/inkscape"
   width="24.000002"
   height="24"
   viewBox="0 0 24.000002 24"
   version="1.1"
   id="main"
   inkscape:version="0.92+devel (1c31310676, 2017-09-09, custom)"
   sodipodi:docname="tools-media-optical-burn.svg">
  <defs
     id="ol-defs" />
  <sodipodi:namedview
     id="base"
     pagecolor="#002466"
     bordercolor="#ffffff"
     borderopacity="0.30"
     inkscape:pageopacity="1"
     inkscape:pageshadow="2"
     inkscape:zoom="18.58365"
     inkscape:document-units="px"
     inkscape:current-layer="main"
     inkscape:document-rotation="0"
     showgrid="false"
     inkscape:showpageshadow="false"
     borderlayer="true"
     inkscape:window-width="1920"
     inkscape:window-height="1027"
     inkscape:window-x="0"
     inkscape:window-y="24"
     inkscape:window-maximized="1"
     units="px"
     inkscape:cx="7.5829668"
     inkscape:cy="8.0000002" />
  <metadata
     id="metadata5">
    <rdf:RDF>
      <cc:Work
         rdf:about="">
        <dc:format>image/svg+xml</dc:format>
        <dc:type
           rdf:resource="http://purl.org/dc/dcmitype/StillImage" />
        <dc:title></dc:title>
      </cc:Work>
    </rdf:RDF>
  </metadata>
  <g
     id="g867"
     inkscape:label="#tools-media-optical-burn"
     style="stroke:none;stroke-width:0.66666669"
     transform="scale(1.5)">
    <path
       style="fill:none;stroke:none;stroke-width:0.66666669"
       d="M -5.5000004e-8,-4.9999999e-8 H 16.000001 V 16 H -5.5000004e-8 Z"
       id="boundary"
       inkscape:label="#boundary"
       inkscape:connector-curvature="0" />
    <path
       inkscape:label="#"
       inkscape:connector-curvature="0"
       id="path861"
       d="M 8,2 A 6,6 0 0 0 2,8 6,6 0 0 0 8,14 6,6 0 0 0 14,8 6,6 0 0 0 8,2 Z M 7.5986328,3.8999023 C 8.5922665,4.9428497 8.5863384,5.6158716 8.1831054,7.1123046 8.036614,7.6559444 8.8166388,7.7466879 8.7705079,7.2441406 8.6981104,6.4554444 8.8720233,5.8475715 9.6435545,5.3808594 9.5121073,8.138438 11.071993,7.8402219 11.145019,9.778321 c 0.03892,1.0328 -0.968138,1.709603 -1.8779292,2.175292 C 9.659345,10.949841 9.0911498,10.325875 8.3559571,10.113769 7.40016,9.838017 7.2076337,9.148002 7.2807617,8.713379 6.9881507,8.937816 5.4216246,10.768591 7.0874023,12.125 6.3594981,11.995579 4.3936428,11.141185 4.6337891,8.944824 4.7725421,7.6757935 6.849136,6.108096 7.2939454,5.5302734 7.8222903,4.8439344 7.5986329,3.8999023 7.5986328,3.8999023 Z"
       style="opacity:0.6;fill:#d0d0d0;stroke:none;stroke-width:1.7553333;stroke-linecap:square" />
  </g>
</svg>
