<?xml version="1.0" encoding="UTF-8" standalone="no"?>
<svg
   xmlns:dc="http://purl.org/dc/elements/1.1/"
   xmlns:cc="http://creativecommons.org/ns#"
   xmlns:rdf="http://www.w3.org/1999/02/22-rdf-syntax-ns#"
   xmlns:svg="http://www.w3.org/2000/svg"
   xmlns="http://www.w3.org/2000/svg"
   xmlns:sodipodi="http://sodipodi.sourceforge.net/DTD/sodipodi-0.dtd"
   xmlns:inkscape="http://www.inkscape.org/namespaces/inkscape"
   height="24"
   viewBox="0 0 24 24"
   width="24"
   version="1.1"
   id="svg4"
   sodipodi:docname="tools-media-optical-burn-image.svg"
   inkscape:version="0.92+devel (1c31310676, 2017-09-09, custom)">
  <metadata
     id="metadata10">
    <rdf:RDF>
      <cc:Work
         rdf:about="">
        <dc:format>image/svg+xml</dc:format>
        <dc:type
           rdf:resource="http://purl.org/dc/dcmitype/StillImage" />
        <dc:title></dc:title>
      </cc:Work>
    </rdf:RDF>
  </metadata>
  <defs
     id="defs8" />
  <sodipodi:namedview
     pagecolor="#002466"
     bordercolor="#ffffff"
     inkscape:document-rotation="0"
     borderopacity="0.13333333"
     objecttolerance="10"
     gridtolerance="10"
     guidetolerance="10"
     inkscape:pageopacity="0"
     inkscape:pageshadow="2"
     inkscape:window-width="1920"
     inkscape:window-height="1027"
     id="namedview6"
     showgrid="false"
     borderlayer="true"
     inkscape:showpageshadow="false"
     inkscape:zoom="16.241359"
     inkscape:cx="8.7448619"
     inkscape:cy="7.7876621"
     inkscape:window-x="0"
     inkscape:window-y="24"
     inkscape:window-maximized="1"
     inkscape:current-layer="svg4" />
  <g
     id="g852"
     inkscape:label="#tools-media-optical-burn-image"
     style="stroke:none;stroke-width:0.66666669"
     transform="scale(1.5)">
    <path
       inkscape:connector-curvature="0"
       inkscape:label="#boundary"
       style="stroke:none"
       id="path2"
       stroke-width=".25455"
       stroke-linecap="round"
       fill="none"
       d="M 0,-4.9999999e-8 H 16 V 16 H 0 Z" />
    <path
       inkscape:label="#"
       id="path831"
       d="M 8,2 A 6,6 0 0 0 2,8 6,6 0 0 0 8,14 6,6 0 0 0 14,8 6,6 0 0 0 8,2 Z M 6.78125,5.9824219 c 0.2135417,0 0.4344617,0.015842 0.6601562,0.048828 0.2256945,0.03125 0.4578994,0.080295 0.6992188,0.1445312 V 7 C 7.9270834,6.9045138 7.7187501,6.8318141 7.515625,6.7832031 7.3125,6.7345911 7.1219617,6.7109375 6.9414062,6.7109375 c -0.2395832,0 -0.4166667,0.031684 -0.53125,0.097656 -0.1145829,0.065972 -0.171875,0.1677514 -0.171875,0.3066406 0,0.1041666 0.036892,0.1851129 0.1132813,0.2441406 0.078125,0.057291 0.21875,0.1067705 0.421875,0.1484375 L 7.2011719,7.59375 c 0.4322918,0.086805 0.7395834,0.219404 0.921875,0.3964844 0.1822915,0.1770833 0.2734375,0.4294705 0.2734375,0.7558594 0,0.4288195 -0.1276041,0.7469623 -0.3828125,0.9570312 -0.2534722,0.2083335 -0.641493,0.3125 -1.1640625,0.3125 -0.2465277,0 -0.4939235,-0.023442 -0.7421875,-0.070312 C 5.8591581,9.8984358 5.6115452,9.8302953 5.3632812,9.7382812 V 8.890625 c 0.2482639,0.1319445 0.4878474,0.2330727 0.71875,0.3007812 0.232639,0.065972 0.4565973,0.097656 0.671875,0.097656 0.21875,0 0.3856338,-0.034505 0.5019532,-0.1074219 0.1163192,-0.072917 0.1738281,-0.1770833 0.1738281,-0.3125 0,-0.1215278 -0.03928,-0.215278 -0.1191406,-0.28125 C 7.2324219,8.5219185 7.0759548,8.4641924 6.8398438,8.4121094 L 6.4511719,8.3242188 C 6.0622831,8.2408855 5.7782118,8.1080728 5.5976562,7.9257812 5.4188369,7.7434895 5.3281251,7.4965278 5.328125,7.1875 c 0,-0.3871527 0.125,-0.6842447 0.375,-0.8925781 0.25,-0.2083334 0.609375,-0.3125 1.078125,-0.3125 z m 3.873047,0 c 0.625,0 1.114583,0.1794704 1.46875,0.5371093 C 12.477214,6.87717 12.654297,7.3697916 12.654297,8 c 0,0.6284722 -0.177083,1.1228299 -0.53125,1.4804688 -0.354167,0.3576388 -0.84375,0.5371092 -1.46875,0.5371092 -0.623264,0 -1.1128474,-0.1794704 -1.4687501,-0.5371092 C 8.8313803,9.1228299 8.6542969,8.6284722 8.6542969,8 c 0,-0.6302084 0.1770834,-1.1228299 0.53125,-1.4804688 C 9.5414496,6.1618923 10.031033,5.9824219 10.654297,5.9824219 Z M 3.7460938,6.0527344 H 4.7480469 V 9.9414062 H 3.7460938 Z m 6.9082032,0.65625 c -0.305555,0 -0.542535,0.1121962 -0.7109376,0.3378906 C 9.7749559,7.2725695 9.6914062,7.5902777 9.6914062,8 c 0,0.4079861 0.08355,0.7254774 0.2519532,0.9511719 0.1684016,0.2256944 0.4053826,0.3378906 0.7109376,0.3378906 0.307291,0 0.546441,-0.1121962 0.714844,-0.3378906 C 11.537544,8.7254774 11.621094,8.4079861 11.621094,8 c 0,-0.4097223 -0.08355,-0.7274305 -0.251953,-0.953125 C 11.200738,6.8211806 10.961589,6.7089844 10.654297,6.7089844 Z"
       style="opacity:0.6;fill:#d0d0d0;fill-opacity:1;stroke:none;stroke-width:0.80000007"
       inkscape:connector-curvature="0" />
  </g>
</svg>
