<?xml version="1.0" encoding="UTF-8" standalone="no"?>
<svg
   xmlns:dc="http://purl.org/dc/elements/1.1/"
   xmlns:cc="http://creativecommons.org/ns#"
   xmlns:rdf="http://www.w3.org/1999/02/22-rdf-syntax-ns#"
   xmlns:svg="http://www.w3.org/2000/svg"
   xmlns="http://www.w3.org/2000/svg"
   xmlns:sodipodi="http://sodipodi.sourceforge.net/DTD/sodipodi-0.dtd"
   xmlns:inkscape="http://www.inkscape.org/namespaces/inkscape"
   height="24"
   viewBox="0 0 24 24"
   width="24"
   version="1.1"
   id="svg4"
   sodipodi:docname="view-group.svg"
   inkscape:version="0.92+devel (58ef38f81c, 2017-09-13, custom)">
  <metadata
     id="metadata10">
    <rdf:RDF>
      <cc:Work
         rdf:about="">
        <dc:format>image/svg+xml</dc:format>
        <dc:type
           rdf:resource="http://purl.org/dc/dcmitype/StillImage" />
        <dc:title></dc:title>
      </cc:Work>
    </rdf:RDF>
  </metadata>
  <defs
     id="defs8" />
  <sodipodi:namedview
     pagecolor="#002466"
     bordercolor="#ffffff"
     inkscape:document-rotation="0"
     borderopacity="0.13333333"
     objecttolerance="10"
     gridtolerance="10"
     guidetolerance="10"
     inkscape:pageopacity="0"
     inkscape:pageshadow="2"
     inkscape:window-width="1920"
     inkscape:window-height="1027"
     id="namedview6"
     showgrid="false"
     borderlayer="true"
     inkscape:showpageshadow="false"
     inkscape:zoom="16.241359"
     inkscape:cx="7.542857"
     inkscape:cy="8.0000002"
     inkscape:window-x="0"
     inkscape:window-y="24"
     inkscape:window-maximized="1"
     inkscape:current-layer="svg4" />
  <g
     id="g872"
     inkscape:label="#view-group"
     style="stroke:none;stroke-width:0.66666669"
     transform="scale(1.5)">
    <path
       inkscape:connector-curvature="0"
       inkscape:label="#boundary"
       style="stroke:none"
       id="path2"
       stroke-width=".25455"
       stroke-linecap="round"
       fill="none"
       d="M 0,-4.9999999e-8 H 16 V 16 H 0 Z" />
    <path
       sodipodi:nodetypes="cccccccccc"
       inkscape:label="#"
       inkscape:connector-curvature="0"
       d="M 1.9891409,2.0239382 V 14.023938 H 13.989141 V 2.0239382 Z M 2.7040313,4.8874429 H 13.274252 V 13.343051 H 2.7040313 Z"
       id="path823"
       style="opacity:0.6;fill:#d0d0d0;stroke:none;stroke-width:0.66666669" />
    <path
       inkscape:label="#"
       id="circle839"
       d="M 8.0136719,6.8332031 A 1.1121818,1.1121818 0 0 0 6.9023438,7.9445312 1.1121818,1.1121818 0 0 0 8.0136719,9.0578125 1.1121818,1.1121818 0 0 0 9.1269531,7.9445312 1.1121818,1.1121818 0 0 0 8.0136719,6.8332031 Z M 6.5820312,9.26875 A 1.1121818,1.1121818 0 0 0 5.4707031,10.382031 1.1121818,1.1121818 0 0 0 6.5820312,11.493359 1.1121818,1.1121818 0 0 0 7.6933594,10.382031 1.1121818,1.1121818 0 0 0 6.5820312,9.26875 Z M 9.4453125,9.317578 A 1.1121818,1.1121818 0 0 0 8.3339844,10.428906 1.1121818,1.1121818 0 0 0 9.4453125,11.542188 1.1121818,1.1121818 0 0 0 10.558594,10.428906 1.1121818,1.1121818 0 0 0 9.4453125,9.317578 Z"
       style="fill:#ffb900;stroke:none;stroke-width:0.33333334"
       inkscape:connector-curvature="0" />
  </g>
</svg>
