<?xml version="1.0" encoding="UTF-8" standalone="no"?>
<svg
   xmlns:dc="http://purl.org/dc/elements/1.1/"
   xmlns:cc="http://creativecommons.org/ns#"
   xmlns:rdf="http://www.w3.org/1999/02/22-rdf-syntax-ns#"
   xmlns:svg="http://www.w3.org/2000/svg"
   xmlns="http://www.w3.org/2000/svg"
   xmlns:sodipodi="http://sodipodi.sourceforge.net/DTD/sodipodi-0.dtd"
   xmlns:inkscape="http://www.inkscape.org/namespaces/inkscape"
   height="24"
   viewBox="0 0 24 24"
   width="24"
   version="1.1"
   id="svg4"
   sodipodi:docname="view-calendar-month.svg"
   inkscape:version="0.92+devel (f008c6912a, 2017-09-14, custom)">
  <defs
     id="defs8" />
  <metadata
     id="metadata10">
    <rdf:RDF>
      <cc:Work
         rdf:about="">
        <dc:format>image/svg+xml</dc:format>
        <dc:type
           rdf:resource="http://purl.org/dc/dcmitype/StillImage" />
        <dc:title></dc:title>
      </cc:Work>
    </rdf:RDF>
  </metadata>
  <sodipodi:namedview
     pagecolor="#002466"
     bordercolor="#ffffff"
     inkscape:document-rotation="0"
     borderopacity="0.13333333"
     objecttolerance="10"
     gridtolerance="10"
     guidetolerance="10"
     inkscape:pageopacity="0"
     inkscape:pageshadow="2"
     inkscape:window-width="1920"
     inkscape:window-height="1027"
     id="namedview6"
     showgrid="false"
     borderlayer="true"
     inkscape:showpageshadow="false"
     inkscape:zoom="22.96875"
     inkscape:cx="7.0196262"
     inkscape:cy="10.525131"
     inkscape:window-x="0"
     inkscape:window-y="24"
     inkscape:window-maximized="1"
     inkscape:current-layer="svg4" />
  <g
     id="g875"
     inkscape:label="#view-calendar-month"
     style="stroke:none;stroke-width:0.66666669"
     transform="scale(1.5)">
    <path
       inkscape:connector-curvature="0"
       inkscape:label="#boundary"
       style="stroke:none"
       id="path2"
       stroke-width=".25455"
       stroke-linecap="round"
       fill="none"
       d="M 0,-4.9999999e-8 H 16 V 16 H 0 Z" />
    <path
       style="opacity:0.50597612;fill:#d0d0d0;stroke:none;stroke-width:2.51968503"
       d="M 2.5991211,2 C 2.2667211,2 2,2.2667209 2,2.5991211 V 13.400879 C 2,13.733281 2.2667234,14 2.5991211,14 H 13.39795 C 13.730351,14 14,13.733283 14,13.400879 V 2.5991211 C 14,2.2667209 13.730348,2 13.39795,2 H 11.880371 V 3.1879883 H 10.705567 V 2 H 8.5859375 V 3.1879883 H 7.4125977 V 2 H 5.2929688 V 3.1879883 H 4.1166992 V 2 Z"
       id="path889"
       inkscape:connector-curvature="0"
       inkscape:label="#" />
    <path
       style="opacity:1;fill:#00ff00;stroke:none;stroke-width:2.51968503"
       d="m 4.1328125,6.1542969 v 2.0625 h 2.0644531 v -2.0625 z m 2.8359375,0 v 2.0625 h 2.0625 v -2.0625 z m 2.8339844,0 v 2.0625 h 2.0644536 v -2.0625 z M 4.1328125,9.078125 v 2.064453 H 6.1972656 V 9.078125 Z m 2.8359375,0 v 2.064453 h 2.0625 V 9.078125 Z m 2.8339844,0 v 2.064453 H 11.867188 V 9.078125 Z"
       id="path887"
       inkscape:connector-curvature="0"
       inkscape:label="#" />
  </g>
</svg>
