<?xml version="1.0" encoding="UTF-8" standalone="no"?>
<!-- Created with Inkscape (http://www.inkscape.org/) -->

<svg
   xmlns:dc="http://purl.org/dc/elements/1.1/"
   xmlns:cc="http://creativecommons.org/ns#"
   xmlns:rdf="http://www.w3.org/1999/02/22-rdf-syntax-ns#"
   xmlns:svg="http://www.w3.org/2000/svg"
   xmlns="http://www.w3.org/2000/svg"
   xmlns:sodipodi="http://sodipodi.sourceforge.net/DTD/sodipodi-0.dtd"
   xmlns:inkscape="http://www.inkscape.org/namespaces/inkscape"
   width="24"
   height="23.999998"
   viewBox="0 0 24 23.999998"
   version="1.1"
   id="main"
   inkscape:version="0.92+devel (42c84a5464, 2017-09-20, custom)"
   sodipodi:docname="view-bank.svg">
  <defs
     id="ol-defs" />
  <sodipodi:namedview
     id="base"
     pagecolor="#002466"
     bordercolor="#ffffff"
     borderopacity="0.30"
     inkscape:pageopacity="1"
     inkscape:pageshadow="2"
     inkscape:zoom="13.140625"
     inkscape:document-units="px"
     inkscape:current-layer="main"
     inkscape:document-rotation="0"
     showgrid="false"
     inkscape:showpageshadow="false"
     borderlayer="true"
     inkscape:window-width="1920"
     inkscape:window-height="1017"
     inkscape:window-x="0"
     inkscape:window-y="34"
     inkscape:window-maximized="1"
     units="px"
     inkscape:cx="6.823088"
     inkscape:cy="8.0269045" />
  <metadata
     id="metadata5">
    <rdf:RDF>
      <cc:Work
         rdf:about="">
        <dc:format>image/svg+xml</dc:format>
        <dc:type
           rdf:resource="http://purl.org/dc/dcmitype/StillImage" />
        <dc:title></dc:title>
      </cc:Work>
    </rdf:RDF>
  </metadata>
  <g
     id="g839"
     inkscape:label="#view-bank"
     style="stroke:none;stroke-width:0.91666669"
     transform="scale(1.090909)">
    <path
       style="fill:none;stroke:none;stroke-width:0.91666669"
       d="M 0,0 H 22.000001 V 22 H 0 Z"
       id="boundary"
       inkscape:label="#boundary"
       inkscape:connector-curvature="0" />
    <path
       style="opacity:0.6;fill:#d0d0d0;fill-opacity:1;stroke:none;stroke-width:0.91666669"
       d="M 11.000002,3.0000004 3.0000014,7.623047 v 0.3749999 1.0019533 h 1 V 10 18 h -1 v 1 H 19.000001 v -1 h -1 V 10 9.0000002 h 1 V 7.9980469 7.623047 Z m -0.392579,2.3007813 h 0.904297 c 0.06247,0 0.114094,0.020347 0.154296,0.060547 0.0402,0.0402 0.06055,0.091827 0.06055,0.154296 v 1.1777347 c 0.254468,0.0268 0.501395,0.078427 0.740235,0.1542973 0.23884,0.075893 0.432478,0.1509493 0.58203,0.2246093 0.149554,0.073653 0.291856,0.1562467 0.425782,0.25 0.133928,0.093747 0.22154,0.159592 0.261718,0.195312 0.0402,0.035733 0.07284,0.067013 0.09961,0.093747 0.07589,0.08036 0.08676,0.16462 0.0332,0.2539066 l -0.542968,0.978516 c -0.03573,0.06696 -0.0854,0.10296 -0.152343,0.1074267 -0.06247,0.0134 -0.123573,-0.00227 -0.181641,-0.04688 -0.0134,-0.0134 -0.04632,-0.041827 -0.09765,-0.082027 -0.05133,-0.0402 -0.136992,-0.09768 -0.259765,-0.1757813 C 12.512014,8.568366 12.38059,8.4963753 12.242195,8.431642 12.103802,8.366909 11.938349,8.3091487 11.744149,8.257814 11.549955,8.206481 11.35743,8.179694 11.16993,8.179694 c -0.424107,0 -0.769249,0.097093 -1.037109,0.2890627 -0.2678544,0.1919666 -0.4023444,0.4386213 -0.4023444,0.7421879 0,0.1160667 0.01871,0.224052 0.05664,0.3222654 0.03793,0.098213 0.105453,0.1902906 0.199218,0.277344 0.09375,0.087053 0.1810794,0.160436 0.2636724,0.220703 0.08259,0.06027 0.207587,0.130853 0.375,0.208984 0.167407,0.07813 0.301618,0.137274 0.404298,0.179688 0.10268,0.0424 0.258929,0.103226 0.468749,0.183593 0.236607,0.08928 0.417969,0.159597 0.542969,0.210937 0.125,0.05133 0.295479,0.129467 0.509766,0.234376 0.214286,0.10492 0.383092,0.200336 0.505858,0.285156 0.122774,0.08481 0.260043,0.197544 0.414063,0.335938 0.15402,0.138393 0.272883,0.278741 0.355469,0.423828 0.08259,0.145093 0.152904,0.317245 0.210938,0.513672 0.05807,0.196426 0.08789,0.405686 0.08789,0.628906 h -0.002 c -7e-6,0.683034 -0.221829,1.270372 -0.666023,1.763672 -0.4442,0.493305 -1.020649,0.797991 -1.730469,0.914061 v 1.171876 c 0,0.06247 -0.02035,0.11408 -0.06055,0.154296 -0.0402,0.0402 -0.09183,0.06055 -0.154296,0.06055 h -0.904297 c -0.05807,0 -0.108013,-0.02205 -0.150391,-0.06445 -0.0424,-0.0424 -0.06249,-0.09235 -0.06249,-0.15039 v -1.171882 c -0.29464,-0.0402 -0.5789634,-0.10884 -0.8535164,-0.207031 -0.274553,-0.09821 -0.501113,-0.198381 -0.679687,-0.298828 -0.178573,-0.10044 -0.344308,-0.206472 -0.496094,-0.320312 -0.15178,-0.11384 -0.256694,-0.19838 -0.3125,-0.251953 -0.0558,-0.0536 -0.094867,-0.09239 -0.117187,-0.119147 -0.075893,-0.09375 -0.07868,-0.186104 -0.011733,-0.27539 l 0.689454,-0.904284 c 0.03127,-0.04467 0.08288,-0.07121 0.154298,-0.08008 0.06696,-0.0089 0.119986,0.01147 0.160156,0.06055 l 0.01367,0.01367 c 0.50446,0.44196 1.046594,0.719864 1.6269544,0.835937 0.165181,0.03573 0.330921,0.05468 0.496094,0.05468 0.361614,0 0.678572,-0.09711 0.953124,-0.289062 0.274555,-0.191967 0.41211,-0.463726 0.41211,-0.816406 0,-0.125 -0.03264,-0.243862 -0.09961,-0.355469 -0.06697,-0.1116 -0.142022,-0.205348 -0.224609,-0.281243 -0.08259,-0.07589 -0.214005,-0.158485 -0.392579,-0.25 -0.178572,-0.09152 -0.325332,-0.163502 -0.441405,-0.214842 -0.116067,-0.05133 -0.294084,-0.12304 -0.535156,-0.216798 -0.174107,-0.07144 -0.311663,-0.1278 -0.412109,-0.167969 -0.10044,-0.0402 -0.238003,-0.09963 -0.4121104,-0.177733 -0.174106,-0.07812 -0.313056,-0.146766 -0.417969,-0.207032 -0.104907,-0.06027 -0.23158,-0.140068 -0.378907,-0.238282 -0.14732,-0.09821 -0.267861,-0.193636 -0.359374,-0.285156 -0.09152,-0.09152 -0.188336,-0.200892 -0.291016,-0.328125 -0.10268,-0.127227 -0.180528,-0.256972 -0.236328,-0.388672 -0.0558,-0.131693 -0.102667,-0.280132 -0.140624,-0.445312 -0.03793,-0.16518 -0.0586,-0.3384507 -0.0586,-0.521484 0,-0.6160733 0.21875,-1.156808 0.65625,-1.6210946 0.4375,-0.4642854 1.008091,-0.7625574 1.7089844,-0.896484 V 5.5156257 c 0,-0.058 0.02011,-0.1079467 0.06249,-0.1503907 0.0424,-0.0424 0.09235,-0.064453 0.15039,-0.064453 z"
       id="path1387"
       inkscape:connector-curvature="0"
       inkscape:label="#" />
  </g>
</svg>
