<?xml version="1.0" encoding="UTF-8" standalone="no"?>
<svg
   xmlns:dc="http://purl.org/dc/elements/1.1/"
   xmlns:cc="http://creativecommons.org/ns#"
   xmlns:rdf="http://www.w3.org/1999/02/22-rdf-syntax-ns#"
   xmlns:svg="http://www.w3.org/2000/svg"
   xmlns="http://www.w3.org/2000/svg"
   xmlns:sodipodi="http://sodipodi.sourceforge.net/DTD/sodipodi-0.dtd"
   xmlns:inkscape="http://www.inkscape.org/namespaces/inkscape"
   height="24"
   viewBox="0 0 24 24"
   width="24"
   version="1.1"
   id="svg4"
   sodipodi:docname="view-sort-descending.svg"
   inkscape:version="0.92+devel (58ef38f81c, 2017-09-13, custom)">
  <metadata
     id="metadata10">
    <rdf:RDF>
      <cc:Work
         rdf:about="">
        <dc:format>image/svg+xml</dc:format>
        <dc:type
           rdf:resource="http://purl.org/dc/dcmitype/StillImage" />
        <dc:title></dc:title>
      </cc:Work>
    </rdf:RDF>
  </metadata>
  <defs
     id="defs8" />
  <sodipodi:namedview
     pagecolor="#002466"
     bordercolor="#ffffff"
     inkscape:document-rotation="0"
     borderopacity="0.13333333"
     objecttolerance="10"
     gridtolerance="10"
     guidetolerance="10"
     inkscape:pageopacity="0"
     inkscape:pageshadow="2"
     inkscape:window-width="1920"
     inkscape:window-height="1027"
     id="namedview6"
     showgrid="false"
     borderlayer="true"
     inkscape:showpageshadow="false"
     inkscape:zoom="22.96875"
     inkscape:cx="10.319718"
     inkscape:cy="10.525132"
     inkscape:window-x="0"
     inkscape:window-y="24"
     inkscape:window-maximized="1"
     inkscape:current-layer="svg4" />
  <g
     id="g834"
     inkscape:label="#view-sort-descending"
     style="stroke:none;stroke-width:0.66666669"
     transform="scale(1.5)">
    <path
       inkscape:connector-curvature="0"
       inkscape:label="#boundary"
       style="stroke:none"
       id="path2"
       stroke-width=".25455"
       stroke-linecap="round"
       fill="none"
       d="M 0,-4.9999999e-8 H 16 V 16 H 0 Z" />
    <path
       inkscape:label="#"
       d="m 4.4799458,11.781741 q -0.5090134,0 -0.7680653,0.172701 -0.254506,0.172701 -0.254506,0.509013 0,0.309044 0.204514,0.486291 0.2090598,0.1727 0.5771847,0.1727 0.4590214,0 0.7726112,-0.327222 0.3135884,-0.331769 0.3135884,-0.827147 v -0.186336 z m 2.4859876,-0.613544 v 2.904106 H 5.3252728 v -0.754432 q -0.3272232,0.463568 -0.7362526,0.67717 -0.4090279,0.20906 -0.995303,0.20906 -0.7907891,0 -1.2861691,-0.459021 -0.4908356,-0.463566 -0.4908356,-1.199818 0,-0.895319 0.6135448,-1.313438 0.6180878,-0.418118 1.9360697,-0.418118 h 0.9589458 v -0.127259 q 0,-0.386306 -0.3044994,-0.563552 -0.3044995,-0.1817898 -0.9498555,-0.1817898 -0.5226483,0 -0.9725807,0.1045298 -0.4499311,0.10453 -0.8362367,0.313588 V 9.118502 q 0.5226483,-0.1272593 1.049841,-0.1908805 0.5271927,-0.068174 1.0543855,-0.068174 1.3770642,0 1.986063,0.5453721 0.6135434,0.5408276 0.6135434,1.7633694 z"
       style="font-style:normal;font-variant:normal;font-weight:bold;font-stretch:normal;font-size:6.66666651px;line-height:1.25;font-family:sans-serif;-inkscape-font-specification:'sans-serif Bold';letter-spacing:0px;word-spacing:0px;opacity:0.6;fill:#d0d0d0;fill-opacity:1;stroke:none;stroke-width:0.66666669"
       id="path816"
       inkscape:connector-curvature="0" />
    <path
       inkscape:label="#"
       d="m 2.2621005,1.7958989 h 4.440238 V 2.9320906 L 4.0209259,5.7225776 H 6.7023385 V 6.8860375 H 2.1484817 V 5.7498466 L 4.8298943,2.9593586 H 2.2621005 Z"
       style="font-style:normal;font-variant:normal;font-weight:bold;font-stretch:normal;font-size:6.66666651px;line-height:1.25;font-family:sans-serif;-inkscape-font-specification:'sans-serif Bold';letter-spacing:0px;word-spacing:0px;opacity:0.6;fill:#d0d0d0;fill-opacity:1;stroke:none;stroke-width:0.66666669"
       id="path818"
       inkscape:connector-curvature="0" />
    <path
       inkscape:label="#"
       inkscape:connector-curvature="0"
       id="path823"
       d="M 11.58459,10.870987 8.9858919,7.2360825 H 10.373864 V 5.9544582 h 2.421452 v 1.2816243 h 1.387972 z"
       style="fill:#ffb900;stroke:none;stroke-width:0.66666669" />
  </g>
</svg>
