<?xml version="1.0" encoding="UTF-8" standalone="no"?>
<!-- Created with Inkscape (http://www.inkscape.org/) -->

<svg
   xmlns:dc="http://purl.org/dc/elements/1.1/"
   xmlns:cc="http://creativecommons.org/ns#"
   xmlns:rdf="http://www.w3.org/1999/02/22-rdf-syntax-ns#"
   xmlns:svg="http://www.w3.org/2000/svg"
   xmlns="http://www.w3.org/2000/svg"
   xmlns:sodipodi="http://sodipodi.sourceforge.net/DTD/sodipodi-0.dtd"
   xmlns:inkscape="http://www.inkscape.org/namespaces/inkscape"
   width="24.000002"
   height="24"
   viewBox="0 0 24.000002 24"
   version="1.1"
   id="main"
   inkscape:version="0.92+devel (42c84a5464, 2017-09-20, custom)"
   sodipodi:docname="view-certificate-server-configure.svg">
  <defs
     id="ol-defs" />
  <sodipodi:namedview
     id="base"
     pagecolor="#002466"
     bordercolor="#ffffff"
     borderopacity="0.30"
     inkscape:pageopacity="1"
     inkscape:pageshadow="2"
     inkscape:zoom="18.58365"
     inkscape:document-units="px"
     inkscape:current-layer="main"
     inkscape:document-rotation="0"
     showgrid="false"
     inkscape:showpageshadow="false"
     borderlayer="true"
     inkscape:window-width="1920"
     inkscape:window-height="1017"
     inkscape:window-x="0"
     inkscape:window-y="34"
     inkscape:window-maximized="1"
     units="px"
     inkscape:cx="18.336826"
     inkscape:cy="6.607892" />
  <metadata
     id="metadata5">
    <rdf:RDF>
      <cc:Work
         rdf:about="">
        <dc:format>image/svg+xml</dc:format>
        <dc:type
           rdf:resource="http://purl.org/dc/dcmitype/StillImage" />
        <dc:title></dc:title>
      </cc:Work>
    </rdf:RDF>
  </metadata>
  <g
     id="g1586"
     inkscape:label="#view-certificate-server-configure"
     style="stroke:none"
     transform="scale(1.0909091)">
    <path
       style="fill:none;stroke:none;stroke-width:1"
       d="M 0,0 H 22.000001 V 22 H 0 Z"
       id="boundary"
       inkscape:label="#boundary"
       inkscape:connector-curvature="0" />
    <path
       inkscape:label="#"
       inkscape:connector-curvature="0"
       id="rect811"
       d="m 3.6588553,5.6666669 c -0.3649321,0 -0.6588542,0.2939235 -0.6588542,0.6588542 V 15.67448 c 0,0.364932 0.2939221,0.658853 0.6588542,0.658853 H 18.341148 c 0.364931,0 0.658853,-0.293921 0.658853,-0.658853 V 6.3255211 c 0,-0.3649307 -0.293922,-0.6588542 -0.658853,-0.6588542 z M 7.684897,7.3828131 c 1.0779557,0 1.9453127,0.867356 1.9453127,1.9453121 v 0.8437498 h 0.9713543 v 4.445313 H 4.7656261 V 10.171875 H 5.7369804 V 9.3281252 c 0,-1.0779561 0.8699618,-1.9453121 1.9479166,-1.9453121 z m 6.052084,0.872396 h 1.296875 l 0.203125,0.8802081 a 2.1817434,2.1327975 0 0 1 0.458334,0.260416 l 0.885416,-0.2682294 0.648437,1.0989582 -0.679687,0.614584 a 2.1817434,2.1327975 0 0 1 0.01823,0.257812 2.1817434,2.1327975 0 0 1 -0.01823,0.257814 l 0.679687,0.614582 -0.648437,1.096355 -0.882812,-0.265625 a 2.1817434,2.1327975 0 0 1 -0.460938,0.257812 l -0.203125,0.880209 H 13.736981 L 13.533856,13.0625 a 2.1817434,2.1327975 0 0 1 -0.458333,-0.260416 l -0.882812,0.265625 -0.648438,-1.096355 0.677083,-0.614582 a 2.1817434,2.1327975 0 0 1 -0.01823,-0.257814 2.1817434,2.1327975 0 0 1 0.01823,-0.257812 l -0.677083,-0.614584 0.648438,-1.0989582 0.882812,0.2682294 a 2.1817434,2.1327975 0 0 1 0.458333,-0.257812 z M 7.684897,8.3567718 c -0.5389772,0 -0.9739583,0.4323747 -0.9739583,0.9713534 v 0.8437498 h 1.945313 V 9.3281252 c 0,-0.5389787 -0.432377,-0.9713547 -0.9713547,-0.9713534 z m 6.700522,1.7864572 a 0.97708331,0.95516321 0 0 0 -0.976563,0.955729 0.97708331,0.95516321 0 0 0 0.976563,0.95573 0.97708331,0.95516321 0 0 0 0.976562,-0.95573 0.97708331,0.95516321 0 0 0 -0.976562,-0.955729 z"
       style="opacity:0.6;fill:#d0d0d0;stroke:none;stroke-width:1.33333337" />
  </g>
</svg>
