<?xml version="1.0" encoding="UTF-8" standalone="no"?>
<!-- Created with Inkscape (http://www.inkscape.org/) -->

<svg
   xmlns:dc="http://purl.org/dc/elements/1.1/"
   xmlns:cc="http://creativecommons.org/ns#"
   xmlns:rdf="http://www.w3.org/1999/02/22-rdf-syntax-ns#"
   xmlns:svg="http://www.w3.org/2000/svg"
   xmlns="http://www.w3.org/2000/svg"
   xmlns:sodipodi="http://sodipodi.sourceforge.net/DTD/sodipodi-0.dtd"
   xmlns:inkscape="http://www.inkscape.org/namespaces/inkscape"
   width="24"
   height="24"
   viewBox="0 0 6.3499997 6.3499997"
   version="1.1"
   id="svg8"
   inkscape:version="0.92+devel (260139f747, 2017-08-10, custom)"
   sodipodi:docname="view-refresh.svg">
  <defs
     id="defs2" />
  <sodipodi:namedview
     id="base"
     pagecolor="#002466"
     bordercolor="#ffffff"
     borderopacity="0.38039216"
     inkscape:pageopacity="1"
     inkscape:pageshadow="2"
     inkscape:zoom="18.252194"
     inkscape:cx="8"
     inkscape:cy="7.9999988"
     inkscape:document-units="px"
     inkscape:current-layer="svg8"
     inkscape:document-rotation="0"
     showgrid="false"
     inkscape:showpageshadow="false"
     borderlayer="true"
     inkscape:window-width="1920"
     inkscape:window-height="1027"
     inkscape:window-x="0"
     inkscape:window-y="24"
     inkscape:window-maximized="1"
     units="px"
     inkscape:snap-page="true" />
  <metadata
     id="metadata5">
    <rdf:RDF>
      <cc:Work
         rdf:about="">
        <dc:format>image/svg+xml</dc:format>
        <dc:type
           rdf:resource="http://purl.org/dc/dcmitype/StillImage" />
        <dc:title></dc:title>
      </cc:Work>
    </rdf:RDF>
  </metadata>
  <g
     id="g819"
     inkscape:label="#view-refresh"
     transform="scale(1.5)">
    <rect
       inkscape:label="#boundary"
       y="0"
       x="0"
       height="4.2333331"
       width="4.2333331"
       id="rect815"
       style="fill:none;stroke-width:0.44106042" />
    <path
       inkscape:label="#"
       inkscape:connector-curvature="0"
       id="path818"
       d="m 2.2184864,0.52918439 c -0.013369,4.7022e-4 -0.026406,0.00429 -0.037916,0.0111069 L 1.4762481,0.94664546 c -0.053547,0.030704 -0.053547,0.10793904 0,0.13864294 l 0.7043221,0.4059714 c 0.053088,0.030274 0.1191292,-0.00783 0.1194935,-0.068939 V 1.2258464 c 0.2475839,0.04433 0.4663987,0.1939394 0.5947863,0.4163122 0.1542056,0.2670932 0.1542056,0.5954047 0,0.8624977 L 3.2433724,2.705727 c 0.2257615,-0.3910307 0.2257615,-0.8739911 0,-1.2650222 C 3.0432377,1.0940643 2.6918027,0.86659386 2.3000637,0.81910928 V 0.60922967 c 8.6e-5,-0.0448457 -0.036742,-0.0809815 -0.081577,-0.0800453 z M 0.98996163,1.5276065 c -0.22576075,0.3910299 -0.22576447,0.8739912 0,1.265022 C 1.1900953,3.1392684 1.5419137,3.3671237 1.9336535,3.4146072 v 0.2094966 c -8.58e-5,0.044846 0.036742,0.080981 0.081577,0.080045 0.013369,-4.703e-4 0.026406,-0.00429 0.037916,-0.011107 l 0.704322,-0.4063539 c 0.053546,-0.030704 0.053546,-0.1079391 0,-0.1386429 L 2.053147,2.7420735 C 2.000059,2.7117995 1.9340178,2.7499035 1.9336535,2.8110125 V 3.0074869 C 1.6860656,2.9631612 1.4668724,2.8135473 1.3384843,2.5911748 c -0.1542057,-0.2670925 -0.1542251,-0.5953993 0,-0.8624975 z"
       style="color:#000000;font-style:normal;font-variant:normal;font-weight:normal;font-stretch:normal;font-size:medium;line-height:normal;font-family:sans-serif;font-variant-ligatures:normal;font-variant-position:normal;font-variant-caps:normal;font-variant-numeric:normal;font-variant-alternates:normal;font-variant-east-asian:normal;font-feature-settings:normal;text-indent:0;text-align:start;text-decoration:none;text-decoration-line:none;text-decoration-style:solid;text-decoration-color:#000000;letter-spacing:normal;word-spacing:normal;text-transform:none;writing-mode:lr-tb;direction:ltr;text-orientation:mixed;dominant-baseline:auto;baseline-shift:baseline;text-anchor:start;white-space:normal;shape-padding:0;clip-rule:nonzero;display:inline;overflow:visible;visibility:visible;opacity:0.6;isolation:auto;mix-blend-mode:normal;color-interpolation:sRGB;color-interpolation-filters:linearRGB;solid-color:#000000;solid-opacity:1;vector-effect:none;fill:#d0d0d0;fill-opacity:1;fill-rule:nonzero;stroke:none;stroke-width:0.40237841;stroke-linecap:butt;stroke-linejoin:round;stroke-miterlimit:4;stroke-dasharray:none;stroke-dashoffset:0;stroke-opacity:1;color-rendering:auto;image-rendering:auto;shape-rendering:auto;text-rendering:auto;enable-background:accumulate"
       sodipodi:nodetypes="cccccccccccccccccccccccccccc" />
  </g>
</svg>
