<?xml version="1.0" encoding="UTF-8" standalone="no"?>
<svg
   xmlns:dc="http://purl.org/dc/elements/1.1/"
   xmlns:cc="http://creativecommons.org/ns#"
   xmlns:rdf="http://www.w3.org/1999/02/22-rdf-syntax-ns#"
   xmlns:svg="http://www.w3.org/2000/svg"
   xmlns="http://www.w3.org/2000/svg"
   xmlns:sodipodi="http://sodipodi.sourceforge.net/DTD/sodipodi-0.dtd"
   xmlns:inkscape="http://www.inkscape.org/namespaces/inkscape"
   height="24"
   viewBox="0 0 24 24"
   width="24"
   version="1.1"
   id="svg4"
   sodipodi:docname="view-calendar-special-occasion.svg"
   inkscape:version="0.92+devel (f008c6912a, 2017-09-14, custom)">
  <defs
     id="defs8" />
  <metadata
     id="metadata10">
    <rdf:RDF>
      <cc:Work
         rdf:about="">
        <dc:format>image/svg+xml</dc:format>
        <dc:type
           rdf:resource="http://purl.org/dc/dcmitype/StillImage" />
        <dc:title></dc:title>
      </cc:Work>
    </rdf:RDF>
  </metadata>
  <sodipodi:namedview
     pagecolor="#002466"
     bordercolor="#ffffff"
     inkscape:document-rotation="0"
     borderopacity="0.13333333"
     objecttolerance="10"
     gridtolerance="10"
     guidetolerance="10"
     inkscape:pageopacity="0"
     inkscape:pageshadow="2"
     inkscape:window-width="1920"
     inkscape:window-height="1027"
     id="namedview6"
     showgrid="false"
     borderlayer="true"
     inkscape:showpageshadow="false"
     inkscape:zoom="13.328125"
     inkscape:cx="8.0000002"
     inkscape:cy="7.9999995"
     inkscape:window-x="0"
     inkscape:window-y="24"
     inkscape:window-maximized="1"
     inkscape:current-layer="svg4" />
  <g
     id="g931"
     inkscape:label="#view-calendar-special-occasion"
     style="stroke:none;stroke-width:0.66666669"
     transform="scale(1.5)">
    <path
       d="M -1e-7,1.75e-7 H 16 V 16 H -1e-7 Z"
       fill="none"
       stroke-linecap="round"
       stroke-width=".25455"
       id="path2"
       style="stroke:none"
       inkscape:label="#boundary"
       inkscape:connector-curvature="0" />
    <path
       inkscape:label="#"
       sodipodi:nodetypes="ssssssssccccccccccccsccccccccccc"
       inkscape:connector-curvature="0"
       id="path919"
       d="M 2.6005858,2 C 2.2681858,2 2,2.2667212 2,2.5991213 V 13.399414 C 2,13.731816 2.2681881,14 2.6005858,14 H 13.399414 C 13.731816,14 14,13.731819 14,13.399414 V 2.5991213 C 14,2.2667213 13.731813,2 13.399414,2 h -1.517578 v 1.1865236 h -1.17627 V 2 H 8.5859374 V 3.1865236 H 7.4125975 V 2 H 5.2929687 V 3.1865236 H 4.1181635 V 2 Z M 7.9579747,5.4540828 8.9182576,7.3955491 11.062928,7.7067411 9.5116122,9.219738 9.8797017,11.355119 7.9614583,10.348389 6.0443765,11.357441 6.4089819,9.22206 4.8565056,7.7102245 7.0000144,7.3978715 Z"
       style="opacity:0.6;fill:#d0d0d0;stroke:none;stroke-width:2.51968479" />
  </g>
</svg>
