<?xml version="1.0" encoding="UTF-8" standalone="no"?>
<svg
   xmlns:dc="http://purl.org/dc/elements/1.1/"
   xmlns:cc="http://creativecommons.org/ns#"
   xmlns:rdf="http://www.w3.org/1999/02/22-rdf-syntax-ns#"
   xmlns:svg="http://www.w3.org/2000/svg"
   xmlns="http://www.w3.org/2000/svg"
   xmlns:sodipodi="http://sodipodi.sourceforge.net/DTD/sodipodi-0.dtd"
   xmlns:inkscape="http://www.inkscape.org/namespaces/inkscape"
   height="24"
   viewBox="0 0 24 24"
   width="24"
   version="1.1"
   id="svg4"
   sodipodi:docname="view-time-schedule-edit.svg"
   inkscape:version="0.92+devel (f008c6912a, 2017-09-14, custom)">
  <defs
     id="defs8" />
  <metadata
     id="metadata10">
    <rdf:RDF>
      <cc:Work
         rdf:about="">
        <dc:format>image/svg+xml</dc:format>
        <dc:type
           rdf:resource="http://purl.org/dc/dcmitype/StillImage" />
        <dc:title></dc:title>
      </cc:Work>
    </rdf:RDF>
  </metadata>
  <sodipodi:namedview
     pagecolor="#002466"
     bordercolor="#ffffff"
     inkscape:document-rotation="0"
     borderopacity="0.13333333"
     objecttolerance="10"
     gridtolerance="10"
     guidetolerance="10"
     inkscape:pageopacity="0"
     inkscape:pageshadow="2"
     inkscape:window-width="1920"
     inkscape:window-height="1027"
     id="namedview6"
     showgrid="false"
     borderlayer="true"
     inkscape:showpageshadow="false"
     inkscape:zoom="22.96875"
     inkscape:cx="7.3243881"
     inkscape:cy="10.525131"
     inkscape:window-x="0"
     inkscape:window-y="24"
     inkscape:window-maximized="1"
     inkscape:current-layer="svg4" />
  <g
     id="g865"
     style="stroke:none;stroke-width:0.66666669"
     inkscape:label="#view-time-schedule-edit"
     transform="scale(1.5)">
    <path
       inkscape:connector-curvature="0"
       inkscape:label="#boundary"
       style="stroke:none"
       id="path2"
       stroke-width=".25455"
       stroke-linecap="round"
       fill="none"
       d="M 0,-4.9999999e-8 H 16 V 16 H 0 Z" />
    <path
       inkscape:label="#"
       id="path819"
       d="M 2,2 V 3.4082031 14 H 14 V 3.4082031 2 H 11.623047 V 3.4082031 H 9.1894531 V 2 H 6.8105469 V 3.4082031 H 4.3769531 V 2 Z m 5.2109375,3.2382812 h 1.578125 l 0.2460937,1.09375 A 2.6516158,2.6516158 0 0 1 9.5917969,6.65625 L 10.666016,6.3222656 11.455078,7.6875 10.628906,8.4511719 a 2.6516158,2.6516158 0 0 1 0.02344,0.3222656 2.6516158,2.6516158 0 0 1 -0.02344,0.3203125 L 11.455078,9.8574219 10.666016,11.222656 9.59375,10.888672 A 2.6516158,2.6516158 0 0 1 9.0371094,11.210938 L 8.7890625,12.306641 H 7.2109375 L 6.9648438,11.212891 A 2.6516158,2.6516158 0 0 1 6.4082031,10.888672 L 5.3339844,11.222656 4.5449219,9.8574219 5.3710938,9.09375 A 2.6516158,2.6516158 0 0 1 5.3476562,8.7734375 2.6516158,2.6516158 0 0 1 5.3710938,8.4511719 L 4.5449219,7.6875 5.3339844,6.3222656 6.40625,6.65625 A 2.6516158,2.6516158 0 0 1 6.9628906,6.3339844 Z M 8,7.5859375 A 1.1875134,1.1875134 0 0 0 6.8125,8.7734375 1.1875134,1.1875134 0 0 0 8,9.9609375 1.1875134,1.1875134 0 0 0 9.1875,8.7734375 1.1875134,1.1875134 0 0 0 8,7.5859375 Z"
       style="opacity:0.6;fill:#d0d0d0;stroke:none;stroke-width:0.66666663"
       inkscape:connector-curvature="0" />
  </g>
</svg>
