<?xml version="1.0" encoding="UTF-8" standalone="no"?>
<svg
   xmlns:dc="http://purl.org/dc/elements/1.1/"
   xmlns:cc="http://creativecommons.org/ns#"
   xmlns:rdf="http://www.w3.org/1999/02/22-rdf-syntax-ns#"
   xmlns:svg="http://www.w3.org/2000/svg"
   xmlns="http://www.w3.org/2000/svg"
   xmlns:sodipodi="http://sodipodi.sourceforge.net/DTD/sodipodi-0.dtd"
   xmlns:inkscape="http://www.inkscape.org/namespaces/inkscape"
   height="24"
   viewBox="0 0 24 24"
   width="24"
   version="1.1"
   id="svg4"
   sodipodi:docname="view-calendar-wedding-anniversary.svg"
   inkscape:version="0.92+devel (58ef38f81c, 2017-09-13, custom)">
  <metadata
     id="metadata10">
    <rdf:RDF>
      <cc:Work
         rdf:about="">
        <dc:format>image/svg+xml</dc:format>
        <dc:type
           rdf:resource="http://purl.org/dc/dcmitype/StillImage" />
        <dc:title></dc:title>
      </cc:Work>
    </rdf:RDF>
  </metadata>
  <defs
     id="defs8" />
  <sodipodi:namedview
     pagecolor="#002466"
     bordercolor="#ffffff"
     inkscape:document-rotation="0"
     borderopacity="0.13333333"
     objecttolerance="10"
     gridtolerance="10"
     guidetolerance="10"
     inkscape:pageopacity="0"
     inkscape:pageshadow="2"
     inkscape:window-width="1920"
     inkscape:window-height="1027"
     id="namedview6"
     showgrid="false"
     borderlayer="true"
     inkscape:showpageshadow="false"
     inkscape:zoom="22.96875"
     inkscape:cx="7.8137031"
     inkscape:cy="8.1425427"
     inkscape:window-x="0"
     inkscape:window-y="24"
     inkscape:window-maximized="1"
     inkscape:current-layer="svg4" />
  <g
     id="g875"
     style="stroke:none;stroke-width:0.66666669"
     inkscape:label="#view-calendar-wedding-anniversary"
     transform="scale(1.5)">
    <path
       inkscape:connector-curvature="0"
       inkscape:label="#boundary"
       style="stroke:none"
       id="path2"
       stroke-width=".25455"
       stroke-linecap="round"
       fill="none"
       d="M 0,-4.9999999e-8 H 16 V 16 H 0 Z" />
    <path
       inkscape:label="#"
       id="path835"
       d="M 2.5991211,2 C 2.266721,2 2,2.266721 2,2.5991211 V 13.400879 C 2,13.733281 2.2667232,14 2.5991211,14 H 13.39795 C 13.730351,14 14,13.733283 14,13.400879 V 2.5991211 C 14,2.2667211 13.730348,2 13.39795,2 H 11.880371 V 3.1879883 H 10.705567 V 2 H 8.5859375 V 3.1879883 H 7.4125977 V 2 H 5.2929688 V 3.1879883 H 4.1166992 V 2 Z m 4.2451172,3.8950196 c 0.4299025,0 0.8309992,0.1154438 1.1894531,0.3017577 0.3582188,-0.1861965 0.7582306,-0.3017577 1.1879882,-0.3017577 1.4340044,0 2.6074224,1.173417 2.6074224,2.6074214 0,1.434004 -1.173418,2.605957 -2.6074224,2.605957 -0.429679,0 -0.8298174,-0.114306 -1.1879882,-0.300292 -0.3584056,0.186103 -0.7596301,0.300292 -1.1894531,0.300292 -1.4340044,0 -2.6059571,-1.171953 -2.6059571,-2.605957 0,-1.4340044 1.1719527,-2.6074214 2.6059571,-2.6074214 z m 0,0.9550781 c -0.9179857,0 -1.6508789,0.7343577 -1.6508789,1.6523433 0,0.917985 0.7328932,1.65088 1.6508789,1.65088 0.1199429,0 0.2361762,-0.01426 0.3486328,-0.03809 C 6.8371539,9.669543 6.6157227,9.113948 6.6157227,8.502436 6.6157227,7.8910553 6.837293,7.3355273 7.1928711,6.8896434 7.0804145,6.8658255 6.9641812,6.8500977 6.8442383,6.8500977 Z m 2.3774413,0 c -0.11943,-2e-7 -0.2351895,0.014462 -0.3471679,0.038086 0.3561583,0.445994 0.5771485,1.0025555 0.5771485,1.6142573 0,0.611834 -0.2208515,1.168463 -0.5771485,1.614258 0.1119784,0.02362 0.2277379,0.03662 0.3471679,0.03662 0.9179854,0 1.6523434,-0.732895 1.6523434,-1.650879 0,-0.9179859 -0.734358,-1.6523437 -1.6523434,-1.6523437 z M 8.0336914,7.3540039 C 7.7472274,7.6504715 7.5693359,8.05368 7.5693359,8.502441 c 0,0.448761 0.1778915,0.85197 0.4643555,1.148438 0.2864725,-0.296425 0.4643555,-0.699921 0.4643555,-1.148438 0,-0.448518 -0.177883,-0.8520131 -0.4643555,-1.1484371 z"
       style="fill:#ffb900;stroke:none;stroke-width:2.51968503"
       inkscape:connector-curvature="0" />
  </g>
</svg>
