<?xml version="1.0" encoding="UTF-8" standalone="no"?>
<!-- Created with Inkscape (http://www.inkscape.org/) -->

<svg
   xmlns:dc="http://purl.org/dc/elements/1.1/"
   xmlns:cc="http://creativecommons.org/ns#"
   xmlns:rdf="http://www.w3.org/1999/02/22-rdf-syntax-ns#"
   xmlns:svg="http://www.w3.org/2000/svg"
   xmlns="http://www.w3.org/2000/svg"
   xmlns:sodipodi="http://sodipodi.sourceforge.net/DTD/sodipodi-0.dtd"
   xmlns:inkscape="http://www.inkscape.org/namespaces/inkscape"
   width="24.000002"
   height="24"
   viewBox="0 0 24.000002 24"
   version="1.1"
   id="main"
   inkscape:version="0.92+devel (1da36c2be7, 2017-09-15, custom)"
   sodipodi:docname="view-calendar-birthday.svg">
  <defs
     id="ol-defs" />
  <sodipodi:namedview
     id="base"
     pagecolor="#002466"
     bordercolor="#ffffff"
     borderopacity="0.30"
     inkscape:pageopacity="1"
     inkscape:pageshadow="2"
     inkscape:zoom="18.58365"
     inkscape:document-units="px"
     inkscape:current-layer="main"
     inkscape:document-rotation="0"
     showgrid="false"
     inkscape:showpageshadow="false"
     borderlayer="true"
     inkscape:window-width="1920"
     inkscape:window-height="1029"
     inkscape:window-x="0"
     inkscape:window-y="22"
     inkscape:window-maximized="1"
     units="px"
     inkscape:cx="7.5022506"
     inkscape:cy="8.0000002" />
  <metadata
     id="metadata5">
    <rdf:RDF>
      <cc:Work
         rdf:about="">
        <dc:format>image/svg+xml</dc:format>
        <dc:type
           rdf:resource="http://purl.org/dc/dcmitype/StillImage" />
        <dc:title></dc:title>
      </cc:Work>
    </rdf:RDF>
  </metadata>
  <g
     id="g870"
     inkscape:label="#view-calendar-birthday"
     style="stroke:none;stroke-width:0.66666669"
     transform="scale(1.5)">
    <path
       style="fill:none;stroke:none;stroke-width:0.66666669"
       d="M -5.5000004e-8,-4.9999999e-8 H 16.000001 V 16 H -5.5000004e-8 Z"
       id="boundary"
       inkscape:label="#boundary"
       inkscape:connector-curvature="0" />
    <path
       inkscape:label="#"
       inkscape:connector-curvature="0"
       id="path835"
       d="M 2.5996093,2 C 2.2672093,2 1.9999999,2.2672093 1.9999999,2.5996094 V 13.400391 C 1.9999999,13.732793 2.2672115,14 2.5996093,14 H 13.398438 C 13.730838,14 14,13.732795 14,13.400391 V 2.5996094 C 14,2.2672094 13.730835,2 13.398438,2 H 11.880859 V 3.1875 H 10.705078 V 2 H 8.5859374 V 3.1875 H 7.4121093 V 2 H 5.2929687 V 3.1875 H 4.1171874 V 2 Z m 5.25,2.4160156 c 0,0 1.2890624,1.5111212 1.2890625,2.671875 0,1.1607534 -0.6790944,1.5312504 -1.2890625,1.5312504 -0.6099681,0 -1.4514713,-0.611837 -1.234375,-1.7421879 0.1588586,-0.827128 1.0630132,-0.9952952 1.234375,-2.4609375 z M 7.1015624,9.027344 h 1.4609375 v 0.921875 h 1.6855471 c 0.226245,0 0.40625,0.18391 0.40625,0.410156 v 1.691406 0.41211 0.408203 h -0.40625 -4.7792972 -0.40625 v -0.408203 -0.41211 -1.691406 c 0,-0.226246 0.1800043,-0.410156 0.40625,-0.410156 h 1.6328125 z"
       style="opacity:0.6;fill:#d0d0d0;stroke:none;stroke-width:2.51968503" />
  </g>
</svg>
