<?xml version="1.0" encoding="UTF-8" standalone="no"?>
<!-- Created with Inkscape (http://www.inkscape.org/) -->

<svg
   xmlns:dc="http://purl.org/dc/elements/1.1/"
   xmlns:cc="http://creativecommons.org/ns#"
   xmlns:rdf="http://www.w3.org/1999/02/22-rdf-syntax-ns#"
   xmlns:svg="http://www.w3.org/2000/svg"
   xmlns="http://www.w3.org/2000/svg"
   xmlns:sodipodi="http://sodipodi.sourceforge.net/DTD/sodipodi-0.dtd"
   xmlns:inkscape="http://www.inkscape.org/namespaces/inkscape"
   width="24"
   height="24"
   viewBox="0 0 6.3499998 6.3499998"
   version="1.1"
   id="svg8"
   inkscape:version="0.92+devel (58ef38f81c, 2017-09-13, custom)"
   sodipodi:docname="view-table-of-contents-rtl.svg">
  <defs
     id="defs2" />
  <sodipodi:namedview
     id="base"
     pagecolor="#002466"
     bordercolor="#ffffff"
     borderopacity="0.38039216"
     inkscape:pageopacity="1"
     inkscape:pageshadow="2"
     inkscape:zoom="14.337109"
     inkscape:cx="4.0789456"
     inkscape:cy="7.9030546"
     inkscape:document-units="px"
     inkscape:current-layer="svg8"
     inkscape:document-rotation="0"
     showgrid="false"
     inkscape:showpageshadow="false"
     borderlayer="true"
     inkscape:window-width="1920"
     inkscape:window-height="1027"
     inkscape:window-x="0"
     inkscape:window-y="24"
     inkscape:window-maximized="1"
     units="px" />
  <metadata
     id="metadata5">
    <rdf:RDF>
      <cc:Work
         rdf:about="">
        <dc:format>image/svg+xml</dc:format>
        <dc:type
           rdf:resource="http://purl.org/dc/dcmitype/StillImage" />
        <dc:title></dc:title>
      </cc:Work>
    </rdf:RDF>
  </metadata>
  <g
     id="g872"
     inkscape:label="#format-list-ordered-rtl"
     style="stroke:none;stroke-width:0.66666663"
     transform="scale(1.5)">
    <rect
       inkscape:label="#boundary"
       y="4.4595335e-08"
       x="4.4595339e-08"
       height="4.2333331"
       width="4.2333331"
       id="rect811"
       style="fill:none;stroke:none;stroke-width:0.13657102" />
    <path
       inkscape:label="#"
       inkscape:connector-curvature="0"
       id="path838"
       d="M 2.4716838,0.87591552 V 1.1792562 H 0.5291667 V 0.87591552 Z m 0,1.06815178 V 2.247408 H 0.5291667 V 1.9440673 Z m 0,1.068152 V 3.3160766 H 0.5291667 V 3.0122193 Z"
       style="opacity:0.6;fill:#d0d0d0;stroke:none;stroke-width:0.23459722" />
    <path
       inkscape:label="#"
       id="circle836"
       d="M 2.8470374,1.0274829 A 0.40581602,0.40581602 0 0 0 3.2528535,1.4332989 0.40581602,0.40581602 0 0 0 3.6586695,1.0274829 0.40581602,0.40581602 0 0 0 3.2528535,0.62166685 0.40581602,0.40581602 0 0 0 2.8470374,1.0274829"
       style="fill:#ff0000;stroke:none;stroke-width:0.23459722"
       inkscape:connector-curvature="0" />
    <path
       inkscape:label="#"
       id="circle840"
       d="m 2.8699213,2.0958405 a 0.40581602,0.40581602 0 0 0 0.405816,0.405816 0.40581602,0.40581602 0 0 0 0.405816,-0.405816 0.40581602,0.40581602 0 0 0 -0.405816,-0.4058161 0.40581602,0.40581602 0 0 0 -0.405816,0.4058161"
       style="fill:#ff6600;stroke:none;stroke-width:0.23459722"
       inkscape:connector-curvature="0" />
    <path
       inkscape:label="#"
       id="path812"
       d="m 2.8925346,3.1641982 a 0.40581602,0.40581602 0 0 0 0.405816,0.405816 0.40581602,0.40581602 0 0 0 0.405816,-0.405816 0.40581602,0.40581602 0 0 0 -0.405816,-0.4058161 0.40581602,0.40581602 0 0 0 -0.405816,0.4058161"
       style="fill:#ffb900;stroke:none;stroke-width:0.23459722"
       inkscape:connector-curvature="0" />
  </g>
</svg>
