<?xml version="1.0" encoding="UTF-8" standalone="no"?>
<!-- Created with Inkscape (http://www.inkscape.org/) -->

<svg
   xmlns:dc="http://purl.org/dc/elements/1.1/"
   xmlns:cc="http://creativecommons.org/ns#"
   xmlns:rdf="http://www.w3.org/1999/02/22-rdf-syntax-ns#"
   xmlns:svg="http://www.w3.org/2000/svg"
   xmlns="http://www.w3.org/2000/svg"
   xmlns:sodipodi="http://sodipodi.sourceforge.net/DTD/sodipodi-0.dtd"
   xmlns:inkscape="http://www.inkscape.org/namespaces/inkscape"
   width="24.000002"
   height="24"
   viewBox="0 0 24.000002 24"
   version="1.1"
   id="main"
   inkscape:version="0.92+devel (42c84a5464, 2017-09-20, custom)"
   sodipodi:docname="view-certificate-sign.svg">
  <defs
     id="ol-defs" />
  <sodipodi:namedview
     id="base"
     pagecolor="#002466"
     bordercolor="#ffffff"
     borderopacity="0.30"
     inkscape:pageopacity="1"
     inkscape:pageshadow="2"
     inkscape:zoom="13.140625"
     inkscape:document-units="px"
     inkscape:current-layer="main"
     inkscape:document-rotation="0"
     showgrid="false"
     inkscape:showpageshadow="false"
     borderlayer="true"
     inkscape:window-width="1920"
     inkscape:window-height="1017"
     inkscape:window-x="0"
     inkscape:window-y="34"
     inkscape:window-maximized="1"
     units="px"
     inkscape:cx="6.5947884"
     inkscape:cy="8.0269056" />
  <metadata
     id="metadata5">
    <rdf:RDF>
      <cc:Work
         rdf:about="">
        <dc:format>image/svg+xml</dc:format>
        <dc:type
           rdf:resource="http://purl.org/dc/dcmitype/StillImage" />
        <dc:title></dc:title>
      </cc:Work>
    </rdf:RDF>
  </metadata>
  <g
     id="g877"
     inkscape:label="#view-certificate-sign"
     style="stroke:none"
     transform="scale(1.0909091)">
    <path
       style="fill:none;stroke:none;stroke-width:1"
       d="M 0,0 H 22.000001 V 22 H 0 Z"
       id="boundary"
       inkscape:label="#boundary"
       inkscape:connector-curvature="0" />
    <path
       inkscape:label="#"
       sodipodi:nodetypes="sssssssssssccccccsscsccccccssccsscccccccccccc"
       inkscape:connector-curvature="0"
       id="rect811"
       d="M 3.6582031,5.6660156 C 3.2932725,5.6660156 3,5.9612412 3,6.3261719 v 9.3476561 c 0,0.364932 0.2932725,0.660156 0.6582031,0.660156 H 18.341797 C 18.706729,16.333984 19,16.03876 19,15.673828 V 6.3261719 C 19,5.9612411 18.706729,5.6660156 18.341797,5.6660156 Z m 4.0273438,1.7167969 c 1.077956,0 1.9453125,0.8673565 1.9453125,1.9453125 v 0.84375 h 0.9707026 v 4.445313 H 4.765625 v -4.445313 h 0.9707031 v -0.84375 c 0,-1.077956 0.8712628,-1.9453125 1.9492188,-1.9453125 z m 8.5097651,0.7113281 c 0.097,2e-6 0.195252,0.037048 0.269532,0.1113282 l 1.015625,1.015625 c 0.148558,0.148567 0.148556,0.3885383 0,0.5371093 L 17.060547,10.178125 15.507812,8.6253906 15.927734,8.2054688 c 0.07428,-0.074287 0.170579,-0.1113332 0.267578,-0.1113282 z M 7.6855469,8.3574219 c -0.5389787,0 -0.9746094,0.4317243 -0.9746094,0.9707031 v 0.84375 H 8.65625 v -0.84375 c 0,-0.5389788 -0.4317261,-0.9707031 -0.9707031,-0.9707031 z m 7.5507811,0.5394531 1.552734,1.550781 -2.646484,2.646485 -1.552734,-1.550782 z m -2.916016,2.916016 0.775391,0.777343 0.777344,0.775391 -1.015625,0.238281 -1.015625,0.238282 0.240234,-1.013672 z"
       style="opacity:0.6;fill:#d0d0d0;stroke:none;stroke-width:1.33333337" />
  </g>
</svg>
