<?xml version="1.0" encoding="UTF-8" standalone="no"?>
<!-- Created with Inkscape (http://www.inkscape.org/) -->

<svg
   xmlns:dc="http://purl.org/dc/elements/1.1/"
   xmlns:cc="http://creativecommons.org/ns#"
   xmlns:rdf="http://www.w3.org/1999/02/22-rdf-syntax-ns#"
   xmlns:svg="http://www.w3.org/2000/svg"
   xmlns="http://www.w3.org/2000/svg"
   xmlns:sodipodi="http://sodipodi.sourceforge.net/DTD/sodipodi-0.dtd"
   xmlns:inkscape="http://www.inkscape.org/namespaces/inkscape"
   width="24.000002"
   height="24"
   viewBox="0 0 24.000002 24"
   version="1.1"
   id="main"
   inkscape:version="0.92+devel (9279f97481, 2017-09-04, custom)"
   sodipodi:docname="visibility.svg">
  <defs
     id="ol-defs" />
  <sodipodi:namedview
     id="base"
     pagecolor="#002466"
     bordercolor="#ffffff"
     borderopacity="0.30"
     inkscape:pageopacity="1"
     inkscape:pageshadow="2"
     inkscape:zoom="37.1673"
     inkscape:document-units="px"
     inkscape:current-layer="main"
     inkscape:document-rotation="0"
     showgrid="false"
     inkscape:showpageshadow="false"
     borderlayer="true"
     inkscape:window-width="1920"
     inkscape:window-height="1025"
     inkscape:window-x="0"
     inkscape:window-y="26"
     inkscape:window-maximized="1"
     units="px"
     inkscape:cx="7.9596421"
     inkscape:cy="8.0000002" />
  <metadata
     id="metadata5">
    <rdf:RDF>
      <cc:Work
         rdf:about="">
        <dc:format>image/svg+xml</dc:format>
        <dc:type
           rdf:resource="http://purl.org/dc/dcmitype/StillImage" />
        <dc:title></dc:title>
      </cc:Work>
    </rdf:RDF>
  </metadata>
  <g
     id="g839"
     inkscape:label="#visibility"
     transform="scale(1.5)"
     style="stroke-width:0.66666669">
    <path
       style="fill:none;stroke:none;stroke-width:0.66666669"
       d="M -5.5000004e-8,-4.9999999e-8 H 16.000001 V 16 H -5.5000004e-8 Z"
       id="boundary"
       inkscape:label="#boundary"
       inkscape:connector-curvature="0" />
    <path
       inkscape:label="#"
       d="m 8,4.5681282 c -3.3134146,0 -6,3.431872 -6,3.431872 0,0 2.6865857,3.4318718 6,3.4318718 3.313414,0 6,-3.4318719 6,-3.4318719 0,0 -2.686585,-3.4318719 -6,-3.4318719 z M 8,5.6415879 A 2.358298,2.358298 0 0 1 10.358413,8.0000001 2.358298,2.358298 0 0 1 8,10.358413 2.358298,2.358298 0 0 1 5.6415878,8.0000001 2.358298,2.358298 0 0 1 8,5.6415879 Z"
       fill="#d0d0d0"
       stroke-width=".15875"
       id="path854"
       inkscape:connector-curvature="0"
       style="opacity:0.6" />
  </g>
</svg>
