<?xml version="1.0" encoding="UTF-8" standalone="no"?>
<!-- Created with Inkscape (http://www.inkscape.org/) -->

<svg
   xmlns:dc="http://purl.org/dc/elements/1.1/"
   xmlns:cc="http://creativecommons.org/ns#"
   xmlns:rdf="http://www.w3.org/1999/02/22-rdf-syntax-ns#"
   xmlns:svg="http://www.w3.org/2000/svg"
   xmlns="http://www.w3.org/2000/svg"
   xmlns:sodipodi="http://sodipodi.sourceforge.net/DTD/sodipodi-0.dtd"
   xmlns:inkscape="http://www.inkscape.org/namespaces/inkscape"
   width="32"
   height="32"
   viewBox="0 0 8.4666663 8.4666663"
   version="1.1"
   id="svg8"
   inkscape:version="0.92+devel (7f3bd2b258, 2017-08-07, custom)"
   sodipodi:docname="acrobat.svg">
  <defs
     id="defs2" />
  <sodipodi:namedview
     id="base"
     pagecolor="#002466"
     bordercolor="#ffffff"
     borderopacity="0.38039216"
     inkscape:pageopacity="1"
     inkscape:pageshadow="2"
     inkscape:zoom="12.625"
     inkscape:cx="16"
     inkscape:cy="16"
     inkscape:document-units="px"
     inkscape:current-layer="svg8"
     inkscape:document-rotation="0"
     showgrid="false"
     inkscape:showpageshadow="false"
     borderlayer="true"
     inkscape:window-width="1920"
     inkscape:window-height="1027"
     inkscape:window-x="0"
     inkscape:window-y="24"
     inkscape:window-maximized="1"
     units="px"
     inkscape:snap-page="true"
     inkscape:snap-intersection-paths="true"
     inkscape:object-paths="true" />
  <metadata
     id="metadata5">
    <rdf:RDF>
      <cc:Work
         rdf:about="">
        <dc:format>image/svg+xml</dc:format>
        <dc:type
           rdf:resource="http://purl.org/dc/dcmitype/StillImage" />
        <dc:title></dc:title>
      </cc:Work>
    </rdf:RDF>
  </metadata>
  <g
     id="g869"
     inkscape:label="#acrobat"
     transform="scale(2)">
    <path
       inkscape:label="#boundary"
       inkscape:connector-curvature="0"
       id="rect811"
       d="M 0,0 H 4.2333332 V 4.2333332 H 0 Z"
       style="fill:none;stroke-width:0.25454992;stroke-linecap:round" />
    <path
       inkscape:label="#"
       inkscape:connector-curvature="0"
       id="rect812"
       d="M 0.89736125,0.52916665 V 3.7041665 H 3.3359719 V 1.5031381 L 2.3620004,0.52916665 Z M 1.4205851,1.0686685 c 0.058507,-0.00228 0.1170767,0.022111 0.1569671,0.0655 0.123545,0.1441717 0.1321962,0.3456921 0.142627,0.526712 C 1.9786244,1.8275011 2.245764,1.9843584 2.53137,2.100001 2.6728162,2.054077 2.8221047,2.011799 2.9720407,2.02985 3.0594147,2.03591 3.1582515,2.116709 3.158851,2.1755776 3.164061,2.2510036 3.12085,2.3230681 3.0406412,2.3356453 2.8614612,2.3633326 2.6817743,2.3119445 2.5092783,2.2682077 2.1883503,2.4126869 1.8699879,2.5644237 1.5655374,2.7414347 1.5240046,2.8614316 1.4732068,2.9817492 1.390742,3.0797861 1.3405283,3.1502687 1.2382399,3.1944526 1.1628489,3.1414101 1.0944045,3.1046999 1.0509415,3.0023871 1.0872721,2.9216562 1.1623638,2.7614741 1.3198154,2.6630955 1.4620554,2.5681894 1.515735,2.364375 1.5521908,2.1562794 1.5725138,1.9465219 1.5986714,1.8448396 1.5734592,1.7657688 1.473295,1.7201791 1.3451948,1.6113909 1.1976488,1.4906308 1.1643992,1.3167154 1.1433425,1.1726663 1.2940471,1.0768793 1.4205851,1.0686685 Z m -0.019379,0.1255737 c -0.027886,0.00544 -0.078783,0.010577 -0.083716,0.046509 0.010632,0.1186194 0.1205466,0.195188 0.2015381,0.2701386 0.068731,0.078388 0.064025,0.01161 0.046896,-0.061237 C 1.5475539,1.352015 1.5199692,1.2099071 1.4012061,1.1942422 Z m 0.315097,0.6972443 C 1.70593,2.0861539 1.6786632,2.2798386 1.6364633,2.4701333 1.8433349,2.3575457 2.0597021,2.2626889 2.2813852,2.1833291 2.0850149,2.102692 1.8953467,2.0056106 1.7163031,1.8914865 Z m 1.2065155,0.2662628 c -0.064931,0.00114 -0.1295031,0.014259 -0.1926239,0.02868 0.028564,0.031345 0.1723372,0.047424 0.2476594,0.033719 0.1331194,-4.29e-4 0.019047,-0.076356 -0.055036,-0.062399 z M 1.3570231,2.8631326 c -0.054758,0.038225 -0.1378034,0.078988 -0.1472778,0.1523163 0.06338,0.081572 0.118771,-0.098752 0.1472778,-0.1523163 z"
       style="opacity:0.6;fill:#d0d0d0;stroke-width:0.21826521" />
  </g>
</svg>
