<?xml version="1.0" encoding="UTF-8" standalone="no"?>
<!-- Created with Inkscape (http://www.inkscape.org/) -->

<svg xmlns:dc="http://purl.org/dc/elements/1.1/" xmlns:cc="http://creativecommons.org/ns#" xmlns:rdf="http://www.w3.org/1999/02/22-rdf-syntax-ns#" xmlns:svg="http://www.w3.org/2000/svg" xmlns="http://www.w3.org/2000/svg" xmlns:sodipodi="http://sodipodi.sourceforge.net/DTD/sodipodi-0.dtd" xmlns:inkscape="http://www.inkscape.org/namespaces/inkscape" width="16" height="16" viewBox="0 0 16 16" version="1.1" id="main" inkscape:version="0.92+devel (f318dbfe43, 2017-10-09, custom)" sodipodi:docname="artikulate-course-editor.svg">
  <sodipodi:namedview id="base" pagecolor="#002466" bordercolor="#ffffff" borderopacity="0.30" inkscape:pageopacity="1" inkscape:pageshadow="2" inkscape:zoom="37.1673" inkscape:document-units="px" inkscape:current-layer="main" inkscape:document-rotation="0" showgrid="false" inkscape:showpageshadow="false" borderlayer="true" inkscape:window-width="1920" inkscape:window-height="1027" inkscape:window-x="0" inkscape:window-y="24" inkscape:window-maximized="1" units="px" inkscape:cx="6.7489001" inkscape:cy="8.0269054" />
  <metadata id="metadata5">
    <rdf:RDF>
      <cc:Work rdf:about="">
        <dc:format>image/svg+xml</dc:format>
        <dc:type rdf:resource="http://purl.org/dc/dcmitype/StillImage" />
        <dc:title></dc:title>
      </cc:Work>
    </rdf:RDF>
  </metadata>
  <defs id="ol-defs" />
  <g id="g886" inkscape:label="#artikulate-course-editor" style="stroke:none">
    <path style="fill:none;stroke:none" d="M -5e-7,-2.35e-7 H 16 V 16 H -5e-7 Z" id="boundary" inkscape:label="#boundary" inkscape:connector-curvature="0" />
    <path inkscape:label="#" sodipodi:nodetypes="ssssssssscccccsccsccccccccccccccccccccccccccccccccccccccccccc" inkscape:connector-curvature="0" id="rect842" d="M 3.1992188,2 C 2.5344191,2 2,2.5344187 2,3.1992188 V 12.800781 C 2,13.465581 2.534419,14 3.1992188,14 H 12.800781 C 13.465581,14 14,13.465581 14,12.800781 V 3.1992188 C 14,2.5344188 13.465581,2 12.800781,2 Z M 8,3.3691406 13,5.2597656 8,7.1503906 4.4648438,5.8144531 v 0.9140625 c 0.091195,0.042799 0.1660156,0.1168547 0.1660156,0.2246094 v 0.4804688 c -0.1947942,0.1284123 -0.3704875,0.09764 -0.5371094,0 V 6.953125 c 0,-0.1084036 0.071974,-0.1821544 0.1640625,-0.2246094 V 5.7363281 L 3,5.2597656 Z M 5.0585938,6.5898438 8,7.7011719 10.941406,6.5898438 V 7.6855469 C 10.939949,8.3125589 9.623518,8.8221376 8,8.8222656 6.3764825,8.8221376 5.0600638,8.3125589 5.0585938,7.6855469 Z m 2.53125,2.8738281 h 0.8203124 l 0.1289063,0.5546871 c 0.102902,0.04364 0.1999733,0.09939 0.2890625,0.166016 l 0.5585938,-0.169922 0.4101562,0.695313 -0.4296875,0.386718 c 0.00732,0.0544 0.011231,0.109193 0.011719,0.164063 -4.872e-4,0.05487 -0.0044,0.109659 -0.011719,0.164062 L 9.796875,11.811328 9.3867188,12.506641 8.828125,12.336719 c -0.089193,0.06594 -0.1862603,0.121034 -0.2890625,0.164062 L 8.4101562,13.057422 H 7.5898438 L 7.4609375,12.500781 C 7.3581353,12.457753 7.2610684,12.402661 7.171875,12.336719 L 6.6132812,12.506641 6.203125,11.811328 6.6328125,11.424609 c -0.00732,-0.0544 -0.011232,-0.109192 -0.011719,-0.164062 4.872e-4,-0.05487 0.0044,-0.109659 0.011719,-0.164063 L 6.203125,10.709766 6.6132812,10.014453 7.171875,10.184375 c 0.089193,-0.06594 0.1862603,-0.121034 0.2890625,-0.164063 z M 8,10.657031 C 7.659166,10.657265 7.3829528,10.927359 7.3828125,11.260547 7.3829534,11.593734 7.6591664,11.863828 8,11.864062 8.3408336,11.863828 8.6170466,11.593734 8.6171875,11.260547 8.6170472,10.927359 8.340834,10.657265 8,10.657031 Z" style="opacity:0.6;fill:#d0d0d0;stroke:none;stroke-width:1.5;stroke-linecap:round" />
  </g>
</svg>
