<?xml version="1.0" encoding="UTF-8" standalone="no"?>
<svg
   xmlns:dc="http://purl.org/dc/elements/1.1/"
   xmlns:cc="http://creativecommons.org/ns#"
   xmlns:rdf="http://www.w3.org/1999/02/22-rdf-syntax-ns#"
   xmlns:svg="http://www.w3.org/2000/svg"
   xmlns="http://www.w3.org/2000/svg"
   xmlns:sodipodi="http://sodipodi.sourceforge.net/DTD/sodipodi-0.dtd"
   xmlns:inkscape="http://www.inkscape.org/namespaces/inkscape"
   height="32"
   viewBox="0 0 32 32"
   width="32"
   version="1.1"
   id="svg12"
   sodipodi:docname="colors-luma.svg"
   inkscape:version="0.92+devel (555a04a4d0, 2017-08-15, custom)">
  <defs
     id="defs14" />
  <sodipodi:namedview
     id="namedview2"
     inkscape:document-rotation="0"
     showgrid="false"
     borderlayer="true"
     inkscape:showpageshadow="false"
     bordercolor="#ffffff"
     borderopacity="0.42745098"
     inkscape:pagecheckerboard="false"
     pagecolor="#002466"
     inkscape:pageopacity="0"
     inkscape:zoom="11.484375"
     inkscape:cx="21.281824"
     inkscape:cy="22.775725"
     inkscape:window-width="1920"
     inkscape:window-height="1027"
     inkscape:window-x="0"
     inkscape:window-y="24"
     inkscape:window-maximized="1"
     inkscape:current-layer="svg12" />
  <metadata
     id="metadata4">
    <rdf:RDF>
      <cc:Work>
        <dc:format>image/svg+xml			</dc:format>
        <dc:type
           rdf:resource="http://purl.org/dc/dcmitype/StillImage" />
        <dc:title></dc:title>
      </cc:Work>
    </rdf:RDF>
  </metadata>
  <g
     id="g10"
     inkscape:label="#colors-luma"
     transform="scale(1.4545455)">
    <rect
       fill="none"
       height="22"
       stroke-linecap="round"
       stroke-width="3"
       width="22"
       id="rect6"
       x="0"
       y="0"
       inkscape:label="#boundaries" />
    <path
       style="opacity:0.6;fill:#d0d0d0;fill-opacity:1"
       d="M 8,2.1816406 C 7.2924313,4.6580286 5.5604029,6.7878209 4.796875,8.4921875 4.5296718,8.99893 4.3632813,9.5667893 4.3632812,10.181641 c 0,2.014547 1.6221717,3.636718 3.6367188,3.636718 2.014546,0 3.636719,-1.622171 3.636719,-3.636718 0,-0.6148517 -0.166392,-1.182711 -0.433594,-1.6894535 C 10.439597,6.7878209 8.7075615,4.6580286 8,2.1816406 Z M 7.7246094,8.078125 H 8.28125 V 8.5429688 A 1.818638,1.818638 0 0 1 9.0722656,8.8730469 L 9.4023438,8.5429688 9.7988281,8.9394531 9.46875,9.2695312 A 1.818638,1.818638 0 0 1 9.7988281,10.0625 h 0.4648439 v 0.556641 H 9.7988281 A 1.818638,1.818638 0 0 1 9.46875,11.412109 L 9.7988281,11.742188 9.4023438,12.136719 9.0722656,11.808594 A 1.818638,1.818638 0 0 1 8.28125,12.136719 v 0.464843 H 7.7246094 V 12.136719 A 1.818638,1.818638 0 0 1 6.9316406,11.808594 L 6.6015625,12.136719 6.2050781,11.742188 6.5351562,11.412109 A 1.818638,1.818638 0 0 1 6.2050781,10.619141 H 5.7402344 V 10.0625 H 6.2050781 A 1.818638,1.818638 0 0 1 6.5351562,9.2695312 L 6.2050781,8.9394531 6.6015625,8.5429688 6.9316406,8.8730469 A 1.818638,1.818638 0 0 1 7.7246094,8.5429688 Z"
       transform="scale(1.375)"
       id="path839"
       inkscape:connector-curvature="0"
       inkscape:label="#" />
  </g>
</svg>
