<?xml version="1.0" encoding="UTF-8" standalone="no"?>
<!-- Created with Inkscape (http://www.inkscape.org/) -->

<svg xmlns:dc="http://purl.org/dc/elements/1.1/" xmlns:cc="http://creativecommons.org/ns#" xmlns:rdf="http://www.w3.org/1999/02/22-rdf-syntax-ns#" xmlns:svg="http://www.w3.org/2000/svg" xmlns="http://www.w3.org/2000/svg" xmlns:sodipodi="http://sodipodi.sourceforge.net/DTD/sodipodi-0.dtd" xmlns:inkscape="http://www.inkscape.org/namespaces/inkscape" width="32" height="31.999998" viewBox="0 0 32 31.999998" version="1.1" id="main" inkscape:version="0.92+devel (f318dbfe43, 2017-10-09, custom)" sodipodi:docname="coords.svg">
  <sodipodi:namedview id="base" pagecolor="#002466" bordercolor="#ffffff" borderopacity="0.30" inkscape:pageopacity="1" inkscape:pageshadow="0" inkscape:zoom="9.291825" inkscape:document-units="px" inkscape:current-layer="main" inkscape:document-rotation="0" showgrid="false" inkscape:showpageshadow="false" borderlayer="true" inkscape:window-width="1920" inkscape:window-height="1027" inkscape:window-x="0" inkscape:window-y="24" inkscape:window-maximized="1" units="px" inkscape:cx="9.9672689" inkscape:cy="29.396449" />
  <metadata id="metadata5">
    <rdf:RDF>
      <cc:Work rdf:about="">
        <dc:format>image/svg+xml</dc:format>
        <dc:type rdf:resource="http://purl.org/dc/dcmitype/StillImage" />
        <dc:title></dc:title>
      </cc:Work>
    </rdf:RDF>
  </metadata>
  <defs id="ol-defs" />
  <g id="g846" inkscape:label="#coords" style="stroke:none">
    <path style="fill:none;stroke:none;stroke-width:1" d="M 0,0 H 32.000001 V 31.999999 H 0 Z" id="boundary" inkscape:label="#boundary" inkscape:connector-curvature="0" />
    <path inkscape:connector-curvature="0" id="rect811" d="m 4,3.9999991 v 1.6015625 3.9999999 1.5976565 4 h 1.6015625 v -4 h 3.9999999 v 4 h 1.5976566 v -4 h 4 V 9.6015615 h -4 V 5.6015616 h 4 V 3.9999991 H 5.6015625 Z m 12.800781,0 v 1.6015625 h 4 v 3.9999999 h -4 v 1.5976565 h 4 v 4 h 1.597657 v -4 h 4 v 4 H 28 V 3.9999991 Z M 5.6015625,5.6015616 H 9.6015624 V 9.6015615 H 5.6015625 Z m 16.7968755,0 h 4 v 3.9999999 h -4 z M 4,16.80078 v 4 1.597657 4 1.601562 h 1.6015625 9.5976565 v -1.601562 h -4 v -4 h 4 V 20.80078 h -4 v -4 H 9.6015624 v 4 H 5.6015625 v -4 z m 16.800781,0 v 4 h -4 v 1.597657 h 4 v 4 h -4 v 1.601562 H 28 V 26.398437 16.80078 h -1.601562 v 4 h -4 v -4 z M 5.6015625,22.398437 h 3.9999999 v 4 H 5.6015625 Z m 16.7968755,0 h 4 v 4 h -4 z" style="opacity:0.6;fill:#d0d0d0;stroke:none;stroke-width:1.5;stroke-linecap:round" inkscape:label="#" />
    <path inkscape:label="#" inkscape:connector-curvature="0" id="path834" d="M 15.19922,3.9999989 V 15.199217 H 4 v 1.601562 h 11.19922 v 11.19922 h 1.601562 V 16.800779 H 28 V 15.199217 H 16.800782 V 3.9999989 Z" style="fill:#00ff00;stroke:none;stroke-width:1.5;stroke-linecap:round" />
  </g>
</svg>
