<?xml version="1.0" encoding="UTF-8" standalone="no"?>
<!-- Created with Inkscape (http://www.inkscape.org/) -->

<svg xmlns:dc="http://purl.org/dc/elements/1.1/" xmlns:cc="http://creativecommons.org/ns#" xmlns:rdf="http://www.w3.org/1999/02/22-rdf-syntax-ns#" xmlns:svg="http://www.w3.org/2000/svg" xmlns="http://www.w3.org/2000/svg" xmlns:sodipodi="http://sodipodi.sourceforge.net/DTD/sodipodi-0.dtd" xmlns:inkscape="http://www.inkscape.org/namespaces/inkscape" width="32.000004" height="32" viewBox="0 0 32.000004 32" version="1.1" id="main" inkscape:version="0.92+devel (f318dbfe43, 2017-10-09, custom)" sodipodi:docname="deriv_func.svg">
  <sodipodi:namedview id="base" pagecolor="#002466" bordercolor="#ffffff" borderopacity="0.30" inkscape:pageopacity="1" inkscape:pageshadow="2" inkscape:zoom="13.140625" inkscape:document-units="px" inkscape:current-layer="main" inkscape:document-rotation="0" showgrid="false" inkscape:showpageshadow="false" borderlayer="true" inkscape:window-width="1920" inkscape:window-height="1027" inkscape:window-x="0" inkscape:window-y="24" inkscape:window-maximized="1" units="px" inkscape:cx="6.216201" inkscape:cy="8.0269054" />
  <metadata id="metadata5">
    <rdf:RDF>
      <cc:Work rdf:about="">
        <dc:format>image/svg+xml</dc:format>
        <dc:type rdf:resource="http://purl.org/dc/dcmitype/StillImage" />
        <dc:title></dc:title>
      </cc:Work>
    </rdf:RDF>
  </metadata>
  <defs id="ol-defs" />
  <g id="g850" inkscape:label="#deriv_func" style="stroke:none">
    <path style="fill:none;stroke:none;stroke-width:1" d="M -1.1000001e-7,-9.9999998e-8 H 32.000002 V 32 H -1.1000001e-7 Z" id="boundary" inkscape:label="#boundary" inkscape:connector-curvature="0" />
    <path inkscape:label="#" id="rect820" d="M 6.3984375,4 C 5.0688375,4 4,5.0688373 4,6.3984375 V 25.601562 C 4,26.931162 5.0688373,28 6.3984375,28 H 25.601562 C 26.931162,28 28,26.931162 28,25.601562 V 6.3984375 C 28,5.0688373 26.931162,4 25.601562,4 Z M 17.835938,6.796875 c 0.643969,0 1.109993,0.126804 1.398437,0.375 0.295154,0.2481966 0.445313,0.5690705 0.445313,0.9648438 0,0.3488167 -0.09844,0.6279888 -0.292969,0.8359374 -0.19454,0.2012407 -0.438121,0.3007813 -0.726563,0.3007813 -0.268322,0 -0.489652,-0.0823 -0.664062,-0.25 -0.1744,-0.1677 -0.261719,-0.3706877 -0.261719,-0.6054687 0,-0.1677 0.05672,-0.343425 0.164063,-0.53125 0.114039,-0.187824 0.167968,-0.3157324 0.167968,-0.3828126 0,-0.073788 -0.02446,-0.1366377 -0.07813,-0.1835937 C 17.941327,7.2733567 17.877369,7.25 17.796875,7.25 c -0.395774,0 -0.802854,0.2446896 -1.21875,0.734375 -0.684217,0.7848382 -1.23254,2.025528 -1.648437,3.722656 h 1.457031 l -0.351563,1.179688 h -1.417968 l -1.175782,4.648437 c -0.550058,2.193522 -1.090056,3.783452 -1.613281,4.769532 -0.523226,0.986077 -1.135502,1.714033 -1.8398438,2.183593 -0.6976338,0.47627 -1.5006674,0.714846 -2.40625,0.714844 -0.5701814,2e-6 -0.9894919,-0.110665 -1.2578124,-0.332031 C 6.055898,24.656438 5.921875,24.400623 5.921875,24.105469 c 0,-0.275028 0.110666,-0.513602 0.3320312,-0.714844 0.2213648,-0.20124 0.5127671,-0.300781 0.875,-0.300781 0.3018609,0 0.5343202,0.0762 0.6953126,0.230468 0.160992,0.15428 0.2421875,0.347244 0.2421874,0.582032 0,0.214658 -0.051722,0.372036 -0.1523437,0.472656 -0.10062,0.10734 -0.1484375,0.1813 -0.1484375,0.214844 l 0.050781,0.07031 c 0.040246,0.03354 0.086961,0.04687 0.140625,0.04687 0.2012406,0 0.3708504,-0.06397 0.5117188,-0.191406 0.355525,-0.315276 0.6224666,-0.695095 0.796875,-1.144531 0.120744,-0.30857 0.349297,-1.123835 0.6914062,-2.445313 l 2.054688,-8.039062 h -1.398438 l 0.332031,-1.179688 c 0.503103,0.0067 0.869584,-0.05724 1.097657,-0.191406 0.228072,-0.13416 0.467751,-0.432783 0.722656,-0.902344 0.737882,-1.3617273 1.517559,-2.3393816 2.335937,-2.9296872 0.81838,-0.5903058 1.728173,-0.8867188 2.734376,-0.8867188 z m 5.050781,0.5996094 c 0.203288,0 0.367086,0.064351 0.49414,0.1914062 0.131291,0.1228196 0.197266,0.2749188 0.197266,0.4570313 0,0.2371693 -0.143649,0.6193706 -0.431641,1.1445312 l -1.328125,2.4316409 h -0.304687 l 0.03125,-2.4257815 c 0.0042,-0.6056291 0.137774,-1.0570545 0.40039,-1.3535156 0.26258,-0.2964622 0.577181,-0.4453125 0.941407,-0.4453125 z" style="opacity:0.6;fill:#d0d0d0;stroke:none;stroke-width:1.5;stroke-linecap:round" inkscape:connector-curvature="0" />
  </g>
</svg>
