<?xml version="1.0" encoding="UTF-8" standalone="no"?>
<!-- Created with Inkscape (http://www.inkscape.org/) -->

<svg xmlns:dc="http://purl.org/dc/elements/1.1/" xmlns:cc="http://creativecommons.org/ns#" xmlns:rdf="http://www.w3.org/1999/02/22-rdf-syntax-ns#" xmlns:svg="http://www.w3.org/2000/svg" xmlns="http://www.w3.org/2000/svg" xmlns:sodipodi="http://sodipodi.sourceforge.net/DTD/sodipodi-0.dtd" xmlns:inkscape="http://www.inkscape.org/namespaces/inkscape" width="32.000004" height="32" viewBox="0 0 32.000004 32" version="1.1" id="main" inkscape:version="0.92+devel (8ef6761023, 2017-10-07, custom)" sodipodi:docname="editconstants.svg">
  <defs id="ol-defs" />
  <sodipodi:namedview id="base" pagecolor="#002466" bordercolor="#ffffff" borderopacity="0.30" inkscape:pageopacity="1" inkscape:pageshadow="2" inkscape:zoom="13.140625" inkscape:document-units="px" inkscape:current-layer="main" inkscape:document-rotation="0" showgrid="false" inkscape:showpageshadow="false" borderlayer="true" inkscape:window-width="1920" inkscape:window-height="1029" inkscape:window-x="0" inkscape:window-y="22" inkscape:window-maximized="1" units="px" inkscape:cx="6.4084363" inkscape:cy="6.1286351" />
  <metadata id="metadata5">
    <rdf:RDF>
      <cc:Work rdf:about="">
        <dc:format>image/svg+xml</dc:format>
        <dc:type rdf:resource="http://purl.org/dc/dcmitype/StillImage" />
        <dc:title></dc:title>
      </cc:Work>
    </rdf:RDF>
  </metadata>
  <g id="g855" style="stroke:none;stroke-width:0.5" inkscape:label="#editconstants" transform="scale(2)">
    <path style="fill:none;stroke:none;stroke-width:0.5" d="M -5.5000004e-8,-4.9999999e-8 H 16.000001 V 16 H -5.5000004e-8 Z" id="boundary" inkscape:label="#boundary" inkscape:connector-curvature="0" />
    <path inkscape:label="#" inkscape:connector-curvature="0" id="rect812" d="M 3.199707,2 C 2.534907,2 2,2.5349071 2,3.199707 v 9.600586 C 2,13.465093 2.534907,14 3.199707,14 h 9.600586 C 13.465093,14 14,13.465093 14,12.800293 V 3.199707 C 14,2.5349071 13.465093,2 12.800293,2 Z m 6.3823242,1.6743164 c 0.190716,1e-7 0.3812993,0.073671 0.5273438,0.2197265 l 1.996582,1.9965821 c 0.292089,0.2921112 0.29209,0.7640411 0,1.0561523 L 11.282715,7.7700196 8.2299804,4.7172852 9.0546875,3.8940429 C 9.2007319,3.7479864 9.3913163,3.6743163 9.5820312,3.6743164 Z M 7.9165039,5.0322266 10.967773,8.084961 7.9809571,11.073242 4.9282227,8.020508 Z m -3.3032226,3.3032224 1.5263671,1.524903 1.5263672,1.527832 -1.9951172,0.467285 -1.996582,0.470215 0.4702149,-1.995117 z" style="opacity:0.58999999;fill:#d0d0d0;stroke:none;stroke-width:0.75;stroke-linecap:round" />
  </g>
</svg>
