<?xml version="1.0" encoding="UTF-8" standalone="no"?>
<!-- Created with Inkscape (http://www.inkscape.org/) -->

<svg
   xmlns:dc="http://purl.org/dc/elements/1.1/"
   xmlns:cc="http://creativecommons.org/ns#"
   xmlns:rdf="http://www.w3.org/1999/02/22-rdf-syntax-ns#"
   xmlns:svg="http://www.w3.org/2000/svg"
   xmlns="http://www.w3.org/2000/svg"
   xmlns:sodipodi="http://sodipodi.sourceforge.net/DTD/sodipodi-0.dtd"
   xmlns:inkscape="http://www.inkscape.org/namespaces/inkscape"
   width="32"
   height="32"
   viewBox="0 0 32 32"
   version="1.1"
   id="svg8"
   inkscape:version="0.92+devel (c0065a33f9, 2017-07-22, custom)"
   sodipodi:docname="folder-sync.svg">
  <defs
     id="ol-defs">
    <style
       id="current-color-scheme">      .ColorScheme-Text {
        color:#d0d0d0;
        stop-color:#d0d0d0;
      }
      .ColorScheme-Background {
        color:#212121;
        stop-color:#212121;
      }
      .ColorScheme-Highlight {
        color:#0039a9;
        stop-color:#0039a9;
      }
      .ColorScheme-ViewText {
        color:#d0d0d0;
        stop-color:#d0d0d0;
      }
      .ColorScheme-ViewBackground {
        color:#19191b;
        stop-color:#19191b;
      }
      .ColorScheme-ViewHover {
        color:#005cc7;
        stop-color:#005cc7;
      }
      .ColorScheme-ViewFocus{
        color:#002466;
        stop-color:#002466;
      }
      .ColorScheme-ButtonText {
        color:#d0d0d0;
        stop-color:#d0d0d0;
      }
      .ColorScheme-ButtonBackground {
        color:#232323;
        stop-color:#232323;                             
      }                                                 
      .ColorScheme-ButtonHover {                        
        color:#005cc7;                                  
        stop-color:#005cc7;                             
      }                                                 
      .ColorScheme-ButtonFocus{                         
        color:#0039a9;                                  
        stop-color:#0039a9;                             
      }</style>
    <style
       id="current-color-scheme-6">      .ColorScheme-Text {
        color:#d0d0d0;
        stop-color:#d0d0d0;
      }
      .ColorScheme-Background {
        color:#212121;
        stop-color:#212121;
      }
      .ColorScheme-Highlight {
        color:#0039a9;
        stop-color:#0039a9;
      }
      .ColorScheme-ViewText {
        color:#d0d0d0;
        stop-color:#d0d0d0;
      }
      .ColorScheme-ViewBackground {
        color:#19191b;
        stop-color:#19191b;
      }
      .ColorScheme-ViewHover {
        color:#005cc7;
        stop-color:#005cc7;
      }
      .ColorScheme-ViewFocus{
        color:#002466;
        stop-color:#002466;
      }
      .ColorScheme-ButtonText {
        color:#d0d0d0;
        stop-color:#d0d0d0;
      }
      .ColorScheme-ButtonBackground {
        color:#232323;
        stop-color:#232323;                             
      }                                                 
      .ColorScheme-ButtonHover {                        
        color:#005cc7;                                  
        stop-color:#005cc7;                             
      }                                                 
      .ColorScheme-ButtonFocus{                         
        color:#0039a9;                                  
        stop-color:#0039a9;                             
      }</style>
  </defs>
  <sodipodi:namedview
     id="base"
     pagecolor="#002266"
     bordercolor="#ffffff"
     borderopacity="0.46666667"
     inkscape:pageopacity="0"
     inkscape:pageshadow="2"
     inkscape:zoom="9.2500004"
     inkscape:cx="22.613485"
     inkscape:cy="30.60679"
     inkscape:document-units="px"
     inkscape:current-layer="g4275"
     inkscape:document-rotation="0"
     showgrid="false"
     inkscape:showpageshadow="false"
     borderlayer="true"
     units="px"
     fit-margin-top="0"
     fit-margin-left="0"
     fit-margin-right="0"
     fit-margin-bottom="0"
     inkscape:window-width="1920"
     inkscape:window-height="1051"
     inkscape:window-x="0"
     inkscape:window-y="0"
     inkscape:window-maximized="1"
     inkscape:snap-page="true" />
  <metadata
     id="metadata5">
    <rdf:RDF>
      <cc:Work
         rdf:about="">
        <dc:format>image/svg+xml</dc:format>
        <dc:type
           rdf:resource="http://purl.org/dc/dcmitype/StillImage" />
        <dc:title></dc:title>
      </cc:Work>
    </rdf:RDF>
  </metadata>
  <g
     id="g4275"
     inkscape:label="#folder-sync"
     transform="scale(0.5)">
    <rect
       inkscape:label="#boundary"
       y="0"
       x="0"
       height="64"
       width="64"
       id="rect4266"
       style="fill:none;fill-opacity:0.74651441;stroke-width:23.61599922;stroke-opacity:0.3596773"
       sodipodi:insensitive="true" />
    <path
       inkscape:connector-curvature="0"
       id="rect4311"
       d="m 8.9921876,9.109375 c -1.289323,0 -2.3242188,1.038802 -2.3242188,2.328125 v 4.042969 0.0039 35.371093 c 0,1.289324 1.038802,2.328126 2.328125,2.328126 H 55.539062 c 1.289324,0 2.328124,-1.038802 2.328126,-2.328126 V 17.808594 c 0,-1.289323 -1.038802,-2.328125 -2.328126,-2.328125 H 36.234376 L 33.808594,11.40625 C 33.14759,10.299261 32.65651,9.109375 31.367188,9.109375 Z M 33.722656,21.789062 c 0.3642,-0.008 0.664364,0.284152 0.664062,0.648438 v 1.703124 c 3.182134,0.385724 6.038364,2.234986 7.664064,5.050782 1.833884,3.176382 1.833884,7.100962 0,10.277344 L 39.21875,37.832032 c 1.252632,-2.169624 1.252632,-4.834282 0,-7.003908 -1.042902,-1.806354 -2.820886,-3.018806 -4.832032,-3.378906 v 1.59375 c -0.002,0.497342 -0.540972,0.80949 -0.972656,0.5625 l -5.71875,-3.30078 c -0.432542,-0.249882 -0.432542,-0.87512 0,-1.125 L 33.414062,21.875 c 0.09366,-0.0549 0.200086,-0.08256 0.308594,-0.08594 z m -10.21875,7.804688 2.832032,1.632812 c -1.252632,2.169624 -1.252632,4.83819 0,7.007814 1.0429,1.806356 2.820888,3.018806 4.83203,3.378906 v -1.59375 c 0.0022,-0.497342 0.540976,-0.80949 0.972656,-0.5625 l 5.718752,3.30078 c 0.432542,0.249882 0.432542,0.87512 0,1.125 l -5.718752,3.300782 c -0.09366,0.0549 -0.200084,0.08646 -0.308592,0.08984 -0.3642,0.008 -0.664366,-0.284152 -0.664064,-0.648438 v -1.707032 c -3.18213,-0.385722 -6.038362,-2.234984 -7.664062,-5.05078 -1.833884,-3.176382 -1.833884,-7.097058 0,-10.273438 z"
       style="opacity:0.6;vector-effect:none;fill:#d0d0d0;stroke-width:2.32729769;stroke-linecap:round;stroke-linejoin:round"
       inkscape:label="#1" />
  </g>
</svg>
