<?xml version="1.0" encoding="UTF-8" standalone="no"?>
<!-- Created with Inkscape (http://www.inkscape.org/) -->

<svg xmlns:dc="http://purl.org/dc/elements/1.1/" xmlns:cc="http://creativecommons.org/ns#" xmlns:rdf="http://www.w3.org/1999/02/22-rdf-syntax-ns#" xmlns:svg="http://www.w3.org/2000/svg" xmlns="http://www.w3.org/2000/svg" xmlns:sodipodi="http://sodipodi.sourceforge.net/DTD/sodipodi-0.dtd" xmlns:inkscape="http://www.inkscape.org/namespaces/inkscape" width="32.000004" height="32" viewBox="0 0 32.000004 32" version="1.1" id="main" inkscape:version="0.92+devel (f318dbfe43, 2017-10-09, custom)" sodipodi:docname="func.svg">
  <sodipodi:namedview id="base" pagecolor="#002466" bordercolor="#ffffff" borderopacity="0.30" inkscape:pageopacity="1" inkscape:pageshadow="2" inkscape:zoom="13.140625" inkscape:document-units="px" inkscape:current-layer="main" inkscape:document-rotation="0" showgrid="false" inkscape:showpageshadow="false" borderlayer="true" inkscape:window-width="1920" inkscape:window-height="1027" inkscape:window-x="0" inkscape:window-y="24" inkscape:window-maximized="1" units="px" inkscape:cx="6.7489002" inkscape:cy="8.0269054" />
  <metadata id="metadata5">
    <rdf:RDF>
      <cc:Work rdf:about="">
        <dc:format>image/svg+xml</dc:format>
        <dc:type rdf:resource="http://purl.org/dc/dcmitype/StillImage" />
        <dc:title></dc:title>
      </cc:Work>
    </rdf:RDF>
  </metadata>
  <defs id="ol-defs" />
  <g id="g826" inkscape:label="#func" transform="scale(2)" style="stroke-width:0.5">
    <path style="fill:none;stroke:none;stroke-width:0.5" d="M -5.5000004e-8,-4.9999999e-8 H 16.000001 V 16 H -5.5000004e-8 Z" id="boundary" inkscape:label="#boundary" inkscape:connector-curvature="0" />
    <path inkscape:connector-curvature="0" inkscape:label="#" id="rect820" d="M 3.1992188,2 C 2.5344188,2 2,2.5344187 2,3.1992188 V 12.800781 C 2,13.465581 2.5344187,14 3.1992188,14 H 12.800781 C 13.465581,14 14,13.465581 14,12.800781 V 3.1992188 C 14,2.5344187 13.465581,2 12.800781,2 Z m 7.3183592,1.3984375 c 0.321985,0 0.554997,0.063402 0.699219,0.1875 0.147577,0.1240983 0.222656,0.2845353 0.222656,0.4824219 0,0.1744084 -0.04922,0.3139944 -0.146484,0.4179687 -0.09727,0.1006203 -0.21906,0.1503907 -0.363281,0.1503907 -0.134161,0 -0.244827,-0.04115 -0.332032,-0.125 -0.0872,-0.08385 -0.130859,-0.1853439 -0.130859,-0.3027344 0,-0.08385 0.02836,-0.1717125 0.08203,-0.265625 0.05702,-0.093912 0.08398,-0.1578662 0.08398,-0.1914063 0,-0.036894 -0.01223,-0.068319 -0.03906,-0.091797 C 10.57027,3.6366782 10.538294,3.625 10.498047,3.625 10.30016,3.625 10.09662,3.7473448 9.8886719,3.9921875 9.5465633,4.3846066 9.2724017,5.0049514 9.0644531,5.8535156 H 9.7929688 L 9.6171875,6.4433594 H 8.9082031 L 8.3203125,8.7675781 C 8.0452837,9.8643388 7.7752846,10.659304 7.5136719,11.152344 7.2520591,11.645383 6.9459209,12.009361 6.59375,12.244141 6.2449331,12.482276 5.8434163,12.601563 5.390625,12.601562 5.1055343,12.601563 4.8958791,12.54623 4.7617188,12.435547 4.6275584,12.328219 4.5605469,12.200311 4.5605469,12.052734 c 0,-0.137514 0.055333,-0.256801 0.1660156,-0.357422 0.1106824,-0.10062 0.2563835,-0.15039 0.4375,-0.15039 0.1509304,0 0.2671601,0.0381 0.3476563,0.115234 0.080496,0.07714 0.1210937,0.173622 0.1210937,0.291016 0,0.107329 -0.025861,0.186018 -0.076172,0.236328 -0.05031,0.05367 -0.074219,0.09065 -0.074219,0.107422 l 0.025391,0.03516 c 0.020123,0.01677 0.04348,0.02344 0.070312,0.02344 0.1006203,0 0.1854252,-0.03198 0.2558594,-0.0957 0.1777625,-0.157638 0.3112333,-0.347547 0.3984375,-0.572265 0.060372,-0.154285 0.1746485,-0.561917 0.3457031,-1.222656 L 7.6054688,6.4433594 H 6.90625 L 7.0722656,5.8535156 C 7.3238164,5.8568728 7.5070574,5.824896 7.6210938,5.7578125 7.7351301,5.6907323 7.8549695,5.5414212 7.9824219,5.3066406 8.3513629,4.6257767 8.7412015,4.1369497 9.1503906,3.8417969 9.5595798,3.546644 10.014477,3.3984375 10.517578,3.3984375 Z" style="opacity:0.6;fill:#d0d0d0;stroke:none;stroke-width:0.75;stroke-linecap:round" />
  </g>
</svg>
