<?xml version="1.0" encoding="UTF-8" standalone="no"?>
<!-- Created with Inkscape (http://www.inkscape.org/) -->

<svg xmlns:dc="http://purl.org/dc/elements/1.1/" xmlns:cc="http://creativecommons.org/ns#" xmlns:rdf="http://www.w3.org/1999/02/22-rdf-syntax-ns#" xmlns:svg="http://www.w3.org/2000/svg" xmlns="http://www.w3.org/2000/svg" xmlns:sodipodi="http://sodipodi.sourceforge.net/DTD/sodipodi-0.dtd" xmlns:inkscape="http://www.inkscape.org/namespaces/inkscape" width="32.000004" height="32" viewBox="0 0 32.000004 32" version="1.1" id="main" inkscape:version="0.92+devel (f318dbfe43, 2017-10-09, custom)" sodipodi:docname="functionhelp.svg">
  <sodipodi:namedview id="base" pagecolor="#002466" bordercolor="#ffffff" borderopacity="0.30" inkscape:pageopacity="1" inkscape:pageshadow="2" inkscape:zoom="13.140625" inkscape:document-units="px" inkscape:current-layer="main" inkscape:document-rotation="0" showgrid="false" inkscape:showpageshadow="false" borderlayer="true" inkscape:window-width="1920" inkscape:window-height="1027" inkscape:window-x="0" inkscape:window-y="24" inkscape:window-maximized="1" units="px" inkscape:cx="6.216201" inkscape:cy="8.0269054" />
  <metadata id="metadata5">
    <rdf:RDF>
      <cc:Work rdf:about="">
        <dc:format>image/svg+xml</dc:format>
        <dc:type rdf:resource="http://purl.org/dc/dcmitype/StillImage" />
        <dc:title />
      </cc:Work>
    </rdf:RDF>
  </metadata>
  <defs id="ol-defs" />
  <g id="g827" inkscape:label="#functionhelp">
    <path style="fill:none;stroke:none;stroke-width:1" d="M -1.1000001e-7,-9.9999998e-8 H 32.000002 V 32 H -1.1000001e-7 Z" id="boundary" inkscape:label="#boundary" inkscape:connector-curvature="0" />
    <path style="opacity:0.6;fill:#d0d0d0;stroke:none;stroke-width:1.5;stroke-linecap:round" d="M 6.3984375,4 C 5.0688375,4 4,5.0688373 4,6.3984375 V 25.601562 C 4,26.931162 5.0688373,28 6.3984375,28 H 25.601562 C 26.931162,28 28,26.931162 28,25.601562 V 6.3984375 C 28,5.0688373 26.931162,4 25.601562,4 Z M 21.035156,6.796875 c 0.64397,0 1.109994,0.126804 1.398438,0.375 0.295154,0.2481966 0.445312,0.5690705 0.445312,0.9648438 0,0.3488167 -0.09844,0.6279888 -0.292968,0.8359374 -0.19454,0.2012407 -0.438121,0.3007813 -0.726563,0.3007813 -0.268322,0 -0.489652,-0.0823 -0.664063,-0.25 -0.174399,-0.1677 -0.261718,-0.3706877 -0.261718,-0.6054687 0,-0.1677 0.05672,-0.343425 0.164062,-0.53125 0.11404,-0.187824 0.167969,-0.3157324 0.167969,-0.3828126 0,-0.073788 -0.02446,-0.1366377 -0.07813,-0.1835937 C 21.140546,7.2733567 21.076588,7.25 20.996094,7.25 c -0.395774,0 -0.802854,0.2446896 -1.21875,0.734375 -0.684217,0.7848382 -1.232541,2.025528 -1.648438,3.722656 h 1.457032 l -0.351563,1.179688 h -1.417969 l -1.175781,4.648437 c -0.550058,2.193522 -1.090056,3.783452 -1.613281,4.769532 -0.523226,0.986077 -1.135502,1.714033 -1.839844,2.183593 -0.697634,0.47627 -1.500667,0.714846 -2.40625,0.714844 -0.570181,2e-6 -0.9894919,-0.110665 -1.2578125,-0.332031 -0.2683208,-0.214656 -0.4023437,-0.470471 -0.4023437,-0.765625 0,-0.275028 0.110666,-0.513602 0.3320312,-0.714844 0.2213648,-0.20124 0.512767,-0.300781 0.875,-0.300781 0.301861,0 0.534319,0.0762 0.695313,0.230468 0.160992,0.15428 0.242187,0.347244 0.242187,0.582032 0,0.214658 -0.05172,0.372036 -0.152344,0.472656 -0.10062,0.10734 -0.148437,0.1813 -0.148437,0.214844 l 0.05078,0.07031 c 0.04025,0.03354 0.08696,0.04687 0.140625,0.04687 0.201241,0 0.37085,-0.06397 0.511719,-0.191406 0.355525,-0.315276 0.622466,-0.695095 0.796875,-1.144531 0.120744,-0.30857 0.349297,-1.123835 0.691406,-2.445313 l 2.054688,-8.039062 H 13.8125 l 0.332031,-1.179688 c 0.503102,0.0067 0.869583,-0.05724 1.097657,-0.191406 0.228071,-0.13416 0.467751,-0.432783 0.722656,-0.902344 C 16.702726,9.2515537 17.482403,8.2738994 18.300781,7.6835938 19.11916,7.093288 20.028954,6.796875 21.035156,6.796875 Z m 1.242188,8.613281 c 1.047026,0 1.879349,0.274747 2.498047,0.824219 0.618698,0.545147 0.927734,1.181341 0.927734,1.908203 0,0.402369 -0.114442,0.781521 -0.34375,1.140625 -0.224981,0.359105 -0.708957,0.848099 -1.453125,1.466797 -0.385064,0.320164 -0.62552,0.578744 -0.720703,0.773438 -0.09086,0.194696 -0.131703,0.543041 -0.123047,1.044921 h -1.654297 c -0.0043,-0.23796 -0.0078,-0.383628 -0.0078,-0.435547 0,-0.536494 0.0902,-0.978094 0.267578,-1.324218 0.177389,-0.346124 0.532287,-0.735313 1.064453,-1.167969 0.532167,-0.432657 0.849288,-0.715486 0.953125,-0.849609 0.160076,-0.212001 0.240234,-0.445905 0.240234,-0.701172 0,-0.354777 -0.142186,-0.657262 -0.427734,-0.908203 -0.281226,-0.255267 -0.662329,-0.382813 -1.142578,-0.382813 -0.462942,0 -0.850597,0.130615 -1.16211,0.394531 -0.311512,0.26392 -0.52576,0.666212 -0.642578,1.207032 l -1.673828,-0.207032 c 0.0476,-0.774455 0.376284,-1.431836 0.986328,-1.972656 0.61437,-0.54082 1.418953,-0.810547 2.414063,-0.810547 z m -0.869141,8.28711 h 1.824219 v 1.824218 h -1.824219 z" id="rect820" inkscape:connector-curvature="0" inkscape:label="#" />
  </g>
</svg>
