<?xml version="1.0" encoding="UTF-8" standalone="no"?>
<!-- Created with Inkscape (http://www.inkscape.org/) -->

<svg
   xmlns:dc="http://purl.org/dc/elements/1.1/"
   xmlns:cc="http://creativecommons.org/ns#"
   xmlns:rdf="http://www.w3.org/1999/02/22-rdf-syntax-ns#"
   xmlns:svg="http://www.w3.org/2000/svg"
   xmlns="http://www.w3.org/2000/svg"
   xmlns:sodipodi="http://sodipodi.sourceforge.net/DTD/sodipodi-0.dtd"
   xmlns:inkscape="http://www.inkscape.org/namespaces/inkscape"
   width="32"
   height="32"
   viewBox="0 0 32 32"
   version="1.1"
   id="svg8"
   inkscape:version="0.92+devel 15739 custom"
   sodipodi:docname="help-about.svg">
  <defs
     id="ol-defs">
    <style
       id="current-color-scheme">      .ColorScheme-Text {
        color:#d0d0d0;
        stop-color:#d0d0d0;
      }
      .ColorScheme-Background {
        color:#212121;
        stop-color:#212121;
      }
      .ColorScheme-Highlight {
        color:#0039a9;
        stop-color:#0039a9;
      }
      .ColorScheme-ViewText {
        color:#d0d0d0;
        stop-color:#d0d0d0;
      }
      .ColorScheme-ViewBackground {
        color:#19191b;
        stop-color:#19191b;
      }
      .ColorScheme-ViewHover {
        color:#005cc7;
        stop-color:#005cc7;
      }
      .ColorScheme-ViewFocus{
        color:#002466;
        stop-color:#002466;
      }
      .ColorScheme-ButtonText {
        color:#d0d0d0;
        stop-color:#d0d0d0;
      }
      .ColorScheme-ButtonBackground {
        color:#232323;
        stop-color:#232323;                             
      }                                                 
      .ColorScheme-ButtonHover {                        
        color:#005cc7;                                  
        stop-color:#005cc7;                             
      }                                                 
      .ColorScheme-ButtonFocus{                         
        color:#0039a9;                                  
        stop-color:#0039a9;                             
      }</style>
    <style
       id="current-color-scheme-7">      .ColorScheme-Text {
        color:#d0d0d0;
        stop-color:#d0d0d0;
      }
      .ColorScheme-Background {
        color:#212121;
        stop-color:#212121;
      }
      .ColorScheme-Highlight {
        color:#0039a9;
        stop-color:#0039a9;
      }
      .ColorScheme-ViewText {
        color:#d0d0d0;
        stop-color:#d0d0d0;
      }
      .ColorScheme-ViewBackground {
        color:#19191b;
        stop-color:#19191b;
      }
      .ColorScheme-ViewHover {
        color:#005cc7;
        stop-color:#005cc7;
      }
      .ColorScheme-ViewFocus{
        color:#002466;
        stop-color:#002466;
      }
      .ColorScheme-ButtonText {
        color:#d0d0d0;
        stop-color:#d0d0d0;
      }
      .ColorScheme-ButtonBackground {
        color:#232323;
        stop-color:#232323;                             
      }                                                 
      .ColorScheme-ButtonHover {                        
        color:#005cc7;                                  
        stop-color:#005cc7;                             
      }                                                 
      .ColorScheme-ButtonFocus{                         
        color:#0039a9;                                  
        stop-color:#0039a9;                             
      }</style>
    <style
       type="text/css"
       id="current-color-scheme-6">
      .ColorScheme-Text {
        color:#f2f2f2;
      }
      </style>
  </defs>
  <sodipodi:namedview
     id="base"
     pagecolor="#002266"
     bordercolor="#ffffff"
     borderopacity="0.46666667"
     inkscape:pageopacity="0"
     inkscape:pageshadow="2"
     inkscape:zoom="7.9439028"
     inkscape:cx="8"
     inkscape:cy="12.744623"
     inkscape:document-units="px"
     inkscape:current-layer="svg8"
     inkscape:document-rotation="0"
     showgrid="false"
     inkscape:showpageshadow="false"
     borderlayer="true"
     units="px"
     fit-margin-top="0"
     fit-margin-left="0"
     fit-margin-right="0"
     fit-margin-bottom="0"
     inkscape:window-width="1920"
     inkscape:window-height="1051"
     inkscape:window-x="0"
     inkscape:window-y="0"
     inkscape:window-maximized="1"
     inkscape:snap-page="true" />
  <metadata
     id="metadata5">
    <rdf:RDF>
      <cc:Work
         rdf:about="">
        <dc:format>image/svg+xml</dc:format>
        <dc:type
           rdf:resource="http://purl.org/dc/dcmitype/StillImage" />
        <dc:title></dc:title>
      </cc:Work>
    </rdf:RDF>
  </metadata>
  <g
     id="g4299"
     inkscape:label="#help-about"
     transform="scale(2)">
    <rect
       inkscape:label="#boundary"
       y="0"
       x="0"
       height="16"
       width="16"
       id="rect4264"
       style="vector-effect:none;fill:none;stroke-width:2.18181825;stroke-linecap:round" />
    <path
       inkscape:connector-curvature="0"
       style="opacity:0.6;fill:#d0d0d0;stroke-width:0.21818182;stroke-linecap:round"
       d="M 8.0000001,2 A 6.0000001,6.0000001 0 0 0 1.9999997,7.9999999 6.0000001,6.0000001 0 0 0 8.0000001,14 6.0000001,6.0000001 0 0 0 14,7.9999999 6.0000001,6.0000001 0 0 0 8.0000001,2 Z m 0.7606533,1.3721591 c 0.2731653,0 0.5020975,0.093927 0.6871451,0.2833806 0.1894533,0.1894532 0.2844458,0.4194507 0.2844458,0.6882103 0,0.2687591 -0.094993,0.4976913 -0.2844458,0.6871446 C 9.2583452,5.2203478 9.029413,5.3142757 8.7606534,5.3142757 8.4962999,5.3142757 8.2693538,5.2203477 8.0799005,5.0308946 7.8904477,4.8414413 7.7954546,4.6125091 7.7954546,4.34375 c 0,-0.2687596 0.091941,-0.4987571 0.2769883,-0.6882103 C 8.2618968,3.4660864 8.4918943,3.3721591 8.7606534,3.3721591 Z m 0.012785,3.0394173 H 9.1697449 L 7.8156965,11.110795 c -0.0749,0.26876 -0.112926,0.444698 -0.112926,0.52841 0,0.04846 0.020007,0.09443 0.059659,0.138494 0.039655,0.03965 0.081652,0.05966 0.1257104,0.05966 0.074901,0 0.1498871,-0.03299 0.2247867,-0.09908 0.1982658,-0.163018 0.4362084,-0.457927 0.7137793,-0.885298 l 0.2247867,0.132102 c -0.6652894,1.158748 -1.3731575,1.738636 -2.1221593,1.738636 -0.2863826,0 -0.5153154,-0.08002 -0.687145,-0.238636 -0.1674239,-0.163018 -0.2514205,-0.367972 -0.2514205,-0.614702 0,-0.163017 0.038025,-0.369957 0.1129263,-0.621093 L 7.0220169,8.0905541 c 0.088118,-0.3040069 0.132102,-0.5329391 0.132102,-0.6871452 0,-0.096929 -0.042,-0.1829118 -0.1257103,-0.2578124 -0.083712,-0.074901 -0.1976449,-0.1129262 -0.3430397,-0.1129262 -0.066088,0 -0.1461125,0.00304 -0.2386362,0.00746 l 0.086293,-0.2652699 z"
       id="path811"
       inkscape:label="#" />
  </g>
</svg>
