<?xml version="1.0" encoding="UTF-8" standalone="no"?>
<!-- Created with Inkscape (http://www.inkscape.org/) -->

<svg xmlns:dc="http://purl.org/dc/elements/1.1/" xmlns:cc="http://creativecommons.org/ns#" xmlns:rdf="http://www.w3.org/1999/02/22-rdf-syntax-ns#" xmlns:svg="http://www.w3.org/2000/svg" xmlns="http://www.w3.org/2000/svg" xmlns:sodipodi="http://sodipodi.sourceforge.net/DTD/sodipodi-0.dtd" xmlns:inkscape="http://www.inkscape.org/namespaces/inkscape" width="32.000004" height="32" viewBox="0 0 32.000004 32" version="1.1" id="main" inkscape:version="0.92+devel (f318dbfe43, 2017-10-09, custom)" sodipodi:docname="integral_func.svg">
  <sodipodi:namedview id="base" pagecolor="#002466" bordercolor="#ffffff" borderopacity="0.30" inkscape:pageopacity="1" inkscape:pageshadow="2" inkscape:zoom="18.58365" inkscape:document-units="px" inkscape:current-layer="main" inkscape:document-rotation="0" showgrid="false" inkscape:showpageshadow="false" borderlayer="true" inkscape:window-width="1920" inkscape:window-height="1027" inkscape:window-x="0" inkscape:window-y="24" inkscape:window-maximized="1" units="px" inkscape:cx="10.20548" inkscape:cy="14.846685" />
  <metadata id="metadata5">
    <rdf:RDF>
      <cc:Work rdf:about="">
        <dc:format>image/svg+xml</dc:format>
        <dc:type rdf:resource="http://purl.org/dc/dcmitype/StillImage" />
        <dc:title></dc:title>
      </cc:Work>
    </rdf:RDF>
  </metadata>
  <defs id="ol-defs" />
  <g id="g851" inkscape:label="#integral_func" style="stroke:none">
    <path style="fill:none;stroke:none;stroke-width:1" d="M -1.1000001e-7,-9.9999998e-8 H 32.000002 V 32 H -1.1000001e-7 Z" id="boundary" inkscape:label="#boundary" inkscape:connector-curvature="0" />
    <path id="rect820" d="M 6.3984375,4 C 5.0688375,4 4,5.0688373 4,6.3984375 V 25.601562 C 4,26.931162 5.0688373,28 6.3984375,28 H 25.601562 C 26.931162,28 28,26.931162 28,25.601562 V 6.3984375 C 28,5.0688373 26.931162,4 25.601562,4 Z M 18.324219,7.5097656 c 0.586468,0 1.010748,0.1157626 1.273437,0.3417969 0.268798,0.2260351 0.40625,0.5184726 0.40625,0.8789063 0,0.3176704 -0.09042,0.5723377 -0.267578,0.7617187 -0.177169,0.1832701 -0.399423,0.2734375 -0.662109,0.2734375 -0.244363,0 -0.446631,-0.073836 -0.605469,-0.2265625 -0.158826,-0.1527255 -0.238281,-0.3389187 -0.238281,-0.5527344 0,-0.1527255 0.05264,-0.3113679 0.15039,-0.4824219 0.103855,-0.1710525 0.152344,-0.2885191 0.152344,-0.3496093 0,-0.067203 -0.02143,-0.1252002 -0.07031,-0.1679688 -0.04276,-0.042764 -0.10052,-0.0625 -0.173829,-0.0625 -0.360433,0 -0.842109,0.3301792 -1.111328,0.6679688 -1.902005,2.3864501 -2.178245,5.7216751 -2.855468,8.6972651 -0.439776,1.932291 -0.9942,3.44572 -1.470704,4.34375 -0.476506,0.898029 -1.032379,1.562604 -1.673828,1.990235 -0.635339,0.433743 -1.3666849,0.650392 -2.1914059,0.650391 -0.519268,1e-6 -0.9021224,-0.101136 -1.1464843,-0.302735 -0.244361,-0.195489 -0.3671875,-0.428466 -0.3671876,-0.697265 0,-0.25047 0.1011354,-0.467119 0.3027344,-0.650391 0.201598,-0.18327 0.466987,-0.273438 0.796875,-0.273438 0.274906,0 0.4881497,0.0685 0.6347656,0.208985 0.146617,0.140505 0.2187501,0.315473 0.21875,0.529297 0,0.19549 -0.047032,0.340004 -0.1386718,0.43164 -0.09163,0.09775 -0.1347656,0.164764 -0.1347656,0.195313 l 0.046875,0.06445 c 0.03665,0.03054 0.078092,0.04297 0.1269531,0.04297 0.183272,0 0.3385069,-0.05972 0.4667969,-0.175782 0.3237792,-0.287124 0.5677282,-0.63171 0.7265622,-1.041015 0.109968,-0.281016 0.317344,-1.025036 0.628907,-2.228516 0.76566,-2.837839 1.206334,-5.944398 2.558593,-9.390625 0.415484,-1.0588607 1.38165,-2.1303734 2.126953,-2.6679686 0.745305,-0.5375951 1.573879,-0.8085938 2.490235,-0.8085938 z m 5.224609,3.4082034 c 0.429793,0 0.741082,0.08435 0.933594,0.25 0.196989,0.16565 0.296875,0.380387 0.296875,0.644531 0,0.232805 -0.06548,0.419806 -0.195313,0.558594 -0.129839,0.13431 -0.291866,0.201172 -0.484375,0.201172 -0.179082,0 -0.326955,-0.05605 -0.443359,-0.167969 C 23.539854,12.292372 23.480469,12.156695 23.480469,12 c 0,-0.111925 0.03969,-0.228159 0.111328,-0.353516 0.07611,-0.125356 0.111328,-0.211089 0.111328,-0.255859 0,-0.04925 -0.01691,-0.0917 -0.05273,-0.123047 -0.03134,-0.03134 -0.07323,-0.04687 -0.126953,-0.04687 -0.264145,0 -0.536879,0.163412 -0.814454,0.490235 -0.456654,0.523811 -0.822034,1.351689 -1.099609,2.484374 h 0.972656 l -0.234375,0.78711 h -0.947265 l -0.785157,3.103516 c -0.367115,1.463983 -0.726965,2.525471 -1.076172,3.183593 -0.349208,0.65812 -0.756476,1.143641 -1.226562,1.457031 -0.465609,0.31787 -1.003025,0.476564 -1.607422,0.476563 -0.380546,10e-7 -0.660763,-0.07296 -0.839844,-0.220703 -0.17908,-0.143264 -0.267578,-0.31473 -0.267578,-0.511719 0,-0.183557 0.07296,-0.342251 0.220703,-0.476562 0.147741,-0.13431 0.342226,-0.201172 0.583985,-0.201172 0.201465,0 0.357395,0.05134 0.464844,0.154297 0.107448,0.102969 0.162109,0.23197 0.162109,0.388672 0,0.143264 -0.03441,0.247298 -0.101563,0.314453 -0.06715,0.07164 -0.09961,0.12019 -0.09961,0.142578 l 0.0332,0.04687 c 0.02686,0.02238 0.05794,0.03125 0.09375,0.03125 0.134311,0 0.24778,-0.0419 0.341797,-0.126953 0.237282,-0.210419 0.416801,-0.463713 0.533203,-0.763672 0.08059,-0.205943 0.23261,-0.750842 0.460938,-1.632813 l 1.371093,-5.365234 h -0.933593 l 0.222656,-0.78711 c 0.335777,0.0045 0.580203,-0.03741 0.732422,-0.126953 0.152218,-0.08954 0.312295,-0.290125 0.482422,-0.603515 0.492471,-0.908834 1.012397,-1.561101 1.558593,-1.955078 0.546197,-0.393977 1.152667,-0.591797 1.824219,-0.591797 z" style="opacity:0.6;fill:#d0d0d0;stroke:none;stroke-width:1.5;stroke-linecap:round" inkscape:connector-curvature="0" inkscape:label="#" />
  </g>
</svg>
