<?xml version="1.0" encoding="UTF-8" standalone="no"?>
<svg
   xmlns:dc="http://purl.org/dc/elements/1.1/"
   xmlns:cc="http://creativecommons.org/ns#"
   xmlns:rdf="http://www.w3.org/1999/02/22-rdf-syntax-ns#"
   xmlns:svg="http://www.w3.org/2000/svg"
   xmlns="http://www.w3.org/2000/svg"
   xmlns:sodipodi="http://sodipodi.sourceforge.net/DTD/sodipodi-0.dtd"
   xmlns:inkscape="http://www.inkscape.org/namespaces/inkscape"
   height="32"
   viewBox="0 0 31.999998 32"
   width="31.999998"
   version="1.1"
   id="svg8"
   sodipodi:docname="labplot-zoom-in-x.svg"
   inkscape:version="0.92+devel (9cbd9e9661, 2017-09-28, custom)">
  <defs
     id="defs10" />
  <sodipodi:namedview
     id="namedview2"
     inkscape:document-rotation="0"
     showgrid="false"
     pagecolor="#002466"
     inkscape:pageopacity="1"
     bordercolor="#ffffff"
     borderopacity="0.24705882"
     borderlayer="true"
     inkscape:showpageshadow="false"
     inkscape:snap-object-midpoints="true"
     inkscape:snap-center="true"
     inkscape:zoom="16.704545"
     inkscape:cx="11.684612"
     inkscape:cy="4.4871629"
     inkscape:window-width="1920"
     inkscape:window-height="1027"
     inkscape:window-x="0"
     inkscape:window-y="24"
     inkscape:window-maximized="1"
     inkscape:current-layer="svg8" />
  <metadata
     id="metadata4">
    <rdf:RDF>
      <cc:Work>
        <dc:format>image/svg+xml</dc:format>
        <dc:type
           rdf:resource="http://purl.org/dc/dcmitype/StillImage" />
        <dc:title></dc:title>
      </cc:Work>
    </rdf:RDF>
  </metadata>
  <g
     id="g852"
     inkscape:label="#labplot-zoom-in-x"
     style="stroke:none"
     transform="scale(1.4545454)">
    <path
       inkscape:label="#boundary"
       inkscape:connector-curvature="0"
       id="rect845"
       d="M 0,-2.1e-7 H 22 V 22 H 0 Z"
       style="fill:none;stroke:none;stroke-width:1.41700006;stroke-linecap:round;stroke-dashoffset:0.15256613" />
    <path
       inkscape:label="#"
       inkscape:transform-center-y="1.8850096"
       inkscape:transform-center-x="1.9037989"
       inkscape:connector-curvature="0"
       id="path832"
       d="M 12.904138,3.0000003 C 11.332254,3.0004829 9.7604904,3.5968496 8.5669434,4.7879601 6.5023641,6.848232 6.2247545,10.036778 7.7313369,12.402333 l -4.3421693,4.334375 c -0.518997,0.51752 -0.5187894,1.357268 0,1.874996 0.51879,0.517729 1.3588397,0.517728 1.8776276,0 l 4.3446562,-4.336861 c 2.2499466,1.415736 5.2308126,1.188928 7.2941486,-0.609248 0.12536,-0.05116 0.239873,-0.128334 0.335734,-0.223807 0.09683,-0.09615 0.172111,-0.209532 0.223823,-0.335709 4.01e-4,-0.0012 0.0023,-0.0037 0.0025,-0.0049 C 19.561848,10.702642 19.527956,7.0674653 17.241334,4.7855135 16.047788,3.5943616 14.476021,2.9995181 12.904138,3.0000003 Z m 0,2.0266865 c 1.044772,-4.827e-4 2.08933,0.3997667 2.892292,1.201092 1.60593,1.6026439 1.605928,4.1715422 0,5.7741902 -1.605929,1.602646 -4.181146,1.602651 -5.78707,0 -1.6059296,-1.602644 -1.6034666,-4.171541 0.0025,-5.7741902 0.802964,-0.801324 1.847521,-1.2006093 2.892292,-1.201092 z"
       style="opacity:0.6;fill:#d0d0d0;stroke:none;stroke-width:0.76182389" />
    <path
       inkscape:label="#"
       inkscape:connector-curvature="0"
       id="rect817"
       d="M 12.167044,6.1955668 V 8.3764307 H 9.9835244 v 1.4746314 h 2.1835196 v 2.1833509 h 1.474745 V 9.8510621 h 2.181032 V 8.3764307 H 13.641789 V 6.1955668 Z"
       style="fill:#00ff00;stroke:none;stroke-width:1.80420363;stroke-linecap:round;stroke-dashoffset:0.15256613" />
    <path
       inkscape:label="#"
       d="m 16.659729,14.981631 q 0.211964,0.224924 0.320109,0.449849 0.07787,0.155717 0.255223,0.817515 l 0.380672,-0.570963 q 0.151403,-0.207623 0.367693,-0.393619 0.216291,-0.190321 0.380671,-0.259528 0.103827,-0.04325 0.229269,-0.04325 0.186011,0 0.294156,0.09948 0.11248,0.09949 0.11248,0.242227 0,0.164368 -0.06488,0.224924 -0.121133,0.108133 -0.276852,0.108133 -0.09085,0 -0.194662,-0.03893 -0.203314,-0.06921 -0.272527,-0.06921 -0.103827,0 -0.246571,0.121107 -0.2682,0.224925 -0.64022,0.869423 l 0.354718,1.487964 q 0.08219,0.341713 0.138425,0.410921 0.05623,0.06488 0.11248,0.06488 0.09085,0 0.211964,-0.09948 0.23792,-0.198972 0.406628,-0.519057 l 0.151403,0.07785 Q 18.407356,18.472291 17.987753,18.809679 17.749833,19 17.585452,19 17.343206,19 17.200454,18.727495 17.109613,18.558801 16.824109,17.274133 16.149281,18.446339 15.742656,18.783725 15.47878,19 15.232209,19 q -0.173032,0 -0.315784,-0.12544 -0.103827,-0.09516 -0.103827,-0.255204 0,-0.14274 0.09516,-0.237901 0.09517,-0.09516 0.233595,-0.09516 0.138427,0 0.294156,0.138414 0.11248,0.09948 0.173032,0.09948 0.05191,0 0.1341,-0.06921 0.203313,-0.164355 0.553705,-0.709365 0.350391,-0.545011 0.458536,-0.787238 -0.2682,-1.05109 -0.289828,-1.111648 -0.09951,-0.281156 -0.259549,-0.397944 -0.160056,-0.116786 -0.471515,-0.116786 -0.09949,0 -0.229268,0.0087 V 15.18498 Z"
       style="font-style:italic;font-variant:normal;font-weight:normal;font-stretch:normal;font-size:6.64393473px;line-height:1.25;font-family:'Times New Roman';-inkscape-font-specification:'Times New Roman, Italic';letter-spacing:0px;word-spacing:0px;fill:#ffb900;stroke:none;stroke-width:0.83052379"
       id="path841"
       inkscape:connector-curvature="0" />
  </g>
</svg>
