<?xml version="1.0" encoding="UTF-8" standalone="no"?>
<!-- Created with Inkscape (http://www.inkscape.org/) -->

<svg xmlns:dc="http://purl.org/dc/elements/1.1/" xmlns:cc="http://creativecommons.org/ns#" xmlns:rdf="http://www.w3.org/1999/02/22-rdf-syntax-ns#" xmlns:svg="http://www.w3.org/2000/svg" xmlns="http://www.w3.org/2000/svg" xmlns:sodipodi="http://sodipodi.sourceforge.net/DTD/sodipodi-0.dtd" xmlns:inkscape="http://www.inkscape.org/namespaces/inkscape" width="32.000004" height="32" viewBox="0 0 32.000004 32" version="1.1" id="main" inkscape:version="0.92+devel (f318dbfe43, 2017-10-09, custom)" sodipodi:docname="legalmoves.svg">
  <defs id="ol-defs" />
  <sodipodi:namedview id="base" pagecolor="#002466" bordercolor="#ffffff" borderopacity="0.30" inkscape:pageopacity="1" inkscape:pageshadow="2" inkscape:zoom="9.291825" inkscape:document-units="px" inkscape:current-layer="main" inkscape:document-rotation="0" showgrid="false" inkscape:showpageshadow="false" borderlayer="true" inkscape:window-width="1920" inkscape:window-height="1027" inkscape:window-x="0" inkscape:window-y="24" inkscape:window-maximized="1" units="px" inkscape:cx="6.7489003" inkscape:cy="8.0269057" />
  <metadata id="metadata5">
    <rdf:RDF>
      <cc:Work rdf:about="">
        <dc:format>image/svg+xml</dc:format>
        <dc:type rdf:resource="http://purl.org/dc/dcmitype/StillImage" />
        <dc:title></dc:title>
      </cc:Work>
    </rdf:RDF>
  </metadata>
  <g id="g849" inkscape:label="#legalmoves" style="stroke:none;stroke-width:0.5" transform="scale(2)">
    <path style="fill:none;stroke:none;stroke-width:0.5" d="M -5.5000004e-8,-4.9999999e-8 H 16.000001 V 16 H -5.5000004e-8 Z" id="boundary" inkscape:label="#boundary" inkscape:connector-curvature="0" />
    <path inkscape:label="#" id="rect842" d="M 3.1992188,2 C 2.5344187,2 2,2.5344187 2,3.1992188 V 12.800781 C 2,13.465581 2.5344187,14 3.1992188,14 H 12.800781 C 13.465581,14 14,13.465581 14,12.800781 V 3.1992188 C 14,2.5344187 13.465581,2 12.800781,2 Z m 7.9121092,2.7109375 1.167969,1.1601563 C 10.455123,7.6774237 8.6294173,9.4813221 6.8066406,11.289062 5.7144654,10.239054 4.7440238,9.0740133 3.7207031,7.9589844 L 4.8886719,6.7988281 6.828125,8.9472656 C 8.2559461,7.534728 9.6834015,6.123369 11.111328,4.7109375 Z" style="opacity:0.6;fill:#d0d0d0;stroke:none;stroke-width:0.75;stroke-linecap:round" inkscape:connector-curvature="0" />
  </g>
</svg>
