<?xml version="1.0" encoding="UTF-8" standalone="no"?>
<!-- Created with Inkscape (http://www.inkscape.org/) -->

<svg
   xmlns:dc="http://purl.org/dc/elements/1.1/"
   xmlns:cc="http://creativecommons.org/ns#"
   xmlns:rdf="http://www.w3.org/1999/02/22-rdf-syntax-ns#"
   xmlns:svg="http://www.w3.org/2000/svg"
   xmlns="http://www.w3.org/2000/svg"
   xmlns:sodipodi="http://sodipodi.sourceforge.net/DTD/sodipodi-0.dtd"
   xmlns:inkscape="http://www.inkscape.org/namespaces/inkscape"
   width="32.000004"
   height="32"
   viewBox="0 0 32.000004 32"
   version="1.1"
   id="main"
   inkscape:version="0.92+devel (9279f97481, 2017-09-04, custom)"
   sodipodi:docname="mail-invitation.svg">
  <defs
     id="ol-defs" />
  <sodipodi:namedview
     id="base"
     pagecolor="#002466"
     bordercolor="#ffffff"
     borderopacity="0.30"
     inkscape:pageopacity="1"
     inkscape:pageshadow="2"
     inkscape:zoom="18.58365"
     inkscape:document-units="px"
     inkscape:current-layer="main"
     inkscape:document-rotation="0"
     showgrid="false"
     inkscape:showpageshadow="false"
     borderlayer="true"
     inkscape:window-width="1920"
     inkscape:window-height="1025"
     inkscape:window-x="0"
     inkscape:window-y="26"
     inkscape:window-maximized="1"
     units="px"
     inkscape:cx="7.878926"
     inkscape:cy="8.0000003" />
  <metadata
     id="metadata5">
    <rdf:RDF>
      <cc:Work
         rdf:about="">
        <dc:format>image/svg+xml</dc:format>
        <dc:type
           rdf:resource="http://purl.org/dc/dcmitype/StillImage" />
        <dc:title />
      </cc:Work>
    </rdf:RDF>
  </metadata>
  <g
     id="g877"
     inkscape:label="#mail-invitation"
     transform="scale(2)"
     style="stroke-width:0.5">
    <path
       style="fill:none;stroke:none;stroke-width:0.5"
       d="M -5.5000004e-8,-4.9999999e-8 H 16.000001 V 16 H -5.5000004e-8 Z"
       id="boundary"
       inkscape:label="#boundary"
       inkscape:connector-curvature="0" />
    <path
       inkscape:label="#"
       sodipodi:nodetypes="cccccccc"
       inkscape:connector-curvature="0"
       id="path817"
       d="M 14,13.528739 H 2 V 6.500167 H 4.0840905 L 8.0054154,9.5416744 11.92674,6.500167 H 14 Z"
       style="opacity:0.6;fill:#d0d0d0;stroke:none;stroke-width:0.49999997px;stroke-linecap:butt;stroke-linejoin:miter;stroke-opacity:1" />
    <path
       style="fill:#ff00ff;stroke:none;stroke-width:1.31649995;stroke-linecap:square"
       d="m 4.1074219,2.4707031 c -0.2181489,0 -0.3925782,0.1763824 -0.3925781,0.3945313 V 3.2421875 5.6835938 H 4.53125 L 6.2988281,7.0683594 V 6.0136719 C 6.6382235,5.3313385 7.2453885,4.9062095 7.9101562,4.8730469 7.4793225,4.82754 7.1522751,4.4644804 7.1523438,4.03125 7.1524534,3.5636283 7.5323783,3.1854173 8,3.1855469 8.4674526,3.1856564 8.8475466,3.5637974 8.8476562,4.03125 8.8473522,4.4687227 8.5137759,4.8351161 8.078125,4.875 8.7533597,4.9113355 9.3672589,5.3516626 9.7011719,6.0527344 V 6.9863281 L 11.363281,5.6835938 h 0.921875 V 3.2421875 2.8652344 c 0,-0.2181489 -0.17443,-0.3945313 -0.392578,-0.3945313 z m 3.8125,5.8691407 0.027344,0.021484 0.027344,-0.021484 z"
       id="rect819"
       inkscape:connector-curvature="0"
       inkscape:label="#" />
  </g>
</svg>
