<?xml version="1.0" encoding="UTF-8" standalone="no"?>
<!-- Created with Inkscape (http://www.inkscape.org/) -->

<svg
   xmlns:dc="http://purl.org/dc/elements/1.1/"
   xmlns:cc="http://creativecommons.org/ns#"
   xmlns:rdf="http://www.w3.org/1999/02/22-rdf-syntax-ns#"
   xmlns:svg="http://www.w3.org/2000/svg"
   xmlns="http://www.w3.org/2000/svg"
   xmlns:sodipodi="http://sodipodi.sourceforge.net/DTD/sodipodi-0.dtd"
   xmlns:inkscape="http://www.inkscape.org/namespaces/inkscape"
   width="32.000004"
   height="32"
   viewBox="0 0 32.000004 32"
   version="1.1"
   id="main"
   inkscape:version="0.92+devel (342812bdbc, 2017-09-26, custom)"
   sodipodi:docname="mail-encrypted-full.svg">
  <defs
     id="ol-defs" />
  <sodipodi:namedview
     id="base"
     pagecolor="#002466"
     bordercolor="#ffffff"
     borderopacity="0.30"
     inkscape:pageopacity="1"
     inkscape:pageshadow="2"
     inkscape:zoom="18.58365"
     inkscape:document-units="px"
     inkscape:current-layer="main"
     inkscape:document-rotation="0"
     showgrid="false"
     inkscape:showpageshadow="false"
     borderlayer="true"
     inkscape:window-width="1920"
     inkscape:window-height="1017"
     inkscape:window-x="0"
     inkscape:window-y="34"
     inkscape:window-maximized="1"
     units="px"
     inkscape:cx="7.6771358"
     inkscape:cy="8.0000003" />
  <metadata
     id="metadata5">
    <rdf:RDF>
      <cc:Work
         rdf:about="">
        <dc:format>image/svg+xml</dc:format>
        <dc:type
           rdf:resource="http://purl.org/dc/dcmitype/StillImage" />
        <dc:title></dc:title>
      </cc:Work>
    </rdf:RDF>
  </metadata>
  <g
     id="g875"
     inkscape:label="#mail-encrypted-full"
     transform="scale(2)"
     style="stroke:none;stroke-width:0.72727275">
    <path
       style="fill:none;stroke:none;stroke-width:0.72727275"
       d="M -5.5000004e-8,-4.9999999e-8 H 16.000001 V 16 H -5.5000004e-8 Z"
       id="boundary"
       inkscape:label="#boundary"
       inkscape:connector-curvature="0" />
    <path
       style="opacity:0.421875;fill:#d0d0d0;stroke:none;stroke-width:1"
       d="M 2.7519531,3.6679688 V 14.310547 L 8.09375,8.9667969 2.796875,3.6679688 Z m 1.6933594,0 6.5527345,6.5546872 6.554687,-6.5546872 z m 14.7578125,0 L 13.904297,8.96875 19.25,14.314453 V 3.6679688 Z M 8.9199219,9.7890625 3.1738281,15.535156 2.75,15.958984 v 0.53711 h 16.498047 v -0.53711 L 18.824219,15.535156 13.080078,9.7890625 10.998047,11.869141 Z"
       transform="scale(0.72727273)"
       id="path840"
       inkscape:connector-curvature="0"
       inkscape:label="#" />
    <path
       style="fill:#00ff00;stroke:none;stroke-width:1"
       d="m 16.753906,12.144531 c -0.922006,0 -1.664062,0.742055 -1.664062,1.664063 v 0.722656 h -0.832032 v 3.800781 H 19.25 V 14.53125 h -0.832031 v -0.722656 c 0,-0.922008 -0.742057,-1.664063 -1.664063,-1.664063 z m 0,0.832031 c 0.461002,0 0.832032,0.371029 0.832032,0.832032 v 0.722656 h -1.664063 v -0.722656 c 0,-0.461003 0.371028,-0.832032 0.832031,-0.832032 z"
       transform="scale(0.72727273)"
       id="path817"
       inkscape:connector-curvature="0"
       inkscape:label="#" />
  </g>
</svg>
