<?xml version="1.0" encoding="UTF-8" standalone="no"?>
<!-- Created with Inkscape (http://www.inkscape.org/) -->

<svg xmlns:dc="http://purl.org/dc/elements/1.1/" xmlns:cc="http://creativecommons.org/ns#" xmlns:rdf="http://www.w3.org/1999/02/22-rdf-syntax-ns#" xmlns:svg="http://www.w3.org/2000/svg" xmlns="http://www.w3.org/2000/svg" xmlns:sodipodi="http://sodipodi.sourceforge.net/DTD/sodipodi-0.dtd" xmlns:inkscape="http://www.inkscape.org/namespaces/inkscape" width="32.000004" height="32" viewBox="0 0 32.000004 32" version="1.1" id="main" inkscape:version="0.92+devel (8ef6761023, 2017-10-07, custom)" sodipodi:docname="newdifferential.svg">
  <defs id="ol-defs" />
  <sodipodi:namedview id="base" pagecolor="#002466" bordercolor="#ffffff" borderopacity="0.30" inkscape:pageopacity="1" inkscape:pageshadow="2" inkscape:zoom="18.58365" inkscape:document-units="px" inkscape:current-layer="main" inkscape:document-rotation="0" showgrid="false" inkscape:showpageshadow="false" borderlayer="true" inkscape:window-width="1920" inkscape:window-height="1029" inkscape:window-x="0" inkscape:window-y="22" inkscape:window-maximized="1" units="px" inkscape:cx="6.7489003" inkscape:cy="8.0269057" />
  <metadata id="metadata5">
    <rdf:RDF>
      <cc:Work rdf:about="">
        <dc:format>image/svg+xml</dc:format>
        <dc:type rdf:resource="http://purl.org/dc/dcmitype/StillImage" />
        <dc:title></dc:title>
      </cc:Work>
    </rdf:RDF>
  </metadata>
  <g id="g865" inkscape:label="#newdifferential" style="stroke:none;stroke-width:0.5" transform="scale(2)">
    <path style="fill:none;stroke:none;stroke-width:0.5" d="M -5.5000004e-8,-4.9999999e-8 H 16.000001 V 16 H -5.5000004e-8 Z" id="boundary" inkscape:label="#boundary" inkscape:connector-curvature="0" />
    <path inkscape:label="#" inkscape:connector-curvature="0" style="opacity:0.4;fill:#d0d0d0;stroke:none;stroke-width:0.44999993" d="M 8.0010435,2.1050488 6.6826841,4.3882519 H 7.5010435 V 8.0464545 H 2.4111997 v 1 h 5.0898438 v 5.0585935 h 1 V 9.0464545 h 3.6269525 v 0.81836 l 2.283203,-1.31836 -2.283203,-1.3183588 V 8.0464545 H 8.5010435 V 4.3882519 h 0.8183588 z" id="rect811" />
    <path inkscape:label="#" inkscape:connector-curvature="0" style="color:#000000;font-style:normal;font-variant:normal;font-weight:normal;font-stretch:normal;font-size:medium;line-height:normal;font-family:sans-serif;font-variant-ligatures:normal;font-variant-position:normal;font-variant-caps:normal;font-variant-numeric:normal;font-variant-alternates:normal;font-variant-east-asian:normal;font-feature-settings:normal;font-variation-settings:normal;text-indent:0;text-align:start;text-decoration:none;text-decoration-line:none;text-decoration-style:solid;text-decoration-color:#000000;letter-spacing:normal;word-spacing:normal;text-transform:none;writing-mode:lr-tb;direction:ltr;text-orientation:mixed;dominant-baseline:auto;baseline-shift:baseline;text-anchor:start;white-space:normal;shape-padding:0;clip-rule:nonzero;display:inline;overflow:visible;visibility:visible;opacity:1;isolation:auto;mix-blend-mode:normal;color-interpolation:sRGB;color-interpolation-filters:linearRGB;solid-color:#000000;solid-opacity:1;vector-effect:none;fill:#00ff00;fill-opacity:1;fill-rule:nonzero;stroke:none;stroke-width:0.49999994px;stroke-linecap:round;stroke-linejoin:miter;stroke-miterlimit:4;stroke-dasharray:none;stroke-dashoffset:0;stroke-opacity:1;color-rendering:auto;image-rendering:auto;shape-rendering:auto;text-rendering:auto;enable-background:accumulate" d="M 9.7610376,4.6947274 C 9.1304963,4.7436821 8.7058433,5.2319255 8.4628638,5.7641113 8.2198843,6.296297 8.0874035,6.9284393 7.9663037,7.5469828 7.8452036,8.1655265 7.7365456,8.7724151 7.595155,9.1993591 7.5244628,9.4128303 7.444118,9.5790462 7.3748374,9.6721922 7.3055595,9.7653383 7.2708364,9.7790145 7.234174,9.7857414 7.090234,9.8121495 7.0193161,9.7743314 6.8477726,9.5484765 6.6762282,9.3226219 6.4975946,8.935005 6.3325702,8.5129876 6.1675449,8.0909702 6.0110379,7.6358482 5.8275355,7.2419287 5.6440341,6.8480095 5.4602906,6.4643714 5.0123635,6.3030402 4.6387677,6.1684809 4.2453622,6.2991181 3.9887377,6.4996306 3.7321132,6.7001425 3.5488235,6.9615399 3.397272,7.2198971 3.0941691,7.7366113 2.9261328,8.2723337 2.9261328,8.2723337 A 0.43385467,0.43385467 0 0 0 3.205766,8.8197364 0.43385467,0.43385467 0 0 0 3.7514735,8.5384088 c 0,0 0.1543533,-0.4695428 0.3948756,-0.8795728 0.1202607,-0.205015 0.2640905,-0.3869067 0.3762332,-0.4745286 0.1121428,-0.087622 0.1287386,-0.088228 0.1948953,-0.0644 -0.00815,-0.00295 0.1700589,0.1582754 0.3236964,0.4880865 0.1536383,0.3298112 0.3094677,0.7764363 0.4830026,1.2202165 0.173535,0.4437792 0.3613645,0.8869042 0.6338348,1.2456376 0.2724693,0.358734 0.7242128,0.659534 1.2337742,0.566044 C 7.6818738,10.586671 7.9145232,10.399979 8.0713781,10.18909 8.2282331,9.9782014 8.3313801,9.7361862 8.4188007,9.4722121 8.5936398,8.9442657 8.6984335,8.3207027 8.8170659,7.7147624 8.9356983,7.1088222 9.0698947,6.5215831 9.2509206,6.1250917 9.4319465,5.7286004 9.588623,5.5792592 9.8271334,5.5607417 c 0.077013,-0.00598 0.1223423,0.00615 0.2270966,0.1152426 0.104753,0.1090927 0.23106,0.3170039 0.340643,0.5948555 0.219165,0.5557032 0.382264,1.3727248 0.488086,2.1963896 0.211645,1.6473296 0.211842,3.3284786 0.211842,3.3284786 a 0.43385467,0.43385467 0 0 0 0.433856,0.433855 0.43385467,0.43385467 0 0 0 0.433854,-0.433855 c 0,0 0.0024,-1.719459 -0.218622,-3.4403324 C 11.633342,7.4949396 11.470577,6.6359932 11.201571,5.9539225 11.067069,5.6128872 10.909019,5.3115154 10.681284,5.07435 10.45355,4.8371846 10.118554,4.6669705 9.7610376,4.6947274 Z" id="path849" />
  </g>
</svg>
