<?xml version="1.0" encoding="UTF-8" standalone="no"?>
<!-- Created with Inkscape (http://www.inkscape.org/) -->

<svg xmlns:dc="http://purl.org/dc/elements/1.1/" xmlns:cc="http://creativecommons.org/ns#" xmlns:rdf="http://www.w3.org/1999/02/22-rdf-syntax-ns#" xmlns:svg="http://www.w3.org/2000/svg" xmlns="http://www.w3.org/2000/svg" xmlns:sodipodi="http://sodipodi.sourceforge.net/DTD/sodipodi-0.dtd" xmlns:inkscape="http://www.inkscape.org/namespaces/inkscape" width="32.000004" height="32" viewBox="0 0 32.000004 32" version="1.1" id="main" inkscape:version="0.92+devel (f318dbfe43, 2017-10-09, custom)" sodipodi:docname="phrase.svg">
  <defs id="ol-defs" />
  <sodipodi:namedview id="base" pagecolor="#002466" bordercolor="#ffffff" borderopacity="0.30" inkscape:pageopacity="1" inkscape:pageshadow="2" inkscape:zoom="13.140625" inkscape:document-units="px" inkscape:current-layer="main" inkscape:document-rotation="0" showgrid="false" inkscape:showpageshadow="false" borderlayer="true" inkscape:window-width="1920" inkscape:window-height="1027" inkscape:window-x="0" inkscape:window-y="24" inkscape:window-maximized="1" units="px" inkscape:cx="6.7489003" inkscape:cy="8.0269057">
    <inkscape:grid type="xygrid" id="grid846" originx="2.2000002e-07" originy="3e-07" />
  </sodipodi:namedview>
  <metadata id="metadata5">
    <rdf:RDF>
      <cc:Work rdf:about="">
        <dc:format>image/svg+xml</dc:format>
        <dc:type rdf:resource="http://purl.org/dc/dcmitype/StillImage" />
        <dc:title></dc:title>
      </cc:Work>
    </rdf:RDF>
  </metadata>
  <g id="g844" inkscape:label="#phrase" style="stroke:none;stroke-width:0.5" transform="scale(2)">
    <path style="fill:none;stroke:none;stroke-width:0.5" d="M -5.5000004e-8,-4.9999999e-8 H 16.000001 V 16 H -5.5000004e-8 Z" id="boundary" inkscape:label="#boundary" inkscape:connector-curvature="0" />
    <path inkscape:connector-curvature="0" d="m 2.8241759,2.9370501 c -0.4570793,0 -0.8241758,0.3670967 -0.8241758,0.8241758 v 5.742858 c 0,0.301136 0.1677087,0.5518281 0.4071428,0.6956031 l -0.023077,0.0017 4.1307695,2.861563 V 10.328298 H 13.175824 C 13.632904,10.328298 14,9.9612009 14,9.5041219 V 3.7612259 C 14,3.3041468 13.632904,2.93705 13.175824,2.9370501 Z M 4.4032968,5.5645227 A 1.068764,1.068764 0 0 1 5.4714288,6.6326544 1.068764,1.068764 0 0 1 4.4032968,7.7007863 1.068764,1.068764 0 0 1 3.3351649,6.6326544 1.068764,1.068764 0 0 1 4.4032968,5.5645227 Z m 3.5967035,0 A 1.068764,1.068764 0 0 1 9.0681322,6.6326544 1.068764,1.068764 0 0 1 8.0000003,7.7007863 1.068764,1.068764 0 0 1 6.93022,6.6326544 1.068764,1.068764 0 0 1 8.0000003,5.5645227 Z m 3.5967037,0 a 1.068764,1.068764 0 0 1 1.068132,1.0681317 1.068764,1.068764 0 0 1 -1.068132,1.0681319 1.068764,1.068764 0 0 1 -1.069781,-1.0681319 1.068764,1.068764 0 0 1 1.069781,-1.0681317 z" fill="#d0d0d0" stroke-width=".343958" id="path835" inkscape:label="#" style="opacity:0.6;stroke:none" />
  </g>
</svg>
