<?xml version="1.0" encoding="UTF-8" standalone="no"?>
<!-- Created with Inkscape (http://www.inkscape.org/) -->

<svg xmlns:dc="http://purl.org/dc/elements/1.1/" xmlns:cc="http://creativecommons.org/ns#" xmlns:rdf="http://www.w3.org/1999/02/22-rdf-syntax-ns#" xmlns:svg="http://www.w3.org/2000/svg" xmlns="http://www.w3.org/2000/svg" xmlns:sodipodi="http://sodipodi.sourceforge.net/DTD/sodipodi-0.dtd" xmlns:inkscape="http://www.inkscape.org/namespaces/inkscape" width="32.000004" height="32" viewBox="0 0 32.000004 32" version="1.1" id="main" inkscape:version="0.92+devel (8a5208f4a8, 2017-10-10, custom)" sodipodi:docname="16x16-icon.svg">
  <sodipodi:namedview id="base" pagecolor="#002466" bordercolor="#ffffff" borderopacity="0.30" inkscape:pageopacity="1" inkscape:pageshadow="2" inkscape:zoom="9.291825" inkscape:document-units="px" inkscape:current-layer="main" inkscape:document-rotation="0" showgrid="false" inkscape:showpageshadow="false" borderlayer="true" inkscape:window-width="1920" inkscape:window-height="1027" inkscape:window-x="0" inkscape:window-y="24" inkscape:window-maximized="1" units="px" inkscape:cx="6.7489002" inkscape:cy="8.0269054" />
  <metadata id="metadata5">
    <rdf:RDF>
      <cc:Work rdf:about="">
        <dc:format>image/svg+xml</dc:format>
        <dc:type rdf:resource="http://purl.org/dc/dcmitype/StillImage" />
        <dc:title></dc:title>
      </cc:Work>
    </rdf:RDF>
  </metadata>
  <defs id="ol-defs" />
  <g id="g867" inkscape:label="#views_filelight" style="stroke:none;stroke-width:0.5" transform="scale(2)">
    <path style="fill:none;stroke:none;stroke-width:0.5" d="M -5.5000004e-8,-4.9999999e-8 H 16.000001 V 16 H -5.5000004e-8 Z" id="boundary" inkscape:label="#boundary" inkscape:connector-curvature="0" />
    <path inkscape:connector-curvature="0" id="path834" d="M 8.0001605,2 V 6.0518813 A 1.9482896,1.9482896 0 0 1 9.9484619,8.0001829 H 14.000344 A 6.0001827,6.0001827 0 0 0 8.0001605,2 Z" style="opacity:0.27083333;fill:#d0d0d0;stroke:none;stroke-width:0.60000002" inkscape:label="#" />
    <path inkscape:connector-curvature="0" id="path828" d="M 9.9484619,8.0001829 A 1.9482896,1.9482896 0 0 1 8.9728464,9.6848047 l 2.0274056,3.5113373 a 6.0001827,6.0001827 0 0 0 3.000092,-5.1959591 z" style="opacity:0.75;fill:#d0d0d0;stroke:none;stroke-width:0.60000002" inkscape:label="#" />
    <path inkscape:connector-curvature="0" id="path830" d="m 6.0811567,8.3385717 -3.990356,0.703147 a 6.0001827,6.0001827 0 0 0 3.373638,4.3961303 6.0001827,6.0001827 0 0 0 5.5358133,-0.241707 L 8.9728464,9.6848047 a 1.9482896,1.9482896 0 0 1 -0.9726859,0.26368 1.9482896,1.9482896 0 0 1 -1.9190038,-1.609913 z" style="opacity:0.44791667;fill:#d0d0d0;stroke:none;stroke-width:0.60000002" inkscape:label="#" />
    <path inkscape:connector-curvature="0" id="path832" d="M 8.0001605,2 A 6.0001827,6.0001827 0 0 0 3.4033408,4.1431317 6.0001827,6.0001827 0 0 0 2.0908007,9.0417187 l 3.990356,-0.703147 A 1.9482896,1.9482896 0 0 1 6.051859,8.0001829 1.9482896,1.9482896 0 0 1 8.0001605,6.0518813 Z" style="opacity:0.68055558;fill:#d0d0d0;stroke:none;stroke-width:0.60000002" inkscape:label="#" />
  </g>
</svg>
