<?xml version="1.0" encoding="UTF-8" standalone="no"?>
<!-- Created with Inkscape (http://www.inkscape.org/) -->

<svg
   xmlns:dc="http://purl.org/dc/elements/1.1/"
   xmlns:cc="http://creativecommons.org/ns#"
   xmlns:rdf="http://www.w3.org/1999/02/22-rdf-syntax-ns#"
   xmlns:svg="http://www.w3.org/2000/svg"
   xmlns="http://www.w3.org/2000/svg"
   xmlns:sodipodi="http://sodipodi.sourceforge.net/DTD/sodipodi-0.dtd"
   xmlns:inkscape="http://www.inkscape.org/namespaces/inkscape"
   width="32"
   height="32"
   viewBox="0 0 32 32"
   version="1.1"
   id="svg8"
   inkscape:version="0.92+devel 15703 custom"
   sodipodi:docname="help-about.svg">
  <defs
     id="ol-defs">
    <style
       id="current-color-scheme">      .ColorScheme-Text {
        color:#d0d0d0;
        stop-color:#d0d0d0;
      }
      .ColorScheme-Background {
        color:#212121;
        stop-color:#212121;
      }
      .ColorScheme-Highlight {
        color:#0039a9;
        stop-color:#0039a9;
      }
      .ColorScheme-ViewText {
        color:#d0d0d0;
        stop-color:#d0d0d0;
      }
      .ColorScheme-ViewBackground {
        color:#19191b;
        stop-color:#19191b;
      }
      .ColorScheme-ViewHover {
        color:#005cc7;
        stop-color:#005cc7;
      }
      .ColorScheme-ViewFocus{
        color:#002466;
        stop-color:#002466;
      }
      .ColorScheme-ButtonText {
        color:#d0d0d0;
        stop-color:#d0d0d0;
      }
      .ColorScheme-ButtonBackground {
        color:#232323;
        stop-color:#232323;                             
      }                                                 
      .ColorScheme-ButtonHover {                        
        color:#005cc7;                                  
        stop-color:#005cc7;                             
      }                                                 
      .ColorScheme-ButtonFocus{                         
        color:#0039a9;                                  
        stop-color:#0039a9;                             
      }</style>
  </defs>
  <sodipodi:namedview
     id="base"
     pagecolor="#002266"
     bordercolor="#ffffff"
     borderopacity="0.46666667"
     inkscape:pageopacity="0"
     inkscape:pageshadow="2"
     inkscape:zoom="12.859375"
     inkscape:cx="31.399413"
     inkscape:cy="11.170575"
     inkscape:document-units="px"
     inkscape:current-layer="g4318"
     inkscape:document-rotation="0"
     showgrid="false"
     inkscape:showpageshadow="false"
     borderlayer="true"
     units="px"
     fit-margin-top="0"
     fit-margin-left="0"
     fit-margin-right="0"
     fit-margin-bottom="0"
     inkscape:window-width="1920"
     inkscape:window-height="1054"
     inkscape:window-x="0"
     inkscape:window-y="0"
     inkscape:window-maximized="1"
     inkscape:snap-page="true" />
  <metadata
     id="metadata5">
    <rdf:RDF>
      <cc:Work
         rdf:about="">
        <dc:format>image/svg+xml</dc:format>
        <dc:type
           rdf:resource="http://purl.org/dc/dcmitype/StillImage" />
        <dc:title></dc:title>
      </cc:Work>
    </rdf:RDF>
  </metadata>
  <g
     id="g4318"
     inkscape:label="#help-about">
    <rect
       inkscape:label="#boundary"
       y="0"
       x="0"
       height="32"
       width="32"
       id="rect4264"
       style="fill:none;fill-opacity:0.74651441;stroke-width:23.61599922;stroke-opacity:0.3596773" />
    <path
       inkscape:connector-curvature="0"
       style="opacity:0.6;fill:#ffffff;stroke-width:1.9836092"
       d="M 16.000001,3.2 A 12.8,12.8 0 0 0 3.2000004,16 12.8,12.8 0 0 0 16.000001,28.8 12.8,12.8 0 0 0 28.8,16 12.8,12.8 0 0 0 16.000001,3.2 Z m 0.06591,4.1386368 c 1.021606,-2.56e-5 1.854535,0.8352127 1.854546,1.856818 -1.1e-5,1.0216052 -0.832941,1.8568432 -1.854546,1.8568182 -1.02158,-1.2e-5 -1.856807,-0.835239 -1.856818,-1.8568182 1.1e-5,-1.0215785 0.835238,-1.8568064 1.856818,-1.856818 z m -3.593186,4.9090912 h 5.213637 V 22 h 1.840908 c 0.656544,-0.124991 1.336365,0.448847 1.336365,1.336364 0,0.459951 -0.176674,0.8241 -0.445456,1.038636 -0.268779,0.214531 -0.595276,0.286363 -0.888636,0.286363 h -7.03409 c -0.299446,0 -0.630618,-0.07588 -0.902273,-0.293182 -0.271655,-0.217294 -0.456818,-0.583958 -0.456818,-1.045454 0,-0.459523 0.181494,-0.822142 0.45,-1.036364 C 11.854867,22.072144 12.179448,22.00198 12.472726,22 h 1.861364 v -7.075 h -1.861364 c -0.310848,0 -0.639663,-0.07647 -0.904545,-0.297727 -0.264885,-0.221255 -0.431819,-0.58568 -0.431819,-1.04091 0,-0.456169 0.168692,-0.820261 0.434091,-1.040909 0.2654,-0.220648 0.594374,-0.297726 0.902272,-0.297726 z"
       id="path4936"
       inkscape:label="#1" />
  </g>
</svg>
