<?xml version="1.0" encoding="UTF-8" standalone="no"?>
<!-- Created with Inkscape (http://www.inkscape.org/) -->

<svg
   xmlns:dc="http://purl.org/dc/elements/1.1/"
   xmlns:cc="http://creativecommons.org/ns#"
   xmlns:rdf="http://www.w3.org/1999/02/22-rdf-syntax-ns#"
   xmlns:svg="http://www.w3.org/2000/svg"
   xmlns="http://www.w3.org/2000/svg"
   xmlns:sodipodi="http://sodipodi.sourceforge.net/DTD/sodipodi-0.dtd"
   xmlns:inkscape="http://www.inkscape.org/namespaces/inkscape"
   width="32"
   height="32"
   viewBox="0 0 32 32"
   version="1.1"
   id="svg8"
   inkscape:version="0.92+devel (c0065a33f9, 2017-07-22, custom)"
   sodipodi:docname="podcast-amarok.svg">
  <defs
     id="ol-defs">
    <style
       id="current-color-scheme">      .ColorScheme-Text {
        color:#d0d0d0;
        stop-color:#d0d0d0;
      }
      .ColorScheme-Background {
        color:#212121;
        stop-color:#212121;
      }
      .ColorScheme-Highlight {
        color:#0039a9;
        stop-color:#0039a9;
      }
      .ColorScheme-ViewText {
        color:#d0d0d0;
        stop-color:#d0d0d0;
      }
      .ColorScheme-ViewBackground {
        color:#19191b;
        stop-color:#19191b;
      }
      .ColorScheme-ViewHover {
        color:#005cc7;
        stop-color:#005cc7;
      }
      .ColorScheme-ViewFocus{
        color:#002466;
        stop-color:#002466;
      }
      .ColorScheme-ButtonText {
        color:#d0d0d0;
        stop-color:#d0d0d0;
      }
      .ColorScheme-ButtonBackground {
        color:#232323;
        stop-color:#232323;                             
      }                                                 
      .ColorScheme-ButtonHover {                        
        color:#005cc7;                                  
        stop-color:#005cc7;                             
      }                                                 
      .ColorScheme-ButtonFocus{                         
        color:#0039a9;                                  
        stop-color:#0039a9;                             
      }</style>
  </defs>
  <sodipodi:namedview
     id="base"
     pagecolor="#002266"
     bordercolor="#ffffff"
     borderopacity="0.46666667"
     inkscape:pageopacity="0"
     inkscape:pageshadow="2"
     inkscape:zoom="12.859375"
     inkscape:cx="31.399413"
     inkscape:cy="11.170575"
     inkscape:document-units="px"
     inkscape:current-layer="g868"
     inkscape:document-rotation="0"
     showgrid="false"
     inkscape:showpageshadow="false"
     borderlayer="true"
     units="px"
     fit-margin-top="0"
     fit-margin-left="0"
     fit-margin-right="0"
     fit-margin-bottom="0"
     inkscape:window-width="1920"
     inkscape:window-height="1051"
     inkscape:window-x="0"
     inkscape:window-y="0"
     inkscape:window-maximized="1"
     inkscape:snap-page="true" />
  <metadata
     id="metadata5">
    <rdf:RDF>
      <cc:Work
         rdf:about="">
        <dc:format>image/svg+xml</dc:format>
        <dc:type
           rdf:resource="http://purl.org/dc/dcmitype/StillImage" />
        <dc:title />
      </cc:Work>
    </rdf:RDF>
  </metadata>
  <g
     id="g868"
     inkscape:label="#podcast-amarok">
    <rect
       inkscape:label="#boundary"
       y="0"
       x="0"
       height="32"
       width="32"
       id="rect4264"
       style="fill:none;fill-opacity:0.74651441;stroke-width:23.61599922;stroke-opacity:0.3596773" />
    <path
       style="opacity:0.6;fill:#d0d0d0;stroke:none;stroke-width:3.53744173"
       d="m 15.999186,4 c -4.891024,1e-6 -8.8709103,3.979885 -8.8709103,8.87091 0,3.230487 1.7413516,6.055127 4.3295783,7.606896 0.03374,-0.587475 0.178458,-1.14563 0.415365,-1.654948 -1.8821567,-1.305239 -3.1127997,-3.479147 -3.1127997,-5.951948 0,-4.009413 3.2293537,-7.238766 7.2387667,-7.238766 4.009413,0 7.240397,3.229353 7.240397,7.238766 0,2.451801 -1.211598,4.608952 -3.067191,5.917742 0.241375,0.507645 0.389808,1.064788 0.428394,1.65169 2.555086,-1.559498 4.270938,-4.364288 4.270938,-7.569432 C 24.871724,7.979885 20.890208,4 15.999186,4 Z m 0,2.826116 c -3.329239,0 -6.0447937,2.715556 -6.0447937,6.044794 0,2.033358 1.0167927,3.83351 2.5638657,4.930636 0.366586,-0.437125 0.81355,-0.804576 1.316139,-1.081579 -1.344207,-0.754492 -2.249492,-2.190186 -2.249492,-3.849057 0,-2.447628 1.966653,-4.41428 4.414281,-4.41428 2.447628,0 4.41428,1.966652 4.41428,4.41428 0,1.646532 -0.892496,3.072192 -2.220171,3.83114 0.506064,0.2733 0.953614,0.638515 1.324284,1.073436 1.527201,-1.099498 2.528029,-2.887063 2.528029,-4.904576 0,-3.329238 -2.717182,-6.044794 -6.046422,-6.044794 z m 0,2.884756 a 3.1615596,3.1615596 0 0 0 -3.161667,3.161667 3.1615596,3.1615596 0 0 0 3.161667,3.161667 3.1615596,3.1615596 0 0 0 3.161666,-3.161667 3.1615596,3.1615596 0 0 0 -3.161666,-3.161667 z m 0.03096,7.693227 c -1.842399,0 -3.335958,1.493559 -3.335958,3.335958 0,2.861115 1.493559,7.259943 3.335958,7.259943 1.842398,0 3.335957,-4.34345 3.335957,-7.259943 0,-1.842399 -1.493559,-3.335958 -3.335957,-3.335958 z"
       id="path814"
       inkscape:connector-curvature="0"
       inkscape:label="#1" />
  </g>
</svg>
