<?xml version="1.0" encoding="UTF-8" standalone="no"?>
<!-- Created with Inkscape (http://www.inkscape.org/) -->

<svg
   xmlns:dc="http://purl.org/dc/elements/1.1/"
   xmlns:cc="http://creativecommons.org/ns#"
   xmlns:rdf="http://www.w3.org/1999/02/22-rdf-syntax-ns#"
   xmlns:svg="http://www.w3.org/2000/svg"
   xmlns="http://www.w3.org/2000/svg"
   xmlns:sodipodi="http://sodipodi.sourceforge.net/DTD/sodipodi-0.dtd"
   xmlns:inkscape="http://www.inkscape.org/namespaces/inkscape"
   width="32"
   height="32"
   viewBox="0 0 32 32"
   version="1.1"
   id="svg8"
   inkscape:version="0.92+devel 15703 custom"
   sodipodi:docname="preferences-web-browser-cache.svg">
  <defs
     id="ol-defs">
    <style
       id="current-color-scheme">      .ColorScheme-Text {
        color:#d0d0d0;
        stop-color:#d0d0d0;
      }
      .ColorScheme-Background {
        color:#212121;
        stop-color:#212121;
      }
      .ColorScheme-Highlight {
        color:#0039a9;
        stop-color:#0039a9;
      }
      .ColorScheme-ViewText {
        color:#d0d0d0;
        stop-color:#d0d0d0;
      }
      .ColorScheme-ViewBackground {
        color:#19191b;
        stop-color:#19191b;
      }
      .ColorScheme-ViewHover {
        color:#005cc7;
        stop-color:#005cc7;
      }
      .ColorScheme-ViewFocus{
        color:#002466;
        stop-color:#002466;
      }
      .ColorScheme-ButtonText {
        color:#d0d0d0;
        stop-color:#d0d0d0;
      }
      .ColorScheme-ButtonBackground {
        color:#232323;
        stop-color:#232323;                             
      }                                                 
      .ColorScheme-ButtonHover {                        
        color:#005cc7;                                  
        stop-color:#005cc7;                             
      }                                                 
      .ColorScheme-ButtonFocus{                         
        color:#0039a9;                                  
        stop-color:#0039a9;                             
      }</style>
    <style
       id="current-color-scheme-7">      .ColorScheme-Text {
        color:#d0d0d0;
        stop-color:#d0d0d0;
      }
      .ColorScheme-Background {
        color:#212121;
        stop-color:#212121;
      }
      .ColorScheme-Highlight {
        color:#0039a9;
        stop-color:#0039a9;
      }
      .ColorScheme-ViewText {
        color:#d0d0d0;
        stop-color:#d0d0d0;
      }
      .ColorScheme-ViewBackground {
        color:#19191b;
        stop-color:#19191b;
      }
      .ColorScheme-ViewHover {
        color:#005cc7;
        stop-color:#005cc7;
      }
      .ColorScheme-ViewFocus{
        color:#002466;
        stop-color:#002466;
      }
      .ColorScheme-ButtonText {
        color:#d0d0d0;
        stop-color:#d0d0d0;
      }
      .ColorScheme-ButtonBackground {
        color:#232323;
        stop-color:#232323;                             
      }                                                 
      .ColorScheme-ButtonHover {                        
        color:#005cc7;                                  
        stop-color:#005cc7;                             
      }                                                 
      .ColorScheme-ButtonFocus{                         
        color:#0039a9;                                  
        stop-color:#0039a9;                             
      }</style>
  </defs>
  <sodipodi:namedview
     id="base"
     pagecolor="#002266"
     bordercolor="#ffffff"
     borderopacity="0.46666667"
     inkscape:pageopacity="0"
     inkscape:pageshadow="2"
     inkscape:zoom="12.859375"
     inkscape:cx="31.399413"
     inkscape:cy="11.170575"
     inkscape:document-units="px"
     inkscape:current-layer="g4324"
     inkscape:document-rotation="0"
     showgrid="false"
     inkscape:showpageshadow="false"
     borderlayer="true"
     units="px"
     fit-margin-top="0"
     fit-margin-left="0"
     fit-margin-right="0"
     fit-margin-bottom="0"
     inkscape:window-width="1920"
     inkscape:window-height="1054"
     inkscape:window-x="0"
     inkscape:window-y="0"
     inkscape:window-maximized="1"
     inkscape:snap-page="true" />
  <metadata
     id="metadata5">
    <rdf:RDF>
      <cc:Work
         rdf:about="">
        <dc:format>image/svg+xml</dc:format>
        <dc:type
           rdf:resource="http://purl.org/dc/dcmitype/StillImage" />
        <dc:title></dc:title>
      </cc:Work>
    </rdf:RDF>
  </metadata>
  <g
     id="g4324"
     inkscape:label="#preferences-web-browser-cache">
    <rect
       style="fill:none;fill-opacity:0.74651441;stroke-width:23.61599922;stroke-opacity:0.3596773"
       id="rect4264"
       width="32"
       height="32"
       x="0"
       y="0"
       inkscape:label="#boundary" />
    <path
       inkscape:label="#2"
       style="display:inline;opacity:0.12000002;fill:#d0d0d0;stroke-width:1.5;stroke-linecap:square"
       d="M 28.79999,16 A 12.79999,12.79999 0 0 1 16,28.79999 12.79999,12.79999 0 0 1 3.20001,16 12.79999,12.79999 0 0 1 16,3.2000103 12.79999,12.79999 0 0 1 28.79999,16 Z"
       id="path4845"
       inkscape:connector-curvature="0" />
    <path
       inkscape:label="#1"
       style="opacity:0.35757578;fill:#d0d0d0;stroke-width:0.99999994"
       id="path34"
       d="M 15.799936,3.2000285 C 14.819052,3.2133016 13.868998,3.3406842 12.954313,3.5608671 12.713518,3.7768322 12.358156,3.8863185 11.959325,3.8752602 11.816562,4.01182 11.849529,4.2665733 11.771755,4.4540304 11.706269,4.6115172 11.475533,4.7800487 11.31802,4.7666432 11.2015,4.7567565 11.068324,4.5929405 11.067942,4.4844051 11.067521,4.353359 11.250067,4.2803211 11.150074,4.1342766 10.130785,4.5474301 9.1827352,5.0921772 8.3151608,5.740192 c 0.2326846,-0.0857 0.489285,-0.2297195 0.7002475,-0.2340093 0.034656,-4.117e-4 0.066489,0.00274 0.098247,0.010718 0.1416901,0.037132 0.5151048,0.4461068 0.2036359,0.57877 C 9.2877364,6.10846 8.8605558,6.1549371 8.7867566,6.1421332 8.6782758,6.1239167 8.6137484,5.9740098 8.5045111,5.9545654 8.3210313,5.9227284 8.0877529,6.1133866 7.929317,6.0278245 6.1844258,7.436276 4.8303099,9.2974754 4.0190202,11.433267 c 0.074449,-0.04306 0.1506092,-0.08817 0.2179425,-0.12325 0.2285768,-0.118825 0.4216135,-0.310903 0.6877365,-0.328688 0.1327446,-0.0027 0.3244662,0.03576 0.451942,0.06256 0.1176639,0.02415 0.2125902,0.103085 0.3143949,0.110746 0.2889393,0.02203 0.3573193,-0.202782 0.5930653,-0.328679 0.2435389,0.03439 0.4052706,-0.04077 0.6252133,-0.0161 0.1499584,0.01654 0.2582941,0.176804 0.3751356,0.185776 0.098295,0.0099 0.1853446,-0.09137 0.2804556,-0.07683 0.092393,0.01429 0.2511429,0.21577 0.2661577,0.328688 0.018955,0.140556 -0.1028823,0.2672 -0.062562,0.421579 0.147236,0.149958 0.4148186,0.179763 0.625223,0.266157 0.1369975,-0.112896 0.018208,-0.32246 0,-0.485883 -0.00274,-0.07198 0.0099,-0.135555 0,-0.201854 C 8.3809269,11.134953 8.3318981,11.031205 8.3311681,10.93488 8.3284246,10.489999 8.6901234,10.281689 8.9885395,10.106021 9.1177085,10.029469 9.2194429,9.8959023 9.3315169,9.839863 9.4898007,9.7604749 9.6077372,9.7420209 9.7387974,9.6683765 9.9756161,9.5353461 10.17885,9.4279163 10.36402,9.2771619 c 0.08561,-0.2017183 0.0095,-0.4723008 0.0161,-0.671657 0.08569,-0.052499 0.159243,0.023617 0.250092,0.016097 0.142917,-0.029818 0.154805,-0.2320689 0.235794,-0.3126005 0.0471,-0.046188 0.175519,-0.079204 0.234008,-0.1250437 0.142438,-0.1117354 0.188234,-0.2805392 0.312614,-0.3286884 0.04454,-0.01812 0.147645,-0.013282 0.217934,-0.032193 0.09259,-0.024629 0.224363,-0.1340992 0.375135,-0.1857844 0.0983,-0.034304 0.323323,-0.040901 0.360838,-0.078566 0.04619,-0.047102 -6.4e-5,-0.1794909 0.0161,-0.2500918 0.07582,-0.3529183 0.607517,-0.4277875 0.921747,-0.5466218 0.220247,-0.083502 0.445732,-0.2362597 0.687736,-0.1893516 -0.04737,0.1677399 -0.272232,0.1089365 -0.234009,0.3126128 0.05277,0.2826599 0.430722,-0.081583 0.530543,-0.1232612 0.19075,-0.080394 0.517867,-0.1289236 0.76813,-0.2197158 0.219451,-0.080394 0.612345,-0.2027325 0.405499,-0.4537347 -0.172485,-0.00989 -0.255136,0.2018718 -0.405499,0.2661678 -0.103823,0.016559 -0.08469,-0.08634 -0.173281,-0.094681 -0.08424,-0.00989 -0.131403,0.077283 -0.217934,0.062561 -0.08597,-0.014276 -0.206252,-0.1494846 -0.219715,-0.2500799 -0.0343,-0.2609826 0.220595,-0.3680636 0.32868,-0.5627005 -0.07143,-0.2360869 -0.397504,-0.048747 -0.594849,-0.1411228 0.01882,-0.1405453 0.164511,-0.2375044 0.328688,-0.2643734 0.134583,-0.022676 0.436101,-0.010991 0.516248,0.060728 0.04637,0.039419 0.0037,0.1380877 0.07857,0.203635 0.07966,0.07198 0.177067,0.065212 0.280455,0.048201 0.03743,-0.1781482 -0.231066,-0.1340917 -0.201854,-0.2518739 0.211182,-0.1381427 0.554222,-0.024127 0.81278,-0.062561 0.148837,-0.022056 0.305762,-0.1276341 0.437649,-0.2018546 0.125444,-0.071431 0.288504,-0.1954147 0.421578,-0.078565 0.03611,0.1276583 -0.116503,0.1705361 -0.18757,0.2340092 -0.239215,0.2127916 -0.485728,0.4566706 -0.671657,0.7038148 0.114079,0.1112802 0.321445,0.055609 0.514464,0.078565 0.07546,0.00989 0.170299,0.032391 0.250092,0.046463 0.09318,0.016558 0.193164,0.011444 0.266158,0.03035 0.131319,0.032286 0.166512,0.1732704 0.29653,0.1732704 0.213888,-3.841e-4 0.215849,-0.2323917 0.09468,-0.3769172 0.03822,-0.1475628 0.09815,-0.223539 0.04647,-0.3268962 -0.09634,-0.1927077 -0.449857,-0.00989 -0.46803,-0.2500905 -0.01161,-0.1558758 0.131064,-0.1495361 0.187565,-0.2661573 -0.02568,-0.3011987 0.247071,-0.3230936 0.217934,-0.5930656 -0.0128,-0.1129152 -0.108507,-0.113914 -0.187557,-0.2197156 -0.04108,-0.054054 -0.05954,-0.1617489 -0.108964,-0.203645 -0.16354,-0.1381568 -0.496162,-0.1114496 -0.516283,-0.37514 -0.0027,-0.089264 0.0098,-0.1692365 0.01786,-0.2536577 -0.150755,-0.00733 -0.299825,-0.021119 -0.451942,-0.02323 z M 9.7085411,6.2671601 c 0.072985,0.00989 0.1615558,0.087985 0.2500918,0.094681 0.0835,0.00274 0.1522981,-0.045913 0.2036361,-0.032185 0.130743,0.034397 0.185362,0.231925 0.06256,0.3286901 -0.102217,0.01279 -0.142678,-0.043991 -0.219714,-0.03035 C 9.7927802,6.6641211 9.7118484,7.0794057 9.5531728,7.0656407 9.4035135,7.0528513 9.3226212,6.6883031 9.474607,6.579758 9.4845025,6.4850046 9.4055542,6.4697774 9.4103128,6.3761231 9.4554934,6.3182292 9.5838884,6.256619 9.7086286,6.2671483 Z m -0.7038147,0.048201 c 0.04354,0.00183 0.076186,0.011444 0.092886,0.030351 C 9.0768535,6.512342 8.9458549,6.5020441 8.8171565,6.579721 8.5948995,6.7138747 8.4662978,6.9183528 8.3955781,7.2049346 8.3750835,7.2884349 8.1566176,7.5092845 8.0508195,7.4871802 7.8029179,7.434954 8.1193226,6.9778651 8.1758632,6.9084099 8.2383323,6.8314002 8.321859,6.7632912 8.3955781,6.6744007 8.4670103,6.5883377 8.5142491,6.4720794 8.5831437,6.4243106 8.6586,6.3720858 8.8741061,6.310334 9.004722,6.3153464 Z m 1.8506356,0.5626914 c 0.07939,0.00183 0.149638,0.014276 0.182205,0.046463 -0.05094,0.2064625 -0.494727,0.1514132 -0.657371,0.076827 0.0106,-0.077833 0.131649,-0.098694 0.234008,-0.1089642 0.07198,-0.00274 0.161877,-0.016559 0.241155,-0.014276 z M 9.8425123,7.2585463 c 0.052772,-0.00183 0.1070339,0.010247 0.1625627,0.024937 C 9.8611906,7.4038251 9.7055324,7.4714707 9.4584537,7.5496494 9.3396463,7.5872522 9.1338247,7.6341568 9.113695,7.5014474 9.0890663,7.3388316 9.2874421,7.3766675 9.3959318,7.3621146 9.5325027,7.3432912 9.6825138,7.2636303 9.8425145,7.2585067 Z M 25.546178,7.4907646 c 0.01179,0.1174832 0.01381,0.2290075 -0.01786,0.3554893 -0.04253,0.1693667 -0.195011,0.3229666 -0.187557,0.4698041 0.0099,0.075456 0.09229,0.1480364 0.110746,0.2500918 0.0099,0.054144 -0.02533,0.1703827 0,0.2197149 0.07939,0.1539474 0.296289,0.023485 0.437658,0.04646 0.138114,0.02221 0.298069,0.2203571 0.296525,0.3751357 -0.0018,0.107786 -0.103203,0.2873516 -0.171486,0.3912014 -0.136285,0.2072422 -0.320834,0.2163592 -0.516248,0.3268984 -0.162972,0.092384 -0.233142,0.2465778 -0.328679,0.4072898 -0.103516,0.173575 -0.167683,0.279057 -0.125044,0.530534 -0.139707,0.277104 -0.351892,0.446957 -0.641292,0.578779 -0.08561,0.0387 -0.201917,0.05213 -0.280456,0.108969 -0.06247,0.045 -0.09871,0.16631 -0.18757,0.266158 -0.109642,0.122018 -0.224601,0.172942 -0.282246,0.266167 -0.04454,0.07198 -0.05972,0.215919 -0.108964,0.312613 -0.06677,0.131294 -0.208896,0.195632 -0.29653,0.32868 -0.03998,0.06155 -0.06659,0.18563 -0.110746,0.266166 -0.09902,0.179984 -0.268273,0.309729 -0.250092,0.468012 0.01812,0.153002 0.191801,0.179244 0.203644,0.312613 0.0027,0.07536 -0.04957,0.121491 -0.04646,0.203645 0.0027,0.11996 0.08341,0.204212 0.09289,0.29653 0.02331,0.232126 -0.07957,0.32539 -0.123249,0.484091 -0.02076,0.07582 -0.01205,0.160487 -0.03219,0.219724 -0.03822,0.116173 -0.200443,0.221672 -0.203645,0.359056 -0.0018,0.0976 0.100727,0.175586 0.108969,0.312605 0.0027,0.09446 -0.04701,0.195403 -0.03035,0.282246 0.03321,0.170123 0.337581,0.36798 0.469804,0.500169 0.176865,0.176856 0.407896,0.313845 0.4841,0.500178 0.06429,0.15827 0.06429,0.364844 0.18757,0.48409 0.09119,0.08807 0.242232,0.142407 0.359056,0.234009 0.108947,0.08552 0.228296,0.159361 0.344763,0.250091 0.190301,0.14885 0.47746,0.446226 0.780632,0.42336 0.158284,-0.01161 0.320597,-0.141374 0.50017,-0.173272 0.18475,-0.03303 0.42456,-0.04957 0.610927,-0.03035 0.142764,0.01429 0.289243,0.0997 0.437658,0.09289 0.156683,-0.0099 0.336398,-0.125866 0.514465,-0.203636 0.281348,-0.122457 0.690525,-0.27461 1.10216,-0.251881 0.07875,-0.576512 0.133972,-1.160724 0.133972,-1.759542 0,-2.422875 -0.678151,-4.676303 -1.838134,-6.6040763 -0.05387,-0.00366 -0.103405,-0.011083 -0.162563,-0.00915 -0.158626,0.0099 -0.419207,0.0099 -0.421569,-0.1875699 -0.0018,-0.1621672 0.152971,-0.1979845 0.337616,-0.208997 C 26.351174,8.4572596 25.963822,7.9605477 25.54615,7.4905697 Z M 6.0018915,13.357093 c -0.2597014,0.01429 -0.4293408,0.02617 -0.5769867,0.09289 -0.3382804,0.153956 -0.2729482,0.611741 -0.6109185,0.719893 -0.1168942,0.03743 -0.2768052,0.03879 -0.4054993,0.06256 -0.1110405,0.02023 -0.2463931,0.08095 -0.3608465,0.07857 -0.1354141,-0.0027 -0.3714104,-0.133215 -0.4519425,-0.219728 -0.055428,-0.06 -0.1461629,-0.269746 -0.2054302,-0.409066 -0.081583,0.450077 -0.1379035,0.90822 -0.1714865,1.373689 0.027707,0.0055 0.056976,0.01253 0.080395,0.01253 0.1480364,8.87e-4 0.3063905,-0.152711 0.4698041,-0.157193 0.3832938,-0.0106 0.5497041,0.48774 0.8592243,0.641292 0.077831,0.0387 0.1802209,0.04033 0.2804556,0.06256 0.080945,0.01812 0.1417736,0.05213 0.2197237,0.07857 0.1653337,0.05607 0.3679096,0.05003 0.5001691,0.108964 0.1992994,0.08844 0.3448686,0.462433 0.5162478,0.562692 0.0099,0.101044 -0.018648,0.237276 0.016097,0.312613 0.080945,0.109779 0.1953061,0.08561 0.3286884,0.157202 0.1595635,0.08607 0.2078183,0.307204 0.3590477,0.375123 0.052129,0.02322 0.1836997,0.02111 0.2661665,0.04646 0.2072246,0.06274 0.2743247,0.302516 0.4519421,0.250092 0.1165028,-0.0343 0.1079531,-0.154805 0.1268293,-0.266167 0.077009,-0.0835 0.1604212,-0.215572 0.2804556,-0.217933 0.1942373,-0.0099 0.2115654,0.200764 0.2822455,0.38942 0.03989,0.106607 0.1442498,0.20013 0.1714865,0.312613 0.048382,0.194242 0.024893,0.775237 -0.016097,0.891382 -0.048932,0.142433 -0.2419336,0.202906 -0.3608377,0.360838 -0.056066,0.07399 -0.08277,0.181962 -0.1250437,0.234008 -0.076551,0.09318 -0.19104,0.117638 -0.2483062,0.203645 -0.032369,0.04838 -0.063199,0.152447 -0.094671,0.217933 -0.093866,0.198926 -0.2200888,0.339948 -0.1411228,0.578771 0.033029,0.0983 0.1871829,0.164775 0.1875656,0.280455 4.024e-4,0.13614 -0.2901664,0.258057 -0.3126137,0.407281 -0.016536,0.11104 0.089816,0.309236 0.1250437,0.453734 0.025904,0.109185 0.2321788,0.177424 0.2965302,0.250079 0.1097607,0.123179 0.1980504,0.297207 0.2983158,0.451951 0.1982132,0.304363 0.3536294,0.675096 0.5466221,0.969973 0.1019939,0.15444 0.2446559,0.293426 0.3126093,0.453735 0.034744,0.08094 0.030566,0.177389 0.062561,0.250079 0.1117266,0.252185 0.6046167,0.516138 0.8592244,0.641301 0.1192119,0.05799 0.2514865,0.07875 0.3608385,0.139333 0.165698,0.09238 0.493328,0.340598 0.576987,0.485882 0.07454,0.130586 0.120967,0.44791 0.157193,0.655588 0.04838,0.274408 0.0018,0.485206 0.0161,0.782406 0.0099,0.160743 0.06082,0.323002 0.06256,0.4841 8.5e-4,0.05643 -0.02973,0.09784 -0.03219,0.155408 -0.0027,0.19502 0.04884,0.414708 0.03219,0.610927 -9.15e-4,0.04209 -0.0055,0.07372 -0.01253,0.110759 1.53431,0.647603 3.222751,1.005698 4.99816,1.005698 0.185801,0 0.366371,-0.02085 0.550197,-0.02854 0.0046,-0.02916 0.0082,-0.05853 0.01429,-0.08213 0.05662,-0.15861 0.202558,-0.211429 0.296521,-0.32868 0.07134,-0.08844 0.103933,-0.192047 0.171486,-0.280455 0.07344,-0.09633 0.139166,-0.181338 0.187566,-0.266167 0.04619,-0.28543 -0.113732,-0.48431 -0.04646,-0.734179 0.07472,-0.280671 0.462195,-0.452144 0.734189,-0.57878 0.09356,-0.04345 0.189954,-0.114664 0.266158,-0.141114 0.188235,-0.06558 0.422731,-0.03008 0.594849,-0.09289 0.292903,-0.107201 0.323569,-0.420883 0.468021,-0.687745 0.06814,-0.126381 0.158135,-0.252959 0.171487,-0.342977 0.01161,-0.08094 -0.02916,-0.156472 -0.0161,-0.251873 0.01429,-0.09446 0.09885,-0.176703 0.125044,-0.280456 0.0343,-0.135427 0.0482,-0.333253 0.0482,-0.484099 0,-0.123812 -0.05734,-0.233076 -0.06256,-0.344763 -0.02023,-0.405508 0.146493,-0.450973 0.29653,-0.671658 0.07527,-0.109642 0.102856,-0.234048 0.155408,-0.312613 0.251824,-0.375756 0.68894,-0.557314 0.657331,-1.125364 -0.01061,-0.187979 -0.127898,-0.613443 -0.266168,-0.67345 -0.07911,-0.03439 -0.260671,-0.0027 -0.375124,-0.04646 -0.369509,-0.137842 -0.587112,-0.595956 -0.969983,-0.625214 -0.08177,-0.0099 -0.156278,0.03369 -0.248297,0.03219 -0.151559,-0.0099 -0.38062,-0.106167 -0.548405,-0.125043 -0.106608,-0.01161 -0.24861,0.03162 -0.312614,0 -0.09761,-0.04747 -0.10816,-0.226814 -0.187565,-0.280456 -0.06302,-0.04328 -0.184962,-0.05771 -0.280456,-0.09468 -0.153956,-0.05927 -0.276084,-0.128729 -0.453726,-0.141114 -0.05478,-0.0027 -0.123733,0.02617 -0.18757,0.0161 -0.0983,-0.01654 -0.175475,-0.132354 -0.266166,-0.187566 -0.113605,-0.06914 -0.219196,-0.103212 -0.266158,-0.20185 0.102654,-0.336732 -0.181065,-0.430678 -0.250092,-0.625232 -0.03303,-0.09119 -0.01755,-0.200922 -0.04646,-0.282237 -0.04068,-0.116511 -0.155975,-0.183277 -0.282237,-0.280455 -0.226237,-0.174121 -0.426957,-0.337032 -0.750258,-0.376917 -0.14213,-0.01812 -0.282026,0.0427 -0.453735,0.03219 -0.18198,-0.01161 -0.410482,-0.171332 -0.546613,-0.326907 -0.132327,-0.15188 -0.197338,-0.288218 -0.312614,-0.360838 -0.109197,-0.07015 -0.254102,-0.06832 -0.328679,-0.139332 -0.03321,-0.03101 -0.02705,-0.08414 -0.06256,-0.157202 -0.05488,-0.113719 -0.146986,-0.176355 -0.07857,-0.312605 -0.124578,-0.06402 -0.128065,0.11831 -0.264385,0.09467 -0.121504,-0.172476 -0.224223,-0.254213 -0.500169,-0.203636 -0.126368,0.02335 -0.197519,0.18359 -0.344768,0.187557 -0.120742,0.0099 -0.215647,-0.134539 -0.375127,-0.157193 -0.120359,-0.01654 -0.257295,0.03246 -0.342977,0.0161 -0.133444,-0.02661 -0.174644,-0.137776 -0.29653,-0.217934 -0.08936,-0.05872 -0.262486,-0.158794 -0.312614,-0.157202 -0.157149,0.0099 -0.269175,0.334564 -0.485883,0.219728 -0.105319,-0.133448 0.171429,-0.203838 0.04646,-0.328688 -0.09475,-0.09476 -0.174314,0.04235 -0.2500789,0.09468 -0.086794,0.0599 -0.1684519,0.119911 -0.2643853,0.155407 -0.2147495,0.0804 -0.3484177,0.03822 -0.5162473,0.125044 -0.1553987,0.08048 -0.1620396,0.215216 -0.2500918,0.375136 -0.071982,0.13102 -0.2365856,0.320776 -0.3447587,0.328679 -0.1310205,0.0099 -0.256293,-0.182618 -0.3751355,-0.234008 -0.358023,-0.155082 -0.5315673,0.137142 -0.8288594,0.141123 -0.2759169,0.0099 -0.6694352,-0.444415 -0.6555784,-0.703815 0.00274,-0.158284 0.090453,-0.399043 0.1089647,-0.594849 0.016536,-0.15572 0.1232493,-0.249063 0.1250437,-0.391211 0.00274,-0.189892 -0.2519478,-0.336538 -0.3751356,-0.359056 -0.2920882,-0.05369 -0.6977511,0.117901 -1.0325048,-0.0161 -0.064021,-0.105947 0.074907,-0.179183 0.1107591,-0.282236 0.020231,-0.05853 0.00946,-0.13742 0.030346,-0.201855 0.037119,-0.09956 0.1408853,-0.176755 0.18757,-0.282246 0.03492,-0.08048 0.043452,-0.196647 0.078566,-0.29653 0.040681,-0.113723 0.116239,-0.186396 0.125035,-0.266158 0.011611,-0.105305 -0.028279,-0.227085 -0.1107459,-0.29653 z m 4.1800305,3.310077 c 0.105956,0.0099 0.119062,0.228907 0.01073,0.246512 -0.116895,0.01821 -0.175806,-0.183339 -0.06256,-0.235794 0.01896,-0.0099 0.03659,-0.0117 0.05176,-0.01073 z"
       inkscape:connector-curvature="0" />
    <path
       style="vector-effect:none;fill:#d0d0d0;stroke:none;stroke-width:0.98770022;stroke-linecap:square"
       d="m 13.345834,8.6903342 v 0.600919 2.0766088 h -2.894275 v 1.744352 h 0.895538 v 10.197452 h 9.305808 V 13.112214 h 0.895537 V 11.367862 H 18.654167 V 8.6903342 Z m 1.201838,1.201837 h 2.904657 v 1.4756908 h -2.904657 z"
       id="rect4264-5"
       inkscape:connector-curvature="0"
       sodipodi:nodetypes="ccccccccccccccccccc"
       inkscape:label="#3" />
  </g>
</svg>
