<?xml version="1.0" encoding="UTF-8" standalone="no"?>
<!-- Created with Inkscape (http://www.inkscape.org/) -->

<svg
   xmlns:dc="http://purl.org/dc/elements/1.1/"
   xmlns:cc="http://creativecommons.org/ns#"
   xmlns:rdf="http://www.w3.org/1999/02/22-rdf-syntax-ns#"
   xmlns:svg="http://www.w3.org/2000/svg"
   xmlns="http://www.w3.org/2000/svg"
   xmlns:sodipodi="http://sodipodi.sourceforge.net/DTD/sodipodi-0.dtd"
   xmlns:inkscape="http://www.inkscape.org/namespaces/inkscape"
   width="32"
   height="32"
   viewBox="0 0 32 32"
   version="1.1"
   id="svg8"
   inkscape:version="0.92+devel 15703 custom"
   sodipodi:docname="preferences-system-network.svg">
  <defs
     id="ol-defs">
    <style
       id="current-color-scheme">      .ColorScheme-Text {
        color:#d0d0d0;
        stop-color:#d0d0d0;
      }
      .ColorScheme-Background {
        color:#212121;
        stop-color:#212121;
      }
      .ColorScheme-Highlight {
        color:#0039a9;
        stop-color:#0039a9;
      }
      .ColorScheme-ViewText {
        color:#d0d0d0;
        stop-color:#d0d0d0;
      }
      .ColorScheme-ViewBackground {
        color:#19191b;
        stop-color:#19191b;
      }
      .ColorScheme-ViewHover {
        color:#005cc7;
        stop-color:#005cc7;
      }
      .ColorScheme-ViewFocus{
        color:#002466;
        stop-color:#002466;
      }
      .ColorScheme-ButtonText {
        color:#d0d0d0;
        stop-color:#d0d0d0;
      }
      .ColorScheme-ButtonBackground {
        color:#232323;
        stop-color:#232323;                             
      }                                                 
      .ColorScheme-ButtonHover {                        
        color:#005cc7;                                  
        stop-color:#005cc7;                             
      }                                                 
      .ColorScheme-ButtonFocus{                         
        color:#0039a9;                                  
        stop-color:#0039a9;                             
      }</style>
  </defs>
  <sodipodi:namedview
     id="base"
     pagecolor="#002266"
     bordercolor="#ffffff"
     borderopacity="0.46666667"
     inkscape:pageopacity="0"
     inkscape:pageshadow="2"
     inkscape:zoom="12.859375"
     inkscape:cx="31.399413"
     inkscape:cy="11.170575"
     inkscape:document-units="px"
     inkscape:current-layer="svg8"
     inkscape:document-rotation="0"
     showgrid="false"
     inkscape:showpageshadow="false"
     borderlayer="true"
     units="px"
     fit-margin-top="0"
     fit-margin-left="0"
     fit-margin-right="0"
     fit-margin-bottom="0"
     inkscape:window-width="1920"
     inkscape:window-height="1054"
     inkscape:window-x="0"
     inkscape:window-y="0"
     inkscape:window-maximized="1"
     inkscape:snap-page="true" />
  <metadata
     id="metadata5">
    <rdf:RDF>
      <cc:Work
         rdf:about="">
        <dc:format>image/svg+xml</dc:format>
        <dc:type
           rdf:resource="http://purl.org/dc/dcmitype/StillImage" />
        <dc:title></dc:title>
      </cc:Work>
    </rdf:RDF>
  </metadata>
  <g
     id="g4267"
     inkscape:label="#">
    <rect
       inkscape:label="#boundary"
       y="0"
       x="0"
       height="32"
       width="32"
       id="rect4264"
       style="fill:none;fill-opacity:0.74651441;stroke-width:23.61599922;stroke-opacity:0.3596773"
       sodipodi:insensitive="true" />
  </g>
  <g
     inkscape:label="#glyph"
     id="g4850"
     transform="matrix(4.3979923,0,0,4.3979923,3.2000099,3.20001)"
     style="opacity:0.6;stroke-width:0.85937566">
    <path
       inkscape:label="#2"
       style="display:inline;opacity:0.3;fill:#d0d0d0;stroke-width:0.34106472;stroke-linecap:square"
       d="M 5.8208333,2.9104166 A 2.9104166,2.9104166 0 0 1 2.9104167,5.8208333 2.9104166,2.9104166 0 0 1 2.4999997e-8,2.9104166 2.9104166,2.9104166 0 0 1 2.9104167,7.4999998e-8 2.9104166,2.9104166 0 0 1 5.8208333,2.9104166 Z"
       id="path4845"
       inkscape:connector-curvature="0" />
    <path
       inkscape:label="#1"
       style="fill:#d0d0d0;stroke-width:0.22737646"
       id="path34"
       d="M 2.8649269,4.2e-6 C 2.6418968,0.0030222 2.425877,0.031986 2.217899,0.08205041 c -0.054751,0.0491054 -0.135552,0.074 -0.2262368,0.0714856 -0.032461,0.0310505 -0.024965,0.0889754 -0.042649,0.13159873 -0.01489,0.0358088 -0.067354,0.0741289 -0.1031686,0.0710808 -0.026494,-0.002248 -0.056775,-0.0394959 -0.056862,-0.0641743 -9.57e-5,-0.0297968 0.041411,-0.0464039 0.018675,-0.079611 -0.2317623,0.0939414 -0.4473266,0.21780407 -0.6445926,0.36514739 0.052907,-0.0194862 0.1112519,-0.0522328 0.1592198,-0.0532082 0.00788,-9.361e-5 0.015118,6.2383e-4 0.022339,0.002437 0.032217,0.008443 0.1171227,0.10143419 0.046302,0.13159868 -0.00672,0.002908 -0.1038508,0.0134758 -0.120631,0.0105645 -0.024666,-0.004142 -0.039338,-0.0382273 -0.064176,-0.0426485 -0.041719,-0.007239 -0.094761,0.0361122 -0.1307856,0.0166574 C 0.67858597,0.96322725 0.37069187,1.3864202 0.18622367,1.8720489 c 0.016928,-0.00979 0.034245,-0.020047 0.049555,-0.028024 0.051973,-0.027018 0.095865,-0.070692 0.1563751,-0.074736 0.030183,-6.239e-4 0.073776,0.00813 0.102761,0.014225 0.026754,0.00549 0.048338,0.023439 0.071486,0.025181 0.065698,0.00501 0.081246,-0.046108 0.1348491,-0.074734 0.055375,0.00782 0.092149,-0.00927 0.1421588,-0.00366 0.034097,0.00376 0.05873,0.040201 0.085297,0.042241 0.02235,0.00225 0.042143,-0.020775 0.063769,-0.017469 0.021008,0.00325 0.057104,0.049061 0.060518,0.074736 0.00431,0.031959 -0.023393,0.060755 -0.014225,0.095857 0.033478,0.034097 0.09432,0.040874 0.142161,0.060518 0.03115,-0.02567 0.00414,-0.07332 0,-0.1104784 -6.239e-4,-0.016367 0.00225,-0.030822 0,-0.045897 -0.00291,-0.025589 -0.014058,-0.049179 -0.014224,-0.071081 -6.238e-4,-0.1011555 0.081618,-0.1485203 0.1494708,-0.1884631 0.02937,-0.017406 0.052502,-0.047776 0.077985,-0.060518 0.03599,-0.018051 0.062806,-0.022247 0.092606,-0.038992 0.053847,-0.030248 0.1000575,-0.054675 0.142161,-0.088953 0.019465,-0.045866 0.00215,-0.1073901 0.00366,-0.152719 0.019485,-0.011937 0.036208,0.00537 0.056865,0.00366 0.032496,-0.00678 0.035199,-0.052767 0.053614,-0.071078 0.01071,-0.010502 0.039909,-0.018009 0.053208,-0.028432 0.032387,-0.025406 0.0428,-0.063788 0.071081,-0.074736 0.010127,-0.00412 0.033571,-0.00302 0.049553,-0.00732 0.021052,-0.0056 0.051015,-0.030491 0.085297,-0.042243 0.022351,-0.0078 0.073516,-0.0093 0.082046,-0.017864 0.010502,-0.01071 -1.45e-5,-0.040812 0.00366,-0.056865 0.01724,-0.0802453 0.1381349,-0.0972688 0.2095834,-0.12428893 0.050079,-0.0189863 0.101349,-0.0537199 0.156375,-0.0430541 -0.010772,0.0381401 -0.061899,0.0247696 -0.053208,0.0710808 0.011999,0.0642702 0.097936,-0.0185501 0.120633,-0.0280267 0.043372,-0.0182797 0.1177506,-0.0293142 0.1746546,-0.0499582 0.049898,-0.0182797 0.1392328,-0.0460966 0.092201,-0.1031686 -0.039219,-0.002248 -0.058012,0.0459009 -0.092201,0.0605203 -0.023607,0.003765 -0.019257,-0.0196316 -0.0394,-0.0215282 -0.019153,-0.002248 -0.029878,0.0175723 -0.049553,0.0142248 -0.019548,-0.003246 -0.046897,-0.0339893 -0.049958,-0.0568623 -0.0078,-0.0593413 0.050158,-0.083689 0.074734,-0.12794486 -0.016242,-0.0536806 -0.090383,-0.011084 -0.1352547,-0.032088 0.00428,-0.0319567 0.037406,-0.0540029 0.074736,-0.0601123 0.030601,-0.005156 0.099159,-0.002499 0.1173826,0.0138082 0.010543,0.008963 8.332e-4,0.0313979 0.017864,0.0463018 0.018113,0.0163666 0.040261,0.0148277 0.063769,0.0109598 0.00851,-0.0405067 -0.052539,-0.0304893 -0.045897,-0.0572702 0.048018,-0.0314104 0.1260171,-0.005486 0.1848072,-0.0142248 0.033842,-0.005015 0.069523,-0.029021 0.099511,-0.045897 0.028523,-0.0162417 0.065599,-0.0444327 0.095857,-0.0178639 0.00821,0.0290265 -0.02649,0.0387759 -0.042649,0.0532082 -0.054392,0.0483838 -0.1104431,0.10383614 -0.1527191,0.16003092 0.025939,0.0253025 0.073089,0.0126442 0.1169771,0.0178639 0.017157,0.002248 0.038722,0.007365 0.056865,0.0105645 0.021187,0.003765 0.043921,0.002602 0.060518,0.006901 0.029859,0.007341 0.037861,0.0393976 0.067424,0.0393976 0.048633,-8.733e-5 0.049079,-0.0528404 0.021528,-0.0857021 0.00869,-0.0335523 0.022316,-0.0508275 0.010565,-0.0743285 -0.021905,-0.0438172 -0.1022869,-0.002248 -0.106419,-0.0568647 -0.00264,-0.0354425 0.029801,-0.034001 0.042648,-0.0605179 -0.00584,-0.0684855 0.056178,-0.0734639 0.049553,-0.13484918 C 3.2259286,0.2188415 3.2041666,0.2186144 3.1861926,0.1945576 3.1768526,0.1822671 3.1726546,0.1577797 3.1614166,0.1482535 3.1242316,0.1168399 3.0486011,0.1229125 3.044026,0.0629555 3.0434021,0.0426589 3.046246,0.0244751 3.048086,0.0052797 3.013808,0.0036137 2.979913,4.777e-4 2.9453251,-2.3e-6 Z m -1.38504,0.69739359 c 0.016595,0.002248 0.036734,0.0200058 0.056865,0.0215282 0.018986,6.2384e-4 0.034629,-0.0104395 0.046302,-0.007318 0.029728,0.007821 0.042147,0.0527343 0.014225,0.0747364 -0.023242,0.002908 -0.032442,-0.0100025 -0.049958,-0.006901 -0.04828,0.008214 -0.066682,0.10263995 -0.1027611,0.0995101 -0.034029,-0.002908 -0.052422,-0.0857977 -0.017864,-0.11047829 0.00225,-0.0215447 -0.015701,-0.025007 -0.014619,-0.0463018 0.010273,-0.0131637 0.039467,-0.0271724 0.06783,-0.0247783 z M 1.319856,0.70835759 c 0.0099,4.1587e-4 0.017323,0.002602 0.02112,0.006901 C 1.336256,0.75314639 1.30647,0.75080489 1.277207,0.76846679 1.226671,0.79897019 1.19743,0.84546369 1.18135,0.91062565 1.17669,0.92961165 1.127016,0.97982765 1.10296,0.97480165 1.046593,0.96292665 1.118536,0.85899538 1.131392,0.84320292 1.145596,0.82569272 1.164588,0.81020632 1.18135,0.78999472 1.197592,0.77042602 1.208333,0.74399162 1.223998,0.73313012 1.241155,0.72125542 1.290156,0.70721452 1.319855,0.70835422 Z m 0.4207911,0.12794279 c 0.018051,4.1594e-4 0.034024,0.003246 0.041429,0.0105645 -0.011583,0.0469447 -0.1124893,0.0344278 -0.1494707,0.0174686 0.00241,-0.0176973 0.029934,-0.0224407 0.053208,-0.0247759 0.016367,-6.2392e-4 0.036807,-0.003765 0.054833,-0.003246 z m -0.2302983,0.0865153 c 0.011999,-4.159e-4 0.024337,0.00233 0.036963,0.00567 -0.032716,0.027363 -0.068109,0.042744 -0.1242889,0.06052 -0.027014,0.00855 -0.073813,0.019215 -0.07839,-0.01096 -0.0056,-0.036975 0.039506,-0.028372 0.064174,-0.031681 0.031053,-0.00428 0.065162,-0.022393 0.1015424,-0.023558 z m 3.5706442,0.052801 c 0.00268,0.0267129 0.00314,0.0520709 -0.00406,0.0808299 -0.00967,0.03851 -0.044341,0.073435 -0.042646,0.1068224 0.00225,0.017157 0.020985,0.03366 0.025181,0.056865 0.00225,0.012311 -0.00576,0.038741 0,0.049958 0.018051,0.035004 0.067369,0.00534 0.099513,0.010564 C 5.190385,1.285706 5.226755,1.33076 5.226404,1.365953 5.2259881,1.390461 5.202938,1.43129 5.187412,1.454903 5.156424,1.502025 5.114462,1.504098 5.0700294,1.529232 5.0329734,1.550238 5.0170184,1.585298 4.9952954,1.62184 4.9717584,1.661307 4.9571684,1.685291 4.9668634,1.742471 4.9350974,1.805478 4.8868514,1.8440986 4.8210486,1.8740718 c -0.019465,0.0088 -0.045911,0.011853 -0.063769,0.024777 -0.014204,0.010231 -0.022445,0.037815 -0.042649,0.060518 -0.02493,0.027744 -0.051069,0.039323 -0.064176,0.06052 -0.010127,0.016367 -0.013579,0.049095 -0.024776,0.071081 -0.015181,0.029853 -0.047498,0.044482 -0.067424,0.074734 -0.00909,0.013996 -0.01514,0.042208 -0.025181,0.06052 -0.022515,0.040924 -0.060999,0.070425 -0.056865,0.1064148 0.00412,0.034789 0.043611,0.040756 0.046304,0.071081 6.238e-4,0.017136 -0.011272,0.027624 -0.010565,0.046304 6.239e-4,0.027276 0.018966,0.046433 0.02112,0.067424 0.0053,0.05278 -0.018093,0.073986 -0.028024,0.1100708 -0.00472,0.01724 -0.00274,0.036491 -0.00732,0.04996 -0.00869,0.026415 -0.045576,0.050403 -0.046304,0.081641 -4.16e-4,0.022193 0.022903,0.039924 0.024777,0.071079 6.238e-4,0.021478 -0.010689,0.04443 -0.0069,0.064176 0.00755,0.038682 0.076758,0.08367 0.1068224,0.1137267 0.040215,0.040213 0.092746,0.071361 0.1100729,0.1137287 0.014619,0.035987 0.014619,0.082957 0.042649,0.1100708 0.020734,0.020026 0.055078,0.03238 0.081641,0.053208 0.024772,0.019445 0.051909,0.036235 0.078391,0.056865 0.04327,0.033845 0.1085631,0.1014613 0.1774974,0.096262 0.03599,-0.00264 0.072896,-0.032145 0.1137267,-0.039398 0.042008,-0.00751 0.096535,-0.011272 0.1389106,-0.0069 0.032461,0.00325 0.065767,0.022669 0.099513,0.02112 0.035626,-0.00225 0.076489,-0.028619 0.1169772,-0.046302 0.063972,-0.027844 0.1570092,-0.06244 0.2506054,-0.057272 0.017906,-0.1310851 0.030462,-0.2639212 0.030462,-0.4000783 0,-0.5509049 -0.1541956,-1.0632813 -0.4179483,-1.5016116 -0.012249,-8.332e-4 -0.023512,-0.00252 -0.036963,-0.00208 -0.036068,0.00225 -0.095318,0.00225 -0.095855,-0.042649 -4.159e-4,-0.036873 0.034782,-0.045017 0.076766,-0.047521 C 5.2640301,1.1953749 5.1759555,1.0824343 5.0809867,0.97557235 Z M 0.63708197,2.3094818 c -0.05905,0.00325 -0.097622,0.00595 -0.1311932,0.02112 -0.076917,0.035006 -0.062062,0.1390956 -0.1389085,0.1636868 -0.026579,0.00851 -0.062939,0.00882 -0.092201,0.014225 -0.025248,0.0046 -0.056024,0.018405 -0.082048,0.017864 -0.03079,-6.245e-4 -0.08445,-0.03029 -0.1027611,-0.049961 -0.012603,-0.013642 -0.033234,-0.061334 -0.04671,-0.093012 -0.01855,0.1023368 -0.031356,0.2065078 -0.038992,0.3123445 0.0063,0.00125 0.012955,0.00285 0.01828,0.00285 0.03366,2.017e-4 0.069666,-0.034723 0.1068224,-0.035742 0.087152,-0.00241 0.1249898,0.1109005 0.1953674,0.1458148 0.017697,0.0088 0.040978,0.00917 0.063769,0.014225 0.018405,0.00412 0.032236,0.011853 0.04996,0.017864 0.037593,0.012748 0.083654,0.011376 0.1137267,0.024776 0.045316,0.02011 0.078415,0.1051463 0.1173826,0.1279428 0.00225,0.022975 -0.00424,0.053951 0.00366,0.071081 0.018405,0.024961 0.044408,0.019465 0.074736,0.035744 0.036281,0.019569 0.047253,0.069851 0.081639,0.085294 0.011853,0.00528 0.041769,0.0048 0.06052,0.010564 0.047118,0.014266 0.062375,0.068785 0.10276101,0.056865 0.02649,-0.0078 0.024546,-0.035199 0.028838,-0.06052 0.01751,-0.018986 0.036476,-0.049016 0.063769,-0.049553 0.044165,-0.00225 0.048105,0.045649 0.064176,0.088545 0.00907,0.02424 0.032799,0.045505 0.038992,0.071081 0.011001,0.044166 0.00566,0.1762706 -0.00366,0.2026792 -0.011126,0.032386 -0.05501,0.046136 -0.082046,0.082046 -0.012748,0.016824 -0.01882,0.041374 -0.028432,0.053208 -0.017406,0.021187 -0.043438,0.026748 -0.056459,0.046304 -0.00736,0.011001 -0.01437,0.034663 -0.021526,0.049553 -0.021343,0.045231 -0.050043,0.077296 -0.032088,0.1315987 0.00751,0.022351 0.042561,0.037466 0.042648,0.063769 9.15e-5,0.030955 -0.065977,0.058676 -0.071081,0.092606 -0.00376,0.025248 0.020422,0.070313 0.028432,0.1031686 0.00589,0.024826 0.052792,0.040342 0.067424,0.056862 0.024957,0.028008 0.045032,0.067578 0.06783,0.1027631 0.045069,0.069205 0.080407,0.153501 0.124289,0.2205491 0.023191,0.035116 0.055629,0.066718 0.07108,0.1031686 0.0079,0.018405 0.00695,0.040334 0.014225,0.056862 0.025404,0.057341 0.1374756,0.1173577 0.1953674,0.1458169 0.027106,0.013185 0.057182,0.017906 0.082046,0.031681 0.037676,0.021006 0.1121712,0.077444 0.1311933,0.1104782 0.016949,0.029692 0.027505,0.101844 0.035742,0.1490652 0.011001,0.062394 4.159e-4,0.1103245 0.00366,0.1779008 0.00225,0.036549 0.013829,0.073443 0.014225,0.1100729 1.933e-4,0.012831 -0.00676,0.022246 -0.00732,0.035336 -6.238e-4,0.044343 0.011105,0.094295 0.00732,0.1389106 -2.08e-4,0.00957 -0.00125,0.016762 -0.00285,0.025184 0.3488662,0.1472497 0.7327778,0.228672 1.1364642,0.228672 0.042247,0 0.083304,-0.00474 0.125102,-0.00649 0.00104,-0.00663 0.00187,-0.013309 0.00325,-0.018675 0.012873,-0.036064 0.046057,-0.048074 0.067422,-0.074734 0.016221,-0.02011 0.023632,-0.043667 0.038992,-0.063769 0.016699,-0.021902 0.031643,-0.041232 0.042648,-0.06052 0.010502,-0.0649 -0.02586,-0.1101207 -0.010565,-0.1669351 0.01699,-0.063818 0.1050923,-0.1028068 0.1669373,-0.1316009 0.021274,-0.00988 0.043191,-0.026072 0.060518,-0.032086 0.0428,-0.014911 0.096119,-0.00684 0.1352546,-0.02112 0.066599,-0.024375 0.073572,-0.095699 0.106417,-0.1563771 0.015493,-0.028736 0.035956,-0.057517 0.038992,-0.077985 0.00264,-0.018405 -0.00663,-0.035578 -0.00366,-0.05727 0.00325,-0.021478 0.022476,-0.040178 0.028432,-0.063769 0.0078,-0.030793 0.01096,-0.075774 0.01096,-0.1100728 0,-0.028152 -0.013039,-0.052996 -0.014225,-0.078391 -0.0046,-0.092203 0.033309,-0.1025406 0.067424,-0.1527191 0.017115,-0.02493 0.023387,-0.053217 0.035336,-0.071081 0.057259,-0.085438 0.1566488,-0.12672 0.1494617,-0.2558813 C 3.9514355,4.1786173 3.9247668,4.0818769 3.8933275,4.0682327 3.875339,4.0604127 3.834057,4.0676088 3.808033,4.0576687 3.7240154,4.0263267 3.6745377,3.9221625 3.5874818,3.9155098 c -0.018592,-0.00225 -0.035534,0.00766 -0.056457,0.00732 -0.034461,-0.00225 -0.086544,-0.02414 -0.1246944,-0.028432 -0.02424,-0.00264 -0.056528,0.00719 -0.071081,0 -0.022195,-0.010793 -0.024593,-0.051572 -0.042648,-0.063769 -0.014329,-0.00984 -0.042056,-0.013122 -0.063769,-0.021528 -0.035006,-0.013476 -0.062775,-0.02927 -0.1031665,-0.032086 -0.012457,-6.239e-4 -0.028134,0.00595 -0.042649,0.00366 -0.022351,-0.00376 -0.039899,-0.030094 -0.06052,-0.042648 -0.025831,-0.015721 -0.04984,-0.023468 -0.060518,-0.045896 0.023341,-0.076565 -0.04117,-0.097926 -0.056865,-0.142163 -0.00751,-0.020734 -0.00399,-0.045685 -0.010565,-0.064174 -0.00925,-0.026492 -0.035465,-0.041673 -0.064174,-0.063769 -0.051441,-0.039591 -0.09708,-0.076633 -0.1705911,-0.085702 -0.032317,-0.00412 -0.064126,0.00971 -0.1031686,0.00732 -0.041378,-0.00264 -0.093334,-0.038957 -0.1242869,-0.074331 -0.030088,-0.034534 -0.04487,-0.065534 -0.071081,-0.082046 -0.024829,-0.015951 -0.057777,-0.015534 -0.074734,-0.031681 -0.00755,-0.00705 -0.00615,-0.019132 -0.014224,-0.035744 -0.012478,-0.025857 -0.033421,-0.040099 -0.017864,-0.071079 -0.028326,-0.014557 -0.029119,0.026901 -0.060115,0.021526 -0.027627,-0.039217 -0.050983,-0.057802 -0.1137267,-0.046302 -0.028733,0.00531 -0.044911,0.041744 -0.078392,0.042646 -0.027454,0.00225 -0.049033,-0.030591 -0.085295,-0.035742 -0.027367,-0.00376 -0.058503,0.00738 -0.077985,0.00366 -0.030342,-0.00605 -0.03971,-0.031327 -0.067424,-0.049553 -0.020318,-0.013351 -0.059683,-0.036106 -0.071081,-0.035744 -0.035732,0.00225 -0.061204,0.076072 -0.1104784,0.049961 -0.023947,-0.030343 0.038979,-0.046348 0.010564,-0.074736 -0.021545,-0.021545 -0.039635,0.00963 -0.056862,0.021528 -0.019735,0.013621 -0.038302,0.027265 -0.060115,0.035336 -0.048829,0.01828 -0.079222,0.00869 -0.1173825,0.028432 -0.035334,0.0183 -0.036844,0.048935 -0.056865,0.085297 -0.016367,0.029791 -0.053794,0.072937 -0.07839,0.074734 -0.029791,0.00225 -0.058275,-0.041523 -0.085297,-0.053208 -0.081406,-0.035262 -0.1208659,0.031183 -0.18846314,0.032088 -0.062737,0.00225 -0.1522138,-0.1010495 -0.1490631,-0.1600309 6.238e-4,-0.03599 0.020567,-0.090733 0.024776,-0.1352547 0.00376,-0.035407 0.028024,-0.056631 0.028432,-0.088952 6.238e-4,-0.043177 -0.057287,-0.076521 -0.085297,-0.081641 -0.066414,-0.012207 -0.1586522,0.026808 -0.2347673,-0.00366 -0.014557,-0.02409 0.017032,-0.040742 0.025184,-0.064174 0.0046,-0.013309 0.00215,-0.031246 0.0069,-0.045897 0.00844,-0.022638 0.032034,-0.04019 0.042649,-0.064176 0.00794,-0.0183 0.00988,-0.044713 0.017864,-0.067424 0.00925,-0.025858 0.02643,-0.042382 0.02843,-0.060518 0.00264,-0.023944 -0.00643,-0.051634 -0.025181,-0.067424 z M 1.5875225,3.0621155 c 0.024092,0.00225 0.027072,0.052048 0.00244,0.056051 -0.026579,0.00414 -0.039974,-0.041687 -0.014224,-0.053614 0.00431,-0.00225 0.00832,-0.00266 0.01177,-0.00244 z"
       inkscape:connector-curvature="0" />
  </g>
</svg>
