<?xml version="1.0" encoding="UTF-8" standalone="no"?>
<!-- Created with Inkscape (http://www.inkscape.org/) -->

<svg
   xmlns:dc="http://purl.org/dc/elements/1.1/"
   xmlns:cc="http://creativecommons.org/ns#"
   xmlns:rdf="http://www.w3.org/1999/02/22-rdf-syntax-ns#"
   xmlns:svg="http://www.w3.org/2000/svg"
   xmlns="http://www.w3.org/2000/svg"
   xmlns:sodipodi="http://sodipodi.sourceforge.net/DTD/sodipodi-0.dtd"
   xmlns:inkscape="http://www.inkscape.org/namespaces/inkscape"
   width="32"
   height="32"
   viewBox="0 0 32 32"
   version="1.1"
   id="svg8"
   inkscape:version="0.92+devel 15703 custom"
   sodipodi:docname="preferences-system-login.svg">
  <defs
     id="ol-defs">
    <style
       id="current-color-scheme">      .ColorScheme-Text {
        color:#d0d0d0;
        stop-color:#d0d0d0;
      }
      .ColorScheme-Background {
        color:#212121;
        stop-color:#212121;
      }
      .ColorScheme-Highlight {
        color:#0039a9;
        stop-color:#0039a9;
      }
      .ColorScheme-ViewText {
        color:#d0d0d0;
        stop-color:#d0d0d0;
      }
      .ColorScheme-ViewBackground {
        color:#19191b;
        stop-color:#19191b;
      }
      .ColorScheme-ViewHover {
        color:#005cc7;
        stop-color:#005cc7;
      }
      .ColorScheme-ViewFocus{
        color:#002466;
        stop-color:#002466;
      }
      .ColorScheme-ButtonText {
        color:#d0d0d0;
        stop-color:#d0d0d0;
      }
      .ColorScheme-ButtonBackground {
        color:#232323;
        stop-color:#232323;                             
      }                                                 
      .ColorScheme-ButtonHover {                        
        color:#005cc7;                                  
        stop-color:#005cc7;                             
      }                                                 
      .ColorScheme-ButtonFocus{                         
        color:#0039a9;                                  
        stop-color:#0039a9;                             
      }</style>
    <style
       id="current-color-scheme-75">      .ColorScheme-Text {
        color:#d0d0d0;
        stop-color:#d0d0d0;
      }
      .ColorScheme-Background {
        color:#212121;
        stop-color:#212121;
      }
      .ColorScheme-Highlight {
        color:#0039a9;
        stop-color:#0039a9;
      }
      .ColorScheme-ViewText {
        color:#d0d0d0;
        stop-color:#d0d0d0;
      }
      .ColorScheme-ViewBackground {
        color:#19191b;
        stop-color:#19191b;
      }
      .ColorScheme-ViewHover {
        color:#005cc7;
        stop-color:#005cc7;
      }
      .ColorScheme-ViewFocus{
        color:#002466;
        stop-color:#002466;
      }
      .ColorScheme-ButtonText {
        color:#d0d0d0;
        stop-color:#d0d0d0;
      }
      .ColorScheme-ButtonBackground {
        color:#232323;
        stop-color:#232323;                             
      }                                                 
      .ColorScheme-ButtonHover {                        
        color:#005cc7;                                  
        stop-color:#005cc7;                             
      }                                                 
      .ColorScheme-ButtonFocus{                         
        color:#0039a9;                                  
        stop-color:#0039a9;                             
      }</style>
    <style
       id="current-color-scheme-7">      .ColorScheme-Text {
        color:#d0d0d0;
        stop-color:#d0d0d0;
      }
      .ColorScheme-Background {
        color:#212121;
        stop-color:#212121;
      }
      .ColorScheme-Highlight {
        color:#0039a9;
        stop-color:#0039a9;
      }
      .ColorScheme-ViewText {
        color:#d0d0d0;
        stop-color:#d0d0d0;
      }
      .ColorScheme-ViewBackground {
        color:#19191b;
        stop-color:#19191b;
      }
      .ColorScheme-ViewHover {
        color:#005cc7;
        stop-color:#005cc7;
      }
      .ColorScheme-ViewFocus{
        color:#002466;
        stop-color:#002466;
      }
      .ColorScheme-ButtonText {
        color:#d0d0d0;
        stop-color:#d0d0d0;
      }
      .ColorScheme-ButtonBackground {
        color:#232323;
        stop-color:#232323;                             
      }                                                 
      .ColorScheme-ButtonHover {                        
        color:#005cc7;                                  
        stop-color:#005cc7;                             
      }                                                 
      .ColorScheme-ButtonFocus{                         
        color:#0039a9;                                  
        stop-color:#0039a9;                             
      }</style>
  </defs>
  <sodipodi:namedview
     id="base"
     pagecolor="#002266"
     bordercolor="#ffffff"
     borderopacity="0.46666667"
     inkscape:pageopacity="0"
     inkscape:pageshadow="2"
     inkscape:zoom="12.859375"
     inkscape:cx="31.399413"
     inkscape:cy="11.170575"
     inkscape:document-units="px"
     inkscape:current-layer="g4348"
     inkscape:document-rotation="0"
     showgrid="false"
     inkscape:showpageshadow="false"
     borderlayer="true"
     units="px"
     fit-margin-top="0"
     fit-margin-left="0"
     fit-margin-right="0"
     fit-margin-bottom="0"
     inkscape:window-width="1920"
     inkscape:window-height="1054"
     inkscape:window-x="0"
     inkscape:window-y="0"
     inkscape:window-maximized="1"
     inkscape:snap-page="true" />
  <metadata
     id="metadata5">
    <rdf:RDF>
      <cc:Work
         rdf:about="">
        <dc:format>image/svg+xml</dc:format>
        <dc:type
           rdf:resource="http://purl.org/dc/dcmitype/StillImage" />
        <dc:title></dc:title>
      </cc:Work>
    </rdf:RDF>
  </metadata>
  <rect
     style="fill:none;fill-opacity:0.74651441;stroke-width:23.61599922;stroke-opacity:0.3596773"
     id="rect4264"
     width="32"
     height="32"
     x="0"
     y="0"
     inkscape:label="#boundary" />
  <g
     id="g4348"
     inkscape:label="#preferences-system-login"
     style="opacity:0.6">
    <path
       style="opacity:0.77575755;vector-effect:none;fill:#d0d0d0;stroke-width:1.49136376;stroke-linecap:square"
       d="M 1.8437501,0.883789 C 0.8218251,0.883789 1e-7,1.707568 1e-7,2.729492 v 21.173047 c 0,1.021924 0.821825,1.845703 1.84375,1.845703 H 10.75 V 28.05957 H 8.1601561 c -0.769129,0 -1.386719,0.619543 -1.386719,1.388672 v 0.279297 c 0,0.769128 0.61759,1.388672 1.386719,1.388672 H 23.839844 c 0.769129,0 1.386718,-0.619544 1.386718,-1.388672 v -0.279297 c 0,-0.769129 -0.617589,-1.388672 -1.386718,-1.388672 H 21.25 v -2.311328 h 8.904297 C 31.176221,25.748242 32,24.924463 32,23.902539 V 2.729492 C 32,1.707567 31.176221,0.883789 30.154297,0.883789 Z m 2.8125,3.275391 H 27.585938 c 0.681502,0 1.228515,0.548966 1.228515,1.230468 v 16.073438 c 0,0.681501 -0.547014,1.228516 -1.228515,1.228516 H 4.6562501 c -0.681501,0 -1.230469,-0.547015 -1.230469,-1.228516 V 5.389648 c 0,-0.681502 0.548968,-1.230469 1.230469,-1.230468 z"
       id="rect4264-5"
       inkscape:connector-curvature="0"
       sodipodi:nodetypes="ssssccssssssssccssssssssssssss"
       inkscape:label="#2" />
    <path
       inkscape:label="#1"
       id="rect7824"
       d="m 4.8797891,13.270612 c 0,-0.939476 0.7615957,-1.701072 1.7010713,-1.701072 0.1087591,7.15e-4 0.2171992,0.01186 0.3238309,0.03328 v -0.0026 c 0.00424,5.5e-4 0.0085,8.45e-4 0.012771,8.82e-4 0.058717,0 0.1063169,-0.0476 0.1063169,-0.106317 v 0.0076 c 0.067354,-1.8372093 1.5490145,-3.3002389 3.3997018,-3.3002389 1.60686,0 2.946434,1.1029372 3.306624,2.5960959 v -0.04449 c 0,0.01844 9.6e-4,0.03662 0.0025,0.05466 0.01221,0.05132 0.0232,0.103112 0.03307,0.155323 0.08684,0.249101 0.323636,0.427913 0.602342,0.427915 0.290447,-3e-6 0.535555,-0.194113 0.612673,-0.459686 0.0021,-0.0071 0.004,-0.01148 0.0059,-0.01376 0.04977,-0.148087 0.177552,-0.253229 0.328555,-0.253229 0.194507,0 0.351084,0.174073 0.351084,0.390278 v 0.608883 h 0.349009 l 0.6379,0.265793 0.558995,-0.193115 0.307356,0.257207 h 2.712315 l 0.357347,0.334519 1.192539,-0.334519 -0.0081,0.0033 1.294234,0.581888 0.704764,-0.516374 0.888433,0.212634 0.887135,-0.398689 1.287799,1.160588 -0.0027,0.798467 -1.062548,1.175686 h -10.10453 v 0.543888 c 0,0.216206 -0.156578,0.390279 -0.351085,0.390279 -0.158189,0 -0.291266,-0.115116 -0.335459,-0.27441 -10e-4,-0.0017 -0.0021,-0.0031 -0.0029,-0.0055 -0.08122,-0.25892 -0.323067,-0.446757 -0.608779,-0.44676 -0.278706,3e-6 -0.515501,0.178815 -0.602342,0.427916 -0.0099,0.0522 -0.02086,0.103961 -0.03307,0.15527 -0.0015,0.01806 -0.0025,0.03626 -0.0025,0.05472 v -0.04449 c -0.3602,1.493145 -1.699774,2.596096 -3.306623,2.596096 -1.8777761,0 -3.3906527,-1.506133 -3.4018832,-3.38117 v 0.01879 c 0,-0.05872 -0.0476,-0.106317 -0.106317,-0.106317 -0.00427,2.6e-5 -0.00854,3.32e-4 -0.01277,8.82e-4 v -0.002 c -0.105927,0.02118 -0.2136301,0.03221 -0.3216505,0.03296 -0.9394757,0 -1.7010714,-0.761595 -1.7010714,-1.701071 z m 2.1418094,1.775566 v 0.0042 h -2.127e-4 c 1.063e-4,-0.0014 1.595e-4,-0.0028 2.127e-4,-0.0042 z m 0.00218,-3.551392 c -5.31e-5,-0.0014 -1.063e-4,-0.0028 -2.126e-4,-0.0042 h 2.126e-4 z m -1.548604,1.775826 c 5.6e-6,0.610651 0.4950346,1.10568 1.1056857,1.105686 0.6106512,-6e-6 1.1056805,-0.495035 1.105686,-1.105686 -4.571e-4,-0.05951 -0.00572,-0.11888 -0.015729,-0.177541 -0.024449,-0.130658 -0.070523,-0.259112 -0.1347652,-0.377197 -0.1975712,-0.34064 -0.5614022,-0.550496 -0.9551915,-0.550948 -0.6106511,6e-6 -1.1056801,0.495035 -1.105686,1.105686 z"
       style="opacity:1;fill:#ffffff;fill-opacity:1;stroke:none;stroke-width:0.51236206;stroke-linecap:square;stroke-linejoin:round;stroke-miterlimit:4;stroke-dasharray:none;stroke-opacity:1;shape-rendering:crispEdges"
       inkscape:connector-curvature="0"
       sodipodi:nodetypes="cccccccscccccccsscccccccccccccccccsscccccccsccccccccccccccccccccccc" />
  </g>
</svg>
