<?xml version="1.0" encoding="UTF-8" standalone="no"?>
<!-- Created with Inkscape (http://www.inkscape.org/) -->

<svg
   xmlns:dc="http://purl.org/dc/elements/1.1/"
   xmlns:cc="http://creativecommons.org/ns#"
   xmlns:rdf="http://www.w3.org/1999/02/22-rdf-syntax-ns#"
   xmlns:svg="http://www.w3.org/2000/svg"
   xmlns="http://www.w3.org/2000/svg"
   xmlns:sodipodi="http://sodipodi.sourceforge.net/DTD/sodipodi-0.dtd"
   xmlns:inkscape="http://www.inkscape.org/namespaces/inkscape"
   width="32"
   height="32"
   viewBox="0 0 32 32"
   version="1.1"
   id="svg8"
   inkscape:version="0.92+devel 15700 custom"
   sodipodi:docname="preferences-desktop-default-applications.svg">
  <defs
     id="ol-defs">
    <style
       id="current-color-scheme">      .ColorScheme-Text {
        color:#d0d0d0;
        stop-color:#d0d0d0;
      }
      .ColorScheme-Background {
        color:#212121;
        stop-color:#212121;
      }
      .ColorScheme-Highlight {
        color:#0039a9;
        stop-color:#0039a9;
      }
      .ColorScheme-ViewText {
        color:#d0d0d0;
        stop-color:#d0d0d0;
      }
      .ColorScheme-ViewBackground {
        color:#19191b;
        stop-color:#19191b;
      }
      .ColorScheme-ViewHover {
        color:#005cc7;
        stop-color:#005cc7;
      }
      .ColorScheme-ViewFocus{
        color:#002466;
        stop-color:#002466;
      }
      .ColorScheme-ButtonText {
        color:#d0d0d0;
        stop-color:#d0d0d0;
      }
      .ColorScheme-ButtonBackground {
        color:#232323;
        stop-color:#232323;                             
      }                                                 
      .ColorScheme-ButtonHover {                        
        color:#005cc7;                                  
        stop-color:#005cc7;                             
      }                                                 
      .ColorScheme-ButtonFocus{                         
        color:#0039a9;                                  
        stop-color:#0039a9;                             
      }</style>
    <style
       id="current-color-scheme-7">      .ColorScheme-Text {
        color:#d0d0d0;
        stop-color:#d0d0d0;
      }
      .ColorScheme-Background {
        color:#212121;
        stop-color:#212121;
      }
      .ColorScheme-Highlight {
        color:#0039a9;
        stop-color:#0039a9;
      }
      .ColorScheme-ViewText {
        color:#d0d0d0;
        stop-color:#d0d0d0;
      }
      .ColorScheme-ViewBackground {
        color:#19191b;
        stop-color:#19191b;
      }
      .ColorScheme-ViewHover {
        color:#005cc7;
        stop-color:#005cc7;
      }
      .ColorScheme-ViewFocus{
        color:#002466;
        stop-color:#002466;
      }
      .ColorScheme-ButtonText {
        color:#d0d0d0;
        stop-color:#d0d0d0;
      }
      .ColorScheme-ButtonBackground {
        color:#232323;
        stop-color:#232323;                             
      }                                                 
      .ColorScheme-ButtonHover {                        
        color:#005cc7;                                  
        stop-color:#005cc7;                             
      }                                                 
      .ColorScheme-ButtonFocus{                         
        color:#0039a9;                                  
        stop-color:#0039a9;                             
      }</style>
  </defs>
  <sodipodi:namedview
     id="base"
     pagecolor="#002266"
     bordercolor="#ffffff"
     borderopacity="0.46666667"
     inkscape:pageopacity="0"
     inkscape:pageshadow="2"
     inkscape:zoom="12.859375"
     inkscape:cx="31.399413"
     inkscape:cy="11.170575"
     inkscape:document-units="px"
     inkscape:current-layer="svg8"
     inkscape:document-rotation="0"
     showgrid="false"
     inkscape:showpageshadow="false"
     borderlayer="true"
     units="px"
     fit-margin-top="0"
     fit-margin-left="0"
     fit-margin-right="0"
     fit-margin-bottom="0"
     inkscape:window-width="1920"
     inkscape:window-height="1054"
     inkscape:window-x="0"
     inkscape:window-y="0"
     inkscape:window-maximized="1"
     inkscape:snap-page="true" />
  <metadata
     id="metadata5">
    <rdf:RDF>
      <cc:Work
         rdf:about="">
        <dc:format>image/svg+xml</dc:format>
        <dc:type
           rdf:resource="http://purl.org/dc/dcmitype/StillImage" />
        <dc:title></dc:title>
      </cc:Work>
    </rdf:RDF>
  </metadata>
  <g
     id="g4297"
     inkscape:label="#preferences-desktp-default-applications">
    <rect
       inkscape:label="#boundary"
       y="0"
       x="0"
       height="32"
       width="32"
       id="rect4264"
       style="fill:none;fill-opacity:0.74651441;stroke-width:23.61599922;stroke-opacity:0.3596773"
       sodipodi:insensitive="true" />
    <path
       inkscape:connector-curvature="0"
       style="opacity:0.6;vector-effect:none;fill:#d0d0d0;stroke-width:1.31656802;stroke-linecap:square"
       d="m 19.943182,3.1999995 -0.954547,2.127273 a 6.0947548,6.0947548 0 0 0 -1.252271,0.275 l -1.768182,-1.509091 -1.881819,1.322727 0.829546,2.184091 a 6.0947548,6.0947548 0 0 0 -0.68409,1.079545 l -2.325001,0.179546 -0.393183,2.2659085 2.127274,0.956818 a 6.0947548,6.0947548 0 0 0 0.275,1.25 l -1.509091,1.770455 1.327273,1.877273 2.177273,-0.827273 a 6.0947548,6.0947548 0 0 0 1.081819,0.684091 l 0.184089,2.322728 2.263636,0.393181 0.954546,-2.125001 A 6.0947548,6.0947548 0 0 0 21.65,17.149999 l 1.765909,1.509091 1.881817,-1.325 -0.831817,-2.179545 a 6.0947548,6.0947548 0 0 0 0.686363,-1.079546 l 2.325,-0.181818 0.39091,-2.268182 -2.127273,-0.952273 A 6.0947548,6.0947548 0 0 0 25.463635,9.4204535 L 26.975,7.6499995 25.65,5.7704535 23.468182,6.6022725 a 6.0947548,6.0947548 0 0 0 -1.077273,-0.686364 l -0.184092,-2.322727 z m -0.25,5.795455 a 2.3820774,2.3820774 0 0 1 0.404544,0.03409 2.3820774,2.3820774 0 0 1 1.940911,2.7545445 2.3820774,2.3820774 0 0 1 -2.754545,1.94091 2.3820774,2.3820774 0 0 1 -1.938637,-2.754546 2.3820774,2.3820774 0 0 1 2.347727,-1.9749985 z m -9.363637,6.1909085 -0.8249995,1.761364 a 5.077715,5.077715 0 0 0 -1.043183,0.213636 L 7.0045445,15.875 l -1.581818,1.077272 0.661364,1.827273 a 5.077715,5.077715 0 0 0 -0.590909,0.888637 L 3.5590905,19.790908 3.1999995,21.672727 4.9636355,22.5 a 5.077715,5.077715 0 0 0 0.213637,1.040909 l -1.286364,1.454545 1.077272,1.586365 1.827274,-0.661363 a 5.077715,5.077715 0 0 0 0.888636,0.588636 l 0.122727,1.93409 1.881819,0.356819 0.8249995,-1.756819 a 5.077715,5.077715 0 0 0 1.043183,-0.215908 l 1.454545,1.281818 1.584091,-1.075 -0.659092,-1.825001 A 5.077715,5.077715 0 0 0 14.525,24.315908 l 1.931818,-0.120454 0.361364,-1.881818 -1.761364,-0.825 A 5.077715,5.077715 0 0 0 14.840909,20.445453 L 16.127273,18.990908 15.05,17.404544 13.225,18.068181 A 5.077715,5.077715 0 0 0 12.331818,17.477272 L 12.211363,15.543181 Z M 24.590908,18.85 23.7,20.138636 a 3.6921364,3.6921364 0 0 0 -0.888636,0.122727 l -1.209092,-0.986364 -1.727272,1.354546 0.668182,1.413636 a 3.6921364,3.6921364 0 0 0 -0.334091,0.831818 l -1.461365,0.554546 0.309091,2.175 1.559092,0.127272 a 3.6921364,3.6921364 0 0 0 0.252272,0.370456 3.6921364,3.6921364 0 0 0 0.3,0.331818 l -0.25,1.547727 2.038637,0.818182 0.890909,-1.288637 a 3.6921364,3.6921364 0 0 0 0.888636,-0.122727 L 25.945454,28.375 27.672727,27.020454 27.004545,25.606817 A 3.6921364,3.6921364 0 0 0 27.338636,24.775 l 1.461365,-0.554546 -0.309092,-2.175001 -1.559092,-0.127271 a 3.6921364,3.6921364 0 0 0 -0.252271,-0.370455 3.6921364,3.6921364 0 0 0 -0.3,-0.331817 l 0.25,-1.547728 z m -14.575,1.15909 A 1.9845771,1.9845771 0 0 1 11.65,20.877272 1.9845771,1.9845771 0 0 1 11.125,23.634091 1.9845771,1.9845771 0 0 1 8.3681815,23.10909 a 1.9845771,1.9845771 0 0 1 0.525,-2.756818 1.9845771,1.9845771 0 0 1 1.1227265,-0.343182 z m 13.81591,2.163637 a 1.6535056,1.6535056 0 0 1 1.243181,0.631819 1.6535056,1.6535056 0 0 1 -0.281817,2.322727 1.6535056,1.6535056 0 0 1 -2.320455,-0.281818 1.6535056,1.6535056 0 0 1 0.281818,-2.322727 1.6535056,1.6535056 0 0 1 1.077273,-0.350001 z"
       id="path4264"
       inkscape:label="#glyph" />
  </g>
</svg>
