<?xml version="1.0" encoding="UTF-8" standalone="no"?>
<!-- Created with Inkscape (http://www.inkscape.org/) -->

<svg
   xmlns:dc="http://purl.org/dc/elements/1.1/"
   xmlns:cc="http://creativecommons.org/ns#"
   xmlns:rdf="http://www.w3.org/1999/02/22-rdf-syntax-ns#"
   xmlns:svg="http://www.w3.org/2000/svg"
   xmlns="http://www.w3.org/2000/svg"
   xmlns:sodipodi="http://sodipodi.sourceforge.net/DTD/sodipodi-0.dtd"
   xmlns:inkscape="http://www.inkscape.org/namespaces/inkscape"
   width="32"
   height="32"
   viewBox="0 0 32 32"
   version="1.1"
   id="svg8"
   inkscape:version="0.92+devel (c0065a33f9, 2017-07-22, custom)"
   sodipodi:docname="preferences-desktop-user-password.svg">
  <defs
     id="ol-defs">
    <style
       id="current-color-scheme">      .ColorScheme-Text {
        color:#d0d0d0;
        stop-color:#d0d0d0;
      }
      .ColorScheme-Background {
        color:#212121;
        stop-color:#212121;
      }
      .ColorScheme-Highlight {
        color:#0039a9;
        stop-color:#0039a9;
      }
      .ColorScheme-ViewText {
        color:#d0d0d0;
        stop-color:#d0d0d0;
      }
      .ColorScheme-ViewBackground {
        color:#19191b;
        stop-color:#19191b;
      }
      .ColorScheme-ViewHover {
        color:#005cc7;
        stop-color:#005cc7;
      }
      .ColorScheme-ViewFocus{
        color:#002466;
        stop-color:#002466;
      }
      .ColorScheme-ButtonText {
        color:#d0d0d0;
        stop-color:#d0d0d0;
      }
      .ColorScheme-ButtonBackground {
        color:#232323;
        stop-color:#232323;                             
      }                                                 
      .ColorScheme-ButtonHover {                        
        color:#005cc7;                                  
        stop-color:#005cc7;                             
      }                                                 
      .ColorScheme-ButtonFocus{                         
        color:#0039a9;                                  
        stop-color:#0039a9;                             
      }</style>
  </defs>
  <sodipodi:namedview
     id="base"
     pagecolor="#002266"
     bordercolor="#ffffff"
     borderopacity="0.46666667"
     inkscape:pageopacity="0"
     inkscape:pageshadow="2"
     inkscape:zoom="12.859375"
     inkscape:cx="31.399413"
     inkscape:cy="11.170575"
     inkscape:document-units="px"
     inkscape:current-layer="g4267"
     inkscape:document-rotation="0"
     showgrid="false"
     inkscape:showpageshadow="false"
     borderlayer="true"
     units="px"
     fit-margin-top="0"
     fit-margin-left="0"
     fit-margin-right="0"
     fit-margin-bottom="0"
     inkscape:window-width="1920"
     inkscape:window-height="1051"
     inkscape:window-x="0"
     inkscape:window-y="0"
     inkscape:window-maximized="1"
     inkscape:snap-page="true" />
  <metadata
     id="metadata5">
    <rdf:RDF>
      <cc:Work
         rdf:about="">
        <dc:format>image/svg+xml</dc:format>
        <dc:type
           rdf:resource="http://purl.org/dc/dcmitype/StillImage" />
        <dc:title></dc:title>
      </cc:Work>
    </rdf:RDF>
  </metadata>
  <g
     id="g4267"
     inkscape:label="#preferences-desktop-user-password">
    <rect
       inkscape:label="#boundary"
       y="0"
       x="0"
       height="32"
       width="32"
       id="rect4264"
       style="fill:none;fill-opacity:0.74651441;stroke-width:23.61599922;stroke-opacity:0.3596773" />
    <path
       style="opacity:0.6;fill:#ffffff;stroke-width:0.20109841"
       d="M 16,3.1992188 C 8.9307994,3.1993267 3.1993257,8.9307991 3.1992188,16 3.1993257,23.0692 8.9307999,28.800673 16,28.800781 23.0692,28.800673 28.800674,23.0692 28.800781,16 28.800674,8.9307995 23.0692,3.1993268 16,3.1992188 Z M 9.1425781,13.992188 h 1.2109379 l -0.09961,0.828124 c -0.02191,0.200826 -0.06734,0.428 -0.136718,0.683594 0.138749,-0.06938 0.229617,-0.117018 0.273437,-0.142578 0.153356,-0.08398 0.271232,-0.143177 0.351563,-0.179687 l 0.761718,-0.361329 0.376953,1.154297 -0.84375,0.175782 c -0.153356,0.02922 -0.380531,0.0496 -0.683593,0.06055 0.204476,0.160658 0.365834,0.306051 0.486328,0.4375 l 0.570312,0.61914 -0.986328,0.740234 -0.404297,-0.740234 c -0.058418,-0.105891 -0.1537075,-0.312428 -0.285156,-0.61914 -0.1424025,0.335923 -0.2376893,0.54246 -0.2851562,0.61914 l -0.4101563,0.740234 -1.0136719,-0.740234 0.6132813,-0.61914 c 0.1716132,-0.171615 0.3395956,-0.317006 0.5039062,-0.4375 -0.1679619,-0.01461 -0.3882585,-0.04849 -0.6621093,-0.09961 l -0.8496094,-0.136719 0.3945312,-1.154297 0.7617188,0.34375 c 0.08033,0.03651 0.278036,0.149974 0.5957031,0.339844 -0.069375,-0.306713 -0.1126024,-0.533887 -0.1308594,-0.683594 z m 6.2441409,0 h 1.210937 l -0.09961,0.828124 c -0.02191,0.200826 -0.06734,0.428 -0.136719,0.683594 0.138751,-0.06938 0.229618,-0.117018 0.273438,-0.142578 0.153356,-0.08398 0.271232,-0.143177 0.351562,-0.179687 l 0.761719,-0.361329 0.376953,1.154297 -0.84375,0.175782 c -0.153356,0.02922 -0.380532,0.0496 -0.683594,0.06055 0.204476,0.160658 0.365834,0.306051 0.486328,0.4375 l 0.570313,0.61914 -0.986328,0.740234 -0.404297,-0.740234 c -0.05842,-0.105889 -0.153706,-0.312428 -0.285156,-0.61914 -0.142403,0.335923 -0.237687,0.54246 -0.285157,0.61914 l -0.410156,0.740234 -1.013672,-0.740234 0.613281,-0.61914 c 0.171614,-0.171615 0.339596,-0.317006 0.503907,-0.4375 -0.167962,-0.01461 -0.388259,-0.04849 -0.66211,-0.09961 L 13.875,15.974609 l 0.394531,-1.154297 0.761719,0.34375 c 0.08033,0.03651 0.278036,0.149974 0.595703,0.339844 -0.06938,-0.306713 -0.112599,-0.533887 -0.130859,-0.683594 z m 6.24414,0 h 1.208985 l -0.09766,0.828124 c -0.02191,0.200826 -0.06734,0.428 -0.136719,0.683594 0.138751,-0.06938 0.229617,-0.117018 0.273437,-0.142578 0.153357,-0.08398 0.271233,-0.143177 0.351563,-0.179687 l 0.759765,-0.361329 0.378907,1.154297 -0.84375,0.175782 c -0.153357,0.02922 -0.382486,0.0496 -0.685547,0.06055 0.204475,0.160658 0.367787,0.306051 0.488281,0.4375 l 0.570313,0.61914 -0.986329,0.740234 -0.40625,-0.740234 c -0.05842,-0.105889 -0.151753,-0.312428 -0.283203,-0.61914 -0.142402,0.335923 -0.237686,0.54246 -0.285156,0.61914 l -0.412109,0.740234 -1.011719,-0.740234 0.613281,-0.61914 c 0.171613,-0.171615 0.339596,-0.317006 0.503906,-0.4375 -0.167961,-0.01461 -0.390211,-0.04849 -0.664062,-0.09961 l -0.847656,-0.136719 0.394531,-1.154297 0.759766,0.34375 c 0.08033,0.03651 0.279989,0.149974 0.597656,0.339844 -0.06938,-0.306713 -0.1126,-0.533887 -0.13086,-0.683594 z"
       id="path4267"
       inkscape:connector-curvature="0"
       inkscape:label="#1" />
  </g>
</svg>
