<?xml version="1.0" encoding="UTF-8" standalone="no"?>
<!-- Created with Inkscape (http://www.inkscape.org/) -->

<svg
   xmlns:dc="http://purl.org/dc/elements/1.1/"
   xmlns:cc="http://creativecommons.org/ns#"
   xmlns:rdf="http://www.w3.org/1999/02/22-rdf-syntax-ns#"
   xmlns:svg="http://www.w3.org/2000/svg"
   xmlns="http://www.w3.org/2000/svg"
   xmlns:sodipodi="http://sodipodi.sourceforge.net/DTD/sodipodi-0.dtd"
   xmlns:inkscape="http://www.inkscape.org/namespaces/inkscape"
   width="32"
   height="32"
   viewBox="0 0 32 32"
   version="1.1"
   id="svg8"
   inkscape:version="0.92+devel (0526f3edb8, 2017-07-23, custom)"
   sodipodi:docname="preferences-plugin.svg">
  <defs
     id="ol-defs">
    <style
       id="current-color-scheme">      .ColorScheme-Text {
        color:#d0d0d0;
        stop-color:#d0d0d0;
      }
      .ColorScheme-Background {
        color:#212121;
        stop-color:#212121;
      }
      .ColorScheme-Highlight {
        color:#0039a9;
        stop-color:#0039a9;
      }
      .ColorScheme-ViewText {
        color:#d0d0d0;
        stop-color:#d0d0d0;
      }
      .ColorScheme-ViewBackground {
        color:#19191b;
        stop-color:#19191b;
      }
      .ColorScheme-ViewHover {
        color:#005cc7;
        stop-color:#005cc7;
      }
      .ColorScheme-ViewFocus{
        color:#002466;
        stop-color:#002466;
      }
      .ColorScheme-ButtonText {
        color:#d0d0d0;
        stop-color:#d0d0d0;
      }
      .ColorScheme-ButtonBackground {
        color:#232323;
        stop-color:#232323;                             
      }                                                 
      .ColorScheme-ButtonHover {                        
        color:#005cc7;                                  
        stop-color:#005cc7;                             
      }                                                 
      .ColorScheme-ButtonFocus{                         
        color:#0039a9;                                  
        stop-color:#0039a9;                             
      }</style>
  </defs>
  <sodipodi:namedview
     id="base"
     pagecolor="#002266"
     bordercolor="#ffffff"
     borderopacity="0.46666667"
     inkscape:pageopacity="0"
     inkscape:pageshadow="2"
     inkscape:zoom="12.859375"
     inkscape:cx="31.399413"
     inkscape:cy="11.170575"
     inkscape:document-units="px"
     inkscape:current-layer="g4267"
     inkscape:document-rotation="0"
     showgrid="false"
     inkscape:showpageshadow="false"
     borderlayer="true"
     units="px"
     fit-margin-top="0"
     fit-margin-left="0"
     fit-margin-right="0"
     fit-margin-bottom="0"
     inkscape:window-width="1920"
     inkscape:window-height="1051"
     inkscape:window-x="0"
     inkscape:window-y="0"
     inkscape:window-maximized="1"
     inkscape:snap-page="true" />
  <metadata
     id="metadata5">
    <rdf:RDF>
      <cc:Work
         rdf:about="">
        <dc:format>image/svg+xml</dc:format>
        <dc:type
           rdf:resource="http://purl.org/dc/dcmitype/StillImage" />
        <dc:title />
      </cc:Work>
    </rdf:RDF>
  </metadata>
  <g
     id="g4267"
     inkscape:label="#preferences-plugin">
    <rect
       inkscape:label="#boundary"
       y="0"
       x="0"
       height="32"
       width="32"
       id="rect4264"
       style="fill:none;fill-opacity:0.74651441;stroke-width:23.61599922;stroke-opacity:0.3596773" />
    <path
       inkscape:label="#1"
       sodipodi:nodetypes="ssccscssccscssscccssccsccsscscsss"
       inkscape:connector-curvature="0"
       id="path4288"
       d="m 16.002947,4 c -2.866171,0 -5.187913,1.5644542 -5.187913,3.495588 0,1.2346418 1.137101,1.7568033 2.380948,2.654578 0.762074,0.550041 0.734795,0.724148 0.736211,1.051008 0.0039,0.914661 -1.292714,1.857751 -3.193738,1.857751 H 5.8710487 v 2.722399 c 0,1.497776 0.2209102,3.202051 1.5588065,3.202051 0.2721895,0 0.889103,0.266864 1.2856893,-0.314211 0.324601,-0.475596 1.1134108,-1.482464 2.3594275,-1.479368 1.844454,0.0046 3.162096,1.97459 3.162096,3.369309 0,1.394721 -1.317642,3.36473 -3.162096,3.369311 -1.2460227,0.0032 -2.0348311,-1.000514 -2.3594275,-1.476109 -0.3965863,-0.581072 -1.0134965,-0.426558 -1.2856893,-0.426558 -1.3378963,0 -1.5588065,1.808426 -1.5588065,3.306202 V 28 H 16.002947 26.128951 v -2.668049 c 0,-1.497776 -0.220914,-3.306202 -1.558808,-3.306202 -0.272196,0 -1.322531,-0.182527 -1.664646,0.386134 -0.280017,0.465442 -0.955538,1.447624 -2.030425,1.444596 -1.591125,-0.0044 -2.727797,-1.93243 -2.727797,-3.297372 0,-1.364942 1.136672,-3.292886 2.727797,-3.297371 1.074885,-0.0031 1.750408,0.982341 2.030425,1.447782 0.342116,0.568663 1.392456,0.382947 1.664646,0.382947 1.337894,0 1.558808,-1.81336 1.558808,-3.311141 v -2.722399 h -4.861512 c -1.901026,0 -3.197707,-0.943087 -3.193738,-1.857751 0.0014,-0.326857 -0.0259,-0.500964 0.736208,-1.051008 C 20.053761,9.2523891 21.19086,8.7302298 21.19086,7.495588 21.19086,5.5644542 18.869116,4 16.002947,4 Z"
       style="opacity:0.6;fill:#ffffff;stroke:none;stroke-width:1.09090912px;stroke-linecap:butt;stroke-linejoin:miter;stroke-opacity:1" />
  </g>
</svg>
