<?xml version="1.0" encoding="UTF-8" standalone="no"?>
<!-- Created with Inkscape (http://www.inkscape.org/) -->

<svg
   xmlns:dc="http://purl.org/dc/elements/1.1/"
   xmlns:cc="http://creativecommons.org/ns#"
   xmlns:rdf="http://www.w3.org/1999/02/22-rdf-syntax-ns#"
   xmlns:svg="http://www.w3.org/2000/svg"
   xmlns="http://www.w3.org/2000/svg"
   xmlns:sodipodi="http://sodipodi.sourceforge.net/DTD/sodipodi-0.dtd"
   xmlns:inkscape="http://www.inkscape.org/namespaces/inkscape"
   width="32"
   height="32"
   viewBox="0 0 32 32"
   version="1.1"
   id="svg8"
   inkscape:version="0.92+devel 15703 custom"
   sodipodi:docname="preferences-system-network-sharing.svg">
  <defs
     id="ol-defs">
    <style
       id="current-color-scheme">      .ColorScheme-Text {
        color:#d0d0d0;
        stop-color:#d0d0d0;
      }
      .ColorScheme-Background {
        color:#212121;
        stop-color:#212121;
      }
      .ColorScheme-Highlight {
        color:#0039a9;
        stop-color:#0039a9;
      }
      .ColorScheme-ViewText {
        color:#d0d0d0;
        stop-color:#d0d0d0;
      }
      .ColorScheme-ViewBackground {
        color:#19191b;
        stop-color:#19191b;
      }
      .ColorScheme-ViewHover {
        color:#005cc7;
        stop-color:#005cc7;
      }
      .ColorScheme-ViewFocus{
        color:#002466;
        stop-color:#002466;
      }
      .ColorScheme-ButtonText {
        color:#d0d0d0;
        stop-color:#d0d0d0;
      }
      .ColorScheme-ButtonBackground {
        color:#232323;
        stop-color:#232323;                             
      }                                                 
      .ColorScheme-ButtonHover {                        
        color:#005cc7;                                  
        stop-color:#005cc7;                             
      }                                                 
      .ColorScheme-ButtonFocus{                         
        color:#0039a9;                                  
        stop-color:#0039a9;                             
      }</style>
  </defs>
  <sodipodi:namedview
     id="base"
     pagecolor="#002266"
     bordercolor="#ffffff"
     borderopacity="0.46666667"
     inkscape:pageopacity="0"
     inkscape:pageshadow="2"
     inkscape:zoom="25.6875"
     inkscape:cx="16"
     inkscape:cy="16"
     inkscape:document-units="px"
     inkscape:current-layer="g4267"
     inkscape:document-rotation="0"
     showgrid="false"
     inkscape:showpageshadow="false"
     borderlayer="true"
     units="px"
     fit-margin-top="0"
     fit-margin-left="0"
     fit-margin-right="0"
     fit-margin-bottom="0"
     inkscape:window-width="1920"
     inkscape:window-height="1054"
     inkscape:window-x="0"
     inkscape:window-y="0"
     inkscape:window-maximized="1"
     inkscape:snap-page="true" />
  <metadata
     id="metadata5">
    <rdf:RDF>
      <cc:Work
         rdf:about="">
        <dc:format>image/svg+xml</dc:format>
        <dc:type
           rdf:resource="http://purl.org/dc/dcmitype/StillImage" />
        <dc:title></dc:title>
      </cc:Work>
    </rdf:RDF>
  </metadata>
  <g
     id="g4267"
     inkscape:label="#preferences-system-network-sharing">
    <rect
       inkscape:label="#boundary"
       y="0"
       x="0"
       height="32"
       width="32"
       id="rect4264"
       style="fill:none;fill-opacity:0.74651441;stroke-width:23.61599922;stroke-opacity:0.3596773" />
    <path
       style="opacity:0.6;vector-effect:none;fill:#d0d0d0;stroke-width:1;stroke-linecap:round;stroke-linejoin:round"
       d="m 4.3632812,4.9824219 c -0.6446543,0 -1.1640624,0.5174548 -1.1640624,1.1621093 V 8.1679688 25.855469 c 0,0.644654 0.519408,1.162109 1.1640624,1.162109 H 27.636719 c 0.644655,0 1.164062,-0.517455 1.164062,-1.162109 V 9.3320312 c 0,-0.6446547 -0.519407,-1.1640624 -1.164062,-1.1640624 H 17.986328 L 16.769531,6.1289062 C 16.439032,5.5754177 16.195436,4.9824219 15.550781,4.9824219 Z m 8.3046878,7.7128901 h 6.765625 c 2.149537,0 3.961174,1.446513 4.564453,3.40625 h 1.630859 c 0.768358,10e-7 1.388672,0.61836 1.388672,1.386719 0,0.768359 -0.620314,1.386719 -1.388672,1.386719 H 24 c -0.600998,1.965348 -2.414235,3.421875 -4.566406,3.421875 h -6.765625 c -2.142371,0 -3.9530734,-1.442864 -4.5644534,-3.394531 H 6.4042969 c -0.768359,0 -1.3867188,-0.620313 -1.3867188,-1.388672 0,-0.768358 0.6183598,-1.384766 1.3867188,-1.384766 h 1.6835937 c 0.596455,-1.973757 2.4205164,-3.433594 4.5800784,-3.433594 z m 0,2.773438 c -0.611445,0 -1.141646,0.253693 -1.509766,0.660156 H 13.875 c 0.768359,0 1.384766,0.616408 1.384766,1.384766 0,0.768359 -0.616407,1.388672 -1.384766,1.388672 h -2.681641 c 0.366572,0.384034 0.88413,0.621094 1.47461,0.621094 h 6.765625 c 0.603206,0 1.12662,-0.249582 1.492187,-0.648438 h -2.978515 c -0.768359,0 -1.384766,-0.61836 -1.384766,-1.386719 0,-0.768359 0.616407,-1.386719 1.384766,-1.386719 h 2.970703 C 20.552748,15.710419 20.031956,15.46875 19.433594,15.46875 Z"
       id="rect4311"
       inkscape:connector-curvature="0"
       inkscape:label="#1" />
  </g>
</svg>
