<?xml version="1.0" encoding="UTF-8" standalone="no"?>
<!-- Created with Inkscape (http://www.inkscape.org/) -->

<svg
   xmlns:dc="http://purl.org/dc/elements/1.1/"
   xmlns:cc="http://creativecommons.org/ns#"
   xmlns:rdf="http://www.w3.org/1999/02/22-rdf-syntax-ns#"
   xmlns:svg="http://www.w3.org/2000/svg"
   xmlns="http://www.w3.org/2000/svg"
   xmlns:sodipodi="http://sodipodi.sourceforge.net/DTD/sodipodi-0.dtd"
   xmlns:inkscape="http://www.inkscape.org/namespaces/inkscape"
   width="32"
   height="32"
   viewBox="0 0 32 32"
   version="1.1"
   id="svg8"
   inkscape:version="0.92+devel 15703 custom"
   sodipodi:docname="preferences-plugin.svg">
  <defs
     id="ol-defs">
    <style
       id="current-color-scheme">      .ColorScheme-Text {
        color:#d0d0d0;
        stop-color:#d0d0d0;
      }
      .ColorScheme-Background {
        color:#212121;
        stop-color:#212121;
      }
      .ColorScheme-Highlight {
        color:#0039a9;
        stop-color:#0039a9;
      }
      .ColorScheme-ViewText {
        color:#d0d0d0;
        stop-color:#d0d0d0;
      }
      .ColorScheme-ViewBackground {
        color:#19191b;
        stop-color:#19191b;
      }
      .ColorScheme-ViewHover {
        color:#005cc7;
        stop-color:#005cc7;
      }
      .ColorScheme-ViewFocus{
        color:#002466;
        stop-color:#002466;
      }
      .ColorScheme-ButtonText {
        color:#d0d0d0;
        stop-color:#d0d0d0;
      }
      .ColorScheme-ButtonBackground {
        color:#232323;
        stop-color:#232323;                             
      }                                                 
      .ColorScheme-ButtonHover {                        
        color:#005cc7;                                  
        stop-color:#005cc7;                             
      }                                                 
      .ColorScheme-ButtonFocus{                         
        color:#0039a9;                                  
        stop-color:#0039a9;                             
      }</style>
  </defs>
  <sodipodi:namedview
     id="base"
     pagecolor="#002266"
     bordercolor="#ffffff"
     borderopacity="0.46666667"
     inkscape:pageopacity="0"
     inkscape:pageshadow="2"
     inkscape:zoom="12.859375"
     inkscape:cx="31.399413"
     inkscape:cy="11.170575"
     inkscape:document-units="px"
     inkscape:current-layer="svg8"
     inkscape:document-rotation="0"
     showgrid="false"
     inkscape:showpageshadow="false"
     borderlayer="true"
     units="px"
     fit-margin-top="0"
     fit-margin-left="0"
     fit-margin-right="0"
     fit-margin-bottom="0"
     inkscape:window-width="1920"
     inkscape:window-height="1054"
     inkscape:window-x="0"
     inkscape:window-y="0"
     inkscape:window-maximized="1"
     inkscape:snap-page="true" />
  <metadata
     id="metadata5">
    <rdf:RDF>
      <cc:Work
         rdf:about="">
        <dc:format>image/svg+xml</dc:format>
        <dc:type
           rdf:resource="http://purl.org/dc/dcmitype/StillImage" />
        <dc:title></dc:title>
      </cc:Work>
    </rdf:RDF>
  </metadata>
  <g
     id="g4267"
     inkscape:label="#preferences-plugin">
    <rect
       inkscape:label="#boundary"
       y="0"
       x="0"
       height="32"
       width="32"
       id="rect4264"
       style="fill:none;fill-opacity:0.74651441;stroke-width:23.61599922;stroke-opacity:0.3596773" />
    <path
       inkscape:label="#1"
       sodipodi:nodetypes="ssccscssccscssscccssccsccsscscsss"
       inkscape:connector-curvature="0"
       id="path4288"
       d="m 16.003144,3.1999998 c -3.057248,0 -5.533775,1.6687506 -5.533775,3.728627 0,1.3169513 1.21291,1.873923 2.539679,2.8315507 0.81288,0.5867095 0.783782,0.7724235 0.785292,1.1210735 0.0042,0.975639 -1.378895,1.981601 -3.406653,1.981601 H 5.1957851 v 2.903894 c 0,1.597627 0.2356375,3.299157 1.662727,3.299157 0.2903354,0 1.1514648,-0.215603 1.5489804,-1.109164 0.3253634,-0.731358 1.1160204,-2.279697 2.3649605,-2.274938 1.848778,0.007 3.16951,3.036478 3.16951,5.181247 0,2.144769 -1.320732,5.1742 -3.16951,5.181248 -1.2489461,0.0049 -2.0396031,-1.538571 -2.3649605,-2.269929 -0.3975156,-0.893559 -1.2586403,-1.114175 -1.5489804,-1.114175 -1.4270883,0 -1.662727,1.696262 -1.662727,3.293888 V 28.8 H 16.003144 26.804215 v -2.84592 c 0,-1.597626 -0.235641,-3.293888 -1.662729,-3.293888 -0.290342,0 -1.151464,0.220617 -1.548979,1.114175 -0.325361,0.731358 -1.110267,2.274688 -2.359211,2.269929 -1.848779,-0.007 -3.169512,-3.036479 -3.169512,-5.181248 0,-2.144769 1.320733,-5.1742 3.169512,-5.181247 1.248939,-0.0049 2.03385,1.54358 2.359211,2.274938 0.397517,0.893555 1.258645,1.109164 1.548979,1.109164 1.427088,0 1.662729,-1.701525 1.662729,-3.299157 v -2.903894 h -5.185613 c -2.02776,0 -3.410888,-1.005959 -3.406653,-1.981601 0.0015,-0.348646 -0.02762,-0.534361 0.785288,-1.1210735 1.326776,-0.9576292 2.539682,-1.5145994 2.539682,-2.8315507 0,-2.0598764 -2.476527,-3.728627 -5.533775,-3.728627 z"
       style="opacity:0.6;fill:#ffffff;stroke:none;stroke-width:1px;stroke-linecap:butt;stroke-linejoin:miter;stroke-opacity:1" />
  </g>
</svg>
