<?xml version="1.0" encoding="UTF-8" standalone="no"?>
<!-- Created with Inkscape (http://www.inkscape.org/) -->

<svg
   xmlns:dc="http://purl.org/dc/elements/1.1/"
   xmlns:cc="http://creativecommons.org/ns#"
   xmlns:rdf="http://www.w3.org/1999/02/22-rdf-syntax-ns#"
   xmlns:svg="http://www.w3.org/2000/svg"
   xmlns="http://www.w3.org/2000/svg"
   xmlns:sodipodi="http://sodipodi.sourceforge.net/DTD/sodipodi-0.dtd"
   xmlns:inkscape="http://www.inkscape.org/namespaces/inkscape"
   width="32"
   height="32"
   viewBox="0 0 32 32"
   version="1.1"
   id="svg8"
   inkscape:version="0.92+devel 15703 custom"
   sodipodi:docname="preferences-desktop-accessibility.svg">
  <defs
     id="ol-defs">
    <style
       id="current-color-scheme">      .ColorScheme-Text {
        color:#d0d0d0;
        stop-color:#d0d0d0;
      }
      .ColorScheme-Background {
        color:#212121;
        stop-color:#212121;
      }
      .ColorScheme-Highlight {
        color:#0039a9;
        stop-color:#0039a9;
      }
      .ColorScheme-ViewText {
        color:#d0d0d0;
        stop-color:#d0d0d0;
      }
      .ColorScheme-ViewBackground {
        color:#19191b;
        stop-color:#19191b;
      }
      .ColorScheme-ViewHover {
        color:#005cc7;
        stop-color:#005cc7;
      }
      .ColorScheme-ViewFocus{
        color:#002466;
        stop-color:#002466;
      }
      .ColorScheme-ButtonText {
        color:#d0d0d0;
        stop-color:#d0d0d0;
      }
      .ColorScheme-ButtonBackground {
        color:#232323;
        stop-color:#232323;                             
      }                                                 
      .ColorScheme-ButtonHover {                        
        color:#005cc7;                                  
        stop-color:#005cc7;                             
      }                                                 
      .ColorScheme-ButtonFocus{                         
        color:#0039a9;                                  
        stop-color:#0039a9;                             
      }</style>
  </defs>
  <sodipodi:namedview
     id="base"
     pagecolor="#002266"
     bordercolor="#ffffff"
     borderopacity="0.46666667"
     inkscape:pageopacity="0"
     inkscape:pageshadow="2"
     inkscape:zoom="12.859375"
     inkscape:cx="31.399413"
     inkscape:cy="11.170575"
     inkscape:document-units="px"
     inkscape:current-layer="g4314"
     inkscape:document-rotation="0"
     showgrid="false"
     inkscape:showpageshadow="false"
     borderlayer="true"
     units="px"
     fit-margin-top="0"
     fit-margin-left="0"
     fit-margin-right="0"
     fit-margin-bottom="0"
     inkscape:window-width="1920"
     inkscape:window-height="1054"
     inkscape:window-x="0"
     inkscape:window-y="0"
     inkscape:window-maximized="1"
     inkscape:snap-page="true" />
  <metadata
     id="metadata5">
    <rdf:RDF>
      <cc:Work
         rdf:about="">
        <dc:format>image/svg+xml</dc:format>
        <dc:type
           rdf:resource="http://purl.org/dc/dcmitype/StillImage" />
        <dc:title></dc:title>
      </cc:Work>
    </rdf:RDF>
  </metadata>
  <g
     id="g4314"
     inkscape:label="#preferences-accessibility">
    <rect
       inkscape:label="#boundary"
       y="0"
       x="0"
       height="32"
       width="32"
       id="rect4264"
       style="fill:none;fill-opacity:0.74651441;stroke-width:23.61599922;stroke-opacity:0.3596773" />
    <path
       style="opacity:0.6;fill:#d0d0d0;stroke-width:0.99999994"
       d="m 12.017349,3.2000449 c -1.32712,0 -2.4006857,1.0516106 -2.4006857,2.3443209 0,0.9170754 0.5383347,1.7089834 1.3208347,2.0971084 l 0.5321,9.6310068 c 0.02815,0.475733 0.419395,0.845124 0.892051,0.845124 h 6.742029 c 0.350566,0 0.669819,0.206707 0.813801,0.525783 l 2.889011,6.407169 c 0.203453,0.447543 0.729294,0.647873 1.179986,0.447543 l 2.400742,-1.073558 c 0.450723,-0.200549 0.650961,-0.729324 0.450674,-1.180033 L 26.71897,22.97535 c -0.20033,-0.450752 -0.729359,-0.650994 -1.180047,-0.450752 l -1.320835,0.591578 -2.954731,-6.551029 c -0.143992,-0.319296 -0.46324,-0.525872 -0.813797,-0.525872 h -6.964249 l -0.08761,-1.583816 h 4.619866 c 0.491379,0 0.892051,-0.39758 0.892051,-0.89205 v -0.294228 c 0,-0.491434 -0.397493,-0.89205 -0.892051,-0.89205 H 13.281858 L 13.022022,7.6821121 C 13.845213,7.3095997 14.41805,6.495878 14.41805,5.5506109 c 0,-1.2989554 -1.073657,-2.3506102 -2.400743,-2.3506102 z M 8.9564893,13.671909 c -0.08673,-8.8e-4 -0.175965,0.02199 -0.256932,0.07916 -2.178476,1.480507 -3.6119848,3.975065 -3.615086,6.798286 -0.00617,4.538493 3.696515,8.250644 8.2350127,8.250644 2.917159,0 5.480638,-1.521143 6.945478,-3.809171 0.162771,-0.253325 0.181507,-0.572841 0.05942,-0.845123 l -0.5258,-1.164245 c -0.684827,-1.482625 -0.614843,-1.404392 -1.253407,-2.644834 -0.374148,-0.726799 -0.406333,-0.695681 -1.114676,-0.692767 l -5.619217,0.02313 c -1.789165,0.0073 -1.9420737,-1.65264 -1.9577307,-1.921974 L 9.7188173,14.21244 c -0.01364,-0.252007 -0.540604,-0.538382 -0.762303,-0.540581 z"
       id="path4302"
       inkscape:connector-curvature="0"
       sodipodi:nodetypes="csccsscccccccccsccssssccscccccscccssscccc"
       inkscape:label="#1" />
  </g>
</svg>
