<?xml version="1.0" encoding="UTF-8" standalone="no"?>
<!-- Created with Inkscape (http://www.inkscape.org/) -->

<svg
   xmlns:dc="http://purl.org/dc/elements/1.1/"
   xmlns:cc="http://creativecommons.org/ns#"
   xmlns:rdf="http://www.w3.org/1999/02/22-rdf-syntax-ns#"
   xmlns:svg="http://www.w3.org/2000/svg"
   xmlns="http://www.w3.org/2000/svg"
   xmlns:sodipodi="http://sodipodi.sourceforge.net/DTD/sodipodi-0.dtd"
   xmlns:inkscape="http://www.inkscape.org/namespaces/inkscape"
   width="32"
   height="32"
   viewBox="0 0 32 32"
   version="1.1"
   id="svg8"
   inkscape:version="0.92+devel (0526f3edb8, 2017-07-23, custom)"
   sodipodi:docname="preferences-system-network.svg">
  <defs
     id="ol-defs">
    <style
       id="current-color-scheme">      .ColorScheme-Text {
        color:#d0d0d0;
        stop-color:#d0d0d0;
      }
      .ColorScheme-Background {
        color:#212121;
        stop-color:#212121;
      }
      .ColorScheme-Highlight {
        color:#0039a9;
        stop-color:#0039a9;
      }
      .ColorScheme-ViewText {
        color:#d0d0d0;
        stop-color:#d0d0d0;
      }
      .ColorScheme-ViewBackground {
        color:#19191b;
        stop-color:#19191b;
      }
      .ColorScheme-ViewHover {
        color:#005cc7;
        stop-color:#005cc7;
      }
      .ColorScheme-ViewFocus{
        color:#002466;
        stop-color:#002466;
      }
      .ColorScheme-ButtonText {
        color:#d0d0d0;
        stop-color:#d0d0d0;
      }
      .ColorScheme-ButtonBackground {
        color:#232323;
        stop-color:#232323;                             
      }                                                 
      .ColorScheme-ButtonHover {                        
        color:#005cc7;                                  
        stop-color:#005cc7;                             
      }                                                 
      .ColorScheme-ButtonFocus{                         
        color:#0039a9;                                  
        stop-color:#0039a9;                             
      }</style>
  </defs>
  <sodipodi:namedview
     id="base"
     pagecolor="#002266"
     bordercolor="#ffffff"
     borderopacity="0.46666667"
     inkscape:pageopacity="0"
     inkscape:pageshadow="2"
     inkscape:zoom="12.859375"
     inkscape:cx="31.399413"
     inkscape:cy="11.170575"
     inkscape:document-units="px"
     inkscape:current-layer="g4267"
     inkscape:document-rotation="0"
     showgrid="false"
     inkscape:showpageshadow="false"
     borderlayer="true"
     units="px"
     fit-margin-top="0"
     fit-margin-left="0"
     fit-margin-right="0"
     fit-margin-bottom="0"
     inkscape:window-width="1920"
     inkscape:window-height="1051"
     inkscape:window-x="0"
     inkscape:window-y="0"
     inkscape:window-maximized="1"
     inkscape:snap-page="true" />
  <metadata
     id="metadata5">
    <rdf:RDF>
      <cc:Work
         rdf:about="">
        <dc:format>image/svg+xml</dc:format>
        <dc:type
           rdf:resource="http://purl.org/dc/dcmitype/StillImage" />
        <dc:title />
      </cc:Work>
    </rdf:RDF>
  </metadata>
  <g
     id="g4267"
     inkscape:label="preferences-system-network">
    <rect
       inkscape:label="#boundary"
       y="0"
       x="0"
       height="32"
       width="32"
       id="rect4264"
       style="fill:none;fill-opacity:0.74651441;stroke-width:23.61599922;stroke-opacity:0.3596773"
       sodipodi:insensitive="true" />
    <path
       inkscape:label="#1"
       inkscape:connector-curvature="0"
       id="path1391"
       d="M 16.353572,4.0000028 A 11.999882,11.999882 0 0 0 12.98004,4.4913773 c -0.01599,0.02481 -0.02744,0.05049 -0.02262,0.09741 0.0075,0.112905 0.11001,0.1577535 0.168725,0.1678515 0.09056,0.018345 0.248512,-1.47e-4 0.336568,-0.040875 0.164007,-0.07584 0.241245,-0.324417 0.378317,-0.2939565 0.107655,0.02442 0.235111,0.3797145 0.25221,0.5044215 0.01712,0.131805 -0.0068,0.2143874 0,0.3365699 0.01455,0.2056065 0.251955,0.186948 0.379185,0.294825 0.03663,0.032115 0.05177,0.12207 0.08349,0.1678515 0.06126,0.083445 0.156597,0.0807 0.168718,0.16872 0.02449,0.213213 -0.18826,0.227583 -0.168718,0.4626749 -0.04406,0.093195 -0.177261,0.13089 -0.167856,0.25308 0.01455,0.1938435 0.302377,0.0162 0.378318,0.16785 0.04183,0.08091 -0.01245,0.17988 -0.04173,0.2948259 0.09552,0.112545 0.08209,0.2522099 -0.08436,0.2522099 -0.102795,0 -0.10761,-0.1424399 -0.210468,-0.1678499 -0.05875,-0.01005 -0.13608,0.01005 -0.209594,0 -0.06122,-0.0102 -0.151773,-0.035835 -0.210468,-0.040875 -0.151767,-0.015315 -0.288571,0.047145 -0.379185,-0.040875 0.14688,-0.1933194 0.316812,-0.3805899 0.505293,-0.5470344 0.05601,-0.051465 0.155469,-0.11016 0.126105,-0.210465 -0.10281,-0.094575 -0.196945,-0.015675 -0.294825,0.040875 -0.105255,0.05652 -0.219033,0.153573 -0.33657,0.16872 -0.203169,0.02643 -0.506698,-0.02439 -0.673141,0.08349 -0.0245,0.09051 0.198085,0.029205 0.168724,0.1687185 -0.08322,0.01005 -0.1894,0.05655 -0.253083,0 -0.05613,-0.051975 -0.0051,-0.138255 -0.04173,-0.1687185 -0.06365,-0.0483 -0.315649,-0.09864 -0.420928,-0.08349 -0.12972,0.0219 -0.193368,0.14232 -0.210466,0.25221 0.156647,0.073875 0.407264,-0.101385 0.463549,0.08436 -0.0832,0.1516329 -0.321743,0.2144859 -0.294825,0.4200593 0.0098,0.077895 0.10176,0.200367 0.167856,0.210465 0.06611,0.0138 0.102615,-0.044265 0.168718,-0.040875 0.06854,0.0051 0.08706,0.05097 0.16784,0.040875 0.11748,-0.04944 0.160185,-0.178818 0.294825,-0.1687185 0.161529,0.197949 -0.12348,0.3180945 -0.294827,0.379185 -0.195828,0.071325 -0.481215,0.104235 -0.630524,0.1678515 -0.07833,0.031635 -0.337562,0.307251 -0.379185,0.08436 -0.0318,-0.1593255 0.13197,-0.119925 0.168718,-0.25221 -0.19093,-0.03663 -0.375693,0.101715 -0.547036,0.1678515 -0.24722,0.09312 -0.656183,0.102885 -0.714885,0.379185 -0.0095,0.05598 0.03673,0.2165294 0,0.2522099 -0.02937,0.03063 -0.218886,0.015465 -0.294827,0.040875 -0.11748,0.041235 -0.221311,0.105735 -0.294825,0.126105 -0.05397,0.015315 -0.1335,0.03078 -0.167839,0.040875 -0.09795,0.03918 -0.09792,0.1641915 -0.210467,0.2522115 -0.0441,0.038205 -0.1737237,0.04869 -0.2104657,0.08436 -0.06364,0.063615 -0.09792,0.226797 -0.210468,0.25221 -0.07095,0.0051 -0.101745,-0.040725 -0.167858,0 -0.0068,0.1567334 0.06611,0.3457184 0,0.5044214 -0.144435,0.11958 -0.319273,0.2312158 -0.50529,0.3365688 -0.10281,0.05857 -0.170016,0.06501 -0.294825,0.126105 -0.08812,0.04371 -0.193653,0.151897 -0.293956,0.210466 -0.234986,0.13704 -0.50529,0.280437 -0.50529,0.630527 0,0.07583 0.02962,0.165061 0.04176,0.253083 0.0068,0.05148 -0.0027,0.111299 0,0.16785 0.0171,0.127215 0.107715,0.332913 0,0.420934 -0.164004,-0.0687 -0.389307,-0.134745 -0.504423,-0.252208 -0.03203,-0.12264 0.05385,-0.226172 0.04176,-0.33657 -0.0123,-0.08799 -0.1371,-0.242979 -0.210465,-0.253083 -0.07352,-0.01215 -0.08949,0.08775 -0.167857,0.08436 -0.093,-0.0075 -0.261648,-0.158621 -0.379186,-0.168717 -0.17379,-0.02036 -0.271745,0.02539 -0.462675,0 -0.1860436,0.09773 -0.1957366,0.268231 -0.4209316,0.253083 -0.06336,-0.0055 -0.127035,-0.04116 -0.195681,-0.06522 a 11.999882,11.999882 0 0 0 -0.7757894,2.485564 c 0.088995,-0.01899 0.1874835,-0.04116 0.2565585,-0.06435 0.2668109,-0.0834 0.1983269,-0.42704 0.4626749,-0.547037 0.117495,-0.05352 0.2595075,-0.07339 0.462675,-0.08349 0.065835,0.05391 0.135525,0.169241 0.126105,0.25221 -0.0072,0.06408 -0.094335,0.122445 -0.126105,0.210467 -0.02679,0.07836 -0.01485,0.188595 -0.041745,0.25221 -0.03675,0.08294 -0.139365,0.132045 -0.16872,0.210466 -0.0171,0.05148 0.0171,0.08033 0,0.126105 -0.02922,0.0804 -0.1751145,0.1275 -0.126105,0.210468 0.261912,0.102825 0.5700196,-0.04071 0.8001166,0 0.09791,0.0173 0.339264,0.14571 0.33657,0.294825 -0.0023,0.112455 -0.113985,0.213518 -0.126105,0.335702 -0.0147,0.154176 -0.07764,0.338836 -0.08436,0.463543 -0.0098,0.202985 0.289011,0.550421 0.504421,0.547037 0.232529,-0.0021 0.391655,-0.206544 0.673139,-0.08436 0.09301,0.03918 0.191963,0.173769 0.294827,0.168723 0.08567,-0.0051 0.195928,-0.149385 0.25221,-0.252209 0.07099,-0.12468 0.08807,-0.231211 0.210465,-0.294826 0.13218,-0.06816 0.252027,-0.06249 0.420931,-0.126105 0.07587,-0.02693 0.141945,-0.08033 0.210465,-0.126105 0.05883,-0.03736 0.09447,-0.11409 0.167841,-0.04087 0.09799,0.09773 -0.124935,0.104235 -0.04173,0.209593 0.168888,0.0906 0.256797,-0.164478 0.379185,-0.167856 0.03918,-0.0025 0.181259,0.122085 0.25221,0.167856 0.09538,0.06358 0.1051797,0.190103 0.2104667,0.210467 0.06609,0.01485 0.198498,-0.09445 0.293952,-0.08436 0.124845,0.0173 0.199366,0.172102 0.294826,0.168718 0.11505,-0.0025 0.196946,-0.14835 0.294825,-0.168718 0.215394,-0.04122 0.282858,0.0339 0.378318,0.168718 0.105285,0.02087 0.07083,-0.09171 0.168719,-0.04087 -0.05387,0.107325 0.03946,0.122445 0.08349,0.210467 0.02437,0.05607 0.01564,0.100695 0.04263,0.126105 0.05875,0.05607 0.208329,0.07207 0.293958,0.126105 0.09054,0.05646 0.10761,0.174829 0.21046,0.294826 0.1077,0.122145 0.27897,0.20037 0.420928,0.210467 0.134625,0.01005 0.26576,-0.01005 0.378318,0 0.252125,0.03208 0.413411,0.157135 0.58965,0.293958 0.100365,0.07587 0.178713,0.119925 0.210467,0.210468 0.02456,0.0636 -0.02454,0.18102 0,0.252208 0.05387,0.15369 0.332991,0.198573 0.25221,0.462676 0.03674,0.07636 0.0798,0.114855 0.167856,0.168719 0.07098,0.04377 0.134535,0.11601 0.210466,0.126105 0.04893,0.0051 0.166445,-0.0033 0.210467,0 0.13953,0.0098 0.216613,0.03861 0.33657,0.08436 0.07587,0.02693 0.16146,0.04779 0.210466,0.08349 0.06099,0.04173 0.05017,0.174784 0.126105,0.210466 0.04897,0.02539 0.211617,-0.01005 0.294825,0 0.13218,0.01485 0.260777,0.122715 0.378318,0.126105 0.07095,0.0033 0.10503,-0.0033 0.168719,0 0.301062,0.02444 0.510406,0.354803 0.799246,0.462678 0.09059,0.03061 0.233564,0.01548 0.294827,0.04087 0.107715,0.04632 0.158434,0.358197 0.167839,0.505293 0.02449,0.445407 -0.307026,0.589997 -0.505293,0.883604 -0.04133,0.06105 -0.0674,0.208459 -0.126105,0.293958 -0.117465,0.173532 -0.226698,0.187246 -0.209599,0.505293 0.0024,0.08796 0.04173,0.11199 0.04173,0.209593 0,0.117555 -0.01485,0.315576 -0.04173,0.420929 -0.01939,0.08042 -0.03049,0.137265 -0.04263,0.210466 -0.01215,0.07385 0.0095,0.14685 0,0.210467 -0.0098,0.07074 -0.07226,0.154426 -0.126105,0.25221 -0.112605,0.210568 -0.190833,0.464065 -0.420927,0.547034 -0.13707,0.0483 -0.315809,0.03306 -0.462677,0.08436 -0.0612,0.02189 -0.1371,0.09042 -0.210466,0.126105 -0.212939,0.10026 -0.530079,0.242345 -0.588783,0.462677 -0.05387,0.195709 0.12111,0.36589 0.08436,0.588783 -0.0389,0.06611 -0.0674,0.09282 -0.126105,0.168718 -0.05142,0.07065 -0.11244,0.140925 -0.168717,0.209594 -0.07344,0.09057 -0.208194,0.170118 -0.25221,0.294825 -0.01455,0.04122 0.01712,0.05997 0,0.126105 -0.0073,0.02437 -0.06227,0.03861 -0.08436,0.08436 -0.01956,0.04122 0.01712,0.174784 0,0.210462 -0.05629,0.112455 -0.258356,0.342634 -0.378318,0.378316 -0.254558,0.07122 -0.496902,-0.161784 -0.673142,-0.126105 0.0245,0.12468 0.10914,0.16671 0.167856,0.25221 0.03119,0.04944 -0.0047,0.11487 0.04173,0.168723 0.05601,0.06358 0.120255,0.09717 0.126975,0.167856 0.01455,0.151655 -0.08793,0.28524 -0.168718,0.336575 -0.07343,0.04406 -0.206781,0.02052 -0.336569,0.04087 -0.09056,0.01485 -0.376917,0.06753 -0.420932,0.126105 -0.06126,0.0855 0.04654,0.251074 0,0.336568 -0.01769,0.0339 -0.04206,0.05391 -0.0687,0.06785 A 11.999882,11.999882 0 0 0 16.353591,28 a 11.999882,11.999882 0 0 0 8.50297,-3.54486 c -0.01125,-0.0042 -0.02234,-0.0053 -0.0339,-0.0105 0.04649,-0.161818 0.12726,-0.22045 0.21046,-0.462676 0.05624,-0.203352 0.151637,-0.491868 -0.04173,-0.58965 0.04473,-0.305876 -0.0024,-0.394452 0.04173,-0.967098 0.01962,-0.425769 -0.219889,-0.653388 -0.21046,-1.09407 -0.0025,-0.183192 0.12498,-0.358701 0.25221,-0.505291 0.269245,-0.455171 0.408823,-0.724655 0.462676,-1.135818 -0.02937,-0.08545 0.03174,-0.10005 0,-0.168719 -0.124845,-0.271836 -0.19963,-0.551049 -0.378321,-0.756619 -0.09792,-0.11298 -0.214044,-0.191997 -0.294825,-0.294827 -0.06611,-0.08346 -0.167857,-0.23121 -0.167857,-0.294826 -0.0025,-0.07081 0.02223,-0.139785 0.04173,-0.210467 0.02437,-0.09059 0.05017,-0.278022 0.08437,-0.42006 0.0147,-0.06616 0.09648,-0.147735 0.08436,-0.253082 -0.0123,-0.102795 -0.165033,-0.347856 -0.294827,-0.378318 -0.171342,-0.04071 -0.331642,0.02036 -0.547035,0 -0.188487,-0.119565 -0.193425,-0.421949 -0.462676,-0.462677 -0.352472,-0.05142 -0.725634,0.146865 -0.967966,0.25221 -0.139515,0.06109 -0.298545,0.121935 -0.420929,0.126975 -0.11748,0.0076 -0.224016,-0.07427 -0.336574,-0.08436 -0.146865,-0.01485 -0.318263,0.05895 -0.462677,0.08436 -0.13953,0.02393 -0.253507,0.07339 -0.378318,0.08349 -0.237447,0.0173 -0.439465,-0.218964 -0.58878,-0.336603 -0.09057,-0.07132 -0.209196,-0.101715 -0.294825,-0.167856 -0.09055,-0.07118 -0.223875,-0.10005 -0.294826,-0.168718 -0.09546,-0.09312 -0.116415,-0.296226 -0.16784,-0.420927 -0.06117,-0.14655 -0.197035,-0.238802 -0.336568,-0.378318 -0.102795,-0.102795 -0.352268,-0.288653 -0.379185,-0.420927 -0.0147,-0.06813 0.04801,-0.137265 0.04263,-0.210468 -0.0072,-0.107325 -0.128775,-0.176309 -0.126105,-0.252209 0.0025,-0.107325 0.138495,-0.161667 0.167838,-0.25221 0.0147,-0.04677 -0.01712,-0.110145 0,-0.168718 0.03406,-0.12465 0.143205,-0.197144 0.126105,-0.378318 -0.0072,-0.07332 -0.03906,-0.117405 -0.04173,-0.210467 -0.0025,-0.0636 0.04848,-0.11016 0.04173,-0.168718 -0.0073,-0.1053 -0.155735,-0.132045 -0.16784,-0.25221 -0.0147,-0.12468 0.08948,-0.236273 0.16784,-0.378317 0.03406,-0.06358 0.09435,-0.117885 0.126105,-0.168718 0.06854,-0.102795 0.156613,-0.191128 0.210466,-0.293958 0.03667,-0.07581 0.0074,-0.196532 0.04179,-0.253083 0.04649,-0.07335 0.167454,-0.114 0.253077,-0.209594 0.06867,-0.07839 0.118845,-0.133035 0.16784,-0.168718 0.0612,-0.04377 0.14436,-0.09564 0.210468,-0.126105 0.227632,-0.10533 0.352543,-0.245752 0.462676,-0.463543 -0.03198,-0.195914 0.0453,-0.24149 0.126105,-0.378318 0.07588,-0.127215 0.12585,-0.305111 0.253079,-0.378318 0.154209,-0.08799 0.354964,-0.04922 0.462676,-0.210467 0.05385,-0.08295 0.08436,-0.2510758 0.08436,-0.3365683 0,-0.12009 -0.102765,-0.2788065 -0.210466,-0.293955 -0.11259,-0.02037 -0.272886,0.120165 -0.336575,0 -0.01962,-0.039195 0.0095,-0.12294 0,-0.1687199 -0.0144,-0.080895 -0.123435,-0.1936455 -0.126105,-0.2522115 -0.0073,-0.115515 0.133665,-0.2051595 0.167856,-0.33744 0.0466,-0.1811535 0.01215,-0.2962905 0,-0.5044214 0.171354,-0.271797 0.545954,-0.151518 0.925353,-0.126105 0.05641,0.0051 0.10746,0 0.168717,0 0.225185,0.0045 0.428486,0.027195 0.50442,-0.16872 0.02937,-0.073275 0.01956,-0.309651 0,-0.378315 -0.01956,-0.08295 -0.133665,-0.3283545 -0.209593,-0.3791804 -0.122385,-0.07587 -0.352398,-0.0285 -0.420929,-0.1678493 0.0563,-0.2421765 0.342873,-0.0258 0.50442,-0.08436 0.08295,-0.02961 0.0526,-0.14748 0.126105,-0.1678485 0.05136,-0.018345 0.182126,0.040005 0.253083,0.040005 0.05875,0 0.19593,-0.1271249 0.25221,-0.1678499 0.07836,-0.051465 0.09933,-0.12294 0.167856,-0.16872 0.03265,-0.020445 0.09461,-0.0402 0.147855,-0.059145 a 11.999882,11.999882 0 0 0 -0.23918,-0.181686 c -0.04354,0.04269 -0.08922,0.08169 -0.07654,0.156543 -0.1689,0.131265 -0.398993,0.09129 -0.673142,0.126975 -0.124845,0.01515 -0.246104,0.102825 -0.378317,0 -0.02947,-0.08091 0.07137,-0.0903 0.08349,-0.1687185 -0.0098,-0.07338 -0.06141,-0.06501 -0.08349,-0.126105 0.03663,-0.095205 0.09291,-0.06843 0.08349,-0.2104665 0.06854,-0.07386 0.233541,-0.068415 0.253077,-0.1687185 0.01485,-0.068625 -0.05517,-0.127125 -0.126105,-0.16785 -0.04133,-0.021885 -0.08295,-0.05895 -0.126975,-0.08436 -0.02126,-0.0117 -0.03005,-0.026265 -0.03912,-0.040875 A 11.999882,11.999882 0 0 0 16.353578,4 Z m -5.025075,1.1184209 a 11.999882,11.999882 0 0 0 -1.5724,0.8653425 c -0.01972,0.038415 -0.03826,0.077715 -0.03826,0.115665 0,0.085455 0.161596,0.2045474 0.252208,0.2095979 0.12483,0.0102 0.286011,-0.084885 0.337443,-0.2095979 0.06099,-0.149595 0.0135,-0.355668 0.126105,-0.463545 0.429785,0.0111 0.755916,-0.1808865 0.894915,-0.5174625 z m 10.338887,0.3496155 v 8.685e-4 c 0.151767,-0.01425 0.327146,0.07818 0.336569,0.16872 0.0123,0.09051 -0.09175,0.065025 -0.126105,0.1678515 -0.03129,0.09312 -9.8e-4,0.2286855 -0.04263,0.2948265 -0.03673,0.05082 -0.09931,0.02052 -0.16784,0.040875 -0.15421,0.0441 -0.464842,0.2439075 -0.58965,0.040875 0.0195,-0.1098599 0.09024,-0.1199249 0.126975,-0.2104649 0.0025,-0.068625 -0.09646,-0.09282 -0.08436,-0.16872 0.0147,-0.09054 0.151902,-0.090435 0.252209,-0.126105 0.07095,-0.026895 0.07569,-0.1113 0.168718,-0.1678515 0.03957,-0.020355 0.08101,-0.03078 0.12612,-0.040875 z M 8.3602423,7.0691415 a 11.999882,11.999882 0 0 0 -0.373967,0.3304814 c 0.08803,0.0039 0.321159,-0.029055 0.343529,-0.038265 0.144285,-0.061905 0.102825,-0.1886009 0.03045,-0.2922149 z m 0.30613,0.3765764 v 8.895e-4 c -0.09795,-0.00705 -0.173724,0.081195 -0.210465,0.126975 -0.0051,0.073845 0.04441,0.09465 0.04176,0.16785 -0.12,0.0855 -0.03317,0.326472 0.08436,0.33657 0.124845,0.0102 0.17012,-0.3061095 0.336572,-0.33657 0.0587,-0.01215 0.08706,0.094455 0.167841,0.08436 0.09806,-0.075825 0.06112,-0.2694135 -0.04175,-0.294825 -0.03923,-0.0138 -0.14436,0.045915 -0.210467,0.040875 -0.06854,-0.0051 -0.10914,-0.122715 -0.167857,-0.126105 z m -0.518334,0.07827 c -0.0046,0.00195 -0.01155,0.00525 -0.0287,0.00525 v 0.0018 c -0.08371,-0.00405 -0.202996,0.0039 -0.280911,0.026955 a 11.999882,11.999882 0 0 0 -0.115665,0.124365 c -0.01848,0.051165 -0.03774,0.106095 -0.06696,0.141765 -0.05628,0.06864 -0.118845,0.107625 -0.167841,0.1687185 -0.04389,0.05598 -0.319485,0.4219469 -0.126105,0.4626764 0.08322,0.017295 0.276857,-0.1869405 0.293955,-0.2530799 0.05631,-0.225432 0.16365,-0.3573225 0.337442,-0.4626765 0.100305,-0.061065 0.150759,-0.080715 0.167857,-0.210465 -0.006,-0.0075 -0.0084,-0.0072 -0.0129,-0.00525 z M 24.696517,7.8631664 c -0.07842,0.0045 -0.14679,0.09042 -0.210467,0.126105 -0.0587,0.02946 -0.10914,0.08538 -0.167856,0.126105 -0.07099,0.04578 -0.14436,0.037485 -0.210466,0.040875 -0.154193,0.01005 -0.288714,-0.07134 -0.420929,-0.040875 -0.04406,0.0096 -0.0305,0.03354 -0.08436,0.08436 -0.0027,0.071325 0.0094,0.0903 0,0.1687199 -0.03918,0.06816 -0.208329,0.080325 -0.293958,0.126105 -0.127275,0.066165 -0.191962,0.191997 -0.294826,0.2948265 -0.06611,0.066105 -0.159289,0.11652 -0.168717,0.16785 -0.0073,0.03918 0.05205,0.11469 0.04263,0.16872 -0.0123,0.05853 -0.1371,0.159135 -0.210466,0.2104649 -0.04387,0.029115 -0.07953,0.05808 -0.126105,0.08349 -0.09795,0.056505 -0.12969,0.1535715 -0.210467,0.16872 -0.215398,0.039195 -0.634068,-0.058755 -0.631395,0.16872 0.0025,0.148065 0.211766,0.172902 0.336569,0.16785 0.173787,-0.0051 0.283725,0.025395 0.379185,0 0.06609,-0.01683 0.183679,-0.09564 0.25221,-0.126105 0.04416,-0.020355 0.09191,-0.02574 0.126105,-0.040875 0.07351,-0.036675 0.11244,-0.100695 0.168724,-0.126105 0.11259,-0.051495 0.342714,-0.12105 0.462676,-0.126105 0.166461,-0.01005 0.291464,0.01515 0.504419,0 0.07587,-0.0051 0.12969,-0.03582 0.210466,-0.040875 0.134625,-0.0138 0.354966,0.044265 0.462677,0.040875 0.07587,0 0.164898,-0.040875 0.253083,-0.040875 0.100365,0.00255 0.192495,0.06249 0.209593,0.126105 0.01215,0.034635 -0.0095,0.11469 0,0.1687215 0.0123,0.08799 0.08975,0.11016 0.08437,0.168717 -0.0049,0.075825 -0.23739,0.2034148 -0.210466,0.2939598 0.01712,0.05652 0.186973,0.127995 0.253077,0.168717 0.06854,0.0402 0.21075,0.03078 0.293958,0.04087 0.06854,0.01005 0.102615,-0.0051 0.168718,0 0.105255,0.0123 0.270465,0.08033 0.336569,0.126105 0.11505,0.08093 0.07584,0.249046 0.210468,0.294826 0.05874,0.02036 0.178831,-0.01513 0.252208,0 0.178674,0.03918 0.333021,0.182999 0.462677,0.16785 0.205456,-0.02443 0.10158,-0.198877 0.126105,-0.3357 0.0045,-0.02727 0.0129,-0.04711 0.02348,-0.06522 a 11.999882,11.999882 0 0 0 -0.83492,-1.3967321 c -0.02896,0.046395 -0.06243,0.082245 -0.11394,0.07305 -0.01065,-0.06426 0.02647,-0.11844 0.03565,-0.1826355 a 11.999882,11.999882 0 0 0 -0.293943,-0.41136 c -0.05947,-0.03237 -0.117435,-0.058875 -0.162622,-0.07914 -0.07587,-0.034155 -0.141945,-0.09042 -0.210468,-0.126105 C 25.375808,8.4310064 25.148207,8.2979369 25.074836,8.2023465 24.986706,8.0853165 24.889886,7.855677 24.696518,7.865775 Z M 9.6473863,7.9823114 c -0.03135,0.00315 -0.06678,0.0096 -0.09741,0.0096 -0.06126,0 -0.11244,-0.00345 -0.168723,0 -0.03918,0.00345 -0.09365,-0.0051 -0.126105,0 -0.03231,0.0051 -0.08169,0.01035 -0.08436,0.040875 0.127275,0.060075 0.50785,0.120525 0.5470327,-0.040875 -0.0123,-0.01275 -0.03912,-0.01275 -0.07044,-0.0096 z M 24.756526,8.2693093 c 0.0036,-0.00315 0.0084,-4.44e-4 0.02437,0.0174 0.01485,0.102795 0.01365,0.174786 -0.04263,0.2104665 -0.119955,-0.021885 -0.08077,-0.1850535 0,-0.2104665 0.01215,-0.0051 0.01485,-0.01425 0.01826,-0.0174 z m -15.9022977,0.01125 c -0.02085,0.00195 -0.04092,0.00615 -0.06174,0.00615 v 0.00255 c -0.124845,0 -0.31322,0.03078 -0.42093,0.040875 -0.0832,0.0123 -0.188363,-0.00111 -0.168722,0.126105 0.01713,0.10131 0.160049,0.07134 0.25308,0.040875 0.195828,-0.061065 0.35012,-0.11487 0.462675,-0.210465 -0.02195,-0.0075 -0.0435,-0.00795 -0.06435,-0.00615 z M 24.696517,8.6232118 c 0.117555,-0.032055 0.215286,0.08127 0.168718,0.3357015 -0.03918,0.10131 -0.216465,0.19251 -0.294825,0.040875 0.02692,-0.119595 0.0027,-0.198876 0,-0.3357 0.04133,-0.044085 0.08693,-0.03078 0.126105,-0.040875 z m 1.094073,0.6722715 c 0.107685,0.0051 0.164017,0 0.252208,0 -0.03418,0.093135 -0.01095,0.2408024 -0.08436,0.2948249 -0.20317,-0.03663 -0.372064,-0.063375 -0.462676,-0.210465 0.06363,-0.0483 0.144495,-0.088545 0.25221,-0.08349 z M 5.2919737,11.213154 c -0.05505,0.125205 -0.105585,0.252832 -0.1565445,0.380057 0.050025,-0.127559 0.10221,-0.254267 0.1565445,-0.380057 z m -0.4383239,1.15234 c -0.034815,0.107475 -0.06555,0.216493 -0.09741,0.325264 0.030945,-0.10887 0.06342,-0.217304 0.09741,-0.325264 z m -0.403536,2.196838 a 11.999882,11.999882 0 0 0 -0.09654,1.4376 11.999882,11.999882 0 0 0 5.4929672,10.068413 c 0.0105,-0.07659 0.03021,-0.172155 0.03912,-0.239166 0.01455,-0.134355 -0.01723,-0.392869 -0.04173,-0.505291 -0.02937,-0.141975 -0.1933677,-0.266775 -0.2104667,-0.420929 -0.0075,-0.05601 0.08976,-0.138915 0.08436,-0.209599 -0.0048,-0.06612 -0.07766,-0.09282 -0.08436,-0.168719 -0.0054,-0.07072 -0.0068,-0.169239 0,-0.252208 0.01215,-0.154194 -0.0027,-0.311913 0,-0.463545 0.0027,-0.04422 0,-0.122085 0,-0.167856 0,-0.12723 -0.03504,-0.209339 -0.04179,-0.336569 -0.0094,-0.232651 0.03674,-0.416143 0,-0.631395 -0.02919,-0.163853 -0.06739,-0.40159 -0.126105,-0.504419 -0.06607,-0.11499 -0.332886,-0.263361 -0.462676,-0.336569 -0.08566,-0.04881 -0.160049,-0.08033 -0.25308,-0.126105 -0.198267,-0.09769 -0.626834,-0.305967 -0.714885,-0.50442 -0.02453,-0.05853 0.02691,-0.189468 0,-0.253083 -0.05387,-0.127215 -0.214044,-0.215532 -0.294827,-0.335692 -0.151707,-0.232503 -0.224085,-0.520373 -0.378286,-0.757502 -0.07833,-0.12213 -0.16658,-0.240979 -0.252212,-0.336574 -0.05142,-0.05601 -0.190924,-0.12498 -0.210464,-0.210462 -0.02679,-0.11502 -0.138225,-0.292818 -0.126105,-0.378317 0.01713,-0.1176 0.252211,-0.14433 0.252211,-0.25221 0,-0.09049 -0.10158,-0.176308 -0.126105,-0.25221 -0.06129,-0.188793 0.05259,-0.306861 0.126105,-0.463543 0.02193,-0.05148 0.01722,-0.132165 0.04173,-0.167856 0.04416,-0.06612 0.11001,-0.0955 0.16872,-0.168719 0.03407,-0.03918 0.08209,-0.110145 0.126105,-0.168724 0.09302,-0.12264 0.255645,-0.182403 0.294825,-0.294825 0.03175,-0.09052 0.03673,-0.521506 0,-0.67314 -0.02195,-0.08796 -0.09522,-0.169239 -0.126975,-0.25221 -0.05631,-0.149115 -0.100455,-0.339952 -0.252209,-0.336568 -0.09552,0 -0.14919,0.10257 -0.210465,0.168718 -0.01455,0.08796 -0.03549,0.2268 -0.126104,0.25221 -0.13953,0.04173 -0.17502,-0.201385 -0.336571,-0.25221 -0.06369,-0.02036 -0.126225,0.01514 -0.16785,0 -0.11748,-0.05391 -0.170016,-0.226159 -0.294825,-0.294826 -0.102825,-0.05652 -0.231143,-0.08236 -0.2948266,-0.167856 -0.024495,-0.05852 0.00675,-0.132045 0,-0.210461 -0.13464,-0.07838 -0.2216505,-0.352267 -0.378315,-0.420934 -0.102795,-0.0483 -0.291141,-0.03769 -0.4209315,-0.08349 -0.061125,-0.01933 -0.104175,-0.07427 -0.16785,-0.08436 -0.078285,-0.0153 -0.1492049,-0.01035 -0.2104649,-0.04087 -0.083805,-0.04173 -0.153285,-0.121695 -0.219162,-0.203522 z m -0.10959,0.207858 c -0.00585,0.04922 -0.0111,0.09866 -0.01653,0.147855 0.00525,-0.04932 0.0108,-0.09861 0.01653,-0.147855 z m 4.6624125,0.921003 c -0.08805,0.04173 -0.09062,0.17882 0,0.168717 0.09546,-0.01485 0.11754,-0.222741 0,-0.168717 z M 9.803053,26.222281 c -2.3003327,1.103895 -4.6006638,2.20779 0,0 z"
       style="opacity:0.6;fill:#d0d0d0;stroke-width:0.62343597" />
  </g>
</svg>
