<?xml version="1.0" encoding="UTF-8" standalone="no"?>
<!-- Created with Inkscape (http://www.inkscape.org/) -->

<svg
   xmlns:dc="http://purl.org/dc/elements/1.1/"
   xmlns:cc="http://creativecommons.org/ns#"
   xmlns:rdf="http://www.w3.org/1999/02/22-rdf-syntax-ns#"
   xmlns:svg="http://www.w3.org/2000/svg"
   xmlns="http://www.w3.org/2000/svg"
   xmlns:sodipodi="http://sodipodi.sourceforge.net/DTD/sodipodi-0.dtd"
   xmlns:inkscape="http://www.inkscape.org/namespaces/inkscape"
   width="32"
   height="32"
   viewBox="0 0 32 32"
   version="1.1"
   id="svg8"
   inkscape:version="0.92+devel (0526f3edb8, 2017-07-23, custom)"
   sodipodi:docname="preferences-web-browser-stylesheets.svg">
  <defs
     id="ol-defs">
    <style
       id="current-color-scheme">      .ColorScheme-Text {
        color:#d0d0d0;
        stop-color:#d0d0d0;
      }
      .ColorScheme-Background {
        color:#212121;
        stop-color:#212121;
      }
      .ColorScheme-Highlight {
        color:#0039a9;
        stop-color:#0039a9;
      }
      .ColorScheme-ViewText {
        color:#d0d0d0;
        stop-color:#d0d0d0;
      }
      .ColorScheme-ViewBackground {
        color:#19191b;
        stop-color:#19191b;
      }
      .ColorScheme-ViewHover {
        color:#005cc7;
        stop-color:#005cc7;
      }
      .ColorScheme-ViewFocus{
        color:#002466;
        stop-color:#002466;
      }
      .ColorScheme-ButtonText {
        color:#d0d0d0;
        stop-color:#d0d0d0;
      }
      .ColorScheme-ButtonBackground {
        color:#232323;
        stop-color:#232323;                             
      }                                                 
      .ColorScheme-ButtonHover {                        
        color:#005cc7;                                  
        stop-color:#005cc7;                             
      }                                                 
      .ColorScheme-ButtonFocus{                         
        color:#0039a9;                                  
        stop-color:#0039a9;                             
      }</style>
    <style
       id="current-color-scheme-7">      .ColorScheme-Text {
        color:#d0d0d0;
        stop-color:#d0d0d0;
      }
      .ColorScheme-Background {
        color:#212121;
        stop-color:#212121;
      }
      .ColorScheme-Highlight {
        color:#0039a9;
        stop-color:#0039a9;
      }
      .ColorScheme-ViewText {
        color:#d0d0d0;
        stop-color:#d0d0d0;
      }
      .ColorScheme-ViewBackground {
        color:#19191b;
        stop-color:#19191b;
      }
      .ColorScheme-ViewHover {
        color:#005cc7;
        stop-color:#005cc7;
      }
      .ColorScheme-ViewFocus{
        color:#002466;
        stop-color:#002466;
      }
      .ColorScheme-ButtonText {
        color:#d0d0d0;
        stop-color:#d0d0d0;
      }
      .ColorScheme-ButtonBackground {
        color:#232323;
        stop-color:#232323;                             
      }                                                 
      .ColorScheme-ButtonHover {                        
        color:#005cc7;                                  
        stop-color:#005cc7;                             
      }                                                 
      .ColorScheme-ButtonFocus{                         
        color:#0039a9;                                  
        stop-color:#0039a9;                             
      }</style>
  </defs>
  <sodipodi:namedview
     id="base"
     pagecolor="#002266"
     bordercolor="#ffffff"
     borderopacity="0.46666667"
     inkscape:pageopacity="0"
     inkscape:pageshadow="2"
     inkscape:zoom="12.859375"
     inkscape:cx="31.399413"
     inkscape:cy="11.170575"
     inkscape:document-units="px"
     inkscape:current-layer="g4324"
     inkscape:document-rotation="0"
     showgrid="false"
     inkscape:showpageshadow="false"
     borderlayer="true"
     units="px"
     fit-margin-top="0"
     fit-margin-left="0"
     fit-margin-right="0"
     fit-margin-bottom="0"
     inkscape:window-width="1920"
     inkscape:window-height="1051"
     inkscape:window-x="0"
     inkscape:window-y="0"
     inkscape:window-maximized="1"
     inkscape:snap-page="true" />
  <metadata
     id="metadata5">
    <rdf:RDF>
      <cc:Work
         rdf:about="">
        <dc:format>image/svg+xml</dc:format>
        <dc:type
           rdf:resource="http://purl.org/dc/dcmitype/StillImage" />
        <dc:title />
      </cc:Work>
    </rdf:RDF>
  </metadata>
  <g
     id="g4324"
     inkscape:label="#preferences-web-browser-stylesheets">
    <rect
       style="fill:none;fill-opacity:0.74651441;stroke-width:23.61599922;stroke-opacity:0.3596773"
       id="rect4264"
       width="32"
       height="32"
       x="0"
       y="0"
       inkscape:label="#boundary" />
    <path
       inkscape:label="#3"
       style="font-style:normal;font-variant:normal;font-weight:bold;font-stretch:normal;font-size:2.82222223px;font-family:Arial;-inkscape-font-specification:'Arial, Bold';font-variant-ligatures:normal;font-variant-caps:normal;font-variant-numeric:normal;font-feature-settings:normal;text-align:start;writing-mode:lr-tb;text-anchor:start;opacity:0.6;fill:#d0d0d0;stroke-width:1.52032006"
       d="m 11.879269,4 c -1.090534,0 -1.8892165,0.073877 -2.3970185,0.2237215 -0.749218,0.2247658 -1.319677,0.5334569 -1.710936,0.9247159 -0.391255,0.3829345 -0.661945,0.8952229 -0.81179,1.536222 -0.149843,0.6326736 -0.225853,1.7557539 -0.225853,3.3707386 0,0.990633 -0.03143,1.686353 -0.09802,2.085937 -0.08325,0.532776 -0.237591,0.977975 -0.462357,1.335937 -0.2247605,0.349633 -0.4909913,0.600154 -0.7990006,0.75 -0.3080123,0.149858 -0.7665895,0.241573 -1.3742904,0.274859 v 2.995737 c 0.7658689,0.04161 1.3318689,0.209348 1.6981536,0.50071 0.3746094,0.28304 0.6542164,0.75732 0.8373574,1.423297 0.133195,0.457855 0.198154,1.451215 0.198154,2.982953 0,1.315297 0.07155,2.277245 0.213068,2.884943 0.141512,0.616024 0.416665,1.132774 0.824575,1.549005 0.416235,0.416228 0.924047,0.711539 1.523437,0.886364 C 9.8941225,27.908281 10.755435,28 11.879265,28 h 0.662643 v -2.997871 c -0.899066,0 -1.487361,-0.05817 -1.762074,-0.174716 -0.266389,-0.108217 -0.465525,-0.269353 -0.598722,-0.485796 -0.133196,-0.216443 -0.2002845,-0.599012 -0.2002845,-1.148436 0,-0.382935 -0.02907,-1.266544 -0.08736,-2.648437 -0.04994,-0.907385 -0.157365,-1.63006 -0.32386,-2.171167 -0.166487,-0.5411 -0.408092,-0.999677 -0.724431,-1.374289 -0.308014,-0.382935 -0.70842,-0.716253 -1.199575,-0.999289 0.557754,-0.357957 0.969408,-0.702522 1.235797,-1.035512 0.274711,-0.332988 0.500606,-0.75356 0.675427,-1.261362 0.174818,-0.516129 0.282239,-1.187223 0.323861,-2.011364 0.07492,-1.465142 0.11293,-2.4606337 0.11293,-2.9850849 0,-0.5161289 0.06262,-0.8764007 0.1874995,-1.0845173 0.124879,-0.2164465 0.317221,-0.3752485 0.575283,-0.4751412 0.266392,-0.1082163 0.861476,-0.1619323 1.785513,-0.1619323 V 4 Z m 7.578833,0 v 2.9850853 c 0.940686,0 1.544689,0.058167 1.811078,0.1747152 0.274716,0.1082164 0.462605,0.264896 0.5625,0.4730111 0.108217,0.2081167 0.166393,0.6242313 0.174719,1.2485797 0.04161,1.9812687 0.108703,3.2652847 0.200284,3.8480107 0.141511,0.849116 0.407748,1.547165 0.799005,2.096592 0.283041,0.382935 0.732696,0.774422 1.348722,1.174005 -0.474506,0.274714 -0.865994,0.594652 -1.174006,0.960936 -0.299684,0.357966 -0.541288,0.798704 -0.724431,1.323155 -0.183146,0.516129 -0.295026,1.207388 -0.33665,2.073154 -0.06659,1.431842 -0.104582,2.402708 -0.112929,2.91051 0,0.507804 -0.06709,0.865748 -0.200284,1.073863 -0.124879,0.216443 -0.324012,0.377579 -0.598722,0.485796 -0.274715,0.116547 -0.858552,0.174718 -1.749291,0.174718 v 2.997867 h 0.662646 c 1.090532,0 1.889213,-0.07387 2.397016,-0.223721 0.757544,-0.224762 1.332462,-0.533456 1.723723,-0.924715 0.391255,-0.382935 0.657483,-0.895224 0.799004,-1.536222 0.149843,-0.640998 0.225853,-1.768539 0.225853,-3.383522 0,-0.982309 0.03142,-1.67357 0.098,-2.073154 0.09157,-0.532775 0.245915,-0.973516 0.462359,-1.323153 0.224767,-0.357956 0.490995,-0.612938 0.799005,-0.762784 0.308018,-0.149858 0.766592,-0.241573 1.374294,-0.274859 v -2.995737 c -0.765859,-0.04163 -1.336318,-0.204891 -1.710931,-0.487927 -0.37461,-0.291362 -0.654212,-0.770108 -0.837357,-1.43608 -0.124879,-0.46618 -0.18537,-1.459542 -0.18537,-2.9829545 0,-1.3152959 -0.076,-2.277242 -0.22585,-2.8849429 C 24.898966,6.0942024 24.623823,5.5774543 24.215913,5.1612215 23.808007,4.7366643 23.304638,4.4368917 22.705259,4.2620739 22.105885,4.087256 21.244572,4 20.120744,4 Z"
       id="path4271"
       inkscape:connector-curvature="0" />
  </g>
</svg>
