<?xml version="1.0" encoding="UTF-8" standalone="no"?>
<!-- Created with Inkscape (http://www.inkscape.org/) -->

<svg
   xmlns:dc="http://purl.org/dc/elements/1.1/"
   xmlns:cc="http://creativecommons.org/ns#"
   xmlns:rdf="http://www.w3.org/1999/02/22-rdf-syntax-ns#"
   xmlns:svg="http://www.w3.org/2000/svg"
   xmlns="http://www.w3.org/2000/svg"
   xmlns:sodipodi="http://sodipodi.sourceforge.net/DTD/sodipodi-0.dtd"
   xmlns:inkscape="http://www.inkscape.org/namespaces/inkscape"
   width="32"
   height="32"
   viewBox="0 0 32 32"
   version="1.1"
   id="svg8"
   inkscape:version="0.92+devel 15703 custom"
   sodipodi:docname="preferences-desktop-display.svg">
  <defs
     id="ol-defs">
    <style
       id="current-color-scheme">      .ColorScheme-Text {
        color:#d0d0d0;
        stop-color:#d0d0d0;
      }
      .ColorScheme-Background {
        color:#212121;
        stop-color:#212121;
      }
      .ColorScheme-Highlight {
        color:#0039a9;
        stop-color:#0039a9;
      }
      .ColorScheme-ViewText {
        color:#d0d0d0;
        stop-color:#d0d0d0;
      }
      .ColorScheme-ViewBackground {
        color:#19191b;
        stop-color:#19191b;
      }
      .ColorScheme-ViewHover {
        color:#005cc7;
        stop-color:#005cc7;
      }
      .ColorScheme-ViewFocus{
        color:#002466;
        stop-color:#002466;
      }
      .ColorScheme-ButtonText {
        color:#d0d0d0;
        stop-color:#d0d0d0;
      }
      .ColorScheme-ButtonBackground {
        color:#232323;
        stop-color:#232323;                             
      }                                                 
      .ColorScheme-ButtonHover {                        
        color:#005cc7;                                  
        stop-color:#005cc7;                             
      }                                                 
      .ColorScheme-ButtonFocus{                         
        color:#0039a9;                                  
        stop-color:#0039a9;                             
      }</style>
    <style
       id="current-color-scheme-75">      .ColorScheme-Text {
        color:#d0d0d0;
        stop-color:#d0d0d0;
      }
      .ColorScheme-Background {
        color:#212121;
        stop-color:#212121;
      }
      .ColorScheme-Highlight {
        color:#0039a9;
        stop-color:#0039a9;
      }
      .ColorScheme-ViewText {
        color:#d0d0d0;
        stop-color:#d0d0d0;
      }
      .ColorScheme-ViewBackground {
        color:#19191b;
        stop-color:#19191b;
      }
      .ColorScheme-ViewHover {
        color:#005cc7;
        stop-color:#005cc7;
      }
      .ColorScheme-ViewFocus{
        color:#002466;
        stop-color:#002466;
      }
      .ColorScheme-ButtonText {
        color:#d0d0d0;
        stop-color:#d0d0d0;
      }
      .ColorScheme-ButtonBackground {
        color:#232323;
        stop-color:#232323;                             
      }                                                 
      .ColorScheme-ButtonHover {                        
        color:#005cc7;                                  
        stop-color:#005cc7;                             
      }                                                 
      .ColorScheme-ButtonFocus{                         
        color:#0039a9;                                  
        stop-color:#0039a9;                             
      }</style>
    <style
       id="current-color-scheme-7">      .ColorScheme-Text {
        color:#d0d0d0;
        stop-color:#d0d0d0;
      }
      .ColorScheme-Background {
        color:#212121;
        stop-color:#212121;
      }
      .ColorScheme-Highlight {
        color:#0039a9;
        stop-color:#0039a9;
      }
      .ColorScheme-ViewText {
        color:#d0d0d0;
        stop-color:#d0d0d0;
      }
      .ColorScheme-ViewBackground {
        color:#19191b;
        stop-color:#19191b;
      }
      .ColorScheme-ViewHover {
        color:#005cc7;
        stop-color:#005cc7;
      }
      .ColorScheme-ViewFocus{
        color:#002466;
        stop-color:#002466;
      }
      .ColorScheme-ButtonText {
        color:#d0d0d0;
        stop-color:#d0d0d0;
      }
      .ColorScheme-ButtonBackground {
        color:#232323;
        stop-color:#232323;                             
      }                                                 
      .ColorScheme-ButtonHover {                        
        color:#005cc7;                                  
        stop-color:#005cc7;                             
      }                                                 
      .ColorScheme-ButtonFocus{                         
        color:#0039a9;                                  
        stop-color:#0039a9;                             
      }</style>
  </defs>
  <sodipodi:namedview
     id="base"
     pagecolor="#002266"
     bordercolor="#ffffff"
     borderopacity="0.46666667"
     inkscape:pageopacity="0"
     inkscape:pageshadow="2"
     inkscape:zoom="12.859375"
     inkscape:cx="31.399413"
     inkscape:cy="11.170575"
     inkscape:document-units="px"
     inkscape:current-layer="svg8"
     inkscape:document-rotation="0"
     showgrid="false"
     inkscape:showpageshadow="false"
     borderlayer="true"
     units="px"
     fit-margin-top="0"
     fit-margin-left="0"
     fit-margin-right="0"
     fit-margin-bottom="0"
     inkscape:window-width="1920"
     inkscape:window-height="1054"
     inkscape:window-x="0"
     inkscape:window-y="0"
     inkscape:window-maximized="1"
     inkscape:snap-page="true" />
  <metadata
     id="metadata5">
    <rdf:RDF>
      <cc:Work
         rdf:about="">
        <dc:format>image/svg+xml</dc:format>
        <dc:type
           rdf:resource="http://purl.org/dc/dcmitype/StillImage" />
        <dc:title></dc:title>
      </cc:Work>
    </rdf:RDF>
  </metadata>
  <rect
     style="fill:none;fill-opacity:0.74651441;stroke-width:23.61599922;stroke-opacity:0.3596773"
     id="rect4264"
     width="32"
     height="32"
     x="0"
     y="0"
     inkscape:label="#boundary" />
  <g
     id="g4348"
     inkscape:label="#preferences-desktop-display"
     style="opacity:0.6">
    <path
       style="opacity:0.77575755;vector-effect:none;fill:#d0d0d0;stroke-width:1.49136376;stroke-linecap:square"
       d="M 1.8437501,0.883789 C 0.8218251,0.883789 1e-7,1.707568 1e-7,2.729492 v 21.173047 c 0,1.021924 0.821825,1.845703 1.84375,1.845703 H 10.75 V 28.05957 H 8.1601561 c -0.769129,0 -1.386719,0.619543 -1.386719,1.388672 v 0.279297 c 0,0.769128 0.61759,1.388672 1.386719,1.388672 H 23.839844 c 0.769129,0 1.386718,-0.619544 1.386718,-1.388672 v -0.279297 c 0,-0.769129 -0.617589,-1.388672 -1.386718,-1.388672 H 21.25 v -2.311328 h 8.904297 C 31.176221,25.748242 32,24.924463 32,23.902539 V 2.729492 C 32,1.707567 31.176221,0.883789 30.154297,0.883789 Z m 2.8125,3.275391 H 27.585938 c 0.681502,0 1.228515,0.548966 1.228515,1.230468 v 16.073438 c 0,0.681501 -0.547014,1.228516 -1.228515,1.228516 H 4.6562501 c -0.681501,0 -1.230469,-0.547015 -1.230469,-1.228516 V 5.389648 c 0,-0.681502 0.548968,-1.230469 1.230469,-1.230468 z"
       id="rect4264-5"
       inkscape:connector-curvature="0"
       sodipodi:nodetypes="ssssccssssssssccssssssssssssss"
       inkscape:label="#2" />
    <path
       inkscape:label="#1"
       id="path5737"
       d="m 14.533577,6.9657754 -0.460941,2.038826 a 4.9314402,4.9314402 0 0 0 -1.035668,0.597947 l -1.995866,-0.620008 -1.4664215,2.5392436 1.5349245,1.418818 a 4.9314402,4.9314402 0 0 0 -0.04064,0.597947 4.9314402,4.9314402 0 0 0 0.0418,0.596786 l -1.5360845,1.419979 1.4664215,2.539243 1.998188,-0.620007 a 4.9314402,4.9314402 0 0 0 1.034506,0.603753 l 0.459781,2.03302 h 2.932844 l 0.460942,-2.038826 A 4.9314402,4.9314402 0 0 0 18.96303,17.47455 l 1.995866,0.620007 1.466421,-2.539243 -1.534924,-1.418818 a 4.9314402,4.9314402 0 0 0 0.04064,-0.597947 4.9314402,4.9314402 0 0 0 -0.0418,-0.596786 l 1.536086,-1.419979 -1.466422,-2.5392436 -1.998188,0.620008 a 4.9314402,4.9314402 0 0 0 -1.034508,-0.603753 l -0.45978,-2.03302 z m 1.466422,4.3644326 a 2.2085219,2.2085219 0 0 1 2.208341,2.208341 2.2085219,2.2085219 0 0 1 -2.208341,2.208341 2.2085219,2.2085219 0 0 1 -2.20834,-2.208341 2.2085219,2.2085219 0 0 1 2.20834,-2.208341 z"
       style="fill:#ffffff;stroke-width:0.90979505"
       inkscape:connector-curvature="0" />
  </g>
</svg>
