<?xml version="1.0" encoding="UTF-8" standalone="no"?>
<!-- Created with Inkscape (http://www.inkscape.org/) -->

<svg
   xmlns:dc="http://purl.org/dc/elements/1.1/"
   xmlns:cc="http://creativecommons.org/ns#"
   xmlns:rdf="http://www.w3.org/1999/02/22-rdf-syntax-ns#"
   xmlns:svg="http://www.w3.org/2000/svg"
   xmlns="http://www.w3.org/2000/svg"
   xmlns:sodipodi="http://sodipodi.sourceforge.net/DTD/sodipodi-0.dtd"
   xmlns:inkscape="http://www.inkscape.org/namespaces/inkscape"
   width="32"
   height="32"
   viewBox="0 0 32 32"
   version="1.1"
   id="svg8"
   inkscape:version="0.92+devel (c0065a33f9, 2017-07-22, custom)"
   sodipodi:docname="preferences-kde-connect.svg">
  <defs
     id="ol-defs">
    <style
       id="current-color-scheme">      .ColorScheme-Text {
        color:#d0d0d0;
        stop-color:#d0d0d0;
      }
      .ColorScheme-Background {
        color:#212121;
        stop-color:#212121;
      }
      .ColorScheme-Highlight {
        color:#0039a9;
        stop-color:#0039a9;
      }
      .ColorScheme-ViewText {
        color:#d0d0d0;
        stop-color:#d0d0d0;
      }
      .ColorScheme-ViewBackground {
        color:#19191b;
        stop-color:#19191b;
      }
      .ColorScheme-ViewHover {
        color:#005cc7;
        stop-color:#005cc7;
      }
      .ColorScheme-ViewFocus{
        color:#002466;
        stop-color:#002466;
      }
      .ColorScheme-ButtonText {
        color:#d0d0d0;
        stop-color:#d0d0d0;
      }
      .ColorScheme-ButtonBackground {
        color:#232323;
        stop-color:#232323;                             
      }                                                 
      .ColorScheme-ButtonHover {                        
        color:#005cc7;                                  
        stop-color:#005cc7;                             
      }                                                 
      .ColorScheme-ButtonFocus{                         
        color:#0039a9;                                  
        stop-color:#0039a9;                             
      }</style>
    <style
       id="current-color-scheme-5">      .ColorScheme-Text {
        color:#d0d0d0;
        stop-color:#d0d0d0;
      }
      .ColorScheme-Background {
        color:#212121;
        stop-color:#212121;
      }
      .ColorScheme-Highlight {
        color:#0039a9;
        stop-color:#0039a9;
      }
      .ColorScheme-ViewText {
        color:#d0d0d0;
        stop-color:#d0d0d0;
      }
      .ColorScheme-ViewBackground {
        color:#19191b;
        stop-color:#19191b;
      }
      .ColorScheme-ViewHover {
        color:#005cc7;
        stop-color:#005cc7;
      }
      .ColorScheme-ViewFocus{
        color:#002466;
        stop-color:#002466;
      }
      .ColorScheme-ButtonText {
        color:#d0d0d0;
        stop-color:#d0d0d0;
      }
      .ColorScheme-ButtonBackground {
        color:#232323;
        stop-color:#232323;                             
      }                                                 
      .ColorScheme-ButtonHover {                        
        color:#005cc7;                                  
        stop-color:#005cc7;                             
      }                                                 
      .ColorScheme-ButtonFocus{                         
        color:#0039a9;                                  
        stop-color:#0039a9;                             
      }</style>
  </defs>
  <sodipodi:namedview
     id="base"
     pagecolor="#002266"
     bordercolor="#ffffff"
     borderopacity="0.46666667"
     inkscape:pageopacity="0"
     inkscape:pageshadow="2"
     inkscape:zoom="12.859375"
     inkscape:cx="31.399413"
     inkscape:cy="11.170575"
     inkscape:document-units="px"
     inkscape:current-layer="g890"
     inkscape:document-rotation="0"
     showgrid="false"
     inkscape:showpageshadow="false"
     borderlayer="true"
     units="px"
     fit-margin-top="0"
     fit-margin-left="0"
     fit-margin-right="0"
     fit-margin-bottom="0"
     inkscape:window-width="1920"
     inkscape:window-height="1051"
     inkscape:window-x="0"
     inkscape:window-y="0"
     inkscape:window-maximized="1"
     inkscape:snap-page="true" />
  <metadata
     id="metadata5">
    <rdf:RDF>
      <cc:Work
         rdf:about="">
        <dc:format>image/svg+xml</dc:format>
        <dc:type
           rdf:resource="http://purl.org/dc/dcmitype/StillImage" />
        <dc:title></dc:title>
      </cc:Work>
    </rdf:RDF>
  </metadata>
  <g
     id="g890"
     inkscape:label="#preferences-kdeconnect">
    <rect
       inkscape:label="#boundary"
       y="0"
       x="0"
       height="32"
       width="32"
       id="rect4264"
       style="fill:none;fill-opacity:0.74651441;stroke-width:23.61599922;stroke-opacity:0.3596773" />
    <path
       inkscape:label="#1"
       id="rect811"
       d="M 10.105469,4 C 9.4280392,4 8.8847656,4.5432731 8.8847656,5.2207031 V 26.779297 C 8.8847656,27.456727 9.4280392,28 10.105469,28 h 11.789062 c 0.677429,0 1.220703,-0.543273 1.220703,-1.220703 V 5.2207031 C 23.115234,4.5432731 22.571961,4 21.894531,4 Z M 16,5.5390625 A 0.90891704,0.90891704 0 0 1 16.908203,6.4492188 0.90891704,0.90891704 0 0 1 16,7.3574219 0.90891704,0.90891704 0 0 1 15.091797,6.4492188 0.90891704,0.90891704 0 0 1 16,5.5390625 Z m 1.087891,5.9570315 0.796875,0.138672 0.06445,0.816406 a 2.1444593,2.1444593 0 0 1 0.378906,0.242187 l 0.767578,-0.292968 0.466797,0.662109 -0.533203,0.623047 a 2.1444593,2.1444593 0 0 1 0.09766,0.439453 l 0.748047,0.335938 -0.136719,0.796874 -0.818359,0.06445 a 2.1444593,2.1444593 0 0 1 -0.240234,0.380859 l 0.291015,0.765625 -0.662109,0.466797 -0.621094,-0.53125 a 2.1444593,2.1444593 0 0 1 -0.441406,0.09766 L 16.910156,17.25 16.113281,17.111328 16.048828,16.294922 a 2.1444593,2.1444593 0 0 1 -0.380859,-0.242188 l -0.765625,0.291016 -0.466797,-0.660156 0.53125,-0.623047 a 2.1444593,2.1444593 0 0 1 -0.09766,-0.439453 l -0.748047,-0.335938 0.138672,-0.796875 0.818359,-0.06445 a 2.1444593,2.1444593 0 0 1 0.240234,-0.378906 l -0.291015,-0.769531 0.662109,-0.464844 0.621094,0.53125 a 2.1444593,2.1444593 0 0 1 0.441406,-0.09766 z M 17,13.535156 a 0.8381417,0.8381417 0 0 0 -0.826172,0.695313 0.8381417,0.8381417 0 0 0 0.681641,0.96875 0.8381417,0.8381417 0 0 0 0.96875,-0.681641 A 0.8381417,0.8381417 0 0 0 17.142578,13.546875 0.8381417,0.8381417 0 0 0 17,13.535156 Z m -3.294922,2.177735 0.66211,0.126953 0.04297,0.679687 a 1.7866106,1.7866106 0 0 1 0.3125,0.208985 l 0.642578,-0.234375 0.378907,0.558593 -0.451172,0.511719 a 1.7866106,1.7866106 0 0 1 0.07422,0.367188 l 0.621093,0.289062 -0.126953,0.662109 -0.679687,0.04297 a 1.7866106,1.7866106 0 0 1 -0.207032,0.314453 l 0.230469,0.642578 -0.55664,0.376954 -0.511719,-0.449219 a 1.7866106,1.7866106 0 0 1 -0.367188,0.07422 l -0.291015,0.61914 -0.66211,-0.125 -0.04297,-0.68164 a 1.7866106,1.7866106 0 0 1 -0.3125,-0.207032 l -0.642579,0.232422 -0.378906,-0.55664 0.453125,-0.513672 a 1.7866106,1.7866106 0 0 1 -0.07617,-0.365235 l -0.621094,-0.291015 0.126954,-0.66211 0.68164,-0.04297 a 1.7866106,1.7866106 0 0 1 0.207032,-0.3125 l -0.232422,-0.642578 0.55664,-0.38086 0.511719,0.453125 a 1.7866106,1.7866106 0 0 1 0.367187,-0.07422 z m 5.017578,1.289062 0.716797,0.289063 -0.08789,0.544922 a 1.2990902,1.2990902 0 0 1 0.105469,0.115234 1.2990902,1.2990902 0 0 1 0.08984,0.130859 l 0.548828,0.04492 0.107422,0.765625 -0.513672,0.195313 a 1.2990902,1.2990902 0 0 1 -0.117187,0.292968 l 0.234375,0.496094 -0.607422,0.476563 -0.425781,-0.345704 a 1.2990902,1.2990902 0 0 1 -0.3125,0.04297 l -0.3125,0.453125 -0.71875,-0.287109 0.08789,-0.544922 a 1.2990902,1.2990902 0 0 1 -0.105469,-0.117187 1.2990902,1.2990902 0 0 1 -0.08789,-0.13086 l -0.548828,-0.04492 -0.109375,-0.765625 0.515625,-0.193359 a 1.2990902,1.2990902 0 0 1 0.117187,-0.292969 L 17.0625,17.628906 17.671875,17.152344 18.095703,17.5 a 1.2990902,1.2990902 0 0 1 0.314453,-0.04297 z m -5.128906,0.408203 a 0.69827993,0.69827993 0 0 0 -0.394531,0.121094 0.69827993,0.69827993 0 0 0 -0.183594,0.970703 0.69827993,0.69827993 0 0 0 0.96875,0.183594 0.69827993,0.69827993 0 0 0 0.185547,-0.96875 0.69827993,0.69827993 0 0 0 -0.576172,-0.306641 z m 4.804688,0.761719 a 0.58179133,0.58179133 0 0 0 -0.322266,0.123047 0.58179133,0.58179133 0 0 0 -0.09961,0.816406 0.58179133,0.58179133 0 0 0 0.816407,0.09961 0.58179133,0.58179133 0 0 0 0.09961,-0.816407 0.58179133,0.58179133 0 0 0 -0.4375,-0.222656 0.58179133,0.58179133 0 0 0 -0.05664,0 z m -4.31836,7.419922 h 3.837891 c 0.241665,0 0.4375,0.191923 0.4375,0.433594 0,0.241665 -0.195829,0.435547 -0.4375,0.435547 h -3.837891 c -0.241663,0 -0.435547,-0.193877 -0.435547,-0.435547 0,-0.241665 0.193878,-0.433594 0.435547,-0.433594 z"
       style="opacity:0.6;fill:#d0d0d0;stroke-width:2.54999995"
       inkscape:connector-curvature="0" />
  </g>
</svg>
