<?xml version="1.0" encoding="UTF-8" standalone="no"?>
<!-- Created with Inkscape (http://www.inkscape.org/) -->

<svg
   xmlns:dc="http://purl.org/dc/elements/1.1/"
   xmlns:cc="http://creativecommons.org/ns#"
   xmlns:rdf="http://www.w3.org/1999/02/22-rdf-syntax-ns#"
   xmlns:svg="http://www.w3.org/2000/svg"
   xmlns="http://www.w3.org/2000/svg"
   xmlns:sodipodi="http://sodipodi.sourceforge.net/DTD/sodipodi-0.dtd"
   xmlns:inkscape="http://www.inkscape.org/namespaces/inkscape"
   width="32"
   height="32"
   viewBox="0 0 32 32"
   version="1.1"
   id="svg8"
   inkscape:version="0.92+devel (c0065a33f9, 2017-07-22, custom)"
   sodipodi:docname="system-users.svg">
  <defs
     id="ol-defs">
    <style
       id="current-color-scheme">      .ColorScheme-Text {
        color:#d0d0d0;
        stop-color:#d0d0d0;
      }
      .ColorScheme-Background {
        color:#212121;
        stop-color:#212121;
      }
      .ColorScheme-Highlight {
        color:#0039a9;
        stop-color:#0039a9;
      }
      .ColorScheme-ViewText {
        color:#d0d0d0;
        stop-color:#d0d0d0;
      }
      .ColorScheme-ViewBackground {
        color:#19191b;
        stop-color:#19191b;
      }
      .ColorScheme-ViewHover {
        color:#005cc7;
        stop-color:#005cc7;
      }
      .ColorScheme-ViewFocus{
        color:#002466;
        stop-color:#002466;
      }
      .ColorScheme-ButtonText {
        color:#d0d0d0;
        stop-color:#d0d0d0;
      }
      .ColorScheme-ButtonBackground {
        color:#232323;
        stop-color:#232323;                             
      }                                                 
      .ColorScheme-ButtonHover {                        
        color:#005cc7;                                  
        stop-color:#005cc7;                             
      }                                                 
      .ColorScheme-ButtonFocus{                         
        color:#0039a9;                                  
        stop-color:#0039a9;                             
      }</style>
  </defs>
  <sodipodi:namedview
     id="base"
     pagecolor="#002266"
     bordercolor="#ffffff"
     borderopacity="0.46666667"
     inkscape:pageopacity="0"
     inkscape:pageshadow="2"
     inkscape:zoom="12.859375"
     inkscape:cx="31.399413"
     inkscape:cy="11.170575"
     inkscape:document-units="px"
     inkscape:current-layer="svg8"
     inkscape:document-rotation="0"
     showgrid="false"
     inkscape:showpageshadow="false"
     borderlayer="true"
     units="px"
     fit-margin-top="0"
     fit-margin-left="0"
     fit-margin-right="0"
     fit-margin-bottom="0"
     inkscape:window-width="1920"
     inkscape:window-height="1051"
     inkscape:window-x="0"
     inkscape:window-y="0"
     inkscape:window-maximized="1"
     inkscape:snap-page="true" />
  <metadata
     id="metadata5">
    <rdf:RDF>
      <cc:Work
         rdf:about="">
        <dc:format>image/svg+xml</dc:format>
        <dc:type
           rdf:resource="http://purl.org/dc/dcmitype/StillImage" />
        <dc:title></dc:title>
      </cc:Work>
    </rdf:RDF>
  </metadata>
  <g
     id="g850"
     inkscape:label="#system-users">
    <rect
       inkscape:label="#boundary"
       y="0"
       x="0"
       height="32"
       width="32"
       id="rect4264"
       style="fill:none;fill-opacity:0.74651441;stroke-width:23.61599922;stroke-opacity:0.3596773" />
    <path
       inkscape:label="#1"
       inkscape:connector-curvature="0"
       id="path4264"
       d="M 15.933594,5 A 4.0899792,4.0899792 0 0 0 11.84375,9.0898438 4.0899792,4.0899792 0 0 0 15.503906,13.15625 c -1.823604,0.09098 -3.551363,0.811051 -5.011718,2.003906 C 9.8417393,14.841974 9.1450808,14.646189 8.4257812,14.609375 A 2.6674961,2.7364096 0 0 0 10.8125,11.888672 2.6674961,2.7364096 0 0 0 8.1445312,9.1523438 2.6674961,2.7364096 0 0 0 5.4765625,11.888672 2.6674961,2.7364096 0 0 0 7.9023438,14.611328 C 6.8569275,14.669028 5.8702686,15.064979 5,15.701172 v 8.169922 H 7.7128906 V 27 H 24.154297 V 23.871094 H 27 V 15.626953 C 26.153488,15.03324 25.199437,14.666865 24.193359,14.611328 a 2.6674961,2.7364096 0 0 0 2.425782,-2.722656 2.6674961,2.7364096 0 0 0 -2.667969,-2.7363282 2.6674961,2.7364096 0 0 0 -2.667969,2.7363282 2.6674961,2.7364096 0 0 0 2.386719,2.720703 c -0.794593,0.04067 -1.562438,0.26668 -2.269531,0.648437 -1.474625,-1.243691 -3.231708,-1.99941 -5.09375,-2.099609 A 4.0899792,4.0899792 0 0 0 20.023438,9.0898438 4.0899792,4.0899792 0 0 0 15.933594,5 Z M 9.7207031,15.861328 c -0.029402,0.02974 -0.05683,0.06161 -0.085937,0.0918 0.029224,-0.03 0.056425,-0.06223 0.085937,-0.0918 z m 12.4492189,0.119141 c 0.02652,0.02743 0.05185,0.05621 0.07813,0.08398 -0.02611,-0.0279 -0.05176,-0.05644 -0.07813,-0.08398 z M 9.0058594,16.65625 c -0.09144,0.114022 -0.1761079,0.236568 -0.2636719,0.355469 0.088204,-0.118353 0.1715614,-0.242044 0.2636719,-0.355469 z m 13.8769526,0.144531 c 0.08504,0.10834 0.162604,0.225265 0.244141,0.337891 -0.08091,-0.113215 -0.159756,-0.228931 -0.244141,-0.337891 z M 8.3261719,17.591797 c -0.2195836,0.342964 -0.4260896,0.69788 -0.6132813,1.074219 0.1871461,-0.376247 0.3929155,-0.733212 0.6132813,-1.074219 z m 15.2207031,0.15625 c 0.218637,0.350324 0.423644,0.71571 0.607422,1.101562 -0.183752,-0.385798 -0.389947,-0.749456 -0.607422,-1.101562 z"
       style="opacity:0.6;vector-effect:none;fill:#d0d0d0;stroke:none;stroke-width:1.95974791;stroke-linecap:round" />
  </g>
</svg>
