<?xml version="1.0" encoding="UTF-8" standalone="no"?>
<!-- Created with Inkscape (http://www.inkscape.org/) -->

<svg xmlns:dc="http://purl.org/dc/elements/1.1/" xmlns:cc="http://creativecommons.org/ns#" xmlns:rdf="http://www.w3.org/1999/02/22-rdf-syntax-ns#" xmlns:svg="http://www.w3.org/2000/svg" xmlns="http://www.w3.org/2000/svg" xmlns:sodipodi="http://sodipodi.sourceforge.net/DTD/sodipodi-0.dtd" xmlns:inkscape="http://www.inkscape.org/namespaces/inkscape" width="128.00002" height="128" viewBox="0 0 128.00002 128" version="1.1" id="main" inkscape:version="0.92+devel (577a34f67d, 2017-10-05, custom)" sodipodi:docname="user-identity.svg">
  <defs id="ol-defs" />
  <sodipodi:namedview id="base" pagecolor="#002466" bordercolor="#ffffff" borderopacity="0.30" inkscape:pageopacity="1" inkscape:pageshadow="2" inkscape:zoom="2.3229563" inkscape:document-units="px" inkscape:current-layer="main" inkscape:document-rotation="0" showgrid="false" inkscape:showpageshadow="false" borderlayer="true" inkscape:window-width="1920" inkscape:window-height="1029" inkscape:window-x="0" inkscape:window-y="22" inkscape:window-maximized="1" units="px" inkscape:cx="6.7489004" inkscape:cy="8.0269057" />
  <metadata id="metadata5">
    <rdf:RDF>
      <cc:Work rdf:about="">
        <dc:format>image/svg+xml</dc:format>
        <dc:type rdf:resource="http://purl.org/dc/dcmitype/StillImage" />
        <dc:title></dc:title>
      </cc:Work>
    </rdf:RDF>
  </metadata>
  <g id="g843" inkscape:label="#user-identity" style="stroke:none;stroke-width:0.125" transform="scale(8)">
    <path style="fill:none;stroke:none;stroke-width:0.125" d="M -5.5000004e-8,-4.9999999e-8 H 16.000001 V 16 H -5.5000004e-8 Z" id="boundary" inkscape:label="#boundary" inkscape:connector-curvature="0" />
    <path id="path837" d="M 8,2 A 6,6 0 0 0 2,8 6,6 0 0 0 4.2265625,12.660156 V 10.419922 C 4.9793153,8.9065584 6.3283298,7.9641887 7.8027344,7.890625 A 1.8778678,1.8778678 0 0 1 6.1230469,6.0234375 1.8778678,1.8778678 0 0 1 8,4.1464844 1.8778678,1.8778678 0 0 1 9.8769531,6.0234375 1.8778678,1.8778678 0 0 1 8.171875,7.890625 c 1.4976185,0.08059 2.860969,1.0583566 3.601563,2.613281 v 2.158203 A 6,6 0 0 0 14,8 6,6 0 0 0 8,2 Z" style="opacity:0.6;fill:#d0d0d0;stroke:none;stroke-width:0.1125" inkscape:connector-curvature="0" inkscape:label="#" />
  </g>
</svg>
