<?xml version="1.0" encoding="UTF-8" standalone="no"?>
<!-- Created with Inkscape (http://www.inkscape.org/) -->

<svg
   xmlns:dc="http://purl.org/dc/elements/1.1/"
   xmlns:cc="http://creativecommons.org/ns#"
   xmlns:rdf="http://www.w3.org/1999/02/22-rdf-syntax-ns#"
   xmlns:svg="http://www.w3.org/2000/svg"
   xmlns="http://www.w3.org/2000/svg"
   xmlns:sodipodi="http://sodipodi.sourceforge.net/DTD/sodipodi-0.dtd"
   xmlns:inkscape="http://www.inkscape.org/namespaces/inkscape"
   width="22"
   height="22"
   viewBox="0 0 22 22"
   version="1.1"
   id="svg8"
   inkscape:version="0.92+devel 15697 custom"
   sodipodi:docname="folder-build.svg">
  <defs
     id="ol-defs">
    <style
       id="current-color-scheme">      .ColorScheme-Text {
        color:#d0d0d0;
        stop-color:#d0d0d0;
      }
      .ColorScheme-Background {
        color:#212121;
        stop-color:#212121;
      }
      .ColorScheme-Highlight {
        color:#0039a9;
        stop-color:#0039a9;
      }
      .ColorScheme-ViewText {
        color:#d0d0d0;
        stop-color:#d0d0d0;
      }
      .ColorScheme-ViewBackground {
        color:#19191b;
        stop-color:#19191b;
      }
      .ColorScheme-ViewHover {
        color:#005cc7;
        stop-color:#005cc7;
      }
      .ColorScheme-ViewFocus{
        color:#002466;
        stop-color:#002466;
      }
      .ColorScheme-ButtonText {
        color:#d0d0d0;
        stop-color:#d0d0d0;
      }
      .ColorScheme-ButtonBackground {
        color:#232323;
        stop-color:#232323;                             
      }                                                 
      .ColorScheme-ButtonHover {                        
        color:#005cc7;                                  
        stop-color:#005cc7;                             
      }                                                 
      .ColorScheme-ButtonFocus{                         
        color:#0039a9;                                  
        stop-color:#0039a9;                             
      }</style>
    <style
       id="current-color-scheme-7">      .ColorScheme-Text {
        color:#d0d0d0;
        stop-color:#d0d0d0;
      }
      .ColorScheme-Background {
        color:#212121;
        stop-color:#212121;
      }
      .ColorScheme-Highlight {
        color:#0039a9;
        stop-color:#0039a9;
      }
      .ColorScheme-ViewText {
        color:#d0d0d0;
        stop-color:#d0d0d0;
      }
      .ColorScheme-ViewBackground {
        color:#19191b;
        stop-color:#19191b;
      }
      .ColorScheme-ViewHover {
        color:#005cc7;
        stop-color:#005cc7;
      }
      .ColorScheme-ViewFocus{
        color:#002466;
        stop-color:#002466;
      }
      .ColorScheme-ButtonText {
        color:#d0d0d0;
        stop-color:#d0d0d0;
      }
      .ColorScheme-ButtonBackground {
        color:#232323;
        stop-color:#232323;                             
      }                                                 
      .ColorScheme-ButtonHover {                        
        color:#005cc7;                                  
        stop-color:#005cc7;                             
      }                                                 
      .ColorScheme-ButtonFocus{                         
        color:#0039a9;                                  
        stop-color:#0039a9;                             
      }</style>
  </defs>
  <sodipodi:namedview
     id="base"
     pagecolor="#002266"
     bordercolor="#ffffff"
     borderopacity="0.46666667"
     inkscape:pageopacity="0"
     inkscape:pageshadow="2"
     inkscape:zoom="13.081476"
     inkscape:cx="16.621911"
     inkscape:cy="12.794693"
     inkscape:document-units="px"
     inkscape:current-layer="svg8"
     inkscape:document-rotation="0"
     showgrid="false"
     inkscape:showpageshadow="false"
     borderlayer="true"
     units="px"
     fit-margin-top="0"
     fit-margin-left="0"
     fit-margin-right="0"
     fit-margin-bottom="0"
     inkscape:window-width="1920"
     inkscape:window-height="1051"
     inkscape:window-x="0"
     inkscape:window-y="0"
     inkscape:window-maximized="1"
     inkscape:snap-page="true" />
  <metadata
     id="metadata5">
    <rdf:RDF>
      <cc:Work
         rdf:about="">
        <dc:format>image/svg+xml</dc:format>
        <dc:type
           rdf:resource="http://purl.org/dc/dcmitype/StillImage" />
        <dc:title></dc:title>
      </cc:Work>
    </rdf:RDF>
  </metadata>
  <g
     id="g4267"
     inkscape:label="#folder-build"
     style="fill:none">
    <rect
       inkscape:label="#boundary"
       y="0"
       x="0"
       height="22"
       width="22"
       id="rect4264"
       style="vector-effect:none;fill:none;stroke-width:3;stroke-linecap:round"
       sodipodi:insensitive="true" />
    <path
       inkscape:label="#glyph"
       id="path4264"
       d="M 13.710938,2.2 13.054687,3.6625 A 4.1901437,4.1901437 0 0 0 12.19375,3.8515623 L 10.978125,2.8140624 9.6843743,3.7234375 10.254687,5.2249999 A 4.1901437,4.1901437 0 0 0 9.7843743,5.9671879 L 8.1859376,6.0906247 7.9156248,7.6484375 9.3781248,8.30625 a 4.1901437,4.1901437 0 0 0 0.1890623,0.859375 l -1.0374999,1.217188 0.9125,1.290625 1.4968748,-0.568751 A 4.1901437,4.1901437 0 0 0 11.682813,11.575 l 0.126562,1.596875 1.55625,0.270312 0.65625,-1.460937 a 4.1901437,4.1901437 0 0 0 0.8625,-0.190625 l 1.214063,1.0375 1.293749,-0.910938 -0.571874,-1.498437 a 4.1901437,4.1901437 0 0 0 0.471874,-0.742188 l 1.598438,-0.125 0.26875,-1.559374 -1.4625,-0.6546881 A 4.1901437,4.1901437 0 0 0 17.506249,6.4765623 l 1.039064,-1.2171872 -0.910938,-1.2921872 -1.5,0.5718744 A 4.1901437,4.1901437 0 0 0 15.39375,4.0671879 L 15.267187,2.4703128 Z m -0.171876,3.9843751 a 1.6376781,1.6376781 0 0 1 0.278125,0.02344 A 1.6376781,1.6376781 0 0 1 15.151562,8.101566 1.6376781,1.6376781 0 0 1 13.257813,9.43594 1.6376781,1.6376781 0 0 1 11.925,7.5421903 1.6376781,1.6376781 0 0 1 13.539062,6.1843775 Z m -6.4374996,4.2562499 -0.567188,1.210937 a 3.4909289,3.4909289 0 0 0 -0.7171872,0.146876 l -1.0015624,-0.884376 -1.0875,0.740625 0.4546872,1.256251 A 3.4909289,3.4909289 0 0 0 3.7765624,13.521875 L 2.4468744,13.60625 2.2,14.9 3.4125,15.46875 a 3.4909289,3.4909289 0 0 0 0.1468744,0.715625 l -0.8843744,1 L 3.4156248,18.275 4.6718744,17.820313 A 3.4909289,3.4909289 0 0 0 5.282812,18.225 L 5.3671872,19.554687 6.6609376,19.8 7.2281248,18.592187 A 3.4909289,3.4909289 0 0 0 7.945312,18.44375 l 1,0.88125 1.089062,-0.739062 -0.4531245,-1.254688 a 3.4909289,3.4909289 0 0 0 0.404688,-0.614063 l 1.3281245,-0.08281 0.248438,-1.29375 -1.210938,-0.567187 a 3.4909289,3.4909289 0 0 0 -0.148437,-0.71719 l 0.884375,-1 -0.740625,-1.090625 -1.2546878,0.45625 A 3.4909289,3.4909289 0 0 0 8.4781248,12.015625 L 8.395312,10.685938 Z m 9.8046866,2.51875 -0.612499,0.885938 a 2.5383437,2.5383437 0 0 0 -0.610937,0.08437 l -0.831251,-0.678125 -1.1875,0.931251 0.459376,0.971874 a 2.5383437,2.5383437 0 0 0 -0.229688,0.571875 l -1.004688,0.381251 0.2125,1.495312 1.071876,0.0875 a 2.5383437,2.5383437 0 0 0 0.173437,0.254688 2.5383437,2.5383437 0 0 0 0.20625,0.228125 L 14.38125,19.2375 15.782813,19.8 l 0.6125,-0.885938 a 2.5383437,2.5383437 0 0 0 0.610936,-0.08438 l 0.831251,0.678126 1.1875,-0.931251 -0.459375,-0.971875 a 2.5383437,2.5383437 0 0 0 0.229688,-0.571874 L 19.8,16.651562 19.5875,15.15625 18.515625,15.06875 a 2.5383437,2.5383437 0 0 0 -0.173438,-0.254688 2.5383437,2.5383437 0 0 0 -0.20625,-0.228124 l 0.171876,-1.064063 z M 6.8859376,13.75625 A 1.3643967,1.3643967 0 0 1 8.0093744,14.353125 1.3643967,1.3643967 0 0 1 7.6484376,16.248438 1.3643967,1.3643967 0 0 1 5.7531248,15.8875 1.3643967,1.3643967 0 0 1 6.1140624,13.992187 1.3643967,1.3643967 0 0 1 6.8859376,13.75625 Z m 9.4984374,1.4875 A 1.136785,1.136785 0 0 1 17.239062,15.678125 1.136785,1.136785 0 0 1 17.045313,17.275 1.136785,1.136785 0 0 1 15.45,17.08125 1.136785,1.136785 0 0 1 15.64375,15.484375 1.136785,1.136785 0 0 1 16.384375,15.24375 Z"
       style="opacity:0.6;vector-effect:none;fill:#d0d0d0;stroke-width:1.05325437;stroke-linecap:square"
       inkscape:connector-curvature="0" />
  </g>
</svg>
