<?xml version="1.0" encoding="UTF-8" standalone="no"?>
<!-- Created with Inkscape (http://www.inkscape.org/) -->

<svg
     xmlns:dc="http://purl.org/dc/elements/1.1/"
     xmlns:cc="http://creativecommons.org/ns#"
     xmlns:rdf="http://www.w3.org/1999/02/22-rdf-syntax-ns#"
     xmlns:svg="http://www.w3.org/2000/svg"
     xmlns="http://www.w3.org/2000/svg"
     xmlns:sodipodi="http://sodipodi.sourceforge.net/DTD/sodipodi-0.dtd"
     xmlns:inkscape="http://www.inkscape.org/namespaces/inkscape"
     width="16"
     height="16"
     viewBox="0 0 4.2333333 4.2333333"
     version="1.1"
     id="svg8"
     inkscape:version="0.92+devel (fa9b7f7a5b, 2017-07-19, custom)"
     sodipodi:docname="glyph-postscript.svg">
    <defs
         id="defs2" />
    <sodipodi:namedview
         id="base"
         pagecolor="#002466"
         bordercolor="#ffffff"
         borderopacity="0.38039216"
         inkscape:pageopacity="1"
         inkscape:pageshadow="2"
         inkscape:zoom="28.674218"
         inkscape:cx="7.5763393"
         inkscape:cy="5.0277725"
         inkscape:document-units="px"
         inkscape:current-layer="svg8"
         inkscape:document-rotation="0"
         showgrid="false"
         inkscape:showpageshadow="false"
         borderlayer="true"
         inkscape:window-width="1920"
         inkscape:window-height="1051"
         inkscape:window-x="0"
         inkscape:window-y="0"
         inkscape:window-maximized="1"
         units="px" />
    <metadata
         id="metadata5">
        <rdf:RDF>
            <cc:Work
                 rdf:about="">
                <dc:format>image/svg+xml</dc:format>
                <dc:type
                     rdf:resource="http://purl.org/dc/dcmitype/StillImage" />
                <dc:title></dc:title>
            </cc:Work>
        </rdf:RDF>
    </metadata>
    <path
         style="fill:#d0d0d0;stroke-width:9.62362671"
         d="M 2.445265,0.21691444 0.83454429,2.0751362 C 1.252257,2.1398424 1.9628251,2.6545821 1.8554157,3.3412637 2.0736771,2.8349623 1.6714419,2.2136286 1.2880155,1.9640132 L 2.692766,0.32803732 C 2.6203271,0.27721065 2.5601354,0.24938707 2.445265,0.21691444 Z M 1.866079,0.34824148 c -0.044401,0.002336 -0.074588,0.008189 -0.072959,0.007857 L 1.2790358,0.93079476 C 0.99059449,0.94437026 0.71024822,0.96432846 0.43887942,0.99028476 0.24235518,1.0100659 0.08573403,1.1639452 0.06285751,1.3601332 0.01995891,1.7131507 1.1e-7,2.0831412 1.1e-7,2.463505 c 0,0.380494 0.0200674,0.7504848 0.0628574,1.1033718 0.0274877,0.2258636 0.18057814,0.3378102 0.37602191,0.3698483 0.53525477,0.087785 1.31719918,0.00711 1.31719918,-0.7133192 0,-0.6740287 -1.13646697,-0.962639 -1.52429186,-0.7778601 L 2.0232225,0.36058848 C 1.9687901,0.34723019 1.910479,0.34590511 1.866079,0.34824148 Z m 1.217862,0.58872676 c 0,0 -1.0070303,2.18074876 -1.1084228,2.40541796 -0.1493971,0.3304881 -0.3541517,0.5732674 -0.6504618,0.6555127 0.2605254,0.012004 0.5201655,0.01852 0.791891,0.01852 0.5868853,0 1.1500134,-0.028651 1.6780678,-0.079695 0.1965546,-0.019664 0.3531252,-0.1736442 0.376022,-0.3698483 0.042681,-0.352887 0.062296,-0.7228776 0.062296,-1.1033718 0,-0.3803637 -0.019506,-0.7503545 -0.062296,-1.1033718 C 4.1480056,1.1639719 3.9915222,1.0101538 3.7950152,0.99028477 3.5644706,0.96812956 3.3271597,0.95032654 3.083941,0.93696824 Z M 1.3250564,3.9978989 c -5.535e-4,-2.56e-5 -0.00113,2.56e-5 -0.00168,0 v 5.612e-4 c 5.794e-4,-1.594e-4 0.00111,-4.005e-4 0.00168,-5.612e-4 z"
         id="path2"
         inkscape:connector-curvature="0"
         inkscape:label="#" />
</svg>
