<?xml version="1.0" encoding="UTF-8" standalone="no"?>
<!-- Created with Inkscape (http://www.inkscape.org/) -->

<svg xmlns:dc="http://purl.org/dc/elements/1.1/" xmlns:cc="http://creativecommons.org/ns#" xmlns:rdf="http://www.w3.org/1999/02/22-rdf-syntax-ns#" xmlns:svg="http://www.w3.org/2000/svg" xmlns="http://www.w3.org/2000/svg" xmlns:sodipodi="http://sodipodi.sourceforge.net/DTD/sodipodi-0.dtd" xmlns:inkscape="http://www.inkscape.org/namespaces/inkscape" width="12" height="12" viewBox="0 0 12 12" version="1.1" id="default16" inkscape:version="0.92+devel (e2f52136d0, 2017-12-17, custom)" sodipodi:docname="glyph-om.svg">
  <sodipodi:namedview id="base" pagecolor="#002466" bordercolor="#ffffff" borderopacity="0.38039216" inkscape:pageopacity="1" inkscape:pageshadow="2" inkscape:zoom="26.28125" inkscape:cx="7.7336504" inkscape:cy="8" inkscape:document-units="px" inkscape:current-layer="default16" inkscape:document-rotation="0" showgrid="false" inkscape:showpageshadow="false" borderlayer="true" inkscape:window-width="1920" inkscape:window-height="1023" inkscape:window-x="0" inkscape:window-y="28" inkscape:window-maximized="1" units="px" />
  <metadata id="metadata5">
    <rdf:RDF>
      <cc:Work rdf:about="">
        <dc:format>image/svg+xml</dc:format>
        <dc:type rdf:resource="http://purl.org/dc/dcmitype/StillImage" />
        <dc:title></dc:title>
      </cc:Work>
    </rdf:RDF>
  </metadata>
  <defs id="defs5" />
  <g aria-label="à¥" style="font-size:16.35928154px;line-height:1.25;font-family:sans-serif;letter-spacing:0px;word-spacing:0px;stroke-width:0.99999994" id="text813">
    <path d="M 5.9933107,0.745838 Q 5.9933107,0 6.7692492,0 q 0.3411453,0 0.5551974,0.1798002 0.214052,0.173141 0.214052,0.5660378 0,0.3862375 -0.214052,0.5660377 -0.2140521,0.173141 -0.5551974,0.173141 -0.7759385,0 -0.7759385,-0.7391787 z M 4.1671795,0.7991121 4.9230506,0.5793562 q 0.4347932,1.8113208 1.7926856,1.8113208 0.7759385,0 1.1906643,-0.4927858 Q 8.3211263,1.4051054 8.3746393,0.5194228 L 9.8194906,0.872364 Q 9.6455735,2.1509433 8.9699714,2.9100998 8.2943697,3.6625971 7.0702599,3.6625971 q -1.0368145,0 -1.8194421,-0.7658158 Q 4.4748793,2.1243063 4.1671795,0.7991121 Z m 7.8329665,7.418424 q 0,1.1387349 -0.648845,1.8978909 -0.642157,0.759157 -1.6254581,0.759157 -0.7090476,0 -1.4381623,-0.452831 Q 7.5652551,9.962264 7.0368142,9.342952 l 0.481617,-0.45283 q 0.7090473,0.645949 1.5251206,0.645949 0.7625604,0 1.2107312,-0.599334 0.448172,-0.5993341 0.448172,-1.5849057 0,-0.6925638 -0.207363,-1.1720311 Q 10.287729,5.700333 9.7860447,5.700333 q -0.2541865,0 -0.4749279,0.1731409 Q 9.0903757,6.0466149 8.9030802,6.3129856 8.7157847,6.572697 8.4415305,7.0188679 8.0870069,7.5982242 7.8194419,7.9511654 7.5518769,8.3041066 7.183975,8.557159 6.8160731,8.803552 6.3612125,8.803552 q -0.2809432,0 -0.5418191,-0.113208 0.4481714,0.659268 0.4481714,1.458379 0,0.819091 -0.5685757,1.338513 Q 5.1371026,12 4.2206925,12 2.7423958,12 1.7189596,10.801332 0.69552346,9.602664 -1.456e-4,7.9112098 L 0.72227994,7.5782464 Q 1.3577469,9.009989 2.060105,9.815761 q 0.7023582,0.799111 1.5117423,0.799111 0.6488452,0 0.9899905,-0.332963 0.3411454,-0.339623 0.3411454,-0.852386 0,-0.665927 -0.5217518,-1.2785796 Q 3.926371,8.3440621 3.344417,8.510544 L 2.5617894,7.1054384 q 1.1839751,-0.2930078 1.7726182,-0.7058823 0.588643,-0.4195339 0.588643,-0.9056605 0,-0.2330743 -0.1939846,-0.4128745 -0.1872955,-0.1798002 -0.5618865,-0.1798002 -0.903032,0 -1.919779,0.4728079 L 1.5249749,3.9156493 q 0.9833015,-0.4328524 1.8528878,-0.4328524 0.7558711,0 1.2441773,0.3529411 0.4949953,0.3462819 0.9164101,1.0654829 0.4214149,0.7125417 0.4214149,1.3584905 0,0.4661487 -0.1806063,0.81909 -0.1806064,0.3529411 -0.581954,0.6392896 h 0.1137152 q 0.3879692,0 0.6889799,-0.2064373 Q 6.3076996,7.2985572 6.5351298,6.9855716 6.7625601,6.672586 7.0635707,6.1598224 7.3913378,5.6071032 7.6321463,5.2807991 7.8729549,4.9544949 8.2074111,4.7280799 q 0.3411454,-0.226415 0.7826277,-0.226415 1.0033689,0 1.8997122,0.8923418 0.488306,0.4861265 0.729114,0.972253 0.247499,0.4794672 0.31439,0.9056603 0.06689,0.4261932 0.06689,0.9456161 z" style="font-style:normal;font-variant:normal;font-weight:bold;font-stretch:normal;font-family:'Noto Serif Devanagari';-inkscape-font-specification:'Noto Serif Devanagari Bold';fill:#ffffff;stroke-width:0.99999988" id="path815" inkscape:connector-curvature="0" />
  </g>
</svg>
