<?xml version="1.0" encoding="UTF-8" standalone="no"?><svg height="16" viewBox="0 0 4.2333333 4.2333333" width="16" xmlns="http://www.w3.org/2000/svg"><sodipodi:namedview/><metadata><rdf:RDF><cc:Work><dc:format>image/svg+xml</dc:format><dc:type/><dc:title/></cc:Work></rdf:RDF></metadata><path d="m .9963216.29182183c-.022883.001628-.045209.012224-.061495.0310059-.032573.0375654-.0277485.0945512.009819.12712401l3.0442582 2.63963216c.037567.032573.094551.028784.1271241-.00879.032573-.037563.024387-.090038-.0093-.1266073l-.7916848-.8588573-1.2908773-1.11931151-.9622151-.66197508c-.018783-.01628651-.0427468-.02384957-.0656291-.02222088zm-.90640461 2.98483067c-.0497191 0-.08991699.0396812-.08991699.0894004v.2924884c0 .04972.04019789.0894.08991699.0894h.50074463a.20394287.20394287 0 0 0  .20308837.1937869.20394287.20394287 0 0 0  .20360513-.1937866h2.23913978a.20394287.20394287 0 0 0  .2030884.1937866.20394287.20394287 0 0 0  .2030883-.1937866h.5007446c.049718 0 .089917-.039681.089917-.0894v-.2924887c0-.04972-.040196-.0894-.089917-.0894zm2.92902011.1105877c.0691269-.0002069.1252638.05593.1250569.1250569.0002066.0691263-.0559306.1252638-.1250569.1250569-.0687941-.0002638-.1242293-.0562626-.1240235-.1250569-.0002061-.0687946.0552292-.1247932.1240235-.1250569zm.4795573 0c .068794.0002637.1242292.056262.1240234.1250569.0002058.068794-.0552289.1247931-.1240234.1250569-.0691264.0002069-.1252633-.0559306-.1250569-.1250569-.0002069-.0691269.0559302-.1252638.1250569-.1250569zm.4790405 0c .069127-.0002064.1252638.05593.1250569.1250569.0002064.069126-.05593.1252632-.1250569.1250569-.068794-.0002638-.124746-.0562626-.1245402-.1250569-.0002058-.0687946.0557462-.1247932.1245402-.1250569z" fill="#d0d0d0" stroke-linejoin="round" stroke-width=".348327"/></svg>