<?xml version="1.0" encoding="UTF-8" standalone="no"?><svg height="16" viewBox="0 0 4.2333332 4.2333332" width="16" xmlns="http://www.w3.org/2000/svg"><sodipodi:namedview/><metadata><rdf:RDF><cc:Work><dc:format>image/svg+xml</dc:format><dc:type/><dc:title/></cc:Work></rdf:RDF></metadata><path d="m2.1166666.00000009a2.1167231 2.1167231 0 0 0 -2.1166665 2.11666641 2.1167231 2.1167231 0 0 0 2.1166665 2.1166666 2.1167231 2.1167231 0 0 0 2.1166665-2.1166666 2.1167231 2.1167231 0 0 0 -2.1166665-2.11666641zm-.7399426.90396202c1.1943832.030037 1.5403659.91061809 2.4036385.73796349-1.1387522.9593964-1.8821741-.2860293-3.3088375 1.4717215-.1774122-.2890364-.271516-.621299-.2721288-.9603669.0004054-.4253183.1480398-.837606.4178413-1.16644259.2880453-.064841.5383044-.088438.7594865-.0828755zm.6187217 1.35445879c.026444-.0008892.052429-.0006194.07768.0007422.7829715.042261 1.0141107.8020375 1.6666646.8020375-.9434261.6014158-1.7281739-.8102556-3.1779684.1073672.5110918-.6264088 1.0369652-.8967872 1.4336238-.9101469z" fill="#d0d0d0"/></svg>