<?xml version="1.0" encoding="UTF-8" standalone="no"?><svg height="16" viewBox="0 0 4.2333333 4.2333333" width="16" xmlns="http://www.w3.org/2000/svg"><sodipodi:namedview/><metadata><rdf:RDF><cc:Work><dc:format>image/svg+xml</dc:format><dc:type/><dc:title/></cc:Work></rdf:RDF></metadata><path d="m2.47082.00002666-.7494793.0700617v2.89451514l.7412404-.1011503v-1.2371915l.9883285 1.3694832.7741875-.2334683-1.0130335-1.3149791 1.0212697-1.24497042-.7906583-.17118542-.9800923 1.24497044.00826-1.27608544zm-1.68838456.70805145c-.008379 0-.0183946.004498-.0247139.007937l-.28826082.28011488c-.0122767.0121709-.0172614.0325173-.008262.046699l.33767836.52914021c-.0606213.096282-.10529321.2017183-.1400153.3111499l-.62593959.1245658c-.0174519.0045-.0329222.014288-.0329222.031247v.3890698c0 .016404.01612771.034766.03292221.038762l.60946712.1400704c.0324507.1268677.081734.2474383.14824697.3578754l-.35414607.5058567c-.009825.014288-.004715.034766.008262.046699l.28826556.2722826c.0122767.011113.0344316.016933.0494132.00794l.55181792-.3189841c.1085004.059134.2222383.1084791.3459159.1400175l.1317734.5835914c.00378.016933.015153.031194.032925.031194h.4117983c.017357 0 .037025-.015081.041176-.031194l.1482468-.5835914c.1274847-.0325173.2512451-.0859367.3623879-.1477963l.5435774.3423708c.01496.009.036696.0045.049416-.00794l.2882596-.272362c.012351-.012171.017312-.032517.00826-.046646l-.1976639-.311174-.065888.023283c-.0094.0045-.019195 0-.024715-.00794 0 0-.1245722-.1782763-.2882606-.4046538-.1956835.3618442-.5944679.6069807-1.0542111.6069807-.6531827 0-1.18598864-.4955646-1.18598864-1.1127052 0-.4539456.28860974-.8444176.70006354-1.0193072v-.28791684c-.074889.0248708-.145379.05016504-.2141415.08564564-.0000511 0-.00806 0-.00826 0l-.55181415-.34242376c-.007504-.004498-.0163174-.008467-.0247171-.007673z" fill="#d0d0d0"/></svg>