<?xml version="1.0" encoding="UTF-8" standalone="no"?><svg height="16" viewBox="0 0 4.2333332 4.2333332" width="16" xmlns="http://www.w3.org/2000/svg"><sodipodi:namedview/><metadata><rdf:RDF><cc:Work><dc:format>image/svg+xml</dc:format><dc:type/><dc:title/></cc:Work></rdf:RDF></metadata><path d="m2.1112716-.0000001s-.1909612.31833441-.2044645.71805364c-.1099933-.16650976-.276148-.3285288-.5303131-.42241624.164267.16947963.2906835.40162922.3355592.66896056-.1376285-.07593036-.3053399-.13693453-.5027993-.14188438-.081064-.00203573-.1667711.00511543-.25679445.0242768.31097865.0752781.57693535.32266622.75365945.67705282-.4077978.2064501-.6774667.7273233-.6775923 1.3087889-.0000276.7736216.2747694 1.4005013 1.0509154 1.4005013.9198399 0 1.0504037-.6271606 1.0503761-1.4005013-.000361-.551134-.243196-1.0507407-.620407-1.2764198.1765417-.3725769.4506723-.63176878.7714626-.7094219-.3103344-.06603755-.565248.01154071-.759594.11922602.044478-.2679954.1704311-.50076767.3350197-.67057902-.2615121.09660142-.4303324.26486938-.5400237.43644282-.0093341-.40637865-.2050041-.73208022-.2050041-.73208022z" fill="#d0d0d0"/></svg>