<?xml version="1.0" encoding="UTF-8" standalone="no"?>
<!-- Created with Inkscape (http://www.inkscape.org/) -->

<svg
     xmlns:dc="http://purl.org/dc/elements/1.1/"
     xmlns:cc="http://creativecommons.org/ns#"
     xmlns:rdf="http://www.w3.org/1999/02/22-rdf-syntax-ns#"
     xmlns:svg="http://www.w3.org/2000/svg"
     xmlns="http://www.w3.org/2000/svg"
     xmlns:sodipodi="http://sodipodi.sourceforge.net/DTD/sodipodi-0.dtd"
     xmlns:inkscape="http://www.inkscape.org/namespaces/inkscape"
     width="16"
     height="16"
     viewBox="0 0 4.2333333 4.2333333"
     version="1.1"
     id="svg8"
     inkscape:version="0.92+devel (572d1a9d8b, 2017-07-17, custom)"
     sodipodi:docname="glyph-debian.svg">
    <defs
         id="defs2" />
    <sodipodi:namedview
         id="base"
         pagecolor="#002466"
         bordercolor="#ffffff"
         borderopacity="0.38039216"
         inkscape:pageopacity="1"
         inkscape:pageshadow="2"
         inkscape:zoom="26.5625"
         inkscape:cx="8"
         inkscape:cy="8"
         inkscape:document-units="px"
         inkscape:current-layer="svg8"
         inkscape:document-rotation="0"
         showgrid="false"
         inkscape:showpageshadow="false"
         borderlayer="true"
         inkscape:window-width="1920"
         inkscape:window-height="1051"
         inkscape:window-x="0"
         inkscape:window-y="0"
         inkscape:window-maximized="1"
         units="px" />
    <metadata
         id="metadata5">
        <rdf:RDF>
            <cc:Work
                 rdf:about="">
                <dc:format>image/svg+xml</dc:format>
                <dc:type
                     rdf:resource="http://purl.org/dc/dcmitype/StillImage" />
                <dc:title></dc:title>
            </cc:Work>
        </rdf:RDF>
    </metadata>
    <path
         inkscape:connector-curvature="0"
         style="color:#000000;clip-rule:nonzero;display:inline;overflow:visible;visibility:visible;opacity:0.75;isolation:auto;mix-blend-mode:normal;color-interpolation:sRGB;color-interpolation-filters:linearRGB;solid-color:#000000;solid-opacity:1;fill:#ffffff;fill-opacity:1;fill-rule:nonzero;stroke-width:0.19243129;stroke-linecap:butt;stroke-linejoin:miter;stroke-miterlimit:4;stroke-dasharray:none;stroke-dashoffset:0;stroke-opacity:1;color-rendering:auto;image-rendering:auto;shape-rendering:auto;text-rendering:auto;enable-background:accumulate"
         id="path4181"
         d="M 2.4122242,4.2213485 C 2.1851072,4.1835203 1.8595522,4.0549204 1.6578492,3.923357 1.2148702,3.6344195 0.9255662,3.313652 0.7465212,2.9129292 0.6870362,2.7797995 0.6545382,2.6764908 0.5615682,2.3250478 c -0.02311,-0.087387 -0.05189,-0.1836238 -0.06393,-0.2138605 -0.02032,-0.051004 -0.02121,-0.068209 -0.01236,-0.23833 0.0084,-0.1616269 0.03574,-0.3803193 0.05041,-0.4033206 0.0028,-0.00447 0.0095,-0.00552 0.01489,-0.00235 0.01809,0.010738 0.03482,-0.038906 0.05125,-0.15214 0.009,-0.062038 0.02315,-0.1270951 0.03144,-0.1445737 0.0083,-0.017473 0.02233,-0.056052 0.0312,-0.085719 0.02042,-0.068283 0.04826,-0.12077019 0.134331,-0.25323809 0.03786,-0.058259 0.0772,-0.1217128 0.08744,-0.1410078 0.01204,-0.022703 0.02521,-0.033826 0.0373,-0.031518 0.01164,0.00221 0.03086,-0.012508 0.05098,-0.039062 0.08751,-0.1154973 0.49968,-0.4562507 0.537823,-0.4446337 0.01041,0.00318 0.05391,-0.011141 0.09665,-0.031797 0.07732,-0.037367 0.11139,-0.04601 0.11139,-0.028262 0,0.00512 -0.01118,0.016742 -0.02484,0.02583 -0.02397,0.015953 -0.02349,0.016222 0.0138,0.00756 0.02125,-0.00495 0.05704,-0.011969 0.07952,-0.015625 0.02778,-0.00452 0.03909,-0.01118 0.03525,-0.020761 -0.0033,-0.00841 0.0047,-0.016742 0.01982,-0.02065 0.038,-0.00976 0.09721,-0.00816 0.09721,0.00263 0,0.012951 -0.03386,0.026029 -0.06071,0.023473 -0.01832,-0.00173 -0.01925,-1.925e-4 -0.0055,0.00879 0.01366,0.00901 0.01383,0.01093 9.46e-4,0.011064 -0.0086,8.85e-5 -0.0128,0.00287 -0.0094,0.0062 0.0035,0.00331 0.02647,-0.00385 0.05114,-0.015934 0.02467,-0.012085 0.06986,-0.027106 0.100411,-0.033395 0.03762,-0.00774 0.05556,-0.016722 0.05556,-0.027806 0,-0.014259 0.01747,-0.015472 0.135212,-0.00939 0.07437,0.00385 0.186591,0.015029 0.249383,0.02486 0.114162,0.017877 0.114172,0.017877 0.156716,-0.00562 0.05103,-0.028184 0.133107,-0.031851 0.154675,-0.00691 0.0079,0.00912 0.02961,0.02416 0.04826,0.033416 0.03043,0.015106 0.03244,0.015125 0.01958,1.925e-4 -0.02443,-0.028268 -1.67e-4,-0.027556 0.09417,0.00277 0.304151,0.097753 0.552105,0.2718477 0.736094,0.5168301 0.04363,0.058095 0.04627,0.084231 0.0049,0.048868 l -0.02365,-0.020238 0.01807,0.033901 c 0.0099,0.018647 0.01807,0.039598 0.01807,0.046562 0,0.00697 0.02925,0.058444 0.065,0.1143946 0.08057,0.1261022 0.103105,0.16858709 0.0977,0.18415099 -0.0023,0.00668 -0.03801,-0.037742 -0.07932,-0.0987 -0.0413,-0.060955 -0.102431,-0.1430845 -0.135833,-0.1825079 -0.04989,-0.058873 -0.06295,-0.068942 -0.07312,-0.056359 -0.0068,0.00843 -0.02346,0.016838 -0.03699,0.018724 l -0.0246,0.0034 0.02434,0.045778 c 0.01337,0.025178 0.02611,0.040668 0.02828,0.034424 0.01162,-0.033439 0.0657,0.010526 0.0903,0.073389 0.008,0.02039 0.02918,0.06238 0.04712,0.093312 0.01793,0.030931 0.03036,0.058405 0.0276,0.061055 -0.0028,0.00265 -0.01913,-0.00583 -0.03635,-0.018839 l -0.03132,-0.02365 0.02137,0.035201 c 0.01176,0.019362 0.03143,0.043045 0.04373,0.052632 0.01534,0.011969 0.02268,0.030859 0.02336,0.060233 0.0013,0.054235 0.03364,0.1183048 0.05125,0.1014094 0.02743,-0.026321 0.03307,-0.00987 0.02617,0.076326 -0.0051,0.063506 -0.0024,0.1053639 0.0097,0.1498002 0.01832,0.067463 0.01437,0.084114 -0.01242,0.052584 -0.01703,-0.020052 -0.0172,-0.020038 -0.0096,7.71e-4 0.01636,0.044607 0.02857,0.1113407 0.02517,0.1375326 -0.0063,0.048875 -0.02546,0.028555 -0.03205,-0.034054 l -0.0064,-0.061108 -0.0019,0.065032 c -9.45e-4,0.035769 -0.0098,0.1048847 -0.01945,0.153591 -0.0098,0.049197 -0.01474,0.1088103 -0.01116,0.1341227 0.0067,0.047619 0.002,0.049464 -0.03951,0.015356 -0.01687,-0.013894 -0.01979,-0.011084 -0.03138,0.030239 -0.0098,0.034769 -0.0097,0.054564 3.86e-4,0.083683 0.0072,0.020979 0.01141,0.049432 0.0093,0.063227 -0.0048,0.031837 -0.0314,0.041765 -0.0314,0.011739 0,-0.037757 -0.01497,-0.024319 -0.06071,0.054505 -0.123518,0.2128521 -0.318959,0.377579 -0.540159,0.455277 -0.130409,0.045808 -0.217876,0.062794 -0.364942,0.070872 l -0.132454,0.00727 0.06544,0.019374 c 0.05277,0.015625 0.08376,0.017954 0.160048,0.012046 0.09994,-0.00776 0.217295,-0.028563 0.270505,-0.047977 0.02124,-0.00776 0.03558,-0.0081 0.04292,-0.00116 0.0173,0.016607 -0.136408,0.081899 -0.227657,0.096693 -0.155266,0.025174 -0.363102,-0.00204 -0.546569,-0.071546 -0.124478,-0.047163 -0.309197,-0.1699938 -0.28089,-0.1867815 0.0054,-0.00318 0.0405,0.012874 0.07809,0.035689 0.04805,0.029153 0.06835,0.036831 0.06835,0.025849 0,-0.020742 0.0071,-0.019748 0.04528,0.00633 0.03447,0.023557 0.140504,0.067297 0.216871,0.089465 0.08325,0.024164 0.05097,-0.00512 -0.06071,-0.055089 -0.353106,-0.1579745 -0.499692,-0.3159818 -0.572749,-0.6173639 -0.02679,-0.1105171 0.002,-0.3528016 0.05077,-0.4286792 0.01239,-0.019224 0.02252,-0.042874 0.02252,-0.052547 0,-0.041977 0.07294,-0.1528828 0.147787,-0.2247098 0.131887,-0.1265639 0.269008,-0.1791072 0.447009,-0.1712888 0.08605,0.00379 0.122798,0.011046 0.194409,0.038409 0.08123,0.031047 0.183502,0.096031 0.15218,0.096699 -0.0074,1.558e-4 -0.03965,-0.010218 -0.07175,-0.023053 -0.04879,-0.019511 -0.08007,-0.023419 -0.190811,-0.023833 -0.155502,-5.774e-4 -0.231507,0.02059 -0.342174,0.095313 -0.156897,0.1059392 -0.244143,0.2279618 -0.275042,0.3846701 -0.02073,0.1051522 -0.02137,0.1342882 -0.0052,0.2385918 0.0093,0.060102 0.01594,0.077738 0.02759,0.073447 0.0098,-0.0036 0.01534,0.00173 0.01534,0.014586 0,0.037251 0.08446,0.1883555 0.143038,0.2559028 0.140989,0.162591 0.36905,0.2663461 0.585445,0.2663461 0.112314,0 0.203103,-0.020688 0.286674,-0.065322 0.03356,-0.017935 0.07592,-0.039837 0.09413,-0.048696 0.06426,-0.031256 0.104125,-0.06696 0.150733,-0.1349905 0.02591,-0.03782 0.05408,-0.068763 0.0626,-0.068763 0.01258,0 0.01204,0.00546 -0.0029,0.029128 -0.04927,0.078029 0.06636,-0.063847 0.126235,-0.1548919 l 0.06706,-0.1019756 -0.0073,-0.066987 c -0.0071,-0.06437 -0.006,-0.0683 0.02609,-0.1006281 0.03091,-0.031131 0.03368,-0.040347 0.03724,-0.1235735 0.0032,-0.074488 9.45e-4,-0.089952 -0.0127,-0.090037 -0.01274,-7.32e-5 -0.0182,-0.019692 -0.02369,-0.084841 -0.0073,-0.086221 -0.08041,-0.3763533 -0.09744,-0.3864559 -0.0052,-0.00304 -0.0194,-0.030947 -0.0317,-0.061996 -0.04148,-0.10478269 -0.114258,-0.20553979 -0.227721,-0.31530449 -0.163262,-0.1579361 -0.368919,-0.2798933 -0.563182,-0.3339722 -0.165245,-0.046001 -0.445847,-0.029304 -0.645714,0.038421 -0.09755,0.033054 -0.193655,0.076821 -0.209873,0.095573 -0.0074,0.00851 -0.01803,0.01272 -0.02371,0.00935 -0.006,-0.00354 -0.0044,-0.013047 0.0039,-0.022589 0.03682,-0.042575 -0.08536,0.035347 -0.164022,0.1046056 -0.04755,0.041871 -0.0882,0.077404 -0.09031,0.07896 -0.0021,0.00154 0.0071,7.31e-5 0.02057,-0.00329 0.02235,-0.0056 0.0233,-0.00412 0.01118,0.017627 -0.0078,0.013932 -0.04823,0.038985 -0.09783,0.060575 -0.08334,0.036275 -0.137236,0.076143 -0.180059,0.1331875 -0.01708,0.022776 -0.01809,0.027681 -0.0046,0.022701 0.0095,-0.00351 0.01726,-0.00135 0.01726,0.00487 0,0.03025 -0.02864,0.064023 -0.07106,0.083806 -0.094,0.043824 -0.259121,0.2779112 -0.347571,0.4927415 -0.03942,0.095733 -0.03879,0.092408 -0.01736,0.092408 0.02259,0 0.02102,0.02462 -0.01001,0.1568699 -0.0452,0.1926411 -0.04525,0.1864775 0.0039,0.457492 0.05997,0.3302083 0.09501,0.4405137 0.161633,0.5088634 0.01562,0.01603 0.03081,0.05014 0.03759,0.084404 0.0081,0.040913 0.02166,0.067915 0.04706,0.093612 0.02316,0.023429 0.03089,0.037797 0.02199,0.040911 -0.01745,0.0061 0.03719,0.0843 0.08705,0.1245607 0.02509,0.020253 0.04367,0.027061 0.06381,0.023367 0.04413,-0.0081 0.08907,0.016299 0.158115,0.08583 0.07175,0.07226 0.07894,0.091686 0.03146,0.084999 -0.03063,-0.00431 -0.03133,-0.00352 -0.01626,0.018569 0.0087,0.0127 0.04065,0.04322 0.07107,0.067832 0.04272,0.034572 0.05373,0.049528 0.04836,0.065744 -0.0077,0.023319 0.01428,0.045073 0.06405,0.063331 0.03086,0.011315 0.0408,0.035737 0.01757,0.043165 -0.0071,0.00225 0.03643,0.045177 0.09658,0.095398 0.06776,0.05658 0.113348,0.087593 0.119844,0.081535 0.01716,-0.015991 0.03916,-0.011123 0.03955,0.00876 3.86e-4,0.021691 0.01991,0.044479 0.09,0.1052638 0.04429,0.038412 0.05534,0.043245 0.08249,0.03607 0.02486,-0.00658 0.04049,-0.00235 0.0755,0.020357 0.06985,0.045311 0.112199,0.063399 0.148463,0.063399 0.03568,0 0.04077,0.00983 0.02223,0.043066 -0.0098,0.017588 -0.0077,0.020488 0.01484,0.020488 0.01443,0 0.05513,0.00953 0.09042,0.021185 0.08024,0.026494 0.113711,0.028295 0.0936,0.00504 -0.02971,-0.034351 0.0017,-0.024964 0.107941,0.032153 0.148312,0.079815 0.223339,0.088932 0.518677,0.063035 0.04373,-0.00383 0.05795,-0.00154 0.05795,0.00912 0,0.0092 -0.03794,0.023011 -0.107619,0.039187 -0.09159,0.021263 -0.140484,0.025378 -0.328374,0.027632 -0.148055,0.00173 -0.249187,-0.00209 -0.307086,-0.011739 z M 2.2612392,2.6334477 c 0,-0.00225 -0.01367,-0.012065 -0.03036,-0.021814 l -0.03035,-0.017742 0.02606,0.021814 c 0.02543,0.021284 0.03465,0.026005 0.03465,0.017742 z m 1.519722,-1.1101149 c -0.0035,-0.00845 -0.0061,-0.00595 -0.0067,0.00641 -5.77e-4,0.011161 0.0021,0.017415 0.0058,0.013894 0.0037,-0.00352 0.0041,-0.012662 8e-4,-0.020302 z M 1.2692422,0.40516831 c 0.01374,-0.016799 0.01334,-0.017184 -0.0041,-0.004 -0.01063,0.00801 -0.01932,0.016337 -0.01932,0.018531 0,0.00872 0.0091,0.0031 0.02348,-0.014529 z m 0.125526,-0.09798 c 0.01099,-0.011661 0.01749,-0.021185 0.01445,-0.021185 -0.0031,0 -0.01451,0.00953 -0.02549,0.021185 -0.01099,0.011661 -0.01749,0.021185 -0.01445,0.021185 0.0031,0 0.01451,-0.00953 0.0255,-0.021185 z m 0.13894,-0.074461 c 0.03639,-0.011815 0.05706,-0.013912 0.06473,-0.00655 0.0077,0.00737 0.03615,0.003 0.08914,-0.013682 0.04282,-0.01347 0.07589,-0.026384 0.07349,-0.028693 -0.0024,-0.00231 -0.03767,0.00647 -0.07835,0.019505 -0.05589,0.017915 -0.07599,0.020571 -0.08223,0.010891 -0.01052,-0.016357 -0.110967,0.015875 -0.154137,0.049472 l -0.0295,0.022953 0.0317,-0.018262 c 0.01743,-0.010045 0.05576,-0.026082 0.08516,-0.035635 z m 0.318216,-0.026888 c 0.03205,-0.00914 0.05637,-0.018454 0.05403,-0.020687 -0.0052,-0.00495 -0.119344,0.026432 -0.119344,0.032798 0,0.00641 9.46e-4,0.00625 0.06531,-0.012104 z m 0.183039,-0.057745 0.04415,-0.00774 -0.03863,-9.6e-4 c -0.02124,-5.773e-4 -0.05105,0.00637 -0.06623,0.015298 -0.01786,0.010526 -0.01981,0.013586 -0.0055,0.00868 0.01215,-0.00416 0.04194,-0.011045 0.06623,-0.015298 z m 0.08767,-0.01999 c 0.0034,-0.00527 -0.0038,-0.0071 -0.01591,-0.00406 -0.02578,0.00647 -0.02903,0.013662 -0.0062,0.013662 0.0088,0 0.01868,-0.00433 0.02209,-0.0096 z m 0.356374,0.00319 c -0.0037,-0.00352 -0.01318,-0.00389 -0.02116,-7.709e-4 -0.0088,0.00339 -0.0062,0.00589 0.0067,0.00641 0.01164,3.848e-4 0.01815,-0.00204 0.01449,-0.00556 z m -0.06599,-0.011488 c -0.01062,-0.00265 -0.02801,-0.00265 -0.03863,0 -0.01062,0.00265 -0.0019,0.00485 0.01932,0.00485 0.02124,0 0.02994,-0.00217 0.01932,-0.00485 z m -0.110085,-0.010988 c -0.02261,-0.00227 -0.06235,-0.00231 -0.0883,-6.93e-5 -0.02596,0.00223 -0.0075,0.0041 0.0411,0.00414 0.04857,3.84e-5 0.06981,-0.00173 0.0472,-0.00406 z m -0.144014,-0.00929 c -0.0036,-0.00352 -0.01318,-0.00391 -0.02116,-7.709e-4 -0.0088,0.00339 -0.0062,0.00589 0.0067,0.00641 0.01164,3.848e-4 0.01815,-0.00204 0.01449,-0.00556 z m -0.07472,2.54595839 c -0.112432,-0.077307 -0.154089,-0.1172926 -0.154089,-0.1479104 0,-0.016241 0.0039,-0.029533 0.0085,-0.029533 0.01591,0 0.203876,0.1882806 0.199766,0.2001131 -0.0024,0.00685 -0.02506,-0.00263 -0.05418,-0.02267 z m -0.05786,-0.1962876 c -0.05839,-0.056625 -0.0771,-0.087081 -0.0535,-0.087081 0.01418,0 0.122833,0.1193825 0.122833,0.1349636 0,0.00733 -0.0013,0.013336 -0.0031,0.013336 -0.0017,0 -0.03151,-0.027544 -0.06623,-0.061213 z m 0.64606,-0.2317969 c -0.03083,-0.011931 -0.01159,-0.034056 0.03863,-0.044396 0.02884,-0.00595 0.07466,-0.02035 0.101832,-0.032028 0.02717,-0.01168 0.05136,-0.019349 0.05376,-0.017049 0.0024,0.00231 -0.0099,0.025843 -0.02732,0.052316 -0.03149,0.047838 -0.03206,0.048127 -0.09239,0.047315 -0.03339,-3.848e-4 -0.06692,-0.00321 -0.07451,-0.00616 z m 0.331133,-0.2369407 c -0.02979,-0.011488 -0.03103,-0.031048 -0.0062,-0.097651 0.02137,-0.057206 0.04353,-0.068492 0.0312,-0.015895 -0.0044,0.018935 -0.01035,0.046344 -0.01316,0.060906 l -0.0051,0.026482 0.02206,-0.024108 c 0.01305,-0.014259 0.02514,-0.047748 0.02959,-0.081972 0.0041,-0.031826 0.01193,-0.055253 0.01732,-0.052062 0.01366,0.0081 0.0122,0.091849 -0.0025,0.1481547 -0.01291,0.049184 -0.02452,0.054914 -0.0732,0.036137 z M 0.3915052,1.8475203 c -0.0037,-0.00922 -0.0067,-0.045362 -0.0067,-0.080327 0,-0.04613 0.0038,-0.062369 0.0138,-0.059192 0.01639,0.00519 0.02601,0.1562734 0.0099,0.1562734 -0.0057,0 -0.01335,-0.00754 -0.01705,-0.016761 z m 2.655388,-0.247763 c -0.01714,-0.022263 -0.02244,-0.039837 -0.01757,-0.058436 0.01,-0.038194 0.03612,-0.032761 0.0554,0.011507 0.02999,0.068883 0.0039,0.101165 -0.03783,0.046919 z M 0.3892352,1.4315878 c -8.01e-4,-0.060063 -6e-6,-0.061921 0.0277,-0.060906 0.02349,7.71e-4 0.02916,0.00679 0.03188,0.033387 0.0031,0.029989 -0.03092,0.089471 -0.05111,0.089471 -0.0041,0 -0.008,-0.027877 -0.0085,-0.061951 z m 2.861128,-1.30215369 c 0.0015,-0.094794 0.01818,-0.1269066 0.03115,-0.060537 0.009,0.046245 -0.0025,0.1279072 -0.01997,0.1418565 -0.0095,0.00758 -0.01237,-0.013086 -0.01118,-0.0813195 z m -1.450345,-0.056806 c 0.0044,-0.012777 0.1567,-0.072621997178 0.184788,-0.072621997178 0.033,0 -0.0262,0.038801997178 -0.09447,0.061923997178 -0.07612,0.025782 -0.09639,0.028181 -0.09032,0.010699 z"
         inkscape:label="#" />
</svg>
