<?xml version="1.0" encoding="UTF-8" standalone="no"?><svg height="16" viewBox="0 0 4.2333333 4.2333333" width="16" xmlns="http://www.w3.org/2000/svg"><sodipodi:namedview/><metadata><rdf:RDF><cc:Work><dc:format>image/svg+xml</dc:format><dc:type/><dc:title/></cc:Work></rdf:RDF></metadata><path d="m3.5284669-.00000002a.70496106.70496106 0 0 0 -.7048666.70486653.70496106.70496106 0 0 0  .7048666.70486659.70496106.70496106 0 0 0  .7048664-.70486659.70496106.70496106 0 0 0 -.7048664-.70486653zm-1.8396811.85524495a1.6889339 1.6889339 0 0 0 -1.68878577 1.68930257 1.6889339 1.6889339 0 0 0 1.68878577 1.6887858 1.6889339 1.6889339 0 0 0 1.6893025-1.6887858 1.6889339 1.6889339 0 0 0 -1.6893025-1.68930257zm.5870443.49712727a.70496106.70496106 0 0 1  .7048665.7053833.70496106.70496106 0 0 1 -.7048665.7048665.70496106.70496106 0 0 1 -.7053833-.7048665.70496106.70496106 0 0 1  .7053833-.7053833z" fill="#d0d0d0" stroke-width=".343958"/></svg>