<?xml version="1.0" encoding="UTF-8" standalone="no"?><svg height="16" viewBox="0 0 4.2333333 4.2333333" width="16" xmlns="http://www.w3.org/2000/svg"><sodipodi:namedview/><metadata><rdf:RDF><cc:Work><dc:format>image/svg+xml</dc:format><dc:type/><dc:title/></cc:Work></rdf:RDF></metadata><path d="m .29075094.33057687c-.16124741 0-.29075092.12950357-.29075092.29075089v2.02595244c0 .1062342.0591639.1946728.14363096.2453936l-.008141.0005954 1.45724362 1.0094872v-.9647117h2.3498488c.1612476 0 .290751-.1295035.290751-.2907508v-2.02596614c0-.16124732-.1295034-.29075092-.290751-.29075089zm.55707874.92691393a.37703616.37703616 0 0 1  .37681322.3768131.37703616.37703616 0 0 1 -.37681322.3768132.37703616.37703616 0 0 1 -.37681319-.3768132.37703616.37703616 0 0 1  .37681319-.3768131zm1.26883702 0a .37703616.37703616 0 0 1  .3768132.3768131.37703616.37703616 0 0 1 -.3768132.3768132.37703616.37703616 0 0 1 -.3773947-.3768132.37703616.37703616 0 0 1  .3773947-.3768131zm1.2688371 0a .37703616.37703616 0 0 1  .3768132.3768131.37703616.37703616 0 0 1 -.3768132.3768132.37703616.37703616 0 0 1 -.3773947-.3768132.37703616.37703616 0 0 1  .3773947-.3768131z" fill="#d0d0d0" stroke-width=".343958"/></svg>