<?xml version="1.0" encoding="UTF-8" standalone="no"?><svg height="22" viewBox="0 0 5.8208332 5.8208335" width="22" xmlns="http://www.w3.org/2000/svg"><sodipodi:namedview/><metadata><rdf:RDF><cc:Work><dc:format>image/svg+xml</dc:format><dc:type/><dc:title/></cc:Work></rdf:RDF></metadata><path d="m3.7439141.00007022c-.5825994.02999309-1.1662569.2402649-1.6079865.65037823-.3165821.29392342-.5594091.74573005-.6234395 1.21929885-.064454.4766999.089147 1.0101818.5888039 1.2840801.085395.046817.163961.059682.2520697.072478.090955.013209.1958033.021152.3020988.010262.029967-.00307.059508-.012292.089154-.019242.00535.052271.00364.1216835-.00449.1776675-.00372.025635-.010878.052703-.016676.071837-.00225.00742-.00415.012926-.00577.01796-.085716.1546513-.193196.2467917-.3226258.297609-.130499.051236-.2853216.06063-.4586001.037201-.3425961-.0463232-.7252964-.2538261-.9255383-.4695046-.31936773-.3439878-.49609709-.8186873-.52081569-1.2988322a.06568579.06568579 0 0 0 -.06862967-.0622156l-.35918324.019242a.06568579.06568579 0 0 0 -.06221566.0686296c.02999307.5825994.24026494 1.166257.65037825 1.6079863.29392365.3165817.74573051.5594086 1.21929881.6234396.4767003.0644546 1.0101814-.0891474 1.2840802-.588804.0468109-.0853942.0596827-.1639577.072478-.2520697.013208-.090955.021152-.1958039.010262-.3020987-.00312-.030517-.012752-.060738-.019884-.091079.050607-.00503.122295-.00181.1789503.00641.025855.00375.053226.01099.072478.016676.0072.00213.012308.00357.017316.00513.1545632.085678.2459408.1930544.2963263.3226238.050803.1306409.060003.285855.03656.4592413-.0463121.3425143-.254423.7252616-.4701451.9255441-.3440107.3193879-.8159614.4941649-1.2962645.5188915a.06568579.06568579 0 0 0 -.062216.06863l.019242.3611077a.06568579.06568579 0 0 0  .06863.062216c.5825998-.0299933 1.1662574-.2402657 1.6079863-.6503792.3167167-.2940492.5568747-.7459698.6208739-1.219299.064454-.4766998-.0891477-1.0101815-.5888037-1.28408-.0853958-.046818-.163963-.059681-.2520697-.072478-.0907746-.0131835-.1933527-.0211399-.2995333-.0102624-.030557.00313-.061188.01273-.09172.019883-.00502-.050631-.00181-.1223051.00641-.1789502.00376-.025856.010991-.053227.016676-.072478.00213-.0072.00357-.012309.00513-.017318.085677-.1545643.1930545-.245941.3226235-.2963262.1306413-.050802.2858547-.060003.4592413-.03656.3425201.046312.7252549.2544223.9255385.4701452.3193882.3440098.4941648.8159631.5188914 1.2962669a.06568579.06568579 0 0 0  .06863.062216l.3611132-.01924a.06568579.06568579 0 0 0  .062216-.06863c-.029999-.5826032-.2402655-1.1662586-.650379-1.6079878-.2940489-.3167169-.7459699-.5568749-1.219299-.6208739-.4767001-.064455-1.0101816.089148-1.28408.588804-.046818.085396-.059681.1639628-.072478.2520697-.013183.090774-.02114.1933525-.010262.2995331.00304.029655.012436.059866.019242.089796-.052273.00535-.121684.00364-.1776675-.00449-.025635-.00372-.052702-.010878-.071837-.016676-.00741-.00225-.012926-.00415-.017959-.00577-.1546502-.0857053-.2467919-.1931937-.2976092-.3226264-.0512371-.1305017-.0606301-.2853219-.0372012-.4586001.0463225-.3425962.2538252-.7252963.4695038-.9255382.3439881-.31936753.8186877-.49609715 1.2988324-.52081569a.06568579.06568579 0 0 0  .062216-.0686297l-.0192411-.35918322a.06568579.06568579 0 0 0 -.0686295-.06221567z" fill="#d0d0d0" fill-rule="evenodd"/></svg>