<?xml version="1.0" encoding="UTF-8" standalone="no"?>
<svg height="22" viewBox="0 0 22 22" width="22" xmlns="http://www.w3.org/2000/svg">
	<sodipodi:namedview/>
	<metadata>
		<rdf:RDF>
			<cc:Work>
				<dc:format>image/svg+xml			</dc:format>
			<dc:type/>
			<dc:title/>
		</cc:Work>
	</rdf:RDF>
</metadata>
<path d="M 12.864797 0 C 11.422907 0 10.24257 1.1780342 10.24257 2.6199247 V 3.276057 H 8.0347427 c -.2960404 0 -.5341147 .2380741 -.5341147 .5341147 v 2.118041 C 4.5053533 7.2966974 2.5824384 10.2854 2.5784848 13.578485 C 2.5787717 18.22944 6.349044 21.999712 11 22 c 4.650956 -.000288 8.421229 -3.77056 8.421515 -8.421515 c -.004 -3.293085 -1.926869 -6.2817876 -4.922143 -7.6502723 v -2.118041 c 0 -.2960406 -.238075 -.5341147 -.534114 -.5341147 H 11.421306 V 2.6199247 c 0 -.80926 .634231 -1.4411888 1.443491 -1.4411888 h 1.947677 A .58936794 .58936794 0 0 0 15.401842 .5893679 A .58936794 .58936794 0 0 0 14.812474 0 Z" fill="#d0d0d0" stroke-linecap="round" stroke-linejoin="round" stroke-width=".825115"/>
</svg>
