<?xml version="1.0" encoding="UTF-8" standalone="no"?><svg height="22" viewBox="0 0 22 22" width="22" xmlns="http://www.w3.org/2000/svg"><sodipodi:namedview/><metadata><rdf:RDF><cc:Work><dc:format>image/svg+xml</dc:format><dc:type/><dc:title/></cc:Work></rdf:RDF></metadata><path d="m11 .000062c-1.9697239.0046-3.9020796.537983-5.5952382 1.544432l9.3291922 5.38688v-6.263645c-1.196598-.43708-2.460029-.662993-3.733954-.667667zm5.390269 1.418145v10.77997l5.434783-3.137516c-.580468-3.230749-2.573555-6.033452-5.434783-7.642454zm-12.4730849 1.181097c-2.4793386 2.086437-3.9125421 5.15986-3.9171841 8.400179.0012.04141.0025.08282.0041.124217l9.3395512-5.392056zm1.6925466 7.201484-5.4347827 3.137516c.5801816 3.231132 2.5733054 6.034265 5.4347827 7.643489zm16.3861293 1.074478-9.339545 5.39102 5.427536 3.133375c2.478952-2.086633 3.911764-5.160028 3.916149-8.400178-.0012-.04141-.0025-.08282-.0041-.124217zm-14.7298146 4.192325v6.264681c1.1965984.437079 2.4600297.662993 3.7339546.667666 1.970172-.0047 3.902916-.538476 5.596274-1.545467z" fill="#fff"/></svg>