<?xml version="1.0" encoding="UTF-8" standalone="no"?>
<!-- Created with Inkscape (http://www.inkscape.org/) -->

<svg
   xmlns:dc="http://purl.org/dc/elements/1.1/"
   xmlns:cc="http://creativecommons.org/ns#"
   xmlns:rdf="http://www.w3.org/1999/02/22-rdf-syntax-ns#"
   xmlns:svg="http://www.w3.org/2000/svg"
   xmlns="http://www.w3.org/2000/svg"
   xmlns:sodipodi="http://sodipodi.sourceforge.net/DTD/sodipodi-0.dtd"
   xmlns:inkscape="http://www.inkscape.org/namespaces/inkscape"
   width="16"
   height="16"
   viewBox="0 0 4.2333332 4.2333332"
   version="1.1"
   id="svg8"
   inkscape:version="0.92+devel (f96dc7e339, 2017-07-28, custom)"
   sodipodi:docname="glyph-tetris-kblocks.svg">
  <defs
     id="defs2" />
  <sodipodi:namedview
     id="base"
     pagecolor="#002466"
     bordercolor="#ffffff"
     borderopacity="0.38039216"
     inkscape:pageopacity="1"
     inkscape:pageshadow="2"
     inkscape:zoom="36.415999"
     inkscape:cx="10.094581"
     inkscape:cy="7.9162778"
     inkscape:document-units="px"
     inkscape:current-layer="svg8"
     inkscape:document-rotation="0"
     showgrid="false"
     inkscape:showpageshadow="false"
     borderlayer="true"
     inkscape:window-width="1920"
     inkscape:window-height="1051"
     inkscape:window-x="0"
     inkscape:window-y="0"
     inkscape:window-maximized="1"
     units="px"
     inkscape:snap-bbox="true"
     inkscape:bbox-nodes="true" />
  <metadata
     id="metadata5">
    <rdf:RDF>
      <cc:Work
         rdf:about="">
        <dc:format>image/svg+xml</dc:format>
        <dc:type
           rdf:resource="http://purl.org/dc/dcmitype/StillImage" />
        <dc:title></dc:title>
      </cc:Work>
    </rdf:RDF>
  </metadata>
  <path
     style="font-variation-settings:normal;vector-effect:none;fill:#d0d0d0;stroke-width:0.079375;stroke-linecap:square"
     d="M 2.2939185,-8.5e-8 C 2.2326175,4.65e-7 2.1828517,0.04975311 2.1828517,0.11104102 v 0.73702741 c 0,0.0612862 0.049765,0.11039216 0.1110668,0.11039216 h 0.7371962 c 0.061301,0 0.1104175,-0.0491033 0.1104175,-0.11039216 V 0.11104102 C 3.1415322,0.04975442 3.0924172,-8.5e-8 3.0311147,-8.5e-8 Z m 0,1.091579685 c -0.061301,5e-7 -0.1110668,0.049103 -0.1110668,0.1103922 v 0.7376768 c 0,0.061286 0.049765,0.1103921 0.1110668,0.1103921 h 0.7371962 c 0.061301,0 0.1104175,-0.049103 0.1104175,-0.1103921 V 1.2019712 c 0,-0.061286 -0.049115,-0.1103921 -0.1104175,-0.1103921 z m 1.0911804,0 c -0.061301,5e-7 -0.1104175,0.049103 -0.1104175,0.1103922 v 0.7376768 c 0,0.061286 0.049115,0.1103921 0.1104175,0.1103921 h 0.7378458 c 0.061301,0 0.1104175,-0.049103 0.1104175,-0.1103921 V 1.2019712 c 0,-0.061286 -0.049115,-0.1103921 -0.1104175,-0.1103921 z m 0,1.0915796 c -0.061301,4e-7 -0.1104175,0.049103 -0.1104175,0.1103922 v 0.7370272 c 0,0.061286 0.049115,0.1110415 0.1104175,0.1110415 h 0.7378458 c 0.061301,0 0.1104175,-0.049754 0.1104175,-0.1110415 V 2.2935512 c 0,-0.061286 -0.049115,-0.1103921 -0.1104175,-0.1103921 z"
     id="rect823"
     inkscape:connector-curvature="0"
     inkscape:label="#" />
  <path
     style="font-variation-settings:normal;opacity:0.17021275;vector-effect:none;fill:#d0d0d0;stroke-width:0.079375;stroke-linecap:square"
     d="m 1.2019064,1.34125e-4 c -0.061302,0 -0.1104175,0.049104095 -0.1104175,0.110391755 v 0.73702721 c 0,0.0612875 0.049115,0.11104151 0.1104175,0.11104151 h 0.7371964 c 0.061302,0 0.1104161,-0.049754 0.1104161,-0.11104151 V 0.11052584 c 0,-0.0612875 -0.049115,-0.110391755 -0.1104161,-0.110391755 z M 1.2012578,1.099506 c -0.061302,0 -0.1104175,0.049754 -0.1104175,0.1110415 v 0.7370273 c 0,0.061288 0.049115,0.1103922 0.1104175,0.1103922 h 0.7378459 c 0.061302,0 0.1104175,-0.049103 0.1104175,-0.1103922 V 1.2105471 c 0,-0.061288 -0.049115,-0.1110415 -0.1104175,-0.1110415 z m 6.486e-4,1.0837871 c -0.061302,0 -0.1104175,0.049105 -0.1104175,0.1103921 v 0.737027 c 0,0.061288 0.049115,0.1110415 0.1104175,0.1110415 h 0.7371964 c 0.061302,0 0.1104161,-0.049754 0.1104161,-0.1110415 V 2.2936848 c 0,-0.061288 -0.049115,-0.1103921 -0.1104161,-0.1103921 z m 1.0918298,1.0915793 c -0.061302,0 -0.1110668,0.049103 -0.1110668,0.1103922 v 0.7370272 c 0,0.061287 0.049765,0.1110415 0.1110668,0.1110415 h 0.7371965 c 0.061302,0 0.1104175,-0.049754 0.1104175,-0.1110415 V 3.3852644 c 0,-0.061286 -0.049115,-0.1103921 -0.1104175,-0.1103921 z"
     id="rect841"
     inkscape:connector-curvature="0"
     inkscape:label="#" />
  <path
     style="font-variation-settings:normal;opacity:0.74893619;vector-effect:none;fill:#d0d0d0;stroke-width:0.079375;stroke-linecap:square"
     d="m 0.11038813,1.0920569 c -0.0613016,6e-7 -0.110417105,0.049105 -0.110417105,0.1103922 v 0.7370271 c 0,0.061286 0.049115305,0.1110415 0.110417105,0.1110415 h 0.73719635 c 0.061302,0 0.1110668,-0.049754 0.1110668,-0.1110415 V 1.2024487 c 0,-0.061286 -0.049765,-0.1103922 -0.1110668,-0.1103922 z m 0,1.0909302 c -0.0613016,5e-7 -0.110417105,0.049754 -0.110417105,0.1110415 v 0.7370272 c 0,0.061286 0.049115305,0.1103921 0.110417105,0.1103921 h 0.73719635 c 0.061302,0 0.1110668,-0.049105 0.1110668,-0.1103921 V 2.2940282 c 0,-0.061286 -0.049765,-0.1110415 -0.1110668,-0.1110415 z m 0,1.0915794 c -0.0613016,6e-7 -0.110417105,0.049103 -0.110417105,0.1103922 v 0.7376767 c 0,0.061286 0.049115305,0.1103921 0.110417105,0.1103921 h 0.73719635 c 0.061302,0 0.1110668,-0.049103 0.1110668,-0.1103921 v -0.737677 c 0,-0.061286 -0.049765,-0.1103921 -0.1110668,-0.1103921 z m 1.09182997,0 c -0.061302,6e-7 -0.1104175,0.049103 -0.1104175,0.1103922 v 0.7376767 c 0,0.061286 0.049115,0.1103921 0.1104175,0.1103921 h 0.7371964 c 0.061302,0 0.1104175,-0.049103 0.1104175,-0.1103921 v -0.737677 c 0,-0.061286 -0.049115,-0.1103921 -0.1104175,-0.1103921 z"
     id="rect815"
     inkscape:connector-curvature="0"
     inkscape:label="#" />
</svg>
