<?xml version="1.0" encoding="UTF-8" standalone="no"?>
<!-- Created with Inkscape (http://www.inkscape.org/) -->

<svg
   xmlns:dc="http://purl.org/dc/elements/1.1/"
   xmlns:cc="http://creativecommons.org/ns#"
   xmlns:rdf="http://www.w3.org/1999/02/22-rdf-syntax-ns#"
   xmlns:svg="http://www.w3.org/2000/svg"
   xmlns="http://www.w3.org/2000/svg"
   xmlns:sodipodi="http://sodipodi.sourceforge.net/DTD/sodipodi-0.dtd"
   xmlns:inkscape="http://www.inkscape.org/namespaces/inkscape"
   width="22"
   height="22"
   viewBox="0 0 5.8208332 5.8208335"
   version="1.1"
   id="svg8"
   inkscape:version="0.92+devel 15698 custom"
   sodipodi:docname="glyph-nbc.svg">
  <defs
     id="defs2" />
  <sodipodi:namedview
     id="base"
     pagecolor="#002466"
     bordercolor="#ffffff"
     borderopacity="0.29019608"
     inkscape:pageopacity="1"
     inkscape:pageshadow="2"
     inkscape:zoom="18.681818"
     inkscape:cx="11"
     inkscape:cy="11"
     inkscape:document-units="px"
     inkscape:current-layer="svg8"
     inkscape:document-rotation="0"
     showgrid="false"
     units="px"
     inkscape:showpageshadow="false"
     borderlayer="true"
     inkscape:window-width="1920"
     inkscape:window-height="1054"
     inkscape:window-x="0"
     inkscape:window-y="0"
     inkscape:window-maximized="1" />
  <metadata
     id="metadata5">
    <rdf:RDF>
      <cc:Work
         rdf:about="">
        <dc:format>image/svg+xml</dc:format>
        <dc:type
           rdf:resource="http://purl.org/dc/dcmitype/StillImage" />
        <dc:title></dc:title>
      </cc:Work>
    </rdf:RDF>
  </metadata>
  <path
     inkscape:connector-curvature="0"
     id="path3115"
     d="M 3.5909709,1.4519731e-7 C 3.2965159,-1.0464803e-5 2.9589758,0.21392235 2.975496,0.67157303 h 0.1640197 c 0,0 0.087993,3.6655e-4 0.099908,0.0416728 -0.064531,0.0527009 -0.2402335,0.0593516 -0.2169122,0.34086197 L 3.2981928,2.9048067 4.1594303,0.85429216 C 4.3356132,0.39640803 3.9654989,0.01382968 3.6374521,0.00213722 3.6221411,0.00103372 3.6068651,1.1519731e-7 3.5909709,1.4519731e-7 Z M 2.1837131,0.00801415 C 1.9026059,0.01373306 1.4802921,0.34845556 1.668146,0.85963481 L 2.5357947,2.9053411 2.8403265,0.75385007 C 2.9108528,0.21929649 2.5063381,-0.02760437 2.1837131,0.00801415 Z M 1.1135776,0.78002912 C 0.9700171,0.78085947 0.82273268,0.83410138 0.69524689,0.9419119 0.45476624,1.1596017 0.36699556,1.6531809 0.80049737,1.9415243 L 2.5299178,3.12813 1.6916538,1.206908 C 1.5818379,0.92357531 1.3528447,0.77864524 1.1135776,0.78002912 Z m 3.5892017,0.005343 C 4.4878797,0.78533996 4.2580205,0.89942041 4.1247031,1.2245388 L 3.3099467,3.122253 5.038833,1.9297704 C 5.4373634,1.647093 5.3730402,1.1946735 5.1499604,0.97129651 5.0564418,0.86615981 4.8846915,0.78537177 4.7027793,0.78537212 Z M 0.56916002,2.0831049 C 0.34057647,2.1007338 0.13969734,2.2498161 0.04451039,2.4998328 -0.08458417,2.9577699 0.23771138,3.3338226 0.64823145,3.3338226 H 2.6180717 L 0.9939018,2.199575 C 0.85321028,2.1091759 0.70631016,2.0725275 0.56916002,2.0831049 Z m 4.62781578,0.00374 C 5.0835419,2.0868979 4.9636156,2.1212292 4.8454283,2.199575 L 3.2217929,3.3338226 h 1.9992248 c 0.4101489,0 0.6733402,-0.4229476 0.5561712,-0.8110164 C 5.6987159,2.2788878 5.4664647,2.0871206 5.1969758,2.0868449 Z M 0.50451379,3.6586566 V 5.7369529 H 0.9265843 V 4.5866773 L 2.1826446,5.813353 V 3.7398651 H 1.7605742 V 4.860756 Z M 5.0265448,3.6864387 C 4.4446803,3.6864284 3.9643759,4.1773818 3.9532036,4.7170388 3.9637926,5.3485697 4.4175712,5.8208332 5.0009,5.8208332 c 0.1383043,0 0.2838414,-0.026501 0.4327557,-0.08388 v -0.406577 c -0.1180174,0.072118 -0.2490561,0.1068532 -0.3777262,0.1068532 -0.3530022,0 -0.6864241,-0.2611038 -0.6726416,-0.7362189 0.023787,-0.3854058 0.3395507,-0.6518053 0.6795869,-0.6518053 0.1245218,0 0.2524134,0.035966 0.3707809,0.1143332 V 3.7676471 C 5.2956381,3.7116993 5.1586952,3.6864383 5.0265448,3.6864387 Z m -2.6136314,0.053427 v 1.9970878 h 0.9691593 c 0.2299871,0 0.5032791,-0.2303919 0.5032791,-0.531595 0,-0.3146991 -0.2054382,-0.4691434 -0.3355195,-0.5315949 0,0 0.2381865,-0.1384797 0.2275977,-0.4370302 C 3.7665976,3.835136 3.3954586,3.7398651 3.2682741,3.7398651 Z m 0.4113853,0.3365879 h 0.3007919 c 0.1028027,0.00555 0.2243918,0.081747 0.2243918,0.2227891 0,0.1383467 -0.092127,0.2303958 -0.2110352,0.2468312 H 2.8242987 Z m 0.00535,0.8088793 h 0.3654381 c 0.08399,0.00528 0.2329403,0.078495 0.2329403,0.2521738 0,0.1816575 -0.1545575,0.2551173 -0.2382829,0.2633934 H 2.829641 Z"
     style="fill:#d0d0d0;fill-opacity:1;stroke-width:0.26458338"
     inkscape:label="#glyph" />
</svg>
