<?xml version="1.0" encoding="UTF-8" standalone="no"?><svg height="22" viewBox="0 0 5.8208332 5.8208335" width="22" xmlns="http://www.w3.org/2000/svg"><sodipodi:namedview/><metadata><rdf:RDF><cc:Work><dc:format>image/svg+xml</dc:format><dc:type/><dc:title/></cc:Work></rdf:RDF></metadata><path d="m2.9104167 0a2.9102288 2.9102288 0 0 0 -2.91041669 2.9104166 2.9102288 2.9102288 0 0 0 2.91041669 2.9104167 2.9102288 2.9102288 0 0 0 2.9104166-2.9104167 2.9102288 2.9102288 0 0 0 -2.9104166-2.9104166zm1.8054558 1.2502646a.27759566.27759566 0 0 1  .2559085.1810878.27759566.27759566 0 0 1 -.1637378.3567538l-1.0512852.3871159-.6831454.6050716-.5828425-.2239198.9770064-.8647756 1.1472508-.4239839a.27759566.27759566 0 0 1  .074279-.016266.27759566.27759566 0 0 1  .026566-.00109zm.3497056.6066983c.069301-.0015.1371403.02178.190847.065604.1256981.1020769.1443242.2872113.041205.4120561l-1.256228 1.536535-2.4631191-.9444759-.76230366.5860955c-.12776633.0989018-.31165464.0751479-.4098873-.0531335-.09844804-.128305-.07364348-.3122812.05530227-.4098874l1.02038079-.7850752 2.375286.911945.987308-1.2112278c.0540764-.0671524.1350061-.1067466.221209-.1084358zm-3.2075308 1.2589395.5844689.2239201-1.3109887 1.1613473a.27759566.27759566 0 0 1 -.39145321-.024939.27759566.27759566 0 0 1  .0227714-.390911z" fill="#d0d0d0"/></svg>