<?xml version="1.0" encoding="UTF-8" standalone="no"?><svg height="16" viewBox="0 0 4.2333333 4.2333333" width="16" xmlns="http://www.w3.org/2000/svg"><sodipodi:namedview/><metadata><rdf:RDF><cc:Work><dc:format>image/svg+xml</dc:format><dc:type/><dc:title/></cc:Work></rdf:RDF></metadata><path d="m0 0v16h16v-16zm .7265625 3.6367188h14.5468755v11.6367192h-14.5468755zm6.2890625 1.4160156-.3085938 1.3671875a3.3095914 3.3095914 0 0 0 -.6953124.4023437l-1.3398438-.4160156-.984375 1.703125 1.03125.953125a3.3095914 3.3095914 0 0 0 -.0273438.4003906 3.3095914 3.3095914 0 0 0  .0273438.4003906l-1.03125.9531248.984375 1.705078 1.3417969-.416015a3.3095914 3.3095914 0 0 0  .6933593.404297l.3085938 1.365234h1.96875l.3085938-1.369141a3.3095914 3.3095914 0 0 0  .6953124-.40039l1.3398438.416015.984375-1.705078-1.03125-.9511716a3.3095914 3.3095914 0 0 0  .027344-.4023438 3.3095914 3.3095914 0 0 0 -.027344-.4003906l1.03125-.953125-.984375-1.703125-1.3417969.4160156a3.3095914 3.3095914 0 0 0 -.6933593-.40625l-.3085938-1.3632812zm.984375 2.9296875a1.4821847 1.4821847 0 0 1 1.4824219 1.4804687 1.4821847 1.4821847 0 0 1 -1.4824219 1.4824214 1.4821847 1.4821847 0 0 1 -1.4824219-1.4824214 1.4821847 1.4821847 0 0 1 1.4824219-1.4804687z" fill="#d0d0d0" fill-rule="evenodd" transform="scale(.26458333)"/></svg>