<?xml version="1.0" encoding="UTF-8" standalone="no"?><svg height="16" viewBox="0 0 4.2333333 4.2333333" width="16" xmlns="http://www.w3.org/2000/svg"><sodipodi:namedview/><metadata><rdf:RDF><cc:Work><dc:format>image/svg+xml</dc:format><dc:type/><dc:title/></cc:Work></rdf:RDF></metadata><path d="m2.2646121-.0000175c-.754639.1344012-1.50981982.2627023-2.26438602.3946233 0 1.1479368-.0005091 2.2964639 0 3.4448734.7506679.1314484 1.50206202.2570268 2.25123182.3938716h.3074303v-.3938716c.4927241 0 .8851098-.0006785 1.3779137.00151.083644-.00393.1769455.00234.2488006-.048858.0576-.088095.04264-.1982179.047731-.2976588-.00727-.9697315.00311-1.93995-.00526-2.9096889.010313-.1122337-.077561-.1996373-.1897951-.1882917-.526237-.008-.9526785.0002783-1.4793882-.00263v-.3938793zm.2886386.5847942h1.3790413c.057261 0 .1033536.046093.1033536.1033537v2.8236236c0 .057261-.046093.1033536-.1033536.1033536h-1.3790413v-.3607228h1.1440318v-.2912696h-1.1440318v-.3780867h1.1440318v-.2912694h-1.1440318v-.3780868h1.1440318v-.2912695h-1.1440318v-.3780868h1.1440318v-.29126947h-1.1440318zm-.5404459.7783474c-.1112445.4769713-.2087552.9579003-.3303561 1.4319189-.0822261.042837-.2054505-.00201-.3029203.00526-.0655278-.32583-.1417215-.6498379-.2003183-.9771642-.0576005.3179954-.132475.6329143-.19843914.9489751-.09450988-.0050909-.18944198-.0108881-.28450458-.0172881-.0816734-.4331818-.1774094-.8632002-.2536864-1.2973711.084153-.00364.1687377-.00761.2529346-.010523.050691.3135444.1082892.6259306.1525878.9399552.069528-.3218936.14042129-.643914.20933822-.9658875v-.0003759c.093528-.00509.1868424-.00934.2803705-.014282.065455.3322937.1324369.664031.2033249.9948266.055637-.3416247.117135-.6818984.1766409-1.023014.098452-.00364.1970489-.00914.2950279-.015034z" fill="#d0d0d0" stroke-width=".03938"/></svg>