<?xml version="1.0" encoding="UTF-8" standalone="no"?><svg height="22" viewBox="0 0 22 22" width="22" xmlns="http://www.w3.org/2000/svg"><sodipodi:namedview/><metadata><rdf:RDF><cc:Work><dc:format>image/svg+xml</dc:format><dc:type/><dc:title/></cc:Work></rdf:RDF></metadata><path d="m14.070833 14.659027h-8.020833l-1.4055555 3.269445q-.5194444 1.206944-.5194444 1.802778 0 .473611.4430554.840278.4583334.351389 1.9555556.458333v.565278h-6.52361105v-.565278q1.29861105-.229166 1.68055555-.595833.7791667-.733333 1.7263889-2.979167l7.2874995-17.0500001h.534723l7.211111 17.2333331q.870833 2.077778 1.573611 2.704167.718055.611111 1.986111.6875v.565278h-8.173611v-.565278q1.2375-.06112 1.665278-.4125.443055-.351389.443055-.855555 0-.672223-.611111-2.123612zm-.427778-1.130555-3.513888-8.3722222-3.6055559 8.3722222z" fill="#fff" stroke-width=".782222"/></svg>