<?xml version="1.0" encoding="UTF-8" standalone="no"?><svg height="22" viewBox="0 0 22 22" width="22" xmlns="http://www.w3.org/2000/svg"><sodipodi:namedview/><metadata><rdf:RDF><cc:Work><dc:format>image/svg+xml</dc:format><dc:type/><dc:title/></cc:Work></rdf:RDF></metadata><path d="m9.4138128.36887753h5.7545292q.855801 0 1.342723 1.23943687l1.091885 1.844401 1.460764-.811534h.08853v.02953q-2.316566 4.057684-2.552649 4.367538h-5.061034v-.07377q1.431255-.782027 1.505031-.914825l-2.92153-5.22333807q-.5164322-.3836383-.7082502-.3836383zm-1.5050295.1475551q1.5492955 0 2.1690147 1.35747877l.723004 1.268944-2.8477527 4.869219q-3.939639-2.272304-4.338029-2.552651 2.198525-3.836352 2.523139-4.249498.723005-.69349277 1.770624-.69349277zm11.6123427 6.28571177q2.449363 4.1019486 2.449363 4.4413166l.02951.575451q0 1.505034-1.431255 2.360832-.221327.118042-.811535.118042h-1.844401q-.206573-.221326-2.788732-4.8544556.354125-.339375 3.319919-1.991957zm-14.4010757 1.047624q2.523139 4.2494976 2.55265 4.4413106l-1.652583-.929576q-2.832998 4.869219-2.892019 5.105302l-.04426.604959.07378.427902h-.07378l-2.96579505-5.13481-.118042-.472166q.05902-.45741 1.23943705-2.3460756.383635-.604964.383635-.76727l-1.47552005-.841048v-.04426h3.36418605zm9.1334687 5.1643166h.02951v1.696847h5.813549q.486921 0 .929578-.383632h.04426q0 .132798-2.965795 5.267608-.354125.339368-.811536.339368h-3.010061v1.696846h-.07378l-2.478874-4.323275zm-3.910128 1.696847.07378.08853v5.061032l-.07378.07378h-4.2790077q-1.711603 0-2.405098-1.888666l-.07377-.70825q0-.708249 1.239437-2.626428z" fill="#fff" stroke-width=".629555"/></svg>