<?xml version="1.0" encoding="UTF-8" standalone="no"?>
<!-- Created with Inkscape (http://www.inkscape.org/) -->

<svg
   xmlns:dc="http://purl.org/dc/elements/1.1/"
   xmlns:cc="http://creativecommons.org/ns#"
   xmlns:rdf="http://www.w3.org/1999/02/22-rdf-syntax-ns#"
   xmlns:svg="http://www.w3.org/2000/svg"
   xmlns="http://www.w3.org/2000/svg"
   xmlns:sodipodi="http://sodipodi.sourceforge.net/DTD/sodipodi-0.dtd"
   xmlns:inkscape="http://www.inkscape.org/namespaces/inkscape"
   width="12"
   height="12"
   viewBox="0 0 12 12"
   version="1.1"
   id="default16"
   inkscape:version="0.92+devel (327bdefa15, 2017-09-17, custom)"
   sodipodi:docname="glyph-cli-prompt.svg">
  <defs
     id="defs5" />
  <sodipodi:namedview
     id="base"
     pagecolor="#002466"
     bordercolor="#ffffff"
     borderopacity="0.38039216"
     inkscape:pageopacity="1"
     inkscape:pageshadow="2"
     inkscape:zoom="26.28125"
     inkscape:cx="7.7336504"
     inkscape:cy="8"
     inkscape:document-units="px"
     inkscape:current-layer="default16"
     inkscape:document-rotation="0"
     showgrid="false"
     inkscape:showpageshadow="false"
     borderlayer="true"
     inkscape:window-width="1920"
     inkscape:window-height="1029"
     inkscape:window-x="0"
     inkscape:window-y="22"
     inkscape:window-maximized="1"
     units="px" />
  <metadata
     id="metadata5">
    <rdf:RDF>
      <cc:Work
         rdf:about="">
        <dc:format>image/svg+xml</dc:format>
        <dc:type
           rdf:resource="http://purl.org/dc/dcmitype/StillImage" />
        <dc:title></dc:title>
      </cc:Work>
    </rdf:RDF>
  </metadata>
  <path
     style="font-size:medium;font-family:Joystix;-inkscape-font-specification:Joystix;opacity:1;fill:#ffffff;stroke-width:0.33121794;stroke:none"
     d="M 0 0 L 0 1.3378906 L 1.3242188 1.3378906 L 1.3242188 2.6367188 L 2.6621094 2.6367188 L 2.6621094 3.9882812 L 3.9882812 3.9882812 L 3.9882812 5.2988281 L 2.6621094 5.2988281 L 2.6621094 6.6367188 L 1.3242188 6.6367188 L 1.3242188 7.9355469 L 0 7.9355469 L 0 9.2871094 L 2.6621094 9.2871094 L 2.6621094 7.9355469 L 3.9882812 7.9355469 L 3.9882812 6.6367188 L 5.3007812 6.6367188 L 5.3007812 5.2988281 L 6.6367188 5.2988281 L 6.6367188 3.9882812 L 5.3007812 3.9882812 L 5.3007812 2.6367188 L 3.9882812 2.6367188 L 3.9882812 1.3378906 L 2.6621094 1.3378906 L 2.6621094 0 L 0 0 z M 6.0390625 10.648438 L 6.0390625 12 L 12 12 L 12 10.648438 L 6.0390625 10.648438 z "
     id="path1378"
     inkscape:label="#" />
</svg>
