<?xml version="1.0" encoding="UTF-8" standalone="no"?><svg height="16" viewBox="0 0 4.2333332 4.2333332" width="16" xmlns="http://www.w3.org/2000/svg"><sodipodi:namedview/><metadata><rdf:RDF><cc:Work><dc:format>image/svg+xml</dc:format><dc:type/><dc:title/></cc:Work></rdf:RDF></metadata><path d="m1.4609375 0c-.80884015 0-1.4609375.65209739-1.4609375 1.4609375v4.3789063c0 .80884.65209735 1.4609375 1.4609375 1.4609374h4.3789063c.80884 0 1.4609375-.6520974 1.4609374-1.4609374v-4.3789063c0-.80884011-.6520974-1.4609375-1.4609374-1.4609375zm8.6992185 0c-.8088396 0-1.4609372.65209739-1.4609372 1.4609375v4.3789063c0 .8088397.6520976 1.4609375 1.4609372 1.4609374h4.378906c.808842 0 1.460938-.6520974 1.460938-1.4609374v-4.3789063c0-.80884011-.652096-1.4609375-1.460938-1.4609375zm-7.0019529 1.75h.984375v1.4082031h1.4082031v.984375h-1.4082031v1.4082031h-.984375v-1.4082031h-1.4082031v-.984375h1.4082031zm7.2910159 1.4082031h3.800781v.984375h-3.800781zm-8.9882815 5.5410157c-.80884015 0-1.4609375.6520976-1.4609375 1.4609372v4.378906c0 .808842.65209735 1.460938 1.4609375 1.460938h4.3789063c.80884 0 1.4609375-.652096 1.4609374-1.460938v-4.378906c0-.8088396-.6520974-1.4609372-1.4609374-1.4609372zm8.6992185 0c-.8088396 0-1.4609372.6520976-1.4609372 1.4609372v4.378906c0 .808842.6520976 1.460938 1.4609372 1.460938h4.378906c.808842 0 1.460938-.652096 1.460938-1.460938v-4.378906c0-.8088396-.652096-1.4609372-1.460938-1.4609372zm-7.5058591 1.9589842.9960937.996094.9960938-.996094.6953125.695313-.9960938.996093.9960938.996094-.6953125.695313-.9960938-.994141-.9960937.994141-.6953125-.695313.9941406-.996094-.9941406-.996093zm7.7949221.246094h3.802734v.986328h-3.802734zm0 1.90625h3.802734v.984375h-3.802734z" fill="#d0d0d0" stroke-linecap="round" stroke-miterlimit="26.700001" stroke-width="2" transform="scale(.26458333)"/></svg>