<?xml version="1.0" encoding="UTF-8" standalone="no"?>
<!-- Created with Inkscape (http://www.inkscape.org/) -->

<svg xmlns:dc="http://purl.org/dc/elements/1.1/" xmlns:cc="http://creativecommons.org/ns#" xmlns:rdf="http://www.w3.org/1999/02/22-rdf-syntax-ns#" xmlns:svg="http://www.w3.org/2000/svg" xmlns="http://www.w3.org/2000/svg" xmlns:sodipodi="http://sodipodi.sourceforge.net/DTD/sodipodi-0.dtd" xmlns:inkscape="http://www.inkscape.org/namespaces/inkscape" width="12" height="12" viewBox="0 0 12 12" version="1.1" id="default16" inkscape:version="0.92+devel (a03fc5d622, 2017-12-24, custom)" sodipodi:docname="glyph-inkscape-2.svg">
  <sodipodi:namedview id="base" pagecolor="#002466" bordercolor="#ffffff" borderopacity="0.38039216" inkscape:pageopacity="1" inkscape:pageshadow="2" inkscape:zoom="52.5625" inkscape:cx="6.3170298" inkscape:cy="6.9541527" inkscape:document-units="px" inkscape:current-layer="default16" inkscape:document-rotation="0" showgrid="false" inkscape:showpageshadow="false" borderlayer="true" inkscape:window-width="1920" inkscape:window-height="1023" inkscape:window-x="0" inkscape:window-y="28" inkscape:window-maximized="1" units="px" />
  <metadata id="metadata5">
    <rdf:RDF>
      <cc:Work rdf:about="">
        <dc:format>image/svg+xml</dc:format>
        <dc:type rdf:resource="http://purl.org/dc/dcmitype/StillImage" />
        <dc:title></dc:title>
      </cc:Work>
    </rdf:RDF>
  </metadata>
  <defs id="defs5" />
  <path d="M 5.8975074,9.2984993e-4 C 5.5264909,1.7994993e-4 5.1589496,0.13637435 4.8927022,0.41251905 L 2.0906732,3.3170795 0.46335779,5.0059136 C -1.0332361,6.8839632 1.4812071,6.6650085 2.5593868,7.2059386 2.9461476,7.6065394 1.0784731,7.9020862 1.4652334,8.3030217 1.8519938,8.7036234 3.8036777,9.0756723 4.1910962,9.4762703 4.5778563,9.8768733 3.3986063,10.301649 3.7853664,10.70225 c 0.3867608,0.400602 1.282586,0.01993 1.4500832,0.944751 0.1193578,0.660876 1.6106414,0.284936 2.3406386,-0.256328 C 7.9628481,10.989737 6.8363282,11.026685 7.2230883,10.626084 8.1848781,9.6294243 9.080872,10.264014 9.4099308,9.2653493 9.572483,8.7718643 7.9942699,8.5058855 8.3816899,8.1052831 9.4944912,7.4467458 13.341208,7.0163511 11.516214,5.1670339 L 9.4260425,3.0036272 6.9242837,0.41251905 C 6.6435286,0.13938145 6.2685239,0.00168155 5.8975074,9.2984993e-4 Z M 5.9033674,0.63955235 c 0.3194348,-0.003487 0.6429695,0.1166467 0.8846938,0.3588589 L 8.5750347,2.906955 8.1077856,3.3097559 7.1366695,2.2844445 7.019491,3.6027019 6.39991,3.1750006 5.3321217,3.6949799 4.8414369,2.7399757 4.1760179,3.3977556 3.1009064,2.9905605 5.0391756,1.021847 C 5.2684096,0.77079555 5.5839282,0.64303955 5.9033674,0.63955235 Z M 3.8322355,7.4549428 c 0.1183686,0.074507 1.9089607,0.4420795 2.3464979,0.5155851 0.1516705,0.032413 0.044994,0.1918887 -0.1640498,0.298805 C 5.5431853,8.3962958 3.2552272,7.4549435 3.8322355,7.4549428 Z m 7.0292415,1.2625975 c -0.382353,-0.00979 -0.776257,0.176307 -0.8803034,0.547809 0,0.227865 1.6566104,0.378275 1.6566104,-0.05273 -0.110662,-0.324507 -0.438937,-0.4864408 -0.776307,-0.495079 z M 3.1980096,9.7033033 C 2.6787543,9.6984033 2.0690072,10.083566 2.5169101,10.476681 2.9092752,10.820483 3.5158073,10.391081 3.6974822,9.9112953 3.5905607,9.7673343 3.4011966,9.7052133 3.1980096,9.7033033 Z m 6.5751743,0.03076 c -0.5057886,0.4597387 0.056598,0.9253957 0.5551331,0.6283697 0.111115,-0.114268 -0.0028,-0.5141037 -0.5551331,-0.6283697 z" id="path851" style="fill:#ffffff;stroke-width:0.99999994" inkscape:connector-curvature="0" sodipodi:nodetypes="cccccccscccccccccscccccccccccsccccsccsccccccc" />
</svg>
