<?xml version="1.0" encoding="UTF-8" standalone="no"?>
<!-- Created with Inkscape (http://www.inkscape.org/) -->

<svg
   xmlns:dc="http://purl.org/dc/elements/1.1/"
   xmlns:cc="http://creativecommons.org/ns#"
   xmlns:rdf="http://www.w3.org/1999/02/22-rdf-syntax-ns#"
   xmlns:svg="http://www.w3.org/2000/svg"
   xmlns="http://www.w3.org/2000/svg"
   xmlns:sodipodi="http://sodipodi.sourceforge.net/DTD/sodipodi-0.dtd"
   xmlns:inkscape="http://www.inkscape.org/namespaces/inkscape"
   width="16"
   height="16"
   viewBox="0 0 16 16"
   version="1.1"
   id="default16"
   inkscape:version="0.92+devel (58ef38f81c, 2017-09-13, custom)"
   sodipodi:docname="glyph-historgram-linear.svg">
  <defs
     id="defs829" />
  <sodipodi:namedview
     id="base"
     pagecolor="#002466"
     bordercolor="#ffffff"
     borderopacity="0.38039216"
     inkscape:pageopacity="1"
     inkscape:pageshadow="2"
     inkscape:zoom="26.28125"
     inkscape:cx="7.7336504"
     inkscape:cy="8"
     inkscape:document-units="px"
     inkscape:current-layer="default16"
     inkscape:document-rotation="0"
     showgrid="false"
     inkscape:showpageshadow="false"
     borderlayer="true"
     inkscape:window-width="1920"
     inkscape:window-height="1027"
     inkscape:window-x="0"
     inkscape:window-y="24"
     inkscape:window-maximized="1"
     units="px" />
  <metadata
     id="metadata5">
    <rdf:RDF>
      <cc:Work
         rdf:about="">
        <dc:format>image/svg+xml</dc:format>
        <dc:type
           rdf:resource="http://purl.org/dc/dcmitype/StillImage" />
        <dc:title></dc:title>
      </cc:Work>
    </rdf:RDF>
  </metadata>
  <path
     style="fill:#d0d0d0;stroke:none"
     d="M 5.3339844 0 L 5.3339844 2.6660156 L 4 2.6660156 L 4 5.3339844 L 2.6660156 5.3339844 L 2.6660156 9.3339844 L 1.3339844 9.3339844 L 1.3339844 14.666016 L 14.666016 14.666016 L 14.666016 13.333984 L 13.333984 13.333984 L 13.333984 12 L 13.333984 10.666016 L 12 10.666016 L 12 12 L 10.666016 12 L 10.666016 10.666016 L 9.3339844 10.666016 L 9.3339844 5.3339844 L 8 5.3339844 L 8 1.3339844 L 6.6660156 1.3339844 L 6.6660156 0 L 5.3339844 0 z "
     id="rect1380"
     inkscape:label="#" />
  <path
     id="path1395"
     d="M -6e-7,5e-7 V 14.666016 16 H 1.3339844 15.999999 V 14.666016 H 1.3339844 V 5e-7 Z"
     style="fill:#d0d0d0;stroke:none"
     inkscape:connector-curvature="0"
     inkscape:label="#" />
</svg>
