<?xml version="1.0" encoding="UTF-8" standalone="no"?>
<!-- Created with Inkscape (http://www.inkscape.org/) -->

<svg
   xmlns:dc="http://purl.org/dc/elements/1.1/"
   xmlns:cc="http://creativecommons.org/ns#"
   xmlns:rdf="http://www.w3.org/1999/02/22-rdf-syntax-ns#"
   xmlns:svg="http://www.w3.org/2000/svg"
   xmlns="http://www.w3.org/2000/svg"
   xmlns:sodipodi="http://sodipodi.sourceforge.net/DTD/sodipodi-0.dtd"
   xmlns:inkscape="http://www.inkscape.org/namespaces/inkscape"
   width="16"
   height="16"
   viewBox="0 0 4.2333332 4.2333332"
   version="1.1"
   id="svg8"
   inkscape:version="0.92+devel (f96dc7e339, 2017-07-28, custom)"
   sodipodi:docname="glyph-hex-edit.svg">
  <defs
     id="defs2" />
  <sodipodi:namedview
     id="base"
     pagecolor="#002466"
     bordercolor="#ffffff"
     borderopacity="0.38039216"
     inkscape:pageopacity="1"
     inkscape:pageshadow="2"
     inkscape:zoom="12.875"
     inkscape:cx="26.008423"
     inkscape:cy="12.96792"
     inkscape:document-units="px"
     inkscape:current-layer="svg8"
     inkscape:document-rotation="0"
     showgrid="false"
     inkscape:showpageshadow="false"
     borderlayer="true"
     inkscape:window-width="1920"
     inkscape:window-height="1051"
     inkscape:window-x="0"
     inkscape:window-y="0"
     inkscape:window-maximized="1"
     units="px" />
  <metadata
     id="metadata5">
    <rdf:RDF>
      <cc:Work
         rdf:about="">
        <dc:format>image/svg+xml</dc:format>
        <dc:type
           rdf:resource="http://purl.org/dc/dcmitype/StillImage" />
        <dc:title></dc:title>
      </cc:Work>
    </rdf:RDF>
  </metadata>
  <path
     style="font-variation-settings:normal;vector-effect:none;fill:#d0d0d0;stroke-width:0.50270838;stroke-linecap:square"
     d="M 0.4830992,0 C 0.2154634,0 0,0.2154635 0,0.4830992 V 3.750234 C 0,4.0178698 0.2154634,4.2333332 0.4830992,4.2333332 H 3.750234 c 0.2676357,0 0.4830992,-0.2154634 0.4830992,-0.4830992 V 0.4830992 C 4.2333332,0.2154635 4.0178697,0 3.750234,0 Z m 0.8881447,0.4497221 c 0.096964,1e-7 0.1709999,0.03838 0.2219928,0.1152555 0.051379,0.076489 0.077011,0.1877463 0.077011,0.3337713 0,0.1456387 -0.025632,0.2570696 -0.077011,0.3339452 -0.050993,0.076489 -0.1250291,0.1147339 -0.2219928,0.1147339 -0.096964,0 -0.171135,-0.038245 -0.2225142,-0.1147339 -0.050993,-0.076876 -0.076489,-0.1883065 -0.076489,-0.3339452 0,-0.146025 0.025496,-0.257282 0.076489,-0.3337713 0.051379,-0.076876 0.1255506,-0.1152553 0.2225142,-0.1152555 z m 1.5111846,0 c 0.096964,0 0.1709999,0.03838 0.2219927,0.1152555 0.051379,0.076489 0.077011,0.1877463 0.077011,0.3337713 0,0.1456387 -0.025632,0.2570696 -0.077011,0.3339452 -0.050993,0.076489 -0.125029,0.1147339 -0.2219927,0.1147339 -0.096964,0 -0.171135,-0.038245 -0.2225142,-0.1147339 -0.050993,-0.076876 -0.076489,-0.1883065 -0.076489,-0.3339452 0,-0.146025 0.025496,-0.257282 0.076489,-0.3337713 0.051379,-0.076876 0.1255506,-0.1152553 0.2225142,-0.1152555 z m 0.7556792,0 c 0.096964,0 0.1709999,0.03838 0.2219927,0.1152555 0.051379,0.076489 0.077011,0.1877463 0.077011,0.3337713 0,0.1456387 -0.025632,0.2570696 -0.077011,0.3339452 -0.050993,0.076489 -0.125029,0.1147339 -0.2219927,0.1147339 -0.096964,0 -0.1711351,-0.038245 -0.2225143,-0.1147339 -0.050993,-0.076876 -0.076489,-0.1883065 -0.076489,-0.3339452 0,-0.146025 0.025496,-0.257282 0.076489,-0.3337713 0.051379,-0.076876 0.1255506,-0.1152553 0.2225143,-0.1152555 z m -3.062526,0.015646 h 0.1171677 v 0.7668046 h 0.1912231 v 0.098567 H 0.3855754 V 1.2321727 H 0.5767986 V 0.5719311 L 0.368713,0.6136521 V 0.5072628 Z m 1.5113584,0 H 2.2039339 V 1.2321727 H 2.395157 v 0.098567 H 1.89676 V 1.2321727 H 2.0879831 V 0.5719311 L 1.8800714,0.6136524 V 0.5072628 Z m -0.7156962,0.077011 c -0.060264,0 -0.1055976,0.029862 -0.1361161,0.089353 -0.030132,0.059105 -0.045198,0.1480338 -0.045198,0.267017 0,0.1185971 0.015066,0.2078731 0.045198,0.2673648 0.030518,0.059105 0.075852,0.088658 0.1361161,0.088658 0.060651,0 0.105984,-0.029552 0.1361162,-0.088658 0.030518,-0.059492 0.045894,-0.1487677 0.045894,-0.2673648 0,-0.1189832 -0.015375,-0.2079117 -0.045894,-0.267017 -0.030132,-0.059492 -0.075466,-0.089353 -0.1361162,-0.089353 z m 1.5111846,0 c -0.060264,0 -0.1055976,0.029862 -0.1361161,0.089353 -0.030132,0.059105 -0.045198,0.1480338 -0.045198,0.267017 0,0.1185971 0.015066,0.2078731 0.045198,0.2673648 0.030518,0.059105 0.075852,0.088658 0.1361161,0.088658 0.060651,0 0.106158,-0.029552 0.13629,-0.088658 0.030519,-0.059492 0.04572,-0.1487677 0.04572,-0.2673648 0,-0.1189832 -0.015201,-0.2079117 -0.04572,-0.2670171 C 2.9885865,0.57224 2.9430795,0.542379 2.8824285,0.5423791 Z m 0.7556792,0 c -0.060264,0 -0.1055977,0.029862 -0.1361162,0.089353 -0.030132,0.059105 -0.045198,0.1480338 -0.045198,0.267017 0,0.1185971 0.015066,0.2078731 0.045198,0.2673648 0.030518,0.059105 0.075852,0.088658 0.1361162,0.088658 0.060651,0 0.1059841,-0.029552 0.1361161,-0.088658 0.030518,-0.059492 0.045894,-0.1487677 0.045894,-0.2673648 0,-0.1189832 -0.015375,-0.2079117 -0.045894,-0.2670171 C 3.7440918,0.57224 3.6987588,0.542379 3.6381077,0.5423791 Z M 0.5952256,1.6867628 c 0.096964,0 0.1709998,0.038554 0.2219927,0.1154293 0.051379,0.076489 0.077011,0.1877463 0.077011,0.3337714 0,0.1456386 -0.025632,0.2568957 -0.077011,0.3337713 -0.050993,0.076489 -0.1250291,0.1147339 -0.2219927,0.1147339 -0.096964,0 -0.1711351,-0.038244 -0.2225143,-0.1147339 -0.050993,-0.076876 -0.076489,-0.1881329 -0.076489,-0.3337715 0,-0.146025 0.025497,-0.2572821 0.076489,-0.3337714 0.051379,-0.076876 0.1255506,-0.1154292 0.2225143,-0.1154291 z m 0.7556792,0 c 0.096964,0 0.170826,0.038554 0.2218188,0.1154293 0.051379,0.076489 0.077185,0.1877463 0.077185,0.3337714 0,0.1456386 -0.025805,0.2568957 -0.077185,0.3337713 -0.050993,0.076489 -0.1248552,0.1147339 -0.2218188,0.1147339 -0.096964,0 -0.1711351,-0.038244 -0.2225143,-0.1147339 -0.050993,-0.076876 -0.076489,-0.1881327 -0.076489,-0.3337713 0,-0.146025 0.025496,-0.2572821 0.076489,-0.3337714 0.051379,-0.076875 0.1255506,-0.1154292 0.2225143,-0.1154293 z m 1.5111845,0 c 0.096964,0 0.1709998,0.038554 0.2219927,0.1154293 0.051379,0.076489 0.077011,0.1877463 0.077011,0.3337714 0,0.1456386 -0.025632,0.2568957 -0.077011,0.3337713 -0.050993,0.076489 -0.1250291,0.1147339 -0.2219927,0.1147339 -0.096964,0 -0.171135,-0.038244 -0.2225143,-0.1147339 C 2.588582,2.3928588 2.563086,2.2816019 2.563086,2.1359633 c 0,-0.146025 0.025497,-0.2572821 0.076489,-0.3337714 0.051379,-0.076876 0.1255507,-0.1154292 0.2225143,-0.1154291 z m -0.7956622,0.015645 h 0.1171676 v 0.7666309 h 0.1912232 v 0.098393 H 1.8764208 V 2.4690387 H 2.0676439 V 1.809145 L 1.8595584,1.850866 V 1.744129 Z m 1.5113584,0 h 0.1169938 v 0.7666309 h 0.1912231 v 0.098393 H 3.3876053 V 2.4690387 H 3.5788285 V 1.809145 L 3.3709167,1.8508663 V 1.744129 Z m -2.9825599,0.077185 c -0.060264,0 -0.1055976,0.029688 -0.1361162,0.08918 -0.030132,0.059105 -0.045198,0.1482076 -0.045198,0.2671909 0,0.118597 0.015066,0.2075254 0.045198,0.2670171 0.030518,0.059105 0.075852,0.088484 0.1361162,0.088484 0.06065,0 0.1059838,-0.029379 0.1361161,-0.088484 0.030518,-0.059492 0.045894,-0.1484201 0.045894,-0.2670171 0,-0.1189833 -0.015375,-0.2080856 -0.045894,-0.2671909 -0.030132,-0.059492 -0.075466,-0.08918 -0.1361161,-0.08918 z m 0.7556792,0 c -0.060264,0 -0.1057715,0.029688 -0.13629,0.08918 -0.030132,0.059105 -0.045198,0.1482076 -0.045198,0.2671909 0,0.118597 0.015066,0.2075254 0.045198,0.2670171 0.030519,0.059105 0.076026,0.088484 0.13629,0.088484 0.06065,0 0.1059839,-0.029379 0.1361161,-0.088484 0.030518,-0.059492 0.04572,-0.1484201 0.04572,-0.2670171 0,-0.1189834 -0.015201,-0.2080857 -0.04572,-0.267191 -0.030132,-0.059492 -0.075466,-0.08918 -0.1361161,-0.08918 z m 1.5111845,0 c -0.060264,0 -0.1055976,0.029514 -0.1361162,0.089006 -0.030132,0.059105 -0.045198,0.1483815 -0.045198,0.2673648 0,0.118597 0.015066,0.2075254 0.045198,0.267017 0.030518,0.059105 0.075852,0.088484 0.1361162,0.088484 0.060651,0 0.1059841,-0.029379 0.1361161,-0.088484 0.030518,-0.059492 0.045894,-0.14842 0.045894,-0.2670171 0,-0.1189833 -0.015375,-0.2080856 -0.045894,-0.2671909 -0.030132,-0.059492 -0.075465,-0.08918 -0.1361161,-0.08918 z m 0.044155,1.106313 c 0.096964,0 0.1709997,0.038554 0.2219926,0.1154292 0.051379,0.076489 0.077011,0.1877464 0.077011,0.3337713 0,0.1456387 -0.025632,0.2568958 -0.077011,0.3337714 -0.050993,0.076489 -0.125029,0.1147339 -0.2219926,0.1147339 -0.096964,0 -0.1711352,-0.038244 -0.2225142,-0.1147339 -0.050993,-0.076876 -0.076489,-0.1881327 -0.076489,-0.3337714 0,-0.1460249 0.025497,-0.2572821 0.076489,-0.3337713 0.051379,-0.076876 0.1255505,-0.1154297 0.2225142,-0.1154292 z m -2.189853,0.015471 v 0.766805 h 0.1912232 v 0.098567 H 0.4093914 V 3.6681818 H 0.6006146 V 3.0081142 L 0.392529,3.0498352 v -0.106563 l 0.2068687,-0.041721 z m 0.7556792,0 v 0.7668049 h 0.1912233 v 0.098567 H 1.1648968 V 3.6681817 H 1.3561199 V 3.0082881 l -0.2079117,0.041721 v -0.106737 l 0.2068687,-0.041721 z m 0.7556792,0 V 3.6681819 H 2.418973 v 0.098567 H 1.9205759 V 3.6681819 H 2.1117991 V 3.0082881 l -0.2080856,0.041721 v -0.106737 l 0.2068688,-0.041721 z m 1.5111845,0 v 0.7668051 h 0.1912233 v 0.098567 H 3.4317605 V 3.6681819 H 3.6229836 V 3.0082881 L 3.4150719,3.0500095 V 2.9432722 l 0.2068687,-0.041721 z m -0.8326898,0.077359 c -0.060264,0 -0.1055977,0.029688 -0.1361161,0.08918 -0.030132,0.059105 -0.045198,0.1482077 -0.045198,0.2671909 0,0.118597 0.015066,0.2075255 0.045198,0.2670171 0.030518,0.059105 0.075852,0.088658 0.1361161,0.088658 0.060651,0 0.1059841,-0.029552 0.1361161,-0.088658 0.030518,-0.059492 0.045894,-0.1484201 0.045894,-0.2670171 0,-0.1189832 -0.015375,-0.2080855 -0.045894,-0.2671909 -0.030132,-0.059492 -0.075465,-0.08918 -0.1361161,-0.08918 z"
     id="rect885"
     inkscape:connector-curvature="0" />
</svg>
