<?xml version="1.0" encoding="UTF-8" standalone="no"?><svg height="16" viewBox="0 0 4.2333333 4.2333333" width="16" xmlns="http://www.w3.org/2000/svg"><sodipodi:namedview/><metadata><rdf:RDF><cc:Work><dc:format>image/svg+xml</dc:format><dc:type/><dc:title/></cc:Work></rdf:RDF></metadata><path d="m2.445265.21691444-1.61072071 1.85822176c.41771271.0647062 1.12828081.5794459 1.02087141 1.2661275.2182614-.5063014-.1839738-1.1276351-.5674002-1.3772505l1.4047505-1.63597588c-.0724389-.05082667-.1326306-.07865025-.247501-.11112288zm-.579186.13132704c-.044401.002336-.074588.008189-.072959.007857l-.5140842.57469628c-.28844131.0135755-.56878758.0335337-.84015638.05949-.19652424.01978114-.35314539.17366044-.37602191.36984844-.0428986.3530175-.0628574.723008-.0628574 1.1033718 0 .380494.0200674.7504848.0628574 1.1033718.0274877.2258636.18057814.3378102.37602191.3698483.53525477.087785 1.31719918.00711 1.31719918-.7133192 0-.6740287-1.13646697-.962639-1.52429186-.7778601l1.79143576-2.08495732c-.0544324-.01335829-.1127435-.01468337-.1571435-.012347zm1.217862.58872676s-1.0070303 2.18074876-1.1084228 2.40541796c-.1493971.3304881-.3541517.5732674-.6504618.6555127.2605254.012004.5201655.01852.791891.01852.5868853 0 1.1500134-.028651 1.6780678-.079695.1965546-.019664.3531252-.1736442.376022-.3698483.042681-.352887.062296-.7228776.062296-1.1033718 0-.3803637-.019506-.7503545-.062296-1.1033718-.0230316-.1961601-.179515-.3499782-.376022-.36984723-.2305446-.02215521-.4678555-.03995823-.7110742-.05331653zm-1.7588846 3.06093066c-.0005535-.0000256-.00113.0000256-.00168 0v .0005612c.0005794-.0001594.00111-.0004005.00168-.0005612z" fill="#d0d0d0" stroke-width="9.623627"/></svg>