<?xml version="1.0" encoding="UTF-8" standalone="no"?><svg height="16" viewBox="0 0 4.2333333 4.2333333" width="16" xmlns="http://www.w3.org/2000/svg"><sodipodi:namedview/><metadata><rdf:RDF><cc:Work><dc:format>image/svg+xml</dc:format><dc:type/><dc:title/></cc:Work></rdf:RDF></metadata><path d="m8 3.7910156c-4.4182018 0-8 1.8849094-8 4.2089844 0 2.324162 3.5817982 4.208984 8 4.208984 4.418201 0 8-1.884852 8-4.208984 0-2.3241328-3.581799-4.2089844-8-4.2089844zm-.7480469 1.2265625h.9121094l-.21875 1.1210938h.8125c.5109373 0 .8626881.089453 1.0566406.2675781.1939539.1782425.2532689.4679394.1757813.8671875l-.3828125 1.9609375h-.9257813l.3632813-1.8652344c.0412906-.2122684.0267217-.3563946-.0449219-.4335937-.0717592-.0771991-.2257667-.1171875-.4589844-.1171875h-.7285156l-.46875 2.4160156h-.9121094zm-3.9101562 1.1210938h1.765625c.5314817 0 .9203415.1390343 1.1640625.4179687.2436359.2789934.3159745.6700374.21875 1.1699219-.0400177.2059313-.1078431.3938513-.203125.5644531-.095195.1706608-.2191143.3271992-.3730469.46875-.1834507.1715868-.3870804.2925201-.6113281.3652344-.2242772.0732057-.5101993.109375-.8574219.109375h-.7871094l-.21875 1.123047h-.9179687zm7.1699221 0h1.767578c.531482 0 .918388.1390343 1.162109.4179687.243636.2789934.317928.6700374.220703 1.1699219-.04002.2059313-.107843.3938513-.203125.5644531-.09519.1706608-.221067.3271992-.375.46875-.18345.1715868-.38708.2925201-.611328.3652344-.224277.073206-.510199.109375-.857422.109375h-.787109l-.216797 1.123047h-.9179686zm-6.3808596.6660156-.34375 1.765625h.5585937c.3704277 0 .646846-.069403.828125-.2089844.1813077-.1395817.3036461-.3728308.3671875-.6992187.0607635-.3134551.0341212-.5352139-.0820312-.6640625-.1163188-.1288479-.3501749-.1933594-.6992188-.1933594zm7.1699216 0-.341797 1.765625h.558594c.370428 0 .644893-.069403.826172-.2089844.181364-.1395817.303646-.3728308.367188-.6992187.060817-.3134551.034158-.5352139-.082032-.6640625-.11632-.1288479-.34822-.1933594-.697265-.1933594z" fill="#d0d0d0" stroke-width=".028935" transform="scale(.26458333)"/></svg>