<?xml version="1.0" encoding="UTF-8" standalone="no"?>
<!-- Created with Inkscape (http://www.inkscape.org/) -->

<svg
   xmlns:dc="http://purl.org/dc/elements/1.1/"
   xmlns:cc="http://creativecommons.org/ns#"
   xmlns:rdf="http://www.w3.org/1999/02/22-rdf-syntax-ns#"
   xmlns:svg="http://www.w3.org/2000/svg"
   xmlns="http://www.w3.org/2000/svg"
   xmlns:sodipodi="http://sodipodi.sourceforge.net/DTD/sodipodi-0.dtd"
   xmlns:inkscape="http://www.inkscape.org/namespaces/inkscape"
   width="16"
   height="16"
   viewBox="0 0 4.2333332 4.2333335"
   version="1.1"
   id="default"
   inkscape:version="0.92+devel (5451be0409, 2017-08-29, custom)"
   sodipodi:docname="glyph-games-config-tiles.svg">
  <defs
     id="defs" />
  <sodipodi:namedview
     id="base"
     pagecolor="#002466"
     bordercolor="#ffffff"
     borderopacity="0.4"
     inkscape:pageopacity="0"
     inkscape:pageshadow="2"
     inkscape:zoom="36.371805"
     inkscape:cx="7.9587593"
     inkscape:cy="8"
     inkscape:document-units="px"
     inkscape:document-rotation="0"
     showgrid="false"
     units="px"
     inkscape:pagecheckerboard="false"
     borderlayer="true"
     inkscape:showpageshadow="false"
     inkscape:window-width="1920"
     inkscape:window-height="1025"
     inkscape:window-x="0"
     inkscape:window-y="26"
     inkscape:window-maximized="1"
     inkscape:current-layer="default" />
  <metadata
     id="meta-min">
    <rdf:RDF>
      <cc:Work
         rdf:about="">
        <dc:format>image/svg+xml</dc:format>
        <dc:type
           rdf:resource="http://purl.org/dc/dcmitype/StillImage" />
        <dc:title></dc:title>
      </cc:Work>
    </rdf:RDF>
  </metadata>
  <path
     inkscape:connector-curvature="0"
     style="fill:#d0d0d0;stroke-width:0.45772916;stroke-linecap:square"
     d="M 0.42323002,1.9999998e-8 C 0.18870332,1.9999998e-8 2.4999997e-8,0.18870335 2.4999997e-8,0.42323001 V 3.8101035 C 2.4999997e-8,4.0446301 0.18870332,4.2333333 0.42323002,4.2333333 H 3.8101035 c 0.2345266,0 0.4232298,-0.1887032 0.4232298,-0.4232298 V 0.42323001 C 4.2333333,0.18870335 4.0446301,1.9999998e-8 3.8101035,1.9999998e-8 Z M 2.6267131,0.46147056 l 0.2924885,0.0511597 0.02377,0.30024007 a 0.78801336,0.78801336 0 0 1 0.1395264,0.088883 L 3.3641348,0.79426628 3.5357004,1.0371455 3.3403646,1.2660721 a 0.78801336,0.78801336 0 0 1 0.035657,0.1617472 L 3.6509399,1.5508092 3.6008138,1.8443314 3.3000569,1.8675864 A 0.78801336,0.78801336 0 0 1 3.2111736,2.0071126 L 3.3186606,2.289266 3.0752645,2.4603149 2.8473715,2.2654948 A 0.78801336,0.78801336 0 0 1 2.6851076,2.3011518 L 2.5616008,2.5760705 2.2691122,2.5249105 2.2448242,2.2246704 A 0.78801336,0.78801336 0 0 1 2.1052978,2.1363034 L 1.8236613,2.2432739 1.6520955,2.0003947 1.8474325,1.7714681 A 0.78801336,0.78801336 0 0 1 1.8117755,1.6102376 L 1.5368569,1.4862142 1.5874999,1.1932088 1.8882568,1.1699548 a 0.78801336,0.78801336 0 0 1 0.088367,-0.1395263 l -0.1074869,-0.28215334 0.243396,-0.171049 0.2284098,0.19533693 a 0.78801336,0.78801336 0 0 1 0.162264,-0.0356568 z M 2.5941569,1.2107788 A 0.3079876,0.3079876 0 0 0 2.2908162,1.4665772 0.3079876,0.3079876 0 0 0 2.541447,1.8226278 0.3079876,0.3079876 0 0 0 2.8974976,1.5714803 0.3079876,0.3079876 0 0 0 2.6463501,1.2154297 0.3079876,0.3079876 0 0 0 2.5941569,1.2107788 Z m -1.2107788,0.800468 0.243396,0.046509 0.015503,0.2501139 a 0.65651655,0.65651655 0 0 1 0.1157552,0.075964 L 1.9936768,2.2980507 2.1332031,2.5032061 1.966805,2.6913083 A 0.65651655,0.65651655 0 0 1 1.99471,2.8261839 l 0.2278934,0.1069702 -0.047026,0.2428791 -0.2495972,0.01602 A 0.65651655,0.65651655 0 0 1 1.8500166,3.3072909 L 1.9352824,3.5434529 1.730127,3.6824626 1.5420247,3.5165813 A 0.65651655,0.65651655 0 0 1 1.4071493,3.5444863 L 1.3006958,3.7718627 1.0572998,3.725354 1.0412801,3.4752402 A 0.65651655,0.65651655 0 0 1 0.92655842,3.3992757 L 0.69039722,3.4850586 0.55087082,3.2799031 0.71726892,3.091801 A 0.65651655,0.65651655 0 0 1 0.68988042,2.9569254 l -0.2284098,-0.1069702 0.0465088,-0.2433959 0.2501139,-0.015503 a 0.65651655,0.65651655 0 0 1 0.076481,-0.1152384 L 0.74930832,2.2396566 0.95343022,2.100647 1.1420491,2.2670451 a 0.65651655,0.65651655 0 0 1 0.1348756,-0.027905 z m 1.8438152,0.4738728 0.2635496,0.1059367 -0.032039,0.1999878 a 0.47736996,0.47736996 0 0 1 0.038757,0.042892 0.47736996,0.47736996 0 0 1 0.032556,0.048059 l 0.2015382,0.016536 0.040307,0.2811198 -0.1891355,0.071313 A 0.47736996,0.47736996 0 0 1 3.5393186,3.358968 l 0.0863,0.182418 L 3.4023761,3.716569 3.2463132,3.5889282 a 0.47736996,0.47736996 0 0 1 -0.1152385,0.01602 L 3.0163535,3.7718627 2.7528036,3.6659262 2.784843,3.4659382 A 0.47736996,0.47736996 0 0 1 2.746086,3.4230472 0.47736996,0.47736996 0 0 1 2.71353,3.3749882 L 2.511992,3.3584522 2.471684,3.0773325 2.6608198,3.0055025 a 0.47736996,0.47736996 0 0 1 0.043408,-0.107487 L 2.6179281,2.7150798 2.8411702,2.5398967 2.9972331,2.6675374 A 0.47736996,0.47736996 0 0 1 3.1124716,2.6515164 Z M 1.3430705,2.6349813 A 0.25659331,0.25659331 0 0 0 1.1978597,2.6794233 0.25659331,0.25659331 0 0 0 1.1301637,3.0359906 0.25659331,0.25659331 0 0 0 1.4862143,3.1036866 0.25659331,0.25659331 0 0 0 1.5544273,2.747119 0.25659331,0.25659331 0 0 0 1.3430705,2.6349813 Z m 1.7864543,0.2795695 a 0.21378785,0.21378785 0 0 0 -0.1395265,0.045475 0.21378785,0.21378785 0 0 0 -0.03669,0.3002401 0.21378785,0.21378785 0 0 0 0.3002402,0.03669 0.21378785,0.21378785 0 0 0 0.03669,-0.3007569 0.21378785,0.21378785 0 0 0 -0.1607137,-0.081648 z"
     id="rect812"
     inkscape:label="#" />
</svg>
