<?xml version="1.0" encoding="UTF-8" standalone="no"?><svg height="22" viewBox="0 0 5.8208332 5.8208335" width="22" xmlns="http://www.w3.org/2000/svg"><sodipodi:namedview/><metadata><rdf:RDF><cc:Work><dc:format>image/svg+xml</dc:format><dc:type/><dc:title/></cc:Work></rdf:RDF></metadata><path d="m2.8797399.3048923a.63861999.63861999 0 0 0 -.5224297.32010951l-2.2705604 3.93346709a.63861999.63861999 0 0 0 -.08660971.3062519.63861999.63861999 0 0 0  .63883328.6519981h4.54389243a.63861999.63861999 0 0 0  .5522237-.95825l-2.2698677-3.93346709a.63861999.63861999 0 0 0 -.5854819-.32010951zm.031179.8827262c.2480546 0 .47027.1998897.4475991.4469062l-.1815334 1.9781659c-.014119.1538324-.1185753.2674507-.266065.2674507-.1474895 0-.2526395-.1136186-.2667579-.2674507l-.1815341-1.9781659c-.022671-.2470165.2002374-.4469062.4482913-.4469062zm.00138 3.0645985a.34798336.34798336 0 0 1  .3478286.3478244.34798336.34798336 0 0 1 -.3478248.3485175.34798336.34798336 0 0 1 -.3485174-.3485175.34798336.34798336 0 0 1  .3485174-.3478244z" fill="#d0d0d0"/></svg>