<?xml version="1.0" encoding="UTF-8" standalone="no"?>
<!-- Created with Inkscape (http://www.inkscape.org/) -->

<svg
   xmlns:dc="http://purl.org/dc/elements/1.1/"
   xmlns:cc="http://creativecommons.org/ns#"
   xmlns:rdf="http://www.w3.org/1999/02/22-rdf-syntax-ns#"
   xmlns:svg="http://www.w3.org/2000/svg"
   xmlns="http://www.w3.org/2000/svg"
   xmlns:xlink="http://www.w3.org/1999/xlink"
   xmlns:sodipodi="http://sodipodi.sourceforge.net/DTD/sodipodi-0.dtd"
   xmlns:inkscape="http://www.inkscape.org/namespaces/inkscape"
   width="22"
   height="22"
   viewBox="0 0 5.8208332 5.8208335"
   version="1.1"
   id="svg8"
   inkscape:version="0.92+devel 15697 custom"
   sodipodi:docname="glyph-gnome-round.svg">
  <defs
     id="defs2">
    <linearGradient
       id="linearGradient3052">
      <stop
         id="stop3054"
         style="stop-color:#555753" />
      <stop
         id="stop3056"
         style="stop-color:#2e3436"
         offset="1" />
    </linearGradient>
    <radialGradient
       gradientTransform="matrix(0.58724559 -0.0000004 0 0.25688859 387.29707 527.70784)"
       gradientUnits="userSpaceOnUse"
       id="radialGradient3082"
       xlink:href="#linearGradient3052"
       r="17.995"
       cy="3.6836"
       cx="25.641" />
    <radialGradient
       gradientTransform="matrix(0.5872456,-4.0000001e-7,0,0.25688859,387.45769,529.05333)"
       gradientUnits="userSpaceOnUse"
       id="radialGradient3082-6"
       xlink:href="#linearGradient3052"
       r="17.995001"
       cy="3.6835999"
       cx="25.641001" />
  </defs>
  <sodipodi:namedview
     id="base"
     pagecolor="#002466"
     bordercolor="#ffffff"
     borderopacity="0.29019608"
     inkscape:pageopacity="1"
     inkscape:pageshadow="2"
     inkscape:zoom="18.681818"
     inkscape:cx="11"
     inkscape:cy="11"
     inkscape:document-units="px"
     inkscape:current-layer="svg8"
     inkscape:document-rotation="0"
     showgrid="false"
     units="px"
     inkscape:showpageshadow="false"
     borderlayer="true"
     inkscape:window-width="1920"
     inkscape:window-height="1054"
     inkscape:window-x="0"
     inkscape:window-y="0"
     inkscape:window-maximized="1" />
  <metadata
     id="metadata5">
    <rdf:RDF>
      <cc:Work
         rdf:about="">
        <dc:format>image/svg+xml</dc:format>
        <dc:type
           rdf:resource="http://purl.org/dc/dcmitype/StillImage" />
        <dc:title></dc:title>
      </cc:Work>
    </rdf:RDF>
  </metadata>
  <path
     style="fill:#ffffff;stroke-width:3.35850096;stroke-linecap:round;stroke-linejoin:round"
     d="M 11,0 C 4.9248678,0 0,4.9248678 0,11 0,17.075132 4.9248678,22 11,22 17.075132,22 22,17.075132 22,11 22,4.9248678 17.075132,0 11,0 Z m 4.320703,3.0722656 c 3.484209,0 -0.216489,5.0898438 -2.175781,5.0898438 -1.960095,0 -1.307998,-5.0898438 2.175781,-5.0898438 z M 9.955469,3.8554688 C 11.682423,3.86105 10.568816,7.4373718 9.5511719,7.3789062 8.5002055,7.318992 7.8054528,4.1049887 9.779688,3.8652344 9.841449,3.858847 9.90059,3.8552737 9.955469,3.8554688 Z M 6.5316406,5.0410156 C 7.6977322,5.1138785 7.5820713,7.9948017 6.7757812,8.1523438 5.8874479,8.326202 4.5424868,5.7417716 6.1292969,5.1152344 6.2781543,5.0566971 6.410862,5.0339857 6.5316406,5.0410156 Z M 3.9417969,7.15625 C 4.9074953,7.1899025 5.324057,9.7849164 4.6703125,10.083984 3.9229461,10.425395 2.2262802,8.2220431 3.4964844,7.3105469 3.6556331,7.1965866 3.803874,7.1523571 3.9417969,7.15625 Z M 11.44375,9.2578125 c 1.65123,0.027182 2.986972,0.5534706 3.166016,1.5878905 0.575244,3.322962 -8.1471347,4.536517 -4.863282,6.96875 1.031637,0.7639 2.085616,0.179314 1.925782,-1.005859 -0.132949,-0.988569 3.571423,-1.587882 3.28125,-0.09375 -0.380318,1.959635 -2.410988,3.505859 -4.171875,3.505859 -3.5794983,0 -7.0100371,-4.049856 -6.3398441,-6.96875 C 5.0611095,10.554485 8.6916367,9.2124442 11.44375,9.2578125 Z"
     transform="scale(0.26458333)"
     id="path4372"
     inkscape:connector-curvature="0"
     sodipodi:nodetypes="sssssssscccccccccccccccccscc" />
</svg>
