<?xml version="1.0" encoding="UTF-8" standalone="no"?>
<!-- Created with Inkscape (http://www.inkscape.org/) -->

<svg xmlns:dc="http://purl.org/dc/elements/1.1/" xmlns:cc="http://creativecommons.org/ns#" xmlns:rdf="http://www.w3.org/1999/02/22-rdf-syntax-ns#" xmlns:svg="http://www.w3.org/2000/svg" xmlns="http://www.w3.org/2000/svg" xmlns:sodipodi="http://sodipodi.sourceforge.net/DTD/sodipodi-0.dtd" xmlns:inkscape="http://www.inkscape.org/namespaces/inkscape" width="12" height="12" viewBox="0 0 12 12" version="1.1" id="default16" inkscape:version="0.92+devel (f318dbfe43, 2017-10-09, custom)" sodipodi:docname="glyph-coordinates.svg">
  <defs id="defs5" />
  <sodipodi:namedview id="base" pagecolor="#002466" bordercolor="#ffffff" borderopacity="0.38039216" inkscape:pageopacity="1" inkscape:pageshadow="2" inkscape:zoom="26.28125" inkscape:cx="7.7336504" inkscape:cy="8" inkscape:document-units="px" inkscape:current-layer="default16" inkscape:document-rotation="0" showgrid="false" inkscape:showpageshadow="false" borderlayer="true" inkscape:window-width="1920" inkscape:window-height="1027" inkscape:window-x="0" inkscape:window-y="24" inkscape:window-maximized="1" units="px" />
  <metadata id="metadata5">
    <rdf:RDF>
      <cc:Work rdf:about="">
        <dc:format>image/svg+xml</dc:format>
        <dc:type rdf:resource="http://purl.org/dc/dcmitype/StillImage" />
        <dc:title></dc:title>
      </cc:Work>
    </rdf:RDF>
  </metadata>
  <path style="opacity:0.6;fill:#d0d0d0;stroke-width:1.5;stroke-linecap:round;stroke:none" d="m 0,0 v 0.80078125 1.99999995 0.7988282 2 h 0.80078125 v -2 H 2.8007812 v 2 h 0.7988282 v -2 h 2 V 2.8007812 h -2 V 0.80078125 h 2 V 0 H 0.80078125 Z m 6.4003906,0 v 0.80078125 h 2 V 2.8007812 h -2 v 0.7988282 h 2 v 2 h 0.7988282 v -2 h 2.0000002 v 2 H 12 V 0 Z M 0.80078125,0.80078125 H 2.8007812 V 2.8007812 H 0.80078125 Z m 8.39843755,0 H 11.199219 V 2.8007812 H 9.1992188 Z M 0,6.4003906 v 2 V 9.1992188 11.199219 12 H 0.80078125 5.5996094 v -0.800781 h -2 V 9.1992188 h 2 V 8.4003906 h -2 v -2 H 2.8007812 v 2 H 0.80078125 v -2 z m 8.4003906,0 v 2 h -2 v 0.7988282 h 2 v 2.0000002 h -2 V 12 H 12 V 11.199219 6.4003906 h -0.800781 v 2 H 9.1992188 v -2 z M 0.80078125,9.1992188 H 2.8007812 V 11.199219 H 0.80078125 Z m 8.39843755,0 H 11.199219 V 11.199219 H 9.1992188 Z" id="rect811" inkscape:connector-curvature="0" />
  <path style="fill:#00ff00;stroke-width:1.5;stroke-linecap:round;stroke:none" d="M 5.59961,-1e-7 V 5.5996091 H 0 v 0.800781 H 5.59961 V 12 H 6.400391 V 6.4003901 H 12 V 5.5996091 H 6.400391 V -1e-7 Z" id="path834" inkscape:connector-curvature="0" inkscape:label="#" />
</svg>
