<?xml version="1.0" encoding="UTF-8" standalone="no"?>
<svg
   xmlns:dc="http://purl.org/dc/elements/1.1/"
   xmlns:cc="http://creativecommons.org/ns#"
   xmlns:rdf="http://www.w3.org/1999/02/22-rdf-syntax-ns#"
   xmlns:svg="http://www.w3.org/2000/svg"
   xmlns="http://www.w3.org/2000/svg"
   xmlns:sodipodi="http://sodipodi.sourceforge.net/DTD/sodipodi-0.dtd"
   xmlns:inkscape="http://www.inkscape.org/namespaces/inkscape"
   id="Layer_1"
   data-name="Layer 1"
   viewBox="0 0 16 16"
   version="1.1"
   sodipodi:docname="glyph-unreal-engine.svg"
   inkscape:version="0.92+devel (260139f747, 2017-08-10, custom)"
   width="16"
   height="16">
  <metadata
     id="metadata39">
    <rdf:RDF>
      <cc:Work
         rdf:about="">
        <dc:format>image/svg+xml</dc:format>
        <dc:type
           rdf:resource="http://purl.org/dc/dcmitype/StillImage" />
        <dc:title>logo_ue4_blk</dc:title>
      </cc:Work>
    </rdf:RDF>
  </metadata>
  <defs
     id="defs37" />
  <sodipodi:namedview
     pagecolor="#002466"
     bordercolor="#ffffff"
     inkscape:document-rotation="0"
     borderopacity="0.54901961"
     objecttolerance="10"
     gridtolerance="10"
     guidetolerance="10"
     inkscape:pageopacity="0"
     inkscape:pageshadow="2"
     inkscape:window-width="1920"
     inkscape:window-height="1027"
     id="namedview35"
     showgrid="false"
     inkscape:zoom="25.8125"
     inkscape:cx="25.667869"
     inkscape:cy="7.5044099"
     inkscape:window-x="0"
     inkscape:window-y="24"
     inkscape:window-maximized="1"
     inkscape:current-layer="Layer_1"
     borderlayer="true"
     inkscape:showpageshadow="false" />
  <title
     id="title2">logo_ue4_blk</title>
  <path
     d="m 7.8275179,1.049306 a 0.78381417,0.78381417 0 0 1 -0.0832,0.0248 c -0.10903,0.029 -0.30256,0.0874 -0.48642,0.14805 a 9.1328866,9.1328866 0 0 0 -2.28596,1.12057 c -0.96026,0.64511 -1.91599,1.51601 -2.98753,2.71819 q -1.09475999,1.22958 -1.59181999,2.50885 c -0.30353,0.78058 -0.43965,1.58698 -0.37836,2.2379 0.005,0.05 0.0116,0.10483 0.0148,0.12063 l 0.007,0.029 0.009,-0.0226 c 0.0323,-0.0816 0.19773,-0.39804 0.30353,-0.58448 A 12.093317,12.093317 0 0 1 2.0384379,7.068446 c 0.49287,-0.52931 0.88574,-0.84897 1.267,-1.03508 0.24031,-0.11645 0.46126,-0.16806 0.63415,-0.14709 0.16289,0.02 0.26353,0.0674 0.36643,0.17128 a 0.55221805,0.55221805 0 0 1 0.14708,0.24611 l 0.019,0.0623 0.003,2.73077 c 0.002,1.7831 0,2.7598 -0.006,2.81367 a 0.64801756,0.64801756 0 0 1 -0.0665,0.24934 c -0.10225,0.21514 -0.34256,0.31739 -0.67737,0.28836 a 2.1308133,2.1308133 0 0 1 -0.37836,-0.0748 c -0.0323,-0.01 -0.05,-0.0126 -0.0464,-0.007 0.004,0.006 0.0242,0.0348 0.0464,0.0674 0.23289,0.32417 0.60092,0.69092 0.98186,0.97412 1.00735,0.75317 2.51595,1.30926 4.12874,1.52376 l 0.19934,0.0261 0.0458,-0.049 c 0.0248,-0.0265 0.14225,-0.15128 0.26095,-0.27675 0.33739,-0.3574 0.39481,-0.41933 0.88445,-0.93864 0.2535301,-0.26934 0.4654501,-0.49029 0.4696501,-0.49029 0.004,0 0.10386,0.0797 0.2203,0.1787 l 0.86026,0.72639 0.46965,0.39804 c 0.011,0.008 0.0342,-0.003 0.12902,-0.0616 a 9.16611,9.16611 0 0 0 1.31345,-0.98348 c 0.1687,-0.14966 0.64512,-0.62672 0.80285,-0.80639 a 12.37749,12.37749 0 0 0 1.24345,-1.6502 c 0.22579,-0.35481 0.48545,-0.82123 0.60512,-1.08057 l 0.0384,-0.0832 -0.23095,0.22934 c -0.43901,0.43384 -0.76221,0.70672 -1.12121,0.94025 -0.59609,0.39062 -1.09218,0.5161 -1.46732,0.37159 a 0.67285447,0.67285447 0 0 1 -0.22579,-0.14644 l -0.0371,-0.041 -0.006,-0.0948 c -0.0168,-0.28417 -0.0323,-0.90122 -0.0522,-2.02404 -0.0174,-1.00251 -0.02,-3.44072 -0.004,-3.85714 0.0132,-0.36062 0.0248,-0.55448 0.039,-0.65834 0.0116,-0.0839 0.0132,-0.0874 0.0816,-0.20354 0.17967,-0.30578 0.40481,-0.63511 0.74479,-1.08637 0.30352,-0.40481 0.79962,-1.0267 1.12637,-1.41409 0.0365,-0.0432 0.0722,-0.0864 0.079,-0.0948 0.0126,-0.0148 0.0116,-0.0158 -0.0242,-0.01 -0.18192,0.0274 -0.65092,0.15031 -0.96025,0.25191 -1.24443,0.40643 -2.46144,1.15379 -3.30105,2.02502 l -0.12483,0.12902 -0.04,-0.0284 C 10.237328,3.959196 9.7618779,3.852756 9.2780379,3.860496 l -0.15805,0.003 0.0548,0.0342 c 0.17031,0.10903 0.35159,0.29675 0.49545,0.51609 a 2.0821072,2.0821072 0 0 1 0.29934,0.70253 l 0.0232,0.10225 0.002,2.93011 0.003,2.93011 -0.10644,0.0839 c -0.48222,0.3832 -0.96187,0.64092 -1.3441,0.72317 -0.34997,0.0748 -0.67737,-0.003 -0.93928,-0.22579 a 1.2686177,1.2686177 0 0 1 -0.28192,-0.36739 l -0.03,-0.059 v -3.51329 c 0,-1.9318 -0.003,-3.51136 -0.006,-3.50943 -0.17031,0.0864 -0.23289,0.10645 -0.34417,0.10645 a 0.39126197,0.39126197 0 0 1 -0.30772,-0.13225 c -0.0948,-0.0968 -0.15128,-0.20773 -0.19966,-0.399 -0.0374,-0.14548 -0.05,-0.25805 -0.0548,-0.49126 -0.005,-0.24514 0.005,-0.34675 0.0506,-0.52544 a 2.1672623,2.1672623 0 0 1 0.3274,-0.7006 c 0.23514,-0.3432 0.59866,-0.69414 0.9867,-0.95187 0.0506,-0.0322 0.0948,-0.0645 0.0997,-0.068 0.0113,-0.009 -0.003,-0.009 -0.0197,6.4e-4 z"
     id="path6"
     inkscape:connector-curvature="0"
     style="stroke-width:0.03225573;fill:#d0d0d0"
     inkscape:label="#" />
</svg>
