<?xml version="1.0" encoding="UTF-8" standalone="no"?><svg height="48" viewBox="0 0 12.695349 12.7" width="47.982422" xmlns="http://www.w3.org/2000/svg"><sodipodi:namedview><inkscape:grid/></sodipodi:namedview><metadata><rdf:RDF><cc:Work><dc:format>image/svg+xml</dc:format><dc:type/><dc:title/></cc:Work></rdf:RDF></metadata><path d="m23.984375 6c-9.909108 0-17.9863281 8.090891-17.9863281 18s8.0772201 18 17.9863281 18 18-8.090891 18-18-8.090892-18-18-18zm0 4.052734c7.741426 0 13.960938 6.205838 13.960937 13.947266 0 7.741426-6.219511 13.953125-13.960937 13.953125-7.741428 0-13.947266-6.211699-13.947266-13.953125 0-7.741428 6.205838-13.947266 13.947266-13.947266z" fill="#d0d0d0" fill-rule="evenodd" opacity=".6" transform="scale(.26458333)"/><path d="m7.2133192 3.3001863.00697 4.3229911c-.3327203-.1429981-.7194257-.1038021-1.13132.0662756-.6894577.284413-1.0850835.908201-.8836669 1.392938.2014164.484894.924238.64734 1.6138547.362768.5439994-.225028.8778535-.81037.8778535-1.1627194v-3.4474634s1.2708526.1586227 1.2708526 1.4254942c0 .9501545-.3178672 1.2662176-1.1127226 2.0580137.7948554-.4750774 1.4313081-1.1078592 1.4313081-2.0580137 0-1.2668726-.9823123-1.8367163-1.2336458-2.0870817-.1589711-.1583591-.3557923-.6813541-.3557923-.6813541-.1437626-.1128712-.2950299-.2046059-.4836913-.1918483z" fill="#0f0" fill-rule="evenodd" stroke-width=".264583"/><rect fill="none" height="12.7" width="12.695349"/></svg>