<?xml version="1.0" encoding="UTF-8" standalone="no"?><svg height="22" viewBox="0 0 5.8208332 5.8208335" width="22" xmlns="http://www.w3.org/2000/svg"><sodipodi:namedview/><metadata><rdf:RDF><cc:Work><dc:format>image/svg+xml</dc:format><dc:type/><dc:title/><cc:license/><dc:creator><cc:Agent><dc:title>PixelPimps &amp; CodePoets</dc:title></cc:Agent></dc:creator></cc:Work><cc:License><cc:permits/><cc:permits/><cc:requires/><cc:requires/><cc:permits/></cc:License></rdf:RDF></metadata><path d="m2.9030706-.00000003c-1.2438033 0-2.25663783 1.01283443-2.25663789 2.25663813v.2109722h.0146916v3.3532231h4.51327629v-3.6106209h-.0170421c-.0250698-1.22226997-1.0261499-2.21021253-2.2542879-2.21021253zm0 .42194434c.9997141.00000004 1.8053129.79465959 1.8299927 1.78826819h-.7678513v.8157028c0 .2959563-.2382379.5341941-.5341941.5341941h-.038703c-.2959562 0-.5341942-.2382378-.5341942-.5341941v-.3864123c0-.095814-.077327-.1731421-.1731419-.1731421-.095814 0-.1731422.077327-.1731422.1731421v.2344547c0 .1682343-.1352731.3035078-.3035078.3035078-.1682345 0-.296807-.1354069-.3035078-.3035078v-.6637452h-.8340937c.0247464-.9936086.8326296-1.78826821 1.8323433-1.78826819z" fill="#d0d0d0" stroke-linecap="round" stroke-width=".300885"/></svg>