<?xml version="1.0" encoding="UTF-8" standalone="no"?><svg height="16" viewBox="0 0 4.2333333 4.2333333" width="16" xmlns="http://www.w3.org/2000/svg"><sodipodi:namedview/><metadata><rdf:RDF><cc:Work><dc:format>image/svg+xml</dc:format><dc:type/><dc:title/></cc:Work></rdf:RDF></metadata><path d="m3.8248437 3.2990533c-.06402.147901-.1398.284043-.2276.40921-.11968.170635-.217671.288746-.293189.354335-.117066.107659-.242495.162795-.376807.165931-.09642 0-.212706-.02744-.348064-.0831-.135802-.0554-.260603-.08283-.374717-.08283-.1196801 0-.248035.02744-.385326.08283-.137501.05566-.24827.08466-.33296.08754-.128799.0055-.257181-.05122-.385326-.170373-.08179-.07134-.18409305-.19363-.30664705-.366878-.13149-.185007-.239594-.399541-.324284-.644127-.0907-.264183-.136168-.520004-.136168-.767673 0-.283703.0613-.528393.184092-.733442.0965-.164703.224883-.294626.385562-.390004.16067805-.09538.33429195-.143981.52125905-.147091.102302 0 .236458.03164.403173.09384.166245.0624.27299.09405.31979.09405.03499 0 .153572-.037.354596-.110769.190103-.06841.350547-.09674.481985-.08558.356164.02874.623744.169145.801696.422092-.318536.193003-.476105.463327-.472969.810111.0029.270115.100865.494893.29345.673367.08728.08283.184745.146855.293188.192323-.02352.0682-.04834.133529-.07473.196243zm-.816852-3.21436196c0 .211715-.07735.409393-.23152.592362-.186052.217513-.411091.34320296-.655127.32336996-.0031-.0254-.0049-.05213-.0049-.08022 0-.203246.08848-.42076.245604-.598607.07845-.09005.178213-.16492.299199-.224647.120725-.05884.234917-.09137.342315-.09695.0031.02830004.0044.05661004.0044.08469004z" fill="#d0d0d0" stroke-width=".264583"/></svg>