<?xml version="1.0" encoding="UTF-8" standalone="no"?><svg height="22" viewBox="0 0 22 22" width="22" xmlns="http://www.w3.org/2000/svg"><sodipodi:namedview/><metadata><rdf:RDF><cc:Work><dc:format>image/svg+xml</dc:format><dc:type/><dc:title/></cc:Work></rdf:RDF></metadata><g transform="translate(-.552734 -4.387305)"><path d="m3.7531333 8.0473879h15.7641057c.468533 0 .845727.3771941.845727.8457268v9.5250903c0 .468532-.377194.845726-.845727.845726h-15.7641057c-.468532 0-.845726-.377194-.845726-.845726v-9.5250903c0-.4685327.377194-.8457268.845726-.8457268z" fill="#fff" opacity=".384615" stroke-linecap="square" stroke-width="1.543"/><path d="m1.2675781 2.8144531c-.70257298 0-1.26757811.5669582-1.2675781 1.2695313v13.0312496c0 .702573.56500512 1.269532 1.2675781 1.269532h6.2382813v1.515625h-1.71875c-.5818105 0-1.0488281.467017-1.0488282 1.048828 0 .58181.4670177 1.050781 1.0488282 1.050781h10.4257816c.581811 0 1.048828-.468971 1.048828-1.050781 0-.581811-.467017-1.048828-1.048828-1.048828h-1.71875v-1.515625h6.236328c.702573 0 1.269531-.566959 1.269531-1.269532v-13.0312496c0-.7025731-.566958-1.2695313-1.269531-1.2695313zm1.9335938 2.2519531h15.7636721c.468533 0 .845703.3771705.845703.8457032v9.5253906c0 .468532-.37717.845703-.845703.845703h-15.7636721c-.468532 0-.8457032-.377171-.8457031-.845703v-9.5253906c0-.4685327.3771712-.8457031.8457031-.8457032z" fill="#fff" stroke-linecap="square" stroke-width="1.491364" transform="translate(.552734 2.980078)"/></g></svg>