<?xml version="1.0" encoding="UTF-8" standalone="no"?><svg height="22" viewBox="0 0 5.8208332 5.8208335" width="22" xmlns="http://www.w3.org/2000/svg"><sodipodi:namedview/><metadata><rdf:RDF><cc:Work><dc:format>image/svg+xml</dc:format><dc:type/><dc:title/></cc:Work></rdf:RDF></metadata><path d="m3.5909709.00000015c-.294455-.00001061-.6319951.2139222-.6154749.67157288h.1640197s.087993.00036655.099908.0416728c-.064531.0527009-.2402335.0593516-.2169122.34086197l.2756813 1.8506989.8612375-2.05051454c.1761829-.45788413-.1939314-.84046248-.5219782-.85215494-.015311-.0011035-.030587-.0021371-.0464812-.00213707zm-1.4072578.008014c-.2811072.00571891-.703421.34044141-.5155671.85162066l.8676487 2.04570629.3045318-2.15149103c.0705263-.53455358-.3339884-.78145444-.6566134-.74583592zm-1.0701355.77201497c-.1435605.00083035-.29084492.05407226-.41833071.16188278-.24048065.2176898-.32825133.711269.10525048.9996124l1.72942043 1.1866057-.838264-1.921222c-.1098159-.28333269-.3388091-.42826276-.5780762-.42687888zm3.5892017.005343c-.2148996-.00003216-.4447588.11404829-.5780762.43916668l-.8147564 1.8977142 1.7288863-1.1924826c.3985304-.2826774.3342072-.7350969.1111274-.95847389-.0935186-.1051367-.2652689-.18592474-.4471811-.18592439zm-4.13361928 1.29773278c-.22858355.0176289-.42946268.1667112-.52464963.4167279-.12909456.4579371.19320099.8339898.60372106.8339898h1.96984025l-1.6241699-1.1342476c-.14069152-.0903991-.28759164-.1270475-.42474178-.1164701zm4.62781578.00374c-.1134339.000053-.2333602.0343843-.3515475.1127301l-1.6236354 1.1342476h1.9992248c.4101489 0 .6733402-.4229476.5561712-.8110164-.078473-.2439184-.3107242-.4356856-.5802131-.4359613zm-4.69246201 1.5718117v2.0782963h.42207051v-1.1502756l1.2560603 1.2266757v-2.0734879h-.4220704v1.1208909zm4.52203101.0277821c-.5818645-.0000103-1.0621689.4909431-1.0733412 1.0306001.010589.6315309.4643676 1.1037944 1.0476964 1.1037944.1383043 0 .2838414-.026501.4327557-.08388v-.406577c-.1180174.072118-.2490561.1068532-.3777262.1068532-.3530022 0-.6864241-.2611038-.6726416-.7362189.023787-.3854058.3395507-.6518053.6795869-.6518053.1245218 0 .2524134.035966.3707809.1143332v-.3958913c-.1380176-.0559478-.2749605-.0812088-.4071109-.0812084zm-2.6136314.053427v1.9970878h.9691593c.2299871 0 .5032791-.2303919.5032791-.531595 0-.3146991-.2054382-.4691434-.3355195-.5315949 0 0 .2381865-.1384797.2275977-.4370302-.0108324-.4015974-.3819714-.4968683-.5091559-.4968683zm.4113853.3365879h.3007919c.1028027.00555.2243918.081747.2243918.2227891 0 .1383467-.092127.2303958-.2110352.2468312h-.3141485zm.00535.8088793h.3654381c.08399.00528.2329403.078495.2329403.2521738 0 .1816575-.1545575.2551173-.2382829.2633934h-.3601032z" fill="#d0d0d0" stroke-width=".264583"/></svg>