<?xml version="1.0" encoding="UTF-8" standalone="no"?><svg height="22" viewBox="0 0 5.8208332 5.8208335" width="22" xmlns="http://www.w3.org/2000/svg"><sodipodi:namedview/><metadata><rdf:RDF><cc:Work><dc:format>image/svg+xml</dc:format><dc:type/><dc:title/></cc:Work></rdf:RDF></metadata><path d="m1.3907974.00000004a.15894761.15894761 0 0 0 -.1590392.15903917.15894761.15894761 0 0 0  .1590392.15850902.15894761.15894761 0 0 0  .1590392-.15850902.15894761.15894761 0 0 0 -.1590392-.15903917zm.4946118.28945128a.15894761.15894761 0 0 0 -.158509.15903917.15894761.15894761 0 0 0  .158509.15903916.15894761.15894761 0 0 0  .1590392-.15903916.15894761.15894761 0 0 0 -.1590392-.15903917zm-.5041541.24226966a.15894761.15894761 0 0 0 -.1590392.15903916.15894761.15894761 0 0 0  .1590392.15850904.15894761.15894761 0 0 0  .158509-.15850904.15894761.15894761 0 0 0 -.158509-.15903916zm.9780908.024386a.15894761.15894761 0 0 0 -.1479064.1579789.15894761.15894761 0 0 0  .1590391.15903917.15894761.15894761 0 0 0  .1590392-.15903917.15894761.15894761 0 0 0 -.1590392-.15797889.15894761.15894761 0 0 0 -.011133-.00000001zm.6138911.0885318v.46068342c-.5568738.0559306-.9807197.3583231-1.0215615.7283994h-.2507517v3.9871117h2.9061758v-3.9871117h-.2491615c-.0413263-.370096-.4661291-.6722985-1.0231518-.7278692v-.4612136zm-1.0973701.17706361a.15894761.15894761 0 0 0 -.1590392.15903916.15894761.15894761 0 0 0  .1590392.15903915.15894761.15894761 0 0 0  .1590391-.15903915.15894761.15894761 0 0 0 -.1590391-.15903916zm-.5030939.24651071a.15894761.15894761 0 0 0 -.1590392.1590391.15894761.15894761 0 0 0  .1590392.1590392.15894761.15894761 0 0 0  .1590391-.1590392.15894761.15894761 0 0 0 -.1590391-.1590391z" fill="#d0d0d0" stroke-linecap="round" stroke-linejoin="round" stroke-width=".114288"/></svg>