<?xml version="1.0" encoding="UTF-8" standalone="no"?><svg height="16" viewBox="0 0 4.2333332 4.2333332" width="16" xmlns="http://www.w3.org/2000/svg"><sodipodi:namedview/><metadata><rdf:RDF><cc:Work><dc:format>image/svg+xml</dc:format><dc:type/><dc:title/></cc:Work></rdf:RDF></metadata><path d="m3.2998913.34920521-.6739272 1.03724779c.1038726.051983.2008321.1154612.2849256.193014.062808.057922.1193755.1226372.1678734.1927437.04649.067205.085562.1383879.1167817.2124776l1.0377884-.7020413c-.1916052-.5453009-.5334242-.79636977-.9334419-.93344179zm-.5328161 1.38651129c-.3626423-.3318641-1.0059417-.4207236-1.4630139.0621752-.7593345.8022402.0332955 1.1721019-1.30406132 2.0279992 0 0 1.44575562.2820354 2.43349072-.3952192.6826584-.4680738.7822518-1.0878564.4703704-1.5387059-.038985-.0563561-.0849798-.1088402-.1367859-.1562493z" fill="#d0d0d0"/></svg>