<?xml version="1.0" encoding="UTF-8" standalone="no"?><svg height="16" viewBox="0 0 4.2333332 4.2333332" width="16" xmlns="http://www.w3.org/2000/svg"><sodipodi:namedview/><metadata><rdf:RDF><cc:Work><dc:format>image/svg+xml</dc:format><dc:type/><dc:title/></cc:Work></rdf:RDF></metadata><path d="m2.1166667-.00000716a1.3420049 1.3420049 0 0 0 -1.34208725 1.34208726 1.3420049 1.3420049 0 0 0 1.34208725 1.3420872 1.3420049 1.3420049 0 0 0 1.342087-1.3420872 1.3420049 1.3420049 0 0 0 -1.342087-1.34208726zm.8372378 2.75101026c-.5711704.2046246-1.1065496.1738214-1.674476.0006111.09828.2797364.2908519.488464.5227517.5901843.058574.023557.2352553.5864384.3144865.8915419.0810885-.3172992.2353033-.8595499.3144863-.8915419.2349739-.0949356.4245254-.3107198.5227515-.590781z" fill="#d0d0d0" stroke-linecap="round" stroke-miterlimit="26.700001" stroke-width=".529167"/></svg>