<?xml version="1.0" encoding="UTF-8" standalone="no"?><svg height="16" viewBox="0 0 4.2333332 4.2333332" width="16" xmlns="http://www.w3.org/2000/svg"><sodipodi:namedview/><metadata><rdf:RDF><cc:Work><dc:format>image/svg+xml</dc:format><dc:type/><dc:title/></cc:Work></rdf:RDF></metadata><path d="m2.1166665 0a2.1167517 2.1167517 0 0 0 -2.11666644 2.1166667 2.1167517 2.1167517 0 0 0 2.11666644 2.1166665 2.1167517 2.1167517 0 0 0 2.1166666-2.1166665 2.1167517 2.1167517 0 0 0 -2.1166666-2.1166667zm0 1.5184864a.59815462.59815462 0 0 1  .5981804.5981803.59815462.59815462 0 0 1 -.5981804.5981802.59815462.59815462 0 0 1 -.5981802-.5981802.59815462.59815462 0 0 1  .5981802-.5981803z" fill="#d0d0d0" stroke-width=".317111"/></svg>