<?xml version="1.0" encoding="UTF-8" standalone="no"?><svg height="16" viewBox="0 0 4.2333332 4.2333332" width="16" xmlns="http://www.w3.org/2000/svg"><sodipodi:namedview/><metadata><rdf:RDF><cc:Work><dc:format>image/svg+xml</dc:format><dc:type/><dc:title/></cc:Work></rdf:RDF></metadata><path d="m2.1166666 0c-1.17263324 0-2.1166666.9440333-2.1166666 2.1166666s.94403336 2.1166666 2.1166666 2.1166666c1.1726332 0 2.1166666-.9440333 2.1166666-2.1166666 0-.5993255-.2476555-1.1377986-.6453354-1.5221809l-.055811.4733561h.021497l.046095-.036794h.012402v.010956c-.0635959.0464796-.1250978.1736605-.1845867.3815785-.0225703.1785705-.060558.3438156-.1138948.4954737-.0471859.1565529-.0706965.3007511-.0706933.4328418l-.089297.2606559c-.0000021.022016.033791.043926.1014925.065939-.012312.051369-.030781.077101-.055397.077101v.014676h.021498v.010956c-.0000021.026908-.034847.040516-.1045932.040514l.012402.014676v.051263h-.021497c.014357.051371.045005.077103.092191.077101v.025632h-.092191v.014676c.030769 0 .046093.022116.046095.066146l-.1291911.051263.012196.014676v.010956c-.0000032.017124-.015325.025838-.046095.025838v.014676c.038974 0 .058494.00852.058498.025632-.055392.022017-.1282243.1309061-.2184884.326595-.092316.1736758-.172288.2604493-.2399854.2604493h-.0248051c-.0512892-.03914-.0932697-.1688706-.1260907-.3890209-.1312969-.3351181-.1969916-.5318503-.1969906-.5905582-.000001-.1516581-.0419825-.3132884-.1260904-.4845182-.0225668-.0758264-.0378912-.1711098-.0460954-.2860807l-.0553972-.0146761c-.139501.2519531-.2123369.4488911-.2184879.5907649-.038981.08317-.069832.1833432-.092398.3007568.084109.026909.1262962.052641.1262972.077101v.014676c-.0656468-.00979-.1118265-.028075-.1384923-.054984-.0287211.066046-.0667133.2493771-.1138949.5502506-.0369274.1394302-.083105.2091862-.1384929.2091862-.1559115-.061154-.2862568-.1613278-.3908804-.3007568-.016412 0-.04307-.069757-.0799951-.2091862-.0225668 0-.03789-.069757-.0460954-.2091862-.07795459-.1981353-.13127017-.424422-.15999017-.678821v-.3815788h-.0124024l-.0553971.014676v-.014676c0-.017124.0184696-.02563.0553971-.025632l-.01219559-.220141v-.1723926l-.08929684-.5504573v-.2348177c.0389784-.1467634.10677227-.2201385.20319171-.2201417 0 0 .008438-.0006311.0367936.036587l-.0367936-.010955c.14975519.1956933.23791329.3607316.26458329.4952669h.1045931v.025838h-.079995v.029352c.030772.1125238.053233.1686736.067593.1686715h.0248046l.05519-.014676.012402.014676.012402-.014676.012196.014676v.010955c-.041029.029355-.068735.069761-.083096.1211298h-.0091v.025632h.021497c.02872.408505.082034.7179494.1599902.9283154l.046095.036794h.024598c.030772.0000009.095419-.1431282.1938895-.429328.0636018-.1296428.1097773-.2434262.1384994-.3412712l-.0124024-.0403077c.0635943-.0953961.1292922-.1430371.1969906-.1430403h.021498c.04308.0000032.073933.026804.092397.080615.05744.080725.1036175.2019461.1384927.3633885l.1723925.3815791c.022565.02691.033691.057326.033693.091571.063594.1443239.1211046.2398107.1723925.2862874h.037c.043079 0 .1003822-.1786435.1721859-.5357812.012306.0000021.046307-.095282.1016991-.2860807v-.0146763l-.1938894-.0256316-.0463021.014676h-.0582909v-.0293525l.1167886-.0111618h.2277898c.08821-.3155495.1692302-.5601265.2430859-.7338053.0246147-.3571304.0584079-.5355703.1014925-.5355746l.0777218-.0372071c-.3578868-.2772374-.8064824-.4435904-1.2962516-.4435904zm.1845881.7302913h.0339v.010956c-.0000021.017126-.011334.025634-.0339.025632l-.012196.014676v.014676l-.0339-.014676v-.0256324zm-.1721858.1430404v.014676c-.0000011.019573-.049324.040413-.1477946.062425v-.0258383l.0678-.036587.012196.010956h.0093zm-.3323828.1320849v.010956c-.043083.039141-.1129746.074656-.2093929.1064533v-.025632c.016412.0000021.024804-.013605.024805-.040514zm.5845638.1283643.012402.014676v.010955l-.021497.029352h-.012403l-.024598-.029352v-.010955zm.4247802.014676h.012196v.010955l-.021498.029352h-.012402v-.014675zm-.1938899.1835547.046095.036587c-.0082.026909-.030668.04031-.067593.040308l-.024598-.040307c-.0000021-.012228.015322-.024355.046096-.036588zm.2769856.1686719.0091.014676v.010955l-.0091.014676h-.024598v-.014676zm-.436976.132085v.010955l-.058498.055191h-.0339v-.014676c-.0000021-.022013.030851-.039236.092397-.05147zm-.403076 1.1228255h.012196v.025632l-.092398.054984-.012196-.014676v-.025632zm-.0339.3412712h.00909l.037.040307-.012196.010956h-.012396l-.0214978-.036587z" fill="#d0d0d0" opacity=".9" stroke-opacity=".550265" stroke-width=".740833"/></svg>