<?xml version="1.0" encoding="UTF-8" standalone="no"?><svg height="16" viewBox="0 0 4.2333332 4.2333332" width="16" xmlns="http://www.w3.org/2000/svg"><sodipodi:namedview/><metadata><rdf:RDF><cc:Work><dc:format>image/svg+xml</dc:format><dc:type/><dc:title/></cc:Work></rdf:RDF></metadata><g fill="#d0d0d0"><path d="m3.0748625 2.9379772c-.1991319.325024-.5532723.5421632-.9581959.5424877v-.5195202l-1.28295349.7634329a1.8814697 1.8814697 0 0 0 1.28295349.5089556 1.8814697 1.8814697 0 0 0 1.3729854-.598528 1.8814698 1.8814698 0 0 0 0-.0004593zm.4313259.6775356a1.8814698 1.8814698 0 0 1 -.012861.015158 1.8814697 1.8814697 0 0 0  .013321-.01424c-.0001737-.0002319-.0003128-.0006873-.0004593-.0009156z" stroke-linejoin="bevel" stroke-width="1.640417"/><path d="m3.6132161.7248481a1.8814697 1.8814697 0 0 1  .012403.010106 1.8814697 1.8814697 0 0 0 -.011024-.010106c-.0004576-.0000254-.0009244.0000258-.00138 0zm .021589.0188328-.6963686.4143302c.3250791.1991198.542163.5536906.5424876.9586552h-.5199795l.7638925 1.2829538a1.8814697 1.8814697 0 0 0  .5084961-1.2829535 1.8814697 1.8814697 0 0 0 -.5985278-1.3729857z" stroke-linejoin="bevel" stroke-width="1.640417"/><path d="m2.1166666 0a1.8814697 1.8814697 0 0 0 -1.37298531.5985279l.29811551.5002279.1166739.1956813c.1991917-.3248843.5534555-.5420283.9581959-.5420283l.0004593-.0009156v.0009156.5195204l1.2829535-.7638925a1.8814697 1.8814697 0 0 0 -1.0817599-.4947156l-.0004593-.00229a1.8814697 1.8814697 0 0 0 -.046853-.00276 1.8814697 1.8814697 0 0 0 -.1318324-.0078 1.8814697 1.8814697 0 0 0 -.019752-.0004593 1.8814697 1.8814697 0 0 0 -.00276 0zm-1.37803811.6035807a1.8814697 1.8814697 0 0 0 -.008267.00919v.0009156a1.8814698 1.8814698 0 0 1  .008267-.0101056z" stroke-width=".264583"/><path d="m .50849605.8332537a1.8814697 1.8814697 0 0 0 -.50849607 1.2834129 1.8814697 1.8814697 0 0 0  .59852798 1.3725258l.69636854-.4143299c-.32513159-.1990426-.54248766-.5530125-.54248766-.9581959h.51997976l-.46577692-.7827257zm.0900319 2.6559387a1.8814697 1.8814697 0 0 0  .007804.00735h.00045938a1.8814698 1.8814698 0 0 1 -.008267-.00735z" stroke-linejoin="bevel" stroke-width="1.640417"/></g></svg>