<?xml version="1.0" encoding="UTF-8" standalone="no"?><svg height="16" viewBox="0 0 4.2333333 4.2333333" width="16" xmlns="http://www.w3.org/2000/svg"><sodipodi:namedview/><metadata><rdf:RDF><cc:Work><dc:format>image/svg+xml</dc:format><dc:type/><dc:title/></cc:Work></rdf:RDF></metadata><path d="m2.1162577-.00000215c-1.0929489-.0000001-1.97802394.88938062-1.97802414 1.98232975v1.4157038a.79385343.79385343 0 0 0 -.00172.025834.44090044.44090044 0 0 0 0 .00431.79385343.79385343 0 0 0  .1067807.4073162.79385343.79385343 0 0 0  .6871846.3969828v.0008611h.14036484c.067292 0 .1214199-.054128.1214199-.12142v-1.3450951c0-.067292-.054128-.1214198-.1214199-.1214198h-.14036714a.79385343.79385343 0 0 0 -.3530648.08353v-.746603c0-.8563166.68252934-1.53970707 1.53884594-1.53970707s1.539707.68339047 1.539707 1.53970707v.746603a.79385343.79385343 0 0 0 -.3530647-.08353h-.1403646c-.067292 0-.12142.054127-.12142.1214198v1.3450908c0 .067292.054128.12142.12142.12142h.1403646v-.0008611a.79385343.79385343 0 0 0  .6871848-.3969828.79385343.79385343 0 0 0  .1059193-.380621.44090044.44090044 0 0 0  .0008611-.031001.79385343.79385343 0 0 0 -.00172-.025834v-1.4157037c-.0000022-1.09294913-.8859383-1.98232985-1.9788875-1.98232975z" fill="#d0d0d0"/></svg>