<?xml version="1.0" encoding="UTF-8" standalone="no"?>
<!-- Created with Inkscape (http://www.inkscape.org/) -->

<svg
   xmlns:dc="http://purl.org/dc/elements/1.1/"
   xmlns:cc="http://creativecommons.org/ns#"
   xmlns:rdf="http://www.w3.org/1999/02/22-rdf-syntax-ns#"
   xmlns:svg="http://www.w3.org/2000/svg"
   xmlns="http://www.w3.org/2000/svg"
   xmlns:sodipodi="http://sodipodi.sourceforge.net/DTD/sodipodi-0.dtd"
   xmlns:inkscape="http://www.inkscape.org/namespaces/inkscape"
   width="16"
   height="16"
   viewBox="0 0 4.2333332 4.2333332"
   version="1.1"
   id="svg8"
   inkscape:version="0.92+devel (f96dc7e339, 2017-07-28, custom)"
   sodipodi:docname="glyph-kshisen.svg">
  <defs
     id="defs2" />
  <sodipodi:namedview
     id="base"
     pagecolor="#002466"
     bordercolor="#ffffff"
     borderopacity="0.38039216"
     inkscape:pageopacity="1"
     inkscape:pageshadow="2"
     inkscape:zoom="36.415999"
     inkscape:cx="10.094581"
     inkscape:cy="7.9162778"
     inkscape:document-units="px"
     inkscape:current-layer="svg8"
     inkscape:document-rotation="0"
     showgrid="false"
     inkscape:showpageshadow="false"
     borderlayer="true"
     inkscape:window-width="1920"
     inkscape:window-height="1051"
     inkscape:window-x="0"
     inkscape:window-y="0"
     inkscape:window-maximized="1"
     units="px" />
  <metadata
     id="metadata5">
    <rdf:RDF>
      <cc:Work
         rdf:about="">
        <dc:format>image/svg+xml</dc:format>
        <dc:type
           rdf:resource="http://purl.org/dc/dcmitype/StillImage" />
        <dc:title></dc:title>
      </cc:Work>
    </rdf:RDF>
  </metadata>
  <path
     inkscape:connector-curvature="0"
     id="rect17"
     d="M 0.22860537,0 C 0.16528277,0 0.11441438,0.0520925 0.11441438,0.11687252 V 3.3155599 c 0,0.06478 0.0508692,0.1168724 0.11419099,0.1168724 H 2.517117 c 0.063323,0 0.1144144,-0.052092 0.1144144,-0.1168724 V 0.11687252 C 2.6315314,0.05209242 2.5804394,0 2.517117,0 Z M 0.50659665,0.34324323 H 1.0952051 L 1.1441436,0.42994768 0.88447661,0.86213032 1.1439202,1.2858212 1.0952049,1.3729731 H 0.50659646 L 0.45788119,1.2858212 0.71732475,0.86213033 0.45765767,0.42994768 Z m 1.14414405,0 h 0.5886085 l 0.048939,0.0867044 -0.259667,0.43218264 0.2594435,0.42369093 -0.048715,0.087152 H 1.6507407 L 1.6020252,1.2858214 1.8614687,0.86213052 1.6018016,0.42994786 Z M 2.7459459,0.80090086 V 3.3155599 c 0,0.1249394 -0.1027575,0.2312869 -0.2288289,0.2312869 H 1.6018016 v 0.5696139 c 0,0.06478 0.050869,0.1168725 0.114191,0.1168725 h 2.2885117 c 0.063323,0 0.1144145,-0.052092 0.1144145,-0.1168725 V 0.9177734 c 0,-0.0647802 -0.051093,-0.11687254 -0.1144145,-0.11687254 z M 3.1381281,1.1441441 h 0.5886085 l 0.048939,0.086704 -0.2596671,0.4321827 0.2594436,0.4236909 -0.048715,0.087152 H 3.1381281 L 3.0894125,2.0867224 3.3488561,1.6630315 3.0891891,1.2308488 Z M 0.50659665,2.0594594 H 1.0952051 l 0.048939,0.086704 -0.25966699,0.4321827 0.25944359,0.4236908 -0.048715,0.087152 H 0.50659646 L 0.45788119,3.0020374 0.71732475,2.5783466 0.45765767,2.1461639 Z m 1.14414405,0 h 0.5886085 l 0.048939,0.086705 -0.259667,0.4321827 0.2594435,0.4236908 -0.048715,0.087152 H 1.6507407 L 1.6020252,3.0020376 1.8614687,2.5783467 1.6018016,2.1461641 Z m 1.4873874,0.8009009 h 0.5886085 l 0.048939,0.086704 -0.2596671,0.4321826 0.2594436,0.4236909 -0.048715,0.087152 H 3.1381281 L 3.0894125,3.8029385 3.3488561,3.3792476 3.0891891,2.947065 Z"
     style="fill:#d0d0d0;fill-opacity:1;stroke:none;stroke-width:0.26458332" />
</svg>
