<?xml version="1.0" encoding="UTF-8" standalone="no"?>
<!-- Created with Inkscape (http://www.inkscape.org/) -->

<svg
   xmlns:dc="http://purl.org/dc/elements/1.1/"
   xmlns:cc="http://creativecommons.org/ns#"
   xmlns:rdf="http://www.w3.org/1999/02/22-rdf-syntax-ns#"
   xmlns:svg="http://www.w3.org/2000/svg"
   xmlns="http://www.w3.org/2000/svg"
   xmlns:sodipodi="http://sodipodi.sourceforge.net/DTD/sodipodi-0.dtd"
   xmlns:inkscape="http://www.inkscape.org/namespaces/inkscape"
   width="12"
   height="12"
   viewBox="0 0 12 12"
   version="1.1"
   id="default16"
   inkscape:version="0.92+devel (42c84a5464, 2017-09-20, custom)"
   sodipodi:docname="glyph-spinner.svg">
  <defs
     id="defs5" />
  <sodipodi:namedview
     id="base"
     pagecolor="#002466"
     bordercolor="#ffffff"
     borderopacity="0.38039216"
     inkscape:pageopacity="1"
     inkscape:pageshadow="2"
     inkscape:zoom="26.28125"
     inkscape:cx="7.9429251"
     inkscape:cy="8"
     inkscape:document-units="px"
     inkscape:current-layer="default16"
     inkscape:document-rotation="0"
     showgrid="false"
     inkscape:showpageshadow="false"
     borderlayer="true"
     inkscape:window-width="1920"
     inkscape:window-height="1017"
     inkscape:window-x="0"
     inkscape:window-y="34"
     inkscape:window-maximized="1"
     units="px" />
  <metadata
     id="metadata5">
    <rdf:RDF>
      <cc:Work
         rdf:about="">
        <dc:format>image/svg+xml</dc:format>
        <dc:type
           rdf:resource="http://purl.org/dc/dcmitype/StillImage" />
        <dc:title></dc:title>
      </cc:Work>
    </rdf:RDF>
  </metadata>
  <path
     style="fill:#d0d0d0;stroke-width:0.99999994;stroke-dashoffset:7.37999964;stroke:none"
     d="M 11.22458,3.0514199 10.481566,3.7944345 A 5,5 0 0 1 9.5355341,9.5355337 5,5 0 0 1 3.7944342,10.481566 L 3.0555629,11.220438 A 6,6 0 0 0 10.242641,10.242641 6,6 0 0 0 11.22458,3.0514199 Z M 8.9444371,0.77956317 A 6,6 0 0 0 1.7573596,1.7573593 6,6 0 0 0 0.77542043,8.9485796 L 1.5184344,8.2055658 A 5,5 0 0 1 2.4644663,2.4644661 5,5 0 0 1 8.2055656,1.5184346 Z"
     id="circle813"
     inkscape:connector-curvature="0"
     inkscape:label="#" />
</svg>
