<?xml version="1.0" encoding="UTF-8" standalone="no"?>
<!-- Created with Inkscape (http://www.inkscape.org/) -->

<svg
   xmlns:dc="http://purl.org/dc/elements/1.1/"
   xmlns:cc="http://creativecommons.org/ns#"
   xmlns:rdf="http://www.w3.org/1999/02/22-rdf-syntax-ns#"
   xmlns:svg="http://www.w3.org/2000/svg"
   xmlns="http://www.w3.org/2000/svg"
   xmlns:sodipodi="http://sodipodi.sourceforge.net/DTD/sodipodi-0.dtd"
   xmlns:inkscape="http://www.inkscape.org/namespaces/inkscape"
   width="12"
   height="12"
   viewBox="0 0 12 12"
   version="1.1"
   id="default16"
   inkscape:version="0.92+devel (327bdefa15, 2017-09-17, custom)"
   sodipodi:docname="glyph-axis-3d.svg">
  <defs
     id="defs5" />
  <sodipodi:namedview
     id="base"
     pagecolor="#002466"
     bordercolor="#ffffff"
     borderopacity="0.38039216"
     inkscape:pageopacity="1"
     inkscape:pageshadow="2"
     inkscape:zoom="26.28125"
     inkscape:cx="7.9429251"
     inkscape:cy="8"
     inkscape:document-units="px"
     inkscape:current-layer="default16"
     inkscape:document-rotation="0"
     showgrid="false"
     inkscape:showpageshadow="false"
     borderlayer="true"
     inkscape:window-width="1920"
     inkscape:window-height="1017"
     inkscape:window-x="0"
     inkscape:window-y="34"
     inkscape:window-maximized="1"
     units="px">
    <inkscape:grid
       type="xygrid"
       id="grid833" />
  </sodipodi:namedview>
  <metadata
     id="metadata5">
    <rdf:RDF>
      <cc:Work
         rdf:about="">
        <dc:format>image/svg+xml</dc:format>
        <dc:type
           rdf:resource="http://purl.org/dc/dcmitype/StillImage" />
        <dc:title></dc:title>
      </cc:Work>
    </rdf:RDF>
  </metadata>
  <path
     style="opacity:0.4;fill:#d0d0d0;stroke-width:1.79999995;stroke-dasharray:3.59999984, 1.79999992;stroke-dashoffset:7.37999964"
     d="M 4.3061177,0.36059834 V 6.3004709 A 0.95995013,0.96899406 0 0 1 4.8792484,6.1039472 0.95995013,0.96899406 0 0 1 5.4261289,6.2783895 V 0.36059834 Z M 5.7061317,6.5831116 A 0.95995013,0.96899406 0 0 1 5.8395705,7.0733167 0.95995013,0.96899406 0 0 1 5.5989431,7.7158828 H 11.586191 V 6.5831116 Z M 3.942989,7.2742566 0.3313905,10.922089 1.1232733,11.72364 4.7720598,8.0360619 A 0.95995013,0.96899406 0 0 1 3.942989,7.2742566 Z"
     id="path814"
     inkscape:connector-curvature="0"
     inkscape:label="#" />
  <path
     id="path825"
     d="M 5.8399388,7.0740348 A 0.95995013,0.96899406 0 0 1 4.8799886,8.0430289 0.95995013,0.96899406 0 0 1 3.9200385,7.0740348 0.95995013,0.96899406 0 0 1 4.8799886,6.1050407 0.95995013,0.96899406 0 0 1 5.8399388,7.0740348 Z"
     style="fill:#d0d0d0;stroke-width:1.80000007;stroke-dasharray:3.5999999, 1.79999995;stroke-dashoffset:7.37999964"
     inkscape:connector-curvature="0"
     inkscape:label="#" />
  <path
     inkscape:connector-curvature="0"
     style="fill:#00ff00;stroke-width:1.80000007;stroke-dasharray:3.5999999, 1.79999995;stroke-dashoffset:7.37999964"
     d="M 5.8399388,0.96899408 A 0.95995013,0.96899406 0 0 1 4.8799886,1.9379882 0.95995013,0.96899406 0 0 1 3.9200385,0.96899408 0.95995013,0.96899406 0 0 1 4.8799886,-1.5000017e-8 0.95995013,0.96899406 0 0 1 5.8399388,0.96899408 Z"
     id="path827"
     inkscape:label="#" />
  <path
     inkscape:connector-curvature="0"
     style="fill:#ff0000;stroke-width:1.80000007;stroke-dasharray:3.5999999, 1.79999995;stroke-dashoffset:7.37999964"
     d="M 12.000001,7.0740348 A 0.95995013,0.96899406 0 0 1 11.04005,8.0430289 0.95995013,0.96899406 0 0 1 10.080101,7.0740348 0.95995013,0.96899406 0 0 1 11.04005,6.1050407 0.95995013,0.96899406 0 0 1 12.000001,7.0740348 Z"
     id="path829"
     inkscape:label="#" />
  <path
     id="path831"
     d="M 1.9198992,11.031005 A 0.95995013,0.96899406 0 0 1 0.9599488,12 0.95995013,0.96899406 0 0 1 -4.9999977e-7,11.031005 0.95995013,0.96899406 0 0 1 0.9599488,10.062012 0.95995013,0.96899406 0 0 1 1.9198992,11.031005 Z"
     style="fill:#005cc7;stroke-width:1.80000007;stroke-dasharray:3.5999999, 1.79999995;stroke-dashoffset:7.37999964"
     inkscape:connector-curvature="0"
     inkscape:label="#" />
</svg>
