<?xml version="1.0" encoding="UTF-8" standalone="no"?><svg height="22" viewBox="0 0 5.8208332 5.8208335" width="22" xmlns="http://www.w3.org/2000/svg"><sodipodi:namedview/><metadata><rdf:RDF><cc:Work><dc:format>image/svg+xml</dc:format><dc:type/><dc:title/></cc:Work></rdf:RDF></metadata><path d="m2.9104167.00000002c-1.6073787 0-2.91041666 1.30303788-2.91041666 2.91041658s1.30303796 2.9104167 2.91041666 2.9104167c1.6073786 0 2.9104166-1.303038 2.9104166-2.9104167s-1.303038-2.91041658-2.9104166-2.91041658zm-.8676473 1.34565428c.2222636 0 .4344063.045523.6278686.1260905l.058911.024288-.2092895.5084961-.060461-.024805c-.1285301-.0529688-.2686347-.0826821-.4170291-.0826821-.6057307 0-1.09037271.4846418-1.09037271 1.0903728-.00000011.6057308.48474271 1.0914063 1.09037271 1.0914063.5044327 0 .8993859-.3515926 1.0257771-.8139039h-1.0903727v-.5513876h1.1994101.4242634.058394l.00723.055294c.00944.070452.016021.1434523.016021.2185913 0 .90351-.7371609 1.6417602-1.6407267 1.6417602s-1.64176021-.7382502-1.64176021-1.6417602c0-.9035103.73825021-1.6417603 1.64176021-1.6417603zm2.4517365.9177734h.5513877v.4501016h.4495848v.5513877h-.4495848v.4495848h-.5513877v-.4495848h-.4501015v-.5513877h.4501015z" fill="#d0d0d0"/></svg>