<?xml version="1.0" encoding="UTF-8" standalone="no"?><svg height="16" viewBox="0 0 4.2333333 4.2333333" width="16" xmlns="http://www.w3.org/2000/svg"><sodipodi:namedview/><metadata><rdf:RDF><cc:Work><dc:format>image/svg+xml</dc:format><dc:type/><dc:title/></cc:Work></rdf:RDF></metadata><path d="m1.8144531 0c-.7130368 0-1.28906247.57602627-1.28906248 1.2890625v9.5644535c0 .713036.57602568 1.287109 1.28906248 1.287109h2.7070313c1.893538 2.820721 5.8730466 3.859375 5.8730466 3.859375-1.9853531-1.792803-2.337473-2.635873-2.613281-3.859375h6.404297c.713037 0 1.289062-.574073 1.289062-1.287109v-9.5644535c0-.71303623-.576025-1.2890625-1.289062-1.2890625zm6.8242188 2.1679688c.2243989 0 .4124409.07679.5644531.2324218.1556315.1556315.2324219.3456267.2324219.5664063s-.07679.4088216-.2324219.5644531c-.1556315.1556315-.3436735.2324219-.5644531.2324219-.2171603 0-.4029623-.07679-.5585938-.2324219-.1556315-.1556315-.234375-.3436735-.234375-.5644531s.076504-.4107748.2285157-.5664063c.1556315-.1556315.3436735-.2324219.5644531-.2324218zm.00977 2.4980468h.3261719l-1.1132813 3.859375c-.061529.2207796-.091797.3648264-.091797.4335938.0000001.039813.016254.079041.048828.1152344.032574.032574.067322.048828.1035156.048828.061529 0 .122065-.027741.1835938-.082031.162866-.1339157.3598682-.3774401.5878865-.7285158l.1835937.109375c-.5465199.9518858-1.1269001 1.4277344-1.7421875 1.4277344-.2352569 0-.4232989-.0650164-.5644531-.1953125-.1375348-.1339155-.2070312-.3012234-.2070313-.5039063 0-.1339155.030268-.3054165.091797-.5117187l.7558594-2.59375c.072387-.2497343.1074219-.4377763.1074219-.5644531 0-.079625-.032795-.1513619-.1015625-.2128907-.068767-.061529-.163765-.091797-.2832031-.091797-.05429 0-.1193065.00224-.1953126.00586l.070313-.21875z" fill="#d0d0d0" opacity=".99" stroke-linecap="square" stroke-width="3.921893" transform="scale(.26458333)"/></svg>