<?xml version="1.0" encoding="UTF-8" standalone="no"?><svg height="22" viewBox="0 0 5.8208332 5.8208335" width="22" xmlns="http://www.w3.org/2000/svg"><sodipodi:namedview/><metadata><rdf:RDF><cc:Work><dc:format>image/svg+xml</dc:format><dc:type/><dc:title/></cc:Work></rdf:RDF></metadata><path d="m2.9104166 5.8208333a2.9104166 2.9104166 0 0 1 -1.94510086-.7498251h1.92598056c.4030927 0 .7276041-.3245114.7276041-.7276041s-.3245114-.7276042-.7276041-.7276042h-2.80086254a2.9104166 2.9104166 0 0 1 -.09043376-.7053833 2.9104166 2.9104166 0 0 1 2.9104166-2.9104166 2.9104166 2.9104166 0 0 1 1.9451008.74982492h-1.8500161c-.4030927 0-.7276042.32451148-.7276042.72760418s.3245115.7276041.7276042.7276041h2.7248982a2.9104166 2.9104166 0 0 1  .090434.7053834 2.9104166 2.9104166 0 0 1 -2.9104169 2.9104167z" fill="#fff" stroke-linejoin="round" stroke-width=".529167"/></svg>