<?xml version="1.0" encoding="UTF-8" standalone="no"?><svg height="22" viewBox="0 0 22 22" width="22" xmlns="http://www.w3.org/2000/svg"><sodipodi:namedview/><metadata><rdf:RDF><cc:Work><dc:format>image/svg+xml</dc:format><dc:type/><dc:title/></cc:Work></rdf:RDF></metadata><path d="m7.0058594 0v .90429688 3.12500002h-4.3554688v2.625h1.3476563v15.3457031h14.0039061v-15.3457031h1.347656v-2.625h-4.355468v-4.0292969zm1.8085937 1.8085938h4.3710939v2.2207031h-4.3710939zm-.6730469 6.9726562c.5565041 0 1.0039063.4751405 1.0039063 1.0664062v8.2421878c0 .591266-.4474021 1.066406-1.0039063 1.066406-.556504 0-1.0058593-.47514-1.0058593-1.066406v-8.2421878c0-.5912657.4493553-1.0664062 1.0058593-1.0664062zm5.7191408 0c .556505 0 1.003906.4751404 1.003906 1.0664062v8.2421878c0 .591266-.447401 1.066406-1.003906 1.066406-.556504 0-1.003906-.47514-1.003906-1.066406v-8.2421878c0-.5912657.447402-1.0664062 1.003906-1.0664062z" fill="#fff"/></svg>