<?xml version="1.0" encoding="UTF-8" standalone="no"?><svg height="22" viewBox="0 0 5.8208332 5.8208335" width="22" xmlns="http://www.w3.org/2000/svg"><sodipodi:namedview/><metadata><rdf:RDF><cc:Work><dc:format>image/svg+xml</dc:format><dc:type/><dc:title/></cc:Work></rdf:RDF></metadata><path d="m2.9104166 0a .6149687.6149687 0 0 0 -.6149562.61495616.6149687.6149687 0 0 0  .6149562.61495624.6149687.6149687 0 0 0  .6149562-.61495624.6149687.6149687 0 0 0 -.6149562-.61495616zm-1.8938203 1.4177646c-.19047175-.0002705-.34504225.154026-.34510975.344498.0000675.1904721.154638.3447684.34510975.3444979h1.1717822c.096733 0 .1743905.077657.1743905.1743905v.2208947l-.7287689 2.8887643c-.046625.1845144.065144.3718929.2496538.4185376.1845144.046625.3718925-.065144.4185373-.2496539l.4693249-1.8589424c.044978-.15933.1979949-.1654013.2551609 0l .4919649 1.8638375c.048798.1837374.2371676.2932544.4209851.2447588.1839849-.048527.2938261-.2369813.2453705-.420985l-.7697662-2.9114046v-.195807c0-.096733.077658-.1743905.1743907-.1743905h1.2146149c.1904719.0002705.3450425-.1540258.3451099-.3444979-.0000674-.190472-.154638-.3447684-.3451099-.344498z" fill="#d0d0d0" stroke-linecap="round" stroke-width=".485405"/></svg>