<?xml version="1.0" encoding="UTF-8" standalone="no"?>
<!-- Created with Inkscape (http://www.inkscape.org/) -->

<svg
   xmlns:dc="http://purl.org/dc/elements/1.1/"
   xmlns:cc="http://creativecommons.org/ns#"
   xmlns:rdf="http://www.w3.org/1999/02/22-rdf-syntax-ns#"
   xmlns:svg="http://www.w3.org/2000/svg"
   xmlns="http://www.w3.org/2000/svg"
   xmlns:sodipodi="http://sodipodi.sourceforge.net/DTD/sodipodi-0.dtd"
   xmlns:inkscape="http://www.inkscape.org/namespaces/inkscape"
   width="12"
   height="12"
   viewBox="0 0 12 12"
   version="1.1"
   id="default16"
   inkscape:version="0.92+devel (342812bdbc, 2017-09-26, custom)"
   sodipodi:docname="glyph-soft-body-object.svg">
  <defs
     id="defs5" />
  <sodipodi:namedview
     id="base"
     pagecolor="#002466"
     bordercolor="#ffffff"
     borderopacity="0.38039216"
     inkscape:pageopacity="1"
     inkscape:pageshadow="2"
     inkscape:zoom="26.28125"
     inkscape:cx="7.9429251"
     inkscape:cy="8"
     inkscape:document-units="px"
     inkscape:current-layer="default16"
     inkscape:document-rotation="0"
     showgrid="false"
     inkscape:showpageshadow="false"
     borderlayer="true"
     inkscape:window-width="1920"
     inkscape:window-height="1017"
     inkscape:window-x="0"
     inkscape:window-y="34"
     inkscape:window-maximized="1"
     units="px" />
  <metadata
     id="metadata5">
    <rdf:RDF>
      <cc:Work
         rdf:about="">
        <dc:format>image/svg+xml</dc:format>
        <dc:type
           rdf:resource="http://purl.org/dc/dcmitype/StillImage" />
        <dc:title></dc:title>
      </cc:Work>
    </rdf:RDF>
  </metadata>
  <path
     style="fill:#d0d0d0;fill-opacity:1;stroke:none;stroke-width:0.74878818"
     d="M 5.9678252,-0.05310663 C 3.9715035,-0.03416229 1.9857316,0.48909447 0.00969455,1.460557 c 2.32612545,3.746045 1.53384005,6.1612238 0,8.985458 4.20108345,2.231052 8.21215455,1.755804 11.98061045,0 -1.877631,-2.9051407 -2.0380439,-5.393334 0,-8.985458 C 9.971007,0.41330962 7.9641475,-0.07205247 5.9678252,-0.05310663 Z M 5.7864784,0.70591889 C 6.4444505,0.68715426 7.1138492,0.74269862 7.7944588,0.86386639 7.577606,1.73612 7.4086665,2.6059033 7.2972169,3.4729251 6.9696341,3.4432207 6.6398752,3.4195216 6.3027326,3.4115021 5.7725599,3.398885 5.2256024,3.4272566 4.6691457,3.4758529 4.5590641,2.6185474 4.3922356,1.7584616 4.1792158,0.89604092 4.7106645,0.79703308 5.2448178,0.72137148 5.7864784,0.70591889 Z M 8.5256976,1.0262013 c 0.8013965,0.1970579 1.6172694,0.4750456 2.4525744,0.8496995 -0.36715,0.7068171 -0.642071,1.4159 -0.827763,2.1220536 C 9.4645252,3.8171693 8.7641904,3.664573 8.0401549,3.5635989 8.1489366,2.7226184 8.3133958,1.8764174 8.5256976,1.0262013 Z M 3.445053,1.0452133 C 3.653801,1.8840953 3.8167971,2.7190899 3.9247454,3.5489734 3.2592929,3.6411034 2.5676605,3.7938838 1.8597278,3.9891797 1.6642311,3.3191176 1.3823364,2.6175031 1.0041788,1.883213 1.8134301,1.537478 2.6251937,1.2511448 3.445053,1.0452133 Z M 6.0073125,4.1588271 C 6.4193893,4.1584632 6.8229989,4.176783 7.2197053,4.2129345 7.10914,5.4041165 7.1018027,6.5898488 7.2036214,7.7682161 6.4205275,7.8386921 5.6082826,7.8398971 4.7642096,7.7667161 4.8657288,6.5898254 4.8569216,5.4055031 4.7466602,4.2158224 5.1746945,4.1782034 5.5952386,4.1591464 6.0073155,4.1587874 Z M 4.0022562,4.2919122 c 0.105973,1.1414071 0.1141385,2.2746822 0.01755,3.4002592 C 3.3819818,7.6024204 2.7179595,7.4536854 2.035225,7.2636653 2.076947,7.057351 2.122329,6.8535623 2.1463732,6.6362624 2.2126182,6.0375838 2.1728282,5.3953385 2.03815,4.7174927 2.7135876,4.5297371 3.370732,4.3815579 4.0022562,4.2919122 Z M 7.962644,4.3050762 C 8.6586831,4.4045839 9.3350155,4.5539993 10.001337,4.7321195 9.8544663,5.5827138 9.841015,6.426625 9.9691612,7.2578173 9.3075536,7.4331393 8.636054,7.5795859 7.9450931,7.6775476 7.8500802,6.5608879 7.8582735,5.4373148 7.962644,4.3050762 Z M 1.8538778,7.987593 C 2.5692926,8.1857643 3.2673349,8.3424834 3.93937,8.4351108 3.8371791,9.2350704 3.6731354,10.030853 3.4596776,10.823336 2.6251291,10.634916 1.8176479,10.368287 1.026116,10.033597 1.3385231,9.3889433 1.6342912,8.7144619 1.8538778,7.9875915 Z m 8.2571442,0.00442 c 0.176812,0.6893188 0.449203,1.3673128 0.8263,2.029916 -0.853381,0.353537 -1.6614068,0.606367 -2.4350241,0.782426 C 8.2904125,10.012862 8.1283734,9.2178932 8.0269927,8.4190545 8.7419514,8.3197098 9.4333172,8.1692056 10.111022,7.9920109 Z M 4.6823079,8.5068048 c 0.9004425,0.078124 1.7675347,0.076506 2.6017469,0.0015 0.1029763,0.8148021 0.2678595,1.6251232 0.4811548,2.4321002 -1.2732034,0.210148 -2.4540297,0.2039 -3.5713684,0.02633 C 4.410807,10.150687 4.5782548,9.3307283 4.6823079,8.5068494 Z"
     id="path842"
     inkscape:connector-curvature="0" />
</svg>
