<?xml version="1.0" encoding="UTF-8" standalone="no"?><svg height="16" viewBox="0 0 4.2333332 4.2333332" width="16" xmlns="http://www.w3.org/2000/svg"><sodipodi:namedview/><metadata><rdf:RDF><cc:Work><dc:format>image/svg+xml</dc:format><dc:type/><dc:title/></cc:Work></rdf:RDF></metadata><g transform="translate(0 -292.76667)"><path d="m-.00002361 292.76667v3.6721h4.23331531v-3.6721zm1.69069541.20104h.4579697c.022706 0 .040996.0185.040996.0412v.42158c0 .0227-.018289.041-.040996.041h-.4579697c-.022706 0-.041215-.0183-.041215-.041v-.42158c0-.0227.018509-.0412.041215-.0412zm.5399615.50379h.4581889c.022706 0 .040996.0183.040996.041v.42158c0 .0227-.018288.041-.040996.041h-.4581889c-.022706 0-.040996-.0183-.040996-.041v-.42158c0-.0227.018289-.041.040996-.041zm-.5230809.67259h.9010319c.041236 0 .072607.0331.074538.0743l.072784 1.55127c.00193.0412-.037877.0745-.084842.0745h-1.0259922c-.046965 0-.086772-.0333-.084842-.0745l.072784-1.55127c.00193-.0412.033303-.0743.074538-.0743zm.1212338 1.06217c-.028718 0-.051957.0233-.051957.052v.31832c0 .0287.02324.052.051957.052h.6585644c.028718 0 .051738-.0233.051738-.052v-.31832c0-.0287-.02302-.052-.051738-.052z" fill="#d0d0d0" stroke-width=".448005"/><path d="m-.000041 296.43877h4.2333332v.56123h-4.2333332z" fill="#d0d0d0" stroke-width=".175144"/></g></svg>