<?xml version="1.0" encoding="UTF-8" standalone="no"?>
<!-- Created with Inkscape (http://www.inkscape.org/) -->

<svg
   xmlns:dc="http://purl.org/dc/elements/1.1/"
   xmlns:cc="http://creativecommons.org/ns#"
   xmlns:rdf="http://www.w3.org/1999/02/22-rdf-syntax-ns#"
   xmlns:svg="http://www.w3.org/2000/svg"
   xmlns="http://www.w3.org/2000/svg"
   xmlns:sodipodi="http://sodipodi.sourceforge.net/DTD/sodipodi-0.dtd"
   xmlns:inkscape="http://www.inkscape.org/namespaces/inkscape"
   width="16"
   height="16"
   viewBox="0 0 4.2333332 4.2333332"
   version="1.1"
   id="svg8"
   inkscape:version="0.92+devel (f96dc7e339, 2017-07-28, custom)"
   sodipodi:docname="glyph-synifg_icon.svg">
  <defs
     id="defs2">
    <linearGradient
       id="a"
       y1="543.79999"
       y2="503.79999"
       x2="0"
       gradientUnits="userSpaceOnUse"
       gradientTransform="matrix(-0.10583333,0,0,0.10583333,45.356992,-53.318831)">
      <stop
         stop-color="#18222a"
         id="stop2" />
      <stop
         offset="1"
         stop-color="#566069"
         id="stop4" />
    </linearGradient>
  </defs>
  <sodipodi:namedview
     id="base"
     pagecolor="#002466"
     bordercolor="#ffffff"
     borderopacity="0.38039216"
     inkscape:pageopacity="1"
     inkscape:pageshadow="2"
     inkscape:zoom="36.415999"
     inkscape:cx="10.094581"
     inkscape:cy="7.9162778"
     inkscape:document-units="px"
     inkscape:current-layer="svg8"
     inkscape:document-rotation="0"
     showgrid="false"
     inkscape:showpageshadow="false"
     borderlayer="true"
     inkscape:window-width="1920"
     inkscape:window-height="1051"
     inkscape:window-x="0"
     inkscape:window-y="0"
     inkscape:window-maximized="1"
     units="px" />
  <metadata
     id="metadata5">
    <rdf:RDF>
      <cc:Work
         rdf:about="">
        <dc:format>image/svg+xml</dc:format>
        <dc:type
           rdf:resource="http://purl.org/dc/dcmitype/StillImage" />
        <dc:title></dc:title>
      </cc:Work>
    </rdf:RDF>
  </metadata>
  <path
     inkscape:connector-curvature="0"
     style="fill:#d0d0d0;stroke-width:0.26458332"
     d="M 2.1166666,0 C 0.94403338,0 0,0.9440333 0,2.1166666 c 0,1.1726333 0.94403338,2.1166666 2.1166666,2.1166666 1.1726333,0 2.1166666,-0.9440333 2.1166666,-2.1166666 C 4.2333332,0.9440333 3.2892999,0 2.1166666,0 Z m 0,0.5291666 c 0.00909,5.28e-4 0.017617,0.00439 0.023771,0.011162 0.1268942,0.1385359 0.2431621,0.2878088 0.3633887,0.4301547 2.117e-4,5.28e-4 0.00145,0.00112 0.00145,0.00166 0.1786467,0.2377016 0.3280767,0.5002311 0.4324283,0.7602636 0.1158876,0.2885017 0.184919,0.5438246 0.2457732,0.9061979 0.010266,0.06096 0.021496,0.1411817 0.030386,0.2116667 0.00889,0.070485 0.015503,0.1273058 0.015503,0.1548225 v 0.013229 c 0,0.018098 -0.013735,0.033245 -0.031833,0.034726 L 3.175001,3.054909 C 2.8978224,3.078399 2.717246,3.138051 2.5145752,3.272565 2.4217594,3.33416 2.3571911,3.3876323 2.2239469,3.5139973 c -0.023283,0.022119 -0.044887,0.041927 -0.061185,0.056637 -0.00815,0.0073 -0.014966,0.013538 -0.020257,0.017983 -0.00264,0.00222 -0.00491,0.00399 -0.00724,0.00579 -0.00116,9.52e-4 -0.00233,0.00183 -0.00434,0.0031 -9.52e-4,6.36e-4 -0.00222,0.00142 -0.00455,0.00248 -0.00233,0.00106 -0.00459,0.00363 -0.016123,0.0031 -0.00963,-5.28e-4 -0.011732,-0.00256 -0.013849,-0.00351 -0.00201,-0.00106 -0.00308,-0.00195 -0.00413,-0.00248 -0.0018,-0.00127 -0.00287,-0.00205 -0.00393,-0.00289 -0.00222,-0.00169 -0.00439,-0.00346 -0.00682,-0.00558 -0.00487,-0.00413 -0.011089,-0.00976 -0.018603,-0.016538 C 2.0478941,3.5584363 2.0281777,3.5401123 2.0069052,3.5197923 1.8458269,3.3653815 1.7449677,3.2871641 1.6100302,3.2113874 c -0.01397,-0.00783 -0.02686,-0.015177 -0.036174,-0.020257 -0.00392,-0.00212 -0.00666,-0.00369 -0.0091,-0.00496 2.117e-4,1.059e-4 0.00145,-1.058e-4 0.00145,0 -2.117e-4,-1.058e-4 -0.00145,-3.069e-4 -0.00145,-4.12e-4 -9.52e-4,-3.175e-4 -8.04e-4,-6.12e-4 -0.00186,-8.24e-4 v 2.117e-4 c -4.24e-4,-3.175e-4 -0.00145,-6.12e-4 -0.00145,-8.24e-4 0,0 -2.117e-4,-2.117e-4 -2.117e-4,-2.117e-4 -9.52e-4,-4.24e-4 -0.00204,-9.2e-4 -0.00331,-0.00145 -0.00264,-0.00106 -0.00641,-0.00244 -0.010749,-0.00434 -0.00868,-0.00381 -0.020373,-0.00907 -0.033073,-0.014676 -0.055138,-0.02445 -0.092211,-0.038063 -0.14862,-0.054573 -0.083608,-0.024448 -0.2096624,-0.046193 -0.2951757,-0.05085 -0.010795,-6.36e-4 -0.02089,-0.00164 -0.029146,-0.00248 -0.00413,-4.24e-4 -0.00778,-7.08e-4 -0.011162,-0.00124 -0.00169,-3.175e-4 -0.00326,-7.08e-4 -0.00537,-0.00124 -0.00212,-5.28e-4 -0.00332,6.36e-4 -0.011782,-0.00455 -0.0157692,-0.00963 -0.0146512,-0.017582 -0.0157096,-0.021498 -0.00148,-0.00392 -0.001448,-0.00615 -0.001448,-0.00827 0,-0.00423 -1.0584e-4,-0.00786 0,-0.011989 2.1168e-4,-0.00825 8.04e-4,-0.018311 0.00186,-0.030799 0.002012,-0.024871 0.005472,-0.058633 0.0101284,-0.096945 0.00932,-0.076624 0.02284,-0.1718941 0.036175,-0.2505283 0.060854,-0.35941 0.1276465,-0.6056858 0.2420523,-0.890695 0.1227666,-0.3058583 0.2923264,-0.5916876 0.5153173,-0.8698176 0,-1.059e-4 -1.059e-4,-3.07e-4 0,-4.12e-4 0.090488,-0.109855 0.1906505,-0.2250711 0.2891813,-0.3278353 0.00688,-0.0071 0.016414,-0.011071 0.026257,-0.010754 z"
     id="rect25"
     inkscape:label="#" />
</svg>
