<?xml version="1.0" encoding="UTF-8" standalone="no"?><svg height="22" viewBox="0 0 5.8208332 5.8208335" width="22" xmlns="http://www.w3.org/2000/svg"><sodipodi:namedview/><metadata><rdf:RDF><cc:Work><dc:format>image/svg+xml</dc:format><dc:type/><dc:title/></cc:Work></rdf:RDF></metadata><path d="m .11605466 2.6310559c-.15472903.154729-.15474103.4038911-.00002698.5586052l2.51514462 2.5151446c.1547139.154714.403876.154702.5586051-.000027l2.5150012-2.5150012c.1547291-.1547292.1547411-.4038911.0000271-.5586052l-2.5151447-2.51514458c-.1547141-.15471407-.403876-.15470212-.5586051.0000269l-.4810871.4810871.7333267.73332668a.41897837.41901875 45 0 1  .4343801.098738.41897837.41901875 45 0 1  .098738.4343801l.6519317.6519317a.41897837.41901875 45 0 1  .43438.098738.41897837.41901875 45 0 1 -.0000285.5925535.41897837.41901875 45 0 1 -.5925534.0000285.41897837.41901875 45 0 1 -.099124-.4347658l-.630715-.6307151-.0000753 1.5670261a.41897837.41901875 45 0 1  .1373321.091037.41897837.41901875 45 0 1 -.0000286.5925533.41897837.41901875 45 0 1 -.5925535.0000286.41897837.41901875 45 0 1  .0000286-.5925534.41897837.41901875 45 0 1  .091818-.069444l.000079-1.6387808a.41897837.41901875 45 0 1 -.091811-.069436.41897837.41901875 45 0 1 -.0991236-.4347658l-.732941-.73294088z" fill="#d0d0d0" fill-rule="evenodd" stroke-width=".289786"/></svg>