<?xml version="1.0" encoding="UTF-8" standalone="no"?>
<!-- Created with Inkscape (http://www.inkscape.org/) -->

<svg xmlns:dc="http://purl.org/dc/elements/1.1/" xmlns:cc="http://creativecommons.org/ns#" xmlns:rdf="http://www.w3.org/1999/02/22-rdf-syntax-ns#" xmlns:svg="http://www.w3.org/2000/svg" xmlns="http://www.w3.org/2000/svg" xmlns:sodipodi="http://sodipodi.sourceforge.net/DTD/sodipodi-0.dtd" xmlns:inkscape="http://www.inkscape.org/namespaces/inkscape" width="12" height="12" viewBox="0 0 12 12" version="1.1" id="default16" inkscape:version="0.92+devel (8ef6761023, 2017-10-07, custom)" sodipodi:docname="glyph-differential.svg">
  <defs id="defs5" />
  <sodipodi:namedview id="base" pagecolor="#002466" bordercolor="#ffffff" borderopacity="0.38039216" inkscape:pageopacity="1" inkscape:pageshadow="2" inkscape:zoom="26.28125" inkscape:cx="7.7336504" inkscape:cy="8" inkscape:document-units="px" inkscape:current-layer="default16" inkscape:document-rotation="0" showgrid="false" inkscape:showpageshadow="false" borderlayer="true" inkscape:window-width="1920" inkscape:window-height="1029" inkscape:window-x="0" inkscape:window-y="22" inkscape:window-maximized="1" units="px" />
  <metadata id="metadata5">
    <rdf:RDF>
      <cc:Work rdf:about="">
        <dc:format>image/svg+xml</dc:format>
        <dc:type rdf:resource="http://purl.org/dc/dcmitype/StillImage" />
        <dc:title></dc:title>
      </cc:Work>
    </rdf:RDF>
  </metadata>
  <path inkscape:connector-curvature="0" style="color:#000000;font-style:normal;font-variant:normal;font-weight:normal;font-stretch:normal;font-size:medium;line-height:normal;font-family:sans-serif;font-variant-ligatures:normal;font-variant-position:normal;font-variant-caps:normal;font-variant-numeric:normal;font-variant-alternates:normal;font-variant-east-asian:normal;font-feature-settings:normal;font-variation-settings:normal;text-indent:0;text-align:start;text-decoration:none;text-decoration-line:none;text-decoration-style:solid;text-decoration-color:#000000;letter-spacing:normal;word-spacing:normal;text-transform:none;writing-mode:lr-tb;direction:ltr;text-orientation:mixed;dominant-baseline:auto;baseline-shift:baseline;text-anchor:start;white-space:normal;shape-padding:0;clip-rule:nonzero;display:inline;overflow:visible;visibility:visible;opacity:1;isolation:auto;mix-blend-mode:normal;color-interpolation:sRGB;color-interpolation-filters:linearRGB;solid-color:#000000;solid-opacity:1;vector-effect:none;fill:#d0d0d0;fill-opacity:1;fill-rule:nonzero;stroke:none;stroke-width:0.99999994px;stroke-linecap:round;stroke-linejoin:miter;stroke-miterlimit:4;stroke-dasharray:none;stroke-dashoffset:0;stroke-opacity:1;color-rendering:auto;image-rendering:auto;shape-rendering:auto;text-rendering:auto;enable-background:accumulate" d="M 9.0834059,1.0107526 C 8.2480412,1.0756092 7.685446,1.7224522 7.363538,2.4275113 7.0416288,3.1325703 6.8661143,3.9700554 6.7056765,4.7895243 6.5452386,5.6089932 6.4012845,6.4130217 6.2139651,6.9786524 6.1203094,7.2614678 6.0138658,7.481677 5.9220804,7.6050799 5.8302985,7.7284828 5.7842961,7.7466008 5.7357243,7.7555122 5.5450274,7.7904997 5.4510728,7.7403964 5.2238057,7.441176 4.9965375,7.1419555 4.7598772,6.6284263 4.5412468,6.0693223 4.3226153,5.5102183 4.1152691,4.9072564 3.8721586,4.3853776 3.6290492,3.863499 3.3856191,3.3552414 2.7921889,3.1415039 2.2972357,2.9632349 1.7760377,3.1363078 1.4360523,3.401954 1.0960667,3.6675996 0.85323794,4.0139083 0.65245694,4.3561893 0.25089504,5.0407511 0.02827449,5.7504954 0.02827449,5.7504954 A 0.57478645,0.57478645 0 0 0 0.39874274,6.4757143 0.57478645,0.57478645 0 0 0 1.121716,6.1030012 c 0,0 0.2044929,-0.6220669 0.5231455,-1.1652897 C 1.8041873,4.6661001 1.9947382,4.4251235 2.143309,4.3090388 2.2918798,4.1929542 2.3138666,4.1921507 2.4015134,4.2237187 2.3907075,4.2198216 2.6268136,4.4334077 2.8303582,4.8703535 3.0339038,5.3072993 3.2403522,5.8990047 3.4702576,6.4869403 3.700163,7.074876 3.9490064,7.6619439 4.3099849,8.1372062 4.6709623,8.6124684 5.2694484,9.0109817 5.9445339,8.8871228 6.3288534,8.8166114 6.6370757,8.5692774 6.8448829,8.2898838 7.05269,8.0104902 7.1893432,7.6898607 7.3051603,7.340139 7.5367947,6.6406958 7.6756286,5.8145763 7.8327971,5.0118048 7.9899655,4.2090334 8.1677539,3.4310375 8.4075835,2.9057513 8.6474132,2.3804652 8.8549846,2.1826126 9.1709712,2.1580799 c 0.1020249,-0.00792 0.1620829,0.00815 0.3008649,0.1526776 0.138782,0.1445299 0.306118,0.4199783 0.451297,0.7880862 0.2903599,0.7362157 0.5064379,1.8186358 0.6466349,2.9098564 0.280395,2.1824411 0.280657,4.4096899 0.280657,4.4096899 a 0.57478645,0.57478645 0 0 0 0.574787,0.574786 0.57478645,0.57478645 0 0 0 0.574786,-0.574786 c 0,0 0.0032,-2.2780024 -0.289638,-4.557877 C 11.563903,4.7205756 11.348265,3.5826122 10.991877,2.6789801 10.813683,2.2271642 10.604293,1.8278958 10.302582,1.5136905 10.000872,1.1994851 9.5570561,0.97397913 9.0834059,1.0107526 Z" id="path849" />
</svg>
