<?xml version="1.0" encoding="UTF-8" standalone="no"?>
<!-- Created with Inkscape (http://www.inkscape.org/) -->

<svg
   xmlns:dc="http://purl.org/dc/elements/1.1/"
   xmlns:cc="http://creativecommons.org/ns#"
   xmlns:rdf="http://www.w3.org/1999/02/22-rdf-syntax-ns#"
   xmlns:svg="http://www.w3.org/2000/svg"
   xmlns="http://www.w3.org/2000/svg"
   xmlns:sodipodi="http://sodipodi.sourceforge.net/DTD/sodipodi-0.dtd"
   xmlns:inkscape="http://www.inkscape.org/namespaces/inkscape"
   width="22"
   height="22"
   viewBox="0 0 22 22"
   version="1.1"
   id="svg8"
   inkscape:version="0.92+devel 15640 custom"
   sodipodi:docname="info.svg">
  <defs
     id="defs2" />
  <sodipodi:namedview
     id="base"
     pagecolor="#002266"
     bordercolor="#ffffff"
     borderopacity="0.46666667"
     inkscape:pageopacity="0"
     inkscape:pageshadow="2"
     inkscape:zoom="13.081476"
     inkscape:cx="16.621911"
     inkscape:cy="12.794693"
     inkscape:document-units="px"
     inkscape:current-layer="svg8"
     inkscape:document-rotation="0"
     showgrid="false"
     inkscape:showpageshadow="false"
     borderlayer="true"
     units="px"
     fit-margin-top="0"
     fit-margin-left="0"
     fit-margin-right="0"
     fit-margin-bottom="0"
     inkscape:window-width="1920"
     inkscape:window-height="1051"
     inkscape:window-x="0"
     inkscape:window-y="0"
     inkscape:window-maximized="1" />
  <metadata
     id="metadata5">
    <rdf:RDF>
      <cc:Work
         rdf:about="">
        <dc:format>image/svg+xml</dc:format>
        <dc:type
           rdf:resource="http://purl.org/dc/dcmitype/StillImage" />
        <dc:title></dc:title>
      </cc:Work>
    </rdf:RDF>
  </metadata>
  <path
     style="fill:#ffffff;stroke-width:1.98360932"
     d="M 11 0 A 11 11 0 0 0 0 11 A 11 11 0 0 0 11 22 A 11 11 0 0 0 22 11 A 11 11 0 0 0 11 0 z M 11.056641 3.5566406 C 11.934584 3.5566185 12.650382 4.2744023 12.650391 5.1523438 C 12.650382 6.0302863 11.934583 6.748069 11.056641 6.7480469 C 10.17872 6.7480368 9.4609466 6.0302641 9.4609375 5.1523438 C 9.4609466 4.2744244 10.17872 3.5566507 11.056641 3.5566406 z M 7.96875 7.7753906 L 12.449219 7.7753906 L 12.449219 16.15625 L 14.03125 16.15625 C 14.595467 16.048836 15.179688 16.541978 15.179688 17.304688 C 15.179688 17.699958 15.027859 18.012899 14.796875 18.197266 C 14.565892 18.381628 14.285309 18.443359 14.033203 18.443359 L 7.9882812 18.443359 C 7.7309443 18.443359 7.4463432 18.378146 7.2128906 18.191406 C 6.979437 18.004669 6.8203125 17.689567 6.8203125 17.292969 C 6.8203125 16.898066 6.9762838 16.58644 7.2070312 16.402344 C 7.4377777 16.218249 7.7167147 16.157952 7.96875 16.15625 L 9.5683594 16.15625 L 9.5683594 10.076172 L 7.96875 10.076172 C 7.7016157 10.076172 7.4190396 10.010456 7.1914062 9.8203125 C 6.9637709 9.6301719 6.8203125 9.316994 6.8203125 8.9257812 C 6.8203125 8.5337608 6.9652819 8.2208689 7.1933594 8.03125 C 7.4214369 7.8416301 7.7041496 7.7753906 7.96875 7.7753906 z "
     id="path4936"
     inkscape:label="glyph" />
</svg>
