<?xml version="1.0" encoding="UTF-8" standalone="no"?><svg height="22" viewBox="0 0 5.8208332 5.8208335" width="22" xmlns="http://www.w3.org/2000/svg"><sodipodi:namedview/><metadata><rdf:RDF><cc:Work><dc:format>image/svg+xml</dc:format><dc:type/><dc:title/><cc:license/><dc:publisher><cc:Agent><dc:title>PixelPimps &amp; CodePoets</dc:title></cc:Agent></dc:publisher></cc:Work><cc:License><cc:permits/><cc:permits/><cc:requires/><cc:requires/><cc:permits/></cc:License></rdf:RDF></metadata><path d="m2.956827-.00000002a.65840887.65840887 0 0 0 -.618281.4340813c-.017895.037397-.034348.07659-.047448.1197609-.4999705 1.64757582-1.51731608 5.25808162-1.51731618 5.25808162 0 0 1.86296978-3.2362211 2.71285278-4.7529312.00703-.012546.012505-.024836.018855-.037296a.65840887.65840887 0 0 0  .1098149-.36321912.65840887.65840887 0 0 0 -.6584775-.6584775zm.00104.3335899a.31746121.31746121 0 0 1  .3174284.3174285.31746121.31746121 0 0 1 -.3174284.3174284.31746121.31746121 0 0 1 -.3176357-.3174284.31746121.31746121 0 0 1  .3176357-.3174285zm.7817607.87935142c-.1787816.3189914-.4148388.7344561-.6551624 1.1572048.8822941 1.5678206 1.9625862 3.4506873 1.9625862 3.4506873s-.7873243-2.8059834-1.3074238-4.6078921z" fill="#d0d0d0" stroke-width=".242183"/></svg>