<?xml version="1.0" encoding="UTF-8" standalone="no"?>
<!-- Created with Inkscape (http://www.inkscape.org/) -->

<svg
     xmlns:dc="http://purl.org/dc/elements/1.1/"
     xmlns:cc="http://creativecommons.org/ns#"
     xmlns:rdf="http://www.w3.org/1999/02/22-rdf-syntax-ns#"
     xmlns:svg="http://www.w3.org/2000/svg"
     xmlns="http://www.w3.org/2000/svg"
     xmlns:sodipodi="http://sodipodi.sourceforge.net/DTD/sodipodi-0.dtd"
     xmlns:inkscape="http://www.inkscape.org/namespaces/inkscape"
     width="16"
     height="16"
     viewBox="0 0 4.2333333 4.2333333"
     version="1.1"
     id="svg8"
     inkscape:version="0.92+devel (572d1a9d8b, 2017-07-17, custom)"
     sodipodi:docname="glyph-ms-powerpoint.svg">
    <defs
         id="defs2" />
    <sodipodi:namedview
         id="base"
         pagecolor="#002466"
         bordercolor="#ffffff"
         borderopacity="0.38039216"
         inkscape:pageopacity="1"
         inkscape:pageshadow="2"
         inkscape:zoom="18.782524"
         inkscape:cx="10.183841"
         inkscape:cy="8.2611434"
         inkscape:document-units="px"
         inkscape:current-layer="svg8"
         inkscape:document-rotation="0"
         showgrid="false"
         inkscape:showpageshadow="false"
         borderlayer="true"
         inkscape:window-width="1920"
         inkscape:window-height="1051"
         inkscape:window-x="0"
         inkscape:window-y="0"
         inkscape:window-maximized="1"
         units="px"
         inkscape:object-paths="true" />
    <metadata
         id="metadata5">
        <rdf:RDF>
            <cc:Work
                 rdf:about="">
                <dc:format>image/svg+xml</dc:format>
                <dc:type
                     rdf:resource="http://purl.org/dc/dcmitype/StillImage" />
                <dc:title></dc:title>
            </cc:Work>
        </rdf:RDF>
    </metadata>
    <path
         style="fill:#d0d0d0;stroke-width:0.14883845"
         d="M 8.5585938 0 C 5.7064148 0.50797304 2.8519038 0.99358844 0 1.4921875 C 0 5.8308463 -0.00192416 10.171273 0 14.511719 C 2.83717 15.008532 5.6782577 15.482791 8.5097656 16 L 9.671875 16 L 9.671875 14.511719 C 11.534139 14.511719 13.01634 14.509278 14.878906 14.517578 C 15.195041 14.502728 15.548737 14.525578 15.820312 14.332031 C 16.038013 13.999074 15.980758 13.582871 16 13.207031 C 15.97252 9.5419052 16.012099 5.8760924 15.980469 2.2109375 C 16.019449 1.7867471 15.687864 1.4551659 15.263672 1.4980469 C 13.274745 1.4678109 11.662589 1.4992812 9.671875 1.4882812 L 9.671875 0 L 8.5585938 0 z M 9.6503906 2.2109375 L 14.861328 2.2109375 C 15.077748 2.2109375 15.251953 2.3851441 15.251953 2.6015625 L 15.251953 13.273438 C 15.251953 13.489854 15.077746 13.664062 14.861328 13.664062 L 9.6503906 13.664062 L 9.6503906 10.738281 A 2.9804604 2.9804604 0 0 0 10.751953 10.953125 A 2.9804604 2.9804604 0 0 0 13.732422 7.9726562 L 10.751953 7.9726562 L 10.751953 4.9921875 A 2.9804604 2.9804604 0 0 0 9.6503906 5.2050781 L 9.6503906 2.2109375 z M 4.5917969 4.7011719 C 5.116432 4.6900299 5.6183667 4.7648319 6.0273438 5.1347656 C 6.8108337 6.0854812 6.6049254 7.8351461 5.4433594 8.4042969 C 5.0308205 8.6150018 4.5584131 8.5850149 4.109375 8.5703125 C 4.107485 9.2810954 4.1058219 9.9923425 4.1074219 10.703125 C 3.7468319 10.671505 3.3861533 10.640908 3.0253906 10.611328 C 3.0090996 8.6699081 3.0056898 6.7264339 3.0273438 4.7851562 C 3.5208777 4.8087862 4.0671622 4.7123209 4.5917969 4.7011719 z M 11.365234 5.0488281 L 11.365234 7.375 L 13.691406 7.375 A 2.3263994 2.3263994 0 0 0 11.365234 5.0488281 z M 4.671875 5.7636719 C 4.486002 5.7400139 4.2864997 5.7612913 4.1074219 5.7695312 C 4.1020219 6.3801238 4.0984718 6.9886633 4.1367188 7.5976562 C 4.4985075 7.554032 4.9666155 7.5912385 5.1738281 7.2167969 C 5.3465941 6.8496271 5.357607 6.3796996 5.1503906 6.0234375 C 5.0294782 5.8553392 4.8577485 5.7873317 4.671875 5.7636719 z "
         transform="scale(0.26458333)"
         id="path2" />
</svg>
