<?xml version="1.0" encoding="UTF-8" standalone="no"?>
<!-- Created with Inkscape (http://www.inkscape.org/) -->

<svg
   xmlns:dc="http://purl.org/dc/elements/1.1/"
   xmlns:cc="http://creativecommons.org/ns#"
   xmlns:rdf="http://www.w3.org/1999/02/22-rdf-syntax-ns#"
   xmlns:svg="http://www.w3.org/2000/svg"
   xmlns="http://www.w3.org/2000/svg"
   xmlns:sodipodi="http://sodipodi.sourceforge.net/DTD/sodipodi-0.dtd"
   xmlns:inkscape="http://www.inkscape.org/namespaces/inkscape"
   width="16"
   height="16"
   viewBox="0 0 4.2333332 4.2333332"
   version="1.1"
   id="svg8"
   inkscape:version="0.92+devel (4546dc857e, 2017-07-25, custom)"
   sodipodi:docname="glyph-blogger.svg">
  <defs
     id="defs2" />
  <sodipodi:namedview
     id="base"
     pagecolor="#002466"
     bordercolor="#ffffff"
     borderopacity="0.38039216"
     inkscape:pageopacity="1"
     inkscape:pageshadow="2"
     inkscape:zoom="25.75"
     inkscape:cx="14.291722"
     inkscape:cy="8.5103606"
     inkscape:document-units="px"
     inkscape:current-layer="svg8"
     inkscape:document-rotation="0"
     showgrid="false"
     inkscape:showpageshadow="false"
     borderlayer="true"
     inkscape:window-width="1920"
     inkscape:window-height="1051"
     inkscape:window-x="0"
     inkscape:window-y="0"
     inkscape:window-maximized="1"
     units="px" />
  <metadata
     id="metadata5">
    <rdf:RDF>
      <cc:Work
         rdf:about="">
        <dc:format>image/svg+xml</dc:format>
        <dc:type
           rdf:resource="http://purl.org/dc/dcmitype/StillImage" />
        <dc:title></dc:title>
      </cc:Work>
    </rdf:RDF>
  </metadata>
  <path
     style="fill:#d0d0d0;stroke-width:0.28222224;fill-opacity:1"
     d="M 1.6469209,-0.00131701 C 1.1768261,-0.00271831 1.0409792,0.01724071 0.8456932,0.09502572 0.43422339,0.25891913 0.13856768,0.60433476 0.03072204,1.0471507 0.01046671,1.1303208 0.00655481,1.2636444 0.00177029,2.0293436 c -0.00599394,0.959259 6.7115e-4,1.1000981 0.06055453,1.2901963 0.04952032,0.1570603 0.09951606,0.2533004 0.20245183,0.3899053 0.19609248,0.260236 0.48996974,0.4481701 0.78378695,0.501247 0.1398239,0.025264 1.8648692,0.031632 2.0415437,0.00753 C 3.3973732,4.1763128 3.6381712,4.0530965 3.8640576,3.8223217 4.0274683,3.6553753 4.1297689,3.4747368 4.1966179,3.2349174 4.2243888,3.13529 4.2266893,3.0867419 4.2317783,2.5017784 4.235619,2.0602785 4.2324668,1.8534906 4.2209648,1.8012884 4.2043021,1.7256247 4.1570302,1.6554105 4.1031351,1.6261136 4.0865502,1.6170983 3.9802784,1.6056079 3.8669874,1.6005803 3.6771479,1.592155 3.6559485,1.5883966 3.5960282,1.553281 3.500981,1.4975798 3.4747611,1.4374585 3.4745009,1.2741594 3.4740014,0.96214415 3.3441529,0.67249254 3.0875956,0.41105193 2.9048205,0.22479677 2.7009417,0.09869541 2.46824,0.02805323 2.4125315,0.01114143 2.2878356,0.00536439 1.8700224,4.2704987e-4 1.7880746,-5.4494718e-4 1.714077,-0.001116 1.6469206,-0.00131714 Z m 0.085948,1.12360241 c 0.4146545,0 0.4285472,9.045e-4 0.4894568,0.031672 0.08802,0.044467 0.1262711,0.1071691 0.1262711,0.2069867 0,0.090152 -0.035897,0.1532882 -0.116016,0.2040567 -0.04302,0.02726 -0.068744,0.029007 -0.475016,0.031393 -0.2508679,0.00147 -0.4506914,-0.00338 -0.4804576,-0.01158 -0.1570834,-0.043299 -0.2157709,-0.2686721 -0.100319,-0.385231 0.07379,-0.074499 0.094193,-0.077297 0.5560807,-0.077297 z m 0.3804174,1.5209025 c 0.8468215,-6.628e-4 0.8423846,-0.00103 0.9226851,0.073949 0.1134166,0.1058963 0.089516,0.2944275 -0.04716,0.3718366 L 2.8483788,3.1117858 2.116356,3.1203664 C 1.473113,3.1278956 1.2909139,3.1161201 1.2574341,3.1015306 1.190007,3.0721507 1.1271557,2.9905589 1.1163037,2.9181935 c -0.010337,-0.068934 0.024332,-0.1637411 0.077437,-0.2118003 0.06694,-0.06058 0.096334,-0.062557 0.9195456,-0.063205 z"
     id="path4163"
     inkscape:connector-curvature="0"
     inkscape:label="#" />
</svg>
