<?xml version="1.0" encoding="UTF-8" standalone="no"?>
<svg height="16" viewBox="0 0 4.2333332 4.2333332" width="16" xmlns="http://www.w3.org/2000/svg">
	<sodipodi:namedview/>
	<path d="M 2.1166667 0 C 1.9432591 0 1.8036216 .1396375 1.8036216 .31304515 v .0369234 C .85772764 .50343569 .16240486 1.3197432 .16133863 2.2780054 C .1614076 3.3578747 1.0367974 4.2332644 2.1166667 4.2333332 C 3.1965359 4.2332643 4.0719256 3.3578746 4.0719946 2.2780054 C 4.0716553 1.8213324 3.9114925 1.3791805 3.6192834 1.0282329 L 3.8496525 .79706109 L 3.5494802 .52334728 L 3.3431615 .75612441 C 3.0791819 .54330505 2.7643988 .40278675 2.4297119 .34836306 V .31304516 C 2.4297118 .13963755 2.2900745 0 2.1166667 0 Z m 0 .81793075 C 2.922816 .81816676 3.5761459 1.4718561 3.5759385 2.2780054 H 2.6504488 C 2.6503569 1.9832438 2.4114283 1.7443152 2.1166667 1.7442233 Z" fill="#d0d0d0" stroke-linecap="square" stroke-width=".370417"/>
</svg>
