<?xml version="1.0" encoding="UTF-8" standalone="no"?><svg height="16" viewBox="0 0 4.2333332 4.2333332" width="16" xmlns="http://www.w3.org/2000/svg"><sodipodi:namedview/><metadata><rdf:RDF><cc:Work><dc:format>image/svg+xml</dc:format><dc:type/><dc:title/></cc:Work></rdf:RDF></metadata><g fill="#d0d0d0"><path d="m2.0581906.01022864-.5165947.29862947v.56522203l.5165947-.29805736zm-.6333004.36613573-.5171667.29805732v.56522211l.5171667-.29805737zm.6333004.33409886-.5165947.29862947v.6006914l.5165947-.2986295zm-1.26946126.032609-.51659465.29862937v.56465l.51659465-.2980574zm.63616086.33352677-.5171667.2980574v.6018356l.5171667-.2992016zm-.63616086.3667078-.51659465.2986295v.6018355l.51659465-.2986293zm1.26946126.0045721-.5165947.2986295v.6218631l.5165947-.2980572zm-.6333004.3661404-.5171667.2980573v.6218586l.5171667-.2980573zm-.63616086.3667077-.51659465.2986296v.6212864l.51659465-.2980574z"/><path d="m2.1751427 0 .5165945.29862947v.56522203l-.5165945-.29805736zm.6333004.36613574.5171666.29805731v.56522205l-.5171666-.29805731zm-.6333004.33409885.5165945.29862949v.60069142l-.5165945-.2986295zm1.2694612.03260944.5165946.29862937v.5646495l-.5165946-.2980573zm-.6361608.33352637.5171666.2980573v.6018357l-.5171666-.2992016zm.6361608.3667077.5165946.2986295v.6018356l-.5165946-.2986294zm-1.2694612.00457.5165945.2986295v.6218653l-.5165945-.2980573zm.6333004.3661425.5171666.2980574v.6218585l-.5171666-.2980572zm.6361608.3667078.5165946.2986296v.6212863l-.5165946-.2980574z"/><path d="m .34240384 3.2032905.51691816-.2980694.4894966.2826112-.5164224.2983552zm.63373326-.3653864.5167085-.2988509.4894967.2826111-.5167087.2988509zm-.0273122.7155037.5169181-.2980694.520214.3003458-.5169181.2980692zm.6629712-1.0830811.5169179-.2980693.489001.2823248-.5164227.2983554zm-.029238.7176946.5167085-.2988508.521205.300918-.5176996.2982786zm.6356586-.3675773.516918-.2980695.521205.3009178-.516918.2980694zm-.6307711 1.1016716.5169181-.2980691.5385492.3109314-.5164226.2983553zm.6337371-.3653841.5167086-.2988508.5385452.3109293-.5167083.2988509zm.6356585-.3675775.5169183-.2980694.5380497.3106431-.5164227.2983556z"/></g></svg>