<?xml version="1.0" encoding="UTF-8" standalone="no"?><svg height="16" viewBox="0 0 4.2333332 4.2333332" width="16" xmlns="http://www.w3.org/2000/svg"><sodipodi:namedview/><metadata><rdf:RDF><cc:Work><dc:format>image/svg+xml</dc:format><dc:type/><dc:title/></cc:Work></rdf:RDF></metadata><path d="m1.3105849.90653391a.10070507.10070507 0 0 0 -.091451.14710919l.3298154.6596309h.1569426a.10070507.10070507 0 0 1  .040317.00865l.015144-.034417-.3620695-.72394219a.10070507.10070507 0 0 0 -.088698-.057034zm1.6099401 0a .10070507.10070507 0 0 0 -.092632.061558l-.704865 1.61112009a.10079433.10079433 0 0 0  .1846731.080831l.7048651-1.61112a.10070507.10070507 0 0 0 -.0920412-.14238909zm-.906255.60416999a.10070507.10070507 0 0 0 -.092632.061558l-.704865 1.61112a.10079433.10079433 0 0 0  .1846731.080831l.704865-1.6111201a.10070507.10070507 0 0 0 -.0920411-.1423889zm.2987416 0a .10070507.10070507 0 0 0 -.090468.064508l-.4027801 1.00695a.10074236.10074236 0 1 0  .1870332.074931l.40278-1.00695a.10070507.10070507 0 0 0 -.096565-.139439zm1.820967.1016784a.10070507.10070507 0 0 0 -.012982.000784s-.1446758.013055-.3156551.052511c-.1709779.039458-.371342.097973-.5017038.2283352-.034902.034901-.068369.063636-.1018751.092632-.1225539-.087243-.2420754-.1446087-.3591192-.1703162a.10070507.10070507 0 0 0 -.021634-.00236h-.033237l-.088108.2013892h.1050218c.068074.015674.1446693.048596.2277436.1008917-.083202.052342-.1599917.085058-.2281371.100695h-.1929331l-.088108.20139h.2977584a.10070507.10070507 0 0 0  .021634-.00236c.1170872-.025717.2367138-.082823.359316-.1701202.033459.028966.066827.057582.1016784.092435.1303618.1303618.3307259.1888775.501705.2283338.1709793.039457.3156551.052511.3156551.052511a.10070897.10070897 0 0 0  .018093-.2006035s-.1322354-.01212-.2885151-.048184c-.1562794-.036065-.3335215-.103418-.4045488-.1744462-.028163-.028163-.055965-.054471-.083781-.079651.027816-.025181.055618-.051685.083781-.079848.071027-.071027.2482694-.138578.40455-.1746429.1562797-.036064.2885151-.048184.2885151-.048184a.10070507.10070507 0 0 0 -.00511-.2011934zm-4.03409369.0002014a.10070507.10070507 0 0 0 -.00826.2009967s.1322351.01212.2885147.048184c.1562807.036065.3337195.1036156.4047467.1746428.028163.028163.056162.054667.083978.079848-.027816.025181-.055815.051488-.083978.079651-.071027.071028-.248466.1383813-.4047467.1744463-.1562796.036064-.2885147.048184-.2885147.048184a.10071783.10071783 0 0 0  .01829.2006034s.1446761-.013053.3156552-.052511c.1709781-.039456.3713423-.097972.501705-.2283337.034863-.034863.068418-.063462.10187499-.092435.1226022.087297.2420312.144403.3591194.1701195a.10070507.10070507 0 0 0  .021634.00236h.031664l.088108-.2013893h-.1032517c-.068144-.015637-.1445909-.048354-.2277438-.1006951.083024-.052294.1592775-.085217.2273504-.1008916h.1917531l.088108-.20139h-.2959882a.10070507.10070507 0 0 0 -.021634.00236c-.1170882.025718-.2365171.083019-.3591193.1703169-.03349499-.028995-.06697299-.057731-.10187509-.092632-.1303624-.1303624-.3307265-.1888771-.5017046-.2283334-.1709791-.0394563-.3156553-.0525109-.3156553-.0525109a.10070507.10070507 0 0 0 -.01003-.0005937zm2.38304949.8977982-.032647.074931.381933.6873615a.10070507.10070507 0 1 0  .1760196-.09775l-.3644296-.6558938h-.1205586a.10070507.10070507 0 0 1 -.040317-.00865z" fill="#d0d0d0"/></svg>