<?xml version="1.0" encoding="UTF-8" standalone="no"?><svg height="22" viewBox="0 0 5.8208332 5.8208335" width="22" xmlns="http://www.w3.org/2000/svg"><sodipodi:namedview/><metadata><rdf:RDF><cc:Work><dc:format>image/svg+xml</dc:format><dc:type/><dc:title/></cc:Work></rdf:RDF></metadata><path d="m2.8776538.92681688-1.2317594.74207352 1.2317594.7415567v-.3451984h1.3120647c.4478396 0 .7953002.349011.7953002.7968506v.097668c0 .2047047-.00577.2438429-.1012857.403593l.6800618.4077275c.1907066-.3189576.2160074-.4118904.2160074-.8113202v-.097668c0-.8738476-.7162361-1.5900839-1.5900837-1.5900839h-1.3120647zm-2.5353491 1.00355632c-.18253165.2771996-.3012736.575694-.30127359.9317261v.097668c0 .8738476.71571967 1.5900839 1.58956709 1.5900839h1.3125814v.3441653l1.3905095-.7420735-1.3905095-.7415569v.3462321h-1.3125814c-.4478396 0-.79478352-.349011-.79478352-.7968506v-.097668c0-.1824635.13108667-.4087646.22241542-.5474603z" fill="#fff"/></svg>