<?xml version="1.0" encoding="UTF-8" standalone="no"?><svg height="16" viewBox="0 0 4.2333333 4.2333333" width="16" xmlns="http://www.w3.org/2000/svg"><sodipodi:namedview/><metadata><rdf:RDF><cc:Work><dc:format>image/svg+xml</dc:format><dc:type/><dc:title/></cc:Work></rdf:RDF></metadata><path d="m2.1135817-.00000007c-.4861444 0-.8775169.39137258-.8775169.87751682v1.26211605c0 .4861443.3913725.8775169.8775169.8775169.4861442 0 .877517-.3913726.877517-.8775169v-1.26211605c-.0000004-.48614424-.3913728-.87751682-.877517-.87751682zm-1.40128475 2.09849927v.02468c0 .6466784.45147515 1.193265 1.05164915 1.3526098v.7575444h.7925073v-.7842811c.5561543-.1872418.964583-.7106543.964583-1.3258729v-.02468h-.3180999v.041134c0 .5996468-.4883367 1.0886692-1.0879837 1.0886692-.5996473 0-1.0907261-.4890224-1.0907261-1.0886692v-.041133z" fill="#d0d0d0"/></svg>