<?xml version="1.0" encoding="UTF-8" standalone="no"?><svg height="16" viewBox="0 0 4.2333332 4.2333332" width="16" xmlns="http://www.w3.org/2000/svg"><sodipodi:namedview/><metadata><rdf:RDF><cc:Work><dc:format>image/svg+xml</dc:format><dc:type/><dc:title/></cc:Work></rdf:RDF></metadata><path d="m0 0v4.2333332h.23465624v-4.2333332zm.44691093.17291638v2.56936742h2.56217757v-2.56936742zm1.25645397.2907015c.1652306.00014645.3277042.0428749.4721127.12415963.0007369.001194.00164.002441.00336.003401.00357.002091.00673.005012.010081.006803.00575.003343.011842.007968.010641.0136065-.00158.008239-.015162.008106-.020721.0141735.0007695.0116633-.00375.009197-.00672.0170082.0018.005014.00593.004182.00672.0102049-.0009752.006436-.00912.007536-.00672.0141735.010718.008448.02068.00124.030802 0 .022235-.002919.040625.00056887.054324-.0102049-.00102-.00614.00263-.00954.00616-.0130396.00659.004831.013129.009745.019601.0147404-.00432.001569-.00911.003424-.011761.005102-.00555.00376-.00764.009382-.014001.0136065-.00456.003338-.015393.0136065-.020161.0136065-.00575 0-.01656-.004338-.020721-.002835-.00596.001673-.00335.0111711-.010081.0136065-.013102.004805-.03632-.0130802-.040883.006803.00556.0114449.024235.007942.034162.0141735.00616.004174.015219.0238018.016801.0306147.00158.005639.00238.0251586 0 .0311816-.00616.016091-.02262.0145492-.040883.0141735-.00496 0-.00887.00041503-.013441 0-.030771-.002084-.061147-.0121081-.075045.0102049.000984.0170883.00377.0265133 0 .0413865-.00277.0108612-.014599.0183011-.014001.02778.0002167.004805.00891.0137734.010081.0204098.0007679.003763-.00159.0109601 0 .0141735.00517.009863.018305-.001667.027442 0 .00873.00124.017361.0139486.017361.0238114 0 .007021-.00235.020966-.00672.02778-.00873.0132422-.025575.0103449-.038083.0175749-.010317.006013-.014007.0201705-.020161.0306146-.00656.011234-.012684.015096-.010081.031181-.00893.017882-.01906.02934-.037523.037985-.00536.00251-.012398.00718-.017361.010772-.00398.00293-.00787.00717-.013441.013607-.00695.00785-.01695.010985-.020722.017008-.00279.00464-.0003913.014757-.00336.020976-.00437.00844-.011242.015931-.016801.024379-.00257.00418-.00788.00838-.010641.013607-.00635.011662-.014633.020946-.013441.031181.0009818.00985.012844.011764.013441.020409.0005527.00482-.00357.00895-.00336.014174.0002059.00763.00277.010985.00336.017008.00138.014876-.00732.020946-.010081.031181-.00139.00482.00119.00975 0 .013607-.00238.00744-.013235.012167-.013441.020976-.0002168.00624.0095.012167.010081.020977.0004334.006-.00455.011413-.00336.017008.00218.010861.022457.026136.030802.034583.011318.011455.022489.019149.027442.031181.00417.010236.0057.026937.013441.034583.00575.00564.016745.00776.024082.013607.00695.00543.016174.00775.023522.013607.012111.00966.028345.029207.047603.02778.010122-.0008228.019487-.00484.030802-.0068.011714-.00209.02561-.00802.037523-.0068.00913.0008228.017905.00743.027442.0068.00993-.0004169.022847-.00519.034162-.010205.019655-.00865.049817-.02519.078405-.020976.021838.00335.022234.028166.037523.037984.01747.00167.030346-.00335.044243 0 .010523.0025.023083.022734.024082.031181.0009861.00865-.00553.015546-.00672.020976-.00276.011662-.00474.026578-.00672.034016-.00157.0058-.00357.01176-.00336.017575 0 .00522.00809.017521.013441.024379.00656.00844.016138.01453.024082.023812.014494.016877.02012.040043.030242.062363.00257.00564-.00238.00659 0 .013607-.00437.033759-.015685.056173-.037523.093544-.010328.012037-.020367.026346-.020161.041387-.0007651.036182.018394.054619.016801.089576-.00358.047017.0002588.054824-.00336.079939.01568.00803.00792.031494.00336.04819-.00674.019889-.01303.024698-.016801.037985.000932.0004302.00189.0002221.0028.0005669-.1824948.186249-.430828.2911328-.6899697.2914078-.114542-.0004549-.2281055-.021374-.3354632-.061796.00216-.00113.00416-.00289.0056-.00567.00377-.00703-.00496-.020758 0-.02778.00357-.00482.026815-.00899.034162-.010205.010523-.00167.021481.0002182.027442-.0034.00656-.00421.014633-.015327.013441-.02778-.0005418-.0058-.00554-.00838-.010081-.013607-.00376-.00442-.0008358-.00955-.00336-.013607-.00476-.00703-.012018-.010741-.014001-.020976.014295-.00293.034239.016054.054884.010205.00973-.00293.02624-.021377.030802-.030615.00139-.00293-.00158-.014196 0-.017575.00179-.00376.00612-.0048.00672-.0068.00139-.00543-.00119-.00682 0-.010205.00357-.010236.014201-.01694.020161-.024379.00456-.00563.00984-.011204.014001-.017008.00477-.00624.00693-.00876.010081-.014174.00299-.018302-.011089-.032121-.00672-.048189.00476-.018091.030332-.029756.047603-.037985.00596-.00293.012398-.00841.017361-.010205.01191-.00421.026408-.00341.037523-.00737.018662-.00681.025026-.027499.034162-.044788.00437-.00803.00929-.014606.010081-.020409.0007634-.00522-.0009839-.011508 0-.017575.0009754-.006.00179-.0104.00336-.017008.00218-.00865.00336-.024928.00336-.034583-.0000002-.00802-.00317-.010345-.00336-.017575-.00139-.026113.00727-.027138.016801-.041387.00477-.00703.00729-.018798.010641-.023812.016081-.024106.042866-.035999.040883-.072568-.000763-.012078-.0047-.03759-.013441-.041387-.00497-.0021-.016734-.00089-.024082-.0034-.023426-.00886-.040547-.035977-.064965-.037984-.00517-.0002759-.00768.0002758-.013441 0-.00954-.0002744-.020073-.00956-.030802-.010772-.00675-.0008285-.020104.0021-.024082 0-.00616-.00293-.00514-.013585-.010081-.017008-.00398-.00293-.010642-.0046-.016801-.0068-.00973-.00376-.016127-.006-.027442-.0068-.00358-.0002759-.013395.000415-.017361 0-.00616-.0008338-.011046-.00718-.016801-.010772-.00713-.00442-.010458-.00733-.013441-.013607.00656-.021685-.016354-.025366-.020722-.037985-.00199-.00585.00199-.015755 0-.020977-.00258-.00744-.00922-.010773-.017361-.017008-.014295-.011235-.027154-.021734-.047603-.024379-.00913-.0008286-.019888.0008285-.030802 0-.011515-.0008294-.025427-.00696-.034162-.017008-.00833-.00985-.00946-.019748-.016801-.024379-.00695-.00444-.019313-.00561-.024082-.010205-.00218-.0021-.00138-.00561-.00336-.010205-.00358-.00722-.011089-.00877-.00672-.017575-.00794-.00417-.0049.00511-.013441.0034-.00774-.011067-.013332-.016986-.030802-.013607-.00794.00167-.014751.0134-.024082.013607-.00774.0002764-.01396-.01218-.024082-.013607-.00774-.0008339-.018168.00802-.023522.0068-.00854-.00167-.00962-.012352-.017361-.017575-.00575-.00377-.016987-.013814-.020161-.013607-.00993.0002776-.017105.021045-.030802.013607-.00675-.00865.011316-.00897.00336-.017008-.00595-.00601-.00867.0003304-.013441.0034-.00556.00377-.011206.008-.017361.010205-.0137.00522-.023433.0046-.034162.010205-.00993.00522-.011047.014142-.016801.024379-.00456.00844-.013775.020562-.020721.020976-.00834.0004147-.015979-.01096-.023522-.014174-.02283-.010042-.036025.00664-.054884.0068-.017471.0002787-.0416783-.028122-.0408829-.044788.00054188-.010236.005528-.025326.00672-.037985.00097538-.010032.009894-.018542.0100807-.02778.000219-.012242-.018938-.022385-.0268819-.023812-.018662-.00335-.0437221.00844-.0649645 0-.003972-.00681.007707-.01097.0100807-.017575.001387-.00377-.001387-.00598 0-.010205.002381-.00643.0110207-.010762.014001-.017575.002178-.00522.001193-.013971.00336-.020409.00259-.00722.009492-.012309.0100807-.017575.00076623-.00681-.004738-.015977-.0100807-.020409-.0164783.0008228-.0279857.0024-.0375226.0068-.0214407.00985-.0158825.037943-.0375226.044788-.005603.00189-.0140638.0041-.0212815.00567.013715-.070156.0349348-.1385921.0632844-.2040979.005575.00197.0105329.00466.0156811.0051.0182643.00124.0190724-.012946.0341624-.020976.0154867.0021.0234264-.00167.0375226 0 .009531.0008294.0232594.013555.0308021.014174.00635.0002743.00748-.00781.013441-.0068.00596.0008283.016363.013179.017361.020409.0009861.00906-.00596.017709-.00336.02778.00934.00965.027581.015338.040883.020976.00873-.00723.00139-.024139 0-.034583-.0002188-.00464.0005473-.00995 0-.014174-.0009862-.00723-.00336-.01419-.00336-.020409 0-.028745.021824-.040907.040883-.0521589.00814-.004809.016929-.0134203.024082-.017008.010122-.005011.015177-.005386.023522-.0102052.015088-.008655.029166-.017961.040883-.02778.00535-.0130302-.0005473-.0285177 0-.0413865.00536-.003346.00825.00041503.014001 0 .00913-.002084.011632-.0157545.016801-.0209767.00298-.002919.013785-.003666.017361-.006803.00913-.00723.00885-.0171953.016801-.0204098.00279-.00082284.00906-.002151.013441-.003401.00596-.001678.014545-.007393.024082-.0107718.00616-.002096.021697-.00088995.024082-.003401.00298-.00293-.0007632-.015813 0-.0204098.00476-.0226846.037633-.0235349.057684-.0311816.013897-.005433.029317-.0166127.044803-.0136065-.00299.0108667-.01658.007328-.014001.0204098.00337.0183051.024451-.004214.030802-.006803.01211-.005213.035082-.007758.050964-.0136065.013898-.005015.037183-.0149293.024082-.0311816-.01092-.0008294-.014545.009547-.024082.0136065-.00656.00082282-.00788-.002985-.013441-.003401-.00536-.00027427-.00809.004531-.013441.003401-.00536-.00082832-.01321-.0106231-.014001-.0170082-.00218-.0168788.01733-.0221335.024082-.0345833-.00456-.0152496-.024818-.00073652-.037523-.006803.00139-.009026.00627-.0191775.016801-.0209768.00854-.00124.028993.002843.034162.006803.00297.002505-.00119.009906.00336.0141735.00517.004652.01397.00082908.020721 0 .00238-.0114504-.015424-.006746-.013441-.0141735.013499-.008865.037845-.004631.054324-.006803.00954-.001243.018912-.008976.027442-.0136065.00793-.004652.015737-.0111686.024082-.003401.00237.00824-.0061.0127843-.010641.0170081-.015287.0136665-.02897.0289154-.040883.0447882.00735.00723.018493.002151.030802.003401.00476.00041689.011838.002559.016801.003401.00597.00082884.012593-.00082911.017361 0 .00833.002088.00845.0141735.016801.0141735.013493 0 .015027-.0117282.00728-.0209767.00237-.009437.00676-.017741.00336-.0243784-.00616-.0124542-.02961.002309-.030802-.0136065-.000763-.010027.00986-.0133189.013441-.0209767-.00158-.0193018.015984-.0204795.014001-.0379849-.000983-.007224-.00904-.00675-.014001-.0136065-.00257-.003761-.00375-.0109666-.00672-.0136065-.010317-.008857-.02961-.007496-.030802-.0243784-.0005472-.0100321.00139-.0169583 0-.02778-.00139-.0102392-.011428-.0393799-.020161-.0413865-.011118-.002501-.0175.0181557-.030802.0243784-.00714.003344-.020094.004907-.027442.003401-.00477-.00082896-.012839-.004905-.013441-.0141735-.000401-.003857.0003799-.005895.00168-.007938.088747-.026501.1807731-.0400555.2733002-.0402541zm-.4071482.09184412c-.011274.0276341-.037948.0434319-.072805.0425204-.00914.008857-.00514.0257029-.010081.0379849-.00417.0102315-.01732.0184125-.027442.0175751-.00735-.00041469-.020721-.010565-.020721-.0175751 0-.003127.00176-.006489.00336-.009638.040755-.0268171.083438-.0505057.127689-.0708673zm.838378.0289139c-.00366.00082397-.00687.00173-.010081.003401-.00755.004644-.00825.011397-.014001.0136065-.00814.002926-.018969.002776-.020161.0102049-.0009862.006233.00693.008536.00672.0141735-.00298.00744-.0085.00799-.010081.0170082.010122.0166682.035095.00021923.047603-.003401.00555-.001667.010458.00076777.013441-.003401.00338-.005429.0008249-.0161669.00336-.0238114.00279-.008442.011637-.006744.010641-.0141735-.0007651-.00744-.015132-.0147772-.027442-.0136065zm1.0912287.12429786v2.56880024h1.0075098v-2.56880032zm-2.1704234.00723189c.00587.008508.0089.0187209-.0028.0238114-.00181.00074603-.020299.003156-.027442.002834.0099-.009092.019982-.0179751.030242-.0266454zm.024642.0306147c.00476.00027426.00788.009789.013441.0102049.00536.00041695.014175-.004531.017361-.003401.00833.002085.011316.0181579.00336.0243784-.00656.00083378-.00867-.0078-.013441-.006803-.013501.002501-.01732.0286179-.027442.02778-.00953-.00082939-.016454-.0207586-.00672-.02778.0002168-.006003-.00377-.00754-.00336-.0136065.00298-.003752.00885-.0113514.016801-.0107728zm-.042003.006236c.0003725-.00015785.000632-.00005686.00112.00056693-.00139.010655-.00531.0125614-.013441.0175751-.014096.00865-.022879.0194758-.027442.0379849-.00139.005431-.01733.0218371-.024082.0204098-.015682-.003346.00652-.0333879.010081-.0379849.00398-.00501.00944-.007967.014001-.0136065.00236-.002923.00354-.007704.00504-.0119057.00315-.003425.00632-.006826.00952-.0102049.00632-.00189.016177-.002605.022962-.002268.00138 0 .00185-.000413.00224-.00056693zm1.342413.028347c.015684-.00082829.023089.0181804.030242.02778.00595.007844.02443.0183808.034162.0238114.00556.00293.011206.007963.017361.0107718.00366.001656.00806.00357.012881.006236.00826.0111649.016294.0225062.024082.0340163-.0007478.005277-.00367.009468-.0028.0147404.00417.00074603.00661-.001863.00896-.005669.02512.0365791.04776.0748408.067765.11452175-.0008484.00148-.00131.00287-.00168.0051-.00199.011233.00658.025772-.010081.02778-.010512.00125-.023031-.01039-.037523-.013607-.00595-.00124-.015953.00167-.020721 0-.010926-.00377-.00747-.017741-.016801-.024379-.00536-.003766-.018902-.009192-.027442-.0102052-.00536-.00041505-.00844.00082859-.014001 0-.00675-.00082291-.017962-.00011095-.023522-.003401-.00536-.003341-.019334-.009526-.020721-.0141735-.00218-.007441.016959-.0175909.017361-.0238114.0004443-.004817-.00628-.006945-.00728-.0141735-.000768-.004443.000984-.0107628 0-.0136065-.00139-.005223-.00866-.009997-.016801-.0102049-.00715 0-.014566.003401-.020721.003401-.00874.00027428-.026608-.004531-.037523-.003401-.00655.00041689-.010642.002984-.016801.003401-.017273.00124-.027382-.00082852-.040883 0-.00973.00041688-.028387.005981-.037523.0102049-.00456.002096-.00804.007199-.014001.0102049-.00277.00124-.00649.001734-.010081.003401-.00556.002513-.014808.008822-.020161.0102049-.00774.002095-.016707-.00041511-.030802 0-.010122.00041361-.027236-.001449-.027442-.0136065-.000218-.0186802.033492-.0109601.050963-.0141735.00655-.00124.00942-.008953.017361-.0136065.00377-.002096.00652-.004412.010081-.006803.00596-.004213.016363-.0127698.017361-.0175751.0007694-.004443-.00452-.0103899-.00392-.0136065.0007651-.004213.00865-.008185.014001-.0136065.00834-.008448.013754-.0189477.024082-.0243783.00695-.003763.020346-.004599.023522-.0102049.0007678-.00644-.0002191-.008327 0-.0141735.00436-.004158.00314-.006013.00672-.006803.010729-.00249.021657.004236.034162.003401.00536-.00027428.011607.00036075.017361-.003401.00476-.003346.00868-.007789.013441-.0102049.00517-.00293.011-.009832.017361-.0102049zm-1.2208846.009638c.00254-.00025598.0046-.00047575.0056.00056694-.00318.0132419-.033915.008338-.044243.003401.0002059-.0025.0041-.002985.00672-.003401.00263-.00041503.00747.00027831.010641 0 .00456-.00027846.00848 0 .013441 0 .00248 0 .00529-.00030706.00784-.00056694zm1.2253649.0232445c-.000271.00027439-.0001399.001284-.00112.001701-.00655.002084-.00973.0152199 0 .0170082.00456-.00293.00456-.008557.00336-.0170082-.0013-.00147-.00195-.001964-.00224-.001701zm-1.2897693.001134c.00168-.00015832.00382-.00005228.0056.00056693-.00913.007844-.02164.0119945-.037523.0170082-.00754.00249-.019334.004914-.020722-.003401-.00159-.0104443.00669-.009196.013441-.0102049.00873-.00082283.02404-.003401.034162-.003401.00169 0 .00335-.00040928.00504-.00056693zm1.285289.0283469c-.00318.00082285-.00729-.0002181-.010641.003401.0002191.0112331.00218.0173941 0 .0272131.00635.0124487.020906.004915.024082-.003401.00377-.0208809-.0039-.029846-.013441-.0272131zm.085126.0549931c-.00873-.00041689-.015563.002843-.020721.006803.00735.0120681.021044.014569.037523.0175751.00595-.004432.00451-.0167316.00728-.0243784-.00715 0-.011986.00041503-.020721 0zm-1.72715988.43257465c.005342.00671.0105665.013018.0173612.016441.00497.0025.0110105.00215.0173612.0034.005161.0008229.008488.00521.0134409.0068.0105275.00377.0258176.00284.0341624.0068.0127058.00564.0198759.028144.0308021.034583.00054707.00643-.001983.012769 0 .017575.005164.00703.0151768.00895.0235216.013607.0101221.00564.0145447.019946.0240817.024379.003373.00123.008271-.00167.0134409 0 .013103.00417.016127.023834.027442.020409.00735-.00209.00947-.013179.010641-.020409.00497-.00543.00905-.014174.016801-.014174.012306-.0002766.016159.015537.020722.02778.00257.00681.0083.013747.010081.020976.00298.01245.00257.047566 0 .054993-.00318.00922-.016539.014307-.024082.024379-.00358.00482-.00732.01039-.010081.013607-.00477.00601-.010414.00875-.014001.014174-.00199.00293-.00158.00938-.00336.013607-.00596.012865-.015044.022485-.010081.037985.00199.00624.010081.01355.010081.020977 0 .00887-.018774.010751-.020161.020409-.0009786.00703.00791.021735.010081.031181.00159.00703.0132.012978.017361.017575.00694.00785.013811.017175.020161.027213.012505.019469.018498.043274.030802.062363.00656.00986.019714.017336.024082.02778.00218.00522-.00199.015605 0 .020409.00714.016294.041603.033356.057684.041387.00754.00377.013775.00675.020721.010772.010523.00601.032169.017778.037523.027213.00477.00844.00771.027934.010081.041387.00298.017672-.0007634.033056 0 .052159.0005419.010444.00336.017324.00336.02778 0 .00377.0002191.00997 0 .013607-.0002189.012449.0009841.025325 0 .037985-.000547.00681-.0004366.015173 0 .020976.0005419.00624.00633.00817.00672.013607.0004444.0058-.00733.012411-.00672.017008.00139.012657.014977.022926.017361.034583.00199.00922.00455.030349.00336.041387-.0007261.0055-.00251.013557-.00336.019843-.27726734-.1812729-.44488064-.4924561-.44523152-.8265898.0002801-.039431.002898-.07881.007841-.1179232z" fill="#d0d0d0" stroke-width=".490868"/></svg>