<?xml version="1.0" encoding="UTF-8" standalone="no"?><svg height="22" viewBox="0 0 5.8208332 5.8208335" width="22" xmlns="http://www.w3.org/2000/svg"><sodipodi:namedview/><metadata><rdf:RDF><cc:Work><dc:format>image/svg+xml</dc:format><dc:type/><dc:title/><cc:license/><dc:creator><cc:Agent><dc:title>PixelPimps &amp; CodePoets</dc:title></cc:Agent></dc:creator></cc:Work><cc:License><cc:permits/><cc:permits/><cc:requires/><cc:requires/><cc:permits/></cc:License></rdf:RDF></metadata><path d="m10.929688 1.2949219c-.453757.02336-.866128.2747417-1.0937505.6679687l-9.65625 16.7343754c-.5120225.893207.13060342 2.006764 1.1601563 2.009765h19.3203122c1.029552-.003 1.672179-1.116558 1.160156-2.009765l-9.65625-16.7343754c-.252915-.4370803-.730129-.6952087-1.234374-.6679687zm-.03111 2.7407711c1.079993 0 2.046499.8723186 1.947792 1.9477926l-.788979 8.6115294c-.06147.669765-.516665 1.165538-1.158813 1.165538-.64215 0-1.0973439-.495774-1.1588136-1.165538l-.7912167-8.6115294c-.0987065-1.075474.8700399-1.9477926 1.9500343-1.9477926zm.0067 12.829879c.836851-.000071 1.51527.678349 1.515198 1.5152.0013.837725-.677471 1.517511-1.515198 1.517439-.838602.0013-1.5187532-.678837-1.5174404-1.517439-.0000728-.837728.6797144-1.516511 1.5174404-1.5152z" fill="#d0d0d0" fill-rule="evenodd" transform="scale(.26458333)"/></svg>