<?xml version="1.0" encoding="UTF-8" standalone="no"?><svg height="22" viewBox="0 0 5.8208332 5.8208335" width="22" xmlns="http://www.w3.org/2000/svg"><sodipodi:namedview/><metadata><rdf:RDF><cc:Work><dc:format>image/svg+xml</dc:format><dc:type/><dc:title/><cc:license/><dc:creator><cc:Agent><dc:title>PixelPimps &amp; CodePoets</dc:title></cc:Agent></dc:creator></cc:Work><cc:License><cc:permits/><cc:permits/><cc:requires/><cc:requires/><cc:permits/></cc:License></rdf:RDF></metadata><path d="m1.5757301 0c-.3070658.31086678-.59573601.60375259-.387373.9646585l1.2631706 2.1654353-.5481703.871173c-.1308891-.0664076-.2797026-.1052649-.4360946-.1052649-.53173528 0-.96241577.4306811-.96241577.9624156 0 .5317347.43068049.9624158.96241577.9624158.5317345 0 .9624153-.4306811.9624156-.9624158 0-.1948891-.020004-.2935049-.1196111-.4450854-.0024-.00386 0-.015041 0-.015041l.3005403-.4568725c.1362726.1352997.2866287-.016914.4372971-.1017619.1461375.1941357.0009625-.00585.4526554.5512752-.1200567.1603872-.129074.3721473-.098123.5517687.082118.4765811.4193988.8781327.9511335.8781327.5317348 0 .9624157-.4306811.9624157-.9624158 0-.5317345-.4306809-.9624156-.9624157-.9624156-.1563932 0-.3047476.038857-.4351545.1052649l-.5049142-.9148954s1.2679822-2.16928509 1.2631705-2.16543537c.2120892-.35890638.0140404-.44458879-.3231016-.87459705l-1.4361064 2.29910092zm-.1094297 4.4264524c.2384451 0 .4319658.1935207.4319658.4319658 0 .2384454-.1935207.431966-.4319658.431966-.2384453 0-.4319659-.1935206-.4319659-.431966 0-.2384451.1935206-.4319658.4319659-.4319658zm2.8872471-.015314c.2468938 0 .4472713.2003773.4472713.4472711s-.2003775.4472711-.4472713.4472711c-.2468937 0-.4472712-.2003773-.4472712-.4472711s.2003775-.4472711.4472712-.4472711z" fill="#fff"/></svg>