<?xml version="1.0" encoding="UTF-8" standalone="no"?><svg height="16" viewBox="0 0 4.2333332 4.2333332" width="16" xmlns="http://www.w3.org/2000/svg"><sodipodi:namedview/><metadata><rdf:RDF><cc:Work><dc:format>image/svg+xml</dc:format><dc:type/><dc:title/></cc:Work></rdf:RDF></metadata><path d="m .14565855-.00000005c-.080699 0-.1456585.06496-.1456585.1456586v1.03597405c0 .080699.06496.1456586.1456585.1456586h1.03597405c.080699 0 .1456586-.064959.1456586-.1456586v-1.03597405c0-.080699-.064959-.1456586-.1456586-.1456586zm2.90604185 0c-.080699 0-.1456585.06496-.1456585.1456586v1.03597405c0 .080699.064959.1456586.1456585.1456586h1.0359741c.080699 0 .1456586-.064959.1456586-.1456586v-1.03597405c0-.080699-.06496-.1456586-.1456586-.1456586zm-.4131582.0004895c-.010033-.0007135-.020078-.0005144-.030136.0008129-.3365651 0-.6731614-.0000001-1.0097264 0-.08802-.00301-.157021.083302-.1456585.1681797.0004977.3427884-.00109.6856019.000647 1.02835895.00584.084271.09079.1413498.1712582.1307525.341537-.0004953.6831267.0009332 1.0246325-.0008105.084271-.00584.1413497-.090628.1307525-.1710961-.0004953-.34153705.000933-.68312675-.0008105-1.02463255-.00511-.073737-.070726-.12659-.1409599-.1315625zm-.8243723.2508113c.1007716.1007849.2016677.2014451.3024967.3021726.1008288-.1007275.201725-.2013877.3024966-.3021726l.1114717.1114717c-.1007716.1007848-.2016677.2014452-.3024966.3021727.1008289.1007275.2017251.2013876.3024966.3021726l-.1114717.11147165c-.1007716-.10078485-.2016677-.20144505-.3024966-.30217255-.100829.1007276-.2017251.2013877-.3024967.30217255l-.1114718-.11147165c.1007716-.1007849.2016678-.2014451.3024967-.3021726-.1008289-.1007275-.2017251-.2013878-.3024967-.3021727zm.8243723 1.20091335c-.010033-.0007101-.020078-.0005143-.030136.0008105-.3365651 0-.6731614-.0000001-1.0097264 0-.08802-.00301-.157021.083301-.1456585.1681797.0004977.3427884-.00109.6856019.000647 1.0283591.00584.084271.09079.1413497.1712582.1307524.341537-.0004977.6831267.0009333 1.0246325-.0008129.084271-.00584.1413497-.090628.1307525-.1710962-.0004953-.3415371.000933-.6831267-.0008105-1.0246325-.00511-.073737-.070726-.12659-.1409599-.1315626zm-2.49029125.00211c-.080699 0-.1456585.06496-.1456585.1456586v1.0359707c0 .080699.06496.1456587.1456585.1456585h1.03597415c.080699 0 .1456586-.064959.1456586-.1456585v-1.0359778c0-.080699-.06496-.1456585-.1456586-.1456585zm2.90344945 0c-.080699 0-.1456585.06496-.1456585.1456586v1.0359707c0 .080699.064959.1456587.1456585.1456585h1.0359741c.080699 0 .1456586-.064959.1456586-.1456585v-1.0359778c0-.080699-.06496-.1456585-.1456586-.1456585zm-1.2375305.2486981c.1007716.1007848.2016677.2014451.3024967.3021726.1008288-.1007275.201725-.2013878.3024966-.3021726l.1114717.1114717c-.1007716.1007847-.2016677.2014451-.3024966.3021726.1008289.1007275.2017251.2013877.3024966.3021726l-.1114717.1114718c-.1007716-.1007849-.2016677-.2014452-.3024966-.3021726-.100829.1007275-.2017251.2013876-.3024967.3021726l-.1114718-.1114718c.1007716-.1007849.2016678-.2014451.3024967-.3021726-.1008289-.1007275-.2017251-.2013878-.3024967-.3021726zm-1.66591895 1.2030196c-.080699 0-.1456585.06496-.1456585.1456586v1.0359738c0 .0807.06496.145659.1456585.145659h1.03597405c.080699 0 .1456586-.06496.1456586-.145659v-1.0359738c0-.080699-.06496-.1456585-.1456586-.1456586zm1.45172475 0c-.080699 0-.1456585.06496-.1456585.1456586v1.0359738c0 .0807.064959.145659.1456585.145659h1.0359741c.080699 0 .1456585-.06496.1456585-.145659v-1.0359738c0-.080699-.06496-.1456585-.1456585-.1456586zm1.4517247 0c-.080699 0-.1456585.06496-.1456585.1456586v1.0359738c0 .0807.064959.145659.1456585.145659h1.0359741c.080699 0 .1456586-.06496.1456586-.145659v-1.0359738c0-.080699-.06496-.1456586-.1456586-.1456586zm-2.37979155.1573242c.2739575 0 .49789615.2239385.49789615.4978962.0000001.2739575-.22393865.497896-.49789615.497896-.2739576 0-.4972481-.2239385-.4972481-.497896 0-.2739577.2232905-.4978962.4972481-.4978962zm1.45172465 0c .2739576 0 .4978962.2239385.4978962.4978962.0000001.2739575-.2239386.497896-.4978962.497896-.2739575 0-.4972481-.2239385-.4972481-.497896 0-.2739577.2232906-.4978962.4972481-.4978962zm-1.45172465.1574862c-.1887756 0-.339924.1516343-.339924.34041 0 .1887756.1511484.339924.339924.339924s.34040995-.1511484.34040995-.339924c0-.1887757-.15163435-.34041-.34040995-.34041zm1.45172465 0c-.1887755 0-.3399239.1516343-.3399239.34041 0 .1887756.1511484.339924.3399239.339924.1887756 0 .34041-.1511484.34041-.339924 0-.1887757-.1516344-.34041-.34041-.34041z" fill="#d0d0d0"/></svg>