<?xml version="1.0" encoding="UTF-8" standalone="no"?><svg height="16" viewBox="0 0 4.2333333 4.2333333" width="16" xmlns="http://www.w3.org/2000/svg"><sodipodi:namedview/><metadata><rdf:RDF><cc:Work><dc:format>image/svg+xml</dc:format><dc:type/><dc:title/></cc:Work></rdf:RDF></metadata><path d="m2.5402658-.00000131c.177475.698934-.625638.909981-.915537 1.34529301-.197511.296552.09689.61518.498061.977135-.156435-.35358-.686983-.663045.00029-1.205807.857056-.67661601.417186-1.11662101.417186-1.11662101zm.530331.864637s-1.449255.36194501-.757065 1.15952101c.204198.235096-.05364.44667-.05364.44667s.518495-.267672.280375-.602848c-.222397-.312572-.392951-.467872.53033-1.00334301zm.256686 1.42463001c-.05092.000099-.104972.009-.160435.02855-.04454.01582-.06786.05235-.06786.05235s.02801-.01133.09084-.0244c.256319-.05343.623536.343186-.170708.755906-.0037.0098-.01596.0208-.01596.02079.944732-.248355.738718-.833996.324122-.833192zm-1.70193.04038c-.06221-.0014-.33118.0026-.652724.158005-.434524.210188 1.074831.305772 1.856147.100285.08123-.05546.193506-.103539.193506-.103539s-.319713.05711-.638127.08397c-.389613.03265-.807894.03899-1.017717.0109-.496938-.06636.272464-.249109.272464-.249109s-.0047-.000308-.013549-.000512zm-.165516.480745c-.717064.237995.398963.50787 1.400941.214878-.106503-.03755-.174229-.106213-.174229-.106213-.489693.09429-.77269.09128-1.131039.05431-.277109-.02866-.09567-.162975-.09567-.162975zm.101266.463474c-.650919.181879.395936.557642 1.224661.202465-.135736-.05278-.232929-.113724-.232929-.113724-.36968.06997-.541143.07544-.876604.03717-.276904-.03183-.115128-.125914-.115128-.125914zm-.452086.307252c-.292321.009-.864026.271918-.341259.356659 1.689673.274016 3.080126-.123398 2.641848-.321092 0 0 .119719.09865-.131842.174965-.478351.14491-1.990954.188666-2.411147.0058-.151049-.06571.132216-.156899.221318-.176034.09293-.02015.146015-.0164.146015-.0164-.02625-.01849-.0708-.02554-.124933-.02387zm2.568751.251092s-.05329.136762-.630058.245364c-.650703.122455-1.453265.108164-1.929266.02969.000012-.000012.09745.08063.598503.112765.762374.0488 1.933095-.02708 1.960821-.387814z" fill="#d0d0d0" stroke-width=".01141"/></svg>