<?xml version="1.0" encoding="UTF-8" standalone="no"?><svg height="16" viewBox="0 0 4.2333332 4.2333332" width="16" xmlns="http://www.w3.org/2000/svg"><sodipodi:namedview/><metadata><rdf:RDF><cc:Work><dc:format>image/svg+xml</dc:format><dc:type/><dc:title/></cc:Work></rdf:RDF></metadata><path d="m2.1166665-.00000007a.35277779.35277779 0 0 0 -.3527778.35277779.35277779.35277779 0 0 0  .3527778.35277778.35277779.35277779 0 0 0  .3527777-.35277778.35277779.35277779 0 0 0 -.3527777-.35277779zm-1.41111107 1.05833327c-.19544468 0-.35277775.1573331-.35277775.3527778v1.7638889c0 .1954446.15733307.3527779.35277775.3527779h1.05833327v.3527778h-.7055556v.3527777h2.1166668v-.3527777h-.7055557v-.3527778h1.0583334c.1954446 0 .3527779-.1573333.3527779-.3527779v-1.7638889c0-.1954447-.1573333-.3527778-.3527779-.3527778zm.35277767.3527778h2.1166668c.1954389 0 .3527777.1573389.3527777.3527778s-.1573388.3527777-.3527777.3527777h-2.1166668c-.19543888 0-.35277767-.1573388-.35277767-.3527777s.15733879-.3527778.35277767-.3527778z" fill="#d0d0d0"/></svg>