<?xml version="1.0" encoding="UTF-8" standalone="no"?>
<!-- Created with Inkscape (http://www.inkscape.org/) -->

<svg
   xmlns:dc="http://purl.org/dc/elements/1.1/"
   xmlns:cc="http://creativecommons.org/ns#"
   xmlns:rdf="http://www.w3.org/1999/02/22-rdf-syntax-ns#"
   xmlns:svg="http://www.w3.org/2000/svg"
   xmlns="http://www.w3.org/2000/svg"
   xmlns:sodipodi="http://sodipodi.sourceforge.net/DTD/sodipodi-0.dtd"
   xmlns:inkscape="http://www.inkscape.org/namespaces/inkscape"
   width="16"
   height="16"
   viewBox="0 0 4.2333332 4.2333332"
   version="1.1"
   id="svg8"
   inkscape:version="0.92+devel (b8837397f6, 2017-07-27, custom)"
   sodipodi:docname="glyph-ardour.svg">
  <defs
     id="defs2" />
  <sodipodi:namedview
     id="base"
     pagecolor="#002466"
     bordercolor="#ffffff"
     borderopacity="0.38039216"
     inkscape:pageopacity="1"
     inkscape:pageshadow="2"
     inkscape:zoom="12.875"
     inkscape:cx="10.094581"
     inkscape:cy="7.9162778"
     inkscape:document-units="px"
     inkscape:current-layer="svg8"
     inkscape:document-rotation="0"
     showgrid="false"
     inkscape:showpageshadow="false"
     borderlayer="true"
     inkscape:window-width="1920"
     inkscape:window-height="1051"
     inkscape:window-x="0"
     inkscape:window-y="0"
     inkscape:window-maximized="1"
     units="px" />
  <metadata
     id="metadata5">
    <rdf:RDF>
      <cc:Work
         rdf:about="">
        <dc:format>image/svg+xml</dc:format>
        <dc:type
           rdf:resource="http://purl.org/dc/dcmitype/StillImage" />
        <dc:title></dc:title>
      </cc:Work>
    </rdf:RDF>
  </metadata>
  <path
     inkscape:connector-curvature="0"
     style="fill:#d0d0d0;stroke-width:0.26458332"
     d="M 2.1246937,0.1828222 0,4.0503281 3.55505e-4,4.050511 c 0,0 0.921984395,-0.3648767 1.602616895,-0.3788491 0.6146972,-0.012602 0.94437,0.1658944 1.3928587,0.2489987 0.5921401,0.1098619 0.49573,0.08793 0.7560927,0.099528 0.2794493,0.012419 0.4814094,0.026577 0.4814094,0.026577 z m 0.010167,0.7029398 1.461886,2.7058094 c 0,0 0.00844,0.020952 -0.029608,0.010167 -0.035775,-0.010178 -0.066388,-0.040112 -0.1034531,-0.036922 -0.031216,0.00266 -0.049887,0.047745 -0.0808,0.042808 -0.044204,-0.00706 -0.066921,-0.091187 -0.111657,-0.089896 -0.03942,0.00114 -0.029606,0.076626 -0.088469,0.081335 -0.05218,0.00441 -0.043758,-0.1388225 -0.096318,-0.1432277 -0.035622,-0.00296 -0.043551,0.1475843 -0.087756,0.1475085 -0.046787,0 0.00198,-0.2165336 -0.06546,-0.2201034 -0.052787,-0.00281 -0.023773,0.1900883 -0.071168,0.1903163 -0.065395,3.013e-4 -0.00995,-0.3158261 -0.09061,-0.314459 -0.057344,9.133e-4 0.00439,0.2925395 -0.070276,0.2916281 -0.068737,-8.31e-4 -0.00256,-0.4512047 -0.07973,-0.4457361 -0.063648,0.00448 0.00778,0.4028628 -0.06225,0.4045337 -0.08484,0.00197 -3.196e-4,-0.554926 -0.084545,-0.5556096 -0.07451,-6.849e-4 -0.00778,0.4926464 -0.075984,0.4926464 -0.083092,0 3.288e-4,-0.6365126 -0.078659,-0.64069 -0.085979,-0.00456 0.020952,0.6394115 -0.072773,0.638728 -0.09046,-6.849e-4 0.025799,-0.8080982 -0.079016,-0.8158453 -0.085827,-0.0063 0.023537,0.755783 -0.064568,0.7591249 -0.092511,0.00349 0.027935,-0.8876771 -0.081513,-0.887905 -0.08013,-2.283e-4 0.00561,0.8537872 -0.077411,0.8657877 -0.076712,-0.016937 0.015424,-0.9428946 -0.0742,-0.9431984 -0.092511,-3.014e-4 0.015512,0.9205596 -0.080265,0.9226863 -0.080282,0.00106 0.034076,-0.9240398 -0.071346,-0.920546 -0.096916,0.00289 0.00387,0.9168924 -0.075806,0.9153735 -0.085979,-9.872e-4 0.022006,-0.8454198 -0.074378,-0.8401031 -0.073446,0.037977 -0.00282,0.6531355 -0.073308,0.8484862 -0.077244,-0.076712 0.00546,-0.6048006 -0.080443,-0.697767 -0.070484,0.101473 -0.01525,0.7106495 -0.072595,0.7129281 -0.070408,0.00342 -0.00352,-0.4779224 -0.079016,-0.4824795 -0.045192,-0.00273 -0.06913,0.5450997 -0.1244993,0.5472264 -0.064332,0.00646 -0.057339,-0.3081335 -0.101847,-0.3071461 -0.051572,0.00661 -0.037918,0.3443024 -0.1055925,0.3451379 -0.038888,0.00927 -0.048332,-0.1331922 -0.083119,-0.1298503 -0.031216,0.00296 -0.037076,0.1497939 -0.088648,0.1762255 -0.047167,0.00638 -0.0242,-0.044904 0.012485,-0.1250345 l -3.555e-4,-1.827e-4 z"
     id="use15"
     inkscape:label="#" />
</svg>
