<?xml version="1.0" encoding="UTF-8" standalone="no"?>
<!-- Created with Inkscape (http://www.inkscape.org/) -->

<svg
     xmlns:dc="http://purl.org/dc/elements/1.1/"
     xmlns:cc="http://creativecommons.org/ns#"
     xmlns:rdf="http://www.w3.org/1999/02/22-rdf-syntax-ns#"
     xmlns:svg="http://www.w3.org/2000/svg"
     xmlns="http://www.w3.org/2000/svg"
     xmlns:sodipodi="http://sodipodi.sourceforge.net/DTD/sodipodi-0.dtd"
     xmlns:inkscape="http://www.inkscape.org/namespaces/inkscape"
     width="16"
     height="16"
     viewBox="0 0 4.2333333 4.2333333"
     version="1.1"
     id="svg8"
     inkscape:version="0.92+devel (fa9b7f7a5b, 2017-07-19, custom)"
     sodipodi:docname="glyph-ms-onenote.svg">
    <defs
         id="defs2" />
    <sodipodi:namedview
         id="base"
         pagecolor="#002466"
         bordercolor="#ffffff"
         borderopacity="0.38039216"
         inkscape:pageopacity="1"
         inkscape:pageshadow="2"
         inkscape:zoom="27.320051"
         inkscape:cx="3.34071"
         inkscape:cy="9.4389656"
         inkscape:document-units="px"
         inkscape:current-layer="svg8"
         inkscape:document-rotation="0"
         showgrid="false"
         inkscape:showpageshadow="false"
         borderlayer="true"
         inkscape:window-width="1920"
         inkscape:window-height="1051"
         inkscape:window-x="0"
         inkscape:window-y="0"
         inkscape:window-maximized="1"
         units="px"
         inkscape:object-paths="true" />
    <metadata
         id="metadata5">
        <rdf:RDF>
            <cc:Work
                 rdf:about="">
                <dc:format>image/svg+xml</dc:format>
                <dc:type
                     rdf:resource="http://purl.org/dc/dcmitype/StillImage" />
                <dc:title></dc:title>
            </cc:Work>
        </rdf:RDF>
    </metadata>
    <path
         style="fill:#d0d0d0;stroke-width:0.14883845"
         d="M 8.5585938 0 C 5.7064148 0.50797304 2.8519038 0.99358844 0 1.4921875 C 0 5.8308463 -0.0019241575 10.171273 0 14.511719 C 2.83717 15.008532 5.6782577 15.482791 8.5097656 16 L 9.671875 16 L 9.671875 14.511719 C 11.534139 14.511719 13.01634 14.509307 14.878906 14.517578 C 15.195041 14.502725 15.548734 14.525536 15.820312 14.332031 C 16.038013 13.999074 15.980758 13.582871 16 13.207031 C 15.972523 9.5419043 16.012103 5.8760924 15.980469 2.2109375 C 16.019447 1.7867471 15.687864 1.4551659 15.263672 1.4980469 C 13.274745 1.4678107 11.662589 1.4992733 9.671875 1.4882812 L 9.671875 0 L 8.5585938 0 z M 9.6503906 2.2109375 L 14.861328 2.2109375 C 15.077748 2.2109375 15.251953 2.3851441 15.251953 2.6015625 L 15.251953 13.273438 C 15.251953 13.489857 15.077746 13.664062 14.861328 13.664062 L 9.6503906 13.664062 L 9.6503906 12.300781 L 13.974609 12.300781 L 13.974609 11.199219 L 9.6503906 11.199219 L 9.6503906 9.7695312 L 13.974609 9.7695312 L 13.974609 8.6699219 L 9.6503906 8.6699219 L 9.6503906 7.2402344 L 13.974609 7.2402344 L 13.974609 6.1386719 L 9.6503906 6.1386719 L 9.6503906 4.7109375 L 13.974609 4.7109375 L 13.974609 3.609375 L 9.6503906 3.609375 L 9.6503906 2.2109375 z M 5.3945312 4.5898438 L 5.3945312 11.007812 L 4.2148438 10.886719 L 4.2148438 6.4433594 C 3.7840774 6.8461542 3.5045336 7.1448849 2.9199219 7.3378906 L 2.9199219 6.4941406 C 3.6188122 6.0381588 4.0296425 5.4253782 4.4375 4.7109375 L 5.3945312 4.5898438 z "
         transform="scale(0.26458333)"
         id="path2" />
    <g
         aria-label="1"
         style="font-size:2.00394416px;font-family:'Arial Black';-inkscape-font-specification:'Arial Black, ';fill:#008000;stroke-width:0.26458332"
         id="text833" />
</svg>
