<?xml version="1.0" encoding="UTF-8" standalone="no"?><svg height="16" viewBox="0 0 4.2333332 4.2333332" width="16" xmlns="http://www.w3.org/2000/svg"><sodipodi:namedview/><metadata><rdf:RDF><cc:Work><dc:format>image/svg+xml</dc:format><dc:type/><dc:title/></cc:Work></rdf:RDF></metadata><path d="m0 0v6.4003906h1.015625v-6.4003906zm1.8632812 0v6.4003906h1.015625v-6.4003906zm1.8613282 0v6.4003906h1.015625v-6.4003906zm7.5351566 0v6.4003906h1.015625v-6.4003906zm1.861328 0v6.4003906h1.015625v-6.4003906zm1.863281 0v6.4003906h1.015625v-6.4003906zm-9.5664062 5.9667969v4.0664061h1.015625v-4.0664061zm2.03125 0v4.0664061h1.015625v-4.0664061zm2.0332031 0v4.0664061h1.0156251v-4.0664061zm-9.4824219 3.6328125v6.4003906h1.015625v-6.4003906zm1.8632812 0v6.4003906h1.015625v-6.4003906zm1.8613282 0v6.4003906h1.015625v-6.4003906zm7.5351566 0v6.4003906h1.015625v-6.4003906zm1.861328 0v6.4003906h1.015625v-6.4003906zm1.863281 0v6.4003906h1.015625v-6.4003906z" fill="#d0d0d0" transform="scale(.26458333)"/></svg>