<?xml version="1.0" encoding="UTF-8" standalone="no"?>
<!-- Created with Inkscape (http://www.inkscape.org/) -->

<svg
   xmlns:dc="http://purl.org/dc/elements/1.1/"
   xmlns:cc="http://creativecommons.org/ns#"
   xmlns:rdf="http://www.w3.org/1999/02/22-rdf-syntax-ns#"
   xmlns:svg="http://www.w3.org/2000/svg"
   xmlns="http://www.w3.org/2000/svg"
   xmlns:sodipodi="http://sodipodi.sourceforge.net/DTD/sodipodi-0.dtd"
   xmlns:inkscape="http://www.inkscape.org/namespaces/inkscape"
   width="16"
   height="16"
   viewBox="0 0 4.2333332 4.2333332"
   version="1.1"
   id="svg8"
   inkscape:version="0.92+devel (f96dc7e339, 2017-07-28, custom)"
   sodipodi:docname="glyph-flow.svg">
  <defs
     id="defs2">
    <linearGradient
       id="d"
       y1="15"
       x1="12"
       y2="8"
       x2="24"
       gradientUnits="userSpaceOnUse">
      <stop
         stop-color="#2e5d89"
         id="stop17" />
      <stop
         offset="1"
         stop-color="#1b92f4"
         id="stop19" />
    </linearGradient>
    <linearGradient
       gradientTransform="matrix(0.09407349,0,0,0.09407349,0.09406575,-0.14131724)"
       id="c"
       y1="12"
       x1="33"
       y2="24"
       x2="38"
       gradientUnits="userSpaceOnUse">
      <stop
         stop-color="#faae2a"
         id="stop12" />
      <stop
         offset="1"
         stop-color="#ffc35a"
         id="stop14" />
    </linearGradient>
    <linearGradient
       gradientTransform="matrix(0.09407349,0,0,0.09407349,-0.14111949,0.0938679)"
       id="b"
       y1="33"
       x1="36"
       y2="40"
       x2="23"
       gradientUnits="userSpaceOnUse">
      <stop
         stop-color="#06a370"
         id="stop7" />
      <stop
         offset="1"
         stop-color="#22d1b0"
         id="stop9" />
    </linearGradient>
    <linearGradient
       gradientTransform="matrix(0.09407349,0,0,0.09407349,-0.37630463,-0.14131724)"
       id="a"
       y1="37"
       x1="13"
       y2="24"
       x2="8"
       gradientUnits="userSpaceOnUse">
      <stop
         stop-color="#ec4c21"
         id="stop2" />
      <stop
         offset="1"
         stop-color="#ec7b0f"
         id="stop4" />
    </linearGradient>
  </defs>
  <sodipodi:namedview
     id="base"
     pagecolor="#002466"
     bordercolor="#ffffff"
     borderopacity="0.38039216"
     inkscape:pageopacity="1"
     inkscape:pageshadow="2"
     inkscape:zoom="25.75"
     inkscape:cx="10.094581"
     inkscape:cy="7.9162778"
     inkscape:document-units="px"
     inkscape:current-layer="svg8"
     inkscape:document-rotation="0"
     showgrid="false"
     inkscape:showpageshadow="false"
     borderlayer="true"
     inkscape:window-width="1920"
     inkscape:window-height="1051"
     inkscape:window-x="0"
     inkscape:window-y="0"
     inkscape:window-maximized="1"
     units="px" />
  <metadata
     id="metadata5">
    <rdf:RDF>
      <cc:Work
         rdf:about="">
        <dc:format>image/svg+xml</dc:format>
        <dc:type
           rdf:resource="http://purl.org/dc/dcmitype/StillImage" />
        <dc:title></dc:title>
      </cc:Work>
    </rdf:RDF>
  </metadata>
  <path
     style="display:inline;fill:#d0d0d0;stroke-width:1.64041662;stroke-linejoin:bevel"
     d="M 3.0748625,2.9379772 C 2.8757306,3.2630012 2.5215902,3.4801404 2.1166666,3.4804649 V 2.9609447 L 0.83371311,3.7243776 a 1.8814697,1.8814697 0 0 0 1.28295349,0.5089556 1.8814697,1.8814697 0 0 0 1.3729854,-0.598528 1.8814698,1.8814698 0 0 0 0,-4.593e-4 z m 0.4313259,0.6775356 a 1.8814698,1.8814698 0 0 1 -0.012861,0.015158 1.8814697,1.8814697 0 0 0 0.013321,-0.01424 c -1.737e-4,-2.319e-4 -3.128e-4,-6.873e-4 -4.593e-4,-9.156e-4 z"
     id="path37"
     inkscape:connector-curvature="0" />
  <path
     style="display:inline;fill:#d0d0d0;stroke-width:1.64041662;stroke-linejoin:bevel"
     d="m 3.6132161,0.7248481 a 1.8814697,1.8814697 0 0 1 0.012403,0.010106 1.8814697,1.8814697 0 0 0 -0.011024,-0.010106 c -4.576e-4,-2.54e-5 -9.244e-4,2.58e-5 -0.00138,0 z m 0.021589,0.0188328 -0.6963686,0.4143302 c 0.3250791,0.1991198 0.542163,0.5536906 0.5424876,0.9586552 H 2.9609446 L 3.7248371,3.3996201 A 1.8814697,1.8814697 0 0 0 4.2333332,2.1166666 1.8814697,1.8814697 0 0 0 3.6348054,0.7436809 Z"
     id="path39"
     inkscape:connector-curvature="0" />
  <path
     style="display:inline;fill:#d0d0d0;stroke-width:0.26458332"
     d="M 2.1166666,0 A 1.8814697,1.8814697 0 0 0 0.74368129,0.5985279 L 1.0417968,1.0987558 1.1584707,1.2944371 C 1.3576624,0.9695528 1.7119262,0.7524088 2.1166666,0.7524088 l 4.593e-4,-9.156e-4 v 9.156e-4 0.5195204 L 3.4000794,0.5080367 A 1.8814697,1.8814697 0 0 0 2.3183195,0.0133211 l -4.593e-4,-0.00229 a 1.8814697,1.8814697 0 0 0 -0.046853,-0.00276 1.8814697,1.8814697 0 0 0 -0.1318324,-0.0078 1.8814697,1.8814697 0 0 0 -0.019752,-4.593e-4 1.8814697,1.8814697 0 0 0 -0.00276,0 z M 0.73862849,0.6035807 a 1.8814697,1.8814697 0 0 0 -0.008267,0.00919 v 9.156e-4 a 1.8814698,1.8814698 0 0 1 0.008267,-0.0101056 z"
     id="path31"
     inkscape:connector-curvature="0" />
  <path
     style="display:inline;fill:#d0d0d0;stroke-width:1.64041662;stroke-linejoin:bevel"
     d="M 0.50849605,0.8332537 A 1.8814697,1.8814697 0 0 0 -2e-8,2.1166666 1.8814697,1.8814697 0 0 0 0.59852796,3.4891924 L 1.2948965,3.0748625 C 0.96976491,2.8758199 0.75240884,2.52185 0.75240884,2.1166666 H 1.2723886 L 0.80661168,1.3339409 Z m 0.0900319,2.6559387 a 1.8814697,1.8814697 0 0 0 0.007804,0.00735 h 4.5938e-4 a 1.8814698,1.8814698 0 0 1 -0.008267,-0.00735 z"
     id="path35"
     inkscape:connector-curvature="0" />
</svg>
