<?xml version="1.0" encoding="UTF-8" standalone="no"?><svg height="16mm" viewBox="0 0 16 16" width="16mm" xmlns="http://www.w3.org/2000/svg"><sodipodi:namedview/><metadata><rdf:RDF><cc:Work><dc:format>image/svg+xml</dc:format><dc:type/><dc:title/></cc:Work></rdf:RDF></metadata><path d="m19.013672 0c-.475452 0-.859375.38382101-.859375.859375v8.8300781c0 .4755539.383923.8574219.859375.8574219h9.591797c.475455 0 .857422-.381831.857422-.8574219v-8.8300781c0-.47551752-.381971-.859375-.857422-.859375zm12.853516 12.091797c-.475456 0-.859376.37995-.859376.855469v8.828125c0 .475553.38392.859375.859376.859375h9.591796c.475469 0 .857422-.383785.857422-.859375v-8.828125c0-.475555-.38198-.855469-.857422-.855469zm-11.0625 12.779297c-.863437 0-1.518048.696214-1.558594 1.558594l-1.529297 32.482421c-.040554.86256.793942 1.560547 1.777344 1.560547h21.486328c.983395 0 1.815937-.697987 1.77539-1.560547l-1.527343-32.482421c-.040555-.862417-.697114-1.558594-1.560547-1.558594zm2.523437 22.716797h13.816406c.602495 0 1.073446.295683 1.087891.664062l.27539 7.009766c.024567.62265-.501795 1.126953-1.125 1.126953h-14.292968c-.623199 0-1.149416-.504303-1.125-1.126953l.27539-7.009766c.014438-.36839.485401-.664062 1.087891-.664062z" fill="#d0d0d0" stroke-width=".79707" transform="scale(.26458333)"/></svg>