<?xml version="1.0" encoding="UTF-8" standalone="no"?>
<!-- Created with Inkscape (http://www.inkscape.org/) -->

<svg
     xmlns:dc="http://purl.org/dc/elements/1.1/"
     xmlns:cc="http://creativecommons.org/ns#"
     xmlns:rdf="http://www.w3.org/1999/02/22-rdf-syntax-ns#"
     xmlns:svg="http://www.w3.org/2000/svg"
     xmlns="http://www.w3.org/2000/svg"
     xmlns:sodipodi="http://sodipodi.sourceforge.net/DTD/sodipodi-0.dtd"
     xmlns:inkscape="http://www.inkscape.org/namespaces/inkscape"
     width="16"
     height="16"
     viewBox="0 0 4.2333333 4.2333333"
     version="1.1"
     id="svg8"
     inkscape:version="0.92+devel (fa9b7f7a5b, 2017-07-19, custom)"
     sodipodi:docname="glyph-initial.svg">
    <defs
         id="defs2" />
    <sodipodi:namedview
         id="base"
         pagecolor="#002466"
         bordercolor="#ffffff"
         borderopacity="0.38039216"
         inkscape:pageopacity="1"
         inkscape:pageshadow="2"
         inkscape:zoom="13"
         inkscape:cx="1.6153846"
         inkscape:cy="24.07642"
         inkscape:document-units="px"
         inkscape:current-layer="svg8"
         inkscape:document-rotation="0"
         showgrid="false"
         inkscape:showpageshadow="false"
         borderlayer="true"
         inkscape:window-width="1920"
         inkscape:window-height="1051"
         inkscape:window-x="0"
         inkscape:window-y="0"
         inkscape:window-maximized="1"
         units="px" />
    <metadata
         id="metadata5">
        <rdf:RDF>
            <cc:Work
                 rdf:about="">
                <dc:format>image/svg+xml</dc:format>
                <dc:type
                     rdf:resource="http://purl.org/dc/dcmitype/StillImage" />
                <dc:title></dc:title>
            </cc:Work>
        </rdf:RDF>
    </metadata>
    <g
         aria-label="G"
         style="font-size:10.58333302px;font-family:'Olho de Boi';-inkscape-font-specification:'Olho de Boi';stroke-width:0.26458332"
         id="text813">
        <path
             d="M 0.49163719,3.5352832 Q 0.51415492,3.4827421 0.55919038,3.3326236 0.58921401,3.054905 0.88194446,2.7546686 1.1746749,2.4619382 1.4598994,2.4093968 l 0.1651301,-0.082565 q 0.16513,-0.090071 0.1876477,-0.067553 0.015012,-0.022518 0.015012,-0.045035 Q 1.760136,2.1917255 1.7151007,2.056619 1.534959,1.9215126 1.4974294,1.9215126 q -0.030023,0 -0.052541,0.015012 Q 1.3698291,1.8764767 1.212205,1.7488767 L 1.1821815,1.6813235 Q 1.0921106,1.621276 1.0320633,1.4036049 1.0020397,1.0433213 1.3247937,0.53291945 1.3698293,0.48788395 1.4148646,0.42033085 1.7000892,0.22517715 1.7751483,0.1801417 1.9778078,0.05254131 2.1504438,-1.5e-7 q 0.00751,0.0150121 0.00751,0.0375299 -0.1050828,0.0450356 -0.2101655,0.090071 -0.1426166,0.0675533 -0.1726402,0.1276004 -0.060048,0.0225178 -0.1426123,0.1125887 -0.1426122,0.0975767 -0.2176714,0.1801418 -0.022518,0.0300235 -0.052541,0.1050827 -0.1576242,0.1050827 -0.2176714,0.59296675 0.00751,0.045036 0.015012,0.1576241 0.022518,0.052541 0.082565,0.1876476 0.2627068,0.2627069 0.3903073,0.2326834 -0.00751,-0.067553 -0.022518,-0.2251773 0.16513,-0.1951537 0.4653663,-0.63049645 0.067553,-0.0150121 0.1501183,-0.1125886 0.1276004,-0.0750591 0.2251772,-0.2176714 0.2777186,-0.1726359 0.3903073,-0.3152481 0.1125887,-0.045036 0.16513,-0.1125887 0.03753,0.022518 0.247695,-0.0675533 0.1576241,0 0.3002363,0.2552009 0,0.1501182 -0.00751,0.1576241 -0.00751,0.090071 -0.067553,0.1125886 -0.03753,0.067553 -0.060048,0.2251774 Q 3.4039257,0.95325135 3.313855,1.080851 3.306345,1.1484039 3.2087722,1.245981 3.1187012,1.343558 3.1036895,1.3885932 2.9685832,1.4936759 2.9535714,1.4936759 2.9085354,1.561229 2.7434059,1.658806 2.5332404,1.7789005 2.4957109,1.8164301 q -0.075059,0.060047 -0.2251773,0.1876477 -0.1501182,0.030024 -0.16513,0.045035 v 0.045036 q 0.067558,0.037529 0.3227585,0.082565 0.6830377,-0.075059 1.0583331,-0.6079787 0.1501183,-0.1576241 0.1801419,-0.1576241 0.045036,0 0.075059,0.045036 0,0.097577 -0.075059,0.1801419 -0.00751,0.030023 -0.03753,0.090071 Q 3.5165186,1.8464539 3.3363768,2.1241726 3.3063533,2.1541962 3.1337172,2.4319149 3.0811767,2.5144798 2.9385642,2.657092 2.8034578,2.8447398 2.5557628,3.2275411 2.458186,3.325118 2.2630324,3.5127657 l -0.022518,0.067553 Q 2.0753846,3.6778957 2.0303491,3.7904843 1.9402783,3.8580375 1.887737,3.9330966 L 1.6400419,4.0682029 q -0.030023,0 -0.082565,0.060048 Q 1.1071224,4.2333335 1.062087,4.2333335 1.05458,4.2258235 0.85942679,4.2258235 0.64926128,4.1057323 0.57420219,3.9406023 0.50664901,3.8054959 0.49163719,3.5352832 Z M 2.0453604,1.8689712 v 0.030023 q 0.1801418,0.022518 0.1951537,-0.052541 0.03753,-0.030023 0.1426122,-0.075059 0.075059,-0.060048 0.4203309,-0.3152482 0.03753,-0.030023 0.082565,-0.075059 0.1426123,-0.045036 0.3077423,-0.3602836 0.1125886,-0.27771855 0.1125886,-0.36778955 0,-0.052541 -0.022518,-0.1050826 h -0.045036 q -0.00751,0.097577 -0.015012,0.3227541 -0.022518,0.00751 -0.1125886,0.18764765 -0.16513,0.1726359 -0.3527778,0.3452718 -0.082565,0.067553 -0.1576241,0.16513 h -0.03753 q -0.03753,0.052541 -0.2627068,0.1801418 -0.022518,0.052541 -0.1276004,0.082565 -0.1050828,0.022518 -0.127599,0.03753 z M 1.9252659,1.726359 q 0,0.030023 0.015012,0.067553 Q 2.1129139,1.81643 2.5332448,1.5312056 2.6608453,1.4186169 2.8409871,1.238475 3.0211289,1.0508273 3.1262117,0.87068555 q 0.00751,-0.067553 0.022518,-0.2176715 -0.030023,-0.075059 -0.075059,-0.075059 -0.015012,0 -0.067553,0.030023 -0.052541,0.030023 -0.075059,0.030023 -0.030023,0 -0.045036,-0.022518 -0.097577,0.0375309 -0.3152485,0.2401902 Q 2.4206561,0.99828535 2.2705379,1.1484035 2.1354315,1.3210395 1.9252659,1.726359 Z M 0.7393322,3.5352832 q 0.007506,0.1651299 0.007506,0.2026595 0.0150119,0.097577 0.0600473,0.1726359 0.0375296,0.00751 0.11258864,0.030023 0.082565,0.030024 0.12009456,0.030024 0.052541,0 0.2627068,-0.090071 0.3677896,-0.075059 0.5104018,-0.3302601 0.090071,-0.060047 0.247695,-0.2176714 0.052541,-0.015012 0.1125887,-0.097577 0.067553,-0.075059 0.090071,-0.090071 0.082565,-0.1125886 0.240189,-0.3077422 0.015012,-0.052541 0.1801419,-0.2326833 0.1501182,-0.157624 0.1501182,-0.2702127 0,-0.030023 -0.022518,-0.067553 -0.045036,0 -0.157624,0.030023 -0.1050828,0.022518 -0.1501183,0.030023 -0.060048,0.03753 -0.1125886,0.03753 -0.045036,0 -0.075059,-0.030023 -0.067553,0.015012 -0.2176714,0 -0.052541,-0.022518 -0.1276004,-0.045036 -0.00751,0.022518 -0.00751,0.1801418 -0.03753,0.030023 -0.060048,0.1200946 -0.015012,0.082565 -0.03753,0.097577 -0.030023,0.067553 -0.090071,0.2251774 -0.067553,0.090071 -0.247695,0.2101654 V 3.09994 q 0.04504,-0.097577 0.1576289,-0.1951536 0.1501181,-0.2702127 0.1501181,-0.4728723 0,-0.03753 -0.022518,-0.060048 -0.090071,0.00751 -0.2326831,0.1426122 v 0.097577 q -0.022518,0.03753 -0.052541,0.03753 -0.030023,0 -0.060048,-0.060048 -0.1951533,-0.022518 -0.3152479,0.247695 -0.060048,0.030023 -0.1125887,0.1651299 -0.0525413,0.022518 -0.1200945,0.1426123 -0.082565,0.1426123 -0.12009456,0.16513 -0.0150119,0.067553 -0.0600464,0.2251787 z"
             style="stroke-width:0.18764773;fill:#d0d0d0"
             id="path815"
             inkscape:connector-curvature="0" />
    </g>
    <text
         xml:space="preserve"
         style="font-size:10.58333302px;font-family:'Olho de Boi';-inkscape-font-specification:'Olho de Boi';stroke-width:0.26458332"
         x="-7.8042583"
         y="-0.42727092"
         id="text820"><tspan
             sodipodi:role="line"
             id="tspan818"
             x="-7.8042583"
             y="7.2549291"
             style="stroke-width:0.26458332" /></text>
</svg>
