<?xml version="1.0" encoding="UTF-8" standalone="no"?>
<!-- Created with Inkscape (http://www.inkscape.org/) -->

<svg
     xmlns:dc="http://purl.org/dc/elements/1.1/"
     xmlns:cc="http://creativecommons.org/ns#"
     xmlns:rdf="http://www.w3.org/1999/02/22-rdf-syntax-ns#"
     xmlns:svg="http://www.w3.org/2000/svg"
     xmlns="http://www.w3.org/2000/svg"
     xmlns:sodipodi="http://sodipodi.sourceforge.net/DTD/sodipodi-0.dtd"
     xmlns:inkscape="http://www.inkscape.org/namespaces/inkscape"
     width="16mm"
     height="16mm"
     viewBox="0 0 16 16"
     version="1.1"
     id="svg8"
     inkscape:version="0.92+devel (fa9b7f7a5b, 2017-07-19, custom)"
     sodipodi:docname="glyph-vector.svg">
    <defs
         id="defs2" />
    <sodipodi:namedview
         id="base"
         pagecolor="#002466"
         bordercolor="#ffffff"
         borderopacity="0.38039216"
         inkscape:pageopacity="1"
         inkscape:pageshadow="2"
         inkscape:zoom="7.1685545"
         inkscape:cx="35.729835"
         inkscape:cy="16.616071"
         inkscape:document-units="mm"
         inkscape:current-layer="svg8"
         inkscape:document-rotation="0"
         showgrid="false"
         inkscape:showpageshadow="false"
         borderlayer="true"
         inkscape:window-width="1920"
         inkscape:window-height="1051"
         inkscape:window-x="0"
         inkscape:window-y="0"
         inkscape:window-maximized="1" />
    <metadata
         id="metadata5">
        <rdf:RDF>
            <cc:Work
                 rdf:about="">
                <dc:format>image/svg+xml</dc:format>
                <dc:type
                     rdf:resource="http://purl.org/dc/dcmitype/StillImage" />
                <dc:title></dc:title>
            </cc:Work>
        </rdf:RDF>
    </metadata>
    <g
         id="g863"
         inkscape:label="#vector">
        <path
             inkscape:label="#1"
             inkscape:connector-curvature="0"
             id="rect830"
             d="m 0.64814146,2.5877314 v 1.250053 H 1.8981935 v -0.33848 h 4.561996 c -1.360043,0.435298 -2.556192,1.442616 -3.464388,2.798795 -1.018618,1.52106 -1.698412,3.492534 -1.902726,5.6833736 h 1.004589 c 0.202895,-2.0029786 0.834489,-3.7881116 1.730644,-5.1263016 1.099295,-1.64154 2.559139,-2.592089 4.134632,-2.592089 1.575492,0 3.0374025,0.950549 4.1366975,2.592089 0.896393,1.33854 1.527924,3.123162 1.730644,5.1263016 h 1.004073 C 14.630039,9.7906334 13.950245,7.8191594 12.931629,6.2980994 12.023413,4.9418914 10.826212,3.9345874 9.4656905,3.4993044 h 4.5640625 v 0.33848 h 1.249536 v -1.250053 h -1.249536 v 0.338481 H 1.8981935 v -0.338481 z"
             style="opacity:0.6;fill:#d0d0d0;stroke:none;stroke-width:0.66499996;stroke-miterlimit:4;stroke-dasharray:none" />
        <path
             inkscape:label="#2"
             inkscape:connector-curvature="0"
             id="rect828"
             d="m 6.7697315,2.1898234 v 2.387968 h 2.387968 V 2.1898234 Z M 0.40629546,11.981473 v 2.387968 H 2.7942635 v -2.387968 z m 12.72687154,0 v 2.387968 h 2.387968 v -2.387968 z"
             style="fill:#00ff00;stroke:none;stroke-width:0.93498069;stroke-miterlimit:4;stroke-dasharray:none" />
    </g>
</svg>
