<?xml version="1.0" encoding="UTF-8" standalone="no"?>
<!-- Created with Inkscape (http://www.inkscape.org/) -->

<svg
   xmlns:dc="http://purl.org/dc/elements/1.1/"
   xmlns:cc="http://creativecommons.org/ns#"
   xmlns:rdf="http://www.w3.org/1999/02/22-rdf-syntax-ns#"
   xmlns:svg="http://www.w3.org/2000/svg"
   xmlns="http://www.w3.org/2000/svg"
   xmlns:sodipodi="http://sodipodi.sourceforge.net/DTD/sodipodi-0.dtd"
   xmlns:inkscape="http://www.inkscape.org/namespaces/inkscape"
   width="16"
   height="16"
   viewBox="0 0 4.2333332 4.2333332"
   version="1.1"
   id="svg8"
   inkscape:version="0.92+devel (7086fba083, 2017-08-05, custom)"
   sodipodi:docname="glyph-im-jabber.svg">
  <defs
     id="defs2" />
  <sodipodi:namedview
     id="base"
     pagecolor="#002466"
     bordercolor="#ffffff"
     borderopacity="0.38039216"
     inkscape:pageopacity="1"
     inkscape:pageshadow="2"
     inkscape:zoom="36.769553"
     inkscape:cx="8.7328177"
     inkscape:cy="8.3333132"
     inkscape:document-units="px"
     inkscape:current-layer="svg8"
     inkscape:document-rotation="0"
     showgrid="false"
     inkscape:showpageshadow="false"
     borderlayer="true"
     inkscape:window-width="1920"
     inkscape:window-height="1051"
     inkscape:window-x="0"
     inkscape:window-y="0"
     inkscape:window-maximized="1"
     units="px"
     inkscape:snap-global="false" />
  <metadata
     id="metadata5">
    <rdf:RDF>
      <cc:Work
         rdf:about="">
        <dc:format>image/svg+xml</dc:format>
        <dc:type
           rdf:resource="http://purl.org/dc/dcmitype/StillImage" />
        <dc:title></dc:title>
      </cc:Work>
    </rdf:RDF>
  </metadata>
  <path
     style="opacity:1;fill:#d0d0d0;stroke-width:0.28657126"
     d="m 1.9215613,0.00108453 c -0.1914497,0.006779 -0.3910407,0.0453613 -0.5893364,0.11966461 -0.069496,0.0260409 -0.1358114,0.0559679 -0.1995987,0.0884477 -0.023633,0.0120471 -0.045306,0.0259258 -0.06811,0.0387846 -0.037213,0.020957 -0.0743054,0.0418263 -0.10925898,0.0647986 -0.0262679,0.017295 -0.0507396,0.0360419 -0.0756772,0.054393 -0.0305433,0.0224295 -0.0608926,0.0451716 -0.0893937,0.0690555 -0.0231562,0.0194602 -0.0449333,0.0397252 -0.0666906,0.0600688 -0.0249838,0.0232879 -0.0492669,0.047077 -0.0723663,0.0714204 -0.0231367,0.024474 -0.0455122,0.0493032 -0.0666906,0.0747313 -0.0175345,0.0209779 -0.0339722,0.0422941 -0.0501361,0.0638527 -0.022457,0.0300654 -0.0441255,0.0602381 -0.0638527,0.0912856 -0.010219,0.016023 -0.0193804,0.032467 -0.0288519,0.048717 -0.0210976,0.036343 -0.0418386,0.072915 -0.0591228,0.1102051 -0.005524,0.01188 -0.009537,0.023988 -0.0146625,0.035947 C 0.3500905,1.0339216 0.33337012,1.0756126 0.32051501,1.1177966 0.61465619,0.68864789 1.155881,0.42415635 1.7418278,0.42345804 c 0.6222087,6.9986e-4 1.1907876,0.29843854 1.469557,0.76954276 0.00663,-0.041716 0.010671,-0.083651 0.012298,-0.1253404 0.00163,-0.041689 7.846e-4,-0.083064 -0.00284,-0.12439441 -0.00294,-0.033554 -0.00906,-0.066679 -0.015608,-0.099799 -0.00173,-0.00863 -0.00228,-0.017424 -0.00426,-0.026014 C 3.1919519,0.77779639 3.1804725,0.73836015 3.1659785,0.69967991 2.9965945,0.24763889 2.4959101,-0.01925238 1.9215613,0.00108453 Z M 2.937528,0.12926283 C 3.1108191,0.26054427 3.2467458,0.43150913 3.3249007,0.64008408 3.591237,1.3508644 3.0841425,2.1752256 2.2228512,2.4979599 1.3615599,2.8206942 0.43738884,2.532375 0.17105249,1.8215948 0.15006928,1.7655962 0.13534646,1.7089233 0.12375423,1.651794 a 2.0104727,1.935006 0 0 0 -0.0175004,0.2388562 2.0104727,1.935006 0 0 0 0.7742726,1.525369 l 0.003311,-0.0052 C 1.1132887,3.5710313 1.5591145,3.7750126 2.0005494,3.8218385 A 2.0104727,1.935006 0 0 0 2.1164301,3.8256221 2.0104727,1.935006 0 0 0 4.1270793,1.8906502 2.0104727,1.935006 0 0 0 2.937528,0.12926283 Z M 1.2139792,0.97495579 c 0.02415,0.00902 0.048793,0.015225 0.072366,0.026487 0.044301,0.021164 0.087059,0.047074 0.1286512,0.07615 0.022377,0.015405 0.043272,0.034021 0.064799,0.051555 0.017091,0.014164 0.03459,0.027536 0.051082,0.043041 0.027776,0.02567 0.054002,0.053906 0.079934,0.083245 0.00727,0.00833 0.014642,0.016458 0.021757,0.025068 0.0299,0.035772 0.058217,0.073768 0.085137,0.1144618 0.039288,0.05939 0.0749,0.1239671 0.1068941,0.1934499 0.00312,0.00672 0.00594,0.013532 0.00899,0.020338 0.027681,0.062431 0.051807,0.1286714 0.072839,0.1986527 0.00421,0.013804 0.00884,0.027057 0.012771,0.041149 0.017345,0.063121 0.03111,0.1294516 0.042569,0.1981797 0.00389,0.022911 0.00912,0.044578 0.012298,0.06811 0.011786,0.08873 0.019584,0.1810306 0.020811,0.2781138 0.056079,-0.015417 0.1123125,-0.03291 0.1683818,-0.05392 0.1543413,-0.057833 0.2902892,-0.1361763 0.4152787,-0.2232478 2.862e-4,-1.993e-4 6.6e-4,-2.736e-4 9.46e-4,-4.73e-4 -0.00228,-0.02064 -0.00394,-0.050227 -0.00615,-0.067163 C 2.5247507,1.6752388 2.2186578,1.0131042 1.2139792,0.97495579 Z M 0.95809563,1.0879987 c -0.0851747,-0.00338 -0.16986609,0.011463 -0.2511538,0.045406 -0.0393989,0.016452 -0.0781424,0.037716 -0.11588073,0.063853 -0.0308939,0.021397 -0.0606524,0.048445 -0.0898667,0.076623 -0.006703,0.00647 -0.0137401,0.011143 -0.0203382,0.017973 -0.0349008,0.036131 -0.0683768,0.076814 -0.0997993,0.1234485 -0.0286994,0.042593 -0.055337,0.091114 -0.0804071,0.1428407 -0.002558,0.00528 -0.005525,0.00929 -0.008041,0.014663 -8.597e-5,2.811e-4 8.179e-5,6.611e-4 0,9.459e-4 -0.00239,0.00832 -0.003425,0.018033 -0.005676,0.026487 -3.851e-5,1.446e-4 3.946e-5,3.291e-4 0,4.73e-4 0.009595,0.054648 0.0218085,0.1088818 0.0416225,0.16176 0.0207583,0.055398 0.0487251,0.1065347 0.0789881,0.1560843 0.008238,0.013196 0.0157109,0.026977 0.0245951,0.039731 2.0031e-4,2.876e-4 2.7235e-4,6.587e-4 4.7298e-4,9.46e-4 0.0256546,0.037551 0.0557399,0.071776 0.0865558,0.1054751 0.0189701,0.020477 0.0380176,0.040969 0.0586499,0.060069 4.842e-4,4.484e-4 9.3377e-4,9.714e-4 0.001419,0.00142 C 0.84618836,1.6984347 1.2879218,1.6511211 1.7290573,1.8017295 1.7289958,1.8015491 1.7286458,1.8014368 1.7285843,1.8012565 1.6748383,1.6437379 1.6014194,1.5120285 1.5166881,1.40537 1.5089736,1.395754 1.5009413,1.3866481 1.493039,1.377464 1.4590017,1.3375389 1.4231508,1.3022894 1.3861449,1.27057 1.3755128,1.2615292 1.3652791,1.2514998 1.3544551,1.243137 1.308604,1.2074738 1.2614325,1.1763924 1.2130332,1.1532703 1.1291143,1.113179 1.0432703,1.0913776 0.95809563,1.0879987 Z M 1.2537098,3.7962974 C 1.1121461,3.9401969 0.94549601,4.0862659 0.74478045,4.2333332 1.165547,4.1949621 1.4881505,4.0925578 1.7418278,3.9542734 1.5666977,3.9171426 1.4048841,3.8596749 1.2537098,3.7962974 Z"
     id="path825"
     inkscape:label="#"
     inkscape:connector-curvature="0" />
</svg>
