<?xml version="1.0" encoding="UTF-8" standalone="no"?>
<!-- Created with Inkscape (http://www.inkscape.org/) -->

<svg
     xmlns:dc="http://purl.org/dc/elements/1.1/"
     xmlns:cc="http://creativecommons.org/ns#"
     xmlns:rdf="http://www.w3.org/1999/02/22-rdf-syntax-ns#"
     xmlns:svg="http://www.w3.org/2000/svg"
     xmlns="http://www.w3.org/2000/svg"
     xmlns:sodipodi="http://sodipodi.sourceforge.net/DTD/sodipodi-0.dtd"
     xmlns:inkscape="http://www.inkscape.org/namespaces/inkscape"
     width="16"
     height="16"
     viewBox="0 0 4.2333333 4.2333333"
     version="1.1"
     id="svg8"
     inkscape:version="0.92+devel (fa9b7f7a5b, 2017-07-19, custom)"
     sodipodi:docname="glyph-sass.svg">
    <defs
         id="defs2">
        <linearGradient
             x2="54"
             gradientUnits="userSpaceOnUse"
             y2="31"
             x1="40"
             y1="17"
             id="a"
             gradientTransform="matrix(0.26458333,0,0,0.26458333,6.4068536,-8.476478)">
            <stop
                 id="stop7"
                 stop-color="#060606" />
            <stop
                 id="stop9"
                 stop-opacity="0"
                 offset="1" />
        </linearGradient>
        <linearGradient
             gradientTransform="translate(-48,-332.36)"
             x2="0"
             gradientUnits="userSpaceOnUse"
             y2="336.36"
             y1="392.36"
             id="b">
            <stop
                 id="stop12"
                 stop-opacity="0"
                 stop-color="#ffffff" />
            <stop
                 id="stop14"
                 stop-opacity=".2"
                 stop-color="#ffffff"
                 offset="1" />
        </linearGradient>
        <path
             d="m10 61v-58h30l14 14v44h-14z"
             id="c" />
    </defs>
    <sodipodi:namedview
         id="base"
         pagecolor="#002466"
         bordercolor="#ffffff"
         borderopacity="0.38039216"
         inkscape:pageopacity="1"
         inkscape:pageshadow="2"
         inkscape:zoom="26.8125"
         inkscape:cx="8"
         inkscape:cy="8"
         inkscape:document-units="px"
         inkscape:current-layer="svg8"
         inkscape:document-rotation="0"
         showgrid="false"
         inkscape:showpageshadow="false"
         borderlayer="true"
         inkscape:window-width="1920"
         inkscape:window-height="1051"
         inkscape:window-x="0"
         inkscape:window-y="0"
         inkscape:window-maximized="1"
         units="px" />
    <metadata
         id="metadata5">
        <rdf:RDF>
            <cc:Work
                 rdf:about="">
                <dc:format>image/svg+xml</dc:format>
                <dc:type
                     rdf:resource="http://purl.org/dc/dcmitype/StillImage" />
                <dc:title></dc:title>
            </cc:Work>
        </rdf:RDF>
    </metadata>
    <path
         style="opacity:0.75;fill:#ffffff;stroke-width:0.26458332"
         d="M 1.995525,0.60670347 C 1.796142,0.59643847 1.572182,0.62643647 1.352944,0.70061047 1.00481,0.81879597 0.62782101,1.0029205 0.35659001,1.2448548 c -0.3225,0.286807 -0.373797,0.5376648 -0.352297,0.6416945 0.07525,0.3711361 0.61185,0.612842 0.82685,0.7917086 -0.01075,0.00551 -0.02073,0.011173 -0.02983,0.015946 -0.1075,0.050418 -0.516712,0.2545007 -0.619251,0.4704184 -0.115769,0.244266 0.01818,0.419916 0.10749,0.4435458 0.276193,0.073294 0.558997,-0.058239 0.71197699,-0.2749275 0.152154,-0.2166888 0.133779,-0.498185 0.06349,-0.626634 l -0.0024,-0.00473 0.08446,-0.047249 c 0.05458,-0.030735 0.108195,-0.059133 0.155329,-0.083571 -0.02646,0.068558 -0.0453,0.1496548 -0.05522,0.2678402 -0.01158,0.138694 0.04783,0.3185793 0.12639,0.3895053 0.03473,0.030717 0.07595,0.031302 0.101584,0.031302 0.09096,0 0.132292,-0.071507 0.177773,-0.1573967 0.05623,-0.104801 0.106014,-0.2262025 0.106014,-0.2262025 0,0 -0.06203,0.3286728 0.10749,0.3286728 0.06202,0 0.123966,-0.076653 0.152081,-0.1160543 v 0.00207 c 0,0 0.0017,-0.00247 0.005,-0.00797 0.0066,-0.00936 0.01004,-0.01506 0.01004,-0.01506 v -0.00177 c 0.02481,-0.04098 0.08002,-0.1347513 0.162712,-0.289988 0.106673,-0.2001462 0.20937,-0.4509284 0.20937,-0.4509284 0,0 0.0099,0.061564 0.04046,0.1624169 0.0182,0.059891 0.05799,0.1251553 0.08859,0.1889943 -0.02481,0.033086 -0.03987,0.052269 -0.03987,0.052269 l 8.92e-4,0.00177 c -0.01985,0.02519 -0.04211,0.052058 -0.06526,0.078846 -0.08435,0.096135 -0.185213,0.2056038 -0.198444,0.2371287 -0.01571,0.037033 -0.01258,0.064455 0.01801,0.086524 0.02233,0.01579 0.06207,0.019068 0.104242,0.015946 0.07608,-0.00477 0.128867,-0.022944 0.155329,-0.03396 0.04134,-0.014138 0.08859,-0.035509 0.134068,-0.067034 0.08269,-0.058312 0.133123,-0.1409943 0.128162,-0.2513033 -0.0025,-0.060681 -0.02309,-0.120467 -0.04873,-0.1771821 0.0074,-0.010099 0.015,-0.020582 0.02244,-0.031597 0.130653,-0.1820243 0.231518,-0.3821226 0.231518,-0.3821226 0,0 0.0099,0.061268 0.04046,0.1621216 0.01571,0.051226 0.04718,0.1072624 0.0753,0.1624168 -0.122385,0.095345 -0.199446,0.2056708 -0.225908,0.2781759 -0.04879,0.1339387 -0.01081,0.1946054 0.06113,0.2087796 0.03225,0.00643 0.07866,-0.00797 0.113397,-0.022148 0.043,-0.013403 0.09497,-0.036112 0.142927,-0.069987 0.08269,-0.058313 0.162122,-0.139403 0.157987,-0.2489409 -0.0025,-0.050418 -0.01642,-0.1000785 -0.03544,-0.1473564 0.104192,-0.040962 0.239003,-0.064587 0.410176,-0.044886 0.367981,0.04098 0.440771,0.2600134 0.426714,0.3514111 -0.01406,0.091416 -0.09101,0.1416436 -0.116645,0.1573968 -0.02563,0.014871 -0.03378,0.020563 -0.0313,0.031598 0.0033,0.016525 0.01488,0.01582 0.03721,0.012698 0.0306,-0.00477 0.193305,-0.075004 0.19992,-0.2436254 C 4.242877,2.576721 4.027008,2.340443 3.644142,2.342793 V 2.340133 C 3.496123,2.341963 3.368043,2.374763 3.260543,2.42518 3.220853,2.350343 3.181223,2.2850426 3.174613,2.2361858 c -0.0074,-0.056733 -0.01648,-0.091382 -0.0074,-0.1591686 0.0091,-0.06775 0.0502,-0.1639899 0.0502,-0.1718666 -8.01e-4,-0.00716 -0.009,-0.041735 -0.0942,-0.042524 -0.08517,-0.00183 -0.158873,0.01567 -0.167142,0.036913 -0.0083,0.021298 -0.02469,0.070343 -0.03544,0.1207791 -0.01489,0.074066 -0.170205,0.3363526 -0.258685,0.4742573 -0.02894,-0.053594 -0.0538,-0.1009886 -0.05877,-0.1387926 -0.0074,-0.056752 -0.01647,-0.0914 -0.0074,-0.1591686 0.0091,-0.067768 0.0502,-0.1636761 0.0502,-0.1715713 -8.01e-4,-0.00716 -0.009,-0.041735 -0.0942,-0.042524 -0.08517,-0.00183 -0.158872,0.01567 -0.167142,0.036913 -0.0083,0.021261 -0.01725,0.071627 -0.03544,0.1204839 -0.01737,0.048857 -0.224131,0.4869811 -0.277881,0.6012378 -0.02729,0.058331 -0.05115,0.104924 -0.06851,0.1364302 -0.01737,0.031506 -9.98e-4,0.00219 -0.0027,0.00531 -0.01489,0.026788 -0.02303,0.041933 -0.02303,0.041933 v 0.00177 c -0.01158,0.019701 -0.02404,0.038685 -0.02982,0.038685 -0.0041,0 -0.01229,-0.052703 0.0018,-0.1252087 0.03059,-0.1520603 0.105069,-0.3894212 0.104242,-0.398069 0,-0.00404 0.01388,-0.045755 -0.04814,-0.067034 -0.06037,-0.02128 -0.08186,0.014175 -0.08682,0.014175 -0.005,0 -0.0092,0.012698 -0.0092,0.012698 0,0 0.06699,-0.2672496 -0.128162,-0.2672496 -0.122385,0 -0.290925,0.1269224 -0.374444,0.2427394 -0.05292,0.027596 -0.165301,0.085982 -0.284378,0.1482423 -0.04548,0.023629 -0.09266,0.048919 -0.13731599,0.071759 l -0.0092,-0.00975 c -0.23629,-0.2403341 -0.673851,-0.4104439 -0.655659,-0.7335311 0.0066,-0.1174144 0.0496,-0.426979 0.84013899,-0.8020441 C 1.807596,0.74468737 2.326201,0.82907087 2.416336,1.0165852 2.544509,1.2844994 2.139165,1.7823504 1.466049,1.8540658 1.209703,1.8816438 1.075011,1.7870308 1.041108,1.7515956 c -0.03556,-0.037051 -0.04052,-0.03839 -0.05375,-0.031302 -0.0215,0.011016 -0.0083,0.044085 0,0.063786 0.01985,0.049628 0.102458,0.1377685 0.243035,0.1819069 0.123211,0.038593 0.424318,0.059836 0.788165,-0.074121 C 2.426231,1.7413659 2.744541,1.3237381 2.651098,0.97465287 2.591658,0.75252717 2.327828,0.62381327 1.995524,0.60670467 Z M 1.780544,2.2902286 c 0.01043,7.757e-4 0.01848,0.00482 0.02303,0.012107 0.0215,0.037822 -0.08192,0.3120883 -0.108376,0.3735588 C 1.653028,2.7743976 1.563792,3.0273237 1.510043,3.013131 1.463733,3.0011975 1.435563,2.8098025 1.500843,2.6206727 1.533923,2.5253273 1.604195,2.4117175 1.645541,2.3675976 1.695781,2.3144166 1.749214,2.2879026 1.780495,2.2902286 Z m 1.37257,0.3124311 c 0.0083,0.023648 0.01323,0.046326 0.0124,0.067625 -8.02e-4,0.1418335 -0.106777,0.1947019 -0.171276,0.2167527 -0.01323,-0.00936 -0.01158,-0.038536 0.03307,-0.1299335 0.01737,-0.036243 0.05716,-0.096902 0.125799,-0.1544437 z M 0.93184101,2.757694 c 0.0554,0.1922511 0.0026,0.3608569 -0.125504,0.4940427 -0.121557,0.1268517 -0.292816,0.1750483 -0.365585,0.1340678 -0.07856,-0.04333 -0.04779,-0.2302302 0.101879,-0.3649951 0.09096,-0.081942 0.209009,-0.1575663 0.28674,-0.2040547 0.01737,-0.010281 0.04388,-0.024993 0.0753,-0.043114 0.005,-0.00312 0.0083,-0.00502 0.0083,-0.00502 0.0058,-0.00312 0.01228,-0.00707 0.0189,-0.010926 z M 2.594105,2.7804324 v 0.00945 c 0,0.1134668 -0.114101,0.1892658 -0.16537,0.2200011 -0.0182,0.00863 -0.03479,0.01511 -0.04223,0.010336 -0.0058,-0.0033 0.0074,-0.01506 0.0074,-0.01506 0,0 0.09178,-0.093672 0.128162,-0.1370208 0.02068,-0.025227 0.04559,-0.054602 0.07205,-0.087705 z"
         id="path872"
         inkscape:connector-curvature="0"
         inkscape:label="#" />
</svg>
