<?xml version="1.0" encoding="UTF-8" standalone="no"?><svg height="16" viewBox="0 0 4.2333332 4.2333332" width="16" xmlns="http://www.w3.org/2000/svg"><sodipodi:namedview/><metadata><rdf:RDF><cc:Work><dc:format>image/svg+xml</dc:format><dc:type/><dc:title/></cc:Work></rdf:RDF></metadata><path d="m1.9238832-.0000002-.189135.45063925a1.711371 1.711371 0 0 0 -.288263.093047l-.4177992-.25238233-.31198101.22623182.11129154.47496526a1.711371 1.711371 0 0 0 -.17757987.2456926l-.48652012.0407463-.11980556.3673227.36853895.3180625a1.711371 1.711371 0 0 0 -.007298.1520375 1.711371 1.711371 0 0 0  .007907.1520377l-.36914795.3186705.11980556.3673226.48591197.0401377a1.711371 1.711371 0 0 0  .17818802.2450847l-.11129154.4761816.31198101.2262318.4165828-.2517744a1.711371 1.711371 0 0 0  .2894794.093047l.189135.4500318h.3855671l.1891346-.4506398a1.711371 1.711371 0 0 0  .2882631-.0936552l.4177991.2529906.3119812-.2262318-.1112916-.4749652a1.711371 1.711371 0 0 0  .17758-.246301l.4865201-.0401378.1198054-.3673226-.3685389-.3180626a1.711371 1.711371 0 0 0  .00729-.1526457 1.711371 1.711371 0 0 0 -.00791-.1514293l.3691589-.3186706-.1198054-.3673228-.4859123-.0407462a1.711371 1.711371 0 0 0 -.1781878-.2444764l.1112916-.47618146-.3119812-.22623182-.4159745.25177413a1.711371 1.711371 0 0 0 -.2900877-.09365511l-.1891346-.44942294zm.2067709.81188044a1.3448789 1.3448789 0 0 1 1.3446201 1.34461996 1.3448789 1.3448789 0 0 1 -1.3446201 1.3452282 1.3448789 1.3448789 0 0 1 -1.34522815-1.3452282 1.3448789 1.3448789 0 0 1 1.34522815-1.34461996zm-.6671407.85931616a.92315532.63129314 45 0 0 -.3448212.1380501.92315532.63129314 45 0 0  .2061629 1.0989273.92315532.63129314 45 0 0 1.0995355.2061628.92315532.63129314 45 0 0 -.206771-1.0989272.92315532.63129314 45 0 0 -.7541062-.344213zm.5880812.4859119-.194.7224826-.5290908-.5284826z" fill="#d0d0d0" stroke-linecap="round" stroke-linejoin="round" stroke-width=".771308"/></svg>