<?xml version="1.0" encoding="UTF-8" standalone="no"?>
<!-- Created with Inkscape (http://www.inkscape.org/) -->

<svg
   xmlns:dc="http://purl.org/dc/elements/1.1/"
   xmlns:cc="http://creativecommons.org/ns#"
   xmlns:rdf="http://www.w3.org/1999/02/22-rdf-syntax-ns#"
   xmlns:svg="http://www.w3.org/2000/svg"
   xmlns="http://www.w3.org/2000/svg"
   xmlns:sodipodi="http://sodipodi.sourceforge.net/DTD/sodipodi-0.dtd"
   xmlns:inkscape="http://www.inkscape.org/namespaces/inkscape"
   width="12"
   height="12"
   viewBox="0 0 12 12"
   version="1.1"
   id="default16"
   inkscape:version="0.92+devel (944a8da0e8, 2017-09-23, custom)"
   sodipodi:docname="glyph-lasso.svg">
  <defs
     id="defs5">
    <style
       id="current-color-scheme"
       type="text/css">
      .ColorScheme-Text {
        color:#f2f2f2;
      }
      </style>
  </defs>
  <sodipodi:namedview
     id="base"
     pagecolor="#002466"
     bordercolor="#ffffff"
     borderopacity="0.38039216"
     inkscape:pageopacity="1"
     inkscape:pageshadow="2"
     inkscape:zoom="26.28125"
     inkscape:cx="4.195052"
     inkscape:cy="2.8499349"
     inkscape:document-units="px"
     inkscape:current-layer="default16"
     inkscape:document-rotation="0"
     showgrid="false"
     inkscape:showpageshadow="false"
     borderlayer="true"
     inkscape:window-width="1920"
     inkscape:window-height="1017"
     inkscape:window-x="0"
     inkscape:window-y="34"
     inkscape:window-maximized="1"
     units="px" />
  <metadata
     id="metadata5">
    <rdf:RDF>
      <cc:Work
         rdf:about="">
        <dc:format>image/svg+xml</dc:format>
        <dc:type
           rdf:resource="http://purl.org/dc/dcmitype/StillImage" />
        <dc:title></dc:title>
      </cc:Work>
    </rdf:RDF>
  </metadata>
  <path
     style="color:#000000;font-style:normal;font-variant:normal;font-weight:normal;font-stretch:normal;font-size:medium;line-height:normal;font-family:sans-serif;font-variant-ligatures:normal;font-variant-position:normal;font-variant-caps:normal;font-variant-numeric:normal;font-variant-alternates:normal;font-variant-east-asian:normal;font-feature-settings:normal;font-variation-settings:normal;text-indent:0;text-align:start;text-decoration:none;text-decoration-line:none;text-decoration-style:solid;text-decoration-color:#000000;letter-spacing:normal;word-spacing:normal;text-transform:none;writing-mode:lr-tb;direction:ltr;text-orientation:mixed;dominant-baseline:auto;baseline-shift:baseline;text-anchor:start;white-space:normal;shape-padding:0;clip-rule:nonzero;display:inline;overflow:visible;visibility:visible;opacity:1;isolation:auto;mix-blend-mode:normal;color-interpolation:sRGB;color-interpolation-filters:linearRGB;solid-color:#000000;solid-opacity:1;vector-effect:none;fill:#ffffff;fill-opacity:1;fill-rule:nonzero;stroke:none;stroke-width:0.76300001;stroke-linecap:butt;stroke-linejoin:miter;stroke-miterlimit:4;stroke-dasharray:0.76300001, 0.76300001;stroke-dashoffset:0.15260001;stroke-opacity:1;color-rendering:auto;image-rendering:auto;shape-rendering:auto;text-rendering:auto;enable-background:accumulate"
     d="M 5.9765627,1.2762713 5.7402346,1.2918963 5.7890626,2.053615 6.0000001,2.039943 6.5019532,2.073146 6.5507812,1.3114273 6.0253906,1.2762713 h -0.023438 z m -0.9980468,0.064453 -0.109375,0.00781 -0.025391,0.00195 -0.025391,0.00391 -0.6386719,0.1269531 0.1464844,0.7480469 0.6074219,-0.1210937 0.09375,-0.00586 z M 7.3593752,1.3895526 7.2109377,2.1375994 7.9589846,2.2860369 8.1074221,1.53799 Z m -3.9667969,0.3007812 -0.5898437,0.2050781 -0.027344,0.00977 -0.025391,0.011719 -0.1230469,0.064453 0.3554688,0.6757813 0.09375,-0.048828 0.5664062,-0.1953126 z M 8.8828127,1.7860369 8.6347659,2.50674 8.9277346,2.6083026 9.277344,2.7918963 9.6308596,2.116115 9.2539065,1.9168963 9.2285159,1.9051776 9.2011721,1.8954119 Z m -6.9316406,0.5507813 -0.015625,0.00781 -0.029297,0.015625 -0.027344,0.021484 L 1.2910159,2.834865 1.7558596,3.4403338 2.3457033,2.9852557 2.1757815,2.7645526 Z m 8.3867189,0.2089844 -0.466797,0.6035156 0.425781,0.328125 0.0957,0.1113281 0.580078,-0.4941406 -0.121093,-0.140625 -0.02539,-0.03125 -0.03125,-0.023437 z m -9.61523449,0.9082031 -0.0800781,0.09375 -0.0214844,0.027344 -0.0175781,0.029297 -0.18554687,0.3222656 -0.0136719,0.023437 -0.009766,0.023437 -0.0996094,0.25 0.70703116,0.2871094 0.087891,-0.21875 0.1523437,-0.2695313 0.060547,-0.072266 z m 10.75976549,0.2949219 -0.660156,0.3808593 0.08594,0.1503907 0.119141,0.2949218 0.03711,0.1582032 0.742188,-0.1777344 -0.04687,-0.1914063 -0.0059,-0.027344 -0.0098,-0.027344 -0.136719,-0.3359375 -0.0098,-0.023437 -0.01367,-0.023437 z m -11.35742175,1.3339843 -0.003906,0.044922 -0.001953,0.029297 0.001953,0.03125 0.0292969,0.3574219 0.001953,0.029297 0.005859,0.029297 0.0839844,0.3476563 0.005859,0.027344 0.0117188,0.027344 0.3535164,-0.1425791 0.37109374,-0.089844 -0.0761719,-0.3164063 -0.0253906,-0.2988281 0.001953,-0.015625 h -0.001953 l -0.001953,-0.015625 -0.0976563,0.00781 z m 10.99609375,0.044922 -0.02539,0.3183594 -0.05273,0.2246094 0.742187,0.1777343 0.05859,-0.2441406 0.0078,-0.029297 0.002,-0.029297 0.02734,-0.3574219 z m -0.345703,1.1367188 -0.01953,0.035156 -0.423828,0.4960938 0.582032,0.4941406 0.445312,-0.5214844 0.02344,-0.027344 0.01758,-0.03125 0.03711,-0.064453 z M 1.2441409,6.2958026 0.66406275,6.7918963 C 0.89157802,7.0724065 1.0566965,7.2355913 1.2226565,7.4012713 0.62380142,8.5746073 0.63843699,9.8863728 0.64843775,10.237209 a 0.5,0.5 0 0 0 0.51367185,0.486328 0.5,0.5 0 0 0 0.4863281,-0.515625 c -0.00651,-0.2283272 0.035423,-1.2913766 0.3925782,-2.1679688 0.1689994,0.09164 0.3439057,0.1825637 0.5058593,0.2519531 L 2.902344,7.616115 C 2.7340099,7.5419152 2.5799028,7.4427445 2.4218752,7.35049 A 0.5,0.5 0 0 0 2.2890627,6.7118182 0.5,0.5 0 0 0 1.9628909,6.6083026 0.5,0.5 0 0 0 1.6484377,6.7391619 Z M 9.7988283,7.2215838 9.683594,7.3114276 9.1972659,7.5672869 9.5507815,8.241115 10.068359,7.9696307 l 0.0293,-0.013672 0.02539,-0.021484 0.142578,-0.109375 z m -1.25,0.6171875 -0.5058593,0.1757813 -0.171875,0.033203 0.1464843,0.7480469 0.1992188,-0.039063 0.025391,-0.00391 0.025391,-0.00977 0.5292969,-0.1835938 z m -4.9921874,0.035156 -0.25,0.7207031 0.4296874,0.1484375 0.025391,0.00977 0.025391,0.00391 0.3027344,0.060547 0.1484375,-0.7480469 -0.28125,-0.056641 z m 3.5644531,0.3222656 -0.064453,0.011719 -0.6445313,0.041016 0.048828,0.7617187 0.6738282,-0.042969 0.025391,-0.00195 0.023437,-0.00391 0.085937,-0.017578 z M 4.9375002,8.2079119 4.8886721,8.9696307 5.6503909,9.0184588 5.699219,8.25674 Z"
     id="path818"
     inkscape:connector-curvature="0" />
</svg>
