<?xml version="1.0" encoding="UTF-8" standalone="no"?><svg height="22" width="22" xmlns="http://www.w3.org/2000/svg"><metadata><rdf:RDF><cc:Work><dc:format>image/svg+xml</dc:format><dc:type/><dc:title/></cc:Work></rdf:RDF></metadata><sodipodi:namedview><inkscape:grid/></sodipodi:namedview><g fill="#d0d0d0"><path d="m10.999984 1.6506568c-3.777231-.0000001-7.193188 2.2817775-8.638672 5.7714843-1.445484 3.4897069-.645515 7.5185469 2.025391 10.1894529s6.701699 3.472828 10.191406 2.027344 5.771485-4.86144 5.771485-8.638672h-2.748047a6.5999999 6.5999999 0 0 1 -6.59961 6.599609 6.5999999 6.5999999 0 0 1 -6.601562-6.599609 6.5999999 6.5999999 0 0 1 6.599609-6.5996092z" opacity=".4"/><path d="m11.000977 4.4003906a6.5999999 6.5999999 0 0 0 -6.601563 6.5996094 6.5999999 6.5999999 0 0 0 6.601563 6.599609 6.5999999 6.5999999 0 0 0 6.599609-6.599609 6.5999999 6.5999999 0 0 0 -6.599609-6.5996094zm0 2.75c2.1329 0 3.849609 1.7167094 3.849609 3.8496094s-1.716709 3.849609-3.849609 3.849609-3.851563-1.716709-3.851563-3.849609 1.718663-3.8496094 3.851563-3.8496094z" stroke-width=".790029"/><path d="m11 0c-6.094 0-11 4.9059999-11 11h1.65c0-5.1799001 4.1701-9.3500001 9.35-9.3500001zm9.35 11c0 5.1799-4.1701 9.35-9.35 9.35v1.65c6.094 0 11-4.906 11-11z" opacity=".2" stroke-opacity=".55" stroke-width="1.54"/></g></svg>