<?xml version="1.0" encoding="UTF-8" standalone="no"?><svg height="16" viewBox="0 0 4.2333332 4.2333332" width="16" xmlns="http://www.w3.org/2000/svg"><sodipodi:namedview/><metadata><rdf:RDF><cc:Work><dc:format>image/svg+xml</dc:format><dc:type/><dc:title/></cc:Work></rdf:RDF></metadata><path d="m1.4882812 0c-.82499366 0-1.4882812.66328754-1.4882812 1.4882812v13.0234378c0 .824994.66328754 1.488281 1.4882812 1.488281h13.0234378c.824994 0 1.488281-.663287 1.488281-1.488281v-13.0234378c0-.82499366-.663287-1.4882812-1.488281-1.4882812zm1.078125 1.9765625h1.1738282c.1270061 0 .2285156.1015095.2285156.2285156v6.4648438c0 .1270072-.1015103.2285156-.2285156.2285156h-1.1738282c-.1270061 0-.2304687-.1015084-.2304687-.2285156v-6.4648438c0-.1270061.1034626-.2285156.2304687-.2285156zm4.7851563 0h1.296875c.0929046 0 .1679687.0750638.1679687.1679687v6.5859376c0 .0929045-.0750641.1679687-.1679687.1679687h-1.296875c-.0929046 0-.1679684-.0750642-.1679687-.1679687v-6.5859376c0-.0929045.0750641-.1679687.1679687-.1679687zm4.8437495 0h1.302735c.091385 0 .166018.0726781.166015.1640625v6.59375c.000002.0913852-.07463.1640625-.166015.1640625h-1.302735c-.091385 0-.164062-.0726773-.164062-.1640625v-6.59375c0-.0913844.072677-.1640625.164062-.1640625zm-6.789062 9.7226565h.5292969c.1096327 0 .1992187.087633.1992187.197265v.302735h7.3261724c.111741 0 .203124.08943.203124.201172v1.228515c.000002.111742-.091383.201172-.203124.201172h-7.3261724v.298828c0 .109633-.089586.197266-.1992187.197266h-.5292969c-.1096328 0-.1992185-.087633-.1992188-.197266v-.298828h-2.6679687c-.111741 0-.203125-.08943-.203125-.201172v-1.228515c0-.111742.091384-.201171.203125-.201172h2.6679687v-.302735c0-.109632.089586-.197265.1992188-.197265z" fill="#d0d0d0" stroke-linecap="square" stroke-width="1.584" transform="scale(.26458333)"/></svg>