<?xml version="1.0" encoding="UTF-8" standalone="no"?>
<!-- Created with Inkscape (http://www.inkscape.org/) -->

<svg xmlns:dc="http://purl.org/dc/elements/1.1/" xmlns:cc="http://creativecommons.org/ns#" xmlns:rdf="http://www.w3.org/1999/02/22-rdf-syntax-ns#" xmlns:svg="http://www.w3.org/2000/svg" xmlns="http://www.w3.org/2000/svg" xmlns:sodipodi="http://sodipodi.sourceforge.net/DTD/sodipodi-0.dtd" xmlns:inkscape="http://www.inkscape.org/namespaces/inkscape" width="12" height="12" viewBox="0 0 12 12" version="1.1" id="default16" inkscape:version="0.92+devel (8ef6761023, 2017-10-07, custom)" sodipodi:docname="glyph-im-groupwise.svg">
  <defs id="defs5" />
  <sodipodi:namedview id="base" pagecolor="#002466" bordercolor="#ffffff" borderopacity="0.38039216" inkscape:pageopacity="1" inkscape:pageshadow="2" inkscape:zoom="26.28125" inkscape:cx="7.7336504" inkscape:cy="8" inkscape:document-units="px" inkscape:current-layer="default16" inkscape:document-rotation="0" showgrid="false" inkscape:showpageshadow="false" borderlayer="true" inkscape:window-width="1920" inkscape:window-height="1029" inkscape:window-x="0" inkscape:window-y="22" inkscape:window-maximized="1" units="px" inkscape:snap-page="true" inkscape:snap-intersection-paths="true" inkscape:object-paths="true" />
  <metadata id="metadata5">
    <rdf:RDF>
      <cc:Work rdf:about="">
        <dc:format>image/svg+xml</dc:format>
        <dc:type rdf:resource="http://purl.org/dc/dcmitype/StillImage" />
        <dc:title></dc:title>
      </cc:Work>
    </rdf:RDF>
  </metadata>
  <path style="fill:#d0d0d0;stroke-width:0.99999994;stroke:none" d="M 6.0722656 0.041015625 A 6 4.7181683 0 0 0 0.072265625 4.7578125 A 6 4.7181683 0 0 0 2.5097656 8.5488281 L 4.9082031 12 L 4.8632812 9.3789062 A 6 4.7181683 0 0 0 6.0722656 9.4765625 A 6 4.7181683 0 0 0 12.072266 4.7578125 A 6 4.7181683 0 0 0 6.0722656 0.041015625 z M 3.6835938 1.7753906 L 4.875 2.9667969 L 6.6835938 4.7773438 L 6.6835938 1.7753906 L 7.8769531 1.7753906 L 7.8769531 7.65625 L 7.8769531 7.6738281 L 6.6835938 6.4628906 L 4.875 4.6542969 L 4.875 7.6738281 L 3.6835938 7.6738281 L 3.6835938 1.7753906 z " id="path811" />
</svg>
