<?xml version="1.0" encoding="UTF-8" standalone="no"?><svg height="16" viewBox="0 0 4.2333333 4.2333333" width="16" xmlns="http://www.w3.org/2000/svg"><sodipodi:namedview/><metadata><rdf:RDF><cc:Work><dc:format>image/svg+xml</dc:format><dc:type/><dc:title/></cc:Work></rdf:RDF></metadata><path d="m .08807377.11501742v.14891414.44442467h.43109772l-.45775159.36793957.09212972.1158864c.3925144.4898305.62719554.7939263.84075654 1.0974452-.36668215.8593723-.86914871 1.2504151-.86914871 1.2504151l-.1251574.083438.33317364.4948354.12226025-.085756s.49853152-.4985123.89812026-1.1913131c.097057.1569245.1915951.3071065.3088375.514536l.07243.1292135.2300346-.1292135c-.0147473.0098788-.1095126.1118303-.1095126.1118303l-.1251574.078803.3065198.5058445.1268957-.076485s.4487019-.3520519.8367003-.8187381c.1915707.2722325.4069227.541497.7445708.8141027l.1164649.0944475.3719955-.4618078-.1158865-.0944474c-.3747154-.3025303-.5873517-.5737567-.7602154-.860457.02276-.04109.046462-.078846.068373-.1274752.2669709-.5925054.518592-1.4333555.518592-2.10855463v-.29782825h-1.8987999-.1773063zm.43978922.59333881h.84307431c-.0220973.18478537-.0852919.51934467-.1639794.87841957-.1697714-.2261445-.33091024-.4412557-.59160061-.76658911zm1.43467471 0h .1135687c.0430815.24423893.1507832.86209777.3656219 1.41671227.0669959.1729462.1437388.3411078.2259787.5081622-.2020919.2921681-.3025082.3439218-.4641254.4751348l-.0243361-.0434576c-.1961231-.346986-.3555509-.6001402-.5191716-.8477097.2124885-.6681567.2787024-1.28413388.3024638-1.50884197zm.7225522 0h .6020303c-.0406049.37568887-.1644299.78388537-.2995664 1.16929457-.1563768-.4171237-.2492311-.89099717-.3024639-1.16929457z" fill="#f2f2f2"/></svg>