<?xml version="1.0" encoding="UTF-8" standalone="no"?><svg height="16" viewBox="0 0 4.2333332 4.2333332" width="16" xmlns="http://www.w3.org/2000/svg"><sodipodi:namedview/><metadata><rdf:RDF><cc:Work><dc:format>image/svg+xml</dc:format><dc:type/><dc:title/></cc:Work></rdf:RDF></metadata><path d="m2.1742421.0000002-.4692907.7351532.4213279.5953996-.4215346-.5953996-.84265575-.3444222.095719.9119125-.8523724.1488499.622482.623309-.7279174.6698245.9675245.1488499.21293795-.042588c-.00795-.00516-.015342-.010999-.022121-.017779-.02933-.028382-.044242-.065191-.044242-.1106038 0-.048252.015709-.088066.046929-.1192866.031221-.031222.071036-.046929.1192866-.046929.025546 0 .054455.0076.086623.022741.047306.022709.081107.034111.1019207.034111.027437 0 .052252-.0056.074011-.016953.028384-.01419.064395-.044899.1079163-.092204.026491-.02933.075204-.091747.1461623-.1873028-.090825-.336812-.161848-.5382695-.212938-.604496-.032167-.042576-.072982-.064088-.122181-.064088-.025545 0-.056547.0038-.093445.01137l.00972-.053958.495546-.085175c.0898784.1409684.1530915.2962177.1899905.4655695.0927172-.1371844.1627378-.2331102.2100437-.2879833.0633875-.073797.1156105-.1217154.1562925-.1434747.041629-.022708.085539-.034111.1318975-.034111.052035 0 .09185.014205.1192867.042588.028383.028385.042381.066901.042381.1151519 0 .045412-.013997.082721-.042381.1120509-.027437.028382-.062153.042588-.1037815.042588-.030275 0-.065286-.00531-.1050219-.015712-.03879-.011348-.065695-.017159-.080834-.017159-.039735 0-.077545.014204-.113498.042587-.049197.03879-.1096101.1217202-.1815142.2484965.080419.2838314.1446335.4568783.1928847.5193208.028383.036899.057295.055405.086622.055405.024599 0 .045698-.00631.063675-.018606.027436-.019868.069549-.069377.1263156-.1488498l.051271.02977c-.083258.1343478-.1646853.2289756-.2441576.2838487-.06055.042575-.1201694.063881-.1788266.063881-.060551 0-.111269-.013409-.151951-.0399-.0397355-.027436-.0750421-.071347-.1062623-.1318978-.0312222-.061497-.068237-.1594254-.1108104-.2937719-.1106935.1409684-.19772.2442016-.2611075.3094839-.027286.028112-.051761.050059-.075045.06967-.030001.025269-.057602.045459-.081041.056646-.041628.019868-.086247.02977-.1335514.02977-.037326 0-.068571-.00827-.093858-.024602l-.21335145.0425883-.1531912.9489181.86188215-.4372466.450271.8279777.4500641-.8186746.8046166.4186404-.0192265-.8930995.871599-.102541-.6129723-.707037.5937455-.6791277-.8426556-.1581531.0764923-.8746999-.8523724.3256091zm.8122656 1.2811429c.059702 0 .1064655.016186.1405805.048376.034115.032189.051064.072448.051064.1203204 0 .027238-.00477.053178-.014678.077939-.00963.024487-.025124.050151-.046309.077113-.014032.017883-.039281.043549-.075872.077112-.036592.033566-.059969.05598-.069877.066983-.00963.011007-.017317.021597-.023361.032044h.2300968v.1077096h-.4062361c.0044-.040718.017476-.079249.039486-.1155654.022009-.036592.06552-.085084.1304504-.1453353.052274-.048697.084304-.081694.096132-.099027.015963-.023935.023982-.047525.023982-.07091 0-.025862-.00726-.045577-.021294-.059333-.013756-.014032-.032781-.021087-.057266-.021087-.024212 0-.043373.00733-.057679.021914-.014304.014583-.022617.038517-.024808.072358l-.1153586-.01137c.00688-.063829.028184-.109692.064502-.1374795.036316-.027787.081972-.041761.1364452-.041762z" fill="#d0d0d0" stroke-width=".264583"/></svg>