<?xml version="1.0" encoding="UTF-8" standalone="no"?><svg height="16mm" viewBox="0 0 16 16" width="16mm" xmlns="http://www.w3.org/2000/svg"><sodipodi:namedview/><metadata><rdf:RDF><cc:Work><dc:format>image/svg+xml</dc:format><dc:type/><dc:title/></cc:Work></rdf:RDF></metadata><path d="m4.4664189 15.859693c-.3192595-.083009-.2865343-.17234.2392688-.663246.9054173-.845782 1.0566857-1.688651.7985146-4.463098-.2058179-2.2115526-.2516377-2.3810055-.5977954-2.1962696-.7483327.4006959-1.6842955-.1162673-2.746069-1.5170275-.5250719-.692354-.575251-.8952308-.4850738-1.9751975.055275-.6617891.1679967-1.4617522.2508955-1.7744645.1272619-.4829079.085812-.5716339-.263979-.5716339-.2283567 0-.5323421-.1418296-.67633765-.3156259-.3628942-.4370606.28362625-1.1395845 1.04941285-1.1395845.311261 0 .6821537-.1404553.8246953-.31197017.3672562-.4429153.9294155-.3861834 1.5606646.15639737.670516.5767188.8988727 1.9126659.5221584 3.0544219-.4261623 1.2908695-.1301754 1.4173892.4661632.1992761.3338053-.6814419.8043306-1.2763292 1.1919515-1.5046859.3527133-.2080717.8676016-.7374041 1.1439549-1.175949.277079-.4385174.6247021-.87486337.7716051-.96941647.453072-.2901735 1.6988392-.6886982 2.1635482-.6916118.632703-.00275 1.482122.7367169 1.633388 1.42541517.07127.3257959.453074 1.0930502.84724 1.7053913.394893.6123412.71779 1.2210267.71779 1.3519442 0 .1308351.280715.5912316.623973 1.0232348.513434.6465067.621794.9723026.615249 1.8479081-.01017 1.2006864-.656701 2.7315398-.893056 2.1141137-.0749-.1948783-.04362-.5265287.06981-.738174.236355-.4414306.02762-2.3984323-.228357-2.1424519-.178161.1781117-.295256 2.087919-.245063 4.01147.06473 2.498098-.05673 4.853624-.253809 4.916182-.503251.159971-.723606-.255348-.517068-.975985.311258-1.085766.247267-3.971449-.09818-4.427448-.159257-.2108206-.351989-.7483161-.426895-1.1941179-.075642-.4465432-.218159-.8618071-.317806-.9228818-.327986-.2022997-.82251 1.1090474-.82251 2.1802727 0 .8385-.126547 1.226139-.623976 1.912639-.703972.971615-.758513 1.258876-.311986 1.629776.348348.289432.415981.950506.116349 1.135929-.107636.06625-.388349-.08576-.6239762-.338879-.333077-.357076-.428345-.386899-.428345-.133034 0 .380356-.770879.637793-1.196316.399981-.2276145-.127262-.173824-.24078.244354-.514874.744699-.487993.672701-.887975-.322168-1.797746-.7759701-.709065-.845057-.85161-.7177897-1.482861.4028924-1.9977364.4007127-2.0493836-.063988-2.0493836-.3047138 0-.4385284.1308351-.4385284.4290894 0 .2363827-.1032663.6225116-.2290714.8581522-.2225296.415978-.288714.750515-.8276006 4.169269-.2683493 1.703934-.3345337 1.768665-1.4944857 1.469035m5.5815922-3.628942c.269806-.522157.309079-.969415.193449-2.203553-.1541712-1.6413763-.2668924-1.6988225-.7163364-.3628751-.154171.4574281-.453799 1.0544871-.666154 1.3272061-.494526.63488-.485799.826873.06619 1.413761.590522.628338.718515.608713 1.1235902-.173714" fill="#d0d0d0" opacity=".85" stroke-width=".727243"/></svg>