<?xml version="1.0" encoding="UTF-8" standalone="no"?><svg height="16" viewBox="0 0 4.2333332 4.2333332" width="16" xmlns="http://www.w3.org/2000/svg"><sodipodi:namedview/><metadata><rdf:RDF><cc:Work><dc:format>image/svg+xml</dc:format><dc:type/><dc:title/></cc:Work></rdf:RDF></metadata><path d="m .40744184 3.8645356 1.29868376-1.6999457-1.33701936-1.86913445.85935416.0007143 1.0653677 1.46970695-1.59294446 2.0986583h-.2934418zm2.54187966.0012069-1.0580125-1.4722301 1.6062089-2.09964465h.2861819l-1.3039838 1.70796635 1.3289733 1.8639084z" fill="#d0d0d0" opacity=".75" stroke-width=".264583"/><path d="m7.8945312 3.5761719c-.3904981 0-.8080175.028824-1.1835937.064453.6691041.862137 1.2243166 1.5927597 1.8632813 2.4218751-.3586319-.7624524-1.0946603-1.4931173-.8398438-1.8691406.2522343-.3722117.7165526-.3105469.7519531-.3105469.7451018 0 1.4622714.082464 2.1328129.2363281l.15625-.2128906c-.8943281-.2274431-1.8650652-.3300781-2.8808598-.3300781zm4.0351568.6953125-.144532.203125c2.065904.7992268 3.462891 2.3266296 3.462891 4.0761718 0 1.4806208-1.020276 2.7836478-2.580078 3.6386718l.435547.611328c1.706191-.964841 2.791015-2.391362 2.791015-3.9863279 0-1.9366685-1.593344-3.6295064-3.964843-4.5429687zm-8.3242192.1035156c-2.2300405.9341345-3.71093717 2.5728521-3.71093755 4.4394531 0 1.6457039 1.15248455 3.1134139 2.95312495 4.0781249l.8183594-1.070312c-1.201672-.842381-1.9433594-1.9969572-1.9433594-3.2714848.0000004-1.4029463.8987057-2.6615982 2.3203126-3.5175781zm.8222656 7.886719-.765625 1.009765c1.2287066.505695 2.6768724.804688 4.2324218.804688.9299576 0 1.8198663-.110639 2.6503908-.302734l-.498047-.69336c-.5034093.08258-1.0206666.136719-1.5605469.136719-1.5291812 0-2.9251445-.363904-4.0585937-.955078z" fill="#d0d0d0" opacity=".3" transform="scale(.26458333)"/></svg>