<?xml version="1.0" encoding="UTF-8" standalone="no"?><svg height="16" viewBox="0 0 4.2333333 4.2333333" width="16" xmlns="http://www.w3.org/2000/svg"><sodipodi:namedview/><metadata><rdf:RDF><cc:Work><dc:format>image/svg+xml</dc:format><dc:type/><dc:title/></cc:Work></rdf:RDF></metadata><path d="m1.0011749.84754908c-.61873352 0-1.00117489.40646042-1.00117489 1.12712392v.2952182c0 .7170873.37726027 1.115893.99957047 1.115893.62230992 0 .94261262-.413506.94261262-.8158614v-.0360994h-.4187607c0 .2592964-.1746425.4813341-.5126208.4813341-.34691992 0-.57439202-.2326586-.57439202-.7476724v-.2912077c0-.5096506.229192-.7581011.56717202-.7581011.3397669 0 .5198408.2535097.5198408.5110163h.4187607v-.033693c0-.441697-.338369-.84795001-.9410082-.84795052zm1.3669888.75328782v.4412229h-.4259806v.2117869h.4259806v.4604762h.2149958v-.4604762h.4267829v-.2117869h-.4267829v-.4412229zm1.2233909 0v .4412229h-.425981v.2117869h.425981v.4604762h.2149957v-.4604762h.426783v-.2117869h-.426783v-.4412229z" fill="#d0d0d0" stroke-width=".686687"/></svg>