<?xml version="1.0" encoding="UTF-8" standalone="no"?>
<!-- Created with Inkscape (http://www.inkscape.org/) -->

<svg
   xmlns:dc="http://purl.org/dc/elements/1.1/"
   xmlns:cc="http://creativecommons.org/ns#"
   xmlns:rdf="http://www.w3.org/1999/02/22-rdf-syntax-ns#"
   xmlns:svg="http://www.w3.org/2000/svg"
   xmlns="http://www.w3.org/2000/svg"
   xmlns:sodipodi="http://sodipodi.sourceforge.net/DTD/sodipodi-0.dtd"
   xmlns:inkscape="http://www.inkscape.org/namespaces/inkscape"
   width="16"
   height="16"
   viewBox="0 0 4.2333332 4.2333332"
   version="1.1"
   id="svg8"
   inkscape:version="0.92+devel (b8837397f6, 2017-07-27, custom)"
   sodipodi:docname="anjuta.svg">
  <defs
     id="defs2" />
  <sodipodi:namedview
     id="base"
     pagecolor="#002466"
     bordercolor="#ffffff"
     borderopacity="0.38039216"
     inkscape:pageopacity="1"
     inkscape:pageshadow="2"
     inkscape:zoom="36.415999"
     inkscape:cx="10.094581"
     inkscape:cy="7.9162778"
     inkscape:document-units="px"
     inkscape:current-layer="svg8"
     inkscape:document-rotation="0"
     showgrid="false"
     inkscape:showpageshadow="false"
     borderlayer="true"
     inkscape:window-width="1920"
     inkscape:window-height="1051"
     inkscape:window-x="0"
     inkscape:window-y="0"
     inkscape:window-maximized="1"
     units="px" />
  <metadata
     id="metadata5">
    <rdf:RDF>
      <cc:Work
         rdf:about="">
        <dc:format>image/svg+xml</dc:format>
        <dc:type
           rdf:resource="http://purl.org/dc/dcmitype/StillImage" />
        <dc:title></dc:title>
      </cc:Work>
    </rdf:RDF>
  </metadata>
  <path
     inkscape:connector-curvature="0"
     style="opacity:1;fill:#d0d0d0;fill-opacity:1;stroke-width:0.74083328;stroke-opacity:0.55026502"
     d="M 2.1166666,0 C 0.9440334,0 0,0.9440332 0,2.1166666 c 0,1.1726332 0.9440334,2.1166666 2.1166666,2.1166666 1.1726333,0 2.1166666,-0.9440334 2.1166666,-2.1166666 C 4.2333332,0.9440332 3.2892999,0 2.1166666,0 Z m 0.3443718,0.520485 c -0.038934,0.038457 -0.065939,0.2645833 -0.065939,0.2645833 0.038844,-0.069718 0.15875,-0.15875 0.15875,-0.15875 -0.1058334,0.2116667 0,0.5291667 0,0.5291667 0.2017902,0.2013436 0.4851382,0.8818066 0.4851382,0.8818066 l 0.085576,0.1238167 C 3.2332556,2.3160896 3.1932082,2.5070746 3.0854964,2.5648046 2.6819168,2.7820444 2.6429394,2.4399544 2.6429394,2.4399544 2.3090289,2.40123 2.0246826,2.0021516 2.0246826,2.0021516 c -0.4499071,0.2321624 -0.110688,0.9145046 0.083716,1.166027 0.2258403,0.2915672 0.1030124,0.7597446 0.076481,0.8505942 -0.023036,8.04e-4 -0.045585,0.00331 -0.068833,0.00331 -0.7702886,0 -1.4259238,-0.4485248 -1.7272329,-1.100088 C 0.2350549,2.4677305 0.4371825,2.0021544 0.4371825,2.0021544 0.3784785,2.0266684 0.2399853,2.0988924 0.2255159,2.1079878 0.2399849,1.7813926 1.0721825,1.2613211 1.0721825,1.2613211 h -0.3175 C 1.3836626,0.6580036 2.0995099,0.884289 2.0995099,0.884289 2.1226736,0.7525763 2.4610382,0.520487 2.4610382,0.520487 Z"
     id="rect22"
     inkscape:label="#anjuta" />
</svg>
