<?xml version="1.0" encoding="UTF-8" standalone="no"?><svg height="16" viewBox="0 0 4.2333332 4.2333332" width="16" xmlns="http://www.w3.org/2000/svg"><sodipodi:namedview/><metadata><rdf:RDF><cc:Work><dc:format>image/svg+xml</dc:format><dc:type/><dc:title/></cc:Work></rdf:RDF></metadata><path d="m .22860537 0c-.0633226 0-.11419099.0520925-.11419099.11687252v3.19868738c0 .06478.0508692.1168724.11419099.1168724h2.28851163c.063323 0 .1144144-.052092.1144144-.1168724v-3.19868738c0-.0647801-.051092-.11687252-.1144144-.11687252zm.27799128.34324323h.58860845l.0489385.08670445-.25966699.43218264.25944359.42369088-.0487153.0871519h-.58860844l-.04871527-.0871519.25944356-.42369087-.25966708-.43218265zm1.14414405 0h .5886085l.048939.0867044-.259667.43218264.2594435.42369093-.048715.087152h-.588609l-.0487155-.0871518.2594435-.42369088-.2596671-.43218266zm1.0952052.45765763v2.51465904c0 .1249394-.1027575.2312869-.2288289.2312869h-.9153154v.5696139c0 .06478.050869.1168725.114191.1168725h2.2885117c.063323 0 .1144145-.052092.1144145-.1168725v-3.1986873c0-.0647802-.051093-.11687254-.1144145-.11687254zm.3921822.34324324h.5886085l.048939.086704-.2596671.4321827.2594436.4236909-.048715.087152h-.588609l-.0487156-.0871513.2594436-.4236909-.259667-.4321827zm-2.63153145.9153153h.58860845l.048939.086704-.25966699.4321827.25944359.4236908-.048715.087152h-.58860924l-.04871527-.0871515.25944356-.4236908-.25966708-.4321827zm1.14414405 0h .5886085l.048939.086705-.259667.4321827.2594435.4236908-.048715.087152h-.588609l-.0487155-.0871523.2594435-.4236909-.2596671-.4321826zm1.4873874.8009009h.5886085l.048939.086704-.2596671.4321826.2594436.4236909-.048715.087152h-.588609l-.0487156-.0871513.2594436-.4236909-.259667-.4321826z" fill="#d0d0d0"/></svg>