<?xml version="1.0" encoding="UTF-8" standalone="no"?>
<!-- Created with Inkscape (http://www.inkscape.org/) -->

<svg
     xmlns:dc="http://purl.org/dc/elements/1.1/"
     xmlns:cc="http://creativecommons.org/ns#"
     xmlns:rdf="http://www.w3.org/1999/02/22-rdf-syntax-ns#"
     xmlns:svg="http://www.w3.org/2000/svg"
     xmlns="http://www.w3.org/2000/svg"
     xmlns:sodipodi="http://sodipodi.sourceforge.net/DTD/sodipodi-0.dtd"
     xmlns:inkscape="http://www.inkscape.org/namespaces/inkscape"
     width="16"
     height="16"
     viewBox="0 0 4.2333333 4.2333333"
     version="1.1"
     id="svg8"
     inkscape:version="0.92+devel (fa9b7f7a5b, 2017-07-19, custom)"
     sodipodi:docname="glyph-copyright.svg">
    <defs
         id="defs2" />
    <sodipodi:namedview
         id="base"
         pagecolor="#002466"
         bordercolor="#ffffff"
         borderopacity="0.38039216"
         inkscape:pageopacity="1"
         inkscape:pageshadow="2"
         inkscape:zoom="10.137867"
         inkscape:cx="39.679867"
         inkscape:cy="27.302424"
         inkscape:document-units="px"
         inkscape:current-layer="svg8"
         inkscape:document-rotation="0"
         showgrid="false"
         inkscape:showpageshadow="false"
         borderlayer="true"
         inkscape:window-width="1920"
         inkscape:window-height="1051"
         inkscape:window-x="0"
         inkscape:window-y="0"
         inkscape:window-maximized="1"
         units="px" />
    <metadata
         id="metadata5">
        <rdf:RDF>
            <cc:Work
                 rdf:about="">
                <dc:format>image/svg+xml</dc:format>
                <dc:type
                     rdf:resource="http://purl.org/dc/dcmitype/StillImage" />
                <dc:title></dc:title>
            </cc:Work>
        </rdf:RDF>
    </metadata>
    <path
         style="fill:#d0d0d0;stroke-width:0.89679301"
         d="M 8 0 A 7.9999996 7.9999996 0 0 0 0 8 A 7.9999996 7.9999996 0 0 0 8 16 A 7.9999996 7.9999996 0 0 0 16 8 A 7.9999996 7.9999996 0 0 0 8 0 z M 7.8847656 2.9257812 C 9.187909 2.8901277 10.507455 3.3487696 11.523438 4.3085938 L 10.054688 5.8574219 C 8.8599047 4.7286796 7.008231 4.7763677 5.8769531 5.96875 C 4.7456753 7.1611327 4.7904919 9.0126762 5.9804688 10.146484 C 7.1704452 11.280293 9.0238225 11.238347 10.160156 10.050781 L 11.701172 11.527344 C 9.7686124 13.547033 6.5355086 13.623577 4.5117188 11.695312 C 2.487929 9.7670481 2.4041642 6.5278814 4.328125 4.5 C 5.2901057 3.4860591 6.5816222 2.9614348 7.8847656 2.9257812 z "
         transform="scale(0.26458333)"
         id="path10" />
</svg>
