<?xml version="1.0" encoding="UTF-8" standalone="no"?><svg height="16" viewBox="0 0 4.2333332 4.2333332" width="16" xmlns="http://www.w3.org/2000/svg"><sodipodi:namedview><inkscape:grid/></sodipodi:namedview><metadata><rdf:RDF><cc:Work><dc:format>image/svg+xml</dc:format><dc:type/><dc:title/></cc:Work></rdf:RDF></metadata><g fill="#d0d0d0"><path d="m3.3500057 1.9905697c.026997.04124.042813.06791.042813.06791l.032479.058561-.032479.057822s-.015665.026557-.042567.067665h.87324c.00605-.041572.00984-.083524.00984-.1259789 0-.042455-.00381-.084407-.00984-.1259789zm-3.35000415.6298944c.017256.085671.039052.1697233.064712.2519577h.8421883c.0224585-.086313.0440977-.172024.0595447-.2519577z" stroke-width=".264583"/><path d="m .06471335 1.3606754c-.02566.082234-.047456.1662864-.064712.2519578h.96619874c-.0154545-.079936-.0370794-.165641-.0595447-.2519578z" stroke-width=".264583"/><path d="m .95787513 3.3764552c.33686747-1.0078309.33686747-1.5117463 0-2.5195772 1.56991447 0 2.26761937 1.2597873 2.26761937 1.2597873s-.6977049 1.2597899-2.26761937 1.2597899z"/></g></svg>