<?xml version="1.0" encoding="UTF-8" standalone="no"?><svg height="16" viewBox="0 0 4.2333332 4.2333332" width="16" xmlns="http://www.w3.org/2000/svg"><sodipodi:namedview/><metadata><rdf:RDF><cc:Work><dc:format>image/svg+xml</dc:format><dc:type/><dc:title/></cc:Work></rdf:RDF></metadata><path d="m .3172933 0c-.17589501 0-.3172933.14139829-.3172933.3172933v3.5987466c0 .1758953.14139829.3172934.3172933.3172934h3.5987466c.1758953 0 .3172934-.1413981.3172934-.3172934v-3.5987466c0-.17589501-.1413981-.3172933-.3172934-.3172933zm.40462644.52916666h2.78949366c.1068271 0 .1927532.0859266.1927532.19275308v2.78949366c0 .1068271-.085927.1927532-.1927532.1927532h-2.78949366c-.10682679 0-.19275308-.085926-.19275308-.1927532v-2.78949366c0-.10682689.0859267-.19275308.19275308-.19275308z" fill="#d0d0d0" stroke-width=".264583"/><path d="m .9529134.95239664v2.32802336h1.0583333c0-.176389 0-.3527777 0-.5291666-.1763889 0-.3527777 0-.5291666 0 0-.4232301 0-.8464601 0-1.2696901h.5291666c0-.1763889 0-.3527778 0-.52916666-.3527777 0-.7055555 0-1.0583333 0zm1.2696899 0v .52916666h.5291668v1.2696901c-.1763889 0-.3527779 0-.5291668 0v .5291666h1.0583334c0-.7760078 0-1.5520156 0-2.32802336-.3527776 0-.7055556 0-1.0583334 0z" fill="#d0d0d0" stroke-width=".264583"/></svg>