<?xml version="1.0" encoding="UTF-8" standalone="no"?><svg height="16" viewBox="0 0 4.2333333 4.2333333" width="16" xmlns="http://www.w3.org/2000/svg"><sodipodi:namedview/><metadata><rdf:RDF><cc:Work><dc:format>image/svg+xml</dc:format><dc:type/><dc:title/></cc:Work></rdf:RDF></metadata><path d="m2.1992188 2.1289062c-.732814.731775-1.46917546 1.4607668-2.1992188 2.1953126v9.5468752h13.769531c.745282-.739048 1.489343-1.48106 2.230469-2.22461v-9.5175778zm3.8261718 2.0429688c.586667.0072567 1.2032196.1088527 1.6894532.4589844.3532457.2483112.5832542.63276.7363281 1.0292968.2476195.6510823.3198138 1.3529736.328125 2.0449219.0010405.6967964-.0310693 1.4103228-.2617188 2.0742188-.1544587.4516021-.4480585.8524171-.8359375 1.1308591.2791344.452294.5646157.901222.84375 1.353516-.3508225.161732-.7015656.323336-1.0527344.484375-.2988742-.49316-.5965709-.986048-.8964843-1.478516-.4055411.066494-.8208966.060647-1.2285157.015625-.4883117-.058528-.9845315-.206498-1.3613281-.535156-.289524-.250736-.4713741-.602274-.5957031-.9589844-.2036364-.6032901-.2582275-1.2458327-.2675781-1.8789062-.0048485-.6843292.0377337-1.3785329.2441406-2.0351563.1596537-.4938527.4246871-.9878198.8710937-1.2773437.5239828-.3466659 1.1710056-.4332756 1.7871094-.4277344zm4.1601564.40625c.367098-.0003462.734463-.0003462 1.101562 0 .001039.4855412.000916.9714902.001953 1.4570312.469265.0006925.936987-.0003461 1.40625 0-.007973.3151522-.016395.6301612-.02539.9453126-.468918.0010388-.937332-.001039-1.40625 0 .001038.795844-.002203 1.5928273.001953 2.3886718.008995.2178369.003681.4472254.099609.6484374.069956.15515.258689.194022.41211.199219.289179-.001039.57801-.018222.867187-.023438.017651.289524.034149.579617.050781.869141-.575237.096624-1.178571.212025-1.75.03125-.24069-.071342-.464837-.230829-.5625-.46875-.174889-.404849-.189646-.8544304-.197265-1.2890625-.000693-.7851084.000346-1.5703604 0-2.3554687-.2559309-.0006928-.5116476.0010388-.7675782 0-.0006928-.3148045-.0006928-.6301608 0-.9453126.2559306-.0010388.5116473.001039.7675782 0 .001039-.485541-.001039-.97149 0-1.4570312zm-4.0859376.5722656c-.1802164-.0141557-.3628338-.0056263-.5410156.0175782-.2770564.0391341-.5544259.1431057-.7539063.3457031-.2292643.2365368-.3423459.5592807-.4199219.8730469-.1883981.8318613-.1554137 1.6964928-.0175781 2.5332031.0457141.263896.1120276.528146.2304687.7695312.0976627.2015585.2638779.3657689.4609376.4707029.337662.176969.7314429.205098 1.1054687.177735.3546319-.027706.7251917-.14781.9648437-.4238285.2361903-.2749784.3178576-.6414898.375-.9902344.0813846-.5859742.086356-1.1820472.046875-1.7714843-.0363626-.4429437-.1088246-.8906414-.296875-1.296875-.1225974-.2680525-.3537083-.4798378-.6269531-.5878907-.168658-.0673587-.3471273-.1030317-.5273437-.1171875z" fill="#d0d0d0" stroke-width="1.333334" transform="scale(.26458333)"/></svg>