<?xml version="1.0" encoding="UTF-8" standalone="no"?><svg height="16" viewBox="0 0 4.2333332 4.2333332" width="16" xmlns="http://www.w3.org/2000/svg"><sodipodi:namedview/><metadata><rdf:RDF><cc:Work><dc:format>image/svg+xml</dc:format><dc:type/><dc:title/></cc:Work></rdf:RDF></metadata><path d="m2.1161312-.0000001c-1.0233763-.00000008-1.85194148.83253308-1.85194165 1.8559097v1.3253258a.74332002.74332002 0 0 0 -.0017.024376.41283454.41283454 0 0 0 0 .00397.74332002.74332002 0 0 0  .0997679.3814989.74332002.74332002 0 0 0  .64338955.371862v.0005805h.1315118c.063009 0 .1139395-.050364.1139395-.1133725v-1.2595862c0-.063009-.050931-.1139394-.1139395-.1139394h-.1315124a.74332002.74332002 0 0 0 -.33048116.0782271v-.6989422c0-.801807.63915886-1.4415328 1.44096596-1.4415328.801807 0 1.4415328.6397258 1.4415328 1.4415328v.6989422a.74332002.74332002 0 0 0 -.3304813-.0782271h-.1315122c-.063009 0-.1133725.05093-.1133725.1139394v1.2595698c0 .063009.050364.1133727.1133725.1133727h.1315122v-.0005805a.74332002.74332002 0 0 0  .6433897-.3718622.74332002.74332002 0 0 0  .099201-.3565569.41283454.41283454 0 0 0  .00113-.02891.74332002.74332002 0 0 0 -.00171-.024376v-1.3253114c.0000127-1.02337662-.8296857-1.85590978-1.8530622-1.8559097zm.111672 2.0639485-.2726612 1.3480003-.1700589-.3951035h-.3633592v.2488529h.2006696l.4206124.9676352.2380824-1.1813425.1003345.3123415h.3928363v-.2465856h-.2120068z" fill="#d0d0d0"/></svg>