<?xml version="1.0" encoding="UTF-8" standalone="no"?>
<!-- Created with Inkscape (http://www.inkscape.org/) -->

<svg
   xmlns:dc="http://purl.org/dc/elements/1.1/"
   xmlns:cc="http://creativecommons.org/ns#"
   xmlns:rdf="http://www.w3.org/1999/02/22-rdf-syntax-ns#"
   xmlns:svg="http://www.w3.org/2000/svg"
   xmlns="http://www.w3.org/2000/svg"
   xmlns:sodipodi="http://sodipodi.sourceforge.net/DTD/sodipodi-0.dtd"
   xmlns:inkscape="http://www.inkscape.org/namespaces/inkscape"
   width="16"
   height="16"
   viewBox="0 0 4.2333332 4.2333332"
   version="1.1"
   id="svg8"
   inkscape:version="0.92+devel (f96dc7e339, 2017-07-28, custom)"
   sodipodi:docname="glyph-rubik-cube.svg">
  <defs
     id="defs2" />
  <sodipodi:namedview
     id="base"
     pagecolor="#002466"
     bordercolor="#ffffff"
     borderopacity="0.38039216"
     inkscape:pageopacity="1"
     inkscape:pageshadow="2"
     inkscape:zoom="30.276469"
     inkscape:cx="5.0914837"
     inkscape:cy="7.2170584"
     inkscape:document-units="px"
     inkscape:current-layer="svg8"
     inkscape:document-rotation="0"
     showgrid="false"
     inkscape:showpageshadow="false"
     borderlayer="true"
     inkscape:window-width="1920"
     inkscape:window-height="1051"
     inkscape:window-x="0"
     inkscape:window-y="0"
     inkscape:window-maximized="1"
     units="px"
     inkscape:snap-object-midpoints="true"
     inkscape:snap-intersection-paths="true"
     inkscape:snap-text-baseline="false"
     inkscape:snap-center="true"
     inkscape:object-paths="true" />
  <metadata
     id="metadata5">
    <rdf:RDF>
      <cc:Work
         rdf:about="">
        <dc:format>image/svg+xml</dc:format>
        <dc:type
           rdf:resource="http://purl.org/dc/dcmitype/StillImage" />
        <dc:title></dc:title>
      </cc:Work>
    </rdf:RDF>
  </metadata>
  <path
     style="font-variation-settings:normal;vector-effect:none;fill:#d0d0d0;stroke:none;stroke-width:0.50270832;stroke-linecap:square"
     d="M 2.0581906,0.01022864 1.5415959,0.30885811 V 0.87408014 L 2.0581906,0.57602278 Z M 1.4248902,0.37636437 0.9077235,0.67442169 V 1.2396438 L 1.4248902,0.94158643 Z M 2.0581906,0.71046323 1.5415959,1.0090927 V 1.6097841 L 2.0581906,1.3111546 Z M 0.78872934,0.74307223 0.27213469,1.0417016 v 0.56465 L 0.78872934,1.3082942 Z M 1.4248902,1.076599 0.9077235,1.3746564 V 1.976492 L 1.4248902,1.6772904 Z M 0.78872934,1.4433068 0.27213469,1.7419363 V 2.3437718 L 0.78872934,2.0451425 Z M 2.0581906,1.4478789 1.5415959,1.7465084 V 2.3683715 L 2.0581906,2.0703143 Z M 1.4248902,1.8140193 0.9077235,2.1120766 V 2.7339352 L 1.4248902,2.4358779 Z M 0.78872934,2.180727 0.27213469,2.4793566 V 3.100643 L 0.78872934,2.8025856 Z"
     id="path811"
     inkscape:connector-curvature="0"
     sodipodi:nodetypes="ccccccccccccccccccccccccccccccccccccccccccccc" />
  <path
     sodipodi:nodetypes="ccccccccccccccccccccccccccccccccccccccccccccc"
     inkscape:connector-curvature="0"
     id="path882"
     d="M 2.1751427,0 2.6917372,0.29862947 V 0.8638515 L 2.1751427,0.56579414 Z M 2.8084431,0.36613574 3.3256097,0.66419305 V 1.2294151 L 2.8084431,0.93135779 Z M 2.1751427,0.70023459 2.6917372,0.99886408 V 1.5995555 L 2.1751427,1.300926 Z M 3.4446039,0.73284403 3.9611985,1.0314734 V 1.5961229 L 3.4446039,1.2980656 Z M 2.8084431,1.0663704 3.3256097,1.3644277 V 1.9662634 L 2.8084431,1.6670618 Z M 3.4446039,1.4330781 3.9611985,1.7317076 V 2.3335432 L 3.4446039,2.0349138 Z m -1.2694612,0.00457 0.5165945,0.2986295 V 2.3581429 L 2.1751427,2.0600856 Z M 2.8084431,1.8037906 3.3256097,2.101848 V 2.7237065 L 2.8084431,2.4256493 Z M 3.4446039,2.1704984 3.9611985,2.469128 V 3.0904143 L 3.4446039,2.7923569 Z"
     style="font-variation-settings:normal;vector-effect:none;fill:#d0d0d0;stroke:none;stroke-width:0.50270832;stroke-linecap:square" />
  <path
     style="font-variation-settings:normal;vector-effect:none;fill:#d0d0d0;stroke:none;stroke-width:0.50270832;stroke-linecap:square"
     d="M 0.34240384,3.2032905 0.859322,2.9052211 1.3488186,3.1878323 0.8323962,3.4861875 Z M 0.9761371,2.8379041 1.4928456,2.5390532 1.9823423,2.8216643 1.4656336,3.1205152 Z M 0.9488249,3.5534078 1.465743,3.2553384 1.985957,3.5556842 1.4690389,3.8537534 Z M 1.6117961,2.4703267 2.128714,2.1722574 2.617715,2.4545822 2.1012923,2.7529376 Z M 1.5825581,3.1880213 2.0992666,2.8891705 2.6204716,3.1900885 2.102772,3.4883671 Z M 2.2182167,2.820444 2.7351347,2.5223745 3.2563397,2.8232923 2.7394217,3.1213617 Z M 1.5874456,3.9221156 2.1043637,3.6240465 2.6429129,3.9349779 2.1264903,4.2333332 Z M 2.2211827,3.5567315 2.7378913,3.2578807 3.2764365,3.56881 2.7597282,3.8676609 Z M 2.8568412,3.189154 3.3737595,2.8910846 3.9118092,3.2017277 3.3953865,3.5000833 Z"
     id="path884"
     inkscape:connector-curvature="0"
     sodipodi:nodetypes="ccccccccccccccccccccccccccccccccccccccccccccc" />
</svg>
