<?xml version="1.0" encoding="UTF-8" standalone="no"?>
<!-- Created with Inkscape (http://www.inkscape.org/) -->

<svg
     xmlns:dc="http://purl.org/dc/elements/1.1/"
     xmlns:cc="http://creativecommons.org/ns#"
     xmlns:rdf="http://www.w3.org/1999/02/22-rdf-syntax-ns#"
     xmlns:svg="http://www.w3.org/2000/svg"
     xmlns="http://www.w3.org/2000/svg"
     xmlns:sodipodi="http://sodipodi.sourceforge.net/DTD/sodipodi-0.dtd"
     xmlns:inkscape="http://www.inkscape.org/namespaces/inkscape"
     width="16"
     height="16"
     viewBox="0 0 4.2333333 4.2333333"
     version="1.1"
     id="svg8"
     inkscape:version="0.92+devel (fa9b7f7a5b, 2017-07-19, custom)"
     sodipodi:docname="glyph-java-lang.svg">
    <defs
         id="defs2" />
    <sodipodi:namedview
         id="base"
         pagecolor="#002466"
         bordercolor="#ffffff"
         borderopacity="0.38039216"
         inkscape:pageopacity="1"
         inkscape:pageshadow="2"
         inkscape:zoom="10.137867"
         inkscape:cx="39.679867"
         inkscape:cy="27.302424"
         inkscape:document-units="px"
         inkscape:current-layer="svg8"
         inkscape:document-rotation="0"
         showgrid="false"
         inkscape:showpageshadow="false"
         borderlayer="true"
         inkscape:window-width="1920"
         inkscape:window-height="1051"
         inkscape:window-x="0"
         inkscape:window-y="0"
         inkscape:window-maximized="1"
         units="px" />
    <metadata
         id="metadata5">
        <rdf:RDF>
            <cc:Work
                 rdf:about="">
                <dc:format>image/svg+xml</dc:format>
                <dc:type
                     rdf:resource="http://purl.org/dc/dcmitype/StillImage" />
                <dc:title></dc:title>
            </cc:Work>
        </rdf:RDF>
    </metadata>
    <path
         style="fill:#d0d0d0;stroke-width:0.01141023"
         d="M 2.5402658,-1.3079639e-6 C 2.7177408,0.69893269 1.9146278,0.90997969 1.6247288,1.3452917 c -0.197511,0.296552 0.09689,0.61518 0.498061,0.977135 -0.156435,-0.35358 -0.686983,-0.663045 2.9e-4,-1.205807 C 2.9801358,0.44000369 2.5402658,-1.307964e-6 2.5402658,-1.3079639e-6 Z M 3.0705968,0.86463569 c 0,0 -1.449255,0.36194501 -0.757065,1.15952101 0.204198,0.235096 -0.05364,0.44667 -0.05364,0.44667 0,0 0.518495,-0.267672 0.280375,-0.602848 -0.222397,-0.312572 -0.392951,-0.467872 0.53033,-1.00334301 z m 0.256686,1.42463001 c -0.05092,9.9e-5 -0.104972,0.009 -0.160435,0.02855 -0.04454,0.01582 -0.06786,0.05235 -0.06786,0.05235 0,0 0.02801,-0.01133 0.09084,-0.0244 0.256319,-0.05343 0.623536,0.343186 -0.170708,0.755906 -0.0037,0.0098 -0.01596,0.0208 -0.01596,0.02079 0.944732,-0.248355 0.738718,-0.833996 0.324122,-0.833192 z m -1.70193,0.04038 c -0.06221,-0.0014 -0.33118,0.0026 -0.652724,0.158005 -0.434524,0.210188 1.074831,0.305772 1.856147,0.100285 0.08123,-0.05546 0.193506,-0.103539 0.193506,-0.103539 0,0 -0.319713,0.05711 -0.638127,0.08397 -0.389613,0.03265 -0.807894,0.03899 -1.017717,0.0109 -0.496938,-0.06636 0.272464,-0.249109 0.272464,-0.249109 0,0 -0.0047,-3.08e-4 -0.013549,-5.12e-4 z m -0.165516,0.480745 c -0.717064,0.237995 0.398963,0.50787 1.400941,0.214878 -0.106503,-0.03755 -0.174229,-0.106213 -0.174229,-0.106213 -0.489693,0.09429 -0.77269,0.09128 -1.131039,0.05431 -0.277109,-0.02866 -0.09567,-0.162975 -0.09567,-0.162975 z m 0.101266,0.463474 c -0.650919,0.181879 0.395936,0.557642 1.224661,0.202465 -0.135736,-0.05278 -0.232929,-0.113724 -0.232929,-0.113724 -0.36968,0.06997 -0.541143,0.07544 -0.876604,0.03717 -0.276904,-0.03183 -0.115128,-0.125914 -0.115128,-0.125914 z m -0.452086,0.307252 c -0.292321,0.009 -0.864026,0.271918 -0.341259,0.356659 1.689673,0.274016 3.080126,-0.123398 2.641848,-0.321092 0,0 0.119719,0.09865 -0.131842,0.174965 -0.478351,0.14491 -1.990954,0.188666 -2.411147,0.0058 -0.151049,-0.06571 0.132216,-0.156899 0.221318,-0.176034 0.09293,-0.02015 0.146015,-0.0164 0.146015,-0.0164 -0.02625,-0.01849 -0.0708,-0.02554 -0.124933,-0.02387 z m 2.568751,0.251092 c 0,0 -0.05329,0.136762 -0.630058,0.245364 -0.650703,0.122455 -1.453265,0.108164 -1.929266,0.02969 1.2e-5,-1.2e-5 0.09745,0.08063 0.598503,0.112765 0.762374,0.0488 1.933095,-0.02708 1.960821,-0.387814 z"
         id="path4"
         inkscape:connector-curvature="0"
         inkscape:label="#" />
</svg>
