<?xml version="1.0" encoding="UTF-8" standalone="no"?>
<svg
   xmlns:dc="http://purl.org/dc/elements/1.1/"
   xmlns:cc="http://creativecommons.org/ns#"
   xmlns:rdf="http://www.w3.org/1999/02/22-rdf-syntax-ns#"
   xmlns:svg="http://www.w3.org/2000/svg"
   xmlns="http://www.w3.org/2000/svg"
   xmlns:sodipodi="http://sodipodi.sourceforge.net/DTD/sodipodi-0.dtd"
   xmlns:inkscape="http://www.inkscape.org/namespaces/inkscape"
   height="12"
   viewBox="0 0 12 12"
   width="12"
   version="1.1"
   id="svg8"
   sodipodi:docname="glyph-feeds.svg"
   inkscape:version="0.92+devel (9d04be7596, 2017-09-23, custom)">
  <defs
     id="defs10" />
  <sodipodi:namedview
     id="namedview2"
     inkscape:document-rotation="0"
     showgrid="false"
     pagecolor="#002466"
     inkscape:pageopacity="0"
     inkscape:zoom="47.0625"
     inkscape:cx="7.9681275"
     inkscape:cy="8"
     inkscape:window-width="1920"
     inkscape:window-height="1017"
     inkscape:window-x="0"
     inkscape:window-y="34"
     inkscape:window-maximized="1"
     inkscape:current-layer="svg8" />
  <metadata
     id="metadata4">
    <rdf:RDF>
      <cc:Work>
        <dc:format>image/svg+xml</dc:format>
        <dc:type
           rdf:resource="http://purl.org/dc/dcmitype/StillImage" />
        <dc:title></dc:title>
      </cc:Work>
    </rdf:RDF>
  </metadata>
  <path
     style="fill:#d0d0d0;stroke-width:2.29942083;stroke:none"
     d="M 4.3757469,9.8121263 A 2.1878735,2.1878735 0 0 1 2.1878736,12 2.1878735,2.1878735 0 0 1 0,9.8121263 2.1878735,2.1878735 0 0 1 2.1878736,7.6242528 2.1878735,2.1878735 0 0 1 4.3757469,9.8121263 Z"
     id="path817"
     inkscape:connector-curvature="0"
     inkscape:label="#" />
  <path
     style="stroke-width:2.29942083;fill:#d0d0d0;stroke:none"
     d="M 2.265625 0 L 2.265625 1.8574219 C 6.626612 1.8574221 10.142579 5.3733886 10.142578 9.734375 L 12 9.734375 C 12 4.3686229 7.631383 -2.0999992e-06 2.265625 0 z M 2.265625 3.8984375 L 2.265625 5.7558594 C 4.4723126 5.7558631 6.2402861 7.5276382 6.2402344 9.734375 L 8.0976562 9.734375 C 8.0976553 6.5229192 5.4770289 3.8984913 2.265625 3.8984375 z "
     id="path822"
     inkscape:label="#" />
</svg>
