<?xml version="1.0" encoding="UTF-8" standalone="no"?><svg height="16" viewBox="0 0 4.2333333 4.2333333" width="16" xmlns="http://www.w3.org/2000/svg"><sodipodi:namedview/><metadata><rdf:RDF><cc:Work><dc:format>image/svg+xml</dc:format><dc:type/><dc:title/></cc:Work></rdf:RDF></metadata><path d="m .49163719 3.5352832q.02251773-.0525411.06755319-.2026596.03002363-.2777186.32275408-.577955.29273044-.2927304.57795494-.3452718l.1651301-.082565q.16513-.090071.1876477-.067553.015012-.022518.015012-.045035-.0675532-.0225183-.1125885-.1576248-.1801417-.1351064-.2176713-.1351064-.030023 0-.052541.015012-.0750593-.0600479-.2326834-.1876479l-.0300235-.0675532q-.0900709-.0600475-.1501182-.2777186-.0300236-.3602836.2927304-.87068545.0450356-.0450355.0900709-.1125886.2852246-.1951537.3602837-.24018915.2026595-.12760039.3752955-.18014185.00751.0150121.00751.0375299-.1050828.0450356-.2101655.090071-.1426166.0675533-.1726402.1276004-.060048.0225178-.1426123.1125887-.1426122.0975767-.2176714.1801418-.022518.0300235-.052541.1050827-.1576242.1050827-.2176714.59296675.00751.045036.015012.1576241.022518.052541.082565.1876476.2627068.2627069.3903073.2326834-.00751-.067553-.022518-.2251773.16513-.1951537.4653663-.63049645.067553-.0150121.1501183-.1125886.1276004-.0750591.2251772-.2176714.2777186-.1726359.3903073-.3152481.1125887-.045036.16513-.1125887.03753.022518.247695-.0675533.1576241 0 .3002363.2552009 0 .1501182-.00751.1576241-.00751.090071-.067553.1125886-.03753.067553-.060048.2251774-.015012.060048-.1050827.18764765-.00751.0675529-.1050828.16513-.090071.097577-.1050827.1426122-.1351063.1050827-.1501181.1050827-.045036.0675531-.2101655.1651301-.2101655.1200945-.247695.1576241-.075059.060047-.2251773.1876477-.1501182.030024-.16513.045035v.045036q.067558.037529.3227585.082565.6830377-.075059 1.0583331-.6079787.1501183-.1576241.1801419-.1576241.045036 0 .075059.045036 0 .097577-.075059.1801419-.00751.030023-.03753.090071-.1125885.120094-.2927303.3978127-.0300235.0300236-.2026596.3077423-.0525405.0825649-.195153.2251771-.1351064.1876478-.3828014.5704491-.0975768.0975769-.2927304.2852246l-.022518.067553q-.1651298.097577-.2101653.2101656-.0900708.0675532-.1426121.1426123l-.2476951.1351063q-.030023 0-.082565.060048-.4503545.1050826-.4953899.1050826-.007507-.00751-.20266021-.00751-.21016551-.1200912-.2852246-.2852212-.06755318-.1351064-.082565-.4053191zm1.55372321-1.666312v.030023q.1801418.022518.1951537-.052541.03753-.030023.1426122-.075059.075059-.060048.4203309-.3152482.03753-.030023.082565-.075059.1426123-.045036.3077423-.3602836.1125886-.27771855.1125886-.36778955 0-.052541-.022518-.1050826h-.045036q-.00751.097577-.015012.3227541-.022518.00751-.1125886.18764765-.16513.1726359-.3527778.3452718-.082565.067553-.1576241.16513h-.03753q-.03753.052541-.2627068.1801418-.022518.052541-.1276004.082565-.1050828.022518-.127599.03753zm-.1200945-.1426122q0 .030023.015012.067553.172636.022518.5929669-.2627064.1276005-.1125887.3077423-.2927306.1801418-.1876477.2852246-.36778945.00751-.067553.022518-.2176715-.030023-.075059-.075059-.075059-.015012 0-.067553.030023-.052541.030023-.075059.030023-.030023 0-.045036-.022518-.097577.0375309-.3152485.2401902-.1501181.1426121-.3002363.29273025-.1351064.172636-.345272.5779555zm-1.1859337 1.8089242q.007506.1651299.007506.2026595.0150119.097577.0600473.1726359.0375296.00751.11258864.030023.082565.030024.12009456.030024.052541 0 .2627068-.090071.3677896-.075059.5104018-.3302601.090071-.060047.247695-.2176714.052541-.015012.1125887-.097577.067553-.075059.090071-.090071.082565-.1125886.240189-.3077422.015012-.052541.1801419-.2326833.1501182-.157624.1501182-.2702127 0-.030023-.022518-.067553-.045036 0-.157624.030023-.1050828.022518-.1501183.030023-.060048.03753-.1125886.03753-.045036 0-.075059-.030023-.067553.015012-.2176714 0-.052541-.022518-.1276004-.045036-.00751.022518-.00751.1801418-.03753.030023-.060048.1200946-.015012.082565-.03753.097577-.030023.067553-.090071.2251774-.067553.090071-.247695.2101654v-.0225171q.04504-.097577.1576289-.1951536.1501181-.2702127.1501181-.4728723 0-.03753-.022518-.060048-.090071.00751-.2326831.1426122v.097577q-.022518.03753-.052541.03753-.030023 0-.060048-.060048-.1951533-.022518-.3152479.247695-.060048.030023-.1125887.1651299-.0525413.022518-.1200945.1426123-.082565.1426123-.12009456.16513-.0150119.067553-.0600464.2251787z" fill="#d0d0d0" stroke-width=".187648"/><text stroke-width=".264583" x="-7.804258" y="-.427271"><tspan stroke-width=".264583" x="-7.804258" y="7.254929"/></text></svg>