<?xml version="1.0" encoding="UTF-8" standalone="no"?><svg height="16" viewBox="0 0 4.2333332 4.2333332" width="16" xmlns="http://www.w3.org/2000/svg"><sodipodi:namedview/><metadata><rdf:RDF><cc:Work><dc:format>image/svg+xml</dc:format><dc:type/><dc:title/></cc:Work></rdf:RDF></metadata><path d="m0 294.08199.15425102.0114c.1599639-.18091.22280694-.71603 1.16545198-.61129-.034278 2.29282-1.0397659 2.53467-.97692287 3.00504.0228521.26661.23423297.43038.4627528.4399.72174257-.0248.68936897-.99787.91408007-3.45065h.9312193c-.049513.86456-.1847204 1.72913-.1999552 2.57656.011427.56368.3542062.86457.8055332.86838.7426899.0248.9769229-.84172.9769229-1.21116h-.1599639c-.015235.3047-.1618686.52369-.4741791.53702-.851237.0114-.3827711-1.4968-.377058-2.75938l1.011201.006-.00571-.64557c-4.20294393-.02062-3.66947092-.103-4.22762241 1.23376z" fill="#d0d0d0" transform="translate(0 -292.76667)"/></svg>