<?xml version="1.0" encoding="UTF-8" standalone="no"?><svg height="22" viewBox="0 0 22 22" width="22" xmlns="http://www.w3.org/2000/svg"><sodipodi:namedview/><metadata><rdf:RDF><cc:Work><dc:format>image/svg+xml</dc:format><dc:type/><dc:title/></cc:Work></rdf:RDF></metadata><g transform="translate(-.552734 .627421)"><path d="m4.9609375-.61914062c-.318972-.01097-.6325434.0747529-.8964844.24804687-.722976.474439-.911217 1.46492185-.421875 2.21289065.343915.5245387.9490345.809834 1.5546875.7324219l2.1113282 3.2207031h-5.4882813c-.702573 0-1.26757813.5669581-1.26757812 1.2695312v13.0312499c0 .702573.56500512 1.269531 1.26757812 1.269531h19.4628905c.702573 0 1.269531-.566958 1.269531-1.269531v-13.0312499c0-.7025731-.566958-1.2695312-1.269531-1.2695312h-5.486328l2.109375-3.2207031c.606269.0781909 1.212399-.2072024 1.556641-.7324219.489006-.7484666.299829-1.73908165-.423829-2.21289065-.723862-.473312-1.707136-.24956013-2.197265.49804687-.342876.52483701-.361741 1.19286218-.048828 1.71679688l-2.587891 3.9511719h-5.3027342l-2.5878907-3.9511719c.312912-.5239346.2920938-1.19195987-.0507812-1.71679688-.292995-.44805-.7795174-.72756974-1.3027344-.74609374zm-1.2070313 8.66601562h15.7636718c.468533 0 .845703.3771704.845703.8457031v9.5253909c0 .468532-.37717.845703-.845703.845703h-15.7636718c-.468532 0-.8457031-.377171-.8457031-.845703v-9.5253909c0-.4685327.3771712-.8457031.8457031-.8457031z" fill="#fff" stroke-linecap="square" stroke-width="1.491364"/><path d="m3.7531333 8.0473879h15.7641057c.468533 0 .845727.3771941.845727.8457268v9.5250903c0 .468532-.377194.845726-.845727.845726h-15.7641057c-.468532 0-.845726-.377194-.845726-.845726v-9.5250903c0-.4685327.377194-.8457268.845726-.8457268z" fill="#fff" opacity=".384615" stroke-linecap="square" stroke-width="1.543"/></g></svg>