<?xml version="1.0" encoding="UTF-8" standalone="no"?>
<svg height="22" viewBox="0 0 22 22" width="22" xmlns="http://www.w3.org/2000/svg">
	<sodipodi:namedview/>
	<metadata>
		<rdf:RDF>
			<cc:Work>
				<dc:format>image/svg+xml			</dc:format>
			<dc:type/>
			<dc:title/>
		</cc:Work>
	</rdf:RDF>
</metadata>
<path d="M 10.982648 0 C 9.111433 0 7.5981893 .5084823 6.4429177 1.5254472 C 5.295781 2.542412 4.711389 3.7815225 4.5879739 5.2353348 C 4.3345946 8.2201041 7.5812753 8.0712744 7.736497 5.6258493 C 7.8024 4.5875204 8.3588787 3.8522625 8.94465 3.3559838 C 9.530422 2.859705 10.258571 2.6115655 11.129091 2.6115655 c .903065 0 1.619009 .2400037 2.14783 .7200111 c .536957 .4718716 .805436 1.0413714 .805436 1.708501 c 0 .4800063 -.150504 .9193351 -.451533 1.3179863 c -.195258 .2522068 -.793232 .7850966 -1.793925 1.5986679 c -1.000694 .8135713 -1.667822 1.5457859 -2.001387 2.1966442 c -.333563 .650858 -.500347 1.480702 -.500347 2.48953 c 0 .09763 .0041 .370175 .01218 .817641 c .07387 2.480232 3.092198 2.560341 3.111911 0 c .0052 -.659451 .07827 -1.682038 .231869 -1.964777 c .194538 -.358086 .630517 -.850181 1.354596 -1.452225 c 1.399343 -1.1634089 2.310544 -2.0827456 2.733601 -2.7580092 c .431192 -.6752651 .646791 -1.3912078 .646791 -2.1478296 c 0 -1.3668013 -.581706 -2.5627514 -1.745113 -3.5878519 C 14.517616 .5166182 12.951492 0 10.982648 0 Z m -.03661 17.945362 A 2.0267033 2.0267033 0 0 0 8.920244 19.971155 A 2.0267033 2.0267033 0 0 0 10.946038 22 A 2.0267033 2.0267033 0 0 0 12.971831 19.971155 A 2.0267033 2.0267033 0 0 0 10.946038 17.945362 Z" fill="#d0d0d0" stroke-width="1.562058"/>
</svg>
