<?xml version="1.0" encoding="UTF-8" standalone="no"?>
<!-- Created with Inkscape (http://www.inkscape.org/) -->

<svg
   xmlns:dc="http://purl.org/dc/elements/1.1/"
   xmlns:cc="http://creativecommons.org/ns#"
   xmlns:rdf="http://www.w3.org/1999/02/22-rdf-syntax-ns#"
   xmlns:svg="http://www.w3.org/2000/svg"
   xmlns="http://www.w3.org/2000/svg"
   xmlns:sodipodi="http://sodipodi.sourceforge.net/DTD/sodipodi-0.dtd"
   xmlns:inkscape="http://www.inkscape.org/namespaces/inkscape"
   width="16mm"
   height="16mm"
   viewBox="0 0 16 16"
   version="1.1"
   id="svg8"
   inkscape:version="0.92+devel (bc9c9b4297, 2017-07-16, custom)"
   sodipodi:docname="glyph-perl.svg">
  <defs
     id="defs2" />
  <sodipodi:namedview
     id="base"
     pagecolor="#002466"
     bordercolor="#ffffff"
     borderopacity="0.38039216"
     inkscape:pageopacity="1"
     inkscape:pageshadow="2"
     inkscape:zoom="5.0689335"
     inkscape:cx="30.23622"
     inkscape:cy="30.23622"
     inkscape:document-units="mm"
     inkscape:current-layer="svg8"
     inkscape:document-rotation="0"
     showgrid="false"
     inkscape:showpageshadow="false"
     borderlayer="true"
     inkscape:window-width="1920"
     inkscape:window-height="1051"
     inkscape:window-x="0"
     inkscape:window-y="0"
     inkscape:window-maximized="1" />
  <metadata
     id="metadata5">
    <rdf:RDF>
      <cc:Work
         rdf:about="">
        <dc:format>image/svg+xml</dc:format>
        <dc:type
           rdf:resource="http://purl.org/dc/dcmitype/StillImage" />
        <dc:title></dc:title>
      </cc:Work>
    </rdf:RDF>
  </metadata>
  <path
     inkscape:connector-curvature="0"
     opacity=".85"
     fill="#ffffff"
     d="M 4.4664189,15.859693 C 4.1471594,15.776684 4.1798846,15.687353 4.7056877,15.196447 5.611105,14.350665 5.7623734,13.507796 5.5042023,10.733349 5.2983844,8.5217964 5.2525646,8.3523435 4.9064069,8.5370794 4.1580742,8.9377753 3.2221114,8.4208121 2.1603379,7.0200519 1.635266,6.3276979 1.5850869,6.1248211 1.6752641,5.0448544 1.7305391,4.3830653 1.8432608,3.5831022 1.9261596,3.2703899 2.0534215,2.787482 2.0119716,2.698756 1.6621806,2.698756 1.4338239,2.698756 1.1298385,2.5569264 0.98584295,2.3831301 0.62294875,1.9460695 1.2694692,1.2435456 2.0352558,1.2435456 c 0.311261,0 0.6821537,-0.1404553 0.8246953,-0.31197017 C 3.2272073,0.48866013 3.7893666,0.54539203 4.4206157,1.0879728 5.0911317,1.6646916 5.3194884,3.0006387 4.9427741,4.1423947 4.5166118,5.4332642 4.8125987,5.5597839 5.4089373,4.3416708 5.7427426,3.6602289 6.2132679,3.0653416 6.6008888,2.8369849 6.9536021,2.6289132 7.4684904,2.0995808 7.7448437,1.6610359 8.0219227,1.2225185 8.3695458,0.78617253 8.5164488,0.69161943 8.9695208,0.40144593 10.215288,0.00292123 10.679997,7.632236e-6 11.3127,-0.00274237 12.162119,0.73672453 12.313385,1.4254228 c 0.07127,0.3257959 0.453074,1.0930502 0.84724,1.7053913 0.394893,0.6123412 0.71779,1.2210267 0.71779,1.3519442 0,0.1308351 0.280715,0.5912316 0.623973,1.0232348 0.513434,0.6465067 0.621794,0.9723026 0.615249,1.8479081 -0.01017,1.2006864 -0.656701,2.7315398 -0.893056,2.1141137 -0.0749,-0.1948783 -0.04362,-0.5265287 0.06981,-0.738174 0.236355,-0.4414306 0.02762,-2.3984323 -0.228357,-2.1424519 -0.178161,0.1781117 -0.295256,2.087919 -0.245063,4.01147 0.06473,2.498098 -0.05673,4.853624 -0.253809,4.916182 -0.503251,0.159971 -0.723606,-0.255348 -0.517068,-0.975985 0.311258,-1.085766 0.247267,-3.971449 -0.09818,-4.427448 C 12.792657,9.9007874 12.599925,9.3632919 12.525019,8.9174901 12.449377,8.4709469 12.30686,8.055683 12.207213,7.9946083 c -0.327986,-0.2022997 -0.82251,1.1090474 -0.82251,2.1802727 0,0.8385 -0.126547,1.226139 -0.623976,1.912639 -0.703972,0.971615 -0.758513,1.258876 -0.311986,1.629776 0.348348,0.289432 0.415981,0.950506 0.116349,1.135929 -0.107636,0.06625 -0.388349,-0.08576 -0.6239762,-0.338879 -0.333077,-0.357076 -0.428345,-0.386899 -0.428345,-0.133034 0,0.380356 -0.770879,0.637793 -1.196316,0.399981 -0.2276145,-0.127262 -0.173824,-0.24078 0.244354,-0.514874 0.744699,-0.487993 0.672701,-0.887975 -0.322168,-1.797746 -0.7759701,-0.709065 -0.845057,-0.85161 -0.7177897,-1.482861 0.4028924,-1.9977364 0.4007127,-2.0493836 -0.063988,-2.0493836 -0.3047138,0 -0.4385284,0.1308351 -0.4385284,0.4290894 0,0.2363827 -0.1032663,0.6225116 -0.2290714,0.8581522 -0.2225296,0.415978 -0.288714,0.750515 -0.8276006,4.169269 -0.2683493,1.703934 -0.3345337,1.768665 -1.4944857,1.469035 m 5.5815922,-3.628942 c 0.269806,-0.522157 0.309079,-0.969415 0.193449,-2.203553 C 10.088045,8.3881027 9.9753238,8.3306565 9.5258798,9.6666039 9.3717088,10.124032 9.0720808,10.721091 8.8597258,10.99381 c -0.494526,0.63488 -0.485799,0.826873 0.06619,1.413761 0.590522,0.628338 0.718515,0.608713 1.1235902,-0.173714"
     id="path29"
     style="stroke-width:0.7272433;fill:#d0d0d0"
     inkscape:label="#" />
</svg>
