<?xml version="1.0" encoding="UTF-8" standalone="no"?><svg height="16" viewBox="0 0 4.2333332 4.2333332" width="16" xmlns="http://www.w3.org/2000/svg"><sodipodi:namedview/><metadata><rdf:RDF><cc:Work><dc:format>image/svg+xml</dc:format><dc:type/><dc:title/></cc:Work></rdf:RDF></metadata><path d="m .92604165.66145837v.39687493h.66145825v-.39687493zm1.71979155 0v .39687493h.6614583v-.39687493zm-2.6458332.2645833v.39687493h.66145829v-.39687493zm3.5718749 0v .39687493h.6614583v-.39687493zm-1.7859375.26458323v.396875h.6614583v-.396875zm-.85989575.1322917v.396875h.66145825v-.396875zm1.71979155 0v .396875h.6614583v-.396875zm-2.6458332.2645833v.396875h.6614583v-.396875zm3.5718749 0v .396875h.6614583v-.396875zm-1.7859375.2645833v.396875h.6614583v-.396875zm-.85989575.1322917v.3968749h.66145825v-.3968749zm1.71979155 0v .3968749h.6614583v-.3968749zm-2.6458332.2645833v.3968751h.66145829v-.3968751zm3.5718749 0v .3968751h.6614583v-.3968751zm-1.7859375.2645833v.396875h.6614583v-.396875zm-.85989575.1322918v.3968748h.66145825v-.3968748zm1.71979155 0v .3968748h.6614583v-.3968748zm-.8598958.5291665v.396875h.6614583v-.396875z" fill="#d0d0d0"/></svg>