<?xml version="1.0" encoding="UTF-8" standalone="no"?><svg height="16" viewBox="0 0 4.2333333 4.2333333" width="16" xmlns="http://www.w3.org/2000/svg"><sodipodi:namedview/><metadata><rdf:RDF><cc:Work><dc:format>image/svg+xml</dc:format><dc:type/><dc:title/></cc:Work></rdf:RDF></metadata><path d="m1.4621882-.00051791-.118339.001034.118339-.00051676zm.2733683.001034c-.1322479 0-.2387451.10649713-.2387451.23874513v3.33984778c0 .3400422-.2576489.6146136-.58859448.6480222v.00672h2.51715898.2811197.2800864c.137996 0 .2490803-.1110843.2490803-.2490804v-3.74550768c0-.132248-.1064972-.23874513-.2387452-.23874513zm-1.72392614.79478401-.013953 2.6323974c-.00137.3130034.21830466.5667598.50229496.5989299v.0062l.1333251.00362.1333253-.00362v-.0062c.28399098-.0321719.50366068-.2859275.50229568-.5989309l-.0139527-2.63239737zm2.84840474.18345131c.1532874 0 .2910586.12439419.276469.27698569l-.1235062 1.2934601c-.00807.084372-.068205.1529624-.1529623.1529624-.084757 0-.1448922-.068589-.1529622-.1529624l-.1235066-1.2934611c-.0145897-.1525915.1231814-.27698559.2764688-.27698559zm0 1.91254469c.1125932.0000588.2040628.091528.2041226.2041211.0001498.1127405-.0913813.2040623-.2041221.2041218-.1127405-.0000595-.2042715-.0913813-.2041218-.2041218.0000596-.1125927.0915292-.2040623.2041218-.2041221z" fill="#d0d0d0" stroke-width=".449792"/></svg>