<?xml version="1.0" encoding="UTF-8" standalone="no"?><svg height="22" viewBox="0 0 22 22" width="22" xmlns="http://www.w3.org/2000/svg"><sodipodi:namedview/><metadata><rdf:RDF><cc:Work><dc:format>image/svg+xml</dc:format><dc:type/><dc:title/></cc:Work></rdf:RDF></metadata><path d="m14.388672 0-.820313 1.828125a5.2376797 5.2376797 0 0 0 -1.076171.2363281l-1.519532-1.29687498-1.6171872 1.13671878.7128902 1.8769531a5.2376797 5.2376797 0 0 0 -.5878902.9277344l-1.9980469.1542968-.3378907 1.9472657 1.828125.8222656a5.2376797 5.2376797 0 0 0  .2363282 1.0742187l-1.296875 1.5214848 1.140625 1.613281 1.8710936-.710938a5.2376797 5.2376797 0 0 0  .929688.587891l.158203 1.996094 1.945312.33789.820313-1.826172a5.2376797 5.2376797 0 0 0 1.078125-.238281l1.517578 1.296875 1.617187-1.138672-.714843-1.873046a5.2376797 5.2376797 0 0 0  .589843-.9277349l1.998047-.15625.335938-1.9492187-1.828125-.8183594a5.2376797 5.2376797 0 0 0 -.238282-1.0761719l1.298829-1.5214843-1.138672-1.6152344-1.875.7148437a5.2376797 5.2376797 0 0 0 -.925781-.5898437l-.158204-1.99609378zm-.214844 4.9804688a2.0470977 2.0470977 0 0 1  .347656.0292968 2.0470977 2.0470977 0 0 1 1.667969 2.3671875 2.0470977 2.0470977 0 0 1 -2.367187 1.6679688 2.0470977 2.0470977 0 0 1 -1.666016-2.3671875 2.0470977 2.0470977 0 0 1 2.017578-1.6972656zm-8.0468749 5.3203122-.7089843 1.513672a4.3636612 4.3636612 0 0 0 -.8964844.183594l-1.2519532-1.105469-1.359375.925781.5683594 1.570313a4.3636612 4.3636612 0 0 0 -.5078125.763672l-1.66210935.105468-.30859375 1.617188 1.515625.710938a4.3636612 4.3636612 0 0 0  .1835938.894531l-1.1054688 1.25.9257812 1.363281 1.5703126-.568359a4.3636612 4.3636612 0 0 0  .7636718.505859l.1054688 1.662109 1.6171875.306641.7089843-1.509766a4.3636612 4.3636612 0 0 0  .8964844-.185546l1.25 1.101562 1.3613282-.923828-.5664063-1.56836a4.3636612 4.3636612 0 0 0  .5058594-.767578l1.6601561-.103515.310547-1.617188-1.513672-.708984a4.3636612 4.3636612 0 0 0 -.185547-.896485l1.105469-1.25-.925781-1.363281-1.5683596.570313a4.3636612 4.3636612 0 0 0 -.7675782-.507813l-.1035156-1.662109zm12.2558589 3.148438-.765624 1.107422a3.1729296 3.1729296 0 0 0 -.763672.105468l-1.039063-.847656-1.484375 1.164063.574219 1.214843a3.1729296 3.1729296 0 0 0 -.287109.714844l-1.25586.476563.265625 1.86914 1.339844.109375a3.1729296 3.1729296 0 0 0  .216797.31836 3.1729296 3.1729296 0 0 0  .257812.285156l-.214844 1.330078 1.751954.703125.765625-1.107422a3.1729296 3.1729296 0 0 0  .763671-.105469l1.039063.847657 1.484375-1.164063-.574219-1.214844a3.1729296 3.1729296 0 0 0  .28711-.714843l1.255859-.476563-.265625-1.869141-1.339844-.109374a3.1729296 3.1729296 0 0 0 -.216797-.31836 3.1729296 3.1729296 0 0 0 -.257812-.285156l.214844-1.330078zm-12.5253901.996093a1.7054959 1.7054959 0 0 1 1.4042969.746094 1.7054959 1.7054959 0 0 1 -.4511719 2.369141 1.7054959 1.7054959 0 0 1 -2.3691407-.451172 1.7054959 1.7054959 0 0 1  .4511719-2.369141 1.7054959 1.7054959 0 0 1  .9648438-.294922zm11.8730471 1.859376a1.4209813 1.4209813 0 0 1 1.068359.542968 1.4209813 1.4209813 0 0 1 -.242187 1.996094 1.4209813 1.4209813 0 0 1 -1.994141-.242188 1.4209813 1.4209813 0 0 1  .242188-1.996093 1.4209813 1.4209813 0 0 1  .925781-.300781z" fill="#d0d0d0" stroke-linecap="square" stroke-width="1.316568"/></svg>