<?xml version="1.0" encoding="UTF-8" standalone="no"?><svg height="16" viewBox="0 0 4.2333333 4.2333333" width="16" xmlns="http://www.w3.org/2000/svg"><sodipodi:namedview/><metadata><rdf:RDF><cc:Work><dc:format>image/svg+xml</dc:format><dc:type/><dc:title/></cc:Work></rdf:RDF></metadata><path d="m2.1163849.00000004c-.5793997 0-1.2606452.48989004-1.2606452 1.48662586 0 .5653164.6029908 1.2500564.6029908 1.8151714h1.3096734c0-.5329945.6091897-1.2550659.6091897-1.8151714 0-.99673582-.681809-1.48662586-1.2612087-1.48662586zm-.6193335 3.47480476v.017471c-.046398.011054-.080023.050129-.080023.1025648 0 .052433.033629.099452.080023.1211617v.064807c-.046398.011054-.080023.050129-.080023.1025648 0 .052433.033629.099452.080023.1211617v.1211615h.468304a.1867757.11366999 0 0 0  .1865327.107636.1867757.11366999 0 0 0  .1859691-.1076367h.3713747c.066014.00758.119471-.027099.119471-.093548 0-.052434-.033629-.099452-.080023-.1211617v-.064244c.046398-.011054.080023-.050692.080023-.1031281 0-.052434-.033629-.099452-.080023-.1211617v-.1476483z" fill="#d0d0d0" opacity=".99"/></svg>