<?xml version="1.0" encoding="UTF-8" standalone="no"?><svg height="16" viewBox="0 0 4.2333333 4.2333333" width="16" xmlns="http://www.w3.org/2000/svg"><sodipodi:namedview/><metadata><rdf:RDF><cc:Work><dc:format>image/svg+xml</dc:format><dc:type/><dc:title/></cc:Work></rdf:RDF></metadata><path d="m0 0v11.767578c.43586741-.421585.82903551-.832399 1.1035156-1.179687.2866337-.362668.5084493-.6852271.4492188-1.0312504-.1341034-.7834235-.5004583-1.9597644.2578125-2.671875.3555368-.3338704.8444131-.5311208 1.3183593-.5546875.4739464-.0235666.9327007.1252829 1.234375.484375.040221.0478836.0790388.1008308.1132813.15625.4574615.7404628.6862488 1.1788621 1.0585937 1.5683594.3651924.396212.7898787.6529772 1.5 1.15625.0530918.0377031.1012034.0779664.1464844.1210937.6786785.6474688.4827631 1.8774018-.2285156 2.5449218-.7585383.711825-1.9101924.273115-2.6835938.089844-.341597-.080949-.6785658.119636-1.0585937.382812-1.0336849.715849-2.34492535 2.057845-3.2109375 2.970704v.195312h16v-6.0820312c-1.003028-.1542088-2.051945-.2894006-2.777344-.2773438-.462193.0076724-.851657.0397917-1.082031.3046875-.521587.5997375-1.201152 1.6284085-2.2324219 1.4921875-.967042-.127774-1.8439546-1.011893-1.6699219-1.9335938.011641-.0614361.0276515-.123967.0488282-.1855468.2836346-.8228655.4791472-1.2776886.5449218-1.8125.0754999-.5335246.005218-1.0242661-.0546874-1.8925782-.0044977-.0649888-.0047853-.1290504 0-.1914062.0626526-.8183432.8952418-1.3987142 1.7500002-1.4453125.122108-.0066569.244358-.0023368.365234.0136719 1.03122.136611 1.421828 1.304801 1.769531 2.0195312.153574.3156813.520543.4485724.964844.5761719.60886.1748542 1.487944.3031027 2.373047.4101563v-6.9960938zm6.5957031 3.9726562c.2975058-.0262841.5568121.0123423.71875.1445313.6477517.5287559.618266 3.3913744-.125 3.6601563-.7432656.2687817-2.8056588-2.0077342-2.7617187-2.6113282.0329544-.4526952 1.2754513-1.1145065 2.1679687-1.1933594z" fill="#d0d0d0" stroke-width="1.7" transform="scale(.26458333)"/></svg>