<?xml version="1.0" encoding="UTF-8" standalone="no"?><svg height="22" viewBox="0 0 22 22" width="22" xmlns="http://www.w3.org/2000/svg"><sodipodi:namedview/><metadata><rdf:RDF><cc:Work><dc:format>image/svg+xml</dc:format><dc:type/><dc:title/></cc:Work></rdf:RDF></metadata><path d="m .87067877 1.1122745c-.87710585.8771058-.87710585 2.2991758 0 3.1762816.10220629.1008713.21384983.1917097.33339943.2712654l-.00242.00242c.00447.00344.00872.00715.012746.011099.054819.054819.054819.1436985 0 .1985176l.00708-.00708c-1.65235778 1.7781231-1.63496391 4.5273211.092861 6.2551459 1.5001831 1.500183 3.7805411 1.72111 5.5108505.663357l-.041536.04154c.017214-.01721.035088-.0333.05336-.04871.059318-.03651.1179234-.07461.1758838-.114138.3136397-.151488.7016553-.09735.9618605.162847.2711621.271167.3187739.681225.1428299 1.001166-.00473.0086-.00695.01449-.00737.01832-.091788.184723-.070653.402184.070325.543161.1815944.181595.4902938.165261.692146-.03659l.5684603-.56846.3258384.325838.8436994.347406.34159.702179.527083.04682 2.532249 2.532249.645935.02131.801058 1.425681-.0045-.01064 1.75157.665054.175883 1.14007 1.027969.630934.45602 1.200461 2.285843.118765.742977-.74794.10563-2.089636-9.433706-9.4337049.507781-.5077805c.201852-.2018519.218186-.5105515.03659-.692146-.147687-.1476867-.379404-.1644552-.569381-.056996-.0025.0006229-.0048.0008943-.0078.00242-.317556.1659071-.718716.1154792-.985464-.151263-.2602-.2602054-.314334-.6482207-.162846-.9618604.03952-.057945.07759-.1165338.11409-.1758355.01542-.018293.03153-.036179.04876-.053408l-.04154.041535c1.05778-1.730302.836866-4.0106737-.663308-5.5108474-1.7531142-1.75311437-4.5716981-1.75941011-6.3327401-.0193381l.017545-.017545c-.054819.054819-.1436985.054819-.1985176 0-.00396-.00401-.00766-.00828-.011099-.012747l-.00189.00189c-.0791256-.1186633-.1693732-.2295215-.2695219-.3310712-.8771058-.87710581-2.2991757-.87710581-3.17628157 0zm3.65730913.3419292.00393-.00393-.0001986-.0001985c-.00121.00141-.00247.00276-.00373.00412zm-3.3135873 3.3176569c-.00136.00126-.00272.00252-.00412.00373l.0001985.0001985zm.5416248-2.7140083c.3881442-.3881372 1.0174426-.3881372 1.405587-.0000002.3881371.3881442.3881371 1.0174429 0 1.4055871-.038114.037533-.079196.071928-.1228459.1028503-.098589.067508-.209522.1198703-.3254122.1540938-.3420967.090937-.7067419-.00693-.957329-.2569441-.388137-.3881443-.388137-1.0174427.0000001-1.4055869z" fill="#fff" shape-rendering="crispEdges"/></svg>