<?xml version="1.0" encoding="UTF-8" standalone="no"?><svg height="22" viewBox="0 0 22 22" width="22" xmlns="http://www.w3.org/2000/svg"><sodipodi:namedview/><metadata><rdf:RDF><cc:Work><dc:format>image/svg+xml</dc:format><dc:type/><dc:title/></cc:Work></rdf:RDF></metadata><path d="m4.2042252.00000017a2.9590251 2.9590251 0 0 0 -2.9590417 2.95904133 2.9590251 2.9590251 0 0 0 1.9517083 2.7800038v5.2609547 5.260956a2.9590251 2.9590251 0 0 0 -1.9517083 2.780002 2.9590251 2.9590251 0 0 0 2.9590417 2.959042 2.9590251 2.9590251 0 0 0 2.9590401-2.959042 2.9590251 2.9590251 0 0 0 -.04722-.517437l4.5546417-2.630479 4.554641-2.630477a2.9590251 2.9590251 0 0 0 1.904489.696476 2.9590251 2.9590251 0 0 0 2.959042-2.959041 2.9590251 2.9590251 0 0 0 -2.959042-2.959041 2.9590251 2.9590251 0 0 0 -1.902522.6964766l-4.556605-2.6304776-4.5566097-2.6304777a2.9590251 2.9590251 0 0 0  .049188-.5174388 2.9590251 2.9590251 0 0 0 -2.9590403-2.95904133zm1.9025221 5.22160633 4.5566077 2.6304776 4.556608 2.6304779a2.9590251 2.9590251 0 0 0 -.04919.517438 2.9590251 2.9590251 0 0 0  .04722.51744l-4.554638 2.630477-4.5546416 2.630478a2.9590251 2.9590251 0 0 0 -.8971562-.515471v-5.262924-5.2609547a2.9590251 2.9590251 0 0 0  .8951901-.5174388z" fill="#fff"/></svg>