<?xml version="1.0" encoding="UTF-8" standalone="no"?>
<!-- Created with Inkscape (http://www.inkscape.org/) -->

<svg
   xmlns:dc="http://purl.org/dc/elements/1.1/"
   xmlns:cc="http://creativecommons.org/ns#"
   xmlns:rdf="http://www.w3.org/1999/02/22-rdf-syntax-ns#"
   xmlns:svg="http://www.w3.org/2000/svg"
   xmlns="http://www.w3.org/2000/svg"
   xmlns:sodipodi="http://sodipodi.sourceforge.net/DTD/sodipodi-0.dtd"
   xmlns:inkscape="http://www.inkscape.org/namespaces/inkscape"
   width="12"
   height="12"
   viewBox="0 0 12 12"
   version="1.1"
   id="default16"
   inkscape:version="0.92+devel (327bdefa15, 2017-09-17, custom)"
   sodipodi:docname="glyph-background-tool.svg">
  <defs
     id="defs5" />
  <sodipodi:namedview
     id="base"
     pagecolor="#002466"
     bordercolor="#ffffff"
     borderopacity="0.38039216"
     inkscape:pageopacity="1"
     inkscape:pageshadow="2"
     inkscape:zoom="26.28125"
     inkscape:cx="-5.516252"
     inkscape:cy="3.6439657"
     inkscape:document-units="px"
     inkscape:current-layer="default16"
     inkscape:document-rotation="0"
     showgrid="false"
     inkscape:showpageshadow="false"
     borderlayer="true"
     inkscape:window-width="1920"
     inkscape:window-height="1017"
     inkscape:window-x="0"
     inkscape:window-y="34"
     inkscape:window-maximized="1"
     units="px" />
  <metadata
     id="metadata5">
    <rdf:RDF>
      <cc:Work
         rdf:about="">
        <dc:format>image/svg+xml</dc:format>
        <dc:type
           rdf:resource="http://purl.org/dc/dcmitype/StillImage" />
        <dc:title></dc:title>
      </cc:Work>
    </rdf:RDF>
  </metadata>
  <path
     style="fill:#d0d0d0;stroke-width:1.79999995;stroke-dasharray:3.5999999, 1.79999994999999990;stroke-dashoffset:7.37999964;fill-opacity:1;stroke:none"
     d="M 1.1992188 0 C 0.53441877 -1.4802974e-16 0 0.53441877 0 1.1992188 L 0 10.800781 C -1.4802974e-16 11.465581 0.53441877 12 1.1992188 12 L 2.4863281 12 L 2.4863281 9.0820312 C 3.1871069 7.6731583 4.4438025 6.7950439 5.8164062 6.7265625 A 1.7482106 1.7482106 0 0 1 4.2519531 4.9882812 A 1.7482106 1.7482106 0 0 1 6 3.2402344 A 1.7482106 1.7482106 0 0 1 7.7480469 4.9882812 A 1.7482106 1.7482106 0 0 1 6.1601562 6.7285156 C 7.5543715 6.8035406 8.8242128 7.7125918 9.5136719 9.1601562 L 9.5136719 12 L 10.800781 12 C 11.465581 12 12 11.465581 12 10.800781 L 12 1.1992188 C 12 0.53441877 11.465581 0 10.800781 0 L 1.1992188 0 z "
     id="rect811"
     inkscape:label="#" />
</svg>
