<?xml version="1.0" encoding="UTF-8" standalone="no"?>
<!-- Created with Inkscape (http://www.inkscape.org/) -->

<svg
   xmlns:dc="http://purl.org/dc/elements/1.1/"
   xmlns:cc="http://creativecommons.org/ns#"
   xmlns:rdf="http://www.w3.org/1999/02/22-rdf-syntax-ns#"
   xmlns:svg="http://www.w3.org/2000/svg"
   xmlns="http://www.w3.org/2000/svg"
   xmlns:sodipodi="http://sodipodi.sourceforge.net/DTD/sodipodi-0.dtd"
   xmlns:inkscape="http://www.inkscape.org/namespaces/inkscape"
   width="16"
   height="16"
   viewBox="0 0 4.2333332 4.2333332"
   version="1.1"
   id="svg8"
   inkscape:version="0.92+devel (d0390b9f4f, 2017-07-31, custom)"
   sodipodi:docname="glyph-archive.svg">
  <defs
     id="defs2" />
  <sodipodi:namedview
     id="base"
     pagecolor="#002466"
     bordercolor="#ffffff"
     borderopacity="0.38039216"
     inkscape:pageopacity="1"
     inkscape:pageshadow="2"
     inkscape:zoom="7.1685545"
     inkscape:cx="7.0795292"
     inkscape:cy="30.23622"
     inkscape:document-units="px"
     inkscape:current-layer="layer1"
     inkscape:document-rotation="0"
     showgrid="false"
     inkscape:showpageshadow="false"
     borderlayer="true"
     inkscape:window-width="1920"
     inkscape:window-height="1051"
     inkscape:window-x="0"
     inkscape:window-y="0"
     inkscape:window-maximized="1"
     inkscape:snap-page="true"
     inkscape:snap-grids="false"
     inkscape:snap-to-guides="false"
     units="px" />
  <metadata
     id="metadata5">
    <rdf:RDF>
      <cc:Work
         rdf:about="">
        <dc:format>image/svg+xml</dc:format>
        <dc:type
           rdf:resource="http://purl.org/dc/dcmitype/StillImage" />
        <dc:title></dc:title>
      </cc:Work>
    </rdf:RDF>
  </metadata>
  <g
     inkscape:label="#"
     inkscape:groupmode="layer"
     id="layer1"
     transform="translate(0,-292.76667)">
    <path
       style="opacity:1;fill:#d0d0d0;stroke-width:0.44800466"
       d="m -2.360639e-5,292.76667 v 3.6721 H 4.2332917 v -3.6721 z M 1.6906718,292.96771 h 0.4579697 c 0.022706,0 0.040996,0.0185 0.040996,0.0412 v 0.42158 c 0,0.0227 -0.018289,0.041 -0.040996,0.041 H 1.6906718 c -0.022706,0 -0.041215,-0.0183 -0.041215,-0.041 v -0.42158 c 0,-0.0227 0.018509,-0.0412 0.041215,-0.0412 z m 0.5399615,0.50379 h 0.4581889 c 0.022706,0 0.040996,0.0183 0.040996,0.041 v 0.42158 c 0,0.0227 -0.018288,0.041 -0.040996,0.041 H 2.2306333 c -0.022706,0 -0.040996,-0.0183 -0.040996,-0.041 v -0.42158 c 0,-0.0227 0.018289,-0.041 0.040996,-0.041 z m -0.5230809,0.67259 h 0.9010319 c 0.041236,0 0.072607,0.0331 0.074538,0.0743 l 0.072784,1.55127 c 0.00193,0.0412 -0.037877,0.0745 -0.084842,0.0745 H 1.6450721 c -0.046965,0 -0.086772,-0.0333 -0.084842,-0.0745 l 0.072784,-1.55127 c 0.00193,-0.0412 0.033303,-0.0743 0.074538,-0.0743 z m 0.1212338,1.06217 c -0.028718,0 -0.051957,0.0233 -0.051957,0.052 v 0.31832 c 0,0.0287 0.02324,0.052 0.051957,0.052 h 0.6585644 c 0.028718,0 0.051738,-0.0233 0.051738,-0.052 v -0.31832 c 0,-0.0287 -0.02302,-0.052 -0.051738,-0.052 z"
       id="rect17"
       inkscape:connector-curvature="0"
       inkscape:label="#2" />
    <path
       style="opacity:1;fill:#d0d0d0;stroke-width:0.1751435"
       d="M -4.1e-5,296.43877 H 4.2332922 V 297 H -4.1e-5 Z"
       id="rect20"
       inkscape:connector-curvature="0"
       inkscape:label="#1" />
  </g>
</svg>
