<?xml version="1.0" encoding="UTF-8" standalone="no"?><svg height="22" viewBox="0 0 22 22" width="22" xmlns="http://www.w3.org/2000/svg"><sodipodi:namedview/><metadata><rdf:RDF><cc:Work><dc:format>image/svg+xml</dc:format><dc:type/><dc:title/></cc:Work></rdf:RDF></metadata><path d="m18.646484 0v3.3535156h3.353516v-3.3535156zm-18.646484 4.6816406v3.3535156h3.3535156v-3.3535156zm13.984375 0v3.3535156h3.353516v-3.3535156zm-9.3222656 4.7148438v3.3535156h3.3535156v-3.3535156zm4.6621094 0v3.3535156h3.3515622v-3.3535156z" fill="#fff" stroke-width=".517"/><path d="m18.646484 4.6816406v3.3535156h3.353516v-3.3535156zm-18.646484 4.7148438v3.3535156h3.3535156v-3.3535156zm13.984375 0v3.3535156h3.353516v-3.3535156zm4.662109 0v3.3535156h3.353516v-3.3535156zm-18.646484 4.6542966v3.353516h3.3535156v-3.353516zm4.6621094 0v3.353516h3.3535156v-3.353516zm4.6621094 0v3.353516h3.3515622v-3.353516zm4.6601562 0v3.353516h3.353516v-3.353516zm4.662109 0v3.353516h3.353516v-3.353516zm-18.646484 4.595703v3.353516h3.3535156v-3.353516zm4.6621094 0v3.353516h3.3535156v-3.353516zm4.6621094 0v3.353516h3.3515622v-3.353516zm4.6601562 0v3.353516h3.353516v-3.353516zm4.662109 0v3.353516h3.353516v-3.353516z" fill="#fff" opacity=".379" stroke-width=".517"/></svg>