<?xml version="1.0" encoding="UTF-8" standalone="no"?><svg height="16" viewBox="0 0 4.2333333 4.2333333" width="16" xmlns="http://www.w3.org/2000/svg"><sodipodi:namedview/><metadata><rdf:RDF><cc:Work><dc:format>image/svg+xml</dc:format><dc:type/><dc:title/></cc:Work></rdf:RDF></metadata><path d="m7.3769531 5.4082031c-.6845571-.0011497-1.5952356.0084648-2.5039062.0527344-2.6175822.1313348-3.1068816.711686-3.1679688 1.2675781-.0794128.7208266.8929314 1.2212431 1.4824219 1.4472656.5620014.2138041 1.4492188.3743962 1.4492188.6523438 0 .2229695-.3347529.2409832-1.296875.2226562-1.4966337-.0244157-2.75195317-.1738281-2.75195318-.1738281l-.58789062 1.6171879s1.4248547.097656 2.9453125.097656c2.1685919 0 3.9544339.086789 4.28125-1.3457032.232131-1.0109957-.6504738-1.4872828-1.7011719-1.7988282-.7086104-.2107502-2-.5023479-2-.7558594 0-.3237618.8670421-.3137081 1.46875-.3320312.6566861-.0183307 3.2011719-.0214844 3.2011719-.0214844l.3242187-.9160156s-.4580206-.0125002-1.1425781-.0136719zm2.0683594.0097657-.3261719.9238281c.2015887.0061228.2918248-.0043032.6308594.0292969.311543.0305385.600004.0773388.853516.1445312l1.572265-.9804688c-.381794-.0549796-.700403-.0798294-.886719-.0859374-.736099-.0183266-1.025182-.0343043-1.8437495-.03125zm3.9999995.3300781-2.308593.9316406c.067196.0336.16878.1109312.220703.1445313.015269.0122078.027703.0201504.042969.0292968l2.667968-.8847656c-.183261-.0763604-.436731-.1718338-.623047-.2207031zm1.292969.4960937-3.154297.7929688c.01527.0244535.028801.0497841.041016.0742187.015269.0366614.029071.0727249.035156.109375.027477.1527194-.040288.2998077-.177734.4433594-.1405.1435578-.359626.2773642-.640625.3964844-.281.1191193-.62687.2205134-1.0117189.296875-.3879031.0763578-1.0353845.1390276-1.484375.1542969l-.7363281 2.0742192c1.6951669-.076362 6.390189-.060837 8.195313-2.3027349.226021-.3573581.265791-.7238185.070312-1.078125-.216859-.4031735-.635805-.716591-1.136719-.9609375zm-.423828 3.4550782v.1523437h.265625v.7402345h.179688v-.7402345h.263672v-.1523437zm.824219 0v .8925782h.166016v-.701172l.177734.701172h.173828l.175781-.701172v.701172h.167969v-.8925782h-.269531l-.160157.6093752-.162109-.6093752z" fill="#d0d0d0" transform="scale(.26458333)"/></svg>