<?xml version="1.0" encoding="UTF-8" standalone="no"?><svg height="22" viewBox="0 0 22 22" width="22" xmlns="http://www.w3.org/2000/svg"><sodipodi:namedview/><metadata><rdf:RDF><cc:Work><dc:format>image/svg+xml</dc:format><dc:type/><dc:title/></cc:Work></rdf:RDF></metadata><path d="m .037495 12.86861c.19358.22648.47808-.10199.66374-.2417.16378-.12353.33819-.26779.48946-.33846.78591-.36725 1.98655-.20701 2.75381-.55092.27204-.1219.49357-.31654.76548-.4269.25818-.105.48068-.0258.6851.0289.10861.0292.22513.0734.32494.10751.6469.2228 1.2965.46477 2.11814.46529.65941.00036 1.18813-.28064 1.69484-.46714.12865-.0474.30164-.0647.3841-.19675-.43271-.0312-.80507-.14192-1.26869-.24954-.60896-.14124-1.0784-.22773-1.36768-.65773.24552-.10913.55044-.10463.82485-.0986.29959.006.59651.01.88349.0134 1.21196.014 2.15351.20917 3.12042.5024.46971.14223.9181.37253 1.32677.56093.8371.38635 1.58252.91227 2.29992 1.49997.3249.26615.63228.61495.98993.93738.15621.14099.31609.30042.48741.47773.16331.16856.40379.36875.45811.53007.0605.17788-.003.39342-.019.60077-.028.36047-.0302.74258.0534 1.0949.1084.45575.27951.8893.54519 1.20579.0783-.0978.0926-.25048.11845-.39244.18346-.33913.44337-.68972.37195-1.19496.68344.23543 1.90443.015 2.63899-.10899.22079-.0374.44999-.0488.6194-.16583-.42248-.16924-.75182-.41558-1.13434-.65955-.57861-.36875-1.05823-.68069-1.84519-.80302-.2551-.0396-.53968-.0381-.69541-.1613-.11956-.0943-.18907-.3338-.27778-.5609-.23945-.6143-.52692-1.26063-.77267-1.77057-.7385-1.533-1.70451-2.8469104-2.86544-3.8028704-.58827-.48482-1.25737-.84972-1.98105-1.25875-.13776-.15961-.38127-.36597-.46626-.6291-.0872-.27091-.0468-.52699.0912-.73985.32304-.33144.89325-.45204 1.07768-.90131-.36283-.18903-.77733-.19604-1.17937-.17319-.86877.0494-1.65971.24098-2.28367.59705-.36831.21011-.69466.46432-1.02716.69739-.11341.0793-.2379.19679-.34707.24389-.27835.11969-.75241.0612-1.12411.10564-.92918.11143-1.51633.27501-2.25735.51165-.34678.11067-.70665.21976-1.00392.36255-.25386.12205-.53129.34915-.80582.54659-.43382.31224-.71963.58683-1.04196.93165-.53875.57614-.83054 1.24073-1.1758 1.9747804-.15071.32042-.36574.7964-.32594 1.14136-.19639.44457-.55239.75307-.5586 1.35983.012.0203.0246.0378.0375.0529z" fill="#fff" shape-rendering="crispEdges" stroke-width=".050809"/></svg>