<?xml version="1.0" encoding="UTF-8" standalone="no"?>
<svg xmlns:dc="http://purl.org/dc/elements/1.1/" xmlns:cc="http://creativecommons.org/ns#" xmlns:rdf="http://www.w3.org/1999/02/22-rdf-syntax-ns#" xmlns:svg="http://www.w3.org/2000/svg" xmlns="http://www.w3.org/2000/svg" xmlns:sodipodi="http://sodipodi.sourceforge.net/DTD/sodipodi-0.dtd" xmlns:inkscape="http://www.inkscape.org/namespaces/inkscape" height="12" viewBox="0 0 12 12" width="12" version="1.1" id="svg8" sodipodi:docname="glyph-video2.svg" inkscape:version="0.92+devel (f318dbfe43, 2017-10-09, custom)">
  <defs id="defs10" />
  <sodipodi:namedview id="namedview2" inkscape:document-rotation="0" showgrid="false" pagecolor="#002466" inkscape:pageopacity="0" borderlayer="true" inkscape:showpageshadow="false" bordercolor="#ffffff" borderopacity="0.31764706" inkscape:zoom="33.333333" inkscape:cx="5.79" inkscape:cy="6" inkscape:window-width="1920" inkscape:window-height="1027" inkscape:window-x="0" inkscape:window-y="24" inkscape:window-maximized="1" inkscape:current-layer="svg8" />
  <metadata id="metadata4">
    <rdf:RDF>
      <cc:Work>
        <dc:format>image/svg+xml</dc:format>
        <dc:type rdf:resource="http://purl.org/dc/dcmitype/StillImage" />
        <dc:title></dc:title>
      </cc:Work>
    </rdf:RDF>
  </metadata>
  <path style="fill:#d0d0d0;stroke-width:1;stroke:none" d="M 1.1992188 0 C 0.53441875 0 0 0.53441875 0 1.1992188 L 0 10.800781 C -1.4802974e-16 11.465581 0.53441875 12 1.1992188 12 L 10.800781 12 C 11.465581 12 12 11.465581 12 10.800781 L 12 1.1992188 C 12 0.53441875 11.465581 0 10.800781 0 L 1.1992188 0 z M 1.21875 1.2480469 L 3.1269531 1.2480469 L 3.1269531 3.15625 L 1.21875 3.15625 L 1.21875 1.2480469 z M 8.8730469 1.2675781 L 10.78125 1.2675781 L 10.78125 3.1757812 L 8.8730469 3.1757812 L 8.8730469 1.2675781 z M 5.0449219 1.2734375 L 6.9550781 1.2734375 L 6.9550781 3.1816406 L 5.0449219 3.1816406 L 5.0449219 1.2734375 z M 1.21875 8.7929688 L 3.1269531 8.7929688 L 3.1269531 10.701172 L 1.21875 10.701172 L 1.21875 8.7929688 z M 8.8730469 8.8125 L 10.78125 8.8125 L 10.78125 10.720703 L 8.8730469 10.720703 L 8.8730469 8.8125 z M 5.0449219 8.8183594 L 6.9550781 8.8183594 L 6.9550781 10.726562 L 5.0449219 10.726562 L 5.0449219 8.8183594 z " id="path829" />
</svg>
