<?xml version="1.0" encoding="UTF-8" standalone="no"?><svg height="16" viewBox="0 0 4.2333332 4.2333332" width="16" xmlns="http://www.w3.org/2000/svg"><sodipodi:namedview/><metadata><rdf:RDF><cc:Work><dc:format>image/svg+xml</dc:format><dc:type/><dc:title/></cc:Work></rdf:RDF></metadata><path d="m1.4252911-.0000018c-.088233 0-.1595481.070923-.1595481.1584947 0 .03445.013107.066024.03191.09203l-.39887229.4550333c-.0159403-.0042-.0305908-.010225-.0478629-.010225-.10729892 0-.19677712.087786-.19677712.1942827 0 .00404.005077.00627.005323.010225l-.35100288.2300723c-.0258738-.017907-.0564793-.030676-.0904111-.030676-.088231 0-.15954813.070921-.15954813.1584946 0 .053386.0283959.099081.069137.1278176l-.0638193 1.1861533c-.03888.021094-.06381929.065402-.06381929.1124799 0 .068649.0584755.1227066.1276385.1227066.003663 0 .007066.0003257.0106322 0l .87219691.8845013c-.0000781.00179 0 .0033 0 .00511 0 .068649.053156.1278176.1223192.1278176.024535 0 .049819-.00835.069137-.020452l.4786459.2505242c-.0009784.00713-.00532.013058-.00532.020452 0 .087573.071317.1584947.1595481.1584947.082605 0 .1459037-.063349.1542288-.1431586l1.2763808-.3732247c.02899.040101.079435.066465.1329562.066465.088229 0 .1595481-.07092.1595481-.1584947 0-.037024-.015793-.070156-.037226-.097142l.5530994-1.2117159c.088228 0 .1595481-.070921.1595481-.1584946 0-.076838-.054537-.1388324-.1276385-.1533821l-.1755045-.5777387c.027533-.0228.047866-.053654.047866-.09203 0-.068645-.058479-.1227051-.1276385-.1227051-.0059 0-.010274.00433-.015956.00511l-.8030588-.9714153c.00114-.00663.00531-.013531.00531-.02045 0-.068649-.058477-.1227067-.1276385-.1227067-.041187 0-.072905.020667-.095729.051128l-1.2391579-.0460141c-.0217854-.0618507-.0791634-.1073673-.148911-.1073673zm.1489111.2147346 1.2178834.046013c.00801.027766.024594.050325.047865.066467l-.03191.1380444c-.0569923.0132209-.1022402.0514073-.1276386.1022546l-1.3614768.1636056.0904111-.4192424c.00599.0006511.00977.00511.015956.00511.06796 0 .1258263-.04288.1489111-.1022563zm1.3880686.1227051.7817842.9458554c-.00819.016526-.015956.031459-.015956.051126 0 .034326.014556.064423.037229.086919l-.0638197.1789443-.6807376-.8589384c.014947-.027324.026592-.058749.026592-.09203 0-.083359-.053026-.1520274-.1276385-.1789449l.02659-.1278176c.00549-.00177.010844-.00262.015956-.00511zm-1.6167553.025564-.085092.3732293-.26059474.030677c-.001465-.00189-.003698-.00329-.005311-.00511l.35100754-.3987958zm1.3402058.4243571-.3935526 1.5235926c-.012325.00278-.025695.00565-.037227.010225l-1.0104728-1.140138.4733266-.0511258c.021253.038588.064251.066465.1116837.066465.069161 0 .1223207-.059171.1223207-.1278192 0-.00948-.00329-.016679-.00532-.025564l.680738-.2505211.0585-.00511zm-.292506.030675-.4733266.1738341c-.022969-.027329-.05175-.046015-.09041-.046015-.069163 0-.1276385.054058-.1276385.1227034 0 .00169-.0000635.00347 0 .00511l-.4680068.0562447.0372273-.1840592 1.1221546-.1278192zm.5052363.0255633.7392391.9407429-.1542304.4294692-.9253775.2147363c-.013661-.02497-.031861-.042724-.053184-.061354zm-1.6912101.1124799-.0319096.1482711-.1170031-.1329318.1489127-.0153377zm-.50523625.051129c.009444.011365.0201213.021722.0319114.030677l-.026592.1482679-.33505103.040902c-.00032564-.00169.00032564-.00345 0-.00511zm.13827559.071578c.003612.0001628.006969 0 .010632 0 .003661 0 .007034.0001628.010632 0l .0744567.081802-.11168532.015338.0159565-.097142zm.14359332.1329314.13827564.1533805-.0638209.2811997c-.0665335.00295-.11700145.055943-.11700145.1227067 0 .03873.0198887.069233.0478647.09203l-.42014312.6339783.24463988-1.2628449zm-.28718664.030677-.26591245 1.375323c-.047148.00938-.0841572.041081-.10636758.081803l-.0744531-.015338c0-.051486-.0295097-.098723-.0744563-.1175925l.0638176-1.1554775c.0706545-.00964.12324233-.062802.13295785-.1329302l.32441396-.03579zm.46800888.178945.9466517 1.0583337c-.00182.00661-.00407.013628-.00532.020451l-1.53166313.1636086c-.009883-.00982-.0197029-.01858-.0319096-.025564l.48927833-.7515719c.010486.00283.020519.00511.03191.00511.069161 0 .1276385-.054057.1276385-.122705 0-.049083-.032838-.092279-.074456-.1124815l.047864-.2351833zm2.6484972.030675c.00332.0009785.00721-.0008123.010632 0l .1435952.4908223-.223369-.2914265.069137-.1993953zm-.1382756.3834549.2233674.2811998-.3510058.0818044zm.2393222.4396944-.5052362 1.0992376.010632-.6851061c.053394-.010844.095729-.056276.095729-.1124798 0-.045571-.030685-.083179-.069137-.1022531l.037228-.097144.43078-.1022547zm-.4892814.1175941-.02659.066465c-.064717 0-.1170031.053361-.1170031.1175925 0 .053653.035321.099057.085092.1124798l-.015956.7822482c-.039022.011935-.070474.042166-.09041.076692l-.6966928-.1533837c0-.068645-.058479-.122705-.1276401-.122705-.067331 0-.1247777.051463-.1276385.117594l-.1701852.0409006.2127303-.6442038c.1163729-.0025726.2137967-.0890581.2340044-.1993969l.8402857-.1942827zm-1.2923382.2658604c.014605.026678.035236.052215.0585.071579l-.24464.7464588-.510554.1278176-.8243325-.7720214c.00114-.00311.004298-.00702.005324-.010225l1.5157074-.1636074zm-1.84543884.1329317.0212725.00511c.00097723.0063-.001726.014426 0 .02045zm.12763687.1278193c.0151261.00471.0311721.010225.0478661.010225.003566 0 .007115.0001628.0106322 0l .69669237.6493163c-.010958-.00311-.025257-.00511-.037227-.00511-.024535 0-.044499.00835-.063818.020452l-.65414893-.6748833zm1.90394037.5214972c.017915.046904.063469.076692.117003.076692.051872 0 .097991-.026966.1170014-.071579l.6062829.1329314-1.1806561.3425521.1435933-.4345817zm-.3882316.0971421-.1276401.3834544c-.00703.0013-.014605.0028-.021273.00511l-.303141-.2811971zm-.6381941.1533821.079774.076692-.1116837-.061354c.0001628-.00324 0-.00692 0-.010225z" fill="#d0d0d0"/></svg>