<?xml version="1.0" encoding="UTF-8" standalone="no"?><svg height="16" viewBox="0 0 4.2333332 4.2333332" width="16" xmlns="http://www.w3.org/2000/svg"><sodipodi:namedview/><metadata><rdf:RDF><cc:Work><dc:format>image/svg+xml</dc:format><dc:type/><dc:title/></cc:Work></rdf:RDF></metadata><path d="m2.1166666 0c-1.1726332 0-2.1166666.9440332-2.1166666 2.1166666 0 1.1726332.9440334 2.1166666 2.1166666 2.1166666 1.1726333 0 2.1166666-.9440334 2.1166666-2.1166666 0-1.1726334-.9440333-2.1166666-2.1166666-2.1166666zm.3443718.520485c-.038934.038457-.065939.2645833-.065939.2645833.038844-.069718.15875-.15875.15875-.15875-.1058334.2116667 0 .5291667 0 .5291667.2017902.2013436.4851382.8818066.4851382.8818066l.085576.1238167c.108692.1549813.0686446.3459663-.0390672.4036963-.4035796.2172398-.442557-.1248502-.442557-.1248502-.3339105-.0387244-.6182568-.4378028-.6182568-.4378028-.4499071.2321624-.110688.9145046.083716 1.166027.2258403.2915672.1030124.7597446.076481.8505942-.023036.000804-.045585.00331-.068833.00331-.7702886 0-1.4259238-.4485248-1.7272329-1.100088-.1537588-.4542643.0483688-.9198404.0483688-.9198404-.058704.024514-.1971972.096738-.2116666.1058334.014469-.3265952.8466666-.8466667.8466666-.8466667h-.3175c.6289801-.6033175 1.3448274-.3770321 1.3448274-.3770321.0231637-.1317127.3615283-.363802.3615283-.363802z" fill="#d0d0d0" stroke-opacity=".550265" stroke-width=".740833"/></svg>