<?xml version="1.0" encoding="UTF-8" standalone="no"?><svg height="16.20767" viewBox="0 0 16 16.20767" width="16" xmlns="http://www.w3.org/2000/svg"><metadata><rdf:RDF><cc:Work><dc:format>image/svg+xml</dc:format><dc:type/><dc:title/></cc:Work></rdf:RDF></metadata><sodipodi:namedview/><path d="m8.2345048 0-.4760093.3593417-1.4373634 1.0733551 1.1666909 1.5540321h-1.0453556-1.1946915v-2.3893832h-2.3893832v2.3893832h-2.3893831v2.3893831h2.3893831v2.5457208l-2.8583927 1.430363 1.0640221 2.1373782 1.7943706-.898353v3.145399h-2.3893831v2.389383h4.7787663v-.956688l.9753534 1.038356.4340099-.399009s1.3236354-1.194135 2.1350443-2.599387v-.0024c.478347-.828582.808366-1.896563 1.003355-3.054395h1.4256955v5.973456h2.389383v-5.973456h2.389384v-2.3893732h-2.389384v-2.3869948h2.389384v-2.3893831h-2.240047l1.166691-1.5540321-1.913374-1.4326968-2.240046 2.9867289h-.298673zm-2.9867289 5.376112h1.1946915 1.1946918v2.3870518h-1.12469l-.069997-.140004v-.15867l-.062996.03266-.5320117-1.068689-.5996791.301006zm4.7787661 0h1.194692v2.3870518h-1.194692zm-4.7787661 4.776434h2.1187116c-.1524289.647302-.3069929 1.278283-.6440142 1.862037-.4480858.775-1.2319648 1.538904-1.4746974 1.782705z" fill="#d0d0d0"/></svg>