<?xml version="1.0" encoding="UTF-8" standalone="no"?><svg height="22" viewBox="0 0 22 22" width="22" xmlns="http://www.w3.org/2000/svg"><sodipodi:namedview/><metadata><rdf:RDF><cc:Work><dc:format>image/svg+xml</dc:format><dc:type/><dc:title/></cc:Work></rdf:RDF></metadata><path d="m10.947354.00000015a1.1175117.3141681 0 0 0 -1.1135613.2999276h-.0064l-.918937 2.72487295h.01914a2.0381083.51826435 0 0 0 -.01914.070196 2.0381083.51826435 0 0 0 2.0388693.5168964 2.0381083.51826435 0 0 0 2.038869-.5168964 2.0381083.51826435 0 0 0 -.02233-.070196h.01274l-.915715-2.68977525a1.1175117.3141681 0 0 0  .0033-.019145 1.1175117.3141681 0 0 0 -1.116829-.3158806zm-3.1811463 6.94619275-1.215663 3.9118191a4.4573289 1.3920987 0 0 0 -.05424.17549l-.0064.02233h.0032a4.4573289 1.3920987 0 0 0 -.0032.02233 4.4573289 1.3920987 0 0 0 4.4574393 1.39116 4.4573289 1.3920987 0 0 0 4.451051-1.356056h.0033l-.0033-.0064a4.4573289 1.3920987 0 0 0  .0064-.02872 4.4573289 1.3920987 0 0 0 -.09253-.274402l-1.103997-3.8575511h-.09892a3.2422926 1.0126225 0 0 1 -3.161994.7944887 3.2422926 1.0126225 0 0 1 -3.1588113-.7944887zm-3.6757065 6.6430741c-.3826994 0-.6304899.34006-.6891951.520088l-2.3962291 7.345033c-.094074.288487.406039.545612.9093545.545612h18.1711385c.503316 0 1.003421-.257125.909355-.545612l-2.396229-7.345033c-.05871-.180028-.306492-.520088-.689195-.520088h-1.917621a5.4397237 2.3331055 0 0 1  .306309.765772 5.4397237 2.3331055 0 0 1 -5.440176 2.332416 5.4397237 2.3331055 0 0 1 -5.4401732-2.332416 5.4397237 2.3331055 0 0 1  .3094996-.765772z" fill="#fff"/></svg>