<?xml version="1.0" encoding="UTF-8" standalone="no"?>
<!-- Created with Inkscape (http://www.inkscape.org/) -->

<svg
   xmlns:dc="http://purl.org/dc/elements/1.1/"
   xmlns:cc="http://creativecommons.org/ns#"
   xmlns:rdf="http://www.w3.org/1999/02/22-rdf-syntax-ns#"
   xmlns:svg="http://www.w3.org/2000/svg"
   xmlns="http://www.w3.org/2000/svg"
   xmlns:sodipodi="http://sodipodi.sourceforge.net/DTD/sodipodi-0.dtd"
   xmlns:inkscape="http://www.inkscape.org/namespaces/inkscape"
   width="16mm"
   height="16mm"
   viewBox="0 0 16 16"
   version="1.1"
   id="svg8"
   inkscape:version="0.92+devel trunk-123-gfa70b9518d 2017-07-11 custom"
   sodipodi:docname="glyph-zipper.svg">
  <defs
     id="defs2" />
  <sodipodi:namedview
     id="base"
     pagecolor="#002466"
     bordercolor="#ffffff"
     borderopacity="0.38039216"
     inkscape:pageopacity="1"
     inkscape:pageshadow="2"
     inkscape:zoom="10.137867"
     inkscape:cx="30.23622"
     inkscape:cy="30.23622"
     inkscape:document-units="mm"
     inkscape:current-layer="svg8"
     inkscape:document-rotation="0"
     showgrid="false"
     inkscape:showpageshadow="false"
     borderlayer="true"
     inkscape:window-width="1920"
     inkscape:window-height="1051"
     inkscape:window-x="0"
     inkscape:window-y="0"
     inkscape:window-maximized="1" />
  <metadata
     id="metadata5">
    <rdf:RDF>
      <cc:Work
         rdf:about="">
        <dc:format>image/svg+xml</dc:format>
        <dc:type
           rdf:resource="http://purl.org/dc/dcmitype/StillImage" />
        <dc:title></dc:title>
      </cc:Work>
    </rdf:RDF>
  </metadata>
  <path
     style="opacity:1;fill:#d0d0d0;stroke-width:0.21856184"
     d="M 5.3160726,2.4999996e-8 C 5.1857006,2.4999996e-8 5.0805116,0.10515003 5.0805116,0.23555003 V 2.6566 c 0,0.1303999 0.105189,0.2355602 0.235561,0.2355602 h 2.630442 c 0.130373,0 0.234993,-0.1051502 0.234993,-0.2355602 V 0.23555003 C 8.1815076,0.10516003 8.0768866,2.4999996e-8 7.9465146,2.4999996e-8 Z M 8.4170696,2.8921699 c -0.130373,0 -0.235562,0.1046002 -0.235562,0.2349903 v 2.4210597 c 0,0.1304 0.105189,0.23557 0.235562,0.23557 h 2.6304414 c 0.130377,0 0.234993,-0.10516 0.234993,-0.23557 V 3.1271602 c 0,-0.1304002 -0.104623,-0.2349903 -0.234993,-0.2349903 z m -3.003699,3.34566 c -0.23676,0 -0.416194,0.19083 -0.427312,0.4273 L 4.5672816,15.5721 C 4.5561616,15.80862 4.7846826,16 5.0543376,16 H 10.94623 c 0.269654,0 0.497606,-0.19138 0.486488,-0.4279 L 11.01451,6.6651299 c -0.01112,-0.23648 -0.191122,-0.4273 -0.427881,-0.4273 z m 0.695875,6.0995801 h 3.781508 c 0.1648894,0 0.2975824,0.13269 0.2975824,0.29758 v 1.8276 c 0,0.16487 -0.132693,0.29814 -0.2975824,0.29814 h -3.781508 c -0.164888,0 -0.297582,-0.13327 -0.297582,-0.29814 v -1.8276 c 0,-0.16489 0.132694,-0.29758 0.297582,-0.29758 z"
     id="rect812"
     inkscape:connector-curvature="0"
     inkscape:label="#1" />
</svg>
