<?xml version="1.0" encoding="UTF-8" standalone="no"?>
<!-- Created with Inkscape (http://www.inkscape.org/) -->

<svg xmlns:dc="http://purl.org/dc/elements/1.1/" xmlns:cc="http://creativecommons.org/ns#" xmlns:rdf="http://www.w3.org/1999/02/22-rdf-syntax-ns#" xmlns:svg="http://www.w3.org/2000/svg" xmlns="http://www.w3.org/2000/svg" xmlns:sodipodi="http://sodipodi.sourceforge.net/DTD/sodipodi-0.dtd" xmlns:inkscape="http://www.inkscape.org/namespaces/inkscape" width="12" height="12" viewBox="0 0 12 12" version="1.1" id="default16" inkscape:version="0.92+devel (8ef6761023, 2017-10-07, custom)" sodipodi:docname="glyph-loops.svg">
  <defs id="defs5" />
  <sodipodi:namedview id="base" pagecolor="#002466" bordercolor="#ffffff" borderopacity="0.38039216" inkscape:pageopacity="1" inkscape:pageshadow="2" inkscape:zoom="26.28125" inkscape:cx="7.7146254" inkscape:cy="8" inkscape:document-units="px" inkscape:current-layer="default16" inkscape:document-rotation="0" showgrid="false" inkscape:showpageshadow="false" borderlayer="true" inkscape:window-width="1920" inkscape:window-height="1029" inkscape:window-x="0" inkscape:window-y="22" inkscape:window-maximized="1" units="px" />
  <metadata id="metadata5">
    <rdf:RDF>
      <cc:Work rdf:about="">
        <dc:format>image/svg+xml</dc:format>
        <dc:type rdf:resource="http://purl.org/dc/dcmitype/StillImage" />
        <dc:title></dc:title>
      </cc:Work>
    </rdf:RDF>
  </metadata>
  <path style="color:#000000;font-style:normal;font-variant:normal;font-weight:normal;font-stretch:normal;font-size:medium;line-height:normal;font-family:sans-serif;font-variant-ligatures:normal;font-variant-position:normal;font-variant-caps:normal;font-variant-numeric:normal;font-variant-alternates:normal;font-variant-east-asian:normal;font-feature-settings:normal;font-variation-settings:normal;text-indent:0;text-align:start;text-decoration:none;text-decoration-line:none;text-decoration-style:solid;text-decoration-color:#000000;letter-spacing:normal;word-spacing:normal;text-transform:none;writing-mode:lr-tb;direction:ltr;text-orientation:mixed;dominant-baseline:auto;baseline-shift:baseline;text-anchor:start;white-space:normal;shape-padding:0;clip-rule:nonzero;display:inline;overflow:visible;visibility:visible;isolation:auto;mix-blend-mode:normal;color-interpolation:sRGB;color-interpolation-filters:linearRGB;solid-color:#000000;solid-opacity:1;vector-effect:none;fill:#d0d0d0;fill-opacity:1;fill-rule:nonzero;stroke:none;stroke-width:0.80000001;stroke-linecap:round;stroke-linejoin:miter;stroke-miterlimit:4;stroke-dasharray:none;stroke-dashoffset:0;stroke-opacity:1;filter-blend-mode:normal;filter-gaussianBlur-deviation:0;color-rendering:auto;image-rendering:auto;shape-rendering:auto;text-rendering:auto;enable-background:accumulate;opacity:1" d="M 3.2246094 0.44921875 C 2.7241743 0.44921875 2.2814097 0.67464825 1.9433594 1.0019531 C 1.6053091 1.329258 1.3516534 1.7554514 1.1523438 2.2226562 C 0.7537245 3.1570659 0.5736778 4.2619595 0.56835938 5.1367188 C 0.55802751 6.8361487 1.713274 8.4478281 2.6328125 9.421875 C 2.3910217 9.5951479 2.1572284 9.7760322 1.8164062 9.9277344 C 1.3286472 10.144839 0.79558306 10.289063 0.44921875 10.289062 A 0.40000001 0.40000001 0 0 0 0.05078125 10.689453 A 0.40000001 0.40000001 0 0 0 0.44921875 11.089844 C 0.99268414 11.089844 1.5859591 10.905089 2.140625 10.658203 C 2.5677146 10.468103 2.902035 10.222664 3.2167969 9.9804688 C 3.9108354 10.541526 4.9503204 11.089844 6 11.089844 C 7.0496796 11.089844 8.0891646 10.541526 8.7832031 9.9804688 C 9.097965 10.222664 9.4322854 10.468103 9.859375 10.658203 C 10.414041 10.905089 11.007316 11.089844 11.550781 11.089844 A 0.40000001 0.40000001 0 0 0 11.949219 10.689453 A 0.40000001 0.40000001 0 0 0 11.550781 10.289062 C 11.204417 10.289062 10.671353 10.144839 10.183594 9.9277344 C 9.8427716 9.7760322 9.6089783 9.5951479 9.3671875 9.421875 C 10.286726 8.4478281 11.441972 6.8361488 11.431641 5.1367188 C 11.426299 4.261969 11.246269 3.1570647 10.847656 2.2226562 C 10.64835 1.755452 10.394688 1.3292588 10.056641 1.0019531 C 9.7185936 0.67464747 9.2758257 0.44921875 8.7753906 0.44921875 C 8.2749556 0.44921875 7.8321909 0.67464825 7.4941406 1.0019531 C 7.1560903 1.329258 6.9024346 1.7554514 6.703125 2.2226562 C 6.3045057 3.1570659 6.1225059 4.2619595 6.1171875 5.1367188 C 6.1070022 6.8120446 7.2294516 8.3907567 8.1425781 9.3710938 C 7.570772 9.7835929 6.7067679 10.289062 6 10.289062 C 5.2932321 10.289062 4.4292279 9.7835929 3.8574219 9.3710938 C 4.7705485 8.3907567 5.8929982 6.8120447 5.8828125 5.1367188 C 5.8774941 4.2619595 5.6954942 3.1570659 5.296875 2.2226562 C 5.0975654 1.7554514 4.8439097 1.329258 4.5058594 1.0019531 C 4.1678091 0.67464825 3.7250444 0.44921875 3.2246094 0.44921875 z M 3.2246094 1.25 C 3.4959747 1.25 3.7208528 1.357018 3.9492188 1.578125 C 4.1775847 1.799232 4.3897054 2.1366371 4.5605469 2.5371094 C 4.9022299 3.3380539 5.0773937 4.3798026 5.0820312 5.1425781 C 5.0899498 6.4450036 4.0309153 8.0128662 3.2246094 8.8867188 C 2.4183034 8.0128662 1.3592693 6.4450038 1.3671875 5.1425781 C 1.3718251 4.3798026 1.5469888 3.3380539 1.8886719 2.5371094 C 2.0595134 2.1366371 2.271634 1.799232 2.5 1.578125 C 2.728366 1.357018 2.953244 1.25 3.2246094 1.25 z M 8.7753906 1.25 C 9.0467561 1.25 9.2716376 1.3570187 9.5 1.578125 C 9.7283624 1.7992313 9.9404889 2.1366365 10.111328 2.5371094 C 10.453007 3.3380551 10.628154 4.3797932 10.632812 5.1425781 C 10.640731 6.4450037 9.5816966 8.0128662 8.7753906 8.8867188 C 7.9690847 8.0128662 6.9100505 6.4450038 6.9179688 5.1425781 C 6.9226063 4.3798026 7.0977701 3.3380539 7.4394531 2.5371094 C 7.6102946 2.1366371 7.8224153 1.799232 8.0507812 1.578125 C 8.2791472 1.357018 8.5040253 1.25 8.7753906 1.25 z " id="path824" />
</svg>
