<?xml version="1.0" encoding="UTF-8" standalone="no"?><svg height="16" viewBox="0 0 4.2333332 4.2333332" width="16" xmlns="http://www.w3.org/2000/svg"><sodipodi:namedview/><metadata><rdf:RDF><cc:Work><dc:format>image/svg+xml</dc:format><dc:type/><dc:title/></cc:Work></rdf:RDF></metadata><path d="m1.9215613.00108453c-.1914497.006779-.3910407.0453613-.5893364.11966461-.069496.0260409-.1358114.0559679-.1995987.0884477-.023633.0120471-.045306.0259258-.06811.0387846-.037213.020957-.0743054.0418263-.10925898.0647986-.0262679.017295-.0507396.0360419-.0756772.054393-.0305433.0224295-.0608926.0451716-.0893937.0690555-.0231562.0194602-.0449333.0397252-.0666906.0600688-.0249838.0232879-.0492669.047077-.0723663.0714204-.0231367.024474-.0455122.0493032-.0666906.0747313-.0175345.0209779-.0339722.0422941-.0501361.0638527-.022457.0300654-.0441255.0602381-.0638527.0912856-.010219.016023-.0193804.032467-.0288519.048717-.0210976.036343-.0418386.072915-.0591228.1102051-.005524.01188-.009537.023988-.0146625.035947-.01772232.04146516-.0344427.08315616-.04729781.12534016.29414118-.42914871.83536599-.69364025 1.42131279-.69433856.6222087.00069986 1.1907876.29843854 1.469557.76954276.00663-.041716.010671-.083651.012298-.1253404.00163-.041689.0007846-.083064-.00284-.12439441-.00294-.033554-.00906-.066679-.015608-.099799-.00173-.00863-.00228-.017424-.00426-.026014-.0090229-.0396566-.0205023-.07909284-.0349963-.11777308-.169384-.45204102-.6700684-.71893229-1.2444172-.69859538zm1.0159667.1281783c.1732911.13128144.3092178.3022463.3873727.51082125.2663363.71078032-.2407582 1.53514152-1.1020495 1.85787582s-1.78546236.0344151-2.05179871-.6763651c-.02098321-.0559986-.03570603-.1126715-.04729826-.1698008a2.0104727 1.935006 0 0 0 -.0175004.2388562 2.0104727 1.935006 0 0 0  .7742726 1.525369l.003311-.0052c.22945127.1602121.67527707.3641934 1.11671197.4110193a2.0104727 1.935006 0 0 0  .1158807.0037836 2.0104727 1.935006 0 0 0 2.0106492-1.9349719 2.0104727 1.935006 0 0 0 -1.1895513-1.76138737zm-1.7235488.84569296c.02415.00902.048793.015225.072366.026487.044301.021164.087059.047074.1286512.07615.022377.015405.043272.034021.064799.051555.017091.014164.03459.027536.051082.043041.027776.02567.054002.053906.079934.083245.00727.00833.014642.016458.021757.025068.0299.035772.058217.073768.085137.1144618.039288.05939.0749.1239671.1068941.1934499.00312.00672.00594.013532.00899.020338.027681.062431.051807.1286714.072839.1986527.00421.013804.00884.027057.012771.041149.017345.063121.03111.1294516.042569.1981797.00389.022911.00912.044578.012298.06811.011786.08873.019584.1810306.020811.2781138.056079-.015417.1123125-.03291.1683818-.05392.1543413-.057833.2902892-.1361763.4152787-.2232478.0002862-.0001993.00066-.0002736.000946-.000473-.00228-.02064-.00394-.050227-.00615-.067163-.0485833-.37291409-.3546762-1.03504869-1.3593548-1.0731971zm-.25588357.11304291c-.0851747-.00338-.16986609.011463-.2511538.045406-.0393989.016452-.0781424.037716-.11588073.063853-.0308939.021397-.0606524.048445-.0898667.076623-.006703.00647-.0137401.011143-.0203382.017973-.0349008.036131-.0683768.076814-.0997993.1234485-.0286994.042593-.055337.091114-.0804071.1428407-.002558.00528-.005525.00929-.008041.014663-.00008597.0002811.00008179.0006611 0 .0009459-.00239.00832-.003425.018033-.005676.026487-.00003851.0001446.00003946.0003291 0 .000473.009595.054648.0218085.1088818.0416225.16176.0207583.055398.0487251.1065347.0789881.1560843.008238.013196.0157109.026977.0245951.039731.00020031.0002876.00027235.0006587.00047298.000946.0256546.037551.0557399.071776.0865558.1054751.0189701.020477.0380176.040969.0586499.060069.0004842.0004484.00093377.0009714.001419.00142.26695218-.4277625.70868562-.4750761 1.14982112-.3244677-.0000615-.0001804-.0004115-.0002927-.000473-.000473-.053746-.1575186-.1271649-.289228-.2118962-.3958865-.0077145-.009616-.0157468-.0187219-.0236491-.027906-.0340373-.0399251-.0698882-.0751746-.1068941-.106894-.0106321-.0090408-.0208658-.0190702-.0316898-.027433-.0458511-.0356632-.0930226-.0667446-.1414219-.0898667-.0839189-.0400913-.1697629-.0618927-.25493757-.0652716zm.29561417 2.7082987c-.1415637.1438995-.30821379.2899685-.50892935.4370358.42076655-.0383711.74337005-.1407754.99704735-.2790598-.1751301-.0371308-.3369437-.0945985-.488118-.157976z" fill="#d0d0d0" stroke-width=".286571"/></svg>