<?xml version="1.0" encoding="UTF-8" standalone="no"?>
<svg height="16" viewBox="0 0 4.2333332 4.2333332" width="16" xmlns="http://www.w3.org/2000/svg">
	<sodipodi:namedview/>
	<metadata>
		<rdf:RDF>
			<cc:Work>
				<dc:format>image/svg+xml			</dc:format>
			<dc:type/>
			<dc:title/>
		</cc:Work>
	</rdf:RDF>
</metadata>
<path d="M 2.1166667 .000056 A 2.1166591 2.1166591 0 0 0 0 2.1167226 A 2.1166591 2.1166591 0 0 0 2.1166667 4.2333892 A 2.1166591 2.1166591 0 0 0 4.2333334 2.1167226 A 2.1166591 2.1166591 0 0 0 2.1166667 .000056 Z M 3.3823462 .85104318 L 2.7017204 2.7017762 L .85098723 3.382402 L 1.5316129 1.5316689 Z M 2.1222725 1.7388099 a .37793521 .37793521 0 0 0 -.2727699 .1107487 a .37793521 .37793521 0 0 0 0 .534328 a .37793521 .37793521 0 0 0 .5343281 0 a .37793521 .37793521 0 0 0 0 -.534328 a .37793521 .37793521 0 0 0 -.2615582 -.1107487 z" fill="#d0d0d0" stroke-width=".070004"/>
</svg>
