<?xml version="1.0" encoding="UTF-8" standalone="no"?><svg height="22" viewBox="0 0 5.8208332 5.8208335" width="22" xmlns="http://www.w3.org/2000/svg"><sodipodi:namedview/><metadata><rdf:RDF><cc:Work><dc:format>image/svg+xml</dc:format><dc:type/><dc:title/></cc:Work></rdf:RDF></metadata><path d="m2.9111317-.00000003c-.6951458 0-1.2582491.37943445-1.2582491.84780156 0 .29944327.2757865.42608557.5774627.64382727.1848294.1334039.1782132.1756309.1785567.2549057.0009642.2218372-.3135282.4505694-.7745923.4505694h-1.18051534v.6602762c0 .3632626.0535784.7766085.37806474.7766085.0660154 0 .2156385.064724.3118244-.076207.078727-.1153484.2700406-.359549.5722433-.3587983.447344.0011.7669181.4789067.7669181.8171747 0 .3382683-.3195741.8160636-.7669181.817175-.3022041.0007692-.4935174-.2426595-.5722433-.3580078-.0961859-.1409302-.24580812-.1034553-.3118244-.1034553-.3244861 0-.37806474.4386062-.37806474.8018688v.6470947h2.45733734 2.4559073v-.6470947c0-.3632627-.053579-.8018688-.378065-.8018688-.066017 0-.3207595-.044269-.4037342.093651-.0679141.1128859-.2317512.3510991-.4924486.3503645-.3859034-.0010714-.6615857-.4686813-.6615857-.7997271 0-.3310455.2756823-.7986389.6615857-.7997268.2606969-.0007535.4245346.238252.4924486.3511375.082975.1379203.3377188.092878.4037342.092878.324486 0 .378065-.439803.378065-.8030669v-.6602762h-1.1790854c-.4610647 0-.7755549-.2287315-.7745924-.4505694.000343-.079274-.00628-.121501.1785563-.2549057.301677-.2177421.5774631-.344384.5774631-.64382727 0-.46836711-.5631035-.84780156-1.2582489-.84780156z" fill="#fff"/></svg>