<?xml version="1.0" encoding="UTF-8" standalone="no"?><svg height="16" viewBox="0 0 4.2333333 4.2333333" width="16" xmlns="http://www.w3.org/2000/svg"><sodipodi:namedview/><metadata><rdf:RDF><cc:Work><dc:format>image/svg+xml</dc:format><dc:type/><dc:title/></cc:Work></rdf:RDF></metadata><path d="m2.1166683 0c-.3429773 0-.6632227.1202756-.8888347.3458876-.225612.2256118-.34588728.545857-.34588728.8888346h.70555528c0-.1861873.056113-.3069163.139182-.3899849.083069-.083069.2037974-.1391818.3899847-.1391818.1861893 0 .306916.056113.3899853.1391818.083068.083069.1391814.2037976.1391814.3899849 0 .1616904-.031873.2304775-.074414.2914551-.04254.060976-.1122307.1185588-.2160074.1912028-.1037786.072644-.2416313.1563292-.36897.304891-.1273386.1485618-.2225526.3736791-.2225526.6235622v.1763889h.7055553v-.1763889c0-.1028929.014673-.120312.052707-.1646756.038026-.044363.1210017-.103996.237711-.1856906.116708-.081696.267506-.189478.3903294-.3655247.1228233-.1760467.2011933-.4159366.2011933-.6952202 0-.3429776-.1202733-.6632226-.3458874-.8888346-.225612-.225612-.5458553-.3458876-.8888346-.3458876zm-.3527773 3.5277778v.7055555h.7055553v-.7055555z" fill="#d0d0d0" stroke-linecap="round" stroke-linejoin="round" stroke-width=".529167"/></svg>