<?xml version="1.0" encoding="UTF-8" standalone="no"?><svg height="22" viewBox="0 0 5.8208332 5.8208335" width="22" xmlns="http://www.w3.org/2000/svg"><sodipodi:namedview/><metadata><rdf:RDF><cc:Work><dc:format>image/svg+xml</dc:format><dc:type/><dc:title/></cc:Work></rdf:RDF></metadata><path d="m1.9109945 0c-.2644919 0-.4582002.0179179-.5813599.05426025-.1817115.05451351-.3200675.12938183-.41496174.22427573-.0948927.0928749-.16054441.21712265-.1968872.37258708-.0363428.15344543-.054777.42583154-.054777.81752114 0 .2402631-.007619.4089992-.0237712.5059123-.0201896.1292167-.05762438.2371929-.11213784.3240113-.05451345.0847979-.11908353.1455582-.19378663.181901-.07470367.0363457-.18592459.0585897-.33331299.0666626v.7265707c.18574972.010094.32302432.050774.41186117.1214395.0908558.068647.15867034.1836764.2030884.3451987.0323049.1110459.0480591.3519705.0480591.7234701 0 .319005.0173527.5523106.0516764.6996988.0343224.1494073.10105568.2747368.19998778.3756877.10095155.1009497.22411385.1725729.36948655.214974.1453693.044418.3542675.066663.6268351.066663h.1607137v-.7270879c-.2180544 0-.3607369-.014108-.4273641-.042375-.0646083-.0262463-.1129059-.0653273-.1452108-.117822-.0323048-.0524952-.0485758-.1452814-.0485758-.2785359 0-.092875-.00705-.3071807-.021187-.6423379-.0121141-.2200723-.0381678-.395346-.0785485-.5265831-.0403793-.1312357-.0989764-.2424567-.1756999-.3333128-.074704-.0928754-.1718166-.1737164-.29093831-.2423626.13527451-.0868169.23511501-.1703861.29972331-.2511475.0666272-.0807612.1214146-.1827647.1638143-.3059244.0424-.1251792.068453-.2879426.078548-.4878256.018171-.3553478.027389-.5967892.027389-.7239868 0-.125179.015189-.21255749.045475-.26303303.030286-.052496.076937-.0910109.1395264-.11523845.064609-.026248.2089375-.0392741.4330485-.0392741v-.72398682zm1.8381308 0v .72398683c.2281491 0 .374641.0141084.4392496.0423747.066628.0262472.1121976.0642463.1364258.11472167.026247.0504755.040356.1513976.042375.3028239.010094.4805265.026366.791945.048576.9332764.034323.2059399.098893.3752409.1937867.5084961.068647.092875.1777042.1878242.3271118.2847371-.115084.066628-.2100334.1442236-.2847372.2330607-.072684.086819-.1312812.1937131-.1756998.3209107-.044419.1251791-.071554.2928337-.081649.5028118-.01615.3472717-.025366.5827403-.027389.7058999 0 .1231601-.016272.2099739-.048576.2604492-.030286.052495-.078584.091576-.1452108.1178224-.066628.028267-.2082287.042375-.4242636.042375v.7270871h.1607142c.2644918 0 .4582002-.017918.5813597-.05426.1837307-.054513.3231682-.1293816.4180626-.2242757.094893-.092875.1594626-.2171226.1937864-.3725873.036343-.1554642.054777-.4289319.054777-.8206216 0-.2382441.00762-.4058987.02377-.5028118.022209-.1292165.059643-.2361113.1121378-.3209105.054514-.086817.1190837-.1486588.1937867-.1850017.074705-.036346.1859253-.05859.3333139-.066663v-.7265705c-.185749-.0100948-.3241052-.0496928-.4149613-.118339-.0908563-.0706656-.1586698-.1867778-.2030886-.3482992-.0302858-.1130651-.0449583-.3539896-.0449583-.7234701 0-.3190049-.018433-.55231047-.054777-.69969886-.034324-.14940736-.1010557-.27473676-.1999879-.37568768-.0989314-.10296989-.2210162-.17567515-.366386-.21807455-.1453692-.04239939-.3542673-.06356201-.626835-.06356201z" fill="#d0d0d0" stroke-width=".264583"/></svg>