<?xml version="1.0" encoding="UTF-8" standalone="no"?>
<svg
   xmlns:dc="http://purl.org/dc/elements/1.1/"
   xmlns:cc="http://creativecommons.org/ns#"
   xmlns:rdf="http://www.w3.org/1999/02/22-rdf-syntax-ns#"
   xmlns:svg="http://www.w3.org/2000/svg"
   xmlns="http://www.w3.org/2000/svg"
   xmlns:sodipodi="http://sodipodi.sourceforge.net/DTD/sodipodi-0.dtd"
   xmlns:inkscape="http://www.inkscape.org/namespaces/inkscape"
   viewBox="0 0 16 16"
   version="1.1"
   id="svg6"
   sodipodi:docname="glyph-im-icq.svg"
   inkscape:version="0.92+devel (7086fba083, 2017-08-05, custom)">
  <metadata
     id="metadata10">
    <rdf:RDF>
      <cc:Work
         rdf:about="">
        <dc:format>image/svg+xml</dc:format>
        <dc:type
           rdf:resource="http://purl.org/dc/dcmitype/StillImage" />
        <dc:title></dc:title>
      </cc:Work>
    </rdf:RDF>
  </metadata>
  <sodipodi:namedview
     pagecolor="#002466"
     bordercolor="#ffffff"
     inkscape:document-rotation="0"
     borderopacity="0.23137255"
     objecttolerance="10"
     gridtolerance="10"
     guidetolerance="10"
     inkscape:pageopacity="1"
     inkscape:pageshadow="2"
     inkscape:window-width="1920"
     inkscape:window-height="1051"
     id="namedview8"
     showgrid="false"
     borderlayer="true"
     inkscape:showpageshadow="false"
     inkscape:zoom="45.9375"
     inkscape:cx="7.9673469"
     inkscape:cy="8"
     inkscape:window-x="0"
     inkscape:window-y="0"
     inkscape:window-maximized="1"
     inkscape:current-layer="svg6" />
  <defs
     id="defs3051">
    <style
       type="text/css"
       id="current-color-scheme">
      .ColorScheme-Text {
        color:#f2f2f2;
      }
      </style>
  </defs>
  <path
     style="fill:#d0d0d0;fill-opacity:1;stroke:none;stroke-width:1.33333337"
     d="M 8,0 A 1.9999995,3 0 0 0 6,3 1.9999995,3 0 0 0 6.0052083,3.1848959 3,1.9999995 45 0 0 5.8776041,3.0520833 3,1.9999995 45 0 0 2.34375,2.34375 3,1.9999995 45 0 0 3.0494792,5.8802083 3,1.9999995 45 0 0 3.1822917,6.0052083 3,1.9999995 0 0 0 3,6 3,1.9999995 0 0 0 0,8 3,1.9999995 0 0 0 3,10 3,1.9999995 0 0 0 3.1848959,9.9947917 1.9999995,3 45 0 0 3.0494792,10.122396 1.9999995,3 45 0 0 2.34375,13.656251 1.9999995,3 45 0 0 5.8776041,12.950521 1.9999995,3 45 0 0 6.0052083,12.817708 1.9999995,3 0 0 0 6,13 a 1.9999995,3 0 0 0 2,3 1.9999995,3 0 0 0 2,-3 1.9999995,3 0 0 0 -0.0052,-0.184896 3,1.9999995 45 0 0 0.127604,0.135417 3,1.9999995 45 0 0 3.533855,0.70573 A 3,1.9999995 45 0 0 12.950521,10.122396 3,1.9999995 45 0 0 12.817708,9.9947917 3,1.9999995 0 0 0 13,10 3,1.9999995 0 0 0 16,8 3,1.9999995 0 0 0 13,6 3,1.9999995 0 0 0 12.815104,6.00521 1.9999995,3 45 0 0 12.950521,5.88021 1.9999995,3 45 0 0 13.656251,2.34375 1.9999995,3 45 0 0 10.122396,3.0520833 1.9999995,3 45 0 0 9.994792,3.1848959 1.9999995,3 0 0 0 10,3 1.9999995,3 0 0 0 8,0 Z M 8.994792,5.5963541 A 1.9999995,3 45 0 0 9.414063,6.5859375 1.9999995,3 45 0 0 10.401042,7.0052083 3,1.9999995 0 0 0 10,8 3,1.9999995 0 0 0 10.403646,8.9947917 3,1.9999995 45 0 0 9.414063,9.4140625 3,1.9999995 45 0 0 8.994792,10.401042 1.9999995,3 0 0 0 8,10 1.9999995,3 0 0 0 7.0052083,10.401042 1.9999995,3 45 0 0 6.5859375,9.4140625 1.9999995,3 45 0 0 5.5989584,8.9947917 3,1.9999995 0 0 0 6,8 3,1.9999995 0 0 0 5.5989584,7.0052083 3,1.9999995 45 0 0 6.5859375,6.5859375 3,1.9999995 45 0 0 7.0052083,5.5989584 1.9999995,3 0 0 0 8,6 1.9999995,3 0 0 0 8.994792,5.5963541 Z M 8,7 C 7.446,7 7,7.446 7,8 7,8.554 7.446,9 8,9 8.554,9 9,8.554 9,8 9,7.446 8.554,7 8,7 Z"
     class="ColorScheme-Text"
     id="path4"
     inkscape:label="#"
     inkscape:connector-curvature="0" />
</svg>
