<?xml version="1.0" encoding="UTF-8" standalone="no"?>
<!-- Created with Inkscape (http://www.inkscape.org/) -->

<svg
   xmlns:dc="http://purl.org/dc/elements/1.1/"
   xmlns:cc="http://creativecommons.org/ns#"
   xmlns:rdf="http://www.w3.org/1999/02/22-rdf-syntax-ns#"
   xmlns:svg="http://www.w3.org/2000/svg"
   xmlns="http://www.w3.org/2000/svg"
   xmlns:sodipodi="http://sodipodi.sourceforge.net/DTD/sodipodi-0.dtd"
   xmlns:inkscape="http://www.inkscape.org/namespaces/inkscape"
   width="12"
   height="12"
   viewBox="0 0 12 12"
   version="1.1"
   id="default16"
   inkscape:version="0.92+devel (327bdefa15, 2017-09-17, custom)"
   sodipodi:docname="glyph-brightness2.svg">
  <defs
     id="defs5" />
  <sodipodi:namedview
     id="base"
     pagecolor="#002466"
     bordercolor="#ffffff"
     borderopacity="0.38039216"
     inkscape:pageopacity="1"
     inkscape:pageshadow="2"
     inkscape:zoom="26.28125"
     inkscape:cx="7.7336504"
     inkscape:cy="8"
     inkscape:document-units="px"
     inkscape:current-layer="default16"
     inkscape:document-rotation="0"
     showgrid="false"
     inkscape:showpageshadow="false"
     borderlayer="true"
     inkscape:window-width="1920"
     inkscape:window-height="1017"
     inkscape:window-x="0"
     inkscape:window-y="34"
     inkscape:window-maximized="1"
     units="px" />
  <metadata
     id="metadata5">
    <rdf:RDF>
      <cc:Work
         rdf:about="">
        <dc:format>image/svg+xml</dc:format>
        <dc:type
           rdf:resource="http://purl.org/dc/dcmitype/StillImage" />
        <dc:title></dc:title>
      </cc:Work>
    </rdf:RDF>
  </metadata>
  <path
     style="fill:#d0d0d0;stroke-width:1.80000007;stroke-dasharray:3.59999994, 1.79999996;stroke-dashoffset:7.37999964"
     d="M 1.1717985,2.3452836 2.0130374,3.1865227 A 4.8859385,4.8859385 0 0 0 1.1667,5.3278582 l -1.1658382,-10e-8 10e-8,1.5023337 1.1896307,2e-7 A 4.8859385,4.8859385 0 0 0 2.1031094,8.9392376 L 1.2788653,9.7634817 2.3427352,10.827351 3.1839739,9.9861125 A 4.8859385,4.8859385 0 0 0 5.3219106,10.83245 v 1.165838 l 1.5074317,0.0017 4e-7,-1.189629 A 4.8859385,4.8859385 0 0 0 8.9400872,9.8960406 L 9.7643322,10.720285 10.828202,9.656415 9.9869632,8.815176 A 4.8859385,4.8859385 0 0 0 10.8333,6.6772394 l 1.165838,-1e-7 -0.0017,-1.5040331 -1.186232,-1e-7 A 4.8859385,4.8859385 0 0 0 9.8934922,3.0590622 L 10.717735,2.2348182 9.6555662,1.1726476 8.8143268,2.0138867 A 4.8859385,4.8859385 0 0 0 6.6763902,1.1675492 L 6.6746902,1.15e-5 5.170657,0.0017115 V 1.1913403 A 4.8859385,4.8859385 0 0 0 3.0616119,2.1039586 L 2.2373677,1.2797145 Z M 3.4711848,8.5296645 6.0000001,6.0008493 8.5288153,3.4720342 A 3.5774336,3.5774336 0 0 1 9.4550282,6.9270619 3.5774336,3.5774336 0 0 1 6.9262126,9.455877 3.5774336,3.5774336 0 0 1 3.4711848,8.5296645 Z"
     id="circle813"
     inkscape:connector-curvature="0"
     inkscape:label="#" />
</svg>
