<?xml version="1.0" encoding="UTF-8" standalone="no"?><svg height="16" viewBox="0 0 4.2333332 4.2333332" width="16" xmlns="http://www.w3.org/2000/svg"><sodipodi:namedview/><metadata><rdf:RDF><cc:Work><dc:format>image/svg+xml</dc:format><dc:type/><dc:title/></cc:Work></rdf:RDF></metadata><path d="m .86914062.83398438c-1.64158871-.1128129-.51495592 2.42829492-.17773437 4.29101562.53746165 2.9687963 1.19036885 4.4965104 3.61328125 4.4277344-2.5995433 2.1972586-1.7190162 3.5281166.0859375 5.2089846.862495.803201 1.5784296.331425 2.2734375-.400391 1.1097676-1.168542 1.7205771-4.5679533.1855469-8.0058592-1.8945147-4.2430193-4.3388804-5.4086715-5.98046878-5.52148442zm14.26171838.08398437c-1.641588.11281285-4.085954 1.27846535-5.9804684 5.52148435-1.5350302 3.437906-.9242207 6.8373179.1855469 8.0058589.6950075.731817 1.4109425 1.203592 2.2734375.400391 1.804954-1.680868 2.685481-3.011726.085937-5.2089842 2.422913.068776 3.07582-1.4589381 3.613282-4.4277344.337221-1.8627206 1.463854-4.40382854-.177735-4.29101565z" fill="#d0d0d0" stroke-linecap="round" stroke-miterlimit="5.5" transform="scale(.26458333)"/><path d="m2.437909 1.1057934a.32124245.32124245 0 0 1 -.3212424.3212424.32124245.32124245 0 0 1 -.3212425-.3212424.32124245.32124245 0 0 1  .3212425-.32124249.32124245.32124245 0 0 1  .3212424.32124249z" fill="#d0d0d0" stroke-linecap="round" stroke-miterlimit="5.5" stroke-width=".264583"/></svg>