<?xml version="1.0" encoding="UTF-8" standalone="no"?><svg height="22" viewBox="0 0 5.8208332 5.8208335" width="22" xmlns="http://www.w3.org/2000/svg"><sodipodi:namedview/><metadata><rdf:RDF><cc:Work><dc:format>image/svg+xml</dc:format><dc:type/><dc:title/></cc:Work></rdf:RDF></metadata><g transform="matrix(.26458333 0 0 .26458333 -1.150317 -1.760021)"><path d="m7.4921875 10.804688a2.6674961 2.7364096 0 0 0 -2.6679687 2.736328 2.6674961 2.7364096 0 0 0 2.4257812 2.722656c-1.0454162.0577-2.0320752.453651-2.9023438 1.089844v8.169922h2.7128907v-5.205079c.7084491-1.424296 1.6680749-2.598185 2.7792969-3.505859-.6504479-.318182-1.3471067-.513967-2.0664063-.550781a2.6674961 2.7364096 0 0 0 2.3867185-2.720703 2.6674961 2.7364096 0 0 0 -2.6679685-2.736328zm15.8066405 0a2.6674961 2.7364096 0 0 0 -2.667969 2.736328 2.6674961 2.7364096 0 0 0 2.386719 2.720703c-.794593.04067-1.562438.266679-2.269531.648437 1.108342.934877 2.061793 2.138661 2.753906 3.591797v5.021485h2.845703v-8.244141c-.846512-.593713-1.800562-.960088-2.80664-1.015625a2.6674961 2.7364096 0 0 0 2.425781-2.722656 2.6674961 2.7364096 0 0 0 -2.667969-2.736328z" fill="#d0d0d0" opacity=".355372"/><path d="m15.281742 6.6520497a4.0899792 4.0899792 0 0 0 -4.091116 4.0890163 4.0899792 4.0899792 0 0 0 3.660361 4.068004c-3.211232.160214-6.1519176 2.213362-7.7914026 5.509454v8.333525h16.4422156v-8.150717c-1.613005-3.38661-4.586341-5.514639-7.848138-5.690161a4.0899792 4.0899792 0 0 0 3.717096-4.070105 4.0899792 4.0899792 0 0 0 -4.089016-4.0890163z" fill="#fff"/></g></svg>