<?xml version="1.0" encoding="UTF-8" standalone="no"?><svg height="16" viewBox="0 0 4.2333332 4.2333332" width="16" xmlns="http://www.w3.org/2000/svg"><sodipodi:namedview/><metadata><rdf:RDF><cc:Work><dc:format>image/svg+xml</dc:format><dc:type/><dc:title/></cc:Work></rdf:RDF></metadata><path d="m8 0a8 8 0 0 0 -8 8 8 8 0 0 0 4.0957031 6.980469v-1.386719l-2.0957031-4.3496094 2.7519531-6.4023437h.2167969v5.2265625c-.3089454.144816-.507012.4556743-.5078125.796875.0001319.4527583.3424611.829914.7929687.875.0295938.0057449.056634.0195093.0878907.0195312.0350891 0 .0666519-.014341.0996093-.0214844.4453803-.0500662.7824582-.424861.7832032-.8730468-.0007998-.3412014-.1988664-.6520586-.5078125-.796875v-5.2265625h.2128906l2.7558594 6.4023437-2.0996094 4.3496094v2.273438a8 8 0 0 0 1.4140625.132812 8 8 0 0 0 8-8 8 8 0 0 0 -8-8z" fill="#d0d0d0" stroke-linecap="square" stroke-width="3.037" transform="scale(.26458333)"/></svg>