<?xml version="1.0" encoding="UTF-8" standalone="no"?><svg height="22" viewBox="0 0 5.8208332 5.8208335" width="22" xmlns="http://www.w3.org/2000/svg"><sodipodi:namedview/><metadata><rdf:RDF><cc:Work><dc:format>image/svg+xml</dc:format><dc:type/><dc:title/><cc:license/><dc:creator><cc:Agent><dc:title>PixelPimps &amp; CodePoets</dc:title></cc:Agent></dc:creator></cc:Work><cc:License><cc:permits/><cc:permits/><cc:requires/><cc:requires/><cc:permits/></cc:License></rdf:RDF></metadata><path d="m3.6241255.27313864-2.9868402 1.19408156h3.4719097zm-3.62412552 1.52629216v.3233796 3.2337963c0 .1791523.14422735.3233797.32337956.3233797h5.17407426.3233796v-.3233797-.9701389h-.9701389-1.6168982c-.3583045 0-.6467592-.2884546-.6467592-.6467592 0-.3583047.2884547-.6467593.6467592-.6467593h1.6168982.9701389v-.9701389c0-.1791522-.1442274-.3233796-.3233796-.3233796zm3.29316702 1.6168981c-.1785979 0-.3233798.1447819-.3233798.3233797 0 .1785977.1447819.3233796.3233798.3233796.1785977 0 .3233796-.1447819.3233796-.3233796 0-.1785978-.1447819-.3233797-.3233796-.3233797z" fill="#d0d0d0"/></svg>