<?xml version="1.0" encoding="UTF-8" standalone="no"?>
<!-- Created with Inkscape (http://www.inkscape.org/) -->

<svg
   xmlns:dc="http://purl.org/dc/elements/1.1/"
   xmlns:cc="http://creativecommons.org/ns#"
   xmlns:rdf="http://www.w3.org/1999/02/22-rdf-syntax-ns#"
   xmlns:svg="http://www.w3.org/2000/svg"
   xmlns="http://www.w3.org/2000/svg"
   xmlns:sodipodi="http://sodipodi.sourceforge.net/DTD/sodipodi-0.dtd"
   xmlns:inkscape="http://www.inkscape.org/namespaces/inkscape"
   width="12"
   height="12"
   viewBox="0 0 12 12"
   version="1.1"
   id="default16"
   inkscape:version="0.92+devel (9d04be7596, 2017-09-23, custom)"
   sodipodi:docname="glyph-edit-group.svg">
  <defs
     id="defs5" />
  <sodipodi:namedview
     id="base"
     pagecolor="#002466"
     bordercolor="#ffffff"
     borderopacity="0.38039216"
     inkscape:pageopacity="1"
     inkscape:pageshadow="2"
     inkscape:zoom="26.28125"
     inkscape:cx="6.2576995"
     inkscape:cy="7.5511712"
     inkscape:document-units="px"
     inkscape:current-layer="default16"
     inkscape:document-rotation="0"
     showgrid="false"
     inkscape:showpageshadow="false"
     borderlayer="true"
     inkscape:window-width="1920"
     inkscape:window-height="1017"
     inkscape:window-x="0"
     inkscape:window-y="34"
     inkscape:window-maximized="1"
     units="px"
     inkscape:object-paths="true">
    <inkscape:grid
       type="xygrid"
       id="grid847" />
  </sodipodi:namedview>
  <metadata
     id="metadata5">
    <rdf:RDF>
      <cc:Work
         rdf:about="">
        <dc:format>image/svg+xml</dc:format>
        <dc:type
           rdf:resource="http://purl.org/dc/dcmitype/StillImage" />
        <dc:title></dc:title>
      </cc:Work>
    </rdf:RDF>
  </metadata>
  <path
     style="fill:#d0d0d0;stroke:none"
     d="M 1.1992188 0 C 0.5344187 0 1.4802974e-16 0.5344187 0 1.1992188 L 0 10.800781 C 0 11.465581 0.5344187 12 1.1992188 12 L 10.800781 12 C 11.465581 12 12 11.465581 12 10.800781 L 12 1.1992188 C 12 0.5344187 11.465581 1.4802974e-16 10.800781 0 L 1.1992188 0 z M 6.0019531 2.6953125 A 3.3037316 3.3037316 0 0 1 9.3027344 5.9980469 A 3.3037316 3.3037316 0 0 1 6.0019531 9.3046875 A 3.3037316 3.3037316 0 0 1 2.6953125 5.9980469 A 3.3037316 3.3037316 0 0 1 6.0019531 2.6953125 z "
     id="path843"
     inkscape:label="#" />
  <path
     style="fill:#d0d0d0;stroke:none"
     d="M 6.1367188 3.5078125 C 5.7353443 3.4577285 5.3248719 3.6475507 5.109375 4.0195312 C 4.8221986 4.5164747 4.9930608 5.1507226 5.4902344 5.4375 C 5.9871778 5.7246763 6.6214256 5.5557673 6.9082031 5.0585938 C 7.1940645 4.5617722 7.023857 3.9270214 6.5273438 3.640625 C 6.4032729 3.5689265 6.2705103 3.5245075 6.1367188 3.5078125 z M 4.6484375 5.8554688 A 1.038646 1.038646 0 0 0 3.609375 6.8945312 A 1.038646 1.038646 0 0 0 4.6484375 7.9335938 A 1.038646 1.038646 0 0 0 5.6875 6.8945312 A 1.038646 1.038646 0 0 0 4.6484375 5.8554688 z M 7.3554688 5.8554688 A 1.038646 1.038646 0 0 0 6.3164062 6.8945312 A 1.038646 1.038646 0 0 0 7.3554688 7.9335938 A 1.038646 1.038646 0 0 0 8.3925781 6.8945312 A 1.038646 1.038646 0 0 0 7.3554688 5.8554688 z "
     id="path839"
     inkscape:label="#" />
</svg>
