<?xml version="1.0" encoding="UTF-8" standalone="no"?><svg height="16" viewBox="0 0 4.2333332 4.2333332" width="16" xmlns="http://www.w3.org/2000/svg"><sodipodi:namedview/><metadata><rdf:RDF><cc:Work><dc:format>image/svg+xml</dc:format><dc:type/><dc:title/></cc:Work></rdf:RDF></metadata><path d="m4.2333088.00051358c0-.00595-.067723.040327-.1505442.1027833-.7790936.5875395-1.7529188 1.10136932-2.2981832 1.21266062l-.1028024.021014-.038976.1023557c-.1357938.3569889-.5218085.6101509-1.12699271.7390623-.095615.020372-.198191.049419-.2279228.064534-.091852.046699-.1985774.1535463-.2468279.2471623-.03898.075601-.045011.1082094-.039122.2106911.00495.086256.016855.1319404.041224.1584136.032771.035606.114461.054283.093819.02144-.016231-.025828.060674-.1081628.1367104-.1463042.1231181-.061752.314393-.090938.5145208-.088248.035734.000636.078722.00219.1083734.00449.14986651.010604.29885351.038849.42251461.085047.066495.024843.122808.05464.1685132.08818.170631.087398.314175.2011163.4347553.3324207.0001026-.00436.000528-.00851.000528-.012957.00074-.086322.00377-.1569531.00651-.1569901.00275-.0000339.013626.022078.024124.049219.025455.065727.038718.1349133.041222.2044956.2288701.2842251.3642131.6343875.4436696.972411.1059107-.1804246.206244-.4190412.2066917-.5164777.000636-.1442444.1023091.1388905.1343904.3743763l.022171.1630418.040208-.098723c.067212-.165077.098776-.3376827.098965-.5409793.0001016-.1050861-.00523-.2080324-.011956-.2287852-.00669-.020754-.00488-.037751.00409-.037751.022009 0 .1970586.1753734.2419013.2423184.042316.063165.045527.035579.010791-.092669-.0918583-.3391707-.3553084-.6587115-.7312192-.8869349l-.1452574-.088179.072302-.00212c.039734-.00115.096884-.0076.1270033-.014314l.054767-.012184-.073025-.024432-.073025-.024504.117001-.023503c.064367-.012927.1753109-.050615.246468-.083765l.12932-.060261-.1642439.0064-.1643096.0064.1277949-.042384c.1778023-.058998.5189129-.2350835.4970658-.2565646-.00308-.00307-.066943.010139-.1418528.029276-.2202288.056226-.2434772.04391-.07136-.037822.1675533-.079566.4033639-.2292701.5192315-.3296457l.073028-.06325-.1368523.060686c-.1162575.051558-.38162.1362668-.4268638.1362668-.00763 0 .039136-.027145.1038893-.060328.1854022-.09501.352947-.2208373.5601659-.4205313l.1916973-.1847673-.1551106.0805593c-.1467052.076145-.4563495.2129115-.4563495.2015789 0-.00288.039036-.032391.086721-.065531.1850349-.1285876.5126094-.46834042.706506-.73272502l.070424-.095947-.1726453.1326262c-.1843206.1416581-.5607826.38174752-.575667.367114-.0049-.00483.013416-.023223.040717-.040816.080603-.051924.4353936-.4459482.6304357-.7001008.09949-.1296438.1809034-.2405763.1809034-.2465231z" fill="#d0d0d0" stroke-width=".264583"/></svg>