<?xml version="1.0" encoding="UTF-8" standalone="no"?><svg height="16" viewBox="0 0 4.2333332 4.2333332" width="16" xmlns="http://www.w3.org/2000/svg"><sodipodi:namedview><inkscape:grid/></sodipodi:namedview><metadata><rdf:RDF><cc:Work><dc:format>image/svg+xml</dc:format><dc:type/><dc:title/></cc:Work></rdf:RDF></metadata><g fill="#d0d0d0"><path d="m .50797933 0-.48162435.48162434.20980631.2098063.11937256-.11885578.16174722.16174723a2.1166666 2.1166666 0 0 0 -.51728107 1.38234451 2.1166666 2.1166666 0 0 0 2.1166666 2.1166667 2.1166666 2.1166666 0 0 0 2.1166667-2.1166667 2.1166666 2.1166666 0 0 0 -.5286499-1.39681391l.1472779-.14727783.1188556.11885578.2098064-.2098063-.4816243-.48162434-.2098063.20980631.10542.10541991-.1519288.15244548a2.1166666 2.1166666 0 0 0 -1.3260173-.4676717 2.1166666 2.1166666 0 0 0 -1.34048658.47955729l-.16433107-.16433107.10593668-.10541991zm1.60868727.41031085a1.706419 1.706419 0 0 1 1.7063559 1.70635575 1.706419 1.706419 0 0 1 -1.7063559 1.7063559 1.706419 1.706419 0 0 1 -1.70635575-1.7063559 1.706419 1.706419 0 0 1 1.70635575-1.70635575z" opacity=".361702"/><path d="m3.4020246 1.37379-.5214631.3007744c.07092.1228374.1108616.2616218.1170482.4033276l.6022738-.0260912c-.0104096-.2384187-.0785361-.4713375-.1978589-.6780108zm-.4029655.7428766c0 .1418417-.034884.281137-.1003787.4069515l.5345088.2783069c.1101942-.2116814.1677816-.4466125.1677813-.6852584zm-1.7644226.038412-.60118658.025729c.0104131.2384188.0770868.4709753.19640935.6776485l.52255023-.3014991c-.0709204-.1228378-.111586-.2601723-.117773-.4018784zm1.6452001.4026031c-.0709204.1228378-.169551.2267376-.2891783.3029489l.3228795.5073305c.201272-.1282246.3691639-.3021066.4884868-.5087801zm-1.5074962.032614-.50841751.3239669c.12822485.2012717.30319361.3684391.50986711.487762l.3007744-.5214631c-.1228378-.0709207-.2260129-.1706382-.302224-.2902658zm1.1853413.2895409c-.1228374.0709201-.2612594.1119485-.4029653.1181351l.025729.6011864c.238419-.0104131.4720622-.0778104.6787356-.1971335zm-.8490537.0188438-.2783069.5345088c.2116815.1101942.4476998.1677816.6863455.1677813v-.6019114c-.1418402 0-.2822241-.034884-.4080386-.1003787z" opacity=".174468"/><path d="m2.1166666.63236274v.60191136c.1418417 0 .2811372.033798.4069515.099292l.2783069-.53378427c-.2116814-.1101944-.4466125-.16741909-.6852584-.16741909zm-.065228.00036239c-.2384185.01041309-.4706125.07817366-.6772858.19749653l.3014992.52255024c.1228374-.0709201.2605346-.1115853.4022405-.1177733zm.8070176.19713414-.3014992.52255023c.1228374.07092.2274623.1702758.3036736.2899032l.5076927-.3228796c-.1282243-.2012719-.3031936-.37025096-.5098671-.48957383zm-1.5397479.03406362c-.2012719.12822428-.36916376.30355601-.48848664.51022951l.52255024.3014992c.0709205-.1228379.1702758-.2274625.2899032-.3036736zm-.51892647.56639821c-.1101944.2116814-.16741909.4476998-.16741909.6863455h.60191136c0-.1418402.033798-.2822241.099292-.4080386z" opacity=".817021"/></g><path d="m2.4626564 2.1166666a.34598985.34598985 0 0 1 -.3459898.3459898.34598985.34598985 0 0 1 -.3459899-.3459898.34598985.34598985 0 0 1  .3459899-.3459898.34598985.34598985 0 0 1  .3459898.3459898z" fill="#0f0"/></svg>