<?xml version="1.0" encoding="UTF-8" standalone="no"?><svg height="16" viewBox="0 0 4.2333333 4.2333333" width="16" xmlns="http://www.w3.org/2000/svg"><sodipodi:namedview/><metadata><rdf:RDF><cc:Work><dc:format>image/svg+xml</dc:format><dc:type/><dc:title/></cc:Work></rdf:RDF></metadata><path d="m1.5390625 0v4.3085938h.6152344v4h-.6152344v7.6914062h12.9218755v-9.2304688h-.306641v-1.5390624h.306641v-3.0761719l-2.152344-2.1542969zm5.9027344 10.097656c.4788669.000794.7988281.0078.7988281.0078l-.2265625.642578s-1.7808645.000859-2.2402344.01367c-.4209112.01282-1.0273437.0059-1.0273437.232422 0 .177338.904698.381871 1.4003906.529297.7349923.217935 1.3518349.550595 1.1894531 1.257812-.2286172 1.002067-1.4771505.941406-2.9941406.941406-1.0636024 0-2.0605469-.06836-2.0605469-.06836l.4101563-1.130859s.8788448.104015 1.9257812.121093c.6730318.01282.90625-.000276.90625-.15625 0-.194434-.6205367-.305514-1.0136719-.455078-.4123649-.158109-1.0926608-.509434-1.0371093-1.013672.042732-.388862.3857259-.794846 2.2167969-.886719.6356401-.03095 1.2730866-.03596 1.7519531-.03516zm1.4472656.0059c.5726105-.0021.7741408.0087 1.2890625.02148.130333.0043.352065.02209.619141.06055l-1.0996098.685508c-.1773388-.047006-.3777717-.080208-.5957031-.101563-.2371638-.023499-.3003883-.01526-.4414062-.019531zm2.7968755.230468c.130333.03419.30735.100881.435546.154297l-1.865234.619141c-.01066-.0064-.02055-.01099-.03125-.01953-.03632-.02351-.107291-.07805-.154297-.101563zm.904296.347657c.350403.170927.643223.389844.794922.671875.136743.247847.10928.503924-.04883.753906-1.262734 1.568269-4.5466059 1.557911-5.7324218 1.611328l.515625-1.451172c.3140811-.01068.765762-.05401 1.0371094-.107422.2692124-.05342.5124187-.125657.7089844-.208984.196566-.08333.348983-.176922.447266-.277344.09614-.100418.144237-.201761.125-.308594-.0043-.02564-.01469-.05051-.02539-.07617-.0085-.01711-.01665-.03561-.02734-.05273z" fill="#d0d0d0" stroke-width=".307692" transform="scale(.26458333)"/></svg>