<?xml version="1.0" encoding="UTF-8" standalone="no"?>
<svg
   xmlns:dc="http://purl.org/dc/elements/1.1/"
   xmlns:cc="http://creativecommons.org/ns#"
   xmlns:rdf="http://www.w3.org/1999/02/22-rdf-syntax-ns#"
   xmlns:svg="http://www.w3.org/2000/svg"
   xmlns="http://www.w3.org/2000/svg"
   xmlns:sodipodi="http://sodipodi.sourceforge.net/DTD/sodipodi-0.dtd"
   xmlns:inkscape="http://www.inkscape.org/namespaces/inkscape"
   height="12"
   viewBox="0 0 12 12"
   width="12"
   version="1.1"
   id="svg840"
   sodipodi:docname="glyph-podcast.svg"
   inkscape:version="0.92+devel (9d04be7596, 2017-09-23, custom)">
  <defs
     id="defs842" />
  <sodipodi:namedview
     id="namedview834"
     inkscape:document-rotation="0"
     showgrid="false"
     pagecolor="#002466"
     inkscape:pageopacity="0"
     borderlayer="true"
     inkscape:showpageshadow="false"
     bordercolor="#ffffff"
     borderopacity="0.19215686"
     inkscape:zoom="47.0625"
     inkscape:cx="7.9681275"
     inkscape:cy="8"
     inkscape:window-width="1920"
     inkscape:window-height="1017"
     inkscape:window-x="0"
     inkscape:window-y="34"
     inkscape:window-maximized="1"
     inkscape:current-layer="svg840" />
  <metadata
     id="metadata836">
    <rdf:RDF>
      <cc:Work>
        <dc:format>image/svg+xml</dc:format>
        <dc:type
           rdf:resource="http://purl.org/dc/dcmitype/StillImage" />
        <dc:title></dc:title>
      </cc:Work>
    </rdf:RDF>
  </metadata>
  <path
     style="fill:#d0d0d0;stroke-width:2.83464575;stroke:none"
     d="m 6.0000001,-1e-7 C 3.5544883,3e-7 1.5644532,1.9900346 1.5644532,4.4355468 c 0,1.6152432 0.8709261,3.0268499 2.165039,3.8027343 C 3.7463582,7.9445436 3.8175812,7.6667684 3.9360352,7.4121093 2.9949569,6.7594899 2.3803711,5.6719467 2.3803711,4.4355468 c 0,-2.0047067 1.6149228,-3.6196287 3.619629,-3.619629 2.0047067,0 3.6196287,1.6149223 3.6196287,3.619629 0,1.2259 -0.605894,2.3045899 -1.533691,2.9589843 0.120687,0.2538225 0.194574,0.5327213 0.213867,0.8261723 C 9.5773488,7.4409543 10.435547,6.0381188 10.435547,4.4355468 10.435547,1.9900345 8.4455118,-10e-8 6.0000001,-10e-8 Z m 0,1.4135742 c -1.6646196,0 -3.0234375,1.3573532 -3.0234375,3.0219727 0,1.0166785 0.5096671,1.9167682 1.2832031,2.465332 0.1832938,-0.2185625 0.4064203,-0.4020257 0.6577148,-0.5405273 -0.6721041,-0.3772466 -1.125,-1.0953698 -1.125,-1.9248047 0,-1.2238144 0.9837055,-2.2075196 2.2075196,-2.2075196 1.2238143,0 2.2060547,0.9837052 2.2060547,2.2075196 0,0.8232655 -0.445049,1.5365418 -1.1088868,1.9160156 0.2530319,0.1366498 0.4767748,0.3186727 0.6621088,0.5361328 0.763601,-0.5497484 1.264161,-1.4433921 1.264161,-2.4521484 0,-1.6646196 -1.358818,-3.0219727 -3.0234377,-3.0219727 z m 0,1.4414062 A 1.5807798,1.5807798 0 0 0 4.4194336,4.4355468 1.5807798,1.5807798 0 0 0 6.0000001,6.017578 1.5807798,1.5807798 0 0 0 7.5805668,4.4355468 1.5807798,1.5807798 0 0 0 6.0000001,2.8549803 Z m 0.014648,3.8466798 c -0.9211994,0 -1.6669921,0.7472575 -1.6669921,1.6684568 C 4.347656,9.8006751 5.0934487,12 6.0146481,12 6.9358473,12 7.6831058,9.8283641 7.6831058,8.3701169 c 0,-0.9211993 -0.7472585,-1.6684568 -1.6684577,-1.6684568 z"
     id="path1393"
     inkscape:connector-curvature="0" />
</svg>
