<?xml version="1.0" encoding="UTF-8" standalone="no"?><svg height="16" viewBox="0 0 4.2333333 4.2333333" width="16" xmlns="http://www.w3.org/2000/svg"><sodipodi:namedview/><metadata><rdf:RDF><cc:Work><dc:format>image/svg+xml</dc:format><dc:type/><dc:title/></cc:Work></rdf:RDF></metadata><path d="m1.9455853.33466809c-.4462241-.44622408-1.16469316-.44622401-1.61091717-.00000002-.44622407.44622409-.44622408 1.16469313 0 1.61091733zm.1710814.17108134-1.61091727 1.61091717 1.61091717 1.6109173 1.6109172-1.6109172zm1.7819984 1.78199837-1.6109172 1.6109174c.4462242.4462242 1.1646932.446224 1.6109173-.0000001.4462239-.446224.4462242-1.164693-.0000001-1.6109173zm-1.630975-1.1275634a.22394886.22394886 0 0 1 -.0003937.3165987.22394886.22394886 0 0 1 -.3165986.0003928.22394886.22394886 0 0 1 -.0000001-.3169919.22394886.22394886 0 0 1  .3169924.0000004zm.8054586.8054588a.22394886.22394886 0 0 1 0 .3169919.22394886.22394886 0 0 1 -.3169918.0000001.22394886.22394886 0 0 1 -.0000001-.316992.22394886.22394886 0 0 1  .3169919 0zm-.7975927-.00787a.22394886.22394886 0 0 1 -.0003933.3165988.22394886.22394886 0 0 1 -.3165988.0003934.22394886.22394886 0 0 1 0-.3169922.22394886.22394886 0 0 1  .3169921 0zm-.7979861-.00747a.22394886.22394886 0 0 1 -.0003938.3165985.22394886.22394886 0 0 1 -.3165988.0003929.22394886.22394886 0 0 1 0-.3169921.22394886.22394886 0 0 1  .3169926.0000007zm.8054586.8054585a.22394886.22394886 0 0 1 0 .316992.22394886.22394886 0 0 1 -.3169919 0 .22394886.22394886 0 0 1 0-.3169919.22394886.22394886 0 0 1  .3169919-.0000001z" fill="#d0d0d0" stroke-width=".343958"/></svg>