<?xml version="1.0" encoding="UTF-8" standalone="no"?><svg height="22" viewBox="0 0 22 22" width="22" xmlns="http://www.w3.org/2000/svg"><sodipodi:namedview/><metadata><rdf:RDF><cc:Work><dc:format>image/svg+xml</dc:format><dc:type/><dc:title/></cc:Work></rdf:RDF></metadata><g fill="#fff" transform="matrix(1.1121812 0 0 1.1121812 25.775182 -.626242)"><path d="m-22.865097 6.8612747v2.0351563h1.416016l-1.353516-2.0351563zm2.666016 0 1.353515 2.0351563h2.367188l-1.351563-2.0351563zm4.972656 0 1.351562 2.0351563h2.603516l-1.351562-2.0351563zm5.207031 0 1.3515626 2.0351563h2.6054688l-1.3535156-2.0351563zm5.2070314 0 1.3535156 2.0351563h.064453v-2.0351563z" stroke-width=".863983"/><path d="m-22.865234 8.8964844v10.1289066h19.4687496v-10.1289066zm7.164062 1.6523436 2.955078 1.705078 2.9550784 1.707032-2.9550784 1.705078-2.955078 1.707031v-3.412109z" opacity=".857" stroke-width="1.927297"/><path d="m-22.865097 6.8612746-.310247-2.0113696 1.399465-.2158631-1.027449 2.217705zm2.634856-.406418 1.027448-2.2177048 2.339521-.3608635-1.025519 2.2174072zm4.914536-.7580513 1.025518-2.2174071 2.573086-.3968903-1.025517 2.2174071zm5.146172-.7937804 1.0255184-2.2174072 2.5750163-.3971879-1.0274486 2.2177049zm5.1461722-.7937804 1.0274486-2.2177049.0637-.00983.3102473 2.0113696z" stroke-width=".863983"/></g></svg>