<?xml version="1.0" encoding="UTF-8" standalone="no"?><svg height="16" viewBox="0 0 4.2333332 4.2333332" width="16" xmlns="http://www.w3.org/2000/svg"><sodipodi:namedview/><metadata><rdf:RDF><cc:Work><dc:format>image/svg+xml</dc:format><dc:type/><dc:title/></cc:Work></rdf:RDF></metadata><path d="m .88867188 5.3339844h2.66796872c.8892571.0000015.8886719.8886718.8886719.8886718v.4433594c.0000008.7386063.5934254 1.3339829 1.3320313 1.3339844h4.4453122c.738605-.0000011 1.332031-.5953819 1.332032-1.3339844v-.4433594c0 .0000001-.00059-.8886699.888671-.8886718h2.667969c.889267.0000004.888672.8886718.888672.8886718v1.3925782c-1.081233 1.82387-3.049554 3.0507816-5.332031 3.0507816h-5.3359378c-2.2824764 0-4.2507863-1.2269331-5.3320312-3.0507816v-1.3925782c0 .0000001-.00059292-.8886677.88867188-.8886718z" fill="#d0d0d0" stroke-width="2.167" transform="scale(.26458333)"/></svg>