<?xml version="1.0" encoding="UTF-8" standalone="no"?><svg height="22" viewBox="0 0 22 22" width="22" xmlns="http://www.w3.org/2000/svg"><sodipodi:namedview/><metadata><rdf:RDF><cc:Work><dc:format>image/svg+xml</dc:format><dc:type/><dc:title/></cc:Work></rdf:RDF></metadata><path d="m20.530962 3.6789157c-1.961788-2.0318411-5.142481-2.0318407-7.104293.0000005l-8.5751045 8.8813118.00288.003c-1.1293217 1.225836-1.1083969 3.16088.04718 4.36018 1.1770773 1.21911 3.0854977 1.21911 4.2625763.000001l7.8147112-8.0938073-1.420884-1.4716227-7.8147243 8.093779c-.3923588.406369-1.0284992.40637-1.4208584 0-.3923585-.40637-.3923581-1.065228-.0000002-1.471596l8.5251539-8.8295767c1.177077-1.2191101 3.085497-1.2191097 4.262576.0000004 1.177077 1.2191095 1.177078 3.1956776 0 4.4147877l-8.525153 8.8295776c-1.9617972 2.031849-5.1424967 2.031849-7.1042945-.000001-1.9617958-2.03185-1.9617962-5.32613.0000002-7.357979l9.2355823-9.5653753-1.420858-1.47159568-9.2355824 9.56537428c-2.74651997 2.8445957-2.74653131 7.4565877-.0000007 10.3011707 2.7465087 2.844607 7.1995029 2.844607 9.9460111 0l8.575106-8.881312-.0028-.0029c1.914021-2.0386177 1.892948-5.2912042-.0471-7.3032649z" fill="#d0d0d0"/></svg>