<?xml version="1.0" encoding="UTF-8" standalone="no"?>
<!-- Created with Inkscape (http://www.inkscape.org/) -->

<svg
   xmlns:dc="http://purl.org/dc/elements/1.1/"
   xmlns:cc="http://creativecommons.org/ns#"
   xmlns:rdf="http://www.w3.org/1999/02/22-rdf-syntax-ns#"
   xmlns:svg="http://www.w3.org/2000/svg"
   xmlns="http://www.w3.org/2000/svg"
   xmlns:sodipodi="http://sodipodi.sourceforge.net/DTD/sodipodi-0.dtd"
   xmlns:inkscape="http://www.inkscape.org/namespaces/inkscape"
   width="16"
   height="16"
   viewBox="0 0 4.2333332 4.2333332"
   version="1.1"
   id="svg8"
   inkscape:version="0.92+devel (7f48eea3d0, 2017-08-15, custom)"
   sodipodi:docname="glyph-database-index.svg">
  <defs
     id="defs2" />
  <sodipodi:namedview
     id="base"
     pagecolor="#002466"
     bordercolor="#ffffff"
     borderopacity="0.38039216"
     inkscape:pageopacity="1"
     inkscape:pageshadow="2"
     inkscape:zoom="10.137867"
     inkscape:cx="39.531907"
     inkscape:cy="27.302424"
     inkscape:document-units="px"
     inkscape:current-layer="svg8"
     inkscape:document-rotation="0"
     showgrid="false"
     inkscape:showpageshadow="false"
     borderlayer="true"
     inkscape:window-width="1920"
     inkscape:window-height="1023"
     inkscape:window-x="0"
     inkscape:window-y="28"
     inkscape:window-maximized="1"
     units="px" />
  <metadata
     id="metadata5">
    <rdf:RDF>
      <cc:Work
         rdf:about="">
        <dc:format>image/svg+xml</dc:format>
        <dc:type
           rdf:resource="http://purl.org/dc/dcmitype/StillImage" />
        <dc:title></dc:title>
      </cc:Work>
    </rdf:RDF>
  </metadata>
  <path
     style="fill:#d0d0d0;stroke-width:0.5733521"
     d="m 2.1166666,1.05e-6 c -1.16927868,0 -2.1170569,0.285536 -2.1166667,0.637687 5.572e-4,0.351948 0.94805803,0.63716995 2.1166667,0.63716995 1.1686088,0 2.1161095,-0.28522195 2.1166667,-0.63716995 C 4.2337235,0.28553705 3.2859453,1.05e-6 2.1166666,1.05e-6 Z M -1e-7,1.137916 v 2.457731 0.02687 h 0.0031 C 0.0505269,3.96377 0.98257753,4.2331305 2.116666,4.2333321 3.2503549,4.2329637 4.1817895,3.963651 4.2291992,3.622518 h 0.00413 V 3.595648 1.137917 L 4.2328,1.138433 C 3.5974221,1.509612 2.7532055,1.576861 2.1156331,1.57975 1.3491257,1.57175 0.6294244,1.471998 5.167e-4,1.138433 Z M 2.108154,2.088822 2.3638164,2.632214 2.9599226,2.707774 2.5219581,3.118942 2.6348537,3.709338 2.108154,3.419851 1.5814544,3.709338 1.69435,3.118942 1.2563854,2.707774 1.8524916,2.632214 Z"
     id="rect822"
     inkscape:connector-curvature="0"
     sodipodi:nodetypes="scscscccccccccccccccccccccccc"
     inkscape:label="#" />
</svg>
