<?xml version="1.0" encoding="UTF-8" standalone="no"?><svg height="16" viewBox="0 0 4.2333332 4.2333332" width="16" xmlns="http://www.w3.org/2000/svg"><sodipodi:namedview/><metadata><rdf:RDF><cc:Work><dc:format>image/svg+xml</dc:format><dc:type/><dc:title/></cc:Work></rdf:RDF></metadata><path d="m2.2907088 0c-.7219414.77022188.1767036.8710604.0453388 1.5524903.6318408-.72336788-.265608-.79402041-.0453388-1.5524903zm-1.68485051 1.8713248c-.069017 0-.1243163.056029-.1243163.1250475v.014626.1374791c0 .017977.00418.034319.010969.049727.00709.065419.01736.1301507.031445.1945183h-.053383c-.21568996 0-.39269298.1799282-.39269298.3956181v.038026c0 .2156897.17700302.3926934.39269298.3926934h.4672828c.13183191.1518911.28771761.2810963.46143261.382455.568333.3282261 1.268622.3282261 1.8369549 0 .5128539-.2960065.8454842-.8189878.9060459-1.4003857.00764-.016168.013164-.03352.013164-.052652v-.1374797-.0146255c0-.069017-.055297-.1250475-.1243161-.1250475zm-.1352854.7978177h.1345541c.036255.09464.080282.1861185.1316289.2734956h-.266183c-.067592 0-.11627221-.048681-.11627217-.1162723v-.038026c0-.067592.0486809-.1191974.11627217-.1191973zm.4841021 1.3148268c-.069019 0-.1243163.056029-.1243163.1250477 0 .069019.055298.1243162.1243163.1243162h2.82197841c.069019 0 .1243161-.055298.1243161-.1243162 0-.069018-.055298-.1250477-.1243161-.1250477z" fill="#d0d0d0"/></svg>