<?xml version="1.0" encoding="UTF-8" standalone="no"?><svg height="16mm" viewBox="0 0 16 16" width="16mm" xmlns="http://www.w3.org/2000/svg"><sodipodi:namedview/><metadata><rdf:RDF><cc:Work><dc:format>image/svg+xml</dc:format><dc:type/><dc:title/></cc:Work></rdf:RDF></metadata><path d="m5.4071145 3.13676v1.6822018h1.6822117v-1.6822018zm2.1586287 0v1.6822018h1.682214v-1.6822018zm4.5976288 1.3849636c-.565493.3875744-.825575 1.0892956-.649276 1.7517944.178266.6619888.754165 1.1399401 1.437683 1.1931342.228418.6460795.838851 1.078363 1.52411 1.0793216.68526-.0009708 1.29569-.4332421 1.524111-1.0793216-.228421-.6460592-.838851-1.0783427-1.524111-1.0793013-.326915.0009994-.645865.1009626-.914889.2866932.109325-.3085379.122542-.6429589.037958-.9591659-.178-.6613158-.752857-1.1391038-1.435578-1.1931546zm.788407 2.9449286h-12.9517792c-.000002 3.5765468 2.8993525 5.3965878 6.4758894 5.3965878 3.5765348 0 6.4758898-1.820041 6.4758898-5.3965878zm-10.3167347-2.1628451v1.6822219h1.6822137v-1.6822219zm2.1586311 0v1.6822219h1.6822138v-1.6822219zm2.1586288 0v1.6822219h1.682214v-1.6822219zm2.158629 0v1.6822219h1.6822138v-1.6822219zm-6.4126475 3.2421667a.5396574.5396574 0 0 1  .5396588.5396507.5396574.5396574 0 0 1 -.5396588.539671.5396574.5396574 0 0 1 -.5396568-.539671.5396574.5396574 0 0 1  .5396568-.5396507z" fill="#d0d0d0"/></svg>