<?xml version="1.0" encoding="UTF-8" standalone="no"?><svg height="16" viewBox="0 0 4.2333332 4.2333332" width="16" xmlns="http://www.w3.org/2000/svg"><sodipodi:namedview/><metadata><rdf:RDF><cc:Work><dc:format>image/svg+xml</dc:format><dc:type/><dc:title/></cc:Work></rdf:RDF></metadata><path d="m2.2011719 0c-1.21974122 0-2.2011719.98143068-2.2011719 2.2011719v11.5976561c0 1.219741.98143068 2.201172 2.2011719 2.201172h11.5976561c1.219741 0 2.201172-.981431 2.201172-2.201172v-11.5976561c0-1.21974122-.981431-2.2011719-2.201172-2.2011719zm2.6796875 5.2714844h.78125v3.1191406h-.78125zm7.0156246.390625h.779297l.585938.9355468.583984-.9355468h.779297l-.974609 1.5585937.974609 1.5585938h-.779297l-.583984-.9335938-.585938.9335938h-.779297l.97461-1.5585938zm-9.7499996.7753906.00781.00391v.00977l1.1699244 1.7460856v-1.7558594h.7792968v3.1171876h-.7792968l-1.1699219-1.7226563v1.7226563h-.7792969v-3.1171876h.7734375zm6.6328125.3925781h.7792969v1.5605469s.0055.226473.091797.4335938c.0863.2071181.1609611.3457031.4921874.3457031.331224 0 .407839-.1385813.494141-.3457031.08629-.2071197.0918-.4335938.0918-.4335938v-1.5605469h.777343v1.5605469s.0069.3569816-.15039.734375c-.1572492.3773926-.5699302.8242188-1.2128942.8242188-.6429648 0-1.0536901-.4468254-1.2109374-.8242188-.1572434-.3773942-.1523437-.734375-.1523437-.734375zm-2.3378907.7792969h.7792969v2.3398438h1.1699219v.7792972h-1.1699219-.7792969v-.7792972z" fill="#d0d0d0" opacity=".6" stroke-width="3.4" transform="scale(.26458333)"/></svg>