<?xml version="1.0" encoding="UTF-8" standalone="no"?>
<!-- Created with Inkscape (http://www.inkscape.org/) -->

<svg
   xmlns:dc="http://purl.org/dc/elements/1.1/"
   xmlns:cc="http://creativecommons.org/ns#"
   xmlns:rdf="http://www.w3.org/1999/02/22-rdf-syntax-ns#"
   xmlns:svg="http://www.w3.org/2000/svg"
   xmlns="http://www.w3.org/2000/svg"
   xmlns:sodipodi="http://sodipodi.sourceforge.net/DTD/sodipodi-0.dtd"
   xmlns:inkscape="http://www.inkscape.org/namespaces/inkscape"
   width="12"
   height="12"
   viewBox="0 0 12 12"
   version="1.1"
   id="default16"
   inkscape:version="0.92+devel (42c84a5464, 2017-09-20, custom)"
   sodipodi:docname="glyph-hand.svg">
  <defs
     id="defs5" />
  <sodipodi:namedview
     id="base"
     pagecolor="#002466"
     bordercolor="#ffffff"
     borderopacity="0.38039216"
     inkscape:pageopacity="1"
     inkscape:pageshadow="2"
     inkscape:zoom="26.28125"
     inkscape:cx="7.9429251"
     inkscape:cy="8"
     inkscape:document-units="px"
     inkscape:current-layer="default16"
     inkscape:document-rotation="0"
     showgrid="false"
     inkscape:showpageshadow="false"
     borderlayer="true"
     inkscape:window-width="1920"
     inkscape:window-height="1017"
     inkscape:window-x="0"
     inkscape:window-y="34"
     inkscape:window-maximized="1"
     units="px" />
  <metadata
     id="metadata5">
    <rdf:RDF>
      <cc:Work
         rdf:about="">
        <dc:format>image/svg+xml</dc:format>
        <dc:type
           rdf:resource="http://purl.org/dc/dcmitype/StillImage" />
        <dc:title></dc:title>
      </cc:Work>
    </rdf:RDF>
  </metadata>
  <path
     style="fill:#d0d0d0;fill-opacity:1;stroke:none;stroke-width:1"
     d="M 6.1585038,0.0015714 V 0.003254 C 6.6424063,-0.02659271 7.10785,0.38454626 7.1271306,0.8601177 l 0.2295387,4.1231401 c 0.012894,0.2331887 0.1602903,0.230358 0.1709341,0.019735 L 7.7359795,0.86011377 c 0.01782,-0.4381986 0.4087145,-0.83140425 0.85467,-0.85850791 0.5159065,-0.03283613 1.0035831,0.44581731 0.9702529,0.952253 L 9.3329907,5.4865212 c -0.00683,0.1361751 0.032615,0.203202 0.074882,0.037825 L 10.187659,2.4833871 c 0.08888,-0.3732452 0.446897,-0.6688444 0.836763,-0.6907539 0.576351,-0.041788 1.096714,0.5711246 0.950718,1.1200078 l -0.913274,3.600138 c -0.366612,1.4468845 -0.551558,5.053924 -0.573036,5.484913 l -5.3754794,0.0023 v 0 C 3.3492301,11.982004 2.0594301,8.0091764 1.8865157e-8,6.6443679 c 0,0 0.742261201134843,-2.1462333 3.783337381134843,0.8387719 0,0 0.021338,-0.099737 0.056978,-0.2417639 -0.022263,-0.072651 -0.036032,-0.149558 -0.039066,-0.2253172 L 2.8896018,1.6429668 C 2.8038748,1.156829 3.2062675,0.64279149 3.7068284,0.59861304 4.1617674,0.56637338 4.6101017,0.92028207 4.6754542,1.3633758 L 5.3412823,5.2809357 C 5.3687133,5.4426031 5.5620058,5.400352 5.5496591,5.1888347 L 5.3038404,0.95385805 C 5.2730674,0.48479419 5.6805184,0.03008171 6.1585088,0.00160506 Z"
     id="path4"
     inkscape:connector-curvature="0"
     inkscape:label="#" />
</svg>
