<?xml version="1.0" encoding="UTF-8" standalone="no"?><svg height="16" viewBox="0 0 4.2333332 4.2333332" width="16" xmlns="http://www.w3.org/2000/svg"><sodipodi:namedview/><metadata><rdf:RDF><cc:Work><dc:format>image/svg+xml</dc:format><dc:type/><dc:title/></cc:Work></rdf:RDF></metadata><path d="m2.1166666.00026459c-.2922764 0-.5291666.2368804-.5291666.52914455.0001764.224181.141464.42384487.3527778.49845426v.3834535h-.7055556v.352763h.7055556v1.4110523c0 .1763815-.2428876.2807994-.3591279.2656305-.5207-.0682595-.94350399-.1804383-1.18656799-.4058539l.35683479.017991-.60836529-.5670667c-.11482911.25981-.12823471.5178562-.14305141.7954808l.1883833-.1857298c.090488.3733998 1.3267973.6086926 1.5014222.762321l.4268611.3755163.4265084-.3751635c.1751541-.1539812 1.411111-.3899796 1.5003639-.763732l.1897943.186788c0-.2825633-.061559-.5291447-.1430514-.7954808l-.3042708.2834452-.2584097.2834451.3116791-.017991c-.2425346.2245338-.6633984.3372416-1.1821582.4058539-.1178278.0155217-.364243-.0892489-.364243-.2656305v-1.4110522h.7055555v-.3527631h-.7055555v-.3838062c.2111375-.07460949.3524249-.27409695.3527777-.49810149 0-.29226422-.2368903-.52914461-.5291667-.52914461m0 .35276303c.097368 0 .176389.079019.176389.17638158 0 .0973627-.079022.17638152-.176389.17638152s-.1763887-.0790189-.1763887-.17638152c0-.0973626.079022-.17638158.1763887-.17638158" fill="#d0d0d0" stroke-linejoin="round" stroke-width=".264583"/></svg>