<?xml version="1.0" encoding="UTF-8" standalone="no"?>
<!-- Created with Inkscape (http://www.inkscape.org/) -->

<svg
   xmlns:dc="http://purl.org/dc/elements/1.1/"
   xmlns:cc="http://creativecommons.org/ns#"
   xmlns:rdf="http://www.w3.org/1999/02/22-rdf-syntax-ns#"
   xmlns:svg="http://www.w3.org/2000/svg"
   xmlns="http://www.w3.org/2000/svg"
   xmlns:sodipodi="http://sodipodi.sourceforge.net/DTD/sodipodi-0.dtd"
   xmlns:inkscape="http://www.inkscape.org/namespaces/inkscape"
   width="12"
   height="12"
   viewBox="0 0 12 12"
   version="1.1"
   id="default16"
   inkscape:version="0.92+devel (342812bdbc, 2017-09-26, custom)"
   sodipodi:docname="glyph-kstars-consellationart.svg">
  <defs
     id="defs5" />
  <sodipodi:namedview
     id="base"
     pagecolor="#002466"
     bordercolor="#ffffff"
     borderopacity="0.38039216"
     inkscape:pageopacity="1"
     inkscape:pageshadow="2"
     inkscape:zoom="26.28125"
     inkscape:cx="7.9429251"
     inkscape:cy="8"
     inkscape:document-units="px"
     inkscape:current-layer="default16"
     inkscape:document-rotation="0"
     showgrid="false"
     inkscape:showpageshadow="false"
     borderlayer="true"
     inkscape:window-width="1920"
     inkscape:window-height="1017"
     inkscape:window-x="0"
     inkscape:window-y="34"
     inkscape:window-maximized="1"
     units="px" />
  <metadata
     id="metadata5">
    <rdf:RDF>
      <cc:Work
         rdf:about="">
        <dc:format>image/svg+xml</dc:format>
        <dc:type
           rdf:resource="http://purl.org/dc/dcmitype/StillImage" />
        <dc:title></dc:title>
      </cc:Work>
    </rdf:RDF>
  </metadata>
  <path
     style="fill:#d0d0d0;fill-opacity:1;stroke:none;stroke-width:0.66667688"
     d="m 2.7784391,0.01008425 c -0.171309,-0.0657075 -0.356749,0.19653795 -0.415371,0.58724864 -0.05283,0.3521374 0.0015,2.21168101 0.07162,2.45186041 0.03469,0.1188826 -0.023,0.1749311 -0.324224,0.3151091 -0.442705,0.2060165 -1.078971,0.808458 -1.29038399,1.222675 -0.09194,0.1801362 -0.153648,0.4382474 -0.153648,0.6393325 0,0.2934408 0.03565,0.3730021 0.273441,0.610687 C 1.2281231,6.125116 1.5314431,6.2422298 2.1872891,6.317473 c 0.219079,0.025134 0.442098,0.079415 0.494799,0.1210958 0.187673,0.1484163 0.374465,0.6295237 0.447923,1.1497571 0.04639,0.3285143 0.174478,0.7399866 0.337245,1.0872559 0.26076,0.5563452 0.2614323,0.559518 0.213545,1.2656452 -0.02643,0.38971 -0.08445,0.946376 -0.128908,1.235696 -0.07271,0.473156 -0.06875,0.540141 0.04818,0.669281 0.199199,0.220017 0.7192554,0.199781 0.8724091,-0.03386 0.1144757,-0.174633 0.2631847,-0.685219 0.3541721,-1.216164 l 0.046875,-0.270837 0.341151,0.174481 c 0.1932569,0.09927 0.3935893,0.272167 0.4635491,0.398444 l 0.1236998,0.22266 H 5.6040096 c -0.2936436,0 -0.5195395,0.188792 -0.5195395,0.4336 0,0.434006 0.2487016,0.445319 0.2487016,0.445319 h 4.0000614 c 0.6666769,0 0.7058229,-0.140917 0.7643349,-0.764334 0.01679,-0.178953 0.06842,-0.228527 0.333338,-0.316411 0.637217,-0.211395 1.05276,-0.870301 0.851576,-1.351583 -0.107571,-0.2573357 -0.444744,-0.4380305 -0.720063,-0.3854224 -0.163106,0.031167 -0.176073,0.0054 -0.246098,-0.480476 C 10.16715,7.6666557 9.7510319,6.9568189 9.0024931,6.4581011 8.4479605,6.0886401 7.8237036,5.9184055 6.7485527,5.8422063 5.7301925,5.7700332 5.3916486,5.6531554 5.0597244,5.2588637 4.9567175,5.1365012 4.8536679,4.9148002 4.8305543,4.7666676 4.7340708,4.1483444 4.6299531,3.9137658 4.3188276,3.6143062 L 4.0037187,3.309614 4.1443458,2.9007536 C 4.5632662,1.6836898 4.6303755,0.04524106 4.2615351,0.04524106 c -0.2085452,0 -0.5349699,0.50400563 -0.765637,1.18230974 L 3.3735011,1.5856292 3.2797511,1.1598415 C 3.1546931,0.59157289 2.9256921,0.06656446 2.7784411,0.01008425 Z M 2.3331201,3.9997288 c 0.184098,0 0.333339,0.1492407 0.333339,0.3333384 0,0.1840977 -0.149241,0.3333385 -0.333339,0.3333385 -0.184097,0 -0.333338,-0.1492408 -0.333338,-0.3333385 0,-0.1840977 0.149241,-0.3333384 0.333338,-0.3333384 z"
     id="path826"
     inkscape:connector-curvature="0"
     inkscape:label="#" />
</svg>
