<?xml version="1.0" encoding="UTF-8" standalone="no"?>
<!-- Created with Inkscape (http://www.inkscape.org/) -->

<svg
   xmlns:dc="http://purl.org/dc/elements/1.1/"
   xmlns:cc="http://creativecommons.org/ns#"
   xmlns:rdf="http://www.w3.org/1999/02/22-rdf-syntax-ns#"
   xmlns:svg="http://www.w3.org/2000/svg"
   xmlns="http://www.w3.org/2000/svg"
   xmlns:sodipodi="http://sodipodi.sourceforge.net/DTD/sodipodi-0.dtd"
   xmlns:inkscape="http://www.inkscape.org/namespaces/inkscape"
   width="16"
   height="16"
   viewBox="0 0 4.2333332 4.2333332"
   version="1.1"
   id="svg8"
   inkscape:version="0.92+devel (d0390b9f4f, 2017-07-31, custom)"
   sodipodi:docname="glyph-picmi.svg">
  <defs
     id="defs2" />
  <sodipodi:namedview
     id="base"
     pagecolor="#002466"
     bordercolor="#ffffff"
     borderopacity="0.38039216"
     inkscape:pageopacity="1"
     inkscape:pageshadow="2"
     inkscape:zoom="25.75"
     inkscape:cx="12.195669"
     inkscape:cy="10.736233"
     inkscape:document-units="px"
     inkscape:current-layer="svg8"
     inkscape:document-rotation="0"
     showgrid="false"
     inkscape:showpageshadow="false"
     borderlayer="true"
     inkscape:window-width="1920"
     inkscape:window-height="1051"
     inkscape:window-x="0"
     inkscape:window-y="0"
     inkscape:window-maximized="1"
     units="px" />
  <metadata
     id="metadata5">
    <rdf:RDF>
      <cc:Work
         rdf:about="">
        <dc:format>image/svg+xml</dc:format>
        <dc:type
           rdf:resource="http://purl.org/dc/dcmitype/StillImage" />
        <dc:title></dc:title>
      </cc:Work>
    </rdf:RDF>
  </metadata>
  <path
     style="font-variation-settings:normal;opacity:0.69787233;vector-effect:none;fill:#d0d0d0;stroke-width:1.89999998;stroke-linecap:square"
     d="M 0.83398438 0 C 0.37231754 0 0 0.37231981 0 0.83398438 L 0 4.1660156 C 0 4.6276846 0.37231792 5 0.83398438 5 L 4.1660156 5 C 4.6276853 5 5 4.62768 5 4.1660156 L 5 0.83398438 C 5 0.37231811 4.6276849 0 4.1660156 0 L 0.83398438 0 z M 11.833984 0 C 11.372318 0 11 0.37231981 11 0.83398438 L 11 4.1660156 C 11 4.6276853 11.372318 5 11.833984 5 L 15.166016 5 C 15.627685 5 16 4.62768 16 4.1660156 L 16 0.83398438 C 16 0.37231811 15.627685 0 15.166016 0 L 11.833984 0 z M 12.722656 1.0800781 L 13.634766 1.9902344 L 14.544922 1.0800781 L 15.027344 1.5625 L 14.115234 2.4746094 L 15.027344 3.3847656 L 14.544922 3.8671875 L 13.634766 2.9550781 L 12.722656 3.8671875 L 12.240234 3.3847656 L 13.150391 2.4746094 L 12.240234 1.5625 L 12.722656 1.0800781 z M 6.3339844 5.5 C 5.8723185 5.5 5.5 5.8723196 5.5 6.3339844 L 5.5 9.6660156 C 5.5 10.127685 5.8723181 10.5 6.3339844 10.5 L 9.6660156 10.5 C 10.127685 10.5 10.5 10.12768 10.5 9.6660156 L 10.5 6.3339844 C 10.5 5.8723185 10.127685 5.5 9.6660156 5.5 L 6.3339844 5.5 z M 7.0878906 6.6542969 L 8 7.5644531 L 8.9101562 6.6542969 L 9.3925781 7.1367188 L 8.4804688 8.0488281 L 9.3925781 8.9589844 L 8.9101562 9.4414062 L 8 8.5292969 L 7.0878906 9.4414062 L 6.6054688 8.9589844 L 7.515625 8.0488281 L 6.6054688 7.1367188 L 7.0878906 6.6542969 z M 0.83398438 11 C 0.37231754 11 0 11.37232 0 11.833984 L 0 15.166016 C 0 15.627685 0.37231792 16 0.83398438 16 L 4.1660156 16 C 4.6276853 16 5 15.62768 5 15.166016 L 5 11.833984 C 5 11.372318 4.6276849 11 4.1660156 11 L 0.83398438 11 z M 11.833984 11 C 11.372318 11 11 11.37232 11 11.833984 L 11 15.166016 C 11 15.627685 11.372318 16 11.833984 16 L 15.166016 16 C 15.627685 16 16 15.62768 16 15.166016 L 16 11.833984 C 16 11.372318 15.627685 11 15.166016 11 L 11.833984 11 z "
     transform="scale(0.26458333)"
     id="path814"
     inkscape:label="#" />
  <path
     style="font-variation-settings:normal;opacity:0.31063831;vector-effect:none;fill:#d0d0d0;stroke-width:1.89999998;stroke-linecap:square"
     d="M 6.3339844 0 C 5.8723185 0 5.5 0.37231982 5.5 0.83398438 L 5.5 4.1660156 C 5.5 4.6276853 5.8723181 5 6.3339844 5 L 9.6660156 5 C 10.127685 5 10.5 4.62768 10.5 4.1660156 L 10.5 0.83398438 C 10.5 0.37231812 10.127685 7.4014868e-17 9.6660156 0 L 6.3339844 0 z M 0.83398438 5.5 C 0.37231755 5.5 7.4014868e-17 5.8723196 0 6.3339844 L 0 9.6660156 C 0 10.127685 0.37231793 10.5 0.83398438 10.5 L 4.1660156 10.5 C 4.6276853 10.5 5 10.12768 5 9.6660156 L 5 6.3339844 C 5 5.8723185 4.6276849 5.5 4.1660156 5.5 L 0.83398438 5.5 z M 11.833984 5.5 C 11.372318 5.5 11 5.8723196 11 6.3339844 L 11 9.6660156 C 11 10.127685 11.372318 10.5 11.833984 10.5 L 15.166016 10.5 C 15.627685 10.5 16 10.12768 16 9.6660156 L 16 6.3339844 C 16 5.8723185 15.627685 5.5 15.166016 5.5 L 11.833984 5.5 z M 1.4960938 6.6542969 L 2.4082031 7.5644531 L 3.3183594 6.6542969 L 3.8007812 7.1367188 L 2.8886719 8.0488281 L 3.8007812 8.9589844 L 3.3183594 9.4414062 L 2.4082031 8.5292969 L 1.4960938 9.4414062 L 1.0136719 8.9589844 L 1.9238281 8.0488281 L 1.0136719 7.1367188 L 1.4960938 6.6542969 z M 6.3339844 11 C 5.8723185 11 5.5 11.37232 5.5 11.833984 L 5.5 15.166016 C 5.5 15.627685 5.8723181 16 6.3339844 16 L 9.6660156 16 C 10.127685 16 10.5 15.62768 10.5 15.166016 L 10.5 11.833984 C 10.5 11.372318 10.127685 11 9.6660156 11 L 6.3339844 11 z "
     transform="scale(0.26458333)"
     id="rect811"
     inkscape:label="#" />
</svg>
