<?xml version="1.0" encoding="UTF-8" standalone="no"?><svg height="16" viewBox="0 0 4.2333332 4.2333332" width="16" xmlns="http://www.w3.org/2000/svg"><sodipodi:namedview><sodipodi:guide/></sodipodi:namedview><metadata><rdf:RDF><cc:Work><dc:format>image/svg+xml</dc:format><dc:type/><dc:title/></cc:Work></rdf:RDF></metadata><path d="m1.2287112.00000032c-.26008075.63430049-.46677785 1.32088378-.46677785 1.66978758 0 .5725818.35707065 1.0572444.85976655 1.2535842.1104204.043128.3132453.1261129.349876.2628216v.744523c0 .095528-.8539628.1442617-.8539628.1442617-.04445.00752-.08208.035895-.08208.079592 0 .043699.036991.078763.08208.078763h2.0063981c.04509 0 .081251-.035064.081251-.078763s-.036833-.072069-.081251-.079592c-.2874178-.0342135-.8622538-.0436216-.8622538-.1450911v-.7436941c0-.1074121.2508141-.2221829.3656288-.2686251.4946818-.2000981.8440137-.6809808.8440137-1.2477807 0-.3489038-.2066968-1.03548707-.4667776-1.66978757z" fill="#d0d0d0" stroke-linecap="round" stroke-miterlimit="26.700001" stroke-width=".396875"/></svg>