<?xml version="1.0" encoding="UTF-8" standalone="no"?><svg height="16" viewBox="0 0 4.2333332 4.2333332" width="16" xmlns="http://www.w3.org/2000/svg"><sodipodi:namedview/><metadata><rdf:RDF><cc:Work><dc:format>image/svg+xml</dc:format><dc:type/><dc:title/></cc:Work></rdf:RDF></metadata><g fill="#d0d0d0"><path d="m2.1166666-.0000001a2.1166667 2.1166667 0 0 0 -1.51949379.6465755.21166667.21166667 0 0 1  .14283373.1843815c.0880234.00573.18242149.015154.28380686.027492.044281.00533.087958.010448.1335319.017363.135423.020714.2731153.048249.4067969.086403.01498.00426.029828.0085.044648.013022.020983.00641.041831.012901.062425.019844.038671.013009.076788.02655.1136881.041548.0002751.0001164.000552.0002963.000824.000412.011486.00468.022206.010006.033486.014883.028224.0122.055916.024938.082682.038447.01499.00756.029557.015373.044028.023358.024206.013368.047273.027562.069867.042168.011478.00741.023499.014384.03452.022118.030216.021245.058539.043974.084956.0678.043662.039319.081847.082157.113068.1289843.00054.000816.00132.00146.00186.00227a.26458334.26458334 0 0 1  .025219-.00124.26458334.26458334 0 0 1  .2645834.2645834.26458334.26458334 0 0 1 -.2548682.26417c-.05041.09485-.1262214.1761532-.2002959.2567314-.00263.00288-.00523.00581-.00785.00868-.0002646.0002857-.00056.00054-.000824.000824-.075875.083272-.14826.166527-.1864486.2641699a.3175.3175 0 0 1  .015295-.000824.3175.3175 0 0 1  .3175.3174999.3175.3175 0 0 1 -.10604.2364714c.031074.018558.064742.035858.1002522.052297.00219.00102.0042.0021.00641.0031.034183.015594.070597.030249.1081072.044028.00491.0018.00972.00361.014676.00537.037686.013476.076557.02602.1167887.037827.00344.001.00687.0021.010336.0031.042465.01226.08617.023761.1306379.034313.1857963.04409.3856626.073767.5719548.093844a.42333334.42333334 0 0 1  .4227055-.4045143.42333334.42333334 0 0 1  .3865399.2517676 2.1166667 2.1166667 0 0 0  .24846-.9926009 2.1166667 2.1166667 0 0 0 -2.1166666-2.1166667zm-1.76774736.9570475c-.004385.00669-.008098.01373-.0124024.020464a2.1166667 2.1166667 0 0 1  .0132292-.019017.21166667.21166667 0 0 1 -.000828-.00145zm-.0124024.020464a2.1166667 2.1166667 0 0 0 -.0276984.045889c.00924-.015304.018056-.030805.0276984-.045889zm-.0276984.045889c-.0242214.040121-.046976.080844-.0684196.1223698a2.1166667 2.1166667 0 0 1  .0684196-.1223698zm-.0684196.1223698a2.1166667 2.1166667 0 0 0 -.0297656.059531c.009566-.020033.0195706-.039788.0297656-.059531zm-.0297656.059531c-.0198206.04151-.0380789.083655-.0551904.1262972a2.1166667 2.1166667 0 0 1  .0551904-.1262972zm-.0551904.1262972a2.1166667 2.1166667 0 0 0 -.0262516.064285c.007927-.021726.0176365-.042817.0262516-.064285zm-.0440284.1130681a2.1166667 2.1166667 0 0 0 -.0347266.1159619c.010703-.038971.0218169-.077686.0347266-.1159619zm-.0533301.188929a2.1166667 2.1166667 0 0 0 -.0227377.1072801c.006567-.035967.0143297-.071758.0227377-.1072801zm-.0370003.2023649a2.1166667 2.1166667 0 0 0 -.0115755.090537c.002799-.030379.007475-.060378.0115755-.090537zm-.0161231.4194059a2.1166667 2.1166667 0 0 0  .001654.021084c-.0005248-.00703-.001197-.01403-.001654-.021084zm.0254248.2168343a2.1166667 2.1166667 0 0 0  .001654.0093c-.0005396-.00311-.001127-.00619-.001654-.0093zm.0349333.15813a2.1166667 2.1166667 0 0 0  .0192236.075034c-.007144-.024707-.0129643-.049963-.0192236-.075034zm.0628385.2062922a2.1166667 2.1166667 0 0 0  .024598.067179c-.008851-.022069-.016476-.04475-.024598-.067179zm.0806152.1924431a2.1166667 2.1166667 0 0 0  .031626.065526c-.0112073-.021463-.021141-.043638-.031626-.065526zm.096945.1794205a2.1166667 2.1166667 0 0 0  .0415478.06842c-.0146352-.022276-.0277417-.045568-.0415478-.06842zm.11844239.1756997a2.1166667 2.1166667 0 0 0  .044235.059324c-.0154651-.019189-.0294347-.039592-.044235-.059324zm.13477212.1624707a2.1166667 2.1166667 0 0 0  .0485759.05333c-.0168578-.01715-.0323062-.035616-.0485759-.05333zm.14820805.146141a2.1166667 2.1166667 0 0 0  .05333.048369c-.0184442-.015412-.0354268-.032349-.05333-.048369zm2.7336833.074414c-.0037.00297-.00724.00615-.010956.0091a2.1166667 2.1166667 0 0 0  .010956-.0091zm-2.54785487.074621a2.1166667 2.1166667 0 0 0  .031006.023151c-.0106564-.00728-.0204908-.015679-.031006-.023151zm2.38848467.040928c-.012639.00834-.025224.016744-.038034.024805a2.1166667 2.1166667 0 0 0  .038034-.024805zm-.1928564.113481c-.010792.00558-.021772.010726-.03266.016123a2.1166667 2.1166667 0 0 0  .03266-.016123zm-.1924431.087644c-.00557.0022-.01095.00487-.016536.00703a2.1166667 2.1166667 0 0 0  .016536-.00703zm-.1907894.064905c-.013416.00388-.026804.00774-.040307.011368a2.1166667 2.1166667 0 0 0  .040307-.011368zm-.219108.05147c-.00994.00176-.019996.00312-.029972.00476a2.1166667 2.1166667 0 0 0  .029972-.00476zm-.2031917.025632c-.00843.00068-.016772.00172-.025218.00228a2.1166667 2.1166667 0 0 0  .025218-.00228z" opacity=".6" stroke-width=".264583"/><path d="m .7408333.8311637c.0861761.0056.18217503.015233.2809131.027078-.10031757-.0121532-.19371337-.0213964-.2809131-.027078zm-.000412.00827a.21166667.21166667 0 0 1  .000412.00723.21166667.21166667 0 0 1 -.21166669.2116695.21166667.21166667 0 0 1 -.18024737-.1012858c-.22606779.3433583-.34817523.746117-.34891928 1.1596192 0 1.1694583.94763167 2.1166667 2.11666664 2.1166667.5246807-.0000792 1.0237324-.1948332 1.4068393-.5357813a.42333334.42333334 0 0 1 -.3299024-.2922819c-.3820236-.074329-.8422707-.1968888-1.135848-.3753776a.3175.3175 0 0 1 -.1527556.0392741.3175.3175 0 0 1 -.3174999-.3175.3175.3175 0 0 1  .1814876-.2864941c.0659281-.2187025.3087828-.3615449.4165121-.5762957a.26458334.26458334 0 0 1 -.1746664-.2484603.26458334.26458334 0 0 1  .1498617-.2379182c-.2309064-.3938263-.9243513-.5216901-1.4202751-.5630664zm.4175455.03638c.1342917.020398.2721609.048374.4047291.08599-.133054-.0378851-.2699714-.065368-.4047298-.0859911zm.4535116.100459c.01955.00598.03908.011949.058291.018397-.019231-.00647-.03872-.01239-.058291-.018397zm.1752864.061185c.00988.00403.019208.00864.028939.012816-.00975-.00419-.019032-.00877-.028939-.012816zm.1153419.053124c.015054.0076.029704.015531.044235.023564-.014554-.00804-.029155-.015955-.044235-.023564zm.1097608.062838c.013251.00849.027037.016502.039688.025425-.012661-.00891-.026423-.016944-.039688-.025425zm.1234032.092191c.043874.039556.0823.082599.1136882.1298113-.031345-.047166-.069738-.090252-.1136882-.1298113zm.149655.6589779c-.050439.094787-.12635.1760194-.2000911.2567285.074006-.080514.1496858-.1619776.2000911-.2567285zm-.0709 1.1344011c.00351.00164.00678.00334.010336.00496-.00355-.00161-.00682-.00333-.010336-.00496zm.1153418.047749c.00606.00224.012052.00443.01819.00661-.00615-.00218-.012122-.00438-.01819-.00661zm.1308447.043201c.00543.0016.010863.00318.01633.00475-.00546-.00156-.010909-.00316-.01633-.00475z" fill-rule="evenodd" opacity=".3" stroke-width=".264583"/><path d="m .52916661.7408332a.10583334.10583334 0 0 0 -.10583332.1058333.10583334.10583334 0 0 0  .10583332.1058334.10583334.10583334 0 0 0  .10583333-.1058334.10583334.10583334 0 0 0 -.10583333-.1058333zm1.74624999.7408333a.15875.15875 0 0 0 -.15875.15875.15875.15875 0 0 0  .15875.1587501.15875.15875 0 0 0  .15875-.1587501.15875.15875 0 0 0 -.15875-.15875zm-.3704167 1.0583334a.21166667.21166667 0 0 0 -.2116666.2116667.21166667.21166667 0 0 0  .2116666.2116666.21166667.21166667 0 0 0  .2116667-.2116666.21166667.21166667 0 0 0 -.2116667-.2116667zm1.6933334.4233333a.3175.3175 0 0 0 -.3175.3175001.3175.3175 0 0 0  .3175.3175.3175.3175 0 0 0  .3174999-.3175.3175.3175 0 0 0 -.3174999-.3175001z" stroke-linecap="round" stroke-linejoin="bevel" stroke-width=".529167"/></g></svg>