<?xml version="1.0" encoding="UTF-8" standalone="no"?><svg height="16" viewBox="0 0 4.2333332 4.2333332" width="16" xmlns="http://www.w3.org/2000/svg"><sodipodi:namedview/><metadata><rdf:RDF><cc:Work><dc:format>image/svg+xml</dc:format><dc:type/><dc:title/></cc:Work></rdf:RDF></metadata><path d="m2.1089175-.00004a2.1088945.4343825 0 0 0 -2.10891765.43448238 2.1088945.4343825 0 0 0 2.10891765.43429718 2.1088945.4343825 0 0 0 2.1087306-.43429718 2.1088945.4343825 0 0 0 -2.1087306-.43448238zm-2.09339844.66413124v1.45253546c-.00026459.2399436.94400891.4344848 2.10891764.4344822 1.1649091.0000026 2.1091852-.1945386 2.1089175-.4344822v-1.45253546c-.0002297.23986977-.9443598.43429986-2.1089175.43429716-1.16455763.0000027-2.10868904-.19442739-2.10891764-.43429716zm-.0071041 1.68218416v1.4525328c-.00026458.2399438.94400891.4344876 2.10891764.434485 1.1649088.0000026 2.1091857-.1945412 2.108918-.434485v-1.4525328c-.000231.2398724-.9443606.4342999-2.108918.4342973-1.16455763.0000026-2.10868904-.1944249-2.10891764-.4342973z" fill="#d0d0d0" stroke-width=".239467"/></svg>