<?xml version="1.0" encoding="UTF-8" standalone="no"?><svg height="16" viewBox="0 0 4.2333332 4.2333332" width="16" xmlns="http://www.w3.org/2000/svg"><sodipodi:namedview/><metadata><rdf:RDF><cc:Work><dc:format>image/svg+xml</dc:format><dc:type/><dc:title/></cc:Work></rdf:RDF></metadata><path d="m8 0a7.9999998 7.9999998 0 0 0 -8 8 7.9999998 7.9999998 0 0 0 8 8 7.9999998 7.9999998 0 0 0 8-8 7.9999998 7.9999998 0 0 0 -8-8zm-.0566406.98046875c.6937527-.01539609 1.385834.08473585 1.9492187.42773435.2222439.1353054.3846889.3688662.5273439.6113281.261001-.0548674.526366-.102731.771484-.046875.643981.1467465 1.226861.5433427 1.728516 1.0234376.501657.4800949.922833 1.0345669 1.078125 1.6757812.061294.2530481.016165.5362194-.054688.8085938.22329.1456021.440371.2990772.574219.5117187.351734.5587971.486673 1.2515243.501953 1.9453125.015296.6937898-.086013 1.3921436-.429687 1.9550781-.135572.2220669-.368758.3849999-.611328.5273439.052588.257975.101974.519434.046875.761719-.146448.643993-.543642 1.236585-1.023438 1.738281-.479796.501697-1.034703.91303-1.675781 1.068359-.253139.061346-.536101.016326-.808594-.054687-.14569.223273-.297046.440401-.509766.574218-.5589935.351669-1.249314.49645-1.9433589.511719-.6940467.01529-1.3939073-.097809-1.9570312-.441406-.2217472-.1353-.3849198-.357686-.5273438-.599609-.2607991.054844-.5265369.102608-.7714843.046875-.6438464-.146484-1.2290668-.543601-1.7304688-1.023438-.5014017-.479836-.9133114-1.044448-1.0683594-1.685547-.0611622-.252976-.0260138-.536328.0449219-.808594-.2186238-.145047-.4324849-.300175-.5644531-.5097651-.3519132-.5589079-.4941751-1.2493176-.50976565-1.9433594-.01562903-.6940411.08439225-1.3840457.42773435-1.9472656.136429-.223801.3661846-.394557.6113281-.5371094-.0525996-.2578193-.1019653-.5196135-.046875-.7617187.1464827-.6438464.5435996-1.229067 1.0234376-1.7304688.4798365-.5014009 1.0463995-.9191711 1.6875-1.0742188.2502051-.0605108.5274559-.0174903.796875.0507813.1456516-.2239247.304542-.4381074.5175781-.5722656.5588024-.3519044 1.2512978-.48652939 1.9453125-.50195315zm.0195312.91601565c-1.0262797.0227754-2.0616413.4682847-1.734375 1.296875l1.7714844 4.09375 1.640625-4.1484375c.365411-.8652178-.6514547-1.264963-1.6777344-1.2421875zm2.8203124 1.0039062c-.275255.0090198-.505738.142726-.638672.4492188l-1.6406248 4.1464844 4.0937498-1.7734376c1.414052-.5743022-.621669-2.8613545-1.814453-2.8222656zm-5.6816405.0214844c-1.1499338-.0510259-3.0800882 2.3575476-1.7519531 2.9335938l4.1445312 1.640625-1.7714844-4.09375c-.1325314-.32632-.3557255-.4686918-.6210937-.4804688zm7.9980465 3.2441406c-.091545.0009933-.189394.0216055-.292968.0625l-4.0937504 1.7714844 4.1484374 1.640625c1.622284.685146 1.611452-3.4895007.238281-3.4746094zm-10.2636715.1191406c-1.4057335-.077475-1.1961848 4.0999518.3574219 3.4863282l4.0917968-1.7714844-4.1464843-1.640625c-.1081523-.0456832-.2090191-.0690408-.3027344-.0742188zm4.6582031 2.21875-4.0917968 1.7734378c-1.7403717.706834 1.7421921 4.007673 2.4511718 2.373047zm1.0097656 0 1.7734378 4.0937498c.706834 1.740372 4.007673-1.744144 2.373047-2.453125zm-.5039062.2089844-1.640625 4.1484374c-.7308216 1.730432 4.066641 1.602493 3.4121094-.054687z" fill="#d0d0d0" transform="scale(.26458333)"/></svg>