<?xml version="1.0" encoding="UTF-8" standalone="no"?><svg height="16" viewBox="0 0 16 16" width="16" xmlns="http://www.w3.org/2000/svg"><sodipodi:namedview/><metadata><rdf:RDF><cc:Work><dc:format>image/svg+xml</dc:format><dc:type/><dc:title/></cc:Work></rdf:RDF></metadata><path d="m7.8634466.00000408c-.4947262-.001-.9844473.181617-1.3394721.5498385l-3.1590521 3.27600122.2201678.3641595 1.4318006.059014 1.355097-2.3735169.708798 2.8902509 1.5511176-.9931641.8522622.4562791.2883485-1.7632251 1.6633309 1.3472483.565335-.3958262-2.7684324-2.86722072c-.3743685-.3642117-.8745739-.5488362-1.369301-.5498385zm2.4758214 3.96257972-.247156 1.5084575-1.4246978-.762865-2.0965653 1.34293-.4985734-2.0323875-.6051062 1.0608135-2.3408803-.097876-.338064-.558475-2.17042781 2.251172c-1.99561299 2.50426 1.35773451 2.212136 2.79542011 2.933432.5157204.5341757-1.9759296.9292137-1.4602093 1.4638357.5157204.534177 3.1182988 1.02898 3.6348985 1.563153.5157201.534178-1.0554864 1.100946-.5397662 1.635122.5157204.534177 1.7084478.02769 1.9317945 1.260887.1591565.881236 2.1487152.379171 3.1221202-.34257.51572-.534622-.9858841-.484895-.4701639-1.019072 1.2824859-1.328982 2.4759569-.483387 2.9147359-1.815043.216753-.658031-1.887321-1.013142-1.370721-1.54732 1.48385-.8781177 6.612439-1.4505737 4.178925-3.9165207l-2.785477-2.8859318-1.167599.8190008zm-5.2286283 5.9776945c.1578376.09935 2.5443746.5900027 3.1278023.6880177.2022434.04322.059999.254699-.2187471.397265-.628713.169297-3.6784592-1.0852817-2.9090552-1.0852827zm9.3720433 1.6826217c-.509843-.01306-1.035961.235823-1.174701.731198 0 .303843 2.2102.504187 2.2102-.07053-.14756-.43271-.585637-.64915-1.035499-.660669zm-10.2186239 1.315581c-.6923941-.006485-1.5049088.506393-.9076592 1.030587.5231945.458438 1.3315921-.114463 1.5738442-.754228-.1425733-.191963-.3952482-.273812-.666185-.276359zm8.7669379.0403c-.674437.613033.0767 1.235217.741468.839151.148165-.152368-.005-.686785-.741468-.839151z" fill="#fff" shape-rendering="crispEdges" stroke-width=".029956"/></svg>