<?xml version="1.0" encoding="UTF-8" standalone="no"?><svg height="16" viewBox="0 0 4.2333332 4.2333332" width="16" xmlns="http://www.w3.org/2000/svg"><sodipodi:namedview/><metadata><rdf:RDF><cc:Work><dc:format>image/svg+xml</dc:format><dc:type/><dc:title/></cc:Work></rdf:RDF></metadata><path d="m7.328125.03320313a8.0000011 8.0000011 0 0 0 -7.29492187 7.29492187h3.30859377a4.713127 4.713127 0 0 1 3.9863281-3.9882812zm1.34375 0v3.30859377a4.713127 4.713127 0 0 1 3.988281 3.9863281h3.306641a8.0000011 8.0000011 0 0 0 -7.294922-7.29492187zm-.4414062 4.70117187-1.2089844.1132812v4.671875l1.1953125-.1640624v-1.9960938l1.5957031 2.2089844 1.25-.3769532-1.6347656-2.1210937 1.6464846-2.0097656-1.2753909-.2773438-1.5820312 2.0097657zm-2.7246094 1.1425781c-.0135307 0-.0308336.0061629-.0410156.0117188l-.4648438.453125c-.0198047.0196535-.0281853.0513261-.0136719.0742187l.5449219.8554688c-.0978444.1554028-.1685703.3253267-.2246094.5019531l-1.0117187.2011719c-.0281575.0072567-.0527344.0234023-.0527344.0507812v.6269532c0 .0264944.0256389.0560521.0527344.0625l.984375.2265624c.0523767.2047673.1328806.3998772.2402343.578125l-.5722656.8164068c-.015874.023055-.0073045.054962.0136719.074218l.4648437.439453c.0198048.017953.0559005.028186.0800782.013672l.890625-.515625c.1751206.095445.3589742.175656.5585937.226563l.2109375.941406c.0060851.027326.0260009.050781.0546875.050781h.6640625c.0280063 0 .0597052-.024774.0664063-.050781l.2402343-.941406c.2057651-.052483.4045975-.138441.5839844-.238281l.8769532.552734c.0241511.014513.0595477.006397.0800781-.013672l.4648441-.439453c.019918-.019654.02826-.051413.013672-.074219l-.3183599-.5039061-.1074219.0390625c-.0151559.0072567-.0301654-.0008593-.0390624-.0136719 0 0-.2006484-.2869666-.4648438-.6523437-.3158362.5840243-.96109.9785152-1.703125.9785152-1.0542509 0-1.9140625-.7988436-1.9140625-1.7949215 0-.7326781.4667642-1.3642088 1.1308594-1.6464844v-.4628906c-.1208731.0401424-.2347173.0794513-.3457031.1367187h-.0136719l-.890625-.5527343c-.0120945-.0072567-.0255129-.0130038-.0390625-.0117188zm-5.47265627 2.7949219a8.0000011 8.0000011 0 0 0 7.29492187 7.294922v-3.308594a4.713127 4.713127 0 0 1 -3.9882812-3.986328zm12.62499987 0a4.713127 4.713127 0 0 1 -3.986328 3.988281v3.306641a8.0000011 8.0000011 0 0 0 7.294922-7.294922z" fill="#d0d0d0" stroke-width="3.4" transform="scale(.26458333)"/></svg>