<?xml version="1.0" encoding="UTF-8" standalone="no"?><svg height="22" viewBox="0 0 22 22" width="22" xmlns="http://www.w3.org/2000/svg"><sodipodi:namedview/><metadata><rdf:RDF><cc:Work><dc:format>image/svg+xml</dc:format><dc:type/><dc:title/></cc:Work></rdf:RDF></metadata><path d="m11 0c-6.075094.0000928-10.9999073 4.9249059-11 11 .0000928 6.075094 4.9249065 10.999907 11 11 6.075094-.000093 10.999908-4.924906 11-11-.000092-6.0750937-4.924906-10.9999072-11-11zm0 9.3203125a1.7151077 1.7151077 0 0 1 1.714844 1.7148435 1.7151077 1.7151077 0 0 1 -1.714844 1.716797 1.7151077 1.7151077 0 0 1 -1.7148438-1.716797 1.7151077 1.7151077 0 0 1 1.7148438-1.7148435zm-5.5019531.0683594a1.7151077 1.7151077 0 0 1 1.7148437 1.7148441 1.7151077 1.7151077 0 0 1 -1.7148437 1.716796 1.7151077 1.7151077 0 0 1 -1.7148438-1.716796 1.7151077 1.7151077 0 0 1 1.7148438-1.7148441zm11.0039061 0a1.7151077 1.7151077 0 0 1 1.714844 1.7148441 1.7151077 1.7151077 0 0 1 -1.714844 1.716796 1.7151077 1.7151077 0 0 1 -1.714844-1.716796 1.7151077 1.7151077 0 0 1 1.714844-1.7148441z" fill="#fff" stroke-width=".172819"/></svg>