<?xml version="1.0" encoding="UTF-8" standalone="no"?>
<!-- Created with Inkscape (http://www.inkscape.org/) -->

<svg
   xmlns:dc="http://purl.org/dc/elements/1.1/"
   xmlns:cc="http://creativecommons.org/ns#"
   xmlns:rdf="http://www.w3.org/1999/02/22-rdf-syntax-ns#"
   xmlns:svg="http://www.w3.org/2000/svg"
   xmlns="http://www.w3.org/2000/svg"
   xmlns:sodipodi="http://sodipodi.sourceforge.net/DTD/sodipodi-0.dtd"
   xmlns:inkscape="http://www.inkscape.org/namespaces/inkscape"
   width="16mm"
   height="16mm"
   viewBox="0 0 16 16"
   version="1.1"
   id="svg8"
   inkscape:version="0.92+devel trunk-123-gfa70b9518d 2017-07-11 custom"
   sodipodi:docname="glyph-earth.svg">
  <defs
     id="defs2" />
  <sodipodi:namedview
     id="base"
     pagecolor="#002466"
     bordercolor="#ffffff"
     borderopacity="0.38039216"
     inkscape:pageopacity="1"
     inkscape:pageshadow="2"
     inkscape:zoom="7.1685545"
     inkscape:cx="30.670376"
     inkscape:cy="33.450638"
     inkscape:document-units="mm"
     inkscape:current-layer="svg8"
     inkscape:document-rotation="0"
     showgrid="false"
     inkscape:showpageshadow="false"
     borderlayer="true"
     inkscape:window-width="1920"
     inkscape:window-height="1051"
     inkscape:window-x="0"
     inkscape:window-y="0"
     inkscape:window-maximized="1"
     inkscape:snap-object-midpoints="true"
     inkscape:snap-center="true"
     inkscape:snap-grids="false"
     inkscape:snap-to-guides="false"
     inkscape:snap-page="true" />
  <metadata
     id="metadata5">
    <rdf:RDF>
      <cc:Work
         rdf:about="">
        <dc:format>image/svg+xml</dc:format>
        <dc:type
           rdf:resource="http://purl.org/dc/dcmitype/StillImage" />
        <dc:title></dc:title>
      </cc:Work>
    </rdf:RDF>
  </metadata>
  <path
     style="opacity:0.64099995;fill:#d0d0d0;stroke-width:0.41562387"
     d="M 8.019709,3.85e-6 A 7.9999186,7.9999186 0 0 0 5.7706888,0.32758723 c -0.010659,0.0165401 -0.018299,0.0336602 -0.015079,0.0649373 0.00494,0.0752729 0.073343,0.10516893 0.1124808,0.11190075 0.060373,0.0122295 0.1656767,-9.851e-5 0.2243793,-0.0272504 0.1093359,-0.0505559 0.1608287,-0.216278 0.2522109,-0.19597025 0.071772,0.0162798 0.1567414,0.25314245 0.1681394,0.33628038 0.011399,0.0878726 -0.00449,0.14292522 0,0.2243802 0.00976,0.137071 0.1679701,0.12463184 0.252791,0.19655009 0.024414,0.021407 0.034489,0.081383 0.055661,0.1119007 0.04084,0.055627 0.1043992,0.053801 0.1124797,0.1124801 0.016313,0.1421423 -0.1255069,0.1517223 -0.1124797,0.3084502 -0.029351,0.062135 -0.1181726,0.087264 -0.1119053,0.16872 0.00976,0.1292284 0.2015843,0.010805 0.2522098,0.1118996 0.027903,0.053944 -0.0083,0.1199196 -0.027825,0.1965503 0.063683,0.075026 0.05473,0.1681401 -0.056244,0.1681401 -0.06853,0 -0.071739,-0.094959 -0.1403101,-0.1118996 -0.039168,-0.00673 -0.090722,0.00673 -0.1397301,0 C 6.5566609,2.0978127 6.4962877,2.0807722 6.4571568,2.0774052 6.3559776,2.0671953 6.2647761,2.1088338 6.204367,2.0501537 6.3022813,1.921273 6.4155744,1.7964262 6.5412271,1.6854633 c 0.037339,-0.03431 0.1036475,-0.073441 0.084069,-0.1403101 -0.068541,-0.063055 -0.1312963,-0.010446 -0.19655,0.02725 -0.070168,0.037676 -0.1460221,0.1023819 -0.2243804,0.11248 -0.1354453,0.017615 -0.3378003,-0.016258 -0.4487609,0.05566 -0.016313,0.060339 0.1320547,0.019468 0.1124808,0.11248 -0.055481,0.00673 -0.1262642,0.037698 -0.1687206,0 -0.037429,-0.034646 -0.00337,-0.092172 -0.027836,-0.11248 -0.042433,-0.0322 -0.210431,-0.065757 -0.2806202,-0.05566 -0.086481,0.014597 -0.128911,0.094876 -0.1403102,0.1681401 0.1044329,0.049254 0.2715099,-0.06759 0.3090308,0.05624 -0.05547,0.1010894 -0.2144947,0.1429917 -0.19655,0.2800401 0.00651,0.051925 0.067834,0.1335778 0.1119053,0.14031 0.044071,0.0092 0.068406,-0.029508 0.1124796,-0.027251 0.045687,0.00337 0.058039,0.033982 0.1118941,0.027251 C 5.7776824,2.2966504 5.8061473,2.2104009 5.8959082,2.2171335 6.0035948,2.3490995 5.8135892,2.4291963 5.6993583,2.4699239 5.5688059,2.5174739 5.378549,2.5394149 5.2790079,2.5818248 5.2267919,2.6029188 5.0539689,2.7866585 5.0262181,2.6380648 5.0050019,2.5318481 5.1142032,2.5581112 5.138698,2.4699247 5.0114106,2.4454995 4.8882351,2.537731 4.7740086,2.5818255 4.6091935,2.643904 4.3365538,2.6504103 4.2974184,2.8346154 c -0.00628,0.037317 0.024493,0.1443535 0,0.1681405 -0.01959,0.020421 -0.1459256,0.010311 -0.1965511,0.027251 -0.078325,0.027488 -0.1475424,0.070494 -0.19655,0.08407 -0.035993,0.01021 -0.088995,0.020519 -0.111894,0.027252 -0.065299,0.026121 -0.065276,0.1094604 -0.1403101,0.1681401 -0.029407,0.02547 -0.1158164,0.032453 -0.1403101,0.05624 -0.042433,0.04241 -0.065276,0.1511986 -0.1403102,0.1681401 -0.047302,0.00337 -0.067834,-0.027151 -0.1119052,0 -0.00449,0.104489 0.044071,0.2304787 0,0.3362805 -0.096287,0.079727 -0.2128488,0.1541448 -0.3368601,0.22438 -0.068541,0.039045 -0.1133436,0.043343 -0.19655,0.08407 -0.058746,0.029148 -0.1291016,0.1012656 -0.1959699,0.14031 -0.1566572,0.091362 -0.3368601,0.1869586 -0.3368601,0.4203506 0,0.050556 0.019747,0.1100405 0.027836,0.1687199 0.00449,0.03431 -0.0018,0.074203 0,0.1118996 0.011399,0.08481 0.071806,0.2219415 0,0.2806204 -0.1093359,-0.045798 -0.2595384,-0.089827 -0.3362822,-0.16814 -0.021351,-0.081758 0.035903,-0.1507791 0.027836,-0.2243803 -0.00819,-0.058657 -0.091396,-0.1619873 -0.1403101,-0.16872 -0.049008,-0.00808 -0.059655,0.058496 -0.1119052,0.05624 -0.062,-0.00503 -0.1744322,-0.1057468 -0.2527905,-0.1124799 -0.1158603,-0.013575 -0.1811637,0.016942 -0.3084503,0 C 0.9752526,4.7481529 0.9687907,4.861819 0.8186606,4.85172 0.7764166,4.84803 0.7339746,4.824297 0.688207,4.808236 A 7.9999186,7.9999186 0 0 0 0.171041,6.4652846 c 0.059327,-0.012673 0.1249897,-0.027423 0.1710392,-0.042904 0.1778745,-0.055605 0.1322184,-0.2846939 0.3084503,-0.3646904 0.078332,-0.035679 0.1730047,-0.048928 0.3084502,-0.05566 0.043893,0.035959 0.090353,0.1128275 0.08407,0.1681401 -0.00485,0.042725 -0.062887,0.081631 -0.08407,0.1403103 -0.017862,0.052239 -0.00987,0.1257297 -0.02783,0.1681401 -0.024504,0.055291 -0.092912,0.088026 -0.1124799,0.14031 -0.011399,0.034332 0.011398,0.053553 0,0.08407 -0.019477,0.053596 -0.1167431,0.084997 -0.08407,0.14031 0.1746072,0.068552 0.3800128,-0.027152 0.5334102,0 0.065273,0.011534 0.2261759,0.09714 0.2243801,0.1965501 -0.00153,0.07497 -0.075992,0.1423454 -0.08407,0.2238004 -0.00978,0.1027836 -0.051763,0.2258927 -0.05624,0.3090307 -0.00653,0.1353207 0.1926743,0.3669458 0.3362807,0.3646895 0.1550203,-0.00135 0.2611037,-0.1376949 0.4487598,-0.056244 0.062011,0.02612 0.1279752,0.1158468 0.1965511,0.1124808 0.057108,-0.00337 0.1306185,-0.099586 0.1681394,-0.1681404 0.047325,-0.083115 0.058713,-0.1541396 0.1403102,-0.1965501 0.088119,-0.04544 0.1680182,-0.041659 0.2806202,-0.084069 0.050578,-0.017951 0.094627,-0.053552 0.1403101,-0.084069 0.039224,-0.024908 0.062976,-0.076058 0.1118941,-0.027253 0.065332,0.065153 -0.083295,0.069495 -0.027825,0.1397301 0.1125919,0.060396 0.171198,-0.1096501 0.2527898,-0.1119052 0.026108,-0.00168 0.1208395,0.081388 0.1681406,0.1119052 0.063593,0.042388 0.070123,0.1267354 0.1403101,0.1403101 0.04406,0.00987 0.1323307,-0.062976 0.1959699,-0.056244 0.083228,0.011534 0.1329119,0.114736 0.19655,0.1124797 0.076698,-0.00168 0.1312962,-0.098902 0.19655,-0.1124797 0.1435952,-0.027477 0.1885716,0.022608 0.2522109,0.1124797 0.07019,0.013912 0.047224,-0.061136 0.1124796,-0.027253 -0.035903,0.071548 0.02631,0.081634 0.055661,0.1403102 0.016246,0.037361 0.010434,0.067127 0.028408,0.084069 0.039168,0.037362 0.1388852,0.048054 0.195971,0.084069 0.060362,0.037653 0.071739,0.1165536 0.1403091,0.1965501 0.071795,0.081433 0.1859776,0.1335783 0.2806202,0.1403101 0.089746,0.00673 0.1771736,-0.00673 0.2522109,0 0.1680822,0.021374 0.2756062,0.1047583 0.3930999,0.195971 0.066914,0.050578 0.119142,0.079952 0.1403102,0.1403102 0.016347,0.042399 -0.016347,0.1206801 0,0.1681393 0.035903,0.1024584 0.2219962,0.1323802 0.1681405,0.3084507 0.024504,0.050915 0.053204,0.076574 0.1119053,0.1124797 0.047325,0.029171 0.08969,0.077337 0.1403101,0.084069 0.032604,0.00337 0.1109628,-0.00224 0.1403101,0 0.093023,0.00651 0.1444065,0.025727 0.2243793,0.056244 0.050578,0.017952 0.1076418,0.031875 0.1403113,0.055661 0.04066,0.027825 0.033446,0.1165233 0.084069,0.1403102 0.032638,0.016942 0.1410787,-0.00673 0.19655,0 0.088119,0.00987 0.1738514,0.081814 0.2522098,0.084069 0.047302,0.00224 0.070022,-0.00224 0.1124796,0 0.2007092,0.01628 0.3402721,0.2365325 0.5328312,0.3084509 0.060384,0.02042 0.155708,0.01032 0.19655,0.02725 0.071806,0.03087 0.1056222,0.238799 0.111894,0.33686 0.016313,0.29694 -0.2046843,0.393331 -0.3368601,0.589069 -0.027556,0.0407 -0.044935,0.138975 -0.084069,0.195971 -0.078313,0.115686 -0.1511304,0.12483 -0.1397312,0.33686 0.00157,0.05864 0.027836,0.07466 0.027836,0.13973 0,0.07837 -0.00987,0.210385 -0.027836,0.28062 -0.012925,0.05361 -0.02033,0.09151 -0.028408,0.14031 -0.00808,0.04923 0.00628,0.0979 0,0.140311 -0.00651,0.04716 -0.048166,0.102951 -0.084069,0.16814 -0.075071,0.140381 -0.1272235,0.309378 -0.2806203,0.364691 -0.091384,0.0322 -0.2105398,0.02202 -0.3084496,0.05624 -0.040795,0.01459 -0.091396,0.06028 -0.1403101,0.08407 -0.1419606,0.06684 -0.3533845,0.161562 -0.392521,0.30845 -0.035903,0.130474 0.080737,0.243926 0.056244,0.392522 -0.02594,0.04407 -0.044935,0.06188 -0.084069,0.112479 -0.034287,0.0471 -0.074959,0.09395 -0.1124796,0.13973 -0.048963,0.06038 -0.1387966,0.113413 -0.1681406,0.196549 -0.00976,0.02749 0.011399,0.03998 0,0.08407 -0.00494,0.01627 -0.041513,0.02573 -0.056244,0.05624 -0.013026,0.02749 0.011399,0.116523 0,0.140309 -0.037541,0.07497 -0.1722358,0.228425 -0.2522098,0.252212 -0.1697057,0.04748 -0.331266,-0.107856 -0.4487608,-0.08407 0.016313,0.08312 0.07276,0.111141 0.1119052,0.168139 0.02079,0.03296 -0.00314,0.07658 0.027825,0.112481 0.037339,0.04239 0.080176,0.06478 0.084653,0.111905 0.00976,0.101101 -0.058623,0.190161 -0.1124797,0.224381 -0.048951,0.02938 -0.137853,0.01368 -0.2243804,0.02725 -0.060373,0.0099 -0.2512763,0.04502 -0.2806202,0.08407 -0.04084,0.057 0.031045,0.167384 0,0.22438 -0.011781,0.02262 -0.028038,0.03595 -0.045799,0.04523 a 7.9999186,7.9999186 0 0 0 2.7586591,0.501521 7.9999186,7.9999186 0 0 0 5.668644,-2.363239 c -0.0075,-0.0028 -0.01488,-0.0035 -0.02261,-0.007 0.031,-0.107878 0.08484,-0.146966 0.140309,-0.308451 0.0375,-0.135567 0.10109,-0.327913 -0.02782,-0.3931 0.02982,-0.203918 -0.0016,-0.262969 0.02782,-0.644731 0.01306,-0.283846 -0.146594,-0.435592 -0.140309,-0.72938 -0.0017,-0.122126 0.08332,-0.239136 0.16814,-0.336861 0.179497,-0.303448 0.272548,-0.483102 0.308451,-0.757211 -0.01958,-0.05697 0.02117,-0.0667 0,-0.112479 -0.08323,-0.181232 -0.133086,-0.367372 -0.252211,-0.5044205 -0.06528,-0.075318 -0.142695,-0.1279977 -0.19655,-0.19655 -0.04407,-0.055638 -0.111905,-0.1541395 -0.111905,-0.19655 -0.0017,-0.047212 0.0148,-0.093191 0.02782,-0.1403101 0.01625,-0.060384 0.03345,-0.185346 0.05625,-0.2800402 0.0098,-0.044105 0.06432,-0.098486 0.05624,-0.1687206 -0.0082,-0.06853 -0.11002,-0.2319022 -0.196551,-0.2522099 -0.114227,-0.027152 -0.221094,0.013576 -0.36469,0 -0.125656,-0.079716 -0.128952,-0.2813001 -0.30845,-0.3084506 -0.234979,-0.034265 -0.483756,0.097903 -0.645311,0.1681406 -0.09301,0.040728 -0.19903,0.081287 -0.280619,0.084653 -0.07832,0.00505 -0.149343,-0.049513 -0.224381,-0.056244 -0.09791,-0.00987 -0.212174,0.039303 -0.30845,0.056244 -0.09302,0.015932 -0.169005,0.048929 -0.252211,0.055661 C 10.983026,8.6202547 10.848345,8.4627687 10.748804,8.384343 10.688424,8.336794 10.60934,8.316531 10.552254,8.2724377 10.491884,8.2249897 10.403006,8.2057367 10.355704,8.1599581 10.292064,8.0978791 10.278094,7.9624757 10.24381,7.8793378 10.20303,7.7816368 10.112452,7.7201382 10.01943,7.627128 9.9508998,7.558598 9.7845848,7.4346946 9.7666398,7.3465078 c -0.0098,-0.045417 0.03201,-0.091508 0.02841,-0.1403102 -0.0048,-0.071548 -0.08585,-0.1175397 -0.08407,-0.1681405 0.0017,-0.071548 0.09233,-0.1077764 0.111894,-0.1681406 0.0098,-0.03118 -0.0114,-0.073433 0,-0.1124796 0.02271,-0.083104 0.09547,-0.1314302 0.08407,-0.2522102 -0.0048,-0.048884 -0.02605,-0.078265 -0.02782,-0.1403102 -0.0017,-0.042399 0.03231,-0.073435 0.02782,-0.1124799 -0.0049,-0.070202 -0.103824,-0.088032 -0.111894,-0.1681402 -0.0098,-0.083115 0.05965,-0.157516 0.111894,-0.2522102 0.02271,-0.042388 0.0629,-0.078596 0.08407,-0.1124802 0.04569,-0.06853 0.1044102,-0.1274179 0.1403112,-0.1959703 0.02444,-0.050545 0.0049,-0.1310216 0.02784,-0.1687198 0.031,-0.048895 0.111636,-0.076002 0.168719,-0.1397302 0.04578,-0.052261 0.07923,-0.088694 0.111894,-0.1124802 0.0408,-0.029172 0.09624,-0.063763 0.140311,-0.08407 0.151754,-0.070224 0.235029,-0.1638361 0.30845,-0.3090299 -0.0213,-0.1306086 0.03021,-0.1609943 0.08407,-0.2522105 0.05059,-0.08481 0.0839,-0.2034047 0.16872,-0.2522102 0.102806,-0.058657 0.236644,-0.032825 0.30845,-0.1403101 0.03591,-0.055302 0.05624,-0.1673842 0.05624,-0.2243803 0,-0.080064 -0.06851,-0.1858713 -0.14031,-0.1959702 -0.07506,-0.013575 -0.181925,0.080109 -0.224381,0 -0.01309,-0.026132 0.0063,-0.081962 0,-0.1124799 -0.0096,-0.053933 -0.08229,-0.1290961 -0.08407,-0.1681402 -0.0049,-0.077012 0.08911,-0.1367732 0.111905,-0.2249601 0.03105,-0.1207687 0.0081,-0.1975264 0,-0.3362806 0.114236,-0.1811975 0.36397,-0.101012 0.616901,-0.08407 0.03761,0.00337 0.07164,0 0.112479,0 0.150123,0.00305 0.285657,0.018129 0.33628,-0.1124799 0.01958,-0.048851 0.01303,-0.2064341 0,-0.2522102 -0.01305,-0.055298 -0.08911,-0.218903 -0.13973,-0.2527864 -0.08159,-0.050578 -0.234933,-0.019002 -0.280619,-0.1118997 0.03753,-0.1614513 0.228582,-0.017195 0.33628,-0.05624 0.0553,-0.019735 0.03506,-0.098325 0.08407,-0.1118996 0.03426,-0.01223 0.121418,0.02667 0.16872,0.02667 0.03917,0 0.130622,-0.084748 0.168141,-0.1118996 0.05224,-0.03431 0.06622,-0.081962 0.111905,-0.11248 0.02178,-0.013631 0.06307,-0.026796 0.09857,-0.039426 A 7.9999186,7.9999186 0 0 0 12.622711,1.4628168 c -0.02903,0.028457 -0.05948,0.054464 -0.05103,0.1043633 -0.112601,0.087515 -0.265994,0.060865 -0.448761,0.08465 -0.08323,0.010098 -0.164069,0.068552 -0.25221,0 -0.01966,-0.053944 0.04758,-0.060196 0.05566,-0.11248 -0.0065,-0.048918 -0.04094,-0.043343 -0.05566,-0.08407 0.02441,-0.06347 0.06194,-0.045616 0.05566,-0.1403101 0.04569,-0.049243 0.155693,-0.04561 0.168719,-0.11248 0.0099,-0.045754 -0.03677,-0.084749 -0.08407,-0.1118997 -0.02756,-0.014586 -0.0553,-0.039298 -0.08465,-0.05624 -0.01416,-0.00783 -0.02003,-0.017514 -0.02609,-0.02725 A 7.9999186,7.9999186 0 0 0 8.019709,3.85e-6 Z M 4.6696609,0.74561856 A 7.9999186,7.9999186 0 0 0 3.6213937,1.3225134 c -0.013172,0.02561 -0.025514,0.051809 -0.025514,0.077113 0,0.056974 0.1077315,0.1363644 0.1681406,0.1397303 0.083216,0.00679 0.1906719,-0.056592 0.2249593,-0.1397303 0.04066,-0.099732 0.00898,-0.2371119 0.084069,-0.3090301 0.2865207,0.00738 0.5039426,-0.12059144 0.5966083,-0.3449777 z M 11.562249,0.9786957 v 5.7883e-4 c 0.10118,-0.009492 0.218097,0.0521177 0.224381,0.11247997 0.0082,0.060339 -0.06117,0.043347 -0.08407,0.1119008 -0.02085,0.062079 -6.53e-4,0.1524567 -0.02841,0.1965501 -0.0245,0.033884 -0.06621,0.013675 -0.111894,0.02725 -0.102806,0.029397 -0.309894,0.1626047 -0.3931,0.02725 0.01302,-0.073242 0.06016,-0.079948 0.08465,-0.1403102 0.0017,-0.045754 -0.06431,-0.061879 -0.05624,-0.1124799 0.0098,-0.060362 0.101269,-0.060285 0.168139,-0.08407 0.0473,-0.017929 0.05046,-0.074202 0.11248,-0.1119007 0.02639,-0.0135758 0.05401,-0.0205186 0.08407,-0.0272504 z M 2.6908244,2.046096 A 7.9999186,7.9999186 0 0 0 2.4415138,2.2664178 c 0.05869,0.00261 0.2141054,-0.01937 0.2290186,-0.025511 0.096186,-0.041266 0.068552,-0.1257342 0.020297,-0.1948104 z m 0.2040873,0.2510509 v 5.938e-4 c -0.065299,-0.00471 -0.1158164,0.054132 -0.1403101,0.08465 -0.00337,0.049232 0.029609,0.063095 0.027836,0.1118997 -0.079997,0.056996 -0.022114,0.2176473 0.056244,0.22438 0.083228,0.00679 0.1134131,-0.2040723 0.2243804,-0.22438 0.039134,-0.00808 0.05804,0.062973 0.111894,0.05624 0.065366,-0.050545 0.04075,-0.1796086 -0.027825,-0.19655 -0.026153,-0.0092 -0.096243,0.030616 -0.1403102,0.027251 -0.045687,-0.00337 -0.07276,-0.081814 -0.1119052,-0.08407 z m -0.3455565,0.052182 c -0.00314,0.00125 -0.00774,0.00348 -0.01913,0.00348 v 0.00116 c -0.055807,-0.00273 -0.1353309,0.00256 -0.1872736,0.017975 a 7.9999186,7.9999186 0 0 0 -0.077113,0.08291 c -0.012319,0.03411 -0.025155,0.070729 -0.044643,0.094506 -0.037519,0.045765 -0.079233,0.071752 -0.111894,0.11248 C 2.0800406,2.6991569 1.8963114,2.9431371 2.0252326,2.9702904 2.0807136,2.9818234 2.2098033,2.8456637 2.2212025,2.8015701 2.2587435,2.6512825 2.3303028,2.5633551 2.446163,2.49312 2.513032,2.452415 2.546669,2.439314 2.5580683,2.35281 2.5540283,2.34776 2.5524583,2.34805 2.5494283,2.34933 Z M 13.581671,2.5754483 c -0.05228,0.00303 -0.09786,0.060283 -0.14031,0.08407 -0.03913,0.019634 -0.07276,0.05692 -0.111905,0.08407 -0.04733,0.03052 -0.09624,0.024995 -0.140311,0.027251 -0.102794,0.00673 -0.192478,-0.047558 -0.28062,-0.027251 -0.02936,0.0064 -0.02034,0.022356 -0.05624,0.05624 -0.0018,0.047549 0.0063,0.060196 0,0.1124799 -0.02611,0.04544 -0.138885,0.053553 -0.195971,0.08407 -0.08485,0.044105 -0.127975,0.1279978 -0.19655,0.1965503 -0.04407,0.044071 -0.106195,0.07768 -0.11248,0.1118997 -0.0049,0.02612 0.03469,0.076464 0.02841,0.1124799 -0.0082,0.039022 -0.0914,0.10609 -0.14031,0.14031 -0.02926,0.019411 -0.05302,0.038719 -0.08407,0.05566 -0.0653,0.037676 -0.08646,0.1023808 -0.14031,0.1124801 -0.143598,0.02613 -0.422712,-0.039166 -0.42093,0.11248 0.0017,0.098711 0.141175,0.1152664 0.22438,0.1118996 0.115857,-0.00337 0.189152,0.016942 0.25279,0 0.04406,-0.01122 0.122454,-0.063763 0.168139,-0.08407 0.02944,-0.013578 0.06127,-0.017153 0.08407,-0.027252 0.04901,-0.024458 0.07496,-0.067128 0.112481,-0.08407 0.07506,-0.034332 0.228476,-0.080703 0.30845,-0.08407 0.110974,-0.00673 0.19431,0.010098 0.336281,0 0.05058,-0.00337 0.08646,-0.023884 0.14031,-0.027251 0.08975,-0.0092 0.236644,0.029507 0.30845,0.027251 0.05058,0 0.10993,-0.027251 0.16872,-0.027251 0.06691,0.00169 0.128331,0.04166 0.13973,0.08407 0.0081,0.023089 -0.0063,0.076464 0,0.11248 0.0082,0.058657 0.05983,0.073435 0.05625,0.1124799 -0.0033,0.050556 -0.158261,0.1356084 -0.14031,0.1959705 0.01142,0.037687 0.124648,0.085329 0.168719,0.1124799 0.04569,0.026806 0.140501,0.020519 0.195971,0.027252 0.04569,0.00673 0.06841,-0.00337 0.11248,0 0.07017,0.00819 0.180309,0.053553 0.22438,0.08407 0.0767,0.053944 0.05056,0.1660324 0.14031,0.19655 0.03916,0.013575 0.119223,-0.010098 0.16814,0 0.119117,0.026121 0.222014,0.1219991 0.308451,0.1118996 0.13697,-0.01628 0.06772,-0.1325841 0.08407,-0.2238004 0.003,-0.018197 0.0086,-0.031396 0.01565,-0.043484 A 7.9999186,7.9999186 0 0 0 14.611383,3.4822444 c -0.01931,0.030927 -0.04162,0.054833 -0.07596,0.048702 -0.0071,-0.04284 0.01764,-0.078959 0.02377,-0.1217569 A 7.9999186,7.9999186 0 0 0 14.363231,3.1349479 c -0.03965,-0.021581 -0.07829,-0.039249 -0.108415,-0.052761 -0.05058,-0.022775 -0.09463,-0.060284 -0.140311,-0.08407 -0.07997,-0.044105 -0.231702,-0.1328226 -0.28062,-0.1965503 -0.05875,-0.078022 -0.1233,-0.2311128 -0.25221,-0.2243801 z M 3.54892,2.6548804 c -0.020902,0.00211 -0.04452,0.00637 -0.06494,0.00637 -0.04084,0 -0.074959,-0.00226 -0.1124808,0 -0.02612,0.00226 -0.062426,-0.00337 -0.084069,0 -0.021542,0.00337 -0.05446,0.00694 -0.056244,0.027251 0.084855,0.040053 0.3385677,0.080347 0.3646905,-0.027251 -0.00819,-0.00848 -0.026063,-0.00848 -0.046966,-0.00637 z m 10.072757,0.1913319 c 0.0024,-0.00214 0.0056,-2.962e-4 0.01624,0.011596 0.0099,0.06853 0.0091,0.1165235 -0.02841,0.1403104 -0.07997,-0.014585 -0.05385,-0.1233688 0,-0.1403104 0.0081,-0.00337 0.0099,-0.00946 0.01217,-0.011596 z m -10.6015288,0.00754 c -0.013901,0.00128 -0.027286,0.00406 -0.041165,0.00406 v 0.00175 c -0.083228,0 -0.2088131,0.020519 -0.2806202,0.027251 -0.05547,0.00819 -0.1255742,-7.42e-4 -0.1124808,0.08407 0.011422,0.067544 0.1066993,0.047558 0.1687206,0.027252 0.1305513,-0.040705 0.2334123,-0.076582 0.3084496,-0.1403104 -0.01463,-0.00504 -0.029003,-0.00533 -0.042904,-0.00406 z M 13.581671,3.0821874 c 0.07837,-0.021373 0.143524,0.054181 0.11248,0.2238003 -0.02611,0.067544 -0.144311,0.1283396 -0.19655,0.027252 0.01795,-0.079727 0.0018,-0.1325844 0,-0.2238003 0.02756,-0.029389 0.05795,-0.020519 0.08407,-0.027252 z m 0.729381,0.4481804 c 0.07179,0.00337 0.109347,0 0.168139,0 -0.02279,0.06209 -0.0073,0.160535 -0.05624,0.1965502 C 14.287504,3.702493 14.174907,3.684668 14.1145,3.586608 14.15692,3.554409 14.21083,3.527581 14.282641,3.530948 Z M 0.6453123,4.8088135 C 0.6086143,4.8922895 0.5749273,4.9773684 0.540949,5.0621835 0.5743,4.9771415 0.609092,4.8926731 0.6453123,4.8088135 Z m -0.292216,0.7682268 c -0.023208,0.071646 -0.043704,0.1443282 -0.064937,0.2168425 0.02063,-0.072581 0.042278,-0.144869 0.064937,-0.2168425 z M 0.084072,7.0415986 A 7.9999186,7.9999186 0 0 0 0.019715,7.9999984 7.9999186,7.9999186 0 0 0 3.681693,14.712271 c 0.00696,-0.05106 0.02015,-0.114771 0.026086,-0.159443 0.00976,-0.08957 -0.011478,-0.261912 -0.027825,-0.336861 -0.019578,-0.09465 -0.128912,-0.177848 -0.1403101,-0.280619 -0.00494,-0.03733 0.059846,-0.09261 0.056244,-0.139731 -0.00325,-0.04408 -0.051768,-0.06188 -0.056244,-0.11248 -0.00359,-0.04715 -0.00449,-0.112826 0,-0.16814 0.00808,-0.102795 -0.0018,-0.207941 0,-0.30903 0.0018,-0.02949 0,-0.08139 0,-0.111905 0,-0.08482 -0.023359,-0.139559 -0.027836,-0.22438 -0.00628,-0.155101 0.024493,-0.27743 0,-0.42093 -0.019477,-0.109235 -0.044935,-0.267728 -0.084069,-0.33628 -0.044049,-0.07666 -0.2219234,-0.175575 -0.3084508,-0.22438 -0.057108,-0.03254 -0.1066992,-0.05355 -0.1687195,-0.08407 -0.1321781,-0.06513 -0.4178887,-0.203977 -0.4765901,-0.33628 -0.016347,-0.03902 0.01794,-0.12631 0,-0.16872 -0.035904,-0.08481 -0.142695,-0.143689 -0.1965506,-0.223797 -0.1011568,-0.155 -0.1494082,-0.346916 -0.2522098,-0.505001 -0.052216,-0.08142 -0.1110525,-0.160653 -0.1681406,-0.224381 -0.034276,-0.03733 -0.1272829,-0.08332 -0.1403101,-0.140309 -0.017862,-0.07668 -0.092147,-0.195214 -0.084069,-0.2522102 0.011422,-0.078403 0.1681405,-0.09622 0.1681405,-0.1681406 0,-0.060328 -0.067722,-0.1175397 -0.084069,-0.1681394 -0.040862,-0.1258637 0.035061,-0.2045755 0.084069,-0.3090308 0.014619,-0.03431 0.011478,-0.088108 0.027825,-0.1119052 0.02944,-0.044082 0.073343,-0.063672 0.1124797,-0.1124797 0.022709,-0.02612 0.05473,-0.073433 0.084069,-0.1124808 0.062011,-0.081758 0.1704305,-0.1216025 0.19655,-0.1965501 0.021172,-0.060351 0.024493,-0.3476703 0,-0.4487597 C 2.2071325,8.2671925 2.1582815,8.21301 2.1371095,8.1576969 2.0995685,8.0582899 2.0701395,7.9310613 1.96897,7.9333176 c -0.063683,0 -0.099463,0.068384 -0.1403101,0.1124797 -0.00965,0.058645 -0.023662,0.1511989 -0.084069,0.1681396 -0.093022,0.027814 -0.1166803,-0.1342561 -0.2243804,-0.1681396 -0.042456,-0.013576 -0.084151,0.010098 -0.1118996,0 C 1.3299875,8.0098383 1.2949674,7.8950238 1.211761,7.8492462 1.143212,7.8115592 1.0576664,7.794337 1.0152109,7.7373411 c -0.016335,-0.039011 0.00449,-0.08803 0,-0.1403091 C 0.9254523,7.5447819 0.8674433,7.3621882 0.7630003,7.3164118 0.6944693,7.2842112 0.5689074,7.2912685 0.4823801,7.2607509 0.4416302,7.2478481 0.4129347,7.2112384 0.3704805,7.2045066 0.3182865,7.1942966 0.2710112,7.1975503 0.2301704,7.1772539 0.1743008,7.1494626 0.1279803,7.0961354 0.0840624,7.041582 Z M 0.011018,7.1801697 C 0.007068,7.2129757 0.003658,7.2459397 0,7.2787347 0.00347,7.2458607 0.00715,7.2129987 0.011018,7.1801697 Z M 3.1192922,7.794172 c -0.058702,0.027814 -0.060407,0.1192126 0,0.1124797 0.063638,-0.00987 0.078358,-0.1484949 0,-0.1124797 z m 0.5334104,7.020723 c -1.5335539,0.73593 -3.0671087,1.47186 0,0 z"
     id="path1391"
     inkscape:connector-curvature="0" />
</svg>
