<?xml version="1.0" encoding="UTF-8" standalone="no"?><svg height="16" viewBox="0 0 4.2333332 4.2333332" width="16" xmlns="http://www.w3.org/2000/svg"><sodipodi:namedview/><metadata><rdf:RDF><cc:Work><dc:format>image/svg+xml</dc:format><dc:type/><dc:title/></cc:Work></rdf:RDF></metadata><path d="m2.3321917 2.8244269c-.023497.000782-.046604.00568-.069151.014.00188.00646.0044.014896.00594.020576.014603.053825.024763.1023169.036485.1455149.015712.057915.021704.092034.036273.1457269.017181.063329.034429.1068586.060879.1677875.024779.057084.039207.094942.060666.1344845.0246.045333.023117.1187274.036485.1679997.01519.05598.036669.1121049.048788.1567572.01536.056622.036273.07436.036273.1457269 0 .083639-.015756.093493-.097151.056-.055837-.025722-.077249-.1594901-.2430904-.1800904-.3414263-.046189-.5575425.1563556-.562332.4344232.2175515-.1155066.5489114-.2160569.720362-.2095752.069742 0 .1199472.0047.1580299.022273.028805.013273-.037971.1873026-.00955.1873026h.2172117s.00828-.2144149.00445-.23206c-.011948-.055045 0-.1228756 0-.179242 0-.046883.012303-.1066547.012303-.1679996 0-.048129.014084-.088163.052394-.1234543.014324-.013197.024331-.029813.036485-.044758.047882-.058822-.162266.026695-.2186965.078697 0 0-.012303-.021189-.012303-.089515 0-.058407-.033951-.1140985-.048576-.1679996-.016198-.05972-.019364-.1049256-.03648-.1679996-.022491-.082901-.041712-.1541345-.060666-.2239995-.00511-.018843-.012042-.037846-.019091-.057485-.048763-.02069-.09803-.034693-.1459391-.033091z" fill="#d0d0d0" fill-rule="evenodd" opacity=".3"/><path d="m2.4096226-.0000005c-.1650536.035708-.2276155.3258538-.4083324.3234841-.218744-.00175-.4920506-.00899-.7392407-.099909-.2293722-.00518-.28074952.3708034-.50718052.3457568-.1747349.022224-.5986187.2189551-.6751804.5222412-.055048.1870952-.025669.396686.1003331.5498169.1548784.2346157.3516474.4494106.592029.599241.1762944.085621.37815322.0859.56254412.1461512.019333.014427.049344.045981.077212.075303-.00246-.00371-.0009893-.00238-.00382-.00658-.1508694-.1540332-.169466-.3948946-.1450916-.5958469.098671-.026603.021047-.1506256-.01506-.2318475v-.00106c.1690015.1360656.3878869.2412038.6140895.239483.2138383-.0093.4296603-.196168.6403924-.079333.1693251.057776.3817718.2279297.1904845.3894536-.1344105.074167-.2781754.1375092-.3726961.26006-.1436703.1152612-.3253008.1754255-.4929686.2511509-.1653076.09109-.3138882-.084335-.3667567-.1622722-.0949.088073-.2799584.1474624-.177545.3029083.061309.2938558.3685716.6308477.6200288.644847.2513703-.019258.1226001-.3369654.2066056-.4857564.1679545-.309191.4403796-.1082523.6200288.028848.1891479.1238866.2736495-.2333916.4505445-.079333.1209814-.05452.2727888-.2535437.4176656-.3476659.1122898-.1570162-.0585231-.4008603.184123-.4664528.1572807-.1184249.1738233-.3372411.3113932-.4740898.1472252-.1535306.114829-.4852318-.1539997-.4558475-.1752984-.0015747-.5078411.283048-.5419683-.0689391-.0925637-.2798246-.160123-.5963909-.4106657-.7852673-.160085-.1736596-.4287192-.3328233-.5769684-.3385446zm-.081666.1756359c-.095761.09538-.092781.2806621-.2541206.2814842.144359.025231.1403903.1106933-.00615.077424-.1735054-.019772-.4171621-.050644-.5095139.1383027-.1189886.1612025-.087118.3652474.019727.5196957.0226.2350534.297506.063108.4499082.094394.190879-.067627.4077024-.2293293.3580597-.4598777-.030352-.164338.2206075-.1112842.1016058-.2742722-.1204655-.065369-.3011334-.3305452-.047515-.3306962.2602847.052154.367857.3207321.5290291.4999686.1259447.173766.2062943.3788094.2123328.5945743.027718.1533808.1165965.3540541-.038394.4698475-.161398.090619.1655296.042434.1332117-.088454.0259809-.1515572.2499298-.2980558.3559388-.2560297-.0970162.073313-.3354027.3268366-.1003331.3695143.070804.0069.1845365.025385.040091.013152-.2017811-.070432-.3822375.065244-.4827869.2305749-.0909693.048961.0178263-.2196563-.0721211-.2749084.0800581-.2226513-.0613775-.4404523-.2649406-.5332722-.1825457-.0419425-.2427368-.3448138-.2787266-.4161809-.0303054.2302454-.1768815.4168252-.4110899.4740898.1621094.00463.3151699.090725.4834231.077.09287.040534.3730593-.038376.3099083.1092421-.2016842.0296895-.3952834-.072127-.5977561-.064909-.2161397-.0423385-.4380437-.0528548-.655453-.0485757-.1405772-.1151417-.1618303-.3348236-.1798784-.5086654-.023196-.1585288.1632699-.2843607.2006662-.3646356-.131211-.1119498-.3577511.00317-.4278475.1414845-.071843.1480059-.1622394.2897282-.1830602.4556353-.05434602.1306246-.02663902.301989.1459391.2882721-.045778.1815215-.25998822-.1298149-.29802962-.2237874-.029485-.2046079.138719-.3659915.22336312-.5353926.1342107-.1193741.2952901-.2533879.4817261-.2543328.1226899-.041404.1875436.1049098.3005751.038606.2164763.063083.3326175-.023458.3979385-.1836966.018197-.021887.037381-.043881.0642729-.0555756zm-1.41017852.4197869c-.093018.2322957-.2126692.5287098-.039454.7532407.1104101.1411666.30436102.2480144.25942362.4575444-.00763.1324759-.015054.3453532-.16375722.1856056-.1672754-.0784049-.2402517-.2568365-.3985757-.3489385-.1297007-.0856031-.3464596-.3067075-.2609085-.4087567.080876.181701.228454.3859244.444605.39709.27560362-.023975-.07923-.2723514-.096515-.4204233-.1088591-.1938019-.067837-.474416.1427572-.5805744.034996-.018146.073213-.030338.1124246-.0347878zm1.11320962.1022422c.1230031.00657.2850684.1422931.2691811.1724541-.1244619-.116099-.088365-.00911-.074879.086545.011486.030876.012314.063236-.00573.093121.01289-.020013.011034-.055476.00573-.093121-.037385-.1004991-.1906023-.1848076-.1983329-.1128482.095978.041574.1440773.2038356.04306.2526358.1120794-.1054406-.045792-.2976155-.1425452-.1811511.1800291.1597665-.2760592.1018081-.1107269-.07106.03461-.057755.1004025-.1186963.1646056-.1408481.015342-.00502.032064-.00666.049636-.00573z" fill="#d0d0d0" fill-rule="evenodd" opacity=".7"/></svg>