<?xml version="1.0" encoding="UTF-8" standalone="no"?><svg height="22" viewBox="0 0 22 22" width="22" xmlns="http://www.w3.org/2000/svg"><sodipodi:namedview/><metadata><rdf:RDF><cc:Work><dc:format>image/svg+xml</dc:format><dc:type/><dc:title/></cc:Work></rdf:RDF></metadata><path d="m19.694143 2.3445397c-3.133273-3.12712099-8.254118-3.12551849-11.3873916.0016026-2.7098814 2.7045605-3.0724324 6.8898374-1.094911 9.9950767l-6.70110964 6.687951a1.743695 1.7402713 0 0 0  .0000001 2.461116 1.743695 1.7402713 0 0 0 2.46595704 0l6.704321-6.691157c2.9532501 1.858416 6.8633271 1.562509 9.5716381-.797939a1.3415613 1.3389272 0 0 0  .43989-.291619 1.3415613 1.3389272 0 0 0  .295398-.442233 1.3415613 1.3389272 0 0 0  .0016-.0049c2.748718-3.148642 2.705982-7.9224217-.295409-10.9179191zm-1.897632 1.8939051c2.107922 2.1037824 2.107922 5.4750436 0 7.5788252-2.10792 2.103783-5.485814 2.103782-7.593734 0-2.107921-2.1037814-2.1079208-5.475043 0-7.5788249 2.107921-2.103782 5.485814-2.103782 7.593734-.0000003z" fill="#fff"/></svg>