<?xml version="1.0" encoding="UTF-8" standalone="no"?>
<svg height="22" viewBox="0 0 22 22" width="22" xmlns="http://www.w3.org/2000/svg">
	<sodipodi:namedview/>
	<metadata>
		<rdf:RDF>
			<cc:Work>
				<dc:format>image/svg+xml			</dc:format>
			<dc:type/>
			<dc:title/>
		</cc:Work>
	</rdf:RDF>
</metadata>
<path d="M 19.694143 2.3445397 C 16.56087 -.78258129 11.440025 -.78097879 8.3067514 2.3461423 C 5.59687 5.0507028 5.234319 9.2359797 7.2118404 12.341219 L .51073076 19.02917 a 1.743695 1.7402713 0 0 0 .0000001 2.461116 a 1.743695 1.7402713 0 0 0 2.46595704 0 l 6.704321 -6.691157 c 2.9532501 1.858416 6.8633271 1.562509 9.5716381 -.797939 a 1.3415613 1.3389272 0 0 0 .43989 -.291619 a 1.3415613 1.3389272 0 0 0 .295398 -.442233 a 1.3415613 1.3389272 0 0 0 .0016 -.0049 C 22.738253 10.113796 22.695517 5.3400163 19.694126 2.3445189 Z m -1.897632 1.8939051 c 2.107922 2.1037824 2.107922 5.4750436 0 7.5788252 c -2.10792 2.103783 -5.485814 2.103782 -7.593734 0 c -2.107921 -2.1037814 -2.1079208 -5.475043 0 -7.5788249 c 2.107921 -2.103782 5.485814 -2.103782 7.593734 -.0000003 z" fill="#fff"/>
</svg>
