<?xml version="1.0" encoding="UTF-8" standalone="no"?><svg height="22" viewBox="0 0 5.8208332 5.8208335" width="22" xmlns="http://www.w3.org/2000/svg"><sodipodi:namedview/><metadata><rdf:RDF><cc:Work><dc:format>image/svg+xml</dc:format><dc:type/><dc:title/></cc:Work></rdf:RDF></metadata><path d="m11 0c-6.0751322 0-11 4.9248678-11 11 0 6.075132 4.9248678 11 11 11 6.075132 0 11-4.924868 11-11 0-6.0751322-4.924868-11-11-11zm-4.0761719 3.5664062c.638508-.00039 1.1562124 1.3244785 1.15625 2.9589844-.0000376 1.6345059-.517742 2.9593744-1.15625 2.9589844-.638508.00039-1.1562124-1.3244785-1.15625-2.9589844.0000376-1.6345059.517742-2.9593744 1.15625-2.9589844zm8.1523439 0c .638508-.00039 1.156212 1.3244785 1.15625 2.9589844-.000038 1.6345059-.517742 2.9593744-1.15625 2.9589844-.638508.00039-1.156212-1.3244785-1.15625-2.9589844.000038-1.6345059.517742-2.9593744 1.15625-2.9589844zm-10.9746095 10.4374998s1.0523913 1.296034 6.8791045 1.299003c5.826713.003 6.917771-1.299003 6.917771-1.299003-.000094 2.84432-3.088501 5.150132-6.898438 5.150391-3.809937-.00026-6.8983433-2.306072-6.8984375-5.150391z" fill="#d0d0d0" stroke-linecap="round" stroke-linejoin="round" stroke-width="5.152348" transform="scale(.26458333)"/></svg>