<?xml version="1.0" encoding="UTF-8" standalone="no"?><svg height="22" viewBox="0 0 22 22" width="22" xmlns="http://www.w3.org/2000/svg"><sodipodi:namedview/><metadata><rdf:RDF><cc:Work><dc:format>image/svg+xml</dc:format><dc:type/><dc:title/></cc:Work></rdf:RDF></metadata><path d="m4.2111488.99656567c-2.3257487.000013-4.2111368 1.88540133-4.211149 4.21114953.002 1.5988925.9093844 3.058712 2.3421808 3.7683277h-2.3404448v10.6837301h15.9159752v-2.168525l6.082289 3.512186v-13.8225564l-6.082289 3.5100154v-1.7148501h-1.406611c1.429422-.7120484 2.333095-2.171374 2.333498-3.7683277-.000012-2.3257486-1.885401-4.21113708-4.21115-4.21114953-2.325749.000013-4.2111368 1.88540133-4.211149 4.21114953.002 1.5988925.9093842 3.058712 2.342181 3.7683277h-4.6756796c1.4294222-.7120484 2.3330951-2.171374 2.3334986-3.7683277-.0000123-2.3257486-1.8854014-4.21113708-4.2111502-4.21114953z" fill="#d0d0d0" stroke-linecap="square" stroke-width="1.222536"/></svg>