<?xml version="1.0" encoding="UTF-8" standalone="no"?><svg height="16" viewBox="0 0 4.2333333 4.2333333" width="16" xmlns="http://www.w3.org/2000/svg"><sodipodi:namedview/><metadata><rdf:RDF><cc:Work><dc:format>image/svg+xml</dc:format><dc:type/><dc:title/></cc:Work></rdf:RDF></metadata><path d="m .06591059.96354799c-.0366995 0-.0659104.029838-.0659104.0665381v.2466933c.0946092.00239.17080289.079305.17073938.1745057.00006361.095202-.0761301.1721107-.17073938.1745057v1.281801c0 .0367.029211.066538.0659104.066538h4.10151151c.0367 0 .065911-.029838.065911-.066538v-1.27803469c-.094128-.00271-.1698359-.079158-.170112-.1738779-.0002944-.092048.070763-.1685983.1625789-.1751335.00251-.0000856.00502-.0000226.00753 0v-.2504596c0-.0367-.029211-.0665381-.065911-.0665381zm.48648173.59444931h.57498998v.8599741h-.57498998zm.85118608 0h .57499v.8599741h-.57499zm.851186 0h .57499v.8599741h-.57499zm.8511861 0h .5749902v.8599741h-.5749902zm-2.72618074 1.5071517v.2046363h3.47379334v-.2046363z" fill="#d0d0d0" stroke-linejoin="round" stroke-width=".257113"/></svg>