<?xml version="1.0" encoding="UTF-8" standalone="no"?><svg height="16" viewBox="0 0 4.2333332 4.2333332" width="16" xmlns="http://www.w3.org/2000/svg"><sodipodi:namedview/><metadata><rdf:RDF><cc:Work><dc:format>image/svg+xml</dc:format><dc:type/><dc:title/></cc:Work></rdf:RDF></metadata><g fill="#d0d0d0" stroke-linecap="square" stroke-width=".079375"><path d="m2.2939185-.00000009c-.061301.00000056-.1110668.0497532-.1110668.11104111v.73702741c0 .0612862.049765.11039216.1110668.11039216h.7371962c.061301 0 .1104175-.0491033.1104175-.11039216v-.73702741c0-.0612866-.049115-.11104111-.1104175-.11104111zm0 1.09157968c-.061301.0000005-.1110668.049103-.1110668.1103922v.7376768c0 .061286.049765.1103921.1110668.1103921h.7371962c.061301 0 .1104175-.049103.1104175-.1103921v-.73767739c0-.061286-.049115-.1103921-.1104175-.1103921zm1.0911804 0c-.061301.0000005-.1104175.049103-.1104175.1103922v.7376768c0 .061286.049115.1103921.1104175.1103921h.7378458c.061301 0 .1104175-.049103.1104175-.1103921v-.73767739c0-.061286-.049115-.1103921-.1104175-.1103921zm0 1.0915796c-.061301.0000004-.1104175.049103-.1104175.1103922v.7370272c0 .061286.049115.1110415.1104175.1110415h.7378458c.061301 0 .1104175-.049754.1104175-.1110415v-.73702739c0-.061286-.049115-.1103921-.1104175-.1103921z"/><path d="m1.2019064.00013413c-.061302 0-.1104175.0491041-.1104175.11039176v.73702721c0 .0612875.049115.11104151.1104175.11104151h.7371964c.061302 0 .1104161-.049754.1104161-.11104151v-.73702726c0-.0612875-.049115-.11039176-.1104161-.11039176zm-.0006486 1.09937187c-.061302 0-.1104175.049754-.1104175.1110415v.7370273c0 .061288.049115.1103922.1104175.1103922h.7378459c.061302 0 .1104175-.049103.1104175-.1103922v-.7370277c0-.061288-.049115-.1110415-.1104175-.1110415zm.0006486 1.0837871c-.061302 0-.1104175.049105-.1104175.1103921v.737027c0 .061288.049115.1110415.1104175.1110415h.7371964c.061302 0 .1104161-.049754.1104161-.1110415v-.7370274c0-.061288-.049115-.1103921-.1104161-.1103921zm1.0918298 1.0915793c-.061302 0-.1110668.049103-.1110668.1103922v.7370272c0 .061287.049765.1110415.1110668.1110415h.7371965c.061302 0 .1104175-.049754.1104175-.1110415v-.7370274c0-.061286-.049115-.1103921-.1104175-.1103921z" opacity=".170213"/><path d="m .11038813 1.0920569c-.0613016.0000006-.11041711.049105-.11041711.1103922v.7370271c0 .061286.04911531.1110415.11041711.1110415h.73719635c.061302 0 .1110668-.049754.1110668-.1110415v-.7370275c0-.061286-.049765-.1103922-.1110668-.1103922zm0 1.0909302c-.0613016.0000005-.11041711.049754-.11041711.1110415v.7370272c0 .061286.04911531.1103921.11041711.1103921h.73719635c.061302 0 .1110668-.049105.1110668-.1103921v-.7370276c0-.061286-.049765-.1110415-.1110668-.1110415zm0 1.0915794c-.0613016.0000006-.11041711.049103-.11041711.1103922v.7376767c0 .061286.04911531.1103921.11041711.1103921h.73719635c.061302 0 .1110668-.049103.1110668-.1103921v-.737677c0-.061286-.049765-.1103921-.1110668-.1103921zm1.09182997 0c-.061302.0000006-.1104175.049103-.1104175.1103922v.7376767c0 .061286.049115.1103921.1104175.1103921h.7371964c.061302 0 .1104175-.049103.1104175-.1103921v-.737677c0-.061286-.049115-.1103921-.1104175-.1103921z" opacity=".748936"/></g></svg>