<?xml version="1.0" encoding="UTF-8" standalone="no"?><svg height="16" viewBox="0 0 4.2333332 4.2333332" width="16" xmlns="http://www.w3.org/2000/svg"><sodipodi:namedview/><metadata><rdf:RDF><cc:Work><dc:format>image/svg+xml</dc:format><dc:type/><dc:title/></cc:Work></rdf:RDF></metadata><path d="m1.4453125 0c-.800397 0-1.4453125.6449155-1.4453125 1.4453125v13.1093755c0 .800397.6449155 1.445312 1.4453125 1.445312h13.1093755c.800397 0 1.445312-.644915 1.445312-1.445312v-1.228516c-.20502.175949-.413307.345209-.628906.5-.658654.467989-1.307904.771489-1.949219.910156-.658653.13866-1.231474.09642-1.716797-.128906-.485321-.225329-.867201-.599154-1.144531-1.119141-.277325-.519989-.442142-1.161178-.494141-1.923828-.03467-.779983.06984-1.6382413.3125-2.5742186.225329-.93598.563015-1.8364771 1.013672-2.703125.467989-.8839794.98856-1.673871 1.560547-2.3671875.589321-.7106516 1.212443-1.2995894 1.871094-1.7675781.391676-.2782959.784104-.4905052 1.175781-.6523438v-.0546875c0-.800397-.644915-1.4453125-1.445312-1.4453125zm14.5546875 2.1289062c-.113968.062176-.228936.1285367-.34375.2050782-.502655.3293267-.987087.7634604-1.455078 1.3007812-.450657.5199886-.866723 1.126996-1.248047 1.8203125-.381325.6759852-.676771 1.3855445-.884766 2.1308594-.207997.7453176-.310547 1.4407119-.310547 2.0820313 0 .6239852.08643 1.1606712.259766 1.6113282.190662.450657.459982.788343.806641 1.013672.346658.225326.770782.311766 1.273437.259765.485323-.052.987824-.242938 1.507813-.572265.133874-.08925.265252-.184417.394531-.285157z" fill="#d0d0d0" opacity=".438298" stroke-miterlimit="5.5" stroke-width="3.9" transform="scale(.26458333)"/><path d="m .63154431 0v1.8690797l.43978339-.2538199.4397837.2538199v-1.8690797z" fill="#f00"/></svg>