<?xml version="1.0" encoding="UTF-8" standalone="no"?><svg height="16" viewBox="0 0 4.2333333 4.2333333" width="16" xmlns="http://www.w3.org/2000/svg"><sodipodi:namedview/><metadata><rdf:RDF><cc:Work><dc:format>image/svg+xml</dc:format><dc:type/><dc:title/></cc:Work></rdf:RDF></metadata><path d="m2.3596885 1.7768686s-.2990511.3682276-.2837537.3917069c.021215-.023479-.1073651-.3957326-.1073651-.3957326s-.026829-.078272-.1110212-.3348256h-.3048403-.73980643-.5578681l-.0557091.2408429h.41995163.0996401c.27015441 0 .4350971.1116738.3890308.3095401-.0497673.2154487-.28556023.3074294-.53671753.3074294h-.0939179l.12081319-.5267731h-.41986435l-.17826051.7696179h.59618814c.44852326 0 .87402396-.2408211.95075056-.5502742.013425-.056881.011535-.1998682-.022938-.284037 0-.00202-.00196-.0059-.00386-.011685-.00189-.00202-.00385-.015711.00386-.017713.00371-.002.011425.0059.011425.00779 0 0 .00393.00992.00764.017691l.3794996 1.0948698.9662437-1.1144752.4082455-.002h.09964c.27035 0 .437164.1116738.3910105.3095401-.0498364.2154486-.2873479.3074294-.5385706.3074294h-.0958539l.122619-.5267514h-.4196906l-.1783914.769618h.5961889c.4485015 0 .8778749-.2408211.9488357-.5502742.0728313-.3095401-.2415609-.550383-.6939359-.550383h-.3947967-.4945466c-.2357507.28395-.2798809.3388512-.2798809.3388512z" fill="#d0d0d0" stroke-width=".02176"/></svg>