<?xml version="1.0" encoding="UTF-8" standalone="no"?><svg height="22" viewBox="0 0 22 22" width="22" xmlns="http://www.w3.org/2000/svg"><sodipodi:namedview/><metadata><rdf:RDF><cc:Work><dc:format>image/svg+xml</dc:format><dc:type/><dc:title/></cc:Work></rdf:RDF></metadata><path d="m18.877708 5.8592885c-1.587721.07127-2.823361 1.3793413-2.844865 2.9566265l-2.001565 2.773743c-.0337.000019-.06761-.0015-.101602 0-.408988.01836-.784656.150331-1.107465.355608l-8.3517091-3.5662408c-.2192106-1.0274207-1.1165588-1.7983604-2.2047699-1.7983604-1.2522801 0-2.26573141 1.0167674-2.26573141 2.2758912 0 1.259124 1.01345131 2.286052 2.26573141 2.286052.4493032 0 .8671893-.138085 1.2192274-.365769l8.3313886 3.566241c.227153 1.070054 1.193315 1.84878 2.316532 1.798361 1.200029-.05387 2.139332-1.03487 2.164129-2.225091l2.722941-2.052366c.04418-.000034.08751.002.132082 0 1.647509-.07395 2.919222-1.483 2.844865-3.1395111-.074356-1.6565099-1.471681-2.9391386-3.119189-2.8651844zm.0508.9449014c1.127973-.050633 2.082741.8267871 2.133648 1.960924.05091 1.1341373-.822789 2.0931751-1.950765 2.1438081-1.127972.05063-2.082738-.826787-2.133646-1.960924-.05091-1.1341369.82279-2.093175 1.950763-2.1438081zm-16.8456601.2540056c.060395-.00617.1208692 0 .1828841 0 .7362542 0 1.3679441.4419379 1.6459572 1.0769846l-1.1379458-.4876912a1.3006395 1.3006395 0 0 0 -.6400944-.1117627 1.3006395 1.3006395 0 0 0 -.3860889 2.4994168l1.1785868.508011c-.2036661.08063-.4284952.121923-.6604149.121923-.9922434 0-1.79836098-.8108545-1.79836098-1.808521 0-.9353122.70952218-1.7058529 1.61547688-1.7983605zm16.8659811.294647c-.827188.037131-1.469926.7431243-1.432592 1.574835.03733.8317108.737487 1.4798835 1.564674 1.4427525.827189-.037131 1.469927-.7431246 1.432593-1.5748354-.037334-.8317104-.737487-1.4798836-1.564675-1.4427521zm-4.998833 4.7041855c.991255-.0445 1.834905.730568 1.879643 1.727239.04474.996671-.725824 1.845307-1.717079 1.889803-.765987.03438-1.440825-.418669-1.727239-1.087144l1.107465.46737a1.3006395 1.3006395 0 1 0 1.026183-2.387654l-1.137946-.487691c.177747-.07012.367271-.112869.568973-.121923z" fill="#fff" shape-rendering="crispEdges"/></svg>