<?xml version="1.0" encoding="UTF-8" standalone="no"?><svg height="16" viewBox="0 0 4.2333333 4.2333333" width="16" xmlns="http://www.w3.org/2000/svg"><sodipodi:namedview/><metadata><rdf:RDF><cc:Work><dc:format>image/svg+xml</dc:format><dc:type/><dc:title/></cc:Work></rdf:RDF></metadata><path d="m8.5410156-.01757813c-2.8521789.50797305-5.70669.99358845-8.55859373 1.49218753 0 4.3386588-.0019241 8.6790856 0 13.0195316 2.83717003.496813 5.67825773.971072 8.50976563 1.488281h1.1621094v-2.445313l.8671871 1.169922 1.779297-2.402343h-.947265v-5.8750005h1.464843v-1.6972656h-3.1640621v-4.75000003zm5.6796874 1.28710933-1.779297 2.4023438h.976563v5.1777344h-1.464844v1.6972656h1.464844 1.699219v-1.6972656-5.1777344h.882812zm-9.6464842 3.4079984-.0839844 6.3129094c-.3605896-.03169-.7212686-.06183-1.0820313-.09147-.01629-1.9450798-.019691-4.1919407.00195-6.1368792.4935337.023667.6394278-.073393 1.1640626-.084563z" fill="#d0d0d0" stroke-width="1.3" transform="scale(.26458333)"/></svg>