<?xml version="1.0" encoding="UTF-8" standalone="no"?><svg height="22" viewBox="0 0 5.8208332 5.8208335" width="22" xmlns="http://www.w3.org/2000/svg"><sodipodi:namedview/><metadata><rdf:RDF><cc:Work><dc:format>image/svg+xml</dc:format><dc:type/><dc:title/></cc:Work></rdf:RDF></metadata><path d="m3.1362427 0-2.4122559 1.94045h-.7239868v1.9399334h.7239868l2.4122559 1.9404499zm.7358724.51159669v.55448811c.8330692.3002018 1.4061157 1.0013899 1.4061157 1.8035074 0 .8021172-.5730465 1.5033056-1.4061157 1.8035074v.5550051c1.1225448-.327687 1.9487184-1.2487026 1.9487182-2.3585125 0-1.109805-.8261813-2.03030467-1.9487182-2.35799551zm-.0108521 1.10897621-.0015611.5973795c.2058284.1433225.3415811.3782837.3415811.6500896.0000002.2718052-.1357524.5062503-.3415811.6495727l.00156.6015136c.5039392-.1990778.8619638-.6851962.8619638-1.2495361 0-.5643606-.3579958-1.0499551-.8619627-1.2490193z" fill="#fff"/></svg>