<?xml version="1.0" encoding="UTF-8" standalone="no"?><svg height="16mm" viewBox="0 0 16 16" width="16mm" xmlns="http://www.w3.org/2000/svg"><sodipodi:namedview/><metadata><rdf:RDF><cc:Work><dc:format>image/svg+xml</dc:format><dc:type/><dc:title/></cc:Work></rdf:RDF></metadata><path d="m6.4955481 281c-1.2028403 0-2.1706269.96778-2.1706269 2.17062v1.2662h3.6755949v.88789h-3.6755949-1.3757644c-1.6343376 0-2.94998595 1.31669-2.94998595 2.95102v1.45018c0 1.63435 1.31564835 2.95 2.94998595 2.95h.1726173v-1.45329c0-1.54143 1.2760734-2.81614 2.816647-2.81252l4.1665699.012c.87006.002 1.570086-.70511 1.570086-1.57424v-1.52253-1.44294-.094-.61708c0-1.20284-.968821-2.17062-2.1716588-2.17062zm-.297686 1.33855c.299296-.0004.542024.24233.541624.54162-.000171.29891-.242732.54099-.541624.54059-.298489-.00016-.540418-.2421-.540589-.54059-.0004-.29889.241696-.54146.540589-.54162zm6.7196409 2.98616v1.52255c.000002 1.54144-1.271939 2.82027-2.812512 2.81665l-4.1665699-.012c-.8700574-.002-1.5742244.70097-1.5742222 1.57009v3.99498c.1823622 1.01568 1.061487 1.78302 2.1313492 1.78302h3.007869c1.2028389 0 2.1716599-.96778 2.1716599-2.17062v-1.2662h-3.6755939v-.88789h3.6755939 1.375765c1.634336 0 2.949987-1.31565 2.949987-2.95v-1.45018c0-1.63433-1.315651-2.95102-2.949987-2.95102zm-3.1350049 9.32854c.2984879.00016.5404179.2421.5405889.54059-.00017.29849-.242101.54041-.5405889.54059-.298892.0004-.541453-.2417-.541623-.54059.000171-.29889.242731-.54099.541623-.54059z" fill="#d0d0d0" stroke-width=".760829" transform="translate(0 -281)"/></svg>