<?xml version="1.0" encoding="UTF-8" standalone="no"?>
<!-- Created with Inkscape (http://www.inkscape.org/) -->

<svg
   xmlns:dc="http://purl.org/dc/elements/1.1/"
   xmlns:cc="http://creativecommons.org/ns#"
   xmlns:rdf="http://www.w3.org/1999/02/22-rdf-syntax-ns#"
   xmlns:svg="http://www.w3.org/2000/svg"
   xmlns="http://www.w3.org/2000/svg"
   xmlns:sodipodi="http://sodipodi.sourceforge.net/DTD/sodipodi-0.dtd"
   xmlns:inkscape="http://www.inkscape.org/namespaces/inkscape"
   width="16"
   height="16"
   viewBox="0 0 4.2333332 4.2333332"
   version="1.1"
   id="svg8"
   inkscape:version="0.92+devel (f96dc7e339, 2017-07-28, custom)"
   sodipodi:docname="glyph-coffee-cup.svg">
  <defs
     id="defs2" />
  <sodipodi:namedview
     id="base"
     pagecolor="#002466"
     bordercolor="#ffffff"
     borderopacity="0.38039216"
     inkscape:pageopacity="1"
     inkscape:pageshadow="2"
     inkscape:zoom="51.5"
     inkscape:cx="10.709371"
     inkscape:cy="7.9200991"
     inkscape:document-units="px"
     inkscape:current-layer="svg8"
     inkscape:document-rotation="0"
     showgrid="false"
     inkscape:showpageshadow="false"
     borderlayer="true"
     inkscape:window-width="1920"
     inkscape:window-height="1051"
     inkscape:window-x="0"
     inkscape:window-y="0"
     inkscape:window-maximized="1"
     units="px" />
  <metadata
     id="metadata5">
    <rdf:RDF>
      <cc:Work
         rdf:about="">
        <dc:format>image/svg+xml</dc:format>
        <dc:type
           rdf:resource="http://purl.org/dc/dcmitype/StillImage" />
        <dc:title></dc:title>
      </cc:Work>
    </rdf:RDF>
  </metadata>
  <path
     style="font-variation-settings:normal;vector-effect:none;fill:#d0d0d0;stroke:none;stroke-width:0.19499791;stroke-linecap:square;stroke-miterlimit:4;stroke-dasharray:none;stroke-opacity:1"
     d="M 2.2907088,0 C 1.5687674,0.77022188 2.4674124,0.8710604 2.3360476,1.5524903 2.9678884,0.82912242 2.0704396,0.75846989 2.2907088,0 Z M 0.60585829,1.8713248 c -0.069017,0 -0.1243163,0.056029 -0.1243163,0.1250475 v 0.014626 0.1374791 c 0,0.017977 0.00418,0.034319 0.010969,0.049727 0.00709,0.065419 0.01736,0.1301507 0.031445,0.1945183 h -0.053383 c -0.21568996,0 -0.39269298,0.1799282 -0.39269298,0.3956181 v 0.038026 c 0,0.2156897 0.17700302,0.3926934 0.39269298,0.3926934 h 0.4672828 c 0.13183191,0.1518911 0.28771761,0.2810963 0.46143261,0.382455 0.568333,0.3282261 1.268622,0.3282261 1.8369549,0 0.5128539,-0.2960065 0.8454842,-0.8189878 0.9060459,-1.4003857 0.00764,-0.016168 0.013164,-0.03352 0.013164,-0.052652 V 2.0109978 1.9963723 c 0,-0.069017 -0.055297,-0.1250475 -0.1243161,-0.1250475 z m -0.1352854,0.7978177 h 0.1345541 c 0.036255,0.09464 0.080282,0.1861185 0.1316289,0.2734956 h -0.266183 c -0.067592,0 -0.11627221,-0.048681 -0.11627217,-0.1162723 v -0.038026 c 0,-0.067592 0.0486809,-0.1191974 0.11627217,-0.1191973 z m 0.4841021,1.3148268 c -0.069019,0 -0.1243163,0.056029 -0.1243163,0.1250477 0,0.069019 0.055298,0.1243162 0.1243163,0.1243162 H 3.7766534 c 0.069019,0 0.1243161,-0.055298 0.1243161,-0.1243162 0,-0.069018 -0.055298,-0.1250477 -0.1243161,-0.1250477 z"
     id="rect829"
     inkscape:label="#"
     inkscape:connector-curvature="0" />
</svg>
