<?xml version="1.0" encoding="UTF-8" standalone="no"?>
<!-- Created with Inkscape (http://www.inkscape.org/) -->

<svg
     xmlns:dc="http://purl.org/dc/elements/1.1/"
     xmlns:cc="http://creativecommons.org/ns#"
     xmlns:rdf="http://www.w3.org/1999/02/22-rdf-syntax-ns#"
     xmlns:svg="http://www.w3.org/2000/svg"
     xmlns="http://www.w3.org/2000/svg"
     xmlns:sodipodi="http://sodipodi.sourceforge.net/DTD/sodipodi-0.dtd"
     xmlns:inkscape="http://www.inkscape.org/namespaces/inkscape"
     width="16"
     height="16"
     viewBox="0 0 4.2333333 4.2333333"
     version="1.1"
     id="svg8"
     inkscape:version="0.92+devel (78cebbf91a, 2017-07-21, custom)"
     sodipodi:docname="glyph-autodesk.svg">
    <defs
         id="defs2" />
    <sodipodi:namedview
         id="base"
         pagecolor="#002466"
         bordercolor="#ffffff"
         borderopacity="0.38039216"
         inkscape:pageopacity="1"
         inkscape:pageshadow="2"
         inkscape:zoom="28.870799"
         inkscape:cx="4.9792934"
         inkscape:cy="9.4086394"
         inkscape:document-units="px"
         inkscape:current-layer="svg8"
         inkscape:document-rotation="0"
         showgrid="false"
         inkscape:showpageshadow="false"
         borderlayer="true"
         inkscape:window-width="1920"
         inkscape:window-height="1051"
         inkscape:window-x="0"
         inkscape:window-y="0"
         inkscape:window-maximized="1"
         units="px" />
    <metadata
         id="metadata5">
        <rdf:RDF>
            <cc:Work
                 rdf:about="">
                <dc:format>image/svg+xml</dc:format>
                <dc:type
                     rdf:resource="http://purl.org/dc/dcmitype/StillImage" />
                <dc:title></dc:title>
            </cc:Work>
        </rdf:RDF>
    </metadata>
    <path
         inkscape:connector-curvature="0"
         d="M 1.1309551,0.27225119 0.08254966,2.8256082 c 0,0.107027 0.08136,0.215476 0.288276,0.215476 H 1.0529251 l 0.794787,-1.8758419 -0.35854,-0.84877406 c -0.02711,-0.06279 -0.06991,-0.145546 -0.182643,-0.145546 -0.045778,-0.0168036 -0.1513631,0.0437254 -0.175574,0.10132895 z m 0.440999,-0.028526 1.569729,3.71595301 1.091674,0.0014 -1.588263,-3.76021301 c -0.02141,-0.05423 -0.06993,-0.11274 -0.169821,-0.11274 l -1.0758438,0.00213 c 0.113389,0.014864 0.1454118,0.0906765 0.1725248,0.15347 z M -2.384e-5,2.9653761 c 0.0016,0.03179 0.008,0.05667 0.03504,0.109563 l 0.502329,0.931859 c 0.05423,0.09704 0.111308,0.13841 0.221189,0.13841 0.171244,0 0.41383194,-0.139854 0.47947594,-0.176957 L 2.5522951,3.1534252 H 0.96971816 l -0.001,-10e-4 -4.2e-4,10e-4 h -0.682127 c -0.189211,0 -0.273159,-0.09069 -0.286186,-0.188049 z"
         id="path4460"
         style="fill:#d0d0d0;stroke-width:0.26458329"
         sodipodi:nodetypes="ccscccccccccccccccscccccscc" />
</svg>
