<?xml version="1.0" encoding="UTF-8" standalone="no"?><svg height="16" viewBox="0 0 4.2333332 4.2333332" width="16" xmlns="http://www.w3.org/2000/svg"><sodipodi:namedview/><metadata><rdf:RDF><cc:Work><dc:format>image/svg+xml</dc:format><dc:type/><dc:title/></cc:Work></rdf:RDF></metadata><path d="m1.6469209-.00131701c-.4700948-.0014013-.6059417.01855772-.8012277.09634273-.41146981.16389341-.70712552.50930904-.81497116.95212498-.02025533.0831701-.02416723.2164937-.02895175.9821929-.00599394.959259.00067115 1.1000981.06055453 1.2901963.04952032.1570603.09951606.2533004.20245183.3899053.19609248.260236.48996974.4481701.78378695.501247.1398239.025264 1.8648692.031632 2.0415437.00753.3072659-.0419094.5480639-.1651257.7739503-.3959005.1634107-.1669464.2657113-.3475849.3325603-.5874043.0277709-.0996274.0300714-.1481755.0351604-.733139.0038407-.4414999.0006885-.6482878-.0108135-.70049-.0166627-.0756637-.0639346-.1458779-.1178297-.1751748-.0165849-.0090153-.1228567-.0205057-.2361477-.0255333-.1898395-.0084253-.2110389-.0121837-.2709592-.0472993-.0950472-.0557012-.1212671-.1158225-.1215273-.2791216-.0004995-.31201525-.130348-.60166686-.3869053-.86310747-.1827751-.18625516-.3866539-.31235652-.6193556-.3829987-.0557085-.0169118-.1804044-.02268884-.5982176-.02762618-.0819478-.000972-.1559454-.00154305-.2231018-.00174419zm.085948 1.12360241c.4146545 0 .4285472.0009045.4894568.031672.08802.044467.1262711.1071691.1262711.2069867 0 .090152-.035897.1532882-.116016.2040567-.04302.02726-.068744.029007-.475016.031393-.2508679.00147-.4506914-.00338-.4804576-.01158-.1570834-.043299-.2157709-.2686721-.100319-.385231.07379-.074499.094193-.077297.5560807-.077297zm.3804174 1.5209025c.8468215-.0006628.8423846-.00103.9226851.073949.1134166.1058963.089516.2944275-.04716.3718366l-.1404326.0228123-.7320228.0085806c-.643243.0075292-.8254421-.0042463-.8589219-.0188358-.0674271-.0293799-.1302784-.1109717-.1411304-.1833371-.010337-.068934.024332-.1637411.077437-.2118003.06694-.06058.096334-.062557.9195456-.063205z" fill="#d0d0d0" stroke-width=".282222"/></svg>