<?xml version="1.0" encoding="UTF-8" standalone="no"?><svg height="22" viewBox="0 0 5.8208332 5.8208335" width="22" xmlns="http://www.w3.org/2000/svg"><sodipodi:namedview/><metadata><rdf:RDF><cc:Work><dc:format>image/svg+xml</dc:format><dc:type/><dc:title/><cc:license/><dc:creator><cc:Agent><dc:title>PixelPimps &amp; CodePoets</dc:title></cc:Agent></dc:creator></cc:Work><cc:License><cc:permits/><cc:permits/><cc:requires/><cc:requires/><cc:permits/></cc:License></rdf:RDF></metadata><path d="m2.909242.00000316c-.664388 0-1.2029809.53859289-1.2029809 1.20298094.0000375.3161583.1245341.6494971.3465619.844671v.00117c.2241614.1478496.357266.3881965.357135.6449595-.0000729.2565555-.1331546.4972289-.357135.6449575v.00117h-.642608c-.3287058 0-.59326688.2645618-.59326688.5932665v1.7433885h.57212088v.1442645h3.0426952v-.1442627h.572121v-1.7433824c0-.3287055-.2645609-.5932668-.593267-.5932668h-.6461321v-.00117c-.2239811-.1477332-.3570621-.3884066-.3571348-.6449621-.0001266-.2475952.1261525-.4773086.3359886-.6261611.00173-.00123.00296-.00232.00471-.00352.00552-.00471.011026-.01048.016436-.015277.2227451-.1952603.3476982-.5291147.3477393-.8458471 0-.66438798-.5385927-1.20298087-1.2029807-1.20298064z" fill="#d0d0d0" opacity=".99"/></svg>