<?xml version="1.0" encoding="UTF-8" standalone="no"?><svg height="16" viewBox="0 0 4.2333332 4.2333332" width="16" xmlns="http://www.w3.org/2000/svg"><sodipodi:namedview/><metadata><rdf:RDF><cc:Work><dc:format>image/svg+xml</dc:format><dc:type/><dc:title/></cc:Work></rdf:RDF></metadata><path d="m .64957274 0c-.35993181 0-.64957274.28964093-.64957274.64957274v2.93418786c0 .3599299.28964093.6495727.64957274.6495727h2.93418786c.3599317 0 .6495727-.2896428.6495727-.6495727v-2.93418786c0-.35993181-.289641-.64957274-.6495727-.64957274zm1.46709386.52916666a1.5874999 1.5874999 0 0 1 1.5875 1.58749994 1.5874999 1.5874999 0 0 1 -1.5875 1.5875 1.5874999 1.5874999 0 0 1 -1.58749994-1.5875 1.5874999 1.5874999 0 0 1 1.58749994-1.58749994zm.8738484.66507564c-.011314-.00115-.023648.00158-.035657.00723-.048037.022773-.3585603.1896525-.5431193.1896525-.1993872 0-.4908332-.1669149-.7751465-.1669149-.2843114 0-.4541563.167396-.4836914.1901693-.029535.022773-.047779.1097689.040824.083199.088603-.026568.16199-.026355.3023071-.026355s.4772586.1974039.8164876.1974039c.3397061 0 .6235175-.2699458.6862629-.3648356.047059-.071256.025662-.1061693-.00827-.1095542zm.4743897.7115845c-.011314-.00115-.023646.00158-.035657.00723-.048037.022773-.3585585.1896524-.5431194.1896524-.1993871 0-.4908351-.1669148-.7751465-.1669148-.2843132 0-.4541582.1673959-.4836914.1901692-.029535.022773-.047777.109767.040824.083199.088603-.02657.1625049-.026355.3028239-.026355.1403171 0 .4767419.197404.8159708.197404.3397044 0 .6240344-.2694291.6867798-.3643189.047059-.071256.025154-.1066861-.00878-.1100708zm-.7115844.7121012c-.011314-.00115-.023646.00106-.035657.00672-.048036.022773-.3585601.1896525-.5431192.1896525v.0005292c-.1993872 0-.4908351-.166915-.7751464-.166915-.2843133 0-.4541583.1668793-.48369143.1896525-.0295351.022773-.0482957.1098865.0403076.083199.0886033-.02657.16302163-.026355.30334063-.026355.1403171 0 .4762232.1979207.8154541.1979207.3397043 0 .6240325-.2699459.6867798-.3648355.047059-.071256.025662-.1061674-.00827-.109554z" fill="#d0d0d0" stroke-width=".449792"/></svg>