<?xml version="1.0" encoding="UTF-8" standalone="no"?><svg height="16" viewBox="0 0 4.2333333 4.2333333" width="16" xmlns="http://www.w3.org/2000/svg"><sodipodi:namedview/><metadata><rdf:RDF><cc:Work><dc:format>image/svg+xml</dc:format><dc:type/><dc:title/></cc:Work></rdf:RDF></metadata><path d="m8.5585938 0c-2.852179.50797304-5.70669.99358844-8.5585938 1.4921875 0 4.3386588-.00192416 8.6790855 0 13.0195315 2.83717.496813 5.6782577.971072 8.5097656 1.488281h1.1621094v-1.488281c1.862264 0 3.344465-.002412 5.207031.005859.316135-.014853.669828.007958.941406-.185547.217701-.332957.160446-.74916.179688-1.125-.027477-3.6651267.012103-7.3309386-.019531-10.9960935.038978-.4241904-.292605-.7557716-.716797-.7128906-1.988927-.0302362-3.601083.0012264-5.591797-.0097657v-1.4882812zm1.0917968 2.2109375h5.2109374c.21642 0 .390625.1742066.390625.390625v10.6718755c0 .216419-.174207.390624-.390625.390624h-5.2109374v-1.363281h4.3242184v-1.101562h-4.3242184v-1.4296878h4.3242184v-1.0996093h-4.3242184v-1.4296875h4.3242184v-1.1015625h-4.3242184v-1.4277344h4.3242184v-1.1015625h-4.3242184zm-4.2558594 2.3789063v6.4179682l-1.1796874-.121093v-4.4433596c-.4307664.4027948-.7103102.7015255-1.2949219.8945312v-.84375c.6988903-.4559818 1.1097206-1.0687624 1.5175781-1.7832031z" fill="#d0d0d0" stroke-width=".148838" transform="scale(.26458333)"/></svg>