<?xml version="1.0" encoding="UTF-8" standalone="no"?><svg height="16" viewBox="0 0 4.2333332 4.2333332" width="16" xmlns="http://www.w3.org/2000/svg"><sodipodi:namedview><inkscape:grid/></sodipodi:namedview><metadata><rdf:RDF><cc:Work><dc:format>image/svg+xml</dc:format><dc:type/><dc:title/></cc:Work></rdf:RDF></metadata><path d="m3.7666813 3.2863951a.46665067.46665067 0 0 0 -.4604549.3929048h-.7294149a.46665067.46665067 0 0 0 -.4604548-.3891863.46665067.46665067 0 0 0 -.459835.3891863h-.73189381a.46665067.46665067 0 0 0 -.45797594-.3792707.46665067.46665067 0 0 0 -.46665204.466652.46665067.46665067 0 0 0  .46665204.466652.46665067.46665067 0 0 0  .45301814-.3575807h.74614751a.46665067.46665067 0 0 0  .4505391.3476651.46665067.46665067 0 0 0  .451159-.3476651h.7492459a.46665067.46665067 0 0 0  .4499197.3439466.46665067.46665067 0 0 0  .466652-.466652.46665067.46665067 0 0 0 -.466652-.466652z" fill="#d0d0d0" stroke-linecap="round" stroke-miterlimit="26.700001" stroke-width=".396875"/><path d="m .4765625 0c-.26350457 0-.4765625.21305793-.4765625.4765625v10.2792965c0 .263505.21305793.47461.4765625.47461h15.0468755c.263504 0 .476562-.211105.476562-.47461v-10.2792965c0-.26350457-.213058-.4765625-.476562-.4765625zm6.4160156 2.6425781h2.2148438v1.1308594h1.9160161l-3.023438 5.2382813-3.0234375-5.2382813h1.9160156z" fill="#d0d0d0" stroke-linecap="round" stroke-miterlimit="26.700001" stroke-width="1.5" transform="scale(.26458333)"/></svg>