<?xml version="1.0" encoding="UTF-8" standalone="no"?>
<svg height="16" viewBox="0 0 4.2333332 4.2333332" width="16" xmlns="http://www.w3.org/2000/svg">
	<sodipodi:namedview/>
	<metadata>
		<rdf:RDF>
			<cc:Work>
				<dc:format>image/svg+xml			</dc:format>
			<dc:type/>
			<dc:title/>
		</cc:Work>
	</rdf:RDF>
</metadata>
<path d="M 2.2738816 .00002599 A .10782019 .10782019 0 0 0 2.2227066 .01477939 L 1.2724999 .5634185 a .10782019 .10782019 0 0 0 0 .1867217 l .9502061 .548178 a .10782019 .10782019 0 0 0 .1613642 -.09313 v -.265099 c .3340601 .059814 .6294428 .2615044 .8026734 .5615482 c .2080676 .3603842 .2080676 .8032842 0 1.1636684 l .4702618 .2715531 c .3046168 -.5276111 .3046168 -1.1791635 0 -1.7067747 C 3.3869691 .762368 2.9126367 .4550592 2.3840702 .390989 V .10790968 A .10782019 .10782019 0 0 0 2.2738816 .00002599 Z M .57632756 1.2964742 c -.30461644 .5276111 -.30461644 1.1791636 0 1.7067747 c .27003606 .4677164 .74436874 .775025 1.27293494 .8390953 v .2830794 a .10782019 .10782019 0 0 0 .1101887 .1078836 a .10782019 .10782019 0 0 0 .051175 -.014753 L 2.9608331 3.6699148 a .10782019 .10782019 0 0 0 0 -.1867218 L 2.0106269 2.9350151 a .10782019 .10782019 0 0 0 -.1613644 .09313 V 3.2932442 C 1.5152026 3.2334301 1.2198201 3.0317396 1.0465897 2.7316958 c -.2080679 -.3603843 -.2080679 -.8032842 0 -1.1636684 z" fill="#d0d0d0"/>
</svg>
