<?xml version="1.0" encoding="UTF-8" standalone="no"?>
<!-- Created with Inkscape (http://www.inkscape.org/) -->

<svg
   xmlns:dc="http://purl.org/dc/elements/1.1/"
   xmlns:cc="http://creativecommons.org/ns#"
   xmlns:rdf="http://www.w3.org/1999/02/22-rdf-syntax-ns#"
   xmlns:svg="http://www.w3.org/2000/svg"
   xmlns="http://www.w3.org/2000/svg"
   xmlns:sodipodi="http://sodipodi.sourceforge.net/DTD/sodipodi-0.dtd"
   xmlns:inkscape="http://www.inkscape.org/namespaces/inkscape"
   width="16"
   height="16"
   viewBox="0 0 4.2333332 4.2333335"
   version="1.1"
   id="svg8"
   inkscape:version="0.92+devel (4546dc857e, 2017-07-25, custom)"
   sodipodi:docname="glyph-pen-tool.svg">
  <defs
     id="defs2" />
  <sodipodi:namedview
     id="base"
     pagecolor="#002466"
     bordercolor="#ffffff"
     borderopacity="0.37647059"
     inkscape:pageopacity="1"
     inkscape:pageshadow="2"
     inkscape:zoom="26.323658"
     inkscape:cx="8.8351801"
     inkscape:cy="4.7938515"
     inkscape:document-units="px"
     inkscape:current-layer="svg8"
     inkscape:document-rotation="0"
     showgrid="false"
     inkscape:showpageshadow="false"
     borderlayer="true"
     units="px"
     inkscape:window-width="1920"
     inkscape:window-height="1051"
     inkscape:window-x="0"
     inkscape:window-y="0"
     inkscape:window-maximized="1" />
  <metadata
     id="metadata5">
    <rdf:RDF>
      <cc:Work
         rdf:about="">
        <dc:format>image/svg+xml</dc:format>
        <dc:type
           rdf:resource="http://purl.org/dc/dcmitype/StillImage" />
        <dc:title />
      </cc:Work>
    </rdf:RDF>
  </metadata>
  <path
     style="fill:#d0d0d0;stroke-width:0.32222003;stroke-linejoin:round"
     d="M 3.4670303,4.347e-5 3.1041806,0.36289319 1.1211138,1.0553405 4.352e-5,3.871171 0.06545153,3.9365786 1.6725139,2.3295162 a 0.38337505,0.38337505 0 0 1 0.088794,-0.4008521 0.38337505,0.38337505 0 0 1 0.5097436,-0.028136 c 0.012327,0.00794 0.025741,0.013337 0.036539,0.024121 0.00961,0.00962 0.014209,0.021663 0.021559,0.032521 A 0.38337505,0.38337505 0 0 1 2.3035727,2.4709294 0.38337505,0.38337505 0 0 1 1.9027206,2.5597234 L 0.29565825,4.1667857 0.36216246,4.2332899 3.1768968,3.1111235 3.8704401,1.1291528 4.2332898,0.76630301 Z"
     id="rect4264"
     inkscape:connector-curvature="0" />
</svg>
