<?xml version="1.0" encoding="UTF-8" standalone="no"?>
<!-- Created with Inkscape (http://www.inkscape.org/) -->

<svg
   xmlns:dc="http://purl.org/dc/elements/1.1/"
   xmlns:cc="http://creativecommons.org/ns#"
   xmlns:rdf="http://www.w3.org/1999/02/22-rdf-syntax-ns#"
   xmlns:svg="http://www.w3.org/2000/svg"
   xmlns="http://www.w3.org/2000/svg"
   xmlns:sodipodi="http://sodipodi.sourceforge.net/DTD/sodipodi-0.dtd"
   xmlns:inkscape="http://www.inkscape.org/namespaces/inkscape"
   width="22"
   height="22"
   viewBox="0 0 5.8208332 5.8208335"
   version="1.1"
   id="svg8"
   inkscape:version="0.92+devel 15703 custom"
   sodipodi:docname="glyph-css-small.svg">
  <defs
     id="defs2" />
  <sodipodi:namedview
     id="base"
     pagecolor="#002466"
     bordercolor="#ffffff"
     borderopacity="0.29019608"
     inkscape:pageopacity="1"
     inkscape:pageshadow="2"
     inkscape:zoom="37.363636"
     inkscape:cx="11"
     inkscape:cy="11"
     inkscape:document-units="px"
     inkscape:current-layer="svg8"
     inkscape:document-rotation="0"
     showgrid="false"
     units="px"
     inkscape:showpageshadow="false"
     borderlayer="true"
     inkscape:window-width="1920"
     inkscape:window-height="1054"
     inkscape:window-x="0"
     inkscape:window-y="0"
     inkscape:window-maximized="1" />
  <metadata
     id="metadata5">
    <rdf:RDF>
      <cc:Work
         rdf:about="">
        <dc:format>image/svg+xml</dc:format>
        <dc:type
           rdf:resource="http://purl.org/dc/dcmitype/StillImage" />
        <dc:title />
      </cc:Work>
    </rdf:RDF>
  </metadata>
  <path
     inkscape:connector-curvature="0"
     id="path4271"
     d="M 1.9109945,0 C 1.6465026,0 1.4527943,0.0179179 1.3296346,0.05426025 1.1479231,0.10877376 1.0095671,0.18364208 0.91467286,0.27853598 c -0.0948927,0.0928749 -0.16054441,0.21712265 -0.1968872,0.37258708 -0.0363428,0.15344543 -0.054777,0.42583154 -0.054777,0.81752114 0,0.2402631 -0.007619,0.4089992 -0.0237712,0.5059123 C 0.61904786,2.1037732 0.58161308,2.2117494 0.52709962,2.2985678 0.47258617,2.3833657 0.40801609,2.444126 0.33331299,2.4804688 0.25860932,2.5168145 0.1473884,2.5390585 0,2.5471314 v 0.7265707 c 0.18574972,0.010094 0.32302432,0.050774 0.41186117,0.1214395 0.0908558,0.068647 0.15867034,0.1836764 0.2030884,0.3451987 0.0323049,0.1110459 0.0480591,0.3519705 0.0480591,0.7234701 0,0.319005 0.0173527,0.5523106 0.0516764,0.6996988 0.0343224,0.1494073 0.10105568,0.2747368 0.19998778,0.3756877 0.10095155,0.1009497 0.22411385,0.1725729 0.36948655,0.214974 0.1453693,0.044418 0.3542675,0.066663 0.6268351,0.066663 H 2.0717082 V 5.093746 C 1.8536538,5.093746 1.7109713,5.079638 1.6443441,5.051371 1.5797358,5.0251247 1.5314382,4.9860437 1.4991333,4.933549 1.4668285,4.8810538 1.4505575,4.7882676 1.4505575,4.6550131 c 0,-0.092875 -0.00705,-0.3071807 -0.021187,-0.6423379 C 1.4172564,3.7926029 1.3912027,3.6173292 1.350822,3.4860921 1.3104427,3.3548564 1.2518456,3.2436354 1.1751221,3.1527793 1.1004181,3.0599039 1.0033055,2.9790629 0.88418379,2.9104167 1.0194583,2.8235998 1.1192988,2.7400306 1.1839071,2.6592692 1.2505343,2.578508 1.3053217,2.4765045 1.3477214,2.3533448 c 0.0424,-0.1251792 0.068453,-0.2879426 0.078548,-0.4878256 0.018171,-0.3553478 0.027389,-0.5967892 0.027389,-0.7239868 0,-0.125179 0.015189,-0.21255749 0.045475,-0.26303303 0.030286,-0.052496 0.076937,-0.0910109 0.1395264,-0.11523845 0.064609,-0.026248 0.2089375,-0.0392741 0.4330485,-0.0392741 V 0 Z m 1.8381308,0 v 0.72398683 c 0.2281491,0 0.374641,0.0141084 0.4392496,0.0423747 0.066628,0.0262472 0.1121976,0.0642463 0.1364258,0.11472167 0.026247,0.0504755 0.040356,0.1513976 0.042375,0.3028239 0.010094,0.4805265 0.026366,0.791945 0.048576,0.9332764 0.034323,0.2059399 0.098893,0.3752409 0.1937867,0.5084961 0.068647,0.092875 0.1777042,0.1878242 0.3271118,0.2847371 -0.115084,0.066628 -0.2100334,0.1442236 -0.2847372,0.2330607 -0.072684,0.086819 -0.1312812,0.1937131 -0.1756998,0.3209107 -0.044419,0.1251791 -0.071554,0.2928337 -0.081649,0.5028118 -0.01615,0.3472717 -0.025366,0.5827403 -0.027389,0.7058999 0,0.1231601 -0.016272,0.2099739 -0.048576,0.2604492 -0.030286,0.052495 -0.078584,0.091576 -0.1452108,0.1178224 -0.066628,0.028267 -0.2082287,0.042375 -0.4242636,0.042375 V 5.8208335 H 3.909839 c 0.2644918,0 0.4582002,-0.017918 0.5813597,-0.05426 0.1837307,-0.054513 0.3231682,-0.1293816 0.4180626,-0.2242757 0.094893,-0.092875 0.1594626,-0.2171226 0.1937864,-0.3725873 0.036343,-0.1554642 0.054777,-0.4289319 0.054777,-0.8206216 0,-0.2382441 0.00762,-0.4058987 0.02377,-0.5028118 0.022209,-0.1292165 0.059643,-0.2361113 0.1121378,-0.3209105 0.054514,-0.086817 0.1190837,-0.1486588 0.1937867,-0.1850017 0.074705,-0.036346 0.1859253,-0.05859 0.3333139,-0.066663 V 2.5471314 C 5.6350841,2.5370366 5.4967279,2.4974386 5.4058718,2.4287924 5.3150155,2.3581268 5.247202,2.2420146 5.2027832,2.0804932 5.1724974,1.9674281 5.1578249,1.7265036 5.1578249,1.3570231 c 0,-0.3190049 -0.018433,-0.55231047 -0.054777,-0.69969886 C 5.0687239,0.50791688 5.0019922,0.38258748 4.90306,0.28163656 4.8041286,0.17866667 4.6820438,0.10596141 4.536674,0.06356201 4.3913048,0.02116262 4.1824067,0 3.909839,0 Z"
     style="font-style:normal;font-variant:normal;font-weight:bold;font-stretch:normal;font-size:2.82222223px;font-family:Arial;-inkscape-font-specification:'Arial, Bold';font-variant-ligatures:normal;font-variant-caps:normal;font-variant-numeric:normal;font-feature-settings:normal;text-align:start;writing-mode:lr-tb;text-anchor:start;fill:#d0d0d0;stroke-width:0.26458332"
     inkscape:label="#" />
</svg>
