<?xml version="1.0" encoding="UTF-8" standalone="no"?><svg height="16" viewBox="0 0 4.2333332 4.2333332" width="16" xmlns="http://www.w3.org/2000/svg"><sodipodi:namedview/><metadata><rdf:RDF><cc:Work><dc:format>image/svg+xml</dc:format><dc:type/><dc:title/></cc:Work></rdf:RDF></metadata><path d="m2.1166665-.00000001c-1.16911479 0-2.11666651.94766925-2.11666651 2.11666651 0 1.1691148.94766923 2.1166667 2.11666652 2.1166667 1.1691148 0 2.1166667-.9476695 2.1166667-2.1166667-.00000001-1.16911483-.94766951-2.11666651-2.11666671-2.11666651zm.1177202.82289289h.2348662v.71493482a.82323749.70563206 0 0 1  .4708807-.1269081.82323749.70563206 0 0 1  .8228929.7057469.82323749.70563206 0 0 1 -.8228929.7057471.82323749.70563206 0 0 1 -.4708807-.1280567v.2457767h-.2348662zm-.4703065.47030652h.2348662v2.1172409h-.2348662v-.7149349a.82323749.70563206 0 0 1 -.4708808.1269082.82323749.70563206 0 0 1 -.82289288-.7057471.82323749.70563206 0 0 1  .82289288-.7057469.82323749.70563206 0 0 1  .4708808.1280566zm-.4708808.3531606a.58802674.47042139 0 0 0 -.58802671.4703065.58802674.47042139 0 0 0  .58802671.4703066.58802674.47042139 0 0 0  .4708808-.1889266v-.5627599a.58802674.47042139 0 0 0 -.4708808-.1889266zm1.6297071 0a .58802674.47042139 0 0 0 -.4536536.1889266v.5627599a.58802674.47042139 0 0 0  .4708807.1889266.58802674.47042139 0 0 0  .5880267-.4703066.58802674.47042139 0 0 0 -.5880267-.4703065.58802674.47042139 0 0 0 -.017226 0z" fill="#d0d0d0" fill-rule="evenodd" stroke-width=".529167"/></svg>