<?xml version="1.0" encoding="UTF-8" standalone="no"?><svg height="22" viewBox="0 0 5.8208332 5.8208335" width="22" xmlns="http://www.w3.org/2000/svg"><sodipodi:namedview/><metadata><rdf:RDF><cc:Work><dc:format>image/svg+xml</dc:format><dc:type/><dc:title/><cc:license/><dc:creator><cc:Agent><dc:title>PixelPimps &amp; CodePoets</dc:title></cc:Agent></dc:creator></cc:Work><cc:License><cc:permits/><cc:permits/><cc:requires/><cc:requires/><cc:permits/></cc:License></rdf:RDF></metadata><path d="m11 0a11 11 0 0 0 -11 11 11 11 0 0 0 11 11 11 11 0 0 0 11-11 11 11 0 0 0 -11-11zm1.394531 2.515625c.500803 0 .920512.1722003 1.259766.5195312.347331.347331.521484.7689935.521484 1.2617188 0 .4927254-.174153.9124346-.521484 1.2597656-.347331.3473308-.76704.5195313-1.259766.5195313-.484648 0-.900716-.1722005-1.248047-.5195313-.34733-.347331-.521484-.7670402-.521484-1.2597656 0-.4927253.168559-.9143878.507812-1.2617188.347332-.3473309.768994-.5195312 1.261719-.5195312zm.023438 5.5722656h.726562l-2.482422 8.6152344c-.137317.492725-.207031.815278-.207031.96875 0 .088852.036677.17313.109375.253906.072698.072698.149695.109375.230469.109375.137318 0 .274793-.060479.412109-.18164.363486-.298867.799714-.839533 1.308594-1.623047l.412109.242187c-1.219697 2.124371-2.517455 3.1875-3.8906246 3.1875-.5250351 0-.9447445-.146711-1.2597656-.4375-.3069438-.298866-.4609376-.674615-.4609376-1.126953 0-.298866.0697135-.678256.2070313-1.138672l1.6835937-5.791015c.1615497-.557346.2421875-.977055.2421876-1.259766 0-.1777033-.0769973-.3353385-.2304688-.4726562-.1534715-.1373178-.3623495-.2070313-.6289062-.2070313-.1211616 0-.2678731.0055837-.4375.0136719l.1582031-.4863282z" fill="#d0d0d0" stroke-linecap="round" stroke-width=".4" transform="scale(.26458333)"/></svg>