<?xml version="1.0" encoding="UTF-8" standalone="no"?>
<!-- Created with Inkscape (http://www.inkscape.org/) -->

<svg
   xmlns:dc="http://purl.org/dc/elements/1.1/"
   xmlns:cc="http://creativecommons.org/ns#"
   xmlns:rdf="http://www.w3.org/1999/02/22-rdf-syntax-ns#"
   xmlns:svg="http://www.w3.org/2000/svg"
   xmlns="http://www.w3.org/2000/svg"
   xmlns:sodipodi="http://sodipodi.sourceforge.net/DTD/sodipodi-0.dtd"
   xmlns:inkscape="http://www.inkscape.org/namespaces/inkscape"
   width="22"
   height="22"
   viewBox="0 0 22 22"
   version="1.1"
   id="svg8"
   inkscape:version="0.92+devel 15640 custom"
   sodipodi:docname="glyph-audacious.svg">
  <defs
     id="defs2" />
  <sodipodi:namedview
     id="base"
     pagecolor="#002266"
     bordercolor="#ffffff"
     borderopacity="0.46666667"
     inkscape:pageopacity="0"
     inkscape:pageshadow="2"
     inkscape:zoom="26.162952"
     inkscape:cx="16.621911"
     inkscape:cy="12.794693"
     inkscape:document-units="px"
     inkscape:current-layer="svg8"
     inkscape:document-rotation="0"
     showgrid="false"
     inkscape:showpageshadow="false"
     borderlayer="true"
     units="px"
     fit-margin-top="0"
     fit-margin-left="0"
     fit-margin-right="0"
     fit-margin-bottom="0"
     inkscape:window-width="1920"
     inkscape:window-height="1051"
     inkscape:window-x="0"
     inkscape:window-y="0"
     inkscape:window-maximized="1"
     inkscape:snap-page="true"
     inkscape:snap-bbox="true"
     inkscape:bbox-paths="true" />
  <metadata
     id="metadata5">
    <rdf:RDF>
      <cc:Work
         rdf:about="">
        <dc:format>image/svg+xml</dc:format>
        <dc:type
           rdf:resource="http://purl.org/dc/dcmitype/StillImage" />
        <dc:title></dc:title>
      </cc:Work>
    </rdf:RDF>
  </metadata>
  <path
     style="font-size:medium;font-family:'Circulate (BRK)';-inkscape-font-specification:'Circulate (BRK)';stroke-width:0.74525744;fill:#ffffff"
     inkscape:connector-curvature="0"
     id="path4265"
     d="m 0,10.927371 q 0,2.295393 0.86449864,4.292683 0.86449866,1.99729 2.35501336,3.487805 1.490515,1.490515 3.4878054,2.355013 Q 8.704607,21.927371 11,21.927371 q 2.265583,0 4.262873,-0.864499 2.0271,-0.864498 3.517615,-2.355013 1.490515,-1.490515 2.355013,-3.487805 Q 22,13.222764 22,10.927371 22,8.6617885 21.135501,6.6644985 20.271003,4.6373985 18.780488,3.1468835 17.289973,1.6563689 15.262873,0.79187019 13.265583,-0.07262841 11,-0.07262841 q -2.295393,0 -4.2926826,0.8644986 Q 4.710027,1.6563689 3.219512,3.1468835 1.7289973,4.6373985 0.86449864,6.6644985 0,8.6617885 0,10.927371 Z M 11.268293,8.3040655 q 0,-0.268293 -0.238483,-0.417344 -0.238482,-0.149052 -0.506775,-0.149052 H 8.4661247 q -0.1788618,0.05962 -0.3875339,0.08943 -0.2086721,0.02981 -0.3875339,0.02981 -0.4769645,0 -0.8644983,-0.327913 -0.357724,-0.357724 -0.357724,-0.834688 0,-0.208672 0.05962,-0.387534 0.089432,-0.178862 0.1788625,-0.327914 l 0.6260163,-0.626016 q 0.2384824,-0.208672 0.5067751,-0.238482 0.298103,-0.05962 0.5663957,-0.08943 0.1192412,-0.02981 0.506775,-0.02981 0.4173442,-0.02981 0.5663957,-0.02981 0.3875339,-0.208672 0.8644981,-0.208672 0.506776,-0.02981 0.92412,-0.02981 0.804878,0 1.669376,0.238482 0.894309,0.268293 1.490515,0.626017 0.626017,0.327913 1.01355,0.804878 0.387534,0.476964 0.596206,1.162601 0.208672,0.655827 0.327914,1.579946 0.05962,0.327913 0.08943,0.655827 0.05962,0.3279125 0.05962,0.6558255 0,0.238483 -0.08943,0.447155 -0.08943,0.178861 -0.149051,0.387534 0,0.02981 0,0.149051 0,0.119241 -0.02981,0.268293 0,0.119241 0,0.238482 0,0.08943 0,0.119241 -0.05962,0.327914 -0.119241,0.655827 -0.02981,0.327913 -0.02981,0.655826 v 0.08943 q 0.02981,0.119242 0.119241,0.447155 0.08943,0.327913 0.119241,0.447154 v 0.178862 q 0,0.357724 -0.178861,0.685637 -0.178862,0.327913 -0.476965,0.596206 -0.298103,0.268293 -0.655827,0.417344 -0.327913,0.149052 -0.685637,0.149052 -0.476964,0 -0.924119,-0.208673 -0.447154,-0.238482 -0.864498,-0.417344 -0.05962,-0.02981 -0.238483,-0.02981 -0.149051,0 -0.208672,0 -0.566396,0 -1.102981,0.208672 -0.506775,0.178862 -1.01355,0.387534 -0.059621,0.02981 -0.298103,0.149051 -0.2086721,0.119242 -0.2682927,0.149052 -0.1192412,0.05962 -0.1788618,0.02981 -0.059621,0 -0.2086721,0 H 8.7940379 Q 8.6449864,16.621138 8.197832,16.472086 7.7804878,16.323035 7.6314363,16.263414 q -0.02981,0 -0.1192412,-0.02981 -0.059621,-0.02981 -0.059621,-0.05962 Q 6.9756098,15.84607 6.439024,15.428726 5.9322489,14.981572 5.7533872,14.385366 5.6937666,14.176693 5.5745254,13.81897 5.4552842,13.431436 5.4552842,13.431436 v -1.490515 q 0,-0.02981 0.059621,-0.178862 0.089431,-0.149051 0.1490515,-0.208672 0.3279132,-0.596206 0.8346883,-1.102981 0.5365858,-0.5365845 1.1327918,-0.8943085 0.4173442,-0.238482 0.8644986,-0.238482 0.4471545,-0.02981 0.8644987,-0.178862 0.059621,-0.02981 0.2384824,-0.08943 0.2086721,-0.08943 0.2682926,-0.119241 0.1192412,-0.05962 0.3577229,-0.05962 0.238483,-0.02981 0.476965,-0.05962 0.238482,-0.05962 0.387534,-0.149052 0.178862,-0.119241 0.178862,-0.357723 z M 9.9566396,12.417886 q 0,0.476965 0.2981034,0.685637 0.298103,0.178862 0.715447,0.178862 h 0.327913 q 0.08943,0 0.08943,-0.05962 0.05962,-0.05962 0.208672,-0.208672 0.178862,-0.149052 0.238482,-0.208672 0.05962,-0.08943 0.05962,-0.238483 0,-0.149051 0,-0.238482 v -0.298103 q -0.02981,-0.08943 -0.149052,-0.208672 -0.08943,-0.149052 -0.208672,-0.149052 h -1.102981 q -0.238482,0 -0.357723,0.298103 -0.1192414,0.268293 -0.1192414,0.447155 z"
     inkscape:label="audacious" />
</svg>
