<?xml version="1.0" encoding="UTF-8" standalone="no"?><svg height="22" viewBox="0 0 22 22" width="22" xmlns="http://www.w3.org/2000/svg"><sodipodi:namedview/><metadata><rdf:RDF><cc:Work><dc:format>image/svg+xml</dc:format><dc:type/><dc:title/></cc:Work></rdf:RDF></metadata><path d="m11.002006.00000017c-1.4508469 0-2.7528979 1.17148523-2.6202974 2.61625953l1.0618461 11.5672573c.082579.899749.6957983 1.566526 1.5584513 1.566526.862652 0 1.471834-.666775 1.554413-1.566526l1.061846-11.5672573c.132601-1.4447743-1.165413-2.61625953-2.616259-2.61625953zm.0081 17.92622083a2.0353201 2.0353201 0 0 0 -2.0389314 2.034868 2.0353201 2.0353201 0 0 0 2.0389054 2.038908 2.0353201 2.0353201 0 0 0 2.034869-2.038908 2.0353201 2.0353201 0 0 0 -2.034869-2.034868z" fill="#d0d0d0"/></svg>