<?xml version="1.0" encoding="UTF-8" standalone="no"?><svg height="16" viewBox="0 0 4.2333333 4.2333333" width="16" xmlns="http://www.w3.org/2000/svg"><sodipodi:namedview/><metadata><rdf:RDF><cc:Work><dc:format>image/svg+xml</dc:format><dc:type/><dc:title/></cc:Work></rdf:RDF></metadata><g fill="#d0d0d0" opacity=".75" transform="matrix(.00037933 -.00005398 -.00005398 -.00037933 .217798 2.424771)"><path d="m9471.8 4996c-30.700000000001-15.4-172.700000000001-143.9-314.6-285.9l-259-260.9-71 65.2c-99.799999999999 88.3-203.4 119-308.9 88.3-72.9-21.1-262.9-205.300000000001-1515.699999999999-1456.200000000001-790.5-788.5-1435.1-1440.9-1435.1-1452.4 0-9.6 239.8-259 531.4-550.6l533.4-533.4 934.4 934.4c514.2 514.2 940.1 928.6 947.799999999999 920.9 25-24.9 11.5-483.5-19.200000000001-627.4-15.299999999997-78.7-65.199999999997-216.8-109.299999999997-307-78.700000000001-161.2-86.299999999999-170.8-1245.2-1333.4-640.900000000001-642.7-1176.2-1189.5-1187.7-1212.5-32.6-63.3-24.9-191.9 15.4-270.5 67.1-132.4 270.5-199.5 401-130.5 90.2 48 2388.600000000001 2369.4 2469.200000000001 2496.1 234.1 360.7 341.5 849.9 297.4 1352.6-17.299999999999 199.5-49.9 393.3-88.200000000001 533.4-11.5 38.4 23 80.6 237.9 297.4 203.4 207.2 251.299999999999 266.7 262.9 326.2 24.9 126.6-3.799999999999 203.4-115.1 318.5l-103.6 107.4 276.299999999999 278.2c226.4 230.2 276.299999999999 291.6 287.799999999999 351.1 47.700000000001 253.1-194 454.6-422.299999999999 351" fill="#d0d0d0"/><path d="m3253.7-602.4c-1648.1-1650-1884-1895.6-2045.2-2112.4-320.4-431.7-698.4-1105.1-974.6-1730.6-178.4-401-178.4-362.6 0-297.4 550.6 203.4 1281.6 556.4 1717.1 830.7 425.9 268.6 502.7 341.5 2417.4 2256.2l1841.8 1843.9-537.2 537.2c-295.5 295.5-541 537.2-546.8 537.2s-848-840.3-1872.5-1864.8" fill="#d0d0d0"/></g></svg>