<?xml version="1.0" encoding="UTF-8" standalone="no"?><svg height="16" viewBox="0 0 4.2333332 4.2333332" width="16" xmlns="http://www.w3.org/2000/svg"><sodipodi:namedview/><metadata><rdf:RDF><cc:Work><dc:format>image/svg+xml</dc:format><dc:type/><dc:title/></cc:Work></rdf:RDF></metadata><path d="m1.7863737.26385859a2.1521904 1.710735 17.343928 0 0 -1.7240444 1.11236901 2.1521904 1.710735 17.343928 0 0 1.5443132 2.2744343 2.1521904 1.710735 17.343928 0 0  .1294457.034768v-.294838a1.6051754 1.2752748 17.343928 0 1 -.918495-1.6048128 1.6051754 1.2752748 17.343928 0 1 1.9122218-.7389604 1.6051754 1.2752748 17.343928 0 1 1.1520476 1.6959552 1.6051754 1.2752748 17.343928 0 1 -.3738016.5278007c.035211.044738.066326.0822.1029279.1300351.00142.00185.00251.00345.00393.0053a2.1521904 1.710735 17.343928 0 0  .556085-.7466175 2.1521904 1.710735 17.343928 0 0 -1.5443132-2.27443431 2.1521904 1.710735 17.343928 0 0 -.840317-.1209993zm.050285 1.39247471v2.3131305l.5991044-.0002011-.0002012-.9051381h.08741c.038418 0 .054876.011146.093696.042625.046564.037814.1223744.1681419.1223744.1681419l.4704441.6951569.6902463-.0003915v-.0003915c-.0814626-.134867-.6584141-.9068083-.7301211-.936175 0 0 .5230724-.1716463.5111044-.7554603-.0107609-.5236727-.53939-.6213002-.53939-.6213002zm.6051937.5014794.4234978.0002012v.0002011c0 .0000001.1964275-.010759.1964275.1926954 0 .1994321-.1964275.1999632-.1964275.1999632l-.4236942.0002012zm.364373 1.395814a1.6051754 1.2752748 17.343928 0 1 -.2698914.017875v.1944633a2.1521904 1.710735 17.343928 0 0  .3779266-.052643z" fill="#d0d0d0" fill-rule="evenodd" stroke-width=".264583"/></svg>