<?xml version="1.0" encoding="UTF-8" standalone="no"?><svg height="16mm" viewBox="0 0 16 16" width="16mm" xmlns="http://www.w3.org/2000/svg"><sodipodi:namedview/><metadata><rdf:RDF><cc:Work><dc:format>image/svg+xml</dc:format><dc:type/><dc:title/></cc:Work></rdf:RDF></metadata><path d="m .64814146 2.5877314v1.250053h1.25005204v-.33848h4.561996c-1.360043.435298-2.556192 1.442616-3.464388 2.798795-1.018618 1.52106-1.698412 3.492534-1.902726 5.6833736h1.004589c.202895-2.0029786.834489-3.7881116 1.730644-5.1263016 1.099295-1.64154 2.559139-2.592089 4.134632-2.592089 1.575492 0 3.0374025.950549 4.1366975 2.592089.896393 1.33854 1.527924 3.123162 1.730644 5.1263016h1.004073c-.204316-2.1908396-.88411-4.1623136-1.902726-5.6833736-.908216-1.356208-2.105417-2.363512-3.4659385-2.798795h4.5640625v.33848h1.249536v-1.250053h-1.249536v.338481h-12.1315595v-.338481z" fill="#d0d0d0" opacity=".6"/><path d="m6.7697315 2.1898234v2.387968h2.387968v-2.387968zm-6.36343604 9.7916496v2.387968h2.38796804v-2.387968zm12.72687154 0v2.387968h2.387968v-2.387968z" fill="#0f0"/></svg>