<?xml version="1.0" encoding="UTF-8" standalone="no"?>
<svg
   xmlns:dc="http://purl.org/dc/elements/1.1/"
   xmlns:cc="http://creativecommons.org/ns#"
   xmlns:rdf="http://www.w3.org/1999/02/22-rdf-syntax-ns#"
   xmlns:svg="http://www.w3.org/2000/svg"
   xmlns="http://www.w3.org/2000/svg"
   xmlns:sodipodi="http://sodipodi.sourceforge.net/DTD/sodipodi-0.dtd"
   xmlns:inkscape="http://www.inkscape.org/namespaces/inkscape"
   height="12"
   viewBox="0 0 12 12"
   width="12"
   version="1.1"
   id="svg8"
   sodipodi:docname="glyph-gear-large.svg"
   inkscape:version="0.92+devel (1da36c2be7, 2017-09-15, custom)">
  <defs
     id="defs10" />
  <sodipodi:namedview
     id="namedview2"
     inkscape:document-rotation="0"
     showgrid="false"
     pagecolor="#002466"
     inkscape:pageopacity="0"
     borderlayer="true"
     inkscape:showpageshadow="false"
     bordercolor="#ffffff"
     borderopacity="0.2627451"
     inkscape:zoom="33.409091"
     inkscape:cx="9.8944097"
     inkscape:cy="6.0480747"
     inkscape:window-width="1920"
     inkscape:window-height="1029"
     inkscape:window-x="0"
     inkscape:window-y="22"
     inkscape:window-maximized="1"
     inkscape:current-layer="svg8" />
  <metadata
     id="metadata4">
    <rdf:RDF>
      <cc:Work>
        <dc:format>image/svg+xml</dc:format>
        <dc:type
           rdf:resource="http://purl.org/dc/dcmitype/StillImage" />
        <dc:title></dc:title>
      </cc:Work>
    </rdf:RDF>
  </metadata>
  <path
     d="M 5.4531378,5e-8 4.9170768,1.2773555 A 4.8511233,4.8511233 0 0 0 4.1001588,1.5420171 L 2.9159643,0.82501075 2.031531,1.4677391 2.347496,2.8126311 A 4.8511233,4.8511233 0 0 0 1.843842,3.5107132 L 0.46385783,3.6255412 0.12493793,4.6666021 1.170054,5.5685906 a 4.8511233,4.8511233 0 0 0 -0.0216,0.43074 4.8511233,4.8511233 0 0 0 0.02295,0.43074 L 0.12493793,7.3333997 0.46385783,8.3744607 1.842492,8.4892886 a 4.8511233,4.8511233 0 0 0 0.505004,0.6940413 l -0.315965,1.3489311 0.8844333,0.642728 1.1801435,-0.714305 a 4.8511233,4.8511233 0 0 0 0.820969,0.263301 L 5.4531378,12 h 1.093726 l 0.53606,-1.277355 a 4.8511233,4.8511233 0 0 0 0.816919,-0.264662 L 9.0840368,11.17499 9.9684691,10.532261 9.6525038,9.18737 A 4.8511233,4.8511233 0 0 0 10.156158,8.4892887 l 1.379984,-0.114828 0.33892,-1.041061 -1.045115,-0.9019891 a 4.8511233,4.8511233 0 0 0 0.0216,-0.43208 4.8511233,4.8511233 0 0 0 -0.02295,-0.429399 L 11.87506,4.6666021 11.53614,3.6255412 10.157506,3.5107132 A 4.8511233,4.8511233 0 0 0 9.6525038,2.8166721 L 9.9684691,1.4677401 9.0840368,0.82501095 7.9052428,1.5393171 A 4.8511233,4.8511233 0 0 0 7.0829238,1.2746549 L 6.5468638,5e-8 Z"
     fill="#fff"
     stroke-linecap="round"
     stroke-linejoin="round"
     stroke-width=".771308"
     id="path6"
     inkscape:connector-curvature="0"
     inkscape:label="#"
     style="stroke:none" />
</svg>
