<?xml version="1.0" encoding="UTF-8" standalone="no"?><svg height="16" viewBox="0 0 4.2333332 4.2333332" width="16" xmlns="http://www.w3.org/2000/svg"><sodipodi:namedview/><metadata><rdf:RDF><cc:Work><dc:format>image/svg+xml</dc:format><dc:type/><dc:title/></cc:Work></rdf:RDF></metadata><path d="m1.7621662-.00000506v.00206706.42116291h-.1596801c-.1445516 0-.2640666.11961399-.2640666.26251626v.69091383h.00258c-.0023.02269.011509.04752.041341.076998l.1245442.1100707-1.26865636 2.1972819-.02842204.4723225.39480791-.260966.69711509-1.2076781c.2486331.1275413.5301688.1984375.8288899.1984375.2278795 0 .4803557-.041741.7022826-.1173057l.6506064 1.1265463.3948078.260966-.0284221-.4723225-.637687-1.1048423c.0917477-.0615761.1794687-.1283445.2573485-.2046385.3401348-.3309457.5539713-.8088683.5539713-1.3213663-.1451247-.0014103-.298674-.0001391-.4273639-.0015505-.0002241.5646589-.1681816.6990744-.372587.9379272-.068575.0790116-.1474629.1466008-.2315105.208256l-.4108276-.7110677.125057-.1100708c.029829-.029478.041341-.056579.041341-.076998h.00206v-.68884647c-.002298-.14516004-.1192845-.26458332-.2661297-.26458332h-.1570963v-.42116291-.00206706h-.2831837zm.2811198.70590004.00207.003617c.1544397.001834.2811198.12534484.2811198.28008626 0 .15472726-.1266801.27878266-.2811198.28060296h-.00207c-.1544397 0-.2811198-.1258757-.2811198-.28060296 0-.15474142.1266801-.28008626.2811198-.28008626zm.2144572 1.14308262.3550171.6149495c-.157675.04659-.3321236.073897-.4847249.073897-.2204486 0-.4275845-.055525-.6092651-.1483113l.3116089-.5400187.081649.07183c.036712.036293.085369.05426.1312581.05426v-.00207l.00207.00207c.048184 0 .096324-.017967.1307414-.05426z" fill="#dcdcdc"/></svg>