<?xml version="1.0" encoding="UTF-8" standalone="no"?><svg height="16" viewBox="0 0 4.2333332 4.2333332" width="16" xmlns="http://www.w3.org/2000/svg"><sodipodi:namedview/><metadata><rdf:RDF><cc:Work><dc:format>image/svg+xml</dc:format><dc:type/><dc:title/></cc:Work></rdf:RDF></metadata><path d="m1.9716421 0c .5114032.53678396.5089173.88352838.3013813 1.6537122-.0753958.2798003.3258801.3264554.3021374.0678044-.0372615-.4059259.0520212-.7192687.4491127-.95947612-.0676532 1.41926962.7355944 1.26585362.7731796 2.26335332.0200289.5315623-.4989168.8800745-.9671675 1.1197557.2018855-.5166215-.0905338-.8378465-.4689223-.9470134-.4919297-.1419242-.5909954-.4972087-.5533579-.7209005-.1506008.1155127-.95658341 1.0579813-.0992415 1.7560976-.3746375-.0666106-1.38664929-.5065993-1.26305099-1.6370217.07141366-.6531449 1.14045039-1.4594468 1.36938479-1.75684072.2719286-.35324469.1565444-.83947078.1565444-.83947078z" fill="#d0d0d0"/></svg>