<?xml version="1.0" encoding="UTF-8" standalone="no"?><svg height="16" viewBox="0 0 4.2333333 4.2333333" width="16" xmlns="http://www.w3.org/2000/svg"><sodipodi:namedview/><metadata><rdf:RDF><cc:Work><dc:format>image/svg+xml</dc:format><dc:type/><dc:title/></cc:Work></rdf:RDF></metadata><path d="m8.5585938 0c-2.852179.50797304-5.70669.99358844-8.5585938 1.4921875 0 4.3386588-.00192416 8.6790855 0 13.0195315 2.83717.496813 5.6782577.971072 8.5097656 1.488281h1.1621094v-1.488281c1.862264 0 3.344465-.0024 5.207031.0059.316135-.01485.669829.008.941406-.185547.217701-.332957.160446-.74916.179688-1.125-.02748-3.6651264.0121-7.3309386-.01953-10.9960935.03898-.4241904-.292605-.7557716-.716797-.7128906-1.988927-.030236-3.601083.00123-5.591797-.00977v-1.4883179zm1.0917968 2.2109375h5.2109374c.21642 0 .390625.1742066.390625.390625v10.6718755c0 .216418-.174207.390624-.390625.390624h-5.2109374v-.853609h1.3242184v-1.501953h-1.3242184v-1.230469h1.3242184v-1.4980467h-1.3242184v-1.2304687h1.3242184v-1.5019532h-1.3242184v-1.2265624h1.3242184v-1.5019532h-1.3242184zm2.5234374.8788125v1.53125h1.957031v-1.53125zm-5.3496092 1.863375c-.4845826.9949747-.9735196 1.9878227-1.4667969 2.9785156.4998996 1.0178295 1.0120272 2.0290452 1.5136719 3.0468754-.4376724-.025232-.8751812-.053228-1.3125-.083985-.308984-.757992-.6864617-1.4907501-.9082032-2.2832029-.2470412.7379263-.5994199 1.4346719-.8828125 2.1582029-.3981169-.005518-.795388-.022629-1.1933593-.039062.467038-.9141567.916859-1.8353648 1.3984374-2.7441409-.4088765-.9361122-.8576244-1.8545693-1.2792968-2.7851562.3998615-.0236977.7993574-.0465477 1.1992187-.0683594.2707427.7107356.5672385 1.4117136.7910157 2.140625.2397731-.7723873.599011-1.4990048.90625-2.2460937.4107668-.0290646.8218633-.0543007 1.234375-.0742188zm5.3496092.8670937v1.5292969h1.957031v-1.5292969zm0 2.7285156v1.5292967h1.957031v-1.5292967zm0 2.7324217v1.529297h1.957031v-1.529297z" fill="#d0d0d0" stroke-width=".148838" transform="scale(.26458333)"/></svg>