<?xml version="1.0" encoding="UTF-8" standalone="no"?>
<svg
   xmlns:dc="http://purl.org/dc/elements/1.1/"
   xmlns:cc="http://creativecommons.org/ns#"
   xmlns:rdf="http://www.w3.org/1999/02/22-rdf-syntax-ns#"
   xmlns:svg="http://www.w3.org/2000/svg"
   xmlns="http://www.w3.org/2000/svg"
   xmlns:sodipodi="http://sodipodi.sourceforge.net/DTD/sodipodi-0.dtd"
   xmlns:inkscape="http://www.inkscape.org/namespaces/inkscape"
   height="16"
   viewBox="0 0 4.2333333 4.2333333"
   width="16"
   version="1.1"
   id="svg8"
   sodipodi:docname="glyph-exe.svg"
   inkscape:version="0.92+devel (58ef38f81c, 2017-09-13, custom)">
  <defs
     id="defs10" />
  <sodipodi:namedview
     id="namedview2"
     inkscape:document-rotation="0"
     showgrid="false"
     pagecolor="#002466"
     inkscape:pageopacity="0"
     borderlayer="true"
     inkscape:showpageshadow="false"
     bordercolor="#ffffff"
     borderopacity="0.23921569"
     inkscape:zoom="47.0625"
     inkscape:cx="7.8512616"
     inkscape:cy="8"
     inkscape:window-width="1920"
     inkscape:window-height="1027"
     inkscape:window-x="0"
     inkscape:window-y="24"
     inkscape:window-maximized="1"
     inkscape:current-layer="svg8" />
  <metadata
     id="metadata4">
    <rdf:RDF>
      <cc:Work>
        <dc:format>image/svg+xml</dc:format>
        <dc:type
           rdf:resource="http://purl.org/dc/dcmitype/StillImage" />
        <dc:title></dc:title>
      </cc:Work>
    </rdf:RDF>
  </metadata>
  <path
     d="m0 0v16h16v-16zm .7265625 3.6367188h14.5468755v11.6367192h-14.5468755zm6.2890625 1.4160156-.3085938 1.3671875a3.3095914 3.3095914 0 0 0 -.6953124.4023437l-1.3398438-.4160156-.984375 1.703125 1.03125.953125a3.3095914 3.3095914 0 0 0 -.0273438.4003906 3.3095914 3.3095914 0 0 0  .0273438.4003906l-1.03125.9531248.984375 1.705078 1.3417969-.416015a3.3095914 3.3095914 0 0 0  .6933593.404297l.3085938 1.365234h1.96875l.3085938-1.369141a3.3095914 3.3095914 0 0 0  .6953124-.40039l1.3398438.416015.984375-1.705078-1.03125-.9511716a3.3095914 3.3095914 0 0 0  .027344-.4023438 3.3095914 3.3095914 0 0 0 -.027344-.4003906l1.03125-.953125-.984375-1.703125-1.3417969.4160156a3.3095914 3.3095914 0 0 0 -.6933593-.40625l-.3085938-1.3632812zm.984375 2.9296875a1.4821847 1.4821847 0 0 1 1.4824219 1.4804687 1.4821847 1.4821847 0 0 1 -1.4824219 1.4824214 1.4821847 1.4821847 0 0 1 -1.4824219-1.4824214 1.4821847 1.4821847 0 0 1 1.4824219-1.4804687z"
     fill="#d0d0d0"
     fill-rule="evenodd"
     transform="scale(.26458333)"
     id="path6" />
</svg>
