<?xml version="1.0" encoding="UTF-8" standalone="no"?>
<!-- Created with Inkscape (http://www.inkscape.org/) -->

<svg
   xmlns:dc="http://purl.org/dc/elements/1.1/"
   xmlns:cc="http://creativecommons.org/ns#"
   xmlns:rdf="http://www.w3.org/1999/02/22-rdf-syntax-ns#"
   xmlns:svg="http://www.w3.org/2000/svg"
   xmlns="http://www.w3.org/2000/svg"
   xmlns:sodipodi="http://sodipodi.sourceforge.net/DTD/sodipodi-0.dtd"
   xmlns:inkscape="http://www.inkscape.org/namespaces/inkscape"
   width="16"
   height="16"
   viewBox="0 0 4.2333332 4.2333332"
   version="1.1"
   id="svg8"
   inkscape:version="0.92+devel (f96dc7e339, 2017-07-28, custom)"
   sodipodi:docname="glyph-tor.svg">
  <defs
     id="defs2" />
  <sodipodi:namedview
     id="base"
     pagecolor="#002466"
     bordercolor="#ffffff"
     borderopacity="0.38039216"
     inkscape:pageopacity="1"
     inkscape:pageshadow="2"
     inkscape:zoom="36.415999"
     inkscape:cx="10.094581"
     inkscape:cy="7.9162778"
     inkscape:document-units="px"
     inkscape:current-layer="svg8"
     inkscape:document-rotation="0"
     showgrid="false"
     inkscape:showpageshadow="false"
     borderlayer="true"
     inkscape:window-width="1920"
     inkscape:window-height="1051"
     inkscape:window-x="0"
     inkscape:window-y="0"
     inkscape:window-maximized="1"
     units="px" />
  <metadata
     id="metadata5">
    <rdf:RDF>
      <cc:Work
         rdf:about="">
        <dc:format>image/svg+xml</dc:format>
        <dc:type
           rdf:resource="http://purl.org/dc/dcmitype/StillImage" />
        <dc:title />
      </cc:Work>
    </rdf:RDF>
  </metadata>
  <path
     inkscape:connector-curvature="0"
     style="opacity:0.6;fill:#d0d0d0;stroke-width:0.26458332;image-rendering:optimizeSpeed"
     d="M 1.7638888,0.82314813 C 1.6874537,1.0225851 1.6738496,1.1967545 1.4781755,1.3174044 0.97640808,1.5602331 0.5886685,2.1080823 0.58796295,2.7046295 c 0,0.8443148 0.68438885,1.5287037 1.52870375,1.5287037 V 3.8805553 3.5277777 3.1749998 2.2342592 1.8814814 1.5287036 a 1.1759259,1.1759259 0 0 0 -0.2335776,0.023427 1.1759259,1.1759259 0 0 0 -0.3302698,0.1205783 1.1759259,1.1759259 0 0 0 -0.09853,0.060404 c 0.031786,-0.021713 0.064608,-0.041834 0.09853,-0.060404 0.1018756,-0.055773 0.2129042,-0.096923 0.3302698,-0.1205783 0.075503,-0.015218 0.1535895,-0.023427 0.2335776,-0.023427 V 0.94074063 C 1.973674,0.92980463 1.8673703,0.88370823 1.7638888,0.82314813 Z M 1.4354564,1.7471226 a 1.1759259,1.1759259 0 0 0 -0.072577,0.055351 c 0.023329,-0.019512 0.047764,-0.037666 0.072577,-0.055351 z m -0.1054199,0.085209 a 1.1759259,1.1759259 0 0 0 -0.049839,0.046394 c 0.015957,-0.01616 0.032974,-0.031175 0.049839,-0.046394 z m -0.086816,0.087046 a 1.1759259,1.1759259 0 0 0 -0.040652,0.046164 c 0.012922,-0.015963 0.026926,-0.030907 0.040652,-0.046164 z m -0.068443,0.083142 a 1.1759259,1.1759259 0 0 0 -0.042719,0.059944 c 0.013456,-0.020591 0.028034,-0.040277 0.042719,-0.059944 z m -0.060404,0.089343 a 1.1759259,1.1759259 0 0 0 -0.040422,0.07051 c 0.012566,-0.024116 0.02627,-0.04741 0.040422,-0.07051 z M 1.057874,2.1954449 a 1.1759259,1.1759259 0 0 0 -0.032843,0.073266 c 0.00997,-0.024946 0.021246,-0.049196 0.032843,-0.073266 z M 1.012858,2.302243 A 1.1759259,1.1759259 0 0 0 0.9873643,2.378494 C 0.9948323,2.352589 1.0036901,2.327379 1.012858,2.302243 Z M 0.9772587,2.4179982 a 1.1759259,1.1759259 0 0 0 -0.0158475,0.07051 c 0.004432,-0.023835 0.0100001,-0.047203 0.0158475,-0.07051 z M 0.9536023,2.5399545 a 1.1759259,1.1759259 0 0 0 -0.008039,0.065457 c 0.001846,-0.022077 0.004988,-0.043744 0.008039,-0.065457 z M 0.9407406,2.7046301 a 1.1759259,1.1759259 0 0 0 0.0234267,0.2335775 1.1759259,1.1759259 0 0 0 0.1205782,0.3302698 1.1759259,1.1759259 0 0 0 0.060404,0.09853 C 1.1234366,3.3352207 1.1033162,3.302398 1.0847456,3.2684768 1.0289727,3.1666011 0.9878221,3.0555726 0.96416729,2.938207 0.94894978,2.8627042 0.94074064,2.7846176 0.9407406,2.7046301 Z m 0.2184191,0.6812103 a 1.1759259,1.1759259 0 0 0 0.055351,0.072577 c -0.019513,-0.023328 -0.037666,-0.047764 -0.055351,-0.072577 z m 0.085209,0.1054198 a 1.1759259,1.1759259 0 0 0 0.046394,0.049839 c -0.01616,-0.015957 -0.031175,-0.032974 -0.046394,-0.049839 z m 0.087046,0.086816 a 1.1759259,1.1759259 0 0 0 0.046164,0.040652 c -0.015963,-0.012923 -0.030908,-0.026927 -0.046164,-0.040652 z m 0.083142,0.068443 a 1.1759259,1.1759259 0 0 0 0.059944,0.042719 C 1.45391,3.6757822 1.4342236,3.6612042 1.4145567,3.6465192 Z m 0.089343,0.060404 a 1.1759259,1.1759259 0 0 0 0.07051,0.040423 c -0.024116,-0.012566 -0.04741,-0.02627 -0.07051,-0.040423 z m 0.1035825,0.056499 a 1.1759259,1.1759259 0 0 0 0.073266,0.032843 c -0.024946,-0.00997 -0.049197,-0.021246 -0.073266,-0.032843 z m 0.106798,0.045016 a 1.1759259,1.1759259 0 0 0 0.076251,0.025494 c -0.025905,-0.00747 -0.051115,-0.016326 -0.076251,-0.025494 z m 0.1157552,0.035599 a 1.1759259,1.1759259 0 0 0 0.07051,0.015848 c -0.023835,-0.00443 -0.047203,-0.01 -0.07051,-0.015848 z m 0.1219563,0.023656 a 1.1759259,1.1759259 0 0 0 0.065457,0.00804 c -0.022077,-0.00185 -0.043743,-0.00499 -0.065457,-0.00804 z"
     id="path25"
     inkscape:label="#" />
  <path
     style="fill:#d0d0d0;stroke-width:1;image-rendering:optimizeSpeed"
     d="M 6.4121094 0 C 6.4040968 0.024457324 6.3964077 0.049422295 6.390625 0.0703125 C 5.9286957 1.5983111 6.4134092 2.6117725 7.8457031 3.1113281 C 8.2648142 1.9402173 7.8263697 0.92986773 6.5214844 0.0703125 C 6.4903789 0.049423051 6.4512211 0.024444398 6.4121094 0 z M 9.7792969 1.3339844 C 8.7921859 1.6179845 8.3502714 2.2135501 8.4609375 3.1113281 C 9.2320481 2.9131059 9.6717413 2.3219843 9.7792969 1.3339844 z M 9.3339844 3.1113281 C 8.9859844 3.2984393 8.456889 3.5884655 8 3.5546875 L 8 16 A 5.7777779 5.7777779 0 0 0 13.777344 10.222656 A 5.7777779 5.7777779 0 0 0 10.365234 4.9589844 C 9.7963452 4.5749844 9.4170954 3.8917725 9.3339844 3.1113281 z "
     transform="scale(0.26458333)"
     id="path27"
     inkscape:label="#" />
</svg>
