<?xml version="1.0" encoding="UTF-8" standalone="no"?>
<!-- Created with Inkscape (http://www.inkscape.org/) -->

<svg
     xmlns:dc="http://purl.org/dc/elements/1.1/"
     xmlns:cc="http://creativecommons.org/ns#"
     xmlns:rdf="http://www.w3.org/1999/02/22-rdf-syntax-ns#"
     xmlns:svg="http://www.w3.org/2000/svg"
     xmlns="http://www.w3.org/2000/svg"
     xmlns:sodipodi="http://sodipodi.sourceforge.net/DTD/sodipodi-0.dtd"
     xmlns:inkscape="http://www.inkscape.org/namespaces/inkscape"
     width="16"
     height="16"
     viewBox="0 0 4.2333333 4.2333333"
     version="1.1"
     id="svg8"
     inkscape:version="0.92+devel (78cebbf91a, 2017-07-21, custom)"
     sodipodi:docname="glyph-news.svg">
    <defs
         id="defs2" />
    <sodipodi:namedview
         id="base"
         pagecolor="#002466"
         bordercolor="#ffffff"
         borderopacity="0.38039216"
         inkscape:pageopacity="1"
         inkscape:pageshadow="2"
         inkscape:zoom="37.918601"
         inkscape:cx="14.790825"
         inkscape:cy="9.7893425"
         inkscape:document-units="px"
         inkscape:current-layer="svg8"
         inkscape:document-rotation="0"
         showgrid="false"
         inkscape:showpageshadow="false"
         borderlayer="true"
         inkscape:window-width="1920"
         inkscape:window-height="1051"
         inkscape:window-x="0"
         inkscape:window-y="0"
         inkscape:window-maximized="1"
         units="px"
         inkscape:snap-page="true"
         inkscape:snap-grids="false"
         inkscape:snap-to-guides="false"
         inkscape:object-paths="true"
         inkscape:snap-global="false" />
    <metadata
         id="metadata5">
        <rdf:RDF>
            <cc:Work
                 rdf:about="">
                <dc:format>image/svg+xml</dc:format>
                <dc:type
                     rdf:resource="http://purl.org/dc/dcmitype/StillImage" />
                <dc:title></dc:title>
            </cc:Work>
        </rdf:RDF>
    </metadata>
    <path
         style="fill:#d0d0d0;stroke-width:0.44979167"
         d="m 1.4621882,-5.17905e-4 -0.118339,0.001034 0.118339,-5.1676e-4 z m 0.2733683,0.001034 c -0.1322479,0 -0.2387451,0.106497125 -0.2387451,0.238745125 V 3.579109 c 0,0.3400422 -0.2576489,0.6146136 -0.58859448,0.6480222 v 0.00672 H 3.4253759 3.7064956 3.986582 c 0.137996,0 0.2490803,-0.1110843 0.2490803,-0.2490804 V 0.23926312 c 0,-0.132248 -0.1064972,-0.238745125 -0.2387452,-0.238745125 z M 0.01163036,0.7953001 l -0.013953,2.6323974 c -0.00137,0.3130034 0.21830466,0.5667598 0.50229496,0.5989299 v 0.0062 l 0.1333251,0.00362 0.1333253,-0.00362 v -0.0062 C 1.0506137,3.9944555 1.2702834,3.7406999 1.2689184,3.4276965 L 1.2549657,0.79529913 Z M 2.8600351,0.97875141 c 0.1532874,0 0.2910586,0.12439419 0.276469,0.27698569 L 3.0129979,2.5491972 c -0.00807,0.084372 -0.068205,0.1529624 -0.1529623,0.1529624 -0.084757,0 -0.1448922,-0.068589 -0.1529622,-0.1529624 L 2.5835668,1.2557361 C 2.5689771,1.1031446 2.7067482,0.97875051 2.8600356,0.97875051 Z m 0,1.91254469 c 0.1125932,5.88e-5 0.2040628,0.091528 0.2041226,0.2041211 C 3.0643075,3.2081577 2.9727764,3.2994795 2.8600356,3.299539 2.7472951,3.2994795 2.6557641,3.2081577 2.6559138,3.0954172 2.6559734,2.9828245 2.747443,2.8913549 2.8600356,2.8912951 Z"
         id="rect821"
         inkscape:connector-curvature="0"
         sodipodi:nodetypes="ccccsccccccsccsscccccccccccccscccccccccc"
         inkscape:label="#" />
</svg>
