<?xml version="1.0" encoding="UTF-8" standalone="no"?><svg height="16" viewBox="0 0 4.2333332 4.2333332" width="16" xmlns="http://www.w3.org/2000/svg"><sodipodi:namedview/><metadata><rdf:RDF><cc:Work><dc:format>image/svg+xml</dc:format><dc:type/><dc:title/></cc:Work></rdf:RDF></metadata><path d="m2.1166666 0c-1.17263329 0-2.11666663.9440333-2.11666663 2.1166666s.94403334 2.1166666 2.11666663 2.1166666c1.1726332 0 2.1166666-.9440333 2.1166666-2.1166666s-.9440333-2.1166666-2.1166666-2.1166666zm.712928 1.2695866c.04953.00307.063831.00815.087643.030799.035666.033972.051528.081088.044649.1314648-.00741.054187-.6082225 1.7515399-.6306592 1.7815965-.047625.064029-.1284172.085078-.1878955.048989l-.0002117.000412c-.0559861-.0339712-.0916453-.092879-.2472204-.4074157-.0860423-.1740958-.1680318-.3286224-.1821077-.3435449-.0157691-.0167217-.1456299-.0858391-.3394107-.1804541-.38290505-.1870075-.42167973-.2166276-.42167973-.3224609 0-.049424.0240224-.096571.0618051-.1213362.01301763-.0084667.41330553-.1519469.88966143-.3187403.8369299-.292735.8682714-.3028024.9254214-.2993098z" fill="#d0d0d0" stroke-opacity=".55" stroke-width=".740833"/></svg>