<?xml version="1.0" encoding="UTF-8" standalone="no"?>
<!-- Created with Inkscape (http://www.inkscape.org/) -->

<svg
   xmlns:dc="http://purl.org/dc/elements/1.1/"
   xmlns:cc="http://creativecommons.org/ns#"
   xmlns:rdf="http://www.w3.org/1999/02/22-rdf-syntax-ns#"
   xmlns:svg="http://www.w3.org/2000/svg"
   xmlns="http://www.w3.org/2000/svg"
   xmlns:sodipodi="http://sodipodi.sourceforge.net/DTD/sodipodi-0.dtd"
   xmlns:inkscape="http://www.inkscape.org/namespaces/inkscape"
   width="16"
   height="16"
   viewBox="0 0 4.2333332 4.2333332"
   version="1.1"
   id="svg8"
   inkscape:version="0.92+devel (4546dc857e, 2017-07-25, custom)"
   sodipodi:docname="glyph-fingerprint.svg">
  <defs
     id="defs2" />
  <sodipodi:namedview
     id="base"
     pagecolor="#002466"
     bordercolor="#ffffff"
     borderopacity="0.38039216"
     inkscape:pageopacity="1"
     inkscape:pageshadow="2"
     inkscape:zoom="36.415999"
     inkscape:cx="10.094581"
     inkscape:cy="7.9162778"
     inkscape:document-units="px"
     inkscape:current-layer="svg8"
     inkscape:document-rotation="0"
     showgrid="false"
     inkscape:showpageshadow="false"
     borderlayer="true"
     inkscape:window-width="1920"
     inkscape:window-height="1051"
     inkscape:window-x="0"
     inkscape:window-y="0"
     inkscape:window-maximized="1"
     units="px" />
  <metadata
     id="metadata5">
    <rdf:RDF>
      <cc:Work
         rdf:about="">
        <dc:format>image/svg+xml</dc:format>
        <dc:type
           rdf:resource="http://purl.org/dc/dcmitype/StillImage" />
        <dc:title></dc:title>
      </cc:Work>
    </rdf:RDF>
  </metadata>
  <path
     style="display:inline;opacity:1;fill:#d0d0d0;fill-opacity:1;fill-rule:nonzero;stroke:none;stroke-width:11.25405121;stroke-miterlimit:4;stroke-dasharray:none;stroke-opacity:1"
     d="M 2.1075163,3.4712011e-5 C 1.6884504,-0.00187929 1.3291448,0.07589841 1.0023972,0.23949739 0.8936216,0.29395759 0.8766892,0.31305999 0.8837307,0.37185616 0.8981117,0.49185457 0.9600717,0.50350394 1.1435798,0.42114846 1.4847331,0.26804966 1.6507246,0.23540077 2.0810445,0.23493344 2.5749149,0.23452834 2.7567908,0.27683154 3.1618217,0.48656716 3.2314106,0.52255256 3.4517195,0.6926148 3.5339474,0.60127801 3.6153855,0.51984461 3.5723569,0.45244421 3.3626418,0.33321365 2.9490567,0.09807551 2.5876914,0.00230938 2.1075163,3.4712011e-5 Z M 2.0947373,0.48504559 C 1.541812,0.48462495 0.9892302,0.70308122 0.5840225,1.1407536 0.4272689,1.3100683 0.2444541,1.5875783 0.2444541,1.6561918 c 0,0.080003 0.032988,0.1241433 0.092803,0.1241433 0.046886,0 0.094594,-0.050583 0.2081225,-0.2212064 C 0.7992871,1.177533 1.12845,0.92438017 1.5525229,0.78445009 c 0.328885,-0.10734396 0.7140161,-0.0949168 1.0841241,0 0.4778756,0.15707608 0.8878396,0.50700381 1.1124216,0.94963561 0.048869,0.096313 0.078102,0.1256647 0.125969,0.1256647 0.082438,0 0.1308403,-0.061348 0.1083212,-0.1375314 C 3.9470475,1.5993399 3.753335,1.3016036 3.6066686,1.1431877 3.200897,0.7048985 2.647662,0.48546387 2.0947373,0.48504559 Z m 0.026167,0.48166398 c -0.1178512,-0.00205 -0.2374267,0.0091 -0.3569121,0.034079 -0.5677855,0.1186853 -1.0423562,0.5785182 -1.194271,1.1571496 -0.080619,0.3070623 -0.043559,0.80862 0.089456,1.2097889 0.039753,0.119888 0.058944,0.1448915 0.115928,0.1515278 0.1310127,0.015227 0.1438152,-0.047128 0.065419,-0.3182692 C 0.6161974,2.4251411 0.8093252,1.7650742 1.3656991,1.4051672 1.9157745,1.049334 2.6723001,1.154642 3.1027929,1.6467598 3.372558,1.9551445 3.5205253,2.476772 3.4028059,2.7044121 3.3250413,2.8547971 3.1356988,2.9451792 2.9801708,2.906145 2.8665147,2.87762 2.7317863,2.7379428 2.7145406,2.6307781 2.6536786,2.2526066 2.5677746,2.1046107 2.3503261,2.0033674 2.164836,1.9170004 2.0102239,1.9193854 1.8281938,2.0115774 1.658583,2.0974884 1.5286332,2.2708839 1.5023175,2.4463834 c -0.00949,0.063242 -0.00532,0.2001003 0.00943,0.3039686 0.091762,0.6470004 0.5546657,1.1588327 1.1903154,1.3162843 0.079941,0.019793 0.2106397,0.033778 0.2905806,0.031036 l 0.1454424,-0.00487 c 0.082155,-0.041703 0.086651,-0.1376836 0,-0.1849979 L 2.9324005,3.8764702 C 2.6735155,3.8370204 2.566309,3.8029082 2.3883605,3.7027305 2.001387,3.4848816 1.7241328,3.0126317 1.7241328,2.571444 c 0,-0.1944262 0.073614,-0.307996 0.245244,-0.379124 0.1240132,-0.051397 0.1257948,-0.051397 0.2498081,0 0.1569467,0.065044 0.2324955,0.1738999 0.2519378,0.362389 0.035703,0.3459234 0.275754,0.5735543 0.6048946,0.5735543 0.2641505,0 0.4864932,-0.1714155 0.5653389,-0.4357187 C 3.7185256,2.433881 3.614929,1.9994275 3.3973294,1.6689706 3.1089478,1.231024 2.6315917,0.97558087 2.1209043,0.96670957 Z M 2.1038653,1.467847 C 1.9393912,1.469927 1.7702509,1.500277 1.6316338,1.55426 1.4179008,1.6589368 1.2142384,1.8679848 1.1088932,2.0903889 c -0.080161,0.1692257 -0.084942,0.1955804 -0.084892,0.482881 5.92e-5,0.3534651 0.042834,0.5412359 0.1950389,0.858658 0.1311514,0.2735118 0.3128557,0.5120597 0.5148296,0.6754857 0.1750666,0.1416547 0.1936641,0.1485292 0.2665431,0.095237 C 2.0750228,4.1480986 2.0334088,4.0544172 1.8826592,3.9388461 1.7192077,3.8135375 1.5426682,3.5868717 1.4235109,3.3491661 1.2277869,2.9587294 1.1784777,2.4761826 1.3060615,2.1999274 1.3986575,1.999432 1.5398506,1.8498751 1.7198727,1.7614702 c 0.2162894,-0.106216 0.5322217,-0.106216 0.7485111,0 0.2581558,0.1267738 0.4232202,0.3576114 0.481664,0.6742687 0.034884,0.1890172 0.087691,0.2518453 0.1682628,0.1999074 C 3.1556449,2.6115803 3.1637745,2.5714773 3.1603,2.4275235 3.1518595,2.077587 2.9066819,1.7262422 2.5484076,1.5503049 2.4281395,1.4917849 2.2683395,1.4657665 2.1038653,1.467847 Z m -0.00121,0.9563296 c -0.019077,-3.894e-4 -0.040715,0.00597 -0.06481,0.018865 -0.050592,0.027084 -0.054648,0.046176 -0.042294,0.1923005 0.039078,0.462342 0.3870067,0.8602592 0.8385759,0.9587637 0.200287,0.043677 0.2540187,0.042648 0.302143,-0.00548 C 3.2323859,3.4925068 3.1681027,3.4160001 2.9686137,3.388717 2.5608719,3.33296 2.2579244,3.021912 2.2094495,2.6094781 2.1949909,2.4864652 2.159882,2.4253339 2.1026497,2.4241766 Z"
     id="path20"
     inkscape:connector-curvature="0"
     inkscape:label="#" />
</svg>
