<?xml version="1.0" encoding="UTF-8" standalone="no"?><svg height="16" viewBox="0 0 4.2333332 4.2333332" width="16" xmlns="http://www.w3.org/2000/svg"><sodipodi:namedview/><metadata><rdf:RDF><cc:Work><dc:format>image/svg+xml</dc:format><dc:type/><dc:title/></cc:Work></rdf:RDF></metadata><path d="m2.9258172.00000005c-.3323258 0-.6041588.27183297-.6041588.60415881 0 .2517534.1560644.46933705.3762143.56036405-.0200335.32962589-.0967966.50771209-.1873155.60679709-.1047005.1146083-.2539694.164407-.4506129.215281-.1642988.0425062-.3584553.1133834-.5382027.2295276v-.9967301c.2268396-.08804.3904607-.30786945.3904607-.56405755 0-.3323259-.2739436-.60468653-.6062695-.60468653-.33232575 0-.60468645.27236063-.60468645.60468653 0 .2556048.1618078.47508455.38729475.56352985v1.8462463c-.22548695.0879-.38729475.306342-.38729475.5619468 0 .3323259.2723607.6062693.60468645.6062693.3323259 0 .6062695-.2739434.6062695-.6062693 0-.2536792-.1602348-.4711574-.3836014-.5603639.0169599-.2768901.0870359-.4048909.1725415-.4796337.097688-.0853917.2589881-.1278403.4664424-.1815115.2074542-.0536709.4638275-.1258271.6622002-.3429722.1747802-.1913199.2762577-.4810688.2991774-.890145.233313-.0846609.4031244-.30742495.4031244-.56827875 0-.33232583-.2739436-.6041588-.6062696-.6041588zm0 .3250322c.1571217 0 .2812375.12200497.2812375.27912661 0 .1571217-.1241158.2812374-.2812375.2812374-.1571216 0-.2812374-.1241157-.2812374-.2812374 0-.15712164.1241157-.27912661.2812374-.27912661zm-1.6198844.0506543c.1571217 0 .2812373.12253265.2812373.27965441 0 .1571217-.1241156.2807096-.2812373.2807096s-.2812372-.1235879-.2812372-.2807096c0-.15712176.1241155-.27965441.2812372-.27965441zm0 2.97172286c.1571217 0 .2812373.1225328.2812373.2796545 0 .1571218-.1241156.2807095-.2812373.2807095s-.2812372-.1235877-.2812372-.2807095c0-.1571217.1241155-.2796545.2812372-.2796545z" fill="#d0d0d0"/></svg>