<?xml version="1.0" encoding="UTF-8" standalone="no"?>
<svg
   xmlns:dc="http://purl.org/dc/elements/1.1/"
   xmlns:cc="http://creativecommons.org/ns#"
   xmlns:rdf="http://www.w3.org/1999/02/22-rdf-syntax-ns#"
   xmlns:svg="http://www.w3.org/2000/svg"
   xmlns="http://www.w3.org/2000/svg"
   xmlns:sodipodi="http://sodipodi.sourceforge.net/DTD/sodipodi-0.dtd"
   xmlns:inkscape="http://www.inkscape.org/namespaces/inkscape"
   height="12"
   viewBox="0 0 12 12"
   width="12"
   version="1.1"
   id="svg8"
   sodipodi:docname="glyph-display.svg"
   inkscape:version="0.92+devel (9d04be7596, 2017-09-23, custom)">
  <defs
     id="defs10" />
  <sodipodi:namedview
     id="namedview2"
     inkscape:document-rotation="0"
     showgrid="false"
     inkscape:zoom="23.53125"
     inkscape:cx="15.936255"
     inkscape:cy="16"
     inkscape:window-width="1920"
     inkscape:window-height="1017"
     inkscape:window-x="0"
     inkscape:window-y="34"
     inkscape:window-maximized="1"
     inkscape:current-layer="svg8"
     pagecolor="#002466"
     inkscape:pageopacity="0"
     borderlayer="false"
     bordercolor="#ffffff"
     borderopacity="0.34509804" />
  <metadata
     id="metadata4">
    <rdf:RDF>
      <cc:Work>
        <dc:format>image/svg+xml</dc:format>
        <dc:type
           rdf:resource="http://purl.org/dc/dcmitype/StillImage" />
        <dc:title />
      </cc:Work>
    </rdf:RDF>
  </metadata>
  <path
     d="M 0.69140625,0.33142088 C 0.30818461,0.33142088 0,0.640338 0,1.0235595 V 8.9634521 C 0,9.3466736 0.30818461,9.6555907 0.69140625,9.6555907 H 4.03125 V 10.522339 H 3.0600585 c -0.2884232,0 -0.5200194,0.232328 -0.5200194,0.520752 v 0.104736 c 0,0.288423 0.2315962,0.520752 0.5200194,0.520752 h 5.879883 c 0.2884234,0 0.5200192,-0.232329 0.5200192,-0.520752 v -0.104736 c 0,-0.288424 -0.2315958,-0.520752 -0.5200192,-0.520752 H 7.96875 V 9.6555907 h 3.339111 C 11.691083,9.6555907 12,9.3466736 12,8.9634521 V 1.0235595 C 12,0.64033801 11.691083,0.33142088 11.307861,0.33142088 Z M 1.7460937,1.5596925 h 8.5986333 c 0.255563,0 0.460693,0.2058622 0.460693,0.4614255 v 6.0275392 c 0,0.2555629 -0.20513,0.4606935 -0.460693,0.4606935 H 1.7460937 c -0.2555629,0 -0.4614257,-0.2051306 -0.4614257,-0.4606935 V 2.021118 c 0,-0.2555633 0.2058629,-0.4614255 0.4614257,-0.4614255 z"
     fill="#d0d0d0"
     stroke-linecap="square"
     stroke-width="1.491364"
     id="path6"
     inkscape:connector-curvature="0" />
</svg>
