<?xml version="1.0" encoding="UTF-8" standalone="no"?><svg height="22" viewBox="0 0 5.8208332 5.8208335" width="22" xmlns="http://www.w3.org/2000/svg"><sodipodi:namedview/><metadata><rdf:RDF><cc:Work><dc:format>image/svg+xml</dc:format><dc:type/><dc:title/></cc:Work></rdf:RDF></metadata><path d="m0 0v6.0996094h22v-6.0996094zm3.3476562 1.6738281a1.3759033 1.3759033 0 0 1 1.3769532 1.375 1.3759033 1.3759033 0 0 1 -1.3769532 1.3769531 1.3759033 1.3759033 0 0 1 -1.375-1.3769531 1.3759033 1.3759033 0 0 1 1.375-1.375zm-3.3476562 6.2753907v6.0996092h22v-6.0996092zm3.3476562 1.6738281a1.3759033 1.3759033 0 0 1 1.3769532 1.3750001 1.3759033 1.3759033 0 0 1 -1.3769532 1.376953 1.3759033 1.3759033 0 0 1 -1.375-1.376953 1.3759033 1.3759033 0 0 1 1.375-1.3750001zm-3.3476562 6.2773441v6.099609h22v-6.099609zm3.3476562 1.673828a1.3759033 1.3759033 0 0 1 1.3769532 1.375 1.3759033 1.3759033 0 0 1 -1.3769532 1.376953 1.3759033 1.3759033 0 0 1 -1.375-1.376953 1.3759033 1.3759033 0 0 1 1.375-1.375z" fill="#d0d0d0" stroke-linejoin="round" stroke-width="2" transform="scale(.26458333)"/></svg>