<?xml version="1.0" encoding="UTF-8" standalone="no"?>
<!-- Created with Inkscape (http://www.inkscape.org/) -->

<svg
   xmlns:dc="http://purl.org/dc/elements/1.1/"
   xmlns:cc="http://creativecommons.org/ns#"
   xmlns:rdf="http://www.w3.org/1999/02/22-rdf-syntax-ns#"
   xmlns:svg="http://www.w3.org/2000/svg"
   xmlns="http://www.w3.org/2000/svg"
   xmlns:sodipodi="http://sodipodi.sourceforge.net/DTD/sodipodi-0.dtd"
   xmlns:inkscape="http://www.inkscape.org/namespaces/inkscape"
   width="12"
   height="12"
   viewBox="0 0 12 12"
   version="1.1"
   id="default16"
   inkscape:version="0.92+devel (9d04be7596, 2017-09-23, custom)"
   sodipodi:docname="glyph-view-catalog.svg">
  <defs
     id="defs5" />
  <sodipodi:namedview
     id="base"
     pagecolor="#002466"
     bordercolor="#ffffff"
     borderopacity="0.38039216"
     inkscape:pageopacity="1"
     inkscape:pageshadow="2"
     inkscape:zoom="26.28125"
     inkscape:cx="7.9429251"
     inkscape:cy="8"
     inkscape:document-units="px"
     inkscape:current-layer="default16"
     inkscape:document-rotation="0"
     showgrid="false"
     inkscape:showpageshadow="false"
     borderlayer="true"
     inkscape:window-width="1920"
     inkscape:window-height="1017"
     inkscape:window-x="0"
     inkscape:window-y="34"
     inkscape:window-maximized="1"
     units="px" />
  <metadata
     id="metadata5">
    <rdf:RDF>
      <cc:Work
         rdf:about="">
        <dc:format>image/svg+xml</dc:format>
        <dc:type
           rdf:resource="http://purl.org/dc/dcmitype/StillImage" />
        <dc:title></dc:title>
      </cc:Work>
    </rdf:RDF>
  </metadata>
  <path
     style="fill:#d0d0d0;stroke:none"
     d="M 1.1992188 0 C 0.53441875 0 0 0.53441875 0 1.1992188 L 0 5.3339844 L 5.3339844 5.3339844 L 5.3339844 0 L 1.1992188 0 z M 6.6660156 0 L 6.6660156 5.3339844 L 12 5.3339844 L 12 1.1992188 C 12 0.53441875 11.465581 0 10.800781 0 L 6.6660156 0 z M 0 6.6660156 L 0 10.800781 C 4.4408921e-16 11.465581 0.53441875 12 1.1992188 12 L 5.3339844 12 L 5.3339844 6.6660156 L 0 6.6660156 z M 6.6660156 6.6660156 L 6.6660156 12 L 10.800781 12 C 11.465581 12 12 11.465581 12 10.800781 L 12 6.6660156 L 6.6660156 6.6660156 z "
     id="rect811"
     inkscape:label="#" />
</svg>
