<?xml version="1.0" encoding="UTF-8" standalone="no"?>
<!-- Created with Inkscape (http://www.inkscape.org/) -->

<svg
     xmlns:dc="http://purl.org/dc/elements/1.1/"
     xmlns:cc="http://creativecommons.org/ns#"
     xmlns:rdf="http://www.w3.org/1999/02/22-rdf-syntax-ns#"
     xmlns:svg="http://www.w3.org/2000/svg"
     xmlns="http://www.w3.org/2000/svg"
     xmlns:sodipodi="http://sodipodi.sourceforge.net/DTD/sodipodi-0.dtd"
     xmlns:inkscape="http://www.inkscape.org/namespaces/inkscape"
     width="16"
     height="16"
     viewBox="0 0 4.2333333 4.2333333"
     version="1.1"
     id="svg8"
     inkscape:version="0.92+devel (fa9b7f7a5b, 2017-07-19, custom)"
     sodipodi:docname="glyph-exe.svg">
    <defs
         id="defs2" />
    <sodipodi:namedview
         id="base"
         pagecolor="#002466"
         bordercolor="#ffffff"
         borderopacity="0.38039216"
         inkscape:pageopacity="1"
         inkscape:pageshadow="2"
         inkscape:zoom="26.8125"
         inkscape:cx="8"
         inkscape:cy="8"
         inkscape:document-units="px"
         inkscape:current-layer="svg8"
         inkscape:document-rotation="0"
         showgrid="false"
         inkscape:showpageshadow="false"
         borderlayer="true"
         inkscape:window-width="1920"
         inkscape:window-height="1051"
         inkscape:window-x="0"
         inkscape:window-y="0"
         inkscape:window-maximized="1"
         units="px" />
    <metadata
         id="metadata5">
        <rdf:RDF>
            <cc:Work
                 rdf:about="">
                <dc:format>image/svg+xml</dc:format>
                <dc:type
                     rdf:resource="http://purl.org/dc/dcmitype/StillImage" />
                <dc:title></dc:title>
            </cc:Work>
        </rdf:RDF>
    </metadata>
    <path
         style="fill-rule:evenodd;stroke-width:0.99999994;fill:#d0d0d0"
         d="M 0 0 L 0 16 L 16 16 L 16 0 L 0 0 z M 0.7265625 3.6367188 L 15.273438 3.6367188 L 15.273438 15.273438 L 0.7265625 15.273438 L 0.7265625 3.6367188 z M 7.015625 5.0527344 L 6.7070312 6.4199219 A 3.3095914 3.3095914 0 0 0 6.0117188 6.8222656 L 4.671875 6.40625 L 3.6875 8.109375 L 4.71875 9.0625 A 3.3095914 3.3095914 0 0 0 4.6914062 9.4628906 A 3.3095914 3.3095914 0 0 0 4.71875 9.8632812 L 3.6875 10.816406 L 4.671875 12.521484 L 6.0136719 12.105469 A 3.3095914 3.3095914 0 0 0 6.7070312 12.509766 L 7.015625 13.875 L 8.984375 13.875 L 9.2929688 12.505859 A 3.3095914 3.3095914 0 0 0 9.9882812 12.105469 L 11.328125 12.521484 L 12.3125 10.816406 L 11.28125 9.8652344 A 3.3095914 3.3095914 0 0 0 11.308594 9.4628906 A 3.3095914 3.3095914 0 0 0 11.28125 9.0625 L 12.3125 8.109375 L 11.328125 6.40625 L 9.9863281 6.8222656 A 3.3095914 3.3095914 0 0 0 9.2929688 6.4160156 L 8.984375 5.0527344 L 7.015625 5.0527344 z M 8 7.9824219 A 1.4821847 1.4821847 0 0 1 9.4824219 9.4628906 A 1.4821847 1.4821847 0 0 1 8 10.945312 A 1.4821847 1.4821847 0 0 1 6.5175781 9.4628906 A 1.4821847 1.4821847 0 0 1 8 7.9824219 z "
         transform="scale(0.26458333)"
         id="path1417"
         inkscape:label="#" />
</svg>
