<?xml version="1.0" encoding="UTF-8" standalone="no"?><svg height="16" viewBox="0 0 4.2333333 4.2333333" width="16" xmlns="http://www.w3.org/2000/svg"><sodipodi:namedview/><metadata><rdf:RDF><cc:Work><dc:format>image/svg+xml</dc:format><dc:type/><dc:title/></cc:Work></rdf:RDF></metadata><path d="m .60742188 2.8457031c-.33673063 0-.60742188.2706913-.60742188.6074219v9.09375c0 .336731.27069125.607422.60742188.607422h14.78515612c.336731 0 .607422-.270693.607422-.607422v-9.09375c0-.3367304-.270692-.6074219-.607422-.6074219zm11.52148412 1.546875c.134797.035807.227287.1845156.179688.3417969-.01516.049274-.06288.095518-.275391.2695312l-.259765.2109376.07812.099609c.08363.1075162.100977.1744982.06836.2792969-.01525.049266-.061.095292-.251953.2519531-.20157.1637292-.234714.1969444-.228516.2304688.01962.1219903.02899.2886713.02539.4589843-.0086.4291987-.144056.8335038-.375 1.1171876-.07974.0997968-2.2357275 1.8524131-2.3164015 1.8847659-.1166778.046439-.2815168-.0283742-.3261719-.1464844-.0269064-.0701594-.0216545-.17991.0117188-.2304688.0118273-.0184021.5144667-.430985 1.1152344-.9160156 1.0863712-.8774275 1.0925422-.8845216 1.1738282-1.0136718.04553-.072261.100949-.1848334.121094-.25.03911-.1189025.09308-.5059394.07422-.5292969-.0058-.00722-.404849.3034831-.886718.6914062l-.8750004.7050781-.4023437-.5c-.2199921-.2732674-.4012695-.5055458-.4003927-.5136718.0010508-.0097263.607042-.5029786 1.3476563-1.0976563 1.1738585-.9435299 1.3504795-1.0806094 1.4140625-1.0917969.09203-.016328.177567.017763.253906.1015626l.05469.0625.242187-.1972657c.13299-.1071345.265605-.2026859.292969-.2128906.05064-.016705.0996-.017803.144531-.00586zm-10.5175779 2.7285157c.24385 0 .4414063.1956017.4414063.4394531v.8789062c0 .2438514-.1975564.4394531-.4414063.4394531-.2438497 0-.4394531-.1956055-.4394531-.4394531v-.8789062c0-.2438514.1956037-.4394532.4394531-.4394531zm12.7773439 0c .24385 0 .439453.1956017.439453.4394531v.8789062c0 .2438514-.195602.4394531-.439453.4394531s-.439453-.1956055-.439453-.4394531v-.8789062c0-.2438514.195602-.4394532.439453-.4394531zm-6.4218751.037109c.00491.0005299.1911312.2289391.4140625.5058594l.4042968.5019534-1.7246093 1.3925782c-1.7943122 1.4444892-1.8672018 1.4992322-2.2519531 1.6875002-.3933922.192211-1.0430804.423189-1.5273438.544922-.156842.03885-.1601743.0709.027344-.251954.2907429-.503798.6719998-1.039149.9824218-1.375.1561434-.1686367.3772261-.3546412 1.9218748-1.5996089.9600839-.7729039 1.7490004-1.4067799 1.7539063-1.4062503z" fill="#d0d0d0" stroke-linejoin="round" stroke-width=".8" transform="scale(.26458333)"/></svg>