<?xml version="1.0" encoding="UTF-8" standalone="no"?><svg height="22" viewBox="0 0 5.8208332 5.8208335" width="22" xmlns="http://www.w3.org/2000/svg"><sodipodi:namedview/><metadata><rdf:RDF><cc:Work><dc:format>image/svg+xml</dc:format><dc:type/><dc:title/></cc:Work></rdf:RDF></metadata><path d="m2.75 0v5.6386719h16.5v-5.6386719zm-1.390625 7.03125c-.75295786 0-1.359375.6044633-1.359375 1.3574219v7.5820311c0 .752958.60641714 1.359375 1.359375 1.359375h19.28125c.752957 0 1.359375-.606417 1.359375-1.359375v-7.5820311c0-.7529586-.606418-1.3574219-1.359375-1.3574219zm18.212891 7.208984c.4348-.000222.787332.352308.787109.78711-.000856.434037-.353072.785379-.787109.785156-.434039.000223-.786254-.351118-.78711-.785156-.000222-.434801.352309-.787332.78711-.78711zm-15.5761722 4.38086v3.378906h14.0078122v-3.378906z" fill="#d0d0d0" stroke-width="10.899999" transform="scale(.26458333)"/></svg>