<?xml version="1.0" encoding="UTF-8" standalone="no"?><svg height="16" viewBox="0 0 4.2333333 4.2333333" width="16" xmlns="http://www.w3.org/2000/svg"><sodipodi:namedview><inkscape:grid/></sodipodi:namedview><metadata><rdf:RDF><cc:Work><dc:format>image/svg+xml</dc:format><dc:type/><dc:title/></cc:Work></rdf:RDF></metadata><path d="m8 0a8.0000006 8.0000006 0 0 0 -8 8 8.0000006 8.0000006 0 0 0 8 8 8.0000006 8.0000006 0 0 0 8-8 8.0000006 8.0000006 0 0 0 -8-8zm0 1.5a.75509572.75509572 0 0 1  .7558594.7558594.75509572.75509572 0 0 1 -.7558594.7539062.75509572.75509572 0 0 1 -.7558594-.7539062.75509572.75509572 0 0 1  .7558594-.7558594zm0 2.8710938a3.6289914 3.6289914 0 0 1 3.628906 3.6289062 3.6289914 3.6289914 0 0 1 -3.628906 3.628906 3.6289914 3.6289914 0 0 1 -3.6289062-3.628906 3.6289914 3.6289914 0 0 1 3.6289062-3.6289062z" fill="#d0d0d0" stroke-width="1.7" transform="scale(.26458333)"/><path d="m2.1166667 1.4652868c-.1166405.000273-.2310682.031858-.3313313.091456l.5524437.3189934v-.3709123c-.070859-.0258825-.1456748-.0392602-.2211124-.0395371zm.3191939.083978v.6383543l.3218298-.1857933c-.0343733-.1913146-.1523974-.3572813-.3218298-.4525606zm-.7386148.06994c-.1468181.1235521-.2316877.3055501-.2319626.497431.000071.00245.000148.00489.0002416.00736l.5530574-.3193037zm.1002269.4264483-.3218298.1857933c.034355.1913369.1523826.357329.3218298.4526221zm.9703323.063627-.5530569.3192383.3214007.1855481c.1467954-.1235629.2316418-.3055591.2319014-.49743-.000071-.00245-.0001479-.00489-.0002428-.00736zm-.8722507.2482558v.3709736c.070858.025882.1456748.03926.2211124.039537.1166671-.0002775.2311178-.031887.3313928-.091517z" fill="#fff"/></svg>