<?xml version="1.0" encoding="UTF-8" standalone="no"?><svg height="16" width="16" xmlns="http://www.w3.org/2000/svg"><metadata><rdf:RDF><cc:Work><dc:format>image/svg+xml</dc:format><dc:type/><dc:title/></cc:Work></rdf:RDF></metadata><sodipodi:namedview/><path d="m3.4775379 2.1345285c-.696376.021707-1.369019.3362893-1.884274.8128565-.52365.4843485-.89899004 1.1498172-.97499004 1.8652866-.03802.3577507-.0011.7244294.11575 1.0640574.116795.3396813.31439604.6517358.57664204.8934434.309308.2850411.695896.4648551 1.051097.6878427.177622.1115097.349233.2352489.496365.3857721.147126.1505232.269451.3290839.336817.529906.05994.1786887.07473.3717508.04797.5585088-.02676.1868274-.09484.3670894-.193958.5267274-.198235.3193346-.517869.5518426-.868643.6761626-.406844.144177-.855043.151329-1.24715204.33278-.310305.143579-.571309.393953-.734136.698403-.162785.304465-.227265.661602-.187702 1.005763.04649.404418.236875.78907.522429 1.074671.285553.285585.66341604.471607 1.05947104.53309.580695.09013 1.201444-.0988 1.623579-.514012.2110708-.207607.3720688-.467234.4619465-.751417.0898776-.284225.1084484-.592375.0500535-.884963-.0445975-.223398-.1324432-.435111-.2137715-.647522-.081323-.212492-.1576645-.429997-.1772705-.65707-.03462-.4009452.1165076-.808856.3785299-1.1106706.2620224-.3018091.6281091-.5004019 1.0146172-.5882155.2493717-.056651.5093727-.069339.7612296-.025435.2518517.043957.4956286.1447099.6996827.3009878.2040701.1562779.3671747.3686894.4577777.6115224.090603.2428276.1066564.5160659.034411.7651759-.073995.255143-.2330515.473965-.3941668.683576-.1611153.209612-.3297079.420141-.4254523.667683-.1055844.272993-.1161391.580802-.043798.864803.072342.283959.2252222.544429.4254523.75563.2215155.233707.5020286.408753.8070964.504471.3050785.09578.6171224.112342.9364303.112342.3192918 0 .6521625-.01656.9572836-.112342.3050785-.09572.5856023-.270764.8070964-.504471.2002301-.211244.3531111-.471693.4254521-.75563.07234-.284012.06179-.591789-.0438-.864803-.095741-.247548-.2643287-.458071-.4254493-.667683-.1611206-.209616-.3201772-.428438-.3941668-.683575-.07224-.249121-.056192-.5223598.034411-.7651767.090603-.2428223.2537076-.4552391.4577777-.6115224.2040704-.1562779.4478524-.2570356.6996824-.3009878.251852-.043899.511853-.031211.76123.025435.386503.087798.752589.2863904 1.014617.5882155.262022.3018092.413143.7097628.37853 1.1106714-.01961.227088-.09595.444593-.17727.657069-.08132.212438-.169175.424151-.213772.647522-.0584.292583-.03982.600696.05005.884964.08988.284171.250881.543788.461948.751416.422141.415217 1.042884.604162 1.62358.514012.396018-.06148.773923-.247504 1.059471-.53309.285552-.285585.475937-.670242.522428-1.074671.03957-.344188-.02491-.701282-.187702-1.005763-.162786-.304466-.423806-.554829-.734132-.698403-.392141-.181451-.840324-.188609-1.247152-.33278-.350764-.124315-.670402-.356828-.868643-.6761626-.099121-.1596433-.167201-.3399053-.193958-.5267274-.02676-.186774-.01197-.3798361.04797-.5585088.06737-.2008274.189686-.3793828.336817-.529906.147126-.1505232.318743-.2742624.496359-.3857721.355244-.2229662.741817-.4027802 1.051098-.6878427.262257-.2416863.459858-.5537621.576642-.8934434.11679-.339628.153761-.7062961.11575-1.0640574-.07603-.7154694-.451346-1.3809114-.974991-1.8652866-.515255-.4765885-1.187897-.7911497-1.884273-.8128565-.348189-.010853-.698883.05104-1.019844.1886461-.320956.1376112-.611149.3513987-.833177.6242157-.25454.3127692-.414519.692856-.561015 1.0704041-.146497.3776116-.2849615.7625624-.5067917 1.1001103-.365804.5565888-.9431503 1.0852308-1.6017128 1.0852308s-1.235898-.5286793-1.6017128-1.0852308c-.2218268-.3375159-.3602967-.7224561-.5067932-1.1001103-.1464966-.3775588-.3064759-.7576562-.5610155-1.0704041-.2220275-.272833-.5122206-.4866205-.8331765-.6242157-.3209559-.1376112-.6716292-.1994994-1.0198439-.1886461zm4.522524 5.1538859a1.0677907 1.0852841 0 0 1 1.0677907 1.0852308 1.0677907 1.0852841 0 0 1 -1.0677907 1.0852309 1.0677907 1.0852841 0 0 1 -1.0677908-1.0852309 1.0677907 1.0852841 0 0 1 1.0677908-1.0852308z" fill="#d0d0d0"/></svg>