<?xml version="1.0" encoding="UTF-8" standalone="no"?><svg height="16" viewBox="0 0 4.2333333 4.2333333" width="16" xmlns="http://www.w3.org/2000/svg"><sodipodi:namedview/><metadata><rdf:RDF><cc:Work><dc:format>image/svg+xml</dc:format><dc:type/><dc:title/></cc:Work></rdf:RDF></metadata><path d="m .39635168 1.2403966c-.0949-.15953-.25889-.31723997-.37728-.36272997l-.01910001-.007v-.0768-.0768l.01220001-.002 1.07507002-.002c.00064.0293.001.0902.0004099.14743-.14217992.0177-.31355992.0872-.26606992.24653997.27104992.59886.51768992 1.20849.78527992 1.80886l.45931-.85885c-.17773-.36405-.30721-.7323199-.50177-1.08947997-.0634-.10285-.23497-.10572-.35646-.10969l.00041-.14217 1.01621.004.003.13729c-.0916.0127-.1996.0344-.18736.14544997l.28843.63789c.0949-.20249.20042-.4006799.28413-.60821.038-.16431997-.14686-.17248997-.26476-.17706997l-.002-.13536.90808-.003v.13847c-.13274.009-.25831.0477-.33151.14580007-.17796.27511-.30997.58728-.44858.88609.13696.32385.27969.64726.41967.94421l.77395-1.78522c-.0522-.11767007-.17044-.15924007-.2865-.18616007l-.006-.14402.85825.007-.00002.14003c-.0382.006-.0749.0177-.11027.0332-.0671.0311-.1305.093-.17302.16872007l-1.06679 2.45445-.17877.001-.5075-1.19528-.61605 1.19519-.18495.00002c-.35992-.74973-.62031992-1.53868-.99958992-2.27939z" fill="#d0d0d0"/></svg>