<?xml version="1.0" encoding="UTF-8" standalone="no"?>
<!-- Created with Inkscape (http://www.inkscape.org/) -->

<svg
     xmlns:dc="http://purl.org/dc/elements/1.1/"
     xmlns:cc="http://creativecommons.org/ns#"
     xmlns:rdf="http://www.w3.org/1999/02/22-rdf-syntax-ns#"
     xmlns:svg="http://www.w3.org/2000/svg"
     xmlns="http://www.w3.org/2000/svg"
     xmlns:sodipodi="http://sodipodi.sourceforge.net/DTD/sodipodi-0.dtd"
     xmlns:inkscape="http://www.inkscape.org/namespaces/inkscape"
     width="16"
     height="16"
     viewBox="0 0 4.2333333 4.2333333"
     version="1.1"
     id="svg8"
     inkscape:version="0.92+devel (fa9b7f7a5b, 2017-07-19, custom)"
     sodipodi:docname="glyph-apple.svg">
    <defs
         id="defs2" />
    <sodipodi:namedview
         id="base"
         pagecolor="#002466"
         bordercolor="#ffffff"
         borderopacity="0.38039216"
         inkscape:pageopacity="1"
         inkscape:pageshadow="2"
         inkscape:zoom="10.137867"
         inkscape:cx="56.05412"
         inkscape:cy="27.302424"
         inkscape:document-units="px"
         inkscape:current-layer="svg8"
         inkscape:document-rotation="0"
         showgrid="false"
         inkscape:showpageshadow="false"
         borderlayer="true"
         inkscape:window-width="1920"
         inkscape:window-height="1051"
         inkscape:window-x="0"
         inkscape:window-y="0"
         inkscape:window-maximized="1"
         units="px" />
    <metadata
         id="metadata5">
        <rdf:RDF>
            <cc:Work
                 rdf:about="">
                <dc:format>image/svg+xml</dc:format>
                <dc:type
                     rdf:resource="http://purl.org/dc/dcmitype/StillImage" />
                <dc:title></dc:title>
            </cc:Work>
        </rdf:RDF>
    </metadata>
    <path
         id="path811"
         d="m 3.8248437,3.2990533 c -0.06402,0.147901 -0.1398,0.284043 -0.2276,0.40921 -0.11968,0.170635 -0.217671,0.288746 -0.293189,0.354335 -0.117066,0.107659 -0.242495,0.162795 -0.376807,0.165931 -0.09642,0 -0.212706,-0.02744 -0.348064,-0.0831 -0.135802,-0.0554 -0.260603,-0.08283 -0.374717,-0.08283 -0.1196801,0 -0.248035,0.02744 -0.385326,0.08283 -0.137501,0.05566 -0.24827,0.08466 -0.33296,0.08754 -0.128799,0.0055 -0.257181,-0.05122 -0.385326,-0.170373 -0.08179,-0.07134 -0.18409305,-0.19363 -0.30664705,-0.366878 -0.13149,-0.185007 -0.239594,-0.399541 -0.324284,-0.644127 -0.0907,-0.264183 -0.136168,-0.520004 -0.136168,-0.767673 0,-0.283703 0.0613,-0.528393 0.184092,-0.733442 0.0965,-0.164703 0.224883,-0.294626 0.385562,-0.390004 0.16067805,-0.09538 0.33429195,-0.143981 0.52125905,-0.147091 0.102302,0 0.236458,0.03164 0.403173,0.09384 0.166245,0.0624 0.27299,0.09405 0.31979,0.09405 0.03499,0 0.153572,-0.037 0.354596,-0.110769 0.190103,-0.06841 0.350547,-0.09674 0.481985,-0.08558 0.356164,0.02874 0.623744,0.169145 0.801696,0.422092 -0.318536,0.193003 -0.476105,0.463327 -0.472969,0.810111 0.0029,0.270115 0.100865,0.494893 0.29345,0.673367 0.08728,0.08283 0.184745,0.146855 0.293188,0.192323 -0.02352,0.0682 -0.04834,0.133529 -0.07473,0.196243 z M 3.0079917,0.08469134 c 0,0.211715 -0.07735,0.409393 -0.23152,0.592362 -0.186052,0.217513 -0.411091,0.34320296 -0.655127,0.32336996 -0.0031,-0.0254 -0.0049,-0.05213 -0.0049,-0.08022 0,-0.203246 0.08848,-0.42076 0.245604,-0.598607 0.07845,-0.09005 0.178213,-0.16492 0.299199,-0.224647 0.120725,-0.05884 0.234917,-0.09137 0.342315,-0.0969499975851 C 3.0066627,0.02829934 3.0079627,0.05660934 3.0079627,0.08468934 Z"
         inkscape:connector-curvature="0"
         style="stroke-width:0.26458332;fill:#d0d0d0"
         inkscape:label="#" />
</svg>
