<?xml version="1.0" encoding="UTF-8" standalone="no"?><svg height="16" viewBox="0 0 4.2333332 4.2333332" width="16" xmlns="http://www.w3.org/2000/svg"><sodipodi:namedview/><metadata><rdf:RDF><cc:Work><dc:format>image/svg+xml</dc:format><dc:type/><dc:title/></cc:Work></rdf:RDF></metadata><path d="m6.5546875 0-.2929687 1.6484375a6.5855519 6.5855519 0 0 0 -1.5175782.6367187c-.4907687-.3471123-.8413681-.6002812-1.3789062-.9648437l-2.0449219 2.0449219.9628906 1.375a6.5855519 6.5855519 0 0 0 -.6269531 1.5214844c-.5924188.101963-1.01877599.1707346-1.65625.2929687v2.890625l1.6484375.2929687a6.5855519 6.5855519 0 0 0  .6367187 1.5175778c-.3471123.490769-.6002812.841368-.9648437 1.378907l2.0449219 2.044922 1.375-.962891a6.5855519 6.5855519 0 0 0 1.5214844.626953c.101963.592419.1707346 1.018776.2929687 1.65625h2.890625l.2929687-1.648438a6.5855519 6.5855519 0 0 0 1.5175778-.636718c.490769.347112.841368.60028 1.378907.964844l2.044922-2.044922-.962891-1.375a6.5855519 6.5855519 0 0 0  .626953-1.5214848c.592419-.101963 1.018776-.1707346 1.65625-.2929687v-2.890625l-1.648438-.2929687a6.5855519 6.5855519 0 0 0 -.636718-1.5175782c.347112-.4907687.60028-.8413681.964844-1.3789062l-2.044922-2.0449219-1.375.9628906a6.5855519 6.5855519 0 0 0 -1.5214848-.6269531c-.101963-.5924188-.1707346-1.01877599-.2929687-1.65625zm1.4453125 4.8769531a3.1223203 3.1223203 0 0 1 3.123047 3.1230469 3.1223203 3.1223203 0 0 1 -3.123047 3.123047 3.1223203 3.1223203 0 0 1 -3.1230469-3.123047 3.1223203 3.1223203 0 0 1 3.1230469-3.1230469z" fill="#d0d0d0" stroke-width="3.647244" transform="scale(.26458333)"/></svg>