<?xml version="1.0" encoding="UTF-8" standalone="no"?><svg height="16" viewBox="0 0 4.2333333 4.2333333" width="16" xmlns="http://www.w3.org/2000/svg"><sodipodi:namedview/><metadata><rdf:RDF><cc:Work><dc:format>image/svg+xml</dc:format><dc:type/><dc:title/></cc:Work></rdf:RDF></metadata><path d="m0 .00000001v.55242105h4.2333333v-.55242105zm1.7425292.92035726.00568.16123043 1.1043254 1.4949991-1.1963095 1.4727785v.183968h2.5771081v-.9203573h-.1839683c0 .1840582.047449.2979933-.1095539.4082438-.1720948.1207421-.3990782.1441773-.5984131.1441773h-.9487792l.9203572-1.2888103-.9203572-1.4722614h.5405354c.383577 0 .92974-.035251 1.0815878.4258138.025956.078777.028.2277493.034623.3105753h.1839684v-.92035723zm-1.7425292.16123043v.7725626h1.7368448l-.5705078-.7725626zm0 1.0976074v.7725627h1.9657714l.3048909-.375171-.2935221-.3973917zm0 1.0976076v.7725626h1.0743529l.6273519-.7725626z" fill="#d0d0d0" stroke-width=".264583"/></svg>