<?xml version="1.0" encoding="UTF-8" standalone="no"?>
<!-- Created with Inkscape (http://www.inkscape.org/) -->

<svg
   xmlns:dc="http://purl.org/dc/elements/1.1/"
   xmlns:cc="http://creativecommons.org/ns#"
   xmlns:rdf="http://www.w3.org/1999/02/22-rdf-syntax-ns#"
   xmlns:svg="http://www.w3.org/2000/svg"
   xmlns="http://www.w3.org/2000/svg"
   xmlns:sodipodi="http://sodipodi.sourceforge.net/DTD/sodipodi-0.dtd"
   xmlns:inkscape="http://www.inkscape.org/namespaces/inkscape"
   width="12"
   height="12"
   viewBox="0 0 12 12"
   version="1.1"
   id="default16"
   inkscape:version="0.92+devel (1da36c2be7, 2017-09-15, custom)"
   sodipodi:docname="glyph-text-flow.svg">
  <defs
     id="defs5" />
  <sodipodi:namedview
     id="base"
     pagecolor="#002466"
     bordercolor="#ffffff"
     borderopacity="0.38039216"
     inkscape:pageopacity="1"
     inkscape:pageshadow="2"
     inkscape:zoom="26.28125"
     inkscape:cx="7.7336504"
     inkscape:cy="8"
     inkscape:document-units="px"
     inkscape:current-layer="default16"
     inkscape:document-rotation="0"
     showgrid="false"
     inkscape:showpageshadow="false"
     borderlayer="true"
     inkscape:window-width="1920"
     inkscape:window-height="1029"
     inkscape:window-x="0"
     inkscape:window-y="22"
     inkscape:window-maximized="1"
     units="px"
     inkscape:snap-page="true" />
  <metadata
     id="metadata5">
    <rdf:RDF>
      <cc:Work
         rdf:about="">
        <dc:format>image/svg+xml</dc:format>
        <dc:type
           rdf:resource="http://purl.org/dc/dcmitype/StillImage" />
        <dc:title></dc:title>
      </cc:Work>
    </rdf:RDF>
  </metadata>
  <path
     style="fill:#d0d0d0;stroke-dasharray:3, 1;stroke:none"
     d="M 0 0 L 0 12 L 5.1914062 12 L 5.1914062 0 L 0 0 z M 6.8085938 0 L 6.8085938 12 L 12 12 L 12 0 L 6.8085938 0 z M 0.96875 1.0390625 L 4.1210938 1.0390625 L 4.1210938 2.0390625 L 0.96875 2.0390625 L 0.96875 1.0390625 z M 7.7773438 1.0390625 L 10.929688 1.0390625 L 10.929688 2.0390625 L 7.7773438 2.0390625 L 7.7773438 1.0390625 z M 0.96875 2.8378906 L 4.1210938 2.8378906 L 4.1210938 3.8378906 L 0.96875 3.8378906 L 0.96875 2.8378906 z M 7.7773438 2.8378906 L 10.929688 2.8378906 L 10.929688 3.8378906 L 7.7773438 3.8378906 L 7.7773438 2.8378906 z M 0.96875 4.6757812 L 4.1210938 4.6757812 L 4.1210938 5.6757812 L 0.96875 5.6757812 L 0.96875 4.6757812 z M 7.7773438 4.6757812 L 10.929688 4.6757812 L 10.929688 5.6757812 L 7.7773438 5.6757812 L 7.7773438 4.6757812 z "
     id="rect811"
     inkscape:label="#" />
</svg>
