<?xml version="1.0" encoding="UTF-8" standalone="no"?>
<svg height="22" viewBox="0 0 22 22" width="22" xmlns="http://www.w3.org/2000/svg">
	<sodipodi:namedview/>
	<metadata>
		<rdf:RDF>
			<cc:Work>
				<dc:format>image/svg+xml			</dc:format>
			<dc:type/>
			<dc:title/>
		</cc:Work>
	</rdf:RDF>
</metadata>
<path d="M 7.0058594 0 V .90429688 V 4.0292969 H 2.6503906 v 2.625 H 3.9980469 V 22 H 18.001953 V 6.6542969 h 1.347656 v -2.625 H 14.994141 V 0 Z M 8.8144531 1.8085938 H 13.185547 V 4.0292969 H 8.8144531 Z M 8.1414062 8.78125 c .5565041 0 1.0039063 .4751405 1.0039063 1.0664062 v 8.2421878 c 0 .591266 -.4474021 1.066406 -1.0039063 1.066406 c -.556504 0 -1.0058593 -.47514 -1.0058593 -1.066406 V 9.8476562 c 0 -.5912657 .4493553 -1.0664062 1.0058593 -1.0664062 z m 5.7191408 0 c .556505 0 1.003906 .4751404 1.003906 1.0664062 v 8.2421878 c 0 .591266 -.447401 1.066406 -1.003906 1.066406 c -.556504 0 -1.003906 -.47514 -1.003906 -1.066406 V 9.8476562 c 0 -.5912657 .447402 -1.0664062 1.003906 -1.0664062 z" fill="#fff"/>
</svg>
