<?xml version="1.0" encoding="UTF-8" standalone="no"?>
<!-- Created with Inkscape (http://www.inkscape.org/) -->

<svg
   xmlns:dc="http://purl.org/dc/elements/1.1/"
   xmlns:cc="http://creativecommons.org/ns#"
   xmlns:rdf="http://www.w3.org/1999/02/22-rdf-syntax-ns#"
   xmlns:svg="http://www.w3.org/2000/svg"
   xmlns="http://www.w3.org/2000/svg"
   xmlns:xlink="http://www.w3.org/1999/xlink"
   xmlns:sodipodi="http://sodipodi.sourceforge.net/DTD/sodipodi-0.dtd"
   xmlns:inkscape="http://www.inkscape.org/namespaces/inkscape"
   width="16"
   height="16"
   viewBox="0 0 4.2333332 4.2333332"
   version="1.1"
   id="svg8"
   inkscape:version="0.92+devel (f96dc7e339, 2017-07-28, custom)"
   sodipodi:docname="glyph-bluegriffon.svg">
  <defs
     id="defs2">
    <linearGradient
       gradientUnits="userSpaceOnUse"
       y2="561.711"
       x2="528.571"
       y1="410.059"
       x1="376.919"
       id="linearGradient3353"
       xlink:href="#linearGradient3347"
       gradientTransform="matrix(0.089192,0,0,0.08774361,-39.084647,-42.164488)" />
    <linearGradient
       id="linearGradient3347">
      <stop
         id="stop812"
         offset="0"
         style="stop-color:#006680;stop-opacity:1;" />
      <stop
         id="stop814"
         style="stop-color:#80b3ff;stop-opacity:1"
         offset=".252" />
      <stop
         id="stop816"
         offset=".459"
         style="stop-color:#0066ff;stop-opacity:1" />
      <stop
         id="stop818"
         style="stop-color:#002255;stop-opacity:1"
         offset=".899" />
      <stop
         id="stop820"
         offset="1"
         style="stop-color:#006680;stop-opacity:0;" />
    </linearGradient>
  </defs>
  <sodipodi:namedview
     id="base"
     pagecolor="#002466"
     bordercolor="#ffffff"
     borderopacity="0.38039216"
     inkscape:pageopacity="1"
     inkscape:pageshadow="2"
     inkscape:zoom="36.415999"
     inkscape:cx="10.094581"
     inkscape:cy="7.9162778"
     inkscape:document-units="px"
     inkscape:current-layer="svg8"
     inkscape:document-rotation="0"
     showgrid="false"
     inkscape:showpageshadow="false"
     borderlayer="true"
     inkscape:window-width="1920"
     inkscape:window-height="1051"
     inkscape:window-x="0"
     inkscape:window-y="0"
     inkscape:window-maximized="1"
     units="px" />
  <metadata
     id="metadata5">
    <rdf:RDF>
      <cc:Work
         rdf:about="">
        <dc:format>image/svg+xml</dc:format>
        <dc:type
           rdf:resource="http://purl.org/dc/dcmitype/StillImage" />
        <dc:title></dc:title>
      </cc:Work>
    </rdf:RDF>
  </metadata>
  <path
     style="fill:#d0d0d0;fill-opacity:1;stroke-width:0.26458332"
     d="m 4.2333088,5.1358048e-4 c 0,-0.00595 -0.067723,0.0403269995 -0.1505442,0.10278329952 C 3.303671,0.69083638 2.3298458,1.2046662 1.7845814,1.3159575 L 1.681779,1.3369715 1.642803,1.4393272 C 1.5070092,1.7963161 1.1209945,2.0494781 0.51581029,2.1783895 c -0.095615,0.020372 -0.198191,0.049419 -0.2279228,0.064534 -0.091852,0.046699 -0.1985774,0.1535463 -0.2468279,0.2471623 -0.03898,0.075601 -0.045011,0.1082094 -0.039122,0.2106911 0.00495,0.086256 0.016855,0.1319404 0.041224,0.1584136 0.032771,0.035606 0.114461,0.054283 0.093819,0.02144 -0.016231,-0.025828 0.060674,-0.1081628 0.1367104,-0.1463042 0.1231181,-0.061752 0.314393,-0.090938 0.5145208,-0.088248 0.035734,6.36e-4 0.078722,0.00219 0.1083734,0.00449 0.14986651,0.010604 0.29885351,0.038849 0.42251461,0.085047 0.066495,0.024843 0.122808,0.05464 0.1685132,0.08818 0.170631,0.087398 0.314175,0.2011163 0.4347553,0.3324207 1.026e-4,-0.00436 5.28e-4,-0.00851 5.28e-4,-0.012957 7.4e-4,-0.086322 0.00377,-0.1569531 0.00651,-0.1569901 0.00275,-3.39e-5 0.013626,0.022078 0.024124,0.049219 0.025455,0.065727 0.038718,0.1349133 0.041222,0.2044956 C 2.2236224,3.5242086 2.3589654,3.874371 2.4384219,4.2123945 2.5443326,4.0319699 2.6446659,3.7933533 2.6451136,3.6959168 2.6457496,3.5516724 2.7474227,3.8348073 2.779504,4.0702931 L 2.801675,4.2333349 2.841883,4.1346119 C 2.909095,3.9695349 2.940659,3.7969292 2.940848,3.5936326 2.9409496,3.4885465 2.935618,3.3856002 2.928892,3.3648474 c -0.00669,-0.020754 -0.00488,-0.037751 0.00409,-0.037751 0.022009,0 0.1970586,0.1753734 0.2419013,0.2423184 0.042316,0.063165 0.045527,0.035579 0.010791,-0.092669 C 3.093816,3.1375751 2.8303659,2.8180343 2.4544551,2.5898109 l -0.1452574,-0.088179 0.072302,-0.00212 c 0.039734,-0.00115 0.096884,-0.0076 0.1270033,-0.014314 L 2.56327,2.4730139 2.490245,2.4485819 2.41722,2.4240779 2.534221,2.4005749 c 0.064367,-0.012927 0.1753109,-0.050615 0.246468,-0.083765 l 0.12932,-0.060261 -0.1642439,0.0064 -0.1643096,0.0064 0.1277949,-0.042384 c 0.1778023,-0.058998 0.5189129,-0.2350835 0.4970658,-0.2565646 -0.00308,-0.00307 -0.066943,0.010139 -0.1418528,0.029276 -0.2202288,0.056226 -0.2434772,0.04391 -0.07136,-0.037822 0.1675533,-0.079566 0.4033639,-0.2292701 0.5192315,-0.3296457 l 0.073028,-0.06325 -0.1368523,0.060686 c -0.1162575,0.051558 -0.38162,0.1362668 -0.4268638,0.1362668 -0.00763,0 0.039136,-0.027145 0.1038893,-0.060328 0.1854022,-0.09501 0.352947,-0.2208373 0.5601659,-0.4205313 L 3.8773993,1.1002848 3.7222887,1.1808441 C 3.5755835,1.2569891 3.2659392,1.3937556 3.2659392,1.382423 c 0,-0.00288 0.039036,-0.032391 0.086721,-0.065531 0.1850349,-0.1285876 0.5126094,-0.46834042 0.706506,-0.73272502 l 0.070424,-0.095947 -0.1726453,0.1326262 c -0.1843206,0.1416581 -0.5607826,0.38174752 -0.575667,0.367114 -0.0049,-0.00483 0.013416,-0.023223 0.040717,-0.040816 0.080603,-0.051924 0.4353936,-0.4459482 0.6304357,-0.7001008 0.09949,-0.1296438 0.1809034,-0.2405763 0.1809034,-0.24652309952 z"
     id="path825"
     inkscape:connector-curvature="0"
     inkscape:label="#" />
</svg>
