<?xml version="1.0" encoding="UTF-8" standalone="no"?>
<!-- Created with Inkscape (http://www.inkscape.org/) -->

<svg xmlns:dc="http://purl.org/dc/elements/1.1/" xmlns:cc="http://creativecommons.org/ns#" xmlns:rdf="http://www.w3.org/1999/02/22-rdf-syntax-ns#" xmlns:svg="http://www.w3.org/2000/svg" xmlns="http://www.w3.org/2000/svg" xmlns:sodipodi="http://sodipodi.sourceforge.net/DTD/sodipodi-0.dtd" xmlns:inkscape="http://www.inkscape.org/namespaces/inkscape" width="12" height="12" viewBox="0 0 12 12" version="1.1" id="default16" inkscape:version="0.92+devel (f318dbfe43, 2017-10-09, custom)" sodipodi:docname="glyph-binocular.svg">
  <defs id="defs5" />
  <sodipodi:namedview id="base" pagecolor="#002466" bordercolor="#ffffff" borderopacity="0.38039216" inkscape:pageopacity="1" inkscape:pageshadow="2" inkscape:zoom="32" inkscape:cx="5.0886715" inkscape:cy="9.1300665" inkscape:document-units="px" inkscape:current-layer="default16" inkscape:document-rotation="0" showgrid="false" inkscape:showpageshadow="false" borderlayer="true" inkscape:window-width="1920" inkscape:window-height="1027" inkscape:window-x="0" inkscape:window-y="24" inkscape:window-maximized="1" units="px" inkscape:snap-intersection-paths="true" inkscape:object-paths="true" inkscape:snap-smooth-nodes="true" inkscape:snap-center="true" inkscape:object-nodes="true" inkscape:snap-object-midpoints="true" />
  <metadata id="metadata5">
    <rdf:RDF>
      <cc:Work rdf:about="">
        <dc:format>image/svg+xml</dc:format>
        <dc:type rdf:resource="http://purl.org/dc/dcmitype/StillImage" />
        <dc:title></dc:title>
      </cc:Work>
    </rdf:RDF>
  </metadata>
  <path style="fill:#d0d0d0;stroke-width:1.49999988;stroke-linecap:round" d="M 3.3630725,0.80240072 C 2.4042661,0.80243842 1.7217826,1.734492 1.5186481,2.5384973 1.4426655,2.8392356 1.3092484,3.2825789 1.2264479,3.610373 1.7401932,3.1379851 2.4229006,2.8419552 3.0722977,2.8421004 3.822771,2.8419326 4.4403264,3.1227941 4.8639836,3.7942453 L 4.9908412,2.5384973 C 5.0507808,1.5796933 4.3218741,0.80243852 3.3630725,0.80240072 Z m 5.2738566,0 C 7.6781274,0.80243852 6.9492208,1.5796933 7.0091603,2.5384973 L 7.136018,3.7942453 C 7.5596752,3.1227941 8.1772306,2.8419326 8.9277035,2.8421004 9.5771007,2.8419552 10.259808,3.1379851 10.773553,3.610373 10.690753,3.2825789 10.557336,2.8392356 10.481354,2.5384973 10.27822,1.734492 9.5957359,0.80243842 8.6369291,0.80240072 Z M 3.0224099,3.5120227 C 2.018767,3.5129276 1.138362,4.2460715 0.73897254,5.62014 c -0.2554483,0.8788509 -0.6456912,2.5599585 -0.645691,2.5599585 -0.00537,0.020856 -0.010834,0.041764 -0.015679,0.062716 l -0.021381,0.081246 h 0.00285 c -0.027722,0.1244621 -0.045335,0.2502531 -0.054164,0.3762968 -0.085807,1.3795417 0.9637414,2.4975407 2.34330276,2.4972417 1.3590032,2.95e-4 2.5264962,-1.086213 2.6440591,-2.4373768 C 4.9786026,7.5704233 4.2512551,6.4979655 3.1663719,6.1788837 2.6196042,6.0185793 2.0394552,6.0703436 1.5229242,6.3242711 2.0804829,5.8158535 2.8476749,5.7353383 3.5269897,5.8396464 c 0.5662695,0.08695 1.035864,0.3489421 1.4724037,0.8865781 0.301099,0.3708291 0.5473958,0.7739741 1.0006074,0.773974 0.4532116,1e-7 0.6995085,-0.4031449 1.0006074,-0.773974 C 7.4371479,6.1885885 7.9067423,5.9265965 8.4730119,5.8396464 9.1523271,5.7353383 9.9195179,5.8158535 10.477077,6.3242711 9.9605458,6.0703436 9.3803974,6.0185793 8.8336296,6.1788837 7.7487463,6.4979655 7.021399,7.5704233 7.007735,8.7602232 c 0.1175629,1.3511618 1.285056,2.4376708 2.6440551,2.4373758 1.3795619,3e-4 2.4291029,-1.1177 2.3433029,-2.4972417 -0.0088,-0.1260438 -0.02644,-0.2518347 -0.05417,-0.3762968 h 0.0029 l -0.02138,-0.081246 c -0.0048,-0.020952 -0.01028,-0.041861 -0.01568,-0.062716 0,0 -0.390243,-1.6811076 -0.645691,-2.5599584 C 10.86164,4.2460715 9.9812345,3.5129276 8.9775918,3.5120227 8.1519594,3.5112799 7.7712096,3.9350062 7.3697782,4.4370856 6.9696779,4.9375001 6.6400265,4.2261314 6.0000008,4.2261314 c -0.6400257,0 -0.9696772,0.7113687 -1.3697774,0.2109542 C 4.2287919,3.9350062 3.8480421,3.5112799 3.0224099,3.5120227 Z m -0.48605,3.4265814 C 3.5439138,6.9387237 4.3313518,7.7555151 4.2952623,8.7630732 4.2590583,9.7707222 3.4128746,10.587551 2.4052262,10.587543 1.3976721,10.587423 0.61023414,9.7706312 0.64632374,8.7630732 0.68252774,7.7554246 1.5287114,6.9385956 2.5363599,6.9386041 Z m 6.9272822,0 c 1.0076479,-8.5e-6 1.8538309,0.8168205 1.8900359,1.8244691 0.03609,1.007558 -0.751348,1.8243498 -1.7589025,1.8244698 -1.0076484,8e-6 -1.8538321,-0.8168208 -1.8900362,-1.8244698 -0.03609,-1.0075581 0.7513482,-1.8243495 1.7589028,-1.8244691 z" id="path819" inkscape:connector-curvature="0" />
</svg>
