<?xml version="1.0" encoding="UTF-8" standalone="no"?>
<!-- Created with Inkscape (http://www.inkscape.org/) -->

<svg
   xmlns:dc="http://purl.org/dc/elements/1.1/"
   xmlns:cc="http://creativecommons.org/ns#"
   xmlns:rdf="http://www.w3.org/1999/02/22-rdf-syntax-ns#"
   xmlns:svg="http://www.w3.org/2000/svg"
   xmlns="http://www.w3.org/2000/svg"
   xmlns:sodipodi="http://sodipodi.sourceforge.net/DTD/sodipodi-0.dtd"
   xmlns:inkscape="http://www.inkscape.org/namespaces/inkscape"
   width="16"
   height="16"
   viewBox="0 0 4.2333332 4.2333332"
   version="1.1"
   id="svg8"
   inkscape:version="0.92+devel (b8837397f6, 2017-07-27, custom)"
   sodipodi:docname="glyph-openbravo.svg">
  <defs
     id="defs2">
    <linearGradient
       gradientTransform="matrix(0.22434442,0,0,0.22434448,-10.202119,-11.40757)"
       y2="36.609001"
       x2="56.818001"
       y1="81.489998"
       x1="56.580002"
       gradientUnits="userSpaceOnUse"
       id="1-4">
      <stop
         stop-color="#00a661"
         id="stop2" />
      <stop
         stop-color="#37ce97"
         offset="1"
         id="stop4" />
    </linearGradient>
  </defs>
  <sodipodi:namedview
     id="base"
     pagecolor="#002466"
     bordercolor="#ffffff"
     borderopacity="0.38039216"
     inkscape:pageopacity="1"
     inkscape:pageshadow="2"
     inkscape:zoom="36.415999"
     inkscape:cx="10.094581"
     inkscape:cy="7.9162778"
     inkscape:document-units="px"
     inkscape:current-layer="svg8"
     inkscape:document-rotation="0"
     showgrid="false"
     inkscape:showpageshadow="false"
     borderlayer="true"
     inkscape:window-width="1920"
     inkscape:window-height="1051"
     inkscape:window-x="0"
     inkscape:window-y="0"
     inkscape:window-maximized="1"
     units="px" />
  <metadata
     id="metadata5">
    <rdf:RDF>
      <cc:Work
         rdf:about="">
        <dc:format>image/svg+xml</dc:format>
        <dc:type
           rdf:resource="http://purl.org/dc/dcmitype/StillImage" />
        <dc:title></dc:title>
      </cc:Work>
    </rdf:RDF>
  </metadata>
  <path
     style="color:#000000;fill:#d0d0d0;stroke:none;stroke-width:0.24815238;stroke-linecap:round;stroke-linejoin:round"
     d="m 2.1170031,-6e-7 c -0.2307964,0 -0.4532741,0.037116 -0.6614636,0.1053885 v 2.0112793 c 0,0.3653191 0.2961473,0.6614651 0.6614636,0.6614651 0.3653191,0 0.6614663,-0.296146 0.6614663,-0.6614651 0,-0.3653205 -0.2961472,-0.6614665 -0.6614663,-0.6614665 V 0.7937356 c 0.7306393,0 1.3229312,0.5922933 1.3229312,1.3229316 0,0.7306369 -0.5922919,1.3229315 -1.3229312,1.3229315 -0.7306368,0 -1.32293001,-0.5922946 -1.32293001,-1.3229315 V 0.4650827 C 0.3105437,0.8530099 0,1.4484526 0,2.1166672 c 0,1.1689514 0.94760247,2.1166666 2.1166673,2.1166666 1.168951,0 2.1166659,-0.9476028 2.1166659,-2.1166666 C 4.2333332,0.9477145 3.285732,-6e-7 2.1166673,-6e-7"
     id="path19"
     inkscape:connector-curvature="0"
     inkscape:label="#" />
</svg>
