<?xml version="1.0" encoding="UTF-8" standalone="no"?><svg height="22" viewBox="0 0 5.8208332 5.8208335" width="22" xmlns="http://www.w3.org/2000/svg"><sodipodi:namedview/><metadata><rdf:RDF><cc:Work><dc:format>image/svg+xml</dc:format><dc:type/><dc:title/></cc:Work></rdf:RDF></metadata><path d="m11 0c-6.0751322 0-11 4.9248678-11 11 0 6.075132 4.9248678 11 11 11 6.075132 0 11-4.924868 11-11 0-6.0751322-4.924868-11-11-11zm4.320703 3.0722656c3.484209 0-.216489 5.0898438-2.175781 5.0898438-1.960095 0-1.307998-5.0898438 2.175781-5.0898438zm-5.365234.7832032c1.726954.0055812.613347 3.581903-.4042971 3.5234374-1.0509664-.0599142-1.7457191-3.2739175.2285161-3.5136718.061761-.0063874.120902-.0099607.175781-.0097656zm-3.4238284 1.1855468c1.1660916.0728629 1.0504307 2.9537861.2441406 3.1113282-.8883333.1738582-2.2332944-2.4105722-.6464843-3.0371094.1488574-.0585373.2815651-.0812487.4023437-.0742188zm-2.5898437 2.1152344c.9656984.0336525 1.3822601 2.6286664.7285156 2.927734-.7473664.341411-2.4440323-1.8619409-1.1738281-2.7734371.1591487-.1139603.3073896-.1581898.4453125-.1542969zm7.5019531 2.1015625c1.65123.027182 2.986972.5534706 3.166016 1.5878905.575244 3.322962-8.1471347 4.536517-4.863282 6.96875 1.031637.7639 2.085616.179314 1.925782-1.005859-.132949-.988569 3.571423-1.587882 3.28125-.09375-.380318 1.959635-2.410988 3.505859-4.171875 3.505859-3.5794983 0-7.0100371-4.049856-6.3398441-6.96875.6193126-2.697468 4.2498398-4.0395088 7.0019531-3.9941405z" fill="#fff" stroke-linecap="round" stroke-linejoin="round" stroke-width="3.358501" transform="scale(.26458333)"/></svg>