<?xml version="1.0" encoding="UTF-8" standalone="no"?><svg height="22" viewBox="0 0 22 22" width="22" xmlns="http://www.w3.org/2000/svg"><sodipodi:namedview/><metadata><rdf:RDF><cc:Work><dc:format>image/svg+xml</dc:format><dc:type/><dc:title/></cc:Work></rdf:RDF></metadata><path d="m9.0234375 0-6.5546875 6.5527344v15.4472656h17.0625v-22zm1.5371095 9.4394531c3.4582-.0000011 6.261719 4.1054689 6.261719 4.1054689s-2.80352 4.10547-6.261719 4.105469c-3.4581977 0-6.2617189-4.105469-6.2617189-4.105469s2.8035222-4.1054696 6.2617189-4.1054689zm0 1.2324219a2.8731991 2.8731991 0 0 0 -2.873047 2.873047 2.8731991 2.8731991 0 0 0 2.873047 2.871094 2.8731991 2.8731991 0 0 0 2.873047-2.871094 2.8731991 2.8731991 0 0 0 -2.873047-2.873047z" fill="#d0d0d0" stroke-linecap="square" stroke-width="1.1"/></svg>