<?xml version="1.0" encoding="UTF-8" standalone="no"?><svg height="16mm" viewBox="0 0 16 16" width="16mm" xmlns="http://www.w3.org/2000/svg"><sodipodi:namedview/><metadata><rdf:RDF><cc:Work><dc:format>image/svg+xml</dc:format><dc:type/><dc:title/></cc:Work></rdf:RDF></metadata><path d="m9.4019798-.00002818-9.31467668 1.80299068v12.2442135l9.31467668 1.952852zm.5891114 3.39255788v3.1295247l1.0934738.6883301c.02885.008.09156.009.120406 0l4.707206-3.1734498c0-.3755898-.350579-.6444049-.548287-.6444049zm-5.1418051 1.8091917c.61476 0 1.11219.251403 1.491382.7549929.3797935.5035799.5699911 1.1666863.5699911 1.9905763.0006085.84672-.1965299 1.52942-.5901451 2.04742-.393615.5180094-.907085.7777294-1.540474.7777294-.617165 0-1.119628-.251135-1.508436-.752925-.388206-.5023794-.58291-1.1562104-.58291-1.9626704 0-.85153.197395-1.540204.592212-2.0660239.394817-.52582.917563-.7890992 1.56838-.7890993zm11.0634079.1002522s-4.782536 3.176558-4.613672 3.073198c0 0-.169439.10336-.310059 0l-.9978718-.6857471h-.00103v4.2534865h5.0710088c.450704 0 .851627-.262654.851627-.888834zm-11.0897629.9446453c-.340132 0-.611207.1599407-.81132.4790406-.200113.3191-.300757.741803-.300757 1.267623 0 .5336301.100644.955476.300757 1.2655561.200113.3106899.462525.4650879.787032.4650879.334723 0 .600428-.151006.796334-.452686.195906-.3016699.294556-.720297.294556-1.2557369 0-.5582701-.09476-.9931171-.285254-1.3037961-.190498-.3100905-.450832-.4650886-.781348-.4650886z" fill="#d0d0d0" stroke-width=".153384"/></svg>