<?xml version="1.0" encoding="UTF-8" standalone="no"?>
<!-- Created with Inkscape (http://www.inkscape.org/) -->

<svg
   xmlns:dc="http://purl.org/dc/elements/1.1/"
   xmlns:cc="http://creativecommons.org/ns#"
   xmlns:rdf="http://www.w3.org/1999/02/22-rdf-syntax-ns#"
   xmlns:svg="http://www.w3.org/2000/svg"
   xmlns="http://www.w3.org/2000/svg"
   xmlns:sodipodi="http://sodipodi.sourceforge.net/DTD/sodipodi-0.dtd"
   xmlns:inkscape="http://www.inkscape.org/namespaces/inkscape"
   width="16"
   height="16"
   viewBox="0 0 4.2333333 4.2333333"
   version="1.1"
   id="svg8"
   inkscape:version="0.92+devel (0526f3edb8, 2017-07-23, custom)"
   sodipodi:docname="glyph-bluray.svg">
  <defs
     id="defs2" />
  <sodipodi:namedview
     id="base"
     pagecolor="#002466"
     bordercolor="#ffffff"
     borderopacity="0.38039216"
     inkscape:pageopacity="1"
     inkscape:pageshadow="2"
     inkscape:zoom="32.836271"
     inkscape:cx="8"
     inkscape:cy="8"
     inkscape:document-units="px"
     inkscape:current-layer="svg8"
     inkscape:document-rotation="0"
     showgrid="false"
     inkscape:showpageshadow="false"
     borderlayer="true"
     inkscape:window-width="1920"
     inkscape:window-height="1051"
     inkscape:window-x="0"
     inkscape:window-y="0"
     inkscape:window-maximized="1"
     units="px" />
  <metadata
     id="metadata5">
    <rdf:RDF>
      <cc:Work
         rdf:about="">
        <dc:format>image/svg+xml</dc:format>
        <dc:type
           rdf:resource="http://purl.org/dc/dcmitype/StillImage" />
        <dc:title />
      </cc:Work>
    </rdf:RDF>
  </metadata>
  <path
     style="fill:#d0d0d0;fill-opacity:1;fill-rule:nonzero;stroke:none;stroke-width:0.00336396"
     d="m 1.9945833,1.2032854 c -0.00225,0 -0.01804,0.00138 -0.01804,0.014282 0,0.011186 0.00806,0.015034 0.016161,0.015034 0.6357147,0 1.6697745,0.2522978 1.6360317,0.7990359 -0.027208,0.4455721 -0.8337624,0.9666605 -2.69101466,0.9666605 -0.0109312,0 -0.0184162,0.00787 -0.0184162,0.014658 0,0.00698 0.004256,0.013152 0.0172886,0.014658 0,0 3.22674726,0.1309953 3.29574136,-0.9967278 C 4.2880092,1.1163039 1.9966568,1.2032854 1.9945833,1.2032854 Z M 0.44574653,1.3555007 c -0.002691,0 -0.005238,0.00135 -0.006765,0.00338 C 0.25166602,1.6226044 0.13823717,1.8016952 0.02104741,2.01848 l -0.011651,0.023678 -0.003383,0.00789 c -0.009942,0.02099 -0.007468,0.044407 0.006765,0.066524 0.0693694,0.108455 0.4579447,0.2349001 1.32558779,0.2349001 0.6470248,0 1.3349838,-0.10438 1.3349838,-0.2980412 0,-0.1870639 -0.6789733,-0.298417 -1.3349838,-0.298417 -0.2177273,0 -0.43308615,0.030476 -0.49535713,0.040215 0.0594418,-0.091489 0.30561203,-0.4226839 0.30818883,-0.4262026 0.00109,-0.00145 0.00188,-0.00344 0.00188,-0.00526 0,-0.00131 -5.915e-4,-0.00238 -0.00113,-0.00376 -0.00145,-0.00276 -0.00453,-0.00451 -0.00752,-0.00451 z M 1.3383666,1.9564689 c 0.396559,0 0.6396798,0.056565 0.6396798,0.096967 0,0.040467 -0.2431208,0.096591 -0.6396798,0.096591 -0.39643386,0 -0.63967973,-0.056125 -0.63967973,-0.096591 0,-0.040401 0.24324587,-0.096967 0.63967973,-0.096967 z"
     id="path145"
     inkscape:connector-curvature="0"
     inkscape:label="#" />
</svg>
