<?xml version="1.0" encoding="UTF-8" standalone="no"?>
<!-- Created with Inkscape (http://www.inkscape.org/) -->

<svg
   xmlns:dc="http://purl.org/dc/elements/1.1/"
   xmlns:cc="http://creativecommons.org/ns#"
   xmlns:rdf="http://www.w3.org/1999/02/22-rdf-syntax-ns#"
   xmlns:svg="http://www.w3.org/2000/svg"
   xmlns="http://www.w3.org/2000/svg"
   xmlns:sodipodi="http://sodipodi.sourceforge.net/DTD/sodipodi-0.dtd"
   xmlns:inkscape="http://www.inkscape.org/namespaces/inkscape"
   width="16"
   height="16"
   viewBox="0 0 4.2333332 4.2333332"
   version="1.1"
   id="svg8"
   inkscape:version="0.92+devel (b8837397f6, 2017-07-27, custom)"
   sodipodi:docname="glyph-algebra.svg">
  <defs
     id="defs2" />
  <sodipodi:namedview
     id="base"
     pagecolor="#002466"
     bordercolor="#ffffff"
     borderopacity="0.38039216"
     inkscape:pageopacity="1"
     inkscape:pageshadow="2"
     inkscape:zoom="36.415999"
     inkscape:cx="8"
     inkscape:cy="8"
     inkscape:document-units="px"
     inkscape:current-layer="svg8"
     inkscape:document-rotation="0"
     showgrid="false"
     inkscape:showpageshadow="false"
     borderlayer="true"
     inkscape:window-width="1920"
     inkscape:window-height="1051"
     inkscape:window-x="0"
     inkscape:window-y="0"
     inkscape:window-maximized="1"
     units="px" />
  <metadata
     id="metadata5">
    <rdf:RDF>
      <cc:Work
         rdf:about="">
        <dc:format>image/svg+xml</dc:format>
        <dc:type
           rdf:resource="http://purl.org/dc/dcmitype/StillImage" />
        <dc:title></dc:title>
      </cc:Work>
    </rdf:RDF>
  </metadata>
  <path
     style="font-style:italic;font-variant:normal;font-weight:bold;font-stretch:normal;font-size:4.23333311px;font-family:'Times New Roman';-inkscape-font-specification:'Times New Roman, Bold Italic';fill:#d0d0d0;stroke-width:0.26458332"
     d="m 3.8401457,0.48155598 c -0.1117303,0 -0.2051627,0.028579 -0.2796495,0.0855728 -0.074487,0.0569936 -0.1184463,0.15097053 -0.1325536,0.2818866 l 0.2365831,0.0234904 c 0.00451,-0.0694078 0.021553,-0.11886562 0.050896,-0.14877342 0.029343,-0.0299078 0.068913,-0.0447439 0.1185712,-0.0447439 0.050222,0 0.089239,0.0142867 0.1174528,0.0430661 0.02878,0.0282143 0.043626,0.0688831 0.043626,0.12192712 0,0.0479649 -0.016489,0.0963242 -0.049218,0.14541767 C 3.9215883,1.0249499 3.8556367,1.0925445 3.7484206,1.1924247 3.6152476,1.3160051 3.5262197,1.41548 3.4810757,1.490531 3.435932,1.5650178 3.4090061,1.6441583 3.3999774,1.7276738 H 4.2333329 V 1.5067507 H 3.7612846 c 0.012415,-0.021443 0.02835,-0.043425 0.0481,-0.065997 0.020315,-0.022572 0.068129,-0.068184 0.1431805,-0.1370283 0.075051,-0.068843 0.1267056,-0.1216027 0.1554852,-0.1582815 0.04345,-0.055301 0.075331,-0.1080589 0.095081,-0.15828159 0.020315,-0.0507863 0.030202,-0.10409434 0.030202,-0.15995942 0,-0.0981871 -0.034617,-0.18062847 -0.1045889,-0.24665078 C 4.0587717,0.51452973 3.9625977,0.4815562 3.8401457,0.48155598 Z M 1.5576471,0.97206107 0.54140119,1.1465623 0.52126641,1.2573034 c 0.0756788,-0.015524 0.13944578,-0.023491 0.19183948,-0.023491 0.1009058,0 0.184589,0.044113 0.250566,0.1314352 C 1.0684589,1.5010827 1.2141968,1.9143976 1.4004842,2.6052136 1.2549472,2.8012034 1.1550338,2.9292967 1.1007,2.989452 1.011438,3.086477 0.93743259,3.1493886 0.87921759,3.1784949 c -0.044631,0.023286 -0.095295,0.034677 -0.1515699,0.034677 -0.042691,0 -0.112153,-0.023341 -0.20917779,-0.069913 -0.0659764,-0.031048 -0.1254632,-0.046421 -0.17785701,-0.046421 -0.0989651,0 -0.18037716,0.032163 -0.24441358,0.096199 C 0.03216281,3.2570729 -9e-8,3.3384854 -9e-8,3.4374506 c 0,0.093144 0.0304509,0.1688599 0.0906064,0.2270754 0.0582148,0.058215 0.1373556,0.08725 0.23826131,0.08725 0.0970243,0 0.18867421,-0.020213 0.27405647,-0.060963 0.085381,-0.04075 0.1918462,-0.1270016 0.3199187,-0.258955 C 1.0528561,3.2979639 1.2316134,3.0861873 1.4586512,2.7970537 c 0.087322,0.27555 0.1630392,0.4762326 0.2270754,0.6023646 0.064036,0.124192 0.1366264,0.214428 0.2181267,0.2707009 0.083442,0.054334 0.1873377,0.081658 0.3115294,0.081658 0.1203106,0 0.2427084,-0.043554 0.3668999,-0.1308758 C 2.7452842,3.5083516 2.9120913,3.3142209 3.0828549,3.0386703 L 2.9777069,2.9777066 C 2.8612771,3.1407081 2.7750258,3.2423334 2.7187515,3.2830837 c -0.03687,0.025227 -0.080424,0.038032 -0.1308759,0.038032 -0.060155,0 -0.1190825,-0.037858 -0.1772978,-0.1135379 C 2.3116127,3.0795059 2.1795364,2.7242626 2.0145943,2.142114 2.1620719,1.8820879 2.2861816,1.7121531 2.3870873,1.632593 c 0.073739,-0.058214 0.151168,-0.08725 0.2326683,-0.08725 0.031048,0 0.086552,0.01195 0.1661118,0.035236 0.081501,0.021345 0.1532343,0.031881 0.21533,0.031881 0.085381,0 0.1562586,-0.029036 0.2125337,-0.08725 0.058215,-0.060156 0.08725,-0.1367281 0.08725,-0.2298717 0,-0.098965 -0.029035,-0.1778096 -0.08725,-0.2360242 -0.056275,-0.058214 -0.1376866,-0.0872504 -0.2444137,-0.0872504 -0.095084,0 -0.1853185,0.02334 -0.2707008,0.0699129 C 2.6151755,1.0866048 2.5081516,1.184806 2.3781385,1.3361646 2.2811138,1.4487133 2.1376469,1.6454125 1.9474785,1.926784 1.8717992,1.5794357 1.7419941,1.2611947 1.5576471,0.97206107 Z"
     id="path815"
     inkscape:connector-curvature="0" />
</svg>
