<?xml version="1.0" encoding="UTF-8" standalone="no"?><svg height="22" viewBox="0 0 22 22" width="22" xmlns="http://www.w3.org/2000/svg"><sodipodi:namedview/><metadata><rdf:RDF><cc:Work><dc:format>image/svg+xml</dc:format><dc:type/><dc:title/></cc:Work></rdf:RDF></metadata><path d="m11 0a11 11 0 0 0 -10.8828125 9.4824219l6.1601563 2.6308591c.4276176-.271926.9250199-.446383 1.4667968-.470703.0450288-.002.0901237.000025.1347656 0l2.6503908-3.673828c.028486-2.0893931 1.666314-3.8235588 3.769531-3.9179688 2.182415-.0979653 4.032359 1.602535 4.13086 3.796875.098498 2.1943418-1.585162 4.0602428-3.767579 4.1582028-.059043.0027-.117261-.000045-.175781 0l-3.607422 2.71875c-.032848 1.576658-1.275584 2.875906-2.8652341 2.947266-1.4878995.066789-2.7694082-.965336-3.0703125-2.382813l-4.69140628-2.007812a11 11 0 0 0 10.74804688 8.71875 11 11 0 0 0 11-11 11 11 0 0 0 -11-11zm3.365234 5.3027344c-1.494199.0670725-2.651424 1.337479-2.583984 2.8398437.067437 1.5023649 1.331974 2.6647259 2.826172 2.5976559 1.494204-.067072 2.651424-1.3374781 2.583984-2.8398434-.067435-1.5023647-1.331972-2.6647282-2.826172-2.5976562zm.027344.7265625c1.095757-.0491873 2.02281.810362 2.072266 1.9121093.049455 1.1017481-.800727 2.0367515-1.896485 2.0859378-1.095755.049186-2.024768-.8103616-2.074218-1.9121096-.049456-1.1017478.80268-2.0367505 1.898437-2.0859375zm-6.6210936 6.2324221c-.26719.011994-.518449.067266-.7539063.160156l1.5058594.646484a1.7229269 1.7229269 0 1 1 -1.359375 3.164063l-1.4667969-.619141c.379406.885514 1.2743774 1.484993 2.2890625 1.439453 1.3130926-.058943 2.3327079-1.183639 2.2734379-2.503906-.059264-1.320267-1.1751893-2.346059-2.4882816-2.287109z" fill="#fff" stroke-width="2.363295"/></svg>