<?xml version="1.0" encoding="UTF-8" standalone="no"?><svg height="16" viewBox="0 0 16 16" width="16" xmlns="http://www.w3.org/2000/svg"><sodipodi:namedview/><metadata><rdf:RDF><cc:Work><dc:format>image/svg+xml</dc:format><dc:type/><dc:title/></cc:Work></rdf:RDF></metadata><path d="m10.077611.06537706-2.1996452 2.19964474 3.1258132 3.1258139-3.0100444 3.010038 2.0838764 2.0838773 5.209689-5.2096903zm-2.4158066 15.33516594a2.0466749 2.0466749 0 0 1 -2.8944353 0 2.0466749 2.0466749 0 0 1 0-2.894435 2.0466749 2.0466749 0 0 1 2.8944353 0 2.0466749 2.0466749 0 0 1 0 2.894435zm-2.6928222-13.6536946a1.023279 1.023279 0 0 1 -1.4471318 0 1.023279 1.023279 0 0 1 0-1.44713834 1.023279 1.023279 0 0 1 1.4471318 0 1.023279 1.023279 0 0 1 0 1.44713834zm-1.6467441 6.6335953a1.5286319 1.5474217 0 0 1 -2.1618104 0 1.5286319 1.5474217 0 0 1 0-2.188389 1.5286319 1.5474217 0 0 1 2.1618104 0 1.5286319 1.5474217 0 0 1 0 2.188389z" fill="#fff" fill-opacity=".978723" shape-rendering="crispEdges"/></svg>