<?xml version="1.0" encoding="UTF-8" standalone="no"?>
<!-- Created with Inkscape (http://www.inkscape.org/) -->

<svg
   xmlns:dc="http://purl.org/dc/elements/1.1/"
   xmlns:cc="http://creativecommons.org/ns#"
   xmlns:rdf="http://www.w3.org/1999/02/22-rdf-syntax-ns#"
   xmlns:svg="http://www.w3.org/2000/svg"
   xmlns="http://www.w3.org/2000/svg"
   xmlns:sodipodi="http://sodipodi.sourceforge.net/DTD/sodipodi-0.dtd"
   xmlns:inkscape="http://www.inkscape.org/namespaces/inkscape"
   width="16"
   height="16"
   viewBox="0 0 4.2333332 4.2333332"
   version="1.1"
   id="svg8"
   inkscape:version="0.92+devel (b8837397f6, 2017-07-27, custom)"
   sodipodi:docname="glyph-pen-short.svg">
  <defs
     id="defs2" />
  <sodipodi:namedview
     id="base"
     pagecolor="#002466"
     bordercolor="#ffffff"
     borderopacity="0.38039216"
     inkscape:pageopacity="1"
     inkscape:pageshadow="2"
     inkscape:zoom="36.415999"
     inkscape:cx="10.094581"
     inkscape:cy="7.9162778"
     inkscape:document-units="px"
     inkscape:current-layer="svg8"
     inkscape:document-rotation="0"
     showgrid="false"
     inkscape:showpageshadow="false"
     borderlayer="true"
     inkscape:window-width="1920"
     inkscape:window-height="1051"
     inkscape:window-x="0"
     inkscape:window-y="0"
     inkscape:window-maximized="1"
     units="px" />
  <metadata
     id="metadata5">
    <rdf:RDF>
      <cc:Work
         rdf:about="">
        <dc:format>image/svg+xml</dc:format>
        <dc:type
           rdf:resource="http://purl.org/dc/dcmitype/StillImage" />
        <dc:title></dc:title>
      </cc:Work>
    </rdf:RDF>
  </metadata>
  <path
     style="fill:#d0d0d0;stroke-width:0.00017029"
     d="m 1.8231004,0.01977704 c -0.015192,0.0111388 -0.027634,0.0265465 -0.035246,0.0467666 -0.00373,0.0112342 -0.00697,0.0772492 -0.00699,0.14644797 l 4.494e-4,0.1269223 -0.033381,0.00121 c -0.045851,0.00277 -0.078455,0.020733 -0.096709,0.053919 -0.012641,0.022904 -0.01437,0.1141688 -0.015245,0.72443199 -7.474e-4,0.3848719 0.00121,0.7008008 0.004,0.7036054 0.00234,0.00234 0.1211765,0.00468 0.2633284,0.00478 l 0.2603534,3.17e-5 3.356e-4,-0.4552466 c 1.694e-4,-0.2506668 0.00291,-0.45534169 0.00666,-0.45533889 0.012163,-1.59e-5 0.1206333,0.11476969 0.1481963,0.15734589 0.015438,0.022923 0.037031,0.068801 0.048247,0.1015437 0.02007,0.058488 0.020511,0.06281 0.021031,0.6286634 2.276e-4,0.312871 0.0029,0.5765483 0.00569,0.5849591 0.00747,0.02338 0.040476,0.053045 0.069451,0.062401 0.048616,0.015948 0.1146037,-0.017201 0.1296268,-0.065817 0.010308,-0.033678 0.00559,-1.1597367 -0.00562,-1.2102723 C 2.5565228,1.0311184 2.4635298,0.88561921 2.3303258,0.77374791 2.277512,0.72930211 2.2223366,0.68959571 2.1788692,0.66475311 c -0.012158,-0.006568 -0.01419,-0.0250467 -0.014583,-0.1302716 -8.586e-4,-0.1000822 -0.00366,-0.1263229 -0.015325,-0.1436609 -0.024764,-0.0369438 -0.050347,-0.0483305 -0.1055301,-0.0492943 l -0.051327,-0.001029 -2.625e-4,-0.1351979 C 1.9909908,0.09400467 1.9879284,0.06695666 1.9762399,0.04964299 1.9387286,-0.00537069 1.8686754,-0.01364063 1.8231004,0.01977704 Z M 1.6374457,2.0359133 c -0.00141,0.00141 -0.00238,-0.088446 -0.00272,0.4109859 -7.97e-5,0.8038947 0.00238,0.9210046 0.015869,1.013149 0.027005,0.1833389 0.098942,0.4400841 0.1839339,0.6599259 0.054162,0.1412623 0.0447,0.1318001 0.072332,0.072442 C 1.9916167,4.00869 2.0840898,3.7444828 2.1234985,3.5714996 2.1619539,3.4022448 2.1625252,3.3658536 2.163155,2.4324578 l 2.951e-4,-0.3987123 -0.2620272,6.1e-5 c -0.1440531,-9.72e-5 -0.2625655,6.927e-4 -0.2639802,0.00211 z"
     id="path33"
     inkscape:connector-curvature="0"
     sodipodi:nodetypes="sccccccccccccccccccccccccccscccccccccc"
     inkscape:label="#" />
</svg>
