<?xml version="1.0" encoding="UTF-8" standalone="no"?>
<!-- Created with Inkscape (http://www.inkscape.org/) -->

<svg
   xmlns:dc="http://purl.org/dc/elements/1.1/"
   xmlns:cc="http://creativecommons.org/ns#"
   xmlns:rdf="http://www.w3.org/1999/02/22-rdf-syntax-ns#"
   xmlns:svg="http://www.w3.org/2000/svg"
   xmlns="http://www.w3.org/2000/svg"
   xmlns:sodipodi="http://sodipodi.sourceforge.net/DTD/sodipodi-0.dtd"
   xmlns:inkscape="http://www.inkscape.org/namespaces/inkscape"
   width="12"
   height="12"
   viewBox="0 0 12 12"
   version="1.1"
   id="default16"
   inkscape:version="0.92+devel (9cbd9e9661, 2017-09-28, custom)"
   sodipodi:docname="glyph-curve2.svg">
  <defs
     id="defs5" />
  <sodipodi:namedview
     id="base"
     pagecolor="#002466"
     bordercolor="#ffffff"
     borderopacity="0.38039216"
     inkscape:pageopacity="1"
     inkscape:pageshadow="2"
     inkscape:zoom="26.28125"
     inkscape:cx="7.9429251"
     inkscape:cy="8"
     inkscape:document-units="px"
     inkscape:current-layer="default16"
     inkscape:document-rotation="0"
     showgrid="false"
     inkscape:showpageshadow="false"
     borderlayer="true"
     inkscape:window-width="1302"
     inkscape:window-height="919"
     inkscape:window-x="-4"
     inkscape:window-y="24"
     inkscape:window-maximized="0"
     units="px" />
  <metadata
     id="metadata5">
    <rdf:RDF>
      <cc:Work
         rdf:about="">
        <dc:format>image/svg+xml</dc:format>
        <dc:type
           rdf:resource="http://purl.org/dc/dcmitype/StillImage" />
        <dc:title></dc:title>
      </cc:Work>
    </rdf:RDF>
  </metadata>
  <path
     style="color:#000000;font-style:normal;font-variant:normal;font-weight:normal;font-stretch:normal;font-size:medium;line-height:normal;font-family:sans-serif;font-variant-ligatures:normal;font-variant-position:normal;font-variant-caps:normal;font-variant-numeric:normal;font-variant-alternates:normal;font-variant-east-asian:normal;font-feature-settings:normal;font-variation-settings:normal;text-indent:0;text-align:start;text-decoration:none;text-decoration-line:none;text-decoration-style:solid;text-decoration-color:#000000;letter-spacing:normal;word-spacing:normal;text-transform:none;writing-mode:lr-tb;direction:ltr;text-orientation:mixed;dominant-baseline:auto;baseline-shift:baseline;text-anchor:start;white-space:normal;shape-padding:0;clip-rule:nonzero;display:inline;overflow:visible;visibility:visible;opacity:1;isolation:auto;mix-blend-mode:normal;color-interpolation:sRGB;color-interpolation-filters:linearRGB;solid-color:#000000;solid-opacity:1;vector-effect:none;fill:#d0d0d0;fill-opacity:1;fill-rule:nonzero;stroke:none;stroke-width:1.00164497;stroke-linecap:butt;stroke-linejoin:miter;stroke-miterlimit:4;stroke-dasharray:none;stroke-dashoffset:0.15256613;stroke-opacity:1;color-rendering:auto;image-rendering:auto;shape-rendering:auto;text-rendering:auto;enable-background:accumulate"
     d="m 8.7499999,-1.4e-7 c -0.647442,0 -1.26191,0.3420472 -1.753907,0.9101563 -0.532235,0.61457254 -0.80399,1.47979844 -1.015625,2.38671864 -0.211634,0.9069202 -0.34453,1.8625021 -0.474609,2.6191406 -0.134569,0.7827561 -0.264018,1.7166853 -0.460938,2.5605469 -0.196919,0.8438616 -0.480338,1.5892707 -0.798828,1.9570317 -0.358729,0.414224 -0.694104,0.564453 -0.996093,0.564453 -0.30199,0 -0.637365,-0.150229 -0.996094,-0.564453 C 1.5364479,9.6051454 1.0019529,7.875605 1.0019529,5.9999998 H -1.0999927e-7 C -1.1099993e-6,8.0537288 0.51209891,9.9536261 1.4960929,11.089844 1.9880899,11.657952 2.6025579,12 3.2499999,12 c 0.647441,0 1.261909,-0.342048 1.753906,-0.910156 0.532235,-0.614573 0.803991,-1.4797991 1.015625,-2.3867192 0.211634,-0.9069201 0.34453,-1.8625021 0.474609,-2.6191406 0.13457,-0.7827561 0.264018,-1.7166852 0.460938,-2.5605469 0.196919,-0.8438617 0.480338,-1.5892703 0.798828,-1.9570312 0.358729,-0.4142245 0.694104,-0.5644531 0.996094,-0.5644531 0.301989,0 0.6373642,0.1502285 0.9960932,0.5644531 0.7174599,0.8284488 1.2519539,2.5579884 1.2519539,4.4335937 H 12 C 12,3.9462709 11.487901,2.0463742 10.503906,0.91015616 10.011909,0.34204706 9.3974411,-1.4e-7 8.7499999,-1.4e-7 Z"
     id="path832"
     inkscape:connector-curvature="0" />
</svg>
