<?xml version="1.0" encoding="UTF-8" standalone="no"?><svg height="22" viewBox="0 0 22 22" width="22" xmlns="http://www.w3.org/2000/svg"><sodipodi:namedview/><metadata><rdf:RDF><cc:Work><dc:format>image/svg+xml</dc:format><dc:type/><dc:title/></cc:Work></rdf:RDF></metadata><g transform="translate(-.552734 -.580078)"><path d="m1.8203125 1.7949219c-.702573 0-1.26757812.5669581-1.26757812 1.2695312v17.0312499c0 .702573.56500512 1.269531 1.26757812 1.269531h19.4628905c.702573 0 1.269531-.566958 1.269531-1.269531v-17.0312499c0-.7025731-.566958-1.2695312-1.269531-1.2695312zm1.9335937 2.2519531h15.7636718c.468533 0 .845703.3771704.845703.8457031v13.5253909c0 .468532-.37717.845703-.845703.845703h-15.7636718c-.468532 0-.8457031-.377171-.8457031-.845703v-13.5253909c0-.4685327.3771712-.8457031.8457031-.8457031z" fill="#fff" stroke-linecap="square" stroke-width="1.491364"/><path d="m7.5364627 13.643984h8.0325433l2.128263 4.077813h-12.2890692z" fill="#fff" stroke-width=".377953"/></g></svg>