<?xml version="1.0" encoding="UTF-8" standalone="no"?><svg height="16" viewBox="0 0 4.2333333 4.2333333" width="16" xmlns="http://www.w3.org/2000/svg"><sodipodi:namedview/><metadata><rdf:RDF><cc:Work><dc:format>image/svg+xml</dc:format><dc:type/><dc:title/></cc:Work></rdf:RDF></metadata><path d="m1.1309551.27225119-1.04840544 2.55335701c0 .107027.08136.215476.288276.215476h.68209944l.794787-1.8758419-.35854-.84877406c-.02711-.06279-.06991-.145546-.182643-.145546-.045778-.0168036-.1513631.0437254-.175574.10132895zm.440999-.028526 1.569729 3.71595301 1.091674.0014-1.588263-3.76021301c-.02141-.05423-.06993-.11274-.169821-.11274l-1.0758438.00213c.113389.014864.1454118.0906765.1725248.15347zm-1.57197794 2.72165091c.0016.03179.008.05667.03504.109563l.502329.931859c.05423.09704.111308.13841.221189.13841.171244 0 .41383194-.139854.47947594-.176957l1.314285-.8148259h-1.58257694l-.001-.001-.00042.001h-.682127c-.189211 0-.273159-.09069-.286186-.188049z" fill="#d0d0d0" stroke-width=".264583"/></svg>