<?xml version="1.0" encoding="UTF-8" standalone="no"?>
<!-- Created with Inkscape (http://www.inkscape.org/) -->

<svg
   xmlns:dc="http://purl.org/dc/elements/1.1/"
   xmlns:cc="http://creativecommons.org/ns#"
   xmlns:rdf="http://www.w3.org/1999/02/22-rdf-syntax-ns#"
   xmlns:svg="http://www.w3.org/2000/svg"
   xmlns="http://www.w3.org/2000/svg"
   xmlns:sodipodi="http://sodipodi.sourceforge.net/DTD/sodipodi-0.dtd"
   xmlns:inkscape="http://www.inkscape.org/namespaces/inkscape"
   width="16"
   height="16"
   viewBox="0 0 4.2333332 4.2333332"
   version="1.1"
   id="svg8"
   inkscape:version="0.92+devel (7f3bd2b258, 2017-08-07, custom)"
   sodipodi:docname="glyph-cloud.svg">
  <defs
     id="defs2" />
  <sodipodi:namedview
     id="base"
     pagecolor="#002466"
     bordercolor="#ffffff"
     borderopacity="0.38039216"
     inkscape:pageopacity="1"
     inkscape:pageshadow="2"
     inkscape:zoom="28.674218"
     inkscape:cx="15.372317"
     inkscape:cy="9.857149"
     inkscape:document-units="px"
     inkscape:current-layer="svg8"
     inkscape:document-rotation="0"
     showgrid="false"
     inkscape:showpageshadow="false"
     borderlayer="true"
     inkscape:window-width="1920"
     inkscape:window-height="1027"
     inkscape:window-x="0"
     inkscape:window-y="24"
     inkscape:window-maximized="1"
     units="px" />
  <metadata
     id="metadata5">
    <rdf:RDF>
      <cc:Work
         rdf:about="">
        <dc:format>image/svg+xml</dc:format>
        <dc:type
           rdf:resource="http://purl.org/dc/dcmitype/StillImage" />
        <dc:title></dc:title>
      </cc:Work>
    </rdf:RDF>
  </metadata>
  <path
     style="fill:#d0d0d0;stroke-width:0.23331469;stroke-linecap:round"
     d="m 1.6956191,0.69875417 c -0.70167562,3e-8 -1.27049614,0.56882053 -1.27049618,1.27049623 3.4522e-4,0.14669 0.0260915,0.2922122 0.0760975,0.430116 -0.0245708,-0.0044 -0.0494822,-0.00661 -0.0744432,-0.00662 -0.2338919,0 -0.42349873,0.1896069 -0.4234987,0.4234988 3e-8,0.2338919 0.18960684,0.4234987 0.4234987,0.4234987 l 2.96283698,2.8e-6 c 0.4677838,0 0.8469975,-0.3792137 0.8469975,-0.8469975 0,-0.4677838 -0.3792137,-0.8469975 -0.8469975,-0.8469975 C 3.227179,1.5455535 3.0681127,1.5920675 2.9313753,1.6797493 2.7970137,1.1056048 2.2852754,0.69936545 1.6956191,0.69875417 Z"
     id="path830"
     inkscape:connector-curvature="0"
     sodipodi:nodetypes="ccccsccsccc"
     inkscape:label="#" />
</svg>
