<?xml version="1.0" encoding="UTF-8" standalone="no"?>
<!-- Created with Inkscape (http://www.inkscape.org/) -->

<svg
     xmlns:dc="http://purl.org/dc/elements/1.1/"
     xmlns:cc="http://creativecommons.org/ns#"
     xmlns:rdf="http://www.w3.org/1999/02/22-rdf-syntax-ns#"
     xmlns:svg="http://www.w3.org/2000/svg"
     xmlns="http://www.w3.org/2000/svg"
     xmlns:sodipodi="http://sodipodi.sourceforge.net/DTD/sodipodi-0.dtd"
     xmlns:inkscape="http://www.inkscape.org/namespaces/inkscape"
     width="16"
     height="16"
     viewBox="0 0 4.2333333 4.2333333"
     version="1.1"
     id="svg8"
     inkscape:version="0.92+devel (c0065a33f9, 2017-07-22, custom)"
     sodipodi:docname="glyph-bulb.svg">
    <defs
         id="defs2" />
    <sodipodi:namedview
         id="base"
         pagecolor="#002466"
         bordercolor="#ffffff"
         borderopacity="0.38039216"
         inkscape:pageopacity="1"
         inkscape:pageshadow="2"
         inkscape:zoom="27.375"
         inkscape:cx="3.4786277"
         inkscape:cy="8.7556025"
         inkscape:document-units="px"
         inkscape:current-layer="svg8"
         inkscape:document-rotation="0"
         showgrid="false"
         inkscape:showpageshadow="false"
         borderlayer="true"
         inkscape:window-width="1920"
         inkscape:window-height="1051"
         inkscape:window-x="0"
         inkscape:window-y="0"
         inkscape:window-maximized="1"
         units="px" />
    <metadata
         id="metadata5">
        <rdf:RDF>
            <cc:Work
                 rdf:about="">
                <dc:format>image/svg+xml</dc:format>
                <dc:type
                     rdf:resource="http://purl.org/dc/dcmitype/StillImage" />
                <dc:title></dc:title>
            </cc:Work>
        </rdf:RDF>
    </metadata>
    <path
         style="opacity:0.98999999;fill:#d0d0d0;stroke:none;stroke-width:0.44979167"
         d="M 2.1163849,4.4663042e-8 C 1.5369852,4.4663042e-8 0.8557397,0.48989008 0.8557397,1.4866259 c 0,0.5653164 0.6029908,1.2500564 0.6029908,1.8151714 h 1.3096734 c 0,-0.5329945 0.6091897,-1.2550659 0.6091897,-1.8151714 C 3.3775936,0.48989008 2.6957846,4.4663042e-8 2.1163849,4.4663042e-8 Z M 1.4970514,3.4748048 v 0.017471 c -0.046398,0.011054 -0.080023,0.050129 -0.080023,0.1025648 0,0.052433 0.033629,0.099452 0.080023,0.1211617 v 0.064807 c -0.046398,0.011054 -0.080023,0.050129 -0.080023,0.1025648 0,0.052433 0.033629,0.099452 0.080023,0.1211617 v 0.1211615 h 0.468304 a 0.1867757,0.11366999 0 0 0 0.1865327,0.107636 0.1867757,0.11366999 0 0 0 0.1859691,-0.1076367 h 0.3713747 c 0.066014,0.00758 0.119471,-0.027099 0.119471,-0.093548 0,-0.052434 -0.033629,-0.099452 -0.080023,-0.1211617 v -0.064244 c 0.046398,-0.011054 0.080023,-0.050692 0.080023,-0.1031281 0,-0.052434 -0.033629,-0.099452 -0.080023,-0.1211617 V 3.4748048 Z"
         id="path811"
         inkscape:connector-curvature="0"
         inkscape:label="#" />
</svg>
