<?xml version="1.0" encoding="UTF-8" standalone="no"?>
<!-- Created with Inkscape (http://www.inkscape.org/) -->

<svg
   xmlns:dc="http://purl.org/dc/elements/1.1/"
   xmlns:cc="http://creativecommons.org/ns#"
   xmlns:rdf="http://www.w3.org/1999/02/22-rdf-syntax-ns#"
   xmlns:svg="http://www.w3.org/2000/svg"
   xmlns="http://www.w3.org/2000/svg"
   xmlns:xlink="http://www.w3.org/1999/xlink"
   xmlns:sodipodi="http://sodipodi.sourceforge.net/DTD/sodipodi-0.dtd"
   xmlns:inkscape="http://www.inkscape.org/namespaces/inkscape"
   width="16"
   height="16"
   viewBox="0 0 4.2333332 4.2333332"
   version="1.1"
   id="svg8"
   inkscape:version="0.92+devel (4546dc857e, 2017-07-25, custom)"
   sodipodi:docname="glyph-viber.svg">
  <defs
     id="defs2">
    <linearGradient
       gradientTransform="matrix(0.11140351,0,0,0.11140351,-0.5570175,-0.6684211)"
       xlink:href="#linearGradient4167"
       id="linearGradient4183"
       x1="24.112"
       y1="36.417"
       x2="17.358"
       y2="8.9840002"
       gradientUnits="userSpaceOnUse" />
    <linearGradient
       id="linearGradient4167">
      <stop
         style="stop-color:#7d519e;stop-opacity:1;"
         offset="0"
         id="stop12" />
      <stop
         style="stop-color:#a987c2;stop-opacity:1"
         offset="1"
         id="stop14" />
    </linearGradient>
  </defs>
  <sodipodi:namedview
     id="base"
     pagecolor="#002466"
     bordercolor="#ffffff"
     borderopacity="0.38039216"
     inkscape:pageopacity="1"
     inkscape:pageshadow="2"
     inkscape:zoom="36.415999"
     inkscape:cx="10.094581"
     inkscape:cy="7.9162778"
     inkscape:document-units="px"
     inkscape:current-layer="svg8"
     inkscape:document-rotation="0"
     showgrid="false"
     inkscape:showpageshadow="false"
     borderlayer="true"
     inkscape:window-width="1920"
     inkscape:window-height="1051"
     inkscape:window-x="0"
     inkscape:window-y="0"
     inkscape:window-maximized="1"
     units="px" />
  <metadata
     id="metadata5">
    <rdf:RDF>
      <cc:Work
         rdf:about="">
        <dc:format>image/svg+xml</dc:format>
        <dc:type
           rdf:resource="http://purl.org/dc/dcmitype/StillImage" />
        <dc:title></dc:title>
      </cc:Work>
    </rdf:RDF>
  </metadata>
  <path
     inkscape:connector-curvature="0"
     style="fill:#d0d0d0;fill-opacity:1;fill-rule:evenodd;stroke-width:0.26458332"
     d="M 1.1140351,0 C 0.4968596,0 0,0.4968596 0,1.1140351 V 2.2280702 C 0,2.8076286 0.4381594,3.2811034 1.0026316,3.3366657 V 4.2333332 L 1.8938597,3.3421053 h 1.2254386 c 0.6171754,0 1.1140349,-0.4968597 1.1140349,-1.1140351 V 1.1140351 C 4.2333332,0.4968596 3.7364737,0 3.1192983,0 Z m 1.2130363,0.445614 h 8.673e-4 c 0.2821072,0.002 0.5272259,0.095218 0.7191184,0.2756802 0.097166,0.091585 0.171636,0.2017111 0.2206312,0.3261599 0.048412,0.1231789 0.073155,0.2631479 0.074414,0.4153697 v 2.228e-4 c 4.337e-4,0.052286 -0.04448,0.095889 -0.098566,0.09639 -6.68e-5,2.23e-5 -0.00108,2.228e-4 -0.00109,2.228e-4 -0.053964,0 -0.098662,-0.042913 -0.099219,-0.094867 V 1.4645698 C 3.1412018,1.2034066 3.0612981,1.0032702 2.9080181,0.8588132 2.752911,0.7130016 2.5605672,0.6390686 2.326631,0.6373117 2.272429,0.6370379 2.227758,0.5930307 2.22807,0.5406987 2.2285811,0.4886027 2.273248,0.4456137 2.3270714,0.445614 Z M 1.322264,0.6708145 c 0.039359,0.00669 0.075096,0.026976 0.1031352,0.060271 3.899e-4,4.336e-4 6.442e-4,7.789e-4 0.00109,0.00131 8.927e-4,0.00105 0.00218,0.00232 0.0037,0.00413 0.00304,0.00363 0.00731,0.00881 0.01262,0.015231 0.010614,0.012834 0.025154,0.030825 0.041123,0.05048 0.031939,0.039311 0.069441,0.086161 0.092691,0.1174958 h 2.229e-4 c 0.043376,0.059032 0.1005525,0.1516821 0.130119,0.2038768 0.056678,0.100965 0.02289,0.2061501 -0.037207,0.2521809 L 1.5685812,1.456732 c -0.041262,0.033272 -0.037305,0.098792 -0.037207,0.1005243 0.00105,0.00395 0.1490464,0.5574731 0.6995358,0.6991004 0.00173,1.014e-4 0.06714,0.00403 0.099871,-0.037207 L 2.41194,2.1175376 c 0.046299,-0.059953 0.1515001,-0.092721 0.2521809,-0.036336 h 2.228e-4 c 0.052415,0.029171 0.1443787,0.086101 0.2038772,0.1301157 0.031448,0.023075 0.078005,0.060688 0.1172782,0.092691 0.038402,0.031303 0.069354,0.057177 0.070933,0.05853 0.064421,0.053741 0.080129,0.1380489 0.040471,0.2206312 v 0.00457 l -0.00283,0.00479 c -0.043179,0.075576 -0.1005703,0.1461639 -0.1716736,0.2110575 -5.348e-4,4.884e-4 -7.705e-4,0.00105 -0.00131,0.00152 -4.884e-4,6.147e-4 5.44e-5,1.671e-4 -8.674e-4,0.00109 l -6.568e-4,4.337e-4 -6.568e-4,8.674e-4 c -0.060083,0.050395 -0.1207961,0.079431 -0.1821215,0.086601 -0.00895,0.00201 -0.01834,0.00275 -0.028939,0.00218 -0.026133,3.899e-4 -0.052529,-0.00351 -0.077895,-0.011967 l -0.00544,-0.00196 -0.00326,-0.00392 C 2.531706,2.8526171 2.3903038,2.7934001 2.1527916,2.6623674 1.9955678,2.5754394 1.8642408,2.4860672 1.7537407,2.3980016 1.6949417,2.3519136 1.6347847,2.2990516 1.5737979,2.2387293 l -0.00109,-0.00109 -0.00109,-0.00131 c -3.231e-4,-4.252e-4 -0.00177,-0.00199 -0.00392,-0.00413 h -4.337e-4 l -0.00609,-0.00609 c -0.00333,-0.00333 -0.00469,-0.00534 -0.00566,-0.00631 -0.0028,-0.00252 -0.00537,-0.00515 -0.00609,-0.00587 C 1.4884358,2.1529205 1.4358826,2.0923637 1.3894953,2.0341999 1.301442,1.9235317 1.2127744,1.7921775 1.126,1.6349314 0.9957136,1.3976865 0.936177,1.257583 0.9099381,1.1675589 l -0.00457,-0.00261 -0.00218,-0.0074 c -0.0081,-0.026198 -0.011963,-0.052912 -0.011963,-0.079199 0,-0.00945 -5.45e-5,-0.018276 0.00218,-0.028069 0.00699,-0.057785 0.037371,-0.1154576 0.083335,-0.1727625 v -0.00522 l 0.00522,-0.00566 C 1.0483891,0.7943254 1.1193159,0.7366643 1.1949745,0.6936582 l 0.00457,-0.00261 h 0.00326 c 0.04083,-0.019634 0.081711,-0.026651 0.1194542,-0.020235 z m 1.0106821,0.2206311 c 0.1711827,0.012165 0.3147099,0.072003 0.4160225,0.178855 0.1008514,0.1063235 0.1508978,0.2434337 0.1473051,0.3970925 -0.00117,0.050792 -0.044955,0.092256 -0.097478,0.092256 h -0.00239 c -0.053303,-0.00113 -0.096462,-0.044729 -0.095303,-0.096172 V 1.4630434 C 2.7036927,1.3512381 2.6728057,1.269439 2.6049297,1.1978066 v -2.189e-4 c -0.06651,-0.070323 -0.154993,-0.1088809 -0.286126,-0.1181486 -0.053028,-0.00374 -0.09439,-0.049468 -0.090515,-0.1007419 0.00387,-0.051217 0.051571,-0.090995 0.1046584,-0.087252 z"
     id="path23"
     inkscape:label="#" />
</svg>
