<?xml version="1.0" encoding="UTF-8" standalone="no"?><svg height="16" viewBox="0 0 4.2333332 4.2333332" width="16" xmlns="http://www.w3.org/2000/svg"><sodipodi:namedview><inkscape:grid/></sodipodi:namedview><metadata><rdf:RDF><cc:Work><dc:format>image/svg+xml</dc:format><dc:type/><dc:title/></cc:Work></rdf:RDF></metadata><path d="m7.9785156.04296875v2.62304685c-.0145512.5207554-.5452388.5006748-.8261718.1308594-.2731238-.3595359-.6062453-.4941016-.9042969-.4902344-.6812671.0088063-1.2343765.7727346-1.234375 1.7265625.0000015.9538273.5531034 1.7177521 1.234375 1.7265625.298046.0038929.6311708-.1326486.9042969-.4921875.2809322-.3698154.8116089-.3898922.8261718.1308594v2.5800781h2.6230464c.520711-.0145636.500645-.5452161.13086-.8261718-.359507-.2731469-.496048-.6081806-.492188-.90625.008817-.6813249.774766-1.2324204 1.728516-1.2324219.953749-.0000012 1.715793.5510947 1.724609 1.2324219.003855.2980724-.130739.6330963-.490234.90625-.369785.2809549-.389852.8116082.130859.8261718h2.623047v-6.8261718c-.151516-.63612965-.718529-1.10937505-1.402343-1.10937505zm-7.93554685 7.97851565v6.8261716c.15151642.63613.71852957 1.109375 1.40234375 1.109375h6.5761719v-2.623047c.0145512-.520756.545238-.500676.8261718-.130859.2731238.359535.6062509.494094.9042969.490234.6812699-.008818 1.2343759-.772735 1.2343749-1.726562-.000002-.953827-.553104-1.717751-1.2343749-1.726563-.2980433-.003875-.6311716.132651-.9042969.492188-.280933.369815-.8116097.389894-.8261718-.13086v-2.5800776h-2.6230469c-.5207101.0145512-.5006419.5452157-.1308594.8261718.3595087.2731465.4960464.6081829.4921875.90625-.0088063.6813268-.7747654 1.2324198-1.7285156 1.2324218-.9537495.000001-1.7157928-.551096-1.7246094-1.2324218-.003874-.2980686.1307261-.6331027.4902344-.90625.3697856-.2809549.3898535-.8116074-.1308594-.8261718z" fill="#d0d0d0" opacity=".25" stroke-miterlimit="5.5" stroke-width="3.9" transform="scale(.26458333)"/><path d="m .38240544.01188598c-.21177118 0-.38188874.17063429-.38188874.38240546v1.72857656h.7053834c.13777198.00385.13194426.1442556.0341064.2185914-.0951201.07227-.13073088.160396-.12970774.2392619.00233.1802667.20447344.3265956.45681954.326595.2523463-.0000005.4550055-.1463272.4573365-.326595.0010199-.0788641-.0351036-.1669915-.1302248-.2392619-.0978389-.074336-.1031488-.2147377.0346234-.2185914h.6826456v-.6940145c-.0038531-.1377825-.1447776-.1324702-.219108-.0346231-.0722644.095127-.1604042.1312463-.2392619.1302245-.1802527-.0023299-.3265948-.2049695-.3265951-.4573363-.0000005-.25236694.1463418-.45448691.3265951-.45681974.078859-.00102.1669957.034584.2392619.12970801.07433.0978469.2152549.10367645.219108-.0341066v-.69401429zm2.78432626 1.31464842c-.2523463.0000005-.4544888.1463273-.4568198.3265948-.00102.078864.035105.1669915.1302248.2392619.097839.074336.1031475.2147382-.034623.2185913h-.682646v.6940145c.00385.1377826.1442616.132469.2185913.034623.072264-.095128.1609209-.1312468.2397786-.1302247.1802527.00233.3260781.2049695.3260784.4573365.0000002.2523667-.1458257.4544867-.3260784.4568195-.078859.00103-.1675143-.03458-.2397786-.1297073-.07433-.097847-.2147382-.1036767-.2185913.034106v.6940145h1.7285768c.2117709 0 .3824055-.1706346.3824055-.3824058v-1.7285762h-.7059001c-.137772-.0038531-.1319456-.1442545-.0341064-.2185913.0951198-.0722701.1307306-.1603965.1297077-.2392619-.002331-.1802662-.2044734-.3265951-.4568195-.3265948z" fill="#fff" opacity=".702128" stroke-miterlimit="5.5" stroke-width="1.031875"/></svg>