<?xml version="1.0" encoding="UTF-8" standalone="no"?>
<!-- Created with Inkscape (http://www.inkscape.org/) -->

<svg
   xmlns:dc="http://purl.org/dc/elements/1.1/"
   xmlns:cc="http://creativecommons.org/ns#"
   xmlns:rdf="http://www.w3.org/1999/02/22-rdf-syntax-ns#"
   xmlns:svg="http://www.w3.org/2000/svg"
   xmlns="http://www.w3.org/2000/svg"
   xmlns:sodipodi="http://sodipodi.sourceforge.net/DTD/sodipodi-0.dtd"
   xmlns:inkscape="http://www.inkscape.org/namespaces/inkscape"
   width="22"
   height="22"
   viewBox="0 0 22 22"
   version="1.1"
   id="svg8"
   inkscape:version="0.92+devel 15703 custom"
   sodipodi:docname="glyph-gear-small.svg">
  <defs
     id="defs2" />
  <sodipodi:namedview
     id="base"
     pagecolor="#002266"
     bordercolor="#ffffff"
     borderopacity="0.46666667"
     inkscape:pageopacity="0"
     inkscape:pageshadow="2"
     inkscape:zoom="18.704545"
     inkscape:cx="0.089992239"
     inkscape:cy="10.161109"
     inkscape:document-units="px"
     inkscape:current-layer="svg8"
     inkscape:document-rotation="0"
     showgrid="false"
     inkscape:showpageshadow="false"
     borderlayer="true"
     units="px"
     fit-margin-top="0"
     fit-margin-left="0"
     fit-margin-right="0"
     fit-margin-bottom="0"
     inkscape:window-width="1920"
     inkscape:window-height="1054"
     inkscape:window-x="0"
     inkscape:window-y="0"
     inkscape:window-maximized="1"
     inkscape:snap-object-midpoints="true"
     inkscape:snap-center="true"
     inkscape:snap-page="true" />
  <metadata
     id="metadata5">
    <rdf:RDF>
      <cc:Work
         rdf:about="">
        <dc:format>image/svg+xml</dc:format>
        <dc:type
           rdf:resource="http://purl.org/dc/dcmitype/StillImage" />
        <dc:title />
      </cc:Work>
    </rdf:RDF>
  </metadata>
  <path
     style="fill:#ffffff;stroke-width:0.90979505"
     d="M 8.5332031 -0.056640625 L 7.7578125 3.3730469 A 8.2956093 8.2956093 0 0 0 6.015625 4.3789062 L 2.6582031 3.3359375 L 0.19140625 7.6074219 L 2.7734375 9.9941406 A 8.2956093 8.2956093 0 0 0 2.7050781 11 A 8.2956093 8.2956093 0 0 0 2.7753906 12.003906 L 0.19140625 14.392578 L 2.6582031 18.664062 L 6.0195312 17.621094 A 8.2956093 8.2956093 0 0 0 7.7597656 18.636719 L 8.5332031 22.056641 L 13.466797 22.056641 L 14.242188 18.626953 A 8.2956093 8.2956093 0 0 0 15.984375 17.621094 L 19.341797 18.664062 L 21.808594 14.392578 L 19.226562 12.005859 A 8.2956093 8.2956093 0 0 0 19.294922 11 A 8.2956093 8.2956093 0 0 0 19.224609 9.9960938 L 21.808594 7.6074219 L 19.341797 3.3359375 L 15.980469 4.3789062 A 8.2956093 8.2956093 0 0 0 14.240234 3.3632812 L 13.466797 -0.056640625 L 8.5332031 -0.056640625 z M 11 7.2851562 A 3.7151489 3.7151489 0 0 1 14.714844 11 A 3.7151489 3.7151489 0 0 1 11 14.714844 A 3.7151489 3.7151489 0 0 1 7.2851562 11 A 3.7151489 3.7151489 0 0 1 11 7.2851562 z "
     id="path5737"
     inkscape:label="#" />
</svg>
