<?xml version="1.0" encoding="UTF-8" standalone="no"?>
<!-- Created with Inkscape (http://www.inkscape.org/) -->

<svg
   xmlns:dc="http://purl.org/dc/elements/1.1/"
   xmlns:cc="http://creativecommons.org/ns#"
   xmlns:rdf="http://www.w3.org/1999/02/22-rdf-syntax-ns#"
   xmlns:svg="http://www.w3.org/2000/svg"
   xmlns="http://www.w3.org/2000/svg"
   xmlns:sodipodi="http://sodipodi.sourceforge.net/DTD/sodipodi-0.dtd"
   xmlns:inkscape="http://www.inkscape.org/namespaces/inkscape"
   width="22"
   height="22"
   viewBox="0 0 22 22"
   version="1.1"
   id="svg8"
   inkscape:version="0.92+devel 15640 custom"
   sodipodi:docname="glyph-dolphin.svg">
  <defs
     id="defs2" />
  <sodipodi:namedview
     id="base"
     pagecolor="#002266"
     bordercolor="#ffffff"
     borderopacity="0.46666667"
     inkscape:pageopacity="0"
     inkscape:pageshadow="2"
     inkscape:zoom="13.081476"
     inkscape:cx="16.201469"
     inkscape:cy="12.794693"
     inkscape:document-units="px"
     inkscape:current-layer="svg8"
     inkscape:document-rotation="0"
     showgrid="false"
     inkscape:showpageshadow="false"
     borderlayer="true"
     units="px"
     fit-margin-top="0"
     fit-margin-left="0"
     fit-margin-right="0"
     fit-margin-bottom="0"
     inkscape:window-width="1920"
     inkscape:window-height="1051"
     inkscape:window-x="0"
     inkscape:window-y="0"
     inkscape:window-maximized="1" />
  <metadata
     id="metadata5">
    <rdf:RDF>
      <cc:Work
         rdf:about="">
        <dc:format>image/svg+xml</dc:format>
        <dc:type
           rdf:resource="http://purl.org/dc/dcmitype/StillImage" />
        <dc:title></dc:title>
      </cc:Work>
    </rdf:RDF>
  </metadata>
  <path
     inkscape:connector-curvature="0"
     id="path9551-0"
     d="m 0.037495,12.86861 c 0.19358,0.22648 0.47808,-0.10199 0.66374,-0.2417 0.16378,-0.12353 0.33819,-0.26779 0.48946,-0.33846 0.78591,-0.36725 1.98655,-0.20701 2.75381,-0.55092 0.27204,-0.1219 0.49357,-0.31654 0.76548,-0.4269 0.25818,-0.105 0.48068,-0.0258 0.6851,0.0289 0.10861,0.0292 0.22513,0.0734 0.32494,0.10751 0.6469,0.2228 1.2965,0.46477 2.11814,0.46529 0.65941,3.6e-4 1.18813,-0.28064 1.69484,-0.46714 0.12865,-0.0474 0.30164,-0.0647 0.3841,-0.19675 -0.43271,-0.0312 -0.80507,-0.14192 -1.26869,-0.24954 -0.60896,-0.14124 -1.0784,-0.22773 -1.36768,-0.65773 0.24552,-0.10913 0.55044,-0.10463 0.82485,-0.0986 0.29959,0.006 0.59651,0.01 0.88349,0.0134 1.21196,0.014 2.15351,0.20917 3.12042,0.5024 0.46971,0.14223 0.9181,0.37253 1.32677,0.56093 0.8371,0.38635 1.58252,0.91227 2.29992,1.49997 0.3249,0.26615 0.63228,0.61495 0.98993,0.93738 0.15621,0.14099 0.31609,0.30042 0.48741,0.47773 0.16331,0.16856 0.40379,0.36875 0.45811,0.53007 0.0605,0.17788 -0.003,0.39342 -0.019,0.60077 -0.028,0.36047 -0.0302,0.74258 0.0534,1.0949 0.1084,0.45575 0.27951,0.8893 0.54519,1.20579 0.0783,-0.0978 0.0926,-0.25048 0.11845,-0.39244 0.18346,-0.33913 0.44337,-0.68972 0.37195,-1.19496 0.68344,0.23543 1.90443,0.015 2.63899,-0.10899 0.22079,-0.0374 0.44999,-0.0488 0.6194,-0.16583 -0.42248,-0.16924 -0.75182,-0.41558 -1.13434,-0.65955 -0.57861,-0.36875 -1.05823,-0.68069 -1.84519,-0.80302 -0.2551,-0.0396 -0.53968,-0.0381 -0.69541,-0.1613 -0.11956,-0.0943 -0.18907,-0.3338 -0.27778,-0.5609 -0.23945,-0.6143 -0.52692,-1.26063 -0.77267,-1.77057 -0.7385,-1.533 -1.70451,-2.8469104 -2.86544,-3.8028704 -0.58827,-0.48482 -1.25737,-0.84972 -1.98105,-1.25875 -0.13776,-0.15961 -0.38127,-0.36597 -0.46626,-0.6291 -0.0872,-0.27091 -0.0468,-0.52699 0.0912,-0.73985 0.32304,-0.33144 0.89325,-0.45204 1.07768,-0.90131 -0.36283,-0.18903 -0.77733,-0.19604 -1.17937,-0.17319 -0.86877,0.0494 -1.65971,0.24098 -2.28367,0.59705 -0.36831,0.21011 -0.69466,0.46432 -1.02716,0.69739 -0.11341,0.0793 -0.2379,0.19679 -0.34707,0.24389 -0.27835,0.11969 -0.75241,0.0612 -1.12411,0.10564 -0.92918,0.11143 -1.51633,0.27501 -2.25735,0.51165 -0.34678,0.11067 -0.70665,0.21976 -1.00392,0.36255 -0.25386,0.12205 -0.53129,0.34915 -0.80582,0.54659 -0.43382,0.31224 -0.71963,0.58683 -1.04196,0.93165 -0.53875,0.57614 -0.83054,1.24073 -1.1758,1.9747804 -0.15071,0.32042 -0.36574,0.7964 -0.32594,1.14136 -0.19639,0.44457 -0.55239,0.75307 -0.5586,1.35983 0.012,0.0203 0.0246,0.0378 0.0375,0.0529 z"
     style="fill:#ffffff;stroke-width:0.05080914;shape-rendering:crispEdges"
     inkscape:label="glyph" />
</svg>
