<?xml version="1.0" encoding="UTF-8" standalone="no"?><svg height="16" viewBox="0 0 4.2333332 4.2333332" width="16" xmlns="http://www.w3.org/2000/svg"><sodipodi:namedview/><metadata><rdf:RDF><cc:Work><dc:format>image/svg+xml</dc:format><dc:type/><dc:title/></cc:Work></rdf:RDF></metadata><path d="m2.1166666.0000882a2.1166666 2.1166666 0 0 0 -.3527777.029972v2.9686248c0 .09772-.078669.176389-.176389.176389h-.1763888c-.097719 0-.1763889-.078669-.1763889-.176389v-2.8033484a2.1166666 2.1166666 0 0 0 -1.2347222 1.92133 2.1166666 2.1166666 0 0 0 2.1166666 2.1166666 2.1166666 2.1166666 0 0 0 2.1166666-2.1166666 2.1166666 2.1166666 0 0 0 -2.1166666-2.1166666m-.087505 1.0583333a.08820326.09622137 0 0 1  .04203.012065l1.5875002.9622014a.08820326.09622137 0 0 1 0 .1681197l-1.5875.9622018a.08820326.09622137 0 0 1 -.1309141-.0840603v-1.9244027a.08820326.09622137 0 0 1  .088884-.096118" fill="#d0d0d0" stroke-linejoin="round" stroke-width="4"/></svg>