<?xml version="1.0" encoding="UTF-8" standalone="no"?>
<!-- Created with Inkscape (http://www.inkscape.org/) -->

<svg
   xmlns:dc="http://purl.org/dc/elements/1.1/"
   xmlns:cc="http://creativecommons.org/ns#"
   xmlns:rdf="http://www.w3.org/1999/02/22-rdf-syntax-ns#"
   xmlns:svg="http://www.w3.org/2000/svg"
   xmlns="http://www.w3.org/2000/svg"
   xmlns:sodipodi="http://sodipodi.sourceforge.net/DTD/sodipodi-0.dtd"
   xmlns:inkscape="http://www.inkscape.org/namespaces/inkscape"
   width="16"
   height="16"
   viewBox="0 0 4.2333332 4.2333332"
   version="1.1"
   id="svg8"
   inkscape:version="0.92+devel (f96dc7e339, 2017-07-28, custom)"
   sodipodi:docname="glyph-sage.svg">
  <defs
     id="defs2" />
  <sodipodi:namedview
     id="base"
     pagecolor="#002466"
     bordercolor="#ffffff"
     borderopacity="0.38039216"
     inkscape:pageopacity="1"
     inkscape:pageshadow="2"
     inkscape:zoom="36.415999"
     inkscape:cx="10.094581"
     inkscape:cy="7.9162778"
     inkscape:document-units="px"
     inkscape:current-layer="svg8"
     inkscape:document-rotation="0"
     showgrid="false"
     inkscape:showpageshadow="false"
     borderlayer="true"
     inkscape:window-width="1920"
     inkscape:window-height="1051"
     inkscape:window-x="0"
     inkscape:window-y="0"
     inkscape:window-maximized="1"
     units="px" />
  <metadata
     id="metadata5">
    <rdf:RDF>
      <cc:Work
         rdf:about="">
        <dc:format>image/svg+xml</dc:format>
        <dc:type
           rdf:resource="http://purl.org/dc/dcmitype/StillImage" />
        <dc:title></dc:title>
      </cc:Work>
    </rdf:RDF>
  </metadata>
  <path
     style="opacity:1;fill:#d0d0d0;fill-opacity:1;stroke:none;stroke-width:0.26458332"
     d="m 1.4252911,-1.8e-6 c -0.088233,0 -0.1595481,0.070923 -0.1595481,0.1584947 0,0.03445 0.013107,0.066024 0.03191,0.09203 L 0.89878071,0.7055562 c -0.0159403,-0.0042 -0.0305908,-0.010225 -0.0478629,-0.010225 -0.10729892,0 -0.19677712,0.087786 -0.19677712,0.1942827 0,0.00404 0.005077,0.00627 0.005323,0.010225 L 0.30846081,1.1299112 c -0.0258738,-0.017907 -0.0564793,-0.030676 -0.0904111,-0.030676 -0.088231,0 -0.15954813,0.070921 -0.15954813,0.1584946 0,0.053386 0.0283959,0.099081 0.069137,0.1278176 L 0.06381928,2.5717007 C 0.02493928,2.5927947 -1.5e-8,2.6371027 -1.5e-8,2.6841806 c 0,0.068649 0.058475495,0.1227066 0.127638495,0.1227066 0.003663,0 0.007066,3.257e-4 0.0106322,0 L 1.0104676,3.6913885 c -7.81e-5,0.00179 0,0.0033 0,0.00511 0,0.068649 0.053156,0.1278176 0.1223192,0.1278176 0.024535,0 0.049819,-0.00835 0.069137,-0.020452 l 0.4786459,0.2505242 c -9.784e-4,0.00713 -0.00532,0.013058 -0.00532,0.020452 0,0.087573 0.071317,0.1584947 0.1595481,0.1584947 0.082605,0 0.1459037,-0.063349 0.1542288,-0.1431586 L 3.2654074,3.7169517 c 0.02899,0.040101 0.079435,0.066465 0.1329562,0.066465 0.088229,0 0.1595481,-0.07092 0.1595481,-0.1584947 0,-0.037024 -0.015793,-0.070156 -0.037226,-0.097142 L 4.0737851,2.3160641 c 0.088228,0 0.1595481,-0.070921 0.1595481,-0.1584946 0,-0.076838 -0.054537,-0.1388324 -0.1276385,-0.1533821 L 3.9301902,1.4264487 c 0.027533,-0.0228 0.047866,-0.053654 0.047866,-0.09203 0,-0.068645 -0.058479,-0.1227051 -0.1276385,-0.1227051 -0.0059,0 -0.010274,0.00433 -0.015956,0.00511 L 3.0314029,0.2454083 c 0.00114,-0.00663 0.00531,-0.013531 0.00531,-0.02045 0,-0.068649 -0.058477,-0.1227067 -0.1276385,-0.1227067 -0.041187,0 -0.072905,0.020667 -0.095729,0.051128 L 1.5741875,0.1073655 C 1.5524021,0.0455148 1.4950241,-1.8e-6 1.4252765,-1.8e-6 Z m 0.1489111,0.2147346 1.2178834,0.046013 c 0.00801,0.027766 0.024594,0.050325 0.047865,0.066467 l -0.03191,0.1380444 C 2.7510483,0.4784781 2.7058004,0.5166645 2.680402,0.5675118 L 1.3189252,0.7311174 1.4093363,0.311875 c 0.00599,6.511e-4 0.00977,0.00511 0.015956,0.00511 0.06796,0 0.1258263,-0.04288 0.1489111,-0.1022563 z M 2.9622708,0.3374379 3.744055,1.2832933 c -0.00819,0.016526 -0.015956,0.031459 -0.015956,0.051126 0,0.034326 0.014556,0.064423 0.037229,0.086919 L 3.7015083,1.6002826 3.0207707,0.7413442 c 0.014947,-0.027324 0.026592,-0.058749 0.026592,-0.09203 0,-0.083359 -0.053026,-0.1520274 -0.1276385,-0.1789449 l 0.02659,-0.1278176 c 0.00549,-0.00177 0.010844,-0.00262 0.015956,-0.00511 z m -1.6167553,0.025564 -0.085092,0.3732293 -0.26059474,0.030677 c -0.001465,-0.00189 -0.003698,-0.00329 -0.005311,-0.00511 L 1.3455253,0.3630024 Z M 2.6857213,0.787359 2.2921687,2.3109516 c -0.012325,0.00278 -0.025695,0.00565 -0.037227,0.010225 L 1.2444689,1.1810386 1.7177955,1.1299128 c 0.021253,0.038588 0.064251,0.066465 0.1116837,0.066465 0.069161,0 0.1223207,-0.059171 0.1223207,-0.1278192 0,-0.00948 -0.00329,-0.016679 -0.00532,-0.025564 l 0.680738,-0.2505211 0.0585,-0.00511 z M 2.3932153,0.818034 1.9198887,0.9918681 c -0.022969,-0.027329 -0.05175,-0.046015 -0.09041,-0.046015 -0.069163,0 -0.1276385,0.054058 -0.1276385,0.1227034 0,0.00169 -6.35e-5,0.00347 0,0.00511 L 1.2338334,1.1299112 1.2710607,0.945852 2.3932153,0.8180328 Z M 2.8984516,0.8435973 3.6376907,1.7843402 3.4834603,2.2138094 2.5580828,2.4285457 c -0.013661,-0.02497 -0.031861,-0.042724 -0.053184,-0.061354 z M 1.2072415,0.9560772 1.1753319,1.1043483 1.0583288,0.9714165 1.2072415,0.9560788 Z m -0.50523625,0.051129 c 0.009444,0.011365 0.0201213,0.021722 0.0319114,0.030677 l -0.026592,0.1482679 -0.33505103,0.040902 c -3.2564e-4,-0.00169 3.2564e-4,-0.00345 0,-0.00511 z m 0.13827559,0.071578 c 0.003612,1.628e-4 0.006969,0 0.010632,0 0.003661,0 0.007034,1.628e-4 0.010632,0 l 0.0744567,0.081802 -0.11168532,0.015338 0.0159565,-0.097142 z M 0.98387416,1.2117156 1.1221498,1.3650961 1.0583289,1.6462958 c -0.0665335,0.00295 -0.11700145,0.055943 -0.11700145,0.1227067 0,0.03873 0.0198887,0.069233 0.0478647,0.09203 L 0.56904903,2.4950108 0.81368891,1.2321659 Z m -0.28718664,0.030677 -0.26591245,1.375323 c -0.047148,0.00938 -0.0841572,0.041081 -0.10636758,0.081803 l -0.0744531,-0.015338 c 0,-0.051486 -0.0295097,-0.098723 -0.0744563,-0.1175925 l 0.0638176,-1.1554775 c 0.0706545,-0.00964 0.12324233,-0.062802 0.13295785,-0.1329302 l 0.32441396,-0.03579 z m 0.46800888,0.178945 0.9466517,1.0583337 c -0.00182,0.00661 -0.00407,0.013628 -0.00532,0.020451 L 0.57436497,2.6637309 c -0.009883,-0.00982 -0.0197029,-0.01858 -0.0319096,-0.025564 L 1.0317337,1.886595 c 0.010486,0.00283 0.020519,0.00511 0.03191,0.00511 0.069161,0 0.1276385,-0.054057 0.1276385,-0.122705 0,-0.049083 -0.032838,-0.092279 -0.074456,-0.1124815 l 0.047864,-0.2351833 z m 2.6484972,0.030675 c 0.00332,9.785e-4 0.00721,-8.123e-4 0.010632,0 L 3.9674208,1.9428349 3.7440518,1.6514084 3.8131888,1.4520131 Z M 3.674918,1.8354675 3.8982854,2.1166673 3.5472796,2.1984717 Z M 3.9142402,2.2751619 3.409004,3.3743995 3.419636,2.6892934 c 0.053394,-0.010844 0.095729,-0.056276 0.095729,-0.1124798 0,-0.045571 -0.030685,-0.083179 -0.069137,-0.1022531 L 3.483456,2.3774165 3.914236,2.2751618 Z M 3.4249588,2.392756 3.3983688,2.459221 c -0.064717,0 -0.1170031,0.053361 -0.1170031,0.1175925 0,0.053653 0.035321,0.099057 0.085092,0.1124798 l -0.015956,0.7822482 c -0.039022,0.011935 -0.070474,0.042166 -0.09041,0.076692 L 2.5633989,3.3948498 c 0,-0.068645 -0.058479,-0.122705 -0.1276401,-0.122705 -0.067331,0 -0.1247777,0.051463 -0.1276385,0.117594 L 2.1379351,3.4306394 2.3506654,2.7864356 C 2.4670383,2.783863 2.5644621,2.6973775 2.5846698,2.5870387 L 3.4249555,2.392756 Z M 2.1326206,2.6586164 c 0.014605,0.026678 0.035236,0.052215 0.0585,0.071579 L 1.9464806,3.4766542 1.4359266,3.6044718 0.6115941,2.8324504 c 0.00114,-0.00311 0.004298,-0.00702 0.005324,-0.010225 L 2.1326255,2.658618 Z m -1.84543884,0.1329317 0.0212725,0.00511 c 9.7723e-4,0.0063 -0.001726,0.014426 0,0.02045 z m 0.12763687,0.1278193 c 0.0151261,0.00471 0.0311721,0.010225 0.0478661,0.010225 0.003566,0 0.007115,1.628e-4 0.0106322,0 L 1.1700093,3.5789087 c -0.010958,-0.00311 -0.025257,-0.00511 -0.037227,-0.00511 -0.024535,0 -0.044499,0.00835 -0.063818,0.020452 L 0.41481537,2.9193674 Z M 2.318759,3.4408646 c 0.017915,0.046904 0.063469,0.076692 0.117003,0.076692 0.051872,0 0.097991,-0.026966 0.1170014,-0.071579 L 3.1590463,3.578909 1.9783902,3.9214611 2.1219835,3.4868794 Z M 1.9305274,3.5380067 1.8028873,3.9214611 c -0.00703,0.0013 -0.014605,0.0028 -0.021273,0.00511 L 1.4784733,3.645374 Z m -0.6381941,0.1533821 0.079774,0.076692 -0.1116837,-0.061354 c 1.628e-4,-0.00324 0,-0.00692 0,-0.010225 z"
     id="path14"
     inkscape:connector-curvature="0"
     inkscape:label="#" />
</svg>
