<?xml version="1.0" encoding="UTF-8" standalone="no"?>
<!-- Created with Inkscape (http://www.inkscape.org/) -->

<svg
   xmlns:dc="http://purl.org/dc/elements/1.1/"
   xmlns:cc="http://creativecommons.org/ns#"
   xmlns:rdf="http://www.w3.org/1999/02/22-rdf-syntax-ns#"
   xmlns:svg="http://www.w3.org/2000/svg"
   xmlns="http://www.w3.org/2000/svg"
   xmlns:sodipodi="http://sodipodi.sourceforge.net/DTD/sodipodi-0.dtd"
   xmlns:inkscape="http://www.inkscape.org/namespaces/inkscape"
   width="22"
   height="22"
   viewBox="0 0 22 22"
   version="1.1"
   id="svg8"
   inkscape:version="0.92+devel 15681 custom"
   sodipodi:docname="glyph-usb.svg">
  <defs
     id="ol-defs">
    <style
       id="current-color-scheme">      .ColorScheme-Text {
        color:#d0d0d0;
        stop-color:#d0d0d0;
      }
      .ColorScheme-Background {
        color:#212121;
        stop-color:#212121;
      }
      .ColorScheme-Highlight {
        color:#0039a9;
        stop-color:#0039a9;
      }
      .ColorScheme-ViewText {
        color:#d0d0d0;
        stop-color:#d0d0d0;
      }
      .ColorScheme-ViewBackground {
        color:#19191b;
        stop-color:#19191b;
      }
      .ColorScheme-ViewHover {
        color:#005cc7;
        stop-color:#005cc7;
      }
      .ColorScheme-ViewFocus{
        color:#002466;
        stop-color:#002466;
      }
      .ColorScheme-ButtonText {
        color:#d0d0d0;
        stop-color:#d0d0d0;
      }
      .ColorScheme-ButtonBackground {
        color:#232323;
        stop-color:#232323;                             
      }                                                 
      .ColorScheme-ButtonHover {                        
        color:#005cc7;                                  
        stop-color:#005cc7;                             
      }                                                 
      .ColorScheme-ButtonFocus{                         
        color:#0039a9;                                  
        stop-color:#0039a9;                             
      }</style>
  </defs>
  <sodipodi:namedview
     id="base"
     pagecolor="#002266"
     bordercolor="#ffffff"
     borderopacity="0.46666667"
     inkscape:pageopacity="0"
     inkscape:pageshadow="2"
     inkscape:zoom="26.162952"
     inkscape:cx="16.621911"
     inkscape:cy="12.794693"
     inkscape:document-units="px"
     inkscape:current-layer="svg8"
     inkscape:document-rotation="0"
     showgrid="false"
     inkscape:showpageshadow="false"
     borderlayer="true"
     units="px"
     fit-margin-top="0"
     fit-margin-left="0"
     fit-margin-right="0"
     fit-margin-bottom="0"
     inkscape:window-width="1920"
     inkscape:window-height="1051"
     inkscape:window-x="0"
     inkscape:window-y="0"
     inkscape:window-maximized="1" />
  <metadata
     id="metadata5">
    <rdf:RDF>
      <cc:Work
         rdf:about="">
        <dc:format>image/svg+xml</dc:format>
        <dc:type
           rdf:resource="http://purl.org/dc/dcmitype/StillImage" />
        <dc:title></dc:title>
      </cc:Work>
    </rdf:RDF>
  </metadata>
  <path
     id="path1334"
     d="m 11.000526,0 -1.7641868,3.0549128 1.2584878,-1.3e-6 -1e-6,11.3645005 -3.212125,-3.040325 C 7.0753141,11.12035 6.9298263,10.781812 6.921764,10.433562 6.9217636,9.0247622 6.9214015,9.6881496 6.9207889,9.3801996 7.515501,9.1714621 7.9447636,8.6107484 7.9447638,7.9441747 7.9447629,7.1009132 7.2604886,6.4165625 6.4169137,6.4165625 c -0.8439373,0 -1.5279747,0.6842869 -1.5279749,1.5276122 -1e-7,0.666575 0.4290255,1.2272862 1.0232502,1.4360249 L 5.9117637,10.40365 c 1e-7,0.683912 0.375225,1.400548 0.8151122,1.856673 -0.013006,-0.01251 -0.027005,-0.02538 2.506e-4,7.39e-4 0.01125,0.01 3.4076125,3.225675 3.4076125,3.225675 0.207088,0.2582 0.351663,0.59655 0.359976,0.944548 l -10e-7,0.516389 c -1.1669128,0.234135 -2.0460758,1.264599 -2.0460748,2.500675 0,1.409286 1.142362,2.55165 2.5512258,2.551651 1.409286,-2e-6 2.551711,-1.142365 2.551712,-2.551651 -10e-7,-1.236325 -0.879901,-2.266776 -2.047787,-2.500912 l -1e-6,-0.485439 c 5e-5,-0.0049 2.47e-4,-0.0088 3.5e-5,-0.01344 l -8e-6,-2.588481 c 0.0088,-0.347325 0.153616,-0.685261 0.360955,-0.9432 0,0 3.396499,-3.2152994 3.407486,-3.2252494 0.02729,-0.025713 0.0131,-0.013087 2.5e-4,-2.487e-4 0.439844,-0.4561088 0.814815,-1.173075 0.814814,-1.8571124 l -5.52e-4,-0.9318628 1.024292,-1.2e-6 -4e-6,-3.0556979 -3.055397,-1.8e-6 -2e-6,3.0557015 1.022952,-10e-8 c 0,0 -0.0012,-0.8594881 -0.0012,0.961661 -0.0075,0.3483 -0.153311,0.6872125 -0.3607,0.9458262 l -3.212737,3.0409996 10e-7,-8.7960004 1.260497,1.3e-6 z"
     inkscape:connector-curvature="0"
     style="fill:#d0d0d0;stroke-width:0.06105303"
     sodipodi:nodetypes="ccccccccsscccccccscccccccccccccccccccccc"
     inkscape:label="glyph" />
</svg>
