<?xml version="1.0" encoding="UTF-8" standalone="no"?><svg height="22" viewBox="0 0 5.8208332 5.8208335" width="22" xmlns="http://www.w3.org/2000/svg"><sodipodi:namedview/><metadata><rdf:RDF><cc:Work><dc:format>image/svg+xml</dc:format><dc:type/><dc:title/></cc:Work></rdf:RDF></metadata><path d="m2.7544687.00001718a.40498402.40487232 0 0 0 -.2841215.12019645.40498402.40487232 0 0 0  .0019.57314739l.9953732.99510018h-2.78616358a.40498402.40487232 0 0 0 -.29108225.1220943.40498402.40487232 0 0 0 -.11516732.2840433.40498402.40487232 0 0 0  .40435127.4042397h1.41048338l-1.96986758 1.9693243a.40498402.40487232 0 0 0 -.002531.5731472.40498402.40487232 0 0 0  .5758367 0l1.01752208-1.0178743a2.0643182 2.0637489 0 0 0  .586594 1.1931082 2.0643182 2.0637489 0 0 0 2.9196819-.0006325 2.0643182 2.0637489 0 0 0  .051888-2.862574.40498402.40487232 0 0 0 -.048725-.059466l-2.1742571-2.17365774a.40498402.40487232 0 0 0 -.2917152-.12019648zm1.0213192 2.51463662a1.242615 1.2422723 0 0 1  .8599583.3637525 1.242615 1.2422723 0 0 1  .0006327 1.7567662 1.242615 1.2422723 0 0 1 -1.7578836 0 1.242615 1.2422723 0 0 1 0-1.7567662 1.242615 1.2422723 0 0 1  .8972926-.3637525zm-.0189838.6655091a.57684958.57669047 0 0 0 -.5764694.576943.57684958.57669047 0 0 0  .5764694.5763104.57684958.57669047 0 0 0  .5771023-.5763104.57684958.57669047 0 0 0 -.5771023-.576943z" fill="#fff"/></svg>