<?xml version="1.0" encoding="UTF-8" standalone="no"?><svg height="22" viewBox="0 0 5.8208332 5.8208335" width="22" xmlns="http://www.w3.org/2000/svg"><sodipodi:namedview/><metadata><rdf:RDF><cc:Work><dc:format>image/svg+xml</dc:format><dc:type/><dc:title/></cc:Work></rdf:RDF></metadata><path d="m1.2572876.92552498-1.25728757.72553712 1.25728757.7260539v-.3260783c.4364305.00213.6348086.1118006.7994344.2764689.1662448.1662874.2949805.4309401.4371826.7462078.1422022.3152669.2995956.6821244.6133994.9859862.3138037.3038615.7853838.5038452 1.4024982.5038452h.053744v.3317626l1.2572871-.7260539-1.2572876-.725537v.3255616h-.053743c-.4633108 0-.6769099-.1129059-.8495606-.2800863-.1726512-.1671807-.3022999-.4287679-.4433842-.7415567-.1410843-.3127892-.2932198-.6755475-.5978963-.980302-.3027052-.302783-.763516-.5074112-1.361674-.5100464zm3.3062581 0v .33124592h-.053744c-.6171144 0-1.0886945.2005005-1.4024982.504362-.00224.00217-.00398.00454-.0062.00672.1899406.2681085.3070584.5394845.4051424.7580912.0483706-.0730332.0984509-.1405184.1539957-.1943034.1726507-.1671807.3862498-.2811198.8495606-.2811198h.053744v.3265951l1.2572871-.7260539zm-2.3590291 2.37763262c-.0465994.0720458-.0951563.137518-.1477946.1901693-.164621.1646634-.3630307.2728124-.7994344.2749187v-.3245281l-1.25728757.725537 1.25728757.7260539v-.3322793c.5981574-.00264 1.058969-.2062303 1.361674-.5090128.0051-.00511.00859-.011341.013436-.016536-.1996818-.251832-.3263569-.5104251-.427881-.7343227z" fill="#fff"/></svg>