<?xml version="1.0" encoding="UTF-8" standalone="no"?><svg height="16" viewBox="0 0 4.2333333 4.2333333" width="16" xmlns="http://www.w3.org/2000/svg"><sodipodi:namedview/><metadata><rdf:RDF><cc:Work><dc:format>image/svg+xml</dc:format><dc:type/><dc:title/></cc:Work></rdf:RDF></metadata><path d="m3.4036678 1.4891119c-.1701849 0-.3190967.063819-.4254623.170184l-1.5103914-.8721942c.021318-.042546.021318-.1063647.021318-.1489109 0-.3616412-.2765415-.6381908-.6381845-.6381908s-.63819352.2765496-.63819352.6381908.27655052.6381908.63819352.6381908c.1701849 0 .3190967-.063819.4254623-.170184l1.5103824.8721942c-.021228.042546-.021228.1063656-.021228.1489109 0 .042546 0 .1063656.021228.1489118l-1.5103823.8934673c-.1063656-.1063655-.2552774-.1701849-.4254623-.1701849-.34036989 0-.61692041.2765496-.61692041.6169186 0 .3403681.27655052.6169178.61692041.6169178.3403698 0 .6169113-.2765496.6169113-.6169178 0-.042546 0-.085093-.021318-.1489118l1.5103913-.8934673c.1063655.1063655.2552774.1701849.4254623.1701849.361634 0 .6381845-.2765496.6381845-.6381917 0-.3616412-.2552774-.6169177-.6169113-.6169177z" fill="#d0d0d0" stroke-width=".008342"/></svg>