<?xml version="1.0" encoding="UTF-8" standalone="no"?><svg height="16" viewBox="0 0 4.2333332 4.2333332" width="16" xmlns="http://www.w3.org/2000/svg" xmlns:xlink="http://www.w3.org/1999/xlink"><defs><linearGradient id="a" gradientTransform="matrix(.26458333 0 0 .26458333 -95.997565 -132.59022)" gradientUnits="userSpaceOnUse" x2="0" y1="522.79999" y2="492.79999"><stop offset="0" stop-color="#7cbaf8"/><stop offset="1" stop-color="#f4fcff"/></linearGradient></defs><sodipodi:namedview/><metadata><rdf:RDF><cc:Work><dc:format>image/svg+xml</dc:format><dc:type/><dc:title/></cc:Work></rdf:RDF></metadata><path d="m3.0714459.00063175-.2301664.1888922s.6456448.86212335.6448026 1.91419185c-.0008436 1.0529108-.5976321 1.8994511-.5976321 1.8994511l.1888921.2301663s1.0390123-.6542788 1.0400652-2.1289857c.0010506-1.4740752-1.0459614-2.1043475-1.0459614-2.1043475m-2.32272147.5224543h-.63153586l-.0006317.6317465h.63174637zm1.89460787 1.2655989-1.2634931-.00105v.6317463l1.2632823.00105zm-1.89523966 1.2620188h-.63174637v.6315359h.21037148c-.0002106.2105822-.21037148.2105822-.21037148.2105822l-.00042119.2103716.21058207.0004211c.4211643.0002106.4211643-.4209537.4211643-.4209537z" fill="url(#a)" stroke-linejoin="round" stroke-width=".529167"/></svg>