<?xml version="1.0" encoding="UTF-8" standalone="no"?>
<!-- Created with Inkscape (http://www.inkscape.org/) -->

<svg
     xmlns:dc="http://purl.org/dc/elements/1.1/"
     xmlns:cc="http://creativecommons.org/ns#"
     xmlns:rdf="http://www.w3.org/1999/02/22-rdf-syntax-ns#"
     xmlns:svg="http://www.w3.org/2000/svg"
     xmlns="http://www.w3.org/2000/svg"
     xmlns:sodipodi="http://sodipodi.sourceforge.net/DTD/sodipodi-0.dtd"
     xmlns:inkscape="http://www.inkscape.org/namespaces/inkscape"
     width="16"
     height="16"
     viewBox="0 0 4.2333333 4.2333333"
     version="1.1"
     id="svg8"
     inkscape:version="0.92+devel (fa9b7f7a5b, 2017-07-19, custom)"
     sodipodi:docname="glyph-subtitle.svg">
    <defs
         id="defs2" />
    <sodipodi:namedview
         id="base"
         pagecolor="#002466"
         bordercolor="#ffffff"
         borderopacity="0.38039216"
         inkscape:pageopacity="1"
         inkscape:pageshadow="2"
         inkscape:zoom="26.8125"
         inkscape:cx="8"
         inkscape:cy="8"
         inkscape:document-units="px"
         inkscape:current-layer="svg8"
         inkscape:document-rotation="0"
         showgrid="false"
         inkscape:showpageshadow="false"
         borderlayer="true"
         inkscape:window-width="1920"
         inkscape:window-height="1051"
         inkscape:window-x="0"
         inkscape:window-y="0"
         inkscape:window-maximized="1"
         units="px"
         inkscape:object-paths="true"
         inkscape:snap-intersection-paths="true"
         inkscape:snap-center="true" />
    <metadata
         id="metadata5">
        <rdf:RDF>
            <cc:Work
                 rdf:about="">
                <dc:format>image/svg+xml</dc:format>
                <dc:type
                     rdf:resource="http://purl.org/dc/dcmitype/StillImage" />
                <dc:title />
            </cc:Work>
        </rdf:RDF>
    </metadata>
    <path
         style="opacity:1;fill:#d0d0d0;stroke-width:0.34395835"
         d="M 0.29075094,0.33057687 C 0.12950353,0.33057687 2e-8,0.46008044 2e-8,0.62132776 V 2.6472802 c 0,0.1062342 0.0591639,0.1946728 0.14363096,0.2453936 l -0.008141,5.954e-4 1.45724362,1.0094872 V 2.9380447 h 2.3498488 c 0.1612476,0 0.290751,-0.1295035 0.290751,-0.2907508 V 0.62132776 c 0,-0.16124732 -0.1295034,-0.29075092 -0.290751,-0.29075089 z M 0.84782968,1.2574908 A 0.37703616,0.37703616 0 0 1 1.2246429,1.6343039 0.37703616,0.37703616 0 0 1 0.84782968,2.0111171 0.37703616,0.37703616 0 0 1 0.47101649,1.6343039 0.37703616,0.37703616 0 0 1 0.84782968,1.2574908 Z m 1.26883702,0 A 0.37703616,0.37703616 0 0 1 2.4934799,1.6343039 0.37703616,0.37703616 0 0 1 2.1166667,2.0111171 0.37703616,0.37703616 0 0 1 1.739272,1.6343039 0.37703616,0.37703616 0 0 1 2.1166667,1.2574908 Z m 1.2688371,0 A 0.37703616,0.37703616 0 0 1 3.762317,1.6343039 0.37703616,0.37703616 0 0 1 3.3855038,2.0111171 0.37703616,0.37703616 0 0 1 3.0081091,1.6343039 0.37703616,0.37703616 0 0 1 3.3855038,1.2574908 Z"
         id="rect811"
         inkscape:connector-curvature="0"
         inkscape:label="#" />
</svg>
