<?xml version="1.0" encoding="UTF-8" standalone="no"?>
<!-- Created with Inkscape (http://www.inkscape.org/) -->

<svg
   xmlns:dc="http://purl.org/dc/elements/1.1/"
   xmlns:cc="http://creativecommons.org/ns#"
   xmlns:rdf="http://www.w3.org/1999/02/22-rdf-syntax-ns#"
   xmlns:svg="http://www.w3.org/2000/svg"
   xmlns="http://www.w3.org/2000/svg"
   xmlns:sodipodi="http://sodipodi.sourceforge.net/DTD/sodipodi-0.dtd"
   xmlns:inkscape="http://www.inkscape.org/namespaces/inkscape"
   width="16"
   height="16"
   viewBox="0 0 4.2333332 4.2333332"
   version="1.1"
   id="svg8"
   inkscape:version="0.92+devel (4546dc857e, 2017-07-25, custom)"
   sodipodi:docname="glyph-paint-palette.svg">
  <defs
     id="defs2" />
  <sodipodi:namedview
     id="base"
     pagecolor="#002466"
     bordercolor="#ffffff"
     borderopacity="0.38039216"
     inkscape:pageopacity="1"
     inkscape:pageshadow="2"
     inkscape:zoom="36.415999"
     inkscape:cx="10.094581"
     inkscape:cy="7.9162778"
     inkscape:document-units="px"
     inkscape:current-layer="svg8"
     inkscape:document-rotation="0"
     showgrid="false"
     inkscape:showpageshadow="false"
     borderlayer="true"
     inkscape:window-width="1920"
     inkscape:window-height="1051"
     inkscape:window-x="0"
     inkscape:window-y="0"
     inkscape:window-maximized="1"
     units="px" />
  <metadata
     id="metadata5">
    <rdf:RDF>
      <cc:Work
         rdf:about="">
        <dc:format>image/svg+xml</dc:format>
        <dc:type
           rdf:resource="http://purl.org/dc/dcmitype/StillImage" />
        <dc:title></dc:title>
      </cc:Work>
    </rdf:RDF>
  </metadata>
  <path
     id="path7750"
     d="m 1.7286269,0.16500928 c -0.06285,0.00773 -0.125127,0.017892 -0.1868901,0.03029 C 0.33631987,0.42992808 -0.30014733,1.7471219 0.13925767,2.6772548 0.72809407,3.9237023 2.3145126,4.4125875 3.9913888,3.8745041 4.485641,3.6995706 4.123782,3.1211474 3.7826101,3.2356077 3.4414352,3.3500439 3.2268549,2.796125 3.5992746,2.6752371 3.971707,2.5543832 4.2326672,2.0334236 4.028787,1.4042465 3.6982647,0.38428388 2.6707926,0.04519588 1.7286818,0.16538368 Z m 0.1153322,0.3264713 A 0.26706293,0.21957797 81.67658 0 1 2.0997723,0.72396028 0.26706293,0.21957797 81.67658 0 1 1.9212796,1.019981 0.26706293,0.21957797 81.67658 0 1 1.6654666,0.78750128 0.26706293,0.21957797 81.67658 0 1 1.8439591,0.49148058 Z m 1.0342248,0.1766205 a 0.21957797,0.26706293 38.050545 0 1 0.1429814,0.038555 0.21957797,0.26706293 38.050545 0 1 0.00836,0.34579762 0.21957797,0.26706293 38.050545 0 1 -0.3375562,0.074743 0.21957797,0.26706293 38.050545 0 1 -0.00831,-0.34544272 0.21957797,0.26706293 38.050545 0 1 0.1945235,-0.1136533 z m -1.98757303,0.2999736 a 0.26706293,0.21957797 34.922278 0 1 0.21230043,0.053034 0.26706293,0.21957797 34.922278 0 1 0.093155,0.3330203 0.26706293,0.21957797 34.922278 0 1 -0.34456003,0.026887 0.26706293,0.21957797 34.922278 0 1 -0.093103,-0.3326703 0.26706293,0.21957797 34.922278 0 1 0.1321999,-0.080315 z M 0.66429567,1.8634153 A 0.21957797,0.26706293 81.315235 0 1 0.96154377,2.0402595 0.21957797,0.26706293 81.315235 0 1 0.73076427,2.2976618 0.21957797,0.26706293 81.315235 0 1 0.43351557,2.1208126 0.21957797,0.26706293 81.315235 0 1 0.66429567,1.8634153 Z M 3.4337189,1.4909206 A 0.21957797,0.26706296 81.341277 0 1 3.7306074,1.6678185 0.21957797,0.26706296 81.341277 0 1 3.4998275,1.9252206 0.21957797,0.26706296 81.341277 0 1 3.2025801,1.7483764 0.21957797,0.26706296 81.341277 0 1 3.4337189,1.4909206 Z"
     style="fill:#d0d0d0;fill-opacity:1;stroke:none;stroke-width:0.27723718;shape-rendering:crispEdges"
     inkscape:connector-curvature="0"
     inkscape:label="#1" />
</svg>
