<?xml version="1.0" encoding="UTF-8" standalone="no"?>
<!-- Created with Inkscape (http://www.inkscape.org/) -->

<svg
   xmlns:dc="http://purl.org/dc/elements/1.1/"
   xmlns:cc="http://creativecommons.org/ns#"
   xmlns:rdf="http://www.w3.org/1999/02/22-rdf-syntax-ns#"
   xmlns:svg="http://www.w3.org/2000/svg"
   xmlns="http://www.w3.org/2000/svg"
   xmlns:sodipodi="http://sodipodi.sourceforge.net/DTD/sodipodi-0.dtd"
   xmlns:inkscape="http://www.inkscape.org/namespaces/inkscape"
   width="16"
   height="16"
   viewBox="0 0 4.2333332 4.2333332"
   version="1.1"
   id="svg8"
   inkscape:version="0.92+devel (f96dc7e339, 2017-07-28, custom)"
   sodipodi:docname="glyph-atomic.svg">
  <defs
     id="defs2" />
  <sodipodi:namedview
     id="base"
     pagecolor="#002466"
     bordercolor="#ffffff"
     borderopacity="0.38039216"
     inkscape:pageopacity="1"
     inkscape:pageshadow="2"
     inkscape:zoom="36.415999"
     inkscape:cx="10.094581"
     inkscape:cy="7.9162778"
     inkscape:document-units="px"
     inkscape:current-layer="svg8"
     inkscape:document-rotation="0"
     showgrid="false"
     inkscape:showpageshadow="false"
     borderlayer="true"
     inkscape:window-width="1920"
     inkscape:window-height="1051"
     inkscape:window-x="0"
     inkscape:window-y="0"
     inkscape:window-maximized="1"
     units="px"
     inkscape:snap-page="true"
     inkscape:snap-global="true"
     inkscape:snap-object-midpoints="true" />
  <metadata
     id="metadata5">
    <rdf:RDF>
      <cc:Work
         rdf:about="">
        <dc:format>image/svg+xml</dc:format>
        <dc:type
           rdf:resource="http://purl.org/dc/dcmitype/StillImage" />
        <dc:title></dc:title>
      </cc:Work>
    </rdf:RDF>
  </metadata>
  <path
     style="font-variation-settings:normal;vector-effect:none;fill:#d0d0d0;stroke-width:3.03700018;stroke-linecap:square"
     d="M 8.2363281 0 A 2.8910941 8.0000002 0 0 0 5.7851562 3.7578125 A 8 2.8910941 30 0 0 1.3085938 4 A 8 2.8910941 30 0 0 3.3359375 7.9980469 A 2.8910941 8 60 0 0 1.3066406 12 A 2.8910941 8 60 0 0 5.7871094 12.240234 A 2.8910941 8.0000002 0 0 0 8.2363281 16 A 2.8910941 8.0000002 0 0 0 10.685547 12.240234 A 8 2.8910941 30 0 0 15.164062 12 A 8 2.8910941 30 0 0 13.134766 7.9980469 A 2.8910941 8 60 0 0 15.162109 4 A 2.8910941 8 60 0 0 10.683594 3.7597656 A 2.8910941 8.0000002 0 0 0 8.2363281 0 z M 8.2363281 0.90625 A 2.5810107 7.0939959 0 0 1 10.330078 3.8710938 A 2.8910941 8 60 0 0 8.234375 4.734375 A 8 2.8910941 30 0 0 6.1386719 3.8710938 A 2.5810107 7.0939959 0 0 1 8.2363281 0.90625 z M 3.8945312 3.8105469 A 7.0939958 2.5810108 30 0 1 5.7089844 4.1210938 A 2.8910941 8.0000002 0 0 0 5.4082031 6.3671875 A 2.8910941 8 60 0 0 3.6132812 7.7519531 A 7.0939958 2.5810108 30 0 1 2.0917969 4.453125 A 7.0939958 2.5810108 30 0 1 3.8945312 3.8105469 z M 12.576172 3.8105469 A 2.5810108 7.0939958 60 0 1 14.378906 4.453125 A 2.5810108 7.0939958 60 0 1 12.857422 7.7519531 A 8 2.8910941 30 0 0 11.064453 6.3691406 A 2.8910941 8.0000002 0 0 0 10.763672 4.1210938 A 2.5810108 7.0939958 60 0 1 12.576172 3.8105469 z M 10.417969 4.21875 A 2.5810107 7.0939959 0 0 1 10.724609 6.140625 A 8 2.8910941 30 0 0 9.6816406 5.4960938 A 8 2.8910941 30 0 0 8.5976562 4.9140625 A 2.5810108 7.0939958 60 0 1 10.417969 4.21875 z M 6.0546875 4.2207031 A 7.0939958 2.5810108 30 0 1 7.8730469 4.9140625 A 2.8910941 8 60 0 0 6.7890625 5.4960938 A 2.8910941 8 60 0 0 5.7480469 6.1386719 A 2.5810107 7.0939959 0 0 1 6.0546875 4.2207031 z M 8.234375 5.0859375 A 7.0939958 2.5810108 30 0 1 9.5253906 5.765625 A 7.0939958 2.5810108 30 0 1 10.757812 6.5410156 A 2.5810107 7.0939959 0 0 1 10.816406 8 A 2.5810107 7.0939959 0 0 1 10.761719 9.4570312 A 2.5810108 7.0939958 60 0 1 9.5253906 10.234375 A 2.5810108 7.0939958 60 0 1 8.234375 10.914062 A 7.0939958 2.5810108 30 0 1 6.9453125 10.234375 A 7.0939958 2.5810108 30 0 1 5.7128906 9.4589844 A 2.5810107 7.0939959 0 0 1 5.6542969 8 A 2.5810107 7.0939959 0 0 1 5.7089844 6.5429688 A 2.5810108 7.0939958 60 0 1 6.9453125 5.765625 A 2.5810108 7.0939958 60 0 1 8.234375 5.0859375 z M 5.3808594 6.7753906 A 2.8910941 8.0000002 0 0 0 5.34375 8 A 2.8910941 8.0000002 0 0 0 5.3808594 9.2246094 A 7.0939958 2.5810108 30 0 1 3.8730469 8 A 2.5810108 7.0939958 60 0 1 5.3808594 6.7753906 z M 11.089844 6.7753906 A 7.0939958 2.5810108 30 0 1 12.597656 8 A 2.5810108 7.0939958 60 0 1 11.091797 9.2226562 A 2.8910941 8.0000002 0 0 0 11.126953 8 A 2.8910941 8.0000002 0 0 0 11.089844 6.7753906 z M 3.6132812 8.2480469 A 8 2.8910941 30 0 0 5.40625 9.6308594 A 2.8910941 8.0000002 0 0 0 5.7070312 11.878906 A 2.5810108 7.0939958 60 0 1 2.0917969 11.546875 A 2.5810108 7.0939958 60 0 1 3.6132812 8.2480469 z M 12.857422 8.2480469 A 7.0939958 2.5810108 30 0 1 14.378906 11.546875 A 7.0939958 2.5810108 30 0 1 10.759766 11.878906 A 2.8910941 8.0000002 0 0 0 11.0625 9.6308594 A 2.8910941 8 60 0 0 12.857422 8.2480469 z M 5.7441406 9.859375 A 8 2.8910941 30 0 0 6.7890625 10.503906 A 8 2.8910941 30 0 0 7.8730469 11.085938 A 2.5810108 7.0939958 60 0 1 6.0527344 11.78125 A 2.5810107 7.0939959 0 0 1 5.7441406 9.859375 z M 10.722656 9.8613281 A 2.5810107 7.0939959 0 0 1 10.416016 11.78125 A 7.0939958 2.5810108 30 0 1 8.5976562 11.085938 A 2.8910941 8 60 0 0 9.6816406 10.503906 A 2.8910941 8 60 0 0 10.722656 9.8613281 z M 8.234375 11.265625 A 8 2.8910941 30 0 0 10.332031 12.128906 A 2.5810107 7.0939959 0 0 1 8.2363281 15.09375 A 2.5810107 7.0939959 0 0 1 6.140625 12.128906 A 2.8910941 8 60 0 0 8.234375 11.265625 z "
     transform="scale(0.26458333)"
     id="path811" />
  <path
     style="font-variation-settings:normal;vector-effect:none;fill:#d0d0d0;stroke-width:0.80353963;stroke-linecap:square"
     d="M 2.1697562,1.5413224 A 0.28967027,0.28967027 0 0 0 1.8801669,1.8309117 0.28967027,0.28967027 0 0 0 1.9081917,1.9547743 0.28967027,0.28967027 0 0 0 1.6417833,2.2436716 0.28967027,0.28967027 0 0 0 1.9317186,2.5332608 0.28967027,0.28967027 0 0 0 2.1697562,2.4080144 0.28967027,0.28967027 0 0 0 2.4077937,2.5332608 0.28967027,0.28967027 0 0 0 2.6973831,2.2436716 0.28967027,0.28967027 0 0 0 2.4309747,1.9551203 0.28967027,0.28967027 0 0 0 2.4593455,1.8309117 0.28967027,0.28967027 0 0 0 2.1697562,1.5413224 Z"
     id="path828"
     inkscape:connector-curvature="0" />
</svg>
