<?xml version="1.0" encoding="UTF-8" standalone="no"?><svg height="16" viewBox="0 0 16 16" width="16" xmlns="http://www.w3.org/2000/svg"><metadata><rdf:RDF><cc:Work><dc:format>image/svg+xml</dc:format><dc:type/><dc:title>logo_ue4_blk</dc:title></cc:Work></rdf:RDF></metadata><sodipodi:namedview/><path d="m7.8275179 1.049306a.78381417.78381417 0 0 1 -.0832.0248c-.10903.029-.30256.0874-.48642.14805a9.1328866 9.1328866 0 0 0 -2.28596 1.12057c-.96026.64511-1.91599 1.51601-2.98753 2.71819q-1.09475999 1.22958-1.59181999 2.50885c-.30353.78058-.43965 1.58698-.37836 2.2379.005.05.0116.10483.0148.12063l.007.029.009-.0226c.0323-.0816.19773-.39804.30353-.58448a12.093317 12.093317 0 0 1 1.68987999-2.28177c.49287-.52931.88574-.84897 1.267-1.03508.24031-.11645.46126-.16806.63415-.14709.16289.02.26353.0674.36643.17128a.55221805.55221805 0 0 1  .14708.24611l.019.0623.003 2.73077c.002 1.7831 0 2.7598-.006 2.81367a.64801756.64801756 0 0 1 -.0665.24934c-.10225.21514-.34256.31739-.67737.28836a2.1308133 2.1308133 0 0 1 -.37836-.0748c-.0323-.01-.05-.0126-.0464-.007.004.006.0242.0348.0464.0674.23289.32417.60092.69092.98186.97412 1.00735.75317 2.51595 1.30926 4.12874 1.52376l.19934.0261.0458-.049c.0248-.0265.14225-.15128.26095-.27675.33739-.3574.39481-.41933.88445-.93864.2535301-.26934.4654501-.49029.4696501-.49029.004 0 .10386.0797.2203.1787l.86026.72639.46965.39804c.011.008.0342-.003.12902-.0616a9.16611 9.16611 0 0 0 1.31345-.98348c.1687-.14966.64512-.62672.80285-.80639a12.37749 12.37749 0 0 0 1.24345-1.6502c.22579-.35481.48545-.82123.60512-1.08057l.0384-.0832-.23095.22934c-.43901.43384-.76221.70672-1.12121.94025-.59609.39062-1.09218.5161-1.46732.37159a.67285447.67285447 0 0 1 -.22579-.14644l-.0371-.041-.006-.0948c-.0168-.28417-.0323-.90122-.0522-2.02404-.0174-1.00251-.02-3.44072-.004-3.85714.0132-.36062.0248-.55448.039-.65834.0116-.0839.0132-.0874.0816-.20354.17967-.30578.40481-.63511.74479-1.08637.30352-.40481.79962-1.0267 1.12637-1.41409.0365-.0432.0722-.0864.079-.0948.0126-.0148.0116-.0158-.0242-.01-.18192.0274-.65092.15031-.96025.25191-1.24443.40643-2.46144 1.15379-3.30105 2.02502l-.12483.12902-.04-.0284c-.23869-.16967-.7141401-.27611-1.1979801-.26837l-.15805.003.0548.0342c.17031.10903.35159.29675.49545.51609a2.0821072 2.0821072 0 0 1  .29934.70253l.0232.10225.002 2.93011.003 2.93011-.10644.0839c-.48222.3832-.96187.64092-1.3441.72317-.34997.0748-.67737-.003-.93928-.22579a1.2686177 1.2686177 0 0 1 -.28192-.36739l-.03-.059v-3.51329c0-1.9318-.003-3.51136-.006-3.50943-.17031.0864-.23289.10645-.34417.10645a.39126197.39126197 0 0 1 -.30772-.13225c-.0948-.0968-.15128-.20773-.19966-.399-.0374-.14548-.05-.25805-.0548-.49126-.005-.24514.005-.34675.0506-.52544a2.1672623 2.1672623 0 0 1  .3274-.7006c.23514-.3432.59866-.69414.9867-.95187.0506-.0322.0948-.0645.0997-.068.0113-.009-.003-.009-.0197.00064z" fill="#d0d0d0" stroke-width=".032256"/></svg>