<?xml version="1.0" encoding="UTF-8" standalone="no"?>
<!-- Created with Inkscape (http://www.inkscape.org/) -->

<svg
   xmlns:dc="http://purl.org/dc/elements/1.1/"
   xmlns:cc="http://creativecommons.org/ns#"
   xmlns:rdf="http://www.w3.org/1999/02/22-rdf-syntax-ns#"
   xmlns:svg="http://www.w3.org/2000/svg"
   xmlns="http://www.w3.org/2000/svg"
   xmlns:sodipodi="http://sodipodi.sourceforge.net/DTD/sodipodi-0.dtd"
   xmlns:inkscape="http://www.inkscape.org/namespaces/inkscape"
   width="16mm"
   height="16mm"
   viewBox="0 0 16 16"
   version="1.1"
   id="svg8"
   inkscape:version="0.92+devel (1871f5fd98, 2017-07-15, custom)"
   sodipodi:docname="glyph-ms-outlook.svg">
  <defs
     id="defs2" />
  <sodipodi:namedview
     id="base"
     pagecolor="#002466"
     bordercolor="#ffffff"
     borderopacity="0.38039216"
     inkscape:pageopacity="1"
     inkscape:pageshadow="2"
     inkscape:zoom="7.1685545"
     inkscape:cx="30.23622"
     inkscape:cy="30.23622"
     inkscape:document-units="mm"
     inkscape:current-layer="svg8"
     inkscape:document-rotation="0"
     showgrid="false"
     inkscape:showpageshadow="false"
     borderlayer="true"
     inkscape:window-width="1920"
     inkscape:window-height="1051"
     inkscape:window-x="0"
     inkscape:window-y="0"
     inkscape:window-maximized="1" />
  <metadata
     id="metadata5">
    <rdf:RDF>
      <cc:Work
         rdf:about="">
        <dc:format>image/svg+xml</dc:format>
        <dc:type
           rdf:resource="http://purl.org/dc/dcmitype/StillImage" />
        <dc:title></dc:title>
      </cc:Work>
    </rdf:RDF>
  </metadata>
  <path
     style="fill:#d0d0d0;stroke-width:0.15338404"
     d="M 9.4019798,-2.8175e-5 0.08730312,1.8029625 V 14.047176 L 9.4019798,16.000028 Z M 9.9910912,3.3925297 v 3.1295247 l 1.0934738,0.6883301 c 0.02885,0.008 0.09156,0.009 0.120406,0 l 4.707206,-3.1734498 c 0,-0.3755898 -0.350579,-0.6444049 -0.548287,-0.6444049 z M 4.8492861,5.2017214 c 0.61476,0 1.11219,0.251403 1.491382,0.7549929 0.3797935,0.5035799 0.5699911,1.1666863 0.5699911,1.9905763 6.085e-4,0.84672 -0.1965299,1.52942 -0.5901451,2.04742 -0.393615,0.5180094 -0.907085,0.7777294 -1.540474,0.7777294 -0.617165,0 -1.119628,-0.251135 -1.508436,-0.752925 -0.388206,-0.5023794 -0.58291,-1.1562104 -0.58291,-1.9626704 0,-0.85153 0.197395,-1.540204 0.592212,-2.0660239 0.394817,-0.52582 0.917563,-0.7890992 1.56838,-0.7890993 z M 15.912694,5.3019736 c 0,0 -4.782536,3.176558 -4.613672,3.073198 0,0 -0.169439,0.10336 -0.310059,0 L 9.9910912,7.6894245 h -0.00103 V 11.942911 H 15.06107 c 0.450704,0 0.851627,-0.262654 0.851627,-0.888834 z M 4.8229311,6.2466189 c -0.340132,0 -0.611207,0.1599407 -0.81132,0.4790406 -0.200113,0.3191 -0.300757,0.741803 -0.300757,1.267623 0,0.5336301 0.100644,0.955476 0.300757,1.2655561 0.200113,0.3106899 0.462525,0.4650879 0.787032,0.4650879 0.334723,0 0.600428,-0.151006 0.796334,-0.452686 0.195906,-0.3016699 0.294556,-0.720297 0.294556,-1.2557369 0,-0.5582701 -0.09476,-0.9931171 -0.285254,-1.3037961 C 5.4137811,6.401617 5.1534471,6.2466189 4.8229311,6.2466189 Z"
     id="path3"
     inkscape:connector-curvature="0"
     inkscape:label="#" />
</svg>
