<?xml version="1.0" encoding="UTF-8" standalone="no"?><svg height="16" viewBox="0 0 4.2333332 4.2333332" width="16" xmlns="http://www.w3.org/2000/svg"><sodipodi:namedview/><metadata><rdf:RDF><cc:Work><dc:format>image/svg+xml</dc:format><dc:type/><dc:title/></cc:Work></rdf:RDF></metadata><path d="m1.6448604.21884972v.506429a1.6789091 1.6789091 0 0 0 -1.138432 1.13843178h-.5064286v.9436116h.5064286a1.6789091 1.6789091 0 0 0 1.610238 1.2071614 1.6789091 1.6789091 0 0 0 1.610238-1.2071614h.506429v-.9436116h-.506429a1.6789091 1.6789091 0 0 0 -1.138432-1.13843178v-.506429zm.471806 1.60765378a.50915743.50915743 0 0 1  .509013.5090128.50915743.50915743 0 0 1 -.509013.5095296.50915743.50915743 0 0 1 -.509013-.5095296.50915743.50915743 0 0 1  .509013-.5090128z" fill="#d0d0d0" stroke-width=".228341"/></svg>