<?xml version="1.0" encoding="UTF-8" standalone="no"?>
<!-- Created with Inkscape (http://www.inkscape.org/) -->

<svg
   xmlns:dc="http://purl.org/dc/elements/1.1/"
   xmlns:cc="http://creativecommons.org/ns#"
   xmlns:rdf="http://www.w3.org/1999/02/22-rdf-syntax-ns#"
   xmlns:svg="http://www.w3.org/2000/svg"
   xmlns="http://www.w3.org/2000/svg"
   xmlns:sodipodi="http://sodipodi.sourceforge.net/DTD/sodipodi-0.dtd"
   xmlns:inkscape="http://www.inkscape.org/namespaces/inkscape"
   width="16"
   height="16"
   viewBox="0 0 4.2333333 4.2333333"
   version="1.1"
   id="svg8"
   inkscape:version="0.92+devel (4546dc857e, 2017-07-25, custom)"
   sodipodi:docname="glyph-kde.svg">
  <defs
     id="defs2" />
  <sodipodi:namedview
     id="base"
     pagecolor="#002466"
     bordercolor="#ffffff"
     borderopacity="0.38039216"
     inkscape:pageopacity="1"
     inkscape:pageshadow="2"
     inkscape:zoom="27.375"
     inkscape:cx="8"
     inkscape:cy="8"
     inkscape:document-units="px"
     inkscape:current-layer="svg8"
     inkscape:document-rotation="0"
     showgrid="false"
     inkscape:showpageshadow="false"
     borderlayer="true"
     inkscape:window-width="1920"
     inkscape:window-height="1051"
     inkscape:window-x="0"
     inkscape:window-y="0"
     inkscape:window-maximized="1"
     units="px" />
  <metadata
     id="metadata5">
    <rdf:RDF>
      <cc:Work
         rdf:about="">
        <dc:format>image/svg+xml</dc:format>
        <dc:type
           rdf:resource="http://purl.org/dc/dcmitype/StillImage" />
        <dc:title />
      </cc:Work>
    </rdf:RDF>
  </metadata>
  <path
     inkscape:connector-curvature="0"
     style="fill:#d0d0d0;fill-opacity:1;stroke:none;stroke-width:0.26458332"
     d="M 2.47082,2.666e-5 1.7213407,0.07008836 V 2.9646035 L 2.4625811,2.8634532 V 1.6262617 L 3.4509096,2.9957449 4.2250971,2.7622766 3.2120636,1.4472975 4.2333333,0.20232708 3.442675,0.03114166 2.4625827,1.2761121 2.4708427,2.666e-5 Z M 0.78243544,0.70807811 c -0.008379,0 -0.0183946,0.004498 -0.0247139,0.007937 L 0.46946072,0.99612999 c -0.0122767,0.0121709 -0.0172614,0.0325173 -0.008262,0.046699 L 0.79887708,1.5719692 C 0.73825578,1.6682512 0.69358387,1.7736875 0.65886178,1.8831191 L 0.03292219,2.0076849 C 0.01547029,2.0121849 -1.5e-8,2.0219729 -1.5e-8,2.0389319 v 0.3890698 c 0,0.016404 0.016127705,0.034766 0.032922205,0.038762 l 0.60946712,0.1400704 c 0.0324507,0.1268677 0.081734,0.2474383 0.14824697,0.3578754 L 0.43649022,3.4705662 c -0.009825,0.014288 -0.004715,0.034766 0.008262,0.046699 l 0.28826556,0.2722826 c 0.0122767,0.011113 0.0344316,0.016933 0.0494132,0.00794 L 1.3342489,3.4785037 c 0.1085004,0.059134 0.2222383,0.1084791 0.3459159,0.1400175 l 0.1317734,0.5835914 c 0.00378,0.016933 0.015153,0.031194 0.032925,0.031194 h 0.4117983 c 0.017357,0 0.037025,-0.015081 0.041176,-0.031194 L 2.4460843,3.6185212 C 2.573569,3.5860039 2.6973294,3.5325845 2.8084722,3.4707249 l 0.5435774,0.3423708 c 0.01496,0.009 0.036696,0.0045 0.049416,-0.00794 l 0.2882596,-0.272362 c 0.012351,-0.012171 0.017312,-0.032517 0.00826,-0.046646 l -0.1976639,-0.311174 -0.065888,0.023283 c -0.0094,0.0045 -0.019195,0 -0.024715,-0.00794 0,0 -0.1245722,-0.1782763 -0.2882606,-0.4046538 -0.1956835,0.3618442 -0.5944679,0.6069807 -1.0542111,0.6069807 -0.6531827,0 -1.18598864,-0.4955646 -1.18598864,-1.1127052 0,-0.4539456 0.28860974,-0.8444176 0.70006354,-1.0193072 V 0.97271436 C 1.5064325,0.99758516 1.4359425,1.0228794 1.36718,1.05836 c -5.11e-5,0 -0.00806,0 -0.00826,0 L 0.80710585,0.71593624 c -0.007504,-0.004498 -0.0163174,-0.008467 -0.0247171,-0.007673 z"
     class="ColorScheme-Text"
     id="path4"
     inkscape:label="#" />
</svg>
