<?xml version="1.0" encoding="UTF-8" standalone="no"?><svg height="16" viewBox="0 0 4.2333332 4.2333332" width="16" xmlns="http://www.w3.org/2000/svg"><sodipodi:namedview/><metadata><rdf:RDF><cc:Work><dc:format>image/svg+xml</dc:format><dc:type/><dc:title/></cc:Work></rdf:RDF></metadata><path d="m2.1166666 0c-1.17263325 0-2.1166666.9440333-2.1166666 2.1166666s.94403335 2.1166666 2.1166666 2.1166666c1.1726333 0 2.1166666-.9440333 2.1166666-2.1166666s-.9440333-2.1166666-2.1166666-2.1166666zm.6687172.49770846c.058258.002034.1154432.0160278.1694426.045649.088378.0484788.1371866.13470941.1596422.21715461.022456.0824457.02369.16651824.018569.24397673-.00303.121106-.044924.2556576-.073993.3718221-.0732678-.022905-.1465352-.042626-.2198029-.051635.037521-.1083849.0542128-.2438269.0699348-.33488725.0041-.0621309.0009383-.12511698-.011341-.17021613-.01229-.0450988-.02835-.0669744-.051065-.0794338-.0567884-.03115149-.1374388-.02535849-.2527457.03146352-.1153072.05682201-.2505027.1619189-.381181.28704636-.1148954.1100158-.2248637.2351709-.3234108.3561645.075663-.00135.1503689-.00347.229534-.00181.2295806.00482.6416662.055713 1.0125285.1663476.1854311.055317.3598689.1248265.4972378.2181863.1373687.093359.247099.2215822.250682.3853077.00408.186416-.1318172.3120291-.2452661.3886627-.1134494.076634-.3037355.1546709-.3037355.1546709-.020918-.094319-.041108-.1604311-.0612-.2227193 0 0 .1530712-.0598.2390785-.1178975.0860015-.058097.1482064-.1306102.1467415-.1975543-.0014275-.0652299-.046804-.1328196-.1526788-.2047752-.105875-.0719555-.2628653-.1374094-.435083-.1887853-.3444355-.1027513-.7525825-.1528653-.9529529-.1570631-.1415681-.00297-.2746117.0009244-.402845.008-.0454.063602-.084044.1215032-.1116727.1671214-.045932.075843-.086372.1495324-.1263728.2230865.058308.145824.1171288.2735786.1619633.3551329.2208107.4016559.4591681.7238471.6705488.9194254.1056901.09779.2045424.1632118.2844674.1936856.079925.030473.1338239.028556.1795008.00593.0032-.00162.00647-.00308.00981-.00438.1318857-.0505591.1811693-.1388934.1996082-.283443.018439-.1445497-.0120994-.3363205-.0660232-.523028-.0907791-.3156435-.1993741-.5422899-.3681451-.821915.094559.00525.1817014.024996.2849957.055243 0 0 .1815909.2985803.2987566.7042589.058582.2028395.098069.4171781.072987.6138101-.0249025.1952192-.132401.3807758-.3386271.4619049-.1095541.0517652-.2353273.0460845-.3528117.0012976-.1196617-.0456253-.2373403-.1279035-.3569383-.2385607-.2391959-.2213141-.4858603-.5592667-.7149083-.9759063-.0297713-.0541544-.0632178-.1231189-.0980031-.1998752-.0950886.2044046-.1657107.393956-.2019384.5537187-.0318421.1404248-.0388454.2588154-.0252743.3432692.013571.084455.042162.1301075.084593.1583528.1144026.076155.1908009.05853.2594507.02708.066571-.02335.1297534-.096901.1956235-.1686247.040891.076733.086239.1215881.1353846.1690116 0 0-.1194628.1495907-.237389.2036146-.117926.0540247-.3007783.0734561-.4773792-.0441019-.10307142-.0686113-.16176196-.1832994-.18208074-.3097419-.02031865-.1264423-.00792154-.269732.02811156-.4286354.05258925-.2319163.15828018-.4987133.30664708-.7837682-.0355205-.0950324-.0680395-.1942003-.0982611-.2968468-.049665.011466-.101494.0223-.14519966.035848-.13753305.042636-.24364618.095604-.30999983.149584-.0663537.05398-.0916631.1018097-.0949084.1526788-.00826.1295185.0521814.1798913.13153074.2230863.0793492.043195.19428731.07811.19428731.07811l-.05424566.1991366s-.12304407-.01229-.2473293-.07995c-.12428552-.0676572-.26209768-.2154711-.24810303-.4348253.00788536-.1235669.07783674-.2315033.17717969-.312321.09934295-.0808174.22941881-.1415705.38504963-.1898168.04818056-.0149361.09964751-.0283137.15267881-.0407481-.0397674-.1759414-.0634934-.3487968-.052097-.50394325.0121649-.16564473.0683868-.32510071.208386-.41006635.080317-.0487445.1715843-.056182.2488767-.0417799.077293.0144008.1443667.0475692.2014224.0830446.1141119.0709533.2051766.17244041.2051766.17244041-.059073.0491221-.1136238.10007441-.1595301.15452542 0 0-.081082-.0846424-.1642816-.13637508-.0416-.025867-.086731-.0459173-.1240509-.0528706-.03732-.00695-.063037-.003843-.09104.0131531-.055776.0338509-.09172.10676554-.1010985.23443405-.00895.1218238.011292.2812389.04926.4474624.095793-.014926.1967072-.026392.303036-.03456.1273441-.1703983.2875504-.362894.464484-.53231213.1405453-.13457542.2876638-.25232669.4371462-.32598994.074741-.0368316.1538056-.0635296.2321131-.0709233.019576-.001847.039125-.002483.058544-.001809zm-1.360698 1.17294444c-.025864.00322-.049604.00717-.074534.01083.00781.025734.013878.051361.02218.076855.012352-.020949.022563-.04107.035333-.062155.00447-.00739.012177-.017761.017022-.025533zm.7592675.3159318c.1093346 0 .1980698.089251.1980698.1985856 0 .1093345-.088735.1980697-.1980698.1980697-.1093345 0-.1980698-.088735-.1980698-.1980697 0-.1093346.088735-.1985856.1980698-.1985856z" fill="#d0d0d0" stroke-width=".264583"/></svg>