<?xml version="1.0" encoding="UTF-8" standalone="no"?>
<svg height="16" viewBox="0 0 4.2333332 4.2333332" width="16" xmlns="http://www.w3.org/2000/svg">
	<sodipodi:namedview/>
	<metadata>
		<rdf:RDF>
			<cc:Work>
				<dc:format>image/svg+xml			</dc:format>
			<dc:type/>
			<dc:title/>
		</cc:Work>
	</rdf:RDF>
</metadata>
<path d="M 3.2998913 .34920521 L 2.6259641 1.386453 c .1038726 .051983 .2008321 .1154612 .2849256 .193014 c .062808 .057922 .1193755 .1226372 .1678734 .1927437 c .04649 .067205 .085562 .1383879 .1167817 .2124776 L 4.2333332 1.282647 C 4.041728 .7373461 3.699909 .48627723 3.2998913 .34920521 Z M 2.7670752 1.7357165 C 2.4044329 1.4038524 1.7611335 1.3149929 1.3040613 1.7978917 C .5447268 2.6001319 1.3373568 2.9699936 -.00000002 3.8258909 c 0 0 1.44575562 .2820354 2.43349072 -.3952192 C 3.1161491 2.9625979 3.2157425 2.3428153 2.9038611 1.8919658 C 2.8648761 1.8356097 2.8188813 1.7831256 2.7670752 1.7357165 Z" fill="#d0d0d0"/>
</svg>
