<?xml version="1.0" encoding="UTF-8" standalone="no"?>
<!-- Created with Inkscape (http://www.inkscape.org/) -->

<svg
   xmlns:dc="http://purl.org/dc/elements/1.1/"
   xmlns:cc="http://creativecommons.org/ns#"
   xmlns:rdf="http://www.w3.org/1999/02/22-rdf-syntax-ns#"
   xmlns:svg="http://www.w3.org/2000/svg"
   xmlns="http://www.w3.org/2000/svg"
   xmlns:sodipodi="http://sodipodi.sourceforge.net/DTD/sodipodi-0.dtd"
   xmlns:inkscape="http://www.inkscape.org/namespaces/inkscape"
   width="16"
   height="16"
   viewBox="0 0 4.2333333 4.2333333"
   version="1.1"
   id="svg8"
   inkscape:version="0.92+devel (4546dc857e, 2017-07-25, custom)"
   sodipodi:docname="glyph-microsd.svg">
  <defs
     id="defs2" />
  <sodipodi:namedview
     id="base"
     pagecolor="#002466"
     bordercolor="#ffffff"
     borderopacity="0.38039216"
     inkscape:pageopacity="1"
     inkscape:pageshadow="2"
     inkscape:zoom="27.375"
     inkscape:cx="8"
     inkscape:cy="8.0913242"
     inkscape:document-units="px"
     inkscape:current-layer="svg8"
     inkscape:document-rotation="0"
     showgrid="false"
     inkscape:showpageshadow="false"
     borderlayer="true"
     inkscape:window-width="1920"
     inkscape:window-height="1051"
     inkscape:window-x="0"
     inkscape:window-y="0"
     inkscape:window-maximized="1"
     units="px" />
  <metadata
     id="metadata5">
    <rdf:RDF>
      <cc:Work
         rdf:about="">
        <dc:format>image/svg+xml</dc:format>
        <dc:type
           rdf:resource="http://purl.org/dc/dcmitype/StillImage" />
        <dc:title></dc:title>
      </cc:Work>
    </rdf:RDF>
  </metadata>
  <path
     style="fill:#d0d0d0;stroke-width:0.30769229"
     d="m 1.5390625,0 v 4.3085938 h 0.6152344 v 4 H 1.5390625 V 16 H 14.460938 V 6.7695312 H 14.154297 V 5.2304688 h 0.306641 V 2.1542969 L 12.308594,0 Z m 5.9027344,10.097656 c 0.4788669,7.94e-4 0.7988281,0.0078 0.7988281,0.0078 l -0.2265625,0.642578 c 0,0 -1.7808645,8.59e-4 -2.2402344,0.01367 -0.4209112,0.01282 -1.0273437,0.0059 -1.0273437,0.232422 0,0.177338 0.904698,0.381871 1.4003906,0.529297 0.7349923,0.217935 1.3518349,0.550595 1.1894531,1.257812 -0.2286172,1.002067 -1.4771505,0.941406 -2.9941406,0.941406 -1.0636024,0 -2.0605469,-0.06836 -2.0605469,-0.06836 l 0.4101563,-1.130859 c 0,0 0.8788448,0.104015 1.9257812,0.121093 0.6730318,0.01282 0.90625,-2.76e-4 0.90625,-0.15625 0,-0.194434 -0.6205367,-0.305514 -1.0136719,-0.455078 -0.4123649,-0.158109 -1.0926608,-0.509434 -1.0371093,-1.013672 0.042732,-0.388862 0.3857259,-0.794846 2.2167969,-0.886719 0.6356401,-0.03095 1.2730866,-0.03596 1.7519531,-0.03516 z m 1.4472656,0.0059 c 0.5726105,-0.0021 0.7741408,0.0087 1.2890625,0.02148 0.130333,0.0043 0.352065,0.02209 0.619141,0.06055 L 9.6976562,10.871094 C 9.5203174,10.824088 9.3198845,10.790886 9.1019531,10.769531 8.8647893,10.746032 8.8015648,10.754271 8.6605469,10.75 Z m 2.7968755,0.230468 c 0.130333,0.03419 0.30735,0.100881 0.435546,0.154297 l -1.865234,0.619141 c -0.01066,-0.0064 -0.02055,-0.01099 -0.03125,-0.01953 -0.03632,-0.02351 -0.107291,-0.07805 -0.154297,-0.101563 z m 0.904296,0.347657 c 0.350403,0.170927 0.643223,0.389844 0.794922,0.671875 0.136743,0.247847 0.10928,0.503924 -0.04883,0.753906 -1.262734,1.568269 -4.5466059,1.557911 -5.7324218,1.611328 l 0.515625,-1.451172 c 0.3140811,-0.01068 0.765762,-0.05401 1.0371094,-0.107422 0.2692124,-0.05342 0.5124187,-0.125657 0.7089844,-0.208984 0.196566,-0.08333 0.348983,-0.176922 0.447266,-0.277344 0.09614,-0.100418 0.144237,-0.201761 0.125,-0.308594 -0.0043,-0.02564 -0.01469,-0.05051 -0.02539,-0.07617 -0.0085,-0.01711 -0.01665,-0.03561 -0.02734,-0.05273 z"
     transform="scale(0.26458333)"
     id="rect4139"
     inkscape:connector-curvature="0"
     sodipodi:nodetypes="ccccccccccccccccccsccscccscccccccccccccccccccccccsccccc"
     inkscape:label="#1" />
</svg>
