<?xml version="1.0" encoding="UTF-8" standalone="no"?>
<svg
   xmlns:dc="http://purl.org/dc/elements/1.1/"
   xmlns:cc="http://creativecommons.org/ns#"
   xmlns:rdf="http://www.w3.org/1999/02/22-rdf-syntax-ns#"
   xmlns:svg="http://www.w3.org/2000/svg"
   xmlns="http://www.w3.org/2000/svg"
   xmlns:sodipodi="http://sodipodi.sourceforge.net/DTD/sodipodi-0.dtd"
   xmlns:inkscape="http://www.inkscape.org/namespaces/inkscape"
   height="12"
   viewBox="0 0 12 12"
   width="12"
   version="1.1"
   id="svg8"
   sodipodi:docname="glyph-pound.svg"
   inkscape:version="0.92+devel (9d04be7596, 2017-09-23, custom)">
  <defs
     id="defs10" />
  <sodipodi:namedview
     id="namedview2"
     inkscape:document-rotation="0"
     showgrid="false"
     pagecolor="#002466"
     inkscape:pageopacity="0"
     borderlayer="true"
     inkscape:showpageshadow="false"
     bordercolor="#ffffff"
     borderopacity="0.36078431"
     inkscape:zoom="47.0625"
     inkscape:cx="7.9681275"
     inkscape:cy="8"
     inkscape:window-width="1920"
     inkscape:window-height="1017"
     inkscape:window-x="0"
     inkscape:window-y="34"
     inkscape:window-maximized="1"
     inkscape:current-layer="svg8" />
  <metadata
     id="metadata4">
    <rdf:RDF>
      <cc:Work>
        <dc:format>image/svg+xml</dc:format>
        <dc:type
           rdf:resource="http://purl.org/dc/dcmitype/StillImage" />
        <dc:title></dc:title>
      </cc:Work>
    </rdf:RDF>
  </metadata>
  <path
     style="stroke:none;stroke-width:2.83464575;fill:#d0d0d0"
     d="M 2 0 L 2 2 L 0 2 L 0 4 L 2 4 L 2 8 L 0 8 L 0 10 L 2 10 L 2 12 L 4 12 L 4 10 L 8 10 L 8 12 L 10 12 L 10 10 L 12 10 L 12 8 L 10 8 L 10 4 L 12 4 L 12 2 L 10 2 L 10 0 L 8 0 L 8 2 L 4 2 L 4 0 L 2 0 z M 4 4 L 8 4 L 8 8 L 4 8 L 4 4 z "
     id="path819" />
</svg>
