<?xml version="1.0" encoding="UTF-8" standalone="no"?><svg height="22" viewBox="0 0 5.8208332 5.8208335" width="22" xmlns="http://www.w3.org/2000/svg"><sodipodi:namedview/><metadata><rdf:RDF><cc:Work><dc:format>image/svg+xml</dc:format><dc:type/><dc:title/></cc:Work></rdf:RDF></metadata><path d="m2.6451485-.00001822-.2600281.61960998a2.3531464 2.3531464 0 0 0 -.3962647.12838l-.57442-.3478-.42901383.31177.15326603.65237004a2.3531464 2.3531464 0 0 0 -.24430873.33862l-.6693925.0557-.1644007.50499.5069568.4375299a2.3531464 2.3531464 0 0 0 -.01048.2089401 2.3531464 2.3531464 0 0 0  .011135.2089399l-.5076118.4381802.1644007.5049898.6687375.0557a2.3531464 2.3531464 0 0 0  .24496373.33666l-.15326613.65433.42901393.3117699.5724551-.3464899a2.3531464 2.3531464 0 0 0  .3982296.12772l.2600281.6189599h.5305363l.260028-.61961a2.3531464 2.3531464 0 0 0  .3962649-.12838l.5744203.3478001.4290134-.3117699-.153266-.6523702a2.3531464 2.3531464 0 0 0  .2443088-.3386198l.6693922-.0557.164401-.5049898-.5069568-.4375301a2.3531464 2.3531464 0 0 0  .01048-.20959 2.3531464 2.3531464 0 0 0 -.011134-.20829l.5076103-.43818-.164401-.50499-.6687373-.0557a2.3531464 2.3531464 0 0 0 -.2449632-.33666l.153266-.65433004-.4290134-.31177-.5718006.34649a2.3531464 2.3531464 0 0 0 -.3988845-.1283801l-.260028-.61829998z" fill="#fff" stroke-linecap="round" stroke-linejoin="round" stroke-width=".771308"/></svg>