<?xml version="1.0" encoding="UTF-8" standalone="no"?>
<!-- Created with Inkscape (http://www.inkscape.org/) -->

<svg
   xmlns:dc="http://purl.org/dc/elements/1.1/"
   xmlns:cc="http://creativecommons.org/ns#"
   xmlns:rdf="http://www.w3.org/1999/02/22-rdf-syntax-ns#"
   xmlns:svg="http://www.w3.org/2000/svg"
   xmlns="http://www.w3.org/2000/svg"
   xmlns:sodipodi="http://sodipodi.sourceforge.net/DTD/sodipodi-0.dtd"
   xmlns:inkscape="http://www.inkscape.org/namespaces/inkscape"
   width="16"
   height="16"
   viewBox="0 0 4.2333332 4.2333332"
   version="1.1"
   id="svg8"
   inkscape:version="0.92+devel (d0930c9bda, 2017-08-13, custom)"
   sodipodi:docname="glyph-locale.svg">
  <defs
     id="defs2" />
  <sodipodi:namedview
     id="base"
     pagecolor="#002466"
     bordercolor="#ffffff"
     borderopacity="0.38039216"
     inkscape:pageopacity="1"
     inkscape:pageshadow="2"
     inkscape:zoom="25.25"
     inkscape:cx="7.970297"
     inkscape:cy="8"
     inkscape:document-units="px"
     inkscape:current-layer="svg8"
     inkscape:document-rotation="0"
     showgrid="false"
     inkscape:showpageshadow="false"
     borderlayer="true"
     inkscape:window-width="1920"
     inkscape:window-height="1027"
     inkscape:window-x="0"
     inkscape:window-y="24"
     inkscape:window-maximized="1"
     units="px" />
  <metadata
     id="metadata5">
    <rdf:RDF>
      <cc:Work
         rdf:about="">
        <dc:format>image/svg+xml</dc:format>
        <dc:type
           rdf:resource="http://purl.org/dc/dcmitype/StillImage" />
        <dc:title></dc:title>
      </cc:Work>
    </rdf:RDF>
  </metadata>
  <path
     style="fill:#d0d0d0;stroke-width:0.49086782"
     d="M 0,0 V 4.2333332 H 0.23465624 V 0 Z M 0.44691093,0.17291638 V 2.7422838 H 3.0090885 V 0.17291638 Z m 1.25645397,0.2907015 c 0.1652306,1.4645e-4 0.3277042,0.0428749 0.4721127,0.12415963 7.369e-4,0.001194 0.00164,0.002441 0.00336,0.003401 0.00357,0.002091 0.00673,0.005012 0.010081,0.006803 0.00575,0.003343 0.011842,0.007968 0.010641,0.0136065 -0.00158,0.008239 -0.015162,0.008106 -0.020721,0.0141735 7.695e-4,0.0116633 -0.00375,0.009197 -0.00672,0.0170082 0.0018,0.005014 0.00593,0.004182 0.00672,0.0102049 -9.752e-4,0.006436 -0.00912,0.007536 -0.00672,0.0141735 0.010718,0.008448 0.02068,0.00124 0.030802,0 0.022235,-0.002919 0.040625,5.6887e-4 0.054324,-0.0102049 -0.00102,-0.00614 0.00263,-0.00954 0.00616,-0.0130396 0.00659,0.004831 0.013129,0.009745 0.019601,0.0147404 -0.00432,0.001569 -0.00911,0.003424 -0.011761,0.005102 -0.00555,0.00376 -0.00764,0.009382 -0.014001,0.0136065 -0.00456,0.003338 -0.015393,0.0136065 -0.020161,0.0136065 -0.00575,0 -0.01656,-0.004338 -0.020721,-0.002835 -0.00596,0.001673 -0.00335,0.0111711 -0.010081,0.0136065 -0.013102,0.004805 -0.03632,-0.0130802 -0.040883,0.006803 0.00556,0.0114449 0.024235,0.007942 0.034162,0.0141735 0.00616,0.004174 0.015219,0.0238018 0.016801,0.0306147 0.00158,0.005639 0.00238,0.0251586 0,0.0311816 -0.00616,0.016091 -0.02262,0.0145492 -0.040883,0.0141735 -0.00496,0 -0.00887,4.1503e-4 -0.013441,0 -0.030771,-0.002084 -0.061147,-0.0121081 -0.075045,0.0102049 9.84e-4,0.0170883 0.00377,0.0265133 0,0.0413865 -0.00277,0.0108612 -0.014599,0.0183011 -0.014001,0.02778 2.167e-4,0.004805 0.00891,0.0137734 0.010081,0.0204098 7.679e-4,0.003763 -0.00159,0.0109601 0,0.0141735 0.00517,0.009863 0.018305,-0.001667 0.027442,0 0.00873,0.00124 0.017361,0.0139486 0.017361,0.0238114 0,0.007021 -0.00235,0.020966 -0.00672,0.02778 -0.00873,0.0132422 -0.025575,0.0103449 -0.038083,0.0175749 -0.010317,0.006013 -0.014007,0.0201705 -0.020161,0.0306146 -0.00656,0.011234 -0.012684,0.015096 -0.010081,0.031181 -0.00893,0.017882 -0.01906,0.02934 -0.037523,0.037985 -0.00536,0.00251 -0.012398,0.00718 -0.017361,0.010772 -0.00398,0.00293 -0.00787,0.00717 -0.013441,0.013607 -0.00695,0.00785 -0.01695,0.010985 -0.020722,0.017008 -0.00279,0.00464 -3.913e-4,0.014757 -0.00336,0.020976 -0.00437,0.00844 -0.011242,0.015931 -0.016801,0.024379 -0.00257,0.00418 -0.00788,0.00838 -0.010641,0.013607 -0.00635,0.011662 -0.014633,0.020946 -0.013441,0.031181 9.818e-4,0.00985 0.012844,0.011764 0.013441,0.020409 5.527e-4,0.00482 -0.00357,0.00895 -0.00336,0.014174 2.059e-4,0.00763 0.00277,0.010985 0.00336,0.017008 0.00138,0.014876 -0.00732,0.020946 -0.010081,0.031181 -0.00139,0.00482 0.00119,0.00975 0,0.013607 -0.00238,0.00744 -0.013235,0.012167 -0.013441,0.020976 -2.168e-4,0.00624 0.0095,0.012167 0.010081,0.020977 4.334e-4,0.006 -0.00455,0.011413 -0.00336,0.017008 0.00218,0.010861 0.022457,0.026136 0.030802,0.034583 0.011318,0.011455 0.022489,0.019149 0.027442,0.031181 0.00417,0.010236 0.0057,0.026937 0.013441,0.034583 0.00575,0.00564 0.016745,0.00776 0.024082,0.013607 0.00695,0.00543 0.016174,0.00775 0.023522,0.013607 0.012111,0.00966 0.028345,0.029207 0.047603,0.02778 0.010122,-8.228e-4 0.019487,-0.00484 0.030802,-0.0068 0.011714,-0.00209 0.02561,-0.00802 0.037523,-0.0068 0.00913,8.228e-4 0.017905,0.00743 0.027442,0.0068 0.00993,-4.169e-4 0.022847,-0.00519 0.034162,-0.010205 0.019655,-0.00865 0.049817,-0.02519 0.078405,-0.020976 0.021838,0.00335 0.022234,0.028166 0.037523,0.037984 0.01747,0.00167 0.030346,-0.00335 0.044243,0 0.010523,0.0025 0.023083,0.022734 0.024082,0.031181 9.861e-4,0.00865 -0.00553,0.015546 -0.00672,0.020976 -0.00276,0.011662 -0.00474,0.026578 -0.00672,0.034016 -0.00157,0.0058 -0.00357,0.01176 -0.00336,0.017575 0,0.00522 0.00809,0.017521 0.013441,0.024379 0.00656,0.00844 0.016138,0.01453 0.024082,0.023812 0.014494,0.016877 0.02012,0.040043 0.030242,0.062363 0.00257,0.00564 -0.00238,0.00659 0,0.013607 -0.00437,0.033759 -0.015685,0.056173 -0.037523,0.093544 -0.010328,0.012037 -0.020367,0.026346 -0.020161,0.041387 -7.651e-4,0.036182 0.018394,0.054619 0.016801,0.089576 -0.00358,0.047017 2.588e-4,0.054824 -0.00336,0.079939 0.01568,0.00803 0.00792,0.031494 0.00336,0.04819 -0.00674,0.019889 -0.01303,0.024698 -0.016801,0.037985 9.32e-4,4.302e-4 0.00189,2.221e-4 0.0028,5.669e-4 -0.1824948,0.186249 -0.430828,0.2911328 -0.6899697,0.2914078 -0.114542,-4.549e-4 -0.2281055,-0.021374 -0.3354632,-0.061796 0.00216,-0.00113 0.00416,-0.00289 0.0056,-0.00567 0.00377,-0.00703 -0.00496,-0.020758 0,-0.02778 0.00357,-0.00482 0.026815,-0.00899 0.034162,-0.010205 0.010523,-0.00167 0.021481,2.182e-4 0.027442,-0.0034 0.00656,-0.00421 0.014633,-0.015327 0.013441,-0.02778 -5.418e-4,-0.0058 -0.00554,-0.00838 -0.010081,-0.013607 -0.00376,-0.00442 -8.358e-4,-0.00955 -0.00336,-0.013607 -0.00476,-0.00703 -0.012018,-0.010741 -0.014001,-0.020976 0.014295,-0.00293 0.034239,0.016054 0.054884,0.010205 0.00973,-0.00293 0.02624,-0.021377 0.030802,-0.030615 0.00139,-0.00293 -0.00158,-0.014196 0,-0.017575 0.00179,-0.00376 0.00612,-0.0048 0.00672,-0.0068 0.00139,-0.00543 -0.00119,-0.00682 0,-0.010205 0.00357,-0.010236 0.014201,-0.01694 0.020161,-0.024379 0.00456,-0.00563 0.00984,-0.011204 0.014001,-0.017008 0.00477,-0.00624 0.00693,-0.00876 0.010081,-0.014174 0.00299,-0.018302 -0.011089,-0.032121 -0.00672,-0.048189 0.00476,-0.018091 0.030332,-0.029756 0.047603,-0.037985 0.00596,-0.00293 0.012398,-0.00841 0.017361,-0.010205 0.01191,-0.00421 0.026408,-0.00341 0.037523,-0.00737 0.018662,-0.00681 0.025026,-0.027499 0.034162,-0.044788 0.00437,-0.00803 0.00929,-0.014606 0.010081,-0.020409 7.634e-4,-0.00522 -9.839e-4,-0.011508 0,-0.017575 9.754e-4,-0.006 0.00179,-0.0104 0.00336,-0.017008 0.00218,-0.00865 0.00336,-0.024928 0.00336,-0.034583 -2e-7,-0.00802 -0.00317,-0.010345 -0.00336,-0.017575 -0.00139,-0.026113 0.00727,-0.027138 0.016801,-0.041387 0.00477,-0.00703 0.00729,-0.018798 0.010641,-0.023812 0.016081,-0.024106 0.042866,-0.035999 0.040883,-0.072568 -7.63e-4,-0.012078 -0.0047,-0.03759 -0.013441,-0.041387 -0.00497,-0.0021 -0.016734,-8.9e-4 -0.024082,-0.0034 -0.023426,-0.00886 -0.040547,-0.035977 -0.064965,-0.037984 -0.00517,-2.759e-4 -0.00768,2.758e-4 -0.013441,0 -0.00954,-2.744e-4 -0.020073,-0.00956 -0.030802,-0.010772 -0.00675,-8.285e-4 -0.020104,0.0021 -0.024082,0 -0.00616,-0.00293 -0.00514,-0.013585 -0.010081,-0.017008 -0.00398,-0.00293 -0.010642,-0.0046 -0.016801,-0.0068 -0.00973,-0.00376 -0.016127,-0.006 -0.027442,-0.0068 -0.00358,-2.759e-4 -0.013395,4.15e-4 -0.017361,0 -0.00616,-8.338e-4 -0.011046,-0.00718 -0.016801,-0.010772 -0.00713,-0.00442 -0.010458,-0.00733 -0.013441,-0.013607 0.00656,-0.021685 -0.016354,-0.025366 -0.020722,-0.037985 -0.00199,-0.00585 0.00199,-0.015755 0,-0.020977 -0.00258,-0.00744 -0.00922,-0.010773 -0.017361,-0.017008 -0.014295,-0.011235 -0.027154,-0.021734 -0.047603,-0.024379 -0.00913,-8.286e-4 -0.019888,8.285e-4 -0.030802,0 -0.011515,-8.294e-4 -0.025427,-0.00696 -0.034162,-0.017008 -0.00833,-0.00985 -0.00946,-0.019748 -0.016801,-0.024379 -0.00695,-0.00444 -0.019313,-0.00561 -0.024082,-0.010205 -0.00218,-0.0021 -0.00138,-0.00561 -0.00336,-0.010205 -0.00358,-0.00722 -0.011089,-0.00877 -0.00672,-0.017575 -0.00794,-0.00417 -0.0049,0.00511 -0.013441,0.0034 -0.00774,-0.011067 -0.013332,-0.016986 -0.030802,-0.013607 -0.00794,0.00167 -0.014751,0.0134 -0.024082,0.013607 -0.00774,2.764e-4 -0.01396,-0.01218 -0.024082,-0.013607 -0.00774,-8.339e-4 -0.018168,0.00802 -0.023522,0.0068 -0.00854,-0.00167 -0.00962,-0.012352 -0.017361,-0.017575 -0.00575,-0.00377 -0.016987,-0.013814 -0.020161,-0.013607 -0.00993,2.776e-4 -0.017105,0.021045 -0.030802,0.013607 -0.00675,-0.00865 0.011316,-0.00897 0.00336,-0.017008 -0.00595,-0.00601 -0.00867,3.304e-4 -0.013441,0.0034 -0.00556,0.00377 -0.011206,0.008 -0.017361,0.010205 -0.0137,0.00522 -0.023433,0.0046 -0.034162,0.010205 -0.00993,0.00522 -0.011047,0.014142 -0.016801,0.024379 -0.00456,0.00844 -0.013775,0.020562 -0.020721,0.020976 -0.00834,4.147e-4 -0.015979,-0.01096 -0.023522,-0.014174 -0.02283,-0.010042 -0.036025,0.00664 -0.054884,0.0068 -0.017471,2.787e-4 -0.0416783,-0.028122 -0.0408829,-0.044788 5.4188e-4,-0.010236 0.005528,-0.025326 0.00672,-0.037985 9.7538e-4,-0.010032 0.009894,-0.018542 0.0100807,-0.02778 2.19e-4,-0.012242 -0.018938,-0.022385 -0.0268819,-0.023812 -0.018662,-0.00335 -0.0437221,0.00844 -0.0649645,0 -0.003972,-0.00681 0.007707,-0.01097 0.0100807,-0.017575 0.001387,-0.00377 -0.001387,-0.00598 0,-0.010205 0.002381,-0.00643 0.0110207,-0.010762 0.014001,-0.017575 0.002178,-0.00522 0.001193,-0.013971 0.00336,-0.020409 0.00259,-0.00722 0.009492,-0.012309 0.0100807,-0.017575 7.6623e-4,-0.00681 -0.004738,-0.015977 -0.0100807,-0.020409 -0.0164783,8.228e-4 -0.0279857,0.0024 -0.0375226,0.0068 -0.0214407,0.00985 -0.0158825,0.037943 -0.0375226,0.044788 -0.005603,0.00189 -0.0140638,0.0041 -0.0212815,0.00567 0.013715,-0.070156 0.0349348,-0.1385921 0.0632844,-0.2040979 0.005575,0.00197 0.0105329,0.00466 0.0156811,0.0051 0.0182643,0.00124 0.0190724,-0.012946 0.0341624,-0.020976 0.0154867,0.0021 0.0234264,-0.00167 0.0375226,0 0.009531,8.294e-4 0.0232594,0.013555 0.0308021,0.014174 0.00635,2.743e-4 0.00748,-0.00781 0.013441,-0.0068 0.00596,8.283e-4 0.016363,0.013179 0.017361,0.020409 9.861e-4,0.00906 -0.00596,0.017709 -0.00336,0.02778 0.00934,0.00965 0.027581,0.015338 0.040883,0.020976 0.00873,-0.00723 0.00139,-0.024139 0,-0.034583 -2.188e-4,-0.00464 5.473e-4,-0.00995 0,-0.014174 -9.862e-4,-0.00723 -0.00336,-0.01419 -0.00336,-0.020409 0,-0.028745 0.021824,-0.040907 0.040883,-0.0521589 0.00814,-0.004809 0.016929,-0.0134203 0.024082,-0.017008 0.010122,-0.005011 0.015177,-0.005386 0.023522,-0.0102052 0.015088,-0.008655 0.029166,-0.017961 0.040883,-0.02778 0.00535,-0.0130302 -5.473e-4,-0.0285177 0,-0.0413865 0.00536,-0.003346 0.00825,4.1503e-4 0.014001,0 0.00913,-0.002084 0.011632,-0.0157545 0.016801,-0.0209767 0.00298,-0.002919 0.013785,-0.003666 0.017361,-0.006803 0.00913,-0.00723 0.00885,-0.0171953 0.016801,-0.0204098 0.00279,-8.2284e-4 0.00906,-0.002151 0.013441,-0.003401 0.00596,-0.001678 0.014545,-0.007393 0.024082,-0.0107718 0.00616,-0.002096 0.021697,-8.8995e-4 0.024082,-0.003401 0.00298,-0.00293 -7.632e-4,-0.015813 0,-0.0204098 0.00476,-0.0226846 0.037633,-0.0235349 0.057684,-0.0311816 0.013897,-0.005433 0.029317,-0.0166127 0.044803,-0.0136065 -0.00299,0.0108667 -0.01658,0.007328 -0.014001,0.0204098 0.00337,0.0183051 0.024451,-0.004214 0.030802,-0.006803 0.01211,-0.005213 0.035082,-0.007758 0.050964,-0.0136065 0.013898,-0.005015 0.037183,-0.0149293 0.024082,-0.0311816 -0.01092,-8.294e-4 -0.014545,0.009547 -0.024082,0.0136065 -0.00656,8.2282e-4 -0.00788,-0.002985 -0.013441,-0.003401 -0.00536,-2.7427e-4 -0.00809,0.004531 -0.013441,0.003401 -0.00536,-8.2832e-4 -0.01321,-0.0106231 -0.014001,-0.0170082 -0.00218,-0.0168788 0.01733,-0.0221335 0.024082,-0.0345833 -0.00456,-0.0152496 -0.024818,-7.3652e-4 -0.037523,-0.006803 0.00139,-0.009026 0.00627,-0.0191775 0.016801,-0.0209768 0.00854,-0.00124 0.028993,0.002843 0.034162,0.006803 0.00297,0.002505 -0.00119,0.009906 0.00336,0.0141735 0.00517,0.004652 0.01397,8.2908e-4 0.020721,0 0.00238,-0.0114504 -0.015424,-0.006746 -0.013441,-0.0141735 0.013499,-0.008865 0.037845,-0.004631 0.054324,-0.006803 0.00954,-0.001243 0.018912,-0.008976 0.027442,-0.0136065 0.00793,-0.004652 0.015737,-0.0111686 0.024082,-0.003401 0.00237,0.00824 -0.0061,0.0127843 -0.010641,0.0170081 -0.015287,0.0136665 -0.02897,0.0289154 -0.040883,0.0447882 0.00735,0.00723 0.018493,0.002151 0.030802,0.003401 0.00476,4.1689e-4 0.011838,0.002559 0.016801,0.003401 0.00597,8.2884e-4 0.012593,-8.2911e-4 0.017361,0 0.00833,0.002088 0.00845,0.0141735 0.016801,0.0141735 0.013493,0 0.015027,-0.0117282 0.00728,-0.0209767 0.00237,-0.009437 0.00676,-0.017741 0.00336,-0.0243784 -0.00616,-0.0124542 -0.02961,0.002309 -0.030802,-0.0136065 -7.63e-4,-0.010027 0.00986,-0.0133189 0.013441,-0.0209767 -0.00158,-0.0193018 0.015984,-0.0204795 0.014001,-0.0379849 -9.83e-4,-0.007224 -0.00904,-0.00675 -0.014001,-0.0136065 -0.00257,-0.003761 -0.00375,-0.0109666 -0.00672,-0.0136065 -0.010317,-0.008857 -0.02961,-0.007496 -0.030802,-0.0243784 -5.472e-4,-0.0100321 0.00139,-0.0169583 0,-0.02778 -0.00139,-0.0102392 -0.011428,-0.0393799 -0.020161,-0.0413865 -0.011118,-0.002501 -0.0175,0.0181557 -0.030802,0.0243784 -0.00714,0.003344 -0.020094,0.004907 -0.027442,0.003401 -0.00477,-8.2896e-4 -0.012839,-0.004905 -0.013441,-0.0141735 -4.01e-4,-0.003857 3.799e-4,-0.005895 0.00168,-0.007938 0.088747,-0.026501 0.1807731,-0.0400555 0.2733002,-0.0402541 z M 1.2962167,0.555462 c -0.011274,0.0276341 -0.037948,0.0434319 -0.072805,0.0425204 -0.00914,0.008857 -0.00514,0.0257029 -0.010081,0.0379849 -0.00417,0.0102315 -0.01732,0.0184125 -0.027442,0.0175751 -0.00735,-4.1469e-4 -0.020721,-0.010565 -0.020721,-0.0175751 0,-0.003127 0.00176,-0.006489 0.00336,-0.009638 0.040755,-0.0268171 0.083438,-0.0505057 0.127689,-0.0708673 z m 0.838378,0.0289139 c -0.00366,8.2397e-4 -0.00687,0.00173 -0.010081,0.003401 -0.00755,0.004644 -0.00825,0.011397 -0.014001,0.0136065 -0.00814,0.002926 -0.018969,0.002776 -0.020161,0.0102049 -9.862e-4,0.006233 0.00693,0.008536 0.00672,0.0141735 -0.00298,0.00744 -0.0085,0.00799 -0.010081,0.0170082 0.010122,0.0166682 0.035095,2.1923e-4 0.047603,-0.003401 0.00555,-0.001667 0.010458,7.6777e-4 0.013441,-0.003401 0.00338,-0.005429 8.249e-4,-0.0161669 0.00336,-0.0238114 0.00279,-0.008442 0.011637,-0.006744 0.010641,-0.0141735 -7.651e-4,-0.00744 -0.015132,-0.0147772 -0.027442,-0.0136065 z M 3.2258234,0.70867376 V 3.277474 H 4.2333332 V 0.70867368 Z M 1.0554,0.71590565 c 0.00587,0.008508 0.0089,0.0187209 -0.0028,0.0238114 -0.00181,7.4603e-4 -0.020299,0.003156 -0.027442,0.002834 0.0099,-0.009092 0.019982,-0.0179751 0.030242,-0.0266454 z m 0.024642,0.0306147 c 0.00476,2.7426e-4 0.00788,0.009789 0.013441,0.0102049 0.00536,4.1695e-4 0.014175,-0.004531 0.017361,-0.003401 0.00833,0.002085 0.011316,0.0181579 0.00336,0.0243784 -0.00656,8.3378e-4 -0.00867,-0.0078 -0.013441,-0.006803 -0.013501,0.002501 -0.01732,0.0286179 -0.027442,0.02778 -0.00953,-8.2939e-4 -0.016454,-0.0207586 -0.00672,-0.02778 2.168e-4,-0.006003 -0.00377,-0.00754 -0.00336,-0.0136065 0.00298,-0.003752 0.00885,-0.0113514 0.016801,-0.0107728 z m -0.042003,0.006236 c 3.725e-4,-1.5785e-4 6.32e-4,-5.686e-5 0.00112,5.6693e-4 -0.00139,0.010655 -0.00531,0.0125614 -0.013441,0.0175751 -0.014096,0.00865 -0.022879,0.0194758 -0.027442,0.0379849 -0.00139,0.005431 -0.01733,0.0218371 -0.024082,0.0204098 -0.015682,-0.003346 0.00652,-0.0333879 0.010081,-0.0379849 0.00398,-0.00501 0.00944,-0.007967 0.014001,-0.0136065 0.00236,-0.002923 0.00354,-0.007704 0.00504,-0.0119057 0.00315,-0.003425 0.00632,-0.006826 0.00952,-0.0102049 0.00632,-0.00189 0.016177,-0.002605 0.022962,-0.002268 0.00138,0 0.00185,-4.13e-4 0.00224,-5.6693e-4 z m 1.342413,0.028347 c 0.015684,-8.2829e-4 0.023089,0.0181804 0.030242,0.02778 0.00595,0.007844 0.02443,0.0183808 0.034162,0.0238114 0.00556,0.00293 0.011206,0.007963 0.017361,0.0107718 0.00366,0.001656 0.00806,0.00357 0.012881,0.006236 0.00826,0.0111649 0.016294,0.0225062 0.024082,0.0340163 -7.478e-4,0.005277 -0.00367,0.009468 -0.0028,0.0147404 0.00417,7.4603e-4 0.00661,-0.001863 0.00896,-0.005669 0.02512,0.0365791 0.04776,0.0748408 0.067765,0.11452175 -8.484e-4,0.00148 -0.00131,0.00287 -0.00168,0.0051 -0.00199,0.011233 0.00658,0.025772 -0.010081,0.02778 -0.010512,0.00125 -0.023031,-0.01039 -0.037523,-0.013607 -0.00595,-0.00124 -0.015953,0.00167 -0.020721,0 -0.010926,-0.00377 -0.00747,-0.017741 -0.016801,-0.024379 -0.00536,-0.003766 -0.018902,-0.009192 -0.027442,-0.0102052 -0.00536,-4.1505e-4 -0.00844,8.2859e-4 -0.014001,0 -0.00675,-8.2291e-4 -0.017962,-1.1095e-4 -0.023522,-0.003401 -0.00536,-0.003341 -0.019334,-0.009526 -0.020721,-0.0141735 -0.00218,-0.007441 0.016959,-0.0175909 0.017361,-0.0238114 4.443e-4,-0.004817 -0.00628,-0.006945 -0.00728,-0.0141735 -7.68e-4,-0.004443 9.84e-4,-0.0107628 0,-0.0136065 -0.00139,-0.005223 -0.00866,-0.009997 -0.016801,-0.0102049 -0.00715,0 -0.014566,0.003401 -0.020721,0.003401 -0.00874,2.7428e-4 -0.026608,-0.004531 -0.037523,-0.003401 -0.00655,4.1689e-4 -0.010642,0.002984 -0.016801,0.003401 -0.017273,0.00124 -0.027382,-8.2852e-4 -0.040883,0 -0.00973,4.1688e-4 -0.028387,0.005981 -0.037523,0.0102049 -0.00456,0.002096 -0.00804,0.007199 -0.014001,0.0102049 -0.00277,0.00124 -0.00649,0.001734 -0.010081,0.003401 -0.00556,0.002513 -0.014808,0.008822 -0.020161,0.0102049 -0.00774,0.002095 -0.016707,-4.1511e-4 -0.030802,0 -0.010122,4.1361e-4 -0.027236,-0.001449 -0.027442,-0.0136065 -2.18e-4,-0.0186802 0.033492,-0.0109601 0.050963,-0.0141735 0.00655,-0.00124 0.00942,-0.008953 0.017361,-0.0136065 0.00377,-0.002096 0.00652,-0.004412 0.010081,-0.006803 0.00596,-0.004213 0.016363,-0.0127698 0.017361,-0.0175751 7.694e-4,-0.004443 -0.00452,-0.0103899 -0.00392,-0.0136065 7.651e-4,-0.004213 0.00865,-0.008185 0.014001,-0.0136065 0.00834,-0.008448 0.013754,-0.0189477 0.024082,-0.0243783 0.00695,-0.003763 0.020346,-0.004599 0.023522,-0.0102049 7.678e-4,-0.00644 -2.191e-4,-0.008327 0,-0.0141735 0.00436,-0.004158 0.00314,-0.006013 0.00672,-0.006803 0.010729,-0.00249 0.021657,0.004236 0.034162,0.003401 0.00536,-2.7428e-4 0.011607,3.6075e-4 0.017361,-0.003401 0.00476,-0.003346 0.00868,-0.007789 0.013441,-0.0102049 0.00517,-0.00293 0.011,-0.009832 0.017361,-0.0102049 z m -1.2208846,0.009638 c 0.00254,-2.5598e-4 0.0046,-4.7575e-4 0.0056,5.6694e-4 -0.00318,0.0132419 -0.033915,0.008338 -0.044243,0.003401 2.059e-4,-0.0025 0.0041,-0.002985 0.00672,-0.003401 0.00263,-4.1503e-4 0.00747,2.7831e-4 0.010641,0 0.00456,-2.7846e-4 0.00848,0 0.013441,0 0.00248,0 0.00529,-3.0706e-4 0.00784,-5.6694e-4 z m 1.2253649,0.0232445 c -2.71e-4,2.7439e-4 -1.399e-4,0.001284 -0.00112,0.001701 -0.00655,0.002084 -0.00973,0.0152199 0,0.0170082 0.00456,-0.00293 0.00456,-0.008557 0.00336,-0.0170082 -0.0013,-0.00147 -0.00195,-0.001964 -0.00224,-0.001701 z m -1.2897693,0.001134 c 0.00168,-1.5832e-4 0.00382,-5.228e-5 0.0056,5.6693e-4 -0.00913,0.007844 -0.02164,0.0119945 -0.037523,0.0170082 -0.00754,0.00249 -0.019334,0.004914 -0.020722,-0.003401 -0.00159,-0.0104443 0.00669,-0.009196 0.013441,-0.0102049 0.00873,-8.2283e-4 0.02404,-0.003401 0.034162,-0.003401 0.00169,0 0.00335,-4.0928e-4 0.00504,-5.6693e-4 z m 1.285289,0.0283469 c -0.00318,8.2285e-4 -0.00729,-2.181e-4 -0.010641,0.003401 2.191e-4,0.0112331 0.00218,0.0173941 0,0.0272131 0.00635,0.0124487 0.020906,0.004915 0.024082,-0.003401 0.00377,-0.0208809 -0.0039,-0.029846 -0.013441,-0.0272131 z m 0.085126,0.0549931 c -0.00873,-4.1689e-4 -0.015563,0.002843 -0.020721,0.006803 0.00735,0.0120681 0.021044,0.014569 0.037523,0.0175751 0.00595,-0.004432 0.00451,-0.0167316 0.00728,-0.0243784 -0.00715,0 -0.011986,4.1503e-4 -0.020721,0 z M 0.73841812,1.3310345 c 0.005342,0.00671 0.0105665,0.013018 0.0173612,0.016441 0.00497,0.0025 0.0110105,0.00215 0.0173612,0.0034 0.005161,8.229e-4 0.008488,0.00521 0.0134409,0.0068 0.0105275,0.00377 0.0258176,0.00284 0.0341624,0.0068 0.0127058,0.00564 0.0198759,0.028144 0.0308021,0.034583 5.4707e-4,0.00643 -0.001983,0.012769 0,0.017575 0.005164,0.00703 0.0151768,0.00895 0.0235216,0.013607 0.0101221,0.00564 0.0145447,0.019946 0.0240817,0.024379 0.003373,0.00123 0.008271,-0.00167 0.0134409,0 0.013103,0.00417 0.016127,0.023834 0.027442,0.020409 0.00735,-0.00209 0.00947,-0.013179 0.010641,-0.020409 0.00497,-0.00543 0.00905,-0.014174 0.016801,-0.014174 0.012306,-2.766e-4 0.016159,0.015537 0.020722,0.02778 0.00257,0.00681 0.0083,0.013747 0.010081,0.020976 0.00298,0.01245 0.00257,0.047566 0,0.054993 -0.00318,0.00922 -0.016539,0.014307 -0.024082,0.024379 -0.00358,0.00482 -0.00732,0.01039 -0.010081,0.013607 -0.00477,0.00601 -0.010414,0.00875 -0.014001,0.014174 -0.00199,0.00293 -0.00158,0.00938 -0.00336,0.013607 -0.00596,0.012865 -0.015044,0.022485 -0.010081,0.037985 0.00199,0.00624 0.010081,0.01355 0.010081,0.020977 0,0.00887 -0.018774,0.010751 -0.020161,0.020409 -9.786e-4,0.00703 0.00791,0.021735 0.010081,0.031181 0.00159,0.00703 0.0132,0.012978 0.017361,0.017575 0.00694,0.00785 0.013811,0.017175 0.020161,0.027213 0.012505,0.019469 0.018498,0.043274 0.030802,0.062363 0.00656,0.00986 0.019714,0.017336 0.024082,0.02778 0.00218,0.00522 -0.00199,0.015605 0,0.020409 0.00714,0.016294 0.041603,0.033356 0.057684,0.041387 0.00754,0.00377 0.013775,0.00675 0.020721,0.010772 0.010523,0.00601 0.032169,0.017778 0.037523,0.027213 0.00477,0.00844 0.00771,0.027934 0.010081,0.041387 0.00298,0.017672 -7.634e-4,0.033056 0,0.052159 5.419e-4,0.010444 0.00336,0.017324 0.00336,0.02778 0,0.00377 2.191e-4,0.00997 0,0.013607 -2.189e-4,0.012449 9.841e-4,0.025325 0,0.037985 -5.47e-4,0.00681 -4.366e-4,0.015173 0,0.020976 5.419e-4,0.00624 0.00633,0.00817 0.00672,0.013607 4.444e-4,0.0058 -0.00733,0.012411 -0.00672,0.017008 0.00139,0.012657 0.014977,0.022926 0.017361,0.034583 0.00199,0.00922 0.00455,0.030349 0.00336,0.041387 -7.261e-4,0.0055 -0.00251,0.013557 -0.00336,0.019843 C 0.89854178,2.0942746 0.73092848,1.7830914 0.7305776,1.4489577 c 2.801e-4,-0.039431 0.002898,-0.07881 0.007841,-0.1179232 z"
     id="rect811"
     inkscape:connector-curvature="0"
     sodipodi:nodetypes="cccccccccccccccccccccccccsccccccccccccccsccccccccccccccccccccccccccccccccccccccccccccccccccccccccccccccccccccccccccccccccccccccccccccccccccccccccccccccccccccccccccccccccccccccccccccccsccccccccccccccccccccccccccccccccccccccscccccccccccccccccccsccccccccccccccccccccccccccccccccccccccccccccccccccccccccccccccccccccccccccccccccccccccccccccccccscccccccccccsccccccccccccccccccccccccccccccccccsccccccccccccscccccccccc"
     inkscape:label="#" />
</svg>
