<?xml version="1.0" encoding="UTF-8" standalone="no"?><svg height="22" viewBox="0 0 5.8208332 5.8208335" width="22" xmlns="http://www.w3.org/2000/svg"><sodipodi:namedview/><metadata><rdf:RDF><cc:Work><dc:format>image/svg+xml</dc:format><dc:type/><dc:title/></cc:Work></rdf:RDF></metadata><path d="m5.565829 0-.2049879.20498789c-.4239017-.30118888-1.0170303-.26537388-1.3963773.11397329-.3235953.32359518-.3978145.80306532-.2263068 1.20040892l-1.553808.948684-.109054-.109054a.1484271.1484271 0 0 0 -.021318-.021321.1484271.1484271 0 0 0 -.1894095.022139.1484271.1484271 0 0 0  .00328.2066282l.0590363.0590364-1.92688441 1.1758101 2.17451161-.9281853.7740343.7740342-.9290053 2.1736916 1.1766305-1.9260661.060678.060678a.1484271.1484271 0 0 0  .2033469.0000017.1484271.1484271 0 0 0  .0041-.2074487l-.1106943-.1106944.9495027-1.554627c.3970863.1707686.875533.0969292 1.198769-.2263066.3793955-.3793957.4151522-.9726015.1139732-1.39637746l.204988-.20498776zm-.34274.59856414c.272574.27257403.2725738.70644796 0 .97902216-.2725738.2725737-.7064483.272574-.9790221 0-.2725739-.2725738-.2733939-.70726833-.0008201-.97984225.272574-.27257388.7072683-.27175368.9798422.00082009zm-1.6972995 1.69729966-.4534335 1.0601974-.6075835-.6075837z" fill="#d0d0d0"/></svg>