<?xml version="1.0" encoding="UTF-8" standalone="no"?>
<svg
   xmlns:dc="http://purl.org/dc/elements/1.1/"
   xmlns:cc="http://creativecommons.org/ns#"
   xmlns:rdf="http://www.w3.org/1999/02/22-rdf-syntax-ns#"
   xmlns:svg="http://www.w3.org/2000/svg"
   xmlns="http://www.w3.org/2000/svg"
   xmlns:sodipodi="http://sodipodi.sourceforge.net/DTD/sodipodi-0.dtd"
   xmlns:inkscape="http://www.inkscape.org/namespaces/inkscape"
   viewBox="0 0 16 16"
   version="1.1"
   id="svg6"
   sodipodi:docname="glyph-facebook-icon.svg"
   inkscape:version="0.92+devel (7086fba083, 2017-08-05, custom)">
  <metadata
     id="metadata10">
    <rdf:RDF>
      <cc:Work
         rdf:about="">
        <dc:format>image/svg+xml</dc:format>
        <dc:type
           rdf:resource="http://purl.org/dc/dcmitype/StillImage" />
        <dc:title></dc:title>
      </cc:Work>
    </rdf:RDF>
  </metadata>
  <sodipodi:namedview
     pagecolor="#002466"
     bordercolor="#ffffff"
     inkscape:document-rotation="0"
     borderopacity="0.2627451"
     objecttolerance="10"
     gridtolerance="10"
     guidetolerance="10"
     inkscape:pageopacity="1"
     inkscape:pageshadow="2"
     inkscape:window-width="1920"
     inkscape:window-height="1051"
     id="namedview8"
     showgrid="false"
     borderlayer="true"
     inkscape:showpageshadow="false"
     inkscape:zoom="45.9375"
     inkscape:cx="7.9673469"
     inkscape:cy="8"
     inkscape:window-x="0"
     inkscape:window-y="0"
     inkscape:window-maximized="1"
     inkscape:current-layer="svg6"
     inkscape:snap-page="true"
     inkscape:snap-grids="false"
     inkscape:snap-to-guides="false" />
  <defs
     id="defs3051">
    <style
       type="text/css"
       id="current-color-scheme">
      .ColorScheme-Text {
        color:#f2f2f2;
      }
      </style>
  </defs>
  <path
     style="fill:#d0d0d0;fill-opacity:1;stroke-width:1.29999995"
     d="M 2.4707031 0 C 1.1020313 -2.9605947e-16 0 1.1020313 0 2.4707031 L 0 13.529297 C -2.9605947e-16 14.897969 1.1020313 16 2.4707031 16 L 9.46875 16 L 9.46875 9.890625 L 7.8984375 9.890625 L 7.8984375 7.3300781 L 9.46875 7.3300781 L 9.46875 5.9785156 C 9.46875 3.9836478 10.294481 2.796875 12.636719 2.796875 L 14.585938 2.796875 L 14.585938 5.2421875 L 13.367188 5.2421875 C 12.455758 5.2421875 12.396484 5.5848794 12.396484 6.2226562 L 12.392578 7.3300781 L 14.601562 7.3300781 L 14.341797 9.8925781 L 12.392578 9.8925781 L 12.390625 16 L 13.529297 16 C 14.897969 16 16 14.897969 16 13.529297 L 16 2.4707031 C 16 1.1020313 14.897969 0 13.529297 0 L 2.4707031 0 z "
     id="rect836"
     inkscape:label="#" />
</svg>
