<?xml version="1.0" encoding="UTF-8" standalone="no"?>
<!-- Created with Inkscape (http://www.inkscape.org/) -->

<svg
   xmlns:dc="http://purl.org/dc/elements/1.1/"
   xmlns:cc="http://creativecommons.org/ns#"
   xmlns:rdf="http://www.w3.org/1999/02/22-rdf-syntax-ns#"
   xmlns:svg="http://www.w3.org/2000/svg"
   xmlns="http://www.w3.org/2000/svg"
   xmlns:sodipodi="http://sodipodi.sourceforge.net/DTD/sodipodi-0.dtd"
   xmlns:inkscape="http://www.inkscape.org/namespaces/inkscape"
   width="12"
   height="12"
   viewBox="0 0 12 12"
   version="1.1"
   id="default16"
   inkscape:version="0.92+devel (1da36c2be7, 2017-09-15, custom)"
   sodipodi:docname="glyph-snap-ortho.svg">
  <defs
     id="defs5" />
  <sodipodi:namedview
     id="base"
     pagecolor="#002466"
     bordercolor="#ffffff"
     borderopacity="0.38039216"
     inkscape:pageopacity="1"
     inkscape:pageshadow="2"
     inkscape:zoom="26.28125"
     inkscape:cx="7.7336504"
     inkscape:cy="8"
     inkscape:document-units="px"
     inkscape:current-layer="default16"
     inkscape:document-rotation="0"
     showgrid="false"
     inkscape:showpageshadow="false"
     borderlayer="true"
     inkscape:window-width="1920"
     inkscape:window-height="1029"
     inkscape:window-x="0"
     inkscape:window-y="22"
     inkscape:window-maximized="1"
     units="px"
     inkscape:snap-page="true"
     inkscape:object-paths="true" />
  <metadata
     id="metadata5">
    <rdf:RDF>
      <cc:Work
         rdf:about="">
        <dc:format>image/svg+xml</dc:format>
        <dc:type
           rdf:resource="http://purl.org/dc/dcmitype/StillImage" />
        <dc:title></dc:title>
      </cc:Work>
    </rdf:RDF>
  </metadata>
  <path
     style="fill:#d0d0d0;stroke-width:1;stroke-miterlimit:4;stroke-dasharray:3, 1;stroke-dashoffset:0;stroke:none"
     d="M 5.5 0 L 5.5 1.1660156 L 6.5 1.1660156 L 6.5 0 L 5.5 0 z M 5.5 2.1660156 L 5.5 3.3320312 L 6.5 3.3320312 L 6.5 2.1660156 L 5.5 2.1660156 z M 0 5.5 L 0 6.5 L 1.1660156 6.5 L 1.1660156 5.5 L 0 5.5 z M 2.1660156 5.5 L 2.1660156 6.5 L 3.3320312 6.5 L 3.3320312 5.5 L 2.1660156 5.5 z M 8.6660156 5.5 L 8.6660156 6.5 L 9.8320312 6.5 L 9.8320312 5.5 L 8.6660156 5.5 z M 10.832031 5.5 L 10.832031 6.5 L 12 6.5 L 12 5.5 L 10.832031 5.5 z M 5.5 8.6660156 L 5.5 9.8320312 L 6.5 9.8320312 L 6.5 8.6660156 L 5.5 8.6660156 z M 5.5 10.832031 L 5.5 12 L 6.5 12 L 6.5 10.832031 L 5.5 10.832031 z "
     id="rect813"
     inkscape:label="#" />
  <path
     style="fill:#d0d0d0;stroke-width:1;stroke-miterlimit:4;stroke-dasharray:3.00000008, 1.00000003000000004;stroke-dashoffset:0;stroke:none"
     d="m 4.25,4.25 h 3.5 v 3.5 h -3.5 z"
     id="rect836"
     inkscape:label="#" />
</svg>
