<?xml version="1.0" encoding="UTF-8" standalone="no"?><svg height="16" viewBox="0 0 4.2333333 4.2333333" width="16" xmlns="http://www.w3.org/2000/svg"><sodipodi:namedview/><metadata><rdf:RDF><cc:Work><dc:format>image/svg+xml</dc:format><dc:type/><dc:title/></cc:Work></rdf:RDF></metadata><path d="m1.1100098.20851505c-.4024434.00052251-.80399015.15338401-1.11000982.45940351l.26199952.2635498c.46972762-.4697272 1.2247429-.4707554 1.6944701-.001034l.2645833-.2645829c-.3060197-.3060221-.7085996-.45785057-1.1110431-.45733641zm-.0005157.61494951c-.24513778 0-.49040386.092495-.67644455.27853604l.26406657.2645833c.2297689-.2297697.59653578-.2323559.82630508-.0025838l.263033-.2619995c-.1860428-.18604014-.4318237-.27853654-.6769612-.27853604zm.0005159.62735194a.32841028.32841028 0 0 0 -.32814558.3286621.32841028.32841028 0 0 0  .32814538.3281453.32841028.32841028 0 0 0  .3281453-.3281453.32841028.32841028 0 0 0 -.3281451-.3286621zm-.95756454.8283733c-.0845443 0-.15244548.067901-.15244548.1524454v1.4402221c0 .084544.0679012.1529623.15244548.1529623h3.92844234c.084544 0 .1524455-.068418.1524455-.1529623v-1.4402221c0-.084544-.067901-.1524454-.1524455-.1524454zm.67437746.6077148c.133319.0003175.24137868.1085265.24132898.2418456.0000497.1333193-.10800998.2415154-.24132898.2418458-.13385718.000404-.24241265-.1079878-.24236249-.2418458-.00005016-.133858.10850531-.2422766.24236249-.2418456zm.88470058 0c .1335881-.0000495.241895.1082577.2418456.2418456.0000494.1335881-.1082575.2418953-.2418456.2418458-.1338572.0003969-.2424127-.1079878-.2423625-.2418458-.0000502-.133858.1085053-.2422766.2423625-.2418456zm.8852172 0c .133319.0003175.2413783.1085265.2413288.2418456.0000495.1333193-.1080098.2415154-.2413288.2418458-.1335882.0000495-.2418952-.1082577-.2418457-.2418458-.0000495-.1335879.1082575-.2418951.2418457-.2418456zm.8847005 0c .1335881-.0000495.241895.1082577.2418458.2418456.0000492.1335881-.1082577.2418953-.2418458.2418458-.1333188-.0003175-.2408619-.1085265-.2408121-.2418458-.0000498-.1333191.1074933-.2415151.2408121-.2418456z" fill="#d0d0d0" opacity=".99" stroke-width=".328981"/></svg>