<?xml version="1.0" encoding="UTF-8" standalone="no"?><svg height="16" viewBox="0 0 4.2333332 4.2333332" width="16" xmlns="http://www.w3.org/2000/svg" xmlns:xlink="http://www.w3.org/1999/xlink"><defs><linearGradient id="a" gradientUnits="userSpaceOnUse" x1=".520382" x2="3.695382" y1="3.545584" y2="3.545584"><stop offset="0" stop-color="#f00"/><stop offset=".11906751" stop-color="#ff7300"/><stop offset=".26154357" stop-color="#ffb800"/><stop offset=".4245078" stop-color="#a8ff00"/><stop offset=".58680475" stop-color="#00de11"/><stop offset=".77816463" stop-color="#00a3ff"/><stop offset="1" stop-color="#9100ff"/></linearGradient></defs><sodipodi:namedview/><metadata><rdf:RDF><cc:Work><dc:format>image/svg+xml</dc:format><dc:type/><dc:title/></cc:Work></rdf:RDF></metadata><path d="m0 0h4.2333332v4.2333332h-4.2333332z" fill="none" stroke-linecap="round" stroke-width=".25455"/><path d="m3.1992188 2c-.6648001 0-1.1992188.5344187-1.1992188 1.1992188v9.6015622h11.966797l.033203-9.6015622c-.073018-.660778-.534419-1.1992188-1.199219-1.1992188zm5.8105468 1.7753906.6933594.1191406.056641.7128907c.1171125.058511.2277285.129311.330078.2109375l.669922-.2558594.40625.5761719-.464844.5429687c.04219.1247585.07279.2539373.08789.3847656l.650391.2910157-.119141.6972656-.71289.054687c-.058091.1170525-.129772.2276685-.210938.3300786l.25586.6699219-.578125.40625-.5410159-.4628906c-.1248075.0417373-.2539864.069316-.3847656.0839844l-.2929687.6523437-.6953126-.1191406-.0546874-.7148438c-.1179723-.0579284-.2307394-.1276606-.3339844-.2089843l-.6660156.2539062-.40625-.5761719.4609374-.5410156c-.0416451-.124379-.0692226-.2544331-.0839843-.3847656l-.6523438-.2929688.1210938-.6953125.7128906-.0546875c.0580913-.1170519.127819-.227668.2089844-.3300781l-.2539063-.671875.578125-.40625.5410156.4628906c.1244297-.041193.2544808-.0676993.3847657-.0820312zm-.078125 1.7753906c-.3553587.0000053-.6580715.2553269-.71875.6054688-.0696189.3980274.1955825.776884.59375.8457031.3975614.0688025.7768628-.1961939.8457032-.59375.0696188-.3980273-.1975352-.7768843-.5957032-.8457031-.041159-.00711-.083236-.011719-.125-.0117188zm-2.8710937 1.9003907.5761719.1074219.037109.5957031c.097572.05026.1905251.1100875.2753907.1796875l.558594-.203125.3300781.4863281-.3925781.4453125c.033298.1043112.055654.2113374.066406.3203125l.5390627.2539063-.109375.5761722-.59375.037109c-.05026.09757-.1100874.190525-.1796874.275391l.2011718.558593-.484375.330078-.4472656-.392578c-.1038841.03322-.2117871.05556-.3203125.06641l-.2519531.537106-.578125-.107422-.0371094-.595703c-.0971108-.050343-.1889904-.110164-.2734375-.179687l-.5605469.203124-.3300781-.486328.3945313-.445312c-.0327686-.1039334-.0540368-.2118326-.0644532-.3203126l-.5410156-.2539063.109375-.5761719.59375-.0371093c.0507591-.0971717.1116589-.189052.1816406-.2734375l-.203125-.5605469.484375-.3300781.4472656.3945312c.1038841-.033222.2098341-.055559.3183594-.066406zm4.3750001 1.1230469.625.2519531-.07813.4746093c.03292.031673.06488.064184.09375.099609.02793.036397.05288.075708.07617.1152344l.478515.039063.09375.6660154-.447265.169922c-.02347.08912-.05725.175042-.101563.255859l.205078.433594-.53125.416016-.371093-.302735c-.08875.02336-.179725.03579-.271485.03711l-.2734302.394531-.625-.25.076172-.474609c-.032995-.03213-.062967-.06568-.091797-.101563-.027931-.0364-.052875-.07571-.076172-.115234l-.4804687-.03711-.09375-.6679684.4492188-.1699218c.0234708-.0891213.0572513-.1750456.1015625-.2558594l-.2050782-.4335938.5292969-.4140625.3710938.3027344c.0886979-.0237732.1796721-.0373164.2714841-.0390625zm-4.4707032.3554687c-.1223774-.000401-.2424285.0368325-.34375.1054687-.2783358.1888253-.3511387.5675076-.1621094.8457032.1892485.2778826.5678526.3494466.8457031.1601566.2783358-.1888256.3511387-.567508.1621094-.8457035-.1131704-.1655244-.3014386-.265179-.5019531-.265625zm4.2382812.6640625c-.11924-.00416-.2361039.033902-.3300781.1074219-.2207698.1724145-.2603392.4901961-.087891.7109371.1724145.22077.4901961.26034.7109381.08789.22162-.172505.261242-.491933.08789-.7128906-.092466-.1176973-.231264-.1883456-.380859-.1933584z" fill="#d0d0d0" opacity=".532258" stroke-width="1.2" transform="scale(.26458333)"/><path d="m .52038161 3.3868733c0 .1758948.1415275.3174224.3174225.3174224h2.54015509c.175895 0 .3174225-.1415276.3174225-.3174224z" fill="url(#a)" opacity=".99" stroke-width=".3175"/></svg>