<?xml version="1.0" encoding="UTF-8" standalone="no"?>
<!-- Created with Inkscape (http://www.inkscape.org/) -->

<svg
   xmlns:dc="http://purl.org/dc/elements/1.1/"
   xmlns:cc="http://creativecommons.org/ns#"
   xmlns:rdf="http://www.w3.org/1999/02/22-rdf-syntax-ns#"
   xmlns:svg="http://www.w3.org/2000/svg"
   xmlns="http://www.w3.org/2000/svg"
   xmlns:sodipodi="http://sodipodi.sourceforge.net/DTD/sodipodi-0.dtd"
   xmlns:inkscape="http://www.inkscape.org/namespaces/inkscape"
   width="22"
   height="22"
   viewBox="0 0 5.8208332 5.8208335"
   version="1.1"
   id="svg8"
   inkscape:version="0.92+devel 15724 custom"
   sodipodi:docname="glyph-emoji-01.svg">
  <defs
     id="defs2" />
  <sodipodi:namedview
     id="base"
     pagecolor="#002466"
     bordercolor="#ffffff"
     borderopacity="0.37647059"
     inkscape:pageopacity="1"
     inkscape:pageshadow="2"
     inkscape:zoom="26.323657"
     inkscape:cx="11"
     inkscape:cy="11"
     inkscape:document-units="px"
     inkscape:current-layer="svg8"
     inkscape:document-rotation="0"
     showgrid="false"
     inkscape:showpageshadow="false"
     borderlayer="true"
     units="px"
     inkscape:window-width="1920"
     inkscape:window-height="1080"
     inkscape:window-x="0"
     inkscape:window-y="0"
     inkscape:window-maximized="1" />
  <metadata
     id="metadata5">
    <rdf:RDF>
      <cc:Work
         rdf:about="">
        <dc:format>image/svg+xml</dc:format>
        <dc:type
           rdf:resource="http://purl.org/dc/dcmitype/StillImage" />
        <dc:title></dc:title>
      </cc:Work>
    </rdf:RDF>
  </metadata>
  <path
     style="fill:#d0d0d0;stroke-width:5.15234804;stroke-linecap:round;stroke-linejoin:round"
     d="M 11,0 C 4.9248678,0 0,4.9248678 0,11 0,17.075132 4.9248678,22 11,22 17.075132,22 22,17.075132 22,11 22,4.9248678 17.075132,0 11,0 Z M 6.9238281,3.5664062 c 0.638508,-3.9e-4 1.1562124,1.3244785 1.15625,2.9589844 -3.76e-5,1.6345059 -0.517742,2.9593744 -1.15625,2.9589844 -0.638508,3.9e-4 -1.1562124,-1.3244785 -1.15625,-2.9589844 3.76e-5,-1.6345059 0.517742,-2.9593744 1.15625,-2.9589844 z m 8.1523439,0 c 0.638508,-3.9e-4 1.156212,1.3244785 1.15625,2.9589844 -3.8e-5,1.6345059 -0.517742,2.9593744 -1.15625,2.9589844 -0.638508,3.9e-4 -1.156212,-1.3244785 -1.15625,-2.9589844 3.8e-5,-1.6345059 0.517742,-2.9593744 1.15625,-2.9589844 z M 4.1015625,14.003906 c 0,0 1.0523913,1.296034 6.8791045,1.299003 5.826713,0.003 6.917771,-1.299003 6.917771,-1.299003 -9.4e-5,2.84432 -3.088501,5.150132 -6.898438,5.150391 -3.809937,-2.6e-4 -6.8983433,-2.306072 -6.8984375,-5.150391 z"
     transform="scale(0.26458333)"
     id="path4264"
     inkscape:connector-curvature="0"
     sodipodi:nodetypes="sssssccccccccccczccc" />
</svg>
