<?xml version="1.0" encoding="UTF-8" standalone="no"?><svg height="16" viewBox="0 0 4.2333332 4.2333332" width="16" xmlns="http://www.w3.org/2000/svg"><sodipodi:namedview/><metadata><rdf:RDF><cc:Work><dc:format>image/svg+xml</dc:format><dc:type/><dc:title/></cc:Work></rdf:RDF></metadata><path d="m2.5887141.32171107c-.2388847.0137738-.9619595-.0113577-1.4376768.3482224.1298956.149561.3656005.39553493.4221216.52177373-.1209098.1107066-.4125375.4251217-.5012461.5232666-.08154969.0902244-.20063743.0089773-.2705908-.1078631-.11347838-.1895385-.27980438-.412922-.80132196-.4538461 0 0 .0454154.8435263.4751201.9633032-.29270462.1544157-.50942526.4888668-.43817046.9793521.39374027-.038606.61753964-.2354531.75802744-.4598178.14048777-.2243647.24879848-.154244.37360188-.040682.1248034.1135623.6939031.7469552 1.2413586.8162513-.056804.1957527-.1467603.3379301-.3444901.4978871.5551401.030478 1.057425-.280034 1.17679-.706522.0966163-.0465818.3480638-.1885934.7117472-.5464068.4172538-.4105194.2914691-.733091.1082362-.9931615-.1439884-.2043689-.6121489-.68525793-.8927629-.79647003-.0975597-.139818-.317158-.4192953-.5807439-.5452871zm.7994558 1.18761373a.24553009.23126608 0 0 1  .2455844.2310285.24553009.23126608 0 0 1 -.2455844.2314018.24553009.23126608 0 0 1 -.2455844-.2314018.24553009.23126608 0 0 1  .2455844-.2310285z" fill="#d0d0d0"/></svg>