<?xml version="1.0" encoding="UTF-8" standalone="no"?><svg height="16" viewBox="0 0 4.2333332 4.2333332" width="16" xmlns="http://www.w3.org/2000/svg"><sodipodi:namedview/><metadata><rdf:RDF><cc:Work><dc:format>image/svg+xml</dc:format><dc:type/><dc:title/></cc:Work></rdf:RDF></metadata><path d="m2.1531906.00044206a2.1165361 2.1165361 0 0 0 -.6268458.08323969 2.1165361 2.1165361 0 0 0 -1.5263438 2.03087825 2.1165361 2.1165361 0 0 0 1.5220969 2.0334263 2.1165361 2.1165361 0 0 0 2.3782765-.8918535l-1.7837074-1.1398741 1.7862554-1.13647634a2.1165361 2.1165361 0 0 0 -1.7497318-.9793403zm1.6520527 1.68772694a.42781371.42781371 0 0 0 -.4272404.4280897.42781371.42781371 0 0 0  .4272404.4280898.42781371.42781371 0 0 0  .4280898-.4280898.42781371.42781371 0 0 0 -.4280898-.4280897z" fill="#d0d0d0" stroke-linecap="round" stroke-miterlimit="26.700001" stroke-width=".396875"/></svg>