<?xml version="1.0" encoding="UTF-8" standalone="no"?>
<!-- Created with Inkscape (http://www.inkscape.org/) -->

<svg
   xmlns:dc="http://purl.org/dc/elements/1.1/"
   xmlns:cc="http://creativecommons.org/ns#"
   xmlns:rdf="http://www.w3.org/1999/02/22-rdf-syntax-ns#"
   xmlns:svg="http://www.w3.org/2000/svg"
   xmlns="http://www.w3.org/2000/svg"
   xmlns:sodipodi="http://sodipodi.sourceforge.net/DTD/sodipodi-0.dtd"
   xmlns:inkscape="http://www.inkscape.org/namespaces/inkscape"
   width="16"
   height="16"
   viewBox="0 0 4.2333333 4.2333333"
   version="1.1"
   id="svg8"
   inkscape:version="0.92+devel (0526f3edb8, 2017-07-23, custom)"
   sodipodi:docname="glyph-modem.svg">
  <defs
     id="defs2" />
  <sodipodi:namedview
     id="base"
     pagecolor="#002466"
     bordercolor="#ffffff"
     borderopacity="0.38039216"
     inkscape:pageopacity="1"
     inkscape:pageshadow="2"
     inkscape:zoom="54.75"
     inkscape:cx="8"
     inkscape:cy="8"
     inkscape:document-units="px"
     inkscape:current-layer="svg8"
     inkscape:document-rotation="0"
     showgrid="false"
     inkscape:showpageshadow="false"
     borderlayer="true"
     inkscape:window-width="1920"
     inkscape:window-height="1051"
     inkscape:window-x="0"
     inkscape:window-y="0"
     inkscape:window-maximized="1"
     units="px" />
  <metadata
     id="metadata5">
    <rdf:RDF>
      <cc:Work
         rdf:about="">
        <dc:format>image/svg+xml</dc:format>
        <dc:type
           rdf:resource="http://purl.org/dc/dcmitype/StillImage" />
        <dc:title></dc:title>
      </cc:Work>
    </rdf:RDF>
  </metadata>
  <path
     style="opacity:0.98999999;fill:#d0d0d0;stroke-width:0.3289814"
     d="M 1.1100098,0.20851505 C 0.7075664,0.20903756 0.30601965,0.36189906 -2e-8,0.66791856 l 0.26199952,0.2635498 c 0.46972762,-0.4697272 1.2247429,-0.4707554 1.6944701,-0.001034 L 2.2210529,0.66585146 C 1.9150332,0.35982936 1.5124533,0.20800089 1.1100098,0.20851505 Z m -5.157e-4,0.61494951 c -0.24513778,0 -0.49040386,0.092495 -0.67644455,0.27853604 L 0.69711612,1.3665839 C 0.92688502,1.1368142 1.2936519,1.134228 1.5234212,1.3640001 L 1.7864542,1.1020006 C 1.6004114,0.91596046 1.3546305,0.82346406 1.109493,0.82346456 Z M 1.11001,1.4508165 A 0.32841028,0.32841028 0 0 0 0.78186442,1.7794786 0.32841028,0.32841028 0 0 0 1.1100098,2.1076239 0.32841028,0.32841028 0 0 0 1.4381551,1.7794786 0.32841028,0.32841028 0 0 0 1.11001,1.4508165 Z M 0.15244546,2.2791898 C 0.06790116,2.2791898 -2e-8,2.3470908 -2e-8,2.4316352 v 1.4402221 c 0,0.084544 0.0679012,0.1529623 0.15244548,0.1529623 H 4.0808878 c 0.084544,0 0.1524455,-0.068418 0.1524455,-0.1529623 V 2.4316352 c 0,-0.084544 -0.067901,-0.1524454 -0.1524455,-0.1524454 z M 0.82682292,2.8869046 C 0.96014192,2.8872221 1.0682016,2.9954311 1.0681519,3.1287502 1.0682016,3.2620695 0.96014192,3.3702656 0.82682292,3.370596 0.69296574,3.371 0.58441027,3.2626082 0.58446043,3.1287502 0.58441027,2.9948922 0.69296574,2.8864736 0.82682292,2.8869046 Z m 0.88470058,0 C 1.8451116,2.8868551 1.9534185,2.9951623 1.9533691,3.1287502 1.9534185,3.2623383 1.8451116,3.3706455 1.7115235,3.370596 1.5776663,3.3709929 1.4691108,3.2626082 1.469161,3.1287502 1.4691108,2.9948922 1.5776663,2.8864736 1.7115235,2.8869046 Z m 0.8852172,0 C 2.7300597,2.8872221 2.838119,2.9954311 2.8380695,3.1287502 2.838119,3.2620695 2.7300597,3.3702656 2.5967407,3.370596 2.4631525,3.3706455 2.3548455,3.2623383 2.354895,3.1287502 2.3548455,2.9951623 2.4631525,2.8868551 2.5967407,2.8869046 Z m 0.8847005,0 C 3.6150293,2.8868551 3.7233362,2.9951623 3.723287,3.1287502 3.7233362,3.2623383 3.6150293,3.3706455 3.4814412,3.370596 3.3481224,3.3702785 3.2405793,3.2620695 3.2406291,3.1287502 3.2405793,2.9954311 3.3481224,2.8872351 3.4814412,2.8869046 Z"
     id="path849"
     inkscape:connector-curvature="0"
     inkscape:label="#" />
</svg>
