<?xml version="1.0" encoding="UTF-8" standalone="no"?><svg height="16" viewBox="0 0 4.2333332 4.2333332" width="16" xmlns="http://www.w3.org/2000/svg"><sodipodi:namedview/><metadata><rdf:RDF><cc:Work><dc:format>image/svg+xml</dc:format><dc:type/><dc:title/></cc:Work></rdf:RDF></metadata><path d="m1.782258.41104535v.2062464h-1.3644102v-.094801h-.3501118v.3501123h.3501118v-.094801h1.2777143c-.380918.1219174-.715933.40404505-.9702986.78388095-.2852925.4260153-.4756879.9781819-.5329115 1.5917875h-.192352v.6688173h.6688171v-.6688173h-.1951019c.056826-.56099.2337219-1.0609665.4847152-1.435764.2283525-.340991.5123627-.5751761.8238276-.6735934v.035749h.6688172v-.035749c.3115273.098466.5956833.3326974.8239723.6735934.25106.3748955.427938.874729.4847149 1.435764h-.1952464v.6688173h.6688172v-.6688173h-.192352c-.0572245-.6136056-.2476197-1.1657722-.5329117-1.5917875-.2543713-.379844-.5896808-.66196765-.9707328-.78388095h1.2782935v.094801h.3499675v-.3501123h-.3499675v.094801h-1.364555v-.2062464z" fill="#d0d0d0"/></svg>