<?xml version="1.0" encoding="UTF-8" standalone="no"?><svg height="16" viewBox="0 0 4.2333333 4.2333333" width="16" xmlns="http://www.w3.org/2000/svg"><sodipodi:namedview/><metadata><rdf:RDF><cc:Work><dc:format>image/svg+xml</dc:format><dc:type/><dc:title/></cc:Work></rdf:RDF></metadata><path d="m2.1161695.39578792c-.766495.00070319-1.5326008.29253331-2.1161695.87610208l.358993.358993c.9725657-.97256588 2.5397988-.97256512 3.5123637 0l .3619766-.3619763c-.5835689-.5835687-1.3506689-.87382202-2.1171638-.87311878zm0 .84527438c-.5502308.0007032-1.1001128.2100886-1.5185107.6284864l.358993.3599875c.6422236-.6422231 1.6748229-.643218 2.3170462-.0009944l.3619766-.3619764c-.4183979-.4183979-.9692744-.6262062-1.5195051-.6255031zm-.0009929.8403023c-.3351583.0000001-.6704702.1265112-.9248297.3808707l.3609803.3619764c.314147-.314147.8155381-.3171297 1.1296845-.00298l.358993-.3589964c-.2543595-.2543594-.5896715-.3808708-.9248297-.3808707zm.0009929.8582019a.44901089.44901089 0 0 0 -.4494872.4494874.44901089.44901089 0 0 0  .4494872.4484925.44901089.44901089 0 0 0  .4484926-.4484925.44901089.44901089 0 0 0 -.4484926-.4494874z" fill="#d0d0d0" opacity=".99" stroke-width=".449792"/></svg>