<?xml version="1.0" encoding="UTF-8" standalone="no"?><svg height="16" viewBox="0 0 4.2333333 4.2333333" width="16" xmlns="http://www.w3.org/2000/svg"><sodipodi:namedview/><metadata><rdf:RDF><cc:Work><dc:format>image/svg+xml</dc:format><dc:type/><dc:title/></cc:Work></rdf:RDF></metadata><path d="m .6346722 0c-.44027326 0-.45135307.37302189-.45135307.37302189v2.73244611s.005526.3315471.42133187.3122895h1.5947465l.3052155.8155758.7312059-.8155758h.023465l-.00638-.018978.00553-.00621h-.0076l-.0574589-.1713302c.071457-.055548.154001-.1241025.2393068-.2058349.067137.069963.2248675.1925089.3183282.2605287.014223.010336.03247.013569.049518.0088.016961-.00486.030901-.017302.037613-.033645l.0527954-.1290567c.0106006-.0259712.0009014-.0558147-.0229476-.0705671-.0608644-.0378082-.1755176-.1153941-.2691554-.2161871.2054726-.2404543.3227275-.4748753.3485218-.6970437h.045205c.031712 0 .057454-.025914.057454-.057627v-.1532115c0-.031713-.025652-.057454-.057454-.057454h-.4479026v-.078849c0-.031802-.025652-.057454-.057454-.057454h-.1433774c-.031712 0-.057627.025653-.057627.057454v.078849h-.4479024c-.031712 0-.057454.025653-.057454.057454v.065046l-.6687483-1.992441zm.6021494.9187521h.366293c.028886 0 .054406.018851.062976.046412h-.0001766l.4434165 1.4306651c.00618.020053.0026.04179-.00984.058662-.012367.016784-.031942.026743-.052969.026743h-.2413734c-.029151 0-.054845-.019015-.063148-.04693l-.1062804-.3542151h-.4475573l-.098.3528353c-.00795.028445-.034072.04831-.063665.04831h-.22705367c-.0209359 0-.0405126-.00996-.0529685-.026743-.0124559-.016872-.0161022-.038525-.0100071-.05849l.43737787-1.4306648c.00848-.027738.034001-.046585.062976-.0465845zm.1668419.2644969-.164944.6328606h.3457613l-.1763314-.6328606zm1.425489.9529141c.00311.0005209.00587.0019.00914.0019h.8576793c-.0242029.1548528-.106239.3198443-.2443103.4906888-.0879838-.140898-.1445215-.2777211-.1766765-.3687087-.0081266-.0229677-.0299691-.0383028-.0543487-.0383028h-.141134c-.018374 0-.035547.0088-.046412.023638-.010865.014841-.01402.033837-.00846.051416.033481.1052976.1105389.312026.2529389.5220922-.058338.056713-.114986.1054064-.1689135.1499333z" fill="#d0d0d0" stroke-width=".264581"/></svg>