<?xml version="1.0" encoding="UTF-8" standalone="no"?><svg height="16" viewBox="0 0 4.2333332 4.2333332" width="16" xmlns="http://www.w3.org/2000/svg"><sodipodi:namedview/><metadata><rdf:RDF><cc:Work><dc:format>image/svg+xml</dc:format><dc:type/><dc:title/></cc:Work></rdf:RDF></metadata><path d="m2.1381512 0c-.2150427 0-.3771409.092762-.3772679.2156566v.1561389c-.00327.0000749-.00668.00114-.0098.0026l-.2437142.1245175c-.010437.00536-.019117.0127-.026284.020918-.061747-.025149-.1378281-.040093-.2229656-.040093-.2149157 0-.37701391.092515-.37701391.215409v.1329792c-.0135791.0003257-.0271632.00287-.0397398.0097l-.46542293.2502723c-.016103.0086-.0269127.022039-.0348339.03698-.002263.00337-.003663.00659-.005406.010209-.001465.00423-.002524.00834-.003386.0127-.002524.00821-.006675.015941-.006675.024779v2.0286925c0 .03175.0173535.061134.0453978.076822l1.69254484.9433122c.00114.0006523.00252.0004885.00365.00114.011463.00573.023766.00897.036342.00946.0000765 0 .00239.00114.00365.00114.011186 0 .021504-.00474.03194-.00871.00378-.00146.00817-.0008123.011821-.00285l.0004884-.0003257c.0003256-.0000146.0004885-.0000146.0008124-.0003256.0003256-.000013.0003256-.0004885.0004884-.0004885l1.7077564-.9494205c.028169-.015566.045398-.045075.045398-.076825l.00176-2.017733c0-.031254-.016599-.060389-.044014-.076077-.0029-.00174-.00655-.0013-.00956-.00262-.00402-.00311-.00692-.00697-.01156-.00944l-.4656727-.250279c-.002-.00114-.00415-.0009784-.00617-.00199v-.142315c0-.1230196-.1620998-.2156583-.3770156-.2156583-.091299 0-.1719065.017308-.2357926.045946-.00439-.00348-.00804-.00772-.013205-.010469l-.2215742-.1133706c-.00252-.0000733-.00527-.00114-.00791-.00223v-.1824124c0-.1230195-.1620982-.2156566-.3770155-.2156566m-.3773948.5679022v.057901c0 .1228941.1622252.2154074.3772663.2154074.215168 0 .3771409-.092513.3770155-.2154074v-.03113l.1082761.05541c-.00466.014068-.00716.028637-.00716.043828v.410021c0 .1228941.1622252.2154074.3772663.2154074.2150444 0 .3771409-.092513.3770156-.2154074v-.068608l.2640862.1423203-1.5270487.846564-1.51409802-.8519192.28810546-.1551424v.08828c0 .1228941.16209986.2156565.37701556.2156565.2149174 0 .3770155-.092762.3770155-.2156565v-.410021c0-.019799-.00554-.038475-.013449-.056405l.1392077-.0709733m.3716066.3828497c-.2149174 0-.3772679.092762-.3772679.2156565v.410021c0 .1228942.1623505.2156582.3772679.2156582.2149157 0 .3767648-.092764.3767648-.2156582v-.410021c0-.1228941-.1618491-.2156565-.3767648-.2156565" fill="#d0d0d0" stroke-width=".264583"/></svg>