<?xml version="1.0" encoding="UTF-8" standalone="no"?>
<!-- Created with Inkscape (http://www.inkscape.org/) -->

<svg
   xmlns:dc="http://purl.org/dc/elements/1.1/"
   xmlns:cc="http://creativecommons.org/ns#"
   xmlns:rdf="http://www.w3.org/1999/02/22-rdf-syntax-ns#"
   xmlns:svg="http://www.w3.org/2000/svg"
   xmlns="http://www.w3.org/2000/svg"
   xmlns:xlink="http://www.w3.org/1999/xlink"
   xmlns:sodipodi="http://sodipodi.sourceforge.net/DTD/sodipodi-0.dtd"
   xmlns:inkscape="http://www.inkscape.org/namespaces/inkscape"
   width="16"
   height="16"
   viewBox="0 0 4.2333332 4.2333332"
   version="1.1"
   id="svg8"
   inkscape:version="0.92+devel (b8837397f6, 2017-07-27, custom)"
   sodipodi:docname="glyph-atom.svg">
  <defs
     id="defs2">
    <linearGradient
       xlink:href="#linearGradient4167"
       id="linearGradient4161"
       x1="-44"
       y1="-24"
       x2="-4"
       y2="-24"
       gradientUnits="userSpaceOnUse"
       gradientTransform="matrix(0,-0.10583333,-0.10583333,0,-0.4233333,-0.4233333)" />
    <linearGradient
       id="linearGradient4167">
      <stop
         style="stop-color:#009467;stop-opacity:1"
         offset="0"
         id="stop2" />
      <stop
         style="stop-color:#87d770;stop-opacity:1"
         offset="1"
         id="stop4" />
    </linearGradient>
  </defs>
  <sodipodi:namedview
     id="base"
     pagecolor="#002466"
     bordercolor="#ffffff"
     borderopacity="0.38039216"
     inkscape:pageopacity="1"
     inkscape:pageshadow="2"
     inkscape:zoom="56.751283"
     inkscape:cx="9.1177008"
     inkscape:cy="7.3605919"
     inkscape:document-units="px"
     inkscape:current-layer="svg8"
     inkscape:document-rotation="0"
     showgrid="false"
     inkscape:showpageshadow="false"
     borderlayer="true"
     inkscape:window-width="1920"
     inkscape:window-height="1051"
     inkscape:window-x="0"
     inkscape:window-y="0"
     inkscape:window-maximized="1"
     units="px" />
  <metadata
     id="metadata5">
    <rdf:RDF>
      <cc:Work
         rdf:about="">
        <dc:format>image/svg+xml</dc:format>
        <dc:type
           rdf:resource="http://purl.org/dc/dcmitype/StillImage" />
        <dc:title></dc:title>
      </cc:Work>
    </rdf:RDF>
  </metadata>
  <path
     inkscape:connector-curvature="0"
     style="fill:#d0d0d0;fill-opacity:1;stroke-width:0.26458332"
     d="M 2.1166666,0 C 0.94403335,0 0,0.9440333 0,2.1166666 c 0,1.1726333 0.94403335,2.1166666 2.1166666,2.1166666 1.1726333,0 2.1166666,-0.9440333 2.1166666,-2.1166666 C 4.2333332,0.9440333 3.2892999,0 2.1166666,0 Z m 0.6687172,0.49770846 c 0.058258,0.002034 0.1154432,0.0160278 0.1694426,0.045649 0.088378,0.0484788 0.1371866,0.13470941 0.1596422,0.21715461 0.022456,0.0824457 0.02369,0.16651824 0.018569,0.24397673 -0.00303,0.121106 -0.044924,0.2556576 -0.073993,0.3718221 C 2.9857768,1.3534059 2.9125094,1.3336849 2.8392417,1.3246759 2.8767627,1.216291 2.8934545,1.080849 2.9091765,0.98978865 2.9132765,0.92765775 2.9101148,0.86467167 2.8978355,0.81957252 2.8855455,0.77447372 2.8694855,0.75259812 2.8467705,0.74013872 2.7899821,0.70898723 2.7093317,0.71478023 2.5940248,0.77160224 2.4787176,0.82842425 2.3435221,0.93352114 2.2128438,1.0586486 2.0979484,1.1686644 1.9879801,1.2938195 1.889433,1.4148131 c 0.075663,-0.00135 0.1503689,-0.00347 0.229534,-0.00181 0.2295806,0.00482 0.6416662,0.055713 1.0125285,0.1663476 0.1854311,0.055317 0.3598689,0.1248265 0.4972378,0.2181863 0.1373687,0.093359 0.247099,0.2215822 0.250682,0.3853077 0.00408,0.186416 -0.1318172,0.3120291 -0.2452661,0.3886627 -0.1134494,0.076634 -0.3037355,0.1546709 -0.3037355,0.1546709 -0.020918,-0.094319 -0.041108,-0.1604311 -0.0612,-0.2227193 0,0 0.1530712,-0.0598 0.2390785,-0.1178975 C 3.5942937,2.3274645 3.6564986,2.2549513 3.6550337,2.1880072 3.6536062,2.1227773 3.6082297,2.0551876 3.5023549,1.983232 3.3964799,1.9112765 3.2394896,1.8458226 3.0672719,1.7944467 2.7228364,1.6916954 2.3146894,1.6415814 2.114319,1.6373836 1.9727509,1.6344136 1.8397073,1.638308 1.711474,1.6453836 1.666074,1.7089856 1.62743,1.7668868 1.5998013,1.812505 1.5538693,1.888348 1.5134293,1.9620374 1.4734285,2.0355915 c 0.058308,0.145824 0.1171288,0.2735786 0.1619633,0.3551329 0.2208107,0.4016559 0.4591681,0.7238471 0.6705488,0.9194254 0.1056901,0.09779 0.2045424,0.1632118 0.2844674,0.1936856 0.079925,0.030473 0.1338239,0.028556 0.1795008,0.00593 0.0032,-0.00162 0.00647,-0.00308 0.00981,-0.00438 C 2.9116045,3.4548263 2.9608881,3.366492 2.979327,3.2219424 2.997766,3.0773927 2.9672276,2.8856219 2.9133038,2.6989144 2.8225247,2.3832709 2.7139297,2.1566245 2.5451587,1.8769994 c 0.094559,0.00525 0.1817014,0.024996 0.2849957,0.055243 0,0 0.1815909,0.2985803 0.2987566,0.7042589 C 3.187493,2.8393408 3.22698,3.0536794 3.201898,3.2503114 3.1769955,3.4455306 3.069497,3.6310872 2.8632709,3.7122163 2.7537168,3.7639815 2.6279436,3.7583008 2.5104592,3.7135139 2.3907975,3.6678886 2.2731189,3.5856104 2.1535209,3.4749532 1.914325,3.2536391 1.6676606,2.9156865 1.4386126,2.4990469 1.4088413,2.4448925 1.3753948,2.375928 1.3406095,2.2991717 1.2455209,2.5035763 1.1748988,2.6931277 1.1386711,2.8528904 1.106829,2.9933152 1.0998257,3.1117058 1.1133968,3.1961596 c 0.013571,0.084455 0.042162,0.1301075 0.084593,0.1583528 0.1144026,0.076155 0.1908009,0.05853 0.2594507,0.02708 0.066571,-0.02335 0.1297534,-0.096901 0.1956235,-0.1686247 0.040891,0.076733 0.086239,0.1215881 0.1353846,0.1690116 0,0 -0.1194628,0.1495907 -0.237389,0.2036146 C 1.4331336,3.6396186 1.2502813,3.65905 1.0736804,3.541492 0.97060898,3.4728807 0.91191844,3.3581926 0.89159966,3.2317501 0.87128101,3.1053078 0.88367812,2.9620181 0.91971122,2.8031147 0.97230047,2.5711984 1.0779914,2.3044014 1.2263583,2.0193465 1.1908378,1.9243141 1.1583188,1.8251462 1.1280972,1.7224997 c -0.049665,0.011466 -0.101494,0.0223 -0.14519966,0.035848 -0.13753305,0.042636 -0.24364618,0.095604 -0.30999983,0.149584 -0.0663537,0.05398 -0.0916631,0.1018097 -0.0949084,0.1526788 -0.00826,0.1295185 0.0521814,0.1798913 0.13153074,0.2230863 0.0793492,0.043195 0.19428731,0.07811 0.19428731,0.07811 L 0.8495617,2.5609434 c 0,0 -0.12304407,-0.01229 -0.2473293,-0.07995 C 0.47794688,2.4133362 0.34013472,2.2655223 0.35412937,2.0461681 0.36201473,1.9226012 0.43196611,1.8146648 0.53130906,1.7338471 0.63065201,1.6530297 0.76072787,1.5922766 0.91635869,1.5440303 0.96453925,1.5290942 1.0160062,1.5157166 1.0690375,1.5032822 1.0292701,1.3273408 1.0055441,1.1544854 1.0169405,0.99933895 1.0291054,0.83369422 1.0853273,0.67423824 1.2253265,0.5892726 1.3056435,0.5405281 1.3969108,0.5330906 1.4742032,0.5474927 c 0.077293,0.0144008 0.1443667,0.0475692 0.2014224,0.0830446 0.1141119,0.0709533 0.2051766,0.17244041 0.2051766,0.17244041 -0.059073,0.0491221 -0.1136238,0.10007441 -0.1595301,0.15452542 0,0 -0.081082,-0.0846424 -0.1642816,-0.13637508 -0.0416,-0.025867 -0.086731,-0.0459173 -0.1240509,-0.0528706 -0.03732,-0.00695 -0.063037,-0.003843 -0.09104,0.0131531 -0.055776,0.0338509 -0.09172,0.10676554 -0.1010985,0.23443405 -0.00895,0.1218238 0.011292,0.2812389 0.04926,0.4474624 C 1.3858541,1.448381 1.4867683,1.436915 1.5930971,1.428747 1.7204412,1.2583487 1.8806475,1.065853 2.0575811,0.89643487 2.1981264,0.76185945 2.3452449,0.64410818 2.4947273,0.57044493 c 0.074741,-0.0368316 0.1538056,-0.0635296 0.2321131,-0.0709233 0.019576,-0.001847 0.039125,-0.002483 0.058544,-0.001809 z M 1.4246858,1.6706529 c -0.025864,0.00322 -0.049604,0.00717 -0.074534,0.01083 0.00781,0.025734 0.013878,0.051361 0.02218,0.076855 0.012352,-0.020949 0.022563,-0.04107 0.035333,-0.062155 0.00447,-0.00739 0.012177,-0.017761 0.017022,-0.025533 z m 0.7592675,0.3159318 c 0.1093346,0 0.1980698,0.089251 0.1980698,0.1985856 0,0.1093345 -0.088735,0.1980697 -0.1980698,0.1980697 -0.1093345,0 -0.1980698,-0.088735 -0.1980698,-0.1980697 0,-0.1093346 0.088735,-0.1985856 0.1980698,-0.1985856 z"
     id="rect10"
     inkscape:label="#"
     sodipodi:nodetypes="ssssscccccccccscccsccsccccssccccsccccscccccccsccccscccccscccccccccccccccsccccccccccsscccccccccsssss" />
</svg>
