<?xml version="1.0" encoding="UTF-8" standalone="no"?><svg height="22" viewBox="0 0 22 22" width="22" xmlns="http://www.w3.org/2000/svg"><sodipodi:namedview/><metadata><rdf:RDF><cc:Work><dc:format>image/svg+xml</dc:format><dc:type/><dc:title/></cc:Work></rdf:RDF></metadata><g transform="matrix(1.2595327 0 0 1.2596735 -3.646442 -2.296868)"><path d="m8.4126531 2.4366643a8.7333412 8.7333412 0 0 0 -5.5175781 8.1191407 8.7333412 8.7333412 0 0 0 8.732422 8.732422 8.7333412 8.7333412 0 0 0 8.351562-6.179688 8.2821493 8.4018812 0 0 1 -3.949218 1.025391 8.2821493 8.4018812 0 0 1 -8.2812504-8.4023438 8.2821493 8.4018812 0 0 1  .6640625-3.2949219z" fill="#fff" stroke-width=".517"/><path d="m11.627496 1.8233833a8.7333412 8.7333412 0 0 0 -3.214844.6171875 8.2821493 8.4018812 0 0 0 -.664062 3.2929687 8.2821493 8.4018812 0 0 0 8.28125 8.4003905 8.2821493 8.4018812 0 0 0 3.949219-1.025391 8.7333412 8.7333412 0 0 0  .382812-2.552734 8.7333412 8.7333412 0 0 0 -8.734375-8.7324217z" fill="#d0d0d0" opacity=".6" stroke-width=".517"/></g></svg>