<?xml version="1.0" encoding="UTF-8" standalone="no"?><svg height="16" viewBox="0 0 4.2333332 4.2333332" width="16" xmlns="http://www.w3.org/2000/svg"><sodipodi:namedview/><metadata><rdf:RDF><cc:Work><dc:format>image/svg+xml</dc:format><dc:type/><dc:title/></cc:Work></rdf:RDF></metadata><path d="m2.1246937.1828222-2.1246937 3.8675059.00035551.0001829s.9219844-.3648767 1.6026169-.3788491c.6146972-.012602.94437.1658944 1.3928587.2489987.5921401.1098619.49573.08793.7560927.099528.2794493.012419.4814094.026577.4814094.026577zm.010167.7029398 1.461886 2.7058094s.00844.020952-.029608.010167c-.035775-.010178-.066388-.040112-.1034531-.036922-.031216.00266-.049887.047745-.0808.042808-.044204-.00706-.066921-.091187-.111657-.089896-.03942.00114-.029606.076626-.088469.081335-.05218.00441-.043758-.1388225-.096318-.1432277-.035622-.00296-.043551.1475843-.087756.1475085-.046787 0 .00198-.2165336-.06546-.2201034-.052787-.00281-.023773.1900883-.071168.1903163-.065395.0003013-.00995-.3158261-.09061-.314459-.057344.0009133.00439.2925395-.070276.2916281-.068737-.000831-.00256-.4512047-.07973-.4457361-.063648.00448.00778.4028628-.06225.4045337-.08484.00197-.0003196-.554926-.084545-.5556096-.07451-.0006849-.00778.4926464-.075984.4926464-.083092 0 .0003288-.6365126-.078659-.64069-.085979-.00456.020952.6394115-.072773.638728-.09046-.0006849.025799-.8080982-.079016-.8158453-.085827-.0063.023537.755783-.064568.7591249-.092511.00349.027935-.8876771-.081513-.887905-.08013-.0002283.00561.8537872-.077411.8657877-.076712-.016937.015424-.9428946-.0742-.9431984-.092511-.0003014.015512.9205596-.080265.9226863-.080282.00106.034076-.9240398-.071346-.920546-.096916.00289.00387.9168924-.075806.9153735-.085979-.0009872.022006-.8454198-.074378-.8401031-.073446.037977-.00282.6531355-.073308.8484862-.077244-.076712.00546-.6048006-.080443-.697767-.070484.101473-.01525.7106495-.072595.7129281-.070408.00342-.00352-.4779224-.079016-.4824795-.045192-.00273-.06913.5450997-.1244993.5472264-.064332.00646-.057339-.3081335-.101847-.3071461-.051572.00661-.037918.3443024-.1055925.3451379-.038888.00927-.048332-.1331922-.083119-.1298503-.031216.00296-.037076.1497939-.088648.1762255-.047167.00638-.0242-.044904.012485-.1250345l-.0003555-.0001827z" fill="#d0d0d0" stroke-width=".264583"/></svg>