<?xml version="1.0" encoding="UTF-8" standalone="no"?><svg height="22" viewBox="0 0 22 22" width="22" xmlns="http://www.w3.org/2000/svg"><sodipodi:namedview/><metadata><rdf:RDF><cc:Work><dc:format>image/svg+xml</dc:format><dc:type/><dc:title/></cc:Work></rdf:RDF></metadata><path d="m2.8347334 3.0116529c-1.36723.0349-3.48931003 10.6607601-2.63999003 13.3333701.41313 1.30001 1.75988003 2.64786 3.12395003 2.64331 1.88766-.006 3.34588-4.57434 3.99047-4.62168 2.6063998-.17432 5.0119196-.16038 7.3799796 0 .61576.0762 2.10288 4.61538 3.99054 4.62168 1.36406.005 2.71082-1.3433 3.12394-2.64331.85601-2.69365-1.28051-13.4524001-2.67217-13.3322401-5.22991.45157-11.7094796.44738-16.2645396 0-.0107-.001-.0214-.001-.0322-.001zm2.18416 1.87141a2.7403415 2.7403415 0 0 1 2.74032 2.74032 2.7403415 2.7403415 0 0 1 -2.74032 2.7403901 2.7403415 2.7403415 0 0 1 -2.74039-2.7403901 2.7403415 2.7403415 0 0 1 2.74039-2.74032zm12.0515696 0a2.7403415 2.7403415 0 0 1 2.74032 2.74032 2.7403415 2.7403415 0 0 1 -2.74032 2.7403901 2.7403415 2.7403415 0 0 1 -2.74032-2.7403901 2.7403415 2.7403415 0 0 1 2.74032-2.74032zm-3.56537 4.2431a.58932076.58932076 0 0 1  .58934.58934.58932076.58932076 0 0 1 -.58934.5892701.58932076.58932076 0 0 1 -.58934-.5892701.58932076.58932076 0 0 1  .58934-.58934zm-5.2544196.20074a1.3784343 1.3784343 0 0 1 1.37842 1.3784201 1.3784343 1.3784343 0 0 1 -1.37842 1.37842 1.3784343 1.3784343 0 0 1 -1.37842-1.37842 1.3784343 1.3784343 0 0 1 1.37842-1.3784201zm4.0462696 1.0073401a.58932076.58932076 0 0 1  .58934.58934.58932076.58932076 0 0 1 -.58934.58934.58932076.58932076 0 0 1 -.58927-.58934.58932076.58932076 0 0 1  .58927-.58934zm2.41622 0a .58932076.58932076 0 0 1  .58934.58934.58932076.58932076 0 0 1 -.58934.58934.58932076.58932076 0 0 1 -.58927-.58934.58932076.58932076 0 0 1  .58927-.58934zm-1.20807 1.20814a.58932076.58932076 0 0 1  .58934.58934.58932076.58932076 0 0 1 -.58934.58927.58932076.58932076 0 0 1 -.58934-.58927.58932076.58932076 0 0 1  .58934-.58934z" fill="#fff" fill-rule="evenodd" shape-rendering="crispEdges"/></svg>