<?xml version="1.0" encoding="UTF-8" standalone="no"?>
<!-- Created with Inkscape (http://www.inkscape.org/) -->

<svg
   xmlns:dc="http://purl.org/dc/elements/1.1/"
   xmlns:cc="http://creativecommons.org/ns#"
   xmlns:rdf="http://www.w3.org/1999/02/22-rdf-syntax-ns#"
   xmlns:svg="http://www.w3.org/2000/svg"
   xmlns="http://www.w3.org/2000/svg"
   xmlns:sodipodi="http://sodipodi.sourceforge.net/DTD/sodipodi-0.dtd"
   xmlns:inkscape="http://www.inkscape.org/namespaces/inkscape"
   width="16"
   height="16"
   viewBox="0 0 4.2333332 4.2333335"
   version="1.1"
   id="default"
   inkscape:version="0.92+devel (039bd1db37, 2017-09-02, custom)"
   sodipodi:docname="glyph-im-identi.ca.svg">
  <defs
     id="defs" />
  <sodipodi:namedview
     id="base"
     pagecolor="#002466"
     bordercolor="#ffffff"
     borderopacity="0.4"
     inkscape:pageopacity="0"
     inkscape:pageshadow="2"
     inkscape:zoom="36.371805"
     inkscape:cx="10.363395"
     inkscape:cy="5.0436478"
     inkscape:document-units="px"
     inkscape:document-rotation="0"
     showgrid="false"
     units="px"
     inkscape:pagecheckerboard="false"
     borderlayer="true"
     inkscape:showpageshadow="false"
     inkscape:window-width="1920"
     inkscape:window-height="1025"
     inkscape:window-x="0"
     inkscape:window-y="26"
     inkscape:window-maximized="1"
     inkscape:current-layer="default"
     inkscape:snap-global="false" />
  <metadata
     id="meta-min">
    <rdf:RDF>
      <cc:Work
         rdf:about="">
        <dc:format>image/svg+xml</dc:format>
        <dc:type
           rdf:resource="http://purl.org/dc/dcmitype/StillImage" />
        <dc:title></dc:title>
      </cc:Work>
    </rdf:RDF>
  </metadata>
  <path
     style="fill:#d0d0d0;stroke-width:0.45772913;stroke-linecap:square"
     d="M 1.9780595,5.3373043e-8 C 1.0921113,-1.2651663e-4 0.37377875,0.71792272 0.37355594,1.6038709 c 3.4014e-4,0.3154132 0.0936482,0.6237286 0.26826084,0.8863996 l -0.001898,-0.0019 L 0.3754538,3.5474963 1.1884614,3.0059131 1.1694806,2.9881969 C 1.4147391,3.1319319 1.693786,3.2079164 1.9780592,3.2083731 2.1229239,3.2075633 2.2031091,3.2181269 2.3424891,3.1786356 2.2677675,3.0608664 2.1661175,2.762535 2.1621725,2.53013 2.1532588,2.0050248 2.6163968,1.5001229 3.1415777,1.5001096 c 0.1536275,1.211e-4 0.3049384,0.03746 0.4409854,0.1088228 2.6e-6,-0.00169 2.6e-6,-0.00337 0,-0.00506 C 3.5823402,0.71792268 2.8640076,-1.2657663e-4 1.9780595,5.3373043e-8 Z M 3.2067449,1.8537837 c -0.6464787,0 -0.7503699,0.6697745 -0.5820756,1.05343 L 3.2067449,4.2333333 3.7881874,2.9072137 c 0.1682943,-0.3836555 0.065036,-1.05343 -0.5814425,-1.05343 z m -0.00191,0.2271359 C 3.4473703,2.0808101 3.6439143,2.2774703 3.6439211,2.520007 3.6439143,2.7625441 3.4473706,2.9592044 3.2048337,2.9590942 2.9623793,2.9590874 2.7657532,2.7624615 2.7657464,2.520007 2.7657532,2.2775523 2.962379,2.0809261 3.2048337,2.0809196 Z"
     id="path1379"
     inkscape:connector-curvature="0"
     inkscape:label="#im-identi.ca" />
</svg>
