<?xml version="1.0" encoding="UTF-8" standalone="no"?><svg height="16" viewBox="0 0 4.2333332 4.2333332" width="16" xmlns="http://www.w3.org/2000/svg"><sodipodi:namedview/><metadata><rdf:RDF><cc:Work><dc:format>image/svg+xml</dc:format><dc:type/><dc:title/></cc:Work></rdf:RDF></metadata><path d="m2.1075163.00003471c-.4190659-.001914-.7783715.0758637-1.1051191.23946268-.1087756.0544602-.125708.0735626-.1186665.13235877.014381.11999841.076341.13164778.2598491.0492923.3411533-.1530988.5071448-.18574769.9374647-.18621502.4938704-.0004051.6757463.0418981 1.0807772.25163372.0695889.0359854.2898978.20604764.3721257.11471085.0814381-.0814334.0384095-.1488338-.1713056-.26806436-.4135851-.23513814-.7749504-.33090427-1.2551255-.33317894zm-.012779.48501088c-.5529253-.00042064-1.1055071.21803563-1.5107148.65570801-.1567536.1693147-.3395684.4468247-.3395684.5154382 0 .080003.032988.1241433.092803.1241433.046886 0 .094594-.050583.2081225-.2212064.2539075-.3815957.5830704-.63474853 1.0071433-.77467861.328885-.10734396.7140161-.0949168 1.0841241 0 .4778756.15707608.8878396.50700381 1.1124216.94963561.048869.096313.078102.1256647.125969.1256647.082438 0 .1308403-.061348.1083212-.1375314-.0363113-.1228791-.2300238-.4206154-.3766902-.5790313-.4057716-.4382892-.9590066-.65772383-1.5119313-.65814211zm.026167.48166398c-.1178512-.00205-.2374267.0091-.3569121.034079-.5677855.1186853-1.0423562.5785182-1.194271 1.1571496-.080619.3070623-.043559.80862.089456 1.2097889.039753.119888.058944.1448915.115928.1515278.1310127.015227.1438152-.047128.065419-.3182692-.2243268-.77584457-.031199-1.43591147.5251749-1.79581847.5500754-.3558332 1.306601-.2505252 1.7370938.2415926.2697651.3083847.4177324.8300122.300013 1.0576523-.0777646.150385-.2671071.2407671-.4226351.2017329-.1136561-.028525-.2483845-.1682022-.2656302-.2753669-.060862-.3781715-.146766-.5261674-.3642145-.6274107-.1854901-.086367-.3401022-.083982-.5221323.00821-.1696108.085911-.2995606.2593065-.3258763.434806-.00949.063242-.00532.2001003.00943.3039686.091762.6470004.5546657 1.1588327 1.1903154 1.3162843.079941.019793.2106397.033778.2905806.031036l.1454424-.00487c.082155-.041703.086651-.1376836 0-.1849979l-.2056854-.0313342c-.258885-.0394498-.3660915-.073562-.54404-.1737397-.3869735-.2178489-.6642277-.6900988-.6642277-1.1312865 0-.1944262.073614-.307996.245244-.379124.1240132-.051397.1257948-.051397.2498081 0 .1569467.065044.2324955.1738999.2519378.362389.035703.3459234.275754.5735543.6048946.5735543.2641505 0 .4864932-.1714155.5653389-.4357187.0771694-.2586636-.0264272-.6931171-.2440268-1.023574-.2883816-.4379466-.7657377-.69338973-1.2764251-.70226103zm-.017039.50113743c-.1644741.00208-.3336144.03243-.4722315.086413-.213733.1046768-.4173954.3137248-.5227406.5361289-.080161.1692257-.084942.1955804-.084892.482881.0000592.3534651.042834.5412359.1950389.858658.1311514.2735118.3128557.5120597.5148296.6754857.1750666.1416547.1936641.1485292.2665431.095237.07461-.054552.032996-.1482334-.1177536-.2638045-.1634515-.1253086-.339991-.3519744-.4591483-.58968-.195724-.3904367-.2450332-.8729835-.1174494-1.1492387.092596-.2004954.2337891-.3500523.4138112-.4384572.2162894-.106216.5322217-.106216.7485111 0 .2581558.1267738.4232202.3576114.481664.6742687.034884.1890172.087691.2518453.1682628.1999074.0373343-.024066.0454639-.064169.0419894-.2081228-.0084405-.3499365-.2536181-.7012813-.6118924-.8772186-.1202681-.05852-.2800681-.0845384-.4445423-.0824579zm-.00121.9563296c-.019077-.0003894-.040715.00597-.06481.018865-.050592.027084-.054648.046176-.042294.1923005.039078.462342.3870067.8602592.8385759.9587637.200287.043677.2540187.042648.302143-.00548.0961157-.096119.0318325-.1726257-.1676565-.1999088-.4077418-.055757-.7106893-.366805-.7591642-.7792389-.0144586-.1230129-.0495675-.1841442-.1067998-.1853015z" fill="#d0d0d0"/></svg>