<?xml version="1.0" encoding="UTF-8" standalone="no"?><svg height="16" viewBox="0 0 4.2333333 4.2333333" width="16" xmlns="http://www.w3.org/2000/svg"><sodipodi:namedview/><metadata><rdf:RDF><cc:Work><dc:format>image/svg+xml</dc:format><dc:type/><dc:title/></cc:Work></rdf:RDF></metadata><path d="m2.3867328.21166676c-.1837563.31296758-.1766446.68149645.1518908.82600914-.0670325-.0545538-.2140166-.63488566-.1515613-.82007845zm-.1916753-.19621336c-.4644654.28065391-.6428312.76188277-.7078014 1.2852724-.0032248.2412594.0348387.4419812.0875737.6531967.775338-.263748 1.6818172.3957134 1.3898458 1.4243599-.1026278.361569-.4311469.5344685-.7433461.599623-.439991.0698795-.8111501-.1471282-.9004633-.4517773-.0166476-.0958973.0084723-.2207297.0654226-.2616906-.1094867-.1159709-.2057824.2163922-.3343253.1962679.0570201-.1468865-.2559036-.2660108-.1993589-.5810769.0013-.00698-.014105.060021-.012878.052544-.137912.6961936.5964607 1.471254 1.5078125 1.2682728.5871923-.1307825.9461412-.5253272 1.0519138-.9720676.1199698-.5067029-.038508-.9355263-.3168107-1.2899086-.2335546-.2974022-.6060885-.4843798-.8705852-.7294372-.3334358-.30892997-.2192843-.88953979-.0169995-1.1935785zm-1.2708486 1.6860508c.019867.1189925.058947.2413774.010818.3482341-.047134.1046492-.1148838.1989139-.137027.2874477-.026686.106698.067236.1751274.1416632.2498426.00508.010666-.00628.02094-.00103.030908-.00271-.2323838.159031-.3158506.1813281-.5022599.021197-.1772096-.087719-.282811-.1957523-.4141725zm1.0050367.4929883c-.029487.0006773-.058811.00322-.088089.00721-.4395195.056322-.7603319.4390795-.7727089.8860395.000776.0009968.00126.00213.00206.00412.025131.039077.053233.079231.077786.1256939.04877-.069427.1083368-.1250493.1967824-.1040574.1791766.042527.2312187.1468668.1133306.2158436-.074678.079969-.045182.199786.00721.2632359.1612017.1952299.3216088.3110289.6825632.2472699.2672776-.0640947.5277769-.2218691.6145611-.5589259.0570299-.2215213.0372448-.4323621-.0401809-.6119855-.1551966-.2908724-.4559757-.4812781-.7933145-.4734129z" fill="#f2f2f2"/></svg>