<?xml version="1.0" encoding="UTF-8" standalone="no"?>
<!-- Created with Inkscape (http://www.inkscape.org/) -->

<svg
   xmlns:dc="http://purl.org/dc/elements/1.1/"
   xmlns:cc="http://creativecommons.org/ns#"
   xmlns:rdf="http://www.w3.org/1999/02/22-rdf-syntax-ns#"
   xmlns:svg="http://www.w3.org/2000/svg"
   xmlns="http://www.w3.org/2000/svg"
   xmlns:sodipodi="http://sodipodi.sourceforge.net/DTD/sodipodi-0.dtd"
   xmlns:inkscape="http://www.inkscape.org/namespaces/inkscape"
   width="16"
   height="16"
   viewBox="0 0 4.2333332 4.2333332"
   version="1.1"
   id="svg8"
   inkscape:version="0.92+devel (d0390b9f4f, 2017-07-31, custom)"
   sodipodi:docname="glyph-automated-tasks.svg">
  <defs
     id="defs2" />
  <sodipodi:namedview
     id="base"
     pagecolor="#002466"
     bordercolor="#ffffff"
     borderopacity="0.38039216"
     inkscape:pageopacity="1"
     inkscape:pageshadow="2"
     inkscape:zoom="36.415999"
     inkscape:cx="10.094581"
     inkscape:cy="7.9162778"
     inkscape:document-units="px"
     inkscape:current-layer="svg8"
     inkscape:document-rotation="0"
     showgrid="false"
     inkscape:showpageshadow="false"
     borderlayer="true"
     inkscape:window-width="1920"
     inkscape:window-height="1051"
     inkscape:window-x="0"
     inkscape:window-y="0"
     inkscape:window-maximized="1"
     units="px" />
  <metadata
     id="metadata5">
    <rdf:RDF>
      <cc:Work
         rdf:about="">
        <dc:format>image/svg+xml</dc:format>
        <dc:type
           rdf:resource="http://purl.org/dc/dcmitype/StillImage" />
        <dc:title></dc:title>
      </cc:Work>
    </rdf:RDF>
  </metadata>
  <path
     inkscape:connector-curvature="0"
     style="fill:#d0d0d0;fill-opacity:1;stroke:none;stroke-width:0.26458332"
     d="M 2.1166665,-6.5e-8 A 0.35277779,0.35277779 0 0 0 1.7638887,0.35277772 0.35277779,0.35277779 0 0 0 2.1166665,0.7055555 0.35277779,0.35277779 0 0 0 2.4694442,0.35277772 0.35277779,0.35277779 0 0 0 2.1166665,-6.5e-8 Z M 0.70555543,1.0583332 c -0.19544468,0 -0.35277775,0.1573331 -0.35277775,0.3527778 v 1.7638889 c 0,0.1954446 0.15733307,0.3527779 0.35277775,0.3527779 H 1.7638887 V 3.8805556 H 1.0583331 V 4.2333333 H 3.1749999 V 3.8805556 H 2.4694442 V 3.5277778 h 1.0583334 c 0.1954446,0 0.3527779,-0.1573333 0.3527779,-0.3527779 V 1.411111 c 0,-0.1954447 -0.1573333,-0.3527778 -0.3527779,-0.3527778 z M 1.0583331,1.411111 h 2.1166668 c 0.1954389,0 0.3527777,0.1573389 0.3527777,0.3527778 0,0.1954389 -0.1573388,0.3527777 -0.3527777,0.3527777 H 1.0583331 c -0.19543888,0 -0.35277767,-0.1573388 -0.35277767,-0.3527777 0,-0.1954389 0.15733879,-0.3527778 0.35277767,-0.3527778 z"
     class="ColorScheme-Text"
     id="path4"
     inkscape:label="!" />
</svg>
