<?xml version="1.0" encoding="UTF-8" standalone="no"?><svg height="22" viewBox="0 0 22 22" width="22" xmlns="http://www.w3.org/2000/svg"><sodipodi:namedview/><metadata><rdf:RDF><cc:Work><dc:format>image/svg+xml</dc:format><dc:type/><dc:title/></cc:Work></rdf:RDF></metadata><path d="m11 0c-6.0751322 0-11 4.9248678-11 11 0 6.075132 4.9248678 11 11 11 6.075132 0 11-4.924868 11-11 0-6.0751322-4.924868-11-11-11zm-.0332 3.4230469c.383093-.0001693.69298.087617.689453.1953125-.00023.00391-.000881.00782-.002.011719l.5625 1.65625h-.0078c.0087.014873.01328.029885.01367.044922-.0019.1760059-.563702.3184107-1.255859.3183594-.692125.000051-1.253881-.1423538-1.2558265-.3183598-.0002558-.015025.00366-.030037.011719-.044922h-.011719l.5664065-1.6777342h.0039c.01519-.1034441.31728-.1852059.685547-.1855469zm-1.9589875 4.2792969h.013672c.2004316.2856041 1.0091396.489405 1.9453126.4902343.937637-.0002576 1.748471-.2041847 1.949219-.4902343h.06055l.679688 2.3769532c.03653.05527.0555.111534.05664.167969-.0011.0065-.0024.01303-.0039.01953l.002.0039h-.002c-.04083.46395-1.256115.833555-2.742187.833985-1.5156515-.00028-2.7439171-.384059-2.7441408-.857422.0005346-.0046.00119-.0091.00195-.01367h-.00195l.00391-.01367c.00384-.03599.014925-.07187.033203-.107422zm-2.2636719 4.0917972h1.0078125c-.1250918.15184-.189795.311617-.1914062.472656-.0003611.79397 1.5003921 1.437649 3.3515621 1.4375 1.85117.00015 3.351924-.64353 3.351563-1.4375-.000984-.160991-.06503-.320767-.189453-.472656h1.18164c.235749 0 .389612.209413.425782.320312l1.474609 4.525391c.05795.177711-.248545.335937-.558594.335937h-11.1953122c-.3100481 0-.6165448-.158226-.5585938-.335937l1.4746094-4.525391c.036163-.110899.190034-.320312.4257812-.320312z" fill="#fff" stroke-width="1.226107"/></svg>