<?xml version="1.0" encoding="UTF-8" standalone="no"?><svg height="16" viewBox="0 0 4.2333332 4.2333332" width="16" xmlns="http://www.w3.org/2000/svg"><sodipodi:namedview/><metadata><rdf:RDF><cc:Work><dc:format>image/svg+xml</dc:format><dc:type/><dc:title/></cc:Work></rdf:RDF></metadata><path d="m2.9308716.39650191c.249806 0 .475546.1054655.633965.2742618.19784-.038944.383685-.1112229.551521-.2107645-.06486.202819-.202565.373044-.381868.480531.175681-.021008.343038-.067704.498811-.1367764-.116432.174162-.263683.32712299-.433398.44956689.0016.037259.0026.074721.0026.1123738 0 1.1477122-.873604 2.4711368-2.471113 2.4711368-.490472 0-.947001-.1437719-1.331357-.3902233.06795.00807.137095.012144.207201.012144.40692 0 .7814-.1388296 1.078644-.3717925-.380058-.00699-.700782-.2581196-.811311-.6031521.05304.01016.107444.01561.163412.01561.07921 0 .155933-.010636.228802-.030472-.397305-.079803-.696677-.4308309-.696677-.8516349 0-.00365-.000009-.0073.000075-.010901.117087.065053.250999.1041241.393369.108638-.233048-.1557497-.386365-.421595-.386365-.72292109 0-.1591707.04285-.3083692.117608-.4366419.428358.52547069 1.068321.87123339 1.790136.90746549-.01482-.063574-.02249-.1298655-.02249-.1979375 0-.47963929.388845-.86849209.868492-.86849209z" fill="#d0d0d0" stroke-width=".01384"/></svg>