<?xml version="1.0" encoding="UTF-8" standalone="no"?>
<!-- Created with Inkscape (http://www.inkscape.org/) -->

<svg
     xmlns:dc="http://purl.org/dc/elements/1.1/"
     xmlns:cc="http://creativecommons.org/ns#"
     xmlns:rdf="http://www.w3.org/1999/02/22-rdf-syntax-ns#"
     xmlns:svg="http://www.w3.org/2000/svg"
     xmlns="http://www.w3.org/2000/svg"
     xmlns:sodipodi="http://sodipodi.sourceforge.net/DTD/sodipodi-0.dtd"
     xmlns:inkscape="http://www.inkscape.org/namespaces/inkscape"
     width="16"
     height="16"
     viewBox="0 0 4.2333333 4.2333333"
     version="1.1"
     id="svg8"
     inkscape:version="0.92+devel (fa9b7f7a5b, 2017-07-19, custom)"
     sodipodi:docname="glyph-qt-logo.svg">
    <defs
         id="defs2" />
    <sodipodi:namedview
         id="base"
         pagecolor="#002466"
         bordercolor="#ffffff"
         borderopacity="0.38039216"
         inkscape:pageopacity="1"
         inkscape:pageshadow="2"
         inkscape:zoom="37.918601"
         inkscape:cx="8"
         inkscape:cy="8"
         inkscape:document-units="px"
         inkscape:current-layer="svg8"
         inkscape:document-rotation="0"
         showgrid="false"
         inkscape:showpageshadow="false"
         borderlayer="true"
         inkscape:window-width="1920"
         inkscape:window-height="1051"
         inkscape:window-x="0"
         inkscape:window-y="0"
         inkscape:window-maximized="1"
         units="px" />
    <metadata
         id="metadata5">
        <rdf:RDF>
            <cc:Work
                 rdf:about="">
                <dc:format>image/svg+xml</dc:format>
                <dc:type
                     rdf:resource="http://purl.org/dc/dcmitype/StillImage" />
                <dc:title></dc:title>
            </cc:Work>
        </rdf:RDF>
    </metadata>
    <path
         style="stroke-width:1.33333397;fill:#d0d0d0"
         d="M 2.1992188 2.1289062 C 1.4664048 2.8606812 0.73004334 3.589673 0 4.3242188 L 0 13.871094 L 13.769531 13.871094 C 14.514813 13.132046 15.258874 12.390034 16 11.646484 L 16 2.1289062 L 2.1992188 2.1289062 z M 6.0253906 4.171875 C 6.6120576 4.1791317 7.2286102 4.2807277 7.7148438 4.6308594 C 8.0680895 4.8791706 8.298098 5.2636194 8.4511719 5.6601562 C 8.6987914 6.3112385 8.7709857 7.0131298 8.7792969 7.7050781 C 8.7803374 8.4018745 8.7482276 9.1154009 8.5175781 9.7792969 C 8.3631194 10.230899 8.0695196 10.631714 7.6816406 10.910156 C 7.960775 11.36245 8.2462563 11.811378 8.5253906 12.263672 C 8.1745681 12.425404 7.823825 12.587008 7.4726562 12.748047 C 7.173782 12.254887 6.8760853 11.761999 6.5761719 11.269531 C 6.1706308 11.336025 5.7552753 11.330178 5.3476562 11.285156 C 4.8593445 11.226628 4.3631247 11.078658 3.9863281 10.75 C 3.6968041 10.499264 3.514954 10.147726 3.390625 9.7910156 C 3.1869886 9.1877255 3.1323975 8.5451829 3.1230469 7.9121094 C 3.1181984 7.2277802 3.1607806 6.5335765 3.3671875 5.8769531 C 3.5268412 5.3831004 3.7918746 4.8891333 4.2382812 4.5996094 C 4.762264 4.2529435 5.4092868 4.1663338 6.0253906 4.171875 z M 10.185547 4.578125 C 10.552645 4.5777788 10.92001 4.5777788 11.287109 4.578125 C 11.288148 5.0636662 11.288025 5.5496152 11.289062 6.0351562 C 11.758327 6.0358487 12.226049 6.0348101 12.695312 6.0351562 C 12.687339 6.3503084 12.678917 6.6653174 12.669922 6.9804688 C 12.201004 6.9815076 11.73259 6.9794298 11.263672 6.9804688 C 11.26471 7.7763128 11.261469 8.5732961 11.265625 9.3691406 C 11.27462 9.5869775 11.269306 9.816366 11.365234 10.017578 C 11.43519 10.172728 11.623923 10.2116 11.777344 10.216797 C 12.066523 10.215758 12.355354 10.198575 12.644531 10.193359 C 12.662182 10.482883 12.67868 10.772976 12.695312 11.0625 C 12.120075 11.159124 11.516741 11.274525 10.945312 11.09375 C 10.704622 11.022408 10.480475 10.862921 10.382812 10.625 C 10.207923 10.220151 10.193166 9.7705696 10.185547 9.3359375 C 10.184854 8.5508291 10.185893 7.7655771 10.185547 6.9804688 C 9.9296161 6.979776 9.6738994 6.9815076 9.4179688 6.9804688 C 9.417276 6.6656643 9.417276 6.350308 9.4179688 6.0351562 C 9.6738994 6.0341174 9.9296161 6.0361952 10.185547 6.0351562 C 10.186586 5.5496152 10.184508 5.0636662 10.185547 4.578125 z M 6.0996094 5.1503906 C 5.919393 5.1362349 5.7367756 5.1447643 5.5585938 5.1679688 C 5.2815374 5.2071029 5.0041679 5.3110745 4.8046875 5.5136719 C 4.5754232 5.7502087 4.4623416 6.0729526 4.3847656 6.3867188 C 4.1963675 7.2185801 4.2293519 8.0832116 4.3671875 8.9199219 C 4.4129016 9.1838179 4.4792151 9.4480679 4.5976562 9.6894531 C 4.6953189 9.8910116 4.8615341 10.055222 5.0585938 10.160156 C 5.3962558 10.337125 5.7900367 10.365254 6.1640625 10.337891 C 6.5186944 10.310185 6.8892542 10.190081 7.1289062 9.9140625 C 7.3650965 9.6390841 7.4467638 9.2725727 7.5039062 8.9238281 C 7.5852908 8.3378539 7.5902622 7.7417809 7.5507812 7.1523438 C 7.5144186 6.7094001 7.4419566 6.2617024 7.2539062 5.8554688 C 7.1313088 5.5874163 6.9001979 5.375631 6.6269531 5.2675781 C 6.4582951 5.2002194 6.2798258 5.1645464 6.0996094 5.1503906 z "
         transform="scale(0.26458333)"
         id="path6" />
</svg>
