<?xml version="1.0" encoding="UTF-8" standalone="no"?>
<!-- Created with Inkscape (http://www.inkscape.org/) -->

<svg
     xmlns:dc="http://purl.org/dc/elements/1.1/"
     xmlns:cc="http://creativecommons.org/ns#"
     xmlns:rdf="http://www.w3.org/1999/02/22-rdf-syntax-ns#"
     xmlns:svg="http://www.w3.org/2000/svg"
     xmlns="http://www.w3.org/2000/svg"
     xmlns:sodipodi="http://sodipodi.sourceforge.net/DTD/sodipodi-0.dtd"
     xmlns:inkscape="http://www.inkscape.org/namespaces/inkscape"
     width="16"
     height="16"
     viewBox="0 0 4.2333333 4.2333333"
     version="1.1"
     id="svg8"
     inkscape:version="0.92+devel (fa9b7f7a5b, 2017-07-19, custom)"
     sodipodi:docname="glyph-photoshop.svg">
    <defs
         id="defs2" />
    <sodipodi:namedview
         id="base"
         pagecolor="#002466"
         bordercolor="#ffffff"
         borderopacity="0.38039216"
         inkscape:pageopacity="1"
         inkscape:pageshadow="2"
         inkscape:zoom="10.137867"
         inkscape:cx="-6.683419"
         inkscape:cy="6.0133616"
         inkscape:document-units="px"
         inkscape:current-layer="svg8"
         inkscape:document-rotation="0"
         showgrid="false"
         inkscape:showpageshadow="false"
         borderlayer="true"
         inkscape:window-width="1920"
         inkscape:window-height="1051"
         inkscape:window-x="0"
         inkscape:window-y="0"
         inkscape:window-maximized="1"
         units="px" />
    <metadata
         id="metadata5">
        <rdf:RDF>
            <cc:Work
                 rdf:about="">
                <dc:format>image/svg+xml</dc:format>
                <dc:type
                     rdf:resource="http://purl.org/dc/dcmitype/StillImage" />
                <dc:title></dc:title>
            </cc:Work>
        </rdf:RDF>
    </metadata>
    <path
         inkscape:connector-curvature="0"
         fill="#c1cae7"
         d="M 1.1544997,3.849e-4 C 0.51490686,3.849e-4 -1.5e-8,0.5153122 -1.5e-8,1.1549303 c 0,0.210897 0.056761405,0.4077469 0.154895685,0.5772727 l -8e-4,-3.848e-4 0.0157812,0.025207 c 0.0111632,0.018088 0.0217446,0.036368 0.0338678,0.053686 L 1.7319174,4.2333333 V 2.3090909 h 1.3469162 c 0.6395928,0 1.1544997,-0.5149273 1.1544997,-1.1545454 C 4.2333333,0.5149273 3.7184264,0 3.0788336,0 Z m 1.9241659,0.3848484 a 0.76966647,0.76969694 0 0 1 0.7696669,0.769697 0.76966647,0.76969694 0 0 1 -0.7696669,0.769697 0.76966647,0.76969694 0 0 1 -0.7696663,-0.769697 0.76966647,0.76969694 0 0 1 0.7696663,-0.769697"
         id="path19"
         style="fill:#d0d0d0;fill-opacity:1;stroke-width:0.19242042"
         inkscape:label="#" />
</svg>
