<?xml version="1.0" encoding="UTF-8" standalone="no"?><svg height="22" viewBox="0 0 5.8208332 5.8208335" width="22" xmlns="http://www.w3.org/2000/svg"><sodipodi:namedview/><metadata><rdf:RDF><cc:Work><dc:format>image/svg+xml</dc:format><dc:type/><dc:title/></cc:Work></rdf:RDF></metadata><path d="m11 0a11 11 0 0 0 -11 11 11 11 0 0 0 11 11 11 11 0 0 0 11-11 11 11 0 0 0 -11-11zm-3.5820312 3.4296875a1.0292827 1.0292827 0 0 1  .7128906.3007813 1.0292827 1.0292827 0 0 1 0 1.4570312 1.0292827 1.0292827 0 0 1 -1.4550782 0 1.0292827 1.0292827 0 0 1 0-1.4570312 1.0292827 1.0292827 0 0 1  .7421876-.3007813zm5.8515622.0664063 5.240235 5.2402343-5.240235 5.2402339-2.095703-2.095703 3.027344-3.0292965-3.144531-3.1425781zm-7.8593748 5.7070312a1.5376005 1.5565006 0 0 1 1.0644532.4550781 1.5376005 1.5565006 0 0 1 0 2.2011719 1.5376005 1.5565006 0 0 1 -2.1757813 0 1.5376005 1.5565006 0 0 1 0-2.2011719 1.5376005 1.5565006 0 0 1 1.1113281-.4550781zm4.0039063 6.203125a2.058683 2.058683 0 0 1 1.4257815.603516 2.058683 2.058683 0 0 1 0 2.910156 2.058683 2.058683 0 0 1 -2.9121096 0 2.058683 2.058683 0 0 1 0-2.910156 2.058683 2.058683 0 0 1 1.4863281-.603516z" fill="#fff" stroke-linecap="round" stroke-linejoin="round" stroke-width="2.3" transform="scale(.26458333)"/></svg>