<?xml version="1.0" encoding="UTF-8" standalone="no"?><svg height="22" viewBox="0 0 22 22" width="22" xmlns="http://www.w3.org/2000/svg" xmlns:xlink="http://www.w3.org/1999/xlink"><defs><linearGradient id="a" gradientUnits="userSpaceOnUse" x1="455.060331" x2="455.060331" xlink:href="#b" y1="743.61575" y2="1213.5142"/><linearGradient id="b"><stop offset="0" stop-color="#dadada"/><stop offset=".10122021" stop-color="#9b9b9b"/><stop offset="1" stop-color="#9b9b9b"/></linearGradient><linearGradient id="c" gradientTransform="matrix(.94068848 0 0 .9828646 225.0638 -72.347915)" gradientUnits="userSpaceOnUse" x1="339.4375" x2="339.4375" xlink:href="#b" y1="827.47656" y2="1282.3164"/></defs><sodipodi:namedview/><metadata><rdf:RDF><cc:Work><dc:format>image/svg+xml</dc:format><dc:type/><dc:title/></cc:Work></rdf:RDF></metadata><g shape-rendering="crispEdges" transform="matrix(.0248147 -.0248147 .0248147 .0248147 -20.94225 3.642798)"><path d="m490.50466 388.52788c-35.34622 0-64 28.65378-64 64 .0269 4.09188.44611 8.17176 1.25196 12.1836h-.0977c.0207.15934.0318.31979.0332.48047 0 2.20914-1.79086 4-4 4h .28516c-69.12195 2.53409-124.16602 58.27911-124.16602 127.9082 0 60.45542 41.49619 110.85468 97.67383 124.40625h-1.67383c.69369.00001 1.37789.0361 2.05664.0937 1.93097.45949 3.8794.87276 5.84375 1.24414 9.37202 3.26725 16.09952 12.17627 16.09961 22.66211-.0001 10.92758-7.30317 20.14934-17.29492 23.05078-.26889.0781-.43202.15187-.51758.2207-5.57152 1.87258-9.52734 6.68012-9.52734 12.36133 0 7.31802 6.54921 13.20899 14.68359 13.20899h22.90821v13.13086l10 24-7.26563 21.03125 9.67699 11.56377v102.04635l12.58575 13.44459-12.58575 44.86733.12379-.3049 21.89258 48.6934-19.42773 26.5156 8 33.4258-15 33.377 43.6652 48.4513 30.041-.1 44.23325-39.9766v-380.166h20.46289c8.13437 0 14.68359-5.89097 14.68359-13.20899 0-5.95158-4.33106-10.95839-10.32421-12.62109-.063-.0379-.11534-.0793-.20508-.10742-9.74146-3.05562-16.8085-12.15484-16.8086-22.9043.0001-10.48584 6.72759-19.39486 16.09961-22.66211 1.9638-.37129 3.91137-.78479 5.8418-1.24414.67939-.0578 1.36425-.0937 2.05859-.0937h-1.67382c56.17709-13.55194 97.67382-63.95121 97.67382-124.40625 0-70.64822-56.66577-127.5677-127.21093-127.99023h.70703c-2.20914 0-4-1.79086-4-4 .001-.16068.0125-.32113.0332-.48047h-.0762c.79671-3.98533 1.212-8.03748 1.24023-12.10157 0-35.34622-28.65378-64-64-64zm66.80274 80.58204h.1582v-.008c-.0527.004-.10542.006-.1582.008zm-133.61524.082c-.0528-.002-.10552-.004-.1582-.008v.008zm66.8125-58.26367c22.97474.00021 41.59939 18.62486 41.59961 41.5996-.00021 22.97474-18.62487 41.5994-41.59961 41.59961-2.23886-.0172-4.47267-.2151-6.67968-.59179-4.91578-.91987-9.74866-2.65332-14.19141-5.07032-12.81603-7.43329-20.71149-21.12183-20.72852-35.9375.00022-22.97474 18.62487-41.59939 41.59961-41.5996z" fill="#fff"/><path d="m430.06322 743.61578v49.73237 13.13086l9.55082 24.30607-7.26744 21.03097 10.12798 11.25798v102.04635l12.58575 13.44459-12.58575 44.86733 21.5658 48.6938-19.42634 26.5154 8 33.4263-15 33.3765 44.19822 49.0698.24514-470.89832z" fill="url(#a)" opacity=".534"/><path d="m540.35612 740.9495v447.046l8.02524-7.481v-439.565z" fill="url(#c)" opacity=".534"/></g></svg>