<?xml version="1.0" encoding="UTF-8" standalone="no"?><svg height="16" viewBox="0 0 4.2333333 4.2333333" width="16" xmlns="http://www.w3.org/2000/svg"><sodipodi:namedview/><metadata><rdf:RDF><cc:Work><dc:format>image/svg+xml</dc:format><dc:type/><dc:title/></cc:Work></rdf:RDF></metadata><path d="m0 0v16h16v-16zm .7265625 3.6367188h14.5468755v11.6367192h-14.5468755zm9.171875 1.234375c-.2298043.0119395-.4741025.0811276-.7324219.2070312-.2588795.1278002-.472761.2877847-.640625.4804688-.336206.3805474-.5253906.8463552-.5253906 1.28125 0 .0601058.0031137.1175253.0097656.171875.5221746.0424376 1.0042397-.2259839 1.4023438-.6914063.3298847-.3915069.4941406-.8145621.4941406-1.2675781 0-.060087-.0011605-.1210851-.0078125-.1816406zm-.0429687 2.1503906c-.2812438-.0238791-.624478.0372126-1.03125.1835937-.4301417.1578482-.6829439.2363281-.7578126.2363281-.10014 0-.3278721-.0676525-.6835937-.2011718-.3567277-.1330923-.6443824-.2011719-.8632813-.2011719-.4000622.006652-.7714258.1103624-1.1152343.3144531-.3438123.2040847-.619685.4835155-.8261719.8359375-.262746.4387525-.3925781.9613076-.3925781 1.5683594 0 .5299485.0969406 1.0772935.2910156 1.6425785.1812151.523352.4120042.983038.6933594 1.378906.2622342.370707.4812401.632506.65625.785156.2741975.254956.5486212.375036.8242187.363281.1812148-.006164.4186733-.068403.7128906-.1875.293768-.118518.5681331-.175781.8242188-.175781.2441749 0 .512153.05724.8027344.175781.2896316.119097.5378275.177735.7441406.177735.287393-.006709.556149-.123154.806641-.353516.161589-.140344.370867-.394648.626953-.759765.187868-.267826.349343-.558529.486328-.875.05647-.134193.109828-.273991.160156-.419922-.23204-.097289-.440195-.234876-.626953-.41211-.412082-.381889-.620755-.861475-.626953-1.4394529-.00671-.7420293.330133-1.3213977 1.011719-1.734375-.380773-.5412419-.954697-.840847-1.7167972-.9023437z" fill="#d0d0d0" fill-rule="evenodd" transform="scale(.26458333)"/></svg>