<?xml version="1.0" encoding="UTF-8" standalone="no"?><svg height="22" viewBox="0 0 22 22" width="22" xmlns="http://www.w3.org/2000/svg"><sodipodi:namedview/><metadata><rdf:RDF><cc:Work><dc:format>image/svg+xml</dc:format><dc:type/><dc:title/></cc:Work></rdf:RDF></metadata><path d="m10.982648 0c-1.871215 0-3.3844587.5084823-4.5397303 1.5254472-1.1471367 1.0169648-1.7315287 2.2560753-1.8549438 3.7098876-.2533793 2.9847693 2.9933014 2.8359396 3.1485231.3905145.065903-1.0383289.6223817-1.7735868 1.208153-2.2698655.585772-.4962788 1.313921-.7444183 2.184441-.7444183.903065 0 1.619009.2400037 2.14783.7200111.536957.4718716.805436 1.0413714.805436 1.708501 0 .4800063-.150504.9193351-.451533 1.3179863-.195258.2522068-.793232.7850966-1.793925 1.5986679-1.000694.8135713-1.667822 1.5457859-2.001387 2.1966442-.333563.650858-.500347 1.480702-.500347 2.48953 0 .09763.0041.370175.01218.817641.07387 2.480232 3.092198 2.560341 3.111911 0 .0052-.659451.07827-1.682038.231869-1.964777.194538-.358086.630517-.850181 1.354596-1.452225 1.399343-1.1634089 2.310544-2.0827456 2.733601-2.7580092.431192-.6752651.646791-1.3912078.646791-2.1478296 0-1.3668013-.581706-2.5627514-1.745113-3.5878519-1.163384-1.0332361-2.729508-1.5498543-4.698352-1.5498543zm-.03661 17.945362a2.0267033 2.0267033 0 0 0 -2.025794 2.025793 2.0267033 2.0267033 0 0 0 2.025794 2.028845 2.0267033 2.0267033 0 0 0 2.025793-2.028845 2.0267033 2.0267033 0 0 0 -2.025793-2.025793z" fill="#d0d0d0" stroke-width="1.562058"/></svg>