<?xml version="1.0" encoding="UTF-8" standalone="no"?><svg height="16" viewBox="0 0 4.2333333 4.2333333" width="16" xmlns="http://www.w3.org/2000/svg"><sodipodi:namedview/><metadata><rdf:RDF><cc:Work><dc:format>image/svg+xml</dc:format><dc:type/><dc:title/></cc:Work></rdf:RDF></metadata><path d="m8 0a7.9999998 7.9999998 0 0 0 -8 8 7.9999998 7.9999998 0 0 0 8 8 7.9999998 7.9999998 0 0 0 8-8 7.9999998 7.9999998 0 0 0 -1.259766-4.3066406l-1.560546 1.5605468-1.115235 4.9042968-8.1796874 2.458985 3.0214844-3.0214849c.4873327.2644101 1.0908757.1757555 1.4824219-.2167969.4872306-.4882635.4872317-1.2793138 0-1.7675781-.4882632-.487231-1.2793153-.4872302-1.7675781 0-.3909978.3916842-.4768219.9940164-.2128907 1.4804688l-3.0234375 3.0234371 2.4570313-8.1796871 4.9042971-1.1152344 1.55664-1.5566406a7.9999998 7.9999998 0 0 0 -4.302734-1.2636719z" fill="#d0d0d0" stroke-width="1.3" transform="scale(.26458333)"/></svg>