<?xml version="1.0" encoding="UTF-8" standalone="no"?><svg height="22" viewBox="0 0 5.8208332 5.8208335" width="22" xmlns="http://www.w3.org/2000/svg"><sodipodi:namedview/><metadata><rdf:RDF><cc:Work><dc:format>image/svg+xml</dc:format><dc:type/><dc:title/></cc:Work></rdf:RDF></metadata><path d="m2.9164384.0717816c-.3012012.37649994-.9787495.60243994-.7787873 1.08739l.7787873 1.6172898.7792892-1.6172898c.1999626-.48495006-.478087-.71089006-.7792892-1.08739zm-1.4070358.96496c-.2800401.002-.62697558.1541-.92832268.15455.1065419.47024-.1395163 1.14105.3643039 1.2871l1.75026428.39994-.7787872-1.61779c-.095422-.17203-.2394343-.2250201-.4074583-.2238zm2.8110606.008c-.168024-.0009711-.312027.0518-.407458.2238099l-.7792891 1.61729 1.7502641-.3994399c.503828-.14602.25824-.81687.364806-1.28711-.301347-.00048-.648283-.1525101-.928323-.15455zm-3.52561828 1.66296c-.4349619.008-.5135481.6547699-.79484479 1.0086001.43407529.20989.80510369.8202099 1.23341457.5173599l1.4035234-1.11925-1.75026448-.39943c-.032331-.006-.062831-.008-.091829-.007zm4.23114328.01c-.029-.0005107-.0595.00201-.09183.008l-1.7502628.3994206 1.4035228 1.1190002c.428296.3028699.799329-.3074799 1.233415-.51734-.281278-.3538601-.359883-1.00081-.794845-1.00862zm-2.2405185.59012-1.4035234 1.119c-.39058398.35015.1218197.8478198.2298226 1.3177198.4347362-.2085199 1.1434316-.1181197 1.1737008-.6417998zm.2433711.004v1.79543c.030242.5236901.7384724.43326 1.1731994.6418001.108026-.4699.62089-.96754.230324-1.31771z" fill="#d0d0d0" shape-rendering="crispEdges"/></svg>