<?xml version="1.0" encoding="UTF-8" standalone="no"?>
<!-- Created with Inkscape (http://www.inkscape.org/) -->

<svg
     xmlns:dc="http://purl.org/dc/elements/1.1/"
     xmlns:cc="http://creativecommons.org/ns#"
     xmlns:rdf="http://www.w3.org/1999/02/22-rdf-syntax-ns#"
     xmlns:svg="http://www.w3.org/2000/svg"
     xmlns="http://www.w3.org/2000/svg"
     xmlns:sodipodi="http://sodipodi.sourceforge.net/DTD/sodipodi-0.dtd"
     xmlns:inkscape="http://www.inkscape.org/namespaces/inkscape"
     width="16"
     height="16"
     viewBox="0 0 4.2333333 4.2333333"
     version="1.1"
     id="svg8"
     inkscape:version="0.92+devel (fa9b7f7a5b, 2017-07-19, custom)"
     sodipodi:docname="glyph-corel-wordperfect.svg">
    <defs
         id="defs2" />
    <sodipodi:namedview
         id="base"
         pagecolor="#002466"
         bordercolor="#ffffff"
         borderopacity="0.38039216"
         inkscape:pageopacity="1"
         inkscape:pageshadow="2"
         inkscape:zoom="26.71875"
         inkscape:cx="8"
         inkscape:cy="7.9719298"
         inkscape:document-units="px"
         inkscape:current-layer="svg8"
         inkscape:document-rotation="0"
         showgrid="false"
         inkscape:showpageshadow="false"
         borderlayer="true"
         inkscape:window-width="1920"
         inkscape:window-height="1051"
         inkscape:window-x="0"
         inkscape:window-y="0"
         inkscape:window-maximized="1"
         units="px" />
    <metadata
         id="metadata5">
        <rdf:RDF>
            <cc:Work
                 rdf:about="">
                <dc:format>image/svg+xml</dc:format>
                <dc:type
                     rdf:resource="http://purl.org/dc/dcmitype/StillImage" />
                <dc:title></dc:title>
            </cc:Work>
        </rdf:RDF>
    </metadata>
    <path
         style="fill:#d0d0d0;stroke-width:1.29999983"
         d="M 8 0 A 7.9999998 7.9999998 0 0 0 0 8 A 7.9999998 7.9999998 0 0 0 8 16 A 7.9999998 7.9999998 0 0 0 16 8 A 7.9999998 7.9999998 0 0 0 14.740234 3.6933594 L 13.179688 5.2539062 L 12.064453 10.158203 L 3.8847656 12.617188 L 6.90625 9.5957031 C 7.3935827 9.8601132 7.9971257 9.7714586 8.3886719 9.3789062 C 8.8759025 8.8906427 8.8759036 8.0995924 8.3886719 7.6113281 C 7.9004087 7.1240971 7.1093566 7.1240979 6.6210938 7.6113281 C 6.230096 8.0030123 6.1442719 8.6053445 6.4082031 9.0917969 L 3.3847656 12.115234 L 5.8417969 3.9355469 L 10.746094 2.8203125 L 12.302734 1.2636719 A 7.9999998 7.9999998 0 0 0 8 0 z "
         transform="scale(0.26458333)"
         id="path846"
         inkscape:label="#" />
</svg>
