<?xml version="1.0" encoding="UTF-8" standalone="no"?><svg height="16" viewBox="0 0 4.2333332 4.2333332" width="16" xmlns="http://www.w3.org/2000/svg"><sodipodi:namedview/><metadata><rdf:RDF><cc:Work><dc:format>image/svg+xml</dc:format><dc:type/><dc:title/></cc:Work></rdf:RDF></metadata><g stroke-width=".070004"><path d="m .51258596.74775796c-.0384274.004546-.0648023.017394-.0780314.0403076l-.31781007.55035404c-.06535089.113191.24705859.3937908.70745036.7157186.16778184-.1157899.35813905-.2341629.55138755-.3529501.0064255-.2310334.0162271-.4569034.0330729-.6640421-.4077545-.18943507-.74398753-.30738129-.89606934-.28938804zm2.89439694 1.45107424c-.1670169.1152264-.3565713.2326869-.5488038.350883-.0064532.2307945-.016306.4565653-.0330729.6635253.5024659.2321012.8932352.3541622.9580811.2418458l.3172933-.550354c.064663-.112-.2412328-.3881746-.6934977-.7059001z" fill="#fff"/><path d="m3.7206588.74672442c-.152084-.01799352-.4883062.10046449-.8960694.28990478.027121.3332566.041341.7103225.041341 1.089856 0 .098438-.00544.1917767-.00723.289388.7395402-.4593313 1.347013-.9239655 1.2578-1.0784871l-.3178101-.54983729c-.0132292-.02291358-.0396042-.03627792-.0780315-.04082439zm-2.3455932 1.08830568c-.73250078.4562311-1.3308992.9157295-1.24230141 1.0691852l.31729329.5498375c.06484512.1123149.45562462-.0092337.95808102-.2413291-.0269035-.3323016-.0403076-.7082051-.0403076-1.0862385 0-.099142.00542-.1931572.00723-.2914551z" fill="#d0d0d0"/><path d="m1.7991223.00000001h.6350002c.4233332 0 .4233332 4.23333319 0 4.23333319h-.6350002c-.4233332 0-.4233332-4.23333319 0-4.23333319" fill="#fff"/></g></svg>