<?xml version="1.0" encoding="UTF-8" standalone="no"?><svg height="22" viewBox="0 0 22 22" width="22" xmlns="http://www.w3.org/2000/svg"><sodipodi:namedview/><metadata><rdf:RDF><cc:Work><dc:format>image/svg+xml</dc:format><dc:type/><dc:title/></cc:Work></rdf:RDF></metadata><path d="m10.626953.24414062c-.340287-.00625745-.6794299-.00222212-1.017578.01367188-6.5937963.30992867-11.0039119 6.820382-9.390625 12.1093755 2.1619307 7.087664 10.219166 10.92234 19.556641 9.365234 2.76489-.545804 1.290368-3.903824-.613282-3.560547-1.903646.343306-2.613909-2.7699-.539062-3.123047 2.07489-.352839 3.868226-2.920755 3.273437-6.4257811-.964276-5.6820453-6.16522-8.28504439-11.269531-8.37890628zm.359375 1.82617188a1.1802973 1.4355432 0 0 1 1.179688 1.4355469 1.1802973 1.4355432 0 0 1 -1.179688 1.4355468 1.1802973 1.4355432 0 0 1 -1.1796874-1.4355468 1.1802973 1.4355432 0 0 1 1.1796874-1.4355469zm5.363281 1.7441406a1.1802973 1.4355432 46.373965 0 1  .730469.3164063 1.1802973 1.4355432 46.373965 0 1 -.224609 1.8457031 1.1802973 1.4355432 46.373965 0 1 -1.853516.1347656 1.1802973 1.4355432 46.373965 0 1  .224609-1.84375 1.1802973 1.4355432 46.373965 0 1 1.123047-.453125zm-10.8046871.0488281a1.4355432 1.1802973 43.245698 0 1 1.0878906.4472657 1.4355432 1.1802973 43.245698 0 1  .2363281 1.84375 1.4355432 1.1802973 43.245698 0 1 -1.8535156-.125 1.4355432 1.1802973 43.245698 0 1 -.2363281-1.8417969 1.4355432 1.1802973 43.245698 0 1  .765625-.3242188zm-1.9003907 4.5859376a1.1802973 1.4355432 89.638655 0 1 1.4433594 1.171875 1.1802973 1.4355432 89.638655 0 1 -1.4277344 1.1894532 1.1802973 1.4355432 89.638655 0 1 -1.4433593-1.1718751 1.1802973 1.4355432 89.638655 0 1 1.4277343-1.1894531zm15.0195308.1738281a1.1802973 1.4355433 89.664697 0 1 1.441407 1.171875 1.1802973 1.4355433 89.664697 0 1 -1.427735 1.1894531 1.1802973 1.4355433 89.664697 0 1 -1.443359-1.171875 1.1802973 1.4355433 89.664697 0 1 1.429687-1.1894531z" fill="#fff" shape-rendering="crispEdges"/></svg>