<?xml version="1.0" encoding="UTF-8" standalone="no"?>
<!-- Created with Inkscape (http://www.inkscape.org/) -->

<svg
   xmlns:dc="http://purl.org/dc/elements/1.1/"
   xmlns:cc="http://creativecommons.org/ns#"
   xmlns:rdf="http://www.w3.org/1999/02/22-rdf-syntax-ns#"
   xmlns:svg="http://www.w3.org/2000/svg"
   xmlns="http://www.w3.org/2000/svg"
   xmlns:sodipodi="http://sodipodi.sourceforge.net/DTD/sodipodi-0.dtd"
   xmlns:inkscape="http://www.inkscape.org/namespaces/inkscape"
   width="16mm"
   height="16mm"
   viewBox="0 0 16 16"
   version="1.1"
   id="svg8"
   inkscape:version="0.92+devel (e773125514, 2017-08-01, custom)"
   sodipodi:docname="glyph-youtube-tv.svg">
  <defs
     id="defs2" />
  <sodipodi:namedview
     id="base"
     pagecolor="#002466"
     bordercolor="#ffffff"
     borderopacity="0.38039216"
     inkscape:pageopacity="1"
     inkscape:pageshadow="2"
     inkscape:zoom="7.1685545"
     inkscape:cx="50.379215"
     inkscape:cy="15.613632"
     inkscape:document-units="mm"
     inkscape:current-layer="svg8"
     inkscape:document-rotation="0"
     showgrid="false"
     inkscape:showpageshadow="false"
     borderlayer="true"
     inkscape:window-width="1920"
     inkscape:window-height="1023"
     inkscape:window-x="0"
     inkscape:window-y="28"
     inkscape:window-maximized="1"
     inkscape:snap-page="true"
     inkscape:snap-grids="false"
     inkscape:snap-to-guides="false"
     inkscape:object-paths="true" />
  <metadata
     id="metadata5">
    <rdf:RDF>
      <cc:Work
         rdf:about="">
        <dc:format>image/svg+xml</dc:format>
        <dc:type
           rdf:resource="http://purl.org/dc/dcmitype/StillImage" />
        <dc:title></dc:title>
      </cc:Work>
    </rdf:RDF>
  </metadata>
  <path
     style="fill:#d0d0d0;stroke-width:0.26458332"
     d="M 1.1265462,1.9765951 C 0.50248647,1.9765951 0,2.4790815 0,3.1031413 v 8.5245437 c 0,0.62406 0.50248647,1.126547 1.1265462,1.126547 H 4.898409 v 1.046964 c 0,0.12301 0.098687,0.222209 0.2216917,0.222209 h 5.7593383 c 0.123,0 0.222209,-0.0992 0.222209,-0.222209 v -1.046964 h 3.771863 c 0.624059,0 1.126546,-0.502487 1.126546,-1.126547 V 3.1031413 c 0,-0.6240598 -0.502487,-1.1265462 -1.126546,-1.1265462 z M 5.5309285,4.5144248 10.469128,7.3654133 5.5309285,10.216402 Z m 9.1343255,6.1598302 c 0.346744,9e-6 0.62786,0.281126 0.627869,0.627869 1.73e-4,0.346871 -0.280997,0.628377 -0.627869,0.628385 -0.346871,-8e-6 -0.62804,-0.281514 -0.627868,-0.628385 8e-6,-0.346743 0.281125,-0.62786 0.627868,-0.627869 z"
     id="rect822"
     inkscape:connector-curvature="0" />
</svg>
