<?xml version="1.0" encoding="UTF-8" standalone="no"?><svg height="16" viewBox="0 0 4.2333332 4.2333332" width="16" xmlns="http://www.w3.org/2000/svg"><sodipodi:namedview/><metadata><rdf:RDF><cc:Work><dc:format>image/svg+xml</dc:format><dc:type/><dc:title/></cc:Work></rdf:RDF></metadata><path d="m11.623047 0c-1.117917.00000005-2.2353645.42872379-3.091797 1.2851562l6.183594 6.1816407c1.712864-1.7128643 1.714772-4.4687754.001953-6.1816407-.85648-.85643252-1.975833-1.28515625-3.09375-1.2851562zm-3.7089845 1.9023438-6.0117187 6.0117187 6.1835937 6.1816405 6.0097655-6.0097655zm1.1503906 3.71875.09375 1.6386718 1.2851559 1.0234375-1.5292965.5957031-.578125 1.5371098-1.0390625-1.2695316-1.6386719-.0742188.8867188-1.3808594-.4375-1.5820312 1.5878906.4160156zm-7.7792969 2.9101562c-1.71286502 1.712865-1.71286479 4.472682 0 6.185547 1.7128657 1.712866 4.4687756 1.710959 6.1816407-.001953z" fill="#d0d0d0" stroke-width="1.979046" transform="scale(.26458333)"/></svg>