<?xml version="1.0" encoding="UTF-8" standalone="no"?><svg height="16" viewBox="0 0 4.2333333 4.2333333" width="16" xmlns="http://www.w3.org/2000/svg"><sodipodi:namedview/><metadata><rdf:RDF><cc:Work><dc:format>image/svg+xml</dc:format><dc:type/><dc:title/></cc:Work></rdf:RDF></metadata><path d="m1.9945833 1.2032854c-.00225 0-.01804.00138-.01804.014282 0 .011186.00806.015034.016161.015034.6357147 0 1.6697745.2522978 1.6360317.7990359-.027208.4455721-.8337624.9666605-2.69101466.9666605-.0109312 0-.0184162.00787-.0184162.014658 0 .00698.004256.013152.0172886.014658 0 0 3.22674726.1309953 3.29574136-.9967278.0556741-.9145821-2.2356783-.8276006-2.2377518-.8276006zm-1.54883677.1522153c-.002691 0-.005238.00135-.006765.00338-.18731551.2637237-.30074436.4428145-.41793412.6595993l-.011651.023678-.003383.00789c-.009942.02099-.007468.044407.006765.066524.0693694.108455.4579447.2349001 1.32558779.2349001.6470248 0 1.3349838-.10438 1.3349838-.2980412 0-.1870639-.6789733-.298417-1.3349838-.298417-.2177273 0-.43308615.030476-.49535713.040215.0594418-.091489.30561203-.4226839.30818883-.4262026.00109-.00145.00188-.00344.00188-.00526 0-.00131-.0005915-.00238-.00113-.00376-.00145-.00276-.00453-.00451-.00752-.00451zm.89262007.6009682c.396559 0 .6396798.056565.6396798.096967 0 .040467-.2431208.096591-.6396798.096591-.39643386 0-.63967973-.056125-.63967973-.096591 0-.040401.24324587-.096967.63967973-.096967z" fill="#d0d0d0"/></svg>