<?xml version="1.0" encoding="UTF-8" standalone="no"?>
<svg
   xmlns:dc="http://purl.org/dc/elements/1.1/"
   xmlns:cc="http://creativecommons.org/ns#"
   xmlns:rdf="http://www.w3.org/1999/02/22-rdf-syntax-ns#"
   xmlns:svg="http://www.w3.org/2000/svg"
   xmlns="http://www.w3.org/2000/svg"
   xmlns:sodipodi="http://sodipodi.sourceforge.net/DTD/sodipodi-0.dtd"
   xmlns:inkscape="http://www.inkscape.org/namespaces/inkscape"
   viewBox="0 0 16 16"
   version="1.1"
   id="svg6"
   sodipodi:docname="glyph-node.svg"
   inkscape:version="0.92+devel (1c31310676, 2017-09-09, custom)">
  <metadata
     id="metadata10">
    <rdf:RDF>
      <cc:Work
         rdf:about="">
        <dc:format>image/svg+xml</dc:format>
        <dc:type
           rdf:resource="http://purl.org/dc/dcmitype/StillImage" />
        <dc:title></dc:title>
      </cc:Work>
    </rdf:RDF>
  </metadata>
  <sodipodi:namedview
     pagecolor="#002466"
     bordercolor="#ffffff"
     inkscape:document-rotation="0"
     borderopacity="0.18039216"
     objecttolerance="10"
     gridtolerance="10"
     guidetolerance="10"
     inkscape:pageopacity="0"
     inkscape:pageshadow="2"
     inkscape:window-width="1920"
     inkscape:window-height="1027"
     id="namedview8"
     showgrid="false"
     borderlayer="true"
     inkscape:showpageshadow="false"
     inkscape:zoom="45.9375"
     inkscape:cx="7.847619"
     inkscape:cy="8"
     inkscape:window-x="0"
     inkscape:window-y="24"
     inkscape:window-maximized="1"
     inkscape:current-layer="svg6" />
  <defs
     id="defs3051">
    <style
       type="text/css"
       id="current-color-scheme">
      .ColorScheme-Text {
        color:#f2f2f2;
      }
      </style>
  </defs>
  <path
     style="fill:#d0d0d0;fill-opacity:1;stroke:none;stroke-width:1"
     d="M 4.4062326,1.5939501e-6 C 4.4195262,-0.00305811 -1.6999322e-5,4.4166678 -1.6999322e-5,4.4166678 V 5.3333344 15.083333 16 H 0.9166496 10.666649 11.583315 c 0,0 4.431266,-4.376872 4.416666,-4.375 V 10.666667 1.5939501e-6 H 5.3333158 Z M 5.3333158,1.3333348 h 8.3749992 c -1.111117,1.1257735 -2.169592,2.2149036 -2.625,2.6666664 H 5.3333158 Z M 3.9999826,2.291668 V 4.0000012 H 2.2499828 Z m 10.6666654,0 v 8.374999 H 11.999982 V 5.3333344 4.9166678 Z M 1.3333162,5.3333344 h 2.6666664 v 5.7083326 l -0.4583333,0.5 L 1.3333162,13.75 Z m 3.9999996,0 H 10.666649 V 10.666667 H 5.3333158 Z M 4.9583158,12 h 5.7083332 v 2.666667 H 2.2499828 l 2.2083331,-2.208333 z m 7.0416662,0 h 1.708333 c -0.726176,0.735755 -0.980756,1.015999 -1.708333,1.75 z"
     class="ColorScheme-Text"
     id="path4"
     inkscape:label="#"
     inkscape:connector-curvature="0" />
</svg>
