<?xml version="1.0" encoding="UTF-8" standalone="no"?><svg height="16" viewBox="0 0 4.2333332 4.2333332" width="16" xmlns="http://www.w3.org/2000/svg"><sodipodi:namedview/><metadata><rdf:RDF><cc:Work><dc:format>image/svg+xml</dc:format><dc:type/><dc:title/></cc:Work></rdf:RDF></metadata><path d="m2.1166666.00000006c-.323802 0-.5904718.26666982-.5904718.59047186 0 .25924063.1721134.47920098.4064157.55764028v.7844769h-.2019642v.3681122h.2019642v1.5197064c-.410892-.0380052-.8119989-.2150602-1.12771669-.5307779l-.09551019-.0960076.28503822-.2890179-.95112231-.1044642.11690049.9491323.26215556-.2656375.0950127.094515c.87357782.8735777 2.29566912.8735777 3.16924692 0l .1213777-.1213773.2656378.2696171.116403-.9491324-.9506249.1039668.2815561.2855358-.1233673.1228699c-.3079228.3079225-.6966648.4830439-1.0968749.5267983v-1.5157268h.2019643v-.3681122h-.2019643v-.7844769c.2343024-.078439.4064157-.29839965.4064157-.55764028 0-.32380204-.2666696-.59047186-.5904718-.59047186zm0 .35716832c.1310967 0 .2333035.10220696.2333035.23330354 0 .13109657-.1022068.23330353-.2333035.23330353-.1310966 0-.2333035-.10220696-.2333035-.23330353 0-.13109658.1022069-.23330354.2333035-.23330354z" fill="#d0d0d0"/></svg>