<?xml version="1.0" encoding="UTF-8" standalone="no"?><svg height="16" viewBox="0 0 4.2333332 4.2333332" width="16" xmlns="http://www.w3.org/2000/svg"><sodipodi:namedview/><metadata><rdf:RDF><cc:Work><dc:format>image/svg+xml</dc:format><dc:type/><dc:title/></cc:Work></rdf:RDF></metadata><path d="m .83398438 0c-.46166684 0-.83398438.37231981-.83398438.83398438v3.33203122c0 .461669.37231792.8339844.83398438.8339844h3.33203122c.4616697 0 .8339844-.37232.8339844-.8339844v-3.33203122c0-.46166627-.3723151-.83398438-.8339844-.83398438zm10.99999962 0c-.461666 0-.833984.37231981-.833984.83398438v3.33203122c0 .4616697.372318.8339844.833984.8339844h3.332032c.461669 0 .833984-.37232.833984-.8339844v-3.33203122c0-.46166627-.372315-.83398438-.833984-.83398438zm.888672 1.0800781.91211.9101563.910156-.9101563.482422.4824219-.91211.9121094.91211.9101562-.482422.4824219-.910156-.9121094-.91211.9121094-.482422-.4824219.910157-.9101562-.910157-.9121094zm-6.3886716 4.4199219c-.4616659 0-.8339844.3723196-.8339844.8339844v3.3320312c0 .4616694.3723181.8339844.8339844.8339844h3.3320312c.4616694 0 .8339844-.37232.8339844-.8339844v-3.3320312c0-.4616659-.372315-.8339844-.8339844-.8339844zm.7539062 1.1542969.9121094.9101562.9101562-.9101562.4824219.4824219-.9121093.9121093.9121093.9101563-.4824219.4824218-.9101562-.9121093-.9121094.9121093-.4824218-.4824218.9101562-.9101563-.9101562-.9121093zm-6.25390622 4.3457031c-.46166684 0-.83398438.37232-.83398438.833984v3.332032c0 .461669.37231792.833984.83398438.833984h3.33203122c.4616697 0 .8339844-.37232.8339844-.833984v-3.332032c0-.461666-.3723151-.833984-.8339844-.833984zm10.99999962 0c-.461666 0-.833984.37232-.833984.833984v3.332032c0 .461669.372318.833984.833984.833984h3.332032c.461669 0 .833984-.37232.833984-.833984v-3.332032c0-.461666-.372315-.833984-.833984-.833984z" fill="#d0d0d0" opacity=".697872" stroke-linecap="square" stroke-width="1.9" transform="scale(.26458333)"/><path d="m6.3339844 0c-.4616659 0-.8339844.37231982-.8339844.83398438v3.33203122c0 .4616697.3723181.8339844.8339844.8339844h3.3320312c.4616694 0 .8339844-.37232.8339844-.8339844v-3.33203122c0-.46166626-.372315-.83398438-.8339844-.83398438zm-5.50000002 5.5c-.46166683 0-.83398438.3723196-.83398438.8339844v3.3320312c0 .4616694.37231793.8339844.83398438.8339844h3.33203122c.4616697 0 .8339844-.37232.8339844-.8339844v-3.3320312c0-.4616659-.3723151-.8339844-.8339844-.8339844zm10.99999962 0c-.461666 0-.833984.3723196-.833984.8339844v3.3320312c0 .4616694.372318.8339844.833984.8339844h3.332032c.461669 0 .833984-.37232.833984-.8339844v-3.3320312c0-.4616659-.372315-.8339844-.833984-.8339844zm-10.3378902 1.1542969.9121093.9101562.9101563-.9101562.4824218.4824219-.9121093.9121093.9121093.9101563-.4824218.4824218-.9101563-.9121093-.9121093.9121093-.4824219-.4824218.9101562-.9101563-.9101562-.9121093zm4.8378906 4.3457031c-.4616659 0-.8339844.37232-.8339844.833984v3.332032c0 .461669.3723181.833984.8339844.833984h3.3320312c.4616694 0 .8339844-.37232.8339844-.833984v-3.332032c0-.461666-.372315-.833984-.8339844-.833984z" fill="#d0d0d0" opacity=".310638" stroke-linecap="square" stroke-width="1.9" transform="scale(.26458333)"/></svg>