<?xml version="1.0" encoding="UTF-8" standalone="no"?>
<!-- Created with Inkscape (http://www.inkscape.org/) -->

<svg
   xmlns:dc="http://purl.org/dc/elements/1.1/"
   xmlns:cc="http://creativecommons.org/ns#"
   xmlns:rdf="http://www.w3.org/1999/02/22-rdf-syntax-ns#"
   xmlns:svg="http://www.w3.org/2000/svg"
   xmlns="http://www.w3.org/2000/svg"
   xmlns:sodipodi="http://sodipodi.sourceforge.net/DTD/sodipodi-0.dtd"
   xmlns:inkscape="http://www.inkscape.org/namespaces/inkscape"
   width="12"
   height="12"
   viewBox="0 0 12 12"
   version="1.1"
   id="default16"
   inkscape:version="0.92+devel (42c84a5464, 2017-09-20, custom)"
   sodipodi:docname="glyph-earthquake.svg">
  <defs
     id="defs5" />
  <sodipodi:namedview
     id="base"
     pagecolor="#002466"
     bordercolor="#ffffff"
     borderopacity="0.38039216"
     inkscape:pageopacity="1"
     inkscape:pageshadow="2"
     inkscape:zoom="26.28125"
     inkscape:cx="7.9429251"
     inkscape:cy="8"
     inkscape:document-units="px"
     inkscape:current-layer="default16"
     inkscape:document-rotation="0"
     showgrid="false"
     inkscape:showpageshadow="false"
     borderlayer="true"
     inkscape:window-width="1920"
     inkscape:window-height="1017"
     inkscape:window-x="0"
     inkscape:window-y="34"
     inkscape:window-maximized="1"
     units="px"
     inkscape:snap-page="true"
     inkscape:snap-to-guides="false"
     inkscape:snap-grids="false" />
  <metadata
     id="metadata5">
    <rdf:RDF>
      <cc:Work
         rdf:about="">
        <dc:format>image/svg+xml</dc:format>
        <dc:type
           rdf:resource="http://purl.org/dc/dcmitype/StillImage" />
        <dc:title></dc:title>
      </cc:Work>
    </rdf:RDF>
  </metadata>
  <path
     style="fill:#d0d0d0;stroke:none"
     d="M 1.5996094 0 C 0.71320938 2.9605947e-16 0 0.71320938 0 1.5996094 L 0 6.3964844 L 2.0625 6.3964844 L 2.8710938 5.3027344 A 0.45004499 0.45004499 0 0 1 3.6582031 5.4238281 L 4.0917969 6.6835938 L 4.6816406 4.1347656 A 0.45004499 0.45004499 0 0 1 5.5625 4.1523438 L 6.0195312 6.5292969 L 6.5625 3.0507812 A 0.45004499 0.45004499 0 0 1 6.9785156 2.671875 A 0.45004499 0.45004499 0 0 1 7.4453125 3.015625 L 8.1738281 6.0703125 L 8.5429688 5.6054688 A 0.45004499 0.45004499 0 0 1 9.2167969 5.5703125 L 10.029297 6.4003906 L 12 6.4003906 L 12 1.5996094 C 12 0.71320938 11.286791 0 10.400391 0 L 1.5996094 0 z M 7.0996094 5.4453125 L 6.5097656 9.2246094 A 0.45004499 0.45004499 0 0 1 5.6230469 9.2402344 L 5.0800781 6.4082031 L 4.6152344 8.4160156 A 0.45004499 0.45004499 0 0 1 3.7519531 8.4609375 L 3.0859375 6.5253906 L 2.6523438 7.1132812 A 0.45004499 0.45004499 0 0 1 2.2890625 7.296875 L 0 7.296875 L 0 10.400391 C 2.9605947e-16 11.286791 0.71320938 12 1.5996094 12 L 10.400391 12 C 11.286791 12 12 11.286791 12 10.400391 L 12 7.3007812 L 9.8398438 7.3007812 A 0.45004499 0.45004499 0 0 1 9.5175781 7.1660156 L 8.9296875 6.5644531 L 8.3046875 7.3535156 A 0.45004499 0.45004499 0 0 1 7.5136719 7.1777344 L 7.0996094 5.4453125 z "
     id="rect811"
     inkscape:label="#" />
</svg>
