<?xml version="1.0" encoding="UTF-8" standalone="no"?><svg height="16" viewBox="0 0 4.2333332 4.2333332" width="16" xmlns="http://www.w3.org/2000/svg"><sodipodi:namedview/><metadata><rdf:RDF><cc:Work><dc:format>image/svg+xml</dc:format><dc:type/><dc:title/></cc:Work></rdf:RDF></metadata><path d="m8 0a7.9999879 7.9999879 0 0 0 -8 8 7.9999879 7.9999879 0 0 0 8 8 7.9999879 7.9999879 0 0 0 8-8 7.9999879 7.9999879 0 0 0 -8-8zm0 .88867188a7.1111061 7.1111061 0 0 1 6.980469 5.77734372h-1.646485c-.246221 0-.445312.1990891-.445312.4453125 0 .2462211.199089.4433594.445312.4433594h1.759766a7.1111061 7.1111061 0 0 1  .017578.4453125 7.1111061 7.1111061 0 0 1 -.023437.4453125h-1.753907c-.246221 0-.445312.197136-.445312.4433594 0 .2462211.199089.4453125.445312.4453125h1.648438a7.1111061 7.1111061 0 0 1 -6.982422 5.7773436 7.1111061 7.1111061 0 0 1 -6.9804688-5.7773436h1.6464844c.2462211 0 .4453125-.1990891.4453125-.4453125 0-.2462211-.1990891-.4433594-.4453125-.4433594h-1.7597656a7.1111061 7.1111061 0 0 1 -.01757812-.4453125 7.1111061 7.1111061 0 0 1  .0234375-.4453125h1.75390622c.2462211 0 .4453125-.1971364.4453125-.4433594 0-.2462211-.1990891-.4453125-.4453125-.4453125h-1.6484375a7.1111061 7.1111061 0 0 1 6.9824219-5.77734372z" fill="#d0d0d0" stroke-width="3.779528" transform="scale(.26458333)"/><path d="m8 2.6660156c-.2964435 0-.5742203.085126-.7871094.2402344-.2088869.1551118-.3420245.3602794-.4433594.5625-.2017776.4040003-.3042678.8291478-.4980468 1.2207031-.073334.1426659-.096531.1420277-.1445313.15625-.048.014665-.1647344.01751-.3398437-.00781-.3555553-.0506708-.9374602-.2039459-1.5410156.0996069-.341779.1688882-.5672676.4920314-.6601563.8320312-.096.3399988-.0867097.7051421-.0253906 1.0820313.127113.7537777.4834287 1.5689809.9589843 2.2832031.4266668.6382224.9840212 1.6422224 1.5546876 2.5000004.2853354.426666.5728712.818953.8710937 1.126953.2982236.306221.610243.572265 1.0546875.572265.4444441 0 .756465-.266042 1.0546875-.572265.2973354-.307998.5857606-.700287.8710937-1.126953.5706668-.857778 1.1293538-1.861778 1.5546878-2.5000004.476-.7142222.831697-1.5294254.957031-2.2832031.064-.3768869.06901-.742031-.02344-1.0820313-.094648-.3399979-.316598-.6631422-.660154-.8320312-.603111-.3035565-1.185284-.1502777-1.539062-.0996094-.176444.0253229-.2944161.0224771-.3437502.0078125-.0444435-.014211-.0672909-.0135728-.140625-.15625-.1959988-.3915587-.3000014-.8167028-.5-1.2207031-.101333-.2022236-.23571-.4073889-.4472657-.5625-.2106671-.1551118-.4867585-.2402344-.7832031-.2402344zm0 4.4453125c.2462211 0 .4453125.1971364.4453125.4433594v2.6679685c0 .246221-.1990891.44336-.4453125.44336-.2462211 0-.4453125-.197136-.4453125-.44336v-2.6679685c0-.2462211.1990895-.4433594.4453125-.4433594z" fill="#ffb900" stroke-width="3.779528" transform="scale(.26458333)"/></svg>