<?xml version="1.0" encoding="UTF-8" standalone="no"?>
<!-- Created with Inkscape (http://www.inkscape.org/) -->

<svg
   xmlns:dc="http://purl.org/dc/elements/1.1/"
   xmlns:cc="http://creativecommons.org/ns#"
   xmlns:rdf="http://www.w3.org/1999/02/22-rdf-syntax-ns#"
   xmlns:svg="http://www.w3.org/2000/svg"
   xmlns="http://www.w3.org/2000/svg"
   xmlns:sodipodi="http://sodipodi.sourceforge.net/DTD/sodipodi-0.dtd"
   xmlns:inkscape="http://www.inkscape.org/namespaces/inkscape"
   width="16mm"
   height="16mm"
   viewBox="0 0 16 16"
   version="1.1"
   id="svg8"
   inkscape:version="0.92+devel (e773125514, 2017-08-01, custom)"
   sodipodi:docname="glyph-compass-nav.svg">
  <defs
     id="defs2" />
  <sodipodi:namedview
     id="base"
     pagecolor="#002466"
     bordercolor="#ffffff"
     borderopacity="0.38039216"
     inkscape:pageopacity="1"
     inkscape:pageshadow="2"
     inkscape:zoom="10.137867"
     inkscape:cx="56.05412"
     inkscape:cy="27.302424"
     inkscape:document-units="mm"
     inkscape:current-layer="svg8"
     inkscape:document-rotation="0"
     showgrid="false"
     inkscape:showpageshadow="false"
     borderlayer="true"
     inkscape:window-width="1920"
     inkscape:window-height="1015"
     inkscape:window-x="0"
     inkscape:window-y="36"
     inkscape:window-maximized="1"
     inkscape:snap-page="true"
     inkscape:snap-grids="false"
     inkscape:snap-to-guides="false" />
  <metadata
     id="metadata5">
    <rdf:RDF>
      <cc:Work
         rdf:about="">
        <dc:format>image/svg+xml</dc:format>
        <dc:type
           rdf:resource="http://purl.org/dc/dcmitype/StillImage" />
        <dc:title></dc:title>
      </cc:Work>
    </rdf:RDF>
  </metadata>
  <path
     style="fill:#d0d0d0;stroke-width:0.99999994"
     d="M 30.236328 0 A 30.23622 30.23622 0 0 0 0 30.236328 A 30.23622 30.23622 0 0 0 30.236328 60.472656 A 30.23622 30.23622 0 0 0 60.472656 30.236328 A 30.23622 30.23622 0 0 0 30.236328 0 z M 48.316406 12.15625 L 38.59375 38.59375 L 12.15625 48.316406 L 21.878906 21.878906 L 48.316406 12.15625 z M 30.316406 24.837891 A 5.3987588 5.3987588 0 0 0 26.419922 26.419922 A 5.3987588 5.3987588 0 0 0 26.419922 34.052734 A 5.3987588 5.3987588 0 0 0 34.052734 34.052734 A 5.3987588 5.3987588 0 0 0 34.052734 26.419922 A 5.3987588 5.3987588 0 0 0 30.316406 24.837891 z "
     transform="scale(0.26458333)"
     id="path13" />
</svg>
