<?xml version="1.0" encoding="UTF-8" standalone="no"?>
<!-- Created with Inkscape (http://www.inkscape.org/) -->

<svg
   xmlns:dc="http://purl.org/dc/elements/1.1/"
   xmlns:cc="http://creativecommons.org/ns#"
   xmlns:rdf="http://www.w3.org/1999/02/22-rdf-syntax-ns#"
   xmlns:svg="http://www.w3.org/2000/svg"
   xmlns="http://www.w3.org/2000/svg"
   xmlns:sodipodi="http://sodipodi.sourceforge.net/DTD/sodipodi-0.dtd"
   xmlns:inkscape="http://www.inkscape.org/namespaces/inkscape"
   width="22"
   height="22"
   viewBox="0 0 5.8208332 5.8208335"
   version="1.1"
   id="svg8"
   inkscape:version="0.92+devel 15739 custom"
   sodipodi:docname="glyph-cut.svg">
  <defs
     id="defs2" />
  <sodipodi:namedview
     id="base"
     pagecolor="#002466"
     bordercolor="#ffffff"
     borderopacity="0.32156863"
     inkscape:pageopacity="1"
     inkscape:pageshadow="2"
     inkscape:zoom="19.090909"
     inkscape:cx="11"
     inkscape:cy="11"
     inkscape:document-units="px"
     inkscape:current-layer="svg8"
     inkscape:document-rotation="0"
     showgrid="false"
     units="px"
     inkscape:pagecheckerboard="false"
     borderlayer="true"
     inkscape:showpageshadow="false"
     inkscape:window-width="1920"
     inkscape:window-height="1051"
     inkscape:window-x="0"
     inkscape:window-y="0"
     inkscape:window-maximized="1" />
  <metadata
     id="metadata5">
    <rdf:RDF>
      <cc:Work
         rdf:about="">
        <dc:format>image/svg+xml</dc:format>
        <dc:type
           rdf:resource="http://purl.org/dc/dcmitype/StillImage" />
        <dc:title></dc:title>
        <cc:license
           rdf:resource="http://creativecommons.org/licenses/by/4.0/" />
        <dc:creator>
          <cc:Agent>
            <dc:title>PixelPimps &amp; CodePoets</dc:title>
          </cc:Agent>
        </dc:creator>
      </cc:Work>
      <cc:License
         rdf:about="http://creativecommons.org/licenses/by/4.0/">
        <cc:permits
           rdf:resource="http://creativecommons.org/ns#Reproduction" />
        <cc:permits
           rdf:resource="http://creativecommons.org/ns#Distribution" />
        <cc:requires
           rdf:resource="http://creativecommons.org/ns#Notice" />
        <cc:requires
           rdf:resource="http://creativecommons.org/ns#Attribution" />
        <cc:permits
           rdf:resource="http://creativecommons.org/ns#DerivativeWorks" />
      </cc:License>
    </rdf:RDF>
  </metadata>
  <path
     style="fill:#ffffff;fill-opacity:1;stroke:none;stroke-width:0.48120785"
     d="M 1.5757301,0 C 1.2686643,0.31086678 0.97999409,0.60375259 1.1883571,0.9646585 L 2.4515277,3.1300938 1.9033574,4.0012668 C 1.7724683,3.9348592 1.6236548,3.8960019 1.4672628,3.8960019 c -0.53173528,0 -0.96241577,0.4306811 -0.96241577,0.9624156 0,0.5317347 0.43068049,0.9624158 0.96241577,0.9624158 0.5317345,0 0.9624153,-0.4306811 0.9624156,-0.9624158 0,-0.1948891 -0.020004,-0.2935049 -0.1196111,-0.4450854 -0.0024,-0.00386 0,-0.015041 0,-0.015041 L 2.6106076,3.9414186 c 0.1362726,0.1352997 0.2866287,-0.016914 0.4372971,-0.1017619 0.1461375,0.1941357 9.625e-4,-0.00585 0.4526554,0.5512752 -0.1200567,0.1603872 -0.129074,0.3721473 -0.098123,0.5517687 0.082118,0.4765811 0.4193988,0.8781327 0.9511335,0.8781327 0.5317348,0 0.9624157,-0.4306811 0.9624157,-0.9624158 0,-0.5317345 -0.4306809,-0.9624156 -0.9624157,-0.9624156 -0.1563932,0 -0.3047476,0.038857 -0.4351545,0.1052649 L 3.4135019,3.0863714 c 0,0 1.2679822,-2.16928509 1.2631705,-2.16543537 C 4.8887616,0.56202965 4.6907128,0.47634724 4.3535708,0.04633898 L 2.9174644,2.3454399 Z M 1.4663004,4.4264524 c 0.2384451,0 0.4319658,0.1935207 0.4319658,0.4319658 0,0.2384454 -0.1935207,0.431966 -0.4319658,0.431966 -0.2384453,0 -0.4319659,-0.1935206 -0.4319659,-0.431966 0,-0.2384451 0.1935206,-0.4319658 0.4319659,-0.4319658 z m 2.8872471,-0.015314 c 0.2468938,0 0.4472713,0.2003773 0.4472713,0.4472711 0,0.2468938 -0.2003775,0.4472711 -0.4472713,0.4472711 -0.2468937,0 -0.4472712,-0.2003773 -0.4472712,-0.4472711 0,-0.2468938 0.2003775,-0.4472711 0.4472712,-0.4472711 z"
     id="path4290"
     inkscape:connector-curvature="0"
     sodipodi:nodetypes="ccccsssscccccssssccccccssssssssss"
     inkscape:label="#" />
</svg>
