<?xml version="1.0" encoding="UTF-8" standalone="no"?><svg height="22" viewBox="0 0 5.8208332 5.8208335" width="22" xmlns="http://www.w3.org/2000/svg"><sodipodi:namedview/><metadata><rdf:RDF><cc:Work><dc:format>image/svg+xml</dc:format><dc:type/><dc:title/></cc:Work></rdf:RDF></metadata><path d="m2.9104167-.00000009c-1.3792129.00002652-2.49726967.91855005-2.49727257 2.05159839.00080193.6591318.38704528 1.2778083 1.03817907 1.662929v1.2120725c0 .1501791-.147602.3206579-.2959646.3437565-.1507741.0235732-.25404539.1647017-.23089839.3155418.023845.1508013.16526489.253839.31611769.2303226.4385924-.0683037.7635194-.4457804.7635194-.8896209v-.9656273c.076963.024676.1553691.046199.2349291.064491v1.5189768c.0002654.1525341.1238528.2761214.276387.2763871.1534331.001.2784266-.1229512.2786904-.2763871v-1.44585c.038722.00227.077504.00381.1163129.00461.039566-.0003833.079117-.00154.1186162-.00345v1.444692c.0002656.1525342.123853.2761215.2763871.2763872.1525341-.0002657.2761214-.123853.276387-.2763872v-1.5172521c.079548-.018101.1579532-.039433.2349291-.063915v.9633244c0 .4438406.3255029.8213508.7640951.889621.150442.022819.2911055-.080042.3149661-.2303226.0231664-.1506475-.0797822-.2916883-.2303226-.3155417-.1483622-.0230661-.2953887-.1935774-.2953887-.3437565v-1.2137998c.6503155-.3848662 1.0362612-1.0027648 1.0376032-1.6612017-.000003-1.13304834-1.1180596-2.05157187-2.4972725-2.05159839zm-1.4665791.7854001c.3190239-.00002328.5776265.38001659.577534.84873869.0000925.468722-.2585101.848762-.577534.8487387-.3190239.0000233-.57762629-.3800167-.57753379-.8487387-.0000925-.4687221.25850989-.84876197.57753379-.84873869zm2.933158 0c .3190242-.00002339.5776266.38001649.5775341.84873869.0000925.4687221-.2585099.8487621-.5775341.8487387-.3190238.0000231-.5776263-.3800167-.5775337-.8487387-.0000926-.4687221.2585099-.84876186.5775337-.84873869zm-1.4665789 2.49174459c.1477888-.0000495.2675483.0546686.2671742.1220711-.0003243.0671784-.1198786.1215446-.2671742.1214951-.1472956.0000495-.2668502-.054317-.2671742-.1214951-.0003832-.0674031.1193853-.1221206.2671742-.1220711z" fill="#fff" stroke-width=".125286"/></svg>