<?xml version="1.0" encoding="UTF-8" standalone="no"?><svg height="16" viewBox="0 0 4.2333332 4.2333332" width="16" xmlns="http://www.w3.org/2000/svg"><sodipodi:namedview/><metadata><rdf:RDF><cc:Work><dc:format>image/svg+xml</dc:format><dc:type/><dc:title/></cc:Work></rdf:RDF></metadata><path d="m1.9257812 0c-1.06735973 0-1.9257812.85842147-1.9257812 1.9257812v12.1484378c0 1.06736.85842147 1.925781 1.9257812 1.925781h12.1484378c1.06736 0 1.925781-.858421 1.925781-1.925781v-12.1484378c0-1.06735973-.858421-1.9257812-1.925781-1.9257812zm2.15625 2.71875a1.4007813 1.4007813 0 0 1 1.4003907 1.4003906 1.4007813 1.4007813 0 0 1 -1.4003907 1.4003906 1.4007813 1.4007813 0 0 1 -1.4003906-1.4003906 1.4007813 1.4007813 0 0 1 1.4003906-1.4003906zm8.2441408 0a1.4007813 1.4007813 0 0 1 1.40039 1.4003906 1.4007813 1.4007813 0 0 1 -1.40039 1.4003906 1.4007813 1.4007813 0 0 1 -1.400391-1.4003906 1.4007813 1.4007813 0 0 1 1.400391-1.4003906zm-4.123047 4.1210938a1.4007813 1.4007813 0 0 1 1.4023438 1.4003906 1.4007813 1.4007813 0 0 1 -1.4023438 1.4023437 1.4007813 1.4007813 0 0 1 -1.4003906-1.4023437 1.4007813 1.4007813 0 0 1 1.4003906-1.4003906zm-4.1210938 4.1230472a1.4007813 1.4007813 0 0 1 1.4003907 1.40039 1.4007813 1.4007813 0 0 1 -1.4003907 1.400391 1.4007813 1.4007813 0 0 1 -1.4003906-1.400391 1.4007813 1.4007813 0 0 1 1.4003906-1.40039zm8.2441408 0a1.4007813 1.4007813 0 0 1 1.40039 1.40039 1.4007813 1.4007813 0 0 1 -1.40039 1.400391 1.4007813 1.4007813 0 0 1 -1.400391-1.400391 1.4007813 1.4007813 0 0 1 1.400391-1.40039z" fill="#d0d0d0" stroke-linecap="round" stroke-miterlimit="26.700001" stroke-width="2" transform="scale(.26458333)"/></svg>