<?xml version="1.0" encoding="UTF-8" standalone="no"?>
<!-- Created with Inkscape (http://www.inkscape.org/) -->

<svg
   xmlns:dc="http://purl.org/dc/elements/1.1/"
   xmlns:cc="http://creativecommons.org/ns#"
   xmlns:rdf="http://www.w3.org/1999/02/22-rdf-syntax-ns#"
   xmlns:svg="http://www.w3.org/2000/svg"
   xmlns="http://www.w3.org/2000/svg"
   xmlns:sodipodi="http://sodipodi.sourceforge.net/DTD/sodipodi-0.dtd"
   xmlns:inkscape="http://www.inkscape.org/namespaces/inkscape"
   width="16"
   height="16"
   viewBox="0 0 16 16"
   version="1.1"
   id="default16"
   inkscape:version="0.92+devel (f008c6912a, 2017-09-14, custom)"
   sodipodi:docname="glyph-group.svg">
  <defs
     id="defs5" />
  <sodipodi:namedview
     id="base"
     pagecolor="#002466"
     bordercolor="#ffffff"
     borderopacity="0.38039216"
     inkscape:pageopacity="1"
     inkscape:pageshadow="2"
     inkscape:zoom="26.28125"
     inkscape:cx="7.7336504"
     inkscape:cy="8"
     inkscape:document-units="px"
     inkscape:current-layer="default16"
     inkscape:document-rotation="0"
     showgrid="false"
     inkscape:showpageshadow="false"
     borderlayer="true"
     inkscape:window-width="1920"
     inkscape:window-height="1027"
     inkscape:window-x="0"
     inkscape:window-y="24"
     inkscape:window-maximized="1"
     units="px"
     inkscape:snap-page="true" />
  <metadata
     id="metadata5">
    <rdf:RDF>
      <cc:Work
         rdf:about="">
        <dc:format>image/svg+xml</dc:format>
        <dc:type
           rdf:resource="http://purl.org/dc/dcmitype/StillImage" />
        <dc:title></dc:title>
      </cc:Work>
    </rdf:RDF>
  </metadata>
  <path
     style="fill:#d0d0d0;stroke-width:0.99999994"
     d="M 2.4667969 3.4785156 A 1.8004084 1.8004084 0 0 0 0.66601562 5.2792969 A 1.8004084 1.8004084 0 0 0 2.3144531 7.0722656 A 3.7496774 3.7496774 0 0 0 0 7.9121094 L 0 16 L 2.8300781 16 L 2.8300781 8.890625 A 6.7552786 6.7552786 0 0 1 4.2734375 7.6054688 A 3.7496774 3.7496774 0 0 0 2.5058594 7.078125 A 1.8004084 1.8004084 0 0 0 4.265625 5.2792969 A 1.8004084 1.8004084 0 0 0 2.4667969 3.4785156 z M 13.533203 3.4785156 A 1.8004084 1.8004084 0 0 0 11.734375 5.2792969 A 1.8004084 1.8004084 0 0 0 13.494141 7.078125 A 3.7496774 3.7496774 0 0 0 11.722656 7.6035156 A 6.7552786 6.7552786 0 0 1 13.169922 8.8886719 L 13.169922 16 L 16 16 L 16 7.9121094 A 3.7496774 3.7496774 0 0 0 13.685547 7.0722656 A 1.8004084 1.8004084 0 0 0 15.333984 5.2792969 A 1.8004084 1.8004084 0 0 0 13.533203 3.4785156 z "
     id="path812"
     inkscape:label="#" />
  <path
     style="fill:#d0d0d0"
     d="M 8.1933594 0 A 3.2435484 3.2435484 0 0 0 4.9492188 3.2441406 A 3.2435484 3.2435484 0 0 0 7.921875 6.4726562 A 6.7552786 6.7552786 0 0 0 2.8300781 8.890625 L 2.8300781 16 L 13.169922 16 L 13.169922 8.8886719 A 6.7552786 6.7552786 0 0 0 8.265625 6.484375 A 3.2435484 3.2435484 0 0 0 11.435547 3.2441406 A 3.2435484 3.2435484 0 0 0 8.1933594 0 z "
     id="path828"
     inkscape:label="#" />
</svg>
