<?xml version="1.0" encoding="UTF-8" standalone="no"?><svg height="32" viewBox="0 0 32 32" width="32" xmlns="http://www.w3.org/2000/svg"><sodipodi:namedview/><metadata><rdf:RDF><cc:Work><dc:format>image/svg+xml</dc:format><dc:type/><dc:title/></cc:Work></rdf:RDF></metadata><path d="m1.84375.88378905c-1.02192437 0-1.84375.82377865-1.84375 1.84570305v21.1730469c0 1.021924.82182563 1.845703 1.84375 1.845703h8.90625v2.311328h-2.589844c-.7691285 0-1.3867185.619543-1.3867185 1.388672v.279297c0 .769128.61759 1.388672 1.3867185 1.388672h15.679688c.769129 0 1.386718-.619544 1.386718-1.388672v-.279297c0-.769129-.617589-1.388672-1.386718-1.388672h-2.589844v-2.311328h8.904297c1.021924 0 1.845703-.823779 1.845703-1.845703v-21.1730469c0-1.0219245-.823779-1.84570305-1.845703-1.84570305zm2.8125 3.27539065h22.929688c.681502 0 1.228515.5489666 1.228515 1.2304687v16.0734376c0 .681501-.547014 1.228516-1.228515 1.228516h-22.929688c-.6815011 0-1.2304688-.547015-1.2304688-1.228516v-16.0734376c0-.6815021.5489679-1.2304688 1.2304688-1.2304687z" fill="#d0d0d0" stroke-linecap="square" stroke-width="1.491364"/></svg>