<?xml version="1.0" encoding="UTF-8" standalone="no"?><svg height="22" viewBox="0 0 22 22" width="22" xmlns="http://www.w3.org/2000/svg"><sodipodi:namedview/><metadata><rdf:RDF><cc:Work><dc:format>image/svg+xml</dc:format><dc:type/><dc:title/></cc:Work></rdf:RDF></metadata><path d="m10.996454.00000002c-.978723 2.40189108-1.56974 3.97163108-2.6595747 6.30023638.6690308.7092199 1.4893619 1.534279 2.8203307 2.465721-1.4326239-.5886524-2.4089832-1.1820331-3.1394795-1.7943263-1.3947992 2.9101657-3.5815604 7.0567379-8.01654842 15.0283689 3.48699752-2.01182 6.18912512-3.252955 8.70921972-3.728132-.1087471-.465721-.1702126-.969267-.1654847-1.49409l.00473-.111111c.054374-2.234043 1.2174942-3.950355 2.5933809-3.834516 1.375886.11584 2.446808 2.023641 2.390071 4.257683-.0095.420804-.05674.82506-.13948 1.198582 2.491726.486998 5.165485 1.725768 8.605201 3.711584-.678487-1.248227-1.283688-2.373522-1.86052-3.446809-.91253-.704491-1.862884-1.624113-3.801419-2.617021 1.33097.345154 2.286052.744681 3.028369 1.191489-5.87707-10.9432618-6.352248-12.3971625-8.368796-17.12765898z" fill="#fff" stroke-width=".023641"/></svg>