<?xml version="1.0" encoding="UTF-8" standalone="no"?>
<svg height="22" viewBox="0 0 22 22" width="22" xmlns="http://www.w3.org/2000/svg">
	<sodipodi:namedview/>
	<metadata>
		<rdf:RDF>
			<cc:Work>
				<dc:format>image/svg+xml			</dc:format>
			<dc:type/>
			<dc:title/>
		</cc:Work>
	</rdf:RDF>
</metadata>
<path d="M 11.002006 .00000017 C 9.5511591 .00000017 8.2491081 1.1714854 8.3817086 2.6162597 L 9.4435547 14.183517 c .082579 .899749 .6957983 1.566526 1.5584513 1.566526 c .862652 0 1.471834 -.666775 1.554413 -1.566526 L 13.618265 2.6162597 C 13.750866 1.1714854 12.452852 .00000017 11.002006 .00000017 Z M 11.010106 17.926221 a 2.0353201 2.0353201 0 0 0 -2.0389314 2.034868 a 2.0353201 2.0353201 0 0 0 2.0389054 2.038908 a 2.0353201 2.0353201 0 0 0 2.034869 -2.038908 a 2.0353201 2.0353201 0 0 0 -2.034869 -2.034868 z" fill="#d0d0d0"/>
</svg>
