<?xml version="1.0" encoding="UTF-8" standalone="no"?><svg height="22" viewBox="0 0 5.8208332 5.8208335" width="22" xmlns="http://www.w3.org/2000/svg"><sodipodi:namedview/><metadata><rdf:RDF><cc:Work><dc:format>image/svg+xml</dc:format><dc:type/><dc:title/></cc:Work></rdf:RDF></metadata><path d="m11.853516 0-9.1171879 7.3339844h-2.7363281v7.3320316h2.7363281l9.1171879 7.333984zm2.740234 6.125-.0059 2.2578125c.77793.5416913 1.291015 1.4297334 1.291015 2.4570315.000001 1.027295-.51308 1.913387-1.291015 2.455078l.0059 2.273437c1.904652-.75242 3.257813-2.589718 3.257812-4.722656 0-2.1330163-1.353055-3.9683344-3.257812-4.720703z" fill="#fff" transform="scale(.26458333)"/><path d="m3.8721151.51159669v.55448811c.8330692.3002018 1.4061157 1.0013899 1.4061157 1.8035074 0 .8021172-.5730465 1.5033056-1.4061157 1.8035074v.5550051c1.1225448-.327687 1.9487184-1.2487026 1.9487182-2.3585125 0-1.109805-.8261813-2.03030467-1.9487182-2.35799551z" fill="#fff" opacity=".3"/></svg>