<?xml version="1.0" encoding="UTF-8" standalone="no"?>
<!-- Created with Inkscape (http://www.inkscape.org/) -->

<svg
   xmlns:dc="http://purl.org/dc/elements/1.1/"
   xmlns:cc="http://creativecommons.org/ns#"
   xmlns:rdf="http://www.w3.org/1999/02/22-rdf-syntax-ns#"
   xmlns:svg="http://www.w3.org/2000/svg"
   xmlns="http://www.w3.org/2000/svg"
   xmlns:xlink="http://www.w3.org/1999/xlink"
   xmlns:sodipodi="http://sodipodi.sourceforge.net/DTD/sodipodi-0.dtd"
   xmlns:inkscape="http://www.inkscape.org/namespaces/inkscape"
   width="16"
   height="16"
   viewBox="0 0 4.2333332 4.2333332"
   version="1.1"
   id="svg8"
   inkscape:version="0.92+devel (4546dc857e, 2017-07-25, custom)"
   sodipodi:docname="glyph-wayland.svg">
  <defs
     id="defs2">
    <linearGradient
       gradientTransform="matrix(0.10583333,0,0,0.10583333,-42.4491,-50.220678)"
       xlink:href="#d"
       id="linearGradient4205"
       x1="388.57101"
       y1="523.79797"
       x2="428.57101"
       y2="523.79797"
       gradientUnits="userSpaceOnUse" />
    <linearGradient
       gradientTransform="matrix(1.25,0,0,1.26667,-92.14,-151.08)"
       gradientUnits="userSpaceOnUse"
       x2="392.89999"
       y2="546.58002"
       x1="400.57001"
       y1="537.59998"
       id="d">
      <stop
         stop-color="#ffc35a"
         id="stop3" />
      <stop
         stop-color="#faae2a"
         offset="1"
         id="stop5" />
    </linearGradient>
  </defs>
  <sodipodi:namedview
     id="base"
     pagecolor="#002466"
     bordercolor="#ffffff"
     borderopacity="0.38039216"
     inkscape:pageopacity="1"
     inkscape:pageshadow="2"
     inkscape:zoom="18.208"
     inkscape:cx="10.094581"
     inkscape:cy="7.9162778"
     inkscape:document-units="px"
     inkscape:current-layer="svg8"
     inkscape:document-rotation="0"
     showgrid="false"
     inkscape:showpageshadow="false"
     borderlayer="true"
     inkscape:window-width="1920"
     inkscape:window-height="1051"
     inkscape:window-x="0"
     inkscape:window-y="0"
     inkscape:window-maximized="1"
     units="px" />
  <metadata
     id="metadata5">
    <rdf:RDF>
      <cc:Work
         rdf:about="">
        <dc:format>image/svg+xml</dc:format>
        <dc:type
           rdf:resource="http://purl.org/dc/dcmitype/StillImage" />
        <dc:title></dc:title>
      </cc:Work>
    </rdf:RDF>
  </metadata>
  <path
     inkscape:connector-curvature="0"
     style="opacity:0.9;fill:#d0d0d0;fill-opacity:1;stroke-width:0.74083328;stroke-opacity:0.55026502"
     d="M 2.1166666,0 C 0.94403336,0 0,0.9440333 0,2.1166666 c 0,1.1726333 0.94403336,2.1166666 2.1166666,2.1166666 1.1726332,0 2.1166666,-0.9440333 2.1166666,-2.1166666 0,-0.5993255 -0.2476555,-1.1377986 -0.6453354,-1.5221809 l -0.055811,0.4733561 h 0.021497 l 0.046095,-0.036794 h 0.012402 v 0.010956 C 3.5485849,1.0884834 3.487083,1.2156643 3.4275941,1.4235823 3.4050238,1.6021528 3.3670361,1.7673979 3.3136993,1.919056 3.2665134,2.0756089 3.2430028,2.2198071 3.243006,2.3518978 L 3.153709,2.6125537 c -2.1e-6,0.022016 0.033791,0.043926 0.1014925,0.065939 -0.012312,0.051369 -0.030781,0.077101 -0.055397,0.077101 v 0.014676 h 0.021498 v 0.010956 c -2.1e-6,0.026908 -0.034847,0.040516 -0.1045932,0.040514 l 0.012402,0.014676 v 0.051263 h -0.021497 c 0.014357,0.051371 0.045005,0.077103 0.092191,0.077101 v 0.025632 h -0.092191 v 0.014676 c 0.030769,0 0.046093,0.022116 0.046095,0.066146 l -0.1291911,0.051263 0.012196,0.014676 v 0.010956 c -3.2e-6,0.017124 -0.015325,0.025838 -0.046095,0.025838 v 0.014676 c 0.038974,0 0.058494,0.00852 0.058498,0.025632 C 2.9937252,3.2362917 2.9208929,3.3451808 2.8306288,3.5408697 2.7383128,3.7145455 2.6583408,3.801319 2.5906434,3.801319 H 2.5658383 C 2.5145491,3.762179 2.4725686,3.6324484 2.4397476,3.4122981 2.3084507,3.07718 2.242756,2.8804478 2.242757,2.8217399 2.242756,2.6700818 2.2007745,2.5084515 2.1166666,2.3372217 2.0940998,2.2613953 2.0787754,2.1661119 2.0705712,2.051141 L 2.015174,2.0364649 C 1.875673,2.288418 1.8028371,2.485356 1.7966861,2.6272298 c -0.038981,0.08317 -0.069832,0.1833432 -0.092398,0.3007568 0.084109,0.026909 0.1262962,0.052641 0.1262972,0.077101 v 0.014676 C 1.7649385,3.0099736 1.7187588,2.9916886 1.692093,2.9647796 1.6633719,3.0308256 1.6253797,3.2141567 1.5781981,3.5150302 1.5412707,3.6544604 1.4950931,3.7242164 1.4397052,3.7242164 1.2837937,3.6630624 1.1534484,3.5628886 1.0488248,3.4234596 c -0.016412,0 -0.04307,-0.069757 -0.0799951,-0.2091862 -0.0225668,0 -0.03789,-0.069757 -0.0460954,-0.2091862 C 0.84477971,2.8069519 0.79146413,2.5806652 0.76274413,2.3262662 V 1.9446874 h -0.0124024 l -0.0553971,0.014676 v -0.014676 c 0,-0.017124 0.0184696,-0.02563 0.0553971,-0.025632 L 0.73814614,1.6989144 V 1.5265218 L 0.6488493,0.9760645 V 0.7412468 C 0.6878277,0.5944834 0.75562157,0.5211083 0.85204101,0.5211051 c 0,0 0.008438,-6.311e-4 0.0367936,0.036587 L 0.85204101,0.5467371 C 1.0017962,0.7424304 1.0899543,0.9074687 1.1166243,1.042004 h 0.1045931 v 0.025838 h -0.079995 v 0.029352 c 0.030772,0.1125238 0.053233,0.1686736 0.067593,0.1686715 H 1.23362 l 0.05519,-0.014676 0.012402,0.014676 0.012402,-0.014676 0.012196,0.014676 v 0.010955 C 1.284781,1.3061755 1.257075,1.3465815 1.242714,1.3979503 h -0.0091 v 0.025632 h 0.021497 c 0.02872,0.408505 0.082034,0.7179494 0.1599902,0.9283154 l 0.046095,0.036794 h 0.024598 c 0.030772,9e-7 0.095419,-0.1431282 0.1938895,-0.429328 C 1.7432855,1.8297209 1.789461,1.7159375 1.8181831,1.6180925 L 1.8057807,1.5777848 C 1.869375,1.4823887 1.9350729,1.4347477 2.0027713,1.4347445 h 0.021498 c 0.04308,3.2e-6 0.073933,0.026804 0.092397,0.080615 0.05744,0.080725 0.1036175,0.2019461 0.1384927,0.3633885 l 0.1723925,0.3815791 c 0.022565,0.02691 0.033691,0.057326 0.033693,0.091571 0.063594,0.1443239 0.1211046,0.2398107 0.1723925,0.2862874 h 0.037 c 0.043079,0 0.1003822,-0.1786435 0.1721859,-0.5357812 0.012306,2.1e-6 0.046307,-0.095282 0.1016991,-0.2860807 V 1.8016473 L 2.7506326,1.7760157 2.7043305,1.7906917 H 2.6460396 V 1.7613392 L 2.7628282,1.7501774 H 2.990618 C 3.078828,1.4346279 3.1598482,1.1900509 3.2337039,1.0163721 3.2583186,0.6592417 3.2921118,0.4808018 3.3351964,0.4807975 L 3.4129182,0.4435904 C 3.0550314,0.166353 2.6064358,0 2.1166666,0 Z m 0.1845881,0.7302913 h 0.0339 v 0.010956 c -2.1e-6,0.017126 -0.011334,0.025634 -0.0339,0.025632 l -0.012196,0.014676 v 0.014676 l -0.0339,-0.014676 V 0.7559229 Z M 2.1290689,0.8733317 v 0.014676 c -1.1e-6,0.019573 -0.049324,0.040413 -0.1477946,0.062425 V 0.9245944 l 0.0678,-0.036587 0.012196,0.010956 h 0.0093 z M 1.7966861,1.0054166 v 0.010956 c -0.043083,0.039141 -0.1129746,0.074656 -0.2093929,0.1064533 v -0.025632 c 0.016412,2.1e-6 0.024804,-0.013605 0.024805,-0.040514 z m 0.5845638,0.1283643 0.012402,0.014676 v 0.010955 l -0.021497,0.029352 h -0.012403 l -0.024598,-0.029352 v -0.010955 z m 0.4247802,0.014676 h 0.012196 v 0.010955 l -0.021498,0.029352 h -0.012402 v -0.014675 z m -0.1938899,0.1835547 0.046095,0.036587 c -0.0082,0.026909 -0.030668,0.04031 -0.067593,0.040308 l -0.024598,-0.040307 c -2.1e-6,-0.012228 0.015322,-0.024355 0.046096,-0.036588 z m 0.2769856,0.1686719 0.0091,0.014676 v 0.010955 l -0.0091,0.014676 h -0.024598 v -0.014676 z m -0.436976,0.132085 v 0.010955 l -0.058498,0.055191 h -0.0339 v -0.014676 c -2.1e-6,-0.022013 0.030851,-0.039236 0.092397,-0.05147 z M 2.0490738,2.755594 h 0.012196 V 2.781226 L 1.9688718,2.83621 1.9566758,2.821534 V 2.795902 Z m -0.0339,0.3412712 h 0.00909 l 0.037,0.040307 -0.012196,0.010956 H 2.0366718 L 2.015174,3.1115412 Z"
     id="rect20" />
</svg>
