<?xml version="1.0" encoding="UTF-8" standalone="no"?>
<!-- Created with Inkscape (http://www.inkscape.org/) -->

<svg
   xmlns:dc="http://purl.org/dc/elements/1.1/"
   xmlns:cc="http://creativecommons.org/ns#"
   xmlns:rdf="http://www.w3.org/1999/02/22-rdf-syntax-ns#"
   xmlns:svg="http://www.w3.org/2000/svg"
   xmlns="http://www.w3.org/2000/svg"
   xmlns:sodipodi="http://sodipodi.sourceforge.net/DTD/sodipodi-0.dtd"
   xmlns:inkscape="http://www.inkscape.org/namespaces/inkscape"
   width="16"
   height="16"
   viewBox="0 0 4.2333332 4.2333332"
   version="1.1"
   id="main"
   inkscape:version="0.92+devel (039bd1db37, 2017-09-02, custom)"
   sodipodi:docname="glyph-im-qq.svg">
  <defs
     id="ol-defs" />
  <sodipodi:namedview
     id="base"
     pagecolor="#002466"
     bordercolor="#ffffff"
     borderopacity="0.30"
     inkscape:pageopacity="1"
     inkscape:pageshadow="2"
     inkscape:zoom="40.551468"
     inkscape:document-units="px"
     inkscape:current-layer="main"
     inkscape:document-rotation="0"
     showgrid="false"
     inkscape:showpageshadow="false"
     borderlayer="true"
     inkscape:window-width="1920"
     inkscape:window-height="1025"
     inkscape:window-x="0"
     inkscape:window-y="26"
     inkscape:window-maximized="1"
     units="px"
     inkscape:cx="4.0666159"
     inkscape:cy="7.9030552" />
  <metadata
     id="metadata5">
    <rdf:RDF>
      <cc:Work
         rdf:about="">
        <dc:format>image/svg+xml</dc:format>
        <dc:type
           rdf:resource="http://purl.org/dc/dcmitype/StillImage" />
        <dc:title></dc:title>
      </cc:Work>
    </rdf:RDF>
  </metadata>
  <path
     style="fill:#d0d0d0;stroke-width:1.73000014;stroke-linecap:square"
     d="M 8 0 A 8.0000002 8.0000002 0 0 0 0 8 A 8.0000002 8.0000002 0 0 0 8 16 A 8.0000002 8.0000002 0 0 0 12.890625 14.320312 L 14.570312 16 L 16 14.570312 L 14.324219 12.894531 A 8.0000002 8.0000002 0 0 0 16 8 A 8.0000002 8.0000002 0 0 0 8 0 z M 8 2 A 6.0000003 6.0000003 0 0 1 14 8 A 6.0000003 6.0000003 0 0 1 12.894531 11.464844 L 11.121094 9.6914062 L 9.6914062 11.121094 L 11.460938 12.890625 A 6.0000003 6.0000003 0 0 1 8 14 A 6.0000003 6.0000003 0 0 1 2 8 A 6.0000003 6.0000003 0 0 1 8 2 z "
     transform="scale(0.26458333)"
     id="path816"
     inkscape:label="#" />
</svg>
