<?xml version="1.0" encoding="UTF-8" standalone="no"?><svg height="22" viewBox="0 0 5.8208332 5.8208335" width="22" xmlns="http://www.w3.org/2000/svg"><sodipodi:namedview/><metadata><rdf:RDF><cc:Work><dc:format>image/svg+xml</dc:format><dc:type/><dc:title/></cc:Work></rdf:RDF></metadata><path d="m2.9104167-.00000001c-1.6024043 0-2.90937936 1.30697491-2.90937936 2.90937951 0 1.6024041 1.30697506 2.9114539 2.90937936 2.9114539 1.6024044 0 2.9093793-1.3090498 2.9093793-2.9114539 0-.1313742-.012035-.2597388-.029045-.3865804h-.0027617-.7835336-2.0940341v.7793846h2.0926507c-.1831262.9922716-1.0456901 1.7399567-2.0926507 1.7399567-1.1814178 0-2.12999479-.9513431-2.12999479-2.1327609 0-1.1814182.94857699-2.12999505 2.12999479-2.12999505.2896149 0 .5649314.0576484.8160368.16113275l.2966731-.7171444c-.3431485-.14290405-.7188122-.22337284-1.1127148-.22337281z" fill="#d0d0d0"/></svg>