<?xml version="1.0" encoding="UTF-8" standalone="no"?>
<!-- Created with Inkscape (http://www.inkscape.org/) -->

<svg
     xmlns:dc="http://purl.org/dc/elements/1.1/"
     xmlns:cc="http://creativecommons.org/ns#"
     xmlns:rdf="http://www.w3.org/1999/02/22-rdf-syntax-ns#"
     xmlns:svg="http://www.w3.org/2000/svg"
     xmlns="http://www.w3.org/2000/svg"
     xmlns:sodipodi="http://sodipodi.sourceforge.net/DTD/sodipodi-0.dtd"
     xmlns:inkscape="http://www.inkscape.org/namespaces/inkscape"
     width="16"
     height="16"
     viewBox="0 0 4.2333333 4.2333333"
     version="1.1"
     id="svg8"
     inkscape:version="0.92+devel (fa9b7f7a5b, 2017-07-19, custom)"
     sodipodi:docname="glyph--apple-exe.svg">
    <defs
         id="defs2" />
    <sodipodi:namedview
         id="base"
         pagecolor="#002466"
         bordercolor="#ffffff"
         borderopacity="0.38039216"
         inkscape:pageopacity="1"
         inkscape:pageshadow="2"
         inkscape:zoom="26.8125"
         inkscape:cx="8"
         inkscape:cy="8"
         inkscape:document-units="px"
         inkscape:current-layer="svg8"
         inkscape:document-rotation="0"
         showgrid="false"
         inkscape:showpageshadow="false"
         borderlayer="true"
         inkscape:window-width="1920"
         inkscape:window-height="1051"
         inkscape:window-x="0"
         inkscape:window-y="0"
         inkscape:window-maximized="1"
         units="px" />
    <metadata
         id="metadata5">
        <rdf:RDF>
            <cc:Work
                 rdf:about="">
                <dc:format>image/svg+xml</dc:format>
                <dc:type
                     rdf:resource="http://purl.org/dc/dcmitype/StillImage" />
                <dc:title></dc:title>
            </cc:Work>
        </rdf:RDF>
    </metadata>
    <path
         style="fill:#d0d0d0;fill-rule:evenodd;stroke-width:0.99999994"
         d="M 0 0 L 0 16 L 16 16 L 16 0 L 0 0 z M 0.7265625 3.6367188 L 15.273438 3.6367188 L 15.273438 15.273438 L 0.7265625 15.273438 L 0.7265625 3.6367188 z M 9.8984375 4.8710938 C 9.6686332 4.8830333 9.424335 4.9522214 9.1660156 5.078125 C 8.9071361 5.2059252 8.6932546 5.3659097 8.5253906 5.5585938 C 8.1891846 5.9391412 8 6.404949 8 6.8398438 C 8 6.8999496 8.0031137 6.9573691 8.0097656 7.0117188 C 8.5319402 7.0541564 9.0140053 6.7857349 9.4121094 6.3203125 C 9.7419941 5.9288056 9.90625 5.5057504 9.90625 5.0527344 C 9.90625 4.9926474 9.9050895 4.9316493 9.8984375 4.8710938 z M 9.8554688 7.0214844 C 9.574225 6.9976053 9.2309908 7.058697 8.8242188 7.2050781 C 8.3940771 7.3629263 8.1412749 7.4414062 8.0664062 7.4414062 C 7.9662662 7.4414062 7.7385341 7.3737537 7.3828125 7.2402344 C 7.0260848 7.1071421 6.7384301 7.0390625 6.5195312 7.0390625 C 6.119469 7.0457145 5.7481054 7.1494249 5.4042969 7.3535156 C 5.0604846 7.5576003 4.7846119 7.8370311 4.578125 8.1894531 C 4.315379 8.6282056 4.1855469 9.1507607 4.1855469 9.7578125 C 4.1855469 10.287761 4.2824875 10.835106 4.4765625 11.400391 C 4.6577776 11.923743 4.8885667 12.383429 5.1699219 12.779297 C 5.4321561 13.150004 5.651162 13.411803 5.8261719 13.564453 C 6.1003694 13.819409 6.3747931 13.939489 6.6503906 13.927734 C 6.8316054 13.92157 7.0690639 13.859331 7.3632812 13.740234 C 7.6570492 13.621716 7.9314143 13.564453 8.1875 13.564453 C 8.4316749 13.564453 8.699653 13.621693 8.9902344 13.740234 C 9.279866 13.859331 9.5280619 13.917969 9.734375 13.917969 C 10.021768 13.91126 10.290524 13.794815 10.541016 13.564453 C 10.702605 13.424109 10.911883 13.169805 11.167969 12.804688 C 11.355837 12.536862 11.517312 12.246159 11.654297 11.929688 C 11.710767 11.795495 11.764125 11.655697 11.814453 11.509766 C 11.582413 11.412477 11.374258 11.27489 11.1875 11.097656 C 10.775418 10.715767 10.566745 10.236181 10.560547 9.6582031 C 10.553837 8.9161738 10.89068 8.3368054 11.572266 7.9238281 C 11.191493 7.3825862 10.617569 7.0829811 9.8554688 7.0214844 z "
         transform="scale(0.26458333)"
         id="path1417"
         inkscape:label="#" />
</svg>
