<?xml version="1.0" encoding="UTF-8" standalone="no"?><svg viewBox="0 0 16 16" xmlns="http://www.w3.org/2000/svg"><metadata><rdf:RDF><cc:Work><dc:format>image/svg+xml</dc:format><dc:type/><dc:title/></cc:Work></rdf:RDF></metadata><sodipodi:namedview/><path d="m8 0a1.9999995 3 0 0 0 -2 3 1.9999995 3 0 0 0  .0052083.1848959 3 1.9999995 45 0 0 -.1276042-.1328126 3 1.9999995 45 0 0 -3.5338541-.7083333 3 1.9999995 45 0 0  .7057292 3.5364583 3 1.9999995 45 0 0  .1328125.125 3 1.9999995 0 0 0 -.1822917-.0052083 3 1.9999995 0 0 0 -3 2 3 1.9999995 0 0 0 3 2 3 1.9999995 0 0 0  .1848959-.0052083 1.9999995 3 45 0 0 -.1354167.1276043 1.9999995 3 45 0 0 -.7057292 3.533855 1.9999995 3 45 0 0 3.5338541-.70573 1.9999995 3 45 0 0  .1276042-.132813 1.9999995 3 0 0 0 -.0052083.182292 1.9999995 3 0 0 0 2 3 1.9999995 3 0 0 0 2-3 1.9999995 3 0 0 0 -.0052-.184896 3 1.9999995 45 0 0  .127604.135417 3 1.9999995 45 0 0 3.533855.70573 3 1.9999995 45 0 0 -.705738-3.533855 3 1.9999995 45 0 0 -.132813-.1276043 3 1.9999995 0 0 0  .182292.0052083 3 1.9999995 0 0 0 3-2 3 1.9999995 0 0 0 -3-2 3 1.9999995 0 0 0 -.184896.00521 1.9999995 3 45 0 0  .135417-.125 1.9999995 3 45 0 0  .70573-3.53646 1.9999995 3 45 0 0 -3.533855.7083333 1.9999995 3 45 0 0 -.127604.1328126 1.9999995 3 0 0 0  .005208-.1848959 1.9999995 3 0 0 0 -2-3zm .994792 5.5963541a1.9999995 3 45 0 0  .419271.9895834 1.9999995 3 45 0 0  .986979.4192708 3 1.9999995 0 0 0 -.401042.9947917 3 1.9999995 0 0 0  .403646.9947917 3 1.9999995 45 0 0 -.989583.4192708 3 1.9999995 45 0 0 -.419271.9869795 1.9999995 3 0 0 0 -.994792-.401042 1.9999995 3 0 0 0 -.9947917.401042 1.9999995 3 45 0 0 -.4192708-.9869795 1.9999995 3 45 0 0 -.9869791-.4192708 3 1.9999995 0 0 0  .4010416-.9947917 3 1.9999995 0 0 0 -.4010416-.9947917 3 1.9999995 45 0 0  .9869791-.4192708 3 1.9999995 45 0 0  .4192708-.9869791 1.9999995 3 0 0 0  .9947917.4010416 1.9999995 3 0 0 0  .994792-.4036459zm-.994792 1.4036459c-.554 0-1 .446-1 1s .446 1 1 1 1-.446 1-1-.446-1-1-1z" fill="#d0d0d0"/></svg>