<?xml version="1.0" encoding="UTF-8" standalone="no"?>
<!-- Created with Inkscape (http://www.inkscape.org/) -->

<svg
   xmlns:dc="http://purl.org/dc/elements/1.1/"
   xmlns:cc="http://creativecommons.org/ns#"
   xmlns:rdf="http://www.w3.org/1999/02/22-rdf-syntax-ns#"
   xmlns:svg="http://www.w3.org/2000/svg"
   xmlns="http://www.w3.org/2000/svg"
   xmlns:sodipodi="http://sodipodi.sourceforge.net/DTD/sodipodi-0.dtd"
   xmlns:inkscape="http://www.inkscape.org/namespaces/inkscape"
   width="16"
   height="16"
   viewBox="0 0 4.2333332 4.2333332"
   version="1.1"
   id="svg8"
   inkscape:version="0.92+devel (d0930c9bda, 2017-08-13, custom)"
   sodipodi:docname="glyph-category.svg">
  <defs
     id="defs2" />
  <sodipodi:namedview
     id="base"
     pagecolor="#002466"
     bordercolor="#ffffff"
     borderopacity="0.38039216"
     inkscape:pageopacity="1"
     inkscape:pageshadow="2"
     inkscape:zoom="10.137867"
     inkscape:cx="55.90616"
     inkscape:cy="27.302424"
     inkscape:document-units="px"
     inkscape:current-layer="svg8"
     inkscape:document-rotation="0"
     showgrid="false"
     inkscape:showpageshadow="false"
     borderlayer="true"
     inkscape:window-width="1920"
     inkscape:window-height="1027"
     inkscape:window-x="0"
     inkscape:window-y="24"
     inkscape:window-maximized="1"
     units="px" />
  <metadata
     id="metadata5">
    <rdf:RDF>
      <cc:Work
         rdf:about="">
        <dc:format>image/svg+xml</dc:format>
        <dc:type
           rdf:resource="http://purl.org/dc/dcmitype/StillImage" />
        <dc:title></dc:title>
      </cc:Work>
    </rdf:RDF>
  </metadata>
  <path
     style="fill:#d0d0d0;stroke-width:0.22834063"
     d="m 1.6448604,0.21884972 v 0.506429 A 1.6789091,1.6789091 0 0 0 0.5064284,1.8637105 H -2e-7 v 0.9436116 h 0.5064286 a 1.6789091,1.6789091 0 0 0 1.610238,1.2071614 1.6789091,1.6789091 0 0 0 1.610238,-1.2071614 h 0.506429 V 1.8637105 H 3.7269044 A 1.6789091,1.6789091 0 0 0 2.5884724,0.72527872 v -0.506429 z m 0.471806,1.60765378 a 0.50915743,0.50915743 0 0 1 0.509013,0.5090128 0.50915743,0.50915743 0 0 1 -0.509013,0.5095296 0.50915743,0.50915743 0 0 1 -0.509013,-0.5095296 0.50915743,0.50915743 0 0 1 0.509013,-0.5090128 z"
     id="rect1535"
     inkscape:connector-curvature="0" />
</svg>
