<?xml version="1.0" encoding="UTF-8" standalone="no"?>
<!-- Created with Inkscape (http://www.inkscape.org/) -->

<svg
   xmlns:dc="http://purl.org/dc/elements/1.1/"
   xmlns:cc="http://creativecommons.org/ns#"
   xmlns:rdf="http://www.w3.org/1999/02/22-rdf-syntax-ns#"
   xmlns:svg="http://www.w3.org/2000/svg"
   xmlns="http://www.w3.org/2000/svg"
   xmlns:sodipodi="http://sodipodi.sourceforge.net/DTD/sodipodi-0.dtd"
   xmlns:inkscape="http://www.inkscape.org/namespaces/inkscape"
   width="16mm"
   height="16mm"
   viewBox="0 0 16 16"
   version="1.1"
   id="svg8"
   inkscape:version="0.92+devel (572d1a9d8b, 2017-07-17, custom)"
   sodipodi:docname="glyph-archive.svg">
  <defs
     id="defs2" />
  <sodipodi:namedview
     id="base"
     pagecolor="#002466"
     bordercolor="#ffffff"
     borderopacity="0.38039216"
     inkscape:pageopacity="1"
     inkscape:pageshadow="2"
     inkscape:zoom="7.1685545"
     inkscape:cx="7.0795292"
     inkscape:cy="30.23622"
     inkscape:document-units="mm"
     inkscape:current-layer="layer1"
     inkscape:document-rotation="0"
     showgrid="false"
     inkscape:showpageshadow="false"
     borderlayer="true"
     inkscape:window-width="1920"
     inkscape:window-height="1051"
     inkscape:window-x="0"
     inkscape:window-y="0"
     inkscape:window-maximized="1"
     inkscape:snap-page="true"
     inkscape:snap-grids="false"
     inkscape:snap-to-guides="false" />
  <metadata
     id="metadata5">
    <rdf:RDF>
      <cc:Work
         rdf:about="">
        <dc:format>image/svg+xml</dc:format>
        <dc:type
           rdf:resource="http://purl.org/dc/dcmitype/StillImage" />
        <dc:title></dc:title>
      </cc:Work>
    </rdf:RDF>
  </metadata>
  <g
     inkscape:label="#"
     inkscape:groupmode="layer"
     id="layer1"
     transform="translate(0,-281)">
    <path
       style="opacity:1;fill:#d0d0d0;stroke-width:0.44800463"
       d="m 2.4739796e-5,281 v 13.87881 H 15.999998 V 281 Z M 6.390071,281.75981 h 1.7309137 c 0.085819,0 0.1549455,0.0699 0.1549455,0.15569 v 1.59337 c 0,0.0858 -0.069125,0.15489 -0.1549455,0.15489 H 6.390071 c -0.085818,0 -0.1557745,-0.0691 -0.1557745,-0.15489 v -1.59337 c 0,-0.0858 0.069955,-0.15569 0.1557745,-0.15569 z m 2.0408046,1.9041 h 1.7317424 c 0.08582,0 0.154945,0.0691 0.154945,0.15489 v 1.59337 c 0,0.0858 -0.06912,0.15489 -0.154945,0.15489 H 8.4308756 c -0.085818,0 -0.1549455,-0.0691 -0.1549455,-0.15489 v -1.59337 c 0,-0.0858 0.069125,-0.15489 0.1549455,-0.15489 z m -1.9770035,2.5421 h 3.4054837 c 0.1558512,0 0.2744222,0.12522 0.2817192,0.28088 l 0.27509,5.86309 c 0.0073,0.15569 -0.143157,0.28172 -0.320662,0.28172 H 6.2177253 c -0.1775052,0 -0.327959,-0.12603 -0.3206622,-0.28172 l 0.2750899,-5.86309 c 0.00731,-0.15569 0.1258677,-0.28088 0.2817191,-0.28088 z m 0.4582075,4.01449 c -0.1085412,0 -0.1963749,0.0879 -0.1963749,0.19639 v 1.2031 c 0,0.10855 0.087835,0.19637 0.1963749,0.19637 h 2.4890689 c 0.1085412,0 0.1955462,-0.0879 0.1955462,-0.19637 v -1.2031 c 0,-0.10855 -0.087004,-0.19639 -0.1955462,-0.19639 z"
       id="rect17"
       inkscape:connector-curvature="0"
       inkscape:label="#2" />
    <path
       style="opacity:1;fill:#d0d0d0;stroke-width:0.1751435"
       d="M -4.1e-5,294.87881 H 16 V 297 H -4.1e-5 Z"
       id="rect20"
       inkscape:connector-curvature="0"
       inkscape:label="#1" />
  </g>
</svg>
