<?xml version="1.0" encoding="UTF-8" standalone="no"?><svg height="22" viewBox="0 0 5.8208332 5.8208335" width="22" xmlns="http://www.w3.org/2000/svg"><sodipodi:namedview/><metadata><rdf:RDF><cc:Work><dc:format>image/svg+xml</dc:format><dc:type/><dc:title/></cc:Work></rdf:RDF></metadata><path d="m4.751126.00000002c-1.1824441 0-1.4042628 1.72760748-.7389786 1.72760748.6650116 0 1.9215686-1.72760748.7389786-1.72760748zm-1.8213336.2657951c-.018627-.0000661-.038875.00159-.059838.00376-.6700839.081375-.4342475 1.17179968-.0775336 1.19213548.3454029.0198438.7232915-1.19388198.1371388-1.19577638zm-1.1618939.4025662c-.040995-.00238-.086376.005-.1369007.024871-.5385858.2126561-.0817245 1.09049058.2197894 1.03148058.2736665-.0534723.3128989-1.03166328-.0828887-1.05639388zm-.87909934.71768228c-.0468127-.00132-.0973191.014261-.1513364.052941-.4311253.3093746.1450552 1.0567802.39872184.9409007.2218902-.1015079.0803275-.9824196-.24744364-.9938417zm2.54630254.7135151c-.9341062-.0153987-2.1663635.4403778-2.376567 1.3559367-.22747294.9907138.937051 2.3653379 2.1519833 2.3653379.5976701 0 1.287015-.5251979 1.4161-1.190326.098489-.5071295-1.1591736-.3038951-1.1140489.0316389.0542502.4022646-.3033317.6011148-.6534839.3418364-1.1145864-.8255344 1.8455478-1.2374801 1.6503018-2.3653406-.06077-.3510968-.5138343-.5298837-1.0742853-.5391097z" fill="#fff" stroke-width=".415774"/></svg>