<?xml version="1.0" encoding="UTF-8" standalone="no"?><svg height="16" viewBox="0 0 4.2333333 4.2333333" width="16" xmlns="http://www.w3.org/2000/svg"><sodipodi:namedview/><metadata><rdf:RDF><cc:Work><dc:format>image/svg+xml</dc:format><dc:type/><dc:title/></cc:Work></rdf:RDF></metadata><path d="m2.1165231.00000006c-.8627222.00000014-1.56473.70200769-1.56473 1.56473005 0 .5698219.3071551 1.068057.7636894 1.3417718.00595-.1036241.031478-.2020763.073266-.2919144-.3319915-.23022961-.5490634-.61368301-.5490634-1.04985741 0-.70721596.5696223-1.27683803 1.2768381-1.27683809.707216 0 1.2771254.56962213 1.2771254 1.27683809 0 .4324703-.2137122.8129679-.5410184 1.0438237.042576.089543.068758.1878169.075564.2913398.450689-.275078.753346-.7698117.753346-1.3351635 0-.86272236-.702295-1.56473004-1.5650171-1.56473004zm0 .49849549c-.5872408 0-1.0662345.4789938-1.0662345 1.06623456 0 .3586616.1793511.6761883.4522374.8697094.064662-.07710401.1435014-.14191831.2321525-.19077861-.2371034-.1330842-.3967853-.3863246-.3967853-.6789308 0-.4317345.3468955-.77862986.7786299-.77862986.4317345 0 .7786299.34689536.7786299.77862986 0 .2904298-.1574263.5419004-.3916135.6757703.089264.048207.1682072.112627.233589.1893421.2693813-.193939.4459165-.5092456.4459165-.8651124-.0000001-.58724076-.479281-1.06623456-1.0665219-1.06623456zm0 .50883896a.55766397.55766397 0 0 0 -.5576829.55768289.55766397.55766397 0 0 0  .5576829.5576829.55766397.55766397 0 0 0  .5576829-.5576829.55766397.55766397 0 0 0 -.5576829-.5576829zm.00546 1.3569996c-.3249787 0-.5884259.2634472-.5884259.5884259 0 .504669.2634472 1.2805732.5884259 1.2805732.3249786 0 .5884258-.7661362.5884258-1.2805732 0-.3249787-.2634472-.5884259-.5884258-.5884259z" fill="#d0d0d0"/></svg>