<?xml version="1.0" encoding="UTF-8" standalone="no"?>
<!-- Created with Inkscape (http://www.inkscape.org/) -->

<svg
   xmlns:dc="http://purl.org/dc/elements/1.1/"
   xmlns:cc="http://creativecommons.org/ns#"
   xmlns:rdf="http://www.w3.org/1999/02/22-rdf-syntax-ns#"
   xmlns:svg="http://www.w3.org/2000/svg"
   xmlns="http://www.w3.org/2000/svg"
   xmlns:sodipodi="http://sodipodi.sourceforge.net/DTD/sodipodi-0.dtd"
   xmlns:inkscape="http://www.inkscape.org/namespaces/inkscape"
   width="12"
   height="12"
   viewBox="0 0 12 12"
   version="1.1"
   id="default16"
   inkscape:version="0.92+devel (1da36c2be7, 2017-09-15, custom)"
   sodipodi:docname="glyph-svn.svg">
  <defs
     id="defs5" />
  <sodipodi:namedview
     id="base"
     pagecolor="#002466"
     bordercolor="#ffffff"
     borderopacity="0.38039216"
     inkscape:pageopacity="1"
     inkscape:pageshadow="2"
     inkscape:zoom="26.28125"
     inkscape:cx="7.7336504"
     inkscape:cy="8"
     inkscape:document-units="px"
     inkscape:current-layer="default16"
     inkscape:document-rotation="0"
     showgrid="false"
     inkscape:showpageshadow="false"
     borderlayer="true"
     inkscape:window-width="1920"
     inkscape:window-height="1029"
     inkscape:window-x="0"
     inkscape:window-y="22"
     inkscape:window-maximized="1"
     units="px" />
  <metadata
     id="metadata5">
    <rdf:RDF>
      <cc:Work
         rdf:about="">
        <dc:format>image/svg+xml</dc:format>
        <dc:type
           rdf:resource="http://purl.org/dc/dcmitype/StillImage" />
        <dc:title></dc:title>
      </cc:Work>
    </rdf:RDF>
  </metadata>
  <path
     style="fill:#d0d0d0;stroke:none;stroke-width:0.99999744;stroke-dasharray:3, 0.9999975"
     d="m 3.75,0 a 1.5,1.5 0 0 0 -1.5,1.5 1.5,1.5 0 0 0 1,1.4121094 V 9.0878906 A 1.5,1.5 0 0 0 2.25,10.5 1.5,1.5 0 0 0 3.75,12 1.5,1.5 0 0 0 5.25,10.5 1.5,1.5 0 0 0 4.25,9.0878906 V 2.9121094 A 1.5,1.5 0 0 0 4.3535156,2.8710938 L 6.8789062,5.3964844 A 1.5,1.5 0 0 0 6.75,6 1.5,1.5 0 0 0 8.25,7.5 1.5,1.5 0 0 0 9.75,6 1.5,1.5 0 0 0 8.25,4.5 1.5,1.5 0 0 0 7.5644531,4.6679688 L 5.0820312,2.1855469 A 1.5,1.5 0 0 0 5.25,1.5 1.5,1.5 0 0 0 3.75,0 Z"
     id="path811"
     inkscape:label="#"
     inkscape:connector-curvature="0" />
</svg>
