<?xml version="1.0" encoding="UTF-8" standalone="no"?><svg height="16" viewBox="0 0 4.2333332 4.2333332" width="16" xmlns="http://www.w3.org/2000/svg"><sodipodi:namedview/><metadata><rdf:RDF><cc:Work><dc:format>image/svg+xml</dc:format><dc:type/><dc:title/></cc:Work></rdf:RDF></metadata><path d="m1.1140351 0c-.6171755 0-1.1140351.4968596-1.1140351 1.1140351v1.1140351c0 .5795584.4381594 1.0530332 1.0026316 1.1085955v.8966675l.8912281-.8912279h1.2254386c.6171754 0 1.1140349-.4968597 1.1140349-1.1140351v-1.1140351c0-.6171755-.4968595-1.1140351-1.1140349-1.1140351zm1.2130363.445614h.0008673c.2821072.002.5272259.095218.7191184.2756802.097166.091585.171636.2017111.2206312.3261599.048412.1231789.073155.2631479.074414.4153697v.0002228c.0004337.052286-.04448.095889-.098566.09639-.0000668.0000223-.00108.0002228-.00109.0002228-.053964 0-.098662-.042913-.099219-.094867v-.0002226c-.0020255-.2611632-.0819292-.4612996-.2352092-.6057566-.1551071-.1458116-.3474509-.2197446-.5813871-.2215015-.054202-.0002738-.098873-.044281-.098561-.096613.0005111-.052096.045178-.095085.0990014-.0950847zm-1.0048074.2252005c.039359.00669.075096.026976.1031352.060271.0003899.0004336.0006442.0007789.00109.00131.0008927.00105.00218.00232.0037.00413.00304.00363.00731.00881.01262.015231.010614.012834.025154.030825.041123.05048.031939.039311.069441.086161.092691.1174958h.0002229c.043376.059032.1005525.1516821.130119.2038768.056678.100965.02289.2061501-.037207.2521809l-.1011769.080942c-.041262.033272-.037305.098792-.037207.1005243.00105.00395.1490464.5574731.6995358.6991004.00173.0001014.06714.00403.099871-.037207l.081159-.1016121c.046299-.059953.1515001-.092721.2521809-.036336h.0002228c.052415.029171.1443787.086101.2038772.1301157.031448.023075.078005.060688.1172782.092691.038402.031303.069354.057177.070933.05853.064421.053741.080129.1380489.040471.2206312v.00457l-.00283.00479c-.043179.075576-.1005703.1461639-.1716736.2110575-.0005348.0004884-.0007705.00105-.00131.00152-.0004884.0006147.0000544.0001671-.0008674.00109l-.0006568.0004337-.0006568.0008674c-.060083.050395-.1207961.079431-.1821215.086601-.00895.00201-.01834.00275-.028939.00218-.026133.0003899-.052529-.00351-.077895-.011967l-.00544-.00196-.00326-.00392c-.089547-.025815-.2309492-.085032-.4684614-.2160647-.1572238-.086928-.2885508-.1763002-.3990509-.2643658-.058799-.046088-.118956-.09895-.1799428-.1592723l-.00109-.00109-.00109-.00131c-.0003231-.0004252-.00177-.00199-.00392-.00413h-.0004337l-.00609-.00609c-.00333-.00333-.00469-.00534-.00566-.00631-.0028-.00252-.00537-.00515-.00609-.00587-.0609884-.0610088-.1135416-.1215656-.1599289-.1797294-.0880533-.1106682-.1767209-.2420224-.2634953-.3992685-.1302864-.2372449-.189823-.3773484-.2160619-.4673725l-.00457-.00261-.00218-.0074c-.0081-.026198-.011963-.052912-.011963-.079199 0-.00945-.0000545-.018276.00218-.028069.00699-.057785.037371-.1154576.083335-.1727625v-.00522l.00522-.00566c.066429-.072313.1373558-.1299741.2130144-.1729802l.00457-.00261h.00326c.04083-.019634.081711-.026651.1194542-.020235zm1.0106821.2206311c.1711827.012165.3147099.072003.4160225.178855.1008514.1063235.1508978.2434337.1473051.3970925-.00117.050792-.044955.092256-.097478.092256h-.00239c-.053303-.00113-.096462-.044729-.095303-.096172v-.0004337c.00259-.1118053-.028297-.1936044-.096173-.2652368v-.0002189c-.06651-.070323-.154993-.1088809-.286126-.1181486-.053028-.00374-.09439-.049468-.090515-.1007419.00387-.051217.051571-.090995.1046584-.087252z" fill="#d0d0d0" fill-rule="evenodd" stroke-width=".264583"/></svg>