<?xml version="1.0" encoding="UTF-8" standalone="no"?><svg height="16" viewBox="0 0 4.2333332 4.2333332" width="16" xmlns="http://www.w3.org/2000/svg"><sodipodi:namedview/><metadata><rdf:RDF><cc:Work><dc:format>image/svg+xml</dc:format><dc:type/><dc:title/></cc:Work></rdf:RDF></metadata><path d="m2.2738816.00002599a.10782019.10782019 0 0 0 -.051175.0147534l-.9502067.54863911a.10782019.10782019 0 0 0 0 .1867217l.9502061.548178a.10782019.10782019 0 0 0  .1613642-.09313v-.265099c.3340601.059814.6294428.2615044.8026734.5615482.2080676.3603842.2080676.8032842 0 1.1636684l.4702618.2715531c.3046168-.5276111.3046168-1.1791635 0-1.7067747-.2700363-.4677162-.7443687-.775025-1.2729352-.8390952v-.28307932a.10782019.10782019 0 0 0 -.1101886-.10788369zm-1.69755404 1.29644821c-.30461644.5276111-.30461644 1.1791636 0 1.7067747.27003606.4677164.74436874.775025 1.27293494.8390953v.2830794a.10782019.10782019 0 0 0  .1101887.1078836.10782019.10782019 0 0 0  .051175-.014753l.9502069-.5486394a.10782019.10782019 0 0 0 0-.1867218l-.9502062-.5481779a.10782019.10782019 0 0 0 -.1613644.09313v.2650991c-.3340599-.0598141-.6294424-.2615046-.8026728-.5615484-.2080679-.3603843-.2080679-.8032842 0-1.1636684z" fill="#d0d0d0"/></svg>