<?xml version="1.0" encoding="UTF-8" standalone="no"?><svg height="16" viewBox="0 0 4.2333332 4.2333332" width="16" xmlns="http://www.w3.org/2000/svg"><sodipodi:namedview/><metadata><rdf:RDF><cc:Work><dc:format>image/svg+xml</dc:format><dc:type/><dc:title/></cc:Work></rdf:RDF></metadata><path d="m1.8551215.00036272v.52309053h.5230906v-.52309053zm-1.0498085.4353042-.3700088.37000854.3700088.37000854.3700085-.37000854zm2.6227077 0-.3700086.37000854.3700086.37000854.3700083-.37000854zm-1.3117166.32430167a1.3569537 1.3569537 0 0 0 -1.3566981 1.35669801 1.3569537 1.3569537 0 0 0 1.3566981 1.3574236 1.3569537 1.3569537 0 0 0 1.3574236-1.3574236 1.3569537 1.3569537 0 0 0 -1.3574236-1.35669801zm-2.1163041 1.09551561v.5230904h.5230905v-.5230904zm3.7095174 0v .5230904h.5238158l-.0007428-.5230904zm-2.9042044 1.2028906-.3700088.3700086.3700088.3700083.3700085-.3700083zm2.6227077 0-.3700086.3700086.3700086.3700083.3700083-.3700083zm-1.5728992.6515052v.5230905h.5230906v-.5230905z" fill="#d0d0d0" stroke-linecap="square" stroke-width=".370417"/></svg>