<?xml version="1.0" encoding="UTF-8" standalone="no"?>
<!-- Created with Inkscape (http://www.inkscape.org/) -->

<svg
   xmlns:dc="http://purl.org/dc/elements/1.1/"
   xmlns:cc="http://creativecommons.org/ns#"
   xmlns:rdf="http://www.w3.org/1999/02/22-rdf-syntax-ns#"
   xmlns:svg="http://www.w3.org/2000/svg"
   xmlns="http://www.w3.org/2000/svg"
   xmlns:xlink="http://www.w3.org/1999/xlink"
   xmlns:sodipodi="http://sodipodi.sourceforge.net/DTD/sodipodi-0.dtd"
   xmlns:inkscape="http://www.inkscape.org/namespaces/inkscape"
   width="16"
   height="16"
   viewBox="0 0 4.2333332 4.2333332"
   version="1.1"
   id="svg8"
   inkscape:version="0.92+devel (d0390b9f4f, 2017-07-31, custom)"
   sodipodi:docname="glyph-rosegarden.svg">
  <defs
     id="defs2">
    <linearGradient
       xlink:href="#linearGradient4174"
       id="linearGradient4181"
       x1="417.39099"
       y1="534.987"
       x2="402.98599"
       y2="504.664"
       gradientUnits="userSpaceOnUse"
       gradientTransform="matrix(0.26458333,0,0,0.26458333,-106.64804,-134.81697)" />
    <linearGradient
       id="linearGradient4174">
      <stop
         style="stop-color:#df2323;stop-opacity:1"
         offset="0"
         id="stop2" />
      <stop
         style="stop-color:#e76f6f;stop-opacity:1"
         offset="1"
         id="stop4" />
    </linearGradient>
  </defs>
  <sodipodi:namedview
     id="base"
     pagecolor="#002466"
     bordercolor="#ffffff"
     borderopacity="0.38039216"
     inkscape:pageopacity="1"
     inkscape:pageshadow="2"
     inkscape:zoom="25.75"
     inkscape:cx="10.094581"
     inkscape:cy="7.9162778"
     inkscape:document-units="px"
     inkscape:current-layer="svg8"
     inkscape:document-rotation="0"
     showgrid="false"
     inkscape:showpageshadow="false"
     borderlayer="true"
     inkscape:window-width="1920"
     inkscape:window-height="1051"
     inkscape:window-x="0"
     inkscape:window-y="0"
     inkscape:window-maximized="1"
     units="px" />
  <metadata
     id="metadata5">
    <rdf:RDF>
      <cc:Work
         rdf:about="">
        <dc:format>image/svg+xml</dc:format>
        <dc:type
           rdf:resource="http://purl.org/dc/dcmitype/StillImage" />
        <dc:title></dc:title>
      </cc:Work>
    </rdf:RDF>
  </metadata>
  <path
     style="opacity:0.3;fill:#d0d0d0;fill-rule:evenodd;stroke:none;stroke-width:0.26458335"
     d="m 2.3321917,2.8244269 c -0.023497,7.82e-4 -0.046604,0.00568 -0.069151,0.014 0.00188,0.00646 0.0044,0.014896 0.00594,0.020576 0.014603,0.053825 0.024763,0.1023169 0.036485,0.1455149 0.015712,0.057915 0.021704,0.092034 0.036273,0.1457269 0.017181,0.063329 0.034429,0.1068586 0.060879,0.1677875 0.024779,0.057084 0.039207,0.094942 0.060666,0.1344845 0.0246,0.045333 0.023117,0.1187274 0.036485,0.1679997 0.01519,0.05598 0.036669,0.1121049 0.048788,0.1567572 0.01536,0.056622 0.036273,0.07436 0.036273,0.1457269 0,0.083639 -0.015756,0.093493 -0.097151,0.056 C 2.4318417,3.9532785 2.4104297,3.8195104 2.2445883,3.7989101 1.903162,3.7527211 1.6870458,3.9552657 1.6822563,4.2333333 1.8998078,4.1178267 2.2311677,4.0172764 2.4026183,4.0237581 c 0.069742,0 0.1199472,0.0047 0.1580299,0.022273 0.028805,0.013273 -0.037971,0.1873026 -0.00955,0.1873026 h 0.2172117 c 0,0 0.00828,-0.2144149 0.00445,-0.23206 -0.011948,-0.055045 0,-0.1228756 0,-0.179242 0,-0.046883 0.012303,-0.1066547 0.012303,-0.1679996 0,-0.048129 0.014084,-0.088163 0.052394,-0.1234543 0.014324,-0.013197 0.024331,-0.029813 0.036485,-0.044758 0.047882,-0.058822 -0.162266,0.026695 -0.2186965,0.078697 0,0 -0.012303,-0.021189 -0.012303,-0.089515 0,-0.058407 -0.033951,-0.1140985 -0.048576,-0.1679996 -0.016198,-0.05972 -0.019364,-0.1049256 -0.03648,-0.1679996 -0.022491,-0.082901 -0.041712,-0.1541345 -0.060666,-0.2239995 -0.00511,-0.018843 -0.012042,-0.037846 -0.019091,-0.057485 -0.048763,-0.02069 -0.09803,-0.034693 -0.1459391,-0.033091 z"
     id="path10"
     inkscape:label="#"
     inkscape:connector-curvature="0" />
  <path
     style="opacity:0.7;fill:#d0d0d0;fill-opacity:1;fill-rule:evenodd;stroke:none;stroke-width:0.26458332"
     d="M 2.4096226,-5e-7 C 2.244569,0.0357075 2.1820071,0.3258533 2.0012902,0.3234836 1.7825462,0.3217336 1.5092396,0.3144936 1.2620495,0.2235746 1.0326773,0.2183946 0.98129998,0.594378 0.75486898,0.5693314 c -0.1747349,0.022224 -0.5986187,0.2189551 -0.6751804,0.5222412 -0.055048,0.1870952 -0.025669,0.396686 0.1003331,0.5498169 0.1548784,0.2346157 0.3516474,0.4494106 0.592029,0.599241 0.1762944,0.085621 0.37815322,0.0859 0.56254412,0.1461512 0.019333,0.014427 0.049344,0.045981 0.077212,0.075303 -0.00246,-0.00371 -9.893e-4,-0.00238 -0.00382,-0.00658 C 1.2571174,2.3014715 1.2385208,2.0606101 1.2628952,1.8596578 1.3615662,1.8330548 1.2839422,1.7090322 1.2478352,1.6278103 v -0.00106 C 1.4168367,1.7628159 1.6357221,1.8679541 1.8619247,1.8662333 2.075763,1.8569333 2.291585,1.6700653 2.5023171,1.7869003 2.6716422,1.8446763 2.8840889,2.01483 2.6928016,2.1763539 2.5583911,2.2505209 2.4146262,2.3138631 2.3201055,2.4364139 2.1764352,2.5516751 1.9948047,2.6118394 1.8271369,2.6875648 1.6618293,2.7786548 1.5132487,2.6032298 1.4603802,2.5252926 1.3654802,2.6133656 1.1804218,2.672755 1.2828352,2.8282009 1.3441442,3.1220567 1.6514068,3.4590486 1.902864,3.4730479 2.1542343,3.4537899 2.0254641,3.1360825 2.1094696,2.9872915 2.2774241,2.6781005 2.5498492,2.8790392 2.7294984,3.0161395 2.9186463,3.1400261 3.0031479,2.7827479 3.1800429,2.9368065 3.3010243,2.8822865 3.4528317,2.6832628 3.5977085,2.5891406 3.7099983,2.4321244 3.5391854,2.1882803 3.7818315,2.1226878 3.9391122,2.0042629 3.9556548,1.7854467 4.0932247,1.648598 4.2404499,1.4950674 4.2080537,1.1633662 3.939225,1.1927505 3.7639266,1.1911758 3.4313839,1.4757985 3.3972567,1.1238114 3.304693,0.8439868 3.2371337,0.5274205 2.986591,0.3385441 2.826506,0.1648845 2.5578718,0.0057208 2.4096226,-5e-7 Z M 2.3279566,0.1756354 C 2.2321956,0.2710154 2.2351756,0.4562975 2.073836,0.4571196 2.218195,0.4823506 2.2142263,0.5678129 2.067686,0.5345436 1.8941806,0.5147716 1.6505239,0.4838996 1.5581721,0.6728463 1.4391835,0.8340488 1.4710541,1.0380937 1.5778991,1.192542 1.6004991,1.4275954 1.8754051,1.25565 2.0278073,1.286936 2.2186863,1.219309 2.4355097,1.0576067 2.385867,0.8270583 2.355515,0.6627203 2.6064745,0.7157741 2.4874728,0.5527861 2.3670073,0.4874171 2.1863394,0.2222409 2.4399578,0.2220899 c 0.2602847,0.052154 0.367857,0.3207321 0.5290291,0.4999686 0.1259447,0.173766 0.2062943,0.3788094 0.2123328,0.5945743 0.027718,0.1533808 0.1165965,0.3540541 -0.038394,0.4698475 -0.161398,0.090619 0.1655296,0.042434 0.1332117,-0.088454 C 3.3021183,1.5464691 3.5260672,1.3999705 3.6320762,1.4419966 3.53506,1.5153096 3.2966735,1.7688332 3.5317431,1.8115109 c 0.070804,0.0069 0.1845365,0.025385 0.040091,0.013152 C 3.370053,1.7542309 3.1895966,1.8899069 3.0890472,2.0552378 2.9980779,2.1041988 3.1068735,1.8355815 3.0169261,1.7803294 3.0969842,1.5576781 2.9555486,1.3398771 2.7519855,1.2470572 2.5694398,1.2051147 2.5092487,0.9022434 2.4732589,0.8308763 2.4429535,1.0611217 2.2963774,1.2477015 2.062169,1.3049661 c 0.1621094,0.00463 0.3151699,0.090725 0.4834231,0.077 0.09287,0.040534 0.3730593,-0.038376 0.3099083,0.1092421 C 2.6538162,1.5208977 2.460217,1.4190812 2.2577443,1.4262992 2.0416046,1.3839607 1.8197006,1.3734444 1.6022913,1.3777235 1.4617141,1.2625818 1.440461,1.0428999 1.4224129,0.8690581 1.3992169,0.7105293 1.5856828,0.5846974 1.6230791,0.5044225 1.4918681,0.3924727 1.265328,0.5075925 1.1952316,0.645907 1.1233886,0.7939129 1.0329922,0.9356352 1.0121714,1.1015423 0.95782538,1.2321669 0.98553238,1.4035313 1.1581105,1.3898144 1.1123325,1.5713359 0.89812228,1.2599995 0.86008088,1.166027 0.83059588,0.9614191 0.99879988,0.8000355 1.083444,0.6306344 1.2176547,0.5112603 1.3787341,0.3772465 1.5651701,0.3763016 1.68786,0.3348976 1.7527137,0.4812114 1.8657452,0.4149076 2.0822215,0.4779906 2.1983627,0.3914496 2.2636837,0.231211 2.2818807,0.209324 2.3010647,0.18733 2.3279566,0.1756354 Z M 0.91777808,0.5954223 C 0.82476008,0.827718 0.70510888,1.1241321 0.87832408,1.348663 0.98873418,1.4898296 1.1826851,1.5966774 1.1377477,1.8062074 1.1301177,1.9386833 1.1226937,2.1515606 0.97399048,1.991813 0.80671508,1.9134081 0.73373878,1.7349765 0.57541478,1.6428745 0.44571408,1.5572714 0.22895518,1.336167 0.31450628,1.2341178 c 0.080876,0.181701 0.228454,0.3859244 0.444605,0.39709 0.27560362,-0.023975 -0.07923,-0.2723514 -0.096515,-0.4204233 -0.1088591,-0.1938019 -0.067837,-0.474416 0.1427572,-0.5805744 0.034996,-0.018146 0.073213,-0.030338 0.1124246,-0.0347878 z M 2.0309877,0.6976645 c 0.1230031,0.00657 0.2850684,0.1422931 0.2691811,0.1724541 -0.1244619,-0.116099 -0.088365,-0.00911 -0.074879,0.086545 0.011486,0.030876 0.012314,0.063236 -0.00573,0.093121 0.01289,-0.020013 0.011034,-0.055476 0.00573,-0.093121 C 2.1879048,0.8561645 2.0346875,0.771856 2.0269569,0.8438154 2.1229349,0.8853894 2.1710342,1.047651 2.0700169,1.0964512 2.1820963,0.9910106 2.0242249,0.7988357 1.9274717,0.9153001 2.1075008,1.0750666 1.6514125,1.0171082 1.8167448,0.8442401 1.8513548,0.7864851 1.9171473,0.7255438 1.9813504,0.703392 c 0.015342,-0.00502 0.032064,-0.00666 0.049636,-0.00573 z"
     id="path12"
     inkscape:connector-curvature="0"
     inkscape:label="#" />
</svg>
