<?xml version="1.0" encoding="UTF-8" standalone="no"?>
<!-- Created with Inkscape (http://www.inkscape.org/) -->

<svg
   xmlns:dc="http://purl.org/dc/elements/1.1/"
   xmlns:cc="http://creativecommons.org/ns#"
   xmlns:rdf="http://www.w3.org/1999/02/22-rdf-syntax-ns#"
   xmlns:svg="http://www.w3.org/2000/svg"
   xmlns="http://www.w3.org/2000/svg"
   xmlns:sodipodi="http://sodipodi.sourceforge.net/DTD/sodipodi-0.dtd"
   xmlns:inkscape="http://www.inkscape.org/namespaces/inkscape"
   width="16"
   height="16"
   viewBox="0 0 4.2333332 4.2333332"
   version="1.1"
   id="svg8"
   inkscape:version="0.92+devel (b8837397f6, 2017-07-27, custom)"
   sodipodi:docname="glyph-key-icon.svg">
  <defs
     id="defs2" />
  <sodipodi:namedview
     id="base"
     pagecolor="#002466"
     bordercolor="#ffffff"
     borderopacity="0.38039216"
     inkscape:pageopacity="1"
     inkscape:pageshadow="2"
     inkscape:zoom="36.415999"
     inkscape:cx="3.6246322"
     inkscape:cy="9.5754684"
     inkscape:document-units="px"
     inkscape:current-layer="svg8"
     inkscape:document-rotation="0"
     showgrid="false"
     inkscape:showpageshadow="false"
     borderlayer="true"
     inkscape:window-width="1920"
     inkscape:window-height="1051"
     inkscape:window-x="0"
     inkscape:window-y="0"
     inkscape:window-maximized="1"
     units="px"
     inkscape:object-paths="true"
     inkscape:snap-global="true"
     inkscape:snap-page="true"
     inkscape:snap-to-guides="false"
     inkscape:snap-grids="false" />
  <metadata
     id="metadata5">
    <rdf:RDF>
      <cc:Work
         rdf:about="">
        <dc:format>image/svg+xml</dc:format>
        <dc:type
           rdf:resource="http://purl.org/dc/dcmitype/StillImage" />
        <dc:title></dc:title>
      </cc:Work>
    </rdf:RDF>
  </metadata>
  <path
     style="font-variation-settings:normal;vector-effect:none;fill:#d0d0d0;fill-opacity:1;stroke:none;stroke-width:2;stroke-linecap:round;stroke-miterlimit:26.70000076"
     d="M 1.9257812 0 C 0.8584226 1.4802974e-16 0 0.8584226 0 1.9257812 L 0 14.074219 C 1.4802974e-16 15.141577 0.8584226 16 1.9257812 16 L 14.074219 16 C 15.141577 16 16 15.141577 16 14.074219 L 16 1.9257812 C 16 0.8584226 15.141577 0 14.074219 0 L 1.9257812 0 z M 6.2832031 2.4003906 C 6.8747583 2.4020477 7.4646732 2.6287354 7.9179688 3.0820312 C 8.6937569 3.8578191 8.8087888 5.0367789 8.2617188 5.9316406 L 8.2832031 5.9101562 C 8.2743212 5.9190759 8.2657873 5.9300043 8.2578125 5.9394531 C 8.2389451 5.9701202 8.2196282 5.9993252 8.1992188 6.0292969 C 8.1208805 6.1914877 8.1486444 6.392785 8.2832031 6.5273438 C 8.4211468 6.6652814 8.6287521 6.691264 8.7929688 6.6054688 C 8.7945308 6.60468 8.7955824 6.6038376 8.796875 6.6035156 C 8.89512 6.5479528 9.0154202 6.5564396 9.0917969 6.6328125 C 9.1857295 6.7267224 9.1766486 6.8878045 9.0722656 6.9921875 L 8.8105469 7.2539062 L 13.6875 12.132812 L 13.634766 13.212891 L 13.25 13.599609 L 12.068359 13.539062 L 11.832031 12.917969 L 11.300781 12.591797 L 11.208984 12.001953 L 10.302734 11.658203 L 9.890625 10.925781 L 9.5566406 10.916016 L 8.2480469 9.6054688 L 7.9746094 9.5820312 L 7.7988281 9.21875 L 7.3632812 9.0390625 L 7.1933594 8.8691406 L 6.9003906 9.1640625 C 6.7960039 9.268419 6.6349255 9.2775037 6.5410156 9.1835938 C 6.4681085 9.1106904 6.4583923 8.9978713 6.5058594 8.9023438 C 6.5060801 8.9003406 6.5073222 8.897038 6.5097656 8.8925781 C 6.600754 8.7271259 6.5757749 8.515228 6.4355469 8.375 C 6.3009878 8.2404413 6.0996909 8.2126774 5.9375 8.2910156 C 5.9075246 8.3114704 5.878346 8.3307495 5.8476562 8.3496094 C 5.8458959 8.3511021 5.8435429 8.3520002 5.8417969 8.3535156 C 4.946999 8.9005153 3.7679799 8.7855579 2.9921875 8.0097656 C 2.1006624 7.1182399 2.088749 5.7009394 2.9375 4.78125 L 2.9394531 4.7792969 C 2.9677996 4.7509504 2.9677996 4.7041277 2.9394531 4.6757812 C 2.9373819 4.6737305 2.9359001 4.6717013 2.9335938 4.6699219 C 2.8717705 4.6287817 2.8145728 4.5814619 2.7617188 4.5292969 C 2.3081393 4.0757176 2.3081393 3.3402984 2.7617188 2.8867188 C 3.2152982 2.4331391 3.950718 2.4331391 4.4042969 2.8867188 C 4.4560877 2.9392342 4.5020327 2.9972316 4.5429688 3.0585938 L 4.5449219 3.0566406 C 4.5466983 3.0589613 4.548729 3.0623814 4.5507812 3.0644531 C 4.5791277 3.0928147 4.6239973 3.0928147 4.6523438 3.0644531 C 5.1066112 2.6197886 5.695109 2.3987433 6.2832031 2.4003906 z M 3.5839844 3.2246094 C 3.4524463 3.2246094 3.3191108 3.2746403 3.21875 3.375 C 3.0180309 3.5757216 3.0180318 3.9027925 3.21875 4.1035156 C 3.3483367 4.2328038 3.5379362 4.283353 3.7148438 4.2363281 C 3.774775 4.2186362 3.8318305 4.1911728 3.8828125 4.15625 C 3.9054065 4.1402513 3.9275743 4.1229046 3.9472656 4.1035156 C 4.147985 3.902794 4.147985 3.5757239 3.9472656 3.375 C 3.8469046 3.2746405 3.7155224 3.2246093 3.5839844 3.2246094 z "
     id="rect894"
     transform="scale(0.26458333)" />
</svg>
