<?xml version="1.0" encoding="UTF-8" standalone="no"?><svg height="16" viewBox="0 0 4.2333332 4.2333332" width="16" xmlns="http://www.w3.org/2000/svg"><sodipodi:namedview/><metadata><rdf:RDF><cc:Work><dc:format>image/svg+xml</dc:format><dc:type/><dc:title/></cc:Work></rdf:RDF></metadata><path d="m2.3988281 0v8.2480469c.6283813.134449 1.0775723.6894277 1.078125 1.3320312.00103.7536599-.609621 1.3651809-1.3632812 1.3652339-.7536602-.000053-1.36430669-.611574-1.36328129-1.3652339.0005527-.6426035.44974369-1.1975822 1.07812499-1.3320312v-8.2402344c-1.23964239.03675478-1.8285156 1.0401991-1.8285156 2.2890625v11.40625c0 1.272282 1.0245927 2.296875 2.296875 2.296875h11.40625c1.272282 0 2.296875-1.024593 2.296875-2.296875v-11.40625c0-1.2722823-1.024593-2.296875-2.296875-2.296875h-2.007813l2.203126 8.2207031c.642038-.033025 1.219903.3869452 1.386718 1.0078125.194915.7275988-.237143 1.4753914-.964844 1.6699224-.727598.194914-1.47539-.237143-1.669921-.9648442-.16638-.6207531.123326-1.2734064.695312-1.5664063l-2.242187-8.3671875h-2.4019535v8.2480469c.6276048.1352452 1.0758165.6900195 1.0761715 1.3320312.001025.7528969-.6084308 1.3641019-1.3613278 1.3652339-.7536602-.000053-1.3643066-.611574-1.3632812-1.3652339.0003547-.6420118.4485669-1.1967862 1.0761719-1.3320312v-8.2480469h-2.5800781v8.2480469c.6283813.134449 1.0775723.6894277 1.078125 1.3320312.0010254.7536599-.6096211 1.3651809-1.3632813 1.3652339-.7536602-.000053-1.3643067-.611574-1.3632813-1.3652339.0005527-.6426035.4497437-1.1975822 1.078125-1.3320312v-8.2480469z" fill="#d0d0d0" stroke-linecap="square" stroke-width="1.9" transform="scale(.26458333)"/></svg>