<?xml version="1.0" encoding="UTF-8" standalone="no"?><svg height="16" viewBox="0 0 4.2333332 4.2333332" width="16" xmlns="http://www.w3.org/2000/svg"><sodipodi:namedview/><metadata><rdf:RDF><cc:Work><dc:format>image/svg+xml</dc:format><dc:type/><dc:title/></cc:Work></rdf:RDF></metadata><path d="m2.1166666.00000005-2.1166666 2.11666645h.32564099v2.1166666h3.58205121v-2.1166666h.325641zm-.1628205 1.30256395h.325641v.3256411c.1841308.0000035.4182756.0000112.4884615 0v .3256409c-.070186.0000113-.3043188.0000036-.4884615 0v .323097c.077025.00192.1567467.011215.2388247.046747.07198.03116.1431643.088531.1876252.1672727.044461.078749.062966.1718965.062966.2769857v.0003256c-.0002772.094995-.0109924.1780314-.0451573.2544072-.0341655.076376-.0980747.1409857-.1679087.1758589-.0898707.044863-.1811928.053761-.2763497.055962v.3275491h-.325641v-.3256411h-.4884617v-.325641h.4884615v-.3230969c-.076-.0019901-.1546788-.011511-.2356446-.046429-.071918-.031016-.1433009-.0882251-.187625-.166955-.044022-.078193-.062058-.1707834-.062012-.2747596-.00154-.083321-.00635-.2285936.105261-.3412234.086752-.087546.2085597-.1286056.3800204-.143104zm0 .6617763c-.09947.013684-.1420985.036783-.14851.043249-.0092.00929-.01293.026342-.011448.107487v.00191.00159c-.0001954.066186.011946.1002597.020671.1157552.00872.015494.013367.019624.032755.027985.020029.00863.058262.013869.106533.016537zm.325641.6414238v.3189629c.066682-.00454.1171914-.010585.1310198-.017491.011698-.00584.00909-.00226.015901-.017491.00678-.015155.016561-.054569.016854-.1217974 0-.066458-.012036-.1011701-.020988-.1170272-.00895-.015857-.013822-.019831-.033391-.028303-.020522-.00888-.06002-.014099-.1093958-.016855z" fill="#d0d0d0"/></svg>