<?xml version="1.0" encoding="UTF-8" standalone="no"?>
<!-- Created with Inkscape (http://www.inkscape.org/) -->

<svg
   xmlns:dc="http://purl.org/dc/elements/1.1/"
   xmlns:cc="http://creativecommons.org/ns#"
   xmlns:rdf="http://www.w3.org/1999/02/22-rdf-syntax-ns#"
   xmlns:svg="http://www.w3.org/2000/svg"
   xmlns="http://www.w3.org/2000/svg"
   xmlns:sodipodi="http://sodipodi.sourceforge.net/DTD/sodipodi-0.dtd"
   xmlns:inkscape="http://www.inkscape.org/namespaces/inkscape"
   width="16"
   height="16"
   viewBox="0 0 4.2333332 4.2333332"
   version="1.1"
   id="svg8"
   inkscape:version="0.92+devel (b8837397f6, 2017-07-27, custom)"
   sodipodi:docname="glyph-qt-logo-official.svg">
  <defs
     id="defs2" />
  <sodipodi:namedview
     id="base"
     pagecolor="#002466"
     bordercolor="#ffffff"
     borderopacity="0.38039216"
     inkscape:pageopacity="1"
     inkscape:pageshadow="2"
     inkscape:zoom="36.415999"
     inkscape:cx="10.094581"
     inkscape:cy="7.9162778"
     inkscape:document-units="px"
     inkscape:current-layer="svg8"
     inkscape:document-rotation="0"
     showgrid="false"
     inkscape:showpageshadow="false"
     borderlayer="true"
     inkscape:window-width="1920"
     inkscape:window-height="1051"
     inkscape:window-x="0"
     inkscape:window-y="0"
     inkscape:window-maximized="1"
     units="px" />
  <metadata
     id="metadata5">
    <rdf:RDF>
      <cc:Work
         rdf:about="">
        <dc:format>image/svg+xml</dc:format>
        <dc:type
           rdf:resource="http://purl.org/dc/dcmitype/StillImage" />
        <dc:title></dc:title>
      </cc:Work>
    </rdf:RDF>
  </metadata>
  <path
     inkscape:connector-curvature="0"
     d="M 0.99696433,3.65315e-4 C 0.72269172,1.36945e-4 0.50543395,0.21896281 0.50543395,0.52466594 V 4.2333331 L 3.3780915,3.7497269 C 3.5761971,3.7153201 3.7278992,3.4818942 3.7278992,3.2296054 V 0.44174694 L 1.083735,0.00761205 C 1.054352,0.00304505 1.02535,7.61055e-4 0.9969643,5.5e-8 Z M 1.6933827,0.71767904 c 0.032732,0 0.066682,0.00228 0.101759,0.00609 0.2412207,0.027784 0.4160028,0.1415704 0.5297813,0.33873206 0.1116547,0.1929291 0.1665381,0.4694778 0.1665381,0.8324774 -2.359e-4,0.3326119 -0.040725,0.5943169 -0.1222584,0.7874747 -0.083155,0.1957535 -0.2096456,0.324132 -0.3830194,0.3834914 0.017432,0.089747 0.043846,0.1500579 0.079151,0.1820897 0.027327,0.024511 0.06927,0.036767 0.1255544,0.036767 0.01629,0 0.033722,-0.00152 0.052295,-0.00304 v 0.2645291 l -0.1203705,0.015757 c -0.035549,0.00457 -0.069042,0.00685 -0.1008151,0.00685 -0.1052909,0 -0.1905696,-0.025653 -0.2546409,-0.077263 C 1.6825507,3.4235776 1.6198952,3.2921086 1.5798478,3.0975349 1.395406,3.0581802 1.2517118,2.9411209 1.152305,2.7444311 1.051254,2.5446736 0.99990261,2.2523451 0.99990261,1.8700335 c 0,-0.4122348 0.0704122,-0.7165754 0.20870169,-0.90950476 0.1168386,-0.1627701 0.2798523,-0.2428573 0.484786,-0.2428573 z m 1.1092547,0.1439225 0.2362652,0.024968 V 1.2943284 l 0.242629,0.01865 V 1.5687911 L 3.0389026,1.556764 v 0.9349445 c 0,0.081267 0.00457,0.1335548 0.023065,0.1571143 0.01629,0.021466 0.037452,0.032047 0.071097,0.032047 0.00304,0 0.00533,7.6e-6 0.00822,-4.644e-4 0.051382,-0.00304 0.1128346,-0.018878 0.1667742,-0.046662 v 0.2350929 c -0.1076508,0.045445 -0.2054133,0.072544 -0.3052921,0.081031 -0.014387,0.00152 -0.028698,0.00152 -0.042171,0.00152 -0.090219,0 -0.1630137,-0.026186 -0.2101252,-0.079387 -0.055111,-0.061503 -0.08951,-0.1604079 -0.08951,-0.2960941 V 1.5396747 L 2.5530737,1.5343462 V 1.2601574 l 0.153118,0.011038 z M 1.773234,1.0295555 c -0.087623,0 -0.1549982,0.051077 -0.2018737,0.1538259 -0.050849,0.1118907 -0.076555,0.343916 -0.076555,0.6949037 0,0.339204 0.024968,0.5799452 0.07536,0.7212796 0.047576,0.1345063 0.1187188,0.2014093 0.2119978,0.2014093 0.00457,0 0.00822,-2.36e-4 0.012484,-4.719e-4 0.093515,-0.00609 0.1639424,-0.070412 0.2117618,-0.1936298 0.047576,-0.1220224 0.070945,-0.3615913 0.070945,-0.7186991 0,-0.3206 -0.023065,-0.5410777 -0.070412,-0.6621562 C 1.9598225,1.1044665 1.8891591,1.0387434 1.7947002,1.0304994 1.787088,1.0297915 1.7803132,1.0297382 1.773234,1.0297382 Z"
     id="path4"
     style="stroke-width:0.26458341;fill:#d0d0d0"
     inkscape:label="#" />
</svg>
