<?xml version="1.0" encoding="UTF-8" standalone="no"?><svg height="22" viewBox="0 0 5.8208332 5.8208335" width="22" xmlns="http://www.w3.org/2000/svg"><sodipodi:namedview/><metadata><rdf:RDF><cc:Work><dc:format>image/svg+xml</dc:format><dc:type/><dc:title/></cc:Work></rdf:RDF></metadata><g fill="#d0d0d0" transform="translate(0 -.000067)"><path d="m2.1035156 4.6132812c-.2303138 0-.4160156.1837499-.4160156.4140626v9.6464842c0 .230313.1857017.416016.4160156.416016h17.7929684c.230313 0 .416016-.185703.416016-.416016v-9.6464842c0-.2303131-.185703-.4140626-.416016-.4140626zm1.1777344.9179688h15.4375c.202681-.0000004.365234.1645066.365234.3671875v7.9062505c0 .20268-.162553.365234-.365234.365234h-15.4375c-.2026809 0-.3652344-.162554-.3652344-.365234v-7.9062505c0-.2026809.1625535-.3671875.3652344-.3671875z" transform="matrix(.26458333 0 0 .26458333 0 .000067)"/><path d="m0 4.4979274c0 .1764923.2009731.3185785.4506083.3185785h4.9196169c.2496371 0 .4506082-.1420869.4506082-.3185785z"/><rect height="2.285475" opacity=".330578" ry=".096798" transform="scale(-1 1)" width="4.277981" x="-5.049408" y="1.463791"/></g></svg>