<?xml version="1.0" encoding="UTF-8" standalone="no"?>
<!-- Created with Inkscape (http://www.inkscape.org/) -->

<svg
     xmlns:dc="http://purl.org/dc/elements/1.1/"
     xmlns:cc="http://creativecommons.org/ns#"
     xmlns:rdf="http://www.w3.org/1999/02/22-rdf-syntax-ns#"
     xmlns:svg="http://www.w3.org/2000/svg"
     xmlns="http://www.w3.org/2000/svg"
     xmlns:sodipodi="http://sodipodi.sourceforge.net/DTD/sodipodi-0.dtd"
     xmlns:inkscape="http://www.inkscape.org/namespaces/inkscape"
     width="16"
     height="16"
     viewBox="0 0 4.2333333 4.2333333"
     version="1.1"
     id="svg8"
     inkscape:version="0.92+devel (fa9b7f7a5b, 2017-07-19, custom)"
     sodipodi:docname="glyph-patch.svg">
    <defs
         id="defs2" />
    <sodipodi:namedview
         id="base"
         pagecolor="#002466"
         bordercolor="#ffffff"
         borderopacity="0.38039216"
         inkscape:pageopacity="1"
         inkscape:pageshadow="2"
         inkscape:zoom="20.275734"
         inkscape:cx="19.854054"
         inkscape:cy="11.825796"
         inkscape:document-units="px"
         inkscape:current-layer="svg8"
         inkscape:document-rotation="0"
         showgrid="false"
         inkscape:showpageshadow="false"
         borderlayer="true"
         inkscape:window-width="1920"
         inkscape:window-height="1051"
         inkscape:window-x="0"
         inkscape:window-y="0"
         inkscape:window-maximized="1"
         units="px" />
    <metadata
         id="metadata5">
        <rdf:RDF>
            <cc:Work
                 rdf:about="">
                <dc:format>image/svg+xml</dc:format>
                <dc:type
                     rdf:resource="http://purl.org/dc/dcmitype/StillImage" />
                <dc:title></dc:title>
            </cc:Work>
        </rdf:RDF>
    </metadata>
    <path
         style="fill:#d0d0d0;stroke-width:0.34395832"
         d="m 1.9455853,0.33466809 c -0.4462241,-0.44622408 -1.16469316,-0.44622401 -1.61091717,-2e-8 -0.44622407,0.44622409 -0.44622408,1.16469313 0,1.61091733 z M 2.1166667,0.50574943 0.50574943,2.1166666 2.1166666,3.7275839 3.7275838,2.1166667 Z M 3.8986651,2.2877478 2.2877479,3.8986652 c 0.4462242,0.4462242 1.1646932,0.446224 1.6109173,-10e-8 0.4462239,-0.446224 0.4462242,-1.164693 -10e-8,-1.6109173 z M 2.2676901,1.1601844 a 0.22394886,0.22394886 0 0 1 -3.937e-4,0.3165987 0.22394886,0.22394886 0 0 1 -0.3165986,3.928e-4 0.22394886,0.22394886 0 0 1 -10e-8,-0.3169919 0.22394886,0.22394886 0 0 1 0.3169924,4e-7 z m 0.8054586,0.8054588 a 0.22394886,0.22394886 0 0 1 0,0.3169919 0.22394886,0.22394886 0 0 1 -0.3169918,1e-7 0.22394886,0.22394886 0 0 1 -1e-7,-0.316992 0.22394886,0.22394886 0 0 1 0.3169919,0 z M 2.275556,1.9577732 a 0.22394886,0.22394886 0 0 1 -3.933e-4,0.3165988 0.22394886,0.22394886 0 0 1 -0.3165988,3.934e-4 0.22394886,0.22394886 0 0 1 0,-0.3169922 0.22394886,0.22394886 0 0 1 0.3169921,0 z m -0.7979861,-0.00747 a 0.22394886,0.22394886 0 0 1 -3.938e-4,0.3165985 0.22394886,0.22394886 0 0 1 -0.3165988,3.929e-4 0.22394886,0.22394886 0 0 1 0,-0.3169921 0.22394886,0.22394886 0 0 1 0.3169926,7e-7 z m 0.8054586,0.8054585 a 0.22394886,0.22394886 0 0 1 0,0.316992 0.22394886,0.22394886 0 0 1 -0.3169919,0 0.22394886,0.22394886 0 0 1 0,-0.3169919 0.22394886,0.22394886 0 0 1 0.3169919,-1e-7 z"
         id="rect811"
         inkscape:connector-curvature="0"
         inkscape:label="#" />
</svg>
