<?xml version="1.0" encoding="UTF-8" standalone="no"?>
<!-- Created with Inkscape (http://www.inkscape.org/) -->

<svg
   xmlns:dc="http://purl.org/dc/elements/1.1/"
   xmlns:cc="http://creativecommons.org/ns#"
   xmlns:rdf="http://www.w3.org/1999/02/22-rdf-syntax-ns#"
   xmlns:svg="http://www.w3.org/2000/svg"
   xmlns="http://www.w3.org/2000/svg"
   xmlns:xlink="http://www.w3.org/1999/xlink"
   xmlns:sodipodi="http://sodipodi.sourceforge.net/DTD/sodipodi-0.dtd"
   xmlns:inkscape="http://www.inkscape.org/namespaces/inkscape"
   width="16.049999"
   height="16"
   viewBox="0 0 16.049999 16"
   version="1.1"
   id="svg8"
   inkscape:version="0.92+devel (b8837397f6, 2017-07-27, custom)"
   sodipodi:docname="glyph-konqueror.svg">
  <defs
     id="ol-defs">
    <style
       id="current-color-scheme">      .ColorScheme-Text {
        color:#d0d0d0;
        stop-color:#d0d0d0;
      }
      .ColorScheme-Background {
        color:#212121;
        stop-color:#212121;
      }
      .ColorScheme-Highlight {
        color:#0039a9;
        stop-color:#0039a9;
      }
      .ColorScheme-ViewText {
        color:#d0d0d0;
        stop-color:#d0d0d0;
      }
      .ColorScheme-ViewBackground {
        color:#19191b;
        stop-color:#19191b;
      }
      .ColorScheme-ViewHover {
        color:#005cc7;
        stop-color:#005cc7;
      }
      .ColorScheme-ViewFocus{
        color:#002466;
        stop-color:#002466;
      }
      .ColorScheme-ButtonText {
        color:#d0d0d0;
        stop-color:#d0d0d0;
      }
      .ColorScheme-ButtonBackground {
        color:#232323;
        stop-color:#232323;                             
      }                                                 
      .ColorScheme-ButtonHover {                        
        color:#005cc7;                                  
        stop-color:#005cc7;                             
      }                                                 
      .ColorScheme-ButtonFocus{                         
        color:#0039a9;                                  
        stop-color:#0039a9;                             
      }</style>
    <linearGradient
       id="linearGradient3052">
      <stop
         id="stop3054"
         style="stop-color:#555753" />
      <stop
         id="stop3056"
         style="stop-color:#2e3436"
         offset="1" />
    </linearGradient>
    <radialGradient
       gradientTransform="matrix(0.58724559,-4e-7,0,0.25688859,387.29707,527.70784)"
       gradientUnits="userSpaceOnUse"
       id="radialGradient3082"
       xlink:href="#linearGradient3052"
       r="17.995001"
       cy="3.6835999"
       cx="25.641001" />
    <radialGradient
       gradientTransform="matrix(0.5872456,-4.0000001e-7,0,0.25688859,387.45769,529.05333)"
       gradientUnits="userSpaceOnUse"
       id="radialGradient3082-6"
       xlink:href="#linearGradient3052"
       r="17.995001"
       cy="3.6835999"
       cx="25.641001" />
  </defs>
  <sodipodi:namedview
     id="base"
     pagecolor="#002266"
     bordercolor="#ffffff"
     borderopacity="0.46666667"
     inkscape:pageopacity="0"
     inkscape:pageshadow="2"
     inkscape:zoom="25.75"
     inkscape:cx="8.0249996"
     inkscape:cy="8"
     inkscape:document-units="px"
     inkscape:current-layer="svg8"
     inkscape:document-rotation="0"
     showgrid="false"
     inkscape:showpageshadow="false"
     borderlayer="true"
     units="px"
     fit-margin-top="0"
     fit-margin-left="0"
     fit-margin-right="0"
     fit-margin-bottom="0"
     inkscape:window-width="1920"
     inkscape:window-height="1051"
     inkscape:window-x="0"
     inkscape:window-y="0"
     inkscape:window-maximized="1"
     inkscape:snap-page="true" />
  <metadata
     id="metadata5">
    <rdf:RDF>
      <cc:Work
         rdf:about="">
        <dc:format>image/svg+xml</dc:format>
        <dc:type
           rdf:resource="http://purl.org/dc/dcmitype/StillImage" />
        <dc:title></dc:title>
      </cc:Work>
    </rdf:RDF>
  </metadata>
  <path
     style="fill:#ffffff;stroke-width:2.91517925;stroke-linecap:round;stroke-linejoin:round"
     d="M 7.2945309,0 6.5816402,1.703125 A 6.4681644,6.4681644 0 0 0 5.4917965,2.0566406 L 3.9117184,1.0996094 2.733984,1.9570312 3.1539059,3.75 A 6.4681644,6.4681644 0 0 0 2.483984,4.6816406 L 0.64218711,4.8339844 0.19101524,6.2226562 1.5855465,7.4238281 A 6.4681644,6.4681644 0 0 0 1.5562496,8 6.4681644,6.4681644 0 0 0 1.5855465,8.5742188 l -1.39453126,1.203125 0.45117187,1.3886722 1.83984379,0.152343 a 6.4681644,6.4681644 0 0 0 0.671875,0.925782 l -0.4199219,1.798828 1.1777344,0.857422 1.5742187,-0.953125 a 6.4681644,6.4681644 0 0 0 1.0957031,0.351562 L 7.2945309,16 H 8.7535152 L 9.468359,14.296875 a 6.4681644,6.4681644 0 0 0 1.089844,-0.353516 l 1.578125,0.957032 1.179687,-0.857422 L 12.89414,12.25 a 6.4681644,6.4681644 0 0 0 0.671875,-0.931641 L 15.405859,11.166016 15.858984,9.7773438 14.464453,8.5761719 A 6.4681644,6.4681644 0 0 0 14.49375,8 6.4681644,6.4681644 0 0 0 14.4625,7.4257812 L 15.858984,6.2226562 15.405859,4.8339844 13.567968,4.6816406 A 6.4681644,6.4681644 0 0 0 12.89414,3.7558594 L 13.316015,1.9570312 12.136328,1.0996094 10.564062,2.0527344 A 6.4681644,6.4681644 0 0 0 9.468359,1.6992188 L 8.7535152,0 Z M 7.0503902,3.390625 c 0.043401,0.00984 0.096623,0.1528486 0.1035157,0.203125 0.00689,0.053139 -0.00272,0.085507 0,0.1347656 0.00592,0.082892 0.1010503,0.07565 0.1523437,0.1191406 0.014767,0.012948 0.020414,0.049902 0.033203,0.068359 0.024697,0.033642 0.063473,0.032873 0.068359,0.068359 0.00987,0.085958 -0.076237,0.090769 -0.068359,0.1855469 -0.017762,0.037572 -0.07215,0.0523 -0.068359,0.1015625 0.00592,0.078149 0.121728,0.00722 0.1523437,0.068359 0.016866,0.032622 -0.00382,0.072799 -0.015625,0.1191406 0.038509,0.045371 0.031952,0.1015625 -0.035156,0.1015625 -0.041443,0 -0.042517,-0.058114 -0.083984,-0.068359 -0.023687,-0.00407 -0.054348,0.00407 -0.083984,0 -0.024679,-0.00413 -0.062273,-0.01359 -0.085937,-0.015625 -0.061185,-0.00617 -0.1158124,0.017909 -0.1523437,-0.017578 0.059216,-0.077939 0.1271379,-0.1536002 0.203125,-0.2207032 0.022582,-0.020749 0.062619,-0.043546 0.050781,-0.083984 -0.041449,-0.038129 -0.07968,-0.00718 -0.1191406,0.015625 -0.042434,0.022785 -0.087381,0.062253 -0.1347656,0.068359 -0.081908,0.010655 -0.204382,-0.010286 -0.2714844,0.033203 -0.00987,0.036489 0.080196,0.012112 0.068359,0.068359 -0.03355,0.00407 -0.075889,0.022796 -0.1015625,0 -0.022629,-0.020952 -0.00281,-0.056078 -0.017578,-0.068359 -0.025659,-0.019472 -0.127478,-0.039311 -0.1699218,-0.033203 -0.052297,0.00883 -0.077092,0.057257 -0.083984,0.1015626 0.063153,0.029785 0.1628556,-0.039728 0.1855469,0.035156 -0.033544,0.061133 -0.1280394,0.085091 -0.1171875,0.1679688 0.00393,0.031401 0.039759,0.081867 0.066406,0.085937 0.026651,0.00555 0.041709,-0.018943 0.068359,-0.017578 0.02763,0.00204 0.035791,0.021649 0.068359,0.017578 0.047362,-0.019932 0.06486,-0.07243 0.1191406,-0.068359 C 6.845981,4.6403509 6.7307982,4.6882614 6.6617184,4.7128906 6.5827694,4.7416456 6.4660541,4.755604 6.405859,4.78125 6.374279,4.794006 6.2702959,4.9043128 6.2535152,4.8144531 6.2406953,4.7502211 6.3070596,4.7662194 6.3218746,4.7128906 6.2449006,4.6981216 6.1702494,4.754583 6.1011715,4.78125 6.0015035,4.818791 5.8377283,4.8221994 5.8140621,4.9335938 c -0.00382,0.022565 0.01481,0.087177 0,0.1015624 -0.01184,0.012349 -0.088526,0.00733 -0.1191406,0.017578 -0.047362,0.016623 -0.089503,0.042571 -0.1191406,0.050781 -0.021758,0.00617 -0.054516,0.011555 -0.068359,0.015625 -0.039488,0.015796 -0.038611,0.066078 -0.083984,0.1015625 -0.017785,0.015403 -0.071124,0.020772 -0.085937,0.035156 -0.025659,0.025647 -0.03861,0.091318 -0.083984,0.1015625 -0.028604,0.00204 -0.041706,-0.016419 -0.068359,0 -0.00272,0.063188 0.026651,0.1391429 0,0.203125 -0.05823,0.048212 -0.1281315,0.092293 -0.203125,0.1347656 -0.041449,0.023612 -0.068823,0.026154 -0.1191407,0.050781 -0.035527,0.017622 -0.078703,0.062326 -0.1191406,0.085937 -0.094737,0.055249 -0.203125,0.1127661 -0.203125,0.2539063 0,0.030572 0.012686,0.066077 0.017578,0.1015625 0.00272,0.020754 -0.00109,0.045562 0,0.068359 0.00689,0.051287 0.043426,0.1344356 0,0.1699218 -0.06612,-0.027694 -0.1567155,-0.054204 -0.203125,-0.1015624 -0.012911,-0.049443 0.0205,-0.092211 0.015625,-0.1367188 -0.00496,-0.035472 -0.054406,-0.09749 -0.083984,-0.1015625 -0.029638,-0.00489 -0.036759,0.034568 -0.068359,0.033203 -0.037493,-0.00304 -0.1049574,-0.062335 -0.1523438,-0.066406 -0.070064,-0.0082 -0.1105255,0.010234 -0.1875,0 -0.075004,0.0394 -0.079133,0.1076699 -0.1699218,0.1015625 -0.00839,-7.326e-4 -0.016905,-0.00701 -0.025391,-0.00977 A 4.7226043,4.7226043 0 0 1 4.4234371,4.9472656 c -0.01179,0.032774 -0.016042,0.06169 0.015625,0.068359 0.03355,0.00697 0.1122473,-0.074898 0.1191407,-0.1015625 0.022701,-0.090885 0.064701,-0.1450265 0.1347656,-0.1875 0.040439,-0.024615 0.061464,-0.031672 0.068359,-0.083984 -0.00243,-0.00305 -0.00404,-0.00272 -0.00586,-0.00195 -0.00187,7.559e-4 -0.00481,0.00195 -0.011719,0.00195 -0.012785,-6.25e-4 -0.027754,0.00307 -0.042969,0.00391 a 4.7226043,4.7226043 0 0 1 0.068359,-0.064453 c 0.024452,-0.00324 0.056602,-0.00619 0.060547,-0.00781 0.037822,-0.016225 0.039586,-0.04369 0.03125,-0.072266 A 4.7226043,4.7226043 0 0 1 5.4019528,4.078125 c 0.013858,0.031985 0.056349,0.070508 0.087891,0.072266 0.050326,0.00411 0.1159836,-0.033705 0.1367187,-0.083984 0.01997,-0.048982 0.020734,-0.1067298 0.041016,-0.1523437 A 4.7226043,4.7226043 0 0 1 5.7632809,3.859375 C 5.848123,3.84524 5.9154866,3.8099879 5.9664059,3.7539062 A 4.7226043,4.7226043 0 0 1 6.7046871,3.4667969 c 0.010967,0.032531 0.038305,0.055105 0.058594,0.058594 0.036508,0.0074 0.099265,-0.00116 0.1347656,-0.017578 0.066121,-0.030575 0.097082,-0.1294679 0.1523437,-0.1171875 z m 3.1523438,0.4238281 a 4.7226043,4.7226043 0 0 1 0.08594,0.041016 4.7226043,4.7226043 0 0 1 0.04883,0.029297 c -8.49e-4,0.02877 -0.03393,0.02376 -0.04687,0.0625 -0.01261,0.037542 0.0012,0.092475 -0.01563,0.1191406 -0.0148,0.020488 -0.04074,0.00938 -0.06836,0.017578 -0.06217,0.01778 -0.187964,0.097479 -0.238281,0.015625 0.0078,-0.044291 0.035971,-0.047482 0.050781,-0.083984 10e-4,-0.027667 -0.038083,-0.03776 -0.033203,-0.068359 0.006,-0.036501 0.06112,-0.0364 0.1015629,-0.050781 0.02861,-0.010843 0.03085,-0.045561 0.06836,-0.068359 0.01466,-0.00754 0.03038,-0.00989 0.04687,-0.013672 z m 0.283203,0.1621094 a 4.7226043,4.7226043 0 0 1 0.302734,0.1992187 c -0.06525,0.034183 -0.144187,0.030213 -0.242187,0.042969 -0.05033,0.00611 -0.100996,0.041454 -0.154297,0 -0.01188,-0.032618 0.03026,-0.036745 0.03516,-0.068359 -0.004,-0.029583 -0.02625,-0.026149 -0.03516,-0.050781 0.01476,-0.038383 0.03895,-0.026722 0.03516,-0.083984 0.01589,-0.017127 0.03553,-0.028893 0.05859,-0.039063 z m 0.371094,0.2519531 a 4.7226043,4.7226043 0 0 1 0.65625,0.5957032 c -0.02313,-0.02607 -0.04927,-0.046837 -0.08594,-0.044922 v -0.00195 c -0.03162,0.00183 -0.0583,0.036396 -0.08398,0.050781 -0.02367,0.011874 -0.04469,0.034363 -0.06836,0.050781 -0.02862,0.018456 -0.05734,0.014261 -0.08399,0.015625 -0.06217,0.00407 -0.116619,-0.027906 -0.169922,-0.015625 -0.01776,0.00387 -0.01346,0.012712 -0.03516,0.033203 -10e-4,0.028754 0.0038,0.036742 0,0.068359 -0.0158,0.02748 -0.08266,0.032327 -0.117187,0.050781 -0.05132,0.026671 -0.07767,0.077685 -0.119141,0.1191406 -0.02665,0.026651 -0.06456,0.047665 -0.06836,0.068359 -0.0029,0.015796 0.02137,0.046579 0.01758,0.068359 -0.0049,0.023598 -0.05636,0.06329 -0.08594,0.083984 -0.01769,0.011738 -0.032,0.022959 -0.05078,0.033203 -0.03949,0.022783 -0.05141,0.062252 -0.08398,0.068359 -0.08683,0.015803 -0.254984,-0.023345 -0.253907,0.068359 10e-4,0.059693 0.08445,0.070395 0.134766,0.068359 0.07007,-0.00204 0.113859,0.010234 0.152344,0 0.02664,-0.00679 0.07393,-0.0385 0.101562,-0.050781 0.0178,-0.0082 0.03699,-0.011474 0.05078,-0.017578 0.02964,-0.014788 0.04568,-0.040535 0.06836,-0.050781 0.04539,-0.020762 0.139136,-0.048744 0.1875,-0.050781 0.06711,-0.00407 0.117271,0.00611 0.203125,0 0.03059,-0.00204 0.05141,-0.013588 0.08398,-0.015625 0.05427,-0.00555 0.144075,0.01699 0.1875,0.015625 0.03059,0 0.06602,-0.015625 0.101563,-0.015625 0.04046,0.00102 0.07708,0.025134 0.08398,0.050781 0.0049,0.013962 -0.0038,0.046579 0,0.068359 0.0049,0.035473 0.03733,0.042796 0.03516,0.066406 -0.002,0.030572 -0.0968,0.082637 -0.08594,0.1191406 0.0069,0.022788 0.07492,0.05194 0.101562,0.068359 0.02764,0.016205 0.0856,0.011557 0.119141,0.015625 0.02763,0.00407 0.0417,-0.00204 0.06836,0 0.04243,0.00497 0.108116,0.032325 0.134766,0.050781 0.04638,0.032622 0.03166,0.1006834 0.08594,0.1191407 0.02368,0.0082 0.07197,-0.0061 0.101563,0 0.06978,0.015301 0.128445,0.068546 0.179687,0.066406 A 4.7226043,4.7226043 0 0 1 12.747656,8 4.7226043,4.7226043 0 0 1 11.577734,11.105469 c -0.0051,-0.02584 -0.0055,-0.05532 -0.03125,-0.06836 0.01803,-0.123315 -2.19e-4,-0.157807 0.01758,-0.388671 0.0079,-0.171652 -0.08973,-0.263743 -0.08594,-0.441407 -0.001,-0.07386 0.05026,-0.144026 0.101562,-0.203125 0.108548,-0.183504 0.165789,-0.2932214 0.1875,-0.4589841 -0.01184,-0.034451 0.0128,-0.040675 0,-0.068359 -0.05033,-0.109592 -0.08031,-0.2218103 -0.152344,-0.3046875 -0.03948,-0.045548 -0.08658,-0.077685 -0.11914,-0.1191406 -0.02665,-0.033647 -0.06836,-0.093495 -0.06836,-0.1191406 -0.001,-0.028549 0.0096,-0.05549 0.01758,-0.083984 0.0098,-0.036517 0.01941,-0.1126584 0.0332,-0.1699219 0.006,-0.026672 0.04004,-0.059089 0.03516,-0.1015625 -0.0049,-0.041443 -0.06682,-0.1400633 -0.119141,-0.1523438 -0.06907,-0.01641 -0.133867,0.0082 -0.220703,0 -0.07599,-0.048206 -0.07895,-0.169127 -0.1875,-0.1855468 -0.142102,-0.020731 -0.290975,0.059088 -0.388672,0.1015625 -0.05624,0.024629 -0.120582,0.048744 -0.169922,0.050781 -0.04737,0.00307 -0.09135,-0.031087 -0.136718,-0.035156 -0.05922,-0.00597 -0.127325,0.024914 -0.185547,0.035156 -0.05626,0.00968 -0.102029,0.029131 -0.152344,0.033203 C 9.8569922,8.4327213 9.7746501,8.3384419 9.7144528,8.2910156 9.6779358,8.2622606 9.6298321,8.2493203 9.5953121,8.2226562 9.5588009,8.1940047 9.504776,8.1819802 9.4761715,8.1542969 9.4376863,8.1167564 9.4304974,8.034649 9.4097652,7.984375 9.3851041,7.9252919 9.3293,7.8882777 9.2730465,7.8320312 9.2316041,7.7905887 9.1315547,7.7154371 9.1207028,7.6621094 c -0.00592,-0.027466 0.019749,-0.054473 0.017578,-0.083984 -0.0029,-0.043266 -0.051857,-0.070963 -0.050781,-0.1015625 0.00103,-0.043266 0.054578,-0.065059 0.066406,-0.1015625 0.00592,-0.018856 -0.00689,-0.044747 0,-0.068359 0.013734,-0.050256 0.057674,-0.079303 0.050781,-0.1523437 -0.0029,-0.029561 -0.014549,-0.048418 -0.015625,-0.085937 C 9.1880321,7.0427184 9.2074081,7.02361 9.2046871,7 9.2017271,6.957547 9.1431589,6.9468813 9.1382809,6.8984375 c -0.00592,-0.050263 0.034815,-0.095078 0.066406,-0.1523437 0.013734,-0.025633 0.037978,-0.047868 0.050781,-0.068359 0.027631,-0.041443 0.064227,-0.075731 0.085937,-0.1171875 0.014786,-0.030565 0.00369,-0.078764 0.017578,-0.1015625 0.01874,-0.029569 0.067043,-0.0474 0.1015625,-0.085937 0.027685,-0.031603 0.046654,-0.053976 0.066406,-0.068359 0.024673,-0.017645 0.059285,-0.0385 0.085937,-0.050781 0.091768,-0.042466 0.1411454,-0.097743 0.1855469,-0.1855468 -0.012893,-0.078984 0.018203,-0.09718 0.050781,-0.1523438 0.030593,-0.051287 0.052224,-0.1228298 0.1035156,-0.1523437 0.06217,-0.035472 0.142124,-0.020926 0.185547,-0.085937 0.02171,-0.033443 0.03516,-0.1002983 0.03516,-0.1347656 0,-0.048418 -0.04252,-0.1130332 -0.08594,-0.1191407 -0.04539,-0.00821 -0.109089,0.048445 -0.134766,0 -0.0079,-0.015803 0.0038,-0.049904 0,-0.068359 -0.0059,-0.032614 -0.049711,-0.077952 -0.050781,-0.1015626 -0.00292,-0.046571 0.052606,-0.08339 0.066406,-0.1367187 0.01879,-0.073034 0.0049,-0.1192156 0,-0.203125 0.06908,-0.1095761 0.22009,-0.061027 0.373047,-0.050781 0.02274,0.00204 0.04365,0 0.06836,0 0.09078,0.00185 0.172511,0.010625 0.203125,-0.068359 0.01184,-0.029542 0.0078,-0.1246616 0,-0.1523438 -0.0078,-0.03344 -0.05338,-0.1318534 -0.08398,-0.1523437 -0.04934,-0.030587 -0.142294,-0.01218 -0.169922,-0.068359 0.02269,-0.097635 0.137996,-0.00959 0.203125,-0.033203 0.03345,-0.011935 0.02115,-0.060149 0.05078,-0.068359 0.0207,-0.0074 0.07296,0.017578 0.101563,0.017578 0.02369,0 0.07887,-0.05194 0.101562,-0.068359 0.01896,-0.012449 0.02958,-0.026739 0.04102,-0.041016 z M 4.9644528,4.609375 c -0.039488,-0.00285 -0.069171,0.032326 -0.083984,0.050781 -0.00206,0.029772 0.016696,0.038845 0.015625,0.068359 -0.048379,0.034467 -0.012225,0.1306942 0.035156,0.1347656 0.050332,0.0041 0.067659,-0.1224849 0.1347656,-0.1347656 0.023664,-0.00489 0.035793,0.037275 0.068359,0.033203 0.039532,-0.030565 0.023889,-0.1088957 -0.017578,-0.1191407 -0.015814,-0.00555 -0.057333,0.019613 -0.083984,0.017578 -0.027631,-0.00204 -0.044686,-0.049416 -0.068359,-0.050781 z m 0.3964843,0.2167969 c -0.012639,0.00128 -0.026714,0.00391 -0.039063,0.00391 -0.024697,0 -0.045669,-0.00137 -0.068359,0 -0.015796,0.00137 -0.037694,-0.00204 -0.050781,0 -0.013026,0.00204 -0.034079,0.00335 -0.035156,0.015625 0.051312,0.024221 0.2049056,0.049442 0.2207031,-0.015625 -0.00497,-0.00513 -0.014717,-0.00518 -0.027344,-0.00391 z M 11.530859,4.84375 a 4.7226043,4.7226043 0 0 1 0.08203,0.09375 c -0.0098,-0.00839 -0.02741,-0.01589 -0.0332,-0.023437 -0.01425,-0.018922 -0.03117,-0.04595 -0.04883,-0.070312 z m -0.07813,0.097656 c 0.0014,-0.0013 0.0034,-0.00133 0.0098,0.00586 0.006,0.041443 0.0052,0.071554 -0.01758,0.085937 -0.04836,-0.00881 -0.03256,-0.075691 0,-0.085937 0.0049,-0.00204 0.0065,-0.00458 0.0078,-0.00586 z m -6.4121094,0.00391 c -0.00841,7.74e-4 -0.016997,0.00195 -0.025391,0.00195 v 0.00195 c -0.050332,0 -0.1264978,0.011555 -0.1699219,0.015625 -0.033544,0.00495 -0.074324,-5.075e-4 -0.066406,0.050781 0.0069,0.040846 0.064056,0.029859 0.1015625,0.017578 0.078949,-0.024615 0.1401695,-0.047398 0.1855468,-0.085937 -0.00885,-0.00305 -0.016985,-0.00271 -0.025391,-0.00195 z m 6.3867184,0.1386719 c 0.0474,-0.012924 0.08713,0.032192 0.06836,0.1347656 -0.0158,0.040846 -0.08755,0.07871 -0.119141,0.017578 0.01085,-0.048214 10e-4,-0.081557 0,-0.1367187 0.01666,-0.017773 0.03498,-0.011555 0.05078,-0.015625 z m 0.423828,0.2714844 h 0.01758 c 0.02755,0.00129 0.045,4.275e-4 0.06445,0 a 4.7226043,4.7226043 0 0 1 0.02734,0.037109 c -0.0037,0.031343 -0.003,0.067009 -0.02344,0.082031 -0.08191,-0.014769 -0.150969,-0.026637 -0.1875,-0.085937 0.02565,-0.019471 0.05813,-0.03524 0.101562,-0.033203 z M 3.7945309,6.8496094 c 0.026542,0.021736 0.054578,0.068113 0.050781,0.1015625 -0.00296,0.025837 -0.037973,0.048499 -0.050781,0.083984 -0.0108,0.031592 -0.00674,0.075916 -0.017578,0.1015626 -0.014816,0.033436 -0.056525,0.054318 -0.068359,0.085937 -0.00689,0.020754 0.00689,0.032327 0,0.050781 -0.01178,0.032412 -0.07054,0.050534 -0.050781,0.083984 0.1055911,0.041456 0.2314539,-0.01641 0.3242188,0 0.039471,0.00697 0.1358517,0.059024 0.1347656,0.1191406 -9.071e-4,0.045338 -0.045895,0.087459 -0.050781,0.1367187 -0.00592,0.062157 -0.030494,0.1352706 -0.033203,0.1855469 -0.00393,0.081834 0.1162811,0.2220675 0.203125,0.2207031 0.093746,-8.163e-4 0.1580028,-0.082461 0.2714844,-0.033203 0.037499,0.015793 0.077671,0.070394 0.1191406,0.068359 0.034536,-0.00204 0.078873,-0.060107 0.1015625,-0.1015625 0.028622,-0.050263 0.034638,-0.093495 0.083984,-0.1191406 0.053289,-0.02748 0.101828,-0.025134 0.1699219,-0.050781 0.030588,-0.010857 0.05636,-0.032327 0.083984,-0.050781 0.023718,-0.015063 0.03878,-0.047094 0.068359,-0.017578 0.039508,0.039399 -0.051128,0.041512 -0.017578,0.083984 0.068088,0.036524 0.1049554,-0.065044 0.1542969,-0.066406 0.015796,-0.00102 0.072958,0.047952 0.1015625,0.066406 0.038456,0.025633 0.041537,0.077729 0.083984,0.085937 0.026644,0.00597 0.080657,-0.039228 0.1191407,-0.035156 0.050332,0.00697 0.080656,0.069723 0.1191406,0.068359 0.046383,-0.00102 0.07968,-0.060149 0.1191406,-0.068359 0.086837,-0.016616 0.1138587,0.014008 0.1523438,0.068359 0.042447,0.00841 0.026948,-0.036119 0.066406,-0.015625 -0.021715,0.043265 0.017408,0.048501 0.035156,0.083984 0.00983,0.022604 0.00671,0.040536 0.017578,0.050781 0.023687,0.022605 0.082666,0.029 0.1171875,0.050781 0.036501,0.022765 0.044473,0.070764 0.085937,0.1191406 0.04342,0.049246 0.1126907,0.081868 0.1699219,0.085938 0.054275,0.00407 0.1069651,-0.00407 0.1523437,0 0.1016448,0.012937 0.1652764,0.062026 0.2363281,0.1171874 0.040462,0.030586 0.073137,0.049437 0.085938,0.085938 0.0099,0.025641 -0.0099,0.072862 0,0.1015624 0.021715,0.06196 0.1341298,0.079072 0.1015624,0.1855469 0.01481,0.03079 0.030906,0.046645 0.066406,0.068359 0.028616,0.017645 0.055325,0.04671 0.085937,0.050781 0.019726,0.00204 0.066237,-0.00136 0.083984,0 0.056252,0.00393 0.088358,0.01671 0.1367187,0.035156 0.030588,0.010857 0.064227,0.018811 0.083984,0.033203 0.024588,0.016822 0.020169,0.069599 0.050781,0.083984 0.019751,0.010234 0.085594,-0.00407 0.1191406,0 0.053289,0.00597 0.1049562,0.049418 0.1523437,0.050781 0.028604,0.00136 0.042682,-0.00136 0.068359,0 0.1213746,0.00985 0.2058184,0.1440094 0.3222656,0.1875 0.03652,0.012343 0.094442,0.00538 0.1191407,0.015625 0.043426,0.018674 0.064568,0.1457757 0.068359,0.2050781 0.00987,0.1795688 -0.1251457,0.2370994 -0.2050781,0.3554687 -0.01666,0.024612 -0.027117,0.08467 -0.050781,0.1191406 -0.047356,0.06996 -0.090877,0.074904 -0.083984,0.2031248 9.674e-4,0.03547 0.017578,0.04462 0.017578,0.08399 0,0.0474 -0.00674,0.127449 -0.017578,0.169921 -0.00782,0.03242 -0.012686,0.05643 -0.017578,0.08594 -0.0049,0.02977 0.00382,0.05834 0,0.08398 -0.00393,0.02852 -0.029071,0.06214 -0.050781,0.101563 -0.045398,0.08489 -0.077159,0.187253 -0.1699219,0.220703 -0.055267,0.01948 -0.1263362,0.01251 -0.1855469,0.0332 -0.024673,0.0087 -0.05636,0.03639 -0.085937,0.05078 -0.085847,0.04042 -0.2126614,0.09868 -0.2363282,0.1875 -0.021715,0.0789 0.048019,0.146468 0.033203,0.236328 -0.015681,0.02665 -0.027117,0.03776 -0.050781,0.06836 -0.020731,0.02848 -0.045671,0.05826 -0.068359,0.08594 -0.029608,0.03651 -0.083817,0.06692 -0.1015625,0.117188 -0.00592,0.01662 0.00689,0.02412 0,0.05078 -0.00296,0.0098 -0.024296,0.01672 -0.033203,0.03516 -0.00789,0.01662 0.00689,0.06961 0,0.08399 -0.022696,0.04533 -0.1039799,0.137958 -0.1523437,0.152343 -0.102626,0.02871 -0.2004325,-0.06517 -0.2714844,-0.05078 0.00987,0.05027 0.042734,0.0671 0.066406,0.101563 0.012572,0.01993 -0.00112,0.04665 0.017578,0.06836 0.022582,0.02563 0.048078,0.03986 0.050781,0.06836 0.00592,0.06115 -0.035788,0.11407 -0.068359,0.134766 -0.029602,0.01776 -0.082441,0.0093 -0.1347656,0.01758 -0.036507,0.006 -0.1521767,0.02717 -0.1699219,0.05078 -0.00143,0.002 9.99e-4,0.0056 0,0.0078 A 4.7226043,4.7226043 0 0 1 5.4507809,11.955078 c -0.0026,-0.05117 -0.00498,-0.107735 -0.011719,-0.138672 -0.01184,-0.05724 -0.077092,-0.107774 -0.083984,-0.169922 -0.00302,-0.02258 0.03538,-0.05548 0.033203,-0.08398 -0.00193,-0.02665 -0.030499,-0.03776 -0.033203,-0.06836 -0.00217,-0.02851 -0.00272,-0.06811 0,-0.101563 0.0049,-0.06217 -0.00109,-0.126368 0,-0.1875 0.00109,-0.01783 0,-0.04796 0,-0.06641 0,-0.0513 -0.014863,-0.08544 -0.017578,-0.136719 -0.00382,-0.0938 0.01481,-0.167126 0,-0.253906 -0.011774,-0.06606 -0.027117,-0.161669 -0.050781,-0.203125 -0.026638,-0.04636 -0.1332211,-0.107205 -0.1855469,-0.136719 -0.034536,-0.01968 -0.064056,-0.03232 -0.1015625,-0.05078 -0.079932,-0.03939 -0.2535641,-0.123118 -0.2890625,-0.203125 -0.00988,-0.0236 0.010848,-0.07592 0,-0.101563 C 4.6888315,10.001462 4.6239738,9.9664118 4.5914059,9.9179688 4.5302445,9.8242339 4.5012292,9.7069279 4.4390621,9.6113281 4.407483,9.5620907 4.3720227,9.5151021 4.3374996,9.4765625 4.3167696,9.4539815 4.2613933,9.425088 4.2535152,9.390625 4.2427143,9.344254 4.197848,9.2727506 4.202734,9.2382812 c 0.0069,-0.047413 0.1015625,-0.05807 0.1015625,-0.1015624 0,-0.036483 -0.040893,-0.070963 -0.050781,-0.1015626 -0.02471,-0.076112 0.021143,-0.1223795 0.050781,-0.1855468 0.00884,-0.020754 0.00573,-0.053968 0.015625,-0.068359 0.017803,-0.026657 0.044691,-0.038845 0.068359,-0.068359 0.013734,-0.015793 0.033039,-0.044744 0.050781,-0.068359 0.037499,-0.049442 0.1033455,-0.073817 0.1191407,-0.1191406 0.012803,-0.036497 0.01481,-0.2103528 0,-0.2714844 -0.00885,-0.035462 -0.037979,-0.068113 -0.050781,-0.1015624 -0.022701,-0.060114 -0.040381,-0.1361303 -0.1015625,-0.1347657 -0.038509,0 -0.061235,0.041693 -0.085937,0.068359 -0.00586,0.035463 -0.014249,0.091319 -0.050781,0.1015625 -0.056252,0.016822 -0.069636,-0.081072 -0.1347656,-0.1015625 -0.025677,-0.0082 -0.051577,0.0061 -0.068359,0 C 4.0186533,8.0642015 3.997192,7.9944804 3.9468746,7.9667969 3.9054206,7.9440089 3.8534087,7.9329055 3.827734,7.8984375 c -0.00988,-0.023592 0.00272,-0.052369 0,-0.083984 C 3.773454,7.7828571 3.7385503,7.6722145 3.6753902,7.6445312 3.6339472,7.6250573 3.557794,7.6297901 3.5054684,7.6113281 c -0.024643,-0.0078 -0.040728,-0.031087 -0.066406,-0.035156 -0.031561,-0.00617 -0.061241,-0.00335 -0.085937,-0.015625 -0.010486,-0.00522 -0.017841,-0.017638 -0.027344,-0.025391 a 4.7226043,4.7226043 0 0 1 0.0625,-0.4238281 c 0.010826,-0.00288 0.024291,-0.00482 0.033203,-0.00781 0.1075663,-0.033627 0.078973,-0.172326 0.1855469,-0.2207031 0.047368,-0.021576 0.105592,-0.029133 0.1875,-0.033203 z m 1.3066406,1.0839844 c -0.035498,0.016822 -0.036531,0.072432 0,0.068359 0.038486,-0.00597 0.047387,-0.090138 0,-0.068359 z"
     id="path4814"
     inkscape:connector-curvature="0"
     inkscape:label="#" />
</svg>
