<?xml version="1.0" encoding="UTF-8" standalone="no"?>
<!-- Created with Inkscape (http://www.inkscape.org/) -->

<svg
   xmlns:dc="http://purl.org/dc/elements/1.1/"
   xmlns:cc="http://creativecommons.org/ns#"
   xmlns:rdf="http://www.w3.org/1999/02/22-rdf-syntax-ns#"
   xmlns:svg="http://www.w3.org/2000/svg"
   xmlns="http://www.w3.org/2000/svg"
   xmlns:sodipodi="http://sodipodi.sourceforge.net/DTD/sodipodi-0.dtd"
   xmlns:inkscape="http://www.inkscape.org/namespaces/inkscape"
   width="16"
   height="16"
   viewBox="0 0 4.2333333 4.2333333"
   version="1.1"
   id="svg8"
   inkscape:version="0.92+devel (4546dc857e, 2017-07-25, custom)"
   sodipodi:docname="glyph-memory.svg">
  <defs
     id="defs2" />
  <sodipodi:namedview
     id="base"
     pagecolor="#002466"
     bordercolor="#ffffff"
     borderopacity="0.38039216"
     inkscape:pageopacity="1"
     inkscape:pageshadow="2"
     inkscape:zoom="54.75"
     inkscape:cx="8"
     inkscape:cy="8"
     inkscape:document-units="px"
     inkscape:current-layer="svg8"
     inkscape:document-rotation="0"
     showgrid="false"
     inkscape:showpageshadow="false"
     borderlayer="true"
     inkscape:window-width="1920"
     inkscape:window-height="1051"
     inkscape:window-x="0"
     inkscape:window-y="0"
     inkscape:window-maximized="1"
     units="px" />
  <metadata
     id="metadata5">
    <rdf:RDF>
      <cc:Work
         rdf:about="">
        <dc:format>image/svg+xml</dc:format>
        <dc:type
           rdf:resource="http://purl.org/dc/dcmitype/StillImage" />
        <dc:title></dc:title>
      </cc:Work>
    </rdf:RDF>
  </metadata>
  <path
     style="fill:#d0d0d0;stroke-width:0.25711343;stroke-linejoin:round"
     d="m 0.06591059,0.96354799 c -0.0366995,0 -0.0659104,0.029838 -0.0659104,0.0665381 v 0.2466933 c 0.0946092,0.00239 0.17080289,0.079305 0.17073938,0.1745057 6.361e-5,0.095202 -0.0761301,0.1721107 -0.17073938,0.1745057 v 1.281801 c 0,0.0367 0.029211,0.066538 0.0659104,0.066538 H 4.1674221 c 0.0367,0 0.065911,-0.029838 0.065911,-0.066538 V 1.6295571 C 4.1392051,1.6268471 4.0634972,1.5503991 4.0632211,1.4556792 4.0629267,1.3636312 4.1339841,1.2870809 4.2258,1.2805457 c 0.00251,-8.56e-5 0.00502,-2.26e-5 0.00753,0 V 1.0300861 c 0,-0.0367 -0.029211,-0.0665381 -0.065911,-0.0665381 z M 0.55239232,1.5579973 H 1.1273823 V 2.4179714 H 0.55239232 Z m 0.85118608,0 h 0.57499 v 0.8599741 h -0.57499 z m 0.851186,0 h 0.57499 v 0.8599741 h -0.57499 z m 0.8511861,0 H 3.6809407 V 2.4179714 H 3.1059505 Z M 0.37976976,3.065149 V 3.2697853 H 3.8535631 V 3.065149 Z"
     id="rect811"
     inkscape:connector-curvature="0"
     sodipodi:nodetypes="sscccssssccccsssccccccccccccccccccccccccc" />
</svg>
