<?xml version="1.0" encoding="UTF-8" standalone="no"?><svg height="22" viewBox="0 0 22 22" width="22" xmlns="http://www.w3.org/2000/svg"><sodipodi:namedview/><metadata><rdf:RDF><cc:Work><dc:format>image/svg+xml</dc:format><dc:type/><dc:title/></cc:Work></rdf:RDF></metadata><rect fill="none" height="16" stroke-linecap="round" stroke-width="2.181818" width="16" x=".000004" y="6.000005"/><g transform="matrix(1.3621961 0 0 1.3621961 -428.77268 -284.69898)"><path d="m-.15039062 4.9121094v.6503906 10.587891h11.39453162v-5.449219a4.8654709 4.8654709 0 0 1 -1.2460941.164062 4.8654709 4.8654709 0 0 1 -4.8652344-4.865234 4.8654709 4.8654709 0 0 1  .1289063-1.0878906zm1.30078122 1.3007812h2.7421875c.11848 3.26411 2.7658613 5.8940314 6.0507813 5.9257814v2.710937h-8.7929688z" fill="#d0d0d0" transform="translate(314.91614 209)"/><path d="m324.18545 209.01936-.0645.008-.54687.082-.0625.0137-.35938.0918.32227 1.25976.3418-.0859.47461-.0723.33593-.0176-.0644-1.29882zm1.70312.73242-.002.01-.16016.6211.50196.1289.44335.16211.16211.0781.56446-1.16992-.19531-.0937-.0586-.0254-.5039-.18555-.0625-.0195-.52735-.13477-.0625-.0137h-.002zm-4.51953.27344-.0508.0351-.42383.31641-.0488.0391-.21875.19922.875.96289.20313-.18555.35937-.26757.38672-.23633-.67578-1.11133zm6.45899 1.3457.0293.0215.35156.32032.32032.35156.0762.10156 1.04101-.7793-.10156-.13281-.0391-.0488-.35547-.39062-.043-.043-.39062-.35547-.0488-.0391-.0606-.0469zm-8.4375.81055-.0313.0566-.23046.48046-.0254.0586-.0859.23242 1.2207.44727.0762-.20703.20899-.43165.24609-.40429-1.10937-.67578zm9.81835.98828.0391.0801.16211.44335.12304.48243.008.0469 1.28515-.19726-.0137-.0918-.0137-.0625-.13477-.52735-.0195-.0625-.18555-.5039-.0254-.0586-.0547-.11328zm.39649 2.46289-.0703.47265-.11133.42774 1.25976.32422.11524-.44727.0137-.0625.082-.54687.008-.0645.0137-.28515-1.29883-.0664zm-.8086 2.22265-.26953.36133-.24414.27149.96289.87304.25977-.28515.0391-.0488.31641-.42383.0351-.0508.19922-.32813-1.10937-.67578zm-1.69335 1.54297-.43165.20899-.29101.10742.44727 1.2207.3164-.11719.0586-.0254.48046-.23046.0566-.0313.36524-.22265-.67383-1.10938z" fill="#d0d0d0"/></g></svg>