<?xml version="1.0" encoding="UTF-8" standalone="no"?><svg height="16" viewBox="0 0 4.2333332 4.2333332" width="16" xmlns="http://www.w3.org/2000/svg"><sodipodi:namedview/><metadata><rdf:RDF><cc:Work><dc:format>image/svg+xml</dc:format><dc:type/><dc:title/></cc:Work></rdf:RDF></metadata><path d="m1.8231004.01977704c-.015192.0111388-.027634.0265465-.035246.0467666-.00373.0112342-.00697.0772492-.00699.14644797l.0004494.1269223-.033381.00121c-.045851.00277-.078455.020733-.096709.053919-.012641.022904-.01437.1141688-.015245.72443199-.0007474.3848719.00121.7008008.004.7036054.00234.00234.1211765.00468.2633284.00478l.2603534.0000317.0003356-.4552466c.0001694-.2506668.00291-.45534169.00666-.45533889.012163-.0000159.1206333.11476969.1481963.15734589.015438.022923.037031.068801.048247.1015437.02007.058488.020511.06281.021031.6286634.0002276.312871.0029.5765483.00569.5849591.00747.02338.040476.053045.069451.062401.048616.015948.1146037-.017201.1296268-.065817.010308-.033678.00559-1.1597367-.00562-1.2102723-.0307555-.1450119-.1237485-.29051109-.2569525-.40238239-.0528138-.0444458-.1079892-.0841522-.1514566-.1089948-.012158-.006568-.01419-.0250467-.014583-.1302716-.0008586-.1000822-.00366-.1263229-.015325-.1436609-.024764-.0369438-.050347-.0483305-.1055301-.0492943l-.051327-.001029-.0002625-.1351979c-.0008508-.11129474-.0039132-.13834275-.0156017-.15565642-.0375113-.05501368-.1075645-.06328362-.1531395-.02986595zm-.1856547 2.01613626c-.00141.00141-.00238-.088446-.00272.4109859-.0000797.8038947.00238.9210046.015869 1.013149.027005.1833389.098942.4400841.1839339.6599259.054162.1412623.0447.1318001.072332.072442.0847561-.1837261.1772292-.4479333.2166379-.6209165.0384554-.1692548.0390267-.205646.0396565-1.1390418l.0002951-.3987123-.2620272.000061c-.1440531-.0000972-.2625655.0006927-.2639802.00211z" fill="#d0d0d0" stroke-width=".00017"/></svg>