<?xml version="1.0" encoding="UTF-8" standalone="no"?>
<!-- Created with Inkscape (http://www.inkscape.org/) -->

<svg
   xmlns:dc="http://purl.org/dc/elements/1.1/"
   xmlns:cc="http://creativecommons.org/ns#"
   xmlns:rdf="http://www.w3.org/1999/02/22-rdf-syntax-ns#"
   xmlns:svg="http://www.w3.org/2000/svg"
   xmlns="http://www.w3.org/2000/svg"
   xmlns:sodipodi="http://sodipodi.sourceforge.net/DTD/sodipodi-0.dtd"
   xmlns:inkscape="http://www.inkscape.org/namespaces/inkscape"
   width="22"
   height="22"
   viewBox="0 0 22 22"
   version="1.1"
   id="svg8"
   inkscape:version="0.92+devel (0526f3edb8, 2017-07-23, custom)"
   sodipodi:docname="glyph-key-plain.svg">
  <defs
     id="defs2" />
  <sodipodi:namedview
     id="base"
     pagecolor="#002266"
     bordercolor="#ffffff"
     borderopacity="0.46666667"
     inkscape:pageopacity="0"
     inkscape:pageshadow="2"
     inkscape:zoom="90.817118"
     inkscape:cx="2.2920478"
     inkscape:cy="19.051181"
     inkscape:document-units="px"
     inkscape:current-layer="svg8"
     inkscape:document-rotation="0"
     showgrid="false"
     inkscape:showpageshadow="false"
     borderlayer="true"
     units="px"
     fit-margin-top="0"
     fit-margin-left="0"
     fit-margin-right="0"
     fit-margin-bottom="0"
     inkscape:window-width="1920"
     inkscape:window-height="1051"
     inkscape:window-x="0"
     inkscape:window-y="0"
     inkscape:window-maximized="1" />
  <metadata
     id="metadata5">
    <rdf:RDF>
      <cc:Work
         rdf:about="">
        <dc:format>image/svg+xml</dc:format>
        <dc:type
           rdf:resource="http://purl.org/dc/dcmitype/StillImage" />
        <dc:title></dc:title>
      </cc:Work>
    </rdf:RDF>
  </metadata>
  <path
     inkscape:label="#"
     id="rect7824"
     d="m 0.87067877,1.1122745 c -0.87710585,0.8771058 -0.87710585,2.2991758 0,3.1762816 0.10220629,0.1008713 0.21384983,0.1917097 0.33339943,0.2712654 l -0.00242,0.00242 c 0.00447,0.00344 0.00872,0.00715 0.012746,0.011099 0.054819,0.054819 0.054819,0.1436985 0,0.1985176 l 0.00708,-0.00708 c -1.65235778,1.7781231 -1.63496391,4.5273211 0.092861,6.2551459 1.5001831,1.500183 3.7805411,1.72111 5.5108505,0.663357 l -0.041536,0.04154 c 0.017214,-0.01721 0.035088,-0.0333 0.05336,-0.04871 0.059318,-0.03651 0.1179234,-0.07461 0.1758838,-0.114138 0.3136397,-0.151488 0.7016553,-0.09735 0.9618605,0.162847 0.2711621,0.271167 0.3187739,0.681225 0.1428299,1.001166 -0.00473,0.0086 -0.00695,0.01449 -0.00737,0.01832 -0.091788,0.184723 -0.070653,0.402184 0.070325,0.543161 0.1815944,0.181595 0.4902938,0.165261 0.692146,-0.03659 l 0.5684603,-0.56846 0.3258384,0.325838 0.8436994,0.347406 0.34159,0.702179 0.527083,0.04682 2.532249,2.532249 0.645935,0.02131 0.801058,1.425681 -0.0045,-0.01064 1.75157,0.665054 0.175883,1.14007 1.027969,0.630934 0.45602,1.200461 2.285843,0.118765 0.742977,-0.74794 L 22,18.990968 12.566294,9.5572631 13.074075,9.0494826 c 0.201852,-0.2018519 0.218186,-0.5105515 0.03659,-0.692146 -0.147687,-0.1476867 -0.379404,-0.1644552 -0.569381,-0.056996 -0.0025,6.229e-4 -0.0048,8.943e-4 -0.0078,0.00242 -0.317556,0.1659071 -0.718716,0.1154792 -0.985464,-0.151263 -0.2602,-0.2602054 -0.314334,-0.6482207 -0.162846,-0.9618604 0.03952,-0.057945 0.07759,-0.1165338 0.11409,-0.1758355 0.01542,-0.018293 0.03153,-0.036179 0.04876,-0.053408 l -0.04154,0.041535 C 12.564264,5.2716267 12.34335,2.991255 10.843176,1.4910813 9.0900618,-0.26203307 6.2714779,-0.26832881 4.5104359,1.4717432 l 0.017545,-0.017545 c -0.054819,0.054819 -0.1436985,0.054819 -0.1985176,0 -0.00396,-0.00401 -0.00766,-0.00828 -0.011099,-0.012747 l -0.00189,0.00189 C 4.2373487,1.3246779 4.1471011,1.2138197 4.0469524,1.11227 3.1698466,0.23516419 1.7477767,0.23516419 0.87067083,1.11227 Z m 3.65730913,0.3419292 0.00393,-0.00393 -1.986e-4,-1.985e-4 c -0.00121,0.00141 -0.00247,0.00276 -0.00373,0.00412 z M 1.2144006,4.7718606 c -0.00136,0.00126 -0.00272,0.00252 -0.00412,0.00373 l 1.985e-4,1.985e-4 z M 1.7560254,2.0578523 c 0.3881442,-0.3881372 1.0174426,-0.3881372 1.405587,-2e-7 0.3881371,0.3881442 0.3881371,1.0174429 0,1.4055871 -0.038114,0.037533 -0.079196,0.071928 -0.1228459,0.1028503 -0.098589,0.067508 -0.209522,0.1198703 -0.3254122,0.1540938 -0.3420967,0.090937 -0.7067419,-0.00693 -0.957329,-0.2569441 -0.388137,-0.3881443 -0.388137,-1.0174427 1e-7,-1.4055869 z"
     style="opacity:1;fill:#ffffff;fill-opacity:1;stroke:none;stroke-width:0.512362;stroke-linecap:square;stroke-linejoin:round;stroke-miterlimit:4;stroke-dasharray:none;stroke-opacity:1;shape-rendering:crispEdges"
     inkscape:connector-curvature="0"
     sodipodi:nodetypes="cccccccscccccccsscccccccccccccccccsscccccccscccccccccccccccccccccccc" />
</svg>
