<?xml version="1.0" encoding="UTF-8" standalone="no"?><svg height="16" viewBox="0 0 4.2333332 4.2333332" width="16" xmlns="http://www.w3.org/2000/svg"><sodipodi:namedview/><metadata><rdf:RDF><cc:Work><dc:format>image/svg+xml</dc:format><dc:type/><dc:title/></cc:Work></rdf:RDF></metadata><path d="m2.1166666 0c-1.17263322 0-2.1166666.9440333-2.1166666 2.1166666s.94403338 2.1166666 2.1166666 2.1166666c1.1726333 0 2.1166666-.9440333 2.1166666-2.1166666s-.9440333-2.1166666-2.1166666-2.1166666zm0 .5291666c.00909.000528.017617.00439.023771.011162.1268942.1385359.2431621.2878088.3633887.4301547.0002117.000528.00145.00112.00145.00166.1786467.2377016.3280767.5002311.4324283.7602636.1158876.2885017.184919.5438246.2457732.9061979.010266.06096.021496.1411817.030386.2116667s.015503.1273058.015503.1548225v.013229c0 .018098-.013735.033245-.031833.034726l-.0225328.00186c-.2771786.02349-.457755.083142-.6604258.217656-.0928158.061595-.1573841.1150673-.2906283.2414323-.023283.022119-.044887.041927-.061185.056637-.00815.0073-.014966.013538-.020257.017983-.00264.00222-.00491.00399-.00724.00579-.00116.000952-.00233.00183-.00434.0031-.000952.000636-.00222.00142-.00455.00248s-.00459.00363-.016123.0031c-.00963-.000528-.011732-.00256-.013849-.00351-.00201-.00106-.00308-.00195-.00413-.00248-.0018-.00127-.00287-.00205-.00393-.00289-.00222-.00169-.00439-.00346-.00682-.00558-.00487-.00413-.011089-.00976-.018603-.016538-.0150258-.013653-.0347422-.031977-.0560147-.052297-.1610783-.1544108-.2619375-.2326282-.396875-.3084049-.01397-.00783-.02686-.015177-.036174-.020257-.00392-.00212-.00666-.00369-.0091-.00496.0002117.0001059.00145-.0001058.00145 0-.0002117-.0001058-.00145-.0003069-.00145-.000412-.000952-.0003175-.000804-.000612-.00186-.000824v.0002117c-.000424-.0003175-.00145-.000612-.00145-.000824 0 0-.0002117-.0002117-.0002117-.0002117-.000952-.000424-.00204-.00092-.00331-.00145-.00264-.00106-.00641-.00244-.010749-.00434-.00868-.00381-.020373-.00907-.033073-.014676-.055138-.02445-.092211-.038063-.14862-.054573-.083608-.024448-.2096624-.046193-.2951757-.05085-.010795-.000636-.02089-.00164-.029146-.00248-.00413-.000424-.00778-.000708-.011162-.00124-.00169-.0003175-.00326-.000708-.00537-.00124-.00212-.000528-.00332.000636-.011782-.00455-.0157692-.00963-.0146512-.017582-.0157096-.021498-.00148-.00392-.001448-.00615-.001448-.00827 0-.00423-.00010584-.00786 0-.011989.00021168-.00825.000804-.018311.00186-.030799.002012-.024871.005472-.058633.0101284-.096945.00932-.076624.02284-.1718941.036175-.2505283.060854-.35941.1276465-.6056858.2420523-.890695.1227666-.3058583.2923264-.5916876.5153173-.8698176 0-.0001059-.0001059-.000307 0-.000412.090488-.109855.1906505-.2250711.2891813-.3278353.00688-.0071.016414-.011071.026257-.010754z" fill="#d0d0d0" stroke-width=".264583"/></svg>