<?xml version="1.0" encoding="UTF-8" standalone="no"?><svg height="16" viewBox="0 0 4.2333332 4.2333332" width="16" xmlns="http://www.w3.org/2000/svg"><sodipodi:namedview/><metadata><rdf:RDF><cc:Work><dc:format>image/svg+xml</dc:format><dc:type/><dc:title/></cc:Work></rdf:RDF></metadata><path d="m2.1166667.000056a2.1166591 2.1166591 0 0 0 -2.1166667 2.1166666 2.1166591 2.1166591 0 0 0 2.1166667 2.1166666 2.1166591 2.1166591 0 0 0 2.1166667-2.1166666 2.1166591 2.1166591 0 0 0 -2.1166667-2.1166666zm1.2656795.85098718-.6806258 1.85073302-1.85073317.6806258.68062567-1.8507331zm-1.2600737.88776672a.37793521.37793521 0 0 0 -.2727699.1107487.37793521.37793521 0 0 0 0 .534328.37793521.37793521 0 0 0  .5343281 0 .37793521.37793521 0 0 0 0-.534328.37793521.37793521 0 0 0 -.2615582-.1107487z" fill="#d0d0d0" stroke-width=".070004"/></svg>