<?xml version="1.0" encoding="UTF-8" standalone="no"?>
<!-- Created with Inkscape (http://www.inkscape.org/) -->

<svg
   xmlns:dc="http://purl.org/dc/elements/1.1/"
   xmlns:cc="http://creativecommons.org/ns#"
   xmlns:rdf="http://www.w3.org/1999/02/22-rdf-syntax-ns#"
   xmlns:svg="http://www.w3.org/2000/svg"
   xmlns="http://www.w3.org/2000/svg"
   xmlns:sodipodi="http://sodipodi.sourceforge.net/DTD/sodipodi-0.dtd"
   xmlns:inkscape="http://www.inkscape.org/namespaces/inkscape"
   width="16mm"
   height="16mm"
   viewBox="0 0 16 16"
   version="1.1"
   id="svg8"
   inkscape:version="0.92+devel (572d1a9d8b, 2017-07-17, custom)"
   sodipodi:docname="glyph-waveform.svg">
  <defs
     id="defs2" />
  <sodipodi:namedview
     id="base"
     pagecolor="#002466"
     bordercolor="#ffffff"
     borderopacity="0.38039216"
     inkscape:pageopacity="1"
     inkscape:pageshadow="2"
     inkscape:zoom="10.137867"
     inkscape:cx="39.679867"
     inkscape:cy="27.302424"
     inkscape:document-units="mm"
     inkscape:current-layer="svg8"
     inkscape:document-rotation="0"
     showgrid="false"
     inkscape:showpageshadow="false"
     borderlayer="true"
     inkscape:window-width="1920"
     inkscape:window-height="1051"
     inkscape:window-x="0"
     inkscape:window-y="0"
     inkscape:window-maximized="1"
     inkscape:snap-page="true"
     inkscape:snap-grids="false"
     inkscape:snap-to-guides="false" />
  <metadata
     id="metadata5">
    <rdf:RDF>
      <cc:Work
         rdf:about="">
        <dc:format>image/svg+xml</dc:format>
        <dc:type
           rdf:resource="http://purl.org/dc/dcmitype/StillImage" />
        <dc:title></dc:title>
      </cc:Work>
    </rdf:RDF>
  </metadata>
  <path
     style="opacity:0.93199978;fill:#d0d0d0;stroke-width:0.66819984"
     d="M 24.4375 11.894531 L 24.4375 48.578125 L 29.925781 48.578125 L 29.925781 11.894531 L 24.4375 11.894531 z M 18.328125 14.644531 L 18.328125 45.828125 L 23.816406 45.828125 L 23.816406 14.644531 L 18.328125 14.644531 z M 54.984375 14.984375 L 54.984375 45.488281 L 60.472656 45.488281 L 60.472656 14.984375 L 54.984375 14.984375 z M 30.546875 16.560547 L 30.546875 43.912109 L 36.035156 43.912109 L 36.035156 16.560547 L 30.546875 16.560547 z M 12.21875 17.894531 L 12.21875 42.578125 L 17.707031 42.578125 L 17.707031 17.894531 L 12.21875 17.894531 z M 36.65625 19.722656 L 36.65625 40.75 L 42.144531 40.75 L 42.144531 19.722656 L 36.65625 19.722656 z M 6.109375 21.662109 L 6.109375 38.810547 L 11.597656 38.810547 L 11.597656 21.662109 L 6.109375 21.662109 z M 48.875 22.320312 L 48.875 38.152344 L 54.363281 38.152344 L 54.363281 22.320312 L 48.875 22.320312 z M 0 23.4375 L 0 37.035156 L 5.4882812 37.035156 L 5.4882812 23.4375 L 0 23.4375 z M 42.765625 25.765625 L 42.765625 34.707031 L 48.253906 34.707031 L 48.253906 25.765625 L 42.765625 25.765625 z "
     transform="scale(0.26458333)"
     id="path11" />
</svg>
