<?xml version="1.0" encoding="UTF-8" standalone="no"?><svg height="16" viewBox="0 0 16 16" width="16" xmlns="http://www.w3.org/2000/svg"><sodipodi:namedview/><metadata><rdf:RDF><cc:Work><dc:format>image/svg+xml</dc:format><dc:type/><dc:title/></cc:Work></rdf:RDF></metadata><g fill="#d0d0d0"><ellipse cx="-5.417499" cy="-5.417498" rx=".645744" ry=".66473" transform="matrix(0 -1 -1 0 0 0)"/><ellipse cx="-5.417498" cy="7.987882" rx=".645744" ry=".66473" transform="scale(-1 1)"/><ellipse cx="-7.989402" cy="10.582502" rx=".645744" ry=".66473" transform="rotate(-90)"/><ellipse cx="-10.582502" cy="-5.417498" rx=".645744" ry=".66473" transform="matrix(0 -1 -1 0 0 0)"/><ellipse cx="-10.582502" cy="-10.582502" rx=".645744" ry=".66473" transform="matrix(0 -1 -1 0 0 0)"/><ellipse cx="-8" cy="-13.165003" rx=".645744" ry=".66473" transform="matrix(0 -1 -1 0 0 0)"/><ellipse cx="-10.582502" cy="-13.165003" rx=".645744" ry=".66473" transform="matrix(0 -1 -1 0 0 0)"/><ellipse cx="-5.417499" cy="-8.00152" rx=".645744" ry=".66473" transform="matrix(0 -1 -1 0 0 0)"/><ellipse cx="8" cy="10.582502" rx=".645744" ry=".66473"/><ellipse cx="-7.976075" cy="-8.018591" rx=".645744" ry=".66473" transform="matrix(0 -1 -1 0 0 0)"/><ellipse cx="-5.417499" cy="-10.582502" rx=".645744" ry=".66473" transform="matrix(0 -1 -1 0 0 0)"/><ellipse cx="-5.417499" cy="-5.417498" rx=".645744" ry=".66473" transform="matrix(0 -1 -1 0 0 0)"/><ellipse cx="-5.417499" cy="-13.165003" rx=".645744" ry=".66473" transform="matrix(0 -1 -1 0 0 0)"/><ellipse cx="-8" cy="2.834997" rx=".645744" ry=".66473" transform="rotate(-90)"/><ellipse cx="-10.582502" cy="2.834997" rx=".645744" ry=".66473" transform="rotate(-90)"/><ellipse cx="-5.417499" cy="2.834997" rx=".645744" ry=".66473" transform="rotate(-90)"/><ellipse cx="2.834997" cy="-13.162401" rx=".645744" ry=".66473" transform="scale(1 -1)"/><ellipse cx="8" cy="-13.162401" rx=".645744" ry=".66473" transform="scale(1 -1)"/><ellipse cx="5.417498" cy="-13.162401" rx=".645744" ry=".66473" transform="scale(1 -1)"/><ellipse cx="10.582502" cy="-13.162401" rx=".645744" ry=".66473" transform="scale(1 -1)"/><ellipse cx="13.165003" cy="-13.162401" rx=".645744" ry=".66473" transform="scale(1 -1)"/><ellipse cx="2.834997" cy="2.837599" rx=".645744" ry=".66473"/><ellipse cx="2.834997" cy="2.837599" rx=".645744" ry=".66473"/><ellipse cx="8" cy="2.837599" rx=".645744" ry=".66473"/><ellipse cx="8" cy="2.837599" rx=".645744" ry=".66473"/><ellipse cx="5.417498" cy="2.837599" rx=".645744" ry=".66473"/><ellipse cx="5.417498" cy="2.837599" rx=".645744" ry=".66473"/><ellipse cx="10.582502" cy="2.837599" rx=".645744" ry=".66473"/><ellipse cx="10.582502" cy="2.837599" rx=".645744" ry=".66473"/><ellipse cx="13.165003" cy="2.837599" rx=".645744" ry=".66473"/><ellipse cx="13.165003" cy="2.837599" rx=".645744" ry=".66473"/></g></svg>