<?xml version="1.0" encoding="UTF-8" standalone="no"?>
<!-- Created with Inkscape (http://www.inkscape.org/) -->

<svg
   xmlns:dc="http://purl.org/dc/elements/1.1/"
   xmlns:cc="http://creativecommons.org/ns#"
   xmlns:rdf="http://www.w3.org/1999/02/22-rdf-syntax-ns#"
   xmlns:svg="http://www.w3.org/2000/svg"
   xmlns="http://www.w3.org/2000/svg"
   xmlns:sodipodi="http://sodipodi.sourceforge.net/DTD/sodipodi-0.dtd"
   xmlns:inkscape="http://www.inkscape.org/namespaces/inkscape"
   width="22"
   height="22"
   viewBox="0 0 5.8208332 5.8208335"
   version="1.1"
   id="svg8"
   inkscape:version="0.92+devel (0526f3edb8, 2017-07-23, custom)"
   sodipodi:docname="glyph-puzzle.svg">
  <defs
     id="defs2" />
  <sodipodi:namedview
     id="base"
     pagecolor="#002466"
     bordercolor="#ffffff"
     borderopacity="0.29019608"
     inkscape:pageopacity="1"
     inkscape:pageshadow="2"
     inkscape:zoom="25.633029"
     inkscape:cx="12.863563"
     inkscape:cy="8.1490638"
     inkscape:document-units="px"
     inkscape:current-layer="svg8"
     inkscape:document-rotation="0"
     showgrid="false"
     units="px"
     inkscape:showpageshadow="false"
     borderlayer="true"
     inkscape:window-width="1920"
     inkscape:window-height="1051"
     inkscape:window-x="0"
     inkscape:window-y="0"
     inkscape:window-maximized="1"
     inkscape:snap-bbox="true"
     inkscape:object-paths="true"
     inkscape:snap-intersection-paths="true"
     inkscape:snap-smooth-nodes="false"
     inkscape:snap-midpoints="false"
     inkscape:object-nodes="true"
     inkscape:snap-global="true"
     inkscape:snap-page="true"
     inkscape:bbox-paths="true"
     inkscape:snap-bbox-edge-midpoints="true"
     inkscape:bbox-nodes="true"
     inkscape:snap-bbox-midpoints="true" />
  <metadata
     id="metadata5">
    <rdf:RDF>
      <cc:Work
         rdf:about="">
        <dc:format>image/svg+xml</dc:format>
        <dc:type
           rdf:resource="http://purl.org/dc/dcmitype/StillImage" />
        <dc:title />
      </cc:Work>
    </rdf:RDF>
  </metadata>
  <path
     style="fill:#ffffff;stroke:none;stroke-width:0.26458335px;stroke-linecap:butt;stroke-linejoin:miter;stroke-opacity:1"
     d="M 2.9111317,-2.5000001e-8 C 2.2159859,-2.5000001e-8 1.6528826,0.37943442 1.6528826,0.84780153 c 0,0.29944327 0.2757865,0.42608557 0.5774627,0.64382727 C 2.4151747,1.6250327 2.4085585,1.6672597 2.408902,1.7465345 2.4098662,1.9683717 2.0953738,2.1971039 1.6343097,2.1971039 H 0.45379436 v 0.6602762 c 0,0.3632626 0.0535784,0.7766085 0.37806474,0.7766085 0.0660154,0 0.2156385,0.064724 0.3118244,-0.076207 0.078727,-0.1153484 0.2700406,-0.359549 0.5722433,-0.3587983 0.447344,0.0011 0.7669181,0.4789067 0.7669181,0.8171747 0,0.3382683 -0.3195741,0.8160636 -0.7669181,0.817175 C 1.4137227,4.8341022 1.2224094,4.5906735 1.1436835,4.4753252 1.0474976,4.334395 0.89787538,4.3718699 0.8318591,4.3718699 c -0.3244861,0 -0.37806474,0.4386062 -0.37806474,0.8018688 V 5.8208334 H 2.9111317 5.367039 V 5.1737387 c 0,-0.3632627 -0.053579,-0.8018688 -0.378065,-0.8018688 -0.066017,0 -0.3207595,-0.044269 -0.4037342,0.093651 C 4.5173257,4.5784068 4.3534886,4.81662 4.0927912,4.8158854 3.7068878,4.814814 3.4312055,4.3472041 3.4312055,4.0161583 c 0,-0.3310455 0.2756823,-0.7986389 0.6615857,-0.7997268 0.2606969,-7.535e-4 0.4245346,0.238252 0.4924486,0.3511375 0.082975,0.1379203 0.3377188,0.092878 0.4037342,0.092878 0.324486,0 0.378065,-0.439803 0.378065,-0.8030669 V 2.1971039 H 4.1879536 c -0.4610647,0 -0.7755549,-0.2287315 -0.7745924,-0.4505694 3.43e-4,-0.079274 -0.00628,-0.121501 0.1785563,-0.2549057 C 3.8935945,1.2738867 4.1693806,1.1472448 4.1693806,0.84780153 4.1693806,0.37943442 3.6062771,-2.5000001e-8 2.9111317,-2.5000001e-8 Z"
     id="path4288"
     inkscape:connector-curvature="0"
     sodipodi:nodetypes="ssccscssccscssscccssccsccsscscsss"
     inkscape:label="#glyph" />
</svg>
