<?xml version="1.0" encoding="UTF-8" standalone="no"?><svg height="16" viewBox="0 0 4.2333332 4.2333332" width="16" xmlns="http://www.w3.org/2000/svg"><sodipodi:namedview/><metadata><rdf:RDF><cc:Work><dc:format>image/svg+xml</dc:format><dc:type/><dc:title/></cc:Work></rdf:RDF></metadata><path d="m2.0968222.00017211c-.5955225.00775-1.17526247.2654681-1.57679807.7298997h.0002064l.99180377 1.14766429.7040607-1.87570349c-.039794-.00172-.079571-.00238-.1192728-.0018605zm.4049486.039895-.5045837 1.42713879 1.9869144-.332186c-.2943203-.56144879-.836602-.97401409-1.4823307-1.09495279zm-2.17006117.9231756c-.3424347.53396749-.4309285 1.20685979-.2131199 1.82299199l1.49638717-.2794744zm3.78303397.48287889-1.4963874.2794746 1.2832673 1.5435174c.3424347-.5339673.4309285-1.2068598.2131201-1.822992zm-1.998077.3530639a.31750943.31750943 0 0 0 -.3175095.3175095.31750943.31750943 0 0 0  .3175095.3175094.31750943.31750943 0 0 0  .3175094-.3175094.31750943.31750943 0 0 0 -.3175094-.3175095zm.5998779.5564683-.7040607 1.8757035c.6367113.027493 1.2677663-.2326454 1.6960709-.7280392h-.0002117zm-.4934214.4115634-1.98691437.3321859c.2943205.5614492.83639537.9740147 1.48212407 1.0949527z" fill="#d0d0d0" stroke-width=".264583"/></svg>