<?xml version="1.0" encoding="UTF-8" standalone="no"?><svg height="16" viewBox="0 0 4.2333332 4.2333332" width="16" xmlns="http://www.w3.org/2000/svg"><sodipodi:namedview/><metadata><rdf:RDF><cc:Work><dc:format>image/svg+xml</dc:format><dc:type/><dc:title/></cc:Work></rdf:RDF></metadata><path d="m8 0a8.0000002 8.0000002 0 0 0 -8 8 8.0000002 8.0000002 0 0 0 8 8 8.0000002 8.0000002 0 0 0 8-8 8.0000002 8.0000002 0 0 0 -8-8zm-.09375 1.3261719c.5251405-.0539286 1.0455208.3685701 1.0898438.8964843.01067 1.8726079.0008862 3.7463603.0039062 5.6191407l3.513672.9414062c.425652.0576534.811717.3729879.904297.8007813.168027.6511856-.478812 1.3251836-1.134766 1.2011716l-4.3808592-1.1992185c-.4577606-.0379317-.8604035-.4312082-.8984376-.890625-.00881-2.0770713-.0014562-4.1552238-.0039062-6.2324219-.0721092-.5409899.3558165-1.0982937.90625-1.1367187z" fill="#d0d0d0" stroke-width="6.400001" transform="scale(.26458333)"/></svg>