<?xml version="1.0" encoding="UTF-8" standalone="no"?><svg height="16" viewBox="0 0 4.2333332 4.2333332" width="16" xmlns="http://www.w3.org/2000/svg"><sodipodi:namedview/><metadata><rdf:RDF><cc:Work><dc:format>image/svg+xml</dc:format><dc:type/><dc:title/></cc:Work></rdf:RDF></metadata><path d="m2.1166666.0085268a2.1166666 2.1166666 0 0 0 -2.11666664 2.1166666 2.1166666 2.1166666 0 0 0  .1824178.8536946c.008485-.00488.0299407-.02023.0330729-.02067.0391849-.00558.15667309-.035597.27543539-.098702l-.005168-.055811s.0806447-.00452.18293458-.074414c.042163-.044211.0930176-.097152.0930176-.097152-.14705906-.0713888-.48571538-.6145966-.37206999-.6516396.07157511-.0234555.15972925-.0771767.27905276-.1059366.11932279-.0287604.3538858-.1314603.4278808-.1725993.0740883-.041139.1976322.0040726.3457154-.0124024.2279423-.0618953.3386704-.1232945.3937744-.1653646l-.00723-.081649s.042126.018488.1250569.025838c.05538-.00158.1496477-.000281.3601848.019637.184662.017498.238849-.00845.3539834-.037207.1150014-.028704.47829-.1640837.6392376-.1891357.00169-.000952.092817-.052168.1245402-.057878.032018-.00586.087333-.014469.087333-.014469s.023328.02909.040824.069763c.017499.040768.017053.069763.017053.069763.014043.031702.028939.073363.028939.1136882 0 .056187-.021945.1141678-.064595.1648478.00034-.00016.00362-.00207.00362-.00207 0 .0000001-.078231.1132288-.1043866.1539958-.026155.040674-.1196787.2937951-.1167887.3374471s.075634.058165.1250569.078548c.00801.0033.012283.00696.017053.010335l.099219.022221s.024771.061102.020671.094051-.070144.1442387-.1400429.1607137c-.0699074.0164784-.4009921.1013897-.4728472.1565837-.0762288.0584514-.2547347.1913479-.3855061.3901571-.039744.0987531-.0310059.1958536-.0310059.1958536h-.07028c-.018614.050633-.033715.1037-.042375.160197-.00689.2381806.063562.4361492.063562.4361492s-.05469.0005615-.095085.059944c-.012447.1295379-.03225.2631316-.047542.3632854a2.1166666 2.1166666 0 0 0 1.8686202-2.099613 2.1166666 2.1166666 0 0 0 -2.1166666-2.1166666z" fill="#d0d0d0" stroke-width=".449792"/></svg>