<?xml version="1.0" encoding="UTF-8" standalone="no"?><svg height="16mm" viewBox="0 0 16 16" width="16mm" xmlns="http://www.w3.org/2000/svg"><sodipodi:namedview/><metadata><rdf:RDF><cc:Work><dc:format>image/svg+xml</dc:format><dc:type/><dc:title/></cc:Work></rdf:RDF></metadata><path d="m-.0000002 1.4564755v2.4532031h2.9092244v8.1814674h-2.9092244v2.440091s5.1725984.01374 8.0003634.01374v-2.454655h-2.909222v-3.2728899l3.658347-.021991c.218178-.00145.968772.3469351 1.6167988 1.5957199.307651.688758.843675 1.663343 1.111325 2.129551.314922.48875.910586 2.024105 1.526613 2.024105 1.322245-.01099 1.765902-.000729 2.995775-.000729v-2.778037c-.182553.127273-.527297.299654-.727308.325109-.877132.0055-1.228421-.482207-1.54116-1.117884-.480749-1.4888026-1.346243-2.7193902-2.095368-3.3819782.92877-.6618459 2.878675-.4865779 2.931041-2.9586934-.048-2.2073714-1.502612-3.1739572-3.286693-3.176871-3.7710808.019242-7.5494328-.0007148-11.2783296-.0007148zm5.0911414 2.4532031h4.168915c.580391 0 1.3331498.4363834 1.3331498 1.2553274 0 .6800434-.551297 1.1993328-1.4386078 1.1993328h-4.063457z" fill="#d0d0d0" stroke-width=".727306"/></svg>