<?xml version="1.0" encoding="UTF-8" standalone="no"?><svg height="16" viewBox="0 0 4.2333333 4.2333333" width="16" xmlns="http://www.w3.org/2000/svg"><sodipodi:namedview/><metadata><rdf:RDF><cc:Work><dc:format>image/svg+xml</dc:format><dc:type/><dc:title/></cc:Work></rdf:RDF></metadata><path d="m .98699382 0v .38068648h-.5153691c-.050456 0-.0909387.0404828-.0909387.0909381v.51536922h-.38068625v.3151481h.3806864v.6569506h-.38068612v.315148h.38068639v.6569505h-.38068639v.3151484h.38068639v.5153691c0 .050455.0404827.090937.0909387.090937h.51536908v.3806878h.31514828v-.3806864h.6569503v.3806864h.3151482v-.3806864h.6569504v.3806864h.3151482v-.3806864h.5153691c.050455 0 .090937-.040483.090937-.090939v-.5153685h.3806878v-.3151484h-.3806864v-.6569505h.3806864v-.315148h-.3806864v-.6569506h.3806864v-.3151481h-.3806864v-.51536925c0-.0504552-.040483-.0909381-.090939-.0909381h-.5153685v-.38068645h-.3151482v.38068648h-.6569508v-.38068648h-.3151482v.38068648h-.6216726v-.38068648zm1.43039628 1.0132405.2008667.034809.016549.2060024c.033791.01678.065731.037053.095297.060488l.1934483-.073613.117552.166628-.1341007.1569269c.01204.035939.020264.073045.024539.1107053l.1883118.084456-.034237.2014371-.2060025.015979c-.016929.034015-.037395.066148-.061061.095868l.0736138.1928762-.1666281.1175525-.1563563-.1335302c-.036123.01208-.073423.020307-.111276.024536l-.0850256.1883132-.2002959-.034809-.0165497-.2060024c-.0339887-.0167457-.0661217-.0370194-.095868-.0604884l-.1928777.0730427-.1175526-.1666279.1335308-.1569268c-.01204-.0359386-.020264-.073044-.0245373-.1107053l-.1883125-.0844547.0348093-.2008666.2060023-.0159787c.016925-.034015.037392-.066148.061059-.095868l-.0736137-.1934483.166628-.1175533.1569271.1341015c.035939-.01204.073045-.020264.1107053-.024537zm-.0216853.5135793c-.102824-.0001096-.1907748.0738667-.208285.1751877-.0200053.1148734.056892.2242168.1717638.2442352.1150613.019984.2244921-.0572306.2442356-.1723341.019984-.1150613-.0572307-.2244924-.1723346-.2442356-.011693-.001933-.023527-.002893-.0353798-.0028532zm-.8302867.5489589.1666281.031385.01084.1711932c.02822.014651.054808.032248.079319.052499l.1614929-.058776.095868.140378-.1141293.1289654c.00951.030071.015808.061055.018831.092444l.1563564.073613-.031956.1666279-.1711932.01084c-.014684.0280244-.032281.0544174-.052499.0787494l.058776.162063-.1403783.095297-.1289653-.1135573c-.030069.00951-.061055.015812-.092444.018835l-.0730431.1557805-.1671988-.0313853-.0108427-.1717636c-.027996-.014504-.0543906-.0319093-.0787493-.051928l-.1620628.058776-.09529728-.1409492.11412928-.1289653c-.00947-.029884-.015771-.060676-.018831-.091873l-.15635258-.07361.0313853-.1666279.17176378-.01084c.014684-.028021.03228-.054417.052499-.078749l-.058776-.1620626.1403786-.095868.1289653.114128c.030069-.00951.061055-.015808.092444-.018831zm1.2639761.3246966.1808939.072472-.022256.1369542c.00953.00933.018492.019244.026819.029672.00807.010387.015497.021244.022256.032527l.138096.011413.027389.1928774-.129536.049075c-.00687.025647-.016835.050369-.029672.073613l.059347.1255413-.1529327.119836-.1072813-.087309c-.025712.0068-.052156.01044-.078749.01084l-.0787473.1141264-.1808942-.072472.0222547-.1369547c-.00955-.00933-.018495-.019244-.02682-.029672-.00805-.010387-.015496-.021248-.022255-.032527l-.138096-.011413-.027391-.1928771.129536-.049076c.00687-.025651.016833-.050369.029673-.073613l-.059346-.1255417.1529326-.119836.1072813.087308c.025712-.0068.052156-.01044.078749-.01084zm-1.2919374.102716c-.035387-.0001348-.069989.010413-.099292.030244-.080331.054545-.1012747.1638621-.046793.2442355.054572.080687.1643232.1016653.2448063.046793.080492-.054753.101208-.1644718.046221-.2448056-.032765-.047811-.086983-.076413-.1449423-.076467zm1.2103352.1917365c-.0295.00187-.057747.012613-.081031.030815-.063913.049899-.075164.1422115-.025109.2060021.0499.063913.1422113.075165.2060021.025107.063913-.0499.075164-.1422117.025107-.2060021-.026804-.034107-.067345-.054584-.1107054-.055923-.00475-.0002318-.00951-.0002318-.014267 0z" fill="#d0d0d0" opacity=".98" stroke-linejoin="round" stroke-width=".256885"/></svg>