<?xml version="1.0" encoding="UTF-8" standalone="no"?><svg height="16" viewBox="0 0 4.2333333 4.2333333" width="16" xmlns="http://www.w3.org/2000/svg"><sodipodi:namedview/><metadata><rdf:RDF><cc:Work><dc:format>image/svg+xml</dc:format><dc:type/><dc:title/></cc:Work></rdf:RDF></metadata><path d="m2.1094319.8340727a2.3173511 2.3173511 0 0 0 -2.1094319 1.3859619l1.615922.7100341a.55264782.55264782 0 0 1  .5053955-.3312459.55264782.55264782 0 0 1  .1049032.0108522l.7100341-1.3239503-.4893758 1.4200684a.55264782.55264782 0 0 1  .177767.2185913l1.6086873-.7265707a2.3173511 2.3173511 0 0 0 -2.1239014-1.363741zm.00723 2.095996a.2345645.2345645 0 0 0 -.234611.2346111.2345645.2345645 0 0 0  .234611.234611.2345645.2345645 0 0 0  .2346111-.234611.2345645.2345645 0 0 0 -.2346111-.2346111z" fill="#d0d0d0" opacity=".932" stroke-width=".260374"/></svg>