<?xml version="1.0" encoding="UTF-8" standalone="no"?><svg height="22" viewBox="0 0 5.8208332 5.8208335" width="22" xmlns="http://www.w3.org/2000/svg"><sodipodi:namedview/><metadata><rdf:RDF><cc:Work><dc:format>image/svg+xml</dc:format><dc:type/><dc:title/><cc:license/><dc:creator><cc:Agent><dc:title>PixelPimps &amp; CodePoets</dc:title></cc:Agent></dc:creator></cc:Work><cc:License><cc:permits/><cc:permits/><cc:requires/><cc:requires/><cc:permits/></cc:License></rdf:RDF></metadata><path d="m .9255249.42556591c-.0845545.008308-.15969843.0659465-.18655191.15244547l-.26354982.84852702h3.73207193l-3.1956706-.9921875c-.028833-.008951-.0581149-.0115543-.0862996-.00878499zm-.58601075 1.26193849c-.18800517 0-.33951415.1509922-.33951415.3389974v3.030306c0 .1880052.15150898.3395141.33951415.3395141h5.14180495c.188005 0 .3395142-.1515089.3395142-.3395141v-.7766968h-2.0422526c-.4174927 0-.7539591-.3364664-.7539591-.7539591 0-.4174926.3364664-.7534424.7539591-.7534424h2.0422526v-.7462077c0-.1880052-.1515092-.3389974-.3395142-.3389974zm3.44009995 1.547709c-.1601189-.0000217-.2899264.1297858-.2899047.2899048-.000022.1601189.1297858.2899264.2899047.289905.160119.0000214.2899268-.1297861.2899048-.289905.0000217-.160119-.1297858-.2899265-.2899048-.2899048z" fill="#d0d0d0"/></svg>