<?xml version="1.0" encoding="UTF-8" standalone="no"?><svg height="16" viewBox="0 0 4.2333332 4.2333332" width="16" xmlns="http://www.w3.org/2000/svg"><sodipodi:namedview/><metadata><rdf:RDF><cc:Work><dc:format>image/svg+xml</dc:format><dc:type/><dc:title/></cc:Work></rdf:RDF></metadata><path d="m0 0v2.8242188h1.5839844v1.5683593h-1.5839844v2.8242188h1.5839844v1.5664062h-1.5839844v2.8242189h1.5839844v1.568359h-1.5839844v2.824219h15.105469c.495883 0 .894531-.398649.894531-.894531v-14.21093775c0-.49588288-.398648-.89453125-.894531-.89453125zm8.5488281 2.0488281a2.2116712 2.2116712 0 0 1 2.2109379 2.2109375 2.2116712 2.2116712 0 0 1 -2.009766 2.2011719c1.763828.0949145 3.371902 1.24485 4.244141 3.0761719v4.4082026h-8.8906254v-4.5058589c.8865574-1.7823738 2.4764052-2.8938317 4.2128906-2.9804687a2.2116712 2.2116712 0 0 1 -1.9804687-2.1992188 2.2116712 2.2116712 0 0 1 2.2128906-2.2109375z" fill="#d0d0d0" stroke-width="1.1" transform="scale(.26458333)"/></svg>