<?xml version="1.0" encoding="UTF-8" standalone="no"?><svg height="16" viewBox="0 0 4.2333332 4.2333332" width="16" xmlns="http://www.w3.org/2000/svg"><sodipodi:namedview/><metadata><rdf:RDF><cc:Work><dc:format>image/svg+xml</dc:format><dc:type/><dc:title/></cc:Work></rdf:RDF></metadata><path d="m-.00000004-.00000005v3.67161045.5617228h4.23333324v-.5617228-3.67161045zm.61805025.2537313h.37878835c.0187999 0 .0335896.015307.0335896.034107v.3493326c0 .0188-.0148.033073-.0335896.033073h-.37878835c-.0187899 0-.0341064-.014373-.0341064-.033073v-.3493331c0-.0188.0153165-.034107.0341064-.0341065zm.44700109.4165121h.3787884c.01879 0 .034106.015823.034106.034623v.34881585c0 .0188-.015316.034106-.034106.034106h-.3787884c-.01879 0-.034623-.015406-.034623-.034106v-.34881585c0-.0188.015823-.034623.034623-.034623zm-.43356528.55758865h.74620778c.03413 0 .059895.027395.061495.061495l.060462 1.2836426c.0016.0341-.03141.060978-.07028.060978h-.84956108c-.0388702 0-.0718801-.026878-.0702799-.060978l.060978-1.2836426c.0016-.0341.0268584-.061495.0609782-.061495zm2.13216968.8578288.9095052 1.5740641h-1.8184937zm-2.03140047.021187c-.023771 0-.0428916.019192-.0428916.042891v.2630331c0 .0238.0191207.043408.0428916.043408h.54518617c.02377 0 .042375-.019708.042375-.043408v-.2630324c0-.0237-.018605-.042891-.042375-.042891z" fill="#d0d0d0"/></svg>