<?xml version="1.0" encoding="UTF-8" standalone="no"?>
<!-- Created with Inkscape (http://www.inkscape.org/) -->

<svg
   xmlns:dc="http://purl.org/dc/elements/1.1/"
   xmlns:cc="http://creativecommons.org/ns#"
   xmlns:rdf="http://www.w3.org/1999/02/22-rdf-syntax-ns#"
   xmlns:svg="http://www.w3.org/2000/svg"
   xmlns="http://www.w3.org/2000/svg"
   xmlns:sodipodi="http://sodipodi.sourceforge.net/DTD/sodipodi-0.dtd"
   xmlns:inkscape="http://www.inkscape.org/namespaces/inkscape"
   width="12"
   height="12"
   viewBox="0 0 12 12"
   version="1.1"
   id="default16"
   inkscape:version="0.92+devel (9d04be7596, 2017-09-23, custom)"
   sodipodi:docname="glyph-texture.svg">
  <defs
     id="defs5" />
  <sodipodi:namedview
     id="base"
     pagecolor="#002466"
     bordercolor="#ffffff"
     borderopacity="0.38039216"
     inkscape:pageopacity="1"
     inkscape:pageshadow="2"
     inkscape:zoom="26.28125"
     inkscape:cx="7.9429251"
     inkscape:cy="8"
     inkscape:document-units="px"
     inkscape:current-layer="default16"
     inkscape:document-rotation="0"
     showgrid="false"
     inkscape:showpageshadow="false"
     borderlayer="true"
     inkscape:window-width="1920"
     inkscape:window-height="1017"
     inkscape:window-x="0"
     inkscape:window-y="34"
     inkscape:window-maximized="1"
     units="px" />
  <metadata
     id="metadata5">
    <rdf:RDF>
      <cc:Work
         rdf:about="">
        <dc:format>image/svg+xml</dc:format>
        <dc:type
           rdf:resource="http://purl.org/dc/dcmitype/StillImage" />
        <dc:title></dc:title>
      </cc:Work>
    </rdf:RDF>
  </metadata>
  <path
     style="fill:#d0d0d0;fill-opacity:1;stroke:none;stroke-width:0.75"
     d="M 0 0 L 0 0.75 L 0 2.25 L 0 3 L 0 4.5 L 0 5.25 L 0 6.75 L 0 7.5 L 0 9 L 0 9.75 L 0 11.25 L 0 12 L 11.25 12 L 12 12 L 12 11.25 L 12 9.75 L 12 9 L 12 7.5 L 12 6.75 L 12 5.25 L 12 4.5 L 12 3 L 12 2.25 L 12 0.75 L 12 0 L 11.25 0 L 0 0 z M 0.75 0.75 L 11.25 0.75 L 11.25 2.25 L 0.75 2.25 L 0.75 0.75 z M 0.75 3 L 11.25 3 L 11.25 4.5 L 0.75 4.5 L 0.75 3 z M 0.75 5.25 L 11.25 5.25 L 11.25 6.75 L 0.75 6.75 L 0.75 5.25 z M 0.75 7.5 L 11.25 7.5 L 11.25 9 L 0.75 9 L 0.75 7.5 z M 0.75 9.75 L 11.25 9.75 L 11.25 11.25 L 0.75 11.25 L 0.75 9.75 z "
     id="path1389" />
</svg>
