<?xml version="1.0" encoding="UTF-8" standalone="no"?><svg height="22" viewBox="0 0 5.8208332 5.8208335" width="22" xmlns="http://www.w3.org/2000/svg"><sodipodi:namedview/><metadata><rdf:RDF><cc:Work><dc:format>image/svg+xml</dc:format><dc:type/><dc:title/></cc:Work></rdf:RDF></metadata><path d="m11 0c-3.8087527 0-6.875 3.0662473-6.875 6.875 0 1.1624523.3131787 2.2372522.8183594 3.195312l6.0566406 11.929688 6.056641-11.929688c.50518-.9580598.818359-2.0328597.818359-3.195312 0-3.8087527-3.066248-6.875-6.875-6.875zm0 3.1933594a3.370281 3.370281 0 0 1 3.371094 3.3710937 3.370281 3.370281 0 0 1 -3.371094 3.3710938 3.370281 3.370281 0 0 1 -3.3710938-3.3710938 3.370281 3.370281 0 0 1 3.3710938-3.3710937z" fill="#d0d0d0" transform="scale(.26458333)"/></svg>