<?xml version="1.0" encoding="UTF-8" standalone="no"?>
<!-- Created with Inkscape (http://www.inkscape.org/) -->

<svg
   xmlns:dc="http://purl.org/dc/elements/1.1/"
   xmlns:cc="http://creativecommons.org/ns#"
   xmlns:rdf="http://www.w3.org/1999/02/22-rdf-syntax-ns#"
   xmlns:svg="http://www.w3.org/2000/svg"
   xmlns="http://www.w3.org/2000/svg"
   xmlns:sodipodi="http://sodipodi.sourceforge.net/DTD/sodipodi-0.dtd"
   xmlns:inkscape="http://www.inkscape.org/namespaces/inkscape"
   width="16"
   height="16"
   viewBox="0 0 4.2333332 4.2333335"
   version="1.1"
   id="default"
   inkscape:version="0.92+devel (039bd1db37, 2017-09-02, custom)"
   sodipodi:docname="glyph-yahoo1.svg">
  <defs
     id="defs" />
  <sodipodi:namedview
     id="base"
     pagecolor="#002466"
     bordercolor="#ffffff"
     borderopacity="0.4"
     inkscape:pageopacity="0"
     inkscape:pageshadow="2"
     inkscape:zoom="36.371805"
     inkscape:cx="7.9587593"
     inkscape:cy="8"
     inkscape:document-units="px"
     inkscape:document-rotation="0"
     showgrid="false"
     units="px"
     inkscape:pagecheckerboard="false"
     borderlayer="true"
     inkscape:showpageshadow="false"
     inkscape:window-width="1920"
     inkscape:window-height="1025"
     inkscape:window-x="0"
     inkscape:window-y="26"
     inkscape:window-maximized="1"
     inkscape:current-layer="default" />
  <metadata
     id="meta-min">
    <rdf:RDF>
      <cc:Work
         rdf:about="">
        <dc:format>image/svg+xml</dc:format>
        <dc:type
           rdf:resource="http://purl.org/dc/dcmitype/StillImage" />
        <dc:title></dc:title>
      </cc:Work>
    </rdf:RDF>
  </metadata>
  <path
     style="fill:#d0d0d0;stroke-width:0.45772916;stroke-linecap:square"
     d="m 1.5647624,0.77487731 c 0.2151103,0.0026 0.4036643,0.008158 0.4451064,0.0130912 l -0.02136,0.14882816 C 1.9002158,0.95890345 1.4746846,0.96734147 1.3642579,0.99674148 1.6513339,1.4236335 2.1058605,1.9732134 2.2530925,2.1866774 2.3341058,2.0689307 3.0454572,1.5794315 3.0675132,1.4101529 2.957073,1.3879796 2.5910519,1.3357388 2.5321452,1.3357388 L 2.4976944,1.1428135 c 0.1002133,-0.01568 0.6268559,0 0.8888344,0 0.2260906,0 0.7095246,-1.757e-4 0.8468045,0.011024 l -0.1260905,0.181212 c -0.073667,0.00733 -0.3799275,0.076436 -0.4830025,0.09853 -0.1103732,0.029373 -1.1188712,0.8084679 -1.1851125,0.9997666 -0.01468,0.0662 -0.022049,0.1681716 -0.022049,0.2638943 l -0.00758,0.1543403 c 0,0.11032 0.030808,0.2881343 0.045475,0.3837837 0.066293,0.014774 0.5462894,0.00187 0.6345869,0.016535 L 3.078537,3.449648 c -0.08628,-0.00627 -0.6957856,-0.00482 -1.0438642,-0.00482 -0.176696,0 -0.7446341,0.019724 -0.9191515,0.014467 l 0.033074,-0.1881045 c 0.095693,-0.00746 0.4916733,0.016831 0.578776,-0.075103 0.043267,-0.045613 0.029628,-0.094048 0.029628,-0.358979 V 2.7117099 c 0,-0.058893 3.039e-4,-0.1690878 -0.01447,-0.2721625 C 1.705756,2.3291207 0.81727007,1.2201881 0.58911137,1.0435947 0.52281807,1.0215414 0.10785252,0.97960071 0.00482321,0.95746736 L 7.4999998e-8,0.78796869 C 0.05140007,0.76219549 0.51250067,0.79416669 0.96049267,0.77763339 1.1077067,0.77216639 1.3496521,0.77227739 1.5647624,0.77487839 Z"
     id="rect836"
     inkscape:connector-curvature="0" />
</svg>
