<?xml version="1.0" encoding="UTF-8" standalone="no"?>
<!-- Created with Inkscape (http://www.inkscape.org/) -->

<svg
   xmlns:dc="http://purl.org/dc/elements/1.1/"
   xmlns:cc="http://creativecommons.org/ns#"
   xmlns:rdf="http://www.w3.org/1999/02/22-rdf-syntax-ns#"
   xmlns:svg="http://www.w3.org/2000/svg"
   xmlns="http://www.w3.org/2000/svg"
   xmlns:sodipodi="http://sodipodi.sourceforge.net/DTD/sodipodi-0.dtd"
   xmlns:inkscape="http://www.inkscape.org/namespaces/inkscape"
   width="16"
   height="16"
   viewBox="0 0 4.2333332 4.2333332"
   version="1.1"
   id="svg8"
   inkscape:version="0.92+devel (7f3bd2b258, 2017-08-07, custom)"
   sodipodi:docname="glyph-fontforge.svg">
  <defs
     id="defs2">
    <linearGradient
       id="b"
       y1="41.938999"
       y2="5.9780002"
       gradientUnits="userSpaceOnUse"
       x2="0"
       gradientTransform="matrix(0.11768086,0,0,0.11749728,-0.67248683,-0.7013882)">
      <stop
         stop-color="#d35400"
         id="stop7" />
      <stop
         offset="1"
         stop-color="#f67400"
         stop-opacity=".941"
         id="stop9" />
    </linearGradient>
  </defs>
  <sodipodi:namedview
     id="base"
     pagecolor="#002466"
     bordercolor="#ffffff"
     borderopacity="0.38039216"
     inkscape:pageopacity="1"
     inkscape:pageshadow="2"
     inkscape:zoom="36.415999"
     inkscape:cx="10.012199"
     inkscape:cy="7.9162778"
     inkscape:document-units="px"
     inkscape:current-layer="svg8"
     inkscape:document-rotation="0"
     showgrid="false"
     inkscape:showpageshadow="false"
     borderlayer="true"
     inkscape:window-width="1920"
     inkscape:window-height="1027"
     inkscape:window-x="0"
     inkscape:window-y="24"
     inkscape:window-maximized="1"
     units="px" />
  <metadata
     id="metadata5">
    <rdf:RDF>
      <cc:Work
         rdf:about="">
        <dc:format>image/svg+xml</dc:format>
        <dc:type
           rdf:resource="http://purl.org/dc/dcmitype/StillImage" />
        <dc:title />
      </cc:Work>
    </rdf:RDF>
  </metadata>
  <path
     style="fill:#d0d0d0;stroke-width:0.69999999;stroke-linecap:round"
     d="m 13.904297,0 c 0.623579,0 1.658203,0.34308081 1.658203,1.0800781 0,0.3602707 -0.296114,0.6875 -0.722656,0.6875 -0.967393,0 -0.656995,-1.12890622 -1.263672,-1.12890622 -1.378812,0 -1.944902,3.12026402 -2.240234,4.25000002 h 1.779296 L 12.892578,5.3339844 H 11.230469 L 9.3125,12.183594 C 8.9353281,13.559292 8.0165232,16 6.2285156,16 5.2940365,16 4.8339844,15.378296 4.8339844,14.837891 c 0,-0.409195 0.2633926,-0.78711 0.8046875,-0.78711 0.2788773,0 0.6542969,0.181676 0.6542969,0.476563 0,0.261974 -0.2285157,0.441982 -0.2285157,0.6875 v 0.01563 c 0,0.130768 0.1145965,0.228515 0.2128907,0.228515 0.7054178,0 1.2147836,-2.063205 1.3789062,-2.734375 L 9.7792969,5.3339844 6.8359375,5.3378906 4.9160156,12.183594 C 4.5388437,13.559292 3.6200392,16 1.8320312,16 0.89755286,16 0.4375,15.376343 0.4375,14.835938 c 0,-0.409196 0.26339254,-0.785156 0.8046875,-0.785157 0.2788774,0 0.65625,0.179723 0.65625,0.47461 0,0.261974 -0.2304687,0.441982 -0.2304687,0.6875 v 0.01758 c 0,0.130764 0.1145964,0.228515 0.2128906,0.228515 0.7054178,0 1.214784,-2.06276 1.3789062,-2.734375 L 5.375,5.3320312 3.5527344,5.3339844 3.7753906,4.8886719 H 5.5 C 6.0902205,2.9561113 6.9180071,0.23046875 9.3945312,0.23046875 c 0.6235788,0 1.6562498,0.34308081 1.6562498,1.08007815 0,0.3602706 -0.294161,0.6875 -0.720703,0.6875 -0.9673927,0 -0.6569944,-1.1308594 -1.2636718,-1.1308594 -1.3774775,0 -1.8218552,2.8917484 -2.1171874,4.0214844 H 9.8886719 C 10.478448,2.9565562 11.378402,0 13.904297,0 Z"
     transform="scale(0.26458333)"
     id="rect815"
     inkscape:label="#" />
</svg>
