<?xml version="1.0" encoding="UTF-8" standalone="no"?><svg height="22" viewBox="0 0 5.8208332 5.8208335" width="22" xmlns="http://www.w3.org/2000/svg"><sodipodi:namedview/><metadata><rdf:RDF><cc:Work><dc:format>image/svg+xml</dc:format><dc:type/><dc:title/></cc:Work></rdf:RDF></metadata><path d="m3.5909709 1.2435054c-.294455-.0000106-.6319951.2139223-.6154749.6715729h.1640197s.087993.0003666.099908.041673c-.064531.052701-.2402335.059352-.2169122.340862l.2756813 1.8506987.8612375-2.0505145c.1761829-.4578842-.1939314-.8404625-.5219782-.852155-.015311-.0011-.030587-.00214-.046481-.00214zm-1.4072578.00801c-.2811072.005723-.703421.3404455-.5155671.8516247l.8676487 2.0457063.3045318-2.151491c.0705263-.5345536-.3339884-.7814545-.6566134-.7458359zm-1.0701355.772019c-.1435605.0008304-.29084492.0540723-.41833071.1618828-.24048065.2176898-.32825133.711269.10525048.9996124l1.72942043 1.1866057-.838264-1.921222c-.1098159-.2833327-.3388091-.4282628-.5780762-.4268789zm3.5892017.00534c-.2148996-.0000291-.4447588.1140513-.5780762.4391697l-.8147564 1.8977142 1.7288863-1.1924826c.3985304-.2826774.3342072-.7350969.1111274-.9584739-.0935186-.1051367-.2652689-.1859247-.4471811-.1859244zm-4.13361928 1.2977358c-.22858355.0176289-.42946268.1667112-.52464963.4167279-.12909456.4579371.19320099.8339898.60372106.8339898h1.96984025l-1.6241699-1.1342476c-.14069152-.0903991-.28759164-.1270475-.42474178-.1164701zm4.62781578.00374c-.1134339.000053-.2333602.034384-.3515475.1127301l-1.6236354 1.1342476h1.9992248c.4101489 0 .6733402-.4229476.5561712-.8110164-.078473-.2439184-.3107242-.4356856-.5802131-.4359613z" fill="#d0d0d0" stroke-width=".264583"/></svg>