<?xml version="1.0" encoding="UTF-8" standalone="no"?><svg height="16mm" viewBox="0 0 16 16" width="16mm" xmlns="http://www.w3.org/2000/svg"><sodipodi:namedview/><metadata><rdf:RDF><cc:Work><dc:format>image/svg+xml</dc:format><dc:type/><dc:title/></cc:Work></rdf:RDF></metadata><path d="m2.6581862 280.95931c-.9708661.063-2.1247315.79689-1.9631732 1.90211.2551059 1.33437 1.3868913 2.26143 2.3697445 3.09611.7685124.34979.9603923.95629.7596975 1.73645-.1559267 1.60937-.436015 3.20752-.8478746 4.77129-1.0913398.72817-2.2998542 1.48086-2.8759965 2.70986-.2787486.61941.056399 1.40572.581542 1.68738.5784393.40697 1.3637265.0664 1.7489916-.47438.6327139-.75219 1.0205403-1.6728 1.3392025-2.59348 2.3359032-1.35812 4.7789752-2.52284 7.241302-3.63136 1.32348.33557 2.703861.72876 4.078623.51633.615403-.0965.946498-.65016.906509-1.22887-.0046-.45167-.762704-1.07137-1.433085-1.1179-1.150388-.1385-2.296861.18608-3.382111.53843-2.1913178-.88727-4.2394238-2.08889-6.2223508-3.36729-.08003-1.38888-.148651-2.93538-1.0965528-4.04154-.3060605-.3329-.7555718-.52061-1.2044682-.50314zm-.1464892.96415c.9112106.12019 1.1211852 1.21099 1.2621378 1.96012.1314246.55892.1684535 1.0705-.358895.46907-.6214087-.57506-1.4664224-1.16182-1.547999-2.07193.037868-.27569.4307976-.31549.6447562-.35726zm2.4155962 5.34889c1.373713.87562 2.829256 1.62151 4.335912 2.2402-1.700869.60889-3.361054 1.33602-4.948281 2.19985.323781-1.46004.532778-2.94646.612369-4.44005zm9.2577858 2.04339c.568401-.10708 1.444454.47459.42309.47788-.577909.10515-1.681051-.0188-1.90021-.25931.484298-.11065.978939-.20983 1.47712-.21857zm-12.0122039 5.41266c-.2187188.41097-.6438224 1.79429-1.1301068 1.16843.072691-.56261.709976-.87515 1.1301068-1.16843z" fill="#d0d0d0" opacity=".8" transform="translate(0 -281)"/></svg>