<?xml version="1.0" encoding="UTF-8" standalone="no"?><svg height="16" viewBox="0 0 4.2333332 4.2333332" width="16" xmlns="http://www.w3.org/2000/svg"><sodipodi:namedview/><metadata><rdf:RDF><cc:Work><dc:format>image/svg+xml</dc:format><dc:type/><dc:title/></cc:Work></rdf:RDF></metadata><path d="m2.1170031-.0000006c-.2307964 0-.4532741.037116-.6614636.1053885v2.0112793c0 .3653191.2961473.6614651.6614636.6614651.3653191 0 .6614663-.296146.6614663-.6614651 0-.3653205-.2961472-.6614665-.6614663-.6614665v-.6614651c.7306393 0 1.3229312.5922933 1.3229312 1.3229316 0 .7306369-.5922919 1.3229315-1.3229312 1.3229315-.7306368 0-1.32293001-.5922946-1.32293001-1.3229315v-1.6515845c-.48352939.3879272-.79407309.9833699-.79407309 1.6515845 0 1.1689514.94760247 2.1166666 2.1166673 2.1166666 1.168951 0 2.1166659-.9476028 2.1166659-2.1166666 0-1.1689527-.9476012-2.1166678-2.1166659-2.1166678" fill="#d0d0d0"/></svg>