<?xml version="1.0" encoding="UTF-8" standalone="no"?><svg height="16" viewBox="0 0 16.049999 16" width="16.049999" xmlns="http://www.w3.org/2000/svg"><sodipodi:namedview/><metadata><rdf:RDF><cc:Work><dc:format>image/svg+xml</dc:format><dc:type/><dc:title/></cc:Work></rdf:RDF></metadata><path d="m7.2945309 0-.7128907 1.703125a6.4681644 6.4681644 0 0 0 -1.0898437.3535156l-1.5800781-.9570312-1.1777344.8574218.4199219 1.7929688a6.4681644 6.4681644 0 0 0 -.6699219.9316406l-1.84179689.1523438-.45117187 1.3886718 1.39453126 1.2011719a6.4681644 6.4681644 0 0 0 -.0292969.5761719 6.4681644 6.4681644 0 0 0  .0292969.5742188l-1.39453126 1.203125.45117187 1.3886722 1.83984379.152343a6.4681644 6.4681644 0 0 0  .671875.925782l-.4199219 1.798828 1.1777344.857422 1.5742187-.953125a6.4681644 6.4681644 0 0 0 1.0957031.351562l.7128907 1.701172h1.4589843l.7148438-1.703125a6.4681644 6.4681644 0 0 0 1.089844-.353516l1.578125.957032 1.179687-.857422-.421875-1.792969a6.4681644 6.4681644 0 0 0  .671875-.931641l1.839844-.152343.453125-1.3886722-1.394531-1.2011719a6.4681644 6.4681644 0 0 0  .029297-.5761719 6.4681644 6.4681644 0 0 0 -.03125-.5742188l1.396484-1.203125-.453125-1.3886718-1.837891-.1523438a6.4681644 6.4681644 0 0 0 -.673828-.9257812l.421875-1.7988282-1.179687-.8574218-1.572266.953125a6.4681644 6.4681644 0 0 0 -1.095703-.3535156l-.7148438-1.6992188zm-.2441407 3.390625c.043401.00984.096623.1528486.1035157.203125.00689.053139-.00272.085507 0 .1347656.00592.082892.1010503.07565.1523437.1191406.014767.012948.020414.049902.033203.068359.024697.033642.063473.032873.068359.068359.00987.085958-.076237.090769-.068359.1855469-.017762.037572-.07215.0523-.068359.1015625.00592.078149.121728.00722.1523437.068359.016866.032622-.00382.072799-.015625.1191406.038509.045371.031952.1015625-.035156.1015625-.041443 0-.042517-.058114-.083984-.068359-.023687-.00407-.054348.00407-.083984 0-.024679-.00413-.062273-.01359-.085937-.015625-.061185-.00617-.1158124.017909-.1523437-.017578.059216-.077939.1271379-.1536002.203125-.2207032.022582-.020749.062619-.043546.050781-.083984-.041449-.038129-.07968-.00718-.1191406.015625-.042434.022785-.087381.062253-.1347656.068359-.081908.010655-.204382-.010286-.2714844.033203-.00987.036489.080196.012112.068359.068359-.03355.00407-.075889.022796-.1015625 0-.022629-.020952-.00281-.056078-.017578-.068359-.025659-.019472-.127478-.039311-.1699218-.033203-.052297.00883-.077092.057257-.083984.1015626.063153.029785.1628556-.039728.1855469.035156-.033544.061133-.1280394.085091-.1171875.1679688.00393.031401.039759.081867.066406.085937.026651.00555.041709-.018943.068359-.017578.02763.00204.035791.021649.068359.017578.047362-.019932.06486-.07243.1191406-.068359.0651213.079805-.0500615.1277155-.1191413.1523447-.078949.028755-.1956643.0427134-.2558594.0683594-.03158.012756-.1355631.1230628-.1523438.0332031-.0128199-.064232.0535444-.0482337.0683594-.1015625-.076974-.014769-.1516252.0416924-.2207031.0683594-.099668.037541-.2634432.0409494-.2871094.1523438-.00382.022565.01481.087177 0 .1015624-.01184.012349-.088526.00733-.1191406.017578-.047362.016623-.089503.042571-.1191406.050781-.021758.00617-.054516.011555-.068359.015625-.039488.015796-.038611.066078-.083984.1015625-.017785.015403-.071124.020772-.085937.035156-.025659.025647-.03861.091318-.083984.1015625-.028604.00204-.041706-.016419-.068359 0-.00272.063188.026651.1391429 0 .203125-.05823.048212-.1281315.092293-.203125.1347656-.041449.023612-.068823.026154-.1191407.050781-.035527.017622-.078703.062326-.1191406.085937-.094737.055249-.203125.1127661-.203125.2539063 0 .030572.012686.066077.017578.1015625.00272.020754-.00109.045562 0 .068359.00689.051287.043426.1344356 0 .1699218-.06612-.027694-.1567155-.054204-.203125-.1015624-.012911-.049443.0205-.092211.015625-.1367188-.00496-.035472-.054406-.09749-.083984-.1015625-.029638-.00489-.036759.034568-.068359.033203-.037493-.00304-.1049574-.062335-.1523438-.066406-.070064-.0082-.1105255.010234-.1875 0-.075004.0394-.079133.1076699-.1699218.1015625-.00839-.0007326-.016905-.00701-.025391-.00977a4.7226043 4.7226043 0 0 1  .7402321-1.1972596c-.01179.032774-.016042.06169.015625.068359.03355.00697.1122473-.074898.1191407-.1015625.022701-.090885.064701-.1450265.1347656-.1875.040439-.024615.061464-.031672.068359-.083984-.00243-.00305-.00404-.00272-.00586-.00195-.00187.0007559-.00481.00195-.011719.00195-.012785-.000625-.027754.00307-.042969.00391a4.7226043 4.7226043 0 0 1  .068359-.064453c.024452-.00324.056602-.00619.060547-.00781.037822-.016225.039586-.04369.03125-.072266a4.7226043 4.7226043 0 0 1  .5410174-.4238341c.013858.031985.056349.070508.087891.072266.050326.00411.1159836-.033705.1367187-.083984.01997-.048982.020734-.1067298.041016-.1523437a4.7226043 4.7226043 0 0 1  .0957024-.0546883c.0848421-.014135.1522057-.0493871.203125-.1054688a4.7226043 4.7226043 0 0 1  .7382812-.2871093c.010967.032531.038305.055105.058594.058594.036508.0074.099265-.00116.1347656-.017578.066121-.030575.097082-.1294679.1523437-.1171875zm3.1523438.4238281a4.7226043 4.7226043 0 0 1  .08594.041016 4.7226043 4.7226043 0 0 1  .04883.029297c-.000849.02877-.03393.02376-.04687.0625-.01261.037542.0012.092475-.01563.1191406-.0148.020488-.04074.00938-.06836.017578-.06217.01778-.187964.097479-.238281.015625.0078-.044291.035971-.047482.050781-.083984.001-.027667-.038083-.03776-.033203-.068359.006-.036501.06112-.0364.1015629-.050781.02861-.010843.03085-.045561.06836-.068359.01466-.00754.03038-.00989.04687-.013672zm.283203.1621094a4.7226043 4.7226043 0 0 1  .302734.1992187c-.06525.034183-.144187.030213-.242187.042969-.05033.00611-.100996.041454-.154297 0-.01188-.032618.03026-.036745.03516-.068359-.004-.029583-.02625-.026149-.03516-.050781.01476-.038383.03895-.026722.03516-.083984.01589-.017127.03553-.028893.05859-.039063zm.371094.2519531a4.7226043 4.7226043 0 0 1  .65625.5957032c-.02313-.02607-.04927-.046837-.08594-.044922v-.00195c-.03162.00183-.0583.036396-.08398.050781-.02367.011874-.04469.034363-.06836.050781-.02862.018456-.05734.014261-.08399.015625-.06217.00407-.116619-.027906-.169922-.015625-.01776.00387-.01346.012712-.03516.033203-.001.028754.0038.036742 0 .068359-.0158.02748-.08266.032327-.117187.050781-.05132.026671-.07767.077685-.119141.1191406-.02665.026651-.06456.047665-.06836.068359-.0029.015796.02137.046579.01758.068359-.0049.023598-.05636.06329-.08594.083984-.01769.011738-.032.022959-.05078.033203-.03949.022783-.05141.062252-.08398.068359-.08683.015803-.254984-.023345-.253907.068359.001.059693.08445.070395.134766.068359.07007-.00204.113859.010234.152344 0 .02664-.00679.07393-.0385.101562-.050781.0178-.0082.03699-.011474.05078-.017578.02964-.014788.04568-.040535.06836-.050781.04539-.020762.139136-.048744.1875-.050781.06711-.00407.117271.00611.203125 0 .03059-.00204.05141-.013588.08398-.015625.05427-.00555.144075.01699.1875.015625.03059 0 .06602-.015625.101563-.015625.04046.00102.07708.025134.08398.050781.0049.013962-.0038.046579 0 .068359.0049.035473.03733.042796.03516.066406-.002.030572-.0968.082637-.08594.1191406.0069.022788.07492.05194.101562.068359.02764.016205.0856.011557.119141.015625.02763.00407.0417-.00204.06836 0 .04243.00497.108116.032325.134766.050781.04638.032622.03166.1006834.08594.1191407.02368.0082.07197-.0061.101563 0 .06978.015301.128445.068546.179687.066406a4.7226043 4.7226043 0 0 1  .427743 1.9511733 4.7226043 4.7226043 0 0 1 -1.169922 3.105469c-.0051-.02584-.0055-.05532-.03125-.06836.01803-.123315-.000219-.157807.01758-.388671.0079-.171652-.08973-.263743-.08594-.441407-.001-.07386.05026-.144026.101562-.203125.108548-.183504.165789-.2932214.1875-.4589841-.01184-.034451.0128-.040675 0-.068359-.05033-.109592-.08031-.2218103-.152344-.3046875-.03948-.045548-.08658-.077685-.11914-.1191406-.02665-.033647-.06836-.093495-.06836-.1191406-.001-.028549.0096-.05549.01758-.083984.0098-.036517.01941-.1126584.0332-.1699219.006-.026672.04004-.059089.03516-.1015625-.0049-.041443-.06682-.1400633-.119141-.1523438-.06907-.01641-.133867.0082-.220703 0-.07599-.048206-.07895-.169127-.1875-.1855468-.142102-.020731-.290975.059088-.388672.1015625-.05624.024629-.120582.048744-.169922.050781-.04737.00307-.09135-.031087-.136718-.035156-.05922-.00597-.127325.024914-.185547.035156-.05626.00968-.102029.029131-.152344.033203-.0957428.0069396-.1780849-.0873398-.2382822-.1347661-.036517-.028755-.0846207-.0416953-.1191407-.0683594-.0365112-.0286515-.0905361-.040676-.1191406-.0683593-.0384852-.0375405-.0456741-.1196479-.0664063-.1699219-.0246611-.0590831-.0804652-.0960973-.1367187-.1523438-.0414424-.0414425-.1414918-.1165941-.1523437-.1699218-.00592-.027466.019749-.054473.017578-.083984-.0029-.043266-.051857-.070963-.050781-.1015625.00103-.043266.054578-.065059.066406-.1015625.00592-.018856-.00689-.044747 0-.068359.013734-.050256.057674-.079303.050781-.1523437-.0029-.029561-.014549-.048418-.015625-.085937-.0010297-.0256423.0183463-.0447507.0156253-.0683607-.00296-.042453-.0615282-.0531187-.0664062-.1015625-.00592-.050263.034815-.095078.066406-.1523437.013734-.025633.037978-.047868.050781-.068359.027631-.041443.064227-.075731.085937-.1171875.014786-.030565.00369-.078764.017578-.1015625.01874-.029569.067043-.0474.1015625-.085937.027685-.031603.046654-.053976.066406-.068359.024673-.017645.059285-.0385.085937-.050781.091768-.042466.1411454-.097743.1855469-.1855468-.012893-.078984.018203-.09718.050781-.1523438.030593-.051287.052224-.1228298.1035156-.1523437.06217-.035472.142124-.020926.185547-.085937.02171-.033443.03516-.1002983.03516-.1347656 0-.048418-.04252-.1130332-.08594-.1191407-.04539-.00821-.109089.048445-.134766 0-.0079-.015803.0038-.049904 0-.068359-.0059-.032614-.049711-.077952-.050781-.1015626-.00292-.046571.052606-.08339.066406-.1367187.01879-.073034.0049-.1192156 0-.203125.06908-.1095761.22009-.061027.373047-.050781.02274.00204.04365 0 .06836 0 .09078.00185.172511.010625.203125-.068359.01184-.029542.0078-.1246616 0-.1523438-.0078-.03344-.05338-.1318534-.08398-.1523437-.04934-.030587-.142294-.01218-.169922-.068359.02269-.097635.137996-.00959.203125-.033203.03345-.011935.02115-.060149.05078-.068359.0207-.0074.07296.017578.101563.017578.02369 0 .07887-.05194.101562-.068359.01896-.012449.02958-.026739.04102-.041016zm-5.8925782.3808594c-.039488-.00285-.069171.032326-.083984.050781-.00206.029772.016696.038845.015625.068359-.048379.034467-.012225.1306942.035156.1347656.050332.0041.067659-.1224849.1347656-.1347656.023664-.00489.035793.037275.068359.033203.039532-.030565.023889-.1088957-.017578-.1191407-.015814-.00555-.057333.019613-.083984.017578-.027631-.00204-.044686-.049416-.068359-.050781zm.3964843.2167969c-.012639.00128-.026714.00391-.039063.00391-.024697 0-.045669-.00137-.068359 0-.015796.00137-.037694-.00204-.050781 0-.013026.00204-.034079.00335-.035156.015625.051312.024221.2049056.049442.2207031-.015625-.00497-.00513-.014717-.00518-.027344-.00391zm6.1699219.0175781a4.7226043 4.7226043 0 0 1  .08203.09375c-.0098-.00839-.02741-.01589-.0332-.023437-.01425-.018922-.03117-.04595-.04883-.070312zm-.07813.097656c.0014-.0013.0034-.00133.0098.00586.006.041443.0052.071554-.01758.085937-.04836-.00881-.03256-.075691 0-.085937.0049-.00204.0065-.00458.0078-.00586zm-6.4121094.00391c-.00841.000774-.016997.00195-.025391.00195v.00195c-.050332 0-.1264978.011555-.1699219.015625-.033544.00495-.074324-.0005075-.066406.050781.0069.040846.064056.029859.1015625.017578.078949-.024615.1401695-.047398.1855468-.085937-.00885-.00305-.016985-.00271-.025391-.00195zm6.3867184.1386719c.0474-.012924.08713.032192.06836.1347656-.0158.040846-.08755.07871-.119141.017578.01085-.048214.001-.081557 0-.1367187.01666-.017773.03498-.011555.05078-.015625zm.423828.2714844h.01758c.02755.00129.045.0004275.06445 0a4.7226043 4.7226043 0 0 1  .02734.037109c-.0037.031343-.003.067009-.02344.082031-.08191-.014769-.150969-.026637-.1875-.085937.02565-.019471.05813-.03524.101562-.033203zm-8.0566351 1.4941371c.026542.021736.054578.068113.050781.1015625-.00296.025837-.037973.048499-.050781.083984-.0108.031592-.00674.075916-.017578.1015626-.014816.033436-.056525.054318-.068359.085937-.00689.020754.00689.032327 0 .050781-.01178.032412-.07054.050534-.050781.083984.1055911.041456.2314539-.01641.3242188 0 .039471.00697.1358517.059024.1347656.1191406-.0009071.045338-.045895.087459-.050781.1367187-.00592.062157-.030494.1352706-.033203.1855469-.00393.081834.1162811.2220675.203125.2207031.093746-.0008163.1580028-.082461.2714844-.033203.037499.015793.077671.070394.1191406.068359.034536-.00204.078873-.060107.1015625-.1015625.028622-.050263.034638-.093495.083984-.1191406.053289-.02748.101828-.025134.1699219-.050781.030588-.010857.05636-.032327.083984-.050781.023718-.015063.03878-.047094.068359-.017578.039508.039399-.051128.041512-.017578.083984.068088.036524.1049554-.065044.1542969-.066406.015796-.00102.072958.047952.1015625.066406.038456.025633.041537.077729.083984.085937.026644.00597.080657-.039228.1191407-.035156.050332.00697.080656.069723.1191406.068359.046383-.00102.07968-.060149.1191406-.068359.086837-.016616.1138587.014008.1523438.068359.042447.00841.026948-.036119.066406-.015625-.021715.043265.017408.048501.035156.083984.00983.022604.00671.040536.017578.050781.023687.022605.082666.029.1171875.050781.036501.022765.044473.070764.085937.1191406.04342.049246.1126907.081868.1699219.085938.054275.00407.1069651-.00407.1523437 0 .1016448.012937.1652764.062026.2363281.1171874.040462.030586.073137.049437.085938.085938.0099.025641-.0099.072862 0 .1015624.021715.06196.1341298.079072.1015624.1855469.01481.03079.030906.046645.066406.068359.028616.017645.055325.04671.085937.050781.019726.00204.066237-.00136.083984 0 .056252.00393.088358.01671.1367187.035156.030588.010857.064227.018811.083984.033203.024588.016822.020169.069599.050781.083984.019751.010234.085594-.00407.1191406 0 .053289.00597.1049562.049418.1523437.050781.028604.00136.042682-.00136.068359 0 .1213746.00985.2058184.1440094.3222656.1875.03652.012343.094442.00538.1191407.015625.043426.018674.064568.1457757.068359.2050781.00987.1795688-.1251457.2370994-.2050781.3554687-.01666.024612-.027117.08467-.050781.1191406-.047356.06996-.090877.074904-.083984.2031248.0009674.03547.017578.04462.017578.08399 0 .0474-.00674.127449-.017578.169921-.00782.03242-.012686.05643-.017578.08594-.0049.02977.00382.05834 0 .08398-.00393.02852-.029071.06214-.050781.101563-.045398.08489-.077159.187253-.1699219.220703-.055267.01948-.1263362.01251-.1855469.0332-.024673.0087-.05636.03639-.085937.05078-.085847.04042-.2126614.09868-.2363282.1875-.021715.0789.048019.146468.033203.236328-.015681.02665-.027117.03776-.050781.06836-.020731.02848-.045671.05826-.068359.08594-.029608.03651-.083817.06692-.1015625.117188-.00592.01662.00689.02412 0 .05078-.00296.0098-.024296.01672-.033203.03516-.00789.01662.00689.06961 0 .08399-.022696.04533-.1039799.137958-.1523437.152343-.102626.02871-.2004325-.06517-.2714844-.05078.00987.05027.042734.0671.066406.101563.012572.01993-.00112.04665.017578.06836.022582.02563.048078.03986.050781.06836.00592.06115-.035788.11407-.068359.134766-.029602.01776-.082441.0093-.1347656.01758-.036507.006-.1521767.02717-.1699219.05078-.00143.002.000999.0056 0 .0078a4.7226043 4.7226043 0 0 1 -.9726546-.4824192c-.0026-.05117-.00498-.107735-.011719-.138672-.01184-.05724-.077092-.107774-.083984-.169922-.00302-.02258.03538-.05548.033203-.08398-.00193-.02665-.030499-.03776-.033203-.06836-.00217-.02851-.00272-.06811 0-.101563.0049-.06217-.00109-.126368 0-.1875.00109-.01783 0-.04796 0-.06641 0-.0513-.014863-.08544-.017578-.136719-.00382-.0938.01481-.167126 0-.253906-.011774-.06606-.027117-.161669-.050781-.203125-.026638-.04636-.1332211-.107205-.1855469-.136719-.034536-.01968-.064056-.03232-.1015625-.05078-.079932-.03939-.2535641-.123118-.2890625-.203125-.00988-.0236.010848-.07592 0-.101563-.0217155-.051272-.0865732-.0863222-.1191411-.1347652-.0611614-.0937349-.0901767-.2110409-.1523438-.3066407-.0315791-.0492374-.0670394-.096226-.1015625-.1347656-.02073-.022581-.0761063-.0514745-.0839844-.0859375-.0108009-.046371-.0556672-.1178744-.0507812-.1523438.0069-.047413.1015625-.05807.1015625-.1015624 0-.036483-.040893-.070963-.050781-.1015626-.02471-.076112.021143-.1223795.050781-.1855468.00884-.020754.00573-.053968.015625-.068359.017803-.026657.044691-.038845.068359-.068359.013734-.015793.033039-.044744.050781-.068359.037499-.049442.1033455-.073817.1191407-.1191406.012803-.036497.01481-.2103528 0-.2714844-.00885-.035462-.037979-.068113-.050781-.1015624-.022701-.060114-.040381-.1361303-.1015625-.1347657-.038509 0-.061235.041693-.085937.068359-.00586.035463-.014249.091319-.050781.1015625-.056252.016822-.069636-.081072-.1347656-.1015625-.025677-.0082-.051577.0061-.068359 0-.0473628-.0217368-.0688241-.0914579-.1191415-.1191414-.041454-.022788-.0934659-.0338914-.1191406-.0683594-.00988-.023592.00272-.052369 0-.083984-.05428-.0315964-.0891837-.142239-.1523438-.1699223-.041443-.0194739-.1175962-.0147411-.1699218-.0332031-.024643-.0078-.040728-.031087-.066406-.035156-.031561-.00617-.061241-.00335-.085937-.015625-.010486-.00522-.017841-.017638-.027344-.025391a4.7226043 4.7226043 0 0 1  .0625-.4238281c.010826-.00288.024291-.00482.033203-.00781.1075663-.033627.078973-.172326.1855469-.2207031.047368-.021576.105592-.029133.1875-.033203zm1.3066406 1.0839844c-.035498.016822-.036531.072432 0 .068359.038486-.00597.047387-.090138 0-.068359z" fill="#fff" stroke-linecap="round" stroke-linejoin="round" stroke-width="2.915179"/></svg>