<?xml version="1.0" encoding="UTF-8" standalone="no"?><svg height="16" viewBox="0 0 4.2333332 4.2333332" width="16" xmlns="http://www.w3.org/2000/svg"><sodipodi:namedview/><metadata><rdf:RDF><cc:Work><dc:format>image/svg+xml</dc:format><dc:type/><dc:title/></cc:Work></rdf:RDF></metadata><path d="m .4830992 0c-.2676358 0-.4830992.2154635-.4830992.4830992v3.2671348c0 .2676358.2154634.4830992.4830992.4830992h3.2671348c.2676357 0 .4830992-.2154634.4830992-.4830992v-3.2671348c0-.2676357-.2154635-.4830992-.4830992-.4830992zm.8881447.4497221c.096964.0000001.1709999.03838.2219928.1152555.051379.076489.077011.1877463.077011.3337713 0 .1456387-.025632.2570696-.077011.3339452-.050993.076489-.1250291.1147339-.2219928.1147339-.096964 0-.171135-.038245-.2225142-.1147339-.050993-.076876-.076489-.1883065-.076489-.3339452 0-.146025.025496-.257282.076489-.3337713.051379-.076876.1255506-.1152553.2225142-.1152555zm1.5111846 0c .096964 0 .1709999.03838.2219927.1152555.051379.076489.077011.1877463.077011.3337713 0 .1456387-.025632.2570696-.077011.3339452-.050993.076489-.125029.1147339-.2219927.1147339-.096964 0-.171135-.038245-.2225142-.1147339-.050993-.076876-.076489-.1883065-.076489-.3339452 0-.146025.025496-.257282.076489-.3337713.051379-.076876.1255506-.1152553.2225142-.1152555zm.7556792 0c .096964 0 .1709999.03838.2219927.1152555.051379.076489.077011.1877463.077011.3337713 0 .1456387-.025632.2570696-.077011.3339452-.050993.076489-.125029.1147339-.2219927.1147339-.096964 0-.1711351-.038245-.2225143-.1147339-.050993-.076876-.076489-.1883065-.076489-.3339452 0-.146025.025496-.257282.076489-.3337713.051379-.076876.1255506-.1152553.2225143-.1152555zm-3.062526.015646h.1171677v.7668046h.1912231v.098567h-.4983971v-.098567h.1912232v-.6602416l-.2080856.041721v-.1063893zm1.5113584 0h .1169938v.7668046h.1912231v.098567h-.498397v-.098567h.1912231v-.6602416l-.2079117.0417213v-.1063896zm-.7156962.077011c-.060264 0-.1055976.029862-.1361161.089353-.030132.059105-.045198.1480338-.045198.267017 0 .1185971.015066.2078731.045198.2673648.030518.059105.075852.088658.1361161.088658.060651 0 .105984-.029552.1361162-.088658.030518-.059492.045894-.1487677.045894-.2673648 0-.1189832-.015375-.2079117-.045894-.267017-.030132-.059492-.075466-.089353-.1361162-.089353zm1.5111846 0c-.060264 0-.1055976.029862-.1361161.089353-.030132.059105-.045198.1480338-.045198.267017 0 .1185971.015066.2078731.045198.2673648.030518.059105.075852.088658.1361161.088658.060651 0 .106158-.029552.13629-.088658.030519-.059492.04572-.1487677.04572-.2673648 0-.1189832-.015201-.2079117-.04572-.2670171-.030132-.059492-.075639-.089353-.13629-.0893529zm.7556792 0c-.060264 0-.1055977.029862-.1361162.089353-.030132.059105-.045198.1480338-.045198.267017 0 .1185971.015066.2078731.045198.2673648.030518.059105.075852.088658.1361162.088658.060651 0 .1059841-.029552.1361161-.088658.030518-.059492.045894-.1487677.045894-.2673648 0-.1189832-.015375-.2079117-.045894-.2670171-.030132-.059492-.075465-.089353-.1361161-.0893529zm-3.0428821 1.1443837c.096964 0 .1709998.038554.2219927.1154293.051379.076489.077011.1877463.077011.3337714 0 .1456386-.025632.2568957-.077011.3337713-.050993.076489-.1250291.1147339-.2219927.1147339-.096964 0-.1711351-.038244-.2225143-.1147339-.050993-.076876-.076489-.1881329-.076489-.3337715 0-.146025.025497-.2572821.076489-.3337714.051379-.076876.1255506-.1154292.2225143-.1154291zm.7556792 0c .096964 0 .170826.038554.2218188.1154293.051379.076489.077185.1877463.077185.3337714 0 .1456386-.025805.2568957-.077185.3337713-.050993.076489-.1248552.1147339-.2218188.1147339-.096964 0-.1711351-.038244-.2225143-.1147339-.050993-.076876-.076489-.1881327-.076489-.3337713 0-.146025.025496-.2572821.076489-.3337714.051379-.076875.1255506-.1154292.2225143-.1154293zm1.5111845 0c .096964 0 .1709998.038554.2219927.1154293.051379.076489.077011.1877463.077011.3337714 0 .1456386-.025632.2568957-.077011.3337713-.050993.076489-.1250291.1147339-.2219927.1147339-.096964 0-.171135-.038244-.2225143-.1147339-.050993-.076876-.076489-.1881329-.076489-.3337715 0-.146025.025497-.2572821.076489-.3337714.051379-.076876.1255507-.1154292.2225143-.1154291zm-.7956622.015645h.1171676v.7666309h.1912232v.098393h-.4983971v-.098393h.1912231v-.6598937l-.2080855.041721v-.106737zm1.5113584 0h .1169938v.7666309h.1912231v.098393h-.4983971v-.098393h.1912232v-.6598937l-.2079118.0417213v-.1067373zm-2.9825599.077185c-.060264 0-.1055976.029688-.1361162.08918-.030132.059105-.045198.1482076-.045198.2671909 0 .118597.015066.2075254.045198.2670171.030518.059105.075852.088484.1361162.088484.06065 0 .1059838-.029379.1361161-.088484.030518-.059492.045894-.1484201.045894-.2670171 0-.1189833-.015375-.2080856-.045894-.2671909-.030132-.059492-.075466-.08918-.1361161-.08918zm.7556792 0c-.060264 0-.1057715.029688-.13629.08918-.030132.059105-.045198.1482076-.045198.2671909 0 .118597.015066.2075254.045198.2670171.030519.059105.076026.088484.13629.088484.06065 0 .1059839-.029379.1361161-.088484.030518-.059492.04572-.1484201.04572-.2670171 0-.1189834-.015201-.2080857-.04572-.267191-.030132-.059492-.075466-.08918-.1361161-.08918zm1.5111845 0c-.060264 0-.1055976.029514-.1361162.089006-.030132.059105-.045198.1483815-.045198.2673648 0 .118597.015066.2075254.045198.267017.030518.059105.075852.088484.1361162.088484.060651 0 .1059841-.029379.1361161-.088484.030518-.059492.045894-.14842.045894-.2670171 0-.1189833-.015375-.2080856-.045894-.2671909-.030132-.059492-.075465-.08918-.1361161-.08918zm.044155 1.106313c.096964 0 .1709997.038554.2219926.1154292.051379.076489.077011.1877464.077011.3337713 0 .1456387-.025632.2568958-.077011.3337714-.050993.076489-.125029.1147339-.2219926.1147339-.096964 0-.1711352-.038244-.2225142-.1147339-.050993-.076876-.076489-.1881327-.076489-.3337714 0-.1460249.025497-.2572821.076489-.3337713.051379-.076876.1255505-.1154297.2225142-.1154292zm-2.189853.015471v.766805h.1912232v.098567h-.4982231v-.098567h.1912232v-.6600676l-.2080856.041721v-.106563l.2068687-.041721zm.7556792 0v .7668049h.1912233v.098567h-.498397v-.098567h.1912231v-.6598936l-.2079117.041721v-.106737l.2068687-.041721zm.7556792 0v .7668051h.1912233v.098567h-.4983971v-.098567h.1912232v-.6598938l-.2080856.041721v-.106737l.2068688-.041721zm1.5111845 0v .7668051h.1912233v.098567h-.498397v-.098567h.1912231v-.6598938l-.2079117.0417214v-.1067373l.2068687-.041721zm-.8326898.077359c-.060264 0-.1055977.029688-.1361161.08918-.030132.059105-.045198.1482077-.045198.2671909 0 .118597.015066.2075255.045198.2670171.030518.059105.075852.088658.1361161.088658.060651 0 .1059841-.029552.1361161-.088658.030518-.059492.045894-.1484201.045894-.2670171 0-.1189832-.015375-.2080855-.045894-.2671909-.030132-.059492-.075465-.08918-.1361161-.08918z" fill="#d0d0d0" stroke-linecap="square" stroke-width=".502708"/></svg>