<?xml version="1.0" encoding="UTF-8" standalone="no"?>
<svg
   xmlns:dc="http://purl.org/dc/elements/1.1/"
   xmlns:cc="http://creativecommons.org/ns#"
   xmlns:rdf="http://www.w3.org/1999/02/22-rdf-syntax-ns#"
   xmlns:svg="http://www.w3.org/2000/svg"
   xmlns="http://www.w3.org/2000/svg"
   xmlns:sodipodi="http://sodipodi.sourceforge.net/DTD/sodipodi-0.dtd"
   xmlns:inkscape="http://www.inkscape.org/namespaces/inkscape"
   height="12"
   viewBox="0 0 12 12"
   width="12"
   version="1.1"
   id="svg8"
   sodipodi:docname="glyph-key-plain.svg"
   inkscape:version="0.92+devel (42c84a5464, 2017-09-20, custom)">
  <defs
     id="defs10" />
  <sodipodi:namedview
     id="namedview2"
     inkscape:document-rotation="0"
     showgrid="false"
     inkscape:pagecheckerboard="false"
     pagecolor="#002466"
     inkscape:pageopacity="1"
     borderlayer="true"
     inkscape:showpageshadow="false"
     bordercolor="#ffffff"
     borderopacity="0.23921569"
     inkscape:zoom="34.227273"
     inkscape:cx="10.91235"
     inkscape:cy="11"
     inkscape:window-width="1920"
     inkscape:window-height="1017"
     inkscape:window-x="0"
     inkscape:window-y="34"
     inkscape:window-maximized="1"
     inkscape:current-layer="svg8" />
  <metadata
     id="metadata4">
    <rdf:RDF>
      <cc:Work>
        <dc:format>image/svg+xml</dc:format>
        <dc:type
           rdf:resource="http://purl.org/dc/dcmitype/StillImage" />
        <dc:title />
      </cc:Work>
    </rdf:RDF>
  </metadata>
  <path
     style="stroke-width:1;stroke:none;fill:#d0d0d0"
     d="M 4.1894531 0 C 3.5698031 -0.0017631988 2.9496434 0.23549833 2.4707031 0.7109375 C 2.4408021 0.7413122 2.3912295 0.7413122 2.3613281 0.7109375 C 2.3591681 0.7087155 2.3573388 0.7056 2.3554688 0.703125 L 2.3535156 0.70507812 C 2.3103566 0.63932782 2.2616582 0.57775214 2.2070312 0.52148438 C 1.7286097 0.035487985 0.95303095 0.035487985 0.47460938 0.52148438 C -0.003812195 1.0074808 -0.003812195 1.7952536 0.47460938 2.28125 C 0.53035827 2.337142 0.5910411 2.3875595 0.65625 2.4316406 L 0.65625 2.4335938 C 0.658688 2.4355038 0.65991338 2.4372631 0.66210938 2.4394531 C 0.69201068 2.4698281 0.69201067 2.5184533 0.66210938 2.5488281 C -0.2353892 3.5341902 -0.22434123 5.0556797 0.71679688 6.0117188 C 1.5350789 6.8429566 2.7788508 6.9649976 3.7226562 6.3789062 C 3.7243707 6.3774019 3.7267874 6.3764806 3.7285156 6.375 C 3.7608706 6.35477 3.7945569 6.3324489 3.8261719 6.3105469 C 3.9972481 6.2266089 4.2076792 6.2581708 4.3496094 6.4023438 C 4.497516 6.5525949 4.5237041 6.7797549 4.4277344 6.9570312 C 4.4251544 6.9618012 4.4240581 6.9646759 4.4238281 6.9667969 C 4.3737621 7.0691503 4.3859936 7.189464 4.4628906 7.2675781 C 4.5619426 7.3681983 4.7297425 7.3598909 4.8398438 7.2480469 L 5.1503906 6.9316406 L 5.328125 7.1132812 L 5.7871094 7.3046875 L 5.9746094 7.6933594 L 6.2617188 7.7207031 L 7.6425781 9.1230469 L 7.9941406 9.1347656 L 8.4296875 9.9199219 L 9.3847656 10.287109 L 9.4804688 10.919922 L 10.041016 11.269531 L 10.291016 11.933594 L 11.537109 12 L 11.943359 11.585938 L 12 10.427734 L 6.8535156 5.2011719 L 7.1308594 4.9199219 C 7.2409605 4.8080776 7.2494432 4.6357761 7.1503906 4.5351562 C 7.0698336 4.4533243 6.9434676 4.444364 6.8398438 4.5039062 C 6.8384837 4.5042514 6.8375675 4.5050149 6.8359375 4.5058594 C 6.6627251 4.5977874 6.4443271 4.569674 6.2988281 4.421875 C 6.1569008 4.2776976 6.1283075 4.0624568 6.2109375 3.8886719 C 6.2324935 3.8565649 6.2515754 3.8238746 6.2714844 3.7910156 C 6.2729426 3.7892581 6.2739084 3.7868995 6.2753906 3.7851562 C 6.8523536 2.8264124 6.7323395 1.5617014 5.9140625 0.73046875 C 5.4359402 0.24477637 4.8134073 0.0017754463 4.1894531 0 z M 1.3417969 0.88476562 C 1.4805391 0.88476561 1.6187517 0.93739029 1.7246094 1.0449219 C 1.9363206 1.2599891 1.9363206 1.6091515 1.7246094 1.8242188 C 1.7038194 1.8450157 1.6820121 1.8637264 1.6582031 1.8808594 C 1.6044271 1.9182654 1.5436816 1.9478349 1.4804688 1.9667969 C 1.2938706 2.0171849 1.0937152 1.9627487 0.95703125 1.8242188 C 0.74532008 1.6091515 0.74531992 1.2599891 0.95703125 1.0449219 C 1.0628888 0.93739024 1.2030546 0.88476564 1.3417969 0.88476562 z "
     id="path818"
     inkscape:label="#" />
</svg>
