<?xml version="1.0" encoding="UTF-8" standalone="no"?><svg height="16" viewBox="0 0 4.2333332 4.2333332" width="16" xmlns="http://www.w3.org/2000/svg"><sodipodi:namedview/><metadata><rdf:RDF><cc:Work><dc:format>image/svg+xml</dc:format><dc:type/><dc:title/></cc:Work></rdf:RDF></metadata><path d="m2.2319493.00000054a2.116646 2.116646 0 0 0 -.5950535.08667303c-.00282.0043762-.00484.0089059-.00399.01718205.00131.0199152.019405.027826.029761.0296072.015974.003236.043835-.00002592.059367-.00721.028929-.0133773.042553-.05722358.066731-.05185069.01899.0043074.041471.06697745.044487.08897439.00302.0232489-.00119.0378156 0 .0593672.00258.0362667.044442.0329756.066884.0520039.00646.005665.00913.0215318.014727.0296072.010806.0147188.027622.0142346.02976.0297603.00432.0376084-.033207.0401431-.02976.0816108-.00777.0164386-.031267.0230876-.029608.0446405.00258.0341917.053336.002858.066731.0296068.00738.0142727-.0022.0317287-.00736.052004.016849.0198506.014481.0444871-.014881.0444871-.018132 0-.018981-.0251246-.037124-.0296068-.010363-.001781-.024003.001781-.03697 0-.010797-.00181-.026771-.00632-.037124-.00721-.02677-.002701-.050901.008316-.066884-.00721.025907-.0340997.055882-.0671321.089128-.0964911.00988-.009078.027423-.019431.022243-.0371237-.018135-.016682-.034739-.002765-.052004.00721-.018565.009969-.038635.0270886-.059367.0297603-.035837.004662-.089376-.004302-.1187347.0147267-.00432.0159647.03494.005151.029761.0297603-.014679.001781-.033408.009974-.044641 0-.0099-.009167-.0008917-.0243872-.00736-.0297603-.011227-.00852-.055677-.017399-.074247-.0147267-.022881.003863-.034108.0251026-.037124.0444871.027631.0130318.071837-.0178832.081765.0148802-.014676.0267466-.056752.0378332-.052004.074094.00172.0137385.017948.0353425.029608.0371237.01166.002434.018099-.007807.02976-.00721.012088.00089165.015356.008991.029605.00721.020723-.008721.028255-.0315417.052004-.0297603.028492.034916-.02178.0561083-.052004.0668841-.034542.0125809-.084881.0183862-.1112177.0296071-.013816.005581-.059542.0541956-.066884.0148802-.00561-.0281032.023279-.0211545.02976-.0444871-.033678-.006462-.066268.0179404-.096491.0296071-.043607.0164251-.1157433.0181465-.1260979.066884-.00166.009873.00648.0381935 0 .0444872-.00518.005403-.038609.002728-.052004.00721-.020723.007273-.039037.0186515-.052004.0222435-.00952.002701-.023547.005429-.029605.00721-.017277.006911-.017271.0289614-.037124.0444871-.00778.006739-.030643.008587-.037124.0148802-.011227.011221-.017271.0400046-.037124.0444871-.0125153.00089164-.0179478-.007184-.0296083 0-.001188.0276461.0116605.0609808 0 .0889743-.025476.021094-.0563163.040784-.0891276.059367-.0181348.010331-.0299888.011468-.0520039.022243-.0155432.00771-.0341581.026793-.0518504.037124-.0414489.024173-.0891276.049466-.0891276.1112178 0 .013376.005225.029115.007365.044641.001188.00908-.00047625.019633 0 .029607.003016.022439.0189987.058722 0 .074248-.0289285-.01211702-.0686696-.02376702-.0889747-.04448702-.005649-.021632.009499-.039894.007365-.059367-.002167-.01552-.0241819-.042859-.0371237-.044641-.0129667-.00214-.0157837.015477-.0296083.01488-.0164042-.00133-.0461519-.027979-.0668842-.02976-.0306547-.00359-.0479329.00448-.0816108 0-.0328159.017238-.0345257.047313-.0742476.044641-.0111771-.0009763-.0224065-.00726-.0345159-.011505a2.116646 2.116646 0 0 0 -.13684083.4384259c.0156969-.00335.0330702-.00726.0452541-.011352.0470626-.014712.0349828-.075325.0816108-.096491.0207253-.00944.0457742-.012946.0816108-.014727.0116134.00951.0239059.029852.0222435.044487-.001283.011304-.0166389.021598-.0222435.037124-.004726.013822-.002611.033266-.007363.044487-.006483.014629-.024583.02329-.0297603.037124-.003016.00908.003016.014169 0 .022243-.005153.014181-.0308883.022489-.0222435.037124.0461982.018138.1005451-.00718.14113151 0 .0172702.00305.0598424.025702.0593673.052004-.00040482.019836-.0201062.037662-.0222435.059214-.002588.027195-.0136956.059767-.0148802.081764-.001728.035804.0509784.097088.0889743.096491.0410158-.0003572.0690837-.036432.11873441-.014881.0164071.00691.0338601.030651.0520042.029761.0151098-.0008917.0345595-.026349.0444869-.044487.0125214-.021991.0155345-.040783.0371238-.052004.0233148-.012023.0444548-.011022.0742475-.022243.0133821-.00475.0250367-.014169.0371237-.022243.010378-.00659.0166624-.020124.0296053-.00721.0172858.017238-.0220385.018387-.007362.03697.0297899.01598.0452961-.029012.066884-.029608.00691-.0004445.031972.021534.044487.029608.016826.011215.018553.033532.037124.037124.011658.00261.035013-.016662.05185-.014881.022021.00305.035166.030357.052004.02976.020293-.0004445.034739-.026168.052004-.02976.037993-.00727.049893.00598.066731.02976.018571.00368.012495-.016176.02976-.00721-.0095.01893.00696.021599.014727.037124.0043.00989.00276.017761.00752.022243.010363.00989.036747.012714.051851.022243.015971.00996.018981.030838.037123.052004.018996.021546.049207.035343.074247.037124.023745.00178.046877-.00178.066731 0 .044472.00566.072921.027717.1040077.051851.017704.013382.031523.021154.037124.037124.00433.011218-.00433.03193 0 .044487.0095.027109.058736.035026.044487.081611.00648.013471.014077.02026.029608.02976.012521.00772.023731.020462.037124.022243.00863.0008917.029359-.0005927.037124 0 .024612.00172.038208.00681.059367.014881.013382.00475.02848.00843.037124.014727.010758.00736.00885.03083.022243.037124.00864.00448.037327-.00178.052004 0 .023315.00261.045998.021647.066731.022243.012515.0005927.018527-.0005926.02976 0 .053104.00431.09003.062583.1409784.081611.015977.0054.041198.00273.052004.00721.018999.00817.027946.063182.029605.089128.00432.078565-.054156.1040689-.089128.1558579-.00729.010769-.011889.03677-.022243.051851-.02072.030609-.039987.033028-.036971.089128.0004154.015515.00736.019754.00736.03697 0 .020735-.00261.055664-.00736.074247-.00342.014184-.00538.024212-.00752.037124-.00214.013026.00166.025903 0 .037124-.00172.012478-.012744.027239-.022243.044487-.019862.037142-.033661.081856-.074247.096491-.024179.00852-.055705.00583-.081611.01488-.010794.00386-.024182.015949-.037124.022244-.03756.017685-.0935.042747-.1038546.081611-.0095.034521.021362.064539.014881.1038548-.00686.01166-.011889.016373-.022243.02976-.00907.012462-.019833.024858-.02976.03697-.012955.015976-.036723.030007-.044487.052004-.00258.00727.00302.010578 0 .022244-.00131.0043-.010984.00681-.014881.01488-.00345.00727.00302.03083 0 .037123-.00993.019836-.045571.060437-.066731.066731-.044901.012563-.087648-.028537-.1187347-.022244.00432.021992.019251.029406.029608.044487.0055.00872-.0008307.020262.00736.029761.00988.011216.021213.01714.022398.029608.00258.02675-.015511.050313-.02976.059368-.012952.00777-.036474.00362-.059367.00721-.015974.00262-.066484.011912-.074248.022244-.010806.015081.00821.044287 0 .059367-.00312.00598-.00742.00951-.012118.011967a2.116646 2.116646 0 0 0  .72989811.1326903 2.116646 2.116646 0 0 0 1.4998293-.6252739c-.00198-.0007408-.00394-.000926-.00598-.00185.0082-.028543.022447-.038885.037123-.081611.00992-.035869.026747-.08676-.00736-.1040077.00789-.053953-.0004234-.069577.00736-.1705852.0034599-.075101-.0387861-.1152504-.037123-.1929818-.0004499-.032313.022045-.063271.044487-.089128.047492-.080287.072112-.1278208.081611-.2003455-.00518-.015073.0056-.017648 0-.02976-.022021-.047951-.035212-.097201-.066731-.1334615-.017272-.019928-.037755-.033866-.052004-.052004-.01166-.014721-.029608-.040783-.029608-.052004-.0004498-.012491.00392-.024657.00736-.037124.0043-.015977.00885-.04904.014883-.074094.00259-.01167.017018-.026058.01488-.044641-.00217-.018132-.02911-.061358-.052004-.066731-.030223-.00718-.058498.00359-.096491 0-.033247-.021091-.034118-.074427-.081611-.081611-.062172-.00907-.1279938.025904-.1707386.044487-.024609.010776-.05266.021507-.074247.022398-.020722.00134-.039514-.0131-.059368-.014881-.025905-.00261-.056138.010399-.081611.014881-.024612.00422-.044716.012946-.066731.014727-.041883.00305-.077517-.038623-.1038542-.059373-.015975-.012581-.0369-.017942-.052004-.029608-.015973-.012554-.039489-.017648-.052004-.02976-.016838-.016425-.020534-.052251-.029605-.074247-.01079-.02585-.034755-.042122-.059367-.066731-.018132-.018132-.062136-.050915-.066884-.074247-.00259-.012017.00847-.024212.00752-.037124-.00127-.01893-.022714-.031099-.022244-.044487.0004498-.01893.024429-.028516.029605-.044487.00259-.00825-.00302-.019429 0-.02976.00601-.021988.02526-.034774.022244-.066731-.00127-.012934-.00689-.020708-.00736-.037124-.0004498-.011218.00855-.01943.00736-.02976-.0013-.018574-.02747-.023292-.029605-.044487-.00259-.021991.015782-.041676.029605-.066731.00601-.011215.016642-.020795.022244-.02976.012089-.018132.027625-.033713.037124-.051851.00647-.013373.0013-.034666.00737-.044641.0082-.012937.029537-.020109.04464-.03697.012113-.013827.020963-.023467.029605-.02976.010795-.00772.025464-.016871.037124-.022244.040152-.01858.062185-.043348.081611-.081764-.00564-.034557.00799-.042596.022244-.066731.013385-.022439.022199-.053818.04464-.066731.027201-.01552.062612-.00868.081611-.037124.0095-.014632.01488-.044287.01488-.059367 0-.0211836-.018127-.0491784-.037124-.0518505-.01986-.003592-.048134.0211955-.059368 0-.00346-.006914.00167-.0216858 0-.0297603-.00254-.0142698-.021773-.0341567-.022244-.0444871-.0013-.0203761.023577-.0361879.029608-.0595207.00822-.0319534.00214-.0522622 0-.0889743.030225-.0479419.0963-.0267261.1632218-.0222435.00995.00089165.018955 0 .02976 0 .03972.00080698.07558.004797.088974-.0297603.00518-.0129252.00345-.054619 0-.0667306-.00345-.0146309-.023577-.0579181-.03697-.0668831-.021587-.0133821-.062159-.005028-.074247-.0296068.00993-.0427173.060479-.00455.088974-.0148802.014631-.005222.00928-.0260152.022243-.0296068.00906-.003236.032125.007056.044641.007056.010364 0 .03456-.0224229.044487-.0296068.013822-.009078.017521-.0216853.029608-.0297603.00576-.003606.016687-.007091.02608-.0104325a2.116646 2.116646 0 0 0 -.042187-.0320477c-.00768.00753-.015738.0144092-.013502.0276127-.029792.0231537-.070378.0161025-.1187348.022397-.022021.002672-.04341.0181372-.066731 0-.0052-.0142716.012589-.0159279.014727-.0297603-.00172-.0129434-.010832-.011467-.014727-.0222435.00646-.0167931.016388-.0120703.014727-.0371237.012089-.0130281.041194-.0120676.04464-.0297603.00262-.0121047-.00973-.0224235-.022244-.0296069-.00729-.00386-.014632-.0103981-.022397-.0148802-.00375-.002064-.0053-.004633-.0069-.00721a2.116646 2.116646 0 0 0 -1.0267429-.26646088zm-.8863673.19727711a2.116646 2.116646 0 0 0 -.2773542.15263687c-.00348.006776-.00675.0137081-.00675.020402 0 .0150733.028504.0360799.044487.0369705.022018.001799.050449-.0149728.059521-.0369705.010758-.0263869.00238-.0627359.022243-.0817642.075809.001958.1333349-.0319064.1578532-.0912747zm1.8236647.0616683v.00015319c.02677-.002514.057705.0137901.059367.0297603.00217.015965-.016185.0114697-.022243.0296072-.00552.0164253-.0001728.0403376-.00752.0520039-.00648.008964-.017518.003619-.029605.00721-.027201.007779-.081993.0430226-.1040077.00721.00344-.0193781.015917-.0211535.022397-.0371237.0004498-.0121047-.017015-.0163724-.01488-.0297603.00259-.0159702.026794-.0159517.044487-.0222435.012515-.004744.013351-.0196321.02976-.0296071.00698-.00359.01429-.005429.022245-.00721zm-2.34723208.28241659a2.116646 2.116646 0 0 0 -.0659635.0582935c.0155284.00069056.0566488-.005125.0605945-.00675.0254492-.0109183.0181377-.0332672.00537-.0515436zm.0539981.0664239v.00015711c-.017277-.001246-.0306431.0143224-.0371237.022397-.00089165.013026.007834.0166939.007365.0296068-.0211659.0150802-.005851.0575859.0148812.0593672.0220208.001797.0300072-.0539942.0593673-.0593672.0103542-.002138.0153564.0166616.0296053.0148802.0172948-.0133734.0107818-.0475215-.007362-.0520039-.00692-.002434-.0254643.0081-.0371238.00721-.012088-.00089165-.0192511-.0216466-.0296083-.0222435zm-.0914285.0138065c-.00083079.00033073-.002048.00092075-.005061.00092075v.00030692c-.0147656-.00072231-.0358063.00067733-.0495495.004756a2.116646 2.116646 0 0 0 -.0204028.0219366c-.003259.009025-.006656.0187137-.0118118.0250047-.009927.0121087-.0209637.0189844-.0296053.0297603-.007742.009873-.0563537.0744266-.0222433.0816109.0146794.003051.0488344-.0329742.0518504-.0446406.009933-.0397636.0288661-.0630277.0595208-.0816108.0176924-.0107699.0265922-.0142362.0296083-.0371237-.001069-.001336-.001484-.001259-.002286-.00092075zm2.91896808.0598275c-.013832.00080169-.025892.0159499-.037124.0222435-.010353.005195-.019251.0150601-.029608.0222435-.012523.008075-.025464.006613-.037124.00721-.027198.001781-.050926-.0125831-.074247-.00721-.00777.001693-.00538.005915-.01488.0148802-.0004762.0125807.00167.0159269 0 .0297603-.00691.0120227-.036747.0141692-.051851.0222435-.02245.0116694-.03386.0338661-.052004.052004-.01166.0116605-.028097.0205528-.02976.0296068-.0013.006911.00918.0202311.00752.0297603-.00217.0103246-.024183.0280697-.037124.0371237-.00774.005136-.014028.0102444-.022244.0147267-.017277.009968-.022876.0270883-.037124.0297604-.037994.006914-.1118426-.0103627-.1113711.0297603.0004499.026117.037353.030498.059367.029607.030654-.0008917.050046.00448.066884 0 .011657-.00297.032399-.016871.044487-.022244.00779-.00359.016211-.00454.022243-.00721.012967-.00647.019833-.0177609.029761-.0222435.01986-.009084.060451-.0213527.081611-.0222435.029362-.001781.051411.002672.088974 0 .013383-.00089165.022876-.006319.037124-.00721.023746-.002434.062612.007807.081611.00721.013383 0 .029086-.00721.044641-.00721.017703.00044714.033954.0110225.03697.0222435.00214.006109-.00167.0202311 0 .0297604.00217.01552.01583.01943.014883.02976-.0008731.013376-.041873.03588-.037124.051851.00302.00997.03298.022577.04464.02976.012089.00709.037174.00543.051851.00721.012089.00178.0181-.0008917.02976 0 .018566.00217.047707.014169.059367.022244.020294.014273.013377.043929.037124.052004.010361.00359.031544-.00267.044487 0 .031516.00691.058741.032279.081611.029607.03624-.00431.017918-.03508.022243-.059214.0007938-.00481.00228-.00831.00414-.011505a2.116646 2.116646 0 0 0 -.1472693-.24636692c-.00511.008183-.011012.0145079-.020098.0128857-.00188-.0113347.00467-.0208912.00629-.0322149a2.116646 2.116646 0 0 0 -.0518489-.0725597c-.010491-.00571-.020714-.0103846-.028685-.0139597-.013383-.006026-.025038-.0159501-.037124-.0222435-.021159-.0116694-.061305-.0351427-.074247-.0520039-.015544-.0206433-.032623-.0611486-.066731-.0593673zm-2.6544998.0210164c-.00553.00055827-.011779.001685-.017182.001685-.010806 0-.019833-.00059796-.029761 0-.006911.00059795-.0165169-.00089165-.0222433 0-.0057.00089164-.0144092.001836-.0148812.00721.0224512.0105974.0895794.0212585.0964911-.00721-.00217-.002244-.0069-.002244-.012426-.001685zm2.6650847.0506233c.000635-.00056621.00148-.00007837.0043.003068.00262.0181319.00241.0308302-.00752.0371238-.021159-.003859-.014248-.0326413 0-.0371238.00214-.00089165.00262-.002503.00322-.003068zm-2.80498895.001995c-.003678.00033867-.007219.001074-.0108916.001074v.00046302c-.0220208 0-.0552485.005429-.0742475.00721-.0146764.002167-.0332249-.00019632-.0297606.0222435.003022.017871.0282309.0125831.0446407.00721.0345417-.0107699.061757-.0202623.0816107-.0371238-.003871-.001333-.007674-.00141-.0113517-.001074zm2.79440405.0604401c.020735-.005655.037974.0143354.02976.0592139-.00691.017871-.038182.0339565-.052004.00721.00475-.0210944.0004763-.0350796 0-.0592138.00729-.007776.015333-.005429.022244-.00721zm.1929821.11858104c.018994.00089164.028931 0 .044487 0-.00603.016428-.00193.0424749-.01488.0520039-.035837-.006462-.065628-.0111787-.081611-.0371237.011224-.008519.025487-.0156176.044487-.0147267zm-3.6157284.33825562c-.00971.022086-.0186227.044597-.0276128.067038.008824-.022501.0180295-.04485.0276128-.067038zm-.0773155.20326c-.00614.018956-.0115633.038187-.0171813.057373.005458-.019204.0111861-.03833.0171813-.057373zm-.07117939.3874979a2.116646 2.116646 0 0 0 -.0170278.2535767 2.116646 2.116646 0 0 0  .96889869 1.7759563c.00184-.01351.00533-.030366.0069-.042186.00258-.023699-.00304-.069298-.00736-.089128-.00518-.025043-.034108-.047056-.037124-.074247-.00131-.00988.015834-.024503.014881-.036971-.0008598-.011663-.013697-.016372-.014881-.02976-.0009498-.012475-.00119-.029852 0-.044487.00214-.027198-.0004762-.055018 0-.081764.0004763-.0078 0-.021534 0-.029608 0-.022442-.00618-.036925-.00737-.059367-.00166-.041037.00648-.073403 0-.1113711-.00515-.028902-.011889-.070836-.022243-.088974-.011655-.020283-.0587173-.046454-.081611-.059367-.0151098-.00861-.0282308-.014168-.0446404-.022243-.0349721-.017232-.11056643-.053969-.12609784-.088974-.004325-.010324.004747-.03342 0-.044641-.0095-.022439-.0377547-.038018-.052004-.059213-.02675936-.041011-.03952586-.091788-.06672546-.1336149-.0138155-.021542-.0293827-.042506-.0444872-.059368-.009069-.00988-.0336769-.022045-.0371237-.037123-.004726-.020288-.0243806-.05165-.0222433-.066731.003022-.020744.0444872-.025458.0444872-.044487 0-.015962-.0179181-.031099-.0222433-.044487-.0108114-.033301.009277-.054127.0222433-.081764.003868-.00908.003037-.023312.007362-.029608.007789-.011663.0194053-.016847.0297603-.02976.006008-.00691.0144806-.019429.0222433-.029761.0164071-.021632.0450931-.032174.0520039-.052004.005602-.015968.00648-.091988 0-.1187343-.003871-.015516-.016796-.029852-.0223978-.044487-.009933-.026301-.0177192-.059964-.0444869-.059367-.0168495 0-.0263163.018093-.0371237.02976-.002553.015516-.006261.040005-.0222433.044487-.0246121.00736-.0308717-.035522-.0593673-.044487-.0112332-.00359-.022265.00267-.0296068 0-.0207231-.00951-.0299888-.039892-.0520039-.052004-.0181369-.00997-.0407709-.014528-.0520039-.029608-.004322-.010322.001188-.023291 0-.037123-.0237486-.013824-.0390969-.062136-.0667308-.074248-.0181322-.00852-.0513538-.00665-.0742475-.014727-.0107817-.00341-.0183741-.0131-.0296068-.014881-.0138097-.0027-.0263179-.00184-.0371237-.00721-.0147822-.00736-.0270379-.021465-.0386578-.035899zm-.0193289.036664c-.001045.00868-.001947.017402-.002915.026079.0009181-.0087.001892-.017393.002915-.026079zm.82239789.1624545c-.0155316.00736-.0159827.031542 0 .02976.0168376-.00261.0207322-.039289 0-.02976zm.1411316 1.8575671c-.405753.1947149-.8115062.3894298 0 0z" fill="#d0d0d0" stroke-width=".109967"/></svg>