<?xml version="1.0" encoding="UTF-8" standalone="no"?><svg height="16" viewBox="0 0 16 16" width="16" xmlns="http://www.w3.org/2000/svg"><sodipodi:namedview/><metadata><rdf:RDF><cc:Work><dc:format>image/svg+xml</dc:format><dc:type/><dc:title/></cc:Work></rdf:RDF></metadata><g fill="#d0d0d0" opacity=".6" transform="matrix(.54244966 0 0 .54244966 3.678994 3.710571)"><ellipse cx="-3.595862" cy="-3.763689" rx="1.190421" ry="1.225423" transform="matrix(0 -1 -1 0 0 0)"/><ellipse cx="-4.225107" cy="7.885175" rx="1.190422" ry="1.225423" transform="scale(-1 1)"/><ellipse cx="-7.887977" cy="11.697831" rx="1.190421" ry="1.225423" transform="rotate(-90)"/><g transform="matrix(0 -1 -1 0 0 0)"><ellipse cx="-12.140451" cy="-3.763689" rx="1.190422" ry="1.225423"/><ellipse cx="-12.140451" cy="-12.347623" rx="1.190422" ry="1.225423"/><ellipse cx="-7.907515" cy="-15.582557" rx="1.190421" ry="1.225423"/><ellipse cx="-12.668329" cy="-16.382557" rx="1.190422" ry="1.225423"/><ellipse cx="-4.149099" cy="-7.96853" rx="1.190421" ry="1.225423"/></g><ellipse cx="7.965727" cy="11.621824" rx="1.190421" ry="1.225423"/><ellipse cx="-7.86341" cy="-8" rx="1.190421" ry="1.225423" transform="matrix(0 -1 -1 0 0 0)"/><ellipse cx="-3.595862" cy="-12.347623" rx="1.190421" ry="1.225423" transform="matrix(0 -1 -1 0 0 0)"/><ellipse cx="-3.595862" cy="-3.863689" rx="1.190421" ry="1.225423" transform="matrix(0 -1 -1 0 0 0)"/><ellipse cx="-3.146702" cy="-16.482557" rx="1.190421" ry="1.225423" transform="matrix(0 -1 -1 0 0 0)"/><ellipse cx="-7.907515" cy=".3489" rx="1.190421" ry="1.225423" transform="rotate(-90)"/><ellipse cx="-12.668329" cy="-.551101" rx="1.190422" ry="1.225423" transform="rotate(-90)"/><ellipse cx="-3.146702" cy="-.551101" rx="1.190421" ry="1.225423" transform="rotate(-90)"/><ellipse cx="-1.555899" cy="-17.424345" rx="1.190422" ry="1.225423" transform="scale(1 -1)"/><ellipse cx="7.965727" cy="-15.424343" rx="1.190421" ry="1.225423" transform="scale(1 -1)"/><ellipse cx="3.204914" cy="-16.324345" rx="1.190422" ry="1.225423" transform="scale(1 -1)"/><ellipse cx="12.726542" cy="-16.324345" rx="1.190421" ry="1.225423" transform="scale(1 -1)"/><ellipse cx="17.487354" cy="-17.424345" rx="1.190421" ry="1.225423" transform="scale(1 -1)"/><ellipse cx="-1.555899" cy="-1.609315" rx="1.190422" ry="1.225423"/><ellipse cx="-1.555899" cy="-1.609315" rx="1.190422" ry="1.225423"/><ellipse cx="7.965727" cy=".390686" rx="1.190421" ry="1.225423"/><ellipse cx="7.965727" cy=".390686" rx="1.190421" ry="1.225423"/><ellipse cx="3.204914" cy="-.609315" rx="1.190422" ry="1.225423"/><ellipse cx="3.204914" cy="-.609315" rx="1.190422" ry="1.225423"/><ellipse cx="12.726542" cy="-.609315" rx="1.190421" ry="1.225423"/><ellipse cx="12.726542" cy="-.609315" rx="1.190421" ry="1.225423"/><ellipse cx="17.487354" cy="-1.609315" rx="1.190421" ry="1.225423"/><ellipse cx="17.487354" cy="-1.609315" rx="1.190421" ry="1.225423"/></g><rect fill="none" height="16" stroke-linecap="round" stroke-width="2.181818" width="16"/></svg>