<?xml version="1.0" encoding="UTF-8" standalone="no"?>
<!-- Created with Inkscape (http://www.inkscape.org/) -->

<svg
   xmlns:dc="http://purl.org/dc/elements/1.1/"
   xmlns:cc="http://creativecommons.org/ns#"
   xmlns:rdf="http://www.w3.org/1999/02/22-rdf-syntax-ns#"
   xmlns:svg="http://www.w3.org/2000/svg"
   xmlns="http://www.w3.org/2000/svg"
   xmlns:sodipodi="http://sodipodi.sourceforge.net/DTD/sodipodi-0.dtd"
   xmlns:inkscape="http://www.inkscape.org/namespaces/inkscape"
   width="22"
   height="22"
   viewBox="0 0 22 22"
   version="1.1"
   id="svg8"
   inkscape:version="0.92+devel 15698 custom"
   sodipodi:docname="glyph-question.svg">
  <defs
     id="ol-defs">
    <style
       id="current-color-scheme">      .ColorScheme-Text {
        color:#d0d0d0;
        stop-color:#d0d0d0;
      }
      .ColorScheme-Background {
        color:#212121;
        stop-color:#212121;
      }
      .ColorScheme-Highlight {
        color:#0039a9;
        stop-color:#0039a9;
      }
      .ColorScheme-ViewText {
        color:#d0d0d0;
        stop-color:#d0d0d0;
      }
      .ColorScheme-ViewBackground {
        color:#19191b;
        stop-color:#19191b;
      }
      .ColorScheme-ViewHover {
        color:#005cc7;
        stop-color:#005cc7;
      }
      .ColorScheme-ViewFocus{
        color:#002466;
        stop-color:#002466;
      }
      .ColorScheme-ButtonText {
        color:#d0d0d0;
        stop-color:#d0d0d0;
      }
      .ColorScheme-ButtonBackground {
        color:#232323;
        stop-color:#232323;                             
      }                                                 
      .ColorScheme-ButtonHover {                        
        color:#005cc7;                                  
        stop-color:#005cc7;                             
      }                                                 
      .ColorScheme-ButtonFocus{                         
        color:#0039a9;                                  
        stop-color:#0039a9;                             
      }</style>
  </defs>
  <sodipodi:namedview
     id="base"
     pagecolor="#002266"
     bordercolor="#ffffff"
     borderopacity="0.46666667"
     inkscape:pageopacity="0"
     inkscape:pageshadow="2"
     inkscape:zoom="18.500001"
     inkscape:cx="12.135114"
     inkscape:cy="11.652012"
     inkscape:document-units="px"
     inkscape:current-layer="svg8"
     inkscape:document-rotation="0"
     showgrid="false"
     inkscape:showpageshadow="false"
     borderlayer="true"
     units="px"
     fit-margin-top="0"
     fit-margin-left="0"
     fit-margin-right="0"
     fit-margin-bottom="0"
     inkscape:window-width="1920"
     inkscape:window-height="1054"
     inkscape:window-x="0"
     inkscape:window-y="0"
     inkscape:window-maximized="1" />
  <metadata
     id="metadata5">
    <rdf:RDF>
      <cc:Work
         rdf:about="">
        <dc:format>image/svg+xml</dc:format>
        <dc:type
           rdf:resource="http://purl.org/dc/dcmitype/StillImage" />
        <dc:title></dc:title>
      </cc:Work>
    </rdf:RDF>
  </metadata>
  <path
     inkscape:connector-curvature="0"
     id="path4268"
     d="M 10.982648,0 C 9.111433,0 7.5981893,0.5084823 6.4429177,1.5254472 5.295781,2.542412 4.711389,3.7815225 4.5879739,5.2353348 4.3345946,8.2201041 7.5812753,8.0712744 7.736497,5.6258493 7.8024,4.5875204 8.3588787,3.8522625 8.94465,3.3559838 9.530422,2.859705 10.258571,2.6115655 11.129091,2.6115655 c 0.903065,0 1.619009,0.2400037 2.14783,0.7200111 0.536957,0.4718716 0.805436,1.0413714 0.805436,1.708501 0,0.4800063 -0.150504,0.9193351 -0.451533,1.3179863 -0.195258,0.2522068 -0.793232,0.7850966 -1.793925,1.5986679 -1.000694,0.8135713 -1.667822,1.5457859 -2.001387,2.1966442 -0.333563,0.650858 -0.500347,1.480702 -0.500347,2.48953 0,0.09763 0.0041,0.370175 0.01218,0.817641 0.07387,2.480232 3.092198,2.560341 3.111911,0 0.0052,-0.659451 0.07827,-1.682038 0.231869,-1.964777 0.194538,-0.358086 0.630517,-0.850181 1.354596,-1.452225 1.399343,-1.1634089 2.310544,-2.0827456 2.733601,-2.7580092 0.431192,-0.6752651 0.646791,-1.3912078 0.646791,-2.1478296 0,-1.3668013 -0.581706,-2.5627514 -1.745113,-3.5878519 C 14.517616,0.5166182 12.951492,0 10.982648,0 Z m -0.03661,17.945362 A 2.0267033,2.0267033 0 0 0 8.920244,19.971155 2.0267033,2.0267033 0 0 0 10.946038,22 2.0267033,2.0267033 0 0 0 12.971831,19.971155 2.0267033,2.0267033 0 0 0 10.946038,17.945362 Z"
     style="font-style:normal;font-variant:normal;font-weight:bold;font-stretch:normal;font-size:16px;font-family:Arial;-inkscape-font-specification:'Arial Bold';fill:#d0d0d0;stroke-width:1.56205785"
     inkscape:label="#glyph" />
</svg>
