<?xml version="1.0" encoding="UTF-8" standalone="no"?><svg height="22" shape-rendering="crispEdges" viewBox="0 0 22 22" width="22" xmlns="http://www.w3.org/2000/svg"><metadata><rdf:RDF><cc:Work><dc:format>image/svg+xml</dc:format><dc:type/><dc:title/></cc:Work></rdf:RDF></metadata><sodipodi:namedview><inkscape:grid/><inkscape:grid/></sodipodi:namedview><g fill="#fff" fill-rule="evenodd" shape-rendering="crispEdges" transform="matrix(.02664806 0 0 .02506931 -1.609166 -2.348708)"><path d="m741.04213 188.05297c-2.24584.16286-4.36756 2.06148-4.95071 4.97012-14.94887 74.56374-85.64109 120.33559-170.71699 138.63722 25.34015 21.47086 41.44845 53.28234 41.44845 88.84827 0 64.64181-53.03884 117.03179-118.4595 117.03179-57.42852 0-105.27939-40.40022-116.12165-93.99381-9.40183 33.43708-40.36826 58.00426-77.20357 58.00426-20.61962 0-37.95851-7.87687-50.77229-20.55292a126.25416 90.103307 54.043067 0 1 -11.08408 119.98464 126.25416 90.103307 54.043067 0 1 -21.48059 12.80537c261.62109 150.6357 672.41419 150.6612 534.92423-420.23856-.98519-4.09081-3.33745-5.6593-5.5833-5.49638zm-511.98594 51.57233c-1.03362 35.25491 3.06951 91.73133 2.47535 140.21597 12.57199-22.03917 35.07948-36.74968 63.50662-36.74968 36.33499 0 66.99509 23.88851 76.84602 56.63017 4.57315-25.17918 17.34374-47.50908 35.39758-64.34848-76.15113-12.05749-144.65281-44.19339-178.22557-95.74798zm350.23524 327.50193c47.81407 9.75678 55.96485 30.25565 27.86149 72.91462 3.62574-13.20061 4.02749-22.01475 3.54801-31.19483-81.35383 32.18589-184.71649 14.38413-184.71649 14.38413 99.39266-2.41118 155.8188-17.06747 177.64798-34.44004-5.15352-7.52023-11.39753-15.22144-24.34099-21.66388z" opacity=".385" shape-rendering="crispEdges"/><path d="m604.8701 600.48552c-10.42336 2.14593-19.66109 17.18023-16.7774 25.75695.17898.16959.3788.32198.57764.46777 65.3943 55.0234 130.79141 107.42202 196.18565 150.59474-.26165-14.76533 4.84807-26.83534 15.84227-33.18287 2.5424-1.46785 5.19838-2.5358 7.89363-3.36216-53.26121-46.80932-134.19652-106.57017-203.72172-140.27443z"/><g shape-rendering="crispEdges"><path d="m488.36339 315.11271a106.64173 105.37218 0 0 0 -106.63279 105.39587 106.64173 105.37218 0 0 0 106.63279 105.36661 106.64173 105.37218 0 0 0 106.6603-105.36661 106.64173 105.37218 0 0 0 -106.6603-105.39587zm24.56102 72.76846a48.354307 48.354304 0 0 1 48.35194 48.38562 48.354307 48.354304 0 0 1 -48.35194 48.32715 48.354307 48.354304 0 0 1 -48.32443-47.83014 29.971357 30.172838 0 0 0 9.15882 1.49104 29.971357 30.172838 0 0 0 29.97929-30.2008 29.971357 30.172838 0 0 0 -5.77582-17.71704 48.354307 48.354304 0 0 1 14.96214-2.45583z"/><path d="m297.10095 355.34148a67.758975 66.952321 0 0 0 -67.74222 66.9505 67.758975 66.952321 0 0 0 67.74222 66.95048 67.758975 66.952321 0 0 0 67.76972-66.95048 67.758975 66.952321 0 0 0 -67.76972-66.9505zm15.59473 46.22215a30.723792 30.723791 0 0 1 30.72192 30.72706 30.723792 30.723791 0 0 1 -30.72192 30.72707 30.723792 30.723791 0 0 1 -30.72191-30.40547 19.043469 19.171488 0 0 0 5.85835.93556 19.043469 19.171488 0 0 0 19.03273-19.1496 19.043469 19.171488 0 0 0 -3.65803-11.2851 30.723792 30.723791 0 0 1 9.48886-1.54952z"/><path d="m808.41058 752.4089c18.72889-10.81303 43.90128-.1169 48.76999 16.31991 7.82892 26.43003 13.76401 71.97849 28.7812 108.17382 0 0-60.03331-27.50781-76.58084-53.99926-18.27637-29.25924-19.69897-59.68142-.97035-70.49447z"/><path d="m213.68635 448.80449a113.20514 80.790664 54.043069 0 1 11.28374 142.07831 113.20514 80.790664 54.043069 0 1 -131.38889-33.29354 113.20514 80.790664 54.043069 0 1 -11.28374-142.0783 113.20514 80.790664 54.043069 0 1 131.38889 33.29353" opacity=".758"/></g></g></svg>