<?xml version="1.0" encoding="UTF-8" standalone="no"?><svg height="16" viewBox="0 0 4.2333332 4.2333332" width="16" xmlns="http://www.w3.org/2000/svg"><sodipodi:namedview/><metadata><rdf:RDF><cc:Work><dc:format>image/svg+xml</dc:format><dc:type/><dc:title/></cc:Work></rdf:RDF></metadata><path d="m8 0c-1.26049 0-2.4078523.43088064-3.3398438 1.1308594l-.7089843-.7089844c-.1167326-.11673272-.2695326-.17578125-.421875-.17578125-.1523426.00000004-.3051425.05904865-.421875.17578125-.2334656.23346558-.2334652.6083316 0 .8417969l.6796875.6796875c-.7221993.8372409-1.2127182 1.8805574-1.3339844 3.0449218h11.09375c-.121266-1.1643644-.611785-2.2076809-1.333984-3.0449218l.679687-.6796875c.233465-.2334641.233465-.60833056 0-.8417969-.116732-.11673207-.269532-.17578095-.421875-.17578125-.152341-.0000003-.30514.05904797-.421875.17578125l-.708984.7089844c-.931992-.69997876-2.0793538-1.1308594-3.339844-1.1308594zm-5.578125 6.1484375v.4667969h-.859375c-.3745527 0-.67773438.3012281-.67773438.6757812 0 .374555.30318168.6757813.67773438.6757813h.859375v1.6484375h-.859375c-.3745527 0-.67773436.3012274-.67773438.6757816 0 .374555.30318168.675781.67773438.675781h.8867188c.2722324 2.832464 2.6446594 5.033203 5.5507812 5.033203 2.906122 0 5.278549-2.200739 5.550781-5.033203h.888672c.374551 0 .675781-.301229.675781-.675781 0-.3745557-.301228-.6757816-.675781-.6757816h-.861328v-1.6484375h.861328c.374551 0 .675781-.3012282.675781-.6757813 0-.3745549-.301228-.6757812-.675781-.6757812h-.861328v-.4667969z" fill="#d0d0d0" stroke-width="1.3" transform="scale(.26458333)"/></svg>