<?xml version="1.0" encoding="UTF-8" standalone="no"?>
<!-- Created with Inkscape (http://www.inkscape.org/) -->

<svg
   xmlns:dc="http://purl.org/dc/elements/1.1/"
   xmlns:cc="http://creativecommons.org/ns#"
   xmlns:rdf="http://www.w3.org/1999/02/22-rdf-syntax-ns#"
   xmlns:svg="http://www.w3.org/2000/svg"
   xmlns="http://www.w3.org/2000/svg"
   xmlns:xlink="http://www.w3.org/1999/xlink"
   xmlns:sodipodi="http://sodipodi.sourceforge.net/DTD/sodipodi-0.dtd"
   xmlns:inkscape="http://www.inkscape.org/namespaces/inkscape"
   width="16"
   height="16"
   viewBox="0 0 4.2333332 4.2333332"
   version="1.1"
   id="svg8"
   inkscape:version="0.92+devel (b8837397f6, 2017-07-27, custom)"
   sodipodi:docname="glyph-plank.svg">
  <defs
     id="defs2">
    <linearGradient
       gradientTransform="matrix(0.17638889,0,0,0.17638889,-2.1165777,-179.27491)"
       xlink:href="#linearGradient4146"
       id="linearGradient4152"
       x1="21.051001"
       y1="1016.939"
       x2="28.563999"
       y2="1040.1071"
       gradientUnits="userSpaceOnUse" />
    <linearGradient
       id="linearGradient4146">
      <stop
         style="stop-color:#e4f2f6;stop-opacity:1;"
         offset="0"
         id="stop2" />
      <stop
         style="stop-color:#b1caee;stop-opacity:1"
         offset="1"
         id="stop4" />
    </linearGradient>
  </defs>
  <sodipodi:namedview
     id="base"
     pagecolor="#002466"
     bordercolor="#ffffff"
     borderopacity="0.38039216"
     inkscape:pageopacity="1"
     inkscape:pageshadow="2"
     inkscape:zoom="36.415999"
     inkscape:cx="10.094581"
     inkscape:cy="7.9162778"
     inkscape:document-units="px"
     inkscape:current-layer="svg8"
     inkscape:document-rotation="0"
     showgrid="false"
     inkscape:showpageshadow="false"
     borderlayer="true"
     inkscape:window-width="1920"
     inkscape:window-height="1051"
     inkscape:window-x="0"
     inkscape:window-y="0"
     inkscape:window-maximized="1"
     units="px" />
  <metadata
     id="metadata5">
    <rdf:RDF>
      <cc:Work
         rdf:about="">
        <dc:format>image/svg+xml</dc:format>
        <dc:type
           rdf:resource="http://purl.org/dc/dcmitype/StillImage" />
        <dc:title></dc:title>
      </cc:Work>
    </rdf:RDF>
  </metadata>
  <path
     d="M 2.1166666,2.6459264e-4 C 1.8243902,2.6459264e-4 1.5875,0.23714499 1.5875,0.52940914 1.5876764,0.75359014 1.728964,0.95325401 1.9402778,1.0278634 V 1.4113169 H 1.2347222 v 0.352763 h 0.7055556 v 1.4110523 c 0,0.1763815 -0.2428876,0.2807994 -0.3591279,0.2656305 C 1.0604499,3.3725032 0.63764591,3.2603244 0.39458191,3.0349088 L 0.7514167,3.0528998 0.14305141,2.4858331 C 0.0282223,2.7456431 0.0148167,3.0036893 0,3.2813139 L 0.1883833,3.0955841 c 0.090488,0.3733998 1.3267973,0.6086926 1.5014222,0.762321 L 2.1166666,4.2334214 2.543175,3.8582579 C 2.7183291,3.7042767 3.954286,3.4682783 4.0435389,3.0945259 l 0.1897943,0.186788 c 0,-0.2825633 -0.061559,-0.5291447 -0.1430514,-0.7954808 L 3.786011,2.7692783 3.5276013,3.0527234 3.8392804,3.0347324 C 3.5967458,3.2592662 3.175882,3.371974 2.6571222,3.4405863 2.5392944,3.456108 2.2928792,3.3513374 2.2928792,3.1749558 V 1.7639036 H 2.9984347 V 1.4111405 H 2.2928792 V 1.0273343 C 2.5040167,0.95272481 2.6453041,0.75323735 2.6456569,0.52923281 2.6456569,0.23696859 2.4087666,8.8199996e-5 2.1164902,8.8199996e-5 m 0,0.352763030004 c 0.097368,0 0.176389,0.079019 0.176389,0.17638158 0,0.0973627 -0.079022,0.17638152 -0.176389,0.17638152 -0.097367,0 -0.1763887,-0.0790189 -0.1763887,-0.17638152 0,-0.0973626 0.079022,-0.17638158 0.1763887,-0.17638158"
     style="fill:#d0d0d0;fill-opacity:1;stroke-width:0.26458332;stroke-linejoin:round"
     id="path26"
     inkscape:connector-curvature="0"
     inkscape:label="@" />
</svg>
