<?xml version="1.0" encoding="UTF-8" standalone="no"?><svg height="16" viewBox="0 0 4.2333332 4.2333332" width="16" xmlns="http://www.w3.org/2000/svg"><sodipodi:namedview/><metadata><rdf:RDF><cc:Work><dc:format>image/svg+xml</dc:format><dc:type/><dc:title/></cc:Work></rdf:RDF></metadata><path d="m10.914062 1.1289062c-.081637-.0050631-.166033.0050768-.242187.03125-.109909.0377575-.160185.0627375-.205078.1054688-.013115.0125102-.065171.0582349-.115235.0996094-.072253.0597165-.165136.1708386-.269531.3144531-.042187.1583055-.065452.3144052-.1113279.4726563-.2153121.7428657-.4718915 1.4843196-.7695312 2.2128906-.2976378.7285708-.636539 1.4440795-1.0175781 2.1367187-.1905223.3463219-.3899929.6882045-.6015626 1.0214844-.2115741.3332788-.4352069.6590236-.6679687.9765625-.2327622.317537-.4763836.6266876-.7304687.9257812-.2540901.2990968-.5174231.5872948-.7929688.8652348-.2225159.224458-.4587254.437411-.6953125.646484.0673663-.000767.1268537.000038.2207031.023438.2449021.06116.3191149.107659.5429688.339843.1735559.180015.2232619.245715.40625.541016.2292057.369895.3206029.543221.40625.765625.0311433.080916.1118336.2627.1796875.404297.0678576.141592.1564127.346523.1972656.455078.0408491.108555.1118519.277842.15625.376953.0444019.099114.1327642.31129.1972656.472656.0645052.161363.1448072.353509.1777344.425782.042531.093361.0678053.130927.0898437.130859.0398627-.000138.2920191-.059731.4277344-.101563.1021569-.031521.4171964-.18474.6777344-.330078.0707981-.039477.2045818-.132374.2988281-.207031.1964145-.155584.7317079-.632554.7871094-.701172.0204472-.025285.1420969-.161837.2695313-.302734.1274343-.140905.3273172-.366223.4453122-.501953.117993-.135735.272604-.313712.34375-.394532.071139-.080817.207392-.23829.302735-.351562.236659-.281182.750817-.783726.958984-.9375.379524-.280354.6268-.402586.931641-.460938.22721-.043491.413048-.025774.673828.0625.212621.071985.276887.102499.4375.210938.066073.044621.141637.093444.167969.109375.125419.075829.512123.408889.783203.671875.591294.573641 1.178866 1.067222 1.220703 1.02539.018141-.018141-.044541-.176381-.234375-.58789-.063148-.136872-.146892-.338711-.1875-.447266-.0406-.108552-.129421-.327808-.197266-.488281-.067846-.160471-.156561-.38477-.197265-.498047-.040682-.113272-.129577-.337573-.197266-.498047-.067693-.1604709-.16456-.3990974-.214844-.5312498-.050288-.1321511-.145166-.3789103-.210937-.5488281-.13745-.3550469-.446571-1.2430363-.921875-2.6445312-.473439-1.3960279-.704121-2.0457623-.97461-2.7460938-.230193-.595985-.660283-1.4792087-.890625-1.8300781-.161884-.2466104-.474909-.5717758-.628906-.6542969-.065435-.0350608-.144925-.0554837-.226563-.0605469zm-1.5019526.2636719c-.1233071.1696177-.2660299.3875613-.4394532.6816407-.0974097.1651918-.2317982.3863944-.2988281.4902343-.0670223.1038312-.1447266.2267528-.171875.2734375-.10992.1890029-.4744758.6860406-.7617187 1.0390625-.2431748.2988624-.7027691.7260315-.8769532.8144531-.033033.0167812-.0911449.0507811-.1289062.0761719-.084703.0569386-.2430207.1196648-.453125.1796875-.1776491.0507515-.5095453.2147116-.6523438.3222656-.2443426.1840366-.7918105.7732232-1.0195312 1.0976563-.0354142.0504643-.0900487.1205306-.1210938.1542969-.0309921.0337512-.0713467.0809094-.0898437.1054687-.020674.0274772-.0898859.0670016-.1796875.1035157-.0802394.0326551-.2138757.0893959-.2988281.1269531-.08496.0375685-.3204878.1329809-.5234375.2109375-.2029493.0779565-.4516639.1790585-.5507813.2246094-.0991181.0455508-.2408875.1049951-.3164062.1328124-.2098583.0773141-.6588234.2575395-.7285157.2929688-.0341291.0173858-.3011162.1256618-.59375.2402344-.29262232.1145726-.58935506.2364717-.6601562.2695312-.07079433.0331087-.22266506.0973674-.3359375.1425782-.27203528.1086009-.27351638.1191191-.05078125.265625.07755591.0510198.348851.2472287.61523437.4433593.05561198.0409399.15246265.1096502.21484376.1523438.06239242.0427011.18765932.1313091.27734372.1972656.0896731.0659565.1945615.1402166.234375.1660156.0657789.0426104.3367326.2370576.5957031.4277349.0556082.040939.1524627.109589.2148438.152343.1056983.072439.3381814.239083.5761719.414063.1931452.142004.3886685.271484.4101562.271484.0220347 0 .2992161-.107628.3515625-.136719.0651099-.036132.2072102-.0733.3203125-.082031.0183307-.001537.0377779.008077.0546875.007813.2365871-.209073.4708442-.422028.6933594-.646485.2755427-.2779387.5408333-.5661408.7949219-.8652341.2540863-.2990967.4977061-.6082424.7304687-.9257813.2327622-.3175408.4544418-.6432826.6660156-.9765625.2115705-.3332749.4129957-.6751609.6035157-1.0214843.3810391-.6926355.7199422-1.4081517 1.0175781-2.1367188.2976416-.7285751.5542206-1.4700252.7695312-2.2128906.045876-.1582526.0691638-.3143485.1113282-.4726563z" fill="#d0d0d0" transform="scale(.26458333)"/></svg>