<?xml version="1.0" encoding="UTF-8" standalone="no"?><svg height="22" viewBox="0 0 22 22" width="22" xmlns="http://www.w3.org/2000/svg"><sodipodi:namedview/><metadata><rdf:RDF><cc:Work><dc:format>image/svg+xml</dc:format><dc:type/><dc:title/></cc:Work></rdf:RDF></metadata><path d="m11 0a10.999329 10.999329 0 0 0 -11.0000001 11 10.999329 10.999329 0 0 0 11.0000001 11 10.999329 10.999329 0 0 0 11-11 10.999329 10.999329 0 0 0 -11-11zm-.01511 1.5474519c1.691872 0 3.038422.4447384 4.038145 1.3326213.999742.8808917 1.498779 1.9086317 1.498779 3.0831556 0 .6501823-.185006 1.2642516-.555539 1.8445221-.363542.5802691-1.147223 1.3701071-2.34971 2.3698511-.622217.51735-.995936.940991-1.163107 1.248703-.131991.242964-.195257 1.121753-.199725 1.688435-.01694 2.200158-2.6101565 2.131319-2.6736346 0-.00696-.384518-.010071-.61934-.010071-.703236 0-.866908.1430231-1.578939.4296613-2.138236.2866393-.559298.8587263-1.189039 1.7186453-1.88816.859917-.6991197 1.374626-1.1578527 1.542415-1.3745799.258681-.3425698.387703-.7187374.387703-1.1312174 0-.5732793-.230067-1.0630789-.691486-1.4685691-.454423-.4124808-1.070172-.6193165-1.846196-.6193165-.748058 0-1.3730438.2129939-1.8764117.6394569-.5033645.4264638-.982276 1.0579998-1.0389054 1.9502594-.1333849 2.1014086-2.9232575 2.2292076-2.7055232-.3356729.1060533-1.2492935.6086851-2.313313 1.5944458-3.187214.9927513-.873901 2.2925418-1.3108026 3.9005195-1.3108026zm-.03189 15.4208111a1.7415919 1.7415919 0 0 1 1.742143 1.740465 1.7415919 1.7415919 0 0 1 -1.742143 1.74382 1.7415919 1.7415919 0 0 1 -1.7404632-1.74382 1.7415919 1.7415919 0 0 1 1.7404632-1.740465z" fill="#d0d0d0" stroke-linecap="round" stroke-linejoin="round" stroke-width=".765404"/></svg>