<?xml version="1.0" encoding="UTF-8" standalone="no"?><svg height="16" viewBox="0 0 4.2333333 4.2333333" width="16" xmlns="http://www.w3.org/2000/svg"><sodipodi:namedview/><metadata><rdf:RDF><cc:Work><dc:format>image/svg+xml</dc:format><dc:type/><dc:title/></cc:Work></rdf:RDF></metadata><path d="m8.5585938 0c-2.852179.50797304-5.70669.99358844-8.5585938 1.4921875 0 4.3386588-.00192416 8.6790855 0 13.0195315 2.83717.496813 5.6782577.971072 8.5097656 1.488281h1.1621094v-1.488281c1.862264 0 3.344465-.002441 5.207031.005859.316135-.01485.669831.008.941406-.185547.217701-.332957.160446-.74916.179688-1.125-.02748-3.6651258.012099-7.3309386-.019531-10.9960935.03898-.4241904-.292605-.7557716-.716797-.7128906-1.988927-.030236-3.601083.0012343-5.591797-.0097657v-1.4882812zm1.0917968 2.2109375h5.2109374c.21642 0 .390625.1742066.390625.390625v10.6718755c0 .216416-.174207.390624-.390625.390624h-5.2109374v-2.925781a2.9804604 2.9804604 0 0 0 1.1015624.214844 2.9804604 2.9804604 0 0 0 2.980469-2.9804688h-2.980469v-2.9804687a2.9804604 2.9804604 0 0 0 -1.1015624.2128906zm-5.0585937 2.4902344c.5246351-.011142 1.0265698.06366 1.4355469.4335937.7834899.9507156.5775816 2.7003805-.5839844 3.2695313-.4125389.2107049-.8849463.180718-1.3339844.1660156-.00189.7107829-.0035531 1.42203-.0019531 2.1328125-.36059-.03162-.7212686-.062217-1.0820313-.091797-.016291-1.9414199-.0197008-3.8848941.0019532-5.8261718.4935339.02363 1.0398184-.0728353 1.5644531-.0839843zm6.7734371.3476562v2.3261719h2.326172a2.3263994 2.3263994 0 0 0 -2.326172-2.3261719zm-6.693359.7148438c-.185873-.023658-.3853753-.0023806-.5644531.0058593-.0054.6105926-.0089501 1.2191321.0292969 1.828125.3617887-.0436242.8298967-.0064177 1.0371093-.3808593.172766-.3671698.1837789-.8370973-.0234375-1.1933594-.1209124-.1680983-.2926421-.2361058-.4785156-.2597656z" fill="#d0d0d0" stroke-width=".148838" transform="scale(.26458333)"/></svg>