<?xml version="1.0" encoding="UTF-8" standalone="no"?>
<!-- Created with Inkscape (http://www.inkscape.org/) -->

<svg xmlns:dc="http://purl.org/dc/elements/1.1/" xmlns:cc="http://creativecommons.org/ns#" xmlns:rdf="http://www.w3.org/1999/02/22-rdf-syntax-ns#" xmlns:svg="http://www.w3.org/2000/svg" xmlns="http://www.w3.org/2000/svg" xmlns:sodipodi="http://sodipodi.sourceforge.net/DTD/sodipodi-0.dtd" xmlns:inkscape="http://www.inkscape.org/namespaces/inkscape" width="12" height="12" viewBox="0 0 12 12" version="1.1" id="default16" inkscape:version="0.92+devel (8ef6761023, 2017-10-07, custom)" sodipodi:docname="glyph-bonjour.svg">
  <defs id="defs5" />
  <sodipodi:namedview id="base" pagecolor="#002466" bordercolor="#ffffff" borderopacity="0.38039216" inkscape:pageopacity="1" inkscape:pageshadow="2" inkscape:zoom="52.5625" inkscape:cx="4.8364236" inkscape:cy="6.8188616" inkscape:document-units="px" inkscape:current-layer="default16" inkscape:document-rotation="0" showgrid="false" inkscape:showpageshadow="false" borderlayer="true" inkscape:window-width="1920" inkscape:window-height="1029" inkscape:window-x="0" inkscape:window-y="22" inkscape:window-maximized="1" units="px" />
  <metadata id="metadata5">
    <rdf:RDF>
      <cc:Work rdf:about="">
        <dc:format>image/svg+xml</dc:format>
        <dc:type rdf:resource="http://purl.org/dc/dcmitype/StillImage" />
        <dc:title></dc:title>
      </cc:Work>
    </rdf:RDF>
  </metadata>
  <path style="fill:#d0d0d0;stroke:none;stroke-width:0.99999994" d="M 3.7331358,0.53947849 C 3.9082721,0.79429493 4.0023976,1.0960502 4.0031925,1.4052483 4.0025546,1.6713753 3.9327586,1.9327674 3.80065,2.1637897 c 0.00198,-2.8e-6 0.00398,-2.8e-6 0.00596,0 1.5802772,-0.1363683 3.4485109,2.4435713 3.9396497,3.594136 0,0 0.049051,-0.021143 0.1469427,-0.057586 C 7.5487828,4.2301073 4.7656355,0.62333386 3.7331358,0.53947849 Z m 5.0278191,0.0754571 C 7.7896651,0.67814956 6.8262063,1.2029825 6.1576884,2.1498897 6.1271198,2.2041643 6.2899765,2.2744815 6.2629311,2.3305894 6.9439604,1.7370263 8.027805,1.5599421 8.8105977,2.01089 9.243763,2.261068 9.5746394,2.6561384 9.7438817,3.1268593 10.224165,2.5635336 11.036661,2.4234789 11.677964,2.7932599 c 0.05797,0.033756 0.113735,0.070158 0.166799,0.1111998 C 11.666229,2.1059276 11.162636,1.4185313 10.454766,1.0081062 9.928805,0.70462439 9.3437289,0.57700706 8.7609549,0.61493559 Z M 0.94718386,1.2046916 C 0.34490141,1.7585725 0.00150382,2.5389561 -6.2658081e-8,3.3572017 4.2073734e-4,4.9764991 1.2905353,6.3397252 3.1374227,6.5085244 3.1997098,6.5078605 3.1785607,6.330469 3.2406796,6.325839 2.3861243,6.0328318 1.6907039,5.1839493 1.6898397,4.2805571 1.6899175,3.7803361 1.8672035,3.2963168 2.1902388,2.9143882 1.4622426,2.7801134 0.93369626,2.1455237 0.93328386,1.4052483 c 2.472e-4,-0.067084 0.00489,-0.13408 0.0139,-0.2005567 z M 5.3058186,3.2857161 C 4.2047668,4.3191098 2.4733801,8.5331211 2.9170088,9.4692188 3.0501185,9.1901382 3.2632176,8.9573078 3.5305934,8.8020201 3.7613852,8.6695094 4.0230094,8.5985937 4.2891348,8.5974919 c -9.925e-4,-0.0017 -9.894e-4,-0.00225 -0.00199,-0.00397 -0.9082425,-1.300374 0.3909348,-4.2078977 1.1417836,-5.2085188 0,0 -0.042604,-0.032739 -0.1231141,-0.099286 z m 4.2831776,1.6104113 c -9.719e-4,0.00172 -0.00306,0.00426 -0.00398,0.00596 C 8.91299,6.3388359 5.7455746,6.666413 4.5035867,6.5164694 c 0,0 -0.00645,0.053873 -0.023828,0.1568712 C 5.9251967,7.1101831 10.439766,6.5029398 11.028636,5.6506974 10.72039,5.6749613 10.411181,5.6060366 10.143009,5.4521263 9.912857,5.3185102 9.7230134,5.1260477 9.5889962,4.8961274 Z M 8.280413,7.0009806 c -0.044111,0.013616 -0.089694,0.027726 -0.1072284,0.00198 0.1735259,0.8865733 -0.2129124,1.91254 -0.994841,2.3649844 -0.433243,0.2500432 -0.9414056,0.3389919 -1.433683,0.2501995 0.2477124,0.6976005 -0.038221,1.4722445 -0.679113,1.8427395 -0.05822,0.03333 -0.1166386,0.06195 -0.178714,0.08737 0.780816,0.244651 1.627808,0.15365 2.3371814,-0.254171 1.4021427,-0.810013 1.936914,-2.6092559 1.159655,-4.2931069 -0.015859,-0.026805 -0.059146,-0.013616 -0.103257,0 z" id="path822" inkscape:connector-curvature="0" />
  <path style="fill:#d0d0d0;stroke:none;stroke-width:0.99999994" d="M 2.4682382,0.31707891 A 1.0875448,1.0875448 0 0 0 1.3800689,1.4052483 1.0875448,1.0875448 0 0 0 2.4682382,2.4914319 1.0875448,1.0875448 0 0 0 3.5544219,1.4052483 1.0875448,1.0875448 0 0 0 2.4682382,0.31707891 Z M 10.937293,3.0355166 A 1.0875448,1.0875448 0 0 0 9.970253,3.5796013 1.0875448,1.0875448 0 0 0 10.367395,5.0629271 1.0875448,1.0875448 0 0 0 11.854692,4.665785 1.0875448,1.0875448 0 0 0 11.455564,3.1804735 1.0875448,1.0875448 0 0 0 10.937293,3.0355166 Z M 4.3487061,9.0462624 A 1.0875448,1.0875448 0 0 0 3.7549787,9.1912193 1.0875448,1.0875448 0 0 0 3.3558509,10.676531 1.0875448,1.0875448 0 0 0 4.843148,11.073673 1.0875448,1.0875448 0 0 0 5.2402902,9.5883614 1.0875448,1.0875448 0 0 0 4.3487061,9.0462624 Z" id="circle818" inkscape:connector-curvature="0" />
</svg>
