<?xml version="1.0" encoding="UTF-8" standalone="no"?>
<!-- Created with Inkscape (http://www.inkscape.org/) -->

<svg
     xmlns:dc="http://purl.org/dc/elements/1.1/"
     xmlns:cc="http://creativecommons.org/ns#"
     xmlns:rdf="http://www.w3.org/1999/02/22-rdf-syntax-ns#"
     xmlns:svg="http://www.w3.org/2000/svg"
     xmlns="http://www.w3.org/2000/svg"
     xmlns:sodipodi="http://sodipodi.sourceforge.net/DTD/sodipodi-0.dtd"
     xmlns:inkscape="http://www.inkscape.org/namespaces/inkscape"
     width="16"
     height="16"
     viewBox="0 0 4.2333333 4.2333333"
     version="1.1"
     id="svg8"
     inkscape:version="0.92+devel (572d1a9d8b, 2017-07-17, custom)"
     sodipodi:docname="glyph-optical-dic.svg">
    <defs
         id="defs2" />
    <sodipodi:namedview
         id="base"
         pagecolor="#002466"
         bordercolor="#ffffff"
         borderopacity="0.38039216"
         inkscape:pageopacity="1"
         inkscape:pageshadow="2"
         inkscape:zoom="18.782524"
         inkscape:cx="8"
         inkscape:cy="8"
         inkscape:document-units="px"
         inkscape:current-layer="svg8"
         inkscape:document-rotation="0"
         showgrid="false"
         inkscape:showpageshadow="false"
         borderlayer="true"
         inkscape:window-width="1920"
         inkscape:window-height="1051"
         inkscape:window-x="0"
         inkscape:window-y="0"
         inkscape:window-maximized="1"
         units="px" />
    <metadata
         id="metadata5">
        <rdf:RDF>
            <cc:Work
                 rdf:about="">
                <dc:format>image/svg+xml</dc:format>
                <dc:type
                     rdf:resource="http://purl.org/dc/dcmitype/StillImage" />
                <dc:title></dc:title>
            </cc:Work>
        </rdf:RDF>
    </metadata>
    <path
         style="opacity:1;fill:#d0d0d0;stroke-width:0.32099283"
         d="M 2.1166671,0 A 2.1166668,2.1166668 0 0 0 1.5e-7,2.1166666 2.1166668,2.1166668 0 0 0 2.1166671,4.2333333 2.1166668,2.1166668 0 0 0 4.2333331,2.1166666 2.1166668,2.1166668 0 0 0 2.1166671,0 Z m 0,1.4552083 a 0.66145835,0.66145835 0 0 1 0.661458,0.6614583 0.66145835,0.66145835 0 0 1 -0.661458,0.6614583 0.66145835,0.66145835 0 0 1 -0.661459,-0.6614583 0.66145835,0.66145835 0 0 1 0.661459,-0.6614583 z m 0,0.4378931 a 0.2236007,0.2236007 0 0 0 -0.223565,0.2235652 0.2236007,0.2236007 0 0 0 0.223565,0.2236297 0.2236007,0.2236007 0 0 0 0.22363,-0.2236297 0.2236007,0.2236007 0 0 0 -0.22363,-0.2235652 z"
         id="path811"
         inkscape:connector-curvature="0"
         inkscape:label="#" />
</svg>
