<?xml version="1.0" encoding="UTF-8" standalone="no"?><svg height="16" viewBox="0 0 4.2333332 4.2333332" width="16" xmlns="http://www.w3.org/2000/svg"><sodipodi:namedview/><metadata><rdf:RDF><cc:Work><dc:format>image/svg+xml</dc:format><dc:type/><dc:title/></cc:Work></rdf:RDF></metadata><path d="m2.2774566.0000007c.5210624.4498194.651334.90576.651334 1.6222252l.2137238-.5536406c.2250083.2212247.3783634.5143394.423369.8426608.016563.252472-.024659.4759841-.08979.6713815.2657882-.1692314.6014889-.362618.7451854-.6713815-.0959128-1.0216448-.9171053-1.8331259-1.9438222-1.9112454zm-.3662125.012052c-1.0216448.095913-1.8331246.9170934-1.9112441 1.943805.4498247-.5210625.9057454-.6513155 1.622208-.6513155l-.5536234-.2137253c.2212261-.225007.5143381-.3783489.8426595-.4233505.2524654-.016564.4759828.024641.6713829.089773-.1692289-.2657911-.3626155-.6014917-.6713829-.7451867zm-1.1539868 1.6386516c-.2657898.1692288-.6015103.3626141-.7452042.6713815.095914 1.0216449.9171079 1.8331285 1.9438223 1.9112467-.5210625-.4498234-.6513341-.9057639-.6513341-1.6222265l-.2137251.553638c-.225003-.2212208-.3783489-.5143394-.4233492-.8426582-.016564-.2524707.024659-.4759788.0897903-.6713815zm3.4760759.6267516c-.4498221.5210611-.9057454.6513353-1.6222093.6513353l.5536221.2137238c-.2212221.2250096-.5143381.3783621-.8426609.423369-.2524693.016563-.4759814-.024659-.6713815-.089793.1692302.2657871.3626155.6014931.6713815.745187 1.0216436-.0959127 1.8331259-.9171039 1.9112481-1.9438221z" fill="#d0d0d0" fill-rule="evenodd" stroke-width=".264583"/></svg>