<?xml version="1.0" encoding="UTF-8" standalone="no"?>
<!-- Created with Inkscape (http://www.inkscape.org/) -->

<svg
   xmlns:dc="http://purl.org/dc/elements/1.1/"
   xmlns:cc="http://creativecommons.org/ns#"
   xmlns:rdf="http://www.w3.org/1999/02/22-rdf-syntax-ns#"
   xmlns:svg="http://www.w3.org/2000/svg"
   xmlns="http://www.w3.org/2000/svg"
   xmlns:sodipodi="http://sodipodi.sourceforge.net/DTD/sodipodi-0.dtd"
   xmlns:inkscape="http://www.inkscape.org/namespaces/inkscape"
   width="12"
   height="12"
   viewBox="0 0 12 12"
   version="1.1"
   id="default16"
   inkscape:version="0.92+devel (9d04be7596, 2017-09-23, custom)"
   sodipodi:docname="glyph-dollar.svg">
  <defs
     id="defs5" />
  <sodipodi:namedview
     id="base"
     pagecolor="#002466"
     bordercolor="#ffffff"
     borderopacity="0.38039216"
     inkscape:pageopacity="1"
     inkscape:pageshadow="2"
     inkscape:zoom="26.28125"
     inkscape:cx="7.6765755"
     inkscape:cy="8"
     inkscape:document-units="px"
     inkscape:current-layer="default16"
     inkscape:document-rotation="0"
     showgrid="false"
     inkscape:showpageshadow="false"
     borderlayer="true"
     inkscape:window-width="1920"
     inkscape:window-height="1017"
     inkscape:window-x="0"
     inkscape:window-y="34"
     inkscape:window-maximized="1"
     units="px" />
  <metadata
     id="metadata5">
    <rdf:RDF>
      <cc:Work
         rdf:about="">
        <dc:format>image/svg+xml</dc:format>
        <dc:type
           rdf:resource="http://purl.org/dc/dcmitype/StillImage" />
        <dc:title></dc:title>
      </cc:Work>
    </rdf:RDF>
  </metadata>
  <path
     style="fill:#d0d0d0;stroke-width:1.79999995;stroke-dasharray:3.5999999, 1.79999994999999990;stroke-dashoffset:7.37999964;stroke:none"
     d="m 5.6074219,0 h 0.9042969 c 0.062467,0 0.1140902,0.02034688 0.1542968,0.06054687 0.0402,0.04020001 0.060547,0.09182355 0.060547,0.15429688 V 1.3925781 c 0.2544667,0.0268 0.5013944,0.078424 0.7402344,0.1542969 0.23884,0.075893 0.4324779,0.1509494 0.5820312,0.2246094 0.1495534,0.07366 0.2918546,0.1562466 0.4257813,0.25 0.1339266,0.093747 0.2215387,0.1595925 0.2617187,0.1953125 0.0402,0.035733 0.072843,0.067017 0.099609,0.09375 0.075893,0.080353 0.086763,0.1646196 0.033203,0.2539062 L 8.3261719,3.5429688 c -0.035733,0.066967 -0.085397,0.1029618 -0.1523438,0.1074218 -0.062467,0.0134 -0.1235739,-0.00221 -0.1816406,-0.046875 -0.0134,-0.0134 -0.046323,-0.041831 -0.097656,-0.082031 C 7.8431979,3.4812844 7.757539,3.4238098 7.6347656,3.3457031 7.511999,3.2675831 7.3805808,3.1955927 7.2421875,3.1308594 7.1037942,3.066126 6.9383406,3.0083713 6.7441406,2.9570312 6.5499473,2.9056979 6.3574219,2.8789062 6.1699219,2.8789062 c -0.4241067,0 -0.7692494,0.097096 -1.0371094,0.2890626 -0.2678533,0.1919666 -0.4023437,0.4386208 -0.4023437,0.7421874 0,0.1160734 0.018707,0.2240523 0.056641,0.3222657 0.037933,0.098213 0.1054521,0.1902904 0.1992187,0.2773437 0.093747,0.087053 0.1810786,0.1604365 0.2636719,0.2207032 0.082587,0.060267 0.2075867,0.1308577 0.375,0.2089843 0.1674067,0.078127 0.3016169,0.1372742 0.4042969,0.1796875 0.10268,0.0424 0.25893,0.1032271 0.46875,0.1835938 0.2366066,0.089287 0.4179687,0.1595975 0.5429687,0.2109375 0.125,0.051333 0.295479,0.1294616 0.5097656,0.234375 0.2142867,0.1049133 0.3830928,0.2003362 0.5058594,0.2851562 0.1227667,0.08482 0.2600425,0.1975442 0.4140625,0.3359375 0.15402,0.1383934 0.2728821,0.2787415 0.3554688,0.4238282 C 8.9087652,6.9380621 8.979076,7.110214 9.0371094,7.3066406 9.095176,7.5030673 9.125,7.7123269 9.125,7.9355469 h -0.00195 c 0,0.6830333 -0.2218223,1.2703719 -0.6660157,1.7636719 -0.4442,0.4933062 -1.0206487,0.7979892 -1.7304687,0.9140622 v 1.171875 c 0,0.06247 -0.020347,0.114084 -0.060547,0.154297 C 6.6258156,11.979653 6.5741921,12 6.5117188,12 H 5.6074219 c -0.058067,0 -0.1080106,-0.02205 -0.1503907,-0.06445 -0.0424,-0.0424 -0.0625,-0.09234 -0.0625,-0.150391 V 10.613281 C 5.0998912,10.573081 4.815569,10.504443 4.5410156,10.40625 4.2664623,10.308037 4.0399015,10.207869 3.8613281,10.107422 3.6827548,10.006975 3.517021,9.9009494 3.3652344,9.7871094 3.2134544,9.6732694 3.108541,9.5887296 3.0527344,9.5351562 2.9969344,9.4815563 2.9578735,9.442769 2.9355469,9.4160156 2.8596535,9.3222623 2.8568681,9.2299117 2.9238281,9.140625 L 3.6132812,8.2363281 c 0.031267,-0.044667 0.082884,-0.071211 0.1542969,-0.080078 0.066967,-0.00893 0.1199829,0.011413 0.1601563,0.060547 l 0.013672,0.013672 c 0.50446,0.4419599 1.0465932,0.7198641 1.6269532,0.8359374 0.16518,0.035733 0.3309204,0.054688 0.4960937,0.054688 0.3616134,0 0.6785717,-0.097103 0.953125,-0.2890626 C 7.2921315,8.6400646 7.4296875,8.368305 7.4296875,8.015625 c 0,-0.125 -0.032643,-0.2438621 -0.099609,-0.3554688 C 7.2631115,7.5485496 7.1880554,7.4547996 7.1054688,7.3789062 7.0228821,7.3030129 6.891464,7.2204196 6.7128906,7.1289062 6.5343173,7.0373863 6.3875577,6.9654025 6.2714844,6.9140625 6.1554177,6.8627292 5.9774015,6.791019 5.7363281,6.6972656 5.5622215,6.6258323 5.4246654,6.5694702 5.3242188,6.5292969 5.2237721,6.4890969 5.086216,6.4296692 4.9121094,6.3515625 4.7380027,6.2734358 4.599054,6.2047979 4.4941406,6.1445312 4.389234,6.0842646 4.262561,6.0044633 4.1152344,5.90625 3.9679144,5.8080367 3.8473727,5.7126138 3.7558594,5.6210938 3.6643394,5.5295737 3.5675237,5.4202021 3.4648438,5.2929688 3.3621637,5.1657421 3.2843156,5.0359969 3.2285156,4.9042969 3.1727156,4.7726035 3.125844,4.6241644 3.0878906,4.4589844 3.0499573,4.2938044 3.0292969,4.1205333 3.0292969,3.9375 c 0,-0.6160733 0.21875,-1.1568071 0.65625,-1.6210938 0.4375,-0.4642866 1.008091,-0.7625577 1.7089843,-0.8964843 V 0.21484375 c 0,-0.058 0.0201,-0.10794396 0.0625,-0.15039063 C 5.4994313,0.02205313 5.5493752,0 5.6074219,0 Z"
     id="rect1379" />
</svg>
