<?xml version="1.0" encoding="UTF-8" standalone="no"?><svg height="22" viewBox="0 0 22 22" width="22" xmlns="http://www.w3.org/2000/svg"><sodipodi:namedview/><metadata><rdf:RDF><cc:Work><dc:format>image/svg+xml</dc:format><dc:type/><dc:title/></cc:Work></rdf:RDF></metadata><path d="m0 10.927371q0 2.295393.86449864 4.292683.86449866 1.99729 2.35501336 3.487805 1.490515 1.490515 3.4878054 2.355013 1.9972896.864499 4.2926826.864499 2.265583 0 4.262873-.864499 2.0271-.864498 3.517615-2.355013 1.490515-1.490515 2.355013-3.487805.864499-1.99729.864499-4.292683 0-2.2655825-.864499-4.2628725-.864498-2.0271-2.355013-3.517615-1.490515-1.4905146-3.517615-2.35501331-1.99729-.8644986-4.262873-.8644986-2.295393 0-4.2926826.8644986-1.9972904.86449871-3.4878054 2.35501331-1.4905147 1.490515-2.35501336 3.517615-.86449864 1.99729-.86449864 4.2628725zm11.268293-2.6233055q0-.268293-.238483-.417344-.238482-.149052-.506775-.149052h-2.0569103q-.1788618.05962-.3875339.08943-.2086721.02981-.3875339.02981-.4769645 0-.8644983-.327913-.357724-.357724-.357724-.834688 0-.208672.05962-.387534.089432-.178862.1788625-.327914l.6260163-.626016q.2384824-.208672.5067751-.238482.298103-.05962.5663957-.08943.1192412-.02981.506775-.02981.4173442-.02981.5663957-.02981.3875339-.208672.8644981-.208672.506776-.02981.92412-.02981.804878 0 1.669376.238482.894309.268293 1.490515.626017.626017.327913 1.01355.804878.387534.476964.596206 1.162601.208672.655827.327914 1.579946.05962.327913.08943.655827.05962.3279125.05962.6558255 0 .238483-.08943.447155-.08943.178861-.149051.387534 0 .02981 0 .149051 0 .119241-.02981.268293 0 .119241 0 .238482 0 .08943 0 .119241-.05962.327914-.119241.655827-.02981.327913-.02981.655826v.08943q.02981.119242.119241.447155.08943.327913.119241.447154v.178862q0 .357724-.178861.685637-.178862.327913-.476965.596206-.298103.268293-.655827.417344-.327913.149052-.685637.149052-.476964 0-.924119-.208673-.447154-.238482-.864498-.417344-.05962-.02981-.238483-.02981-.149051 0-.208672 0-.566396 0-1.102981.208672-.506775.178862-1.01355.387534-.059621.02981-.298103.149051-.2086721.119242-.2682927.149052-.1192412.05962-.1788618.02981-.059621 0-.2086721 0h-.2384835q-.1490515-.02981-.5962059-.178862-.4173442-.149051-.5663957-.208672-.02981 0-.1192412-.02981-.059621-.02981-.059621-.05962-.4769643-.327914-1.0135501-.745258-.5067751-.447154-.6856368-1.04336-.0596206-.208673-.1788618-.566396-.1192412-.387534-.1192412-.387534v-1.490515q0-.02981.059621-.178862.089431-.149051.1490515-.208672.3279132-.596206.8346883-1.102981.5365858-.5365845 1.1327918-.8943085.4173442-.238482.8644986-.238482.4471545-.02981.8644987-.178862.059621-.02981.2384824-.08943.2086721-.08943.2682926-.119241.1192412-.05962.3577229-.05962.238483-.02981.476965-.05962.238482-.05962.387534-.149052.178862-.119241.178862-.357723zm-1.3116534 4.1138205q0 .476965.2981034.685637.298103.178862.715447.178862h.327913q.08943 0 .08943-.05962.05962-.05962.208672-.208672.178862-.149052.238482-.208672.05962-.08943.05962-.238483 0-.149051 0-.238482v-.298103q-.02981-.08943-.149052-.208672-.08943-.149052-.208672-.149052h-1.102981q-.238482 0-.357723.298103-.1192414.268293-.1192414.447155z" fill="#fff" stroke-width=".745257"/></svg>