<?xml version="1.0" encoding="UTF-8" standalone="no"?>
<!-- Created with Inkscape (http://www.inkscape.org/) -->

<svg
   xmlns:dc="http://purl.org/dc/elements/1.1/"
   xmlns:cc="http://creativecommons.org/ns#"
   xmlns:rdf="http://www.w3.org/1999/02/22-rdf-syntax-ns#"
   xmlns:svg="http://www.w3.org/2000/svg"
   xmlns="http://www.w3.org/2000/svg"
   xmlns:sodipodi="http://sodipodi.sourceforge.net/DTD/sodipodi-0.dtd"
   xmlns:inkscape="http://www.inkscape.org/namespaces/inkscape"
   width="16"
   height="16"
   viewBox="0 0 4.2333332 4.2333332"
   version="1.1"
   id="svg8"
   inkscape:version="0.92+devel (b8837397f6, 2017-07-27, custom)"
   sodipodi:docname="glyph-golf.svg">
  <defs
     id="defs2" />
  <sodipodi:namedview
     id="base"
     pagecolor="#002466"
     bordercolor="#ffffff"
     borderopacity="0.38039216"
     inkscape:pageopacity="1"
     inkscape:pageshadow="2"
     inkscape:zoom="25.75"
     inkscape:cx="10.812474"
     inkscape:cy="2.0232515"
     inkscape:document-units="px"
     inkscape:current-layer="svg8"
     inkscape:document-rotation="0"
     showgrid="false"
     inkscape:showpageshadow="false"
     borderlayer="true"
     inkscape:window-width="1920"
     inkscape:window-height="1051"
     inkscape:window-x="0"
     inkscape:window-y="0"
     inkscape:window-maximized="1"
     units="px" />
  <metadata
     id="metadata5">
    <rdf:RDF>
      <cc:Work
         rdf:about="">
        <dc:format>image/svg+xml</dc:format>
        <dc:type
           rdf:resource="http://purl.org/dc/dcmitype/StillImage" />
        <dc:title></dc:title>
      </cc:Work>
    </rdf:RDF>
  </metadata>
  <path
     style="font-variation-settings:normal;vector-effect:none;fill:#d0d0d0;stroke-width:0.52916664;stroke-linecap:round;stroke-miterlimit:26.70000076"
     d="M 2.1166667,-7.1637366e-6 A 1.3420049,1.3420049 0 0 0 0.77457945,1.3420801 1.3420049,1.3420049 0 0 0 2.1166667,2.6841673 1.3420049,1.3420049 0 0 0 3.4587537,1.3420801 1.3420049,1.3420049 0 0 0 2.1166667,-7.1637366e-6 Z M 2.9539045,2.7510031 c -0.5711704,0.2046246 -1.1065496,0.1738214 -1.674476,6.111e-4 0.09828,0.2797364 0.2908519,0.488464 0.5227517,0.5901843 0.058574,0.023557 0.2352553,0.5864384 0.3144865,0.8915419 C 2.1977552,3.9160412 2.35197,3.3737905 2.431153,3.3417985 2.6661269,3.2468629 2.8556784,3.0310787 2.9539045,2.7510175 Z"
     id="ellipse813"
     inkscape:connector-curvature="0"
     inkscape:label="#" />
</svg>
