<?xml version="1.0" encoding="UTF-8" standalone="no"?><svg height="16" viewBox="0 0 4.2333332 4.2333332" width="16" xmlns="http://www.w3.org/2000/svg"><sodipodi:namedview/><metadata><rdf:RDF><cc:Work><dc:format>image/svg+xml</dc:format><dc:type/><dc:title/></cc:Work></rdf:RDF></metadata><path d="m8.2363281 0a2.8910941 8.0000002 0 0 0 -2.4511719 3.7578125 8 2.8910941 30 0 0 -4.4765624.2421875 8 2.8910941 30 0 0 2.0273437 3.9980469 2.8910941 8 60 0 0 -2.0292969 4.0019531 2.8910941 8 60 0 0 4.4804688.240234 2.8910941 8.0000002 0 0 0 2.4492187 3.759766 2.8910941 8.0000002 0 0 0 2.4492189-3.759766 8 2.8910941 30 0 0 4.478515-.240234 8 2.8910941 30 0 0 -2.029296-4.0019531 2.8910941 8 60 0 0 2.027343-3.9980469 2.8910941 8 60 0 0 -4.478515-.2402344 2.8910941 8.0000002 0 0 0 -2.4472659-3.7597656zm0 .90625a2.5810107 7.0939959 0 0 1 2.0937499 2.9648438 2.8910941 8 60 0 0 -2.095703.8632812 8 2.8910941 30 0 0 -2.0957031-.8632812 2.5810107 7.0939959 0 0 1 2.0976562-2.9648438zm-4.3417969 2.9042969a7.0939958 2.5810108 30 0 1 1.8144532.3105469 2.8910941 8.0000002 0 0 0 -.3007813 2.2460937 2.8910941 8 60 0 0 -1.7949219 1.3847656 7.0939958 2.5810108 30 0 1 -1.5214843-3.2988281 7.0939958 2.5810108 30 0 1 1.8027343-.6425781zm8.6816408 0a2.5810108 7.0939958 60 0 1 1.802734.6425781 2.5810108 7.0939958 60 0 1 -1.521484 3.2988281 8 2.8910941 30 0 0 -1.792969-1.3828125 2.8910941 8.0000002 0 0 0 -.300781-2.2480468 2.5810108 7.0939958 60 0 1 1.8125-.3105469zm-2.158203.4082031a2.5810107 7.0939959 0 0 1  .30664 1.921875 8 2.8910941 30 0 0 -1.0429684-.6445312 8 2.8910941 30 0 0 -1.0839844-.5820313 2.5810108 7.0939958 60 0 1 1.8203128-.6953125zm-4.3632815.0019531a7.0939958 2.5810108 30 0 1 1.8183594.6933594 2.8910941 8 60 0 0 -1.0839844.5820313 2.8910941 8 60 0 0 -1.0410156.6425781 2.5810107 7.0939959 0 0 1  .3066406-1.9179688zm2.1796875.8652344a7.0939958 2.5810108 30 0 1 1.2910156.6796875 7.0939958 2.5810108 30 0 1 1.2324214.7753906 2.5810107 7.0939959 0 0 1  .058594 1.4589844 2.5810107 7.0939959 0 0 1 -.054687 1.4570312 2.5810108 7.0939958 60 0 1 -1.2363284.7773438 2.5810108 7.0939958 60 0 1 -1.2910156.679687 7.0939958 2.5810108 30 0 1 -1.2890625-.679687 7.0939958 2.5810108 30 0 1 -1.2324219-.7753906 2.5810107 7.0939959 0 0 1 -.0585937-1.4589844 2.5810107 7.0939959 0 0 1  .0546875-1.4570312 2.5810108 7.0939958 60 0 1 1.2363281-.7773438 2.5810108 7.0939958 60 0 1 1.2890625-.6796875zm-2.8535156 1.6894531a2.8910941 8.0000002 0 0 0 -.0371094 1.2246094 2.8910941 8.0000002 0 0 0  .0371094 1.2246094 7.0939958 2.5810108 30 0 1 -1.5078125-1.2246094 2.5810108 7.0939958 60 0 1 1.5078125-1.2246094zm5.7089846 0a7.0939958 2.5810108 30 0 1 1.507812 1.2246094 2.5810108 7.0939958 60 0 1 -1.505859 1.2226562 2.8910941 8.0000002 0 0 0  .035156-1.2226562 2.8910941 8.0000002 0 0 0 -.037109-1.2246094zm-7.4765628 1.4726563a8 2.8910941 30 0 0 1.7929688 1.3828125 2.8910941 8.0000002 0 0 0  .3007812 2.2480466 2.5810108 7.0939958 60 0 1 -3.6152343-.332031 2.5810108 7.0939958 60 0 1 1.5214843-3.2988281zm9.2441408 0a7.0939958 2.5810108 30 0 1 1.521484 3.2988281 7.0939958 2.5810108 30 0 1 -3.61914.332031 2.8910941 8.0000002 0 0 0  .302734-2.2480466 2.8910941 8 60 0 0 1.794922-1.3828125zm-7.1132814 1.6113281a8 2.8910941 30 0 0 1.0449219.644531 8 2.8910941 30 0 0 1.0839844.582032 2.5810108 7.0939958 60 0 1 -1.8203125.695312 2.5810107 7.0939959 0 0 1 -.3085938-1.921875zm4.9785154.0019531a2.5810107 7.0939959 0 0 1 -.30664 1.9199219 7.0939958 2.5810108 30 0 1 -1.8183598-.695312 2.8910941 8 60 0 0 1.0839844-.582032 2.8910941 8 60 0 0 1.0410154-.6425779zm-2.488281 1.4042969a8 2.8910941 30 0 0 2.097656.863281 2.5810107 7.0939959 0 0 1 -2.0957029 2.964844 2.5810107 7.0939959 0 0 1 -2.0957031-2.964844 2.8910941 8 60 0 0 2.09375-.863281z" fill="#d0d0d0" stroke-linecap="square" stroke-width="3.037" transform="scale(.26458333)"/><path d="m2.1697562 1.5413224a.28967027.28967027 0 0 0 -.2895893.2895893.28967027.28967027 0 0 0  .0280248.1238626.28967027.28967027 0 0 0 -.2664084.2888973.28967027.28967027 0 0 0  .2899353.2895892.28967027.28967027 0 0 0  .2380376-.1252464.28967027.28967027 0 0 0  .2380375.1252464.28967027.28967027 0 0 0  .2895894-.2895892.28967027.28967027 0 0 0 -.2664084-.2885513.28967027.28967027 0 0 0  .0283708-.1242086.28967027.28967027 0 0 0 -.2895893-.2895893z" fill="#d0d0d0" stroke-linecap="square" stroke-width=".80354"/></svg>