<?xml version="1.0" encoding="UTF-8" standalone="no"?>
<svg
   xmlns:dc="http://purl.org/dc/elements/1.1/"
   xmlns:cc="http://creativecommons.org/ns#"
   xmlns:rdf="http://www.w3.org/1999/02/22-rdf-syntax-ns#"
   xmlns:svg="http://www.w3.org/2000/svg"
   xmlns="http://www.w3.org/2000/svg"
   xmlns:sodipodi="http://sodipodi.sourceforge.net/DTD/sodipodi-0.dtd"
   xmlns:inkscape="http://www.inkscape.org/namespaces/inkscape"
   height="22"
   viewBox="0 0 22 22"
   width="22"
   version="1.1"
   id="svg8"
   sodipodi:docname="glyph-gear-small.svg"
   inkscape:version="0.92+devel (f008c6912a, 2017-09-14, custom)">
  <defs
     id="defs10" />
  <sodipodi:namedview
     id="namedview2"
     inkscape:document-rotation="0"
     showgrid="false"
     pagecolor="#002466"
     inkscape:pageopacity="0"
     borderlayer="true"
     inkscape:showpageshadow="false"
     bordercolor="#ffffff"
     borderopacity="0.29411765"
     inkscape:zoom="12.101168"
     inkscape:cx="10.795485"
     inkscape:cy="11"
     inkscape:window-width="1920"
     inkscape:window-height="1027"
     inkscape:window-x="0"
     inkscape:window-y="24"
     inkscape:window-maximized="1"
     inkscape:current-layer="svg8" />
  <metadata
     id="metadata4">
    <rdf:RDF>
      <cc:Work>
        <dc:format>image/svg+xml</dc:format>
        <dc:type
           rdf:resource="http://purl.org/dc/dcmitype/StillImage" />
        <dc:title></dc:title>
      </cc:Work>
    </rdf:RDF>
  </metadata>
  <path
     d="m8.5332031-.05664063-.7753906 3.42968753a8.2956093 8.2956093 0 0 0 -1.7421875 1.0058593l-3.3574219-1.0429687-2.46679685 4.2714844 2.58203125 2.3867187a8.2956093 8.2956093 0 0 0 -.0683594 1.0058594 8.2956093 8.2956093 0 0 0  .0703125 1.003906l-2.58398435 2.388672 2.46679685 4.271484 3.3613281-1.042968a8.2956093 8.2956093 0 0 0 1.7402344 1.015625l.7734375 3.419922h4.9335939l.775391-3.429688a8.2956093 8.2956093 0 0 0 1.742187-1.005859l3.357422 1.042968 2.466797-4.271484-2.582032-2.386719a8.2956093 8.2956093 0 0 0  .06836-1.005859 8.2956093 8.2956093 0 0 0 -.070313-1.0039062l2.583985-2.3886719-2.466797-4.2714844-3.361328 1.0429687a8.2956093 8.2956093 0 0 0 -1.740235-1.015625l-.773437-3.41992183zm2.4667969 7.34179683a3.7151489 3.7151489 0 0 1 3.714844 3.7148438 3.7151489 3.7151489 0 0 1 -3.714844 3.714844 3.7151489 3.7151489 0 0 1 -3.7148438-3.714844 3.7151489 3.7151489 0 0 1 3.7148438-3.7148438z"
     fill="#fff"
     stroke-width=".909795"
     id="path6" />
</svg>
