<?xml version="1.0" encoding="UTF-8" standalone="no"?>
<!-- Created with Inkscape (http://www.inkscape.org/) -->

<svg
   xmlns:dc="http://purl.org/dc/elements/1.1/"
   xmlns:cc="http://creativecommons.org/ns#"
   xmlns:rdf="http://www.w3.org/1999/02/22-rdf-syntax-ns#"
   xmlns:svg="http://www.w3.org/2000/svg"
   xmlns="http://www.w3.org/2000/svg"
   xmlns:sodipodi="http://sodipodi.sourceforge.net/DTD/sodipodi-0.dtd"
   xmlns:inkscape="http://www.inkscape.org/namespaces/inkscape"
   width="16"
   height="16"
   viewBox="0 0 4.2333332 4.2333332"
   version="1.1"
   id="svg8"
   inkscape:version="0.92+devel (f96dc7e339, 2017-07-28, custom)"
   sodipodi:docname="glyph-codeblocks.svg">
  <defs
     id="defs2" />
  <sodipodi:namedview
     id="base"
     pagecolor="#002466"
     bordercolor="#ffffff"
     borderopacity="0.38039216"
     inkscape:pageopacity="1"
     inkscape:pageshadow="2"
     inkscape:zoom="18.208"
     inkscape:cx="-2.3098229"
     inkscape:cy="2.3278775"
     inkscape:document-units="px"
     inkscape:current-layer="svg8"
     inkscape:document-rotation="0"
     showgrid="false"
     inkscape:showpageshadow="false"
     borderlayer="true"
     inkscape:window-width="1920"
     inkscape:window-height="1051"
     inkscape:window-x="0"
     inkscape:window-y="0"
     inkscape:window-maximized="1"
     units="px"
     inkscape:object-paths="false"
     inkscape:snap-global="true"
     inkscape:snap-intersection-paths="true">
    <inkscape:grid
       type="xygrid"
       id="grid835" />
  </sodipodi:namedview>
  <metadata
     id="metadata5">
    <rdf:RDF>
      <cc:Work
         rdf:about="">
        <dc:format>image/svg+xml</dc:format>
        <dc:type
           rdf:resource="http://purl.org/dc/dcmitype/StillImage" />
        <dc:title></dc:title>
      </cc:Work>
    </rdf:RDF>
  </metadata>
  <path
     style="font-variation-settings:normal;opacity:0.25;vector-effect:none;fill:#d0d0d0;stroke-width:3.9000001;stroke-miterlimit:5.5"
     d="M 7.9785156 0.04296875 L 7.9785156 2.6660156 C 7.9639644 3.186771 7.4332768 3.1666904 7.1523438 2.796875 C 6.87922 2.4373391 6.5460985 2.3027734 6.2480469 2.3066406 C 5.5667798 2.3154469 5.0136704 3.0793752 5.0136719 4.0332031 C 5.0136734 4.9870304 5.5667753 5.7509552 6.2480469 5.7597656 C 6.5460929 5.7636585 6.8792177 5.627117 7.1523438 5.2675781 C 7.433276 4.8977627 7.9639527 4.8776859 7.9785156 5.3984375 L 7.9785156 7.9785156 L 10.601562 7.9785156 C 11.122273 7.963952 11.102207 7.4332995 10.732422 7.1523438 C 10.372915 6.8791969 10.236374 6.5441632 10.240234 6.2460938 C 10.249051 5.5647689 11.015 5.0136734 11.96875 5.0136719 C 12.922499 5.0136707 13.684543 5.5647666 13.693359 6.2460938 C 13.697214 6.5441662 13.56262 6.8791901 13.203125 7.1523438 C 12.83334 7.4332987 12.813273 7.963952 13.333984 7.9785156 L 15.957031 7.9785156 L 15.957031 1.1523438 C 15.805515 0.51621415 15.238502 0.04296875 14.554688 0.04296875 L 7.9785156 0.04296875 z M 0.04296875 8.0214844 L 0.04296875 14.847656 C 0.19448517 15.483786 0.76149832 15.957031 1.4453125 15.957031 L 8.0214844 15.957031 L 8.0214844 13.333984 C 8.0360356 12.813228 8.5667224 12.833308 8.8476562 13.203125 C 9.12078 13.56266 9.4539071 13.697219 9.7519531 13.693359 C 10.433223 13.684541 10.986329 12.920624 10.986328 11.966797 C 10.986326 11.01297 10.433224 10.249046 9.7519531 10.240234 C 9.4539098 10.236359 9.1207815 10.372885 8.8476562 10.732422 C 8.5667232 11.102237 8.0360465 11.122316 8.0214844 10.601562 L 8.0214844 8.0214844 L 5.3984375 8.0214844 C 4.8777274 8.0360356 4.8977956 8.5667001 5.2675781 8.8476562 C 5.6270868 9.1208027 5.7636245 9.4558391 5.7597656 9.7539062 C 5.7509593 10.435233 4.9850002 10.986326 4.03125 10.986328 C 3.0775005 10.986329 2.3154572 10.435232 2.3066406 9.7539062 C 2.3027666 9.4558376 2.4373667 9.1208035 2.796875 8.8476562 C 3.1666606 8.5667013 3.1867285 8.0360488 2.6660156 8.0214844 L 0.04296875 8.0214844 z "
     transform="scale(0.26458333)"
     id="path827"
     inkscape:label="#" />
  <path
     style="font-variation-settings:normal;opacity:0.70212767;vector-effect:none;fill:#ffffff;stroke-width:1.03187501;stroke-miterlimit:5.5"
     d="m 0.38240544,0.01188598 c -0.21177118,0 -0.38188873521,0.17063429 -0.38188873521,0.38240546 V 2.122868 H 0.7059001 c 0.13777198,0.00385 0.13194426,0.1442556 0.0341064,0.2185914 -0.0951201,0.07227 -0.13073088,0.160396 -0.12970774,0.2392619 0.00233,0.1802667 0.20447344,0.3265956 0.45681954,0.326595 0.2523463,-5e-7 0.4550055,-0.1463272 0.4573365,-0.326595 C 1.5254747,2.5018572 1.4893512,2.4137298 1.39423,2.3414594 1.2963911,2.2671234 1.2910812,2.1267217 1.4288534,2.122868 H 2.111499 V 1.4288535 C 2.1076459,1.291071 1.9667214,1.2963833 1.892391,1.3942304 1.8201266,1.4893574 1.7319868,1.5254767 1.6531291,1.5244549 1.4728764,1.522125 1.3265343,1.3194854 1.326534,1.0671186 c -5e-7,-0.25236694 0.1463418,-0.45448691 0.3265951,-0.45681974 0.078859,-0.00102 0.1669957,0.034584 0.2392619,0.12970801 0.07433,0.0978469 0.2152549,0.10367645 0.219108,-0.0341066 V 0.01188598 Z M 3.1667317,1.3265344 c -0.2523463,5e-7 -0.4544888,0.1463273 -0.4568198,0.3265948 -0.00102,0.078864 0.035105,0.1669915 0.1302248,0.2392619 0.097839,0.074336 0.1031475,0.2147382 -0.034623,0.2185913 h -0.682646 v 0.6940145 c 0.00385,0.1377826 0.1442616,0.132469 0.2185913,0.034623 0.072264,-0.095128 0.1609209,-0.1312468 0.2397786,-0.1302247 0.1802527,0.00233 0.3260781,0.2049695 0.3260784,0.4573365 2e-7,0.2523667 -0.1458257,0.4544867 -0.3260784,0.4568195 -0.078859,0.00103 -0.1675143,-0.03458 -0.2397786,-0.1297073 -0.07433,-0.097847 -0.2147382,-0.1036767 -0.2185913,0.034106 v 0.6940145 h 1.7285768 c 0.2117709,0 0.3824055,-0.1706346 0.3824055,-0.3824058 V 2.1109824 H 3.5279499 C 3.3901779,2.1071293 3.3960043,1.9667279 3.4938435,1.8923911 3.5889633,1.820121 3.6245741,1.7319946 3.6235512,1.6531292 3.6212202,1.472863 3.4190778,1.3265341 3.1667317,1.3265344 Z"
     id="rect811"
     inkscape:connector-curvature="0"
     inkscape:label="#" />
</svg>
