<?xml version="1.0" encoding="UTF-8" standalone="no"?>
<!-- Created with Inkscape (http://www.inkscape.org/) -->

<svg
   xmlns:dc="http://purl.org/dc/elements/1.1/"
   xmlns:cc="http://creativecommons.org/ns#"
   xmlns:rdf="http://www.w3.org/1999/02/22-rdf-syntax-ns#"
   xmlns:svg="http://www.w3.org/2000/svg"
   xmlns="http://www.w3.org/2000/svg"
   xmlns:sodipodi="http://sodipodi.sourceforge.net/DTD/sodipodi-0.dtd"
   xmlns:inkscape="http://www.inkscape.org/namespaces/inkscape"
   width="16"
   height="16"
   viewBox="0 0 4.2333332 4.2333332"
   version="1.1"
   id="svg8"
   inkscape:version="0.92+devel (b8837397f6, 2017-07-27, custom)"
   sodipodi:docname="glyph-telepathy-kde.svg">
  <defs
     id="defs2">
    <linearGradient
       id="b"
       y1="515.79999"
       y2="509.79999"
       x2="0"
       gradientUnits="userSpaceOnUse"
       gradientTransform="matrix(0.39845014,0,0,0.39845014,-157.49912,-202.735)">
      <stop
         stop-color="#c61423"
         id="stop7" />
      <stop
         offset="1"
         stop-color="#dc2b41"
         id="stop9" />
    </linearGradient>
  </defs>
  <sodipodi:namedview
     id="base"
     pagecolor="#002466"
     bordercolor="#ffffff"
     borderopacity="0.38039216"
     inkscape:pageopacity="1"
     inkscape:pageshadow="2"
     inkscape:zoom="36.415999"
     inkscape:cx="10.094581"
     inkscape:cy="7.9162778"
     inkscape:document-units="px"
     inkscape:current-layer="svg8"
     inkscape:document-rotation="0"
     showgrid="false"
     inkscape:showpageshadow="false"
     borderlayer="true"
     inkscape:window-width="1920"
     inkscape:window-height="1051"
     inkscape:window-x="0"
     inkscape:window-y="0"
     inkscape:window-maximized="1"
     units="px" />
  <metadata
     id="metadata5">
    <rdf:RDF>
      <cc:Work
         rdf:about="">
        <dc:format>image/svg+xml</dc:format>
        <dc:type
           rdf:resource="http://purl.org/dc/dcmitype/StillImage" />
        <dc:title></dc:title>
      </cc:Work>
    </rdf:RDF>
  </metadata>
  <path
     style="opacity:0.98999999;fill:#d0d0d0;stroke-width:3.92189264;stroke-linecap:square"
     d="M 1.8144531 0 C 1.1014162 0 0.52539062 0.57602592 0.52539062 1.2890625 L 0.52539062 10.853516 C 0.52539062 11.566551 1.1014162 12.140625 1.8144531 12.140625 L 4.5214844 12.140625 C 6.4150225 14.961347 10.394531 16 10.394531 16 C 8.4091779 14.207196 8.0570576 13.364127 7.78125 12.140625 L 14.185547 12.140625 C 14.898584 12.140625 15.474609 11.566552 15.474609 10.853516 L 15.474609 1.2890625 C 15.474609 0.57602592 14.898584 -1.4802974e-16 14.185547 0 L 1.8144531 0 z M 7.9667969 1.4921875 A 4.5178599 4.5178599 0 0 1 12.484375 6.0097656 A 4.5178599 4.5178599 0 0 1 7.9667969 10.527344 A 4.5178599 4.5178599 0 0 1 3.4492188 6.0097656 A 4.5178599 4.5178599 0 0 1 7.9667969 1.4921875 z M 7.9667969 2.9980469 C 7.5496462 2.9980469 7.2148438 3.3348013 7.2148438 3.7519531 L 7.2148438 4.1933594 L 6.9023438 3.8808594 C 6.607177 3.5856934 6.1330566 3.5856934 5.8378906 3.8808594 C 5.5427246 4.1760269 5.5427246 4.6501465 5.8378906 4.9453125 L 6.1503906 5.2578125 L 5.7089844 5.2578125 C 5.2918345 5.2578125 4.9550781 5.5926142 4.9550781 6.0097656 C 4.9550781 6.4269159 5.291833 6.7636719 5.7089844 6.7636719 L 6.1503906 6.7636719 L 5.8378906 7.0742188 C 5.5427246 7.3693859 5.5427246 7.845459 5.8378906 8.140625 C 6.1330578 8.435791 6.6071778 8.435791 6.9023438 8.140625 L 7.2148438 7.828125 L 7.2148438 8.2695312 C 7.2148437 8.6866815 7.5496455 9.0214844 7.9667969 9.0214844 C 8.3839471 9.0214844 8.7207031 8.686683 8.7207031 8.2695312 L 8.7207031 7.828125 L 9.03125 8.140625 C 9.3264171 8.435791 9.8024903 8.435791 10.097656 8.140625 C 10.392822 7.8454575 10.392822 7.3693847 10.097656 7.0742188 L 9.7851562 6.7636719 L 10.226562 6.7636719 C 10.643713 6.7636719 10.978516 6.426917 10.978516 6.0097656 C 10.978516 5.592615 10.643714 5.2578125 10.226562 5.2578125 L 9.7851562 5.2578125 L 10.097656 4.9453125 C 10.392822 4.6501458 10.392822 4.1760254 10.097656 3.8808594 C 9.8024887 3.5856934 9.326416 3.5856934 9.03125 3.8808594 L 8.7207031 4.1933594 L 8.7207031 3.7519531 C 8.7207031 3.3348032 8.3839483 2.9980469 7.9667969 2.9980469 z "
     transform="scale(0.26458333)"
     id="rect4326"
     inkscape:label="#" />
</svg>
