<?xml version="1.0" encoding="UTF-8" standalone="no"?>
<!-- Created with Inkscape (http://www.inkscape.org/) -->

<svg
   xmlns:dc="http://purl.org/dc/elements/1.1/"
   xmlns:cc="http://creativecommons.org/ns#"
   xmlns:rdf="http://www.w3.org/1999/02/22-rdf-syntax-ns#"
   xmlns:svg="http://www.w3.org/2000/svg"
   xmlns="http://www.w3.org/2000/svg"
   xmlns:sodipodi="http://sodipodi.sourceforge.net/DTD/sodipodi-0.dtd"
   xmlns:inkscape="http://www.inkscape.org/namespaces/inkscape"
   width="12"
   height="12"
   viewBox="0 0 12 12"
   version="1.1"
   id="default16"
   inkscape:version="0.92+devel (327bdefa15, 2017-09-17, custom)"
   sodipodi:docname="glyph-slider.svg">
  <defs
     id="defs5" />
  <sodipodi:namedview
     id="base"
     pagecolor="#002466"
     bordercolor="#ffffff"
     borderopacity="0.38039216"
     inkscape:pageopacity="1"
     inkscape:pageshadow="2"
     inkscape:zoom="26.28125"
     inkscape:cx="7.7336504"
     inkscape:cy="8"
     inkscape:document-units="px"
     inkscape:current-layer="default16"
     inkscape:document-rotation="0"
     showgrid="false"
     inkscape:showpageshadow="false"
     borderlayer="true"
     inkscape:window-width="1920"
     inkscape:window-height="1029"
     inkscape:window-x="0"
     inkscape:window-y="22"
     inkscape:window-maximized="1"
     units="px"
     inkscape:snap-page="true"
     inkscape:snap-grids="false"
     inkscape:snap-to-guides="false" />
  <metadata
     id="metadata5">
    <rdf:RDF>
      <cc:Work
         rdf:about="">
        <dc:format>image/svg+xml</dc:format>
        <dc:type
           rdf:resource="http://purl.org/dc/dcmitype/StillImage" />
        <dc:title></dc:title>
      </cc:Work>
    </rdf:RDF>
  </metadata>
  <path
     inkscape:connector-curvature="0"
     style="opacity:1;fill:#d0d0d0;stroke:none"
     d="M 6,0 C 5.723,0 5.5,0.223 5.5,0.5 V 4.5878906 A 1.5,1.5 0 0 1 6,4.5 1.5,1.5 0 0 1 6.5,4.5878906 V 0.5 C 6.5,0.223 6.277,0 6,0 Z m 4.5,0 C 10.223,0 10,0.20145786 10,0.45117188 V 9.0878906 A 1.5,1.5 0 0 1 10.5,9 1.5,1.5 0 0 1 11,9.0878906 V 0.45117188 C 11,0.20145787 10.777,0 10.5,0 Z M 1,2.9121094 V 11.548828 C 1,11.798542 1.223,12 1.5,12 1.777,12 2,11.798542 2,11.548828 V 2.9121094 A 1.5,1.5 0 0 1 1.5,3 1.5,1.5 0 0 1 1,2.9121094 Z m 4.5,4.5 V 11.5 C 5.5,11.777 5.723,12 6,12 6.277,12 6.5,11.777 6.5,11.5 V 7.4121094 A 1.5,1.5 0 0 1 6,7.5 1.5,1.5 0 0 1 5.5,7.4121094 Z"
     id="rect842"
     inkscape:label="#" />
  <path
     inkscape:connector-curvature="0"
     style="fill:#d0d0d0;stroke-width:0.99999994;stroke:none"
     d="M 1.5,0 A 1.5,1.5 0 0 0 0,1.5 1.5,1.5 0 0 0 1.5,3 1.5,1.5 0 0 0 3,1.5 1.5,1.5 0 0 0 1.5,0 Z M 6,4.5 A 1.5,1.5 0 0 0 4.5,6 1.5,1.5 0 0 0 6,7.5 1.5,1.5 0 0 0 7.5,6 1.5,1.5 0 0 0 6,4.5 Z M 10.5,9 A 1.5,1.5 0 0 0 9,10.5 1.5,1.5 0 0 0 10.5,12 1.5,1.5 0 0 0 12,10.5 1.5,1.5 0 0 0 10.5,9 Z"
     id="path814"
     inkscape:label="#" />
</svg>
