<?xml version="1.0" encoding="UTF-8" standalone="no"?><svg height="22" viewBox="0 0 5.8208332 5.8208335" width="22" xmlns="http://www.w3.org/2000/svg"><sodipodi:namedview/><metadata><rdf:RDF><cc:Work><dc:format>image/svg+xml</dc:format><dc:type/><dc:title/></cc:Work></rdf:RDF></metadata><path d="m2.6687323.00000002c-.0038 0-.5247696.34414026-1.1577178.76458593l-1.15068728.76458605v1.1870124c0 .6531667.003387 1.1875982.007617 1.1875982.004223 0 .52519261-.3445323 1.15771778-.7657575l1.1501009-.765758v-1.1864265c0-.65238663-.00322-1.18584058-.0070306-1.18584058zm.4927332.0339812c-.00378 0-.00724.52529457-.00703 1.16709218l.0006 1.1665062 1.1495157.769273c.6320814.4229655 1.150645.7698592 1.1524449.7698592.00192.00051.00351-.5257784.00351-1.1694358v-1.1700212l-1.1460098-.76692949c-.6303865-.42161561-1.1492512-.76634372-1.1530308-.76634409zm-.2115061 2.73434738c-.0344166.0014059-2.30470326 1.5332638-2.29141435 1.5461625.00657584.0063264.51642085.3493403 1.13311055.7616566.6166896.4123163 1.1247491.7476655 1.1290091.7446657.1919876-.1244298 2.2805264-1.5375057 2.2826263-1.5444051.0045086-.0149388-2.2280437-1.5080797-2.2533316-1.5080797z" fill="#d0d0d0"/></svg>