<?xml version="1.0" encoding="UTF-8" standalone="no"?><svg height="16" viewBox="0 0 4.2333333 4.2333333" width="16" xmlns="http://www.w3.org/2000/svg"><sodipodi:namedview/><metadata><rdf:RDF><cc:Work><dc:format>image/svg+xml</dc:format><dc:type/><dc:title/></cc:Work></rdf:RDF></metadata><path d="m .00000001 0v1.5119048h1.51190479v-1.5119048zm2.11666669 0v .30238092h.302381v-.30238092zm.6047619 0v1.5119048h1.5119047v-1.5119048zm-2.41904766.30238092h.90714286v.90714288h-.90714286zm2.72142856 0h .9071429v.90714288h-.9071429zm-2.41904764.30238092v.302381h.30238103v-.302381zm1.20952384 0v .302381.30238096h.302381v-.30238096h.302381v-.302381h-.302381zm.302381.60476196v.302381h-.302381v.3023809h-.3023809v.3023809h.3023809v.3023811h.302381.302381v-.3023811h-.302381v-.3023809h.302381v-.3023809-.302381zm.302381.6047619v.3023809h.3023809v.3023811h.3023809v-.3023811h.302381v-.3023809h-.302381-.3023809zm.9071428-1.20952386v.302381h.302381v-.302381zm-3.02380956 1.20952386v.3023809h.30238092v-.3023809zm.30238092.3023809v.3023811h.30238103.30238091v-.3023811-.3023809h-.30238091v.3023809zm-.30238092 0h-.30238093v.3023811h.30238093zm3.32619056-.3023809v.3023809h.3023809v-.3023809zm0 .604762v.3023809h.3023809v-.3023809zm.3023809.3023809v.3023809h.3023809v-.3023809zm-3.93095239 0v1.5119047h1.51190479v-1.5119047zm2.41904768 0v .3023809h.30238091v-.3023809zm0 .3023809h-.302381v.3023809h-.302381v.3023811h.302381v.3023809h.302381v-.3023809-.3023811zm.60476181-.3023809v.3023809h.302381v-.3023809zm.302381.3023809v.3023809h.302381v-.3023809zm.302381.3023809v.3023811h.3023809v-.3023811zm0 .3023811h-.302381v.3023809.3023809h.302381v-.3023809zm-.302381 0v-.3023811h-.302381-.3023809v.3023811.3023809h.3023809v-.3023809zm-3.02380956-.604762h.90714286v.9071429h-.90714286zm.30238092.3023809v.3023811h.30238103v-.3023811zm3.32619054.604762v.3023809h.3023809v-.3023809z" fill="#d0d0d0" stroke-width=".302381"/></svg>