<?xml version="1.0" encoding="UTF-8" standalone="no"?><svg height="16" viewBox="0 0 4.2333332 4.2333332" width="16" xmlns="http://www.w3.org/2000/svg"><sodipodi:namedview/><metadata><rdf:RDF><cc:Work><dc:format>image/svg+xml</dc:format><dc:type/><dc:title/></cc:Work></rdf:RDF></metadata><path d="m .99696433.00036532c-.27427261-.00022837-.49153038.21859749-.49153038.52430062v3.70866716l2.87265755-.4836062c.1981056-.0344068.3498077-.2678327.3498077-.5201215v-2.78785846l-2.6441642-.43413489c-.029383-.004567-.058385-.00685099-.0867707-.00761199zm.69641837.71731372c.032732 0 .066682.00228.101759.00609.2412207.027784.4160028.1415704.5297813.33873206.1116547.1929291.1665381.4694778.1665381.8324774-.0002359.3326119-.040725.5943169-.1222584.7874747-.083155.1957535-.2096456.324132-.3830194.3834914.017432.089747.043846.1500579.079151.1820897.027327.024511.06927.036767.1255544.036767.01629 0 .033722-.00152.052295-.00304v.2645291l-.1203705.015757c-.035549.00457-.069042.00685-.1008151.00685-.1052909 0-.1905696-.025653-.2546409-.077263-.0848065-.0680568-.147462-.1995258-.1875094-.3940995-.1844418-.0393547-.328136-.156414-.4275428-.3531038-.101051-.1997575-.15240239-.492086-.15240239-.8743976 0-.4122348.0704122-.7165754.20870169-.90950476.1168386-.1627701.2798523-.2428573.484786-.2428573zm1.1092547.1439225.2362652.024968v.40775886l.242629.01865v.2558127l-.242629-.0120271v.9349445c0 .081267.00457.1335548.023065.1571143.01629.021466.037452.032047.071097.032047.00304 0 .00533.0000076.00822-.0004644.051382-.00304.1128346-.018878.1667742-.046662v.2350929c-.1076508.045445-.2054133.072544-.3052921.081031-.014387.00152-.028698.00152-.042171.00152-.090219 0-.1630137-.026186-.2101252-.079387-.055111-.061503-.08951-.1604079-.08951-.2960941v-1.0362315l-.1078868-.0053285v-.2741888l.153118.011038zm-1.0294034.16795396c-.087623 0-.1549982.051077-.2018737.1538259-.050849.1118907-.076555.343916-.076555.6949037 0 .339204.024968.5799452.07536.7212796.047576.1345063.1187188.2014093.2119978.2014093.00457 0 .00822-.000236.012484-.0004719.093515-.00609.1639424-.070412.2117618-.1936298.047576-.1220224.070945-.3615913.070945-.7186991 0-.3206-.023065-.5410777-.070412-.6621562-.0471194-.1215505-.1177828-.1872736-.2122417-.1955176-.0076122-.0007079-.014387-.0007612-.0214662-.0007612z" fill="#d0d0d0" stroke-width=".264583"/></svg>