<?xml version="1.0" encoding="UTF-8" standalone="no"?><svg height="16" viewBox="0 0 4.2333333 4.2333333" width="16" xmlns="http://www.w3.org/2000/svg"><sodipodi:namedview/><metadata><rdf:RDF><cc:Work><dc:format>image/svg+xml</dc:format><dc:type/><dc:title/></cc:Work></rdf:RDF></metadata><path d="m .0128251.8152855c-.00733.00733-.012828.3628571-.012828.7898556v.7751946h.2015872.2015873v-.5864357-.5864356h.1007936.1007936v.5864356.5864357h.1832611.1832613v-.5864357-.5864356h.1007936.1007936v.5864356.5864357h.201587.2015872v-.6927272c0-.6212552-.00367-.6982249-.032987-.7550359-.058644-.1172871-.065974-.1191197-.8283404-.1246175-.3793506-.00367-.6945598 0-.7018901.00733zm1.7281527.7770273v.7898555l.197922-.0055.1960895-.0055v-.7788555-.7788599l-.1960895-.0055-.197922-.0055zm.5854048-.764199c-.0055.012828-.00916.098961-.0055.188759l.0055.1631024.4636507.0055.4618181.00367v.394005.3940116h-.2657286-.2657287v-.3023816-.3042135l-.1960894.0055-.1979221.0055v.494805.4948052l.5772726.0055c.6359163.0055.6963924-.00183.731212-.086132.025657-.060476.020159-1.3268106-.0055-1.381789-.00916-.018326-.04215-.045815-.073304-.064142-.04948-.027489-.131948-.031154-.6395814-.036652-.485642-.0055-.5827705-.00183-.5901013.020158zm1.5108738 0c-.0055.010996-.00733.3646897-.0055.7825251l.0055.7605338.197922.0055.1960895.0055v-.7898599-.7880229h-.1924243c-.1374459 0-.1960894.00733-.2015872.0238239zm-3.8372595 2.1416356v.302381l2.113001-.00367 2.1111685-.0055.0055-.2987156.00367-.2968831h-2.1166725-2.1166663z" fill="#d0d0d0" stroke-width=".026458"/></svg>