<?xml version="1.0" encoding="UTF-8" standalone="no"?>
<!-- Created with Inkscape (http://www.inkscape.org/) -->

<svg
   xmlns:dc="http://purl.org/dc/elements/1.1/"
   xmlns:cc="http://creativecommons.org/ns#"
   xmlns:rdf="http://www.w3.org/1999/02/22-rdf-syntax-ns#"
   xmlns:svg="http://www.w3.org/2000/svg"
   xmlns="http://www.w3.org/2000/svg"
   xmlns:sodipodi="http://sodipodi.sourceforge.net/DTD/sodipodi-0.dtd"
   xmlns:inkscape="http://www.inkscape.org/namespaces/inkscape"
   width="16"
   height="16"
   viewBox="0 0 4.2333333 4.2333333"
   version="1.1"
   id="svg8"
   inkscape:version="0.92+devel (7f3bd2b258, 2017-08-07, custom)"
   sodipodi:docname="glyph-photoshop.svg">
  <defs
     id="defs2" />
  <sodipodi:namedview
     id="base"
     pagecolor="#002466"
     bordercolor="#ffffff"
     borderopacity="0.38039216"
     inkscape:pageopacity="1"
     inkscape:pageshadow="2"
     inkscape:zoom="10.137867"
     inkscape:cx="-6.8313791"
     inkscape:cy="6.0133616"
     inkscape:document-units="px"
     inkscape:current-layer="svg8"
     inkscape:document-rotation="0"
     showgrid="false"
     inkscape:showpageshadow="false"
     borderlayer="true"
     inkscape:window-width="1920"
     inkscape:window-height="1027"
     inkscape:window-x="0"
     inkscape:window-y="24"
     inkscape:window-maximized="1"
     units="px" />
  <metadata
     id="metadata5">
    <rdf:RDF>
      <cc:Work
         rdf:about="">
        <dc:format>image/svg+xml</dc:format>
        <dc:type
           rdf:resource="http://purl.org/dc/dcmitype/StillImage" />
        <dc:title />
      </cc:Work>
    </rdf:RDF>
  </metadata>
  <path
     style="fill:#d0d0d0;fill-opacity:1;stroke-width:0.72725832"
     d="M 11.636719 0 L 4.3632812 0.001953125 C 1.9459225 0.001953125 5.9211895e-16 1.9477801 0 4.3652344 C 0 5.1623254 0.21503628 5.9061476 0.5859375 6.546875 L 0.58203125 6.5449219 L 0.64257812 6.640625 C 0.68476975 6.7089891 0.72371128 6.7782961 0.76953125 6.84375 L 6.5449219 16 L 6.5449219 8.7265625 L 11.636719 8.7265625 C 14.054077 8.7265625 16 6.7807355 16 4.3632812 C 16 1.9458266 14.054077 -5.9211895e-16 11.636719 0 z M 11.636719 1.4550781 A 2.9089757 2.9090908 0 0 1 14.544922 4.3652344 A 2.9089757 2.9090908 0 0 1 11.636719 7.2734375 A 2.9089757 2.9090908 0 0 1 8.7265625 4.3652344 A 2.9089757 2.9090908 0 0 1 11.636719 1.4550781 z "
     transform="scale(0.26458333)"
     id="path814"
     inkscape:label="#" />
</svg>
