<?xml version="1.0" encoding="UTF-8" standalone="no"?><svg height="22" viewBox="0 0 22 22" width="22" xmlns="http://www.w3.org/2000/svg" xmlns:xlink="http://www.w3.org/1999/xlink"><sodipodi:namedview/><metadata><rdf:RDF><cc:Work><dc:format>image/svg+xml</dc:format><dc:type/><dc:title/></cc:Work></rdf:RDF></metadata><path id="a" d="m22 11a11 11 0 0 1 -.0033.271012l-10.9967-.271012z"/><use fill="#f00" height="100%" stroke="#f00" width="100%" xlink:href="#a"/><use fill="#ff0600" height="100%" stroke="#ff0600" transform="matrix(.99969645 .02463737 -.02463737 .99969645 .27435 -.267672)" width="100%" xlink:href="#a"/><use fill="#ff0c00" height="100%" stroke="#ff0c00" transform="matrix(.998786 .04925978 -.04925978 .998786 .555212 -.528504)" width="100%" xlink:href="#a"/><use fill="#ff1200" height="100%" stroke="#ff1200" transform="matrix(.99726919 .07385228 -.07385228 .99726919 .842414 -.782336)" width="100%" xlink:href="#a"/><use fill="#ff1800" height="100%" stroke="#ff1800" transform="matrix(.99514695 .09839995 -.09839995 .99514695 1.135783 -1.029016)" width="100%" xlink:href="#a"/><use fill="#ff1e00" height="100%" stroke="#ff1e00" transform="matrix(.99242056 .12288788 -.12288788 .99242056 1.435141 -1.268393)" width="100%" xlink:href="#a"/><use fill="#ff2400" height="100%" stroke="#ff2400" transform="matrix(.98909168 .14730121 -.14730121 .98909168 1.740305 -1.500322)" width="100%" xlink:href="#a"/><use fill="#ff2a00" height="100%" stroke="#ff2a00" transform="matrix(.98516233 .17162511 -.17162511 .98516233 2.051091 -1.724662)" width="100%" xlink:href="#a"/><use fill="#ff3000" height="100%" stroke="#ff3000" transform="matrix(.9806349 .19584482 -.19584482 .9806349 2.367309 -1.941277)" width="100%" xlink:href="#a"/><use fill="#ff3600" height="100%" stroke="#ff3600" transform="matrix(.97551213 .21994564 -.21994564 .97551213 2.688769 -2.150035)" width="100%" xlink:href="#a"/><use fill="#ff3c00" height="100%" stroke="#ff3c00" transform="matrix(.96979714 .24391292 -.24391292 .96979714 3.015274 -2.350811)" width="100%" xlink:href="#a"/><use fill="#ff4200" height="100%" stroke="#ff4200" transform="matrix(.96349339 .26773213 -.26773213 .96349339 3.346626 -2.543481)" width="100%" xlink:href="#a"/><use fill="#ff4800" height="100%" stroke="#ff4800" transform="matrix(.95660471 .2913888 -.2913888 .95660471 3.682625 -2.727929)" width="100%" xlink:href="#a"/><use fill="#ff4e00" height="100%" stroke="#ff4e00" transform="matrix(.94913528 .31486858 -.31486858 .94913528 4.023066 -2.904042)" width="100%" xlink:href="#a"/><use fill="#ff5400" height="100%" stroke="#ff5400" transform="matrix(.94108964 .33815719 -.33815719 .94108964 4.367743 -3.071715)" width="100%" xlink:href="#a"/><use fill="#ff5a00" height="100%" stroke="#ff5a00" transform="matrix(.93247267 .36124052 -.36124052 .93247267 4.716446 -3.230845)" width="100%" xlink:href="#a"/><use fill="#ff6000" height="100%" stroke="#ff6000" transform="matrix(.92328961 .38410454 -.38410454 .92328961 5.068964 -3.381336)" width="100%" xlink:href="#a"/><use fill="#f60" height="100%" stroke="#f60" transform="matrix(.91354603 .40673537 -.40673537 .91354603 5.425083 -3.523095)" width="100%" xlink:href="#a"/><use fill="#ff6c00" height="100%" stroke="#ff6c00" transform="matrix(.90324783 .42911927 -.42911927 .90324783 5.784586 -3.656038)" width="100%" xlink:href="#a"/><use fill="#ff7200" height="100%" stroke="#ff7200" transform="matrix(.89240129 .45124266 -.45124266 .89240129 6.147255 -3.780083)" width="100%" xlink:href="#a"/><use fill="#ff7800" height="100%" stroke="#ff7800" transform="matrix(.88101297 .47309211 -.47309211 .88101297 6.512871 -3.895156)" width="100%" xlink:href="#a"/><use fill="#ff7e00" height="100%" stroke="#ff7e00" transform="matrix(.8690898 .49465434 -.49465434 .8690898 6.88121 -4.001186)" width="100%" xlink:href="#a"/><use fill="#ff8400" height="100%" stroke="#ff8400" transform="matrix(.85663901 .51591628 -.51591628 .85663901 7.25205 -4.098108)" width="100%" xlink:href="#a"/><use fill="#ff8a00" height="100%" stroke="#ff8a00" transform="matrix(.84366816 .536865 -.536865 .84366816 7.625165 -4.185865)" width="100%" xlink:href="#a"/><use fill="#ff9000" height="100%" stroke="#ff9000" transform="matrix(.83018513 .5574878 -.5574878 .83018513 8.000329 -4.264402)" width="100%" xlink:href="#a"/><use fill="#ff9600" height="100%" stroke="#ff9600" transform="matrix(.8161981 .57777216 -.57777216 .8161981 8.377315 -4.333673)" width="100%" xlink:href="#a"/><use fill="#ff9c00" height="100%" stroke="#ff9c00" transform="matrix(.80171556 .59770575 -.59770575 .80171556 8.755892 -4.393634)" width="100%" xlink:href="#a"/><use fill="#ffa200" height="100%" stroke="#ffa200" transform="matrix(.78674631 .61727648 -.61727648 .78674631 9.135832 -4.444251)" width="100%" xlink:href="#a"/><use fill="#ffa800" height="100%" stroke="#ffa800" transform="matrix(.77129943 .63647246 -.63647246 .77129943 9.516903 -4.485491)" width="100%" xlink:href="#a"/><use fill="#ffae00" height="100%" stroke="#ffae00" transform="matrix(.7553843 .65528205 -.65528205 .7553843 9.898875 -4.51733)" width="100%" xlink:href="#a"/><use fill="#ffb400" height="100%" stroke="#ffb400" transform="matrix(.73901058 .67369382 -.67369382 .73901058 10.281516 -4.539748)" width="100%" xlink:href="#a"/><use fill="#ffba00" height="100%" stroke="#ffba00" transform="matrix(.72218821 .6916966 -.6916966 .72218821 10.664592 -4.552733)" width="100%" xlink:href="#a"/><use fill="#ffc000" height="100%" stroke="#ffc000" transform="matrix(.70492741 .70927945 -.70927945 .70492741 11.047872 -4.556276)" width="100%" xlink:href="#a"/><use fill="#ffc600" height="100%" stroke="#ffc600" transform="matrix(.68723865 .72643171 -.72643171 .68723865 11.431124 -4.550374)" width="100%" xlink:href="#a"/><use fill="#fc0" height="100%" stroke="#fc0" transform="matrix(.66913268 .74314296 -.74314296 .66913268 11.814113 -4.535032)" width="100%" xlink:href="#a"/><use fill="#ffd200" height="100%" stroke="#ffd200" transform="matrix(.65062048 .75940305 -.75940305 .65062048 12.196608 -4.510259)" width="100%" xlink:href="#a"/><use fill="#ffd800" height="100%" stroke="#ffd800" transform="matrix(.6317133 .77520211 -.77520211 .6317133 12.578377 -4.476069)" width="100%" xlink:href="#a"/><use fill="#ffde00" height="100%" stroke="#ffde00" transform="matrix(.61242261 .79053055 -.79053055 .61242261 12.959187 -4.432485)" width="100%" xlink:href="#a"/><use fill="#ffe400" height="100%" stroke="#ffe400" transform="matrix(.59276012 .80537907 -.80537907 .59276012 13.338808 -4.379531)" width="100%" xlink:href="#a"/><use fill="#ffea00" height="100%" stroke="#ffea00" transform="matrix(.57273777 .81973865 -.81973865 .57273777 13.71701 -4.317241)" width="100%" xlink:href="#a"/><use fill="#fff000" height="100%" stroke="#fff000" transform="matrix(.55236771 .83360057 -.83360057 .55236771 14.093561 -4.245651)" width="100%" xlink:href="#a"/><use fill="#fff600" height="100%" stroke="#fff600" transform="matrix(.53166232 .84695642 -.84695642 .53166232 14.468235 -4.164806)" width="100%" xlink:href="#a"/><use fill="#fffc00" height="100%" stroke="#fffc00" transform="matrix(.51063416 .85979809 -.85979809 .51063416 14.840803 -4.074755)" width="100%" xlink:href="#a"/><use fill="#fcff00" height="100%" stroke="#fcff00" transform="matrix(.489296 .87211778 -.87211778 .489296 15.21104 -3.975552)" width="100%" xlink:href="#a"/><use fill="#f6ff00" height="100%" stroke="#f6ff00" transform="matrix(.46766079 .88390802 -.88390802 .46766079 15.57872 -3.867257)" width="100%" xlink:href="#a"/><use fill="#f0ff00" height="100%" stroke="#f0ff00" transform="matrix(.44574166 .89516164 -.89516164 .44574166 15.94362 -3.749936)" width="100%" xlink:href="#a"/><use fill="#eaff00" height="100%" stroke="#eaff00" transform="matrix(.42355194 .90587182 -.90587182 .42355194 16.305519 -3.623661)" width="100%" xlink:href="#a"/><use fill="#e4ff00" height="100%" stroke="#e4ff00" transform="matrix(.40110507 .91603205 -.91603205 .40110507 16.664197 -3.488508)" width="100%" xlink:href="#a"/><use fill="#deff00" height="100%" stroke="#deff00" transform="matrix(.3784147 .92563617 -.92563617 .3784147 17.019436 -3.34456)" width="100%" xlink:href="#a"/><use fill="#d8ff00" height="100%" stroke="#d8ff00" transform="matrix(.35549459 .93467834 -.93467834 .35549459 17.371021 -3.191902)" width="100%" xlink:href="#a"/><use fill="#d2ff00" height="100%" stroke="#d2ff00" transform="matrix(.33235867 .94315307 -.94315307 .33235867 17.718738 -3.030629)" width="100%" xlink:href="#a"/><use fill="#cf0" height="100%" stroke="#cf0" transform="matrix(.30902098 .95105522 -.95105522 .30902098 18.062377 -2.860838)" width="100%" xlink:href="#a"/><use fill="#c6ff00" height="100%" stroke="#c6ff00" transform="matrix(.28549568 .95838 -.95838 .28549568 18.401727 -2.682632)" width="100%" xlink:href="#a"/><use fill="#c0ff00" height="100%" stroke="#c0ff00" transform="matrix(.26179706 .96512295 -.96512295 .26179706 18.736585 -2.49612)" width="100%" xlink:href="#a"/><use fill="#baff00" height="100%" stroke="#baff00" transform="matrix(.2379395 .97127998 -.97127998 .2379395 19.066745 -2.301414)" width="100%" xlink:href="#a"/><use fill="#b4ff00" height="100%" stroke="#b4ff00" transform="matrix(.2139375 .97684735 -.97684735 .2139375 19.392008 -2.098633)" width="100%" xlink:href="#a"/><use fill="#aeff00" height="100%" stroke="#aeff00" transform="matrix(.18980561 .98182169 -.98182169 .18980561 19.712177 -1.8879)" width="100%" xlink:href="#a"/><use fill="#a8ff00" height="100%" stroke="#a8ff00" transform="matrix(.16555849 .98619997 -.98619997 .16555849 20.027056 -1.669343)" width="100%" xlink:href="#a"/><use fill="#a2ff00" height="100%" stroke="#a2ff00" transform="matrix(.14121087 .98997954 -.98997954 .14121087 20.336455 -1.443094)" width="100%" xlink:href="#a"/><use fill="#9cff00" height="100%" stroke="#9cff00" transform="matrix(.11677751 .9931581 -.9931581 .11677751 20.640186 -1.209292)" width="100%" xlink:href="#a"/><use fill="#96ff00" height="100%" stroke="#96ff00" transform="matrix(.09227327 .99573372 -.99573372 .09227327 20.938065 -.968077)" width="100%" xlink:href="#a"/><use fill="#90ff00" height="100%" stroke="#90ff00" transform="matrix(.067713 .99770484 -.99770484 .067713 21.22991 -.719596)" width="100%" xlink:href="#a"/><use fill="#8aff00" height="100%" stroke="#8aff00" transform="matrix(.04311163 .99907026 -.99907026 .04311163 21.515545 -.464001)" width="100%" xlink:href="#a"/><use fill="#84ff00" height="100%" stroke="#84ff00" transform="matrix(.01848408 .99982915 -.99982915 .01848408 21.794796 -.201446)" width="100%" xlink:href="#a"/><use fill="#7eff00" height="100%" stroke="#7eff00" transform="matrix(-.00615469 .99998106 -.99998106 -.00615469 22.067493 .06791)" width="100%" xlink:href="#a"/><use fill="#78ff00" height="100%" stroke="#78ff00" transform="matrix(-.03078972 .99952588 -.99952588 -.03078972 22.333472 .343902)" width="100%" xlink:href="#a"/><use fill="#72ff00" height="100%" stroke="#72ff00" transform="matrix(-.05540606 .9984639 -.9984639 -.05540606 22.59257 .626364)" width="100%" xlink:href="#a"/><use fill="#6cff00" height="100%" stroke="#6cff00" transform="matrix(-.07998877 .99679577 -.99679577 -.07998877 22.84463 .915123)" width="100%" xlink:href="#a"/><use fill="#6f0" height="100%" stroke="#6f0" transform="matrix(-.10452291 .99452248 -.99452248 -.10452291 23.089499 1.210005)" width="100%" xlink:href="#a"/><use fill="#60ff00" height="100%" stroke="#60ff00" transform="matrix(-.1289936 .99164543 -.99164543 -.1289936 23.327029 1.51083)" width="100%" xlink:href="#a"/><use fill="#5aff00" height="100%" stroke="#5aff00" transform="matrix(-.15338597 .98816635 -.98816635 -.15338597 23.557076 1.817416)" width="100%" xlink:href="#a"/><use fill="#54ff00" height="100%" stroke="#54ff00" transform="matrix(-.17768523 .98408737 -.98408737 -.17768523 23.779499 2.129576)" width="100%" xlink:href="#a"/><use fill="#4eff00" height="100%" stroke="#4eff00" transform="matrix(-.20187662 .97941096 -.97941096 -.20187662 23.994163 2.447122)" width="100%" xlink:href="#a"/><use fill="#48ff00" height="100%" stroke="#48ff00" transform="matrix(-.22594545 .97413996 -.97413996 -.22594545 24.200939 2.76986)" width="100%" xlink:href="#a"/><use fill="#42ff00" height="100%" stroke="#42ff00" transform="matrix(-.2498771 .96827756 -.96827756 -.2498771 24.399701 3.097595)" width="100%" xlink:href="#a"/><use fill="#3cff00" height="100%" stroke="#3cff00" transform="matrix(-.27365707 .96182733 -.96182733 -.27365707 24.590328 3.430127)" width="100%" xlink:href="#a"/><use fill="#36ff00" height="100%" stroke="#36ff00" transform="matrix(-.29727089 .95479318 -.95479318 -.29727089 24.772705 3.767255)" width="100%" xlink:href="#a"/><use fill="#30ff00" height="100%" stroke="#30ff00" transform="matrix(-.32070425 .94717938 -.94717938 -.32070425 24.94672 4.108773)" width="100%" xlink:href="#a"/><use fill="#2aff00" height="100%" stroke="#2aff00" transform="matrix(-.3439429 .93899056 -.93899056 -.3439429 25.112268 4.454476)" width="100%" xlink:href="#a"/><use fill="#24ff00" height="100%" stroke="#24ff00" transform="matrix(-.36697276 .93023169 -.93023169 -.36697276 25.269249 4.804152)" width="100%" xlink:href="#a"/><use fill="#1eff00" height="100%" stroke="#1eff00" transform="matrix(-.38977982 .92090808 -.92090808 -.38977982 25.417567 5.157589)" width="100%" xlink:href="#a"/><use fill="#18ff00" height="100%" stroke="#18ff00" transform="matrix(-.41235026 .91102539 -.91102539 -.41235026 25.557132 5.514574)" width="100%" xlink:href="#a"/><use fill="#12ff00" height="100%" stroke="#12ff00" transform="matrix(-.43467036 .90058963 -.90058963 -.43467036 25.68786 5.874888)" width="100%" xlink:href="#a"/><use fill="#0cff00" height="100%" stroke="#0cff00" transform="matrix(-.45672657 .88960713 -.88960713 -.45672657 25.809671 6.238314)" width="100%" xlink:href="#a"/><use fill="#06ff00" height="100%" stroke="#06ff00" transform="matrix(-.47850551 .87808455 -.87808455 -.47850551 25.922491 6.604631)" width="100%" xlink:href="#a"/><use fill="#0f0" height="100%" stroke="#0f0" transform="matrix(-.49999395 .86602889 -.86602889 -.49999395 26.026251 6.973616)" width="100%" xlink:href="#a"/><use fill="#00ff06" height="100%" stroke="#00ff06" transform="matrix(-.52117885 .85344748 -.85344748 -.52117885 26.12089 7.345045)" width="100%" xlink:href="#a"/><use fill="#00ff0c" height="100%" stroke="#00ff0c" transform="matrix(-.54204735 .84034794 -.84034794 -.54204735 26.206348 7.718693)" width="100%" xlink:href="#a"/><use fill="#00ff12" height="100%" stroke="#00ff12" transform="matrix(-.56258678 .82673824 -.82673824 -.56258678 26.282575 8.094334)" width="100%" xlink:href="#a"/><use fill="#00ff18" height="100%" stroke="#00ff18" transform="matrix(-.58278466 .81262663 -.81262663 -.58278466 26.349524 8.471738)" width="100%" xlink:href="#a"/><use fill="#00ff1e" height="100%" stroke="#00ff1e" transform="matrix(-.60262874 .79802168 -.79802168 -.60262874 26.407155 8.850678)" width="100%" xlink:href="#a"/><use fill="#00ff24" height="100%" stroke="#00ff24" transform="matrix(-.62210697 .78293226 -.78293226 -.62210697 26.455431 9.230922)" width="100%" xlink:href="#a"/><use fill="#00ff2a" height="100%" stroke="#00ff2a" transform="matrix(-.64120752 .76736753 -.76736753 -.64120752 26.494325 9.61224)" width="100%" xlink:href="#a"/><use fill="#00ff30" height="100%" stroke="#00ff30" transform="matrix(-.6599188 .75133693 -.75133693 -.6599188 26.523813 9.994401)" width="100%" xlink:href="#a"/><use fill="#00ff36" height="100%" stroke="#00ff36" transform="matrix(-.67822944 .7348502 -.7348502 -.67822944 26.543876 10.377172)" width="100%" xlink:href="#a"/><use fill="#00ff3c" height="100%" stroke="#00ff3c" transform="matrix(-.69612834 .71791735 -.71791735 -.69612834 26.554503 10.760321)" width="100%" xlink:href="#a"/><use fill="#00ff42" height="100%" stroke="#00ff42" transform="matrix(-.71360463 .70054866 -.70054866 -.71360463 26.555686 11.143616)" width="100%" xlink:href="#a"/><use fill="#00ff48" height="100%" stroke="#00ff48" transform="matrix(-.73064769 .68275468 -.68275468 -.73064769 26.547426 11.526823)" width="100%" xlink:href="#a"/><use fill="#00ff4e" height="100%" stroke="#00ff4e" transform="matrix(-.74724719 .66454619 -.66454619 -.74724719 26.529727 11.909711)" width="100%" xlink:href="#a"/><use fill="#00ff54" height="100%" stroke="#00ff54" transform="matrix(-.76339303 .64593427 -.64593427 -.76339303 26.5026 12.292046)" width="100%" xlink:href="#a"/><use fill="#00ff5a" height="100%" stroke="#00ff5a" transform="matrix(-.77907543 .6269302 -.6269302 -.77907543 26.466062 12.673597)" width="100%" xlink:href="#a"/><use fill="#00ff60" height="100%" stroke="#00ff60" transform="matrix(-.79428485 .60754554 -.60754554 -.79428485 26.420134 13.054132)" width="100%" xlink:href="#a"/><use fill="#0f6" height="100%" stroke="#0f6" transform="matrix(-.80901207 .58779203 -.58779203 -.80901207 26.364845 13.43342)" width="100%" xlink:href="#a"/><use fill="#00ff6c" height="100%" stroke="#00ff6c" transform="matrix(-.82324815 .56768168 -.56768168 -.82324815 26.300228 13.811231)" width="100%" xlink:href="#a"/><use fill="#00ff72" height="100%" stroke="#00ff72" transform="matrix(-.83698443 .5472267 -.5472267 -.83698443 26.226322 14.187335)" width="100%" xlink:href="#a"/><use fill="#00ff78" height="100%" stroke="#00ff78" transform="matrix(-.8502126 .5264395 -.5264395 -.8502126 26.143173 14.561504)" width="100%" xlink:href="#a"/><use fill="#00ff7e" height="100%" stroke="#00ff7e" transform="matrix(-.8629246 .5053327 -.5053327 -.8629246 26.05083 14.933511)" width="100%" xlink:href="#a"/><use fill="#00ff84" height="100%" stroke="#00ff84" transform="matrix(-.87511273 .48391911 -.48391911 -.87511273 25.94935 15.30313)" width="100%" xlink:href="#a"/><use fill="#00ff8a" height="100%" stroke="#00ff8a" transform="matrix(-.88676959 .46221175 -.46221175 -.88676959 25.838795 15.670136)" width="100%" xlink:href="#a"/><use fill="#00ff90" height="100%" stroke="#00ff90" transform="matrix(-.89788809 .44022378 -.44022378 -.89788809 25.719231 16.034307)" width="100%" xlink:href="#a"/><use fill="#00ff96" height="100%" stroke="#00ff96" transform="matrix(-.9084615 .41796855 -.41796855 -.9084615 25.590731 16.395422)" width="100%" xlink:href="#a"/><use fill="#00ff9c" height="100%" stroke="#00ff9c" transform="matrix(-.91848338 .39545958 -.39545958 -.91848338 25.453373 16.753262)" width="100%" xlink:href="#a"/><use fill="#00ffa2" height="100%" stroke="#00ffa2" transform="matrix(-.92794766 .37271053 -.37271053 -.92794766 25.30724 17.107608)" width="100%" xlink:href="#a"/><use fill="#00ffa8" height="100%" stroke="#00ffa8" transform="matrix(-.93684859 .34973521 -.34973521 -.93684859 25.152422 17.458247)" width="100%" xlink:href="#a"/><use fill="#00ffae" height="100%" stroke="#00ffae" transform="matrix(-.94518077 .32654756 -.32654756 -.94518077 24.989012 17.804965)" width="100%" xlink:href="#a"/><use fill="#00ffb4" height="100%" stroke="#00ffb4" transform="matrix(-.95293914 .30316167 -.30316167 -.95293914 24.817109 18.147552)" width="100%" xlink:href="#a"/><use fill="#00ffba" height="100%" stroke="#00ffba" transform="matrix(-.96011898 .27959174 -.27959174 -.96011898 24.636818 18.4858)" width="100%" xlink:href="#a"/><use fill="#00ffc0" height="100%" stroke="#00ffc0" transform="matrix(-.96671595 .25585207 -.25585207 -.96671595 24.448248 18.819503)" width="100%" xlink:href="#a"/><use fill="#00ffc6" height="100%" stroke="#00ffc6" transform="matrix(-.97272602 .23195707 -.23195707 -.97272602 24.251514 19.148459)" width="100%" xlink:href="#a"/><use fill="#0fc" height="100%" stroke="#0fc" transform="matrix(-.97814557 .20792125 -.20792125 -.97814557 24.046735 19.472467)" width="100%" xlink:href="#a"/><use fill="#00ffd2" height="100%" stroke="#00ffd2" transform="matrix(-.98297129 .18375921 -.18375921 -.98297129 23.834035 19.791333)" width="100%" xlink:href="#a"/><use fill="#00ffd8" height="100%" stroke="#00ffd8" transform="matrix(-.98720025 .1594856 -.1594856 -.98720025 23.613544 20.104861)" width="100%" xlink:href="#a"/><use fill="#00ffde" height="100%" stroke="#00ffde" transform="matrix(-.9908299 .13511518 -.13511518 -.9908299 23.385396 20.412862)" width="100%" xlink:href="#a"/><use fill="#00ffe4" height="100%" stroke="#00ffe4" transform="matrix(-.99385802 .11066272 -.11066272 -.99385802 23.149728 20.715148)" width="100%" xlink:href="#a"/><use fill="#00ffea" height="100%" stroke="#00ffea" transform="matrix(-.99628278 .08614309 -.08614309 -.99628278 22.906684 21.011537)" width="100%" xlink:href="#a"/><use fill="#00fff0" height="100%" stroke="#00fff0" transform="matrix(-.9981027 .06157115 -.06157115 -.9981027 22.656412 21.301847)" width="100%" xlink:href="#a"/><use fill="#00fff6" height="100%" stroke="#00fff6" transform="matrix(-.99931668 .03696184 -.03696184 -.99931668 22.399064 21.585903)" width="100%" xlink:href="#a"/><use fill="#00fffc" height="100%" stroke="#00fffc" transform="matrix(-.99992398 .01233009 -.01233009 -.99992398 22.134795 21.863533)" width="100%" xlink:href="#a"/><use fill="#00fcff" height="100%" stroke="#00fcff" transform="matrix(-.99992424 -.01230915 .01230915 -.99992424 21.863766 22.134567)" width="100%" xlink:href="#a"/><use fill="#00f6ff" height="100%" stroke="#00f6ff" transform="matrix(-.99931745 -.03694091 .03694091 -.99931745 21.586142 22.398842)" width="100%" xlink:href="#a"/><use fill="#00f0ff" height="100%" stroke="#00f0ff" transform="matrix(-.99810399 -.06155025 .06155025 -.99810399 21.302091 22.656197)" width="100%" xlink:href="#a"/><use fill="#00eaff" height="100%" stroke="#00eaff" transform="matrix(-.99628458 -.08612222 .08612222 -.99628458 21.011786 22.906475)" width="100%" xlink:href="#a"/><use fill="#00e4ff" height="100%" stroke="#00e4ff" transform="matrix(-.99386034 -.11064191 .11064191 -.99386034 20.715403 23.149525)" width="100%" xlink:href="#a"/><use fill="#00deff" height="100%" stroke="#00deff" transform="matrix(-.99083273 -.13509442 .13509442 -.99083273 20.413121 23.385199)" width="100%" xlink:href="#a"/><use fill="#00d8ff" height="100%" stroke="#00d8ff" transform="matrix(-.98720359 -.15946493 .15946493 -.98720359 20.105125 23.613354)" width="100%" xlink:href="#a"/><use fill="#00d2ff" height="100%" stroke="#00d2ff" transform="matrix(-.98297514 -.18373862 .18373862 -.98297514 19.791602 23.833851)" width="100%" xlink:href="#a"/><use fill="#0cf" height="100%" stroke="#0cf" transform="matrix(-.97814992 -.20790076 .20790076 -.97814992 19.472741 24.046558)" width="100%" xlink:href="#a"/><use fill="#00c6ff" height="100%" stroke="#00c6ff" transform="matrix(-.97273088 -.2319367 .2319367 -.97273088 19.148736 24.251343)" width="100%" xlink:href="#a"/><use fill="#00c0ff" height="100%" stroke="#00c0ff" transform="matrix(-.9667213 -.25583182 .25583182 -.9667213 18.819784 24.448084)" width="100%" xlink:href="#a"/><use fill="#00baff" height="100%" stroke="#00baff" transform="matrix(-.96012484 -.27957163 .27957163 -.96012484 18.486085 24.636661)" width="100%" xlink:href="#a"/><use fill="#00b4ff" height="100%" stroke="#00b4ff" transform="matrix(-.95294549 -.30314172 .30314172 -.95294549 18.147841 24.816959)" width="100%" xlink:href="#a"/><use fill="#00aeff" height="100%" stroke="#00aeff" transform="matrix(-.94518761 -.32652777 .32652777 -.94518761 17.805258 24.988869)" width="100%" xlink:href="#a"/><use fill="#00a8ff" height="100%" stroke="#00a8ff" transform="matrix(-.93685592 -.34971558 .34971558 -.93685592 17.458544 25.152287)" width="100%" xlink:href="#a"/><use fill="#00a2ff" height="100%" stroke="#00a2ff" transform="matrix(-.92795547 -.37269109 .37269109 -.92795547 17.107908 25.307112)" width="100%" xlink:href="#a"/><use fill="#009cff" height="100%" stroke="#009cff" transform="matrix(-.91849166 -.39544034 .39544034 -.91849166 16.753565 25.453252)" width="100%" xlink:href="#a"/><use fill="#0096ff" height="100%" stroke="#0096ff" transform="matrix(-.90847025 -.41794953 .41794953 -.90847025 16.395728 25.590618)" width="100%" xlink:href="#a"/><use fill="#0090ff" height="100%" stroke="#0090ff" transform="matrix(-.89789731 -.44020497 .44020497 -.89789731 16.034616 25.719125)" width="100%" xlink:href="#a"/><use fill="#008aff" height="100%" stroke="#008aff" transform="matrix(-.88677927 -.46219318 .46219318 -.88677927 15.670447 25.838697)" width="100%" xlink:href="#a"/><use fill="#0084ff" height="100%" stroke="#0084ff" transform="matrix(-.87512287 -.48390079 .48390079 -.87512287 15.303443 25.94926)" width="100%" xlink:href="#a"/><use fill="#007eff" height="100%" stroke="#007eff" transform="matrix(-.86293518 -.50531462 .50531462 -.86293518 14.933826 26.050748)" width="100%" xlink:href="#a"/><use fill="#0078ff" height="100%" stroke="#0078ff" transform="matrix(-.85022362 -.52642169 .52642169 -.85022362 14.561821 26.143098)" width="100%" xlink:href="#a"/><use fill="#0072ff" height="100%" stroke="#0072ff" transform="matrix(-.83699589 -.54720917 .54720917 -.83699589 14.187654 26.226256)" width="100%" xlink:href="#a"/><use fill="#006cff" height="100%" stroke="#006cff" transform="matrix(-.82326004 -.56766444 .56766444 -.82326004 13.811552 26.300169)" width="100%" xlink:href="#a"/><use fill="#06f" height="100%" stroke="#06f" transform="matrix(-.80902438 -.58777509 .58777509 -.80902438 13.433742 26.364794)" width="100%" xlink:href="#a"/><use fill="#0060ff" height="100%" stroke="#0060ff" transform="matrix(-.79429757 -.6075289 .6075289 -.79429757 13.054455 26.420091)" width="100%" xlink:href="#a"/><use fill="#005aff" height="100%" stroke="#005aff" transform="matrix(-.77908856 -.62691389 .62691389 -.77908856 12.673921 26.466027)" width="100%" xlink:href="#a"/><use fill="#0054ff" height="100%" stroke="#0054ff" transform="matrix(-.76340656 -.64591828 .64591828 -.76340656 12.292371 26.502573)" width="100%" xlink:href="#a"/><use fill="#004eff" height="100%" stroke="#004eff" transform="matrix(-.7472611 -.66453054 .66453054 -.7472611 11.910036 26.529708)" width="100%" xlink:href="#a"/><use fill="#0048ff" height="100%" stroke="#0048ff" transform="matrix(-.73066199 -.68273937 .68273937 -.73066199 11.527149 26.547415)" width="100%" xlink:href="#a"/><use fill="#0042ff" height="100%" stroke="#0042ff" transform="matrix(-.7136193 -.70053372 .70053372 -.7136193 11.143941 26.555683)" width="100%" xlink:href="#a"/><use fill="#003cff" height="100%" stroke="#003cff" transform="matrix(-.69614338 -.71790277 .71790277 -.69614338 10.760647 26.554508)" width="100%" xlink:href="#a"/><use fill="#0036ff" height="100%" stroke="#0036ff" transform="matrix(-.67824483 -.734836 .734836 -.67824483 10.377497 26.543889)" width="100%" xlink:href="#a"/><use fill="#0030ff" height="100%" stroke="#0030ff" transform="matrix(-.65993453 -.75132311 .75132311 -.65993453 9.994726 26.523834)" width="100%" xlink:href="#a"/><use fill="#002aff" height="100%" stroke="#002aff" transform="matrix(-.64122359 -.7673541 .7673541 -.64122359 9.612564 26.494355)" width="100%" xlink:href="#a"/><use fill="#0024ff" height="100%" stroke="#0024ff" transform="matrix(-.62212336 -.78291923 .78291923 -.62212336 9.231245 26.455469)" width="100%" xlink:href="#a"/><use fill="#001eff" height="100%" stroke="#001eff" transform="matrix(-.60264545 -.79800906 .79800906 -.60264545 8.851 26.4072)" width="100%" xlink:href="#a"/><use fill="#0018ff" height="100%" stroke="#0018ff" transform="matrix(-.58280168 -.81261443 .81261443 -.58280168 8.47206 26.349577)" width="100%" xlink:href="#a"/><use fill="#0012ff" height="100%" stroke="#0012ff" transform="matrix(-.56260409 -.82672646 .82672646 -.56260409 8.094654 26.282636)" width="100%" xlink:href="#a"/><use fill="#000cff" height="100%" stroke="#000cff" transform="matrix(-.54206495 -.84033659 .84033659 -.54206495 7.719012 26.206417)" width="100%" xlink:href="#a"/><use fill="#0006ff" height="100%" stroke="#0006ff" transform="matrix(-.52119673 -.85343656 .85343656 -.52119673 7.345362 26.120966)" width="100%" xlink:href="#a"/><use fill="#00f" height="100%" stroke="#00f" transform="matrix(-.50001209 -.86601842 .86601842 -.50001209 6.97393 26.026336)" width="100%" xlink:href="#a"/><use fill="#0600ff" height="100%" stroke="#0600ff" transform="matrix(-.4785239 -.87807453 .87807453 -.4785239 6.604943 25.922583)" width="100%" xlink:href="#a"/><use fill="#0c00ff" height="100%" stroke="#0c00ff" transform="matrix(-.4567452 -.88959756 .88959756 -.4567452 6.238624 25.80977)" width="100%" xlink:href="#a"/><use fill="#1200ff" height="100%" stroke="#1200ff" transform="matrix(-.43468922 -.90058053 .90058053 -.43468922 5.875196 25.687967)" width="100%" xlink:href="#a"/><use fill="#1800ff" height="100%" stroke="#1800ff" transform="matrix(-.41236934 -.91101676 .91101676 -.41236934 5.514878 25.557247)" width="100%" xlink:href="#a"/><use fill="#1e00ff" height="100%" stroke="#1e00ff" transform="matrix(-.38979911 -.92089992 .92089992 -.38979911 5.157891 25.417689)" width="100%" xlink:href="#a"/><use fill="#2400ff" height="100%" stroke="#2400ff" transform="matrix(-.36699224 -.930224 .930224 -.36699224 4.804451 25.269379)" width="100%" xlink:href="#a"/><use fill="#2a00ff" height="100%" stroke="#2a00ff" transform="matrix(-.34396257 -.93898336 .93898336 -.34396257 4.454771 25.112405)" width="100%" xlink:href="#a"/><use fill="#3000ff" height="100%" stroke="#3000ff" transform="matrix(-.32072408 -.94717267 .94717267 -.32072408 4.109066 24.946864)" width="100%" xlink:href="#a"/><use fill="#3600ff" height="100%" stroke="#3600ff" transform="matrix(-.29729089 -.95478695 .95478695 -.29729089 3.767543 24.772856)" width="100%" xlink:href="#a"/><use fill="#3c00ff" height="100%" stroke="#3c00ff" transform="matrix(-.27367721 -.9618216 .9618216 -.27367721 3.430412 24.590487)" width="100%" xlink:href="#a"/><use fill="#4200ff" height="100%" stroke="#4200ff" transform="matrix(-.24989738 -.96827233 .96827233 -.24989738 3.097876 24.399867)" width="100%" xlink:href="#a"/><use fill="#4800ff" height="100%" stroke="#4800ff" transform="matrix(-.22596585 -.97413522 .97413522 -.22596585 2.770137 24.201112)" width="100%" xlink:href="#a"/><use fill="#4e00ff" height="100%" stroke="#4e00ff" transform="matrix(-.20189713 -.97940673 .97940673 -.20189713 2.447394 23.994342)" width="100%" xlink:href="#a"/><use fill="#5400ff" height="100%" stroke="#5400ff" transform="matrix(-.17770584 -.98408365 .98408365 -.17770584 2.129844 23.779684)" width="100%" xlink:href="#a"/><use fill="#5a00ff" height="100%" stroke="#5a00ff" transform="matrix(-.15340667 -.98816314 .98816314 -.15340667 1.817679 23.557268)" width="100%" xlink:href="#a"/><use fill="#6000ff" height="100%" stroke="#6000ff" transform="matrix(-.12901437 -.99164272 .99164272 -.12901437 1.511088 23.327228)" width="100%" xlink:href="#a"/><use fill="#60f" height="100%" stroke="#60f" transform="matrix(-.10454374 -.99452029 .99452029 -.10454374 1.210258 23.089704)" width="100%" xlink:href="#a"/><use fill="#6c00ff" height="100%" stroke="#6c00ff" transform="matrix(-.08000964 -.99679409 .99679409 -.08000964 .915371 22.844841)" width="100%" xlink:href="#a"/><use fill="#7200ff" height="100%" stroke="#7200ff" transform="matrix(-.05542697 -.99846274 .99846274 -.05542697 .626607 22.592787)" width="100%" xlink:href="#a"/><use fill="#7800ff" height="100%" stroke="#7800ff" transform="matrix(-.03081066 -.99952524 .99952524 -.03081066 .34414 22.333695)" width="100%" xlink:href="#a"/><use fill="#7e00ff" height="100%" stroke="#7e00ff" transform="matrix(-.00617563 -.99998093 .99998093 -.00617563 .068142 22.067722)" width="100%" xlink:href="#a"/><use fill="#8400ff" height="100%" stroke="#8400ff" transform="matrix(.01846314 -.99982954 .99982954 .01846314 -.201219 21.79503)" width="100%" xlink:href="#a"/><use fill="#8a00ff" height="100%" stroke="#8a00ff" transform="matrix(.0430907 -.99907116 .99907116 .0430907 -.463781 21.515785)" width="100%" xlink:href="#a"/><use fill="#9000ff" height="100%" stroke="#9000ff" transform="matrix(.0676921 -.99770626 .99770626 .0676921 -.719382 21.230156)" width="100%" xlink:href="#a"/><use fill="#9600ff" height="100%" stroke="#9600ff" transform="matrix(.09225241 -.99573565 .99573565 .09225241 -.967869 20.938316)" width="100%" xlink:href="#a"/><use fill="#9c00ff" height="100%" stroke="#9c00ff" transform="matrix(.11675671 -.99316055 .99316055 .11675671 -1.20909 20.640442)" width="100%" xlink:href="#a"/><use fill="#a200ff" height="100%" stroke="#a200ff" transform="matrix(.14119013 -.9899825 .9899825 .14119013 -1.442899 20.336716)" width="100%" xlink:href="#a"/><use fill="#a800ff" height="100%" stroke="#a800ff" transform="matrix(.16553784 -.98620344 .98620344 .16553784 -1.669154 20.027322)" width="100%" xlink:href="#a"/><use fill="#ae00ff" height="100%" stroke="#ae00ff" transform="matrix(.18978505 -.98182566 .98182566 .18978505 -1.887718 19.712447)" width="100%" xlink:href="#a"/><use fill="#b400ff" height="100%" stroke="#b400ff" transform="matrix(.21391704 -.97685183 .97685183 .21391704 -2.098458 19.392283)" width="100%" xlink:href="#a"/><use fill="#ba00ff" height="100%" stroke="#ba00ff" transform="matrix(.23791916 -.97128496 .97128496 .23791916 -2.301245 19.067024)" width="100%" xlink:href="#a"/><use fill="#c000ff" height="100%" stroke="#c000ff" transform="matrix(.26177685 -.96512843 .96512843 .26177685 -2.495958 18.736867)" width="100%" xlink:href="#a"/><use fill="#c600ff" height="100%" stroke="#c600ff" transform="matrix(.28547561 -.95838598 .95838598 .28547561 -2.682477 18.402014)" width="100%" xlink:href="#a"/><use fill="#c0f" height="100%" stroke="#c0f" transform="matrix(.30900106 -.95106169 .95106169 .30900106 -2.86069 18.062667)" width="100%" xlink:href="#a"/><use fill="#d200ff" height="100%" stroke="#d200ff" transform="matrix(.33233892 -.94316003 .94316003 .33233892 -3.030488 17.719032)" width="100%" xlink:href="#a"/><use fill="#d800ff" height="100%" stroke="#d800ff" transform="matrix(.35547502 -.93468578 .93468578 .35547502 -3.191769 17.371318)" width="100%" xlink:href="#a"/><use fill="#de00ff" height="100%" stroke="#de00ff" transform="matrix(.37839531 -.92564409 .92564409 .37839531 -3.344433 17.019737)" width="100%" xlink:href="#a"/><use fill="#e400ff" height="100%" stroke="#e400ff" transform="matrix(.40108589 -.91604045 .91604045 .40108589 -3.48839 16.6645)" width="100%" xlink:href="#a"/><use fill="#e900ff" height="100%" stroke="#e900ff" transform="matrix(.42353296 -.90588069 .90588069 .42353296 -3.62355 16.305825)" width="100%" xlink:href="#a"/><use fill="#ef00ff" height="100%" stroke="#ef00ff" transform="matrix(.44572292 -.89517098 .89517098 .44572292 -3.749833 15.943929)" width="100%" xlink:href="#a"/><use fill="#f500ff" height="100%" stroke="#f500ff" transform="matrix(.46764227 -.88391781 .88391781 .46764227 -3.867161 15.579031)" width="100%" xlink:href="#a"/><use fill="#fb00ff" height="100%" stroke="#fb00ff" transform="matrix(.48927773 -.87212803 .87212803 .48927773 -3.975463 15.211353)" width="100%" xlink:href="#a"/><use fill="#ff00fd" height="100%" stroke="#ff00fd" transform="matrix(.51061615 -.85980878 .85980878 .51061615 -4.074674 14.841119)" width="100%" xlink:href="#a"/><use fill="#ff00f7" height="100%" stroke="#ff00f7" transform="matrix(.53164458 -.84696756 .84696756 .53164458 -4.164733 14.468553)" width="100%" xlink:href="#a"/><use fill="#ff00f1" height="100%" stroke="#ff00f1" transform="matrix(.55235025 -.83361214 .83361214 .55235025 -4.245586 14.093881)" width="100%" xlink:href="#a"/><use fill="#ff00eb" height="100%" stroke="#ff00eb" transform="matrix(.5727206 -.81975064 .81975064 .5727206 -4.317184 13.717331)" width="100%" xlink:href="#a"/><use fill="#ff00e5" height="100%" stroke="#ff00e5" transform="matrix(.59274325 -.80539148 .80539148 .59274325 -4.379482 13.339131)" width="100%" xlink:href="#a"/><use fill="#ff00df" height="100%" stroke="#ff00df" transform="matrix(.61240605 -.79054338 .79054338 .61240605 -4.432444 12.959511)" width="100%" xlink:href="#a"/><use fill="#ff00d9" height="100%" stroke="#ff00d9" transform="matrix(.63169706 -.77521534 .77521534 .63169706 -4.476036 12.578701)" width="100%" xlink:href="#a"/><use fill="#ff00d3" height="100%" stroke="#ff00d3" transform="matrix(.65060458 -.75941667 .75941667 .65060458 -4.510234 12.196933)" width="100%" xlink:href="#a"/><use fill="#ff00cd" height="100%" stroke="#ff00cd" transform="matrix(.66911712 -.74315697 .74315697 .66911712 -4.535015 11.814438)" width="100%" xlink:href="#a"/><use fill="#ff00c7" height="100%" stroke="#ff00c7" transform="matrix(.68722344 -.7264461 .7264461 .68722344 -4.550365 11.431449)" width="100%" xlink:href="#a"/><use fill="#ff00c1" height="100%" stroke="#ff00c1" transform="matrix(.70491256 -.70929422 .70929422 .70491256 -4.556275 11.048198)" width="100%" xlink:href="#a"/><use fill="#f0b" height="100%" stroke="#f0b" transform="matrix(.72217372 -.69171173 .69171173 .72217372 -4.55274 10.664918)" width="100%" xlink:href="#a"/><use fill="#ff00b5" height="100%" stroke="#ff00b5" transform="matrix(.73899647 -.6737093 .6737093 .73899647 -4.539763 10.281841)" width="100%" xlink:href="#a"/><use fill="#ff00af" height="100%" stroke="#ff00af" transform="matrix(.75537057 -.65529787 .65529787 .75537057 -4.517353 9.8992)" width="100%" xlink:href="#a"/><use fill="#ff00a9" height="100%" stroke="#ff00a9" transform="matrix(.7712861 -.63648862 .63648862 .7712861 -4.485522 9.517228)" width="100%" xlink:href="#a"/><use fill="#ff00a3" height="100%" stroke="#ff00a3" transform="matrix(.78673338 -.61729295 .61729295 .78673338 -4.44429 9.136155)" width="100%" xlink:href="#a"/><use fill="#ff009d" height="100%" stroke="#ff009d" transform="matrix(.80170304 -.59772254 .59772254 .80170304 -4.393681 8.756214)" width="100%" xlink:href="#a"/><use fill="#ff0097" height="100%" stroke="#ff0097" transform="matrix(.816186 -.57778925 .57778925 .816186 -4.333728 8.377636)" width="100%" xlink:href="#a"/><use fill="#ff0091" height="100%" stroke="#ff0091" transform="matrix(.83017345 -.55750519 .55750519 .83017345 -4.264465 8.000649)" width="100%" xlink:href="#a"/><use fill="#ff008b" height="100%" stroke="#ff008b" transform="matrix(.84365692 -.53688267 .53688267 .84365692 -4.185936 7.625483)" width="100%" xlink:href="#a"/><use fill="#ff0085" height="100%" stroke="#ff0085" transform="matrix(.8566282 -.51593422 .51593422 .8566282 -4.098187 7.252366)" width="100%" xlink:href="#a"/><use fill="#ff007f" height="100%" stroke="#ff007f" transform="matrix(.86907944 -.49467255 .49467255 .86907944 -4.001272 6.881524)" width="100%" xlink:href="#a"/><use fill="#ff0079" height="100%" stroke="#ff0079" transform="matrix(.88100306 -.47311056 .47311056 .88100306 -3.89525 6.513182)" width="100%" xlink:href="#a"/><use fill="#ff0073" height="100%" stroke="#ff0073" transform="matrix(.89239184 -.45126135 .45126135 .89239184 -3.780185 6.147565)" width="100%" xlink:href="#a"/><use fill="#ff006d" height="100%" stroke="#ff006d" transform="matrix(.90323885 -.42913819 .42913819 .90323885 -3.656147 5.784893)" width="100%" xlink:href="#a"/><use fill="#ff0067" height="100%" stroke="#ff0067" transform="matrix(.91353751 -.4067545 .4067545 .91353751 -3.523212 5.425387)" width="100%" xlink:href="#a"/><use fill="#ff0061" height="100%" stroke="#ff0061" transform="matrix(.92328157 -.38412387 .38412387 .92328157 -3.38146 5.069265)" width="100%" xlink:href="#a"/><use fill="#ff005b" height="100%" stroke="#ff005b" transform="matrix(.93246511 -.36126005 .36126005 .93246511 -3.230977 4.716744)" width="100%" xlink:href="#a"/><use fill="#f05" height="100%" stroke="#f05" transform="matrix(.94108256 -.3381769 .3381769 .94108256 -3.071854 4.368038)" width="100%" xlink:href="#a"/><use fill="#ff004f" height="100%" stroke="#ff004f" transform="matrix(.94912869 -.31488845 .31488845 .94912869 -2.904189 4.023357)" width="100%" xlink:href="#a"/><use fill="#ff0049" height="100%" stroke="#ff0049" transform="matrix(.9565986 -.29140884 .29140884 .9565986 -2.728082 3.682913)" width="100%" xlink:href="#a"/><use fill="#ff0043" height="100%" stroke="#ff0043" transform="matrix(.96348778 -.26775231 .26775231 .96348778 -2.543641 3.34691)" width="100%" xlink:href="#a"/><use fill="#ff003d" height="100%" stroke="#ff003d" transform="matrix(.96979203 -.24393323 .24393323 .96979203 -2.350978 3.015553)" width="100%" xlink:href="#a"/><use fill="#ff0037" height="100%" stroke="#ff0037" transform="matrix(.97550752 -.21996607 .21996607 .97550752 -2.15021 2.689044)" width="100%" xlink:href="#a"/><use fill="#ff0031" height="100%" stroke="#ff0031" transform="matrix(.9806308 -.19586536 .19586536 .9806308 -1.941458 2.36758)" width="100%" xlink:href="#a"/><use fill="#ff002b" height="100%" stroke="#ff002b" transform="matrix(.98515874 -.17164575 .17164575 .98515874 -1.724849 2.051357)" width="100%" xlink:href="#a"/><use fill="#ff0025" height="100%" stroke="#ff0025" transform="matrix(.9890886 -.14732193 .14732193 .9890886 -1.500516 1.740567)" width="100%" xlink:href="#a"/><use fill="#ff001f" height="100%" stroke="#ff001f" transform="matrix(.99241799 -.12290867 .12290867 .99241799 -1.268593 1.435398)" width="100%" xlink:href="#a"/><use fill="#ff0019" height="100%" stroke="#ff0019" transform="matrix(.99514489 -.09842079 .09842079 .99514489 -1.029222 1.136035)" width="100%" xlink:href="#a"/><use fill="#ff0013" height="100%" stroke="#ff0013" transform="matrix(.99726764 -.07387317 .07387317 .99726764 -.782549 .842661)" width="100%" xlink:href="#a"/><use fill="#ff000d" height="100%" stroke="#ff000d" transform="matrix(.99878497 -.0492807 .0492807 .99878497 -.528722 .555453)" width="100%" xlink:href="#a"/><use fill="#ff0007" height="100%" stroke="#ff0007" transform="matrix(.99969594 -.0246583 .0246583 .99969594 -.267897 .274586)" width="100%" xlink:href="#a"/></svg>