<?xml version="1.0" encoding="UTF-8" standalone="no"?><svg height="16" viewBox="0 0 4.2333332 4.2333332" width="16" xmlns="http://www.w3.org/2000/svg"><sodipodi:namedview/><metadata><rdf:RDF><cc:Work><dc:format>image/svg+xml</dc:format><dc:type/><dc:title/></cc:Work></rdf:RDF></metadata><path d="m8 1.6171875a8.2164112 8.2164112 0 0 0 -8 6.3769531 8.2164112 8.2164112 0 0 0 8 6.3886714 8.2164112 8.2164112 0 0 0 8-6.3769526 8.2164112 8.2164112 0 0 0 -8-6.3886719zm0 1.7382813a4.6436358 4.6436358 0 0 1 4.644531 4.6445312 4.6436358 4.6436358 0 0 1 -4.644531 4.644531 4.6436358 4.6436358 0 0 1 -4.6445312-4.644531 4.6436358 4.6436358 0 0 1 4.6445312-4.6445312zm2.251953 2.4609374a.88080672.88080672 0 0 0 -.8808592.8808594.88080672.88080672 0 0 0  .8808592.8808594.88080672.88080672 0 0 0  .880859-.8808594.88080672.88080672 0 0 0 -.880859-.8808594zm-4.5234374.2363282-1.4394531 2.6953125c.3793614 1.7529751 1.9310304 3.0055171 3.7246094 3.0078121 1.5525612.017197 3.1237971-1.259125 3.6015621-2.3828121l-1.177734-.0585938-1.8203125-1.8007812-1.3339844 1.1992187-1.5546875-2.6601562z" fill="#d0d0d0" transform="scale(.26458333)"/></svg>