<?xml version="1.0" encoding="UTF-8" standalone="no"?><svg height="16" viewBox="0 0 4.2333332 4.2333332" width="16" xmlns="http://www.w3.org/2000/svg"><sodipodi:namedview/><metadata><rdf:RDF><cc:Work><dc:format>image/svg+xml</dc:format><dc:type/><dc:title/></cc:Work></rdf:RDF></metadata><path d="m1.9257812 0c-1.0673586 0-1.9257812.8584226-1.9257812 1.9257812v12.1484378c0 1.067358.8584226 1.925781 1.9257812 1.925781h12.1484378c1.067358 0 1.925781-.858423 1.925781-1.925781v-12.1484378c0-1.0673586-.858423-1.9257812-1.925781-1.9257812zm4.3574219 2.4003906c.5915552.0016571 1.1814701.2283448 1.6347657.6816406.7757881.7757879.89082 1.9547477.34375 2.8496094l.0214843-.0214844c-.0088819.0089197-.0174158.0198481-.0253906.0292969-.0188674.0306671-.0381843.0598721-.0585937.0898438-.0783383.1621908-.0505744.3634881.0839843.4980469.1379437.1379376.345549.1639202.5097657.078125.001562-.0007888.0026136-.0016312.0039062-.0019532.098245-.0555628.2185452-.047076.2949219.0292969.0939326.0939099.0848517.254992-.0195313.359375l-.2617187.2617187 4.8769531 4.8789058-.052734 1.080079-.384766.386718-1.181641-.060547-.236328-.621093-.53125-.326172-.091797-.589844-.90625-.34375-.412109-.732422-.3339844-.009765-1.3085937-1.3105472-.2734375-.0234376-.1757813-.3632812-.4355469-.1796875-.1699218-.1699219-.2929688.2949219c-.1043867.1043565-.2654651.1134412-.359375.0195313-.0729071-.0729034-.0826233-.1857225-.0351562-.28125.0002207-.0020032.0014628-.0053058.0039062-.0097657.0909884-.1654522.0660093-.3773501-.0742187-.5175781-.1345591-.1345587-.335856-.1623226-.4980469-.0839844-.0299754.0204548-.059154.0397339-.0898438.0585938-.0017603.0014927-.0041133.0023908-.0058593.0039062-.8947979.5469997-2.073817.4320423-2.8496094-.34375-.8915251-.8915257-.9034385-2.3088262-.0546875-3.2285156l.0019531-.0019531c.0283465-.0283465.0283465-.0751692 0-.1035157-.0020712-.0020507-.003553-.0040799-.0058593-.0058593-.0618233-.0411402-.119021-.08846-.171875-.140625-.4535795-.4535793-.4535795-1.1889985 0-1.6425781.4535794-.4535797 1.1889992-.4535797 1.6425781 0 .0517908.0525154.0977358.1105128.1386719.171875l.0019531-.0019532c.0017764.0023207.0038071.0057408.0058593.0078125.0283465.0283616.0732161.0283616.1015626 0 .4542674-.4446645 1.0427652-.6657098 1.6308593-.6640625zm-2.6992187.8242188c-.1315381 0-.2648736.0500309-.3652344.1503906-.2007191.2007216-.2007182.5277925 0 .7285156.1295867.1292882.3191862.1798374.4960938.1328125.0599312-.0176919.1169867-.0451553.1679687-.0800781.022594-.0159987.0447618-.0333454.0644531-.0527344.2007194-.2007216.2007194-.5277917 0-.7285156-.100361-.1003595-.2317432-.1503907-.3632812-.1503906z" fill="#d0d0d0" transform="scale(.26458333)"/></svg>