<?xml version="1.0" encoding="UTF-8" standalone="no"?><svg height="22" viewBox="0 0 22 22" width="22" xmlns="http://www.w3.org/2000/svg"><sodipodi:namedview/><metadata><rdf:RDF><cc:Work><dc:format>image/svg+xml</dc:format><dc:type/><dc:title/></cc:Work></rdf:RDF></metadata><path d="m11.000526 0-1.7641868 3.0549128 1.2584878-.0000013-.000001 11.3645005-3.212125-3.040325c-.2073869-.258737-.3528747-.597275-.360937-.945525-.0000004-1.4087998-.0003625-.7454124-.0009751-1.0533624.5947121-.2087375 1.0239747-.7694512 1.0239749-1.4360249-.0000009-.8432615-.6842752-1.5276122-1.5278501-1.5276122-.8439373 0-1.5279747.6842869-1.5279749 1.5276122-.0000001.666575.4290255 1.2272862 1.0232502 1.4360249l-.0004253 1.0234504c.0000001.683912.375225 1.400548.8151122 1.856673-.013006-.01251-.027005-.02538.0002506.000739.01125.01 3.4076125 3.225675 3.4076125 3.225675.207088.2582.351663.59655.359976.944548l-.000001.516389c-1.1669128.234135-2.0460758 1.264599-2.0460748 2.500675 0 1.409286 1.142362 2.55165 2.5512258 2.551651 1.409286-.000002 2.551711-1.142365 2.551712-2.551651-.000001-1.236325-.879901-2.266776-2.047787-2.500912l-.000001-.485439c.00005-.0049.000247-.0088.000035-.01344l-.000008-2.588481c.0088-.347325.153616-.685261.360955-.9432 0 0 3.396499-3.2152994 3.407486-3.2252494.02729-.025713.0131-.013087.00025-.0002487.439844-.4561088.814815-1.173075.814814-1.8571124l-.000552-.9318628 1.024292-.0000012-.000004-3.0556979-3.055397-.0000018-.000002 3.0557015 1.022952-.0000001s-.0012-.8594881-.0012.961661c-.0075.3483-.153311.6872125-.3607.9458262l-3.212737 3.0409996.000001-8.7960004 1.260497.0000013z" fill="#d0d0d0" stroke-width=".061053"/></svg>