<?xml version="1.0" encoding="UTF-8" standalone="no"?><svg height="22" viewBox="0 0 22 22" width="22" xmlns="http://www.w3.org/2000/svg"><sodipodi:namedview/><metadata><rdf:RDF><cc:Work><dc:format>image/svg+xml</dc:format><dc:type/><dc:title/></cc:Work></rdf:RDF></metadata><path d="m11 .0000001c-6.075094.0000928-10.99990705 4.9249058-10.99999975 10.9999999.0000928 6.075094 4.92490625 10.999907 10.99999975 11 6.075094-.000093 10.999908-4.924906 11-11-.000092-6.0750937-4.924906-10.9999071-11-10.9999999zm-3.336339 4.0518809c1.0387996-.0002165 1.8809672.8419507 1.8807507 1.8807503-.0006874.1103605-.011069.2204468-.031054.3289845l2.8953993 1.6717786 2.8954 1.6709395c.33828-.284979.766195-.441584 1.208515-.442283 1.038799-.000217 1.880967.8419511 1.88075 1.8807511-.000247 1.038471-.842279 1.880128-1.88075 1.879911-.442897-.000303-.871472-.156932-1.210193-.442283l-2.893722 1.67094-2.8945596 1.671778c.019702.108563.029812.218649.030212.328984.0002171 1.0388-.8419506 1.880968-1.8807507 1.880752-1.0384723-.000248-1.8801289-.842279-1.8799119-1.880752.0005156-.79097.4959411-1.497064 1.2395666-1.766613v-3.342717-3.3435573c-.7436256-.2695486-1.2390653-.9756425-1.2395667-1.7666134-.0002166-1.0384717.84144-1.8805032 1.8799117-1.8807503zm1.2093537 3.318379c-.1688843.1422173-.3614959.2535798-.569009.3289847v3.3435573 3.344396c.2076892.07481.4005841.1856.5698482.327306l2.8945601-1.671779 2.89456-1.671778c-.01965-.108287-.02976-.21809-.03021-.328145.000687-.110361.01107-.220447.03105-.328985l-2.895397-1.6717781z" fill="#fff" stroke-width=".172819"/></svg>