<?xml version="1.0" encoding="UTF-8" standalone="no"?><svg height="16mm" viewBox="0 0 16 16" width="16mm" xmlns="http://www.w3.org/2000/svg"><sodipodi:namedview/><metadata><rdf:RDF><cc:Work><dc:format>image/svg+xml</dc:format><dc:type/><dc:title/></cc:Work></rdf:RDF></metadata><path d="m3.9997277-.00002845a3.9999994 3.9999994 0 0 0 -3.9997564 3.99975605 3.9999994 3.9999994 0 0 0  .00982.1860351 2.1818179 2.1818179 0 0 0 -.00982.177767 2.1818179 2.1818179 0 0 0  .2485637 1.0087238 3.9999994 3.9999994 0 0 0 3.7511927 2.627747 3.9999994 3.9999994 0 0 0 4.000272-4.0002729 3.9999994 3.9999994 0 0 0 -4.000272-3.99975605zm4.000272 3.99975605a3.9999994 3.9999994 0 0 0  .0098.1865519 2.1818179 2.1818179 0 0 0 -.0098.1772502 2.1818179 2.1818179 0 0 0  .248564 1.0087238 3.9999994 3.9999994 0 0 0 3.7511923 2.627747 3.9999994 3.9999994 0 0 0 4.000273-4.0002729 3.9999994 3.9999994 0 0 0 -4.000273-3.99975605 3.9999994 3.9999994 0 0 0 -3.9997563 3.99975605zm1.949752-1.6014528a1.5 1.5 0 0 1 1.5001673 1.4996501 1.5 1.5 0 0 1 -1.5001673 1.5001666 1.5 1.5 0 0 1 -1.500167-1.5001666 1.5 1.5 0 0 1 1.500167-1.4996501zm-8.2330893.0320394a1.5 1.5 0 0 1 1.5001673 1.5001669 1.5 1.5 0 0 1 -1.5001673 1.4996504 1.5 1.5 0 0 1 -1.49965-1.4996504 1.5 1.5 0 0 1 1.49965-1.5001669zm12.5274016 7.6563798c-1.516363.51853-3.814972.820429-6.2440643.821138-2.007272-.000709-3.946254-.208126-5.421891-.581876l-.487309.536918c.674908.20616 1.452366.36851 2.27273.49506v2.460315a2.1818179 2.1818179 0 0 0 2.181778 2.181779 2.1818179 2.1818179 0 0 0 1.818494-.978752 2.1818179 2.1818179 0 0 0 1.8179773.978752 2.1818179 2.1818179 0 0 0 2.18178-2.181779v-2.577103c.901818-.172341 1.723491-.400379 2.399853-.677479z" fill="#d0d0d0" stroke-width=".727273"/></svg>