<?xml version="1.0" encoding="UTF-8" standalone="no"?><svg height="16" viewBox="0 0 4.2333332 4.2333332" width="16" xmlns="http://www.w3.org/2000/svg"><sodipodi:namedview/><metadata><rdf:RDF><cc:Work><dc:format>image/svg+xml</dc:format><dc:type/><dc:title/></cc:Work></rdf:RDF></metadata><path d="m7.15625 2.890625c-2.2363768-.0150146-4.5306206 1.5371436-5.0175781 3.7832031-.3934123 1.6650063.495436 3.4061489 1.8554687 4.3593749-1.288906.812439-2.6484195 1.51479-4.0644531 2.078125 1.5596043-.435652 3.0680009-1.050014 4.4960937-1.8125 2.153079 1.270484 4.8117567 1.375946 7.2128908.894531 1.584437-.334321 3.104109-.981257 4.43164-1.910156-.0046-.920573-.009101-1.8411459-.013671-2.7617186-2.258689 2.4788176-5.660714 3.9689146-9.0273441 3.7187496-.5240179-.067701-1.4471091-.191819-1.6679688-.46875 1.385844-.8642234 2.8075079-1.7685389 3.8320313-3.0644528.7967376-1.0076772 1.1364806-2.5518112.3320312-3.6542968-.5369639-.7509571-1.4635794-1.1405829-2.3691406-1.1621094zm.1269531.9238281c.796181.0745822 1.5488874.673291 1.6757813 1.484375.1779851.9318036-.2882786 1.8573432-.9140625 2.5214844-.7980458.8697245-1.7461295 1.5844477-2.6953125 2.2792965-.2536502.099411-.4997472.539868-.7675782.341797-1.0044618-.6008245-1.7405948-1.7084516-1.7167968-2.9023435.0137552-1.2288892.7496281-2.3741258 1.7832031-3.0097656.774203-.4910884 1.7103903-.8082483 2.6347656-.7148438z" fill="#d0d0d0" transform="scale(.26458333)"/></svg>