<?xml version="1.0" encoding="UTF-8" standalone="no"?><svg height="16" viewBox="0 0 4.2333332 4.2333332" width="16" xmlns="http://www.w3.org/2000/svg"><sodipodi:namedview/><metadata><rdf:RDF><cc:Work><dc:format>image/svg+xml</dc:format><dc:type/><dc:title/></cc:Work></rdf:RDF></metadata><path d="m2.1166665-.00000005c-.8690138 0-1.57354726.82841633-1.57354729 1.85001625 0 1.0216 1.21800629 2.383317 1.57354729 2.383317s1.5735475-1.361717 1.5735475-2.383317c0-1.02159992-.7045336-1.85001625-1.5735475-1.85001625zm-.7790738 1.32136635c.265955-.0000537.5052578.2115706.5364013.4738728l.056327.4733562h-.4800737c-.2659551.0000534-.50525766-.2110545-.53640139-.4733562l-.0563273-.4733561zm1.5317928 0 .480074.0005159-.05581.4733561c-.0311443.2623017-.2704469.4734095-.5364018.4733561h-.4800742l.0563273-.4733553c.0312119-.2622941.2699295-.4739265.5358847-.4738728z" fill="#d0d0d0" stroke-width=".965"/></svg>