<?xml version="1.0" encoding="UTF-8" standalone="no"?><svg height="16" viewBox="0 0 4.2333333 4.2333333" width="16" xmlns="http://www.w3.org/2000/svg"><sodipodi:namedview/><metadata><rdf:RDF><cc:Work><dc:format>image/svg+xml</dc:format><dc:type/><dc:title/></cc:Work></rdf:RDF></metadata><path d="m11.636719 0-7.2734378.00195313c-2.4173587 0-4.3632812 1.94582697-4.3632812 4.36328127 0 .797091.21503628 1.5409132.5859375 2.1816406l-.00390625-.0019531.06054687.0957031c.04219163.0683641.08113316.1376711.12695313.203125l5.77539065 9.15625v-7.2734375h5.0917971c2.417358 0 4.363281-1.945827 4.363281-4.3632813 0-2.4174546-1.945923-4.3632812-4.363281-4.3632812zm0 1.4550781a2.9089757 2.9090908 0 0 1 2.908203 2.9101563 2.9089757 2.9090908 0 0 1 -2.908203 2.9082031 2.9089757 2.9090908 0 0 1 -2.9101565-2.9082031 2.9089757 2.9090908 0 0 1 2.9101565-2.9101563z" fill="#d0d0d0" stroke-width=".727258" transform="scale(.26458333)"/></svg>