<?xml version="1.0" encoding="UTF-8" standalone="no"?><svg height="16" viewBox="0 0 4.2333332 4.2333332" width="16" xmlns="http://www.w3.org/2000/svg"><sodipodi:namedview/><metadata><rdf:RDF><cc:Work><dc:format>image/svg+xml</dc:format><dc:type/><dc:title/></cc:Work></rdf:RDF></metadata><path d="m2.0917969 0c-1.15832695 0-2.0917969.93346995-2.0917969 2.0917969v11.8164061c0 1.158327.93346995 2.091797 2.0917969 2.091797h11.8164061c1.158327 0 2.091797-.93347 2.091797-2.091797v-11.8164061c0-1.15832695-.93347-2.0917969-2.091797-2.0917969zm3.7421875 1.3027344h1.7675781c.175324.3708975.4247934.815022.7480469 1.3320312.3232532.5113894.6135867.9191944.8710937 1.2226563v.2109375h-.9941406c-.4109153-.3371799-.8643235-.7727724-1.3574219-1.3066406-.4876195-.5394877-.832438-.9665486-1.0351562-1.28125zm2.5898437 3.8183594c1.0902952-.0000001 1.9001899.2476569 2.4316409.7421874.53145.4945303.796875 1.2803993.796875 2.359375v6.3066408h-1.076172l-.28711-1.316406h-.066406c-.4492672.578825-.8983883.973713-1.347656 1.18164-.4437884.202308-1.0042136.302735-1.6835938.302735-.8875769 0-1.5838344-.239126-2.0878906-.716797-.5040559-.477672-.7558593-1.15239-.7558594-2.023438 0-1.876967 1.4427133-2.8593035 4.3300782-2.9492185l1.5292966-.0585937v-.5488282c0-.7024579-.1475-1.2192212-.4433591-1.5507812-.2958594-.3371798-.7698896-.5058594-1.421875-.5058594-.4766617 0-.9300699.0726385-1.3574219.21875-.4218731.146111-.8188431.3084523-1.1914062.4882812l-.4511719-1.1367187c.4547462-.2472643.9493986-.4415386 1.4863281-.5820313.536929-.1404926 1.0697312-.2109375 1.5957031-.2109374zm1.7656249 4.8808592-1.330078.058594c-1.0355067.03934-1.7928696.208019-2.2695312.505859-.4711829.297843-.7070313.767562-.7070313 1.408203 0 .483292.1428331.854777.4277344 1.113282.2903801.258504.696304.386717 1.2167969.386718.8273093 0 1.4760827-.226448 1.9472656-.68164.4766617-.460813.7148436-1.114082.7148436-1.957031z" fill="#d0d0d0" stroke-width="3.647244" transform="scale(.26458333)"/></svg>