<?xml version="1.0" encoding="UTF-8" standalone="no"?><svg height="22" viewBox="0 0 5.8208332 5.8208335" width="22" xmlns="http://www.w3.org/2000/svg"><sodipodi:namedview/><metadata><rdf:RDF><cc:Work><dc:format>image/svg+xml</dc:format><dc:type/><dc:title/></cc:Work></rdf:RDF></metadata><path d="m11.853516 0-9.1171879 7.3339844h-2.7363281v7.3320316h2.7363281l9.1171879 7.333984z" fill="#fff" transform="scale(.26458333)"/><path d="m14.634766 1.9335938v2.0957031c3.148608 1.1346209 5.314453 3.784781 5.314453 6.8164061 0 3.031624-2.165845 5.681785-5.314453 6.816406v2.097657c4.242689-1.238502 7.365235-4.719506 7.365234-8.914063 0-4.1945384-3.122575-7.6735927-7.365234-8.9121092zm-.041016 4.1914062-.0059 2.2578125c.77793.5416913 1.291015 1.4297332 1.291015 2.4570315.000001 1.027295-.51308 1.913387-1.291015 2.455078l.0059 2.273437c1.904652-.75242 3.257813-2.589718 3.257812-4.722656 0-2.1330161-1.353055-3.9683344-3.257812-4.720703z" fill="#fff" opacity=".3" transform="scale(.26458333)"/></svg>