<?xml version="1.0" encoding="UTF-8" standalone="no"?><svg height="16mm" viewBox="0 0 16 16" width="16mm" xmlns="http://www.w3.org/2000/svg"><sodipodi:namedview/><metadata><rdf:RDF><cc:Work><dc:format>image/svg+xml</dc:format><dc:type/><dc:title/></cc:Work></rdf:RDF></metadata><path d="m1.1265462 1.9765951c-.62405973 0-1.1265462.5024864-1.1265462 1.1265462v8.5245437c0 .62406.50248647 1.126547 1.1265462 1.126547h3.7718628v1.046964c0 .12301.098687.222209.2216917.222209h5.7593383c.123 0 .222209-.0992.222209-.222209v-1.046964h3.771863c.624059 0 1.126546-.502487 1.126546-1.126547v-8.5245437c0-.6240598-.502487-1.1265462-1.126546-1.1265462zm4.4043823 2.5378297 4.9381995 2.8509885-4.9381995 2.8509887zm9.1343255 6.1598302c.346744.000009.62786.281126.627869.627869.000173.346871-.280997.628377-.627869.628385-.346871-.000008-.62804-.281514-.627868-.628385.000008-.346743.281125-.62786.627868-.627869z" fill="#d0d0d0" stroke-width=".264583"/></svg>