<?xml version="1.0" encoding="UTF-8" standalone="no"?><svg height="16" viewBox="0 0 4.2333333 4.2333333" width="16" xmlns="http://www.w3.org/2000/svg"><sodipodi:namedview/><metadata><rdf:RDF><cc:Work><dc:format>image/svg+xml</dc:format><dc:type/><dc:title/></cc:Work></rdf:RDF></metadata><path d="m-.00000002 1.190625h4.23333332v1.8520833h-1.0583333-2.1166666-1.05833342zm.26458333.2645833v.2645834h.52916669v-.2645834zm.79375009 0v .2645834h.5291666v-.2645834zm.7937499 0v .2645834h.5291668v-.2645834zm.79375 0v .2645834h.5291667v-.2645834zm.79375 0v .2645834h.5291667v-.2645834zm-3.17499999.5291668v.2645833h.52916669v-.2645833zm.79375009 0v .2645833h.5291666v-.2645833zm.7937499 0v .2645833h.5291668v-.2645833zm.79375 0v .2645833h.5291667v-.2645833zm.79375 0v .2645833h.5291667v-.2645833zm-3.17499999.5291666v.2645833h.52916669v-.2645833zm.79375009 0v .2645833h2.1166666v-.2645833zm2.3812499 0v .2645833h.5291667v-.2645833z" fill="#d0d0d0"/></svg>