<?xml version="1.0" encoding="UTF-8" standalone="no"?><svg height="16" viewBox="0 0 4.2333332 4.2333332" width="16" xmlns="http://www.w3.org/2000/svg"><sodipodi:namedview/><metadata><rdf:RDF><cc:Work><dc:format>image/svg+xml</dc:format><dc:type/><dc:title/></cc:Work></rdf:RDF></metadata><path d="m8 0a8 8 0 0 0 -8 8 8 8 0 0 0 8 8 8 8 0 0 0 8-8 8 8 0 0 0 -8-8zm0 3.1601562a4.8394611 4.8394611 0 0 1 4.839844 4.8398438 4.8394611 4.8394611 0 0 1 -4.839844 4.839844 4.8394611 4.8394611 0 0 1 -4.8398438-4.839844 4.8394611 4.8394611 0 0 1 4.8398438-4.8398438z" fill="#d0d0d0" stroke-linecap="round" stroke-miterlimit="26.700001" stroke-width="2" transform="scale(.26458333)"/><path d="m2.856185 2.1166666-1.2144538.7011652v-1.4023304z" fill="#d0d0d0" stroke-linecap="round" stroke-miterlimit="26.700001" stroke-width=".529167"/></svg>