<?xml version="1.0" encoding="UTF-8" standalone="no"?>
<svg
   xmlns:dc="http://purl.org/dc/elements/1.1/"
   xmlns:cc="http://creativecommons.org/ns#"
   xmlns:rdf="http://www.w3.org/1999/02/22-rdf-syntax-ns#"
   xmlns:svg="http://www.w3.org/2000/svg"
   xmlns="http://www.w3.org/2000/svg"
   xmlns:sodipodi="http://sodipodi.sourceforge.net/DTD/sodipodi-0.dtd"
   xmlns:inkscape="http://www.inkscape.org/namespaces/inkscape"
   viewBox="0 0 16 16"
   version="1.1"
   id="svg6"
   sodipodi:docname="glyph-stroke-style.svg"
   inkscape:version="0.92+devel (1c31310676, 2017-09-09, custom)">
  <metadata
     id="metadata10">
    <rdf:RDF>
      <cc:Work
         rdf:about="">
        <dc:format>image/svg+xml</dc:format>
        <dc:type
           rdf:resource="http://purl.org/dc/dcmitype/StillImage" />
        <dc:title></dc:title>
      </cc:Work>
    </rdf:RDF>
  </metadata>
  <sodipodi:namedview
     pagecolor="#002466"
     bordercolor="#ffffff"
     inkscape:document-rotation="0"
     borderopacity="0.29411765"
     objecttolerance="10"
     gridtolerance="10"
     guidetolerance="10"
     inkscape:pageopacity="0"
     inkscape:pageshadow="2"
     inkscape:window-width="1920"
     inkscape:window-height="1027"
     id="namedview8"
     showgrid="false"
     inkscape:zoom="45.9375"
     inkscape:cx="7.847619"
     inkscape:cy="8"
     inkscape:window-x="0"
     inkscape:window-y="24"
     inkscape:window-maximized="1"
     inkscape:current-layer="svg6"
     borderlayer="true"
     inkscape:showpageshadow="false" />
  <defs
     id="defs3051">
    <style
       type="text/css"
       id="current-color-scheme">
      .ColorScheme-Text {
        color:#f2f2f2;
      }
      </style>
  </defs>
  <path
     style="fill:#d0d0d0;fill-opacity:1;stroke:none;stroke-width:1"
     d="M 4.6e-7,-2.4999999e-8 V 2.6666666 H 16 V -2.5e-8 Z m 0,5.333333225 V 7.9999998 H 2.9090913 V 5.3333332 Z m 4.36363634,0 V 7.9999998 H 7.2727276 V 5.3333332 Z m 4.3636363,0 V 7.9999998 H 11.636364 V 5.3333332 Z m 4.3636369,0 V 7.9999998 H 16 V 5.3333332 Z M 4.6e-7,10.666666 V 12 H 16 v -1.333334 z m 0,4 V 16 H 1.4545459 v -1.333334 z m 2.90909084,0 V 16 h 1.4545455 v -1.333334 z m 2.9090909,0 V 16 h 1.4545454 v -1.333334 z m 2.9090909,0 V 16 h 1.4545459 v -1.333334 z m 2.9090909,0 V 16 h 1.454546 v -1.333334 z m 2.909091,0 V 16 H 16 v -1.333334 z"
     class="ColorScheme-Text"
     id="path4"
     inkscape:connector-curvature="0" />
</svg>
