<?xml version="1.0" encoding="UTF-8" standalone="no"?>
<!-- Created with Inkscape (http://www.inkscape.org/) -->

<svg
   xmlns:dc="http://purl.org/dc/elements/1.1/"
   xmlns:cc="http://creativecommons.org/ns#"
   xmlns:rdf="http://www.w3.org/1999/02/22-rdf-syntax-ns#"
   xmlns:svg="http://www.w3.org/2000/svg"
   xmlns="http://www.w3.org/2000/svg"
   xmlns:sodipodi="http://sodipodi.sourceforge.net/DTD/sodipodi-0.dtd"
   xmlns:inkscape="http://www.inkscape.org/namespaces/inkscape"
   width="16"
   height="16"
   viewBox="0 0 4.2333332 4.2333332"
   version="1.1"
   id="svg8"
   inkscape:version="0.92+devel (4546dc857e, 2017-07-25, custom)"
   sodipodi:docname="glyph-gear-8.svg">
  <defs
     id="defs2" />
  <sodipodi:namedview
     id="base"
     pagecolor="#002466"
     bordercolor="#ffffff"
     borderopacity="0.38039216"
     inkscape:pageopacity="1"
     inkscape:pageshadow="2"
     inkscape:zoom="36.415999"
     inkscape:cx="7.7467119"
     inkscape:cy="7.9162778"
     inkscape:document-units="px"
     inkscape:current-layer="svg8"
     inkscape:document-rotation="0"
     showgrid="false"
     inkscape:showpageshadow="false"
     borderlayer="true"
     inkscape:window-width="1920"
     inkscape:window-height="1051"
     inkscape:window-x="0"
     inkscape:window-y="0"
     inkscape:window-maximized="1"
     units="px"
     inkscape:snap-object-midpoints="true"
     inkscape:snap-center="true" />
  <metadata
     id="metadata5">
    <rdf:RDF>
      <cc:Work
         rdf:about="">
        <dc:format>image/svg+xml</dc:format>
        <dc:type
           rdf:resource="http://purl.org/dc/dcmitype/StillImage" />
        <dc:title></dc:title>
      </cc:Work>
    </rdf:RDF>
  </metadata>
  <path
     style="fill:#d0d0d0;stroke-width:3.64724422"
     d="M 6.5546875 0 L 6.2617188 1.6484375 A 6.5855519 6.5855519 0 0 0 4.7441406 2.2851562 C 4.2533719 1.9380439 3.9027725 1.684875 3.3652344 1.3203125 L 1.3203125 3.3652344 L 2.2832031 4.7402344 A 6.5855519 6.5855519 0 0 0 1.65625 6.2617188 C 1.0638312 6.3636818 0.63747401 6.4324534 0 6.5546875 L 0 9.4453125 L 1.6484375 9.7382812 A 6.5855519 6.5855519 0 0 0 2.2851562 11.255859 C 1.9380439 11.746628 1.684875 12.097227 1.3203125 12.634766 L 3.3652344 14.679688 L 4.7402344 13.716797 A 6.5855519 6.5855519 0 0 0 6.2617188 14.34375 C 6.3636818 14.936169 6.4324534 15.362526 6.5546875 16 L 9.4453125 16 L 9.7382812 14.351562 A 6.5855519 6.5855519 0 0 0 11.255859 13.714844 C 11.746628 14.061956 12.097227 14.315124 12.634766 14.679688 L 14.679688 12.634766 L 13.716797 11.259766 A 6.5855519 6.5855519 0 0 0 14.34375 9.7382812 C 14.936169 9.6363182 15.362526 9.5675466 16 9.4453125 L 16 6.5546875 L 14.351562 6.2617188 A 6.5855519 6.5855519 0 0 0 13.714844 4.7441406 C 14.061956 4.2533719 14.315124 3.9027725 14.679688 3.3652344 L 12.634766 1.3203125 L 11.259766 2.2832031 A 6.5855519 6.5855519 0 0 0 9.7382812 1.65625 C 9.6363182 1.0638312 9.5675466 0.63747401 9.4453125 0 L 6.5546875 0 z M 8 4.8769531 A 3.1223203 3.1223203 0 0 1 11.123047 8 A 3.1223203 3.1223203 0 0 1 8 11.123047 A 3.1223203 3.1223203 0 0 1 4.8769531 8 A 3.1223203 3.1223203 0 0 1 8 4.8769531 z "
     transform="scale(0.26458333)"
     id="path811"
     inkscape:label="#" />
</svg>
