<?xml version="1.0" encoding="UTF-8" standalone="no"?><svg height="16" viewBox="0 0 4.2333332 4.2333332" width="16" xmlns="http://www.w3.org/2000/svg"><sodipodi:namedview/><metadata><rdf:RDF><cc:Work><dc:format>image/svg+xml</dc:format><dc:type/><dc:title/></cc:Work></rdf:RDF></metadata><path d="m3.8401457.48155598c-.1117303 0-.2051627.028579-.2796495.0855728-.074487.0569936-.1184463.15097053-.1325536.2818866l.2365831.0234904c.00451-.0694078.021553-.11886562.050896-.14877342s.068913-.0447439.1185712-.0447439c.050222 0 .089239.0142867.1174528.0430661.02878.0282143.043626.0688831.043626.12192712 0 .0479649-.016489.0963242-.049218.14541767-.0242654.03555055-.090217.10314515-.1974331.20302535-.133173.1235804-.2222009.2230553-.2673449.2981063-.0451437.0744868-.0720696.1536273-.0810983.2371428h.8333555v-.2209231h-.4720483c.012415-.021443.02835-.043425.0481-.065997.020315-.022572.068129-.068184.1431805-.1370283.075051-.068843.1267056-.1216027.1554852-.1582815.04345-.055301.075331-.1080589.095081-.15828159.020315-.0507863.030202-.10409434.030202-.15995942 0-.0981871-.034617-.18062847-.1045889-.24665078-.0699727-.06602238-.1661467-.09899591-.2885987-.09899613zm-2.2824986.49050509-1.01624591.17450123-.02013478.1107411c.0756788-.015524.13944578-.023491.19183948-.023491.1009058 0 .184589.044113.250566.1314352.10478701.1358351.25052491.54915.43681231 1.239966-.145537.1959898-.2454504.3240831-.2997842.3842384-.089262.097025-.16326741.1599366-.22148241.1890429-.044631.023286-.095295.034677-.1515699.034677-.042691 0-.112153-.023341-.20917779-.069913-.0659764-.031048-.1254632-.046421-.17785701-.046421-.0989651 0-.18037716.032163-.24441358.096199-.0640365.064036-.0961994.1454485-.0961994.2444137 0 .093144.0304509.1688599.0906064.2270754.0582148.058215.1373556.08725.23826131.08725.0970243 0 .18867421-.020213.27405647-.060963.085381-.04075.1918462-.1270016.3199187-.258955.13001331-.1338941.30877061-.3456707.53580841-.6348043.087322.27555.1630392.4762326.2270754.6023646.064036.124192.1366264.214428.2181267.2707009.083442.054334.1873377.081658.3115294.081658.1203106 0 .2427084-.043554.3668999-.1308758.1630016-.1125498.3298087-.3066805.5005723-.5822311l-.105148-.0609637c-.1164298.1630015-.2026811.2646268-.2589554.3053771-.03687.025227-.080424.038032-.1308759.038032-.060155 0-.1190825-.037858-.1772978-.1135379-.0989651-.1280719-.2310414-.4833152-.3959835-1.0654638.1474776-.2600261.2715873-.4299609.372493-.509521.073739-.058214.151168-.08725.2326683-.08725.031048 0 .086552.01195.1661118.035236.081501.021345.1532343.031881.21533.031881.085381 0 .1562586-.029036.2125337-.08725.058215-.060156.08725-.1367281.08725-.2298717 0-.098965-.029035-.1778096-.08725-.2360242-.056275-.058214-.1376866-.0872504-.2444137-.0872504-.095084 0-.1853185.02334-.2707008.0699129-.0834411.0446282-.190465.1428294-.3204781.294188-.0970247.1125487-.2404916.3092479-.43066.5906194-.0756793-.3473483-.2054844-.6655893-.3898314-.95472293z" fill="#d0d0d0" stroke-width=".264583"/></svg>