<?xml version="1.0" encoding="UTF-8" standalone="no"?>
<!-- Created with Inkscape (http://www.inkscape.org/) -->

<svg
   xmlns:dc="http://purl.org/dc/elements/1.1/"
   xmlns:cc="http://creativecommons.org/ns#"
   xmlns:rdf="http://www.w3.org/1999/02/22-rdf-syntax-ns#"
   xmlns:svg="http://www.w3.org/2000/svg"
   xmlns="http://www.w3.org/2000/svg"
   xmlns:sodipodi="http://sodipodi.sourceforge.net/DTD/sodipodi-0.dtd"
   xmlns:inkscape="http://www.inkscape.org/namespaces/inkscape"
   width="16"
   height="16"
   viewBox="0 0 4.2333332 4.2333332"
   version="1.1"
   id="svg8"
   inkscape:version="0.92+devel (d0390b9f4f, 2017-07-31, custom)"
   sodipodi:docname="glyph-pineapple.svg">
  <defs
     id="defs2" />
  <sodipodi:namedview
     id="base"
     pagecolor="#002466"
     bordercolor="#ffffff"
     borderopacity="0.38039216"
     inkscape:pageopacity="1"
     inkscape:pageshadow="2"
     inkscape:zoom="36.415999"
     inkscape:cx="10.094581"
     inkscape:cy="7.9162778"
     inkscape:document-units="px"
     inkscape:current-layer="svg8"
     inkscape:document-rotation="0"
     showgrid="false"
     inkscape:showpageshadow="false"
     borderlayer="true"
     inkscape:window-width="1920"
     inkscape:window-height="1051"
     inkscape:window-x="0"
     inkscape:window-y="0"
     inkscape:window-maximized="1"
     units="px" />
  <metadata
     id="metadata5">
    <rdf:RDF>
      <cc:Work
         rdf:about="">
        <dc:format>image/svg+xml</dc:format>
        <dc:type
           rdf:resource="http://purl.org/dc/dcmitype/StillImage" />
        <dc:title></dc:title>
      </cc:Work>
    </rdf:RDF>
  </metadata>
  <path
     style="fill:#d0d0d0;stroke:none;stroke-width:0.26458332px;stroke-linecap:butt;stroke-linejoin:miter;stroke-opacity:1"
     d="m 2.1112716,-1e-7 c 0,0 -0.1909612,0.31833441 -0.2044645,0.71805364 C 1.7968138,0.55154378 1.6306591,0.38952474 1.376494,0.2956373 1.540761,0.46511693 1.6671775,0.69726652 1.7120532,0.96459786 1.5744247,0.8886675 1.4067133,0.82766333 1.2092539,0.82271348 1.1281899,0.82067775 1.0424828,0.82782891 0.95245945,0.84699028 1.2634381,0.92226838 1.5293948,1.1696565 1.7061189,1.5240431 1.2983211,1.7304932 1.0286522,2.2513664 1.0285266,2.832832 1.028499,3.6064536 1.303296,4.2333333 2.079442,4.2333333 c 0.9198399,0 1.0504037,-0.6271606 1.0503761,-1.4005013 C 3.1294571,2.281698 2.8866221,1.7820913 2.5094111,1.5564122 2.6859528,1.1838353 2.9600834,0.92464342 3.2808737,0.8469903 2.9705393,0.78095275 2.7156257,0.85853101 2.5212797,0.96621632 2.5657577,0.69822092 2.6917108,0.46544865 2.8562994,0.2956373 2.5947873,0.39223872 2.425967,0.56050668 2.3162757,0.73208012 2.3069416,0.32570147 2.1112716,-1e-7 2.1112716,-1e-7 Z"
     id="path815"
     inkscape:connector-curvature="0"
     sodipodi:nodetypes="cccccccccccccccc"
     inkscape:label="#" />
</svg>
