<?xml version="1.0" encoding="UTF-8" standalone="no"?><svg height="22" viewBox="0 0 22 22" width="22" xmlns="http://www.w3.org/2000/svg"><sodipodi:namedview/><metadata><rdf:RDF><cc:Work><dc:format>image/svg+xml</dc:format><dc:type/><dc:title/></cc:Work></rdf:RDF></metadata><path d="m1.375 0c-.76175 0-1.375.61325-1.375 1.375v19.25c0 .76175.61325 1.375 1.375 1.375h19.25c.76175 0 1.375-.61325 1.375-1.375v-19.25c0-.76175-.61325-1.375-1.375-1.375zm9.625 5.1669922c4.913894-.000001 8.897217 5.8330078 8.897217 5.8330078s-3.983322 5.833009-8.897217 5.833009c-4.9138943 0-8.8972168-5.833009-8.8972168-5.833009s3.9833202-5.8330095 8.8972168-5.8330078zm0 1.7509765a4.0826457 4.0826457 0 0 0 -4.0820313 4.0820313 4.0826457 4.0826457 0 0 0 4.0820313 4.082031 4.0826457 4.0826457 0 0 0 4.082031-4.082031 4.0826457 4.0826457 0 0 0 -4.082031-4.0820313z" fill="#d0d0d0" opacity=".99" stroke-dasharray="1.990117 1.990117" stroke-width="1.990117"/></svg>