<?xml version="1.0" encoding="UTF-8" standalone="no"?><svg height="16" viewBox="0 0 4.2333332 4.2333332" width="16" xmlns="http://www.w3.org/2000/svg"><sodipodi:namedview/><metadata><rdf:RDF><cc:Work><dc:format>image/svg+xml</dc:format><dc:type/><dc:title/></cc:Work></rdf:RDF></metadata><path d="m1.7286269.16500928c-.06285.00773-.125127.017892-.1868901.03029-1.20541693.2346288-1.84188413 1.55182262-1.40247913 2.48195552.5888364 1.2464475 2.17525493 1.7353327 3.85213113 1.1972493.4942522-.1749335.1323932-.7533567-.2087787-.6388964-.3411749.1144362-.5557552-.4394827-.1833355-.5603706.3724324-.1208539.6333926-.6418135.4295124-1.2709906-.3305223-1.01996262-1.3579944-1.35905062-2.3001052-1.23886282zm.1153322.3264713a.26706293.21957797 81.67658 0 1  .2558132.2324797.26706293.21957797 81.67658 0 1 -.1784927.29602072.26706293.21957797 81.67658 0 1 -.255813-.23247972.26706293.21957797 81.67658 0 1  .1784925-.2960207zm1.0342248.1766205a.21957797.26706293 38.050545 0 1  .1429814.038555.21957797.26706293 38.050545 0 1  .00836.34579762.21957797.26706293 38.050545 0 1 -.3375562.074743.21957797.26706293 38.050545 0 1 -.00831-.34544272.21957797.26706293 38.050545 0 1  .1945235-.1136533zm-1.98757303.2999736a.26706293.21957797 34.922278 0 1  .21230043.053034.26706293.21957797 34.922278 0 1  .093155.3330203.26706293.21957797 34.922278 0 1 -.34456003.026887.26706293.21957797 34.922278 0 1 -.093103-.3326703.26706293.21957797 34.922278 0 1  .1321999-.080315zm-.2263152.89534062a.21957797.26706293 81.315235 0 1  .2972481.1768442.21957797.26706293 81.315235 0 1 -.2307795.2574023.21957797.26706293 81.315235 0 1 -.2972487-.1768492.21957797.26706293 81.315235 0 1  .2307801-.2573973zm2.76942323-.3724947a.21957797.26706296 81.341277 0 1  .2968885.1768979.21957797.26706296 81.341277 0 1 -.2307799.2574021.21957797.26706296 81.341277 0 1 -.2972474-.1768442.21957797.26706296 81.341277 0 1  .2311388-.2574558z" fill="#d0d0d0" shape-rendering="crispEdges"/></svg>