<?xml version="1.0" encoding="UTF-8" standalone="no"?><svg height="22" viewBox="0 0 5.8208332 5.8208335" width="22" xmlns="http://www.w3.org/2000/svg"><sodipodi:namedview/><metadata><rdf:RDF><cc:Work><dc:format>image/svg+xml</dc:format><dc:type/><dc:title/></cc:Work></rdf:RDF></metadata><path d="m2.024446 1.6401762c-.5713841 0-1.05398846.3863515-1.21180069.9085748h-.4454663c-.20329496 0-.3671789.1633329-.3671789.3666278s.16388395.3671788.36717891.3671788h.44932551c.16176111.5163787.64110587.8980995 1.20794147.8980995h1.7901348c.5694285 0 1.0489274-.3852684 1.2079414-.9052668h.4311321c.2032949 0 .3671789-.1633326.3671789-.3666275s-.163884-.3671788-.3671789-.3671788h-.4316833c-.1596176-.5185139-.6386586-.9014078-1.2073902-.9014078zm0 .7338066h1.7901348c.1583166 0 .2959082.064111.3925396.1676012h-.7861818c-.2032949 0-.3660763.1638839-.3660763.3671788s.1627814.3666275.3660763.3666275h.7883873c-.096723.1055307-.2351468.1714604-.3947451.1714604h-1.7901348c-.156231 0-.2933457-.062684-.3903344-.1642931h.7095484c.2032951 0 .3666276-.1638839.3666276-.3671788s-.1633325-.3666278-.3666276-.3666278h-.7189209c.0973986-.1075434.2379289-.1747682.3997069-.1747682z" fill="#d0d0d0"/></svg>