<?xml version="1.0" encoding="UTF-8" standalone="no"?><svg height="16" viewBox="0 0 4.2333333 4.2333333" width="16" xmlns="http://www.w3.org/2000/svg"><sodipodi:namedview/><metadata><rdf:RDF><cc:Work><dc:format>image/svg+xml</dc:format><dc:type/><dc:title/></cc:Work></rdf:RDF></metadata><path d="m .06405473.5966474c-.0354529-.00000024-.0640548.0286018-.0640548.0640547v2.3797487l.3374313.3288525h3.83127517c.035454 0 .064627-.028602.064627-.064055v-.3585919a.46635433.46635433 0 0 1 -.1166714-.3071196.46635433.46635433 0 0 1  .1160991-.3071198v-1.67171485c0-.035454-.0286-.0640547-.064055-.0640547zm.82413314.7978249h.55533183c.015721 0 .028596.012303.028596.028024v1.1209583c0 .015721-.012875.028024-.028596.028024h-.55533183c-.01572 0-.027452-.012303-.027452-.028024v-1.1209584c0-.015721.011731-.028024.027452-.028024zm.95052683 0h .55476c.01572 0 .028596.012303.028596.028024v1.1209583c0 .015721-.012876.028024-.028596.028024h-.55476c-.01572 0-.028024-.012303-.028024-.028024v-1.1209584c0-.015721.012303-.028024.028024-.028024zm.9505269 0h .5547598c.015721 0 .028596.012303.028596.028024v1.1209583c.0000003.015721-.012875.028024-.028596.028024h-.5547598c-.01572 0-.028024-.012303-.028024-.028024v-1.1209584c0-.015721.012303-.028024.028024-.028024z" fill="#d0d0d0" stroke-linejoin="round" stroke-width=".234257"/></svg>