<?xml version="1.0" encoding="UTF-8" standalone="no"?><svg height="16" viewBox="0 0 4.2333332 4.2333332" width="16" xmlns="http://www.w3.org/2000/svg"><sodipodi:namedview/><metadata><rdf:RDF><cc:Work><dc:format>image/svg+xml</dc:format><dc:type/><dc:title/></cc:Work></rdf:RDF></metadata><path d="m1.4993056 0v .7055555c-.086729.00353-.2459261 0-.3290066 0h-.55293788v.3527777s.30318353-.00529.2983452 0c .16232328-.00247.21401508.1153738.23082138.1939589v1.7463189c-.00622.049663-.0009333.1728611-.1143772.1763888.00524.00459-.41478938 0-.41478938 0v .3527778h.57395278c.09705-.00353.2142377 0 .3079916 0v .7055556l.3527778-.00655v-.6990056h.3472656l.011024.7055556h.352778l-.0110242-.7055556c1.0638454 0 1.0638454-.5291666 1.0638454-.7940944 0-.2642389-.1118709-.6166796-.5291666-.6170166.2409068.0003351.3527778-.3980224.3527778-.7055556 0-.39804-.3527778-.7055555-.8819444-.7055555v-.7055555h-.3527778v.7055555c-.1053477 0-.2458257-.00388-.3527777 0v-.7055555zm.3527778 1.0583332c.3527777 0 .8820055.0000068.8819443.4409723.0000612.4410009-.5291666.4409722-.8819443.4409722zm0 1.2347222c.7055555.0000221 1.0584066.0000068 1.0583332.4409722.0000734.441001-.3527777.4409722-1.0583332.4409722z" fill="#fff" stroke-width=".264583"/></svg>