<?xml version="1.0" encoding="UTF-8" standalone="no"?>
<!-- Created with Inkscape (http://www.inkscape.org/) -->

<svg xmlns:dc="http://purl.org/dc/elements/1.1/" xmlns:cc="http://creativecommons.org/ns#" xmlns:rdf="http://www.w3.org/1999/02/22-rdf-syntax-ns#" xmlns:svg="http://www.w3.org/2000/svg" xmlns="http://www.w3.org/2000/svg" xmlns:sodipodi="http://sodipodi.sourceforge.net/DTD/sodipodi-0.dtd" xmlns:inkscape="http://www.inkscape.org/namespaces/inkscape" width="12" height="12" viewBox="0 0 12 12" version="1.1" id="default16" inkscape:version="0.92+devel (8ef6761023, 2017-10-07, custom)" sodipodi:docname="glyph-function.svg">
  <sodipodi:namedview id="base" pagecolor="#002466" bordercolor="#ffffff" borderopacity="0.38039216" inkscape:pageopacity="1" inkscape:pageshadow="2" inkscape:zoom="26.28125" inkscape:cx="7.4673008" inkscape:cy="8" inkscape:document-units="px" inkscape:current-layer="default16" inkscape:document-rotation="0" showgrid="false" inkscape:showpageshadow="false" borderlayer="true" inkscape:window-width="1920" inkscape:window-height="1029" inkscape:window-x="100" inkscape:window-y="34" inkscape:window-maximized="1" units="px" inkscape:snap-page="true" />
  <metadata id="metadata5">
    <rdf:RDF>
      <cc:Work rdf:about="">
        <dc:format>image/svg+xml</dc:format>
        <dc:type rdf:resource="http://purl.org/dc/dcmitype/StillImage" />
        <dc:title />
      </cc:Work>
    </rdf:RDF>
  </metadata>
  <defs id="defs5" />
  <path style="color:#000000;font-style:normal;font-variant:normal;font-weight:normal;font-stretch:normal;font-size:medium;line-height:normal;font-family:sans-serif;font-variant-ligatures:normal;font-variant-position:normal;font-variant-caps:normal;font-variant-numeric:normal;font-variant-alternates:normal;font-variant-east-asian:normal;font-feature-settings:normal;font-variation-settings:normal;text-indent:0;text-align:start;text-decoration:none;text-decoration-line:none;text-decoration-style:solid;text-decoration-color:#000000;letter-spacing:normal;word-spacing:normal;text-transform:none;writing-mode:lr-tb;direction:ltr;text-orientation:mixed;dominant-baseline:auto;baseline-shift:baseline;text-anchor:start;white-space:normal;shape-padding:0;clip-rule:nonzero;display:inline;overflow:visible;visibility:visible;isolation:auto;mix-blend-mode:normal;color-interpolation:sRGB;color-interpolation-filters:linearRGB;solid-color:#000000;solid-opacity:1;vector-effect:none;fill:#d0d0d0;fill-opacity:1;fill-rule:nonzero;stroke:none;stroke-width:1.5;stroke-linecap:round;stroke-linejoin:miter;stroke-miterlimit:4;stroke-dasharray:none;stroke-dashoffset:0;stroke-opacity:1;filter-blend-mode:normal;filter-gaussianBlur-deviation:0;color-rendering:auto;image-rendering:auto;shape-rendering:auto;text-rendering:auto;enable-background:accumulate;opacity:1" d="M 11.273438 0 A 0.75 0.75 0 0 0 10.5 0.7265625 C 10.5 0.7265625 10.426339 2.9381795 10.046875 5.0273438 C 9.857143 6.0719259 9.5793264 7.0864022 9.2578125 7.7050781 C 9.0970556 8.0144161 8.9274156 8.2129244 8.8203125 8.2890625 C 8.7132094 8.3652006 8.7098948 8.3685136 8.5878906 8.3359375 C 8.2226947 8.2384274 7.9640517 7.9852914 7.6953125 7.4921875 C 7.4265733 6.9990836 7.2050599 6.3059008 6.9765625 5.5800781 C 6.7480651 4.8542554 6.5143157 4.0957528 6.1191406 3.4277344 C 5.7239656 2.7597159 5.084088 2.149869 4.1972656 2.015625 C 3.6534238 1.9333002 3.1094755 2.0964631 2.7011719 2.390625 C 2.2928682 2.6847869 1.9904755 3.0849919 1.734375 3.5332031 C 1.222174 4.4296255 0.8875143 5.5549322 0.63671875 6.6816406 C 0.13512764 8.9350576 0.001953125 11.205078 0.001953125 11.205078 A 0.75 0.75 0 0 0 0.70507812 11.998047 A 0.75 0.75 0 0 0 1.4980469 11.294922 C 1.4980469 11.294922 1.6343199 9.1069176 2.1015625 7.0078125 C 2.3351838 5.9582599 2.6600683 4.9337995 3.0351562 4.2773438 C 3.2227002 3.9491159 3.4219832 3.7218672 3.578125 3.609375 C 3.7342668 3.4968828 3.817863 3.4746148 3.9726562 3.4980469 C 4.3441194 3.5542776 4.5636675 3.7443576 4.828125 4.1914062 C 5.0925825 4.6384549 5.3181277 5.3088844 5.5449219 6.0292969 C 5.7717161 6.7497094 6.0023827 7.5200624 6.3789062 8.2109375 C 6.7554298 8.9018126 7.3368219 9.5543681 8.2011719 9.7851562 C 8.721348 9.9240473 9.2891728 9.7962727 9.6894531 9.5117188 C 10.089733 9.2271648 10.362436 8.834076 10.589844 8.3964844 C 11.04466 7.5213011 11.320244 6.4155723 11.523438 5.296875 C 11.929825 3.0594804 12 0.7734375 12 0.7734375 A 0.75 0.75 0 0 0 11.273438 0 z " id="path817" />
</svg>
