<?xml version="1.0" encoding="UTF-8" standalone="no"?><svg height="16" viewBox="0 0 4.2333333 4.2333333" width="16" xmlns="http://www.w3.org/2000/svg"><sodipodi:namedview/><metadata><rdf:RDF><cc:Work><dc:format>image/svg+xml</dc:format><dc:type/><dc:title/></cc:Work></rdf:RDF></metadata><path d="m2.1166671 0a2.1166668 2.1166668 0 0 0 -2.11666695 2.1166666 2.1166668 2.1166668 0 0 0 2.11666695 2.1166667 2.1166668 2.1166668 0 0 0 2.116666-2.1166667 2.1166668 2.1166668 0 0 0 -2.116666-2.1166666zm0 1.4552083a.66145835.66145835 0 0 1  .661458.6614583.66145835.66145835 0 0 1 -.661458.6614583.66145835.66145835 0 0 1 -.661459-.6614583.66145835.66145835 0 0 1  .661459-.6614583zm0 .4378931a.2236007.2236007 0 0 0 -.223565.2235652.2236007.2236007 0 0 0  .223565.2236297.2236007.2236007 0 0 0  .22363-.2236297.2236007.2236007 0 0 0 -.22363-.2235652z" fill="#d0d0d0" stroke-width=".320993"/></svg>