<?xml version="1.0" encoding="UTF-8" standalone="no"?><svg height="22" viewBox="0 0 22 22" width="22" xmlns="http://www.w3.org/2000/svg"><sodipodi:namedview/><metadata><rdf:RDF><cc:Work><dc:format>image/svg+xml</dc:format><dc:type/><dc:title/></cc:Work></rdf:RDF></metadata><path d="m8.5332031-.05664063-.7753906 3.42968753a8.2956093 8.2956093 0 0 0 -1.7421875 1.0058593l-3.3574219-1.0429687-2.46679685 4.2714844 2.58203125 2.3867187a8.2956093 8.2956093 0 0 0 -.0683594 1.0058594 8.2956093 8.2956093 0 0 0  .0703125 1.003906l-2.58398435 2.388672 2.46679685 4.271484 3.3613281-1.042968a8.2956093 8.2956093 0 0 0 1.7402344 1.015625l.7734375 3.419922h4.9335939l.775391-3.429688a8.2956093 8.2956093 0 0 0 1.742187-1.005859l3.357422 1.042968 2.466797-4.271484-2.582032-2.386719a8.2956093 8.2956093 0 0 0  .06836-1.005859 8.2956093 8.2956093 0 0 0 -.070313-1.0039062l2.583985-2.3886719-2.466797-4.2714844-3.361328 1.0429687a8.2956093 8.2956093 0 0 0 -1.740235-1.015625l-.773437-3.41992183zm2.4667969 7.34179683a3.7151489 3.7151489 0 0 1 3.714844 3.7148438 3.7151489 3.7151489 0 0 1 -3.714844 3.714844 3.7151489 3.7151489 0 0 1 -3.7148438-3.714844 3.7151489 3.7151489 0 0 1 3.7148438-3.7148438z" fill="#fff" stroke-width=".909795"/></svg>