<?xml version="1.0" encoding="UTF-8" standalone="no"?>
<svg
   xmlns:dc="http://purl.org/dc/elements/1.1/"
   xmlns:cc="http://creativecommons.org/ns#"
   xmlns:rdf="http://www.w3.org/1999/02/22-rdf-syntax-ns#"
   xmlns:svg="http://www.w3.org/2000/svg"
   xmlns="http://www.w3.org/2000/svg"
   xmlns:sodipodi="http://sodipodi.sourceforge.net/DTD/sodipodi-0.dtd"
   xmlns:inkscape="http://www.inkscape.org/namespaces/inkscape"
   height="12"
   viewBox="0 0 12.000003 12"
   width="12.000003"
   version="1.1"
   id="svg8"
   sodipodi:docname="glyph-gear-small.svg"
   inkscape:version="0.92+devel (327bdefa15, 2017-09-17, custom)">
  <defs
     id="defs10" />
  <sodipodi:namedview
     id="namedview2"
     inkscape:document-rotation="0"
     showgrid="false"
     pagecolor="#002466"
     inkscape:pageopacity="0"
     borderlayer="true"
     inkscape:showpageshadow="false"
     bordercolor="#ffffff"
     borderopacity="0.29411765"
     inkscape:zoom="12.101168"
     inkscape:cx="10.480124"
     inkscape:cy="11.056641"
     inkscape:window-width="1920"
     inkscape:window-height="1017"
     inkscape:window-x="0"
     inkscape:window-y="34"
     inkscape:window-maximized="1"
     inkscape:current-layer="svg8" />
  <metadata
     id="metadata4">
    <rdf:RDF>
      <cc:Work>
        <dc:format>image/svg+xml</dc:format>
        <dc:type
           rdf:resource="http://purl.org/dc/dcmitype/StillImage" />
        <dc:title></dc:title>
      </cc:Work>
    </rdf:RDF>
  </metadata>
  <path
     d="M 4.6308594 0 L 4.2011719 1.8613281 A 4.6050075 4.5016978 0 0 0 3.2324219 2.40625 L 1.3691406 1.8417969 L 0 4.1582031 L 1.4335938 5.4550781 A 4.6050075 4.5016978 0 0 0 1.3945312 6 A 4.6050075 4.5016978 0 0 0 1.4335938 6.5449219 L 0 7.8417969 L 1.3691406 10.158203 L 3.234375 9.59375 A 4.6050075 4.5016978 0 0 0 4.2011719 10.144531 L 4.6308594 12 L 7.3691406 12 L 7.7988281 10.138672 A 4.6050075 4.5016978 0 0 0 8.7675781 9.59375 L 10.630859 10.158203 L 12 7.8417969 L 10.566406 6.5449219 A 4.6050075 4.5016978 0 0 0 10.605469 6 A 4.6050075 4.5016978 0 0 0 10.566406 5.4550781 L 12 4.1582031 L 10.630859 1.8417969 L 8.765625 2.40625 A 4.6050075 4.5016978 0 0 0 7.7988281 1.8554688 L 7.3691406 0 L 4.6308594 0 z M 6 3.984375 A 2.0623306 2.0160638 0 0 1 8.0625 6 A 2.0623306 2.0160638 0 0 1 6 8.015625 A 2.0623306 2.0160638 0 0 1 3.9375 6 A 2.0623306 2.0160638 0 0 1 6 3.984375 z "
     id="path814"
     style="fill:#d0d0d0"
     inkscape:label="#" />
</svg>
