<?xml version="1.0" encoding="UTF-8" standalone="no"?>
<!-- Created with Inkscape (http://www.inkscape.org/) -->

<svg
     xmlns:dc="http://purl.org/dc/elements/1.1/"
     xmlns:cc="http://creativecommons.org/ns#"
     xmlns:rdf="http://www.w3.org/1999/02/22-rdf-syntax-ns#"
     xmlns:svg="http://www.w3.org/2000/svg"
     xmlns="http://www.w3.org/2000/svg"
     xmlns:sodipodi="http://sodipodi.sourceforge.net/DTD/sodipodi-0.dtd"
     xmlns:inkscape="http://www.inkscape.org/namespaces/inkscape"
     width="16"
     height="16"
     viewBox="0 0 4.2333333 4.2333333"
     version="1.1"
     id="svg8"
     inkscape:version="0.92+devel (fa9b7f7a5b, 2017-07-19, custom)"
     sodipodi:docname="glyph-wiki.svg">
    <defs
         id="defs2" />
    <sodipodi:namedview
         id="base"
         pagecolor="#002466"
         bordercolor="#ffffff"
         borderopacity="0.38039216"
         inkscape:pageopacity="1"
         inkscape:pageshadow="2"
         inkscape:zoom="10.137867"
         inkscape:cx="56.05412"
         inkscape:cy="27.302424"
         inkscape:document-units="px"
         inkscape:current-layer="svg8"
         inkscape:document-rotation="0"
         showgrid="false"
         inkscape:showpageshadow="false"
         borderlayer="true"
         inkscape:window-width="1920"
         inkscape:window-height="1051"
         inkscape:window-x="0"
         inkscape:window-y="0"
         inkscape:window-maximized="1"
         units="px" />
    <metadata
         id="metadata5">
        <rdf:RDF>
            <cc:Work
                 rdf:about="">
                <dc:format>image/svg+xml</dc:format>
                <dc:type
                     rdf:resource="http://purl.org/dc/dcmitype/StillImage" />
                <dc:title></dc:title>
            </cc:Work>
        </rdf:RDF>
    </metadata>
    <path
         inkscape:connector-curvature="0"
         style="opacity:1;fill:#d0d0d0;fill-opacity:1;stroke:none;stroke-width:0.26458329;stroke-opacity:1"
         d="m 0.39635168,1.2403966 c -0.0949,-0.15953 -0.25889,-0.31723997 -0.37728,-0.36272997 l -0.019100005,-0.007 v -0.0768 -0.0768 l 0.012200005,-0.002 1.07507002,-0.002 c 6.4e-4,0.0293 10e-4,0.0902 4.099e-4,0.14743 -0.14217992,0.0177 -0.31355992,0.0872 -0.26606992,0.24653997 0.27104992,0.59886 0.51768992,1.20849 0.78527992,1.80886 l 0.45931,-0.85885 c -0.17773,-0.36405 -0.30721,-0.7323199 -0.50177,-1.08947997 -0.0634,-0.10285 -0.23497,-0.10572 -0.35646,-0.10969 l 4.1e-4,-0.14217 1.01621,0.004 0.003,0.13729 c -0.0916,0.0127 -0.1996,0.0344 -0.18736,0.14544997 l 0.28843,0.63789 c 0.0949,-0.20249 0.20042,-0.4006799 0.28413,-0.60821 0.038,-0.16431997 -0.14686,-0.17248997 -0.26476,-0.17706997 l -0.002,-0.13536 0.90808,-0.003 v 0.13847 c -0.13274,0.009 -0.25831,0.0477 -0.33151,0.14580007 -0.17796,0.27511 -0.30997,0.58728 -0.44858,0.88609 0.13696,0.32385 0.27969,0.64726 0.41967,0.94421 l 0.77395,-1.78522 c -0.0522,-0.11767007 -0.17044,-0.15924007 -0.2865,-0.18616007 l -0.006,-0.14402 0.85825,0.007 -2e-5,0.14003 c -0.0382,0.006 -0.0749,0.0177 -0.11027,0.0332 -0.0671,0.0311 -0.1305,0.093 -0.17302,0.16872007 l -1.06679,2.45445 -0.17877,10e-4 -0.5075,-1.19528 -0.61605,1.19519 -0.18495,2e-5 c -0.35992,-0.74973 -0.62031992,-1.53868 -0.99958992,-2.27939 z"
         id="path1873"
         sodipodi:nodetypes="ccccccccccccccccccccccccccccccccccccccc"
         inkscape:label="#" />
</svg>
