<?xml version="1.0" encoding="UTF-8" standalone="no"?>
<!-- Created with Inkscape (http://www.inkscape.org/) -->

<svg
   xmlns:dc="http://purl.org/dc/elements/1.1/"
   xmlns:cc="http://creativecommons.org/ns#"
   xmlns:rdf="http://www.w3.org/1999/02/22-rdf-syntax-ns#"
   xmlns:svg="http://www.w3.org/2000/svg"
   xmlns="http://www.w3.org/2000/svg"
   xmlns:sodipodi="http://sodipodi.sourceforge.net/DTD/sodipodi-0.dtd"
   xmlns:inkscape="http://www.inkscape.org/namespaces/inkscape"
   width="16"
   height="16"
   viewBox="0 0 4.2333332 4.2333332"
   version="1.1"
   id="svg8"
   inkscape:version="0.92+devel (f96dc7e339, 2017-07-28, custom)"
   sodipodi:docname="glyph-mathmatica.svg">
  <defs
     id="defs2" />
  <sodipodi:namedview
     id="base"
     pagecolor="#002466"
     bordercolor="#ffffff"
     borderopacity="0.38039216"
     inkscape:pageopacity="1"
     inkscape:pageshadow="2"
     inkscape:zoom="36.415999"
     inkscape:cx="10.094581"
     inkscape:cy="7.9162778"
     inkscape:document-units="px"
     inkscape:current-layer="svg8"
     inkscape:document-rotation="0"
     showgrid="false"
     inkscape:showpageshadow="false"
     borderlayer="true"
     inkscape:window-width="1920"
     inkscape:window-height="1051"
     inkscape:window-x="0"
     inkscape:window-y="0"
     inkscape:window-maximized="1"
     units="px" />
  <metadata
     id="metadata5">
    <rdf:RDF>
      <cc:Work
         rdf:about="">
        <dc:format>image/svg+xml</dc:format>
        <dc:type
           rdf:resource="http://purl.org/dc/dcmitype/StillImage" />
        <dc:title></dc:title>
      </cc:Work>
    </rdf:RDF>
  </metadata>
  <path
     d="M 2.1742421,2e-7 1.7049514,0.7351534 2.1262793,1.330553 1.7047447,0.7351534 0.86208895,0.3907312 l 0.095719,0.9119125 -0.8523724,0.1488499 0.622482,0.623309 L 1.5e-7,2.7446271 0.96752465,2.893477 1.1804626,2.850889 C 1.1725126,2.845729 1.1651206,2.83989 1.1583416,2.83311 1.1290116,2.804728 1.1140996,2.767919 1.1140996,2.7225062 c 0,-0.048252 0.015709,-0.088066 0.046929,-0.1192866 0.031221,-0.031222 0.071036,-0.046929 0.1192866,-0.046929 0.025546,0 0.054455,0.0076 0.086623,0.022741 0.047306,0.022709 0.081107,0.034111 0.1019207,0.034111 0.027437,0 0.052252,-0.0056 0.074011,-0.016953 0.028384,-0.01419 0.064395,-0.044899 0.1079163,-0.092204 0.026491,-0.02933 0.075204,-0.091747 0.1461623,-0.1873028 -0.090825,-0.336812 -0.161848,-0.5382695 -0.212938,-0.604496 -0.032167,-0.042576 -0.072982,-0.064088 -0.122181,-0.064088 -0.025545,0 -0.056547,0.0038 -0.093445,0.01137 l 0.00972,-0.053958 0.495546,-0.085175 C 1.9635289,1.6613042 2.026742,1.8165535 2.063641,1.9859053 2.1563582,1.8487209 2.2263788,1.7527951 2.2736847,1.697922 2.3370722,1.624125 2.3892952,1.5762066 2.4299772,1.5544473 c 0.041629,-0.022708 0.085539,-0.034111 0.1318975,-0.034111 0.052035,0 0.09185,0.014205 0.1192867,0.042588 0.028383,0.028385 0.042381,0.066901 0.042381,0.1151519 0,0.045412 -0.013997,0.082721 -0.042381,0.1120509 -0.027437,0.028382 -0.062153,0.042588 -0.1037815,0.042588 -0.030275,0 -0.065286,-0.00531 -0.1050219,-0.015712 -0.03879,-0.011348 -0.065695,-0.017159 -0.080834,-0.017159 -0.039735,0 -0.077545,0.014204 -0.113498,0.042587 -0.049197,0.03879 -0.1096101,0.1217202 -0.1815142,0.2484965 0.080419,0.2838314 0.1446335,0.4568783 0.1928847,0.5193208 0.028383,0.036899 0.057295,0.055405 0.086622,0.055405 0.024599,0 0.045698,-0.00631 0.063675,-0.018606 0.027436,-0.019868 0.069549,-0.069377 0.1263156,-0.1488498 l 0.051271,0.02977 c -0.083258,0.1343478 -0.1646853,0.2289756 -0.2441576,0.2838487 -0.06055,0.042575 -0.1201694,0.063881 -0.1788266,0.063881 -0.060551,0 -0.111269,-0.013409 -0.151951,-0.0399 C 2.0026094,2.8083613 1.9673028,2.7644503 1.9360826,2.7038995 1.9048604,2.6424025 1.8678456,2.5444741 1.8252722,2.4101276 1.7145787,2.551096 1.6275522,2.6543292 1.5641647,2.7196115 c -0.027286,0.028112 -0.051761,0.050059 -0.075045,0.06967 -0.030001,0.025269 -0.057602,0.045459 -0.081041,0.056646 -0.041628,0.019868 -0.086247,0.02977 -0.1335514,0.02977 -0.037326,0 -0.068571,-0.00827 -0.093858,-0.024602 L 0.96731785,2.8936838 0.81412665,3.8426019 1.6760088,3.4053553 2.1262798,4.233333 2.5763439,3.4146584 3.3809605,3.8332988 3.361734,2.9401993 4.233333,2.8376583 3.6203607,2.1306213 4.2141062,1.4514936 3.3714506,1.2933405 3.4479429,0.4186406 2.5955705,0.7442497 Z m 0.8122656,1.2811429 c 0.059702,0 0.1064655,0.016186 0.1405805,0.048376 0.034115,0.032189 0.051064,0.072448 0.051064,0.1203204 0,0.027238 -0.00477,0.053178 -0.014678,0.077939 -0.00963,0.024487 -0.025124,0.050151 -0.046309,0.077113 -0.014032,0.017883 -0.039281,0.043549 -0.075872,0.077112 -0.036592,0.033566 -0.059969,0.05598 -0.069877,0.066983 -0.00963,0.011007 -0.017317,0.021597 -0.023361,0.032044 H 3.178152 V 1.8887401 H 2.7719159 c 0.0044,-0.040718 0.017476,-0.079249 0.039486,-0.1155654 0.022009,-0.036592 0.06552,-0.085084 0.1304504,-0.1453353 0.052274,-0.048697 0.084304,-0.081694 0.096132,-0.099027 0.015963,-0.023935 0.023982,-0.047525 0.023982,-0.07091 0,-0.025862 -0.00726,-0.045577 -0.021294,-0.059333 -0.013756,-0.014032 -0.032781,-0.021087 -0.057266,-0.021087 -0.024212,0 -0.043373,0.00733 -0.057679,0.021914 -0.014304,0.014583 -0.022617,0.038517 -0.024808,0.072358 l -0.1153586,-0.01137 c 0.00688,-0.063829 0.028184,-0.109692 0.064502,-0.1374795 0.036316,-0.027787 0.081972,-0.041761 0.1364452,-0.041762 z"
     id="path2"
     inkscape:connector-curvature="0"
     style="fill:#d0d0d0;stroke-width:0.26458332"
     inkscape:label="#" />
</svg>
