<?xml version="1.0" encoding="UTF-8" standalone="no"?><svg height="22" viewBox="0 0 5.8208332 5.8208335" width="22" xmlns="http://www.w3.org/2000/svg"><sodipodi:namedview/><metadata><rdf:RDF><cc:Work><dc:format>image/svg+xml</dc:format><dc:type/><dc:title/></cc:Work></rdf:RDF></metadata><path d="m11 0a11 11 0 0 0 -11 11 11 11 0 0 0 11 11 11 11 0 0 0 11-11 11 11 0 0 0 -11-11zm-.599609 3.2265625h5.328125v3.8066406h-3.425782v8.6015629c0 1.941127-1.712218 3.539062-3.6914059 3.539062-1.9411272 0-3.5390625-1.559874-3.5390625-3.539062 0-1.941128 1.559874-3.541016 3.5390625-3.541016.6470423 0 1.2562039.191603 1.7890629.496094z" fill="#fff" stroke-linecap="round" stroke-linejoin="round" stroke-width="2.3" transform="scale(.26458333)"/></svg>