<?xml version="1.0" encoding="UTF-8" standalone="no"?><svg height="16" viewBox="0 0 4.2333333 4.2333333" width="16" xmlns="http://www.w3.org/2000/svg"><sodipodi:namedview/><metadata><rdf:RDF><cc:Work><dc:format>image/svg+xml</dc:format><dc:type/><dc:title/></cc:Work></rdf:RDF></metadata><path d="m8 0a7.9999996 7.9999996 0 0 0 -8 8 7.9999996 7.9999996 0 0 0 8 8 7.9999996 7.9999996 0 0 0 8-8 7.9999996 7.9999996 0 0 0 -8-8zm-.1152344 2.9257812c1.3031434-.0356535 2.6226894.4229884 3.6386724 1.3828126l-1.46875 1.5488281c-1.1947833-1.1287423-3.046457-1.0810542-4.1777349.1113281-1.1312778 1.1923827-1.0864612 3.0439262.1035157 4.177734 1.1899764 1.133809 3.0433537 1.091863 4.1796872-.095703l1.541016 1.476563c-1.9325596 2.019689-5.1656634 2.096233-7.1894532.167968-2.0237898-1.9282639-2.1075546-5.1674306-.1835938-7.195312.9619807-1.0139409 2.2534972-1.5385652 3.5566406-1.5742188z" fill="#d0d0d0" stroke-width=".896793" transform="scale(.26458333)"/></svg>