<?xml version="1.0" encoding="UTF-8" standalone="no"?><svg height="22" viewBox="0 0 5.8208332 5.8208335" width="22" xmlns="http://www.w3.org/2000/svg"><sodipodi:namedview/><metadata><rdf:RDF><cc:Work><dc:format>image/svg+xml</dc:format><dc:type/><dc:title/></cc:Work></rdf:RDF></metadata><path d="m2.8134822-.00000019-.7604702 1.32706479.5814078-.00196.00697 2.1711845a.22308771.22308771 0 0 0 0 .00588l.0008683.2539982-.7818186-.3245776-.00131-.4141088a.64273176.64273176 0 0 0  .3851422-.5901207.64273176.64273176 0 0 0 -.6447985-.6406596.64273176.64273176 0 0 0 -.64065951.6445806.64273176.64273176 0 0 0  .45419131.6125585l.00174.5376226a.22308771.22308771 0 0 0  .1376738.2054206l1.0691446.4437345.00109.3498468a.64273176.64273176 0 0 0 -.4062643.599706.64273176.64273176 0 0 0  .6447984.64066.64273176.64273176 0 0 0  .6406595-.644799.64273176.64273176 0 0 0 -.4108408-.596656l-.00283-.9218877 1.2562676-.4552801a.22308771.22308771 0 0 0  .1470402-.2104307l-.00109-.3132501.3716303-.00109-.0037-1.1654296-1.1652123.0037.00371 1.1654295.3476687-.00109.0004342.1561893-.9582667.3472328-.0061-1.8596772.5018971-.00175z" fill="#d0d0d0"/></svg>