<?xml version="1.0" encoding="UTF-8" standalone="no"?><svg height="22" viewBox="0 0 22 22" width="22" xmlns="http://www.w3.org/2000/svg"><sodipodi:namedview/><metadata><rdf:RDF><cc:Work><dc:format>image/svg+xml</dc:format><dc:type/><dc:title/></cc:Work></rdf:RDF></metadata><path d="m14.736328.0078125c-.05096.01376992-.09662.04651246-.125.09570312l-1.037109 1.79882818c-.783031-.362753-1.65167-.5703126-2.570313-.5703126-.939797 0-1.8278435.2146754-2.6249998.59375l-.9179687-1.7929687c-.0520082-.10124502-.1766068-.1418981-.2773437-.08984375-.1007832.05247004-.141852.17568304-.0898438.27734375l.921875 1.796875c-1.7013717.9538496-2.9130883 2.689193-3.1425781 4.7285156h12.2617191c-.231216-2.0603838-1.464089-3.8106185-3.19336-4.7578125l1.027344-1.77929685c.05672-.0978733.02318-.2249925-.07617-.28125-.04871-.02907561-.105293-.03330117-.15625-.01953125zm-6.4980468 3.6484375c.2799943 0 .5078126.2288015.5078126.5097656 0 .281888-.2278183.5078125-.5078126.5078125-.2828578 0-.5117187-.2259245-.5117187-.5078125 0-.2809179.2288609-.5097656.5117187-.5097656zm5.5429688 0c .282812 0 .509766.2288015.509766.5097656 0 .281888-.226908.5078125-.509766.5078125-.281888 0-.509766-.2259245-.509766-.5078125 0-.2809179.227878-.5097656.509766-.5097656zm-10.7128906 3.5039062c-.7217865 0-1.3046875.5819179-1.3046875 1.3027344v5.7050784c0 .719846.5834091 1.302734 1.3046875 1.302734.7184608 0 1.3027344-.58335 1.3027344-1.302734v-5.7050784c-.0000001-.7207703-.5842736-1.3027344-1.3027344-1.3027344zm15.8632816 0c-.721279 0-1.304688.5819179-1.304688 1.3027344v5.7050784c0 .719846.583871 1.302734 1.304688 1.302734.720816 0 1.304687-.58335 1.304687-1.302734v-5.7050784c0-.7207703-.584333-1.3027344-1.304687-1.3027344zm-13.9980472.265625v9.2499998c0 .494309.4002689.896485.8945312.896485h1.6132812v3.125c0 .719846.5833498 1.302734 1.3027344 1.302734.7217403 0 1.3046874-.58335 1.3046874-1.302734v-3.125h1.914063v3.125c0 .719846.583349 1.302734 1.302734 1.302734.721278 0 1.304687-.58335 1.304687-1.302734v-3.125h1.611329c.495186 0 .892578-.402222.892578-.896485v-9.2499998c-3.096518-.00993-9.4267323-.00993-12.1406252 0z" fill="#fff" stroke-width=".046188"/></svg>