<?xml version="1.0" encoding="UTF-8" standalone="no"?>
<!-- Created with Inkscape (http://www.inkscape.org/) -->

<svg
   xmlns:dc="http://purl.org/dc/elements/1.1/"
   xmlns:cc="http://creativecommons.org/ns#"
   xmlns:rdf="http://www.w3.org/1999/02/22-rdf-syntax-ns#"
   xmlns:svg="http://www.w3.org/2000/svg"
   xmlns="http://www.w3.org/2000/svg"
   xmlns:sodipodi="http://sodipodi.sourceforge.net/DTD/sodipodi-0.dtd"
   xmlns:inkscape="http://www.inkscape.org/namespaces/inkscape"
   width="16"
   height="16"
   viewBox="0 0 4.2333332 4.2333332"
   version="1.1"
   id="svg8"
   inkscape:version="0.92+devel (0526f3edb8, 2017-07-23, custom)"
   sodipodi:docname="glyph-math-pi.svg">
  <defs
     id="defs2" />
  <sodipodi:namedview
     id="base"
     pagecolor="#002466"
     bordercolor="#ffffff"
     borderopacity="0.38039216"
     inkscape:pageopacity="1"
     inkscape:pageshadow="2"
     inkscape:zoom="7.1685545"
     inkscape:cx="30.23622"
     inkscape:cy="30.23622"
     inkscape:document-units="px"
     inkscape:current-layer="layer1"
     inkscape:document-rotation="0"
     showgrid="false"
     inkscape:showpageshadow="false"
     borderlayer="true"
     inkscape:window-width="1920"
     inkscape:window-height="1051"
     inkscape:window-x="0"
     inkscape:window-y="0"
     inkscape:window-maximized="1"
     units="px" />
  <metadata
     id="metadata5">
    <rdf:RDF>
      <cc:Work
         rdf:about="">
        <dc:format>image/svg+xml</dc:format>
        <dc:type
           rdf:resource="http://purl.org/dc/dcmitype/StillImage" />
        <dc:title></dc:title>
      </cc:Work>
    </rdf:RDF>
  </metadata>
  <g
     inkscape:label="Layer 1"
     inkscape:groupmode="layer"
     id="layer1"
     transform="translate(0,-292.76667)">
    <path
       id="path812"
       d="m 0,294.08199 0.15425102,0.0114 c 0.1599639,-0.18091 0.22280694,-0.71603 1.16545198,-0.61129 -0.034278,2.29282 -1.0397659,2.53467 -0.97692287,3.00504 0.0228521,0.26661 0.23423297,0.43038 0.4627528,0.4399 0.72174257,-0.0248 0.68936897,-0.99787 0.91408007,-3.45065 h 0.9312193 c -0.049513,0.86456 -0.1847204,1.72913 -0.1999552,2.57656 0.011427,0.56368 0.3542062,0.86457 0.8055332,0.86838 0.7426899,0.0248 0.9769229,-0.84172 0.9769229,-1.21116 H 4.0733693 c -0.015235,0.3047 -0.1618686,0.52369 -0.4741791,0.53702 -0.851237,0.0114 -0.3827711,-1.4968 -0.377058,-2.75938 l 1.011201,0.006 -0.00571,-0.64557 C 0.02467927,292.82762 0.55815228,292.74524 7.9374997e-7,294.082 Z"
       style="fill:#d0d0d0;stroke:none;stroke-width:0.00746066"
       inkscape:connector-curvature="0" />
  </g>
</svg>
