<?xml version="1.0" encoding="UTF-8" standalone="no"?><svg height="16" viewBox="0 0 4.2333332 4.2333332" width="16" xmlns="http://www.w3.org/2000/svg"><sodipodi:namedview/><metadata><rdf:RDF><cc:Work><dc:format>image/svg+xml</dc:format><dc:type/><dc:title/></cc:Work></rdf:RDF></metadata><g fill="#d0d0d0" stroke-linecap="square"><path d="m0 0v1.4707031h5.3339844v-1.4707031zm5.3339844 1.4707031v1.4726563h5.3320316v-1.4726563zm5.3320316 0h5.333984v-1.4707031h-5.333984zm0 1.4726563v1.4726562h5.333984v-1.4726562zm-5.3320316 0h-5.3339844v1.4726562h5.3339844z" opacity=".6" stroke-width="1.9" transform="scale(.26458333)"/><path d="m5.3339844 0v1.4707031h5.3320316v-1.4707031zm5.3320316 1.4707031v1.4726563h5.333984v-1.4726563zm-5.3320316 0h-5.3339844v1.4726563h5.3339844zm-5.3339844 2.9453125v1.4726563h5.3339844v-1.4726563zm3.6933594 10.7500004c-.2312767 0-.4179688.184738-.4179688.416015 0 .231276.1866919.417969.4179688.417969h5.2695312c.2312761 0 .4179688-.186692.4179688-.417969 0-.231276-.1866919-.416015-.4179688-.416015z" opacity=".3" stroke-width="1.9" transform="scale(.26458333)"/><circle cx="2.547336" cy="2.52968" opacity=".73617" r=".24277" stroke-width=".502708"/></g></svg>