<?xml version="1.0" encoding="UTF-8" standalone="no"?><svg height="16" viewBox="0 0 4.2333333 4.2333333" width="16" xmlns="http://www.w3.org/2000/svg"><sodipodi:namedview/><metadata><rdf:RDF><cc:Work><dc:format>image/svg+xml</dc:format><dc:type/><dc:title/></cc:Work></rdf:RDF></metadata><path d="m1.995525.60670347c-.199383-.010265-.423343.019733-.642581.093907-.348134.1181855-.72512299.30231003-.99635399.54424433-.3225.286807-.373797.5376648-.352297.6416945.07525.3711361.61185.612842.82685.7917086-.01075.00551-.02073.011173-.02983.015946-.1075.050418-.516712.2545007-.619251.4704184-.115769.244266.01818.419916.10749.4435458.276193.073294.558997-.058239.71197699-.2749275.152154-.2166888.133779-.498185.06349-.626634l-.0024-.00473.08446-.047249c.05458-.030735.108195-.059133.155329-.083571-.02646.068558-.0453.1496548-.05522.2678402-.01158.138694.04783.3185793.12639.3895053.03473.030717.07595.031302.101584.031302.09096 0 .132292-.071507.177773-.1573967.05623-.104801.106014-.2262025.106014-.2262025s-.06203.3286728.10749.3286728c.06202 0 .123966-.076653.152081-.1160543v.00207s.0017-.00247.005-.00797c.0066-.00936.01004-.01506.01004-.01506v-.00177c.02481-.04098.08002-.1347513.162712-.289988.106673-.2001462.20937-.4509284.20937-.4509284s.0099.061564.04046.1624169c.0182.059891.05799.1251553.08859.1889943-.02481.033086-.03987.052269-.03987.052269l.000892.00177c-.01985.02519-.04211.052058-.06526.078846-.08435.096135-.185213.2056038-.198444.2371287-.01571.037033-.01258.064455.01801.086524.02233.01579.06207.019068.104242.015946.07608-.00477.128867-.022944.155329-.03396.04134-.014138.08859-.035509.134068-.067034.08269-.058312.133123-.1409943.128162-.2513033-.0025-.060681-.02309-.120467-.04873-.1771821.0074-.010099.015-.020582.02244-.031597.130653-.1820243.231518-.3821226.231518-.3821226s.0099.061268.04046.1621216c.01571.051226.04718.1072624.0753.1624168-.122385.095345-.199446.2056708-.225908.2781759-.04879.1339387-.01081.1946054.06113.2087796.03225.00643.07866-.00797.113397-.022148.043-.013403.09497-.036112.142927-.069987.08269-.058313.162122-.139403.157987-.2489409-.0025-.050418-.01642-.1000785-.03544-.1473564.104192-.040962.239003-.064587.410176-.044886.367981.04098.440771.2600134.426714.3514111-.01406.091416-.09101.1416436-.116645.1573968-.02563.014871-.03378.020563-.0313.031598.0033.016525.01488.01582.03721.012698.0306-.00477.193305-.075004.19992-.2436254.0099-.216706-.205969-.452984-.588835-.450634v-.00266c-.148019.00183-.276099.03463-.383599.085047-.03969-.074837-.07932-.1401374-.08593-.1889942-.0074-.056733-.01648-.091382-.0074-.1591686.0091-.06775.0502-.1639899.0502-.1718666-.000801-.00716-.009-.041735-.0942-.042524-.08517-.00183-.158873.01567-.167142.036913-.0083.021298-.02469.070343-.03544.1207791-.01489.074066-.170205.3363526-.258685.4742573-.02894-.053594-.0538-.1009886-.05877-.1387926-.0074-.056752-.01647-.0914-.0074-.1591686.0091-.067768.0502-.1636761.0502-.1715713-.000801-.00716-.009-.041735-.0942-.042524-.08517-.00183-.158872.01567-.167142.036913-.0083.021261-.01725.071627-.03544.1204839-.01737.048857-.224131.4869811-.277881.6012378-.02729.058331-.05115.104924-.06851.1364302-.01737.031506-.000998.00219-.0027.00531-.01489.026788-.02303.041933-.02303.041933v.00177c-.01158.019701-.02404.038685-.02982.038685-.0041 0-.01229-.052703.0018-.1252087.03059-.1520603.105069-.3894212.104242-.398069 0-.00404.01388-.045755-.04814-.067034-.06037-.02128-.08186.014175-.08682.014175-.005 0-.0092.012698-.0092.012698s.06699-.2672496-.128162-.2672496c-.122385 0-.290925.1269224-.374444.2427394-.05292.027596-.165301.085982-.284378.1482423-.04548.023629-.09266.048919-.13731599.071759l-.0092-.00975c-.23629-.2403341-.673851-.4104439-.655659-.7335311.0066-.1174144.0496-.426979.84013899-.8020441.647481-.30732223 1.166086-.22293873 1.256221-.0354244.128173.2679142-.277171.7657652-.950287.8374806-.256346.027578-.391038-.067035-.424941-.1024702-.03556-.037051-.04052-.03839-.05375-.031302-.0215.011016-.0083.044085 0 .063786.01985.049628.102458.1377685.243035.1819069.123211.038593.424318.059836.788165-.074121.407673-.1504996.725983-.5681274.63254-.91721263-.05944-.2221257-.32327-.3508396-.655574-.3679482zm-.214981 1.68352513c.01043.0007757.01848.00482.02303.012107.0215.037822-.08192.3120883-.108376.3735588-.04217.0985032-.131406.3514293-.185155.3372366-.04631-.0119335-.07448-.2033285-.0092-.3924583.03308-.0953454.103352-.2089552.144698-.2530751.05024-.053181.103673-.079695.134954-.077369zm1.37257.3124311c.0083.023648.01323.046326.0124.067625-.000802.1418335-.106777.1947019-.171276.2167527-.01323-.00936-.01158-.038536.03307-.1299335.01737-.036243.05716-.096902.125799-.1544437zm-2.22127299.1550343c.0554.1922511.0026.3608569-.125504.4940427-.121557.1268517-.292816.1750483-.365585.1340678-.07856-.04333-.04779-.2302302.101879-.3649951.09096-.081942.209009-.1575663.28674-.2040547.01737-.010281.04388-.024993.0753-.043114.005-.00312.0083-.00502.0083-.00502.0058-.00312.01228-.00707.0189-.010926zm1.66226399.0227384v.00945c0 .1134668-.114101.1892658-.16537.2200011-.0182.00863-.03479.01511-.04223.010336-.0058-.0033.0074-.01506.0074-.01506s.09178-.093672.128162-.1370208c.02068-.025227.04559-.054602.07205-.087705z" fill="#fff" opacity=".75" stroke-width=".264583"/></svg>