<?xml version="1.0" encoding="UTF-8" standalone="no"?><svg height="16" viewBox="0 0 4.2333333 4.2333333" width="16" xmlns="http://www.w3.org/2000/svg"><sodipodi:namedview/><metadata><rdf:RDF><cc:Work><dc:format>image/svg+xml</dc:format><dc:type/><dc:title/></cc:Work></rdf:RDF></metadata><path d="m2.4122242 4.2213485c-.227117-.0378282-.552672-.1664281-.754375-.2979915-.442979-.2889375-.732283-.609705-.911328-1.0104278-.059485-.1331297-.091983-.2364384-.184953-.5878814-.02311-.087387-.05189-.1836238-.06393-.2138605-.02032-.051004-.02121-.068209-.01236-.23833.0084-.1616269.03574-.3803193.05041-.4033206.0028-.00447.0095-.00552.01489-.00235.01809.010738.03482-.038906.05125-.15214.009-.062038.02315-.1270951.03144-.1445737.0083-.017473.02233-.056052.0312-.085719.02042-.068283.04826-.12077019.134331-.25323809.03786-.058259.0772-.1217128.08744-.1410078.01204-.022703.02521-.033826.0373-.031518.01164.00221.03086-.012508.05098-.039062.08751-.1154973.49968-.4562507.537823-.4446337.01041.00318.05391-.011141.09665-.031797.07732-.037367.11139-.04601.11139-.028262 0 .00512-.01118.016742-.02484.02583-.02397.015953-.02349.016222.0138.00756.02125-.00495.05704-.011969.07952-.015625.02778-.00452.03909-.01118.03525-.020761-.0033-.00841.0047-.016742.01982-.02065.038-.00976.09721-.00816.09721.00263 0 .012951-.03386.026029-.06071.023473-.01832-.00173-.01925-.0001925-.0055.00879.01366.00901.01383.01093.000946.011064-.0086.0000885-.0128.00287-.0094.0062.0035.00331.02647-.00385.05114-.015934.02467-.012085.06986-.027106.100411-.033395.03762-.00774.05556-.016722.05556-.027806 0-.014259.01747-.015472.135212-.00939.07437.00385.186591.015029.249383.02486.114162.017877.114172.017877.156716-.00562.05103-.028184.133107-.031851.154675-.00691.0079.00912.02961.02416.04826.033416.03043.015106.03244.015125.01958.0001925-.02443-.028268-.000167-.027556.09417.00277.304151.097753.552105.2718477.736094.5168301.04363.058095.04627.084231.0049.048868l-.02365-.020238.01807.033901c.0099.018647.01807.039598.01807.046562 0 .00697.02925.058444.065.1143946.08057.1261022.103105.16858709.0977.18415099-.0023.00668-.03801-.037742-.07932-.0987-.0413-.060955-.102431-.1430845-.135833-.1825079-.04989-.058873-.06295-.068942-.07312-.056359-.0068.00843-.02346.016838-.03699.018724l-.0246.0034.02434.045778c.01337.025178.02611.040668.02828.034424.01162-.033439.0657.010526.0903.073389.008.02039.02918.06238.04712.093312.01793.030931.03036.058405.0276.061055-.0028.00265-.01913-.00583-.03635-.018839l-.03132-.02365.02137.035201c.01176.019362.03143.043045.04373.052632.01534.011969.02268.030859.02336.060233.0013.054235.03364.1183048.05125.1014094.02743-.026321.03307-.00987.02617.076326-.0051.063506-.0024.1053639.0097.1498002.01832.067463.01437.084114-.01242.052584-.01703-.020052-.0172-.020038-.0096.000771.01636.044607.02857.1113407.02517.1375326-.0063.048875-.02546.028555-.03205-.034054l-.0064-.061108-.0019.065032c-.000945.035769-.0098.1048847-.01945.153591-.0098.049197-.01474.1088103-.01116.1341227.0067.047619.002.049464-.03951.015356-.01687-.013894-.01979-.011084-.03138.030239-.0098.034769-.0097.054564.000386.083683.0072.020979.01141.049432.0093.063227-.0048.031837-.0314.041765-.0314.011739 0-.037757-.01497-.024319-.06071.054505-.123518.2128521-.318959.377579-.540159.455277-.130409.045808-.217876.062794-.364942.070872l-.132454.00727.06544.019374c.05277.015625.08376.017954.160048.012046.09994-.00776.217295-.028563.270505-.047977.02124-.00776.03558-.0081.04292-.00116.0173.016607-.136408.081899-.227657.096693-.155266.025174-.363102-.00204-.546569-.071546-.124478-.047163-.309197-.1699938-.28089-.1867815.0054-.00318.0405.012874.07809.035689.04805.029153.06835.036831.06835.025849 0-.020742.0071-.019748.04528.00633.03447.023557.140504.067297.216871.089465.08325.024164.05097-.00512-.06071-.055089-.353106-.1579745-.499692-.3159818-.572749-.6173639-.02679-.1105171.002-.3528016.05077-.4286792.01239-.019224.02252-.042874.02252-.052547 0-.041977.07294-.1528828.147787-.2247098.131887-.1265639.269008-.1791072.447009-.1712888.08605.00379.122798.011046.194409.038409.08123.031047.183502.096031.15218.096699-.0074.0001558-.03965-.010218-.07175-.023053-.04879-.019511-.08007-.023419-.190811-.023833-.155502-.0005774-.231507.02059-.342174.095313-.156897.1059392-.244143.2279618-.275042.3846701-.02073.1051522-.02137.1342882-.0052.2385918.0093.060102.01594.077738.02759.073447.0098-.0036.01534.00173.01534.014586 0 .037251.08446.1883555.143038.2559028.140989.162591.36905.2663461.585445.2663461.112314 0 .203103-.020688.286674-.065322.03356-.017935.07592-.039837.09413-.048696.06426-.031256.104125-.06696.150733-.1349905.02591-.03782.05408-.068763.0626-.068763.01258 0 .01204.00546-.0029.029128-.04927.078029.06636-.063847.126235-.1548919l.06706-.1019756-.0073-.066987c-.0071-.06437-.006-.0683.02609-.1006281.03091-.031131.03368-.040347.03724-.1235735.0032-.074488.000945-.089952-.0127-.090037-.01274-.0000732-.0182-.019692-.02369-.084841-.0073-.086221-.08041-.3763533-.09744-.3864559-.0052-.00304-.0194-.030947-.0317-.061996-.04148-.10478269-.114258-.20553979-.227721-.31530449-.163262-.1579361-.368919-.2798933-.563182-.3339722-.165245-.046001-.445847-.029304-.645714.038421-.09755.033054-.193655.076821-.209873.095573-.0074.00851-.01803.01272-.02371.00935-.006-.00354-.0044-.013047.0039-.022589.03682-.042575-.08536.035347-.164022.1046056-.04755.041871-.0882.077404-.09031.07896-.0021.00154.0071.0000731.02057-.00329.02235-.0056.0233-.00412.01118.017627-.0078.013932-.04823.038985-.09783.060575-.08334.036275-.137236.076143-.180059.1331875-.01708.022776-.01809.027681-.0046.022701.0095-.00351.01726-.00135.01726.00487 0 .03025-.02864.064023-.07106.083806-.094.043824-.259121.2779112-.347571.4927415-.03942.095733-.03879.092408-.01736.092408.02259 0 .02102.02462-.01001.1568699-.0452.1926411-.04525.1864775.0039.457492.05997.3302083.09501.4405137.161633.5088634.01562.01603.03081.05014.03759.084404.0081.040913.02166.067915.04706.093612.02316.023429.03089.037797.02199.040911-.01745.0061.03719.0843.08705.1245607.02509.020253.04367.027061.06381.023367.04413-.0081.08907.016299.158115.08583.07175.07226.07894.091686.03146.084999-.03063-.00431-.03133-.00352-.01626.018569.0087.0127.04065.04322.07107.067832.04272.034572.05373.049528.04836.065744-.0077.023319.01428.045073.06405.063331.03086.011315.0408.035737.01757.043165-.0071.00225.03643.045177.09658.095398.06776.05658.113348.087593.119844.081535.01716-.015991.03916-.011123.03955.00876.000386.021691.01991.044479.09.1052638.04429.038412.05534.043245.08249.03607.02486-.00658.04049-.00235.0755.020357.06985.045311.112199.063399.148463.063399.03568 0 .04077.00983.02223.043066-.0098.017588-.0077.020488.01484.020488.01443 0 .05513.00953.09042.021185.08024.026494.113711.028295.0936.00504-.02971-.034351.0017-.024964.107941.032153.148312.079815.223339.088932.518677.063035.04373-.00383.05795-.00154.05795.00912 0 .0092-.03794.023011-.107619.039187-.09159.021263-.140484.025378-.328374.027632-.148055.00173-.249187-.00209-.307086-.011739zm-.150985-1.5879008c0-.00225-.01367-.012065-.03036-.021814l-.03035-.017742.02606.021814c.02543.021284.03465.026005.03465.017742zm1.519722-1.1101149c-.0035-.00845-.0061-.00595-.0067.00641-.000577.011161.0021.017415.0058.013894.0037-.00352.0041-.012662.0008-.020302zm-2.511719-1.11816449c.01374-.016799.01334-.017184-.0041-.004-.01063.00801-.01932.016337-.01932.018531 0 .00872.0091.0031.02348-.014529zm.125526-.09798c.01099-.011661.01749-.021185.01445-.021185-.0031 0-.01451.00953-.02549.021185-.01099.011661-.01749.021185-.01445.021185.0031 0 .01451-.00953.0255-.021185zm.13894-.074461c.03639-.011815.05706-.013912.06473-.00655.0077.00737.03615.003.08914-.013682.04282-.01347.07589-.026384.07349-.028693-.0024-.00231-.03767.00647-.07835.019505-.05589.017915-.07599.020571-.08223.010891-.01052-.016357-.110967.015875-.154137.049472l-.0295.022953.0317-.018262c.01743-.010045.05576-.026082.08516-.035635zm.318216-.026888c.03205-.00914.05637-.018454.05403-.020687-.0052-.00495-.119344.026432-.119344.032798 0 .00641.000946.00625.06531-.012104zm.183039-.057745.04415-.00774-.03863-.00096c-.02124-.0005773-.05105.00637-.06623.015298-.01786.010526-.01981.013586-.0055.00868.01215-.00416.04194-.011045.06623-.015298zm.08767-.01999c.0034-.00527-.0038-.0071-.01591-.00406-.02578.00647-.02903.013662-.0062.013662.0088 0 .01868-.00433.02209-.0096zm.356374.00319c-.0037-.00352-.01318-.00389-.02116-.0007709-.0088.00339-.0062.00589.0067.00641.01164.0003848.01815-.00204.01449-.00556zm-.06599-.011488c-.01062-.00265-.02801-.00265-.03863 0s-.0019.00485.01932.00485c.02124 0 .02994-.00217.01932-.00485zm-.110085-.010988c-.02261-.00227-.06235-.00231-.0883-.0000693-.02596.00223-.0075.0041.0411.00414.04857.0000384.06981-.00173.0472-.00406zm-.144014-.00929c-.0036-.00352-.01318-.00391-.02116-.0007709-.0088.00339-.0062.00589.0067.00641.01164.0003848.01815-.00204.01449-.00556zm-.07472 2.54595839c-.112432-.077307-.154089-.1172926-.154089-.1479104 0-.016241.0039-.029533.0085-.029533.01591 0 .203876.1882806.199766.2001131-.0024.00685-.02506-.00263-.05418-.02267zm-.05786-.1962876c-.05839-.056625-.0771-.087081-.0535-.087081.01418 0 .122833.1193825.122833.1349636 0 .00733-.0013.013336-.0031.013336-.0017 0-.03151-.027544-.06623-.061213zm.64606-.2317969c-.03083-.011931-.01159-.034056.03863-.044396.02884-.00595.07466-.02035.101832-.032028.02717-.01168.05136-.019349.05376-.017049.0024.00231-.0099.025843-.02732.052316-.03149.047838-.03206.048127-.09239.047315-.03339-.0003848-.06692-.00321-.07451-.00616zm.331133-.2369407c-.02979-.011488-.03103-.031048-.0062-.097651.02137-.057206.04353-.068492.0312-.015895-.0044.018935-.01035.046344-.01316.060906l-.0051.026482.02206-.024108c.01305-.014259.02514-.047748.02959-.081972.0041-.031826.01193-.055253.01732-.052062.01366.0081.0122.091849-.0025.1481547-.01291.049184-.02452.054914-.0732.036137zm-2.612026-.1329412c-.0037-.00922-.0067-.045362-.0067-.080327 0-.04613.0038-.062369.0138-.059192.01639.00519.02601.1562734.0099.1562734-.0057 0-.01335-.00754-.01705-.016761zm2.655388-.247763c-.01714-.022263-.02244-.039837-.01757-.058436.01-.038194.03612-.032761.0554.011507.02999.068883.0039.101165-.03783.046919zm-2.657658-.1681695c-.000801-.060063-.000006-.061921.0277-.060906.02349.000771.02916.00679.03188.033387.0031.029989-.03092.089471-.05111.089471-.0041 0-.008-.027877-.0085-.061951zm2.861128-1.30215369c.0015-.094794.01818-.1269066.03115-.060537.009.046245-.0025.1279072-.01997.1418565-.0095.00758-.01237-.013086-.01118-.0813195zm-1.450345-.056806c.0044-.012777.1567-.072622.184788-.072622.033 0-.0262.038802-.09447.061924-.07612.025782-.09639.028181-.09032.010699z" fill="#fff" opacity=".75" stroke-width=".192431"/></svg>