<?xml version="1.0" encoding="UTF-8" standalone="no"?><svg height="16" viewBox="0 0 4.2333333 4.2333333" width="16" xmlns="http://www.w3.org/2000/svg"><sodipodi:namedview/><metadata><rdf:RDF><cc:Work><dc:format>image/svg+xml</dc:format><dc:type/><dc:title/></cc:Work></rdf:RDF></metadata><path d="m2.8769531 0c-.1304316 0-.234375.10589651-.234375.23632812v1.71054688h10.7148439v-1.71054688c0-.13043161-.103943-.23632812-.234375-.23632812zm-1.4101562 2.7554688c-.1474917 0-.265625.1200864-.265625.2675781v1.6917969h13.5976561v-1.6917969c0-.1474917-.118133-.2675781-.265625-.2675781h-.759765-.416016-10.7148439-.4492187zm-1.20312502 2.7679687c-.14567244 0-.26367188.1160465-.26367188.2617187v9.9511718c0 .145673.11799944.263672.26367188.263672h15.47265612c.145673 0 .263672-.117999.263672-.263672v-9.9511718c0-.1456722-.117999-.2617187-.263672-.2617187h-.210937-.726563-13.5976561-.8027344zm5.24218752 2.3074219 5.3535156 3.0917966-5.3535156 3.089844z" fill="#d0d0d0" transform="scale(.26458333)"/></svg>