<?xml version="1.0" encoding="UTF-8" standalone="no"?>
<!-- Created with Inkscape (http://www.inkscape.org/) -->

<svg
   xmlns:dc="http://purl.org/dc/elements/1.1/"
   xmlns:cc="http://creativecommons.org/ns#"
   xmlns:rdf="http://www.w3.org/1999/02/22-rdf-syntax-ns#"
   xmlns:svg="http://www.w3.org/2000/svg"
   xmlns="http://www.w3.org/2000/svg"
   xmlns:sodipodi="http://sodipodi.sourceforge.net/DTD/sodipodi-0.dtd"
   xmlns:inkscape="http://www.inkscape.org/namespaces/inkscape"
   width="16"
   height="16"
   viewBox="0 0 4.2333332 4.2333332"
   version="1.1"
   id="svg8"
   inkscape:version="0.92+devel (0526f3edb8, 2017-07-23, custom)"
   sodipodi:docname="glyph-earth.svg">
  <defs
     id="defs2" />
  <sodipodi:namedview
     id="base"
     pagecolor="#002466"
     bordercolor="#ffffff"
     borderopacity="0.38039216"
     inkscape:pageopacity="1"
     inkscape:pageshadow="2"
     inkscape:zoom="7.1685545"
     inkscape:cx="30.670376"
     inkscape:cy="33.450638"
     inkscape:document-units="px"
     inkscape:current-layer="svg8"
     inkscape:document-rotation="0"
     showgrid="false"
     inkscape:showpageshadow="false"
     borderlayer="true"
     inkscape:window-width="1920"
     inkscape:window-height="1051"
     inkscape:window-x="0"
     inkscape:window-y="0"
     inkscape:window-maximized="1"
     inkscape:snap-object-midpoints="true"
     inkscape:snap-center="true"
     inkscape:snap-grids="false"
     inkscape:snap-to-guides="false"
     inkscape:snap-page="true"
     units="px" />
  <metadata
     id="metadata5">
    <rdf:RDF>
      <cc:Work
         rdf:about="">
        <dc:format>image/svg+xml</dc:format>
        <dc:type
           rdf:resource="http://purl.org/dc/dcmitype/StillImage" />
        <dc:title></dc:title>
      </cc:Work>
    </rdf:RDF>
  </metadata>
  <path
     style="opacity:1;fill:#d0d0d0;stroke-width:0.10996719"
     d="M 2.2319493,5.385835e-7 A 2.116646,2.116646 0 0 0 1.6368958,0.08667357 c -0.00282,0.0043762 -0.00484,0.0089059 -0.00399,0.01718205 0.00131,0.0199152 0.019405,0.027826 0.029761,0.0296072 0.015974,0.003236 0.043835,-2.592e-5 0.059367,-0.00721 0.028929,-0.0133773 0.042553,-0.05722358 0.066731,-0.05185069 0.01899,0.0043074 0.041471,0.06697745 0.044487,0.08897439 0.00302,0.0232489 -0.00119,0.0378156 0,0.0593672 0.00258,0.0362667 0.044442,0.0329756 0.066884,0.0520039 0.00646,0.005665 0.00913,0.0215318 0.014727,0.0296072 0.010806,0.0147188 0.027622,0.0142346 0.02976,0.0297603 0.00432,0.0376084 -0.033207,0.0401431 -0.02976,0.0816108 -0.00777,0.0164386 -0.031267,0.0230876 -0.029608,0.0446405 0.00258,0.0341917 0.053336,0.002858 0.066731,0.0296068 0.00738,0.0142727 -0.0022,0.0317287 -0.00736,0.052004 0.016849,0.0198506 0.014481,0.0444871 -0.014881,0.0444871 -0.018132,0 -0.018981,-0.0251246 -0.037124,-0.0296068 -0.010363,-0.001781 -0.024003,0.001781 -0.03697,0 -0.010797,-0.00181 -0.026771,-0.00632 -0.037124,-0.00721 -0.02677,-0.002701 -0.050901,0.008316 -0.066884,-0.00721 0.025907,-0.0340997 0.055882,-0.0671321 0.089128,-0.0964911 0.00988,-0.009078 0.027423,-0.019431 0.022243,-0.0371237 -0.018135,-0.016682 -0.034739,-0.002765 -0.052004,0.00721 -0.018565,0.009969 -0.038635,0.0270886 -0.059367,0.0297603 -0.035837,0.004662 -0.089376,-0.004302 -0.1187347,0.0147267 -0.00432,0.0159647 0.03494,0.005151 0.029761,0.0297603 -0.014679,0.001781 -0.033408,0.009974 -0.044641,0 -0.0099,-0.009167 -8.917e-4,-0.0243872 -0.00736,-0.0297603 -0.011227,-0.00852 -0.055677,-0.017399 -0.074247,-0.0147267 -0.022881,0.003863 -0.034108,0.0251026 -0.037124,0.0444871 0.027631,0.0130318 0.071837,-0.0178832 0.081765,0.0148802 -0.014676,0.0267466 -0.056752,0.0378332 -0.052004,0.074094 0.00172,0.0137385 0.017948,0.0353425 0.029608,0.0371237 0.01166,0.002434 0.018099,-0.007807 0.02976,-0.00721 0.012088,8.9165e-4 0.015356,0.008991 0.029605,0.00721 0.020723,-0.008721 0.028255,-0.0315417 0.052004,-0.0297603 0.028492,0.034916 -0.02178,0.0561083 -0.052004,0.0668841 -0.034542,0.0125809 -0.084881,0.0183862 -0.1112177,0.0296071 -0.013816,0.005581 -0.059542,0.0541956 -0.066884,0.0148802 -0.00561,-0.0281032 0.023279,-0.0211545 0.02976,-0.0444871 -0.033678,-0.006462 -0.066268,0.0179404 -0.096491,0.0296071 -0.043607,0.0164251 -0.1157433,0.0181465 -0.1260979,0.066884 -0.00166,0.009873 0.00648,0.0381935 0,0.0444872 -0.00518,0.005403 -0.038609,0.002728 -0.052004,0.00721 -0.020723,0.007273 -0.039037,0.0186515 -0.052004,0.0222435 -0.00952,0.002701 -0.023547,0.005429 -0.029605,0.00721 -0.017277,0.006911 -0.017271,0.0289614 -0.037124,0.0444871 -0.00778,0.006739 -0.030643,0.008587 -0.037124,0.0148802 -0.011227,0.011221 -0.017271,0.0400046 -0.037124,0.0444871 -0.0125153,8.9164e-4 -0.0179478,-0.007184 -0.0296083,0 -0.001188,0.0276461 0.0116605,0.0609808 0,0.0889743 -0.025476,0.021094 -0.0563163,0.040784 -0.0891276,0.059367 -0.0181348,0.010331 -0.0299888,0.011468 -0.0520039,0.022243 -0.0155432,0.00771 -0.0341581,0.026793 -0.0518504,0.037124 -0.0414489,0.024173 -0.0891276,0.049466 -0.0891276,0.1112178 0,0.013376 0.005225,0.029115 0.007365,0.044641 0.001188,0.00908 -4.7625e-4,0.019633 0,0.029607 0.003016,0.022439 0.0189987,0.058722 0,0.074248 C 0.6688342,1.3903033 0.6290931,1.3786533 0.608788,1.3579333 0.603139,1.3363013 0.618287,1.3180393 0.616153,1.2985663 0.613986,1.2830463 0.5919711,1.2557073 0.5790293,1.2539253 0.5660626,1.2517853 0.5632456,1.2694023 0.549421,1.2688053 0.5330168,1.2674753 0.5032691,1.2408263 0.4825368,1.2390453 c -0.0306547,-0.00359 -0.0479329,0.00448 -0.0816108,0 C 0.3681101,1.2562833 0.3664003,1.2863583 0.3266784,1.2836863 0.3155013,1.28271 0.3042719,1.2764263 0.2921625,1.2721813 A 2.116646,2.116646 0 0 0 0.15532167,1.7106072 c 0.0156969,-0.00335 0.0330702,-0.00726 0.0452541,-0.011352 0.0470626,-0.014712 0.0349828,-0.075325 0.0816108,-0.096491 0.0207253,-0.00944 0.0457742,-0.012946 0.0816108,-0.014727 0.0116134,0.00951 0.0239059,0.029852 0.0222435,0.044487 -0.001283,0.011304 -0.0166389,0.021598 -0.0222435,0.037124 -0.004726,0.013822 -0.002611,0.033266 -0.007363,0.044487 -0.006483,0.014629 -0.024583,0.02329 -0.0297603,0.037124 -0.003016,0.00908 0.003016,0.014169 0,0.022243 -0.005153,0.014181 -0.0308883,0.022489 -0.0222435,0.037124 0.0461982,0.018138 0.1005451,-0.00718 0.14113151,0 0.0172702,0.00305 0.0598424,0.025702 0.0593673,0.052004 -4.0482e-4,0.019836 -0.0201062,0.037662 -0.0222435,0.059214 -0.002588,0.027195 -0.0136956,0.059767 -0.0148802,0.081764 -0.001728,0.035804 0.0509784,0.097088 0.0889743,0.096491 0.0410158,-3.572e-4 0.0690837,-0.036432 0.11873441,-0.014881 0.0164071,0.00691 0.0338601,0.030651 0.0520042,0.029761 0.0151098,-8.917e-4 0.0345595,-0.026349 0.0444869,-0.044487 0.0125214,-0.021991 0.0155345,-0.040783 0.0371238,-0.052004 0.0233148,-0.012023 0.0444548,-0.011022 0.0742475,-0.022243 0.0133821,-0.00475 0.0250367,-0.014169 0.0371237,-0.022243 0.010378,-0.00659 0.0166624,-0.020124 0.0296053,-0.00721 0.0172858,0.017238 -0.0220385,0.018387 -0.007362,0.03697 0.0297899,0.01598 0.0452961,-0.029012 0.066884,-0.029608 0.00691,-4.445e-4 0.031972,0.021534 0.044487,0.029608 0.016826,0.011215 0.018553,0.033532 0.037124,0.037124 0.011658,0.00261 0.035013,-0.016662 0.05185,-0.014881 0.022021,0.00305 0.035166,0.030357 0.052004,0.02976 0.020293,-4.445e-4 0.034739,-0.026168 0.052004,-0.02976 0.037993,-0.00727 0.049893,0.00598 0.066731,0.02976 0.018571,0.00368 0.012495,-0.016176 0.02976,-0.00721 -0.0095,0.01893 0.00696,0.021599 0.014727,0.037124 0.0043,0.00989 0.00276,0.017761 0.00752,0.022243 0.010363,0.00989 0.036747,0.012714 0.051851,0.022243 0.015971,0.00996 0.018981,0.030838 0.037123,0.052004 0.018996,0.021546 0.049207,0.035343 0.074247,0.037124 0.023745,0.00178 0.046877,-0.00178 0.066731,0 0.044472,0.00566 0.072921,0.027717 0.1040077,0.051851 0.017704,0.013382 0.031523,0.021154 0.037124,0.037124 0.00433,0.011218 -0.00433,0.03193 0,0.044487 0.0095,0.027109 0.058736,0.035026 0.044487,0.081611 0.00648,0.013471 0.014077,0.02026 0.029608,0.02976 0.012521,0.00772 0.023731,0.020462 0.037124,0.022243 0.00863,8.917e-4 0.029359,-5.927e-4 0.037124,0 0.024612,0.00172 0.038208,0.00681 0.059367,0.014881 0.013382,0.00475 0.02848,0.00843 0.037124,0.014727 0.010758,0.00736 0.00885,0.03083 0.022243,0.037124 0.00864,0.00448 0.037327,-0.00178 0.052004,0 0.023315,0.00261 0.045998,0.021647 0.066731,0.022243 0.012515,5.927e-4 0.018527,-5.926e-4 0.02976,0 0.053104,0.00431 0.09003,0.062583 0.1409784,0.081611 0.015977,0.0054 0.041198,0.00273 0.052004,0.00721 0.018999,0.00817 0.027946,0.063182 0.029605,0.089128 0.00432,0.078565 -0.054156,0.1040689 -0.089128,0.1558579 -0.00729,0.010769 -0.011889,0.03677 -0.022243,0.051851 -0.02072,0.030609 -0.039987,0.033028 -0.036971,0.089128 4.154e-4,0.015515 0.00736,0.019754 0.00736,0.03697 0,0.020735 -0.00261,0.055664 -0.00736,0.074247 -0.00342,0.014184 -0.00538,0.024212 -0.00752,0.037124 -0.00214,0.013026 0.00166,0.025903 0,0.037124 -0.00172,0.012478 -0.012744,0.027239 -0.022243,0.044487 -0.019862,0.037142 -0.033661,0.081856 -0.074247,0.096491 -0.024179,0.00852 -0.055705,0.00583 -0.081611,0.01488 -0.010794,0.00386 -0.024182,0.015949 -0.037124,0.022244 -0.03756,0.017685 -0.0935,0.042747 -0.1038546,0.081611 -0.0095,0.034521 0.021362,0.064539 0.014881,0.1038548 -0.00686,0.01166 -0.011889,0.016373 -0.022243,0.02976 -0.00907,0.012462 -0.019833,0.024858 -0.02976,0.03697 -0.012955,0.015976 -0.036723,0.030007 -0.044487,0.052004 -0.00258,0.00727 0.00302,0.010578 0,0.022244 -0.00131,0.0043 -0.010984,0.00681 -0.014881,0.01488 -0.00345,0.00727 0.00302,0.03083 0,0.037123 -0.00993,0.019836 -0.045571,0.060437 -0.066731,0.066731 -0.044901,0.012563 -0.087648,-0.028537 -0.1187347,-0.022244 0.00432,0.021992 0.019251,0.029406 0.029608,0.044487 0.0055,0.00872 -8.307e-4,0.020262 0.00736,0.029761 0.00988,0.011216 0.021213,0.01714 0.022398,0.029608 0.00258,0.02675 -0.015511,0.050313 -0.02976,0.059368 -0.012952,0.00777 -0.036474,0.00362 -0.059367,0.00721 -0.015974,0.00262 -0.066484,0.011912 -0.074248,0.022244 -0.010806,0.015081 0.00821,0.044287 0,0.059367 -0.00312,0.00598 -0.00742,0.00951 -0.012118,0.011967 A 2.116646,2.116646 0 0 0 2.2319517,4.2333332 2.116646,2.116646 0 0 0 3.731781,3.6080593 c -0.00198,-7.408e-4 -0.00394,-9.26e-4 -0.00598,-0.00185 0.0082,-0.028543 0.022447,-0.038885 0.037123,-0.081611 0.00992,-0.035869 0.026747,-0.08676 -0.00736,-0.1040077 0.00789,-0.053953 -4.234e-4,-0.069577 0.00736,-0.1705852 C 3.7663839,3.1749044 3.7241379,3.134755 3.725801,3.0570236 3.7253511,3.0247106 3.747846,2.9937526 3.770288,2.9678956 3.81778,2.8876086 3.8424,2.8400748 3.851899,2.7675501 c -0.00518,-0.015073 0.0056,-0.017648 0,-0.02976 C 3.829878,2.6898391 3.816687,2.6405891 3.785168,2.6043286 3.767896,2.5844006 3.747413,2.5704626 3.733164,2.5523246 3.721504,2.5376036 3.703556,2.5115416 3.703556,2.5003206 c -4.498e-4,-0.012491 0.00392,-0.024657 0.00736,-0.037124 0.0043,-0.015977 0.00885,-0.04904 0.014883,-0.074094 0.00259,-0.01167 0.017018,-0.026058 0.01488,-0.044641 -0.00217,-0.018132 -0.02911,-0.061358 -0.052004,-0.066731 -0.030223,-0.00718 -0.058498,0.00359 -0.096491,0 -0.033247,-0.021091 -0.034118,-0.074427 -0.081611,-0.081611 -0.062172,-0.00907 -0.1279938,0.025904 -0.1707386,0.044487 -0.024609,0.010776 -0.05266,0.021507 -0.074247,0.022398 -0.020722,0.00134 -0.039514,-0.0131 -0.059368,-0.014881 -0.025905,-0.00261 -0.056138,0.010399 -0.081611,0.014881 -0.024612,0.00422 -0.044716,0.012946 -0.066731,0.014727 -0.041883,0.00305 -0.077517,-0.038623 -0.1038542,-0.059373 -0.015975,-0.012581 -0.0369,-0.017942 -0.052004,-0.029608 -0.015973,-0.012554 -0.039489,-0.017648 -0.052004,-0.02976 -0.016838,-0.016425 -0.020534,-0.052251 -0.029605,-0.074247 -0.01079,-0.02585 -0.034755,-0.042122 -0.059367,-0.066731 -0.018132,-0.018132 -0.062136,-0.050915 -0.066884,-0.074247 -0.00259,-0.012017 0.00847,-0.024212 0.00752,-0.037124 -0.00127,-0.01893 -0.022714,-0.031099 -0.022244,-0.044487 4.498e-4,-0.01893 0.024429,-0.028516 0.029605,-0.044487 0.00259,-0.00825 -0.00302,-0.019429 0,-0.02976 0.00601,-0.021988 0.02526,-0.034774 0.022244,-0.066731 -0.00127,-0.012934 -0.00689,-0.020708 -0.00736,-0.037124 -4.498e-4,-0.011218 0.00855,-0.01943 0.00736,-0.02976 -0.0013,-0.018574 -0.02747,-0.023292 -0.029605,-0.044487 -0.00259,-0.021991 0.015782,-0.041676 0.029605,-0.066731 0.00601,-0.011215 0.016642,-0.020795 0.022244,-0.02976 0.012089,-0.018132 0.027625,-0.033713 0.037124,-0.051851 0.00647,-0.013373 0.0013,-0.034666 0.00737,-0.044641 0.0082,-0.012937 0.029537,-0.020109 0.04464,-0.03697 0.012113,-0.013827 0.020963,-0.023467 0.029605,-0.02976 0.010795,-0.00772 0.025464,-0.016871 0.037124,-0.022244 0.040152,-0.01858 0.062185,-0.043348 0.081611,-0.081764 -0.00564,-0.034557 0.00799,-0.042596 0.022244,-0.066731 0.013385,-0.022439 0.022199,-0.053818 0.04464,-0.066731 0.027201,-0.01552 0.062612,-0.00868 0.081611,-0.037124 0.0095,-0.014632 0.01488,-0.044287 0.01488,-0.059367 0,-0.0211836 -0.018127,-0.0491784 -0.037124,-0.0518505 -0.01986,-0.003592 -0.048134,0.0211955 -0.059368,0 -0.00346,-0.006914 0.00167,-0.0216858 0,-0.0297603 -0.00254,-0.0142698 -0.021773,-0.0341567 -0.022244,-0.0444871 -0.0013,-0.0203761 0.023577,-0.0361879 0.029608,-0.0595207 0.00822,-0.0319534 0.00214,-0.0522622 0,-0.0889743 0.030225,-0.0479419 0.0963,-0.0267261 0.1632218,-0.0222435 0.00995,8.9165e-4 0.018955,0 0.02976,0 0.03972,8.0698e-4 0.07558,0.004797 0.088974,-0.0297603 0.00518,-0.0129252 0.00345,-0.054619 0,-0.0667306 C 3.343755,0.6081734 3.323628,0.5648862 3.310235,0.5559212 3.288648,0.5425391 3.248076,0.5508932 3.235988,0.5263144 3.245918,0.4835971 3.296467,0.5217644 3.324962,0.5114342 3.339593,0.5062122 3.334242,0.485419 3.347205,0.4818274 c 0.00906,-0.003236 0.032125,0.007056 0.044641,0.007056 0.010364,0 0.03456,-0.0224229 0.044487,-0.0296068 0.013822,-0.009078 0.017521,-0.0216853 0.029608,-0.0297603 0.00576,-0.003606 0.016687,-0.007091 0.02608,-0.0104325 A 2.116646,2.116646 0 0 0 3.449834,0.3870361 C 3.442154,0.3945661 3.434096,0.4014453 3.436332,0.4146488 3.40654,0.4378025 3.365954,0.4307513 3.3175972,0.4370458 c -0.022021,0.002672 -0.04341,0.0181372 -0.066731,0 -0.0052,-0.0142716 0.012589,-0.0159279 0.014727,-0.0297603 -0.00172,-0.0129434 -0.010832,-0.011467 -0.014727,-0.0222435 0.00646,-0.0167931 0.016388,-0.0120703 0.014727,-0.0371237 0.012089,-0.0130281 0.041194,-0.0120676 0.04464,-0.0297603 0.00262,-0.0121047 -0.00973,-0.0224235 -0.022244,-0.0296069 -0.00729,-0.00386 -0.014632,-0.0103981 -0.022397,-0.0148802 -0.00375,-0.002064 -0.0053,-0.004633 -0.0069,-0.00721 A 2.116646,2.116646 0 0 0 2.2319493,2e-8 Z M 1.345582,0.19727765 A 2.116646,2.116646 0 0 0 1.0682278,0.34991452 c -0.00348,0.006776 -0.00675,0.0137081 -0.00675,0.020402 0,0.0150733 0.028504,0.0360799 0.044487,0.0369705 0.022018,0.001799 0.050449,-0.0149728 0.059521,-0.0369705 0.010758,-0.0263869 0.00238,-0.0627359 0.022243,-0.0817642 0.075809,0.001958 0.1333349,-0.0319064 0.1578532,-0.0912747 z m 1.8236647,0.0616683 v 1.5319e-4 c 0.02677,-0.002514 0.057705,0.0137901 0.059367,0.0297603 0.00217,0.015965 -0.016185,0.0114697 -0.022243,0.0296072 -0.00552,0.0164253 -1.728e-4,0.0403376 -0.00752,0.0520039 -0.00648,0.008964 -0.017518,0.003619 -0.029605,0.00721 -0.027201,0.007779 -0.081993,0.0430226 -0.1040077,0.00721 0.00344,-0.0193781 0.015917,-0.0211535 0.022397,-0.0371237 4.498e-4,-0.0121047 -0.017015,-0.0163724 -0.01488,-0.0297603 0.00259,-0.0159702 0.026794,-0.0159517 0.044487,-0.0222435 0.012515,-0.004744 0.013351,-0.0196321 0.02976,-0.0296071 0.00698,-0.00359 0.01429,-0.005429 0.022245,-0.00721 z M 0.82201462,0.54136254 a 2.116646,2.116646 0 0 0 -0.0659635,0.0582935 c 0.0155284,6.9056e-4 0.0566488,-0.005125 0.0605945,-0.00675 0.0254492,-0.0109183 0.0181377,-0.0332672 0.00537,-0.0515436 z m 0.0539981,0.0664239 v 1.5711e-4 c -0.017277,-0.001246 -0.0306431,0.0143224 -0.0371237,0.022397 -8.9165e-4,0.013026 0.007834,0.0166939 0.007365,0.0296068 -0.0211659,0.0150802 -0.005851,0.0575859 0.0148812,0.0593672 0.0220208,0.001797 0.0300072,-0.0539942 0.0593673,-0.0593672 0.0103542,-0.002138 0.0153564,0.0166616 0.0296053,0.0148802 0.0172948,-0.0133734 0.0107818,-0.0475215 -0.007362,-0.0520039 -0.00692,-0.002434 -0.0254643,0.0081 -0.0371238,0.00721 -0.012088,-8.9165e-4 -0.0192511,-0.0216466 -0.0296083,-0.0222435 z m -0.0914285,0.0138065 c -8.3079e-4,3.3073e-4 -0.002048,9.2075e-4 -0.005061,9.2075e-4 v 3.0692e-4 c -0.0147656,-7.2231e-4 -0.0358063,6.7733e-4 -0.0495495,0.004756 a 2.116646,2.116646 0 0 0 -0.0204028,0.0219366 c -0.003259,0.009025 -0.006656,0.0187137 -0.0118118,0.0250047 -0.009927,0.0121087 -0.0209637,0.0189844 -0.0296053,0.0297603 -0.007742,0.009873 -0.0563537,0.0744266 -0.0222433,0.0816109 0.0146794,0.003051 0.0488344,-0.0329742 0.0518504,-0.0446406 0.009933,-0.0397636 0.0288661,-0.0630277 0.0595208,-0.0816108 0.0176924,-0.0107699 0.0265922,-0.0142362 0.0296083,-0.0371237 -0.001069,-0.001336 -0.001484,-0.001259 -0.002286,-9.2075e-4 z m 2.91896808,0.0598275 c -0.013832,8.0169e-4 -0.025892,0.0159499 -0.037124,0.0222435 -0.010353,0.005195 -0.019251,0.0150601 -0.029608,0.0222435 -0.012523,0.008075 -0.025464,0.006613 -0.037124,0.00721 -0.027198,0.001781 -0.050926,-0.0125831 -0.074247,-0.00721 -0.00777,0.001693 -0.00538,0.005915 -0.01488,0.0148802 -4.762e-4,0.0125807 0.00167,0.0159269 0,0.0297603 -0.00691,0.0120227 -0.036747,0.0141692 -0.051851,0.0222435 -0.02245,0.0116694 -0.03386,0.0338661 -0.052004,0.052004 -0.01166,0.0116605 -0.028097,0.0205528 -0.02976,0.0296068 -0.0013,0.006911 0.00918,0.0202311 0.00752,0.0297603 -0.00217,0.0103246 -0.024183,0.0280697 -0.037124,0.0371237 -0.00774,0.005136 -0.014028,0.0102444 -0.022244,0.0147267 -0.017277,0.009968 -0.022876,0.0270883 -0.037124,0.0297604 -0.037994,0.006914 -0.1118426,-0.0103627 -0.1113711,0.0297603 4.499e-4,0.026117 0.037353,0.030498 0.059367,0.029607 0.030654,-8.917e-4 0.050046,0.00448 0.066884,0 0.011657,-0.00297 0.032399,-0.016871 0.044487,-0.022244 0.00779,-0.00359 0.016211,-0.00454 0.022243,-0.00721 0.012967,-0.00647 0.019833,-0.0177609 0.029761,-0.0222435 0.01986,-0.009084 0.060451,-0.0213527 0.081611,-0.0222435 0.029362,-0.001781 0.051411,0.002672 0.088974,0 0.013383,-8.9165e-4 0.022876,-0.006319 0.037124,-0.00721 0.023746,-0.002434 0.062612,0.007807 0.081611,0.00721 0.013383,0 0.029086,-0.00721 0.044641,-0.00721 0.017703,4.4714e-4 0.033954,0.0110225 0.03697,0.0222435 0.00214,0.006109 -0.00167,0.0202311 0,0.0297604 0.00217,0.01552 0.01583,0.01943 0.014883,0.02976 -8.731e-4,0.013376 -0.041873,0.03588 -0.037124,0.051851 0.00302,0.00997 0.03298,0.022577 0.04464,0.02976 0.012089,0.00709 0.037174,0.00543 0.051851,0.00721 0.012089,0.00178 0.0181,-8.917e-4 0.02976,0 0.018566,0.00217 0.047707,0.014169 0.059367,0.022244 0.020294,0.014273 0.013377,0.043929 0.037124,0.052004 0.010361,0.00359 0.031544,-0.00267 0.044487,0 0.031516,0.00691 0.058741,0.032279 0.081611,0.029607 0.03624,-0.00431 0.017918,-0.03508 0.022243,-0.059214 7.938e-4,-0.00481 0.00228,-0.00831 0.00414,-0.011505 A 2.116646,2.116646 0 0 0 3.9759969,0.92134362 c -0.00511,0.008183 -0.011012,0.0145079 -0.020098,0.0128857 -0.00188,-0.0113347 0.00467,-0.0208912 0.00629,-0.0322149 A 2.116646,2.116646 0 0 0 3.91034,0.82945472 C 3.899849,0.82374472 3.889626,0.81907012 3.881655,0.81549502 3.868272,0.80946902 3.856617,0.79954492 3.844531,0.79325152 3.823372,0.78158212 3.783226,0.75810882 3.770284,0.74124762 3.75474,0.72060432 3.737661,0.68009902 3.703553,0.68188032 Z m -2.6544998,0.0210164 c -0.00553,5.5827e-4 -0.011779,0.001685 -0.017182,0.001685 -0.010806,0 -0.019833,-5.9796e-4 -0.029761,0 -0.006911,5.9795e-4 -0.0165169,-8.9165e-4 -0.0222433,0 -0.0057,8.9164e-4 -0.0144092,0.001836 -0.0148812,0.00721 0.0224512,0.0105974 0.0895794,0.0212585 0.0964911,-0.00721 -0.00217,-0.002244 -0.0069,-0.002244 -0.012426,-0.001685 z m 2.6650847,0.0506233 c 6.35e-4,-5.6621e-4 0.00148,-7.837e-5 0.0043,0.003068 0.00262,0.0181319 0.00241,0.0308302 -0.00752,0.0371238 -0.021159,-0.003859 -0.014248,-0.0326413 0,-0.0371238 0.00214,-8.9165e-4 0.00262,-0.002503 0.00322,-0.003068 z m -2.80498895,0.001995 c -0.003678,3.3867e-4 -0.007219,0.001074 -0.0108916,0.001074 v 4.6302e-4 c -0.0220208,0 -0.0552485,0.005429 -0.0742475,0.00721 -0.0146764,0.002167 -0.0332249,-1.9632e-4 -0.0297606,0.0222435 0.003022,0.017871 0.0282309,0.0125831 0.0446407,0.00721 0.0345417,-0.0107699 0.061757,-0.0202623 0.0816107,-0.0371238 -0.003871,-0.001333 -0.007674,-0.00141 -0.0113517,-0.001074 z m 2.79440405,0.0604401 c 0.020735,-0.005655 0.037974,0.0143354 0.02976,0.0592139 -0.00691,0.017871 -0.038182,0.0339565 -0.052004,0.00721 0.00475,-0.0210944 4.763e-4,-0.0350796 0,-0.0592138 0.00729,-0.007776 0.015333,-0.005429 0.022244,-0.00721 z m 0.1929821,0.11858104 c 0.018994,8.9164e-4 0.028931,0 0.044487,0 -0.00603,0.016428 -0.00193,0.0424749 -0.01488,0.0520039 -0.035837,-0.006462 -0.065628,-0.0111787 -0.081611,-0.0371237 0.011224,-0.008519 0.025487,-0.0156176 0.044487,-0.0147267 z M 0.280806,1.2723319 c -0.00971,0.022086 -0.0186227,0.044597 -0.0276128,0.067038 0.008824,-0.022501 0.0180295,-0.04485 0.0276128,-0.067038 z m -0.0773155,0.20326 c -0.00614,0.018956 -0.0115633,0.038187 -0.0171813,0.057373 0.005458,-0.019204 0.0111861,-0.03833 0.0171813,-0.057373 z M 0.13231111,1.8630898 A 2.116646,2.116646 0 0 0 0.11528331,2.1166665 2.116646,2.116646 0 0 0 1.084182,3.8926228 c 0.00184,-0.01351 0.00533,-0.030366 0.0069,-0.042186 0.00258,-0.023699 -0.00304,-0.069298 -0.00736,-0.089128 -0.00518,-0.025043 -0.034108,-0.047056 -0.037124,-0.074247 -0.00131,-0.00988 0.015834,-0.024503 0.014881,-0.036971 -8.598e-4,-0.011663 -0.013697,-0.016372 -0.014881,-0.02976 -9.498e-4,-0.012475 -0.00119,-0.029852 0,-0.044487 0.00214,-0.027198 -4.762e-4,-0.055018 0,-0.081764 4.763e-4,-0.0078 0,-0.021534 0,-0.029608 0,-0.022442 -0.00618,-0.036925 -0.00737,-0.059367 -0.00166,-0.041037 0.00648,-0.073403 0,-0.1113711 C 1.034078,3.2648317 1.027339,3.2228977 1.016985,3.2047597 1.00533,3.1844767 0.9582677,3.1583057 0.935374,3.1453927 0.9202642,3.1367827 0.9071432,3.1312247 0.8907336,3.1231497 0.8557615,3.1059177 0.78016717,3.0691807 0.76463576,3.0341757 c -0.004325,-0.010324 0.004747,-0.03342 0,-0.044641 -0.0095,-0.022439 -0.0377547,-0.038018 -0.052004,-0.059213 C 0.6858724,2.8893107 0.6731059,2.8385337 0.6459063,2.7967068 0.6320908,2.7751648 0.6165236,2.7542008 0.6014191,2.7373388 0.5923501,2.7274588 0.5677422,2.7152938 0.5642954,2.7002158 0.5595694,2.6799278 0.5399148,2.6485658 0.5420521,2.6334848 c 0.003022,-0.020744 0.0444872,-0.025458 0.0444872,-0.044487 0,-0.015962 -0.0179181,-0.031099 -0.0222433,-0.044487 -0.0108114,-0.033301 0.009277,-0.054127 0.0222433,-0.081764 0.003868,-0.00908 0.003037,-0.023312 0.007362,-0.029608 0.007789,-0.011663 0.0194053,-0.016847 0.0297603,-0.02976 0.006008,-0.00691 0.0144806,-0.019429 0.0222433,-0.029761 0.0164071,-0.021632 0.0450931,-0.032174 0.0520039,-0.052004 0.005602,-0.015968 0.00648,-0.091988 0,-0.1187343 C 0.6940378,2.1873635 0.6811128,2.1730275 0.675511,2.1583925 0.665578,2.1320915 0.6577918,2.0984285 0.6310241,2.0990255 c -0.0168495,0 -0.0263163,0.018093 -0.0371237,0.02976 -0.002553,0.015516 -0.006261,0.040005 -0.0222433,0.044487 -0.0246121,0.00736 -0.0308717,-0.035522 -0.0593673,-0.044487 -0.0112332,-0.00359 -0.022265,0.00267 -0.0296068,0 -0.0207231,-0.00951 -0.0299888,-0.039892 -0.0520039,-0.052004 -0.0181369,-0.00997 -0.0407709,-0.014528 -0.0520039,-0.029608 -0.004322,-0.010322 0.001188,-0.023291 0,-0.037123 C 0.3549266,1.9962265 0.3395783,1.9479145 0.3119444,1.9358025 0.2938122,1.9272825 0.2605906,1.9291525 0.2376969,1.9210755 0.2269152,1.9176655 0.2193228,1.9079755 0.2080901,1.9061945 0.1942804,1.9034945 0.1817722,1.9043545 0.1709664,1.8989845 0.1561842,1.8916245 0.1439285,1.8775195 0.1323086,1.8630855 Z m -0.0193289,0.036664 c -0.001045,0.00868 -0.001947,0.017402 -0.002915,0.026079 9.181e-4,-0.0087 0.001892,-0.017393 0.002915,-0.026079 z M 0.9353801,2.0622083 c -0.0155316,0.00736 -0.0159827,0.031542 0,0.02976 0.0168376,-0.00261 0.0207322,-0.039289 0,-0.02976 z m 0.1411316,1.8575671 c -0.405753,0.1947149 -0.8115062,0.3894298 0,0 z"
     id="path1391"
     inkscape:connector-curvature="0"
     inkscape:label="#" />
</svg>
