<?xml version="1.0" encoding="UTF-8" standalone="no"?><svg height="16" viewBox="0 0 4.2333332 4.2333332" width="16" xmlns="http://www.w3.org/2000/svg"><sodipodi:namedview/><metadata><rdf:RDF><cc:Work><dc:format>image/svg+xml</dc:format><dc:type/><dc:title/></cc:Work></rdf:RDF></metadata><path d="m1.8144531 0c-.7130369 0-1.28906248.57602592-1.28906248 1.2890625v9.5644535c0 .713035.57602558 1.287109 1.28906248 1.287109h2.7070313c1.8935381 2.820722 5.8730466 3.859375 5.8730466 3.859375-1.9853531-1.792804-2.3374734-2.635873-2.613281-3.859375h6.404297c.713037 0 1.289062-.574073 1.289062-1.287109v-9.5644535c0-.71303658-.576025-1.2890625-1.289062-1.2890625zm6.1523438 1.4921875a4.5178599 4.5178599 0 0 1 4.5175781 4.5175781 4.5178599 4.5178599 0 0 1 -4.5175781 4.5175784 4.5178599 4.5178599 0 0 1 -4.5175781-4.5175784 4.5178599 4.5178599 0 0 1 4.5175781-4.5175781zm0 1.5058594c-.4171507 0-.7519531.3367544-.7519531.7539062v.4414063l-.3125-.3125c-.2951668-.295166-.7692872-.295166-1.0644532 0-.295166.2951675-.295166.7692871 0 1.0644531l.3125.3125h-.4414062c-.4171499 0-.7539063.3348017-.7539063.7519531 0 .4171503.3367549.7539063.7539063.7539063h.4414062l-.3125.3105469c-.295166.2951671-.295166.7712402 0 1.0664062.2951672.295166.7692872.295166 1.0644532 0l .3125-.3125v.4414062c-.0000001.4171503.3348017.7519532.7519531.7519532.4171502 0 .7539062-.3348014.7539062-.7519532v-.4414062l.3105469.3125c.2951671.295166.7712403.295166 1.066406 0 .295166-.2951675.295166-.7712403 0-1.0664062l-.3124998-.3105469h.4414058c.417151 0 .751954-.3367549.751954-.7539063 0-.4171506-.334802-.7519531-.751954-.7519531h-.4414058l.3124998-.3125c.295166-.2951667.295166-.7692871 0-1.0644531-.2951673-.295166-.77124-.295166-1.066406 0l-.3105469.3125v-.4414063c0-.4171499-.3367548-.7539062-.7539062-.7539062z" fill="#d0d0d0" opacity=".99" stroke-linecap="square" stroke-width="3.921893" transform="scale(.26458333)"/></svg>