<?xml version="1.0" encoding="UTF-8" standalone="no"?><svg height="22" viewBox="0 0 22 22" width="22" xmlns="http://www.w3.org/2000/svg"><sodipodi:namedview/><metadata><rdf:RDF><cc:Work><dc:format>image/svg+xml</dc:format><dc:type/><dc:title/></cc:Work></rdf:RDF></metadata><path d="m11 .0009765c-3.9181556.00402885-7.5345558 2.0938177-9.5 5.4804688h9.5c2.620962-.0000002 4.799435 1.8508049 5.357422 4.3066406l3.240234-5.6152344c-2.081078-2.6231219-5.239718-4.16861722-8.597656-4.171875zm9.527344 5.5351562-4.748047 8.2246103-.01172-.0078c-.955954 1.648798-2.730471 2.767564-4.767577 2.767564-.569824 0-1.1100293-.110459-1.6269531-.273437l3.2402341 5.611328c5.372434-.796357 9.379739-5.399743 9.386719-10.857421-.004792-1.9193428-.514381-3.8024779-1.472656-5.4648443zm-19.75000025 1.4335938c-.50647976 1.2840395-.77714223 2.6493579-.77734375 4.0312505 0 6.067865 4.9134025 10.986285 10.978516 10.998046l-4.7578129-8.23828.019531-.01172c-.4731278-.811804-.7597654-1.743496-.7597653-2.748046-.0000001-1.5921646.6854738-3.022715 1.7695312-4.0312505zm10.22265625 0a4.0315924 4.0315924 0 0 0 -4.03125 4.0312505 4.0315924 4.0315924 0 0 0 4.03125 4.03125 4.0315924 4.0315924 0 0 0 4.03125-4.03125 4.0315924 4.0315924 0 0 0 -4.03125-4.0312505z" fill="#fff" stroke-width="1.071262"/></svg>