<?xml version="1.0" encoding="UTF-8" standalone="no"?><svg height="16" viewBox="0 0 4.2333332 4.2333332" width="16" xmlns="http://www.w3.org/2000/svg"><sodipodi:namedview/><metadata><rdf:RDF><cc:Work><dc:format>image/svg+xml</dc:format><dc:type/><dc:title/></cc:Work></rdf:RDF></metadata><path d="m2.1166666.00000105c-1.16927868 0-2.1170569.285536-2.1166667.637687.0005572.351948.94805803.63716995 2.1166667.63716995 1.1686088 0 2.1161095-.28522195 2.1166667-.63716995.0003902-.352151-.947388-.637687-2.1166667-.637687zm-2.1166667 1.13791495v2.457731.02687h.0031c.047427.341253.97947763.6106135 2.1135661.6108151 1.1336889-.0003684 2.0651235-.2696811 2.1125332-.6108141h.00413v-.02687-2.457731l-.0005292.000516c-.6353779.371179-1.4795945.438428-2.1171669.441317-.7665074-.008-1.4862087-.107752-2.1151164-.441317zm2.1081541.950906.2556624.543392.5961062.07556-.4379645.411168.1128956.590396-.5266997-.289487-.5266996.289487.1128956-.590396-.4379646-.411168.5961062-.07556z" fill="#d0d0d0" stroke-width=".573352"/></svg>