<?xml version="1.0" encoding="UTF-8" standalone="no"?><svg height="16" viewBox="0 0 4.2333333 4.2333333" width="16" xmlns="http://www.w3.org/2000/svg"><sodipodi:namedview/><metadata><rdf:RDF><cc:Work><dc:format>image/svg+xml</dc:format><dc:type/><dc:title/></cc:Work></rdf:RDF></metadata><path d="m2.1051012.00016224c-.095524.006967-.1780049.0695067-.2105144.15962078-.2680436.0296793-.5271128.11419829-.76109.24829879-.6078746.3511523-.98233165.99983869-.9823999 1.70184979h1.7751057l-.011307 1.0065329c0 .3946788-.2878723.6933721-.6369059.6933721-.3490335 0-.6369059-.2986933-.6369059-.6933721h-.42682966c0 .6087376.47145136 1.1168688 1.06372426 1.1168688s1.061233-.5081312 1.061233-1.1168688l-.018972-1.0065329h1.761997c-.0000679-.7020105-.3745237-1.35069678-.9823976-1.70184979-.2304156-.13288059-.4854037-.21761421-.7495233-.24906997-.035079-.0953805-.125874-.15878331-.2274787-.15884967-.0059-.00021625-.011822-.00021623-.017742.00000007z" fill="#d0d0d0" stroke-linejoin="round" stroke-width=".340126"/></svg>