<?xml version="1.0" encoding="UTF-8" standalone="no"?>
<!-- Created with Inkscape (http://www.inkscape.org/) -->

<svg
   xmlns:dc="http://purl.org/dc/elements/1.1/"
   xmlns:cc="http://creativecommons.org/ns#"
   xmlns:rdf="http://www.w3.org/1999/02/22-rdf-syntax-ns#"
   xmlns:svg="http://www.w3.org/2000/svg"
   xmlns="http://www.w3.org/2000/svg"
   xmlns:sodipodi="http://sodipodi.sourceforge.net/DTD/sodipodi-0.dtd"
   xmlns:inkscape="http://www.inkscape.org/namespaces/inkscape"
   width="16"
   height="16"
   viewBox="0 0 4.2333333 4.2333333"
   version="1.1"
   id="svg8"
   inkscape:version="0.92+devel (4546dc857e, 2017-07-25, custom)"
   sodipodi:docname="glyph-scammer.svg">
  <defs
     id="defs2" />
  <sodipodi:namedview
     id="base"
     pagecolor="#002466"
     bordercolor="#ffffff"
     borderopacity="0.38039216"
     inkscape:pageopacity="1"
     inkscape:pageshadow="2"
     inkscape:zoom="27.375"
     inkscape:cx="7.0778262"
     inkscape:cy="8.1940636"
     inkscape:document-units="px"
     inkscape:current-layer="svg8"
     inkscape:document-rotation="0"
     showgrid="false"
     inkscape:showpageshadow="false"
     borderlayer="true"
     inkscape:window-width="1920"
     inkscape:window-height="1051"
     inkscape:window-x="0"
     inkscape:window-y="0"
     inkscape:window-maximized="1"
     units="px"
     inkscape:snap-page="true"
     inkscape:snap-grids="false"
     inkscape:snap-to-guides="false" />
  <metadata
     id="metadata5">
    <rdf:RDF>
      <cc:Work
         rdf:about="">
        <dc:format>image/svg+xml</dc:format>
        <dc:type
           rdf:resource="http://purl.org/dc/dcmitype/StillImage" />
        <dc:title />
      </cc:Work>
    </rdf:RDF>
  </metadata>
  <path
     style="fill:#d0d0d0;stroke-width:0.34832731;stroke-linejoin:round"
     d="m 0.9963216,0.29182183 c -0.022883,0.001628 -0.045209,0.012224 -0.061495,0.0310059 -0.032573,0.0375654 -0.0277485,0.0945512 0.009819,0.12712401 L 3.9889038,3.0895839 c 0.037567,0.032573 0.094551,0.028784 0.1271241,-0.00879 0.032573,-0.037563 0.024387,-0.090038 -0.0093,-0.1266073 L 3.3150431,2.0953293 2.0241658,0.97601779 1.0619507,0.31404271 C 1.0431677,0.2977562 1.0192039,0.29019314 0.9963216,0.29182183 Z M 0.08991699,3.2766525 C 0.04019789,3.2766525 0,3.3163337 0,3.3660529 v 0.2924884 c 0,0.04972 0.04019789,0.0894 0.08991699,0.0894 H 0.59066162 A 0.20394287,0.20394287 0 0 0 0.79374999,3.9417282 0.20394287,0.20394287 0 0 0 0.99735512,3.7479416 H 3.2364949 A 0.20394287,0.20394287 0 0 0 3.4395833,3.9417282 0.20394287,0.20394287 0 0 0 3.6426716,3.7479416 h 0.5007446 c 0.049718,0 0.089917,-0.039681 0.089917,-0.0894 V 3.3660529 c 0,-0.04972 -0.040196,-0.0894 -0.089917,-0.0894 z M 3.0189371,3.3872402 C 3.088064,3.3870333 3.1442009,3.4431702 3.143994,3.5122971 3.1442006,3.5814234 3.0880634,3.6375609 3.0189371,3.637354 2.950143,3.6370902 2.8947078,3.5810914 2.8949136,3.5122971 2.8947075,3.4435025 2.9501428,3.3875039 3.0189371,3.3872402 Z m 0.4795573,0 c 0.068794,2.637e-4 0.1242292,0.056262 0.1240234,0.1250569 C 3.6227236,3.5810911 3.5672889,3.6370902 3.4984944,3.637354 3.429368,3.6375609 3.3732311,3.5814234 3.3734375,3.5122971 3.3732306,3.4431702 3.4293677,3.3870333 3.4984944,3.3872402 Z m 0.4790405,0 c 0.069127,-2.064e-4 0.1252638,0.05593 0.1250569,0.1250569 2.064e-4,0.069126 -0.05593,0.1252632 -0.1250569,0.1250569 C 3.9087409,3.6370902 3.8527889,3.5810914 3.8529947,3.5122971 3.8527889,3.4435025 3.9087409,3.3875039 3.9775349,3.3872402 Z"
     id="rect812"
     inkscape:connector-curvature="0" />
</svg>
