<?xml version="1.0" encoding="UTF-8" standalone="no"?>
<!-- Created with Inkscape (http://www.inkscape.org/) -->

<svg
   xmlns:dc="http://purl.org/dc/elements/1.1/"
   xmlns:cc="http://creativecommons.org/ns#"
   xmlns:rdf="http://www.w3.org/1999/02/22-rdf-syntax-ns#"
   xmlns:svg="http://www.w3.org/2000/svg"
   xmlns="http://www.w3.org/2000/svg"
   xmlns:sodipodi="http://sodipodi.sourceforge.net/DTD/sodipodi-0.dtd"
   xmlns:inkscape="http://www.inkscape.org/namespaces/inkscape"
   width="16"
   height="16"
   viewBox="0 0 4.2333332 4.2333332"
   version="1.1"
   id="svg8"
   inkscape:version="0.92+devel (7f3bd2b258, 2017-08-07, custom)"
   sodipodi:docname="glyph-twitter.svg">
  <defs
     id="defs2" />
  <sodipodi:namedview
     id="base"
     pagecolor="#002466"
     bordercolor="#ffffff"
     borderopacity="0.38039216"
     inkscape:pageopacity="1"
     inkscape:pageshadow="2"
     inkscape:zoom="25.25"
     inkscape:cx="8"
     inkscape:cy="8"
     inkscape:document-units="px"
     inkscape:current-layer="svg8"
     inkscape:document-rotation="0"
     showgrid="false"
     inkscape:showpageshadow="false"
     borderlayer="true"
     inkscape:window-width="1920"
     inkscape:window-height="1027"
     inkscape:window-x="0"
     inkscape:window-y="24"
     inkscape:window-maximized="1"
     units="px" />
  <metadata
     id="metadata5">
    <rdf:RDF>
      <cc:Work
         rdf:about="">
        <dc:format>image/svg+xml</dc:format>
        <dc:type
           rdf:resource="http://purl.org/dc/dcmitype/StillImage" />
        <dc:title></dc:title>
      </cc:Work>
    </rdf:RDF>
  </metadata>
  <path
     style="fill:#d0d0d0;stroke-width:0.01383966"
     d="m 2.9308716,0.39650191 c 0.249806,0 0.475546,0.1054655 0.633965,0.2742618 0.19784,-0.038944 0.383685,-0.1112229 0.551521,-0.2107645 -0.06486,0.202819 -0.202565,0.373044 -0.381868,0.480531 0.175681,-0.021008 0.343038,-0.067704 0.498811,-0.1367764 -0.116432,0.174162 -0.263683,0.32712299 -0.433398,0.44956689 0.0016,0.037259 0.0026,0.074721 0.0026,0.1123738 0,1.1477122 -0.873604,2.4711368 -2.471113,2.4711368 -0.490472,0 -0.947001,-0.1437719 -1.331357,-0.3902233 0.06795,0.00807 0.137095,0.012144 0.207201,0.012144 0.40692,0 0.7814,-0.1388296 1.078644,-0.3717925 -0.380058,-0.00699 -0.700782,-0.2581196 -0.811311,-0.6031521 0.05304,0.01016 0.107444,0.01561 0.163412,0.01561 0.07921,0 0.155933,-0.010636 0.228802,-0.030472 -0.397305,-0.079803 -0.696677,-0.4308309 -0.696677,-0.8516349 0,-0.00365 -9e-6,-0.0073 7.5e-5,-0.010901 0.117087,0.065053 0.250999,0.1041241 0.393369,0.108638 -0.233048,-0.1557497 -0.386365,-0.421595 -0.386365,-0.72292109 0,-0.1591707 0.04285,-0.3083692 0.117608,-0.4366419 0.428358,0.52547069 1.068321,0.87123339 1.790136,0.90746549 -0.01482,-0.063574 -0.02249,-0.1298655 -0.02249,-0.1979375 0,-0.47963929 0.388845,-0.86849209 0.868492,-0.86849209 z"
     id="rect848"
     inkscape:connector-curvature="0" />
</svg>
