<?xml version="1.0" encoding="UTF-8" standalone="no"?>
<!-- Created with Inkscape (http://www.inkscape.org/) -->

<svg
   xmlns:dc="http://purl.org/dc/elements/1.1/"
   xmlns:cc="http://creativecommons.org/ns#"
   xmlns:rdf="http://www.w3.org/1999/02/22-rdf-syntax-ns#"
   xmlns:svg="http://www.w3.org/2000/svg"
   xmlns="http://www.w3.org/2000/svg"
   xmlns:sodipodi="http://sodipodi.sourceforge.net/DTD/sodipodi-0.dtd"
   xmlns:inkscape="http://www.inkscape.org/namespaces/inkscape"
   width="22"
   height="22"
   viewBox="0 0 22 22"
   version="1.1"
   id="svg8"
   inkscape:version="0.92+devel 15687 custom"
   sodipodi:docname="glyph-paperclip.svg">
  <defs
     id="ol-defs">
    <style
       id="current-color-scheme">      .ColorScheme-Text {
        color:#d0d0d0;
        stop-color:#d0d0d0;
      }
      .ColorScheme-Background {
        color:#212121;
        stop-color:#212121;
      }
      .ColorScheme-Highlight {
        color:#0039a9;
        stop-color:#0039a9;
      }
      .ColorScheme-ViewText {
        color:#d0d0d0;
        stop-color:#d0d0d0;
      }
      .ColorScheme-ViewBackground {
        color:#19191b;
        stop-color:#19191b;
      }
      .ColorScheme-ViewHover {
        color:#005cc7;
        stop-color:#005cc7;
      }
      .ColorScheme-ViewFocus{
        color:#002466;
        stop-color:#002466;
      }
      .ColorScheme-ButtonText {
        color:#d0d0d0;
        stop-color:#d0d0d0;
      }
      .ColorScheme-ButtonBackground {
        color:#232323;
        stop-color:#232323;                             
      }                                                 
      .ColorScheme-ButtonHover {                        
        color:#005cc7;                                  
        stop-color:#005cc7;                             
      }                                                 
      .ColorScheme-ButtonFocus{                         
        color:#0039a9;                                  
        stop-color:#0039a9;                             
      }</style>
  </defs>
  <sodipodi:namedview
     id="base"
     pagecolor="#002266"
     bordercolor="#ffffff"
     borderopacity="0.46666667"
     inkscape:pageopacity="0"
     inkscape:pageshadow="2"
     inkscape:zoom="13.081476"
     inkscape:cx="16.621911"
     inkscape:cy="12.794693"
     inkscape:document-units="px"
     inkscape:current-layer="svg8"
     inkscape:document-rotation="0"
     showgrid="false"
     inkscape:showpageshadow="false"
     borderlayer="true"
     units="px"
     fit-margin-top="0"
     fit-margin-left="0"
     fit-margin-right="0"
     fit-margin-bottom="0"
     inkscape:window-width="1920"
     inkscape:window-height="1051"
     inkscape:window-x="0"
     inkscape:window-y="0"
     inkscape:window-maximized="1" />
  <metadata
     id="metadata5">
    <rdf:RDF>
      <cc:Work
         rdf:about="">
        <dc:format>image/svg+xml</dc:format>
        <dc:type
           rdf:resource="http://purl.org/dc/dcmitype/StillImage" />
        <dc:title />
      </cc:Work>
    </rdf:RDF>
  </metadata>
  <path
     inkscape:connector-curvature="0"
     d="m 20.530962,3.6789157 c -1.961788,-2.0318411 -5.142481,-2.0318407 -7.104293,5e-7 l -8.5751045,8.8813118 0.00288,0.003 c -1.1293217,1.225836 -1.1083969,3.16088 0.04718,4.36018 1.1770773,1.21911 3.0854977,1.21911 4.2625763,1e-6 L 16.978912,8.8296017 15.558028,7.357979 7.7433037,15.451758 c -0.3923588,0.406369 -1.0284992,0.40637 -1.4208584,0 -0.3923585,-0.40637 -0.3923581,-1.065228 -2e-7,-1.471596 L 14.847599,5.1505853 c 1.177077,-1.2191101 3.085497,-1.2191097 4.262576,4e-7 1.177077,1.2191095 1.177078,3.1956776 0,4.4147877 L 10.585022,18.394951 C 8.6232248,20.4268 5.4425253,20.4268 3.4807275,18.39495 1.5189317,16.3631 1.5189313,13.06882 3.4807277,11.036971 L 12.71631,1.4715957 11.295452,2.4999996e-8 2.0598696,9.5653743 c -2.74651997,2.8445957 -2.74653131,7.4565877 -7e-7,10.3011707 2.7465087,2.844607 7.1995029,2.844607 9.9460111,0 l 8.575106,-8.881312 -0.0028,-0.0029 c 1.914021,-2.0386177 1.892948,-5.2912042 -0.0471,-7.3032649 z"
     id="path4"
     style="fill:#d0d0d0" />
</svg>
