<?xml version="1.0" encoding="UTF-8" standalone="no"?><svg height="16" viewBox="0 0 4.2333332 4.2333332" width="16" xmlns="http://www.w3.org/2000/svg"><sodipodi:namedview/><metadata><rdf:RDF><cc:Work><dc:format>image/svg+xml</dc:format><dc:type/><dc:title/></cc:Work></rdf:RDF></metadata><path d="m13.904297 0c .623579 0 1.658203.34308081 1.658203 1.0800781 0 .3602707-.296114.6875-.722656.6875-.967393 0-.656995-1.12890622-1.263672-1.12890622-1.378812 0-1.944902 3.12026402-2.240234 4.25000002h1.779296l-.222656.4453125h-1.662109l-1.917969 6.8496096c-.3771719 1.375698-1.2959768 3.816406-3.0839844 3.816406-.9344791 0-1.3945312-.621704-1.3945312-1.162109 0-.409195.2633926-.78711.8046875-.78711.2788773 0 .6542969.181676.6542969.476563 0 .261974-.2285157.441982-.2285157.6875v.01563c0 .130768.1145965.228515.2128907.228515.7054178 0 1.2147836-2.063205 1.3789062-2.734375l2.1230469-7.3906296-2.9433594.0039062-1.9199219 6.8457034c-.3771719 1.375698-1.2959764 3.816406-3.0839844 3.816406-.93447834 0-1.3945312-.623657-1.3945312-1.164062 0-.409196.26339254-.785156.8046875-.785157.2788774 0 .65625.179723.65625.47461 0 .261974-.2304687.441982-.2304687.6875v.01758c0 .130764.1145964.228515.2128906.228515.7054178 0 1.214784-2.06276 1.3789062-2.734375l2.1152344-7.3925798-1.8222656.0019532.2226562-.4453125h1.7246094c.5902205-1.9325606 1.4180071-4.65820315 3.8945312-4.65820315.6235788 0 1.6562498.34308081 1.6562498 1.08007815 0 .3602706-.294161.6875-.720703.6875-.9673927 0-.6569944-1.1308594-1.2636718-1.1308594-1.3774775 0-1.8218552 2.8917484-2.1171874 4.0214844h2.9394531c.5897761-1.9321157 1.4897301-4.8886719 4.0156251-4.8886719z" fill="#d0d0d0" stroke-linecap="round" stroke-width=".7" transform="scale(.26458333)"/></svg>