<?xml version="1.0" encoding="UTF-8" standalone="no"?><svg height="22" viewBox="0 0 5.8208332 5.8208335" width="22" xmlns="http://www.w3.org/2000/svg"><sodipodi:namedview/><metadata><rdf:RDF><cc:Work><dc:format>image/svg+xml</dc:format><dc:type/><dc:title/></cc:Work></rdf:RDF></metadata><g transform="matrix(.2238782 0 0 .2238782 .447756 .895513)"><path d="m32 8c-8.209245 0-14.820312 6.611068-14.820312 14.820312v24.150391h2.765624v9.029297h24.109376v-9.029297h2.765624v-24.150391c0-8.209244-6.611066-14.820312-14.820312-14.820312zm-.761328 2.90625 4.408203 7.580078-2.876953.01172.0332 10.662109 5.496094-1.990234-.0039-.896484-1.992187.0059-.02148-6.681641 6.679687-.02148.02148 6.68164-2.130859.0078.0078 1.794922c.0018.540134-.335863 1.023188-.84375 1.207031l-7.203125 2.611328.01563 5.285156c1.413827.546998 2.34845 1.903985 2.355468 3.419922.0066 2.034783-1.637094 3.689893-3.671875 3.697266-2.034783.0066-3.689892-1.637094-3.697265-3.671875-.0054-1.516258.918412-2.881085 2.328125-3.439453l-.0059-2.00586-6.130859-2.544921c-.476406-.197597-.787534-.661979-.789062-1.177735l-.0098-3.082031c-1.543386-.473898-2.59861-1.897223-2.603516-3.511719-.0056-2.034781 1.639049-3.689014 3.673828-3.695312 2.034783-.0066 3.689893 1.637094 3.697266 3.671875.0032 1.467427-.864437 2.796934-2.208984 3.384765l.0078 2.373047 4.482422 1.861328-.0059-1.455078c-.000161-.01172-.000161-.02344 0-.03516l-.03906-12.449219-3.333984.01172z" fill="#d0d0d0" opacity=".6" stroke-linecap="round" stroke-linejoin="round" stroke-width=".942972" transform="matrix(.54166668 0 0 .54166668 -6.333334 -8.333334)"/><path d="m4.4707031 17.109375v4.890625h2.0117188v-4.890625zm3.6816407 0v4.890625h2.0117182v-4.890625zm3.6835942 0v4.890625h2.011718v-4.890625zm3.68164 0v4.890625h2.011719v-4.890625z" fill="#d0d0d0" stroke-linecap="round" stroke-linejoin="round" stroke-width=".7"/></g></svg>