<?xml version="1.0" encoding="UTF-8" standalone="no"?><svg height="16" viewBox="0 0 4.2333332 4.2333332" width="16" xmlns="http://www.w3.org/2000/svg"><sodipodi:namedview/><metadata><rdf:RDF><cc:Work><dc:format>image/svg+xml</dc:format><dc:type/><dc:title/></cc:Work></rdf:RDF></metadata><path d="m1.7638888.82314813c-.0764351.19943697-.0900392.37360637-.2857133.49425627-.50176742.2428287-.889507.7906779-.89021255 1.3872251 0 .8443148.68438885 1.5287037 1.52870375 1.5287037v-.3527779-.3527776-.3527779-.9407406-.3527778-.3527778a1.1759259 1.1759259 0 0 0 -.2335776.023427 1.1759259 1.1759259 0 0 0 -.3302698.1205783 1.1759259 1.1759259 0 0 0 -.09853.060404c.031786-.021713.064608-.041834.09853-.060404.1018756-.055773.2129042-.096923.3302698-.1205783.075503-.015218.1535895-.023427.2335776-.023427v-.58796297c-.1429927-.010936-.2492964-.0570324-.3527779-.1175925zm-.3284324.92397447a1.1759259 1.1759259 0 0 0 -.072577.055351c.023329-.019512.047764-.037666.072577-.055351zm-.1054199.085209a1.1759259 1.1759259 0 0 0 -.049839.046394c.015957-.01616.032974-.031175.049839-.046394zm-.086816.087046a1.1759259 1.1759259 0 0 0 -.040652.046164c.012922-.015963.026926-.030907.040652-.046164zm-.068443.083142a1.1759259 1.1759259 0 0 0 -.042719.059944c.013456-.020591.028034-.040277.042719-.059944zm-.060404.089343a1.1759259 1.1759259 0 0 0 -.040422.07051c.012566-.024116.02627-.04741.040422-.07051zm-.0564995.1035823a1.1759259 1.1759259 0 0 0 -.032843.073266c.00997-.024946.021246-.049196.032843-.073266zm-.045016.1067981a1.1759259 1.1759259 0 0 0 -.0254937.076251c.007468-.025905.0163258-.051115.0254937-.076251zm-.0355993.1157552a1.1759259 1.1759259 0 0 0 -.0158475.07051c.004432-.023835.0100001-.047203.0158475-.07051zm-.0236564.1219563a1.1759259 1.1759259 0 0 0 -.008039.065457c.001846-.022077.004988-.043744.008039-.065457zm-.0128617.1646756a1.1759259 1.1759259 0 0 0  .0234267.2335775 1.1759259 1.1759259 0 0 0  .1205782.3302698 1.1759259 1.1759259 0 0 0  .060404.09853c-.0217129-.0317867-.0418333-.0646094-.0604039-.0985306-.0557729-.1018757-.0969235-.2129042-.12057831-.3302698-.01521751-.0755028-.02342665-.1535894-.02342669-.2335769zm.2184191.6812103a1.1759259 1.1759259 0 0 0  .055351.072577c-.019513-.023328-.037666-.047764-.055351-.072577zm.085209.1054198a1.1759259 1.1759259 0 0 0  .046394.049839c-.01616-.015957-.031175-.032974-.046394-.049839zm.087046.086816a1.1759259 1.1759259 0 0 0  .046164.040652c-.015963-.012923-.030908-.026927-.046164-.040652zm.083142.068443a1.1759259 1.1759259 0 0 0  .059944.042719c-.0205907-.013456-.0402771-.028034-.059944-.042719zm.089343.060404a1.1759259 1.1759259 0 0 0  .07051.040423c-.024116-.012566-.04741-.02627-.07051-.040423zm.1035825.056499a1.1759259 1.1759259 0 0 0  .073266.032843c-.024946-.00997-.049197-.021246-.073266-.032843zm.106798.045016a1.1759259 1.1759259 0 0 0  .076251.025494c-.025905-.00747-.051115-.016326-.076251-.025494zm.1157552.035599a1.1759259 1.1759259 0 0 0  .07051.015848c-.023835-.00443-.047203-.01-.07051-.015848zm.1219563.023656a1.1759259 1.1759259 0 0 0  .065457.00804c-.022077-.00185-.043743-.00499-.065457-.00804z" fill="#d0d0d0" image-rendering="optimizeSpeed" opacity=".6" stroke-width=".264583"/><path d="m6.4121094 0c-.0080126.02445732-.0157017.0494223-.0214844.0703125-.4619293 1.5279986.0227842 2.54146 1.4550781 3.0410156.4191111-1.1711108-.0193334-2.18146037-1.3242187-3.0410156-.0311055-.02088945-.0702633-.0458681-.109375-.0703125zm3.3671875 1.3339844c-.987111.2840001-1.4290255.8795657-1.3183594 1.7773437.7711106-.1982222 1.2108038-.7893438 1.3183594-1.7773437zm-.4453125 1.7773437c-.348.1871112-.8770954.4771374-1.3339844.4433594v12.4453125a5.7777779 5.7777779 0 0 0 5.777344-5.777344 5.7777779 5.7777779 0 0 0 -3.41211-5.2636716c-.5688888-.384-.9481386-1.0672119-1.0312496-1.8476563z" fill="#d0d0d0" image-rendering="optimizeSpeed" transform="scale(.26458333)"/></svg>