<?xml version="1.0" encoding="UTF-8" standalone="no"?>
<!-- Created with Inkscape (http://www.inkscape.org/) -->

<svg
   xmlns:dc="http://purl.org/dc/elements/1.1/"
   xmlns:cc="http://creativecommons.org/ns#"
   xmlns:rdf="http://www.w3.org/1999/02/22-rdf-syntax-ns#"
   xmlns:svg="http://www.w3.org/2000/svg"
   xmlns="http://www.w3.org/2000/svg"
   xmlns:sodipodi="http://sodipodi.sourceforge.net/DTD/sodipodi-0.dtd"
   xmlns:inkscape="http://www.inkscape.org/namespaces/inkscape"
   width="22"
   height="22"
   viewBox="0 0 5.8208332 5.8208335"
   version="1.1"
   id="svg8"
   inkscape:version="0.92+devel 15739 custom"
   sodipodi:docname="glyph-info.svg">
  <defs
     id="defs2" />
  <sodipodi:namedview
     id="base"
     pagecolor="#002466"
     bordercolor="#ffffff"
     borderopacity="0.32156863"
     inkscape:pageopacity="1"
     inkscape:pageshadow="2"
     inkscape:zoom="19.090909"
     inkscape:cx="11"
     inkscape:cy="11"
     inkscape:document-units="px"
     inkscape:current-layer="svg8"
     inkscape:document-rotation="0"
     showgrid="false"
     units="px"
     inkscape:pagecheckerboard="false"
     borderlayer="true"
     inkscape:showpageshadow="false"
     inkscape:window-width="1920"
     inkscape:window-height="1051"
     inkscape:window-x="0"
     inkscape:window-y="0"
     inkscape:window-maximized="1"
     inkscape:snap-page="true" />
  <metadata
     id="metadata5">
    <rdf:RDF>
      <cc:Work
         rdf:about="">
        <dc:format>image/svg+xml</dc:format>
        <dc:type
           rdf:resource="http://purl.org/dc/dcmitype/StillImage" />
        <dc:title></dc:title>
        <cc:license
           rdf:resource="http://creativecommons.org/licenses/by/4.0/" />
        <dc:creator>
          <cc:Agent>
            <dc:title>PixelPimps &amp; CodePoets</dc:title>
          </cc:Agent>
        </dc:creator>
      </cc:Work>
      <cc:License
         rdf:about="http://creativecommons.org/licenses/by/4.0/">
        <cc:permits
           rdf:resource="http://creativecommons.org/ns#Reproduction" />
        <cc:permits
           rdf:resource="http://creativecommons.org/ns#Distribution" />
        <cc:requires
           rdf:resource="http://creativecommons.org/ns#Notice" />
        <cc:requires
           rdf:resource="http://creativecommons.org/ns#Attribution" />
        <cc:permits
           rdf:resource="http://creativecommons.org/ns#DerivativeWorks" />
      </cc:License>
    </rdf:RDF>
  </metadata>
  <path
     style="fill:#d0d0d0;stroke-width:0.40000001;stroke-linecap:round"
     d="M 11 0 A 11 11 0 0 0 0 11 A 11 11 0 0 0 11 22 A 11 11 0 0 0 22 11 A 11 11 0 0 0 11 0 z M 12.394531 2.515625 C 12.895334 2.515625 13.315043 2.6878253 13.654297 3.0351562 C 14.001628 3.3824872 14.175781 3.8041497 14.175781 4.296875 C 14.175781 4.7896004 14.001628 5.2093096 13.654297 5.5566406 C 13.306966 5.9039714 12.887257 6.0761719 12.394531 6.0761719 C 11.909883 6.0761719 11.493815 5.9039714 11.146484 5.5566406 C 10.799154 5.2093096 10.625 4.7896004 10.625 4.296875 C 10.625 3.8041497 10.793559 3.3824872 11.132812 3.0351562 C 11.480144 2.6878253 11.901806 2.515625 12.394531 2.515625 z M 12.417969 8.0878906 L 13.144531 8.0878906 L 10.662109 16.703125 C 10.524792 17.19585 10.455078 17.518403 10.455078 17.671875 C 10.455078 17.760727 10.491755 17.845005 10.564453 17.925781 C 10.637151 17.998479 10.714148 18.035156 10.794922 18.035156 C 10.93224 18.035156 11.069715 17.974677 11.207031 17.853516 C 11.570517 17.554649 12.006745 17.013983 12.515625 16.230469 L 12.927734 16.472656 C 11.708037 18.597027 10.410279 19.660156 9.0371094 19.660156 C 8.5120743 19.660156 8.0923649 19.513445 7.7773438 19.222656 C 7.4704 18.92379 7.3164062 18.548041 7.3164062 18.095703 C 7.3164062 17.796837 7.3861197 17.417447 7.5234375 16.957031 L 9.2070312 11.166016 C 9.3685809 10.60867 9.4492187 10.188961 9.4492188 9.90625 C 9.4492188 9.7285467 9.3722215 9.5709115 9.21875 9.4335938 C 9.0652785 9.296276 8.8564005 9.2265625 8.5898438 9.2265625 C 8.4686822 9.2265625 8.3219707 9.2321462 8.1523438 9.2402344 L 8.3105469 8.7539062 L 12.417969 8.0878906 z "
     transform="scale(0.26458333)"
     id="path811"
     inkscape:label="#" />
</svg>
