<?xml version="1.0" encoding="UTF-8" standalone="no"?><svg height="22" viewBox="0 0 5.8208332 5.8208335" width="22" xmlns="http://www.w3.org/2000/svg"><sodipodi:namedview/><metadata><rdf:RDF><cc:Work><dc:format>image/svg+xml</dc:format><dc:type/><dc:title/></cc:Work></rdf:RDF></metadata><path d="m2.0048614.00002668c-.301754 0-.545856.23911001-.545856.53304001 0 .20852.122404.38858.300325.47683002l.120986 2.18985c.0064.10817.09536.19216.20283.19216h1.532969c.07971 0 .1523.047.185038.11955l.656889 1.45683c.04626.10176.165823.14731.268299.10176l.545869-.2441c.102483-.0456.148012-.16583.102472-.26831l-.02704-.0612c-.04555-.10249-.165838-.14802-.268313-.10249l-.300325.13451-.671832-1.48954c-.03274-.0726-.105329-.11957-.185037-.11957h-1.583496l-.01992-.36012h1.050442c.111727 0 .20283-.0904.20283-.20283v-.0669c0-.11174-.09038-.20283-.20283-.20283h-1.076782l-.05908-1.06753c.187173-.0847.317422-.26972002.317422-.48465002 0-.29535-.244123-.53447001-.545869-.53447001zm-.695963 2.38104002c-.01972-.0002-.04001.005-.05842.018-.49533096.33663-.82127496.90383-.82197996 1.54576-.0014 1.03194.84049496 1.87599 1.87243596 1.87599.663289 0 1.24616-.34587 1.579228-.86611.03701-.0576.04127-.13025.01351-.19216l-.119554-.26472c-.1557116-.3371122-.139799-.3193241-.2849927-.6013697-.0850716-.1652557-.0923899-.1581802-.2534494-.1575177l-1.2776695.00526c-.4068112.0016694-.4415789-.375769-.4451389-.437009l-.0306351-.8032191c-.0031-.0573-.1229198-.1224145-.1733288-.1229145z" fill="#d0d0d0" stroke-width=".264583"/></svg>