<?xml version="1.0" encoding="UTF-8" standalone="no"?><svg height="22" viewBox="0 0 22 22" width="22" xmlns="http://www.w3.org/2000/svg"><sodipodi:namedview/><metadata><rdf:RDF><cc:Work><dc:format>image/svg+xml</dc:format><dc:type/><dc:title/></cc:Work></rdf:RDF></metadata><path d="m11-.00000013a2.4552625 2.4552625 0 0 0 -2.455643 2.45566643 2.4552625 2.4552625 0 0 0 2.455643 2.4545756 2.4552625 2.4552625 0 0 0 2.455643-2.4545756 2.4552625 2.4552625 0 0 0 -2.455643-2.45566643zm0 8.54489153a2.4552625 2.4552625 0 0 0 -2.455643 2.4556406 2.4552625 2.4552625 0 0 0 2.455643 2.454576 2.4552625 2.4552625 0 0 0 2.455643-2.454576 2.4552625 2.4552625 0 0 0 -2.455643-2.4556406zm0 8.5448926a2.4552625 2.4552625 0 0 0 -2.455643 2.455614 2.4552625 2.4552625 0 0 0 2.455643 2.454602 2.4552625 2.4552625 0 0 0 2.455643-2.454602 2.4552625 2.4552625 0 0 0 -2.455643-2.455614z" fill="#d0d0d0" stroke-width="1.086681"/></svg>