<?xml version="1.0" encoding="UTF-8" standalone="no"?>
<!-- Created with Inkscape (http://www.inkscape.org/) -->

<svg
   xmlns:dc="http://purl.org/dc/elements/1.1/"
   xmlns:cc="http://creativecommons.org/ns#"
   xmlns:rdf="http://www.w3.org/1999/02/22-rdf-syntax-ns#"
   xmlns:svg="http://www.w3.org/2000/svg"
   xmlns="http://www.w3.org/2000/svg"
   xmlns:sodipodi="http://sodipodi.sourceforge.net/DTD/sodipodi-0.dtd"
   xmlns:inkscape="http://www.inkscape.org/namespaces/inkscape"
   width="16"
   height="16"
   viewBox="0 0 4.2333332 4.2333332"
   version="1.1"
   id="svg8"
   inkscape:version="0.92+devel (4546dc857e, 2017-07-25, custom)"
   sodipodi:docname="glyph-orange.svg">
  <defs
     id="defs2" />
  <sodipodi:namedview
     id="base"
     pagecolor="#002466"
     bordercolor="#ffffff"
     borderopacity="0.38039216"
     inkscape:pageopacity="1"
     inkscape:pageshadow="2"
     inkscape:zoom="25.75"
     inkscape:cx="8"
     inkscape:cy="8"
     inkscape:document-units="px"
     inkscape:current-layer="svg8"
     inkscape:document-rotation="0"
     showgrid="false"
     inkscape:showpageshadow="false"
     borderlayer="true"
     inkscape:window-width="1920"
     inkscape:window-height="1051"
     inkscape:window-x="0"
     inkscape:window-y="0"
     inkscape:window-maximized="1"
     units="px"
     inkscape:snap-center="true"
     inkscape:snap-intersection-paths="true"
     inkscape:object-paths="true"
     showguides="false" />
  <metadata
     id="metadata5">
    <rdf:RDF>
      <cc:Work
         rdf:about="">
        <dc:format>image/svg+xml</dc:format>
        <dc:type
           rdf:resource="http://purl.org/dc/dcmitype/StillImage" />
        <dc:title />
      </cc:Work>
    </rdf:RDF>
  </metadata>
  <path
     style="font-variation-settings:normal;vector-effect:none;fill:#d0d0d0;stroke:none;stroke-width:0.69999999;stroke-miterlimit:4;stroke-dasharray:none"
     d="M 8 0 A 7.9999998 7.9999998 0 0 0 0 8 A 7.9999998 7.9999998 0 0 0 8 16 A 7.9999998 7.9999998 0 0 0 16 8 A 7.9999998 7.9999998 0 0 0 8 0 z M 7.9433594 0.98046875 C 8.6371121 0.96507266 9.3291934 1.0652046 9.8925781 1.4082031 C 10.114822 1.5435085 10.277267 1.7770693 10.419922 2.0195312 C 10.680923 1.9646638 10.946288 1.9168002 11.191406 1.9726562 C 11.835387 2.1194027 12.418267 2.5159989 12.919922 2.9960938 C 13.421579 3.4761887 13.842755 4.0306607 13.998047 4.671875 C 14.059341 4.9249231 14.014212 5.2080944 13.943359 5.4804688 C 14.166649 5.6260709 14.38373 5.779546 14.517578 5.9921875 C 14.869312 6.5509846 15.004251 7.2437118 15.019531 7.9375 C 15.034827 8.6312898 14.933518 9.3296436 14.589844 9.8925781 C 14.454272 10.114645 14.221086 10.277578 13.978516 10.419922 C 14.031104 10.677897 14.08049 10.939356 14.025391 11.181641 C 13.878943 11.825634 13.481749 12.418226 13.001953 12.919922 C 12.522157 13.421619 11.96725 13.832952 11.326172 13.988281 C 11.073033 14.049627 10.790071 14.004607 10.517578 13.933594 C 10.371888 14.156867 10.220532 14.373995 10.007812 14.507812 C 9.4488185 14.859481 8.758498 15.004262 8.0644531 15.019531 C 7.3704064 15.034821 6.6705458 14.921722 6.1074219 14.578125 C 5.8856747 14.442825 5.7225021 14.220439 5.5800781 13.978516 C 5.319279 14.03336 5.0535412 14.081124 4.8085938 14.025391 C 4.1647474 13.878907 3.579527 13.48179 3.078125 13.001953 C 2.5767233 12.522117 2.1648136 11.957505 2.0097656 11.316406 C 1.9486034 11.06343 1.9837518 10.780078 2.0546875 10.507812 C 1.8360637 10.362765 1.6222026 10.207637 1.4902344 9.9980469 C 1.1383212 9.439139 0.9960593 8.7487293 0.98046875 8.0546875 C 0.96483972 7.3606464 1.064861 6.6706418 1.4082031 6.1074219 C 1.5446321 5.8836209 1.7743877 5.7128649 2.0195312 5.5703125 C 1.9669316 5.3124932 1.9175659 5.050699 1.9726562 4.8085938 C 2.1191389 4.1647474 2.5162558 3.5795268 2.9960938 3.078125 C 3.4759303 2.5767241 4.0424933 2.1589539 4.6835938 2.0039062 C 4.9337989 1.9433954 5.2110497 1.9864159 5.4804688 2.0546875 C 5.6261204 1.8307628 5.7850108 1.6165801 5.9980469 1.4824219 C 6.5568493 1.1305175 7.2493447 0.99589251 7.9433594 0.98046875 z M 7.9628906 1.8964844 C 6.9366109 1.9192598 5.9012493 2.3647691 6.2285156 3.1933594 L 8 7.2871094 L 9.640625 3.1386719 C 10.006036 2.2734541 8.9891703 1.8737089 7.9628906 1.8964844 z M 10.783203 2.9003906 C 10.507948 2.9094104 10.277465 3.0431166 10.144531 3.3496094 L 8.5039062 7.4960938 L 12.597656 5.7226562 C 14.011708 5.148354 11.975987 2.8613017 10.783203 2.9003906 z M 5.1015625 2.921875 C 3.9516287 2.8708491 2.0214743 5.2794226 3.3496094 5.8554688 L 7.4941406 7.4960938 L 5.7226562 3.4023438 C 5.5901248 3.0760238 5.3669307 2.933652 5.1015625 2.921875 z M 13.099609 6.1660156 C 13.008064 6.1670089 12.910215 6.1876211 12.806641 6.2285156 L 8.7128906 8 L 12.861328 9.640625 C 14.483612 10.325771 14.47278 6.1511243 13.099609 6.1660156 z M 2.8359375 6.2851562 C 1.430204 6.2076812 1.6397527 10.385108 3.1933594 9.7714844 L 7.2851562 8 L 3.1386719 6.359375 C 3.0305196 6.3136918 2.9296528 6.2903342 2.8359375 6.2851562 z M 7.4941406 8.5039062 L 3.4023438 10.277344 C 1.6619721 10.984178 5.1445359 14.285017 5.8535156 12.650391 L 7.4941406 8.5039062 z M 8.5039062 8.5039062 L 10.277344 12.597656 C 10.984178 14.338028 14.285017 10.853512 12.650391 10.144531 L 8.5039062 8.5039062 z M 8 8.7128906 L 6.359375 12.861328 C 5.6285534 14.59176 10.426016 14.463821 9.7714844 12.806641 L 8 8.7128906 z "
     transform="scale(0.26458333)"
     id="path980"
     inkscape:label="#1" />
</svg>
