<?xml version="1.0" encoding="UTF-8" standalone="no"?><svg height="16" viewBox="0 0 4.2333332 4.2333332" width="16" xmlns="http://www.w3.org/2000/svg"><sodipodi:namedview/><metadata><rdf:RDF><cc:Work><dc:format>image/svg+xml</dc:format><dc:type/><dc:title/></cc:Work></rdf:RDF></metadata><path d="m5.7441406 0 2.0527344 2.7382812.0136719 13.2617188h.8046875v-13.265625l2.0507816-2.734375zm-2.953125 3.6914062v1.9628907h2.8828125v-1.9628907zm8.3457034.6171876c-.217799.0122078-.45172.2108447-.451172.4316406l-.009766 6.5195316c0 .294417.416059.549902.654297.375l4.490234-3.2695316c.239793-.1727433.239245-.5784437 0-.7519532l-4.480468-3.2480468c-.0598-.0433399-.130493-.0606768-.203125-.0566406zm-11.136719 2.9160156v1.9609375h5.6738281v-1.9609375zm1.640625 3.5312496v1.962891h4.0332031v-1.962891z" fill="#d0d0d0" transform="scale(.26458333)"/></svg>