<?xml version="1.0" encoding="UTF-8" standalone="no"?><svg height="16mm" viewBox="0 0 16 16" width="16mm" xmlns="http://www.w3.org/2000/svg"><sodipodi:namedview/><metadata><rdf:RDF><cc:Work><dc:format>image/svg+xml</dc:format><dc:type/><dc:title/></cc:Work></rdf:RDF></metadata><path d="m0 7.5585938v45.3554682h60.472656v-45.3554682zm44.056641 5.0839842c.360921-.005344.560547.009766.560547.009766v7.08789c-7.237535.123485-9.017579 7.025391-9.017579 7.025391h5.458985v7.087891h-8.462891c-5.091417 15.357537-16.808594 13.990234-16.808594 13.990234v-7.087891s7.435974 1.34748 11.228516-12.1875c4.149489-14.813999 14.514569-15.88837 17.041016-15.925781zm-39.228516.009766h7.919922v7.919922h-7.919922zm42.589844 0h7.919922v7.919922h-7.919922zm-42.7382815 13.623047h7.9179685v7.919921h-7.9179685zm42.5898435 0h7.917969v7.919921h-7.917969zm-42.6503904 13.625h7.9199214v7.917968h-7.9199214zm42.5898434 0h7.919922v7.917968h-7.919922z" fill="#d0d0d0" stroke-width="2.052171" transform="scale(.26458333)"/></svg>