<?xml version="1.0" encoding="UTF-8" standalone="no"?><svg height="16" viewBox="0 0 4.2333332 4.2333332" width="16" xmlns="http://www.w3.org/2000/svg"><sodipodi:namedview/><metadata><rdf:RDF><cc:Work><dc:format>image/svg+xml</dc:format><dc:type/><dc:title/></cc:Work></rdf:RDF></metadata><path d="m11.623047 0c-1.117917.00000005-2.2353645.42872376-3.091797 1.2851562l6.183594 6.1816407c1.712864-1.7128642 1.714819-4.4687755.001953-6.1816407-.856433-.85643255-1.975833-1.28515625-3.09375-1.2851562zm-3.7089845 1.9023438-6.0117187 6.0117187 6.1835937 6.1816405 6.0097655-6.0097655zm.0527344 3.4785156a.3995872.3995872 0 0 1  .2949219.0976562.3995872.3995872 0 0 1  .0195312.0195313.3995872.3995872 0 0 1 0 .5664062.3995872.3995872 0 0 1 -.5644531-.0019531.3995872.3995872 0 0 1 -.0019531-.5644531.3995872.3995872 0 0 1  .2519531-.1171875zm-2.1855469 2.21875c.1025148-.0000007.2051143.0407343.2832031.1191406.1555076.156404.1543153.408816-.0019531.5644531-.1556394.1562665-.40806.15552-.5644531 0-.1498696-.1485879-.1585121-.3880668-.0195313-.546875.0061985-.0066897.0128415-.0113419.0195313-.0175781.0780905-.0784052.1806883-.11914.2832031-.1191406zm2.2207031 0c .1025149-.0000003.2051143.0387831.2832031.1171875.1555034.1564017.1543153.4088159-.0019531.5644531-.1556394.1562668-.4080525.157458-.5644531.0019531-.1498696-.1485895-.158512-.3880668-.0195312-.546875.0061984-.0066897.0128414-.013295.0195312-.0195312.0780903-.0784054.1806883-.1171873.2832031-.1171875zm2.2128909 0a .3995872.3995872 0 0 1  .041015.0019531.3995872.3995872 0 0 1  .072266.015625.3995872.3995872 0 0 1  .011719.0019531.3995872.3995872 0 0 1  .033203.0117188.3995872.3995872 0 0 1  .029297.0136718.3995872.3995872 0 0 1  .013672.0078126.3995872.3995872 0 0 1  .046875.0292968.3995872.3995872 0 0 1  .017578.015625.3995872.3995872 0 0 1  .023437.0214844.3995872.3995872 0 0 1  .115235.3144531.3995872.3995872 0 0 0 -.001953.0019531.3995872.3995872 0 0 1 -.013672.078125.3995872.3995872 0 0 0 -.001954 0 .3995872.3995872 0 0 1 -.011718.0371094.3995872.3995872 0 0 0 0 .0019532.3995872.3995872 0 0 1 -.017578.0351562.3995872.3995872 0 0 0 -.001954.0019531.3995872.3995872 0 0 1 -.017578.03125.3995872.3995872 0 0 0 0 .0019531.3995872.3995872 0 0 1 -.023437.03125.3995872.3995872 0 0 1 -.029297.0292969.3995872.3995872 0 0 1 -.046875.0410157.3995872.3995872 0 0 1 -.003906.0019531.3995872.3995872 0 0 0 0 .0019531.3995872.3995872 0 0 1 -.007813.0039062.3995872.3995872 0 0 1 -.0625.0351563.3995872.3995872 0 0 1 -.019531.0078125.3995872.3995872 0 0 1 -.015625.0058594.3995872.3995872 0 0 0 -.001953.0019531.3995872.3995872 0 0 1 -.078125.0136719.3995872.3995872 0 0 1 -.039063.0039062.3995872.3995872 0 0 1 -.039062 0 .3995872.3995872 0 0 0 -.001953-.0019531.3995872.3995872 0 0 1 -.03711-.0039063.3995872.3995872 0 0 0 0-.0019531.3995872.3995872 0 0 1 -.039062-.0078125.3995872.3995872 0 0 0 -.001953-.0019531.3995872.3995872 0 0 1 -.035157-.0097656.3995872.3995872 0 0 0 -.001953-.0019531.3995872.3995872 0 0 1 -.037109-.0175782.3995872.3995872 0 0 1 -.03125-.0175781.3995872.3995872 0 0 0 -.0019531-.0019531.3995872.3995872 0 0 1 -.03125-.0214844.3995872.3995872 0 0 1 -.0019531-.0039062.3995872.3995872 0 0 1 -.0273438-.0253907.3995872.3995872 0 0 0 -.0019531 0 .3995872.3995872 0 0 1 -.0253907-.0292969.3995872.3995872 0 0 1 -.0234374-.03125.3995872.3995872 0 0 1 -.0214844-.0351562.3995872.3995872 0 0 1 -.015625-.03125.3995872.3995872 0 0 1 -.0019532-.0097656.3995872.3995872 0 0 1 -.0214843-.0722656.3995872.3995872 0 0 1 -.0039063-.0390626.3995872.3995872 0 0 1 0-.0800781.3995872.3995872 0 0 1  .0058594-.0390625.3995872.3995872 0 0 1  .0429688-.1132812.3995872.3995872 0 0 1  .0449218-.0644532.3995872.3995872 0 0 1  .0175782-.0195312.3995872.3995872 0 0 1  .1269532-.0859375.3995872.3995872 0 0 1  .076172-.0234375.3995872.3995872 0 0 1  .007812-.0019531.3995872.3995872 0 0 1  .03125-.0039063.3995872.3995872 0 0 1  .039063-.0039062zm-8.9296878.9316406c-1.71286504 1.712865-1.71286481 4.472682 0 6.185547 1.7128656 1.712866 4.4687757 1.710912 6.1816407-.001953zm6.7109376 1.2890625a.3995872.3995872 0 0 1  .2890624.1171875.3995872.3995872 0 0 1 -.0019531.564453.3995872.3995872 0 0 1 -.5644531.001953.3995872.3995872 0 0 1 -.0195312-.5468748.3995872.3995872 0 0 1  .0195312-.0195312.3995872.3995872 0 0 1  .2773438-.1171875z" fill="#d0d0d0" stroke-width="1.979046" transform="scale(.26458333)"/></svg>