<?xml version="1.0" encoding="UTF-8" standalone="no"?><svg height="16" viewBox="0 0 4.2333332 4.2333332" width="16" xmlns="http://www.w3.org/2000/svg"><sodipodi:namedview/><metadata><rdf:RDF><cc:Work><dc:format>image/svg+xml</dc:format><dc:type/><dc:title/></cc:Work></rdf:RDF></metadata><path d="m3.7147697.16282281c-.084885.0000634-.1708286.017847-.2396355.052478-.1005335.050607-.2017151.1578048-.246604.2612414-.047704.1099411-.054555.3037694-.014364.406768.017.043567.046333.11842079.065176.16635119.042554.1082315.057872.3462812.030891.4800036-.0303779.1505544-.124757.3244797-.2353852.4337794-.3320021.3280131-.8339536.3337606-1.1636926.0133169-.1137852-.1105794-.1299238-.136982-.6435867-1.05361119-.174378-.311194-.33078095-.5717515-.36336081-.6054223-.10208682-.1080102-.24395013-.1466387-.37389514-.1472835-.2793956-.0045345-.47305126.2140894-.51899851.4487589-.03394428.1877942-.04955852.1554715.85297071 1.76380679.56966745 1.0151374.84044995 1.4830762.88485035 1.5290722.1572691.1629482.381336.2033434.5909966.1065399.055127-.025453.1175318-.0712.1573946-.115376.078082-.086531 1.6928182-2.95302919 1.7190318-3.05153399.027461-.1033471.02064-.2501861-.016311-.3518008-.0459668-.1264004-.1727825-.2560963-.2978592-.3046161-.0561396-.0217785-.1215208-.0324545-.1875338-.0324024z" fill="#d0d0d0" stroke-width=".264583"/></svg>