<?xml version="1.0" encoding="UTF-8" standalone="no"?>
<!-- Created with Inkscape (http://www.inkscape.org/) -->

<svg xmlns:dc="http://purl.org/dc/elements/1.1/" xmlns:cc="http://creativecommons.org/ns#" xmlns:rdf="http://www.w3.org/1999/02/22-rdf-syntax-ns#" xmlns:svg="http://www.w3.org/2000/svg" xmlns="http://www.w3.org/2000/svg" xmlns:sodipodi="http://sodipodi.sourceforge.net/DTD/sodipodi-0.dtd" xmlns:inkscape="http://www.inkscape.org/namespaces/inkscape" width="12" height="12" viewBox="0 0 12 12" version="1.1" id="default16" inkscape:version="0.92+devel (8ef6761023, 2017-10-07, custom)" sodipodi:docname="glyph-babelfish.svg">
  <defs id="defs5" />
  <sodipodi:namedview id="base" pagecolor="#002466" bordercolor="#ffffff" borderopacity="0.38039216" inkscape:pageopacity="1" inkscape:pageshadow="2" inkscape:zoom="26.28125" inkscape:cx="7.7336504" inkscape:cy="8" inkscape:document-units="px" inkscape:current-layer="default16" inkscape:document-rotation="0" showgrid="false" inkscape:showpageshadow="false" borderlayer="true" inkscape:window-width="1920" inkscape:window-height="1029" inkscape:window-x="0" inkscape:window-y="22" inkscape:window-maximized="1" units="px" />
  <metadata id="metadata5">
    <rdf:RDF>
      <cc:Work rdf:about="">
        <dc:format>image/svg+xml</dc:format>
        <dc:type rdf:resource="http://purl.org/dc/dcmitype/StillImage" />
        <dc:title></dc:title>
      </cc:Work>
    </rdf:RDF>
  </metadata>
  <path style="fill:#d0d0d0;stroke-width:1" d="M 6.3512446,1.05366 C 5.7656976,0.80818762 4.8696215,0.84146852 4.4079695,1.4540957 4.4052689,2.1868555 4.9486901,2.9285219 3.9749999,3.8127937 3.555042,4.1341076 3.1471934,4.4546831 2.7749999,4.7690438 2.0821892,4.0915153 1.0423812,3.2877937 -5e-8,3.2877937 c 0,0 0.6,1.5000001 0.6,3.0000001 0,1.5 -0.6,3 -0.6,3 1.10664035,0 2.21789685,-0.913632 2.90625005,-1.6125 0.729747,0.523786 1.5669821,1.086224 2.3624998,1.51875 0.053174,0.563185 -0.1178247,1.1992282 -0.4687499,1.8937502 0.6915529,-0.04573 1.180069,0.197374 2.3999999,-0.6 L 7.5187499,9.8690438 C 9.3189738,9.7425268 11.4335,8.5537948 12,6.2877938 11.484956,4.2276168 9.5256767,2.4803396 7.3618356,2.4652329 c 0,0 -0.3985125,-1.154978 -1.010591,-1.4115729 z M 9.6,5.0877938 c 0.36,0 0.6,0.24 0.6,0.6 0,0.36 -0.24,0.6 -0.6,0.6 -0.36,0 -0.6,-0.24 -0.6,-0.6 0,-0.36 0.24,-0.6 0.6,-0.6 z" id="path2" inkscape:connector-curvature="0" sodipodi:nodetypes="sccccsccccccccssssss" />
</svg>
