<?xml version="1.0" encoding="UTF-8" standalone="no"?>
<!-- Created with Inkscape (http://www.inkscape.org/) -->

<svg
   xmlns:dc="http://purl.org/dc/elements/1.1/"
   xmlns:cc="http://creativecommons.org/ns#"
   xmlns:rdf="http://www.w3.org/1999/02/22-rdf-syntax-ns#"
   xmlns:svg="http://www.w3.org/2000/svg"
   xmlns="http://www.w3.org/2000/svg"
   xmlns:sodipodi="http://sodipodi.sourceforge.net/DTD/sodipodi-0.dtd"
   xmlns:inkscape="http://www.inkscape.org/namespaces/inkscape"
   width="12"
   height="12"
   viewBox="0 0 12 12"
   version="1.1"
   id="default16"
   inkscape:version="0.92+devel (42c84a5464, 2017-09-20, custom)"
   sodipodi:docname="glyph-bank.svg">
  <defs
     id="defs5" />
  <sodipodi:namedview
     id="base"
     pagecolor="#002466"
     bordercolor="#ffffff"
     borderopacity="0.38039216"
     inkscape:pageopacity="1"
     inkscape:pageshadow="2"
     inkscape:zoom="26.28125"
     inkscape:cx="7.9429251"
     inkscape:cy="8"
     inkscape:document-units="px"
     inkscape:current-layer="default16"
     inkscape:document-rotation="0"
     showgrid="false"
     inkscape:showpageshadow="false"
     borderlayer="true"
     inkscape:window-width="1920"
     inkscape:window-height="1017"
     inkscape:window-x="0"
     inkscape:window-y="34"
     inkscape:window-maximized="1"
     units="px" />
  <metadata
     id="metadata5">
    <rdf:RDF>
      <cc:Work
         rdf:about="">
        <dc:format>image/svg+xml</dc:format>
        <dc:type
           rdf:resource="http://purl.org/dc/dcmitype/StillImage" />
        <dc:title></dc:title>
      </cc:Work>
    </rdf:RDF>
  </metadata>
  <path
     style="fill:#d0d0d0;fill-opacity:1;stroke:none;stroke-width:1"
     d="M 6,0 0,3.4672852 V 3.7485352 4.5 h 0.75 v 0.75 6 H 0 V 12 H 12 V 11.25 H 11.25 V 5.25 4.5 H 12 V 3.7485352 3.4672852 Z M 5.7055664,1.7255859 h 0.6782227 c 0.046852,0 0.085568,0.01526 0.1157226,0.04541 0.03015,0.03015 0.04541,0.068868 0.04541,0.1157227 v 0.8833008 c 0.1908503,0.0201 0.3760458,0.058818 0.5551759,0.1157226 0.17913,0.05692 0.3243586,0.113212 0.4365233,0.168457 0.1121648,0.055245 0.2188915,0.117185 0.319336,0.1875 0.1004453,0.07031 0.1661541,0.1196944 0.196289,0.1464844 0.03015,0.0268 0.054629,0.050263 0.074707,0.070312 0.056917,0.060265 0.065072,0.1234648 0.024902,0.1904297 l -0.407226,0.7338874 c -0.026798,0.050225 -0.06405,0.077221 -0.1142578,0.080566 -0.046852,0.01005 -0.09268,-0.00166 -0.1362305,-0.035156 -0.01005,-0.01005 -0.034737,-0.031373 -0.073242,-0.061523 C 7.3824009,4.3365492 7.3181547,4.2934432 7.2260742,4.2348633 7.1340019,4.1762733 7.0354361,4.1222804 6.9316406,4.0737304 6.8278459,4.0251807 6.7037554,3.9818644 6.5581054,3.9433594 c -0.1456447,-0.0385 -0.290039,-0.058594 -0.430664,-0.058594 -0.3180802,0 -0.576937,0.072822 -0.777832,0.2167969 -0.20089,0.1439749 -0.3017578,0.3289657 -0.3017578,0.5566406 0,0.087055 0.01403,0.1680392 0.042481,0.2416992 0.02845,0.07366 0.079089,0.1427179 0.1494141,0.2080079 0.07031,0.06529 0.1358086,0.1203273 0.1977536,0.1655273 0.06194,0.0452 0.15569,0.098143 0.28125,0.1567383 0.1255551,0.058595 0.2262127,0.1029557 0.3032227,0.1347656 0.07701,0.0318 0.1941975,0.07742 0.3515625,0.1376953 0.1774552,0.066965 0.3134765,0.1196981 0.4072265,0.1582031 0.09375,0.0385 0.2216097,0.097096 0.3823242,0.1757813 0.1607152,0.078685 0.2873193,0.1502522 0.3793945,0.2138672 0.092075,0.063615 0.1950319,0.1481582 0.3105469,0.2519531 0.115515,0.1037951 0.2046614,0.2090561 0.2666016,0.3178711 0.061942,0.10882 0.1146784,0.237934 0.1582032,0.3852539 0.043552,0.1473201 0.065918,0.3042647 0.065918,0.4716797 h -0.00146 C 8.3422852,8.189521 8.1759182,8.630025 7.8427734,9 7.5096234,9.369979 7.0772869,9.598493 6.5449219,9.685546 v 0.878907 c 0,0.04685 -0.01526,0.08556 -0.04541,0.115722 -0.03015,0.03015 -0.06887,0.04541 -0.1157226,0.04541 H 5.7055664 c -0.04355,0 -0.081008,-0.01654 -0.112793,-0.04834 -0.0318,-0.0318 -0.046875,-0.06926 -0.046875,-0.112792 V 9.685541 C 5.3249184,9.655391 5.1116768,9.603911 4.9057617,9.530268 4.6998467,9.456608 4.5299261,9.381482 4.3959961,9.306147 4.2620661,9.230817 4.1377658,9.151293 4.0239258,9.065913 3.9100908,8.980533 3.8314057,8.917128 3.7895508,8.876948 3.7477008,8.836748 3.7184048,8.807658 3.7016598,8.787588 3.6447398,8.717278 3.6426508,8.64801 3.6928698,8.581045 L 4.2099609,7.9028321 c 0.02345,-0.0335 0.062163,-0.053408 0.1157227,-0.060059 0.050225,-0.0067 0.089987,0.00856 0.1201172,0.04541 l 0.010254,0.010254 C 4.8343998,8.229907 5.2409997,8.438335 5.6762697,8.52539 5.800155,8.55219 5.9244602,8.5664 6.04834,8.5664 c 0.2712105,0 0.508929,-0.07283 0.7148437,-0.216797 0.2059155,-0.143975 0.3090821,-0.347794 0.3090821,-0.6123041 0,-0.09375 -0.024479,-0.1828965 -0.074707,-0.2666016 C 6.9473311,7.3869982 6.8910411,7.3166857 6.8291016,7.2597656 6.7671591,7.2028459 6.6685977,7.1409007 6.5346679,7.0722656 6.4007382,7.0036256 6.2906688,6.9496379 6.2036133,6.9111329 6.1165638,6.8726328 5.9830508,6.8188502 5.8022461,6.7485352 5.6716661,6.6949602 5.568499,6.6526886 5.4931641,6.6225586 5.4178291,6.5924086 5.314662,6.5478378 5.1840821,6.4892579 5.053502,6.4306628 4.9492905,6.3791844 4.8706054,6.3339844 4.7919255,6.2887844 4.6969208,6.2289334 4.5864258,6.1552734 4.4759358,6.0816134 4.3855295,6.0100463 4.3168945,5.9414062 4.2482546,5.8727662 4.1756428,5.7907375 4.0986329,5.6953125 4.0216227,5.5998925 3.9632367,5.5025836 3.9213867,5.4038086 3.8795367,5.3050385 3.844383,5.1937092 3.815918,5.0698242 3.7874682,4.9459392 3.7719727,4.8159859 3.7719727,4.6787109 c 0,-0.462055 0.1640625,-0.8676053 0.4921875,-1.2158203 C 4.5922852,3.1146757 5.0202284,2.8909723 5.5458984,2.7905273 V 1.8867188 c 0,-0.0435 0.015075,-0.080958 0.046875,-0.112793 0.0318,-0.0318 0.069258,-0.04834 0.112793,-0.04834 z"
     id="path1387"
     inkscape:connector-curvature="0"
     inkscape:label="#" />
</svg>
