<?xml version="1.0" encoding="UTF-8" standalone="no"?><svg height="16" viewBox="0 0 4.2333333 4.2333333" width="16" xmlns="http://www.w3.org/2000/svg"><sodipodi:namedview/><metadata><rdf:RDF><cc:Work><dc:format>image/svg+xml</dc:format><dc:type/><dc:title/></cc:Work></rdf:RDF></metadata><g stroke-width=".63156" transform="matrix(1.583381 0 0 1.583381 -1.576641 -1.724341)"><circle cx="2.332546" cy="2.425826" fill="none" opacity=".99" r="1.106297" stroke="#0f0" stroke-width=".28407"/><path d="m3.2148438 2.4257812c0 .1028184-.019522.2041637-.054688.3007813l.4238282.1542969c.05311-.1459194.080078-.299794.080078-.4550782z" opacity=".99"/><path d="m3.2148438 2.4257812c0 .1028184-.019522.2041637-.054688.3007813l.4238282.1542969c.05311-.1459194.080078-.299794.080078-.4550782z" fill="#f00" opacity=".99"/><path d="m3.1616501 2.7275477c-.035166.0966177-.0881728.1851742-.1542632.2639376l.3454956.2899494c.0998144-.1189547.1777843-.2543259.2308946-.4002453z" fill="#ff4d00" opacity=".99"/><path d="m3.0084541 2.9929221c-.06609.078763-.1461886.14385-.235232.1952591l.2254911.3906298c.1344798-.0776423.2540472-.1781824.353862-.297137z" fill="#f90" opacity=".99"/><path d="m2.7737335 3.1898964c-.089043.051409-.1865719.085175-.2878282.1030294l.078289.4441945c.152925-.026965.2996683-.080547.4341483-.1581895z" fill="#ffe600" opacity=".99"/><path d="m2.4857992 3.2947125c-.1012563.0178542-.2044519.0162272-.3057082-.001627l-.078356.4441826c.152925.026965.3091448.026803.4620699-.000162z" fill="#cf0" opacity=".99"/><path d="m2.1793802 3.2947281c-.1012563-.0178542-.197672-.0546781-.2867153-.1060873l-.2255497.3905959c.1344801.077642.281334.1309202.4342591.157885z" fill="#80ff00" opacity=".99"/><path d="m1.8914352 3.1899413c-.0890433-.0514092-.1670499-.1189884-.2331402-.1977519l-.3455391.2898976c.099815.1189543.2195902.2192466.3540702.2968887z" fill="#3f0" opacity=".99"/><path d="m1.6566947 2.9929909c-.0660904-.0787635-.1162792-.168947-.1514451-.2655646l-.4238514.1542332c.053111.1459192.1313606.2811287.2311753.4000833z" fill="#00ff19" opacity=".99"/><path d="m1.5034717 2.7276321c-.035166-.0966177-.0514835-.1985281-.0514834-.3013464l-.4510409-.0000339c.0000003.1552841.027287.3091025.080397.455022z" fill="#0f6" opacity=".99"/><path d="m1.4502472 2.425871c0-.1028184.019522-.2041637.054688-.3007813l-.4238282-.1542969c-.05311.1459194-.080078.299794-.080078.4550782z" fill="#00ffb2" opacity=".99"/><path d="m1.5034409 2.1241045c.035166-.0966177.0881728-.1851742.1542632-.2639376l-.3454956-.2899494c-.0998144.1189547-.1777843.2543259-.2308946.4002453z" fill="#0ff" opacity=".99"/><path d="m1.6566369 1.8587301c.06609-.078763.1461886-.14385.235232-.1952591l-.2254911-.3906298c-.1344798.0776423-.2540472.1781824-.353862.297137z" fill="#00b2ff" opacity=".99"/><path d="m1.8913575 1.6617558c.0890433-.0514092.1865719-.0851753.2878282-.1030294l-.0782891-.4441945c-.1529249.0269651-.2996682.0805474-.4341482.1581895z" fill="#0097ff" opacity=".99"/><path d="m2.4857108 1.5569241c.1012563.017854.197672.054678.2867153.1060873l.2255497-.3905959c-.1344801-.0776418-.281334-.1309202-.4342591-.157885z" fill="#6200ff" opacity=".99"/><path d="m2.1792918 1.5569397c.1012563-.0178542.2044519-.0162272.3057082.001627l.0783558-.4441826c-.152925-.0269645-.3091448-.0268028-.4620699.000162z" fill="#2800ff" opacity=".99"/><path d="m2.7736558 1.6617109c.089043.051409.1670499.1189884.2331402.1977519l.3455391-.2898976c-.0998149-.1189543-.2195902-.2192466-.3540702-.2968887z" fill="#8200ff" opacity=".99"/><path d="m3.0083963 1.8586613c.06609.078763.1162792.168947.1514451.2655646l.4238514-.1542332c-.0531106-.1459192-.1313606-.2811287-.2311753-.4000833z" fill="#b100ff" opacity=".99"/><path d="m3.1616193 2.1240201c.035166.096618.051484.1985281.051483.3013464l.4510409.0000339c-.0000003-.1552841-.027287-.3091025-.080397-.455022z" fill="#ff00e5" opacity=".99"/><path d="m3.2148438 2.4257812c0 .1028184-.019522.2041637-.054688.3007813l.4238282.1542969c.05311-.1459194.080078-.299794.080078-.4550782z" fill="#f09" opacity=".99"/><path d="m3.1616501 2.7275477c-.035166.0966177-.0881728.1851742-.1542632.2639376l.3454956.2899494c.0998144-.1189547.1777843-.2543259.2308946-.4002453z" fill="#ff004d" opacity=".99"/></g></svg>