<?xml version="1.0" encoding="UTF-8" standalone="no"?>
<!-- Created with Inkscape (http://www.inkscape.org/) -->

<svg
     xmlns:dc="http://purl.org/dc/elements/1.1/"
     xmlns:cc="http://creativecommons.org/ns#"
     xmlns:rdf="http://www.w3.org/1999/02/22-rdf-syntax-ns#"
     xmlns:svg="http://www.w3.org/2000/svg"
     xmlns="http://www.w3.org/2000/svg"
     xmlns:sodipodi="http://sodipodi.sourceforge.net/DTD/sodipodi-0.dtd"
     xmlns:inkscape="http://www.inkscape.org/namespaces/inkscape"
     width="22"
     height="22"
     viewBox="0 0 22 22"
     version="1.1"
     id="svg8"
     inkscape:version="0.92+devel (fa9b7f7a5b, 2017-07-19, custom)"
     sodipodi:docname="application-x-macbinary.svg">
    <defs
         id="ol-defs">
        <style
             id="current-color-scheme">      .ColorScheme-Text {
        color:#d0d0d0;
        stop-color:#d0d0d0;
      }
      .ColorScheme-Background {
        color:#212121;
        stop-color:#212121;
      }
      .ColorScheme-Highlight {
        color:#0039a9;
        stop-color:#0039a9;
      }
      .ColorScheme-ViewText {
        color:#d0d0d0;
        stop-color:#d0d0d0;
      }
      .ColorScheme-ViewBackground {
        color:#19191b;
        stop-color:#19191b;
      }
      .ColorScheme-ViewHover {
        color:#005cc7;
        stop-color:#005cc7;
      }
      .ColorScheme-ViewFocus{
        color:#002466;
        stop-color:#002466;
      }
      .ColorScheme-ButtonText {
        color:#d0d0d0;
        stop-color:#d0d0d0;
      }
      .ColorScheme-ButtonBackground {
        color:#232323;
        stop-color:#232323;                             
      }                                                 
      .ColorScheme-ButtonHover {                        
        color:#005cc7;                                  
        stop-color:#005cc7;                             
      }                                                 
      .ColorScheme-ButtonFocus{                         
        color:#0039a9;                                  
        stop-color:#0039a9;                             
      }</style>
        <style
             id="current-color-scheme-7">      .ColorScheme-Text {
        color:#d0d0d0;
        stop-color:#d0d0d0;
      }
      .ColorScheme-Background {
        color:#212121;
        stop-color:#212121;
      }
      .ColorScheme-Highlight {
        color:#0039a9;
        stop-color:#0039a9;
      }
      .ColorScheme-ViewText {
        color:#d0d0d0;
        stop-color:#d0d0d0;
      }
      .ColorScheme-ViewBackground {
        color:#19191b;
        stop-color:#19191b;
      }
      .ColorScheme-ViewHover {
        color:#005cc7;
        stop-color:#005cc7;
      }
      .ColorScheme-ViewFocus{
        color:#002466;
        stop-color:#002466;
      }
      .ColorScheme-ButtonText {
        color:#d0d0d0;
        stop-color:#d0d0d0;
      }
      .ColorScheme-ButtonBackground {
        color:#232323;
        stop-color:#232323;                             
      }                                                 
      .ColorScheme-ButtonHover {                        
        color:#005cc7;                                  
        stop-color:#005cc7;                             
      }                                                 
      .ColorScheme-ButtonFocus{                         
        color:#0039a9;                                  
        stop-color:#0039a9;                             
      }</style>
        <linearGradient
             gradientTransform="translate(471.31814,349.93102)"
             x2="0"
             gradientUnits="userSpaceOnUse"
             y2="365.35999"
             y1="392.35999"
             id="a">
            <stop
                 id="stop2"
                 stop-opacity="0"
                 stop-color="#ffffff" />
            <stop
                 id="stop4"
                 stop-opacity=".2"
                 stop-color="#ffffff"
                 offset="1" />
        </linearGradient>
        <linearGradient
             gradientTransform="translate(309.57,152.44)"
             x2="0"
             gradientUnits="userSpaceOnUse"
             y2="365.35999"
             y1="392.35999"
             id="linearGradient4314">
            <stop
                 id="stop4310"
                 stop-opacity="0"
                 stop-color="#ffffff" />
            <stop
                 id="stop4312"
                 stop-opacity=".2"
                 stop-color="#ffffff"
                 offset="1" />
        </linearGradient>
    </defs>
    <sodipodi:namedview
         id="base"
         pagecolor="#002266"
         bordercolor="#ffffff"
         borderopacity="0.46666667"
         inkscape:pageopacity="0"
         inkscape:pageshadow="2"
         inkscape:zoom="19.5"
         inkscape:cx="11"
         inkscape:cy="11"
         inkscape:document-units="px"
         inkscape:current-layer="g4338"
         inkscape:document-rotation="0"
         showgrid="false"
         inkscape:showpageshadow="false"
         borderlayer="true"
         units="px"
         fit-margin-top="0"
         fit-margin-left="0"
         fit-margin-right="0"
         fit-margin-bottom="0"
         inkscape:window-width="1920"
         inkscape:window-height="1051"
         inkscape:window-x="0"
         inkscape:window-y="0"
         inkscape:window-maximized="1"
         inkscape:snap-page="true" />
    <metadata
         id="metadata5">
        <rdf:RDF>
            <cc:Work
                 rdf:about="">
                <dc:format>image/svg+xml</dc:format>
                <dc:type
                     rdf:resource="http://purl.org/dc/dcmitype/StillImage" />
                <dc:title></dc:title>
            </cc:Work>
        </rdf:RDF>
    </metadata>
    <g
         id="g4338"
         inkscape:label="#application-x-macbinary"
         style="stroke-width:2.909091"
         transform="scale(0.6875)">
        <rect
             inkscape:label="#boundary"
             y="0"
             x="0"
             height="32"
             width="32"
             id="rect4264"
             style="fill:none;fill-opacity:0.74651441;stroke-width:68.70108795;stroke-opacity:0.3596773" />
        <path
             inkscape:label="#1"
             id="path1417"
             d="M 4.3636365,4.3636364 V 27.636364 H 27.636363 V 4.3636364 Z m 1.056818,5.2897728 H 26.579546 V 26.579547 H 5.4204545 Z M 18.761363,11.448864 C 18.427102,11.466231 18.07176,11.566868 17.696022,11.75 17.31947,11.935891 17.00837,12.168596 16.764204,12.448864 16.275177,13.002387 16,13.679926 16,14.3125 c 0,0.08743 0.0045,0.170946 0.01421,0.25 0.759521,0.06173 1.460706,-0.328704 2.039767,-1.005682 0.479832,-0.569464 0.71875,-1.184817 0.71875,-1.84375 0,-0.0874 -0.0017,-0.176124 -0.01136,-0.264204 z m -0.0625,3.12784 c -0.409082,-0.03473 -0.908331,0.05413 -1.5,0.267046 -0.62566,0.229597 -0.993373,0.34375 -1.102273,0.34375 -0.145657,0 -0.476903,-0.0984 -0.994318,-0.292614 -0.518876,-0.193589 -0.937283,-0.292614 -1.255682,-0.292614 -0.581908,0.0097 -1.122073,0.160527 -1.622158,0.457387 -0.50009,0.29685 -0.901359,0.703295 -1.201704,1.215909 -0.382176,0.638185 -0.571023,1.398265 -0.571023,2.28125 0,0.770834 0.141005,1.566972 0.423296,2.389205 0.263585,0.761239 0.599278,1.429873 1.008522,2.005682 0.381432,0.53921 0.699986,0.920009 0.954546,1.142045 0.398833,0.370845 0.797994,0.545507 1.198863,0.528409 0.263586,-0.009 0.60898,-0.09949 1.036932,-0.272727 0.427299,-0.17239 0.826376,-0.255682 1.198864,-0.255682 0.355163,0 0.74495,0.08326 1.167614,0.255682 0.421282,0.173232 0.782294,0.258523 1.082386,0.258523 0.418026,-0.0097 0.808944,-0.179133 1.173296,-0.514205 0.235038,-0.204136 0.539443,-0.574033 0.911931,-1.105112 0.273263,-0.389566 0.508136,-0.812407 0.707387,-1.272729 0.08214,-0.195189 0.159749,-0.398532 0.232954,-0.610795 -0.337513,-0.141512 -0.640284,-0.341638 -0.911932,-0.599433 -0.599392,-0.555475 -0.902916,-1.253055 -0.911931,-2.09375 -0.0098,-1.079315 0.480193,-1.922033 1.471591,-2.522727 -0.553852,-0.787261 -1.38865,-1.22305 -2.497161,-1.3125 z"
             style="opacity:0.6;fill:#d0d0d0;fill-rule:evenodd;stroke-width:1.45454538"
             inkscape:connector-curvature="0" />
    </g>
</svg>
