<?xml version="1.0" encoding="UTF-8" standalone="no"?>
<!-- Created with Inkscape (http://www.inkscape.org/) -->

<svg
     xmlns:dc="http://purl.org/dc/elements/1.1/"
     xmlns:cc="http://creativecommons.org/ns#"
     xmlns:rdf="http://www.w3.org/1999/02/22-rdf-syntax-ns#"
     xmlns:svg="http://www.w3.org/2000/svg"
     xmlns="http://www.w3.org/2000/svg"
     xmlns:sodipodi="http://sodipodi.sourceforge.net/DTD/sodipodi-0.dtd"
     xmlns:inkscape="http://www.inkscape.org/namespaces/inkscape"
     width="22"
     height="22"
     viewBox="0 0 22 22"
     version="1.1"
     id="svg8"
     inkscape:version="0.92+devel (572d1a9d8b, 2017-07-17, custom)"
     sodipodi:docname="application-x-nes-rom.svg">
    <defs
         id="ol-defs">
        <style
             id="current-color-scheme">      .ColorScheme-Text {
        color:#d0d0d0;
        stop-color:#d0d0d0;
      }
      .ColorScheme-Background {
        color:#212121;
        stop-color:#212121;
      }
      .ColorScheme-Highlight {
        color:#0039a9;
        stop-color:#0039a9;
      }
      .ColorScheme-ViewText {
        color:#d0d0d0;
        stop-color:#d0d0d0;
      }
      .ColorScheme-ViewBackground {
        color:#19191b;
        stop-color:#19191b;
      }
      .ColorScheme-ViewHover {
        color:#005cc7;
        stop-color:#005cc7;
      }
      .ColorScheme-ViewFocus{
        color:#002466;
        stop-color:#002466;
      }
      .ColorScheme-ButtonText {
        color:#d0d0d0;
        stop-color:#d0d0d0;
      }
      .ColorScheme-ButtonBackground {
        color:#232323;
        stop-color:#232323;                             
      }                                                 
      .ColorScheme-ButtonHover {                        
        color:#005cc7;                                  
        stop-color:#005cc7;                             
      }                                                 
      .ColorScheme-ButtonFocus{                         
        color:#0039a9;                                  
        stop-color:#0039a9;                             
      }</style>
        <style
             id="current-color-scheme-7">      .ColorScheme-Text {
        color:#d0d0d0;
        stop-color:#d0d0d0;
      }
      .ColorScheme-Background {
        color:#212121;
        stop-color:#212121;
      }
      .ColorScheme-Highlight {
        color:#0039a9;
        stop-color:#0039a9;
      }
      .ColorScheme-ViewText {
        color:#d0d0d0;
        stop-color:#d0d0d0;
      }
      .ColorScheme-ViewBackground {
        color:#19191b;
        stop-color:#19191b;
      }
      .ColorScheme-ViewHover {
        color:#005cc7;
        stop-color:#005cc7;
      }
      .ColorScheme-ViewFocus{
        color:#002466;
        stop-color:#002466;
      }
      .ColorScheme-ButtonText {
        color:#d0d0d0;
        stop-color:#d0d0d0;
      }
      .ColorScheme-ButtonBackground {
        color:#232323;
        stop-color:#232323;                             
      }                                                 
      .ColorScheme-ButtonHover {                        
        color:#005cc7;                                  
        stop-color:#005cc7;                             
      }                                                 
      .ColorScheme-ButtonFocus{                         
        color:#0039a9;                                  
        stop-color:#0039a9;                             
      }</style>
        <linearGradient
             gradientTransform="translate(471.31814,349.93102)"
             x2="0"
             gradientUnits="userSpaceOnUse"
             y2="365.35999"
             y1="392.35999"
             id="a">
            <stop
                 id="stop2"
                 stop-opacity="0"
                 stop-color="#ffffff" />
            <stop
                 id="stop4"
                 stop-opacity=".2"
                 stop-color="#ffffff"
                 offset="1" />
        </linearGradient>
        <linearGradient
             gradientTransform="translate(309.57,152.44)"
             x2="0"
             gradientUnits="userSpaceOnUse"
             y2="365.35999"
             y1="392.35999"
             id="linearGradient4314">
            <stop
                 id="stop4310"
                 stop-opacity="0"
                 stop-color="#ffffff" />
            <stop
                 id="stop4312"
                 stop-opacity=".2"
                 stop-color="#ffffff"
                 offset="1" />
        </linearGradient>
    </defs>
    <sodipodi:namedview
         id="base"
         pagecolor="#002266"
         bordercolor="#ffffff"
         borderopacity="0.46666667"
         inkscape:pageopacity="0"
         inkscape:pageshadow="2"
         inkscape:zoom="13"
         inkscape:cx="16.692308"
         inkscape:cy="15.307692"
         inkscape:document-units="px"
         inkscape:current-layer="g4338"
         inkscape:document-rotation="0"
         showgrid="false"
         inkscape:showpageshadow="false"
         borderlayer="true"
         units="px"
         fit-margin-top="0"
         fit-margin-left="0"
         fit-margin-right="0"
         fit-margin-bottom="0"
         inkscape:window-width="1920"
         inkscape:window-height="1051"
         inkscape:window-x="0"
         inkscape:window-y="0"
         inkscape:window-maximized="1"
         inkscape:snap-page="true" />
    <metadata
         id="metadata5">
        <rdf:RDF>
            <cc:Work
                 rdf:about="">
                <dc:format>image/svg+xml</dc:format>
                <dc:type
                     rdf:resource="http://purl.org/dc/dcmitype/StillImage" />
                <dc:title></dc:title>
            </cc:Work>
        </rdf:RDF>
    </metadata>
    <g
         id="g4338"
         inkscape:label="#application-x-nes-rom"
         transform="scale(0.6875)">
        <rect
             inkscape:label="#boundary"
             y="0"
             x="0"
             height="32"
             width="32"
             id="rect4264"
             style="fill:none;fill-opacity:0.74651441;stroke-width:23.61599922;stroke-opacity:0.3596773" />
        <path
             inkscape:label="#1"
             style="opacity:0.6;fill:#d0d0d0;fill-opacity:1;fill-rule:evenodd;stroke:none;stroke-width:0.03177561px;stroke-linecap:butt;stroke-linejoin:miter;stroke-opacity:1;shape-rendering:crispEdges"
             d="m 7.3623642,7.5495185 c -1.446327,0.03692 -3.691171,11.2774965 -2.792717,14.1047205 0.43703,1.375217 1.861691,2.801042 3.304674,2.796228 1.996864,-0.0063 3.5394428,-4.838971 4.2213228,-4.889049 2.757183,-0.184405 5.301865,-0.169658 7.80692,0 0.651382,0.08061 2.224534,4.882385 4.221397,4.889049 1.442973,0.0053 2.867644,-1.421011 3.304664,-2.796228 0.905531,-2.849481 -1.354589,-14.2306375 -2.826758,-14.1035265 -5.532467,0.477695 -12.386886,0.473262 -17.2054618,0 -0.01132,-0.001 -0.02264,-0.001 -0.03407,-0.001 z m 2.310516,1.979673 a 2.8988734,2.8988734 0 0 1 2.8988508,2.8988505 2.8988734,2.8988734 0 0 1 -2.8988508,2.898925 2.8988734,2.8988734 0 0 1 -2.898925,-2.898925 2.8988734,2.8988734 0 0 1 2.898925,-2.8988505 z m 12.7487658,0 a 2.8988734,2.8988734 0 0 1 2.898851,2.8988505 2.8988734,2.8988734 0 0 1 -2.898851,2.898925 2.8988734,2.8988734 0 0 1 -2.898851,-2.898925 2.8988734,2.8988734 0 0 1 2.898851,-2.8988505 z m -3.77163,4.4885685 a 0.62341363,0.62341363 0 0 1 0.623433,0.623434 0.62341363,0.62341363 0 0 1 -0.623433,0.62336 0.62341363,0.62341363 0 0 1 -0.623434,-0.62336 0.62341363,0.62341363 0 0 1 0.623434,-0.623434 z m -5.558395,0.212353 a 1.4581783,1.4581783 0 0 1 1.458164,1.458163 1.4581783,1.4581783 0 0 1 -1.458164,1.458163 1.4581783,1.4581783 0 0 1 -1.458162,-1.458163 1.4581783,1.4581783 0 0 1 1.458162,-1.458163 z m 4.280352,1.065616 a 0.62341363,0.62341363 0 0 1 0.623433,0.623434 0.62341363,0.62341363 0 0 1 -0.623433,0.623434 0.62341363,0.62341363 0 0 1 -0.62336,-0.623434 0.62341363,0.62341363 0 0 1 0.62336,-0.623434 z m 2.556,0 a 0.62341363,0.62341363 0 0 1 0.623435,0.623434 0.62341363,0.62341363 0 0 1 -0.623435,0.623434 0.62341363,0.62341363 0 0 1 -0.62336,-0.623434 0.62341363,0.62341363 0 0 1 0.62336,-0.623434 z m -1.277957,1.278032 a 0.62341363,0.62341363 0 0 1 0.623433,0.623434 0.62341363,0.62341363 0 0 1 -0.623433,0.62336 0.62341363,0.62341363 0 0 1 -0.623434,-0.62336 0.62341363,0.62341363 0 0 1 0.623434,-0.623434 z"
             id="path7761"
             inkscape:connector-curvature="0" />
    </g>
</svg>
