<?xml version="1.0" encoding="UTF-8" standalone="no"?>
<!-- Created with Inkscape (http://www.inkscape.org/) -->

<svg
     xmlns:dc="http://purl.org/dc/elements/1.1/"
     xmlns:cc="http://creativecommons.org/ns#"
     xmlns:rdf="http://www.w3.org/1999/02/22-rdf-syntax-ns#"
     xmlns:svg="http://www.w3.org/2000/svg"
     xmlns="http://www.w3.org/2000/svg"
     xmlns:sodipodi="http://sodipodi.sourceforge.net/DTD/sodipodi-0.dtd"
     xmlns:inkscape="http://www.inkscape.org/namespaces/inkscape"
     width="22"
     height="22"
     viewBox="0 0 22 22"
     version="1.1"
     id="svg8"
     inkscape:version="0.92+devel (fa9b7f7a5b, 2017-07-19, custom)"
     sodipodi:docname="text-x-sass.svg">
    <defs
         id="ol-defs">
        <style
             id="current-color-scheme">      .ColorScheme-Text {
        color:#d0d0d0;
        stop-color:#d0d0d0;
      }
      .ColorScheme-Background {
        color:#212121;
        stop-color:#212121;
      }
      .ColorScheme-Highlight {
        color:#0039a9;
        stop-color:#0039a9;
      }
      .ColorScheme-ViewText {
        color:#d0d0d0;
        stop-color:#d0d0d0;
      }
      .ColorScheme-ViewBackground {
        color:#19191b;
        stop-color:#19191b;
      }
      .ColorScheme-ViewHover {
        color:#005cc7;
        stop-color:#005cc7;
      }
      .ColorScheme-ViewFocus{
        color:#002466;
        stop-color:#002466;
      }
      .ColorScheme-ButtonText {
        color:#d0d0d0;
        stop-color:#d0d0d0;
      }
      .ColorScheme-ButtonBackground {
        color:#232323;
        stop-color:#232323;                             
      }                                                 
      .ColorScheme-ButtonHover {                        
        color:#005cc7;                                  
        stop-color:#005cc7;                             
      }                                                 
      .ColorScheme-ButtonFocus{                         
        color:#0039a9;                                  
        stop-color:#0039a9;                             
      }</style>
        <style
             id="current-color-scheme-7">      .ColorScheme-Text {
        color:#d0d0d0;
        stop-color:#d0d0d0;
      }
      .ColorScheme-Background {
        color:#212121;
        stop-color:#212121;
      }
      .ColorScheme-Highlight {
        color:#0039a9;
        stop-color:#0039a9;
      }
      .ColorScheme-ViewText {
        color:#d0d0d0;
        stop-color:#d0d0d0;
      }
      .ColorScheme-ViewBackground {
        color:#19191b;
        stop-color:#19191b;
      }
      .ColorScheme-ViewHover {
        color:#005cc7;
        stop-color:#005cc7;
      }
      .ColorScheme-ViewFocus{
        color:#002466;
        stop-color:#002466;
      }
      .ColorScheme-ButtonText {
        color:#d0d0d0;
        stop-color:#d0d0d0;
      }
      .ColorScheme-ButtonBackground {
        color:#232323;
        stop-color:#232323;                             
      }                                                 
      .ColorScheme-ButtonHover {                        
        color:#005cc7;                                  
        stop-color:#005cc7;                             
      }                                                 
      .ColorScheme-ButtonFocus{                         
        color:#0039a9;                                  
        stop-color:#0039a9;                             
      }</style>
        <linearGradient
             gradientTransform="translate(471.31814,349.93102)"
             x2="0"
             gradientUnits="userSpaceOnUse"
             y2="365.35999"
             y1="392.35999"
             id="a">
            <stop
                 id="stop2"
                 stop-opacity="0"
                 stop-color="#ffffff" />
            <stop
                 id="stop4"
                 stop-opacity=".2"
                 stop-color="#ffffff"
                 offset="1" />
        </linearGradient>
        <linearGradient
             gradientTransform="translate(309.57,152.44)"
             x2="0"
             gradientUnits="userSpaceOnUse"
             y2="365.35999"
             y1="392.35999"
             id="linearGradient4314">
            <stop
                 id="stop4310"
                 stop-opacity="0"
                 stop-color="#ffffff" />
            <stop
                 id="stop4312"
                 stop-opacity=".2"
                 stop-color="#ffffff"
                 offset="1" />
        </linearGradient>
        <linearGradient
             gradientTransform="matrix(0.26458333,0,0,0.26458333,6.4068536,-8.476478)"
             id="a-6"
             y1="17"
             x1="40"
             y2="31"
             gradientUnits="userSpaceOnUse"
             x2="54">
            <stop
                 stop-color="#060606"
                 id="stop7" />
            <stop
                 offset="1"
                 stop-opacity="0"
                 id="stop9" />
        </linearGradient>
        <linearGradient
             id="b"
             y1="392.35999"
             y2="336.35999"
             gradientUnits="userSpaceOnUse"
             x2="0"
             gradientTransform="translate(-48,-332.36)">
            <stop
                 stop-color="#ffffff"
                 stop-opacity="0"
                 id="stop12" />
            <stop
                 offset="1"
                 stop-color="#ffffff"
                 stop-opacity=".2"
                 id="stop14" />
        </linearGradient>
        <path
             id="c"
             d="M 10,61 V 3 H 40 L 54,17 V 61 H 40 Z"
             inkscape:connector-curvature="0" />
        <linearGradient
             id="b-9"
             y1="392.36"
             y2="336.36"
             gradientUnits="userSpaceOnUse"
             x2="0"
             gradientTransform="translate(-48,-332.36)">
            <stop
                 stop-color="#ffffff"
                 stop-opacity="0"
                 id="stop12-1" />
            <stop
                 offset="1"
                 stop-color="#ffffff"
                 stop-opacity=".2"
                 id="stop14-2" />
        </linearGradient>
        <path
             id="c-7"
             d="m10 61v-58h30l14 14v44h-14z" />
    </defs>
    <sodipodi:namedview
         id="base"
         pagecolor="#002266"
         bordercolor="#ffffff"
         borderopacity="0.46666667"
         inkscape:pageopacity="0"
         inkscape:pageshadow="2"
         inkscape:zoom="19.5"
         inkscape:cx="11"
         inkscape:cy="11"
         inkscape:document-units="px"
         inkscape:current-layer="g4338"
         inkscape:document-rotation="0"
         showgrid="false"
         inkscape:showpageshadow="false"
         borderlayer="true"
         units="px"
         fit-margin-top="0"
         fit-margin-left="0"
         fit-margin-right="0"
         fit-margin-bottom="0"
         inkscape:window-width="1920"
         inkscape:window-height="1051"
         inkscape:window-x="0"
         inkscape:window-y="0"
         inkscape:window-maximized="1"
         inkscape:snap-page="true" />
    <metadata
         id="metadata5">
        <rdf:RDF>
            <cc:Work
                 rdf:about="">
                <dc:format>image/svg+xml</dc:format>
                <dc:type
                     rdf:resource="http://purl.org/dc/dcmitype/StillImage" />
                <dc:title></dc:title>
            </cc:Work>
        </rdf:RDF>
    </metadata>
    <g
         id="g4338"
         inkscape:label="#text-x-sass"
         style="stroke-width:2.909091"
         transform="scale(0.6875)">
        <rect
             inkscape:label="#boundary"
             y="0"
             x="0"
             height="32"
             width="32"
             id="rect4264"
             style="fill:none;fill-opacity:0.74651441;stroke-width:68.70108795;stroke-opacity:0.3596773" />
        <path
             inkscape:label="#1"
             inkscape:connector-curvature="0"
             id="path872"
             d="M 15.334025,7.698989 C 14.237919,7.642557 13.0067,7.8074711 11.80144,8.2152422 9.8875747,8.8649664 7.8150797,9.87719 6.3239887,11.207223 c -1.772942,1.57672 -2.054947,2.955809 -1.936751,3.527712 0.413687,2.040318 3.363642,3.369095 4.545604,4.352414 -0.0591,0.03029 -0.113963,0.06142 -0.163991,0.08766 -0.59098,0.277172 -2.840621,1.399116 -3.404329,2.586122 -0.636439,1.342851 0.09995,2.308486 0.590926,2.438391 1.51837,0.402933 3.073083,-0.320169 3.91409,-1.511413 0.8364663,-1.191245 0.7354493,-2.738769 0.3490363,-3.444917 l -0.01319,-0.026 0.464318,-0.259751 c 0.300053,-0.168965 0.594802,-0.325083 0.85392,-0.459431 -0.145463,0.376897 -0.249036,0.822726 -0.303571,1.47245 -0.06366,0.76247 0.262945,1.751388 0.694828,2.141303 0.190928,0.168867 0.417535,0.172083 0.558458,0.172083 0.500052,0 0.727274,-0.393109 0.977306,-0.865288 0.309124,-0.576143 0.582811,-1.243547 0.582811,-1.243547 0,0 -0.341009,1.806877 0.590925,1.806877 0.340955,0 0.681503,-0.421399 0.836065,-0.638008 v 0.01138 c 0,0 0.0093,-0.01358 0.02749,-0.04382 0.03628,-0.05146 0.05519,-0.08279 0.05519,-0.08279 v -0.0097 c 0.136393,-0.225287 0.43991,-0.740794 0.894509,-1.594207 0.586434,-1.100303 1.15101,-2.478977 1.15101,-2.478977 0,0 0.05443,0.338448 0.222429,0.892886 0.100054,0.329251 0.318799,0.688041 0.487023,1.038996 -0.136393,0.18189 -0.219185,0.287348 -0.219185,0.287348 l 0.0049,0.0097 c -0.109125,0.138482 -0.231499,0.286188 -0.358766,0.433455 -0.463714,0.528502 -1.018208,1.130306 -1.090945,1.303614 -0.08637,0.203589 -0.06916,0.354341 0.09901,0.475665 0.122759,0.08681 0.341229,0.104826 0.57307,0.08766 0.418249,-0.02622 0.708445,-0.126134 0.85392,-0.186695 0.227267,-0.07772 0.487023,-0.19521 0.737038,-0.368519 0.454588,-0.32057 0.731843,-0.775115 0.70457,-1.381538 -0.01374,-0.333594 -0.126937,-0.662267 -0.267893,-0.974058 0.04068,-0.05552 0.08246,-0.113149 0.123364,-0.173704 0.718264,-1.000678 1.272769,-2.100717 1.272769,-2.100717 0,0 0.05443,0.33682 0.222429,0.891262 0.08636,0.281615 0.259371,0.589675 0.413961,0.892886 -0.672811,0.524159 -1.096453,1.130674 -1.241928,1.52927 -0.268223,0.736328 -0.05943,1.069843 0.336062,1.147765 0.177294,0.03535 0.432433,-0.04381 0.623399,-0.121758 0.236393,-0.07368 0.522097,-0.198526 0.785741,-0.384754 0.454587,-0.320575 0.891264,-0.766367 0.868532,-1.368551 -0.01374,-0.277172 -0.09027,-0.550181 -0.194831,-0.810091 0.572795,-0.225188 1.313918,-0.355066 2.254941,-0.24676 2.022973,0.225287 2.423136,1.429422 2.345857,1.93188 -0.07729,0.502559 -0.500327,0.778685 -0.641255,0.865288 -0.140901,0.08175 -0.185705,0.113045 -0.172071,0.17371 0.01814,0.09085 0.0818,0.08697 0.204561,0.06981 0.168224,-0.02622 1.062694,-0.412334 1.09906,-1.339329 0.05442,-1.19134 -1.132314,-2.490277 -3.237118,-2.477358 v -0.01462 c -0.813733,0.01006 -1.517853,0.190378 -2.108833,0.467545 -0.218196,-0.411416 -0.436061,-0.770404 -0.4724,-1.038994 -0.04068,-0.31189 -0.0906,-0.502373 -0.04068,-0.875029 0.05003,-0.372455 0.275974,-0.901534 0.275974,-0.944836 -0.0044,-0.03936 -0.04948,-0.229438 -0.517864,-0.233775 -0.468222,-0.01006 -0.873404,0.08615 -0.918862,0.202929 -0.04563,0.117085 -0.135734,0.38671 -0.194832,0.663982 -0.08186,0.407178 -0.935701,1.849097 -1.422119,2.607227 -0.159098,-0.294632 -0.295765,-0.555184 -0.323088,-0.763011 -0.04068,-0.311994 -0.09054,-0.502471 -0.04068,-0.875029 0.05003,-0.372554 0.275974,-0.899808 0.275974,-0.943212 -0.0044,-0.03936 -0.04948,-0.229438 -0.517864,-0.233776 -0.468222,-0.01006 -0.873398,0.08615 -0.918862,0.202929 -0.04563,0.116883 -0.09483,0.393769 -0.194831,0.66236 -0.09549,0.268591 -1.232159,2.677176 -1.52765,3.305302 -0.150026,0.320674 -0.281197,0.576819 -0.376633,0.750024 -0.09549,0.173204 -0.0055,0.01204 -0.01484,0.02919 -0.08186,0.147266 -0.126608,0.230526 -0.126608,0.230526 v 0.0097 c -0.06366,0.108306 -0.132159,0.21267 -0.163935,0.21267 -0.02254,0 -0.06756,-0.289734 0.0099,-0.688334 0.168169,-0.835951 0.577617,-2.140841 0.57307,-2.188382 0,-0.02221 0.07631,-0.251538 -0.264649,-0.368519 -0.331884,-0.116987 -0.450025,0.07793 -0.477293,0.07793 -0.02749,0 -0.05058,0.06981 -0.05058,0.06981 0,0 0.368278,-1.469203 -0.704569,-1.469203 -0.672811,0 -1.599359,0.697755 -2.058504,1.334458 -0.290927,0.151709 -0.908741,0.472686 -1.563366,0.814962 -0.250026,0.1299 -0.509398,0.268931 -0.7548943,0.394494 l -0.05058,-0.0536 c -1.299005,-1.321209 -3.704495,-2.256386 -3.604484,-4.032557 0.03628,-0.645485 0.272676,-2.347314 4.6186593,-4.409233 3.559524,-1.6895022 6.410552,-1.2256044 6.906068,-0.1947454 0.704631,1.4728574 -1.523746,4.2097904 -5.224197,4.6040454 -1.409261,0.15161 -2.149729,-0.368525 -2.336111,-0.56333 -0.1954913,-0.203687 -0.2227583,-0.211048 -0.2954903,-0.172082 -0.118196,0.06056 -0.04563,0.242357 0,0.350663 0.109125,0.27283 0.5632623,0.757382 1.3360833,1.000032 0.677352,0.212165 2.332686,0.328948 4.332933,-0.407479 2.24118,-0.827371 3.991088,-3.123278 3.477385,-5.0423721 C 18.611264,8.500654 17.16086,7.79305 15.334021,7.6989956 Z m -1.181856,9.255171 c 0.05734,0.0043 0.101593,0.0265 0.126607,0.06656 0.118196,0.207926 -0.450355,1.715703 -0.595797,2.053637 -0.231829,0.541521 -0.722403,1.931981 -1.017888,1.853957 -0.254589,-0.06561 -0.409454,-1.117798 -0.05058,-2.157538 0.181857,-0.524161 0.568177,-1.14873 0.795476,-1.391279 0.276194,-0.292362 0.569942,-0.438123 0.741909,-0.425335 z m 7.545695,1.717588 c 0.04563,0.130005 0.07273,0.254677 0.06817,0.371768 -0.0044,0.779729 -0.587006,1.070373 -0.941589,1.191597 -0.07273,-0.05146 -0.06366,-0.211852 0.181803,-0.714309 0.09549,-0.199246 0.314236,-0.532718 0.691579,-0.849053 z m -12.2114363,0.8523 c 0.304562,1.056899 0.01429,1.983809 -0.689957,2.715997 -0.668259,0.697367 -1.609755,0.962327 -2.009802,0.737037 -0.431883,-0.238206 -0.262725,-1.265689 0.56008,-2.006558 0.500052,-0.450476 1.149025,-0.86622 1.576351,-1.12179 0.09549,-0.05652 0.24123,-0.137399 0.413962,-0.237019 0.02749,-0.01715 0.04563,-0.0276 0.04563,-0.0276 0.03189,-0.01715 0.06751,-0.03887 0.103902,-0.06007 z m 9.1382873,0.125004 v 0.05195 c 0,0.623783 -0.627269,1.040487 -0.90912,1.209455 -0.100055,0.04744 -0.191258,0.08307 -0.232159,0.05682 -0.03189,-0.01814 0.04068,-0.08279 0.04068,-0.08279 0,0 0.50456,-0.514961 0.70457,-0.753271 0.113688,-0.138685 0.250631,-0.300174 0.396094,-0.482158 z"
             style="opacity:0.6;fill:#d0d0d0;stroke-width:1.45454538" />
    </g>
</svg>
