<?xml version="1.0" encoding="UTF-8" standalone="no"?>
<!-- Created with Inkscape (http://www.inkscape.org/) -->

<svg
     xmlns:dc="http://purl.org/dc/elements/1.1/"
     xmlns:cc="http://creativecommons.org/ns#"
     xmlns:rdf="http://www.w3.org/1999/02/22-rdf-syntax-ns#"
     xmlns:svg="http://www.w3.org/2000/svg"
     xmlns="http://www.w3.org/2000/svg"
     xmlns:sodipodi="http://sodipodi.sourceforge.net/DTD/sodipodi-0.dtd"
     xmlns:inkscape="http://www.inkscape.org/namespaces/inkscape"
     width="22"
     height="22"
     viewBox="0 0 22 22"
     version="1.1"
     id="svg8"
     inkscape:version="0.92+devel (fa9b7f7a5b, 2017-07-19, custom)"
     sodipodi:docname="text-x-patch.svg">
    <defs
         id="ol-defs">
        <style
             id="current-color-scheme">      .ColorScheme-Text {
        color:#d0d0d0;
        stop-color:#d0d0d0;
      }
      .ColorScheme-Background {
        color:#212121;
        stop-color:#212121;
      }
      .ColorScheme-Highlight {
        color:#0039a9;
        stop-color:#0039a9;
      }
      .ColorScheme-ViewText {
        color:#d0d0d0;
        stop-color:#d0d0d0;
      }
      .ColorScheme-ViewBackground {
        color:#19191b;
        stop-color:#19191b;
      }
      .ColorScheme-ViewHover {
        color:#005cc7;
        stop-color:#005cc7;
      }
      .ColorScheme-ViewFocus{
        color:#002466;
        stop-color:#002466;
      }
      .ColorScheme-ButtonText {
        color:#d0d0d0;
        stop-color:#d0d0d0;
      }
      .ColorScheme-ButtonBackground {
        color:#232323;
        stop-color:#232323;                             
      }                                                 
      .ColorScheme-ButtonHover {                        
        color:#005cc7;                                  
        stop-color:#005cc7;                             
      }                                                 
      .ColorScheme-ButtonFocus{                         
        color:#0039a9;                                  
        stop-color:#0039a9;                             
      }</style>
        <style
             id="current-color-scheme-7">      .ColorScheme-Text {
        color:#d0d0d0;
        stop-color:#d0d0d0;
      }
      .ColorScheme-Background {
        color:#212121;
        stop-color:#212121;
      }
      .ColorScheme-Highlight {
        color:#0039a9;
        stop-color:#0039a9;
      }
      .ColorScheme-ViewText {
        color:#d0d0d0;
        stop-color:#d0d0d0;
      }
      .ColorScheme-ViewBackground {
        color:#19191b;
        stop-color:#19191b;
      }
      .ColorScheme-ViewHover {
        color:#005cc7;
        stop-color:#005cc7;
      }
      .ColorScheme-ViewFocus{
        color:#002466;
        stop-color:#002466;
      }
      .ColorScheme-ButtonText {
        color:#d0d0d0;
        stop-color:#d0d0d0;
      }
      .ColorScheme-ButtonBackground {
        color:#232323;
        stop-color:#232323;                             
      }                                                 
      .ColorScheme-ButtonHover {                        
        color:#005cc7;                                  
        stop-color:#005cc7;                             
      }                                                 
      .ColorScheme-ButtonFocus{                         
        color:#0039a9;                                  
        stop-color:#0039a9;                             
      }</style>
        <linearGradient
             gradientTransform="translate(471.31814,349.93102)"
             x2="0"
             gradientUnits="userSpaceOnUse"
             y2="365.35999"
             y1="392.35999"
             id="a">
            <stop
                 id="stop2"
                 stop-opacity="0"
                 stop-color="#ffffff" />
            <stop
                 id="stop4"
                 stop-opacity=".2"
                 stop-color="#ffffff"
                 offset="1" />
        </linearGradient>
        <linearGradient
             gradientTransform="translate(309.57,152.44)"
             x2="0"
             gradientUnits="userSpaceOnUse"
             y2="365.35999"
             y1="392.35999"
             id="linearGradient4314">
            <stop
                 id="stop4310"
                 stop-opacity="0"
                 stop-color="#ffffff" />
            <stop
                 id="stop4312"
                 stop-opacity=".2"
                 stop-color="#ffffff"
                 offset="1" />
        </linearGradient>
    </defs>
    <sodipodi:namedview
         id="base"
         pagecolor="#002266"
         bordercolor="#ffffff"
         borderopacity="0.46666667"
         inkscape:pageopacity="0"
         inkscape:pageshadow="2"
         inkscape:zoom="27.577164"
         inkscape:cx="11"
         inkscape:cy="11"
         inkscape:document-units="px"
         inkscape:current-layer="g4338"
         inkscape:document-rotation="0"
         showgrid="false"
         inkscape:showpageshadow="false"
         borderlayer="true"
         units="px"
         fit-margin-top="0"
         fit-margin-left="0"
         fit-margin-right="0"
         fit-margin-bottom="0"
         inkscape:window-width="1920"
         inkscape:window-height="1051"
         inkscape:window-x="0"
         inkscape:window-y="0"
         inkscape:window-maximized="1"
         inkscape:snap-page="true" />
    <metadata
         id="metadata5">
        <rdf:RDF>
            <cc:Work
                 rdf:about="">
                <dc:format>image/svg+xml</dc:format>
                <dc:type
                     rdf:resource="http://purl.org/dc/dcmitype/StillImage" />
                <dc:title></dc:title>
            </cc:Work>
        </rdf:RDF>
    </metadata>
    <g
         id="g4338"
         inkscape:label="#text-x-patch"
         style="stroke-width:2.909091"
         transform="scale(0.6875)">
        <rect
             inkscape:label="#boundary"
             y="0"
             x="0"
             height="32"
             width="32"
             id="rect4264"
             style="fill:none;fill-opacity:0.74651441;stroke-width:68.70108795;stroke-opacity:0.3596773" />
        <path
             inkscape:label="#1"
             inkscape:connector-curvature="0"
             id="rect811"
             d="m 15.059482,6.2034726 c -2.453115,-2.4531145 -6.4028953,-2.4531141 -8.8560093,-10e-8 -2.453115,2.4531145 -2.453115,6.4028945 0,8.8560095 z M 16.000001,7.1439913 7.1439907,15.999999 16,24.856009 24.856009,16 Z m 9.796527,9.7965257 -8.856009,8.85601 c 2.453115,2.453115 6.402895,2.453114 8.856009,0 2.453114,-2.453114 2.453115,-6.402894 0,-8.85601 z m -8.966277,-6.198773 a 1.2311577,1.2311577 0 0 1 -0.0022,1.7405 1.2311577,1.2311577 0 0 1 -1.740499,0.0022 1.2311577,1.2311577 0 0 1 -1e-6,-1.742661 1.2311577,1.2311577 0 0 1 1.742664,2e-6 z m 4.428005,4.428006 a 1.2311577,1.2311577 0 0 1 0,1.74266 1.2311577,1.2311577 0 0 1 -1.742661,10e-7 1.2311577,1.2311577 0 0 1 -1e-6,-1.742661 1.2311577,1.2311577 0 0 1 1.742662,0 z m -4.384762,-0.04326 a 1.2311577,1.2311577 0 0 1 -0.0022,1.740499 1.2311577,1.2311577 0 0 1 -1.7405,0.0022 1.2311577,1.2311577 0 0 1 0,-1.742662 1.2311577,1.2311577 0 0 1 1.742662,0 z m -4.386925,-0.04107 a 1.2311577,1.2311577 0 0 1 -0.0022,1.740498 1.2311577,1.2311577 0 0 1 -1.7405,0.0022 1.2311577,1.2311577 0 0 1 0,-1.742661 1.2311577,1.2311577 0 0 1 1.742665,3e-6 z m 4.428005,4.428003 a 1.2311577,1.2311577 0 0 1 0,1.742662 1.2311577,1.2311577 0 0 1 -1.742661,0 1.2311577,1.2311577 0 0 1 0,-1.742661 1.2311577,1.2311577 0 0 1 1.742661,-1e-6 z"
             style="opacity:0.6;fill:#d0d0d0;stroke-width:1.89090908" />
    </g>
</svg>
