<?xml version="1.0" encoding="UTF-8" standalone="no"?>
<!-- Created with Inkscape (http://www.inkscape.org/) -->

<svg
     xmlns:dc="http://purl.org/dc/elements/1.1/"
     xmlns:cc="http://creativecommons.org/ns#"
     xmlns:rdf="http://www.w3.org/1999/02/22-rdf-syntax-ns#"
     xmlns:svg="http://www.w3.org/2000/svg"
     xmlns="http://www.w3.org/2000/svg"
     xmlns:sodipodi="http://sodipodi.sourceforge.net/DTD/sodipodi-0.dtd"
     xmlns:inkscape="http://www.inkscape.org/namespaces/inkscape"
     width="22"
     height="22"
     viewBox="0 0 22 22"
     version="1.1"
     id="svg8"
     inkscape:version="0.92+devel (fa9b7f7a5b, 2017-07-19, custom)"
     sodipodi:docname="text-x-qml.svg">
    <defs
         id="ol-defs">
        <style
             id="current-color-scheme">      .ColorScheme-Text {
        color:#d0d0d0;
        stop-color:#d0d0d0;
      }
      .ColorScheme-Background {
        color:#212121;
        stop-color:#212121;
      }
      .ColorScheme-Highlight {
        color:#0039a9;
        stop-color:#0039a9;
      }
      .ColorScheme-ViewText {
        color:#d0d0d0;
        stop-color:#d0d0d0;
      }
      .ColorScheme-ViewBackground {
        color:#19191b;
        stop-color:#19191b;
      }
      .ColorScheme-ViewHover {
        color:#005cc7;
        stop-color:#005cc7;
      }
      .ColorScheme-ViewFocus{
        color:#002466;
        stop-color:#002466;
      }
      .ColorScheme-ButtonText {
        color:#d0d0d0;
        stop-color:#d0d0d0;
      }
      .ColorScheme-ButtonBackground {
        color:#232323;
        stop-color:#232323;                             
      }                                                 
      .ColorScheme-ButtonHover {                        
        color:#005cc7;                                  
        stop-color:#005cc7;                             
      }                                                 
      .ColorScheme-ButtonFocus{                         
        color:#0039a9;                                  
        stop-color:#0039a9;                             
      }</style>
        <style
             id="current-color-scheme-7">      .ColorScheme-Text {
        color:#d0d0d0;
        stop-color:#d0d0d0;
      }
      .ColorScheme-Background {
        color:#212121;
        stop-color:#212121;
      }
      .ColorScheme-Highlight {
        color:#0039a9;
        stop-color:#0039a9;
      }
      .ColorScheme-ViewText {
        color:#d0d0d0;
        stop-color:#d0d0d0;
      }
      .ColorScheme-ViewBackground {
        color:#19191b;
        stop-color:#19191b;
      }
      .ColorScheme-ViewHover {
        color:#005cc7;
        stop-color:#005cc7;
      }
      .ColorScheme-ViewFocus{
        color:#002466;
        stop-color:#002466;
      }
      .ColorScheme-ButtonText {
        color:#d0d0d0;
        stop-color:#d0d0d0;
      }
      .ColorScheme-ButtonBackground {
        color:#232323;
        stop-color:#232323;                             
      }                                                 
      .ColorScheme-ButtonHover {                        
        color:#005cc7;                                  
        stop-color:#005cc7;                             
      }                                                 
      .ColorScheme-ButtonFocus{                         
        color:#0039a9;                                  
        stop-color:#0039a9;                             
      }</style>
        <linearGradient
             gradientTransform="translate(471.31814,349.93102)"
             x2="0"
             gradientUnits="userSpaceOnUse"
             y2="365.35999"
             y1="392.35999"
             id="a">
            <stop
                 id="stop2"
                 stop-opacity="0"
                 stop-color="#ffffff" />
            <stop
                 id="stop4"
                 stop-opacity=".2"
                 stop-color="#ffffff"
                 offset="1" />
        </linearGradient>
        <linearGradient
             gradientTransform="translate(309.57,152.44)"
             x2="0"
             gradientUnits="userSpaceOnUse"
             y2="365.35999"
             y1="392.35999"
             id="linearGradient4314">
            <stop
                 id="stop4310"
                 stop-opacity="0"
                 stop-color="#ffffff" />
            <stop
                 id="stop4312"
                 stop-opacity=".2"
                 stop-color="#ffffff"
                 offset="1" />
        </linearGradient>
    </defs>
    <sodipodi:namedview
         id="base"
         pagecolor="#002266"
         bordercolor="#ffffff"
         borderopacity="0.46666667"
         inkscape:pageopacity="0"
         inkscape:pageshadow="2"
         inkscape:zoom="19.5"
         inkscape:cx="11"
         inkscape:cy="11"
         inkscape:document-units="px"
         inkscape:current-layer="g4338"
         inkscape:document-rotation="0"
         showgrid="false"
         inkscape:showpageshadow="false"
         borderlayer="true"
         units="px"
         fit-margin-top="0"
         fit-margin-left="0"
         fit-margin-right="0"
         fit-margin-bottom="0"
         inkscape:window-width="1920"
         inkscape:window-height="1051"
         inkscape:window-x="0"
         inkscape:window-y="0"
         inkscape:window-maximized="1"
         inkscape:snap-page="false"
         inkscape:object-paths="true"
         inkscape:snap-grids="false"
         inkscape:snap-to-guides="false" />
    <metadata
         id="metadata5">
        <rdf:RDF>
            <cc:Work
                 rdf:about="">
                <dc:format>image/svg+xml</dc:format>
                <dc:type
                     rdf:resource="http://purl.org/dc/dcmitype/StillImage" />
                <dc:title></dc:title>
            </cc:Work>
        </rdf:RDF>
    </metadata>
    <g
         id="g4338"
         inkscape:label="#text-x-qml"
         style="stroke-width:2.909091"
         transform="scale(0.6875)">
        <rect
             inkscape:label="#boundary"
             y="0"
             x="0"
             height="32"
             width="32"
             id="rect4264"
             style="fill:none;fill-opacity:0.74651441;stroke-width:68.70108795;stroke-opacity:0.3596773" />
        <path
             id="path6"
             d="m 7.5625005,7.4602269 c -1.065911,1.0644 -2.136982,2.1247517 -3.198864,3.1931821 V 24.539773 H 24.392046 c 1.084046,-1.074979 2.166317,-2.154269 3.244318,-3.235797 V 7.4602269 Z m 5.5653415,2.9715911 c 0.853333,0.01056 1.750137,0.158331 2.457386,0.667614 0.513812,0.361179 0.84837,0.920378 1.071022,1.497159 0.360174,0.947028 0.465184,1.967961 0.477272,2.974431 0.0015,1.013522 -0.04519,2.051379 -0.380682,3.017046 -0.224667,0.656876 -0.651721,1.239879 -1.215909,1.644886 0.406014,0.657882 0.82126,1.310868 1.227273,1.96875 -0.510287,0.235247 -1.020459,0.470307 -1.53125,0.704546 -0.434726,-0.717324 -0.867739,-1.434252 -1.303977,-2.150569 -0.589878,0.09672 -1.194031,0.08821 -1.786932,0.02273 C 11.431774,20.693281 10.71,20.478048 10.161932,20 9.7408065,19.635293 9.4762975,19.123965 9.2954555,18.605113 8.9992565,17.7276 8.9198515,16.792993 8.9062505,15.872159 c -0.0071,-0.995388 0.05488,-2.005139 0.355114,-2.960228 0.232223,-0.718331 0.617726,-1.436828 1.2670445,-1.857954 0.762157,-0.504241 1.703281,-0.630219 2.599433,-0.622159 z m 6.051136,0.590909 c 0.53396,-5.04e-4 1.068309,-5.04e-4 1.602272,0 0.0015,0.706242 0.0013,1.413077 0.0029,2.119318 0.682567,0.001 1.36289,-5.03e-4 2.045455,0 -0.01164,0.458403 -0.02384,0.916598 -0.03693,1.375 -0.682063,0.0015 -1.363392,-0.0015 -2.045455,0 0.0015,1.157591 -0.0032,2.31684 0.0029,3.474432 0.01309,0.316853 0.0054,0.650509 0.144888,0.943181 0.10176,0.225673 0.376274,0.282214 0.599432,0.289774 0.420624,-0.0015 0.840742,-0.0265 1.261364,-0.0341 0.02567,0.421126 0.04967,0.843079 0.07386,1.264205 -0.836708,0.140538 -1.714285,0.3084 -2.545455,0.04546 -0.350094,-0.103768 -0.676126,-0.335752 -0.818181,-0.681819 -0.254384,-0.588871 -0.275849,-1.242807 -0.286931,-1.875 -10e-4,-1.141975 5.03e-4,-2.28416 0,-3.426136 -0.372263,-10e-4 -0.744215,0.0015 -1.116478,0 -0.001,-0.457897 -0.001,-0.916597 0,-1.375 0.372262,-0.0015 0.744214,0.0015 1.116478,0 0.0015,-0.706241 -0.0015,-1.413076 0,-2.119318 z m -5.943182,0.832386 c -0.262132,-0.02059 -0.527759,-0.0082 -0.786932,0.02557 -0.402991,0.05692 -0.806438,0.208154 -1.096591,0.502841 -0.333476,0.344054 -0.497958,0.813499 -0.610796,1.269887 -0.274033,1.20998 -0.226056,2.467626 -0.02557,3.684659 0.06649,0.383849 0.162949,0.768212 0.335227,1.119318 0.142056,0.293176 0.383823,0.532027 0.670455,0.684659 0.491145,0.257409 1.063917,0.298324 1.607954,0.258523 0.515829,-0.04031 1.054824,-0.214996 1.403409,-0.616478 0.34355,-0.399968 0.462338,-0.933076 0.545455,-1.44034 0.118377,-0.852327 0.125608,-1.719342 0.06818,-2.576705 -0.05289,-0.644282 -0.158286,-1.295478 -0.431814,-1.886363 -0.178323,-0.389895 -0.514485,-0.697946 -0.911931,-0.855114 -0.245321,-0.09798 -0.504913,-0.149864 -0.767046,-0.170455 z"
             style="opacity:0.6;fill:#d0d0d0;stroke-width:1.93939483"
             inkscape:connector-curvature="0"
             inkscape:label="#1" />
    </g>
</svg>
