<?xml version="1.0" encoding="UTF-8" standalone="no"?>
<!-- Created with Inkscape (http://www.inkscape.org/) -->

<svg
   xmlns:dc="http://purl.org/dc/elements/1.1/"
   xmlns:cc="http://creativecommons.org/ns#"
   xmlns:rdf="http://www.w3.org/1999/02/22-rdf-syntax-ns#"
   xmlns:svg="http://www.w3.org/2000/svg"
   xmlns="http://www.w3.org/2000/svg"
   xmlns:sodipodi="http://sodipodi.sourceforge.net/DTD/sodipodi-0.dtd"
   xmlns:inkscape="http://www.inkscape.org/namespaces/inkscape"
   width="64"
   height="64"
   viewBox="0 0 16.933333 16.933334"
   version="1.1"
   id="svg8"
   inkscape:version="0.92+devel 15640 custom"
   sodipodi:docname="applications-utilities.svg">
  <defs
     id="defs2" />
  <sodipodi:namedview
     id="base"
     pagecolor="#002266"
     bordercolor="#ffffff"
     borderopacity="0.46666667"
     inkscape:pageopacity="0"
     inkscape:pageshadow="2"
     inkscape:zoom="9.25"
     inkscape:cx="51.482501"
     inkscape:cy="26.303396"
     inkscape:document-units="px"
     inkscape:current-layer="layer1"
     inkscape:document-rotation="0"
     showgrid="false"
     inkscape:showpageshadow="false"
     borderlayer="false"
     units="px"
     fit-margin-top="0"
     fit-margin-left="0"
     fit-margin-right="0"
     fit-margin-bottom="0"
     inkscape:window-width="1920"
     inkscape:window-height="1051"
     inkscape:window-x="0"
     inkscape:window-y="0"
     inkscape:window-maximized="1"
     inkscape:snap-object-midpoints="true"
     inkscape:snap-bbox="true"
     inkscape:snap-bbox-midpoints="true"
     inkscape:snap-page="true"
     inkscape:bbox-nodes="true"
     inkscape:bbox-paths="true" />
  <metadata
     id="metadata5">
    <rdf:RDF>
      <cc:Work
         rdf:about="">
        <dc:format>image/svg+xml</dc:format>
        <dc:type
           rdf:resource="http://purl.org/dc/dcmitype/StillImage" />
        <dc:title></dc:title>
      </cc:Work>
    </rdf:RDF>
  </metadata>
  <g
     inkscape:label="applications-utilities"
     inkscape:groupmode="layer"
     id="layer1"
     transform="translate(0,-280.06666)">
    <ellipse
       style="fill:#000000;fill-opacity:0.41791286;stroke-width:0.32675928"
       id="path4262"
       cx="8.4666672"
       cy="288.53333"
       rx="8.4666672"
       ry="8.4666681"
       inkscape:label="base"
       sodipodi:insensitive="true" />
    <path
       inkscape:label="glyph"
       id="path5737"
       d="m 7.5005137,284.20285 -0.3036913,1.34328 a 3.249085,3.249085 0 0 0 -0.6823511,0.39397 l -1.3149788,-0.40851 -0.966153,1.673 1.0112874,0.93478 a 3.249085,3.249085 0 0 0 -0.026779,0.39396 3.249085,3.249085 0 0 0 0.027534,0.39319 l -1.0120513,0.93556 0.9661531,1.67298 1.3165094,-0.40849 a 3.249085,3.249085 0 0 0 0.6815857,0.39779 l 0.302926,1.33945 h 1.9323076 l 0.3036929,-1.34329 a 3.249085,3.249085 0 0 0 0.6823497,-0.39395 l 1.314979,0.40849 0.966155,-1.67298 -1.011288,-0.93479 a 3.249085,3.249085 0 0 0 0.02678,-0.39396 3.249085,3.249085 0 0 0 -0.02753,-0.39319 l 1.012052,-0.93555 -0.966154,-1.673 -1.316508,0.40851 a 3.249085,3.249085 0 0 0 -0.6815922,-0.39779 l -0.302926,-1.33946 z m 0.9661546,2.87551 a 1.4550871,1.4550871 0 0 1 1.4549675,1.45497 1.4550871,1.4550871 0 0 1 -1.4549675,1.45496 1.4550871,1.4550871 0 0 1 -1.454968,-1.45496 1.4550871,1.4550871 0 0 1 1.454968,-1.45497 z"
       style="fill:#ffffff;stroke-width:0.35633326"
       inkscape:connector-curvature="0" />
  </g>
</svg>
