<?xml version="1.0" encoding="UTF-8" standalone="no"?>
<!-- Created with Inkscape (http://www.inkscape.org/) -->

<svg
   xmlns:dc="http://purl.org/dc/elements/1.1/"
   xmlns:cc="http://creativecommons.org/ns#"
   xmlns:rdf="http://www.w3.org/1999/02/22-rdf-syntax-ns#"
   xmlns:svg="http://www.w3.org/2000/svg"
   xmlns="http://www.w3.org/2000/svg"
   xmlns:sodipodi="http://sodipodi.sourceforge.net/DTD/sodipodi-0.dtd"
   xmlns:inkscape="http://www.inkscape.org/namespaces/inkscape"
   width="64"
   height="64"
   viewBox="0 0 16.933333 16.933334"
   version="1.1"
   id="svg8"
   inkscape:version="0.92+devel 15640 custom"
   sodipodi:docname="applications-games.svg">
  <defs
     id="defs2" />
  <sodipodi:namedview
     id="base"
     pagecolor="#002266"
     bordercolor="#ffffff"
     borderopacity="0.46666667"
     inkscape:pageopacity="0"
     inkscape:pageshadow="2"
     inkscape:zoom="9.25"
     inkscape:cx="33.536555"
     inkscape:cy="26.303396"
     inkscape:document-units="px"
     inkscape:current-layer="layer1"
     inkscape:document-rotation="0"
     showgrid="false"
     inkscape:showpageshadow="false"
     borderlayer="false"
     units="px"
     fit-margin-top="0"
     fit-margin-left="0"
     fit-margin-right="0"
     fit-margin-bottom="0"
     inkscape:window-width="1920"
     inkscape:window-height="1051"
     inkscape:window-x="0"
     inkscape:window-y="0"
     inkscape:window-maximized="1"
     inkscape:snap-object-midpoints="true"
     inkscape:snap-bbox="true"
     inkscape:snap-bbox-midpoints="true"
     inkscape:snap-page="true"
     inkscape:bbox-nodes="true"
     inkscape:bbox-paths="true" />
  <metadata
     id="metadata5">
    <rdf:RDF>
      <cc:Work
         rdf:about="">
        <dc:format>image/svg+xml</dc:format>
        <dc:type
           rdf:resource="http://purl.org/dc/dcmitype/StillImage" />
        <dc:title></dc:title>
      </cc:Work>
    </rdf:RDF>
  </metadata>
  <g
     inkscape:label="name"
     inkscape:groupmode="layer"
     id="layer1"
     transform="translate(0,-280.06666)">
    <ellipse
       style="fill:#000000;fill-opacity:0.41791286;stroke-width:0.32675928"
       id="path4262"
       cx="8.4666672"
       cy="288.53333"
       rx="8.4666672"
       ry="8.4666681"
       inkscape:label="base"
       sodipodi:insensitive="true" />
    <path
       inkscape:label="controller"
       style="opacity:1;fill:#ffffff;fill-opacity:1;fill-rule:evenodd;stroke:none;stroke-width:0.01156004px;stroke-linecap:butt;stroke-linejoin:miter;stroke-opacity:1;shape-rendering:crispEdges"
       d="m 5.324276,285.45902 c -0.526176,0.0131 -1.3428552,4.10278 -1.0159956,5.13133 0.158992,0.5003 0.6772872,1.01902 1.2022472,1.01728 0.7264625,-0.003 1.2876566,-1.76044 1.5357264,-1.77865 1.003069,-0.067 1.9288287,-0.0617 2.8401727,0 0.2369753,0.0294 0.8092903,1.77622 1.5357553,1.77865 0.524955,0.001 1.043253,-0.51698 1.202243,-1.01728 0.329434,-1.03664 -0.492803,-5.17714 -1.028381,-5.1309 -2.0127243,0.17379 -4.5063762,0.17218 -6.259384,0 -0.00407,-3.7e-4 -0.00829,-3.7e-4 -0.012364,-3.7e-4 z m 0.8405701,0.72022 a 1.0546162,1.0546162 0 0 1 1.0546079,1.0546 1.0546162,1.0546162 0 0 1 -1.0546079,1.05463 1.0546162,1.0546162 0 0 1 -1.0546341,-1.05463 1.0546162,1.0546162 0 0 1 1.0546341,-1.0546 z m 4.6380299,0 a 1.0546162,1.0546162 0 0 1 1.054608,1.0546 1.0546162,1.0546162 0 0 1 -1.054608,1.05463 1.0546162,1.0546162 0 0 1 -1.0546093,-1.05463 1.0546162,1.0546162 0 0 1 1.0546093,-1.0546 z m -1.3721293,1.63294 a 0.22679918,0.22679918 0 0 1 0.226808,0.22681 0.22679918,0.22679918 0 0 1 -0.226808,0.22678 0.22679918,0.22679918 0 0 1 -0.226806,-0.22678 0.22679918,0.22679918 0 0 1 0.226806,-0.22681 z m -2.0221552,0.0772 a 0.53048833,0.53048833 0 0 1 0.5304828,0.53049 0.53048833,0.53048833 0 0 1 -0.5304828,0.53048 0.53048833,0.53048833 0 0 1 -0.5304829,-0.53048 0.53048833,0.53048833 0 0 1 0.5304829,-0.53049 z m 1.5572012,0.38768 a 0.22679918,0.22679918 0 0 1 0.226806,0.22681 0.22679918,0.22679918 0 0 1 -0.226806,0.2268 0.22679918,0.22679918 0 0 1 -0.22678,-0.2268 0.22679918,0.22679918 0 0 1 0.22678,-0.22681 z m 0.929878,0 a 0.22679918,0.22679918 0 0 1 0.2268073,0.22681 0.22679918,0.22679918 0 0 1 -0.2268073,0.2268 0.22679918,0.22679918 0 0 1 -0.22678,-0.2268 0.22679918,0.22679918 0 0 1 0.22678,-0.22681 z m -0.464924,0.46494 a 0.22679918,0.22679918 0 0 1 0.226808,0.22681 0.22679918,0.22679918 0 0 1 -0.226808,0.22678 0.22679918,0.22679918 0 0 1 -0.226806,-0.22678 0.22679918,0.22679918 0 0 1 0.226806,-0.22681 z"
       id="path7761"
       inkscape:connector-curvature="0" />
  </g>
</svg>
