<?xml version="1.0" encoding="UTF-8" standalone="no"?>
<!-- Created with Inkscape (http://www.inkscape.org/) -->

<svg
   xmlns:dc="http://purl.org/dc/elements/1.1/"
   xmlns:cc="http://creativecommons.org/ns#"
   xmlns:rdf="http://www.w3.org/1999/02/22-rdf-syntax-ns#"
   xmlns:svg="http://www.w3.org/2000/svg"
   xmlns="http://www.w3.org/2000/svg"
   xmlns:sodipodi="http://sodipodi.sourceforge.net/DTD/sodipodi-0.dtd"
   xmlns:inkscape="http://www.inkscape.org/namespaces/inkscape"
   width="64"
   height="64"
   viewBox="0 0 16.933333 16.933334"
   version="1.1"
   id="svg8"
   inkscape:version="0.92+devel 15697 custom"
   sodipodi:docname="blendersvg.svg">
  <defs
     id="defs2" />
  <sodipodi:namedview
     id="base"
     pagecolor="#002266"
     bordercolor="#ffffff"
     borderopacity="0.46666667"
     inkscape:pageopacity="0"
     inkscape:pageshadow="2"
     inkscape:zoom="9.25"
     inkscape:cx="51.482501"
     inkscape:cy="26.303396"
     inkscape:document-units="px"
     inkscape:current-layer="layer1"
     inkscape:document-rotation="0"
     showgrid="false"
     inkscape:showpageshadow="false"
     borderlayer="false"
     units="px"
     fit-margin-top="0"
     fit-margin-left="0"
     fit-margin-right="0"
     fit-margin-bottom="0"
     inkscape:window-width="1920"
     inkscape:window-height="1054"
     inkscape:window-x="0"
     inkscape:window-y="0"
     inkscape:window-maximized="1"
     inkscape:snap-object-midpoints="true"
     inkscape:snap-bbox="true"
     inkscape:snap-bbox-midpoints="true"
     inkscape:snap-page="true"
     inkscape:bbox-nodes="true"
     inkscape:bbox-paths="true" />
  <metadata
     id="metadata5">
    <rdf:RDF>
      <cc:Work
         rdf:about="">
        <dc:format>image/svg+xml</dc:format>
        <dc:type
           rdf:resource="http://purl.org/dc/dcmitype/StillImage" />
        <dc:title></dc:title>
      </cc:Work>
    </rdf:RDF>
  </metadata>
  <g
     inkscape:label="#"
     inkscape:groupmode="layer"
     id="layer1"
     transform="translate(0,-280.06666)">
    <ellipse
       style="fill:#000000;fill-opacity:0.41791286;stroke-width:0.32675928"
       id="path4262"
       cx="8.4666672"
       cy="288.53333"
       rx="8.4666672"
       ry="8.4666681"
       inkscape:label="#base"
       sodipodi:insensitive="true" />
    <path
       inkscape:label="#glyph"
       inkscape:connector-curvature="0"
       id="path4343"
       d="m 7.8775433,283.52754 a 0.62890547,0.62873201 0 0 0 -0.4412156,0.18664 0.62890547,0.62873201 0 0 0 0.00295,0.89006 l 1.545729,1.5453 H 4.6583333 a 0.62890547,0.62873201 0 0 0 -0.4520254,0.18961 0.62890547,0.62873201 0 0 0 -0.1788445,0.44109 0.62890547,0.62873201 0 0 0 0.6279225,0.62775 h 2.1903592 l -3.0590346,3.05819 a 0.62890547,0.62873201 0 0 0 -0.00388,0.89005 0.62890547,0.62873201 0 0 0 0.8942255,0 l 1.5801244,-1.58067 a 3.2057092,3.2048251 0 0 0 0.9109302,1.85279 3.2057092,3.2048251 0 0 0 4.5340164,-9.8e-4 3.2057092,3.2048251 0 0 0 0.08058,-4.44533 0.62890547,0.62873201 0 0 0 -0.07567,-0.0924 l -3.3764366,-3.3755 a 0.62890547,0.62873201 0 0 0 -0.4530137,-0.18665 z m 1.5860208,3.905 a 1.9296746,1.9291424 0 0 1 1.3354429,0.56489 1.9296746,1.9291424 0 0 1 9.82e-4,2.7281 1.9296746,1.9291424 0 0 1 -2.7298424,0 1.9296746,1.9291424 0 0 1 0,-2.7281 1.9296746,1.9291424 0 0 1 1.3934175,-0.56489 z m -0.029474,1.03348 a 0.89579795,0.89555087 0 0 0 -0.8952069,0.89596 0.89579795,0.89555087 0 0 0 0.8952069,0.89496 0.89579795,0.89555087 0 0 0 0.8961909,-0.89496 0.89579795,0.89555087 0 0 0 -0.8961909,-0.89596 z"
       style="fill:#ffffff;stroke:none;stroke-width:1.92399359;stroke-linecap:round;stroke-linejoin:round;stroke-miterlimit:4;stroke-dasharray:none" />
  </g>
</svg>
