<?xml version="1.0" encoding="UTF-8" standalone="no"?>
<!-- Created with Inkscape (http://www.inkscape.org/) -->

<svg
   xmlns:dc="http://purl.org/dc/elements/1.1/"
   xmlns:cc="http://creativecommons.org/ns#"
   xmlns:rdf="http://www.w3.org/1999/02/22-rdf-syntax-ns#"
   xmlns:svg="http://www.w3.org/2000/svg"
   xmlns="http://www.w3.org/2000/svg"
   xmlns:sodipodi="http://sodipodi.sourceforge.net/DTD/sodipodi-0.dtd"
   xmlns:inkscape="http://www.inkscape.org/namespaces/inkscape"
   width="64"
   height="64"
   viewBox="0 0 16.933333 16.933334"
   version="1.1"
   id="svg8"
   inkscape:version="0.92+devel 15697 custom"
   sodipodi:docname="cuttlefish.svg">
  <defs
     id="defs2" />
  <sodipodi:namedview
     id="base"
     pagecolor="#002266"
     bordercolor="#ffffff"
     borderopacity="0.46666667"
     inkscape:pageopacity="0"
     inkscape:pageshadow="2"
     inkscape:zoom="9.25"
     inkscape:cx="51.482501"
     inkscape:cy="26.303396"
     inkscape:document-units="px"
     inkscape:current-layer="layer1"
     inkscape:document-rotation="0"
     showgrid="false"
     inkscape:showpageshadow="false"
     borderlayer="false"
     units="px"
     fit-margin-top="0"
     fit-margin-left="0"
     fit-margin-right="0"
     fit-margin-bottom="0"
     inkscape:window-width="1920"
     inkscape:window-height="1054"
     inkscape:window-x="0"
     inkscape:window-y="0"
     inkscape:window-maximized="1"
     inkscape:snap-object-midpoints="true"
     inkscape:snap-bbox="true"
     inkscape:snap-bbox-midpoints="true"
     inkscape:snap-page="true"
     inkscape:bbox-nodes="true"
     inkscape:bbox-paths="true" />
  <metadata
     id="metadata5">
    <rdf:RDF>
      <cc:Work
         rdf:about="">
        <dc:format>image/svg+xml</dc:format>
        <dc:type
           rdf:resource="http://purl.org/dc/dcmitype/StillImage" />
        <dc:title></dc:title>
      </cc:Work>
    </rdf:RDF>
  </metadata>
  <g
     inkscape:label="#"
     inkscape:groupmode="layer"
     id="layer1"
     transform="translate(0,-280.06666)">
    <ellipse
       style="fill:#000000;fill-opacity:0.41791286;stroke-width:0.32675928"
       id="path4262"
       cx="8.4666672"
       cy="288.53333"
       rx="8.4666672"
       ry="8.4666681"
       inkscape:label="#base"
       sodipodi:insensitive="true" />
    <path
       inkscape:label="#glyph"
       sodipodi:nodetypes="cccscccscccccccccccccscccscccccccccccccccccc"
       inkscape:connector-curvature="0"
       id="path4264"
       d="m 8.4137509,283.71661 c -2.2321661,4e-5 -4.0416683,1.48661 -4.0416731,3.32038 0.0013,1.06676 0.626407,2.06805 1.6802248,2.69134 v 1.96166 c 0,0.24305 -0.2388842,0.51896 -0.4789984,0.55635 -0.2440194,0.0382 -0.4111568,0.26656 -0.3736949,0.51068 0.038584,0.24406 0.2674706,0.41082 0.5116163,0.37277 0.7098325,-0.11054 1.2357056,-0.72146 1.2357056,-1.4398 v -1.5628 c 0.1245547,0.04 0.2514546,0.0748 0.3802172,0.10439 v 2.45836 c 4.305e-4,0.24687 0.200448,0.44689 0.4473143,0.44731 0.2483213,0.002 0.4506159,-0.19898 0.4510432,-0.44731 v -2.34002 c 0.062666,0.003 0.1254287,0.006 0.188245,0.008 0.064041,-6.1e-4 0.1280505,-0.002 0.1919722,-0.005 v 2.33815 c 4.289e-4,0.24686 0.200448,0.44688 0.4473143,0.4473 0.2468663,-4.2e-4 0.4468838,-0.20044 0.4473143,-0.4473 v -2.45558 c 0.1287465,-0.0293 0.2556366,-0.0638 0.3802172,-0.10342 v 1.55908 c 0,0.71833 0.5268051,1.32931 1.2366371,1.4398 0.243481,0.0369 0.471136,-0.12948 0.509752,-0.37276 0.0375,-0.24372 -0.129119,-0.472 -0.372761,-0.5106 -0.240116,-0.0374 -0.478068,-0.3133 -0.478068,-0.55636 v -1.96445 c 1.052492,-0.62287 1.677121,-1.6229 1.679293,-2.68854 -5e-6,-1.83377 -1.809505,-3.32034 -4.0416711,-3.32039 z m -2.3735623,1.27111 c 0.5163179,-3e-5 0.93485,0.61504 0.9347011,1.37363 1.489e-4,0.75861 -0.4183832,1.37368 -0.9347011,1.37363 -0.5163195,5e-5 -0.9348515,-0.61502 -0.934701,-1.37363 -1.505e-4,-0.75859 0.4183815,-1.37366 0.934701,-1.37363 z m 4.7471244,0 c 0.516319,-3e-5 0.934849,0.61504 0.934701,1.37363 1.48e-4,0.75861 -0.418382,1.37368 -0.934701,1.37363 -0.51632,5e-5 -0.9348514,-0.61502 -0.9347009,-1.37363 -1.505e-4,-0.75859 0.4183809,-1.37366 0.9347009,-1.37363 z m -2.3735621,4.03274 c 0.2391852,-8e-5 0.4330089,0.0885 0.4324036,0.19756 -5.243e-4,0.10876 -0.1940163,0.19672 -0.4324036,0.19664 -0.238389,8e-5 -0.4318809,-0.0879 -0.4324053,-0.19664 -6.199e-4,-0.10908 0.1932184,-0.19764 0.4324053,-0.19756 z"
       style="fill:#ffffff;stroke-width:0.20276648" />
  </g>
</svg>
