<?xml version="1.0" encoding="UTF-8" standalone="no"?>
<!-- Created with Inkscape (http://www.inkscape.org/) -->

<svg
   xmlns:dc="http://purl.org/dc/elements/1.1/"
   xmlns:cc="http://creativecommons.org/ns#"
   xmlns:rdf="http://www.w3.org/1999/02/22-rdf-syntax-ns#"
   xmlns:svg="http://www.w3.org/2000/svg"
   xmlns="http://www.w3.org/2000/svg"
   xmlns:sodipodi="http://sodipodi.sourceforge.net/DTD/sodipodi-0.dtd"
   xmlns:inkscape="http://www.inkscape.org/namespaces/inkscape"
   width="64"
   height="64"
   viewBox="0 0 16.933333 16.933334"
   version="1.1"
   id="svg8"
   inkscape:version="0.92+devel 15640 custom"
   sodipodi:docname="dolphin.svg">
  <defs
     id="defs2" />
  <sodipodi:namedview
     id="base"
     pagecolor="#002266"
     bordercolor="#ffffff"
     borderopacity="0.46666667"
     inkscape:pageopacity="0"
     inkscape:pageshadow="2"
     inkscape:zoom="9.25"
     inkscape:cx="51.482501"
     inkscape:cy="26.303396"
     inkscape:document-units="px"
     inkscape:current-layer="layer1"
     inkscape:document-rotation="0"
     showgrid="false"
     inkscape:showpageshadow="false"
     borderlayer="false"
     units="px"
     fit-margin-top="0"
     fit-margin-left="0"
     fit-margin-right="0"
     fit-margin-bottom="0"
     inkscape:window-width="1920"
     inkscape:window-height="1051"
     inkscape:window-x="0"
     inkscape:window-y="0"
     inkscape:window-maximized="1"
     inkscape:snap-object-midpoints="true"
     inkscape:snap-bbox="true"
     inkscape:snap-bbox-midpoints="true"
     inkscape:snap-page="true"
     inkscape:bbox-nodes="true"
     inkscape:bbox-paths="true" />
  <metadata
     id="metadata5">
    <rdf:RDF>
      <cc:Work
         rdf:about="">
        <dc:format>image/svg+xml</dc:format>
        <dc:type
           rdf:resource="http://purl.org/dc/dcmitype/StillImage" />
        <dc:title></dc:title>
      </cc:Work>
    </rdf:RDF>
  </metadata>
  <g
     inkscape:label="dolphin"
     inkscape:groupmode="layer"
     id="layer1"
     transform="translate(0,-280.06666)">
    <ellipse
       style="fill:#000000;fill-opacity:0.41791286;stroke-width:0.32675928"
       id="path4262"
       cx="8.4666672"
       cy="288.53333"
       rx="8.4666672"
       ry="8.4666681"
       inkscape:label="base"
       sodipodi:insensitive="true" />
    <path
       inkscape:label="glyph"
       style="fill:#ffffff;stroke-width:0.02199799;shape-rendering:crispEdges"
       d="m 3.7931448,289.12036 c 0.083812,0.098 0.2069866,-0.0442 0.2873688,-0.10452 0.070909,-0.0535 0.14642,-0.11602 0.2119132,-0.14663 0.3402619,-0.15905 0.8600852,-0.0897 1.1922731,-0.23852 0.1177852,-0.0529 0.2136915,-0.13713 0.3314171,-0.18484 0.1117802,-0.0454 0.2081116,-0.0115 0.2966165,0.0131 0.047025,0.0131 0.097481,0.0317 0.140678,0.0465 0.2800778,0.0964 0.5613256,0.20123 0.9170564,0.20143 0.2854947,1.8e-4 0.5144052,-0.12157 0.7337871,-0.20223 0.055699,-0.0205 0.1305979,-0.0281 0.1662987,-0.0853 -0.1873441,-0.0131 -0.3485578,-0.0614 -0.549286,-0.108 -0.2636505,-0.0612 -0.4668954,-0.0987 -0.5921417,-0.28478 0.1063013,-0.0473 0.2383157,-0.0453 0.3571236,-0.0427 0.1297136,0.003 0.2582595,0.005 0.3825091,0.006 0.5247226,0.006 0.9323698,0.0905 1.3509982,0.21752 0.2033618,0.0615 0.397493,0.16135 0.5744297,0.24286 0.3624242,0.16727 0.6851594,0.39496 0.9957614,0.64941 0.140662,0.1152 0.273749,0.26624 0.428594,0.40583 0.06764,0.0611 0.136849,0.1301 0.211027,0.20684 0.07071,0.0731 0.174821,0.15971 0.198339,0.22951 0.0262,0.077 -0.0014,0.17033 -0.0082,0.26011 -0.01211,0.15609 -0.01309,0.32149 0.02312,0.47402 0.04694,0.19734 0.121009,0.38504 0.236042,0.52207 0.0339,-0.0424 0.04009,-0.10845 0.05129,-0.16992 0.07943,-0.14678 0.191961,-0.29862 0.161035,-0.51735 0.295899,0.10192 0.824531,0.006 1.142561,-0.0472 0.0956,-0.0163 0.194825,-0.0212 0.268171,-0.0719 -0.182914,-0.0734 -0.325502,-0.17993 -0.491117,-0.28555 -0.25051,-0.15971 -0.458166,-0.29471 -0.79888,-0.34768 -0.110453,-0.0173 -0.233658,-0.0165 -0.301082,-0.0698 -0.05176,-0.0408 -0.08186,-0.1445 -0.120272,-0.24284 -0.103668,-0.26597 -0.228131,-0.5458 -0.334531,-0.76657 -0.319735,-0.66373 -0.737973,-1.23259 -1.240605,-1.64648 -0.2546945,-0.20991 -0.5443831,-0.36788 -0.8577036,-0.54497 -0.059648,-0.0691 -0.1650723,-0.1584 -0.2018688,-0.27238 -0.037754,-0.11732 -0.020261,-0.22818 0.039488,-0.32033 0.1398589,-0.1435 0.3867357,-0.1957 0.4665872,-0.39021 -0.1570917,-0.0818 -0.3365496,-0.0849 -0.5106141,-0.0749 -0.3761371,0.0214 -0.7185782,0.1044 -0.9887234,0.25849 -0.1594632,0.091 -0.3007565,0.20103 -0.4447138,0.30195 -0.049106,0.0343 -0.1029937,0.0853 -0.1502663,0.10553 -0.120518,0.0519 -0.3257584,0.0265 -0.4866864,0.0456 -0.4022934,0.0482 -0.6565018,0.11913 -0.9773283,0.22151 -0.1501358,0.0479 -0.3059472,0.0953 -0.4346518,0.15692 -0.1099124,0.0528 -0.2300232,0.1512 -0.3488828,0.23663 -0.1878234,0.13516 -0.3115666,0.25409 -0.4511206,0.40336 -0.2332532,0.24945 -0.359585,0.5372 -0.5090664,0.855 -0.06525,0.13878 -0.158349,0.34481 -0.1411165,0.49416 -0.085029,0.19248 -0.2391593,0.32605 -0.2418481,0.58874 0.00519,0.008 0.010654,0.0163 0.016233,0.0229 z"
       id="path9551-0"
       inkscape:connector-curvature="0" />
  </g>
</svg>
