<?xml version="1.0" encoding="UTF-8" standalone="no"?>
<!-- Created with Inkscape (http://www.inkscape.org/) -->

<svg
   xmlns:dc="http://purl.org/dc/elements/1.1/"
   xmlns:cc="http://creativecommons.org/ns#"
   xmlns:rdf="http://www.w3.org/1999/02/22-rdf-syntax-ns#"
   xmlns:svg="http://www.w3.org/2000/svg"
   xmlns="http://www.w3.org/2000/svg"
   xmlns:sodipodi="http://sodipodi.sourceforge.net/DTD/sodipodi-0.dtd"
   xmlns:inkscape="http://www.inkscape.org/namespaces/inkscape"
   width="64"
   height="64"
   viewBox="0 0 16.933333 16.933334"
   version="1.1"
   id="svg8"
   inkscape:version="0.92+devel (7f3bd2b258, 2017-08-07, custom)"
   sodipodi:docname="google-tv.svg">
  <defs
     id="defs2" />
  <sodipodi:namedview
     id="base"
     pagecolor="#002266"
     bordercolor="#ffffff"
     borderopacity="0.46666667"
     inkscape:pageopacity="0"
     inkscape:pageshadow="2"
     inkscape:zoom="9.25"
     inkscape:cx="15.428447"
     inkscape:cy="26.303396"
     inkscape:document-units="px"
     inkscape:current-layer="svg8"
     inkscape:document-rotation="0"
     showgrid="false"
     inkscape:showpageshadow="false"
     borderlayer="false"
     units="px"
     fit-margin-top="0"
     fit-margin-left="0"
     fit-margin-right="0"
     fit-margin-bottom="0"
     inkscape:window-width="1920"
     inkscape:window-height="1027"
     inkscape:window-x="0"
     inkscape:window-y="24"
     inkscape:window-maximized="1"
     inkscape:snap-object-midpoints="true"
     inkscape:snap-bbox="true"
     inkscape:snap-bbox-midpoints="true"
     inkscape:snap-page="true"
     inkscape:bbox-nodes="true"
     inkscape:bbox-paths="true" />
  <metadata
     id="metadata5">
    <rdf:RDF>
      <cc:Work
         rdf:about="">
        <dc:format>image/svg+xml</dc:format>
        <dc:type
           rdf:resource="http://purl.org/dc/dcmitype/StillImage" />
        <dc:title></dc:title>
      </cc:Work>
    </rdf:RDF>
  </metadata>
  <g
     id="g861"
     inkscape:label="#google-tv">
    <ellipse
       inkscape:label="#"
       ry="8.4666681"
       rx="8.4666672"
       cy="8.4666672"
       cx="8.4666672"
       id="path4262"
       style="fill:#000000;fill-opacity:0.41791286;stroke-width:0.32675928" />
    <path
       inkscape:label="#"
       style="fill:#d0d0d0;stroke-width:0.14000817"
       d="m 4.8294621,5.2792929 c -0.3302306,0 -0.5961285,0.2658981 -0.5961285,0.5961286 V 10.38631 c 0,0.33023 0.2658979,0.596129 0.5961285,0.596129 H 6.825399 v 0.554017 c 0,0.0651 0.052223,0.117585 0.1173116,0.117585 h 3.0476389 c 0.065087,0 0.1175855,-0.0525 0.1175855,-0.117585 v -0.554017 h 1.995937 C 12.434102,10.982439 12.7,10.71654 12.7,10.38631 V 5.8754215 C 12.7,5.545191 12.434102,5.2792929 12.103872,5.2792929 Z M 7.1601058,6.622223 9.7732276,8.1308656 7.1601058,9.6395086 Z M 11.99367,9.8817886 c 0.183484,4e-6 0.332241,0.1487624 0.332246,0.3322454 9.1e-5,0.183553 -0.148694,0.332515 -0.332246,0.33252 -0.183552,-5e-6 -0.332337,-0.148967 -0.332246,-0.33252 4e-6,-0.183483 0.148762,-0.3322414 0.332246,-0.3322454 z"
       id="rect822"
       inkscape:connector-curvature="0" />
  </g>
</svg>
