<?xml version="1.0" encoding="UTF-8" standalone="no"?>
<!-- Created with Inkscape (http://www.inkscape.org/) -->

<svg
   xmlns:dc="http://purl.org/dc/elements/1.1/"
   xmlns:cc="http://creativecommons.org/ns#"
   xmlns:rdf="http://www.w3.org/1999/02/22-rdf-syntax-ns#"
   xmlns:svg="http://www.w3.org/2000/svg"
   xmlns="http://www.w3.org/2000/svg"
   xmlns:sodipodi="http://sodipodi.sourceforge.net/DTD/sodipodi-0.dtd"
   xmlns:inkscape="http://www.inkscape.org/namespaces/inkscape"
   width="64"
   height="64"
   viewBox="0 0 16.933333 16.933334"
   version="1.1"
   id="svg8"
   inkscape:version="0.92+devel 15640 custom"
   sodipodi:docname="google-chrome.svg">
  <defs
     id="defs2" />
  <sodipodi:namedview
     id="base"
     pagecolor="#002266"
     bordercolor="#ffffff"
     borderopacity="0.46666667"
     inkscape:pageopacity="0"
     inkscape:pageshadow="2"
     inkscape:zoom="9.25"
     inkscape:cx="67.590609"
     inkscape:cy="26.303396"
     inkscape:document-units="px"
     inkscape:current-layer="layer1"
     inkscape:document-rotation="0"
     showgrid="false"
     inkscape:showpageshadow="false"
     borderlayer="false"
     units="px"
     fit-margin-top="0"
     fit-margin-left="0"
     fit-margin-right="0"
     fit-margin-bottom="0"
     inkscape:window-width="1920"
     inkscape:window-height="1051"
     inkscape:window-x="0"
     inkscape:window-y="0"
     inkscape:window-maximized="1"
     inkscape:snap-object-midpoints="true"
     inkscape:snap-bbox="true"
     inkscape:snap-bbox-midpoints="true"
     inkscape:snap-page="true"
     inkscape:bbox-nodes="true"
     inkscape:bbox-paths="true" />
  <metadata
     id="metadata5">
    <rdf:RDF>
      <cc:Work
         rdf:about="">
        <dc:format>image/svg+xml</dc:format>
        <dc:type
           rdf:resource="http://purl.org/dc/dcmitype/StillImage" />
        <dc:title></dc:title>
      </cc:Work>
    </rdf:RDF>
  </metadata>
  <g
     inkscape:label="name"
     inkscape:groupmode="layer"
     id="layer1"
     transform="translate(0,-280.06666)">
    <ellipse
       style="fill:#000000;fill-opacity:0.41791286;stroke-width:0.32675928"
       id="path4262"
       cx="8.4666672"
       cy="288.53333"
       rx="8.4666672"
       ry="8.4666681"
       inkscape:label="base"
       sodipodi:insensitive="true" />
    <path
       inkscape:connector-curvature="0"
       inkscape:label="glyph"
       id="path3456"
       d="m 8.4666617,284.30038 c -1.5078962,10e-4 -2.8996622,0.8058 -3.6560603,2.10914 h 3.6560603 c 1.008674,0 1.8470553,0.71228 2.0617953,1.6574 l 1.246999,-2.161 c -0.800899,-1.00952 -2.0164973,-1.60429 -3.3087943,-1.60554 z m 3.6665833,2.13019 -1.827278,3.16522 -0.0045,-0.003 c -0.3678973,0.63453 -1.0508183,1.06509 -1.8347953,1.06509 -0.219296,0 -0.427193,-0.0425 -0.62613,-0.10516 l 1.246999,2.15952 c 2.0675723,-0.30647 3.6097793,-2.07808 3.6124643,-4.17846 -0.0019,-0.73866 -0.197958,-1.46339 -0.566749,-2.10314 z m -7.6007568,0.55171 c -0.1949179,0.49417 -0.299082,1.01961 -0.2991595,1.55143 0,2.3352 1.8909153,4.22805 4.225065,4.23257 l -1.831037,-3.17049 0.00752,-0.004 c -0.1820826,-0.31242 -0.2923946,-0.67098 -0.2923946,-1.05757 0,-0.61276 0.2638036,-1.16329 0.6810014,-1.55143 z m 3.9341735,0 a 1.5515521,1.5515521 0 0 0 -1.5514204,1.55143 1.5515521,1.5515521 0 0 0 1.5514204,1.55142 1.5515521,1.5515521 0 0 0 1.5514203,-1.55142 1.5515521,1.5515521 0 0 0 -1.5514203,-1.55143 z"
       style="fill:#ffffff;stroke-width:0.41227353" />
  </g>
</svg>
