<?xml version="1.0" encoding="UTF-8" standalone="no"?>
<!-- Created with Inkscape (http://www.inkscape.org/) -->

<svg
   xmlns:dc="http://purl.org/dc/elements/1.1/"
   xmlns:cc="http://creativecommons.org/ns#"
   xmlns:rdf="http://www.w3.org/1999/02/22-rdf-syntax-ns#"
   xmlns:svg="http://www.w3.org/2000/svg"
   xmlns="http://www.w3.org/2000/svg"
   xmlns:sodipodi="http://sodipodi.sourceforge.net/DTD/sodipodi-0.dtd"
   xmlns:inkscape="http://www.inkscape.org/namespaces/inkscape"
   width="64"
   height="64"
   viewBox="0 0 16.933333 16.933334"
   version="1.1"
   id="svg8"
   inkscape:version="0.92+devel 15640 custom"
   sodipodi:docname="kinfo.svg">
  <defs
     id="defs2" />
  <sodipodi:namedview
     id="base"
     pagecolor="#002266"
     bordercolor="#ffffff"
     borderopacity="0.46666667"
     inkscape:pageopacity="0"
     inkscape:pageshadow="2"
     inkscape:zoom="12.859375"
     inkscape:cx="32"
     inkscape:cy="32"
     inkscape:document-units="px"
     inkscape:current-layer="layer1"
     inkscape:document-rotation="0"
     showgrid="false"
     inkscape:showpageshadow="false"
     borderlayer="false"
     units="px"
     fit-margin-top="0"
     fit-margin-left="0"
     fit-margin-right="0"
     fit-margin-bottom="0"
     inkscape:window-width="1920"
     inkscape:window-height="1051"
     inkscape:window-x="0"
     inkscape:window-y="0"
     inkscape:window-maximized="1"
     inkscape:snap-object-midpoints="true"
     inkscape:snap-bbox="true"
     inkscape:snap-bbox-midpoints="true"
     inkscape:snap-page="true"
     inkscape:bbox-nodes="true"
     inkscape:bbox-paths="true" />
  <metadata
     id="metadata5">
    <rdf:RDF>
      <cc:Work
         rdf:about="">
        <dc:format>image/svg+xml</dc:format>
        <dc:type
           rdf:resource="http://purl.org/dc/dcmitype/StillImage" />
        <dc:title></dc:title>
      </cc:Work>
    </rdf:RDF>
  </metadata>
  <g
     inkscape:label="kinfo"
     inkscape:groupmode="layer"
     id="layer1"
     transform="translate(0,-280.06666)">
    <ellipse
       style="fill:#000000;fill-opacity:0.41791286;stroke-width:0.32675928"
       id="path4262"
       cx="8.4666672"
       cy="288.53333"
       rx="8.4666672"
       ry="8.4666681"
       inkscape:label="base"
       sodipodi:insensitive="true" />
    <path
       inkscape:label="glyph"
       id="path4936"
       d="m 8.4666664,284.29999 a 4.2333358,4.2333358 0 0 0 -4.2333363,4.23334 4.2333358,4.2333358 0 0 0 4.2333363,4.23333 4.2333358,4.2333358 0 0 0 4.2333366,-4.23333 4.2333358,4.2333358 0 0 0 -4.2333366,-4.23334 z m 0.021804,1.36877 c 0.337875,-1e-5 0.613348,0.27624 0.613353,0.6141 -5e-6,0.33788 -0.275478,0.61412 -0.613353,0.61411 -0.3378663,0 -0.6141007,-0.27623 -0.6141036,-0.61411 2.9e-6,-0.33786 0.2762373,-0.6141 0.6141036,-0.6141 z m -1.1883716,1.62358 h 1.7243036 v 3.22536 h 0.608842 c 0.217138,-0.0413 0.4419736,0.14845 0.4419736,0.44198 0,0.15211 -0.05843,0.27255 -0.1473246,0.3435 -0.08889,0.071 -0.196874,0.0947 -0.293897,0.0947 H 7.3076155 c -0.09904,0 -0.2085645,-0.0252 -0.2984074,-0.097 -0.089847,-0.0719 -0.1510837,-0.19314 -0.1510837,-0.34576 0,-0.15198 0.060029,-0.2719 0.1488291,-0.34275 0.0888,-0.0708 0.19615,-0.0941 0.2931464,-0.0947 h 0.6156076 v -2.3399 H 7.3000999 c -0.1028073,0 -0.2115565,-0.0253 -0.2991609,-0.0985 -0.087607,-0.0732 -0.1428074,-0.1937 -0.1428074,-0.34426 0,-0.15086 0.055796,-0.27129 0.1435637,-0.34426 0.087767,-0.073 0.1965776,-0.0985 0.298409,-0.0985 z"
       style="fill:#ffffff;stroke-width:0.76338953"
       inkscape:connector-curvature="0" />
  </g>
</svg>
