<?xml version="1.0" encoding="UTF-8" standalone="no"?>
<!-- Created with Inkscape (http://www.inkscape.org/) -->

<svg
   xmlns:dc="http://purl.org/dc/elements/1.1/"
   xmlns:cc="http://creativecommons.org/ns#"
   xmlns:rdf="http://www.w3.org/1999/02/22-rdf-syntax-ns#"
   xmlns:svg="http://www.w3.org/2000/svg"
   xmlns="http://www.w3.org/2000/svg"
   xmlns:sodipodi="http://sodipodi.sourceforge.net/DTD/sodipodi-0.dtd"
   xmlns:inkscape="http://www.inkscape.org/namespaces/inkscape"
   width="64"
   height="64"
   viewBox="0 0 16.933333 16.933334"
   version="1.1"
   id="svg8"
   inkscape:version="0.92+devel 15640 custom"
   sodipodi:docname="plasma-explorer.svg">
  <defs
     id="defs2" />
  <sodipodi:namedview
     id="base"
     pagecolor="#002266"
     bordercolor="#ffffff"
     borderopacity="0.46666667"
     inkscape:pageopacity="0"
     inkscape:pageshadow="2"
     inkscape:zoom="9.25"
     inkscape:cx="51.482501"
     inkscape:cy="26.303396"
     inkscape:document-units="px"
     inkscape:current-layer="layer1"
     inkscape:document-rotation="0"
     showgrid="false"
     inkscape:showpageshadow="false"
     borderlayer="false"
     units="px"
     fit-margin-top="0"
     fit-margin-left="0"
     fit-margin-right="0"
     fit-margin-bottom="0"
     inkscape:window-width="1920"
     inkscape:window-height="1051"
     inkscape:window-x="0"
     inkscape:window-y="0"
     inkscape:window-maximized="1"
     inkscape:snap-object-midpoints="true"
     inkscape:snap-bbox="true"
     inkscape:snap-bbox-midpoints="true"
     inkscape:snap-page="true"
     inkscape:bbox-nodes="true"
     inkscape:bbox-paths="true" />
  <metadata
     id="metadata5">
    <rdf:RDF>
      <cc:Work
         rdf:about="">
        <dc:format>image/svg+xml</dc:format>
        <dc:type
           rdf:resource="http://purl.org/dc/dcmitype/StillImage" />
        <dc:title></dc:title>
      </cc:Work>
    </rdf:RDF>
  </metadata>
  <g
     inkscape:label="plasma-explorer"
     inkscape:groupmode="layer"
     id="layer1"
     transform="translate(0,-280.06666)">
    <ellipse
       style="fill:#000000;fill-opacity:0.41791286;stroke-width:0.32675928"
       id="path4262"
       cx="8.4666672"
       cy="288.53333"
       rx="8.4666672"
       ry="8.4666681"
       inkscape:label="base"
       sodipodi:insensitive="true" />
    <path
       inkscape:label="glyph"
       id="rect7722-7"
       style="opacity:1;fill:#ffffff;fill-opacity:0.97872332;stroke:none;stroke-width:0.6497826;stroke-linejoin:round;stroke-miterlimit:4;stroke-dasharray:none;shape-rendering:crispEdges"
       d="m 9.5660693,284.33458 -1.163979,1.16399 1.6540777,1.65408 -1.5928167,1.59281 1.102718,1.10271 2.7567957,-2.75679 z m -1.278365,8.11487 a 1.0830329,1.0830329 0 0 1 -1.53164,0 1.0830329,1.0830329 0 0 1 0,-1.53164 1.0830329,1.0830329 0 0 1 1.53164,0 1.0830329,1.0830329 0 0 1 0,1.53164 z m -1.424952,-7.22508 a 0.54148552,0.54148552 0 0 1 -0.765775,0 0.54148552,0.54148552 0 0 1 0,-0.76578 0.54148552,0.54148552 0 0 1 0.765775,0 0.54148552,0.54148552 0 0 1 0,0.76578 z m -0.871403,3.51027 a 0.80890161,0.81884455 0 0 1 -1.143959,0 0.80890161,0.81884455 0 0 1 0,-1.15802 0.80890161,0.81884455 0 0 1 1.143959,0 0.80890161,0.81884455 0 0 1 0,1.15802 z"
       inkscape:connector-curvature="0" />
  </g>
</svg>
