<?xml version="1.0" encoding="UTF-8" standalone="no"?>
<!-- Created with Inkscape (http://www.inkscape.org/) -->

<svg
   xmlns:dc="http://purl.org/dc/elements/1.1/"
   xmlns:cc="http://creativecommons.org/ns#"
   xmlns:rdf="http://www.w3.org/1999/02/22-rdf-syntax-ns#"
   xmlns:svg="http://www.w3.org/2000/svg"
   xmlns="http://www.w3.org/2000/svg"
   xmlns:sodipodi="http://sodipodi.sourceforge.net/DTD/sodipodi-0.dtd"
   xmlns:inkscape="http://www.inkscape.org/namespaces/inkscape"
   width="64"
   height="64"
   viewBox="0 0 16.933333 16.933334"
   version="1.1"
   id="svg8"
   inkscape:version="0.92+devel (260139f747, 2017-08-10, custom)"
   sodipodi:docname="unreal-tournament.svg">
  <defs
     id="defs2" />
  <sodipodi:namedview
     id="base"
     pagecolor="#002266"
     bordercolor="#ffffff"
     borderopacity="0.46666667"
     inkscape:pageopacity="0"
     inkscape:pageshadow="2"
     inkscape:zoom="9.25"
     inkscape:cx="15.428447"
     inkscape:cy="26.303396"
     inkscape:document-units="px"
     inkscape:current-layer="svg8"
     inkscape:document-rotation="0"
     showgrid="false"
     inkscape:showpageshadow="false"
     borderlayer="false"
     units="px"
     fit-margin-top="0"
     fit-margin-left="0"
     fit-margin-right="0"
     fit-margin-bottom="0"
     inkscape:window-width="1920"
     inkscape:window-height="1027"
     inkscape:window-x="0"
     inkscape:window-y="24"
     inkscape:window-maximized="1"
     inkscape:snap-object-midpoints="true"
     inkscape:snap-bbox="true"
     inkscape:snap-bbox-midpoints="true"
     inkscape:snap-page="true"
     inkscape:bbox-nodes="true"
     inkscape:bbox-paths="true" />
  <metadata
     id="metadata5">
    <rdf:RDF>
      <cc:Work
         rdf:about="">
        <dc:format>image/svg+xml</dc:format>
        <dc:type
           rdf:resource="http://purl.org/dc/dcmitype/StillImage" />
        <dc:title></dc:title>
      </cc:Work>
    </rdf:RDF>
  </metadata>
  <ellipse
     style="fill:#000000;fill-opacity:0.41791286;stroke-width:0.32675928"
     id="path4262"
     cx="8.4666672"
     cy="8.4666672"
     rx="8.4666672"
     ry="8.4666681"
     inkscape:label="#" />
  <path
     inkscape:label="#"
     style="fill:#d0d0d0;stroke-width:0.01949825"
     inkscape:connector-curvature="0"
     id="path6"
     d="m 8.1507374,4.2649881 a 0.47380746,0.47380746 0 0 1 -0.050293,0.014988 c -0.065909,0.017523 -0.182894,0.052833 -0.2940363,0.089495 A 5.5207344,5.5207344 0 0 0 6.4245691,5.046847 C 5.8441021,5.436809 5.2663734,5.963259 4.6186384,6.6899643 Q 3.9568676,7.4332325 3.6564,8.2065378 C 3.4729192,8.6783903 3.3906361,9.1658507 3.4276851,9.5593246 c 0.00302,0.03022 0.00701,0.063372 0.00896,0.072919 l 0.00423,0.017518 0.00544,-0.013661 C 3.4658242,9.5867852 3.5658252,9.3954975 3.6297802,9.2827959 A 7.3102836,7.3102836 0 0 1 4.6512992,7.9034952 C 4.949234,7.5835328 5.1867196,7.3903017 5.4171875,7.2778001 c 0.1452648,-0.070394 0.2788268,-0.1015904 0.383337,-0.088915 0.098465,0.012086 0.1593018,0.040743 0.2215024,0.1035371 a 0.33381003,0.33381003 0 0 1 0.088909,0.1487718 l 0.011491,0.037658 0.00182,1.6507219 c 0.0012,1.0778661 0,1.6682701 -0.00363,1.7008351 A 0.39171984,0.39171984 0 0 1 6.080412,10.98113 c -0.061808,0.130044 -0.2070717,0.191867 -0.4094601,0.174321 a 1.2880544,1.2880544 0 0 1 -0.2287147,-0.04521 c -0.019533,-0.0059 -0.030224,-0.0075 -0.028048,-0.0041 0.00242,0.0037 0.014622,0.02101 0.028048,0.04074 0.14078,0.195956 0.36325,0.417653 0.5935243,0.588845 0.6089325,0.455285 1.5208653,0.791435 2.4957801,0.921098 l 0.1204989,0.01576 0.027685,-0.02963 c 0.014988,-0.01599 0.085989,-0.09146 0.1577416,-0.167284 0.2039492,-0.216039 0.2386583,-0.253481 0.5346406,-0.567399 0.1532568,-0.162807 0.2813597,-0.296375 0.2838986,-0.296375 0.00242,0 0.062783,0.04819 0.1331698,0.108022 l 0.5200209,0.439092 0.283898,0.240613 c 0.0066,0.0048 0.02068,-0.0018 0.07799,-0.03724 a 5.5408177,5.5408177 0 0 0 0.793966,-0.594516 c 0.101979,-0.09048 0.389968,-0.378846 0.485314,-0.487455 a 7.4820633,7.4820633 0 0 0 0.751646,-0.997664 C 12.838498,10.068249 12.995462,9.7863038 13.0678,9.6295353 l 0.02321,-0.050296 -0.139608,0.1386329 c -0.265377,0.2622526 -0.460748,0.4272048 -0.677759,0.5683708 -0.36033,0.236126 -0.660211,0.311977 -0.88698,0.224621 a 0.40673349,0.40673349 0 0 1 -0.136482,-0.08848 l -0.02244,-0.02479 -0.0037,-0.05731 c -0.01017,-0.171774 -0.01954,-0.5447735 -0.03155,-1.2235058 -0.01051,-0.6060071 -0.01209,-2.0798794 -0.0024,-2.331601 0.008,-0.2179908 0.01499,-0.3351774 0.02357,-0.3979595 0.0071,-0.050718 0.008,-0.052833 0.04933,-0.1230373 0.108605,-0.1848348 0.244701,-0.3839119 0.450215,-0.6566939 0.183474,-0.2447035 0.483363,-0.6206294 0.680879,-0.8548025 0.02207,-0.026113 0.04365,-0.052228 0.04775,-0.057304 0.0075,-0.00896 0.0071,-0.00955 -0.01462,-0.00605 C 12.317251,4.705912 12.03374,4.780209 11.846753,4.8416251 11.094498,5.087309 10.358828,5.5390804 9.8512896,6.0657298 l -0.075459,0.077993 -0.024178,-0.017158 C 9.6074425,6.0239862 9.3200378,5.9596441 9.0275615,5.964323 l -0.095539,0.00182 0.033125,0.020677 c 0.1029499,0.065906 0.2125328,0.1793821 0.2994944,0.311971 a 1.258612,1.258612 0 0 1 0.180947,0.4246721 l 0.014027,0.06181 0.0012,1.771221 0.00182,1.7712209 -0.064341,0.05071 C 9.1067953,10.61006 8.8168519,10.765847 8.5857977,10.815568 8.3742446,10.860778 8.1763348,10.813768 8.018013,10.67908 A 0.76686613,0.76686613 0 0 1 7.8475988,10.456988 l -0.018141,-0.03567 V 8.2975877 c 0,-1.1677529 -0.00182,-2.1225805 -0.00363,-2.1214137 C 7.722878,6.228402 7.6850479,6.240521 7.61778,6.240521 A 0.23651377,0.23651377 0 0 1 7.4317634,6.1605784 C 7.374459,6.1020631 7.3403171,6.0350077 7.3110703,5.9193873 7.2884515,5.8314458 7.2808456,5.7633981 7.277944,5.6224257 7.2749282,5.4742411 7.2809599,5.4128196 7.308532,5.3048027 A 1.3100874,1.3100874 0 0 1 7.5064426,4.8812976 c 0.1421395,-0.2074608 0.361884,-0.4196003 0.59645,-0.5753955 0.030587,-0.019466 0.057304,-0.03899 0.060268,-0.041106 0.00683,-0.00544 -0.00182,-0.00544 -0.011902,3.87e-4 z" />
</svg>
