<?xml version="1.0" encoding="UTF-8" standalone="no"?>
<!-- Created with Inkscape (http://www.inkscape.org/) -->

<svg
   xmlns:dc="http://purl.org/dc/elements/1.1/"
   xmlns:cc="http://creativecommons.org/ns#"
   xmlns:rdf="http://www.w3.org/1999/02/22-rdf-syntax-ns#"
   xmlns:svg="http://www.w3.org/2000/svg"
   xmlns="http://www.w3.org/2000/svg"
   xmlns:sodipodi="http://sodipodi.sourceforge.net/DTD/sodipodi-0.dtd"
   xmlns:inkscape="http://www.inkscape.org/namespaces/inkscape"
   width="8"
   height="8"
   viewBox="0 0 8 8"
   version="1.1"
   id="svg8"
   inkscape:version="0.92+devel (c0065a33f9, 2017-07-22, custom)"
   sodipodi:docname="emblem-information.svg">
  <defs
     id="ol-defs">
    <style
       id="current-color-scheme">      .ColorScheme-Text {
        color:#d0d0d0;
        stop-color:#d0d0d0;
      }
      .ColorScheme-Background {
        color:#212121;
        stop-color:#212121;
      }
      .ColorScheme-Highlight {
        color:#0039a9;
        stop-color:#0039a9;
      }
      .ColorScheme-ViewText {
        color:#d0d0d0;
        stop-color:#d0d0d0;
      }
      .ColorScheme-ViewBackground {
        color:#19191b;
        stop-color:#19191b;
      }
      .ColorScheme-ViewHover {
        color:#005cc7;
        stop-color:#005cc7;
      }
      .ColorScheme-ViewFocus{
        color:#002466;
        stop-color:#002466;
      }
      .ColorScheme-ButtonText {
        color:#d0d0d0;
        stop-color:#d0d0d0;
      }
      .ColorScheme-ButtonBackground {
        color:#232323;
        stop-color:#232323;                             
      }                                                 
      .ColorScheme-ButtonHover {                        
        color:#005cc7;                                  
        stop-color:#005cc7;                             
      }                                                 
      .ColorScheme-ButtonFocus{                         
        color:#0039a9;                                  
        stop-color:#0039a9;                             
      }</style>
  </defs>
  <sodipodi:namedview
     id="base"
     pagecolor="#002266"
     bordercolor="#ffffff"
     borderopacity="0.46666667"
     inkscape:pageopacity="0"
     inkscape:pageshadow="2"
     inkscape:zoom="72.74361"
     inkscape:cx="4"
     inkscape:cy="4"
     inkscape:document-units="px"
     inkscape:current-layer="g820"
     inkscape:document-rotation="0"
     showgrid="false"
     inkscape:showpageshadow="false"
     borderlayer="true"
     units="px"
     fit-margin-top="0"
     fit-margin-left="0"
     fit-margin-right="0"
     fit-margin-bottom="0"
     inkscape:window-width="1920"
     inkscape:window-height="1051"
     inkscape:window-x="0"
     inkscape:window-y="0"
     inkscape:window-maximized="1"
     inkscape:snap-page="true"
     inkscape:snap-grids="false"
     inkscape:snap-to-guides="false" />
  <metadata
     id="metadata5">
    <rdf:RDF>
      <cc:Work
         rdf:about="">
        <dc:format>image/svg+xml</dc:format>
        <dc:type
           rdf:resource="http://purl.org/dc/dcmitype/StillImage" />
        <dc:title></dc:title>
      </cc:Work>
    </rdf:RDF>
  </metadata>
  <g
     id="g820"
     inkscape:label="#emblem-checked">
    <rect
       inkscape:label="#boundary"
       y="0"
       x="0"
       height="8"
       width="8"
       id="rect816"
       style="fill:none" />
    <path
       style="vector-effect:none;fill:#005cc7;stroke-width:0.86104232;stroke-linecap:round;stroke-linejoin:round"
       d="M 4,2 A 2,2 0 0 0 2,4 2,2 0 0 0 4,6 2,2 0 0 0 6,4 2,2 0 0 0 4,2 Z m 0.3027344,0.2675781 c 0.100155,0 0.1841061,0.036007 0.2519531,0.1054688 0.069462,0.069462 0.1035156,0.1534131 0.1035156,0.2519531 0,0.09854 -0.034054,0.1824911 -0.1035156,0.2519531 -0.069462,0.069462 -0.1534131,0.1035157 -0.2519531,0.1035157 -0.096924,-1e-7 -0.180538,-0.034054 -0.25,-0.1035157 C 3.983272,2.8074907 3.9492188,2.723539 3.9492188,2.625 3.9492187,2.52646 3.9829338,2.4425089 4.0507812,2.3730469 4.1202432,2.3035849 4.2041944,2.2675781 4.3027344,2.2675781 Z m 0.00391,1.1152344 H 4.4511719 L 3.9550781,5.1054688 c -0.027462,0.09854 -0.041016,0.1626663 -0.041016,0.1933593 0,0.017769 0.00695,0.034627 0.021484,0.050781 0.014539,0.014539 0.030721,0.021484 0.046875,0.021484 0.027462,0 0.054569,-0.010926 0.082031,-0.035156 0.072693,-0.05977 0.1599484,-0.1675248 0.2617188,-0.3242187 l 0.082031,0.048828 C 4.164276,5.4853968 3.9054769,5.6972651 3.6308582,5.6972651 3.5258571,5.6972651 3.441906,5.6675341 3.378905,5.6093741 3.317519,5.5496041 3.287108,5.4752247 3.287108,5.3847647 c 0,-0.059769 0.013554,-0.1364376 0.041016,-0.2285156 L 3.6640625,3.9980469 c 0.032308,-0.111463 0.048828,-0.1954142 0.048828,-0.2519531 0,-0.035539 -0.014229,-0.066288 -0.044922,-0.09375 -0.030693,-0.027462 -0.073645,-0.042969 -0.1269532,-0.042969 -0.024231,0 -0.053967,0.00229 -0.087891,0.00391 l 0.03125,-0.097656 z"
       id="path4283"
       inkscape:connector-curvature="0"
       inkscape:label="#1" />
  </g>
</svg>
