<?xml version="1.0" encoding="UTF-8" standalone="no"?>
<!-- Created with Inkscape (http://www.inkscape.org/) -->

<svg
   xmlns:dc="http://purl.org/dc/elements/1.1/"
   xmlns:cc="http://creativecommons.org/ns#"
   xmlns:rdf="http://www.w3.org/1999/02/22-rdf-syntax-ns#"
   xmlns:svg="http://www.w3.org/2000/svg"
   xmlns="http://www.w3.org/2000/svg"
   xmlns:sodipodi="http://sodipodi.sourceforge.net/DTD/sodipodi-0.dtd"
   xmlns:inkscape="http://www.inkscape.org/namespaces/inkscape"
   width="64"
   height="64"
   viewBox="0 0 64 64"
   version="1.1"
   id="svg8"
   inkscape:version="0.92+devel 15719 custom"
   sodipodi:docname="input-gaming.svg">
  <defs
     id="ol-defs">
    <style
       id="current-color-scheme">      .ColorScheme-Text {
        color:#d0d0d0;
        stop-color:#d0d0d0;
      }
      .ColorScheme-Background {
        color:#212121;
        stop-color:#212121;
      }
      .ColorScheme-Highlight {
        color:#0039a9;
        stop-color:#0039a9;
      }
      .ColorScheme-ViewText {
        color:#d0d0d0;
        stop-color:#d0d0d0;
      }
      .ColorScheme-ViewBackground {
        color:#19191b;
        stop-color:#19191b;
      }
      .ColorScheme-ViewHover {
        color:#005cc7;
        stop-color:#005cc7;
      }
      .ColorScheme-ViewFocus{
        color:#002466;
        stop-color:#002466;
      }
      .ColorScheme-ButtonText {
        color:#d0d0d0;
        stop-color:#d0d0d0;
      }
      .ColorScheme-ButtonBackground {
        color:#232323;
        stop-color:#232323;                             
      }                                                 
      .ColorScheme-ButtonHover {                        
        color:#005cc7;                                  
        stop-color:#005cc7;                             
      }                                                 
      .ColorScheme-ButtonFocus{                         
        color:#0039a9;                                  
        stop-color:#0039a9;                             
      }</style>
    <style
       id="current-color-scheme-7">      .ColorScheme-Text {
        color:#d0d0d0;
        stop-color:#d0d0d0;
      }
      .ColorScheme-Background {
        color:#212121;
        stop-color:#212121;
      }
      .ColorScheme-Highlight {
        color:#0039a9;
        stop-color:#0039a9;
      }
      .ColorScheme-ViewText {
        color:#d0d0d0;
        stop-color:#d0d0d0;
      }
      .ColorScheme-ViewBackground {
        color:#19191b;
        stop-color:#19191b;
      }
      .ColorScheme-ViewHover {
        color:#005cc7;
        stop-color:#005cc7;
      }
      .ColorScheme-ViewFocus{
        color:#002466;
        stop-color:#002466;
      }
      .ColorScheme-ButtonText {
        color:#d0d0d0;
        stop-color:#d0d0d0;
      }
      .ColorScheme-ButtonBackground {
        color:#232323;
        stop-color:#232323;                             
      }                                                 
      .ColorScheme-ButtonHover {                        
        color:#005cc7;                                  
        stop-color:#005cc7;                             
      }                                                 
      .ColorScheme-ButtonFocus{                         
        color:#0039a9;                                  
        stop-color:#0039a9;                             
      }</style>
  </defs>
  <sodipodi:namedview
     id="base"
     pagecolor="#002266"
     bordercolor="#ffffff"
     borderopacity="0.46666667"
     inkscape:pageopacity="0"
     inkscape:pageshadow="2"
     inkscape:zoom="9.2500004"
     inkscape:cx="22.613485"
     inkscape:cy="30.60679"
     inkscape:document-units="px"
     inkscape:current-layer="svg8"
     inkscape:document-rotation="0"
     showgrid="false"
     inkscape:showpageshadow="false"
     borderlayer="true"
     units="px"
     fit-margin-top="0"
     fit-margin-left="0"
     fit-margin-right="0"
     fit-margin-bottom="0"
     inkscape:window-width="1920"
     inkscape:window-height="1051"
     inkscape:window-x="0"
     inkscape:window-y="0"
     inkscape:window-maximized="1"
     inkscape:snap-page="true" />
  <metadata
     id="metadata5">
    <rdf:RDF>
      <cc:Work
         rdf:about="">
        <dc:format>image/svg+xml</dc:format>
        <dc:type
           rdf:resource="http://purl.org/dc/dcmitype/StillImage" />
        <dc:title></dc:title>
      </cc:Work>
    </rdf:RDF>
  </metadata>
  <g
     id="g4313"
     inkscape:label="#input-gaming">
    <rect
       inkscape:label="#boundary"
       y="0"
       x="0"
       height="64"
       width="64"
       id="rect4266"
       style="fill:none;fill-opacity:0.74651441;stroke-width:23.61599922;stroke-opacity:0.3596773" />
    <path
       inkscape:connector-curvature="0"
       id="path7761"
       d="m 14.184875,14.570881 c -2.983047,0.07615 -7.6130393,23.259838 -5.7599776,29.090986 0.9013744,2.836386 3.8397376,5.777149 6.8158906,5.767222 4.11853,-0.01309 7.300101,-9.980378 8.706479,-10.083665 5.686689,-0.380334 10.935095,-0.34992 16.101771,0 1.343476,0.166255 4.588102,10.069919 8.706632,10.083665 2.976131,0.01091 5.914516,-2.930836 6.815869,-5.767222 1.867658,-5.877054 -2.79384,-29.350688 -5.830189,-29.088521 -11.410712,0.985244 -25.547952,0.976102 -35.486264,0 -0.02335,-0.0022 -0.04669,-0.0022 -0.07025,-0.0022 z m 4.765439,4.083076 a 5.9789263,5.9789263 0 0 1 5.978879,5.97888 5.9789263,5.9789263 0 0 1 -5.978879,5.979032 5.9789263,5.9789263 0 0 1 -5.979032,-5.979032 5.9789263,5.9789263 0 0 1 5.979032,-5.97888 z m 26.294331,0 a 5.9789263,5.9789263 0 0 1 5.97888,5.97888 5.9789263,5.9789263 0 0 1 -5.97888,5.979032 5.9789263,5.9789263 0 0 1 -5.978879,-5.979032 5.9789263,5.9789263 0 0 1 5.978879,-5.97888 z m -7.778988,9.257672 a 1.2857906,1.2857906 0 0 1 1.285832,1.285833 1.2857906,1.2857906 0 0 1 -1.285832,1.28568 1.2857906,1.2857906 0 0 1 -1.285833,-1.28568 1.2857906,1.2857906 0 0 1 1.285833,-1.285833 z M 26.00147,28.349607 a 3.0074927,3.0074927 0 0 1 3.007461,3.007462 3.0074927,3.0074927 0 0 1 -3.007461,3.007461 3.0074927,3.0074927 0 0 1 -3.007461,-3.007461 3.0074927,3.0074927 0 0 1 3.007461,-3.007462 z m 8.828223,2.197833 a 1.2857906,1.2857906 0 0 1 1.285833,1.285832 1.2857906,1.2857906 0 0 1 -1.285833,1.285833 1.2857906,1.2857906 0 0 1 -1.28568,-1.285833 1.2857906,1.2857906 0 0 1 1.28568,-1.285832 z m 5.271752,0 a 1.2857906,1.2857906 0 0 1 1.285833,1.285832 1.2857906,1.2857906 0 0 1 -1.285833,1.285833 1.2857906,1.2857906 0 0 1 -1.285679,-1.285833 1.2857906,1.2857906 0 0 1 1.285679,-1.285832 z m -2.635788,2.635941 a 1.2857906,1.2857906 0 0 1 1.285832,1.285833 1.2857906,1.2857906 0 0 1 -1.285832,1.28568 1.2857906,1.2857906 0 0 1 -1.285833,-1.28568 1.2857906,1.2857906 0 0 1 1.285833,-1.285833 z"
       style="opacity:0.6;fill:#ffffff;fill-opacity:1;fill-rule:evenodd;stroke:none;stroke-width:0.06553721px;stroke-linecap:butt;stroke-linejoin:miter;stroke-opacity:1;shape-rendering:crispEdges"
       inkscape:label="#1" />
  </g>
</svg>
