<?xml version="1.0" encoding="UTF-8" standalone="no"?>
<!-- Created with Inkscape (http://www.inkscape.org/) -->

<svg
   xmlns:dc="http://purl.org/dc/elements/1.1/"
   xmlns:cc="http://creativecommons.org/ns#"
   xmlns:rdf="http://www.w3.org/1999/02/22-rdf-syntax-ns#"
   xmlns:svg="http://www.w3.org/2000/svg"
   xmlns="http://www.w3.org/2000/svg"
   xmlns:sodipodi="http://sodipodi.sourceforge.net/DTD/sodipodi-0.dtd"
   xmlns:inkscape="http://www.inkscape.org/namespaces/inkscape"
   width="24"
   height="24"
   viewBox="0 0 6.3499997 6.3499997"
   version="1.1"
   id="svg8"
   inkscape:version="0.92+devel (7f3bd2b258, 2017-08-07, custom)"
   sodipodi:docname="appointment-new.svg">
  <defs
     id="defs2" />
  <sodipodi:namedview
     id="base"
     pagecolor="#002466"
     bordercolor="#ffffff"
     borderopacity="0.38039216"
     inkscape:pageopacity="1"
     inkscape:pageshadow="2"
     inkscape:zoom="17.854446"
     inkscape:cx="7.9159873"
     inkscape:cy="8.0000006"
     inkscape:document-units="px"
     inkscape:current-layer="svg8"
     inkscape:document-rotation="0"
     showgrid="false"
     inkscape:showpageshadow="false"
     borderlayer="true"
     inkscape:window-width="1920"
     inkscape:window-height="1027"
     inkscape:window-x="0"
     inkscape:window-y="24"
     inkscape:window-maximized="1"
     units="px" />
  <metadata
     id="metadata5">
    <rdf:RDF>
      <cc:Work
         rdf:about="">
        <dc:format>image/svg+xml</dc:format>
        <dc:type
           rdf:resource="http://purl.org/dc/dcmitype/StillImage" />
        <dc:title></dc:title>
      </cc:Work>
    </rdf:RDF>
  </metadata>
  <g
     id="g839"
     inkscape:label="#alarm-new"
     transform="scale(1.5)">
    <path
       inkscape:label="#boundary"
       inkscape:connector-curvature="0"
       id="rect811"
       d="M 0,0 H 4.2333332 V 4.2333332 H 0 Z"
       style="fill:none;stroke-width:0.25454992;stroke-linecap:round" />
    <path
       inkscape:label="#"
       style="opacity:0.6;fill:#d0d0d0;stroke-width:0.21309343"
       d="m 2.1166666,0.52916668 a 0.23211916,0.2804313 0 0 0 -0.2320212,0.2799687 0.23211916,0.2804313 0 0 0 0.0011,0.024249 C 1.3719694,0.93941148 0.98797379,1.3917353 0.98797379,1.937828 v 0.879036 c 0,0.071254 -0.028425,0.1397514 -0.0788101,0.1901363 -0.050385,0.050385 -0.1183299,0.07881 -0.18958515,0.07881 -0.0668153,0 -0.12124627,0.05388 -0.12124627,0.1206951 0,0.066815 0.0544305,0.1212464 0.12124627,0.1212464 H 1.740252 A 0.37623098,0.37623098 0 0 0 2.1166666,3.7041665 0.37623098,0.37623098 0 0 0 2.4930812,3.3277519 h 1.0206735 c 0.066815,-3e-7 0.1212462,-0.054431 0.1212462,-0.1212464 0,-0.066815 -0.054431,-0.1206954 -0.1212462,-0.1206951 -0.071255,0 -0.1392003,-0.028425 -0.1895852,-0.07881 -0.050385,-0.050385 -0.07881,-0.1188816 -0.07881,-0.1901363 V 1.9378283 c 0,-0.5460927 -0.3839958,-0.99841652 -0.8977739,-1.10444362 a 0.23211916,0.2804313 0 0 0 0.0011,-0.024249 0.23211916,0.2804313 0 0 0 -0.2320215,-0.279969 z"
       id="path815"
       inkscape:connector-curvature="0" />
  </g>
</svg>
