<?xml version="1.0" encoding="UTF-8" standalone="no"?>
<svg
   xmlns:dc="http://purl.org/dc/elements/1.1/"
   xmlns:cc="http://creativecommons.org/ns#"
   xmlns:rdf="http://www.w3.org/1999/02/22-rdf-syntax-ns#"
   xmlns:svg="http://www.w3.org/2000/svg"
   xmlns="http://www.w3.org/2000/svg"
   xmlns:sodipodi="http://sodipodi.sourceforge.net/DTD/sodipodi-0.dtd"
   xmlns:inkscape="http://www.inkscape.org/namespaces/inkscape"
   height="24"
   viewBox="0 0 24 24"
   width="24"
   version="1.1"
   id="svg12"
   sodipodi:docname="draw-geometry-inactive.svg"
   inkscape:version="0.92+devel (262af300f2, 2017-08-19, custom)">
  <defs
     id="defs14" />
  <sodipodi:namedview
     id="namedview2"
     inkscape:document-rotation="0"
     showgrid="false"
     inkscape:pagecheckerboard="false"
     pagecolor="#002466"
     inkscape:pageopacity="0"
     borderlayer="true"
     inkscape:showpageshadow="false"
     bordercolor="#ffffff"
     borderopacity="0.26666667"
     inkscape:zoom="45.9375"
     inkscape:cx="7.9673469"
     inkscape:cy="8"
     inkscape:window-width="1920"
     inkscape:window-height="1023"
     inkscape:window-x="0"
     inkscape:window-y="28"
     inkscape:window-maximized="1"
     inkscape:current-layer="svg12" />
  <metadata
     id="metadata4">
    <rdf:RDF>
      <cc:Work>
        <dc:format>image/svg+xml			</dc:format>
        <dc:type
           rdf:resource="http://purl.org/dc/dcmitype/StillImage" />
        <dc:title></dc:title>
      </cc:Work>
    </rdf:RDF>
  </metadata>
  <g
     id="g10"
     inkscape:label="#draw-geometry-inactive"
     transform="scale(1.5)">
    <rect
       fill="none"
       height="16"
       opacity=".6"
       width="16"
       id="rect6"
       x="0"
       y="0"
       inkscape:label="#boundary" />
    <path
       d="M 3.7540536,3.7548758 C 1.540866,5.9680632 1.423917,9.4957487 3.3975251,11.851388 l -0.023838,0.02383 0.7959703,0.79597 0.025909,-0.02591 c 2.355348,1.930978 5.8510406,1.797745 8.0488376,-0.400052 2.339832,-2.3398323 2.339833,-6.1505208 1e-6,-8.4903522 -2.3398313,-2.3398319 -6.1505198,-2.3398316 -8.4903517,3e-7 z M 4.550024,4.5508461 C 6.3327646,2.7681056 9.1343131,2.6506141 11.052522,4.1963908 L 4.1955684,11.053345 C 2.6497912,9.1351357 2.7672832,6.333587 4.550024,4.5508461 Z M 4.9987939,11.84206 11.841237,4.9996161 c 1.502611,1.9165746 1.374052,4.6827836 -0.392803,6.4496409 -1.7668557,1.766856 -4.5330653,1.895415 -6.4496401,0.392803 z"
       fill="#d0d0d0"
       opacity=".6"
       id="path8"
       inkscape:connector-curvature="0"
       inkscape:label="#" />
  </g>
</svg>
