<?xml version="1.0" encoding="UTF-8" standalone="no"?>
<!-- Created with Inkscape (http://www.inkscape.org/) -->

<svg
   xmlns:dc="http://purl.org/dc/elements/1.1/"
   xmlns:cc="http://creativecommons.org/ns#"
   xmlns:rdf="http://www.w3.org/1999/02/22-rdf-syntax-ns#"
   xmlns:svg="http://www.w3.org/2000/svg"
   xmlns="http://www.w3.org/2000/svg"
   xmlns:sodipodi="http://sodipodi.sourceforge.net/DTD/sodipodi-0.dtd"
   xmlns:inkscape="http://www.inkscape.org/namespaces/inkscape"
   width="24"
   height="24"
   viewBox="0 0 6.3499997 6.3499997"
   version="1.1"
   id="svg8"
   inkscape:version="0.92+devel (262af300f2, 2017-08-19, custom)"
   sodipodi:docname="draw-bezier-curves.svg">
  <defs
     id="defs2">
    <style
       id="current-color-scheme">      .ColorScheme-Text {
        color:#d0d0d0;
        stop-color:#d0d0d0;
      }
      .ColorScheme-Background {
        color:#212121;
        stop-color:#212121;
      }
      .ColorScheme-Highlight {
        color:#0039a9;
        stop-color:#0039a9;
      }
      .ColorScheme-ViewText {
        color:#d0d0d0;
        stop-color:#d0d0d0;
      }
      .ColorScheme-ViewBackground {
        color:#19191b;
        stop-color:#19191b;
      }
      .ColorScheme-ViewHover {
        color:#005cc7;
        stop-color:#005cc7;
      }
      .ColorScheme-ViewFocus{
        color:#002466;
        stop-color:#002466;
      }
      .ColorScheme-ButtonText {
        color:#d0d0d0;
        stop-color:#d0d0d0;
      }
      .ColorScheme-ButtonBackground {
        color:#232323;
        stop-color:#232323;                             
      }                                                 
      .ColorScheme-ButtonHover {                        
        color:#005cc7;                                  
        stop-color:#005cc7;                             
      }                                                 
      .ColorScheme-ButtonFocus{                         
        color:#0039a9;                                  
        stop-color:#0039a9;                             
      }</style>
  </defs>
  <sodipodi:namedview
     id="base"
     pagecolor="#002466"
     bordercolor="#ffffff"
     borderopacity="0.38039216"
     inkscape:pageopacity="1"
     inkscape:pageshadow="2"
     inkscape:zoom="12.625"
     inkscape:cx="25.360332"
     inkscape:cy="12.996682"
     inkscape:document-units="px"
     inkscape:current-layer="svg8"
     inkscape:document-rotation="0"
     showgrid="false"
     inkscape:showpageshadow="false"
     borderlayer="true"
     inkscape:window-width="1920"
     inkscape:window-height="1023"
     inkscape:window-x="0"
     inkscape:window-y="28"
     inkscape:window-maximized="1"
     units="px"
     inkscape:snap-page="true" />
  <metadata
     id="metadata5">
    <rdf:RDF>
      <cc:Work
         rdf:about="">
        <dc:format>image/svg+xml</dc:format>
        <dc:type
           rdf:resource="http://purl.org/dc/dcmitype/StillImage" />
        <dc:title></dc:title>
      </cc:Work>
    </rdf:RDF>
  </metadata>
  <g
     id="g866"
     inkscape:label="#draw-bezier-curve"
     transform="scale(1.5)">
    <path
       inkscape:label="#boundary"
       inkscape:connector-curvature="0"
       id="rect811"
       d="M 0,0 H 4.2333332 V 4.2333332 H 0 Z"
       style="fill:none;stroke-width:0.25454992;stroke-linecap:round" />
    <path
       inkscape:label="#"
       style="stroke-width:0.26458332"
       id="path841"
       opacity=".358974"
       fill="#d0d0d0"
       d="m 3.2429542,2.0542673 -0.8677763,0.00504 c 0.010347,0.00356 0.020289,0.00802 0.030618,0.011627 0.1060852,0.036949 0.2112714,0.076551 0.3139342,0.1205354 0.00405,0.00175 0.00837,0.0029 0.012401,0.00465 l 0.5050081,-0.0031 a 0.17648741,0.17648741 0 0 1 -0.011626,-0.062787 0.17648741,0.17648741 0 0 1 0.017441,-0.075964 z m -1.6750913,0.010077 -0.5693451,0.0031 a 0.17648741,0.17648741 0 0 1 0.0116271,0.062787 0.17648741,0.17648741 0 0 1 -0.0174408,0.075964 l 0.9483917,-0.00543 C 1.8155975,2.1585341 1.690273,2.1144027 1.5678629,2.0643443 Z"
       inkscape:connector-curvature="0" />
    <path
       inkscape:label="#"
       style="stroke-width:0.26458332"
       id="path843"
       opacity=".6"
       fill="#d0d0d0"
       d="m 0.52916661,0.66520488 c 0,0.51784142 0.20758774,0.87312972 0.50617059,1.10535882 0.298583,0.2322291 0.6754516,0.35422 1.0383087,0.4751648 0.3628572,0.1209447 0.711603,0.2406562 0.9573059,0.4317566 C 3.2766545,2.8685855 3.43209,3.1183207 3.43209,3.5681285 H 3.7041666 C 3.7041666,3.050287 3.4965788,2.6949984 3.1979957,2.4627694 2.8994129,2.2305403 2.5225443,2.1085495 2.1596872,1.9876047 1.79683,1.8666599 1.4480841,1.7469486 1.2023813,1.5558482 0.9566785,1.3647477 0.80124302,1.1150127 0.80124302,0.66520488 Z M 0.83379917,1.9538858 A 0.17648741,0.17648741 0 0 0 0.65745335,2.1302317 0.17648741,0.17648741 0 0 0 0.83379917,2.3065776 0.17648741,0.17648741 0 0 0 1.010145,2.1302317 0.17648741,0.17648741 0 0 0 0.83379917,1.9538858 Z m 2.56806013,0 A 0.17648741,0.17648741 0 0 0 3.2255134,2.1302317 0.17648741,0.17648741 0 0 0 3.4018593,2.3065776 0.17648741,0.17648741 0 0 0 3.5782051,2.1302317 0.17648741,0.17648741 0 0 0 3.4018593,1.9538858 Z"
       inkscape:connector-curvature="0" />
    <rect
       inkscape:label="#"
       style="stroke-width:0.26458332"
       id="rect845"
       y="1.8325753"
       x="1.8201733"
       width="0.59531248"
       height="0.59531248"
       fill="#0f0" />
  </g>
</svg>
