<?xml version="1.0" encoding="UTF-8" standalone="no"?>
<svg
   xmlns:dc="http://purl.org/dc/elements/1.1/"
   xmlns:cc="http://creativecommons.org/ns#"
   xmlns:rdf="http://www.w3.org/1999/02/22-rdf-syntax-ns#"
   xmlns:svg="http://www.w3.org/2000/svg"
   xmlns="http://www.w3.org/2000/svg"
   xmlns:sodipodi="http://sodipodi.sourceforge.net/DTD/sodipodi-0.dtd"
   xmlns:inkscape="http://www.inkscape.org/namespaces/inkscape"
   height="24"
   viewBox="0 0 24 24"
   width="24"
   version="1.1"
   id="svg14"
   sodipodi:docname="draw-ellipse-chord-arc.svg"
   inkscape:version="0.92+devel (262af300f2, 2017-08-19, custom)">
  <defs
     id="defs16" />
  <sodipodi:namedview
     id="namedview2"
     inkscape:document-rotation="0"
     showgrid="false"
     pagecolor="#002466"
     inkscape:pageopacity="1"
     inkscape:zoom="22.96875"
     inkscape:cx="7.9346939"
     inkscape:cy="8"
     inkscape:window-width="1920"
     inkscape:window-height="1023"
     inkscape:window-x="0"
     inkscape:window-y="28"
     inkscape:window-maximized="1"
     inkscape:current-layer="svg14"
     borderlayer="true"
     inkscape:showpageshadow="false"
     bordercolor="#ffffff"
     borderopacity="0.25098039" />
  <metadata
     id="metadata4">
    <rdf:RDF>
      <cc:Work>
        <dc:format>image/svg+xml			</dc:format>
        <dc:type
           rdf:resource="http://purl.org/dc/dcmitype/StillImage" />
        <dc:title></dc:title>
      </cc:Work>
    </rdf:RDF>
  </metadata>
  <g
     fill="none"
     transform="matrix(1.5,0,0,1.5,-750,-225)"
     id="g12"
     inkscape:label="#draw-ellipse-chord-arc">
    <rect
       height="16"
       width="16"
       x="500"
       y="150"
       id="rect6"
       inkscape:label="#boundary" />
    <path
       d="m 505.34701,153.70357 c -1.83853,1.22835 -2.64976,3.52647 -1.88392,5.63061 0.80258,2.20506 3.06415,3.51093 5.37508,3.10345 2.20521,-0.38884 3.78907,-2.24161 3.9335,-4.4481 z"
       fill="#b0c5da"
       opacity=".3"
       id="path8"
       inkscape:connector-curvature="0"
       inkscape:label="#" />
    <path
       d="m 505.29238,152.31662 -0.29255,0.16918 c -2.51843,1.45402 -3.6328,4.51753 -2.63819,7.25019 0.99461,2.73266 3.81533,4.36094 6.6792,3.85596 C 511.90469,163.08697 514,160.59093 514,157.68289 v -0.33837 l -0.2943,-0.16918 z m 0.0546,1.38694 7.42465,4.28597 c -0.14442,2.20648 -1.72828,4.05926 -3.9335,4.4481 -2.31092,0.40748 -4.5725,-0.89839 -5.37507,-3.10345 -0.76585,-2.10413 0.0454,-4.40227 1.88392,-5.63062 z"
       fill="#d0d0d0"
       opacity=".6"
       id="path10"
       inkscape:connector-curvature="0"
       inkscape:label="#" />
  </g>
</svg>
