<?xml version="1.0" encoding="UTF-8" standalone="no"?>
<!-- Created with Inkscape (http://www.inkscape.org/) -->

<svg
   xmlns:dc="http://purl.org/dc/elements/1.1/"
   xmlns:cc="http://creativecommons.org/ns#"
   xmlns:rdf="http://www.w3.org/1999/02/22-rdf-syntax-ns#"
   xmlns:svg="http://www.w3.org/2000/svg"
   xmlns="http://www.w3.org/2000/svg"
   xmlns:sodipodi="http://sodipodi.sourceforge.net/DTD/sodipodi-0.dtd"
   xmlns:inkscape="http://www.inkscape.org/namespaces/inkscape"
   width="24"
   height="24"
   viewBox="0 0 6.3499998 6.3499998"
   version="1.1"
   id="svg8"
   inkscape:version="0.92+devel (262af300f2, 2017-08-19, custom)"
   sodipodi:docname="filename-group-length.svg">
  <defs
     id="defs2">
    <style
       id="current-color-scheme">      .ColorScheme-Text {
        color:#d0d0d0;
        stop-color:#d0d0d0;
      }
      .ColorScheme-Background {
        color:#212121;
        stop-color:#212121;
      }
      .ColorScheme-Highlight {
        color:#0039a9;
        stop-color:#0039a9;
      }
      .ColorScheme-ViewText {
        color:#d0d0d0;
        stop-color:#d0d0d0;
      }
      .ColorScheme-ViewBackground {
        color:#19191b;
        stop-color:#19191b;
      }
      .ColorScheme-ViewHover {
        color:#005cc7;
        stop-color:#005cc7;
      }
      .ColorScheme-ViewFocus{
        color:#002466;
        stop-color:#002466;
      }
      .ColorScheme-ButtonText {
        color:#d0d0d0;
        stop-color:#d0d0d0;
      }
      .ColorScheme-ButtonBackground {
        color:#232323;
        stop-color:#232323;                             
      }                                                 
      .ColorScheme-ButtonHover {                        
        color:#005cc7;                                  
        stop-color:#005cc7;                             
      }                                                 
      .ColorScheme-ButtonFocus{                         
        color:#0039a9;                                  
        stop-color:#0039a9;                             
      }</style>
  </defs>
  <sodipodi:namedview
     id="base"
     pagecolor="#002466"
     bordercolor="#ffffff"
     borderopacity="0.38039216"
     inkscape:pageopacity="1"
     inkscape:pageshadow="2"
     inkscape:zoom="25.25"
     inkscape:cx="7.5247528"
     inkscape:cy="8"
     inkscape:document-units="px"
     inkscape:current-layer="svg8"
     inkscape:document-rotation="0"
     showgrid="false"
     inkscape:showpageshadow="false"
     borderlayer="true"
     inkscape:window-width="1920"
     inkscape:window-height="1023"
     inkscape:window-x="0"
     inkscape:window-y="28"
     inkscape:window-maximized="1"
     units="px"
     inkscape:snap-page="true"
     inkscape:snap-grids="false"
     inkscape:snap-to-guides="false" />
  <metadata
     id="metadata5">
    <rdf:RDF>
      <cc:Work
         rdf:about="">
        <dc:format>image/svg+xml</dc:format>
        <dc:type
           rdf:resource="http://purl.org/dc/dcmitype/StillImage" />
        <dc:title></dc:title>
      </cc:Work>
    </rdf:RDF>
  </metadata>
  <g
     id="g866"
     inkscape:label="#filename-group-length"
     transform="scale(1.5)"
     style="stroke-width:0.66666669">
    <path
       inkscape:label="#boundary"
       inkscape:connector-curvature="0"
       id="rect811"
       d="M 0,0 H 4.2333332 V 4.2333332 H 0 Z"
       style="fill:none;stroke-width:0.16969995;stroke-linecap:round" />
    <path
       inkscape:connector-curvature="0"
       inkscape:label="#"
       id="rect835"
       d="m 0.84658917,0.5291667 c -0.17589499,0 -0.31742247,0.1415275 -0.31742247,0.3174225 v 2.5401549 c 0,0.175895 0.14152748,0.3174224 0.31742247,0.3174224 H 3.3867441 c 0.175895,0 0.3174224,-0.1415274 0.3174224,-0.3174224 V 0.8465892 c 0,-0.175895 -0.1415274,-0.3174225 -0.3174224,-0.3174225 z M 2.1166666,1.1244792 A 0.99218751,0.99218751 0 0 1 3.1088541,2.1166666 0.99218751,0.99218751 0 0 1 2.1166666,3.1088541 0.99218751,0.99218751 0 0 1 1.1244792,2.1166666 0.99218751,0.99218751 0 0 1 2.1166666,1.1244792 Z m -0.011627,0.164331 c -0.068267,0.00477 -0.1213391,0.073981 -0.1123962,0.1410767 3.016e-4,0.2576212 -7.084e-4,0.5152156 3.869e-4,0.772821 0.00472,0.056978 0.054848,0.1061404 0.1116211,0.1108459 L 2.6480288,2.4619944 C 2.7293815,2.4773747 2.8095581,2.3939279 2.788718,2.3131662 2.7772364,2.2601098 2.7291128,2.221095 2.6763217,2.2139475 L 2.2406901,2.0969004 C 2.2403184,1.8646317 2.24163,1.6322909 2.2403025,1.4000437 2.2348054,1.3345704 2.1701694,1.2821202 2.1050396,1.2888102 Z"
       style="opacity:0.6;fill:#d0d0d0;stroke-width:0.22524859" />
  </g>
</svg>
