<?xml version="1.0" encoding="UTF-8" standalone="no"?>
<!-- Created with Inkscape (http://www.inkscape.org/) -->

<svg
   xmlns:dc="http://purl.org/dc/elements/1.1/"
   xmlns:cc="http://creativecommons.org/ns#"
   xmlns:rdf="http://www.w3.org/1999/02/22-rdf-syntax-ns#"
   xmlns:svg="http://www.w3.org/2000/svg"
   xmlns="http://www.w3.org/2000/svg"
   xmlns:sodipodi="http://sodipodi.sourceforge.net/DTD/sodipodi-0.dtd"
   xmlns:inkscape="http://www.inkscape.org/namespaces/inkscape"
   width="24"
   height="24"
   viewBox="0 0 24 24"
   version="1.1"
   id="svg8"
   inkscape:version="0.92+devel unknown"
   sodipodi:docname="text-orientation-auto.svg">
  <defs
     id="ol-defs">
    <style
       id="current-color-scheme">      .ColorScheme-Text {
        color:#d0d0d0;
        stop-color:#d0d0d0;
      }
      .ColorScheme-Background {
        color:#212121;
        stop-color:#212121;
      }
      .ColorScheme-Highlight {
        color:#0039a9;
        stop-color:#0039a9;
      }
      .ColorScheme-ViewText {
        color:#d0d0d0;
        stop-color:#d0d0d0;
      }
      .ColorScheme-ViewBackground {
        color:#19191b;
        stop-color:#19191b;
      }
      .ColorScheme-ViewHover {
        color:#005cc7;
        stop-color:#005cc7;
      }
      .ColorScheme-ViewFocus{
        color:#002466;
        stop-color:#002466;
      }
      .ColorScheme-ButtonText {
        color:#d0d0d0;
        stop-color:#d0d0d0;
      }
      .ColorScheme-ButtonBackground {
        color:#232323;
        stop-color:#232323;                             
      }                                                 
      .ColorScheme-ButtonHover {                        
        color:#005cc7;                                  
        stop-color:#005cc7;                             
      }                                                 
      .ColorScheme-ButtonFocus{                         
        color:#0039a9;                                  
        stop-color:#0039a9;                             
      }</style>
    <style
       id="current-color-scheme-7">      .ColorScheme-Text {
        color:#d0d0d0;
        stop-color:#d0d0d0;
      }
      .ColorScheme-Background {
        color:#212121;
        stop-color:#212121;
      }
      .ColorScheme-Highlight {
        color:#0039a9;
        stop-color:#0039a9;
      }
      .ColorScheme-ViewText {
        color:#d0d0d0;
        stop-color:#d0d0d0;
      }
      .ColorScheme-ViewBackground {
        color:#19191b;
        stop-color:#19191b;
      }
      .ColorScheme-ViewHover {
        color:#005cc7;
        stop-color:#005cc7;
      }
      .ColorScheme-ViewFocus{
        color:#002466;
        stop-color:#002466;
      }
      .ColorScheme-ButtonText {
        color:#d0d0d0;
        stop-color:#d0d0d0;
      }
      .ColorScheme-ButtonBackground {
        color:#232323;
        stop-color:#232323;                             
      }                                                 
      .ColorScheme-ButtonHover {                        
        color:#005cc7;                                  
        stop-color:#005cc7;                             
      }                                                 
      .ColorScheme-ButtonFocus{                         
        color:#0039a9;                                  
        stop-color:#0039a9;                             
      }</style>
    <style
       type="text/css"
       id="current-color-scheme-6">
      .ColorScheme-Text {
        color:#f2f2f2;
      }
      </style>
  </defs>
  <sodipodi:namedview
     id="base"
     pagecolor="#002266"
     bordercolor="#ffffff"
     borderopacity="0.46666667"
     inkscape:pageopacity="0"
     inkscape:pageshadow="2"
     inkscape:zoom="22.46875"
     inkscape:cx="8"
     inkscape:cy="12.744623"
     inkscape:document-units="px"
     inkscape:current-layer="svg8"
     inkscape:document-rotation="0"
     showgrid="false"
     inkscape:showpageshadow="false"
     borderlayer="true"
     units="px"
     fit-margin-top="0"
     fit-margin-left="0"
     fit-margin-right="0"
     fit-margin-bottom="0"
     inkscape:window-width="1920"
     inkscape:window-height="1051"
     inkscape:window-x="0"
     inkscape:window-y="0"
     inkscape:window-maximized="1"
     inkscape:snap-page="true"
     guidecolor="#f4ff00"
     guideopacity="0.42745098"
     guidehicolor="#4fff00"
     guidehiopacity="0.49803922" />
  <metadata
     id="metadata5">
    <rdf:RDF>
      <cc:Work
         rdf:about="">
        <dc:format>image/svg+xml</dc:format>
        <dc:type
           rdf:resource="http://purl.org/dc/dcmitype/StillImage" />
        <dc:title></dc:title>
      </cc:Work>
    </rdf:RDF>
  </metadata>
  <g
     id="g4312"
     inkscape:label="#text-orientation-auto"
     transform="scale(1.5)">
    <rect
       inkscape:label="#boundary"
       y="0"
       x="0"
       height="16"
       width="16"
       id="rect4264"
       style="vector-effect:none;fill:none;stroke-width:2.18181825;stroke-linecap:round" />
    <path
       inkscape:label="#2"
       inkscape:connector-curvature="0"
       id="path4276"
       d="M 4.7386456,2 C 4.0198356,2 3.4782288,2.1287589 3.113615,2.3857248 2.7490012,2.6426907 2.491484,3.0389314 2.3421655,3.5736984 L 3.670936,3.8127598 C 3.7612208,3.5557938 3.8785493,3.3766745 4.0243948,3.2759716 4.1702403,3.1717963 4.3740762,3.1205085 4.6345145,3.1205085 c 0.3854489,-1e-7 0.647215,0.060325 0.7861159,0.1818625 0.1389003,0.1180655 0.208262,0.3171133 0.208262,0.5983867 V 4.0474212 C 5.3649818,4.1585416 4.8903425,4.2782636 4.2062574,4.4067465 3.6992704,4.5039769 3.3111392,4.6179834 3.0402833,4.7499389 2.7728997,4.8784219 2.564815,5.066578 2.4154972,5.3131264 2.2661794,5.5562023 2.1911022,5.8336488 2.1911022,6.1461745 c 0,0.4722622 0.1634399,0.8627875 0.4898558,1.1718407 0.3298888,0.3090537 0.7798111,0.4634563 1.3493033,0.4634563 0.3229437,0 0.626034,-0.060324 0.9107798,-0.1818626 0.2847457,-0.1215374 0.5522279,-0.3039782 0.8022488,-0.5470545 0.010414,0.02778 0.02849,0.084784 0.052799,0.1715962 0.055561,0.1909886 0.1026003,0.3354269 0.1407968,0.432657 H 7.3844535 C 7.2559727,7.3928969 7.1676101,7.1468098 7.1189926,6.9176241 7.0738491,6.6849653 7.0515275,6.3257994 7.0515275,5.839648 L 7.0661939,4.1310193 C 7.0661938,3.4955496 7.0001532,3.0589126 6.8681983,2.8227817 6.7397155,2.5831784 6.5159514,2.387452 6.1964798,2.2346615 5.8770092,2.0783984 5.3914781,2 4.7386456,2 Z m 0.8902468,3.0007333 v 0.2918602 c 0,0.3507237 -0.019002,0.5877737 -0.057199,0.7127841 -0.05556,0.1909883 -0.1719608,0.3520343 -0.349059,0.4839893 -0.2396033,0.1736258 -0.4914058,0.2610608 -0.7553165,0.2610608 -0.236131,0 -0.4309296,-0.075077 -0.5837203,-0.2243949 -0.15279,-0.1493185 -0.2287948,-0.3260436 -0.2287948,-0.5309215 0,-0.2083508 0.095006,-0.3793607 0.2859937,-0.5147886 0.1250104,-0.08334 0.391565,-0.1698482 0.7978489,-0.256661 0.4062841,-0.086813 0.7027314,-0.1604231 0.890247,-0.2229284 z M 9.9950618,9.001711 c -0.4496999,0 -0.8218195,0.154101 -1.1161083,0.464923 -0.2942892,0.314129 -0.4414568,0.742486 -0.4414568,1.284771 0,0.307517 0.058798,0.597105 0.1745295,0.868248 0.1157312,0.271142 0.2891913,0.526039 0.5206551,0.764116 -0.026453,0.0099 -0.081598,0.02672 -0.164263,0.04987 -0.1818645,0.05291 -0.3180725,0.0971 -0.4106576,0.133465 v 1.378635 c 0.2513028,-0.122341 0.4857475,-0.205964 0.7039844,-0.25226 0.2215437,-0.04299 0.5637177,-0.06453 1.0266439,-0.06453 l 1.626497,0.01467 c 0.605113,0 1.020322,-0.06354 1.245172,-0.189196 0.228157,-0.122344 0.414763,-0.335243 0.560254,-0.639452 0.148798,-0.304209 0.222929,-0.767259 0.222929,-1.388903 0,-0.684471 -0.121969,-1.200104 -0.366658,-1.547299 C 13.331892,9.531574 12.955029,9.287637 12.445808,9.145452 l -0.228796,1.264239 c 0.244691,0.08597 0.415964,0.198448 0.511856,0.337326 0.0992,0.138877 0.14813,0.33279 0.14813,0.580787 0,0.367034 -0.05733,0.615718 -0.173062,0.747983 -0.112426,0.132265 -0.302685,0.199462 -0.570521,0.199462 h -0.13933 C 11.888272,12.023935 11.774704,11.571473 11.652359,10.920069 11.559779,10.437303 11.450951,10.067743 11.325299,9.809827 11.202955,9.555216 11.023282,9.356557 10.788511,9.214373 10.557048,9.072189 10.292658,9.001711 9.9950618,9.001711 Z m 0.1437312,1.393303 c 0.198396,0 0.362363,0.09093 0.491322,0.272793 0.07936,0.119039 0.160795,0.371375 0.243461,0.75825 0.08267,0.386874 0.153142,0.670624 0.212662,0.849181 h -0.277194 c -0.333969,0 -0.560013,-0.01937 -0.679051,-0.05573 C 9.948128,12.166603 9.793654,12.056684 9.6680031,11.888046 9.5026715,11.65989 9.4201413,11.419232 9.4201413,11.167929 c 0,-0.22485 0.070481,-0.408897 0.2126618,-0.554388 0.1421853,-0.145492 0.310899,-0.218528 0.5059899,-0.218527 z"
       style="font-style:normal;font-variant:normal;font-weight:bold;font-stretch:normal;font-size:medium;line-height:37.84999847;font-family:arial;-inkscape-font-specification:'arial Bold';opacity:0.6;fill:#d0d0d0;stroke-width:1.00008345" />
    <path
       inkscape:connector-curvature="0"
       style="fill:#ccff00;stroke-width:0.20746252"
       d="M 3.9589658,8.957461 3.7821515,9.73954 a 1.8916655,1.8916655 0 0 0 -0.397275,0.229368 l -0.7656002,-0.23783 -0.5625085,0.974035 0.5887859,0.544249 a 1.8916655,1.8916655 0 0 0 -0.015593,0.229368 1.8916655,1.8916655 0 0 0 0.016029,0.228923 l -0.5892311,0.544694 0.5625086,0.974035 0.7664913,-0.237829 a 1.8916655,1.8916655 0 0 0 0.396829,0.231595 L 3.9589557,14 H 5.0839738 L 5.2607879,13.217921 A 1.8916655,1.8916655 0 0 0 5.658063,12.988553 L 6.4236631,13.226382 6.9861717,12.252347 6.3973858,11.708099 A 1.8916655,1.8916655 0 0 0 6.4129703,11.47873 1.8916655,1.8916655 0 0 0 6.3969414,11.249808 L 6.9861734,10.705113 6.423664,9.731078 5.6571735,9.968908 A 1.8916655,1.8916655 0 0 0 5.2603445,9.737313 L 5.0839754,8.957461 Z m 0.5625085,1.674165 a 0.84717327,0.84717327 0 0 1 0.8471041,0.847104 0.84717327,0.84717327 0 0 1 -0.8471041,0.847104 0.84717327,0.84717327 0 0 1 -0.847104,-0.847104 0.84717327,0.84717327 0 0 1 0.847104,-0.847104 z"
       id="path5737"
       inkscape:label="#1" />
  </g>
</svg>
