<?xml version="1.0" encoding="UTF-8" standalone="no"?>
<svg
   xmlns:dc="http://purl.org/dc/elements/1.1/"
   xmlns:cc="http://creativecommons.org/ns#"
   xmlns:rdf="http://www.w3.org/1999/02/22-rdf-syntax-ns#"
   xmlns:svg="http://www.w3.org/2000/svg"
   xmlns="http://www.w3.org/2000/svg"
   xmlns:sodipodi="http://sodipodi.sourceforge.net/DTD/sodipodi-0.dtd"
   xmlns:inkscape="http://www.inkscape.org/namespaces/inkscape"
   height="22"
   viewBox="0 0 22 22"
   width="22"
   version="1.1"
   id="svg16"
   sodipodi:docname="emblem-symbolic-link.svg"
   inkscape:version="0.92+devel (262af300f2, 2017-08-19, custom)">
  <defs
     id="defs18" />
  <sodipodi:namedview
     id="namedview2"
     inkscape:document-rotation="0"
     showgrid="false"
     borderlayer="true"
     inkscape:showpageshadow="false"
     bordercolor="#ffffff"
     borderopacity="0.37647059"
     pagecolor="#002466"
     inkscape:pageopacity="0"
     inkscape:zoom="45.9375"
     inkscape:cx="7.9346938"
     inkscape:cy="8"
     inkscape:window-width="1920"
     inkscape:window-height="1023"
     inkscape:window-x="0"
     inkscape:window-y="28"
     inkscape:window-maximized="1"
     inkscape:current-layer="svg16" />
  <metadata
     id="metadata4">
    <rdf:RDF>
      <cc:Work>
        <dc:format>image/svg+xml			</dc:format>
        <dc:type
           rdf:resource="http://purl.org/dc/dcmitype/StillImage" />
        <dc:title></dc:title>
      </cc:Work>
    </rdf:RDF>
  </metadata>
  <g
     id="g817"
     inkscape:label="#emblem-symbolic-link"
     transform="scale(1.375)"
     style="stroke-width:0.72727275">
    <rect
       fill="none"
       height="16"
       stroke-linecap="round"
       stroke-width="2.181818"
       width="16"
       y="0"
       id="rect6"
       x="0" />
    <path
       inkscape:label="#"
       style="stroke-width:0.61309093;stroke-linejoin:round;stroke-miterlimit:4;stroke-dasharray:none"
       inkscape:connector-curvature="0"
       id="path8"
       stroke-width=".843"
       stroke-linecap="round"
       stroke="#000"
       opacity=".323077"
       fill="#000"
       d="m 8.0955277,3.5537229 0.05585,2.1221895 A 8.2202278,7.7926148 15 0 0 1.7325679,11.26062 8.2202278,7.7926148 15 0 0 1.6551063,14.742955 8.2202278,7.7926148 15 0 1 1.6803229,14.61865 8.2202278,7.7926148 15 0 1 8.2378499,9.0159283 L 8.3081088,11.74883 10.687915,9.6374516 13.067723,7.5260719 10.581625,5.5407982 Z" />
    <path
       inkscape:connector-curvature="0"
       id="path10"
       stroke-width="2.443236"
       stroke-linecap="round"
       fill="#d0d0d0"
       d="m 7.8690139,3.3272092 0.05585,2.1221894 A 8.2202278,7.7926148 15 0 0 1.5060541,11.034106 8.2202278,7.7926148 15 0 0 1.4285921,14.516441 8.2202278,7.7926148 15 0 1 1.4538087,14.392136 8.2202278,7.7926148 15 0 1 8.0113358,8.7894145 L 8.0815947,11.522317 10.461401,9.4109378 12.841208,7.2995581 10.355112,5.3142844 Z"
       inkscape:label="#" />
  </g>
</svg>
