<?xml version="1.0" encoding="UTF-8" standalone="no"?>
<!-- Created with Inkscape (http://www.inkscape.org/) -->

<svg
   xmlns:dc="http://purl.org/dc/elements/1.1/"
   xmlns:cc="http://creativecommons.org/ns#"
   xmlns:rdf="http://www.w3.org/1999/02/22-rdf-syntax-ns#"
   xmlns:svg="http://www.w3.org/2000/svg"
   xmlns="http://www.w3.org/2000/svg"
   xmlns:sodipodi="http://sodipodi.sourceforge.net/DTD/sodipodi-0.dtd"
   xmlns:inkscape="http://www.inkscape.org/namespaces/inkscape"
   width="16"
   height="16"
   viewBox="0 0 16 16"
   version="1.1"
   id="svg8"
   inkscape:version="0.92+devel trunk-123-gfa70b9518d 2017-07-11 custom"
   sodipodi:docname="folder-remote.svg">
  <defs
     id="ol-defs">
    <style
       id="current-color-scheme">      .ColorScheme-Text {
        color:#d0d0d0;
        stop-color:#d0d0d0;
      }
      .ColorScheme-Background {
        color:#212121;
        stop-color:#212121;
      }
      .ColorScheme-Highlight {
        color:#0039a9;
        stop-color:#0039a9;
      }
      .ColorScheme-ViewText {
        color:#d0d0d0;
        stop-color:#d0d0d0;
      }
      .ColorScheme-ViewBackground {
        color:#19191b;
        stop-color:#19191b;
      }
      .ColorScheme-ViewHover {
        color:#005cc7;
        stop-color:#005cc7;
      }
      .ColorScheme-ViewFocus{
        color:#002466;
        stop-color:#002466;
      }
      .ColorScheme-ButtonText {
        color:#d0d0d0;
        stop-color:#d0d0d0;
      }
      .ColorScheme-ButtonBackground {
        color:#232323;
        stop-color:#232323;                             
      }                                                 
      .ColorScheme-ButtonHover {                        
        color:#005cc7;                                  
        stop-color:#005cc7;                             
      }                                                 
      .ColorScheme-ButtonFocus{                         
        color:#0039a9;                                  
        stop-color:#0039a9;                             
      }</style>
    <style
       id="current-color-scheme-7">      .ColorScheme-Text {
        color:#d0d0d0;
        stop-color:#d0d0d0;
      }
      .ColorScheme-Background {
        color:#212121;
        stop-color:#212121;
      }
      .ColorScheme-Highlight {
        color:#0039a9;
        stop-color:#0039a9;
      }
      .ColorScheme-ViewText {
        color:#d0d0d0;
        stop-color:#d0d0d0;
      }
      .ColorScheme-ViewBackground {
        color:#19191b;
        stop-color:#19191b;
      }
      .ColorScheme-ViewHover {
        color:#005cc7;
        stop-color:#005cc7;
      }
      .ColorScheme-ViewFocus{
        color:#002466;
        stop-color:#002466;
      }
      .ColorScheme-ButtonText {
        color:#d0d0d0;
        stop-color:#d0d0d0;
      }
      .ColorScheme-ButtonBackground {
        color:#232323;
        stop-color:#232323;                             
      }                                                 
      .ColorScheme-ButtonHover {                        
        color:#005cc7;                                  
        stop-color:#005cc7;                             
      }                                                 
      .ColorScheme-ButtonFocus{                         
        color:#0039a9;                                  
        stop-color:#0039a9;                             
      }</style>
  </defs>
  <sodipodi:namedview
     id="base"
     pagecolor="#002266"
     bordercolor="#ffffff"
     borderopacity="0.46666667"
     inkscape:pageopacity="0"
     inkscape:pageshadow="2"
     inkscape:zoom="24.106984"
     inkscape:cx="23.391822"
     inkscape:cy="17.519599"
     inkscape:document-units="px"
     inkscape:current-layer="svg8"
     inkscape:document-rotation="0"
     showgrid="false"
     inkscape:showpageshadow="false"
     borderlayer="true"
     units="px"
     fit-margin-top="0"
     fit-margin-left="0"
     fit-margin-right="0"
     fit-margin-bottom="0"
     inkscape:window-width="1920"
     inkscape:window-height="1051"
     inkscape:window-x="0"
     inkscape:window-y="0"
     inkscape:window-maximized="1"
     inkscape:snap-page="false"
     inkscape:snap-object-midpoints="true"
     inkscape:snap-center="true"
     inkscape:snap-bbox="true"
     inkscape:snap-midpoints="true"
     inkscape:object-paths="true"
     inkscape:snap-intersection-paths="true"
     inkscape:snap-grids="false"
     inkscape:snap-to-guides="false" />
  <metadata
     id="metadata5">
    <rdf:RDF>
      <cc:Work
         rdf:about="">
        <dc:format>image/svg+xml</dc:format>
        <dc:type
           rdf:resource="http://purl.org/dc/dcmitype/StillImage" />
        <dc:title></dc:title>
      </cc:Work>
    </rdf:RDF>
  </metadata>
  <g
     id="g4269"
     inkscape:label="#folder-remote"
     transform="scale(0.25)">
    <rect
       inkscape:label="#boundary"
       y="0"
       x="0"
       height="64"
       width="64"
       id="rect4266"
       style="fill:none;fill-opacity:0.74651441;stroke-width:23.61599922;stroke-opacity:0.3596773"
       sodipodi:insensitive="true" />
    <path
       style="opacity:0.6;vector-effect:none;fill:#d0d0d0;stroke-width:4.23007631;stroke-linecap:round;stroke-linejoin:round"
       d="m 33.244495,8.727277 c -2.215063,0.00473 -4.423168,0.3330498 -6.547529,0.960442 -0.03099,0.048117 -0.0506,0.094923 -0.0413,0.1858907 0.01438,0.2189803 0.216617,0.3005733 0.330475,0.3201483 0.175601,0.03558 0.479849,-0.0036 0.650623,-0.08262 0.318049,-0.1470641 0.467423,-0.6270757 0.733236,-0.5680038 0.208807,0.047377 0.452248,0.7392438 0.485401,0.9810968 0.03331,0.255624 -0.01322,0.41367 0,0.650622 0.02855,0.398754 0.486512,0.369122 0.733242,0.578331 0.07101,0.06229 0.103636,0.231375 0.165237,0.320148 0.118812,0.161801 0.306945,0.159781 0.330475,0.330475 0.04759,0.413495 -0.368387,0.44255 -0.330475,0.898478 -0.08539,0.180746 -0.338406,0.248427 -0.320164,0.485386 0.02855,0.375932 0.585961,0.03638 0.733242,0.330474 0.08116,0.156915 -0.02591,0.345085 -0.08265,0.568004 0.185278,0.218256 0.157624,0.495712 -0.165237,0.495712 -0.199342,0 -0.213619,-0.2812 -0.41312,-0.330475 -0.113947,-0.01962 -0.260202,0.01962 -0.402756,0 -0.118706,-0.01983 -0.288914,-0.07281 -0.402756,-0.08262 -0.294308,-0.02972 -0.56784,0.09842 -0.743568,-0.07229 0.284843,-0.374922 0.615571,-0.74092 0.981097,-1.063715 0.10866,-0.09983 0.30483,-0.208236 0.24783,-0.402767 -0.199395,-0.183426 -0.38848,-0.03738 -0.578331,0.07229 -0.204101,0.109602 -0.42269,0.301102 -0.650623,0.330475 -0.394031,0.05124 -0.978453,-0.04399 -1.301242,0.165237 -0.04748,0.175538 0.387417,0.04955 0.330475,0.320148 -0.161431,0.01962 -0.37221,0.109676 -0.495712,0 -0.108869,-0.100786 -0.01163,-0.261074 -0.08261,-0.320147 -0.123434,-0.09366 -0.611676,-0.194631 -0.815859,-0.165237 -0.251573,0.04246 -0.369598,0.272253 -0.402767,0.485385 0.303799,0.143283 0.789331,-0.195001 0.898478,0.165237 -0.161366,0.294075 -0.630533,0.417181 -0.57833,0.81586 0.01893,0.151061 0.202277,0.383192 0.330474,0.402767 0.128198,0.02675 0.202277,-0.07883 0.330475,-0.07229 0.132904,0.0096 0.163487,0.09185 0.320148,0.07229 0.227848,-0.0959 0.317208,-0.339744 0.578333,-0.320148 0.313237,0.38389 -0.246032,0.614768 -0.578333,0.733241 -0.379781,0.138318 -0.929056,0.196783 -1.218625,0.320148 -0.151897,0.06136 -0.652521,0.597485 -0.733241,0.165237 -0.06173,-0.308997 0.248898,-0.228847 0.320148,-0.485385 -0.37029,-0.07105 -0.731426,0.191876 -1.063716,0.320148 -0.479452,0.180582 -1.270007,0.207718 -1.383863,0.743568 -0.01824,0.108565 0.07125,0.416186 0,0.485385 -0.05698,0.0594 -0.420739,0.03336 -0.568003,0.08262 -0.227853,0.07995 -0.42545,0.198031 -0.568003,0.237529 -0.10471,0.02972 -0.263862,0.06302 -0.330475,0.08262 -0.189967,0.07599 -0.194827,0.314691 -0.413093,0.485385 -0.08555,0.07411 -0.331517,0.09602 -0.402767,0.165238 -0.123434,0.12338 -0.194821,0.446421 -0.413093,0.495712 -0.137594,0.0096 -0.191951,-0.07899 -0.320148,0 -0.01311,0.303962 0.128197,0.662989 0,0.970769 -0.2801,0.23193 -0.620344,0.456631 -0.981097,0.660949 -0.199385,0.113572 -0.325954,0.11904 -0.568004,0.23753 -0.17089,0.08481 -0.373479,0.299515 -0.568003,0.413088 -0.455722,0.265807 -0.981097,0.539683 -0.981097,1.218627 0,0.147048 0.04875,0.325028 0.07229,0.495712 0.01311,0.09983 -0.0053,0.210499 0,0.320164 0.03315,0.246719 0.208875,0.645165 0,0.81586 -0.31806,-0.133248 -0.74752,-0.257559 -0.97077,-0.485402 -0.06211,-0.237836 0.106085,-0.436491 0.08262,-0.650622 -0.02385,-0.170631 -0.270794,-0.476095 -0.413093,-0.495712 -0.142554,-0.02327 -0.178467,0.171794 -0.330475,0.165237 -0.18036,-0.0148 -0.505293,-0.310858 -0.733241,-0.330475 -0.337042,-0.03966 -0.528199,0.04917 -0.898478,0 -0.360805,0.18956 -0.379126,0.525058 -0.815859,0.495712 -0.122905,-0.0111 -0.248972,-0.08751 -0.382114,-0.134252 -0.674844,1.547478 -1.172307,3.166244 -1.497463,4.822864 0.172582,-0.03701 0.361756,-0.07889 0.495712,-0.123942 0.517444,-0.161747 0.385815,-0.830998 0.898478,-1.063711 0.227869,-0.103795 0.504463,-0.135309 0.898479,-0.154926 0.127679,0.104589 0.26614,0.324447 0.247856,0.485401 -0.01417,0.124259 -0.186224,0.242384 -0.247856,0.41312 -0.05198,0.151966 -0.0304,0.361989 -0.08262,0.485401 -0.07129,0.160849 -0.273549,0.260996 -0.330475,0.41312 -0.03315,0.09988 0.03315,0.14874 0,0.237519 -0.05666,0.155878 -0.332574,0.252165 -0.237529,0.41312 0.507937,0.199395 1.10286,-0.079 1.5491,0 0.189877,0.03331 0.655893,0.278815 0.650622,0.568004 -0.0045,0.218113 -0.224374,0.413648 -0.247856,0.650623 -0.02845,0.299013 -0.152151,0.656629 -0.165237,0.898478 -0.01893,0.393662 0.563341,1.070257 0.981097,1.063716 0.450957,-0.0038 0.765673,-0.402174 1.311571,-0.165237 0.180381,0.07598 0.368513,0.34031 0.568003,0.330475 0.166131,-0.01005 0.376239,-0.285953 0.485386,-0.485401 0.137667,-0.241802 0.175728,-0.454945 0.413093,-0.578331 0.256343,-0.13219 0.488299,-0.12447 0.81586,-0.24783 0.147137,-0.05235 0.269863,-0.14874 0.402766,-0.237519 0.114112,-0.07244 0.188175,-0.224564 0.330475,-0.08265 0.190057,0.189561 -0.24397,0.198444 -0.08262,0.402756 0.32753,0.175707 0.495887,-0.313607 0.733241,-0.320163 0.07594,-0.0049 0.358118,0.231385 0.495712,0.320163 0.185007,0.123307 0.198586,0.373622 0.402766,0.41312 0.128177,0.02855 0.393202,-0.184801 0.578331,-0.165237 0.242114,0.03331 0.38288,0.337031 0.568004,0.330475 0.223126,-0.0049 0.378179,-0.290977 0.568003,-0.330475 0.417725,-0.07995 0.548112,0.06906 0.733241,0.330475 0.204185,0.04071 0.140644,-0.181206 0.330474,-0.08264 -0.10444,0.208119 0.07985,0.242383 0.165238,0.413119 0.04722,0.10866 0.03035,0.188239 0.08262,0.237519 0.113927,0.10866 0.401948,0.143082 0.568004,0.24783 0.175601,0.109506 0.203297,0.335286 0.402767,0.568004 0.208854,0.236884 0.540542,0.393503 0.815859,0.41312 0.261075,0.01956 0.525281,-0.01956 0.743568,0 0.48896,0.06218 0.794214,0.302662 1.136004,0.568004 0.194637,0.147154 0.35152,0.237519 0.41312,0.41312 0.04759,0.123359 -0.04759,0.347289 0,0.485401 0.10443,0.298062 0.642041,0.386259 0.485401,0.898473 0.07128,0.148159 0.149375,0.226045 0.320164,0.330475 0.137689,0.08487 0.265808,0.217955 0.41312,0.237519 0.09486,0.01005 0.327725,-0.0063 0.41312,0 0.270619,0.01904 0.417984,0.07646 0.650623,0.165237 0.147153,0.05235 0.307738,0.09602 0.402756,0.165238 0.118283,0.08095 0.10057,0.333594 0.247829,0.402756 0.09497,0.04917 0.406617,-0.01956 0.568005,0 0.256342,0.02855 0.515593,0.241326 0.743568,0.247829 0.137583,0.0063 0.196645,-0.0063 0.320164,0 0.583872,0.04759 0.988933,0.689265 1.549101,0.898479 0.175654,0.05938 0.459492,0.03331 0.578326,0.08264 0.20886,0.08984 0.301921,0.695832 0.320163,0.981098 0.04759,0.863808 -0.596594,1.134601 -0.981097,1.704012 -0.08016,0.118389 -0.133988,0.412538 -0.24783,0.578325 -0.227842,0.336556 -0.435909,0.353952 -0.402756,0.970771 0.0045,0.170578 0.08264,0.223824 0.08264,0.41312 0,0.228001 -0.03014,0.611547 -0.08264,0.81586 -0.03754,0.155931 -0.05911,0.260784 -0.08264,0.402756 -0.02327,0.143188 0.01851,0.289708 0,0.41312 -0.01904,0.137213 -0.133089,0.295735 -0.237519,0.485401 -0.218377,0.408361 -0.369603,0.902804 -0.81586,1.063716 -0.26586,0.09364 -0.613657,0.06567 -0.898479,0.165238 -0.118653,0.0423 -0.27083,0.168357 -0.413119,0.237519 -0.412962,0.194424 -1.032477,0.471177 -1.146335,0.898478 -0.10443,0.379544 0.236461,0.714058 0.165237,1.14633 -0.07545,0.128224 -0.123677,0.183268 -0.237519,0.330475 -0.09972,0.137001 -0.221338,0.269614 -0.330474,0.402756 -0.142448,0.175654 -0.400007,0.326139 -0.485402,0.568004 -0.02855,0.07995 0.03331,0.119605 0,0.247829 -0.01428,0.04706 -0.122355,0.07651 -0.165237,0.165238 -0.03807,0.07995 0.03331,0.333541 0,0.402756 -0.109242,0.218113 -0.500577,0.674369 -0.733236,0.743568 -0.493703,0.138112 -0.969777,-0.317044 -1.311574,-0.24783 0.04748,0.241802 0.216579,0.319583 0.330474,0.485402 0.06049,0.09586 -0.0074,0.226044 0.08264,0.330474 0.108608,0.123307 0.23477,0.183057 0.24783,0.320164 0.02855,0.294096 -0.173803,0.551068 -0.330475,0.650623 -0.142411,0.08545 -0.398912,0.04336 -0.650624,0.08264 -0.175622,0.02855 -0.730504,0.134252 -0.815859,0.24783 -0.118797,0.165819 0.0903,0.484819 0,0.650617 -0.03426,0.06578 -0.08258,0.107233 -0.134257,0.134252 2.568268,0.954961 5.284294,1.446158 8.024337,1.456156 6.192499,-0.0063 12.119243,-2.483726 16.482429,-6.878008 -0.02168,-0.0085 -0.03966,-0.01058 -0.06197,-0.02062 0.09015,-0.313819 0.251743,-0.428718 0.41312,-0.898479 0.109083,-0.394349 0.292351,-0.946374 -0.08264,-1.136003 0.08672,-0.593204 -0.0028,-0.769017 0.08264,-1.879576 0.03807,-0.825721 -0.431362,-1.262466 -0.41312,-2.117106 -0.0049,-0.355273 0.23863,-0.69681 0.485402,-0.981097 0.52215,-0.882738 0.794038,-1.402329 0.898478,-2.199719 -0.05695,-0.165713 0.0616,-0.197333 0,-0.330475 -0.242119,-0.527226 -0.376371,-1.067803 -0.722914,-1.466483 -0.189878,-0.219118 -0.421686,-0.378909 -0.578331,-0.57833 -0.128224,-0.161854 -0.320164,-0.444634 -0.320164,-0.568004 -0.0049,-0.137372 0.03437,-0.276013 0.07228,-0.41312 0.04706,-0.175654 0.09893,-0.530061 0.165238,-0.805534 0.02855,-0.128277 0.188714,-0.291399 0.165237,-0.495712 -0.02379,-0.199342 -0.316304,-0.674168 -0.568004,-0.733236 -0.332272,-0.079 -0.645991,0.03966 -1.063716,0 -0.365532,-0.231914 -0.376318,-0.819503 -0.898474,-0.898479 -0.683564,-0.09967 -1.409609,0.2914 -1.879576,0.495712 -0.270566,0.118495 -0.578516,0.227684 -0.81586,0.237519 -0.227842,0.0148 -0.432314,-0.135362 -0.650623,-0.154926 -0.284842,-0.02855 -0.618405,0.105593 -0.898479,0.154926 -0.270619,0.04653 -0.491217,0.145673 -0.733241,0.165237 -0.460497,0.03331 -0.856765,-0.422478 -1.146335,-0.650622 -0.175654,-0.138324 -0.401963,-0.202198 -0.568004,-0.330475 -0.175654,-0.138059 -0.43041,-0.186969 -0.567999,-0.320164 -0.185171,-0.180571 -0.23075,-0.574011 -0.330474,-0.81586 -0.118601,-0.284208 -0.38002,-0.472975 -0.650623,-0.743568 -0.199342,-0.199342 -0.681042,-0.559322 -0.733242,-0.81586 -0.02855,-0.132137 0.09317,-0.260784 0.08265,-0.402756 -0.01375,-0.20812 -0.252959,-0.338195 -0.24783,-0.485402 0.0049,-0.208119 0.27358,-0.320111 0.330475,-0.495712 0.02855,-0.09073 -0.03331,-0.206533 0,-0.320164 0.06604,-0.241748 0.281035,-0.38187 0.247829,-0.733236 -0.01375,-0.142183 -0.07752,-0.232601 -0.08264,-0.41312 -0.0049,-0.123306 0.09571,-0.216897 0.08264,-0.330474 -0.01428,-0.204207 -0.306997,-0.252324 -0.330474,-0.485402 -0.02855,-0.241801 0.178509,-0.4578 0.330474,-0.733241 0.0661,-0.123307 0.175919,-0.231914 0.237519,-0.330475 0.13293,-0.199342 0.298326,-0.368598 0.402756,-0.568004 0.07112,-0.147048 0.01586,-0.386047 0.08264,-0.495712 0.09021,-0.142236 0.329629,-0.217373 0.495712,-0.402756 0.133195,-0.152018 0.225093,-0.250949 0.320164,-0.320164 0.118707,-0.08487 0.284896,-0.188767 0.41312,-0.247829 0.441461,-0.20426 0.684892,-0.476096 0.898474,-0.898479 -0.06197,-0.379967 0.09121,-0.4679 0.247829,-0.733242 0.147154,-0.246719 0.238629,-0.591264 0.485402,-0.733241 0.299066,-0.170615 0.689592,-0.100422 0.898478,-0.413088 0.10443,-0.160875 0.165238,-0.48482 0.165238,-0.650622 0,-0.232908 -0.204207,-0.538631 -0.41312,-0.568003 -0.218325,-0.0395 -0.527121,0.23304 -0.650623,0 -0.03807,-0.07601 0.01851,-0.241702 0,-0.330475 -0.02802,-0.156899 -0.242753,-0.371803 -0.24783,-0.485386 -0.01428,-0.224024 0.264169,-0.404411 0.330475,-0.660949 0.09031,-0.351318 0.02379,-0.567129 0,-0.97077 0.332326,-0.527109 1.061173,-0.297147 1.796958,-0.247856 0.1094,0.01 0.211662,0 0.330474,0 0.436703,0.0087 0.823506,0.04949 0.970771,-0.330474 0.05695,-0.142099 0.03807,-0.600083 0,-0.733241 -0.03807,-0.16086 -0.255496,-0.634672 -0.402756,-0.733241 -0.23736,-0.147132 -0.682956,-0.06023 -0.81586,-0.330474 0.109189,-0.469661 0.65747,-0.0413 0.970771,-0.154911 0.160848,-0.05742 0.105276,-0.290998 0.247829,-0.330475 0.09967,-0.03559 0.347766,0.08262 0.485402,0.08262 0.113947,0 0.386576,-0.251483 0.495712,-0.330475 0.151965,-0.09982 0.197544,-0.231374 0.330474,-0.320148 0.06335,-0.03966 0.175549,-0.08719 0.278815,-0.123925 -0.153128,-0.119383 -0.308689,-0.235599 -0.464726,-0.351128 -0.08444,0.08277 -0.169151,0.164645 -0.144563,0.309821 -0.327567,0.254587 -0.779894,0.168331 -1.311572,0.23753 -0.242119,0.02935 -0.466525,0.199411 -0.722915,0 -0.05721,-0.156904 0.131399,-0.168045 0.154928,-0.320143 -0.01903,-0.14231 -0.112097,-0.129382 -0.154926,-0.247856 0.07101,-0.184648 0.173169,-0.127304 0.154926,-0.402766 0.13293,-0.143263 0.4578,-0.135955 0.495712,-0.330475 0.02855,-0.133121 -0.110246,-0.251499 -0.247829,-0.330475 -0.08016,-0.04241 -0.162488,-0.105598 -0.24783,-0.154911 -0.04124,-0.02279 -0.05467,-0.0543 -0.07228,-0.08262 C 41.07903,9.7413442 37.195075,8.7298214 33.244495,8.727277 Z m -9.749002,2.16874 c -1.05695,0.482496 -2.073398,1.048615 -3.046563,1.683356 -0.03834,0.0745 -0.07229,0.143278 -0.07229,0.216876 0,0.165729 0.309657,0.403279 0.485385,0.413093 0.242082,0.01983 0.550872,-0.171233 0.650622,-0.413093 0.118278,-0.290125 0.0294,-0.689264 0.247856,-0.898478 0.833498,0.02141 1.465422,-0.349008 1.734992,-1.001754 z m -5.752325,3.790132 c -0.246168,0.208591 -0.495959,0.421649 -0.733241,0.640295 0.170728,0.0076 0.627891,-0.06481 0.671277,-0.08262 0.27981,-0.120035 0.202338,-0.356734 0.06196,-0.557676 z m 0.588658,0.722913 c -0.189962,-0.0138 -0.331516,0.159083 -0.402767,0.247856 -0.01,0.14322 0.07738,0.188503 0.07229,0.330475 -0.232723,0.165803 -0.06271,0.631046 0.165238,0.650622 0.242113,0.01983 0.327809,-0.59155 0.650622,-0.650622 0.113837,-0.02353 0.173814,0.174506 0.330475,0.154911 0.190147,-0.147043 0.116882,-0.518729 -0.08262,-0.568004 -0.07608,-0.02675 -0.274569,0.09243 -0.402767,0.08262 -0.132903,-0.0096 -0.216585,-0.24131 -0.330474,-0.247857 z m -1.001751,0.154911 c -0.0091,0.0036 -0.01851,0.01031 -0.05166,0.01031 -0.16235,-0.0078 -0.396252,0.0068 -0.547349,0.05166 -0.07533,0.07987 -0.153007,0.166919 -0.227202,0.247856 -0.03585,0.09923 -0.07756,0.199332 -0.134258,0.268509 -0.109146,0.133142 -0.22514,0.211985 -0.320148,0.330475 -0.08511,0.108565 -0.622892,0.819484 -0.247856,0.898478 0.161404,0.03352 0.545178,-0.367445 0.578331,-0.495712 0.109221,-0.437194 0.313581,-0.69416 0.650622,-0.898478 0.194515,-0.118416 0.286995,-0.151114 0.320148,-0.402767 -0.01168,-0.0147 -0.01174,-0.01396 -0.02067,-0.01031 z m 32.097355,0.660949 c -0.152072,0.0087 -0.289602,0.168331 -0.41312,0.23753 -0.113842,0.05713 -0.21658,0.168864 -0.330475,0.247856 -0.137689,0.08883 -0.274585,0.07607 -0.402756,0.08262 -0.299014,0.01962 -0.559449,-0.141671 -0.815855,-0.08262 -0.08539,0.01872 -0.06081,0.06665 -0.165237,0.165237 -0.0053,0.138318 0.01851,0.178377 0,0.330475 -0.07593,0.132184 -0.401963,0.148756 -0.568004,0.237529 -0.246825,0.128304 -0.378856,0.378909 -0.578331,0.578331 -0.128224,0.128198 -0.301869,0.220598 -0.320164,0.320148 -0.01428,0.07599 0.100887,0.225706 0.08264,0.330475 -0.02379,0.11353 -0.27083,0.303217 -0.41312,0.402766 -0.08513,0.05647 -0.147206,0.115947 -0.237518,0.165238 -0.189984,0.109606 -0.256449,0.301102 -0.41312,0.330474 -0.41772,0.07601 -1.223899,-0.120985 -1.218627,0.320148 0.0049,0.287154 0.408572,0.340289 0.650623,0.330475 0.337031,-0.0096 0.548117,0.04928 0.733241,0 0.128171,-0.03262 0.352471,-0.188767 0.485401,-0.247856 0.08566,-0.0395 0.181523,-0.05325 0.24783,-0.08262 0.142554,-0.07113 0.221286,-0.188254 0.330475,-0.237529 0.218324,-0.09985 0.655503,-0.238042 0.888152,-0.247856 0.322807,-0.01962 0.568094,0.0294 0.981092,0 0.147154,-0.0096 0.256448,-0.0728 0.41312,-0.08262 0.261101,-0.02675 0.689592,0.08916 0.898479,0.08262 0.147153,0 0.314347,-0.08262 0.485401,-0.08262 0.194636,0.0049 0.369603,0.124476 0.402756,0.247856 0.02379,0.06718 -0.01851,0.225707 0,0.330475 0.02379,0.170615 0.185912,0.206549 0.175548,0.320148 -0.0095,0.147064 -0.465308,0.40273 -0.41312,0.578331 0.03331,0.109622 0.357177,0.241172 0.485402,0.320143 0.13293,0.07799 0.406616,0.06303 0.568004,0.08264 0.13293,0.01956 0.20225,-0.0095 0.330474,0 0.204102,0.02379 0.522415,0.159103 0.650623,0.247829 0.223137,0.156936 0.152018,0.479215 0.41312,0.568004 0.113895,0.03966 0.343059,-0.02961 0.485401,0 0.346496,0.07598 0.647027,0.359821 0.898479,0.330475 0.398473,-0.04759 0.200294,-0.385254 0.24783,-0.650623 0.009,-0.05293 0.02062,-0.09909 0.04124,-0.134252 -0.47784,-0.93851 -1.010671,-1.840525 -1.611062,-2.705763 -0.05621,0.08997 -0.127325,0.162393 -0.227208,0.144584 -0.02062,-0.124618 0.05446,-0.236953 0.07228,-0.361454 -0.184379,-0.2699 -0.372406,-0.533315 -0.568004,-0.795205 -0.115376,-0.06278 -0.232496,-0.115598 -0.320164,-0.154911 -0.147154,-0.06626 -0.28019,-0.16833 -0.41312,-0.237529 -0.232654,-0.128304 -0.67356,-0.392948 -0.81586,-0.578331 -0.170895,-0.22697 -0.347924,-0.670216 -0.722915,-0.650622 z m -29.195374,0.227203 c -0.06079,0.006 -0.126495,0.02068 -0.185891,0.02068 -0.118796,0 -0.221307,-0.0066 -0.330475,0 -0.076,0.0066 -0.174564,-0.0096 -0.237529,0 -0.06267,0.0096 -0.160151,0.01327 -0.165237,0.07229 0.246846,0.116523 0.98772,0.240723 1.063715,-0.07229 -0.02385,-0.02469 -0.08378,-0.02681 -0.144583,-0.02068 z m -1.538774,0.578331 c -0.04045,0.0036 -0.07323,0.01031 -0.113598,0.01031 v 0.01031 c -0.242114,0 -0.606969,0.05272 -0.81586,0.07229 -0.161351,0.02385 -0.368572,0.0011 -0.330475,0.247855 0.03321,0.196482 0.315294,0.141671 0.495712,0.08262 0.379777,-0.118416 0.669865,-0.227715 0.888152,-0.413093 -0.04257,-0.0147 -0.08349,-0.01433 -0.123931,-0.01031 z m -8.540705,12.186251 c -0.118204,0.924753 -0.17935,1.856131 -0.185891,2.788382 0.0093,7.894279 4.024884,15.238009 10.65781,19.518661 0.0203,-0.148528 0.05502,-0.324447 0.07229,-0.454416 0.02839,-0.260572 -0.03506,-0.763063 -0.08262,-0.981097 -0.05696,-0.275325 -0.369613,-0.516916 -0.402767,-0.81586 -0.01438,-0.108608 0.175781,-0.276013 0.165238,-0.41312 -0.0095,-0.128224 -0.152151,-0.183268 -0.165238,-0.330475 -0.01036,-0.13716 -0.01311,-0.3245 0,-0.485401 0.02353,-0.299014 -0.0053,-0.604404 0,-0.898479 0.0053,-0.08576 0,-0.241696 0,-0.330475 0,-0.246719 -0.06953,-0.403866 -0.08262,-0.650617 -0.01824,-0.451191 0.07125,-0.801182 0,-1.218627 -0.05666,-0.317784 -0.13402,-0.781676 -0.247856,-0.981097 -0.128124,-0.223031 -0.646769,-0.508667 -0.898478,-0.650623 -0.166131,-0.09465 -0.304967,-0.159051 -0.485386,-0.24783 -0.384513,-0.189454 -1.213098,-0.585897 -1.383863,-0.970771 -0.04753,-0.113471 0.05219,-0.372352 0,-0.495712 -0.10444,-0.246719 -0.42167,-0.417561 -0.57833,-0.650622 -0.294266,-0.450874 -0.434186,-1.006605 -0.733241,-1.466478 -0.151897,-0.236831 -0.319308,-0.475566 -0.485386,-0.660949 -0.0997,-0.108608 -0.375197,-0.23699 -0.413093,-0.402757 -0.05198,-0.22303 -0.261033,-0.567438 -0.237529,-0.733241 0.03321,-0.228054 0.485385,-0.276171 0.485385,-0.485401 0,-0.175495 -0.200289,-0.348506 -0.247856,-0.495712 -0.118871,-0.366166 0.105281,-0.594612 0.247856,-0.898479 0.04251,-0.09983 0.03506,-0.250896 0.08262,-0.320164 0.08564,-0.128277 0.20629,-0.188503 0.320148,-0.330475 0.06606,-0.07598 0.162519,-0.216844 0.247856,-0.330474 0.180381,-0.237836 0.502353,-0.349986 0.57833,-0.568004 0.06158,-0.175549 0.07125,-1.017498 0,-1.311567 -0.04256,-0.170631 -0.186276,-0.3245 -0.247856,-0.485402 -0.10922,-0.289178 -0.201399,-0.657168 -0.495712,-0.650622 -0.185256,0 -0.283949,0.191886 -0.402766,0.320164 -0.02808,0.170577 -0.07211,0.446431 -0.247856,0.495712 -0.270604,0.0809 -0.337317,-0.397152 -0.650623,-0.495712 -0.123507,-0.03966 -0.249754,0.02961 -0.330474,0 -0.227848,-0.104589 -0.325954,-0.434852 -0.568004,-0.568005 -0.199411,-0.109611 -0.444496,-0.154344 -0.568003,-0.320163 -0.04753,-0.113472 0.01311,-0.260996 0,-0.41312 -0.261117,-0.152019 -0.429411,-0.682703 -0.733241,-0.81586 -0.199369,-0.09364 -0.564149,-0.07646 -0.815859,-0.165238 -0.118543,-0.03754 -0.206989,-0.135309 -0.330475,-0.154926 -0.151823,-0.02961 -0.283965,-0.02379 -0.402767,-0.08264 -0.16253,-0.08085 -0.305988,-0.233765 -0.433747,-0.392446 z m 8.829871,2.189398 c -0.170763,0.0809 -0.175707,0.339728 0,0.320164 0.185119,-0.02855 0.227949,-0.424912 0,-0.320164 z"
       id="path862"
       inkscape:connector-curvature="0"
       inkscape:label="#1" />
  </g>
</svg>
