<?xml version="1.0" encoding="UTF-8" standalone="no"?>
<!-- Created with Inkscape (http://www.inkscape.org/) -->

<svg
   xmlns:dc="http://purl.org/dc/elements/1.1/"
   xmlns:cc="http://creativecommons.org/ns#"
   xmlns:rdf="http://www.w3.org/1999/02/22-rdf-syntax-ns#"
   xmlns:svg="http://www.w3.org/2000/svg"
   xmlns="http://www.w3.org/2000/svg"
   xmlns:sodipodi="http://sodipodi.sourceforge.net/DTD/sodipodi-0.dtd"
   xmlns:inkscape="http://www.inkscape.org/namespaces/inkscape"
   width="32"
   height="32"
   viewBox="0 0 32 32"
   version="1.1"
   id="svg8"
   inkscape:version="0.92+devel (1871f5fd98, 2017-07-15, custom)"
   sodipodi:docname="application-pgp-keys.svg">
  <defs
     id="ol-defs">
    <style
       id="current-color-scheme">      .ColorScheme-Text {
        color:#d0d0d0;
        stop-color:#d0d0d0;
      }
      .ColorScheme-Background {
        color:#212121;
        stop-color:#212121;
      }
      .ColorScheme-Highlight {
        color:#0039a9;
        stop-color:#0039a9;
      }
      .ColorScheme-ViewText {
        color:#d0d0d0;
        stop-color:#d0d0d0;
      }
      .ColorScheme-ViewBackground {
        color:#19191b;
        stop-color:#19191b;
      }
      .ColorScheme-ViewHover {
        color:#005cc7;
        stop-color:#005cc7;
      }
      .ColorScheme-ViewFocus{
        color:#002466;
        stop-color:#002466;
      }
      .ColorScheme-ButtonText {
        color:#d0d0d0;
        stop-color:#d0d0d0;
      }
      .ColorScheme-ButtonBackground {
        color:#232323;
        stop-color:#232323;                             
      }                                                 
      .ColorScheme-ButtonHover {                        
        color:#005cc7;                                  
        stop-color:#005cc7;                             
      }                                                 
      .ColorScheme-ButtonFocus{                         
        color:#0039a9;                                  
        stop-color:#0039a9;                             
      }</style>
    <style
       id="current-color-scheme-7">      .ColorScheme-Text {
        color:#d0d0d0;
        stop-color:#d0d0d0;
      }
      .ColorScheme-Background {
        color:#212121;
        stop-color:#212121;
      }
      .ColorScheme-Highlight {
        color:#0039a9;
        stop-color:#0039a9;
      }
      .ColorScheme-ViewText {
        color:#d0d0d0;
        stop-color:#d0d0d0;
      }
      .ColorScheme-ViewBackground {
        color:#19191b;
        stop-color:#19191b;
      }
      .ColorScheme-ViewHover {
        color:#005cc7;
        stop-color:#005cc7;
      }
      .ColorScheme-ViewFocus{
        color:#002466;
        stop-color:#002466;
      }
      .ColorScheme-ButtonText {
        color:#d0d0d0;
        stop-color:#d0d0d0;
      }
      .ColorScheme-ButtonBackground {
        color:#232323;
        stop-color:#232323;                             
      }                                                 
      .ColorScheme-ButtonHover {                        
        color:#005cc7;                                  
        stop-color:#005cc7;                             
      }                                                 
      .ColorScheme-ButtonFocus{                         
        color:#0039a9;                                  
        stop-color:#0039a9;                             
      }</style>
    <linearGradient
       gradientTransform="translate(471.31814,349.93102)"
       x2="0"
       gradientUnits="userSpaceOnUse"
       y2="365.35999"
       y1="392.35999"
       id="a">
      <stop
         id="stop2"
         stop-opacity="0"
         stop-color="#ffffff" />
      <stop
         id="stop4"
         stop-opacity=".2"
         stop-color="#ffffff"
         offset="1" />
    </linearGradient>
    <linearGradient
       gradientTransform="translate(309.57,152.44)"
       x2="0"
       gradientUnits="userSpaceOnUse"
       y2="365.35999"
       y1="392.35999"
       id="linearGradient4314">
      <stop
         id="stop4310"
         stop-opacity="0"
         stop-color="#ffffff" />
      <stop
         id="stop4312"
         stop-opacity=".2"
         stop-color="#ffffff"
         offset="1" />
    </linearGradient>
  </defs>
  <sodipodi:namedview
     id="base"
     pagecolor="#002266"
     bordercolor="#ffffff"
     borderopacity="0.46666667"
     inkscape:pageopacity="0"
     inkscape:pageshadow="2"
     inkscape:zoom="4.5464756"
     inkscape:cx="50.061909"
     inkscape:cy="38.894172"
     inkscape:document-units="px"
     inkscape:current-layer="svg8"
     inkscape:document-rotation="0"
     showgrid="false"
     inkscape:showpageshadow="false"
     borderlayer="true"
     units="px"
     fit-margin-top="0"
     fit-margin-left="0"
     fit-margin-right="0"
     fit-margin-bottom="0"
     inkscape:window-width="1920"
     inkscape:window-height="1051"
     inkscape:window-x="0"
     inkscape:window-y="0"
     inkscape:window-maximized="1"
     inkscape:snap-page="true" />
  <metadata
     id="metadata5">
    <rdf:RDF>
      <cc:Work
         rdf:about="">
        <dc:format>image/svg+xml</dc:format>
        <dc:type
           rdf:resource="http://purl.org/dc/dcmitype/StillImage" />
        <dc:title></dc:title>
      </cc:Work>
    </rdf:RDF>
  </metadata>
  <g
     id="g4338"
     inkscape:label="#application-pgp-keys">
    <rect
       inkscape:label="#boundary"
       y="0"
       x="0"
       height="32"
       width="32"
       id="rect4264"
       style="fill:none;fill-opacity:0.74651441;stroke-width:23.61599922;stroke-opacity:0.3596773" />
    <path
       style="color:#000000;opacity:0.6;color-interpolation:sRGB;color-interpolation-filters:linearRGB;fill:#eeeeee;stroke-width:1.71428657;color-rendering:auto;image-rendering:auto;shape-rendering:auto;text-rendering:auto"
       d="M 13.142578,8 V 56 H 50.857422 V 20 l -12,-12 z m 14.931641,13.431641 c 1.252938,0.0035 2.504743,0.487166 3.464843,1.447265 1.64315,1.64315 1.885149,4.139954 0.726563,6.035156 l 0.04687,-0.04492 c -0.01886,0.01886 -0.03789,0.03859 -0.05469,0.05859 -0.03998,0.06496 -0.08172,0.127947 -0.125,0.191407 -0.165932,0.343532 -0.105312,0.769683 0.179688,1.054687 0.292168,0.29216 0.730303,0.345763 1.078125,0.164063 0.0034,-0.0016 0.0072,-0.0013 0.0098,-0.002 0.208084,-0.117701 0.461286,-0.09926 0.623047,0.0625 0.198922,0.1989 0.182027,0.536722 -0.03906,0.757812 l -0.556641,0.556641 10.332032,10.332031 -0.115235,2.289062 -0.814453,0.820313 -2.503906,-0.130859 -0.498047,-1.314454 -1.126953,-0.691406 -0.191406,-1.248047 -1.919922,-0.728515 -0.871094,-1.550782 -0.708984,-0.02344 -2.773438,-2.773438 -0.576172,-0.05078 -0.375,-0.769531 -0.923828,-0.380859 -0.357422,-0.355469 -0.621094,0.621093 c -0.22109,0.2211 -0.560865,0.239916 -0.759765,0.04102 -0.15442,-0.154412 -0.176692,-0.393379 -0.07617,-0.595703 6e-4,-0.0044 0.0026,-0.01013 0.0078,-0.01953 0.192695,-0.350432 0.140755,-0.798691 -0.15625,-1.095703 -0.285004,-0.28498 -0.709203,-0.345608 -1.052735,-0.179688 -0.06348,0.04332 -0.128379,0.08502 -0.193359,0.125 -0.02002,0.01686 -0.03979,0.03589 -0.05859,0.05469 l 0.04492,-0.04687 c -1.89522,1.158564 -4.391994,0.916595 -6.035156,-0.726563 -1.889845,-1.88984 -1.911534,-4.895918 -0.109375,-6.84375 0.06004,-0.06004 0.06004,-0.156757 0,-0.216797 -0.0044,-0.0044 -0.0089,-0.0079 -0.01367,-0.01172 l 0.002,-0.0039 c -0.130942,-0.08713 -0.253294,-0.186375 -0.365234,-0.296875 -0.960699,-0.9607 -0.960699,-2.517815 0,-3.478515 0.960699,-0.960698 2.517815,-0.960698 3.478515,0 0.1097,0.111228 0.208262,0.233301 0.294922,0.363281 l 0.002,-0.002 c 0.0036,0.005 0.0093,0.0093 0.01367,0.01367 0.06004,0.06004 0.156757,0.06004 0.216797,0 l -0.01953,0.01953 c 0.96444,-0.952927 2.217764,-1.429298 3.470703,-1.425781 z m -5.716797,1.792513 c -0.247583,0 -0.495284,0.0947 -0.684186,0.2836 -0.377795,0.377802 -0.377795,0.990567 0,1.36837 0.243911,0.243322 0.598173,0.337833 0.931154,0.249332 0.112801,-0.03332 0.22072,-0.08435 0.316686,-0.150072 0.0425,-0.0301 0.08343,-0.06272 0.120531,-0.09926 0.377795,-0.377803 0.377795,-0.990568 0,-1.36837 -0.188902,-0.188897 -0.436602,-0.2836 -0.684185,-0.2836 z"
       transform="scale(0.5)"
       id="path4287"
       inkscape:connector-curvature="0"
       sodipodi:nodetypes="cccccccsccccccccccccccccccccccccccccccccccscscccccccsccccsccccccs"
       inkscape:label="#1" />
  </g>
</svg>
