<?xml version="1.0" encoding="UTF-8" standalone="no"?>
<!-- Created with Inkscape (http://www.inkscape.org/) -->

<svg
   xmlns:dc="http://purl.org/dc/elements/1.1/"
   xmlns:cc="http://creativecommons.org/ns#"
   xmlns:rdf="http://www.w3.org/1999/02/22-rdf-syntax-ns#"
   xmlns:svg="http://www.w3.org/2000/svg"
   xmlns="http://www.w3.org/2000/svg"
   xmlns:sodipodi="http://sodipodi.sourceforge.net/DTD/sodipodi-0.dtd"
   xmlns:inkscape="http://www.inkscape.org/namespaces/inkscape"
   width="32"
   height="32"
   viewBox="0 0 32 32"
   version="1.1"
   id="svg8"
   inkscape:version="0.92+devel (bc9c9b4297, 2017-07-16, custom)"
   sodipodi:docname="application-x-perl.svg">
  <defs
     id="ol-defs">
    <style
       id="current-color-scheme">      .ColorScheme-Text {
        color:#d0d0d0;
        stop-color:#d0d0d0;
      }
      .ColorScheme-Background {
        color:#212121;
        stop-color:#212121;
      }
      .ColorScheme-Highlight {
        color:#0039a9;
        stop-color:#0039a9;
      }
      .ColorScheme-ViewText {
        color:#d0d0d0;
        stop-color:#d0d0d0;
      }
      .ColorScheme-ViewBackground {
        color:#19191b;
        stop-color:#19191b;
      }
      .ColorScheme-ViewHover {
        color:#005cc7;
        stop-color:#005cc7;
      }
      .ColorScheme-ViewFocus{
        color:#002466;
        stop-color:#002466;
      }
      .ColorScheme-ButtonText {
        color:#d0d0d0;
        stop-color:#d0d0d0;
      }
      .ColorScheme-ButtonBackground {
        color:#232323;
        stop-color:#232323;                             
      }                                                 
      .ColorScheme-ButtonHover {                        
        color:#005cc7;                                  
        stop-color:#005cc7;                             
      }                                                 
      .ColorScheme-ButtonFocus{                         
        color:#0039a9;                                  
        stop-color:#0039a9;                             
      }</style>
    <style
       id="current-color-scheme-7">      .ColorScheme-Text {
        color:#d0d0d0;
        stop-color:#d0d0d0;
      }
      .ColorScheme-Background {
        color:#212121;
        stop-color:#212121;
      }
      .ColorScheme-Highlight {
        color:#0039a9;
        stop-color:#0039a9;
      }
      .ColorScheme-ViewText {
        color:#d0d0d0;
        stop-color:#d0d0d0;
      }
      .ColorScheme-ViewBackground {
        color:#19191b;
        stop-color:#19191b;
      }
      .ColorScheme-ViewHover {
        color:#005cc7;
        stop-color:#005cc7;
      }
      .ColorScheme-ViewFocus{
        color:#002466;
        stop-color:#002466;
      }
      .ColorScheme-ButtonText {
        color:#d0d0d0;
        stop-color:#d0d0d0;
      }
      .ColorScheme-ButtonBackground {
        color:#232323;
        stop-color:#232323;                             
      }                                                 
      .ColorScheme-ButtonHover {                        
        color:#005cc7;                                  
        stop-color:#005cc7;                             
      }                                                 
      .ColorScheme-ButtonFocus{                         
        color:#0039a9;                                  
        stop-color:#0039a9;                             
      }</style>
    <linearGradient
       gradientTransform="translate(471.31814,349.93102)"
       x2="0"
       gradientUnits="userSpaceOnUse"
       y2="365.35999"
       y1="392.35999"
       id="a">
      <stop
         id="stop2"
         stop-opacity="0"
         stop-color="#ffffff" />
      <stop
         id="stop4"
         stop-opacity=".2"
         stop-color="#ffffff"
         offset="1" />
    </linearGradient>
    <linearGradient
       gradientTransform="translate(309.57,152.44)"
       x2="0"
       gradientUnits="userSpaceOnUse"
       y2="365.35999"
       y1="392.35999"
       id="linearGradient4314">
      <stop
         id="stop4310"
         stop-opacity="0"
         stop-color="#ffffff" />
      <stop
         id="stop4312"
         stop-opacity=".2"
         stop-color="#ffffff"
         offset="1" />
    </linearGradient>
  </defs>
  <sodipodi:namedview
     id="base"
     pagecolor="#002266"
     bordercolor="#ffffff"
     borderopacity="0.46666667"
     inkscape:pageopacity="0"
     inkscape:pageshadow="2"
     inkscape:zoom="6.4296875"
     inkscape:cx="92.95449"
     inkscape:cy="19.003024"
     inkscape:document-units="px"
     inkscape:current-layer="svg8"
     inkscape:document-rotation="0"
     showgrid="false"
     inkscape:showpageshadow="false"
     borderlayer="true"
     units="px"
     fit-margin-top="0"
     fit-margin-left="0"
     fit-margin-right="0"
     fit-margin-bottom="0"
     inkscape:window-width="1920"
     inkscape:window-height="1051"
     inkscape:window-x="0"
     inkscape:window-y="0"
     inkscape:window-maximized="1"
     inkscape:snap-page="true" />
  <metadata
     id="metadata5">
    <rdf:RDF>
      <cc:Work
         rdf:about="">
        <dc:format>image/svg+xml</dc:format>
        <dc:type
           rdf:resource="http://purl.org/dc/dcmitype/StillImage" />
        <dc:title></dc:title>
      </cc:Work>
    </rdf:RDF>
  </metadata>
  <g
     id="g4338"
     inkscape:label="#application-x-perl">
    <rect
       inkscape:label="#boundary"
       y="0"
       x="0"
       height="32"
       width="32"
       id="rect4264"
       style="fill:none;fill-opacity:0.74651441;stroke-width:23.61599922;stroke-opacity:0.3596773" />
    <path
       style="color:#000000;opacity:0.6;color-interpolation:sRGB;color-interpolation-filters:linearRGB;fill:#eeeeee;stroke-width:1.71428657;color-rendering:auto;image-rendering:auto;shape-rendering:auto;text-rendering:auto"
       d="M 13.142578,8 V 56 H 50.857422 V 20 l -12,-12 z m 22.240234,11.416016 c 1.051269,-0.0046 2.463506,1.224836 2.714844,2.36914 0.11842,0.541324 0.753279,1.814599 1.408203,2.832032 0.656128,1.017431 1.191407,2.028569 1.191407,2.246093 0,0.217388 0.466775,0.983378 1.037109,1.701172 0.853094,1.0742 1.034313,1.615455 1.023437,3.070313 -0.0168,1.994994 -1.091656,4.537598 -1.484374,3.511718 -0.12444,-0.3238 -0.07321,-0.872951 0.115234,-1.224609 0.39271,-0.733456 0.04642,-3.985871 -0.378906,-3.560547 -0.29602,0.29594 -0.489654,3.46995 -0.40625,6.666016 0.10754,4.150702 -0.09442,8.064026 -0.421875,8.167968 -0.836178,0.2658 -1.202549,-0.425674 -0.859375,-1.623046 0.517174,-1.804048 0.409925,-6.597805 -0.164063,-7.355469 -0.264606,-0.350288 -0.58452,-1.243655 -0.708984,-1.984375 -0.12568,-0.741952 -0.361784,-1.431725 -0.527344,-1.533203 -0.544966,-0.33613 -1.367187,1.843157 -1.367187,3.623047 0,1.393206 -0.21061,2.037084 -1.03711,3.177734 -1.169682,1.614384 -1.259502,2.090763 -0.517578,2.707031 0.578798,0.480904 0.691211,1.580582 0.193359,1.888672 -0.17884,0.11008 -0.645603,-0.143889 -1.037109,-0.564453 -0.553422,-0.593298 -0.712891,-0.642511 -0.712891,-0.220703 0,0.63198 -1.279444,1.061152 -1.986328,0.666015 -0.378192,-0.211449 -0.288572,-0.400048 0.40625,-0.855468 1.23735,-0.810822 1.117864,-1.476656 -0.535156,-2.988282 -1.289308,-1.178144 -1.404819,-1.414038 -1.193359,-2.46289 0.669424,-3.31933 0.664702,-3.40625 -0.107422,-3.40625 -0.506296,0 -0.728516,0.217326 -0.728516,0.71289 0,0.392761 -0.169874,1.034254 -0.378906,1.425782 -0.369742,0.691166 -0.481567,1.247318 -1.376953,6.927734 -0.445874,2.831162 -0.55511,2.939256 -2.482422,2.441406 l -0.002,-0.0039 c -0.530464,-0.13792 -0.475207,-0.2859 0.398437,-1.101562 1.504392,-1.405306 1.755136,-2.806146 1.326172,-7.416016 -0.341974,-3.674594 -0.417029,-3.955386 -0.992187,-3.648438 -1.243388,0.665774 -2.798316,-0.194054 -4.5625,-2.521484 -0.87243,-1.150378 -0.956473,-1.486836 -0.806641,-3.28125 0.09184,-1.099592 0.278276,-2.429633 0.416016,-2.949219 0.211452,-0.802374 0.143694,-0.949218 -0.4375,-0.949218 -0.379424,0 -0.883791,-0.236621 -1.123047,-0.525391 -0.602964,-0.726196 0.469797,-1.892578 1.742187,-1.892578 0.517174,0 1.134254,-0.234551 1.371094,-0.519531 0.610214,-0.735924 1.544902,-0.641759 2.59375,0.259765 1.114094,0.958244 1.493114,3.179092 0.867187,5.076172 -0.708089,2.144838 -0.217406,2.354028 0.773438,0.330078 0.554632,-1.132248 1.336419,-2.120576 1.980469,-2.5 0.586048,-0.34572 1.441216,-1.224463 1.90039,-1.953125 0.460378,-0.728616 1.039117,-1.454224 1.283203,-1.611328 0.752801,-0.482136 2.821617,-1.143596 3.59375,-1.148437 z m -1.205078,14.503906 c -0.165154,0.05834 -0.384224,0.585506 -0.710937,1.55664 -0.256162,0.760039 -0.754584,1.751945 -1.107422,2.205079 -0.821676,1.054882 -0.807781,1.374469 0.109375,2.349609 0.981178,1.044012 1.194137,1.010976 1.867188,-0.289062 h -0.002 c 0.448296,-0.867588 0.51439,-1.611536 0.322266,-3.66211 -0.144091,-1.534062 -0.266174,-2.235167 -0.478516,-2.160156 z"
       transform="scale(0.5)"
       id="path4287"
       inkscape:connector-curvature="0"
       inkscape:label="#1" />
  </g>
</svg>
