<?xml version="1.0" encoding="UTF-8" standalone="no"?>
<!-- Created with Inkscape (http://www.inkscape.org/) -->

<svg
     xmlns:dc="http://purl.org/dc/elements/1.1/"
     xmlns:cc="http://creativecommons.org/ns#"
     xmlns:rdf="http://www.w3.org/1999/02/22-rdf-syntax-ns#"
     xmlns:svg="http://www.w3.org/2000/svg"
     xmlns="http://www.w3.org/2000/svg"
     xmlns:sodipodi="http://sodipodi.sourceforge.net/DTD/sodipodi-0.dtd"
     xmlns:inkscape="http://www.inkscape.org/namespaces/inkscape"
     width="32"
     height="32"
     viewBox="0 0 32 32"
     version="1.1"
     id="svg8"
     inkscape:version="0.92+devel (fa9b7f7a5b, 2017-07-19, custom)"
     sodipodi:docname="application-x-macbinary.svg">
    <defs
         id="ol-defs">
        <style
             id="current-color-scheme">      .ColorScheme-Text {
        color:#d0d0d0;
        stop-color:#d0d0d0;
      }
      .ColorScheme-Background {
        color:#212121;
        stop-color:#212121;
      }
      .ColorScheme-Highlight {
        color:#0039a9;
        stop-color:#0039a9;
      }
      .ColorScheme-ViewText {
        color:#d0d0d0;
        stop-color:#d0d0d0;
      }
      .ColorScheme-ViewBackground {
        color:#19191b;
        stop-color:#19191b;
      }
      .ColorScheme-ViewHover {
        color:#005cc7;
        stop-color:#005cc7;
      }
      .ColorScheme-ViewFocus{
        color:#002466;
        stop-color:#002466;
      }
      .ColorScheme-ButtonText {
        color:#d0d0d0;
        stop-color:#d0d0d0;
      }
      .ColorScheme-ButtonBackground {
        color:#232323;
        stop-color:#232323;                             
      }                                                 
      .ColorScheme-ButtonHover {                        
        color:#005cc7;                                  
        stop-color:#005cc7;                             
      }                                                 
      .ColorScheme-ButtonFocus{                         
        color:#0039a9;                                  
        stop-color:#0039a9;                             
      }</style>
        <style
             id="current-color-scheme-7">      .ColorScheme-Text {
        color:#d0d0d0;
        stop-color:#d0d0d0;
      }
      .ColorScheme-Background {
        color:#212121;
        stop-color:#212121;
      }
      .ColorScheme-Highlight {
        color:#0039a9;
        stop-color:#0039a9;
      }
      .ColorScheme-ViewText {
        color:#d0d0d0;
        stop-color:#d0d0d0;
      }
      .ColorScheme-ViewBackground {
        color:#19191b;
        stop-color:#19191b;
      }
      .ColorScheme-ViewHover {
        color:#005cc7;
        stop-color:#005cc7;
      }
      .ColorScheme-ViewFocus{
        color:#002466;
        stop-color:#002466;
      }
      .ColorScheme-ButtonText {
        color:#d0d0d0;
        stop-color:#d0d0d0;
      }
      .ColorScheme-ButtonBackground {
        color:#232323;
        stop-color:#232323;                             
      }                                                 
      .ColorScheme-ButtonHover {                        
        color:#005cc7;                                  
        stop-color:#005cc7;                             
      }                                                 
      .ColorScheme-ButtonFocus{                         
        color:#0039a9;                                  
        stop-color:#0039a9;                             
      }</style>
        <linearGradient
             gradientTransform="translate(471.31814,349.93102)"
             x2="0"
             gradientUnits="userSpaceOnUse"
             y2="365.35999"
             y1="392.35999"
             id="a">
            <stop
                 id="stop2"
                 stop-opacity="0"
                 stop-color="#ffffff" />
            <stop
                 id="stop4"
                 stop-opacity=".2"
                 stop-color="#ffffff"
                 offset="1" />
        </linearGradient>
        <linearGradient
             gradientTransform="translate(309.57,152.44)"
             x2="0"
             gradientUnits="userSpaceOnUse"
             y2="365.35999"
             y1="392.35999"
             id="linearGradient4314">
            <stop
                 id="stop4310"
                 stop-opacity="0"
                 stop-color="#ffffff" />
            <stop
                 id="stop4312"
                 stop-opacity=".2"
                 stop-color="#ffffff"
                 offset="1" />
        </linearGradient>
    </defs>
    <sodipodi:namedview
         id="base"
         pagecolor="#002266"
         bordercolor="#ffffff"
         borderopacity="0.46666667"
         inkscape:pageopacity="0"
         inkscape:pageshadow="2"
         inkscape:zoom="6.4296875"
         inkscape:cx="92.95449"
         inkscape:cy="19.003024"
         inkscape:document-units="px"
         inkscape:current-layer="svg8"
         inkscape:document-rotation="0"
         showgrid="false"
         inkscape:showpageshadow="false"
         borderlayer="true"
         units="px"
         fit-margin-top="0"
         fit-margin-left="0"
         fit-margin-right="0"
         fit-margin-bottom="0"
         inkscape:window-width="1920"
         inkscape:window-height="1051"
         inkscape:window-x="0"
         inkscape:window-y="0"
         inkscape:window-maximized="1"
         inkscape:snap-page="true" />
    <metadata
         id="metadata5">
        <rdf:RDF>
            <cc:Work
                 rdf:about="">
                <dc:format>image/svg+xml</dc:format>
                <dc:type
                     rdf:resource="http://purl.org/dc/dcmitype/StillImage" />
                <dc:title></dc:title>
            </cc:Work>
        </rdf:RDF>
    </metadata>
    <g
         id="g4338"
         inkscape:label="#application-x-macbinary"
         style="stroke-width:2">
        <rect
             inkscape:label="#boundary"
             y="0"
             x="0"
             height="32"
             width="32"
             id="rect4264"
             style="fill:none;fill-opacity:0.74651441;stroke-width:47.23199844;stroke-opacity:0.3596773" />
        <path
             style="color:#000000;opacity:0.6;color-interpolation:sRGB;color-interpolation-filters:linearRGB;fill:#eeeeee;stroke-width:3.42857313;color-rendering:auto;image-rendering:auto;shape-rendering:auto;text-rendering:auto"
             d="M 13.142578,8 V 56 H 50.857422 V 20 l -12,-12 z m 8.007813,14.25 H 42.849609 V 43.949219 H 21.150391 Z m 0.986328,4.933594 v 15.78125 h 19.726562 v -15.78125 z m 12.4375,1.673828 c 0.009,0.08213 0.01172,0.164614 0.01172,0.246094 0,0.614366 -0.224497,1.187802 -0.671876,1.71875 -0.539896,0.631194 -1.19224,0.99506 -1.90039,0.9375 C 32.004872,31.686048 32,31.608844 32,31.527344 c 0,-0.589792 0.256939,-1.222198 0.712891,-1.738282 0.22765,-0.261313 0.518056,-0.479023 0.86914,-0.652343 0.350326,-0.170748 0.680536,-0.263097 0.992188,-0.279297 z m -0.05859,2.916016 c 1.033536,0.0834 1.811733,0.48864 2.328125,1.222656 -0.924346,0.560064 -1.380294,1.347199 -1.371094,2.353515 0.0084,0.783834 0.290758,1.433266 0.84961,1.951172 0.253276,0.24036 0.536876,0.426674 0.851562,0.558594 -0.06826,0.197906 -0.14219,0.388312 -0.21875,0.570313 -0.185776,0.429186 -0.403435,0.822328 -0.658203,1.185546 -0.347296,0.495158 -0.632407,0.84093 -0.851563,1.03125 -0.339708,0.312408 -0.704,0.469316 -1.09375,0.478516 -0.279797,0 -0.615024,-0.07871 -1.007812,-0.240234 -0.394078,-0.160768 -0.7587,-0.238282 -1.089844,-0.238282 -0.347296,0 -0.718789,0.07754 -1.117187,0.238282 -0.399008,0.161522 -0.721033,0.245506 -0.966797,0.253906 -0.373758,0.01594 -0.74533,-0.146426 -1.117188,-0.492188 -0.237344,-0.20702 -0.534991,-0.561711 -0.890625,-1.064453 -0.381564,-0.536862 -0.69564,-1.16134 -0.941406,-1.871093 -0.263206,-0.766621 -0.394531,-1.507865 -0.394531,-2.226563 0,-0.823264 0.176875,-1.531931 0.533203,-2.126953 0.28003,-0.477942 0.654826,-0.85799 1.121094,-1.134766 0.46626,-0.27679 0.969166,-0.416781 1.511719,-0.425781 0.296862,0 0.686139,0.09294 1.169921,0.273437 0.48242,0.181062 0.791935,0.271485 0.927735,0.271485 0.101534,0 0.444,-0.106255 1.027344,-0.320313 0.551651,-0.198512 1.017023,-0.280426 1.398437,-0.248046 z"
             transform="scale(0.5)"
             id="path4287"
             inkscape:connector-curvature="0"
             inkscape:label="#1" />
    </g>
</svg>
