<?xml version="1.0" encoding="UTF-8" standalone="no"?>
<!-- Created with Inkscape (http://www.inkscape.org/) -->

<svg
     xmlns:dc="http://purl.org/dc/elements/1.1/"
     xmlns:cc="http://creativecommons.org/ns#"
     xmlns:rdf="http://www.w3.org/1999/02/22-rdf-syntax-ns#"
     xmlns:svg="http://www.w3.org/2000/svg"
     xmlns="http://www.w3.org/2000/svg"
     xmlns:sodipodi="http://sodipodi.sourceforge.net/DTD/sodipodi-0.dtd"
     xmlns:inkscape="http://www.inkscape.org/namespaces/inkscape"
     width="32"
     height="32"
     viewBox="0 0 32 32"
     version="1.1"
     id="svg8"
     inkscape:version="0.92+devel (fa9b7f7a5b, 2017-07-19, custom)"
     sodipodi:docname="text-x-qml.svg">
    <defs
         id="ol-defs">
        <style
             id="current-color-scheme">      .ColorScheme-Text {
        color:#d0d0d0;
        stop-color:#d0d0d0;
      }
      .ColorScheme-Background {
        color:#212121;
        stop-color:#212121;
      }
      .ColorScheme-Highlight {
        color:#0039a9;
        stop-color:#0039a9;
      }
      .ColorScheme-ViewText {
        color:#d0d0d0;
        stop-color:#d0d0d0;
      }
      .ColorScheme-ViewBackground {
        color:#19191b;
        stop-color:#19191b;
      }
      .ColorScheme-ViewHover {
        color:#005cc7;
        stop-color:#005cc7;
      }
      .ColorScheme-ViewFocus{
        color:#002466;
        stop-color:#002466;
      }
      .ColorScheme-ButtonText {
        color:#d0d0d0;
        stop-color:#d0d0d0;
      }
      .ColorScheme-ButtonBackground {
        color:#232323;
        stop-color:#232323;                             
      }                                                 
      .ColorScheme-ButtonHover {                        
        color:#005cc7;                                  
        stop-color:#005cc7;                             
      }                                                 
      .ColorScheme-ButtonFocus{                         
        color:#0039a9;                                  
        stop-color:#0039a9;                             
      }</style>
        <style
             id="current-color-scheme-7">      .ColorScheme-Text {
        color:#d0d0d0;
        stop-color:#d0d0d0;
      }
      .ColorScheme-Background {
        color:#212121;
        stop-color:#212121;
      }
      .ColorScheme-Highlight {
        color:#0039a9;
        stop-color:#0039a9;
      }
      .ColorScheme-ViewText {
        color:#d0d0d0;
        stop-color:#d0d0d0;
      }
      .ColorScheme-ViewBackground {
        color:#19191b;
        stop-color:#19191b;
      }
      .ColorScheme-ViewHover {
        color:#005cc7;
        stop-color:#005cc7;
      }
      .ColorScheme-ViewFocus{
        color:#002466;
        stop-color:#002466;
      }
      .ColorScheme-ButtonText {
        color:#d0d0d0;
        stop-color:#d0d0d0;
      }
      .ColorScheme-ButtonBackground {
        color:#232323;
        stop-color:#232323;                             
      }                                                 
      .ColorScheme-ButtonHover {                        
        color:#005cc7;                                  
        stop-color:#005cc7;                             
      }                                                 
      .ColorScheme-ButtonFocus{                         
        color:#0039a9;                                  
        stop-color:#0039a9;                             
      }</style>
        <linearGradient
             gradientTransform="translate(471.31814,349.93102)"
             x2="0"
             gradientUnits="userSpaceOnUse"
             y2="365.35999"
             y1="392.35999"
             id="a">
            <stop
                 id="stop2"
                 stop-opacity="0"
                 stop-color="#ffffff" />
            <stop
                 id="stop4"
                 stop-opacity=".2"
                 stop-color="#ffffff"
                 offset="1" />
        </linearGradient>
        <linearGradient
             gradientTransform="translate(309.57,152.44)"
             x2="0"
             gradientUnits="userSpaceOnUse"
             y2="365.35999"
             y1="392.35999"
             id="linearGradient4314">
            <stop
                 id="stop4310"
                 stop-opacity="0"
                 stop-color="#ffffff" />
            <stop
                 id="stop4312"
                 stop-opacity=".2"
                 stop-color="#ffffff"
                 offset="1" />
        </linearGradient>
    </defs>
    <sodipodi:namedview
         id="base"
         pagecolor="#002266"
         bordercolor="#ffffff"
         borderopacity="0.46666667"
         inkscape:pageopacity="0"
         inkscape:pageshadow="2"
         inkscape:zoom="6.4296875"
         inkscape:cx="92.95449"
         inkscape:cy="19.003024"
         inkscape:document-units="px"
         inkscape:current-layer="svg8"
         inkscape:document-rotation="0"
         showgrid="false"
         inkscape:showpageshadow="false"
         borderlayer="true"
         units="px"
         fit-margin-top="0"
         fit-margin-left="0"
         fit-margin-right="0"
         fit-margin-bottom="0"
         inkscape:window-width="1920"
         inkscape:window-height="1051"
         inkscape:window-x="0"
         inkscape:window-y="0"
         inkscape:window-maximized="1"
         inkscape:snap-page="false"
         inkscape:object-paths="true"
         inkscape:snap-grids="false"
         inkscape:snap-to-guides="false" />
    <metadata
         id="metadata5">
        <rdf:RDF>
            <cc:Work
                 rdf:about="">
                <dc:format>image/svg+xml</dc:format>
                <dc:type
                     rdf:resource="http://purl.org/dc/dcmitype/StillImage" />
                <dc:title></dc:title>
            </cc:Work>
        </rdf:RDF>
    </metadata>
    <g
         id="g4338"
         inkscape:label="#text-x-qml"
         style="stroke-width:2">
        <rect
             inkscape:label="#boundary"
             y="0"
             x="0"
             height="32"
             width="32"
             id="rect4264"
             style="fill:none;fill-opacity:0.74651441;stroke-width:47.23199844;stroke-opacity:0.3596773" />
        <rect
             style="fill:#00ff00;stroke:none;stroke-width:1.29999995"
             id="rect851"
             width="18.857422"
             height="2.5"
             x="6.5712891"
             y="25.5"
             inkscape:label="#1" />
        <path
             style="color:#000000;opacity:0.6;color-interpolation:sRGB;color-interpolation-filters:linearRGB;fill:#eeeeee;stroke-width:3.42857313;color-rendering:auto;image-rendering:auto;shape-rendering:auto;text-rendering:auto"
             d="M 13.142578,8 V 51 H 50.857422 V 20 l -12,-12 z m 10.574219,15.617188 h 19.705078 v 13.589843 c -1.05819,1.061646 -2.119478,2.120565 -3.183594,3.175781 H 20.578125 V 26.751953 c 1.042356,-1.04879 2.092348,-2.089934 3.138672,-3.134765 z m 5.462891,2.917968 c -0.879672,-0.0079 -1.80264,0.114403 -2.550782,0.609375 -0.637386,0.413384 -1.016192,1.119093 -1.24414,1.824219 -0.294766,0.937532 -0.354857,1.92916 -0.347657,2.90625 0.01335,0.903906 0.09012,1.820259 0.38086,2.681641 0.17752,0.509312 0.438168,1.011138 0.851562,1.36914 0.537982,0.46926 1.246134,0.682065 1.94336,0.765625 0.581988,0.06428 1.174874,0.0715 1.753906,-0.02344 0.428214,0.70315 0.852555,1.40719 1.279297,2.111328 0.50139,-0.229934 1.003002,-0.460484 1.503906,-0.691406 -0.398544,-0.645788 -0.806534,-1.287804 -1.205078,-1.933594 0.553818,-0.39756 0.972821,-0.968481 1.193359,-1.613281 0.329286,-0.947916 0.376428,-1.967999 0.375,-2.962891 -0.01187,-0.987968 -0.115198,-1.990302 -0.46875,-2.919922 -0.218554,-0.566178 -0.546407,-1.114208 -1.050781,-1.46875 -0.694242,-0.49992 -1.576412,-0.643897 -2.414062,-0.654297 z m 5.941406,0.578125 c -0.0014,0.69326 0.0014,1.388773 0,2.082031 -0.365418,0.0014 -0.730285,-0.0014 -1.095703,0 -9.86e-4,0.449976 -9.86e-4,0.90013 0,1.34961 0.365418,0.0014 0.730285,-9.88e-4 1.095703,0 5e-4,1.120982 -9.84e-4,2.242297 0,3.363281 0.01088,0.62057 0.03154,1.261798 0.28125,1.839844 0.13944,0.339706 0.459076,0.568062 0.802734,0.669922 0.815878,0.25811 1.676715,0.09304 2.498047,-0.04492 -0.02386,-0.413384 -0.04699,-0.828802 -0.07227,-1.242188 -0.412894,0.0074 -0.825389,0.03373 -1.238281,0.03516 -0.219054,-0.0074 -0.487951,-0.06363 -0.58789,-0.285157 -0.136401,-0.287292 -0.129779,-0.614751 -0.142579,-0.925781 -0.0056,-1.136312 -5.25e-4,-2.273846 -0.002,-3.410156 0.669526,-0.0014 1.338287,0.0014 2.007813,0 0.01284,-0.449976 0.02376,-0.899634 0.03516,-1.34961 -0.670012,-4.93e-4 -1.337801,9.91e-4 -2.007813,0 -0.0015,-0.693258 -5.25e-4,-1.388773 -0.002,-2.082031 -0.524148,-4.94e-4 -1.048131,-4.94e-4 -1.572265,0 z m -5.833985,0.81836 c 0.257318,0.0202 0.511139,0.06984 0.751953,0.166015 0.390148,0.154278 0.721445,0.457116 0.896485,0.839844 0.268494,0.580022 0.371848,1.219124 0.423828,1.851562 0.05626,0.841602 0.04786,1.692641 -0.06836,2.529297 -0.0816,0.49794 -0.197923,1.021447 -0.535157,1.414063 -0.342188,0.3941 -0.870611,0.565909 -1.376953,0.605469 -0.53403,0.03907 -1.095997,-0.0012 -1.578125,-0.253907 C 27.519417,34.934158 27.282078,34.699897 27.142578,34.412109 26.97345,34.067459 26.87776,33.689292 26.8125,33.3125 c -0.19677,-1.19466 -0.243607,-2.427498 0.02539,-3.615234 0.110756,-0.447996 0.272257,-0.910317 0.599609,-1.248047 0.28482,-0.28927 0.680598,-0.436328 1.076172,-0.492188 0.25442,-0.0331 0.516117,-0.04561 0.773438,-0.02539 z"
             transform="scale(0.5)"
             id="path4287"
             inkscape:connector-curvature="0"
             inkscape:label="#2" />
    </g>
</svg>
