<?xml version="1.0" encoding="UTF-8" standalone="no"?>
<!-- Created with Inkscape (http://www.inkscape.org/) -->

<svg
     xmlns:dc="http://purl.org/dc/elements/1.1/"
     xmlns:cc="http://creativecommons.org/ns#"
     xmlns:rdf="http://www.w3.org/1999/02/22-rdf-syntax-ns#"
     xmlns:svg="http://www.w3.org/2000/svg"
     xmlns="http://www.w3.org/2000/svg"
     xmlns:sodipodi="http://sodipodi.sourceforge.net/DTD/sodipodi-0.dtd"
     xmlns:inkscape="http://www.inkscape.org/namespaces/inkscape"
     width="32"
     height="32"
     viewBox="0 0 32 32"
     version="1.1"
     id="svg8"
     inkscape:version="0.92+devel (fa9b7f7a5b, 2017-07-19, custom)"
     sodipodi:docname="text-x-patch.svg">
    <defs
         id="ol-defs">
        <style
             id="current-color-scheme">      .ColorScheme-Text {
        color:#d0d0d0;
        stop-color:#d0d0d0;
      }
      .ColorScheme-Background {
        color:#212121;
        stop-color:#212121;
      }
      .ColorScheme-Highlight {
        color:#0039a9;
        stop-color:#0039a9;
      }
      .ColorScheme-ViewText {
        color:#d0d0d0;
        stop-color:#d0d0d0;
      }
      .ColorScheme-ViewBackground {
        color:#19191b;
        stop-color:#19191b;
      }
      .ColorScheme-ViewHover {
        color:#005cc7;
        stop-color:#005cc7;
      }
      .ColorScheme-ViewFocus{
        color:#002466;
        stop-color:#002466;
      }
      .ColorScheme-ButtonText {
        color:#d0d0d0;
        stop-color:#d0d0d0;
      }
      .ColorScheme-ButtonBackground {
        color:#232323;
        stop-color:#232323;                             
      }                                                 
      .ColorScheme-ButtonHover {                        
        color:#005cc7;                                  
        stop-color:#005cc7;                             
      }                                                 
      .ColorScheme-ButtonFocus{                         
        color:#0039a9;                                  
        stop-color:#0039a9;                             
      }</style>
        <style
             id="current-color-scheme-7">      .ColorScheme-Text {
        color:#d0d0d0;
        stop-color:#d0d0d0;
      }
      .ColorScheme-Background {
        color:#212121;
        stop-color:#212121;
      }
      .ColorScheme-Highlight {
        color:#0039a9;
        stop-color:#0039a9;
      }
      .ColorScheme-ViewText {
        color:#d0d0d0;
        stop-color:#d0d0d0;
      }
      .ColorScheme-ViewBackground {
        color:#19191b;
        stop-color:#19191b;
      }
      .ColorScheme-ViewHover {
        color:#005cc7;
        stop-color:#005cc7;
      }
      .ColorScheme-ViewFocus{
        color:#002466;
        stop-color:#002466;
      }
      .ColorScheme-ButtonText {
        color:#d0d0d0;
        stop-color:#d0d0d0;
      }
      .ColorScheme-ButtonBackground {
        color:#232323;
        stop-color:#232323;                             
      }                                                 
      .ColorScheme-ButtonHover {                        
        color:#005cc7;                                  
        stop-color:#005cc7;                             
      }                                                 
      .ColorScheme-ButtonFocus{                         
        color:#0039a9;                                  
        stop-color:#0039a9;                             
      }</style>
        <linearGradient
             gradientTransform="translate(471.31814,349.93102)"
             x2="0"
             gradientUnits="userSpaceOnUse"
             y2="365.35999"
             y1="392.35999"
             id="a">
            <stop
                 id="stop2"
                 stop-opacity="0"
                 stop-color="#ffffff" />
            <stop
                 id="stop4"
                 stop-opacity=".2"
                 stop-color="#ffffff"
                 offset="1" />
        </linearGradient>
        <linearGradient
             gradientTransform="translate(309.57,152.44)"
             x2="0"
             gradientUnits="userSpaceOnUse"
             y2="365.35999"
             y1="392.35999"
             id="linearGradient4314">
            <stop
                 id="stop4310"
                 stop-opacity="0"
                 stop-color="#ffffff" />
            <stop
                 id="stop4312"
                 stop-opacity=".2"
                 stop-color="#ffffff"
                 offset="1" />
        </linearGradient>
    </defs>
    <sodipodi:namedview
         id="base"
         pagecolor="#002266"
         bordercolor="#ffffff"
         borderopacity="0.46666667"
         inkscape:pageopacity="0"
         inkscape:pageshadow="2"
         inkscape:zoom="6.4296875"
         inkscape:cx="92.95449"
         inkscape:cy="19.003024"
         inkscape:document-units="px"
         inkscape:current-layer="svg8"
         inkscape:document-rotation="0"
         showgrid="false"
         inkscape:showpageshadow="false"
         borderlayer="true"
         units="px"
         fit-margin-top="0"
         fit-margin-left="0"
         fit-margin-right="0"
         fit-margin-bottom="0"
         inkscape:window-width="1920"
         inkscape:window-height="1051"
         inkscape:window-x="0"
         inkscape:window-y="0"
         inkscape:window-maximized="1"
         inkscape:snap-page="true" />
    <metadata
         id="metadata5">
        <rdf:RDF>
            <cc:Work
                 rdf:about="">
                <dc:format>image/svg+xml</dc:format>
                <dc:type
                     rdf:resource="http://purl.org/dc/dcmitype/StillImage" />
                <dc:title></dc:title>
            </cc:Work>
        </rdf:RDF>
    </metadata>
    <g
         id="g4338"
         inkscape:label="#text-x-patch"
         style="stroke-width:2">
        <rect
             inkscape:label="#boundary"
             y="0"
             x="0"
             height="32"
             width="32"
             id="rect4264"
             style="fill:none;fill-opacity:0.74651441;stroke-width:47.23199844;stroke-opacity:0.3596773" />
        <path
             style="color:#000000;opacity:0.6;color-interpolation:sRGB;color-interpolation-filters:linearRGB;fill:#eeeeee;stroke-width:3.42857313;color-rendering:auto;image-rendering:auto;shape-rendering:auto;text-rendering:auto"
             d="M 13.142578,8 V 56 H 50.857422 V 20 l -12,-12 z m 23.865234,14.125 c 1.492898,0 2.984971,0.572862 4.128907,1.716797 2.28787,2.287872 2.28787,5.971894 0,8.259765 L 32.876953,23.841797 C 34.02089,22.697862 35.514915,22.125 37.007812,22.125 Z M 32,24.71875 40.259766,32.978516 32,41.238281 23.740234,32.978516 Z m 0.02344,3.017578 a 1.1482262,1.1482262 0 0 0 -0.796876,0.337891 1.1482262,1.1482262 0 0 0 0.002,1.623047 1.1482262,1.1482262 0 0 0 1.623046,0.002 1.1482262,1.1482262 0 0 0 0,-1.625 1.1482262,1.1482262 0 0 0 -0.828124,-0.337891 z m 4.050781,4.052734 a 1.1482262,1.1482262 0 0 0 -0.796875,0.335938 1.1482262,1.1482262 0 0 0 0.002,1.623047 1.1482262,1.1482262 0 0 0 1.623047,0.002 1.1482262,1.1482262 0 0 0 0,-1.625 1.1482262,1.1482262 0 0 0 -0.828125,-0.335938 z m -4.091797,0.03711 a 1.1482262,1.1482262 0 0 0 -0.796875,0.33789 1.1482262,1.1482262 0 0 0 0.002,1.623047 1.1482262,1.1482262 0 0 0 1.623047,0.002 1.1482262,1.1482262 0 0 0 0,-1.625 1.1482262,1.1482262 0 0 0 -0.828125,-0.33789 z m -4.089844,0.04102 a 1.1482262,1.1482262 0 0 0 -0.796875,0.335937 1.1482262,1.1482262 0 0 0 0,1.625 1.1482262,1.1482262 0 0 0 1.625,0 1.1482262,1.1482262 0 0 0 0,-1.625 1.1482262,1.1482262 0 0 0 -0.828125,-0.335937 z m -5.029297,1.988281 8.259766,8.259765 c -2.28787,2.287874 -5.971894,2.28787 -8.259766,0 -2.287872,-2.287872 -2.287874,-5.971893 0,-8.259765 z m 9.080078,2.0625 a 1.1482262,1.1482262 0 0 0 -0.796875,0.335937 1.1482262,1.1482262 0 0 0 0,1.626953 1.1482262,1.1482262 0 0 0 1.625,0 1.1482262,1.1482262 0 0 0 0,-1.626953 1.1482262,1.1482262 0 0 0 -0.828125,-0.335937 z"
             transform="scale(0.5)"
             id="path4287"
             inkscape:connector-curvature="0"
             inkscape:label="#1" />
    </g>
</svg>
