<?xml version="1.0" encoding="UTF-8" standalone="no"?>
<!-- Created with Inkscape (http://www.inkscape.org/) -->

<svg
   xmlns:dc="http://purl.org/dc/elements/1.1/"
   xmlns:cc="http://creativecommons.org/ns#"
   xmlns:rdf="http://www.w3.org/1999/02/22-rdf-syntax-ns#"
   xmlns:svg="http://www.w3.org/2000/svg"
   xmlns="http://www.w3.org/2000/svg"
   xmlns:sodipodi="http://sodipodi.sourceforge.net/DTD/sodipodi-0.dtd"
   xmlns:inkscape="http://www.inkscape.org/namespaces/inkscape"
   width="32"
   height="32"
   viewBox="0 0 32 32"
   version="1.1"
   id="svg8"
   inkscape:version="0.92+devel (bc9c9b4297, 2017-07-16, custom)"
   sodipodi:docname="text-x-go.svg">
  <defs
     id="ol-defs">
    <style
       id="current-color-scheme">      .ColorScheme-Text {
        color:#d0d0d0;
        stop-color:#d0d0d0;
      }
      .ColorScheme-Background {
        color:#212121;
        stop-color:#212121;
      }
      .ColorScheme-Highlight {
        color:#0039a9;
        stop-color:#0039a9;
      }
      .ColorScheme-ViewText {
        color:#d0d0d0;
        stop-color:#d0d0d0;
      }
      .ColorScheme-ViewBackground {
        color:#19191b;
        stop-color:#19191b;
      }
      .ColorScheme-ViewHover {
        color:#005cc7;
        stop-color:#005cc7;
      }
      .ColorScheme-ViewFocus{
        color:#002466;
        stop-color:#002466;
      }
      .ColorScheme-ButtonText {
        color:#d0d0d0;
        stop-color:#d0d0d0;
      }
      .ColorScheme-ButtonBackground {
        color:#232323;
        stop-color:#232323;                             
      }                                                 
      .ColorScheme-ButtonHover {                        
        color:#005cc7;                                  
        stop-color:#005cc7;                             
      }                                                 
      .ColorScheme-ButtonFocus{                         
        color:#0039a9;                                  
        stop-color:#0039a9;                             
      }</style>
    <style
       id="current-color-scheme-7">      .ColorScheme-Text {
        color:#d0d0d0;
        stop-color:#d0d0d0;
      }
      .ColorScheme-Background {
        color:#212121;
        stop-color:#212121;
      }
      .ColorScheme-Highlight {
        color:#0039a9;
        stop-color:#0039a9;
      }
      .ColorScheme-ViewText {
        color:#d0d0d0;
        stop-color:#d0d0d0;
      }
      .ColorScheme-ViewBackground {
        color:#19191b;
        stop-color:#19191b;
      }
      .ColorScheme-ViewHover {
        color:#005cc7;
        stop-color:#005cc7;
      }
      .ColorScheme-ViewFocus{
        color:#002466;
        stop-color:#002466;
      }
      .ColorScheme-ButtonText {
        color:#d0d0d0;
        stop-color:#d0d0d0;
      }
      .ColorScheme-ButtonBackground {
        color:#232323;
        stop-color:#232323;                             
      }                                                 
      .ColorScheme-ButtonHover {                        
        color:#005cc7;                                  
        stop-color:#005cc7;                             
      }                                                 
      .ColorScheme-ButtonFocus{                         
        color:#0039a9;                                  
        stop-color:#0039a9;                             
      }</style>
    <linearGradient
       gradientTransform="translate(471.31814,349.93102)"
       x2="0"
       gradientUnits="userSpaceOnUse"
       y2="365.35999"
       y1="392.35999"
       id="a">
      <stop
         id="stop2"
         stop-opacity="0"
         stop-color="#ffffff" />
      <stop
         id="stop4"
         stop-opacity=".2"
         stop-color="#ffffff"
         offset="1" />
    </linearGradient>
    <linearGradient
       gradientTransform="translate(309.57,152.44)"
       x2="0"
       gradientUnits="userSpaceOnUse"
       y2="365.35999"
       y1="392.35999"
       id="linearGradient4314">
      <stop
         id="stop4310"
         stop-opacity="0"
         stop-color="#ffffff" />
      <stop
         id="stop4312"
         stop-opacity=".2"
         stop-color="#ffffff"
         offset="1" />
    </linearGradient>
  </defs>
  <sodipodi:namedview
     id="base"
     pagecolor="#002266"
     bordercolor="#ffffff"
     borderopacity="0.46666667"
     inkscape:pageopacity="0"
     inkscape:pageshadow="2"
     inkscape:zoom="6.4296875"
     inkscape:cx="92.95449"
     inkscape:cy="19.003024"
     inkscape:document-units="px"
     inkscape:current-layer="svg8"
     inkscape:document-rotation="0"
     showgrid="false"
     inkscape:showpageshadow="false"
     borderlayer="true"
     units="px"
     fit-margin-top="0"
     fit-margin-left="0"
     fit-margin-right="0"
     fit-margin-bottom="0"
     inkscape:window-width="1920"
     inkscape:window-height="1051"
     inkscape:window-x="0"
     inkscape:window-y="0"
     inkscape:window-maximized="1"
     inkscape:snap-page="true" />
  <metadata
     id="metadata5">
    <rdf:RDF>
      <cc:Work
         rdf:about="">
        <dc:format>image/svg+xml</dc:format>
        <dc:type
           rdf:resource="http://purl.org/dc/dcmitype/StillImage" />
        <dc:title></dc:title>
      </cc:Work>
    </rdf:RDF>
  </metadata>
  <g
     id="g4338"
     inkscape:label="#text-x-go">
    <rect
       inkscape:label="#boundary"
       y="0"
       x="0"
       height="32"
       width="32"
       id="rect4264"
       style="fill:none;fill-opacity:0.74651441;stroke-width:23.61599922;stroke-opacity:0.3596773" />
    <path
       style="color:#000000;opacity:0.6;color-interpolation:sRGB;color-interpolation-filters:linearRGB;fill:#eeeeee;stroke-width:1.71428657;color-rendering:auto;image-rendering:auto;shape-rendering:auto;text-rendering:auto"
       d="M 13.142578,8 V 56 H 50.857422 V 20 l -12,-12 z m 12.714844,12.388672 a 6.1195302,6.1195302 0 0 1 6.121094,6.11914 6.1195302,6.1195302 0 0 1 6.11914,-6.11914 6.1195302,6.1195302 0 0 1 6.119141,6.11914 6.1195302,6.1195302 0 0 1 -6.119141,6.119141 6.1195302,6.1195302 0 0 1 -5.740234,-4.019531 3.3379256,3.3379256 0 0 1 -0.378906,-1.544922 3.3379256,3.3379256 0 0 1 0.01367,-0.269531 6.1195302,6.1195302 0 0 1 -0.01367,-0.285157 6.1195302,6.1195302 0 0 1 -6.121094,6.119141 6.1195302,6.1195302 0 0 1 -5.738281,-4.019531 3.3379256,3.3379256 0 0 1 -0.38086,-1.544922 3.3379256,3.3379256 0 0 1 0.01563,-0.271484 6.1195302,6.1195302 0 0 1 -0.01563,-0.283204 6.1195302,6.1195302 0 0 1 6.119141,-6.11914 z m 9.103516,3.667969 a 2.294824,2.294824 0 0 0 -2.294922,2.294921 2.294824,2.294824 0 0 0 2.294922,2.294922 2.294824,2.294824 0 0 0 2.294921,-2.294922 2.294824,2.294824 0 0 0 -2.294921,-2.294921 z m -12.595704,0.04883 a 2.294824,2.294824 0 0 0 -2.294922,2.294922 2.294824,2.294824 0 0 0 2.294922,2.294921 2.294824,2.294824 0 0 0 2.294922,-2.294921 2.294824,2.294824 0 0 0 -2.294922,-2.294922 z m 19.164063,11.71289 0.794922,0.730469 c -1.034752,0.42393 -2.292197,0.773448 -3.671875,1.03711 v 3.941406 a 3.3379256,3.3379256 0 0 1 -3.335938,3.33789 3.3379256,3.3379256 0 0 1 -2.783203,-1.496093 3.3379256,3.3379256 0 0 1 -2.78125,1.496093 3.3379256,3.3379256 0 0 1 -3.337891,-3.33789 V 37.763672 C 25.159001,37.570066 23.970028,37.321259 22.9375,37.005859 l 0.746094,-0.820312 c 2.257552,0.571794 5.22403,0.889543 8.294922,0.890625 3.716226,-0.0011 7.230923,-0.464523 9.550781,-1.257813 z"
       transform="scale(0.5)"
       id="path4287"
       inkscape:connector-curvature="0"
       inkscape:label="#1" />
  </g>
</svg>
