<?xml version="1.0" encoding="UTF-8" standalone="no"?>
<!-- Created with Inkscape (http://www.inkscape.org/) -->

<svg
     xmlns:dc="http://purl.org/dc/elements/1.1/"
     xmlns:cc="http://creativecommons.org/ns#"
     xmlns:rdf="http://www.w3.org/1999/02/22-rdf-syntax-ns#"
     xmlns:svg="http://www.w3.org/2000/svg"
     xmlns="http://www.w3.org/2000/svg"
     xmlns:sodipodi="http://sodipodi.sourceforge.net/DTD/sodipodi-0.dtd"
     xmlns:inkscape="http://www.inkscape.org/namespaces/inkscape"
     width="32"
     height="32"
     viewBox="0 0 32 32"
     version="1.1"
     id="svg8"
     inkscape:version="0.92+devel (fa9b7f7a5b, 2017-07-19, custom)"
     sodipodi:docname="text-x-sass.svg">
    <defs
         id="ol-defs">
        <style
             id="current-color-scheme">      .ColorScheme-Text {
        color:#d0d0d0;
        stop-color:#d0d0d0;
      }
      .ColorScheme-Background {
        color:#212121;
        stop-color:#212121;
      }
      .ColorScheme-Highlight {
        color:#0039a9;
        stop-color:#0039a9;
      }
      .ColorScheme-ViewText {
        color:#d0d0d0;
        stop-color:#d0d0d0;
      }
      .ColorScheme-ViewBackground {
        color:#19191b;
        stop-color:#19191b;
      }
      .ColorScheme-ViewHover {
        color:#005cc7;
        stop-color:#005cc7;
      }
      .ColorScheme-ViewFocus{
        color:#002466;
        stop-color:#002466;
      }
      .ColorScheme-ButtonText {
        color:#d0d0d0;
        stop-color:#d0d0d0;
      }
      .ColorScheme-ButtonBackground {
        color:#232323;
        stop-color:#232323;                             
      }                                                 
      .ColorScheme-ButtonHover {                        
        color:#005cc7;                                  
        stop-color:#005cc7;                             
      }                                                 
      .ColorScheme-ButtonFocus{                         
        color:#0039a9;                                  
        stop-color:#0039a9;                             
      }</style>
        <style
             id="current-color-scheme-7">      .ColorScheme-Text {
        color:#d0d0d0;
        stop-color:#d0d0d0;
      }
      .ColorScheme-Background {
        color:#212121;
        stop-color:#212121;
      }
      .ColorScheme-Highlight {
        color:#0039a9;
        stop-color:#0039a9;
      }
      .ColorScheme-ViewText {
        color:#d0d0d0;
        stop-color:#d0d0d0;
      }
      .ColorScheme-ViewBackground {
        color:#19191b;
        stop-color:#19191b;
      }
      .ColorScheme-ViewHover {
        color:#005cc7;
        stop-color:#005cc7;
      }
      .ColorScheme-ViewFocus{
        color:#002466;
        stop-color:#002466;
      }
      .ColorScheme-ButtonText {
        color:#d0d0d0;
        stop-color:#d0d0d0;
      }
      .ColorScheme-ButtonBackground {
        color:#232323;
        stop-color:#232323;                             
      }                                                 
      .ColorScheme-ButtonHover {                        
        color:#005cc7;                                  
        stop-color:#005cc7;                             
      }                                                 
      .ColorScheme-ButtonFocus{                         
        color:#0039a9;                                  
        stop-color:#0039a9;                             
      }</style>
        <linearGradient
             gradientTransform="translate(471.31814,349.93102)"
             x2="0"
             gradientUnits="userSpaceOnUse"
             y2="365.35999"
             y1="392.35999"
             id="a">
            <stop
                 id="stop2"
                 stop-opacity="0"
                 stop-color="#ffffff" />
            <stop
                 id="stop4"
                 stop-opacity=".2"
                 stop-color="#ffffff"
                 offset="1" />
        </linearGradient>
        <linearGradient
             gradientTransform="translate(309.57,152.44)"
             x2="0"
             gradientUnits="userSpaceOnUse"
             y2="365.35999"
             y1="392.35999"
             id="linearGradient4314">
            <stop
                 id="stop4310"
                 stop-opacity="0"
                 stop-color="#ffffff" />
            <stop
                 id="stop4312"
                 stop-opacity=".2"
                 stop-color="#ffffff"
                 offset="1" />
        </linearGradient>
        <linearGradient
             gradientTransform="matrix(0.26458333,0,0,0.26458333,6.4068536,-8.476478)"
             id="a-6"
             y1="17"
             x1="40"
             y2="31"
             gradientUnits="userSpaceOnUse"
             x2="54">
            <stop
                 stop-color="#060606"
                 id="stop7" />
            <stop
                 offset="1"
                 stop-opacity="0"
                 id="stop9" />
        </linearGradient>
        <linearGradient
             id="b"
             y1="392.35999"
             y2="336.35999"
             gradientUnits="userSpaceOnUse"
             x2="0"
             gradientTransform="translate(-48,-332.36)">
            <stop
                 stop-color="#ffffff"
                 stop-opacity="0"
                 id="stop12" />
            <stop
                 offset="1"
                 stop-color="#ffffff"
                 stop-opacity=".2"
                 id="stop14" />
        </linearGradient>
        <path
             id="c"
             d="M 10,61 V 3 H 40 L 54,17 V 61 H 40 Z"
             inkscape:connector-curvature="0" />
    </defs>
    <sodipodi:namedview
         id="base"
         pagecolor="#002266"
         bordercolor="#ffffff"
         borderopacity="0.46666667"
         inkscape:pageopacity="0"
         inkscape:pageshadow="2"
         inkscape:zoom="6.4296875"
         inkscape:cx="92.95449"
         inkscape:cy="19.003024"
         inkscape:document-units="px"
         inkscape:current-layer="svg8"
         inkscape:document-rotation="0"
         showgrid="false"
         inkscape:showpageshadow="false"
         borderlayer="true"
         units="px"
         fit-margin-top="0"
         fit-margin-left="0"
         fit-margin-right="0"
         fit-margin-bottom="0"
         inkscape:window-width="1920"
         inkscape:window-height="1051"
         inkscape:window-x="0"
         inkscape:window-y="0"
         inkscape:window-maximized="1"
         inkscape:snap-page="true" />
    <metadata
         id="metadata5">
        <rdf:RDF>
            <cc:Work
                 rdf:about="">
                <dc:format>image/svg+xml</dc:format>
                <dc:type
                     rdf:resource="http://purl.org/dc/dcmitype/StillImage" />
                <dc:title></dc:title>
            </cc:Work>
        </rdf:RDF>
    </metadata>
    <g
         id="g4338"
         inkscape:label="#text-x-sass"
         style="stroke-width:2">
        <rect
             inkscape:label="#boundary"
             y="0"
             x="0"
             height="32"
             width="32"
             id="rect4264"
             style="fill:none;fill-opacity:0.74651441;stroke-width:47.23199844;stroke-opacity:0.3596773" />
        <path
             style="color:#000000;opacity:0.6;color-interpolation:sRGB;color-interpolation-filters:linearRGB;fill:#eeeeee;stroke-width:3.42857313;color-rendering:auto;image-rendering:auto;shape-rendering:auto;text-rendering:auto"
             d="M 13.142578,8 V 56 H 50.857422 V 20 l -12,-12 z m 17.644531,15.287109 c 0.327003,-0.01576 0.646325,-0.016 0.957032,0 h 0.002 c 2.071374,0.106648 3.715427,0.91033 4.085937,2.294922 0.582464,2.175974 -1.402181,4.778677 -3.943359,5.716797 -2.267992,0.835002 -4.14409,0.703451 -4.91211,0.462891 -0.876266,-0.27513 -1.391905,-0.8254 -1.515624,-1.134766 -0.05176,-0.122802 -0.13402,-0.329757 0,-0.398437 0.08248,-0.04421 0.114279,-0.03565 0.335937,0.195312 0.211332,0.22088 1.050539,0.810592 2.648437,0.638672 4.195783,-0.447028 6.722779,-3.548744 5.923829,-5.21875 -0.561846,-1.168858 -3.796042,-1.694951 -7.832032,0.220703 -4.927726,2.337916 -5.195188,4.266157 -5.236328,4.998047 -0.113396,2.013918 2.615009,3.074174 4.087891,4.572266 l 0.05664,0.06055 c 0.278361,-0.142355 0.571965,-0.299985 0.855469,-0.447265 0.742254,-0.38809 1.443566,-0.751808 1.773438,-0.923828 0.520604,-0.72193 1.571116,-1.511719 2.333984,-1.511719 1.216454,0 0.798828,1.666016 0.798828,1.666016 0,0 0.0253,-0.08008 0.05664,-0.08008 0.03092,0 0.164707,-0.220531 0.541016,-0.08789 0.386584,0.132628 0.300781,0.392909 0.300781,0.417969 0.0052,0.0539 -0.459711,1.53262 -0.650391,2.480468 -0.08782,0.451942 -0.03744,0.78125 -0.01172,0.78125 0.03602,0 0.11534,-0.119387 0.1875,-0.242187 v -0.0098 c 0,0 0.04976,-0.09476 0.142579,-0.261719 0.0106,-0.01948 -0.0907,0.163197 0.01758,-0.0332 0.108214,-0.196392 0.255681,-0.486009 0.425781,-0.849609 0.335044,-0.712202 1.624142,-3.443497 1.732422,-3.748047 0.11338,-0.304542 0.168943,-0.619413 0.220703,-0.751953 0.05155,-0.132442 0.512073,-0.242069 1.042969,-0.230469 0.531084,0.0049 0.580937,0.221005 0.585937,0.265625 0,0.04921 -0.25576,0.647891 -0.3125,1.070313 -0.05656,0.422426 7.55e-4,0.638429 0.04687,0.992187 0.03098,0.235646 0.184835,0.531163 0.365235,0.865235 0.551531,-0.85961 1.520461,-2.495352 1.613281,-2.957032 0.067,-0.314384 0.168943,-0.619193 0.220703,-0.751953 0.05154,-0.132442 0.510121,-0.242069 1.041016,-0.230468 0.531083,0.0049 0.58289,0.219051 0.58789,0.263671 0,0.0491 -0.25576,0.649954 -0.3125,1.072266 -0.0566,0.42254 7.55e-4,0.638551 0.04687,0.992187 0.0412,0.304545 0.287736,0.711249 0.535156,1.177735 0.670088,-0.314254 1.467969,-0.517697 2.390625,-0.529297 v 0.01563 c 2.386544,-0.01465 3.731642,1.457786 3.669922,2.808594 -0.04123,1.05108 -1.055334,1.489851 -1.246094,1.519531 -0.139188,0.01946 -0.211981,0.02294 -0.232421,-0.08008 -0.01547,-0.06878 0.03557,-0.104586 0.195312,-0.197266 0.159792,-0.0982 0.640876,-0.410638 0.728516,-0.980468 0.08762,-0.569716 -0.366392,-1.934018 -2.660157,-2.189454 -1.066982,-0.122816 -1.907174,0.02396 -2.55664,0.279297 0.118538,0.2947 0.205103,0.603689 0.220703,0.917969 0.02578,0.682788 -0.468939,1.189248 -0.984375,1.552734 -0.298936,0.211166 -0.624542,0.351987 -0.892578,0.435547 -0.216528,0.0884 -0.504034,0.178752 -0.705078,0.138672 -0.448424,-0.08835 -0.686935,-0.467844 -0.382813,-1.302734 0.164946,-0.45195 0.645331,-1.138104 1.408203,-1.732422 -0.175282,-0.3438 -0.37081,-0.694378 -0.46875,-1.013672 -0.190482,-0.628656 -0.251953,-1.009766 -0.251953,-1.009766 0,0 -0.628951,1.246236 -1.443359,2.38086 -0.04636,0.06864 -0.0945,0.134305 -0.140625,0.197265 0.159838,0.353526 0.289087,0.727225 0.304687,1.105469 0.03092,0.687596 -0.28339,1.202926 -0.798828,1.566406 -0.283482,0.19652 -0.578259,0.329829 -0.835937,0.417969 -0.164948,0.06868 -0.494516,0.181258 -0.96875,0.210938 -0.262876,0.01946 -0.509238,-0.0012 -0.648438,-0.09961 -0.19068,-0.137562 -0.211221,-0.308234 -0.113281,-0.539062 0.08247,-0.196506 0.712495,-0.879274 1.238281,-1.478516 0.144308,-0.16699 0.28249,-0.333194 0.40625,-0.490234 l -0.0059,-0.01172 c 0,0 0.09339,-0.119916 0.248047,-0.326172 C 34.914727,35.791497 34.66617,35.385015 34.55273,35.011693 34.362252,34.383067 34.300781,34 34.300781,34 c 0,0 -0.639755,1.562963 -1.304687,2.810547 -0.51545,0.967648 -0.859012,1.551204 -1.013672,1.806641 v 0.01172 c 0,0 -0.02136,0.03541 -0.0625,0.09375 -0.02074,0.03408 -0.03125,0.04883 -0.03125,0.04883 v -0.01172 c -0.17525,0.245602 -0.562625,0.722656 -0.949219,0.722656 -1.056676,0 -0.669922,-2.048828 -0.669922,-2.048828 0,0 -0.309652,0.756894 -0.660156,1.410156 -0.283498,0.535382 -0.540434,0.980469 -1.107422,0.980469 -0.159786,0 -0.418288,-0.0019 -0.634765,-0.19336 -0.489684,-0.442106 -0.85927,-1.565155 -0.78711,-2.429687 0.06182,-0.736692 0.17883,-1.240623 0.34375,-1.667969 -0.293804,0.152332 -0.626581,0.327951 -0.966797,0.519531 l -0.527343,0.294922 0.01562,0.0293 c 0.438141,0.80067 0.551948,2.55555 -0.396484,3.90625 -0.95358,1.350698 -2.71589,2.169761 -4.4375,1.712891 -0.556686,-0.147292 -1.391552,-1.241072 -0.669922,-2.763672 0.639166,-1.345896 3.189291,-2.617361 3.859375,-2.931641 0.0567,-0.02974 0.118547,-0.06527 0.185547,-0.09961 -1.340172,-1.114942 -4.685235,-2.622121 -5.154297,-4.935547 -0.134017,-0.648458 0.187004,-2.212224 2.197266,-4 1.69068,-1.508062 4.040891,-2.655884 6.210937,-3.392578 1.024944,-0.346769 2.065867,-0.538671 3.046875,-0.585938 z M 30.404297,33.78125 c -0.194988,-0.0145 -0.528639,0.150926 -0.841797,0.482422 -0.257724,0.275014 -0.694201,0.983803 -0.900391,1.578125 -0.406904,1.178918 -0.232011,2.370932 0.05664,2.445312 0.335036,0.08847 0.891441,-1.487554 1.154297,-2.101562 0.164908,-0.38317 0.809801,-2.092349 0.675781,-2.328125 -0.02838,-0.04544 -0.07951,-0.07117 -0.144531,-0.07617 z m 8.556641,1.947266 c -0.42785,0.358678 -0.676877,0.736976 -0.785157,0.96289 -0.278284,0.569728 -0.287538,0.752207 -0.205078,0.810547 0.402044,-0.137452 1.061406,-0.467462 1.066406,-1.351562 0.0052,-0.132782 -0.02445,-0.274455 -0.07617,-0.421875 z m -13.845704,0.966796 c -0.04126,0.02406 -0.083,0.04896 -0.11914,0.06836 0,0 -0.01944,0.01185 -0.05078,0.03125 -0.195866,0.112982 -0.36045,0.205431 -0.46875,0.269531 -0.484526,0.289778 -1.222074,0.760711 -1.789062,1.271485 -0.932936,0.84004 -1.12446,2.00531 -0.634766,2.27539 0.453598,0.255446 1.521587,-0.04522 2.279297,-0.835937 0.798508,-0.830194 1.128533,-1.881709 0.783203,-3.080079 z m 10.361328,0.142579 c -0.164949,0.206344 -0.320318,0.389635 -0.449218,0.546875 -0.22678,0.270208 -0.798828,0.853515 -0.798828,0.853515 0,0 -0.08304,0.07329 -0.04687,0.09375 0.04638,0.02976 0.150232,-0.01065 0.263671,-0.06445 0.319577,-0.191582 1.03125,-0.663812 1.03125,-1.371094 z"
             transform="scale(0.5)"
             id="path4287"
             inkscape:connector-curvature="0"
             inkscape:label="#1" />
    </g>
</svg>
