<?xml version="1.0" encoding="UTF-8" standalone="no"?>
<!-- Created with Inkscape (http://www.inkscape.org/) -->

<svg
     xmlns:dc="http://purl.org/dc/elements/1.1/"
     xmlns:cc="http://creativecommons.org/ns#"
     xmlns:rdf="http://www.w3.org/1999/02/22-rdf-syntax-ns#"
     xmlns:svg="http://www.w3.org/2000/svg"
     xmlns="http://www.w3.org/2000/svg"
     xmlns:sodipodi="http://sodipodi.sourceforge.net/DTD/sodipodi-0.dtd"
     xmlns:inkscape="http://www.inkscape.org/namespaces/inkscape"
     width="32"
     height="32"
     viewBox="0 0 32 32"
     version="1.1"
     id="svg8"
     inkscape:version="0.92+devel (fa9b7f7a5b, 2017-07-19, custom)"
     sodipodi:docname="text-x-gettext-translation.svg">
    <defs
         id="ol-defs">
        <style
             id="current-color-scheme">      .ColorScheme-Text {
        color:#d0d0d0;
        stop-color:#d0d0d0;
      }
      .ColorScheme-Background {
        color:#212121;
        stop-color:#212121;
      }
      .ColorScheme-Highlight {
        color:#0039a9;
        stop-color:#0039a9;
      }
      .ColorScheme-ViewText {
        color:#d0d0d0;
        stop-color:#d0d0d0;
      }
      .ColorScheme-ViewBackground {
        color:#19191b;
        stop-color:#19191b;
      }
      .ColorScheme-ViewHover {
        color:#005cc7;
        stop-color:#005cc7;
      }
      .ColorScheme-ViewFocus{
        color:#002466;
        stop-color:#002466;
      }
      .ColorScheme-ButtonText {
        color:#d0d0d0;
        stop-color:#d0d0d0;
      }
      .ColorScheme-ButtonBackground {
        color:#232323;
        stop-color:#232323;                             
      }                                                 
      .ColorScheme-ButtonHover {                        
        color:#005cc7;                                  
        stop-color:#005cc7;                             
      }                                                 
      .ColorScheme-ButtonFocus{                         
        color:#0039a9;                                  
        stop-color:#0039a9;                             
      }</style>
        <style
             id="current-color-scheme-7">      .ColorScheme-Text {
        color:#d0d0d0;
        stop-color:#d0d0d0;
      }
      .ColorScheme-Background {
        color:#212121;
        stop-color:#212121;
      }
      .ColorScheme-Highlight {
        color:#0039a9;
        stop-color:#0039a9;
      }
      .ColorScheme-ViewText {
        color:#d0d0d0;
        stop-color:#d0d0d0;
      }
      .ColorScheme-ViewBackground {
        color:#19191b;
        stop-color:#19191b;
      }
      .ColorScheme-ViewHover {
        color:#005cc7;
        stop-color:#005cc7;
      }
      .ColorScheme-ViewFocus{
        color:#002466;
        stop-color:#002466;
      }
      .ColorScheme-ButtonText {
        color:#d0d0d0;
        stop-color:#d0d0d0;
      }
      .ColorScheme-ButtonBackground {
        color:#232323;
        stop-color:#232323;                             
      }                                                 
      .ColorScheme-ButtonHover {                        
        color:#005cc7;                                  
        stop-color:#005cc7;                             
      }                                                 
      .ColorScheme-ButtonFocus{                         
        color:#0039a9;                                  
        stop-color:#0039a9;                             
      }</style>
        <linearGradient
             gradientTransform="translate(471.31814,349.93102)"
             x2="0"
             gradientUnits="userSpaceOnUse"
             y2="365.35999"
             y1="392.35999"
             id="a">
            <stop
                 id="stop2"
                 stop-opacity="0"
                 stop-color="#ffffff" />
            <stop
                 id="stop4"
                 stop-opacity=".2"
                 stop-color="#ffffff"
                 offset="1" />
        </linearGradient>
        <linearGradient
             gradientTransform="translate(309.57,152.44)"
             x2="0"
             gradientUnits="userSpaceOnUse"
             y2="365.35999"
             y1="392.35999"
             id="linearGradient4314">
            <stop
                 id="stop4310"
                 stop-opacity="0"
                 stop-color="#ffffff" />
            <stop
                 id="stop4312"
                 stop-opacity=".2"
                 stop-color="#ffffff"
                 offset="1" />
        </linearGradient>
        <linearGradient
             gradientTransform="matrix(0.26457775,0,0,0.26457775,-3.3753991,-6.0090676)"
             gradientUnits="userSpaceOnUse"
             y2="14.09"
             x2="69.589996"
             y1="30.867001"
             x1="70.209999"
             id="0">
            <stop
                 id="stop17"
                 stop-color="#1f52b9" />
            <stop
                 id="stop19"
                 stop-color="#147bdc"
                 offset="1" />
        </linearGradient>
    </defs>
    <sodipodi:namedview
         id="base"
         pagecolor="#002266"
         bordercolor="#ffffff"
         borderopacity="0.46666667"
         inkscape:pageopacity="0"
         inkscape:pageshadow="2"
         inkscape:zoom="6.4296875"
         inkscape:cx="60.060201"
         inkscape:cy="19.003024"
         inkscape:document-units="px"
         inkscape:current-layer="svg8"
         inkscape:document-rotation="0"
         showgrid="false"
         inkscape:showpageshadow="false"
         borderlayer="true"
         units="px"
         fit-margin-top="0"
         fit-margin-left="0"
         fit-margin-right="0"
         fit-margin-bottom="0"
         inkscape:window-width="1920"
         inkscape:window-height="1051"
         inkscape:window-x="0"
         inkscape:window-y="0"
         inkscape:window-maximized="1"
         inkscape:snap-page="true" />
    <metadata
         id="metadata5">
        <rdf:RDF>
            <cc:Work
                 rdf:about="">
                <dc:format>image/svg+xml</dc:format>
                <dc:type
                     rdf:resource="http://purl.org/dc/dcmitype/StillImage" />
                <dc:title></dc:title>
            </cc:Work>
        </rdf:RDF>
    </metadata>
    <g
         id="g4338"
         inkscape:label="#text-x-gettext-translation"
         style="stroke-width:2">
        <rect
             inkscape:label="#boundary"
             y="0"
             x="0"
             height="32"
             width="32"
             id="rect4264"
             style="fill:none;fill-opacity:0.74651441;stroke-width:47.23199844;stroke-opacity:0.3596773" />
        <path
             style="color:#000000;opacity:0.6;color-interpolation:sRGB;color-interpolation-filters:linearRGB;fill:#eeeeee;stroke-width:3.42857313;color-rendering:auto;image-rendering:auto;shape-rendering:auto;text-rendering:auto"
             d="M 13.142578,8 V 56 H 50.857422 V 20 l -12,-12 z m 10.389453,11.333984 h 8.839844 l 4.001953,11.921875 v -0.388671 c 0,-0.190291 0.15399,-0.34375 0.34375,-0.34375 h 2.679688 v -0.470704 c 0,-0.190294 0.155943,-0.34375 0.345703,-0.34375 h 0.857422 c 0.190294,0 0.34375,0.15345 0.34375,0.34375 v 0.470704 h 2.68164 c 0.190292,0 0.34375,0.15399 0.34375,0.34375 v 0.917968 c 0,0.189764 -0.15399,0.34375 -0.34375,0.34375 h -0.271484 c -0.154346,1.329406 -0.856436,2.733051 -2.085938,4.171875 0.560308,0.603124 1.247129,1.066729 1.611329,1.292969 0.142699,0.08827 0.200138,0.266475 0.136718,0.421875 L 42.7,38.789062 c -0.04015,0.09778 -0.123129,0.172052 -0.224609,0.201172 -0.102032,0.02852 -0.209802,0.0091 -0.294922,-0.05273 -0.559246,-0.407016 -1.504518,-1.141907 -1.90625,-1.560547 -0.510452,0.489068 -1.004059,0.900038 -1.431641,1.232422 l 0.34375,1.025391 h 0.04492 l -0.0332,0.03711 0.03906,0.113281 h -0.140625 l -4.375,4.88086 -1.826172,-4.88086 h -9.542968 c -2.488094,0.115232 -2.521485,-1.86914 -2.521485,-1.86914 v -16.34961 c 0,0 0.06668,-2.232422 2.701172,-2.232422 z m 3.603516,5.498047 c -0.173388,0 -0.326233,0.113317 -0.376953,0.279297 l -2.617188,8.560547 c -0.03648,0.119476 -0.01399,0.248669 0.06055,0.349609 0.07453,0.10044 0.191146,0.160157 0.316406,0.160157 h 1.357422 c 0.177072,0 0.335253,-0.118863 0.382813,-0.289063 l 0.585937,-2.111328 h 2.677735 l 0.636718,2.119141 c 0.04968,0.16705 0.202513,0.28125 0.376954,0.28125 h 1.445312 c 0.125834,0 0.242406,-0.05972 0.316406,-0.160157 0.07446,-0.100972 0.09557,-0.231562 0.05859,-0.351562 l -2.654297,-8.560547 h 0.002 c -0.05128,-0.164946 -0.204093,-0.277344 -0.376953,-0.277344 z m 0.998047,1.582031 h 0.02734 l 1.054687,3.78711 h -2.068359 z m 8.529297,5.703126 1.673828,4.982421 c 0.322692,-0.266438 0.660683,-0.559079 1.009765,-0.898437 -0.852088,-1.25699 -1.313332,-2.492969 -1.513672,-3.123047 -0.03324,-0.105188 -0.01422,-0.219774 0.05078,-0.308594 0.06501,-0.08878 0.167403,-0.140625 0.277344,-0.140625 h 0.845703 c 0.14589,0 0.275578,0.0911 0.324218,0.228516 0.19241,0.544448 0.530169,1.363931 1.056641,2.207031 0.826188,-1.022294 1.318051,-2.008945 1.462891,-2.935547 h -5.132813 c -0.01956,0 -0.03609,-0.0085 -0.05469,-0.01172 z"
             transform="scale(0.5)"
             id="path4287"
             inkscape:connector-curvature="0"
             sodipodi:nodetypes="cccccccccsscsssscsssscccccccccccccccccccccscccssccccssccccssccccccccccsscccscc"
             inkscape:label="#1" />
    </g>
</svg>
