<?xml version="1.0" encoding="UTF-8" standalone="no"?>
<!-- Created with Inkscape (http://www.inkscape.org/) -->

<svg
     xmlns:dc="http://purl.org/dc/elements/1.1/"
     xmlns:cc="http://creativecommons.org/ns#"
     xmlns:rdf="http://www.w3.org/1999/02/22-rdf-syntax-ns#"
     xmlns:svg="http://www.w3.org/2000/svg"
     xmlns="http://www.w3.org/2000/svg"
     xmlns:sodipodi="http://sodipodi.sourceforge.net/DTD/sodipodi-0.dtd"
     xmlns:inkscape="http://www.inkscape.org/namespaces/inkscape"
     width="64"
     height="64"
     viewBox="0 0 64 64"
     version="1.1"
     id="svg8"
     inkscape:version="0.92+devel (572d1a9d8b, 2017-07-17, custom)"
     sodipodi:docname="application-x-nes-rom.svg">
    <defs
         id="ol-defs">
        <style
             id="current-color-scheme">      .ColorScheme-Text {
        color:#d0d0d0;
        stop-color:#d0d0d0;
      }
      .ColorScheme-Background {
        color:#212121;
        stop-color:#212121;
      }
      .ColorScheme-Highlight {
        color:#0039a9;
        stop-color:#0039a9;
      }
      .ColorScheme-ViewText {
        color:#d0d0d0;
        stop-color:#d0d0d0;
      }
      .ColorScheme-ViewBackground {
        color:#19191b;
        stop-color:#19191b;
      }
      .ColorScheme-ViewHover {
        color:#005cc7;
        stop-color:#005cc7;
      }
      .ColorScheme-ViewFocus{
        color:#002466;
        stop-color:#002466;
      }
      .ColorScheme-ButtonText {
        color:#d0d0d0;
        stop-color:#d0d0d0;
      }
      .ColorScheme-ButtonBackground {
        color:#232323;
        stop-color:#232323;                             
      }                                                 
      .ColorScheme-ButtonHover {                        
        color:#005cc7;                                  
        stop-color:#005cc7;                             
      }                                                 
      .ColorScheme-ButtonFocus{                         
        color:#0039a9;                                  
        stop-color:#0039a9;                             
      }</style>
        <style
             id="current-color-scheme-7">      .ColorScheme-Text {
        color:#d0d0d0;
        stop-color:#d0d0d0;
      }
      .ColorScheme-Background {
        color:#212121;
        stop-color:#212121;
      }
      .ColorScheme-Highlight {
        color:#0039a9;
        stop-color:#0039a9;
      }
      .ColorScheme-ViewText {
        color:#d0d0d0;
        stop-color:#d0d0d0;
      }
      .ColorScheme-ViewBackground {
        color:#19191b;
        stop-color:#19191b;
      }
      .ColorScheme-ViewHover {
        color:#005cc7;
        stop-color:#005cc7;
      }
      .ColorScheme-ViewFocus{
        color:#002466;
        stop-color:#002466;
      }
      .ColorScheme-ButtonText {
        color:#d0d0d0;
        stop-color:#d0d0d0;
      }
      .ColorScheme-ButtonBackground {
        color:#232323;
        stop-color:#232323;                             
      }                                                 
      .ColorScheme-ButtonHover {                        
        color:#005cc7;                                  
        stop-color:#005cc7;                             
      }                                                 
      .ColorScheme-ButtonFocus{                         
        color:#0039a9;                                  
        stop-color:#0039a9;                             
      }</style>
        <linearGradient
             gradientTransform="translate(471.31814,349.93102)"
             x2="0"
             gradientUnits="userSpaceOnUse"
             y2="365.35999"
             y1="392.35999"
             id="a">
            <stop
                 id="stop2"
                 stop-opacity="0"
                 stop-color="#ffffff" />
            <stop
                 id="stop4"
                 stop-opacity=".2"
                 stop-color="#ffffff"
                 offset="1" />
        </linearGradient>
        <linearGradient
             gradientTransform="translate(309.57,152.44)"
             x2="0"
             gradientUnits="userSpaceOnUse"
             y2="365.35999"
             y1="392.35999"
             id="linearGradient4314">
            <stop
                 id="stop4310"
                 stop-opacity="0"
                 stop-color="#ffffff" />
            <stop
                 id="stop4312"
                 stop-opacity=".2"
                 stop-color="#ffffff"
                 offset="1" />
        </linearGradient>
    </defs>
    <sodipodi:namedview
         id="base"
         pagecolor="#002266"
         bordercolor="#ffffff"
         borderopacity="0.46666667"
         inkscape:pageopacity="0"
         inkscape:pageshadow="2"
         inkscape:zoom="6.4296875"
         inkscape:cx="67.13675"
         inkscape:cy="19.003024"
         inkscape:document-units="px"
         inkscape:current-layer="svg8"
         inkscape:document-rotation="0"
         showgrid="false"
         inkscape:showpageshadow="false"
         borderlayer="true"
         units="px"
         fit-margin-top="0"
         fit-margin-left="0"
         fit-margin-right="0"
         fit-margin-bottom="0"
         inkscape:window-width="1920"
         inkscape:window-height="1051"
         inkscape:window-x="0"
         inkscape:window-y="0"
         inkscape:window-maximized="1"
         inkscape:snap-page="true" />
    <metadata
         id="metadata5">
        <rdf:RDF>
            <cc:Work
                 rdf:about="">
                <dc:format>image/svg+xml</dc:format>
                <dc:type
                     rdf:resource="http://purl.org/dc/dcmitype/StillImage" />
                <dc:title></dc:title>
            </cc:Work>
        </rdf:RDF>
    </metadata>
    <g
         id="g4338"
         inkscape:label="#application-x-nes-rom"
         transform="scale(2)">
        <rect
             inkscape:label="#boundary"
             y="0"
             x="0"
             height="32"
             width="32"
             id="rect4264"
             style="fill:none;fill-opacity:0.74651441;stroke-width:23.61599922;stroke-opacity:0.3596773" />
        <path
             style="color:#000000;opacity:0.6;color-interpolation:sRGB;color-interpolation-filters:linearRGB;fill:#eeeeee;stroke-width:1.71428657;color-rendering:auto;image-rendering:auto;shape-rendering:auto;text-rendering:auto"
             d="M 13.142578,8 V 56 H 50.857422 V 20 l -12,-12 z m 9.914063,15.251953 c 0.01182,0 0.02336,-0.0011 0.03516,0 4.988708,0.489972 12.086649,0.49456 17.814453,0 1.524146,-0.131598 3.863285,11.651473 2.925781,14.601563 -0.452448,1.423772 -1.927955,2.899931 -3.421875,2.894531 -2.067366,-0.0069 -3.694758,-4.977107 -4.36914,-5.060547 -2.593502,-0.17564 -5.229455,-0.19092 -8.083985,0 -0.705958,0.05185 -2.301772,5.053947 -4.36914,5.060547 -1.49393,0.005 -2.969415,-1.470759 -3.421875,-2.894531 -0.930177,-2.927046 1.393233,-14.563343 2.890625,-14.601563 z m 2.392578,2.048828 a 3.0012252,3.0012252 0 0 0 -3.001953,3.001953 3.0012252,3.0012252 0 0 0 3.001953,3 3.0012252,3.0012252 0 0 0 3.001953,-3 3.0012252,3.0012252 0 0 0 -3.001953,-3.001953 z m 13.199219,0 a 3.0012252,3.0012252 0 0 0 -3.001954,3.001953 3.0012252,3.0012252 0 0 0 3.001954,3 3.0012252,3.0012252 0 0 0 3.001953,-3 3.0012252,3.0012252 0 0 0 -3.001953,-3.001953 z m -3.904297,4.646485 a 0.64542478,0.64542478 0 0 0 -0.646485,0.646484 0.64542478,0.64542478 0 0 0 0.646485,0.644531 0.64542478,0.64542478 0 0 0 0.644531,-0.644531 0.64542478,0.64542478 0 0 0 -0.644531,-0.646484 z m -5.75586,0.220703 a 1.5096629,1.5096629 0 0 0 -1.509765,1.509765 1.5096629,1.5096629 0 0 0 1.509765,1.509766 1.5096629,1.5096629 0 0 0 1.509766,-1.509766 1.5096629,1.5096629 0 0 0 -1.509766,-1.509765 z m 4.431641,1.103515 a 0.64542478,0.64542478 0 0 0 -0.644531,0.644532 0.64542478,0.64542478 0 0 0 0.644531,0.646484 0.64542478,0.64542478 0 0 0 0.646484,-0.646484 0.64542478,0.64542478 0 0 0 -0.646484,-0.644532 z m 2.646484,0 a 0.64542478,0.64542478 0 0 0 -0.644531,0.644532 0.64542478,0.64542478 0 0 0 0.644531,0.646484 0.64542478,0.64542478 0 0 0 0.646485,-0.646484 0.64542478,0.64542478 0 0 0 -0.646485,-0.644532 z m -1.322265,1.322266 a 0.64542478,0.64542478 0 0 0 -0.646485,0.646484 0.64542478,0.64542478 0 0 0 0.646485,0.644532 0.64542478,0.64542478 0 0 0 0.644531,-0.644532 0.64542478,0.64542478 0 0 0 -0.644531,-0.646484 z"
             transform="scale(0.5)"
             id="path4287"
             inkscape:connector-curvature="0"
             inkscape:label="#1" />
    </g>
</svg>
