<?xml version="1.0" encoding="UTF-8" standalone="no"?>
<!-- Created with Inkscape (http://www.inkscape.org/) -->

<svg
     xmlns:dc="http://purl.org/dc/elements/1.1/"
     xmlns:cc="http://creativecommons.org/ns#"
     xmlns:rdf="http://www.w3.org/1999/02/22-rdf-syntax-ns#"
     xmlns:svg="http://www.w3.org/2000/svg"
     xmlns="http://www.w3.org/2000/svg"
     xmlns:sodipodi="http://sodipodi.sourceforge.net/DTD/sodipodi-0.dtd"
     xmlns:inkscape="http://www.inkscape.org/namespaces/inkscape"
     width="64"
     height="64"
     viewBox="0 0 64 64"
     version="1.1"
     id="svg8"
     inkscape:version="0.92+devel (fa9b7f7a5b, 2017-07-19, custom)"
     sodipodi:docname="application-x-php.svg">
    <defs
         id="ol-defs">
        <style
             id="current-color-scheme">      .ColorScheme-Text {
        color:#d0d0d0;
        stop-color:#d0d0d0;
      }
      .ColorScheme-Background {
        color:#212121;
        stop-color:#212121;
      }
      .ColorScheme-Highlight {
        color:#0039a9;
        stop-color:#0039a9;
      }
      .ColorScheme-ViewText {
        color:#d0d0d0;
        stop-color:#d0d0d0;
      }
      .ColorScheme-ViewBackground {
        color:#19191b;
        stop-color:#19191b;
      }
      .ColorScheme-ViewHover {
        color:#005cc7;
        stop-color:#005cc7;
      }
      .ColorScheme-ViewFocus{
        color:#002466;
        stop-color:#002466;
      }
      .ColorScheme-ButtonText {
        color:#d0d0d0;
        stop-color:#d0d0d0;
      }
      .ColorScheme-ButtonBackground {
        color:#232323;
        stop-color:#232323;                             
      }                                                 
      .ColorScheme-ButtonHover {                        
        color:#005cc7;                                  
        stop-color:#005cc7;                             
      }                                                 
      .ColorScheme-ButtonFocus{                         
        color:#0039a9;                                  
        stop-color:#0039a9;                             
      }</style>
        <style
             id="current-color-scheme-7">      .ColorScheme-Text {
        color:#d0d0d0;
        stop-color:#d0d0d0;
      }
      .ColorScheme-Background {
        color:#212121;
        stop-color:#212121;
      }
      .ColorScheme-Highlight {
        color:#0039a9;
        stop-color:#0039a9;
      }
      .ColorScheme-ViewText {
        color:#d0d0d0;
        stop-color:#d0d0d0;
      }
      .ColorScheme-ViewBackground {
        color:#19191b;
        stop-color:#19191b;
      }
      .ColorScheme-ViewHover {
        color:#005cc7;
        stop-color:#005cc7;
      }
      .ColorScheme-ViewFocus{
        color:#002466;
        stop-color:#002466;
      }
      .ColorScheme-ButtonText {
        color:#d0d0d0;
        stop-color:#d0d0d0;
      }
      .ColorScheme-ButtonBackground {
        color:#232323;
        stop-color:#232323;                             
      }                                                 
      .ColorScheme-ButtonHover {                        
        color:#005cc7;                                  
        stop-color:#005cc7;                             
      }                                                 
      .ColorScheme-ButtonFocus{                         
        color:#0039a9;                                  
        stop-color:#0039a9;                             
      }</style>
        <linearGradient
             gradientTransform="translate(471.31814,349.93102)"
             x2="0"
             gradientUnits="userSpaceOnUse"
             y2="365.35999"
             y1="392.35999"
             id="a">
            <stop
                 id="stop2"
                 stop-opacity="0"
                 stop-color="#ffffff" />
            <stop
                 id="stop4"
                 stop-opacity=".2"
                 stop-color="#ffffff"
                 offset="1" />
        </linearGradient>
        <linearGradient
             gradientTransform="translate(309.57,152.44)"
             x2="0"
             gradientUnits="userSpaceOnUse"
             y2="365.35999"
             y1="392.35999"
             id="linearGradient4314">
            <stop
                 id="stop4310"
                 stop-opacity="0"
                 stop-color="#ffffff" />
            <stop
                 id="stop4312"
                 stop-opacity=".2"
                 stop-color="#ffffff"
                 offset="1" />
        </linearGradient>
        <clipPath
             id="clipPath3444">
            <path
                 d="M11.52 162C11.52 81.677 135.307 16.56 288 16.56S564.48 81.678 564.48 162 440.693 307.44 288 307.44 11.52 242.32 11.52 162"
                 id="path3446" />
        </clipPath>
        <radialGradient
             spreadMethod="pad"
             gradientUnits="userSpaceOnUse"
             gradientTransform="matrix(363.06 0 0 -363.06 177.52 256.31)"
             fy="0"
             fx="0"
             r="1"
             cy="0"
             cx="0"
             id="radialGradient3452">
            <stop
                 stop-color="#aeb2d5"
                 offset="0"
                 id="stop3454" />
            <stop
                 stop-color="#aeb2d5"
                 offset="0.3"
                 id="stop3456" />
            <stop
                 stop-color="#484c89"
                 offset="0.75"
                 id="stop3458" />
            <stop
                 stop-color="#484c89"
                 offset="1"
                 id="stop3460" />
        </radialGradient>
        <clipPath
             id="clipPath3468">
            <path
                 d="M0 324h576V0H0v324z"
                 id="path3470" />
        </clipPath>
        <clipPath
             id="clipPath3480">
            <path
                 d="M0 324h576V0H0v324z"
                 id="path3482" />
        </clipPath>
        <clipPath
             id="clipPath3444-6">
            <path
                 id="path3446-7"
                 d="M11.52 162C11.52 81.677 135.307 16.56 288 16.56S564.48 81.678 564.48 162 440.693 307.44 288 307.44 11.52 242.32 11.52 162" />
        </clipPath>
        <radialGradient
             id="radialGradient3452-5"
             cx="0"
             cy="0"
             r="1"
             fx="0"
             fy="0"
             gradientTransform="matrix(2.7795039,0,0,2.7795039,1.2708572,1.394651)"
             gradientUnits="userSpaceOnUse"
             spreadMethod="pad">
            <stop
                 id="stop3454-3"
                 offset="0"
                 stop-color="#aeb2d5" />
            <stop
                 id="stop3456-5"
                 offset="0.3"
                 stop-color="#aeb2d5" />
            <stop
                 id="stop3458-6"
                 offset="0.75"
                 stop-color="#484c89" />
            <stop
                 id="stop3460-2"
                 offset="1"
                 stop-color="#484c89" />
        </radialGradient>
        <clipPath
             id="clipPath3468-9">
            <path
                 id="path3470-1"
                 d="M0 324h576V0H0v324z" />
        </clipPath>
        <clipPath
             id="clipPath3480-2">
            <path
                 id="path3482-7"
                 d="M0 324h576V0H0v324z" />
        </clipPath>
    </defs>
    <sodipodi:namedview
         id="base"
         pagecolor="#002266"
         bordercolor="#ffffff"
         borderopacity="0.46666667"
         inkscape:pageopacity="0"
         inkscape:pageshadow="2"
         inkscape:zoom="6.4296875"
         inkscape:cx="67.13675"
         inkscape:cy="19.003024"
         inkscape:document-units="px"
         inkscape:current-layer="svg8"
         inkscape:document-rotation="0"
         showgrid="false"
         inkscape:showpageshadow="false"
         borderlayer="true"
         units="px"
         fit-margin-top="0"
         fit-margin-left="0"
         fit-margin-right="0"
         fit-margin-bottom="0"
         inkscape:window-width="1920"
         inkscape:window-height="1051"
         inkscape:window-x="0"
         inkscape:window-y="0"
         inkscape:window-maximized="1"
         inkscape:snap-page="true" />
    <metadata
         id="metadata5">
        <rdf:RDF>
            <cc:Work
                 rdf:about="">
                <dc:format>image/svg+xml</dc:format>
                <dc:type
                     rdf:resource="http://purl.org/dc/dcmitype/StillImage" />
                <dc:title></dc:title>
            </cc:Work>
        </rdf:RDF>
    </metadata>
    <g
         id="g4338"
         inkscape:label="#application-x-php"
         transform="scale(2)">
        <rect
             inkscape:label="#boundary"
             y="0"
             x="0"
             height="32"
             width="32"
             id="rect4264"
             style="fill:none;fill-opacity:0.74651441;stroke-width:23.61599922;stroke-opacity:0.3596773" />
        <path
             style="color:#000000;opacity:0.6;color-interpolation:sRGB;color-interpolation-filters:linearRGB;fill:#eeeeee;stroke-width:1.71428657;color-rendering:auto;image-rendering:auto;shape-rendering:auto;text-rendering:auto"
             d="M 13.142578,8 V 56 H 50.857422 V 20 l -12,-12 z M 32,23.84375 c 8.5614,0 15.501953,3.652646 15.501953,8.15625 0,4.503604 -6.940553,8.15625 -15.501953,8.15625 -8.561404,0 -15.501953,-3.652588 -15.501953,-8.15625 0,-4.503492 6.940549,-8.15625 15.501953,-8.15625 z m -1.449219,2.376953 -1.589843,8.171875 h 1.767578 l 0.908203,-4.68164 h 1.412109 c 0.451916,-10e-7 0.749612,0.07696 0.888672,0.226562 0.13882,0.149592 0.167891,0.42852 0.08789,0.839844 l -0.705079,3.615234 h 1.794922 l 0.742188,-3.800781 c 0.150158,-0.773646 0.03405,-1.334304 -0.341797,-1.679688 -0.375832,-0.345142 -1.056801,-0.519531 -2.046875,-0.519531 h -1.574219 l 0.423828,-2.171875 z m -7.578125,2.171875 -1.58789,8.175781 h 1.777343 l 0.423829,-2.175781 h 1.52539 c 0.672832,0 1.227514,-0.07105 1.66211,-0.21289 0.434537,-0.140902 0.828131,-0.374552 1.183593,-0.707032 0.298282,-0.27429 0.54013,-0.577505 0.72461,-0.908203 0.184638,-0.330584 0.315038,-0.694704 0.392578,-1.09375 0.188396,-0.968654 0.04828,-1.726954 -0.423828,-2.267578 -0.472272,-0.540494 -1.225978,-0.810547 -2.25586,-0.810547 z m 13.894532,0 -1.585938,8.175781 h 1.779297 l 0.419922,-2.175781 h 1.52539 c 0.672832,0 1.225561,-0.07105 1.660157,-0.21289 0.434538,-0.140902 0.830047,-0.374552 1.185546,-0.707032 0.298282,-0.27429 0.542083,-0.577505 0.726563,-0.908203 0.184636,-0.330584 0.316991,-0.694704 0.394531,-1.09375 0.1884,-0.968654 0.04437,-1.726954 -0.427734,-2.267578 -0.472274,-0.540494 -1.222069,-0.810547 -2.251953,-0.810547 z m -12.365235,1.291016 h 1.21875 c 0.676364,0 1.130069,0.12534 1.355469,0.375 0.2251,0.249676 0.275943,0.679707 0.158203,1.287109 -0.12313,0.63246 -0.359621,1.083044 -0.710937,1.353516 -0.351277,0.27048 -0.887669,0.40625 -1.605469,0.40625 h -1.082031 z m 13.894531,0 h 1.222657 c 0.676366,0 1.124209,0.12534 1.349609,0.375 0.22518,0.249676 0.278016,0.679707 0.160156,1.287109 -0.12313,0.63246 -0.359505,1.083044 -0.710937,1.353516 -0.351276,0.27048 -0.883765,0.40625 -1.601563,0.40625 h -1.082031 z"
             transform="scale(0.5)"
             id="path4287"
             inkscape:connector-curvature="0"
             inkscape:label="#1" />
    </g>
</svg>
