<?xml version="1.0" encoding="UTF-8" standalone="no"?>
<!-- Created with Inkscape (http://www.inkscape.org/) -->

<svg
     xmlns:dc="http://purl.org/dc/elements/1.1/"
     xmlns:cc="http://creativecommons.org/ns#"
     xmlns:rdf="http://www.w3.org/1999/02/22-rdf-syntax-ns#"
     xmlns:svg="http://www.w3.org/2000/svg"
     xmlns="http://www.w3.org/2000/svg"
     xmlns:sodipodi="http://sodipodi.sourceforge.net/DTD/sodipodi-0.dtd"
     xmlns:inkscape="http://www.inkscape.org/namespaces/inkscape"
     width="16.933332mm"
     height="16.933332mm"
     viewBox="0 0 16.933332 16.933332"
     version="1.1"
     id="svg8"
     inkscape:version="0.92+devel (572d1a9d8b, 2017-07-17, custom)"
     sodipodi:docname="application-x-deb.svg">
    <defs
         id="defs2" />
    <sodipodi:namedview
         id="base"
         pagecolor="#002466"
         bordercolor="#ffffff"
         borderopacity="0.38039216"
         inkscape:pageopacity="1"
         inkscape:pageshadow="2"
         inkscape:zoom="9.3912624"
         inkscape:cx="14.323994"
         inkscape:cy="31.999998"
         inkscape:document-units="mm"
         inkscape:current-layer="g840"
         inkscape:document-rotation="0"
         showgrid="false"
         inkscape:showpageshadow="false"
         borderlayer="true"
         inkscape:window-width="1920"
         inkscape:window-height="1051"
         inkscape:window-x="0"
         inkscape:window-y="0"
         inkscape:window-maximized="1"
         inkscape:snap-page="true"
         inkscape:snap-grids="false"
         inkscape:snap-to-guides="false" />
    <metadata
         id="metadata5">
        <rdf:RDF>
            <cc:Work
                 rdf:about="">
                <dc:format>image/svg+xml</dc:format>
                <dc:type
                     rdf:resource="http://purl.org/dc/dcmitype/StillImage" />
                <dc:title></dc:title>
            </cc:Work>
        </rdf:RDF>
    </metadata>
    <g
         id="g840"
         inkscape:label="#application-x-deb"
         transform="scale(1.0583333)">
        <rect
             y="0"
             x="0"
             height="16"
             width="16"
             id="rect836"
             style="opacity:0.93199978;fill:none;stroke-width:0.30000001"
             inkscape:label="#boundary" />
        <path
             style="opacity:0.6;fill:#d0d0d0;stroke-width:0.89533961"
             d="M 15.570312,8 8,20.248047 H 31.072266 V 8 Z M 33.769531,8 V 20.248047 H 56 L 48.429688,8 Z M 8,22.919922 V 56 H 56 V 22.919922 Z m 23.421875,3.828125 c 0.198328,0 -0.156133,0.232122 -0.566406,0.371094 -0.457469,0.154956 -0.57948,0.169529 -0.542969,0.06445 0.02672,-0.07679 0.940559,-0.435547 1.109375,-0.435547 z m 7.734375,0.222656 c 0.0205,0.0291 0.04107,0.09168 0.06055,0.191406 0.05407,0.27794 -0.01635,0.767725 -0.121094,0.851563 -0.05725,0.04554 -0.0736,-0.07818 -0.06641,-0.488281 0.0067,-0.427298 0.06544,-0.641985 0.126953,-0.554688 z m -3.416016,0.0957 c 0.177864,-0.0079 0.333624,0.02466 0.398438,0.09961 0.0477,0.05483 0.17894,0.143586 0.291016,0.199218 0.182871,0.09079 0.194471,0.0917 0.117187,0.002 -0.146808,-0.169896 -5.76e-4,-0.164718 0.566406,0.01758 1.82801,0.587514 3.318016,1.633075 4.423828,3.105468 0.26224,0.349164 0.278177,0.505504 0.0293,0.292969 l -0.142578,-0.121094 0.109375,0.203125 c 0.0598,0.112072 0.107422,0.23939 0.107422,0.28125 0,0.04192 0.175745,0.35123 0.390625,0.6875 0.484248,0.7579 0.620395,1.011927 0.587891,1.105469 -0.014,0.04014 -0.228219,-0.225429 -0.476563,-0.591797 -0.2482,-0.366352 -0.615686,-0.860713 -0.816406,-1.097656 -0.29984,-0.35384 -0.378345,-0.413513 -0.439453,-0.337891 -0.04072,0.0507 -0.141377,0.09999 -0.222657,0.111329 l -0.148437,0.02148 0.146484,0.27539 c 0.08032,0.151324 0.156882,0.242603 0.169922,0.205079 0.06984,-0.200976 0.395149,0.06361 0.542969,0.441406 0.04836,0.122548 0.175363,0.374642 0.283203,0.560547 0.10776,0.1859 0.182616,0.351259 0.166016,0.367187 -0.0164,0.01592 -0.11527,-0.03509 -0.21875,-0.113281 l -0.1875,-0.140625 0.128906,0.210937 c 0.07068,0.116372 0.187799,0.258787 0.261719,0.316407 0.09224,0.07194 0.136545,0.184784 0.140625,0.361328 0.0076,0.325964 0.202794,0.710918 0.308593,0.609375 0.16488,-0.158192 0.19769,-0.0591 0.15625,0.458984 -0.0304,0.381688 -0.01473,0.633323 0.05859,0.900391 0.11012,0.405469 0.08686,0.505905 -0.07422,0.316406 -0.10236,-0.120516 -0.104074,-0.121162 -0.05859,0.0039 0.09832,0.268096 0.172743,0.670707 0.152344,0.828125 -0.038,0.293748 -0.1538,0.171214 -0.19336,-0.205078 L 42.261719,36.074219 42.25,36.464844 c -0.0056,0.214976 -0.05943,0.629143 -0.117188,0.921875 -0.05916,0.29568 -0.08789,0.654507 -0.06641,0.80664 0.04008,0.286196 0.01116,0.296793 -0.238281,0.0918 -0.1014,-0.0835 -0.11786,-0.06672 -0.1875,0.181641 -0.05916,0.208972 -0.05889,0.328896 0.002,0.503906 0.04324,0.126088 0.06729,0.297944 0.05469,0.380859 -0.0288,0.191344 -0.1875,0.250777 -0.1875,0.07031 0,-0.226928 -0.09031,-0.14758 -0.365235,0.326172 -0.742416,1.279249 -1.916636,2.269344 -3.246093,2.736328 -0.783784,0.27532 -1.309464,0.377229 -2.19336,0.425781 l -0.796875,0.04492 0.392578,0.115234 c 0.317148,0.09392 0.50436,0.109739 0.962891,0.07422 0.60065,-0.04664 1.305198,-0.172382 1.625,-0.289062 0.12766,-0.04664 0.213732,-0.04965 0.257812,-0.0078 0.104,0.0998 -0.81876,0.49312 -1.367187,0.582032 -0.93317,0.151115 -2.182481,-0.01192 -3.285156,-0.429688 -0.748138,-0.28346 -1.857626,-1.022151 -1.6875,-1.123047 0.03244,-0.0192 0.242814,0.07768 0.46875,0.214844 0.28878,0.1752 0.410156,0.220297 0.410156,0.154297 0,-0.12468 0.04394,-0.117618 0.273437,0.03906 0.207172,0.1416 0.843752,0.403878 1.302735,0.53711 0.50034,0.14524 0.305957,-0.0298 -0.365235,-0.330078 -2.122242,-0.949452 -3.00232,-1.899571 -3.441406,-3.710938 -0.160992,-0.66423 0.01164,-2.120132 0.304688,-2.576172 0.07448,-0.115536 0.134765,-0.25827 0.134765,-0.316406 0,-0.252288 0.43883,-0.919867 0.888672,-1.351563 0.792671,-0.760674 1.617678,-1.076287 2.6875,-1.029297 0.517197,0.02276 0.737572,0.06797 1.167969,0.232422 0.488191,0.1866 1.102317,0.576065 0.914062,0.580078 -0.04453,9.35e-4 -0.238717,-0.0615 -0.43164,-0.138671 -0.293233,-0.117268 -0.480929,-0.140091 -1.146485,-0.142579 -0.934598,-0.0035 -1.391511,0.123162 -2.05664,0.572266 -0.942982,0.636716 -1.466634,1.370651 -1.652344,2.3125 -0.124608,0.631983 -0.128514,0.806708 -0.03125,1.433594 0.05598,0.361224 0.09598,0.467193 0.166016,0.441406 0.05916,-0.02164 0.0918,0.01059 0.0918,0.08789 0,0.223888 0.507279,1.131137 0.859374,1.537109 0.847373,0.977208 2.218952,1.601563 3.519532,1.601563 0.675027,0 1.220376,-0.124339 1.722656,-0.392579 0.2017,-0.107799 0.455048,-0.239728 0.564453,-0.292968 0.386228,-0.18784 0.626153,-0.401671 0.90625,-0.810547 0.155712,-0.22732 0.325749,-0.414063 0.376953,-0.414063 0.07563,0 0.07197,0.03354 -0.01758,0.175782 -0.296096,0.468968 0.399893,-0.384439 0.759766,-0.931641 l 0.402344,-0.613281 -0.04492,-0.402344 c -0.0426,-0.386876 -0.035,-0.409212 0.158203,-0.603516 0.1858,-0.187104 0.201216,-0.243931 0.222656,-0.74414 0.0192,-0.447686 0.0057,-0.540507 -0.07617,-0.541016 -0.0766,-4.39e-4 -0.109618,-0.118208 -0.142578,-0.509766 -0.04391,-0.518179 -0.483594,-2.261546 -0.585937,-2.322265 -0.03117,-0.01825 -0.115543,-0.186434 -0.189454,-0.373047 -0.249343,-0.629757 -0.687205,-1.234824 -1.36914,-1.894531 -0.981236,-0.949228 -2.21721,-1.682788 -3.384766,-2.007813 -0.993155,-0.276478 -2.679616,-0.176571 -3.880859,0.230469 -0.586275,0.19866 -1.164246,0.463471 -1.261719,0.576172 -0.04452,0.05114 -0.108482,0.07491 -0.142578,0.05469 -0.03624,-0.02132 -0.0268,-0.07742 0.02344,-0.134765 0.221292,-0.25588 -0.511634,0.212649 -0.984375,0.628906 -0.285792,0.251652 -0.53031,0.465259 -0.542968,0.474609 -0.01272,0.0092 0.04201,7.08e-4 0.123046,-0.01953 0.13434,-0.03364 0.139303,-0.02523 0.06641,0.105469 -0.04707,0.08373 -0.289759,0.233521 -0.587891,0.363281 -0.500913,0.218024 -0.824654,0.457932 -1.082031,0.800781 -0.102664,0.136892 -0.108052,0.166647 -0.02734,0.136719 0.05725,-0.02112 0.103516,-0.0081 0.103516,0.0293 0,0.181812 -0.172795,0.385006 -0.427735,0.503906 -0.564902,0.263388 -1.556287,1.669765 -2.08789,2.960938 -0.23694,0.575372 -0.232324,0.554687 -0.103516,0.554687 0.135804,0 0.126205,0.148512 -0.06055,0.94336 -0.271668,1.157812 -0.27207,1.121146 0.02344,2.75 0.360404,1.984616 0.570265,2.647797 0.970703,3.058593 0.09388,0.09636 0.18579,0.301889 0.226562,0.507813 0.04898,0.24588 0.130544,0.40806 0.283204,0.5625 0.139171,0.1408 0.184355,0.227374 0.130859,0.246094 -0.104888,0.0368 0.223782,0.506075 0.523437,0.748047 0.150816,0.121719 0.261769,0.162824 0.382813,0.140624 0.265244,-0.04868 0.536193,0.09773 0.951172,0.515626 0.431198,0.434295 0.474796,0.549953 0.189453,0.509765 -0.18408,-0.026 -0.188236,-0.01952 -0.09766,0.113281 0.05216,0.07632 0.242973,0.25833 0.425781,0.40625 0.25672,0.2078 0.323327,0.299045 0.291015,0.396485 -0.04643,0.14016 0.08562,0.269146 0.384766,0.378906 0.18548,0.068 0.245089,0.215126 0.105469,0.259766 -0.04262,0.0136 0.220485,0.272378 0.582031,0.574218 0.407282,0.34008 0.679707,0.526643 0.71875,0.490235 0.103108,-0.09612 0.235925,-0.06679 0.238281,0.05273 0.0023,0.13036 0.119742,0.267477 0.541016,0.632813 0.2662,0.23088 0.332941,0.259916 0.496094,0.216797 0.149416,-0.0396 0.24271,-0.01527 0.453125,0.121093 0.419812,0.27232 0.674625,0.38086 0.892578,0.38086 0.214424,0 0.244256,0.06001 0.132812,0.259765 -0.05916,0.10572 -0.04577,0.123047 0.08984,0.123047 0.0867,0 0.330834,0.05687 0.542969,0.126953 0.482275,0.15924 0.683374,0.17089 0.5625,0.03125 -0.178548,-0.20644 0.01181,-0.14992 0.650391,0.19336 0.891389,0.479704 1.342143,0.534562 3.117187,0.378906 0.262828,-0.0232 0.347656,-0.0094 0.347656,0.05469 0,0.05528 -0.22771,0.137175 -0.646484,0.234375 -0.550463,0.1278 -0.845352,0.152456 -1.974609,0.166016 -0.889844,0.0104 -1.497717,-0.01215 -1.845704,-0.07031 l 0.002,0.002 C 32.627167,51.891785 30.66931,51.118845 29.457031,50.328125 26.794644,48.591549 25.056563,46.66233 23.980469,44.253906 23.622954,43.45377 23.427911,42.832943 22.869141,40.720703 c -0.13892,-0.525212 -0.31238,-1.103428 -0.384766,-1.285156 -0.122127,-0.306546 -0.127395,-0.409177 -0.07422,-1.431641 0.05025,-0.97141 0.214575,-2.285585 0.302735,-2.423828 0.01652,-0.02684 0.05759,-0.03471 0.08984,-0.01563 0.108704,0.06454 0.209814,-0.233506 0.308594,-0.914062 0.05407,-0.372864 0.137632,-0.764091 0.1875,-0.869141 0.04962,-0.105016 0.134196,-0.335373 0.1875,-0.513672 0.1227,-0.410392 0.291289,-0.727279 0.808594,-1.523437 0.227524,-0.350148 0.463882,-0.73169 0.52539,-0.847657 0.07239,-0.136452 0.15197,-0.203325 0.22461,-0.189453 0.06997,0.01328 0.185721,-0.07478 0.30664,-0.234375 0.525974,-0.694167 3.003173,-2.741695 3.232422,-2.671875 0.06234,0.01908 0.323231,-0.06726 0.580078,-0.191406 0.46472,-0.22458 0.669922,-0.27659 0.669922,-0.169922 0,0.0308 -0.06827,0.10163 -0.15039,0.15625 -0.144072,0.09588 -0.140104,0.09701 0.08398,0.04492 0.127724,-0.02976 0.34146,-0.07177 0.476563,-0.09375 0.166972,-0.02716 0.235918,-0.06742 0.21289,-0.125 -0.01972,-0.05057 0.02801,-0.101508 0.119141,-0.125 0.228352,-0.05865 0.583984,-0.0473 0.583984,0.01758 0,0.07784 -0.203862,0.155985 -0.365234,0.140625 -0.110104,-0.01044 -0.115827,-0.0013 -0.0332,0.05273 0.08212,0.05413 0.08331,0.06561 0.0059,0.06641 -0.05152,5.32e-4 -0.07693,0.01707 -0.05664,0.03711 0.021,0.01992 0.160321,-0.0231 0.308593,-0.0957 0.148272,-0.07264 0.41988,-0.163376 0.603516,-0.201172 0.226128,-0.0465 0.333984,-0.0994 0.333984,-0.166015 0,-0.0857 0.104867,-0.09321 0.8125,-0.05664 0.446973,0.02316 1.120655,0.08935 1.498047,0.148437 0.686146,0.107448 0.685709,0.108005 0.941406,-0.0332 0.153358,-0.0847 0.353387,-0.132679 0.53125,-0.140625 z m -3.398437,0.273438 c -0.0528,0.02036 -0.03658,0.03594 0.04102,0.03906 0.06997,0.0023 0.107946,-0.01208 0.08594,-0.0332 -0.02164,-0.0212 -0.07899,-0.0247 -0.126953,-0.0059 z m 0.462891,0.06055 c -0.156032,0.01344 -0.04612,0.02511 0.246093,0.02539 0.291896,2.31e-4 0.419069,-0.01139 0.283203,-0.02539 -0.135868,-0.0136 -0.373331,-0.01346 -0.529296,0 z m 0.958984,0.06641 c -0.0638,0.01592 -0.01034,0.0293 0.117187,0.0293 0.12766,0 0.179099,-0.01322 0.115235,-0.0293 -0.06386,-0.01592 -0.168626,-0.01592 -0.232422,0 z m -1.525391,0.01953 c -0.01736,-0.0044 -0.04567,-0.0033 -0.08203,0.0059 -0.154948,0.03888 -0.176018,0.08203 -0.03906,0.08203 0.0528,0 0.112328,-0.02495 0.132812,-0.05664 h 0.002 c 0.01018,-0.01584 0.0037,-0.02682 -0.01367,-0.03125 z m 2.027344,0.04492 c -0.0528,0.02036 -0.03658,0.03594 0.04102,0.03906 0.06997,0.0023 0.107945,-0.01208 0.08594,-0.0332 -0.02228,-0.0212 -0.07899,-0.02462 -0.126953,-0.0059 z m -2.507813,0.05469 c -0.127659,-0.0035 -0.307221,0.03813 -0.398437,0.0918 -0.107372,0.06329 -0.119199,0.08027 -0.0332,0.05078 0.07302,-0.025 0.252457,-0.06623 0.398437,-0.0918 l 0.265625,-0.04687 z m -1.679687,0.265624 c -0.01464,-0.01388 -0.226194,0.03884 -0.470703,0.117188 -0.335912,0.107676 -0.456612,0.124582 -0.494141,0.06641 -0.06297,-0.0983 -0.666324,0.09495 -0.925781,0.296875 l -0.177734,0.138672 0.189453,-0.111328 c 0.104764,-0.06036 0.335017,-0.155471 0.511719,-0.212891 0.218683,-0.07101 0.342555,-0.08331 0.388671,-0.03906 0.04643,0.04427 0.218624,0.01633 0.53711,-0.08398 0.257356,-0.08096 0.455845,-0.157996 0.441406,-0.171876 z m 0.871094,0.0078 c -0.03116,-0.02976 -0.716797,0.159006 -0.716797,0.197266 0,0.03856 0.0057,0.03808 0.392578,-0.07227 0.192604,-0.05496 0.338275,-0.111576 0.324219,-0.125 z m -2.986328,0.607422 c -0.01844,0 -0.08638,0.05694 -0.152344,0.126953 -0.06602,0.07008 -0.106211,0.126953 -0.08789,0.126953 0.01844,0 0.08827,-0.05694 0.154297,-0.126953 0.06602,-0.07008 0.104258,-0.126953 0.08594,-0.126953 z m -0.783203,0.636719 c -0.0034,-0.0033 -0.02953,0.01507 -0.08203,0.05469 -0.06386,0.04815 -0.117187,0.09814 -0.117187,0.111328 0,0.05216 0.05489,0.01689 0.140625,-0.08789 0.04128,-0.05048 0.06199,-0.07483 0.05859,-0.07813 z M 22,34.984375 c 0.141208,0.0046 0.175058,0.04134 0.191406,0.201172 0.01844,0.18024 -0.18534,0.539062 -0.30664,0.539062 -0.0248,0 -0.04824,-0.168259 -0.05078,-0.373047 C 21.829184,34.990575 21.833502,34.978275 22,34.984375 Z m 15.845703,0.875 c 0.06121,0.01273 0.129552,0.08767 0.1875,0.220703 0.180264,0.413999 0.02429,0.607281 -0.226562,0.28125 -0.10298,-0.133804 -0.134729,-0.237825 -0.105469,-0.349609 0.03021,-0.114778 0.08333,-0.165071 0.144531,-0.152344 z m 4.345703,0.01563 c -0.007,0.0067 -0.01203,0.02925 -0.01367,0.06641 -0.0035,0.06708 0.01276,0.105149 0.03516,0.08398 0.0224,-0.0212 0.02586,-0.07713 0.0059,-0.123047 -0.0106,-0.02538 -0.02038,-0.03404 -0.02734,-0.02734 z m -20.302734,1.136719 c 0.09853,0.03116 0.157103,0.939453 0.06055,0.939453 -0.03436,0 -0.0793,-0.04416 -0.101563,-0.09961 -0.02228,-0.0554 -0.04102,-0.272273 -0.04102,-0.482421 0,-0.277248 0.02197,-0.376518 0.08203,-0.357422 z M 38,37.542969 c 0.08212,0.04866 0.07299,0.552213 -0.01563,0.890625 -0.0776,0.295604 -0.146857,0.329653 -0.439453,0.216797 -0.179056,-0.06905 -0.186089,-0.187595 -0.03711,-0.587891 0.128424,-0.34382 0.261604,-0.411823 0.1875,-0.0957 -0.02672,0.1138 -0.0614,0.279671 -0.07812,0.367187 l -0.03125,0.158204 0.132812,-0.144532 c 0.07843,-0.0857 0.150954,-0.286494 0.177734,-0.492187 0.0248,-0.19128 0.07107,-0.331684 0.103516,-0.3125 z m -1.277344,1.96875 c 0.01464,0.01388 -0.05905,0.155349 -0.164062,0.314453 -0.189232,0.287516 -0.192059,0.290036 -0.554688,0.285156 -0.200684,-0.0023 -0.403611,-0.01911 -0.449218,-0.03711 -0.185288,-0.07172 -0.0694,-0.205434 0.232421,-0.267578 0.173332,-0.03576 0.449936,-0.121215 0.613282,-0.191407 0.16328,-0.0702 0.307825,-0.117347 0.322265,-0.103515 z m -5.371094,1.43164 c 0.08524,0 0.738282,0.718856 0.738282,0.8125 0,0.04408 -0.0087,0.08008 -0.01953,0.08008 -0.01016,0 -0.189737,-0.166781 -0.398437,-0.369141 -0.350924,-0.34032 -0.462156,-0.523438 -0.320313,-0.523438 z m -0.207031,0.636719 c 0.0956,0 1.225877,1.132009 1.201172,1.203125 -0.01464,0.04116 -0.151188,-0.01648 -0.326172,-0.136719 -0.675739,-0.464628 -0.925781,-0.704656 -0.925781,-0.888672 0,-0.0976 0.02341,-0.177734 0.05078,-0.177734 z m 1.574219,0.757813 0.15625,0.130859 c 0.152852,0.12792 0.208984,0.155109 0.208984,0.105469 0,-0.0136 -0.08133,-0.07226 -0.18164,-0.13086 z"
             transform="scale(0.25000001)"
             id="rect9"
             inkscape:connector-curvature="0"
             inkscape:label="#1" />
    </g>
</svg>
