<?xml version="1.0" encoding="UTF-8" standalone="no"?>
<!-- Created with Inkscape (http://www.inkscape.org/) -->

<svg
   xmlns:dc="http://purl.org/dc/elements/1.1/"
   xmlns:cc="http://creativecommons.org/ns#"
   xmlns:rdf="http://www.w3.org/1999/02/22-rdf-syntax-ns#"
   xmlns:svg="http://www.w3.org/2000/svg"
   xmlns="http://www.w3.org/2000/svg"
   xmlns:sodipodi="http://sodipodi.sourceforge.net/DTD/sodipodi-0.dtd"
   xmlns:inkscape="http://www.inkscape.org/namespaces/inkscape"
   width="64"
   height="64"
   viewBox="0 0 64 64"
   version="1.1"
   id="svg8"
   inkscape:version="0.92+devel (1871f5fd98, 2017-07-15, custom)"
   sodipodi:docname="application-blender.svg">
  <defs
     id="ol-defs">
    <style
       id="current-color-scheme">      .ColorScheme-Text {
        color:#d0d0d0;
        stop-color:#d0d0d0;
      }
      .ColorScheme-Background {
        color:#212121;
        stop-color:#212121;
      }
      .ColorScheme-Highlight {
        color:#0039a9;
        stop-color:#0039a9;
      }
      .ColorScheme-ViewText {
        color:#d0d0d0;
        stop-color:#d0d0d0;
      }
      .ColorScheme-ViewBackground {
        color:#19191b;
        stop-color:#19191b;
      }
      .ColorScheme-ViewHover {
        color:#005cc7;
        stop-color:#005cc7;
      }
      .ColorScheme-ViewFocus{
        color:#002466;
        stop-color:#002466;
      }
      .ColorScheme-ButtonText {
        color:#d0d0d0;
        stop-color:#d0d0d0;
      }
      .ColorScheme-ButtonBackground {
        color:#232323;
        stop-color:#232323;                             
      }                                                 
      .ColorScheme-ButtonHover {                        
        color:#005cc7;                                  
        stop-color:#005cc7;                             
      }                                                 
      .ColorScheme-ButtonFocus{                         
        color:#0039a9;                                  
        stop-color:#0039a9;                             
      }</style>
    <style
       id="current-color-scheme-7">      .ColorScheme-Text {
        color:#d0d0d0;
        stop-color:#d0d0d0;
      }
      .ColorScheme-Background {
        color:#212121;
        stop-color:#212121;
      }
      .ColorScheme-Highlight {
        color:#0039a9;
        stop-color:#0039a9;
      }
      .ColorScheme-ViewText {
        color:#d0d0d0;
        stop-color:#d0d0d0;
      }
      .ColorScheme-ViewBackground {
        color:#19191b;
        stop-color:#19191b;
      }
      .ColorScheme-ViewHover {
        color:#005cc7;
        stop-color:#005cc7;
      }
      .ColorScheme-ViewFocus{
        color:#002466;
        stop-color:#002466;
      }
      .ColorScheme-ButtonText {
        color:#d0d0d0;
        stop-color:#d0d0d0;
      }
      .ColorScheme-ButtonBackground {
        color:#232323;
        stop-color:#232323;                             
      }                                                 
      .ColorScheme-ButtonHover {                        
        color:#005cc7;                                  
        stop-color:#005cc7;                             
      }                                                 
      .ColorScheme-ButtonFocus{                         
        color:#0039a9;                                  
        stop-color:#0039a9;                             
      }</style>
    <linearGradient
       gradientTransform="translate(471.31814,349.93102)"
       x2="0"
       gradientUnits="userSpaceOnUse"
       y2="365.35999"
       y1="392.35999"
       id="a">
      <stop
         id="stop2"
         stop-opacity="0"
         stop-color="#ffffff" />
      <stop
         id="stop4"
         stop-opacity=".2"
         stop-color="#ffffff"
         offset="1" />
    </linearGradient>
    <linearGradient
       gradientTransform="translate(309.57,152.44)"
       x2="0"
       gradientUnits="userSpaceOnUse"
       y2="365.35999"
       y1="392.35999"
       id="linearGradient4314">
      <stop
         id="stop4310"
         stop-opacity="0"
         stop-color="#ffffff" />
      <stop
         id="stop4312"
         stop-opacity=".2"
         stop-color="#ffffff"
         offset="1" />
    </linearGradient>
  </defs>
  <sodipodi:namedview
     id="base"
     pagecolor="#002266"
     bordercolor="#ffffff"
     borderopacity="0.46666667"
     inkscape:pageopacity="0"
     inkscape:pageshadow="2"
     inkscape:zoom="6.4296875"
     inkscape:cx="92.95449"
     inkscape:cy="19.003024"
     inkscape:document-units="px"
     inkscape:current-layer="svg8"
     inkscape:document-rotation="0"
     showgrid="false"
     inkscape:showpageshadow="false"
     borderlayer="true"
     units="px"
     fit-margin-top="0"
     fit-margin-left="0"
     fit-margin-right="0"
     fit-margin-bottom="0"
     inkscape:window-width="1920"
     inkscape:window-height="1051"
     inkscape:window-x="0"
     inkscape:window-y="0"
     inkscape:window-maximized="1"
     inkscape:snap-page="true" />
  <metadata
     id="metadata5">
    <rdf:RDF>
      <cc:Work
         rdf:about="">
        <dc:format>image/svg+xml</dc:format>
        <dc:type
           rdf:resource="http://purl.org/dc/dcmitype/StillImage" />
        <dc:title></dc:title>
      </cc:Work>
    </rdf:RDF>
  </metadata>
  <g
     id="g4338"
     inkscape:label="#application-blender"
     transform="scale(2)">
    <rect
       inkscape:label="#boundary"
       y="0"
       x="0"
       height="32"
       width="32"
       id="rect4264"
       style="fill:none;fill-opacity:0.74651441;stroke-width:23.61599922;stroke-opacity:0.3596773" />
    <path
       style="color:#000000;opacity:0.6;color-interpolation:sRGB;color-interpolation-filters:linearRGB;fill:#eeeeee;stroke-width:1.71428657;color-rendering:auto;image-rendering:auto;shape-rendering:auto;text-rendering:auto"
       d="M 13.142578,8 V 56 H 50.857422 V 20 l -12,-12 z m 18.21875,12.078125 a 1.65903,1.6585724 0 0 1 1.195313,0.492187 l 8.90625,8.904297 a 1.65903,1.6585724 0 0 1 0.199218,0.244141 8.4565454,8.4542132 0 0 1 -0.21289,11.726562 8.4565454,8.4542132 0 0 1 -11.958985,0.002 8.4565454,8.4542132 0 0 1 -2.404296,-4.888672 l -4.167969,4.169922 a 1.65903,1.6585724 0 0 1 -2.359375,0 1.65903,1.6585724 0 0 1 0.01172,-2.347657 l 8.070313,-8.066406 h -5.779297 a 1.65903,1.6585724 0 0 1 -1.65625,-1.65625 1.65903,1.6585724 0 0 1 0.472656,-1.164062 1.65903,1.6585724 0 0 1 1.191407,-0.5 h 11.414062 l -4.078125,-4.076172 a 1.65903,1.6585724 0 0 1 -0.0078,-2.347657 1.65903,1.6585724 0 0 1 1.164062,-0.492187 z m 4.181641,10.300781 a 5.090412,5.0890082 0 0 0 -3.673828,1.490235 5.090412,5.0890082 0 0 0 0,7.195312 5.090412,5.0890082 0 0 0 7.201171,0 5.090412,5.0890082 0 0 0 -0.002,-7.195312 5.090412,5.0890082 0 0 0 -3.523437,-1.490235 5.090412,5.0890082 0 0 1 -0.002,0 z m -0.07617,2.726563 a 2.3630828,2.362431 0 0 1 2.365234,2.363281 2.3630828,2.362431 0 0 1 -2.365234,2.361328 2.3630828,2.362431 0 0 1 -2.361328,-2.361328 2.3630828,2.362431 0 0 1 2.361328,-2.363281 z"
       transform="scale(0.5)"
       id="path4287"
       inkscape:connector-curvature="0"
       inkscape:label="#1" />
  </g>
</svg>
