<?xml version="1.0" encoding="UTF-8" standalone="no"?>
<!-- Created with Inkscape (http://www.inkscape.org/) -->

<svg
     xmlns:dc="http://purl.org/dc/elements/1.1/"
     xmlns:cc="http://creativecommons.org/ns#"
     xmlns:rdf="http://www.w3.org/1999/02/22-rdf-syntax-ns#"
     xmlns:svg="http://www.w3.org/2000/svg"
     xmlns="http://www.w3.org/2000/svg"
     xmlns:sodipodi="http://sodipodi.sourceforge.net/DTD/sodipodi-0.dtd"
     xmlns:inkscape="http://www.inkscape.org/namespaces/inkscape"
     width="64"
     height="64"
     viewBox="0 0 64 64"
     version="1.1"
     id="svg8"
     inkscape:version="0.92+devel (572d1a9d8b, 2017-07-17, custom)"
     sodipodi:docname="application-x-sharedlib.svg">
    <defs
         id="ol-defs">
        <style
             id="current-color-scheme">      .ColorScheme-Text {
        color:#d0d0d0;
        stop-color:#d0d0d0;
      }
      .ColorScheme-Background {
        color:#212121;
        stop-color:#212121;
      }
      .ColorScheme-Highlight {
        color:#0039a9;
        stop-color:#0039a9;
      }
      .ColorScheme-ViewText {
        color:#d0d0d0;
        stop-color:#d0d0d0;
      }
      .ColorScheme-ViewBackground {
        color:#19191b;
        stop-color:#19191b;
      }
      .ColorScheme-ViewHover {
        color:#005cc7;
        stop-color:#005cc7;
      }
      .ColorScheme-ViewFocus{
        color:#002466;
        stop-color:#002466;
      }
      .ColorScheme-ButtonText {
        color:#d0d0d0;
        stop-color:#d0d0d0;
      }
      .ColorScheme-ButtonBackground {
        color:#232323;
        stop-color:#232323;                             
      }                                                 
      .ColorScheme-ButtonHover {                        
        color:#005cc7;                                  
        stop-color:#005cc7;                             
      }                                                 
      .ColorScheme-ButtonFocus{                         
        color:#0039a9;                                  
        stop-color:#0039a9;                             
      }</style>
        <style
             id="current-color-scheme-7">      .ColorScheme-Text {
        color:#d0d0d0;
        stop-color:#d0d0d0;
      }
      .ColorScheme-Background {
        color:#212121;
        stop-color:#212121;
      }
      .ColorScheme-Highlight {
        color:#0039a9;
        stop-color:#0039a9;
      }
      .ColorScheme-ViewText {
        color:#d0d0d0;
        stop-color:#d0d0d0;
      }
      .ColorScheme-ViewBackground {
        color:#19191b;
        stop-color:#19191b;
      }
      .ColorScheme-ViewHover {
        color:#005cc7;
        stop-color:#005cc7;
      }
      .ColorScheme-ViewFocus{
        color:#002466;
        stop-color:#002466;
      }
      .ColorScheme-ButtonText {
        color:#d0d0d0;
        stop-color:#d0d0d0;
      }
      .ColorScheme-ButtonBackground {
        color:#232323;
        stop-color:#232323;                             
      }                                                 
      .ColorScheme-ButtonHover {                        
        color:#005cc7;                                  
        stop-color:#005cc7;                             
      }                                                 
      .ColorScheme-ButtonFocus{                         
        color:#0039a9;                                  
        stop-color:#0039a9;                             
      }</style>
        <linearGradient
             gradientTransform="translate(471.31814,349.93102)"
             x2="0"
             gradientUnits="userSpaceOnUse"
             y2="365.35999"
             y1="392.35999"
             id="a">
            <stop
                 id="stop2"
                 stop-opacity="0"
                 stop-color="#ffffff" />
            <stop
                 id="stop4"
                 stop-opacity=".2"
                 stop-color="#ffffff"
                 offset="1" />
        </linearGradient>
        <linearGradient
             gradientTransform="translate(309.57,152.44)"
             x2="0"
             gradientUnits="userSpaceOnUse"
             y2="365.35999"
             y1="392.35999"
             id="linearGradient4314">
            <stop
                 id="stop4310"
                 stop-opacity="0"
                 stop-color="#ffffff" />
            <stop
                 id="stop4312"
                 stop-opacity=".2"
                 stop-color="#ffffff"
                 offset="1" />
        </linearGradient>
        <style
             id="current-color-scheme-75">      .ColorScheme-Text {
        color:#d0d0d0;
        stop-color:#d0d0d0;
      }
      .ColorScheme-Background {
        color:#212121;
        stop-color:#212121;
      }
      .ColorScheme-Highlight {
        color:#0039a9;
        stop-color:#0039a9;
      }
      .ColorScheme-ViewText {
        color:#d0d0d0;
        stop-color:#d0d0d0;
      }
      .ColorScheme-ViewBackground {
        color:#19191b;
        stop-color:#19191b;
      }
      .ColorScheme-ViewHover {
        color:#005cc7;
        stop-color:#005cc7;
      }
      .ColorScheme-ViewFocus{
        color:#002466;
        stop-color:#002466;
      }
      .ColorScheme-ButtonText {
        color:#d0d0d0;
        stop-color:#d0d0d0;
      }
      .ColorScheme-ButtonBackground {
        color:#232323;
        stop-color:#232323;                             
      }                                                 
      .ColorScheme-ButtonHover {                        
        color:#005cc7;                                  
        stop-color:#005cc7;                             
      }                                                 
      .ColorScheme-ButtonFocus{                         
        color:#0039a9;                                  
        stop-color:#0039a9;                             
      }</style>
    </defs>
    <sodipodi:namedview
         id="base"
         pagecolor="#002266"
         bordercolor="#ffffff"
         borderopacity="0.46666667"
         inkscape:pageopacity="0"
         inkscape:pageshadow="2"
         inkscape:zoom="6.4296875"
         inkscape:cx="67.13675"
         inkscape:cy="19.003024"
         inkscape:document-units="px"
         inkscape:current-layer="svg8"
         inkscape:document-rotation="0"
         showgrid="false"
         inkscape:showpageshadow="false"
         borderlayer="true"
         units="px"
         fit-margin-top="0"
         fit-margin-left="0"
         fit-margin-right="0"
         fit-margin-bottom="0"
         inkscape:window-width="1920"
         inkscape:window-height="1051"
         inkscape:window-x="0"
         inkscape:window-y="0"
         inkscape:window-maximized="1"
         inkscape:snap-page="true" />
    <metadata
         id="metadata5">
        <rdf:RDF>
            <cc:Work
                 rdf:about="">
                <dc:format>image/svg+xml</dc:format>
                <dc:type
                     rdf:resource="http://purl.org/dc/dcmitype/StillImage" />
                <dc:title></dc:title>
            </cc:Work>
        </rdf:RDF>
    </metadata>
    <g
         id="g4338"
         inkscape:label="#application-x-sharedlib"
         transform="scale(2)">
        <rect
             inkscape:label="#boundary"
             y="0"
             x="0"
             height="32"
             width="32"
             id="rect4264"
             style="fill:none;fill-opacity:0.74651441;stroke-width:23.61599922;stroke-opacity:0.3596773" />
        <path
             style="color:#000000;opacity:0.6;color-interpolation:sRGB;color-interpolation-filters:linearRGB;fill:#eeeeee;stroke-width:1.71428657;color-rendering:auto;image-rendering:auto;shape-rendering:auto;text-rendering:auto"
             d="M 13.142578,8 V 56 H 50.857422 V 20 l -12,-12 z m 21.445313,13 1.945312,0.337891 0.158203,1.996093 a 5.2376798,5.2376798 0 0 1 0.925782,0.589844 l 1.875,-0.714844 1.138671,1.615235 -1.298828,1.521484 a 5.2376798,5.2376798 0 0 1 0.238281,1.076172 l 1.828126,0.818359 -0.335938,1.949219 -1.998047,0.15625 a 5.2376798,5.2376798 0 0 1 -0.589844,0.927735 l 0.714844,1.873046 -1.617187,1.138672 -1.517578,-1.296875 a 5.2376798,5.2376798 0 0 1 -1.078126,0.238281 l -0.820312,1.826172 -1.945312,-0.33789 -0.158204,-1.996094 a 5.2376798,5.2376798 0 0 1 -0.929687,-0.587891 l -1.871094,0.710938 -1.140625,-1.613281 1.296875,-1.521485 a 5.2376798,5.2376798 0 0 1 -0.236328,-1.074219 l -1.828125,-0.822265 0.337891,-1.947266 1.998047,-0.154297 a 5.2376798,5.2376798 0 0 1 0.58789,-0.927734 l -0.71289,-1.876953 1.617187,-1.136719 1.519531,1.296875 a 5.2376798,5.2376798 0 0 1 1.076172,-0.236328 z m -0.214844,4.980469 a 2.0470976,2.0470976 0 0 0 -2.017578,1.697265 2.0470976,2.0470976 0 0 0 1.666015,2.367188 2.0470976,2.0470976 0 0 0 2.367188,-1.667969 2.0470976,2.0470976 0 0 0 -1.667969,-2.367187 2.0470976,2.0470976 0 0 0 -0.347656,-0.0293 z m -8.046875,5.320312 1.617187,0.306641 0.103516,1.662109 a 4.3636612,4.3636612 0 0 1 0.767578,0.507813 l 1.568359,-0.570313 0.925782,1.363281 -1.105469,1.25 a 4.3636612,4.3636612 0 0 1 0.185547,0.896485 l 1.513672,0.708984 -0.310547,1.617188 -1.660156,0.103515 a 4.3636612,4.3636612 0 0 1 -0.50586,0.767578 l 0.566407,1.56836 -1.361329,0.923828 -1.25,-1.101562 a 4.3636612,4.3636612 0 0 1 -0.896484,0.185546 L 25.775391,43 24.158203,42.693359 24.052734,41.03125 a 4.3636612,4.3636612 0 0 1 -0.763672,-0.505859 l -1.570312,0.568359 -0.925781,-1.363281 1.105469,-1.25 A 4.3636612,4.3636612 0 0 1 21.714844,37.585938 L 20.199219,36.875 l 0.308593,-1.617188 1.66211,-0.105468 a 4.3636612,4.3636612 0 0 1 0.507812,-0.763672 l -0.568359,-1.570313 1.359375,-0.925781 1.251953,1.105469 a 4.3636612,4.3636612 0 0 1 0.896485,-0.183594 z m 12.255859,3.148438 1.751953,0.703125 -0.214843,1.330078 a 3.1729296,3.1729296 0 0 1 0.257812,0.285156 3.1729296,3.1729296 0 0 1 0.216797,0.31836 l 1.339844,0.109374 0.265625,1.869141 -1.25586,0.476563 a 3.1729296,3.1729296 0 0 1 -0.287109,0.714843 l 0.574219,1.214844 -1.484375,1.164063 -1.039063,-0.847657 a 3.1729296,3.1729296 0 0 1 -0.763672,0.105469 L 37.177734,43 35.425781,42.296875 35.640625,40.966797 a 3.1729296,3.1729296 0 0 1 -0.257813,-0.285156 3.1729296,3.1729296 0 0 1 -0.216796,-0.31836 l -1.339844,-0.109375 -0.265625,-1.86914 1.255859,-0.476563 a 3.1729296,3.1729296 0 0 1 0.28711,-0.714844 l -0.574219,-1.214843 1.484375,-1.164063 1.039062,0.847656 a 3.1729296,3.1729296 0 0 1 0.763672,-0.105468 z m -12.52539,0.996093 a 1.7054959,1.7054959 0 0 0 -0.964844,0.294922 1.7054959,1.7054959 0 0 0 -0.451172,2.369141 1.7054959,1.7054959 0 0 0 2.369141,0.451172 1.7054959,1.7054959 0 0 0 0.451172,-2.369141 1.7054959,1.7054959 0 0 0 -1.404297,-0.746094 z m 11.873047,1.859376 a 1.4209813,1.4209813 0 0 0 -0.925782,0.300781 1.4209813,1.4209813 0 0 0 -0.242187,1.996093 1.4209813,1.4209813 0 0 0 1.99414,0.242188 1.4209813,1.4209813 0 0 0 0.242188,-1.996094 1.4209813,1.4209813 0 0 0 -1.068359,-0.542968 z"
             transform="scale(0.5)"
             id="path4287"
             inkscape:connector-curvature="0"
             inkscape:label="#1" />
    </g>
</svg>
