<?xml version="1.0" encoding="UTF-8" standalone="no"?>
<!-- Created with Inkscape (http://www.inkscape.org/) -->

<svg
   xmlns:dc="http://purl.org/dc/elements/1.1/"
   xmlns:cc="http://creativecommons.org/ns#"
   xmlns:rdf="http://www.w3.org/1999/02/22-rdf-syntax-ns#"
   xmlns:svg="http://www.w3.org/2000/svg"
   xmlns="http://www.w3.org/2000/svg"
   xmlns:sodipodi="http://sodipodi.sourceforge.net/DTD/sodipodi-0.dtd"
   xmlns:inkscape="http://www.inkscape.org/namespaces/inkscape"
   width="64mm"
   height="64mm"
   viewBox="0 0 64 64"
   version="1.1"
   id="svg8"
   inkscape:version="0.92+devel (bc9c9b4297, 2017-07-16, custom)"
   sodipodi:docname="application-x-flash-video.svg">
  <defs
     id="defs2" />
  <sodipodi:namedview
     id="base"
     pagecolor="#002466"
     bordercolor="#ffffff"
     borderopacity="0.38039216"
     inkscape:pageopacity="1"
     inkscape:pageshadow="2"
     inkscape:zoom="1.7197917"
     inkscape:cx="120.94488"
     inkscape:cy="120.94488"
     inkscape:document-units="mm"
     inkscape:current-layer="g841"
     inkscape:document-rotation="0"
     showgrid="false"
     inkscape:showpageshadow="false"
     borderlayer="true"
     inkscape:window-width="1920"
     inkscape:window-height="1051"
     inkscape:window-x="0"
     inkscape:window-y="0"
     inkscape:window-maximized="1"
     inkscape:snap-page="true"
     inkscape:snap-grids="false"
     inkscape:snap-to-guides="true"
     showguides="true"
     inkscape:guide-bbox="true"
     inkscape:lockguides="true"
     inkscape:measure-start="1.71097,29.6548"
     inkscape:measure-end="1.71097,0">
    <sodipodi:guide
       position="12.153846,7.8461535"
       orientation="0,1"
       id="guide816"
       inkscape:locked="true" />
  </sodipodi:namedview>
  <metadata
     id="metadata5">
    <rdf:RDF>
      <cc:Work
         rdf:about="">
        <dc:format>image/svg+xml</dc:format>
        <dc:type
           rdf:resource="http://purl.org/dc/dcmitype/StillImage" />
        <dc:title></dc:title>
      </cc:Work>
    </rdf:RDF>
  </metadata>
  <g
     id="g841"
     inkscape:label="#application-x-flash-video"
     transform="scale(4)">
    <rect
       inkscape:label="#boundary"
       y="0"
       x="0"
       height="16"
       width="16"
       id="rect837"
       style="fill:none;stroke-width:0.66499996" />
    <path
       style="opacity:0.6;fill:#d0d0d0;stroke-width:6.15648985"
       d="M 30.236328,75.587891 V 211.6543 H 211.6543 V 107.12891 L 180.10742,75.587891 Z M 67.400391,108.26367 H 169.68945 v 76.71485 H 67.400391 Z m 8.166015,8.61524 v 13.39257 h 13.398438 v -13.39257 z m 72.041014,0 v 13.39257 h 13.39844 v -13.39257 z m -7.75976,0.89843 c -4.1147,0.0609 -20.99585,1.81266 -27.75391,25.93946 -6.17672,22.0437 -18.285156,19.84765 -18.285156,19.84765 v 11.54493 c 0,-10e-6 19.080916,2.22688 27.373046,-22.78516 H 134.9668 V 140.7793 h -8.89258 c 0,0 2.89814,-11.24031 14.68555,-11.44141 v -11.54297 c -0.001,-1.1e-4 -0.32556,-0.0263 -0.91211,-0.0176 z m -64.529301,22.14454 v 13.39648 h 13.392579 v -13.39648 z m 72.035161,0 v 13.39648 h 13.39257 v -13.39648 z m -72.136723,23.04296 v 13.39649 h 13.390625 v -13.39649 z m 72.035153,0 v 13.39649 h 13.39649 v -13.39649 z"
       transform="scale(0.06614583)"
       id="rect816"
       inkscape:connector-curvature="0"
       inkscape:label="#1" />
  </g>
</svg>
