<?xml version="1.0" encoding="UTF-8" standalone="no"?>
<!-- Created with Inkscape (http://www.inkscape.org/) -->

<svg
   xmlns:dc="http://purl.org/dc/elements/1.1/"
   xmlns:cc="http://creativecommons.org/ns#"
   xmlns:rdf="http://www.w3.org/1999/02/22-rdf-syntax-ns#"
   xmlns:svg="http://www.w3.org/2000/svg"
   xmlns="http://www.w3.org/2000/svg"
   xmlns:sodipodi="http://sodipodi.sourceforge.net/DTD/sodipodi-0.dtd"
   xmlns:inkscape="http://www.inkscape.org/namespaces/inkscape"
   width="64"
   height="64"
   viewBox="0 0 64 64"
   version="1.1"
   id="svg8"
   inkscape:version="0.92+devel (1871f5fd98, 2017-07-15, custom)"
   sodipodi:docname="libreoffice-oasis-web-template.svg">
  <defs
     id="ol-defs">
    <style
       id="current-color-scheme">      .ColorScheme-Text {
        color:#d0d0d0;
        stop-color:#d0d0d0;
      }
      .ColorScheme-Background {
        color:#212121;
        stop-color:#212121;
      }
      .ColorScheme-Highlight {
        color:#0039a9;
        stop-color:#0039a9;
      }
      .ColorScheme-ViewText {
        color:#d0d0d0;
        stop-color:#d0d0d0;
      }
      .ColorScheme-ViewBackground {
        color:#19191b;
        stop-color:#19191b;
      }
      .ColorScheme-ViewHover {
        color:#005cc7;
        stop-color:#005cc7;
      }
      .ColorScheme-ViewFocus{
        color:#002466;
        stop-color:#002466;
      }
      .ColorScheme-ButtonText {
        color:#d0d0d0;
        stop-color:#d0d0d0;
      }
      .ColorScheme-ButtonBackground {
        color:#232323;
        stop-color:#232323;                             
      }                                                 
      .ColorScheme-ButtonHover {                        
        color:#005cc7;                                  
        stop-color:#005cc7;                             
      }                                                 
      .ColorScheme-ButtonFocus{                         
        color:#0039a9;                                  
        stop-color:#0039a9;                             
      }</style>
    <style
       id="current-color-scheme-7">      .ColorScheme-Text {
        color:#d0d0d0;
        stop-color:#d0d0d0;
      }
      .ColorScheme-Background {
        color:#212121;
        stop-color:#212121;
      }
      .ColorScheme-Highlight {
        color:#0039a9;
        stop-color:#0039a9;
      }
      .ColorScheme-ViewText {
        color:#d0d0d0;
        stop-color:#d0d0d0;
      }
      .ColorScheme-ViewBackground {
        color:#19191b;
        stop-color:#19191b;
      }
      .ColorScheme-ViewHover {
        color:#005cc7;
        stop-color:#005cc7;
      }
      .ColorScheme-ViewFocus{
        color:#002466;
        stop-color:#002466;
      }
      .ColorScheme-ButtonText {
        color:#d0d0d0;
        stop-color:#d0d0d0;
      }
      .ColorScheme-ButtonBackground {
        color:#232323;
        stop-color:#232323;                             
      }                                                 
      .ColorScheme-ButtonHover {                        
        color:#005cc7;                                  
        stop-color:#005cc7;                             
      }                                                 
      .ColorScheme-ButtonFocus{                         
        color:#0039a9;                                  
        stop-color:#0039a9;                             
      }</style>
    <linearGradient
       gradientTransform="translate(471.31814,349.93102)"
       x2="0"
       gradientUnits="userSpaceOnUse"
       y2="365.35999"
       y1="392.35999"
       id="a">
      <stop
         id="stop2"
         stop-opacity="0"
         stop-color="#ffffff" />
      <stop
         id="stop4"
         stop-opacity=".2"
         stop-color="#ffffff"
         offset="1" />
    </linearGradient>
    <linearGradient
       gradientTransform="translate(309.57,152.44)"
       x2="0"
       gradientUnits="userSpaceOnUse"
       y2="365.35999"
       y1="392.35999"
       id="linearGradient4314">
      <stop
         id="stop4310"
         stop-opacity="0"
         stop-color="#ffffff" />
      <stop
         id="stop4312"
         stop-opacity=".2"
         stop-color="#ffffff"
         offset="1" />
    </linearGradient>
  </defs>
  <sodipodi:namedview
     id="base"
     pagecolor="#002266"
     bordercolor="#ffffff"
     borderopacity="0.46666667"
     inkscape:pageopacity="0"
     inkscape:pageshadow="2"
     inkscape:zoom="6.4296875"
     inkscape:cx="92.95449"
     inkscape:cy="19.003024"
     inkscape:document-units="px"
     inkscape:current-layer="g4338"
     inkscape:document-rotation="0"
     showgrid="false"
     inkscape:showpageshadow="false"
     borderlayer="true"
     units="px"
     fit-margin-top="0"
     fit-margin-left="0"
     fit-margin-right="0"
     fit-margin-bottom="0"
     inkscape:window-width="1920"
     inkscape:window-height="1051"
     inkscape:window-x="0"
     inkscape:window-y="0"
     inkscape:window-maximized="1"
     inkscape:snap-page="true" />
  <metadata
     id="metadata5">
    <rdf:RDF>
      <cc:Work
         rdf:about="">
        <dc:format>image/svg+xml</dc:format>
        <dc:type
           rdf:resource="http://purl.org/dc/dcmitype/StillImage" />
        <dc:title />
      </cc:Work>
    </rdf:RDF>
  </metadata>
  <g
     id="g4338"
     inkscape:label="#libreoffice-oasis-web-template"
     transform="scale(2)">
    <rect
       inkscape:label="#boundary"
       y="0"
       x="0"
       height="32"
       width="32"
       id="rect4264"
       style="fill:none;fill-opacity:0.74651441;stroke-width:23.61599922;stroke-opacity:0.3596773" />
    <path
       style="color:#000000;opacity:0.6;color-interpolation:sRGB;color-interpolation-filters:linearRGB;fill:#eeeeee;stroke-width:1.71428657;color-rendering:auto;image-rendering:auto;shape-rendering:auto;text-rendering:auto"
       d="M 13.142578,8 V 56 H 50.857422 V 20 l -12,-12 z m 18.648438,13.552734 a 10.846995,10.846995 0 0 1 5.261718,1.365235 c 0.0082,0.0132 0.01596,0.02651 0.03516,0.03711 0.0398,0.02298 0.07787,0.05637 0.115234,0.07617 0.06414,0.0368 0.126681,0.0903 0.113281,0.152344 -0.01766,0.09066 -0.166575,0.08556 -0.228515,0.152344 0.0085,0.128379 -0.04305,0.103393 -0.07617,0.189453 0.01996,0.05524 0.06737,0.04891 0.07617,0.115234 -0.01096,0.07088 -0.102832,0.0792 -0.07617,0.152344 0.11951,0.09294 0.228937,0.0136 0.341797,0 0.247814,-0.03226 0.456695,0.0034 0.609375,-0.115235 -0.01144,-0.06764 0.029,-0.102045 0.06836,-0.140625 a 10.846995,10.846995 0 0 1 0.216797,0.164063 c -0.04814,0.01714 -0.103293,0.03433 -0.132813,0.05273 -0.06196,0.04138 -0.0815,0.105824 -0.152343,0.152344 -0.05088,0.03682 -0.175416,0.152344 -0.228516,0.152344 -0.06414,0 -0.182056,-0.05371 -0.228516,-0.03711 -0.06646,0.0184 -0.0383,0.125584 -0.113281,0.152344 -0.146024,0.05294 -0.406151,-0.142738 -0.457031,0.07617 0.06195,0.12596 0.270239,0.08376 0.380859,0.152344 0.06864,0.04594 0.171853,0.266817 0.189453,0.341797 0.0176,0.06207 0.02654,0.275556 0,0.341797 -0.06864,0.177079 -0.25153,0.156343 -0.455078,0.152343 -0.05536,0 -0.101343,0.0046 -0.152343,0 -0.342949,-0.02296 -0.682991,-0.130449 -0.837891,0.115235 0.011,0.188134 0.0421,0.291338 0,0.455078 -0.03092,0.119582 -0.156991,0.200267 -0.150391,0.304687 0.0024,0.05294 0.100282,0.155396 0.113282,0.228516 0.0086,0.04136 -0.0178,0.116924 0,0.152344 0.05756,0.10862 0.202907,-0.0184 0.304687,0 0.09734,0.01369 0.189453,0.157065 0.189453,0.265625 0,0.07728 -0.02749,0.229707 -0.07617,0.304687 -0.09736,0.14574 -0.278568,0.109913 -0.417968,0.189453 -0.115007,0.06617 -0.159916,0.226797 -0.228516,0.341797 -0.07304,0.123678 -0.144115,0.16667 -0.115234,0.34375 -0.09955,0.196866 -0.212207,0.322749 -0.417969,0.417969 -0.05974,0.02754 -0.134133,0.07372 -0.189453,0.113281 -0.0443,0.03224 -0.09026,0.08344 -0.152344,0.154297 -0.0774,0.08642 -0.186496,0.123153 -0.228516,0.189453 -0.03114,0.05113 -0.004,0.159976 -0.03711,0.228516 -0.04868,0.09295 -0.129466,0.172705 -0.191406,0.265625 -0.0287,0.04596 -0.0825,0.09486 -0.113282,0.152344 -0.07084,0.128394 -0.165543,0.229096 -0.152343,0.341796 0.01094,0.108618 0.145743,0.133336 0.152343,0.228516 0.0061,0.05294 -0.03931,0.09486 -0.03711,0.152344 0.0024,0.08412 0.03071,0.123173 0.03711,0.189453 0.01544,0.163768 -0.0825,0.229117 -0.113281,0.341797 -0.0154,0.05294 0.0132,0.110063 0,0.152344 -0.02654,0.08184 -0.150144,0.131495 -0.152344,0.228515 -0.0024,0.0686 0.106882,0.131496 0.113282,0.228516 0.0049,0.06616 -0.05031,0.127873 -0.03711,0.189453 0.02433,0.119572 0.248877,0.287939 0.341797,0.380859 0.126134,0.126112 0.249388,0.209317 0.304688,0.341797 0.0465,0.112726 0.06606,0.296679 0.152343,0.38086 0.06414,0.06206 0.183765,0.088 0.265625,0.152343 0.0774,0.0598 0.183745,0.08788 0.265625,0.152344 0.134966,0.106342 0.31857,0.318334 0.533204,0.302734 0.112819,-0.0091 0.215676,-0.05262 0.341796,-0.07422 0.13054,-0.02296 0.285209,-0.08957 0.417969,-0.07617 0.101744,0.0091 0.198488,0.08297 0.304688,0.07617 0.110626,-0.0046 0.254739,-0.06001 0.380859,-0.115235 0.21905,-0.09524 0.556396,-0.274975 0.875,-0.228515 0.243382,0.03681 0.247589,0.309888 0.417969,0.417968 0.194702,0.0184 0.33926,-0.03682 0.49414,0 0.117322,0.02754 0.254425,0.248877 0.265625,0.341797 0.01096,0.09523 -0.06297,0.170669 -0.07617,0.230469 -0.03094,0.128394 -0.05415,0.297026 -0.07617,0.378906 -0.01768,0.06388 -0.03931,0.125433 -0.03711,0.189453 0,0.0575 0.09258,0.192138 0.152344,0.267578 0.07302,0.09294 0.177105,0.163506 0.265625,0.265626 0.161526,0.185822 0.228937,0.437863 0.341797,0.683593 0.0287,0.06206 -0.02654,0.07706 0,0.154297 -0.04868,0.37166 -0.174593,0.613949 -0.417969,1.025391 -0.115,0.132502 -0.230716,0.291431 -0.228516,0.457031 -0.0085,0.398342 0.209207,0.603417 0.191407,0.988281 -0.03992,0.517626 0.0033,0.59851 -0.03711,0.875 0.17478,0.08839 0.08795,0.349383 0.03711,0.533203 -0.0752,0.218964 -0.149386,0.271689 -0.191407,0.417969 0.01048,0.0046 0.02105,0.006 0.03125,0.0098 a 10.846995,10.846995 0 0 1 -7.685546,3.203125 10.846995,10.846995 0 0 1 -3.740235,-0.679688 c 0.02408,-0.01258 0.0465,-0.02989 0.0625,-0.06055 0.0421,-0.07728 -0.05538,-0.227407 0,-0.304687 0.03979,-0.05294 0.297047,-0.09988 0.378907,-0.113281 0.117315,-0.01834 0.238327,0.0027 0.304687,-0.03711 0.07302,-0.0464 0.165544,-0.167607 0.152344,-0.304687 -0.0061,-0.0639 -0.06461,-0.09486 -0.115235,-0.152344 -0.04194,-0.04868 -0.0089,-0.107664 -0.03711,-0.152344 -0.05308,-0.07728 -0.130224,-0.113862 -0.152344,-0.226562 0.15931,-0.03226 0.379273,0.177661 0.609375,0.113281 0.108436,-0.03225 0.290897,-0.240157 0.341797,-0.341797 0.0154,-0.03224 -0.0176,-0.154146 0,-0.191406 0.01998,-0.04138 0.06937,-0.05411 0.07617,-0.07617 0.0154,-0.05978 -0.0132,-0.07602 0,-0.113281 0.03978,-0.11272 0.162136,-0.183745 0.228516,-0.265625 0.05088,-0.06208 0.105843,-0.125593 0.152343,-0.189453 0.05306,-0.0686 0.07812,-0.09258 0.113282,-0.152344 0.0332,-0.20148 -0.124852,-0.356303 -0.07617,-0.533203 0.05306,-0.199164 0.340723,-0.327349 0.533203,-0.417969 0.06632,-0.03226 0.134133,-0.09348 0.189453,-0.113281 0.132754,-0.0464 0.294069,-0.03446 0.417969,-0.07813 0.20799,-0.075 0.279059,-0.303801 0.380859,-0.494141 0.04868,-0.0884 0.104481,-0.162622 0.113281,-0.226562 0.0086,-0.0575 -0.011,-0.124647 0,-0.191407 0.01096,-0.06616 0.02146,-0.116753 0.03906,-0.189453 0.02434,-0.09523 0.03906,-0.274599 0.03906,-0.380859 0,-0.08822 -0.03706,-0.109953 -0.03906,-0.189453 -0.01546,-0.287484 0.08327,-0.300171 0.189453,-0.457032 0.05306,-0.07727 0.07787,-0.210444 0.115234,-0.265624 0.179214,-0.2654 0.477199,-0.396211 0.455079,-0.798829 -0.0085,-0.132958 -0.05303,-0.415171 -0.150391,-0.457031 -0.05538,-0.02294 -0.185698,-0.0094 -0.267578,-0.03711 -0.26109,-0.09751 -0.450518,-0.395889 -0.722657,-0.417969 -0.05756,-0.003 -0.0882,0.003 -0.152343,0 -0.106246,-0.003 -0.222317,-0.09988 -0.341797,-0.113281 -0.07522,-0.0092 -0.221365,0.02298 -0.265625,0 -0.06864,-0.03224 -0.06009,-0.153667 -0.115235,-0.191407 -0.0443,-0.03226 -0.120873,-0.04988 -0.189453,-0.07422 -0.108432,-0.04138 -0.178567,-0.06737 -0.304687,-0.07617 -0.03978,-0.003 -0.145253,0.0046 -0.189453,0 -0.06862,-0.0091 -0.127226,-0.07567 -0.191407,-0.115234 -0.0796,-0.04868 -0.11717,-0.0833 -0.15039,-0.152344 0.07302,-0.238724 -0.179836,-0.279049 -0.228516,-0.417969 -0.02216,-0.06436 0.02216,-0.171036 0,-0.228516 -0.0287,-0.08184 -0.09873,-0.120873 -0.189453,-0.189453 -0.159308,-0.123674 -0.305303,-0.236645 -0.533203,-0.265625 -0.101742,-0.0092 -0.220117,0.0092 -0.341797,0 -0.128326,-0.0091 -0.283519,-0.07903 -0.380859,-0.189453 -0.09298,-0.10846 -0.109567,-0.216518 -0.191406,-0.267578 -0.07739,-0.04882 -0.212525,-0.06262 -0.265626,-0.113281 -0.02432,-0.02296 -0.01507,-0.06457 -0.03711,-0.115235 -0.03978,-0.07956 -0.124852,-0.09243 -0.07617,-0.189453 -0.08846,-0.04594 -0.05718,0.05591 -0.152343,0.03711 -0.08629,-0.12186 -0.147097,-0.189604 -0.341797,-0.152344 -0.08848,0.01842 -0.163579,0.150144 -0.267579,0.152344 -0.08628,0.0031 -0.152785,-0.136744 -0.265624,-0.152344 -0.08629,-0.0091 -0.205885,0.08957 -0.265626,0.07617 -0.09516,-0.0184 -0.105186,-0.131973 -0.191406,-0.189453 -0.06414,-0.04138 -0.191162,-0.154544 -0.226562,-0.152344 -0.11063,0.0031 -0.19109,0.234224 -0.34375,0.152344 -0.0752,-0.09524 0.127642,-0.101114 0.03906,-0.189454 -0.06632,-0.06616 -0.09916,0.0014 -0.152344,0.03516 -0.06194,0.04138 -0.120873,0.09089 -0.189453,0.115234 -0.152676,0.05752 -0.261379,0.05166 -0.380859,0.113281 -0.11062,0.0575 -0.127226,0.154879 -0.191406,0.267578 -0.05088,0.09296 -0.149123,0.221963 -0.226563,0.226563 -0.09298,0.0046 -0.183498,-0.116924 -0.267578,-0.152344 -0.25444,-0.11044 -0.397232,0.07434 -0.607422,0.07617 -0.194714,0.0031 -0.465831,-0.31066 -0.457031,-0.494141 0.0061,-0.112725 0.06297,-0.278608 0.07617,-0.417968 0.01094,-0.110448 0.113234,-0.203048 0.115234,-0.304688 0.0024,-0.1348 -0.216187,-0.250025 -0.304687,-0.265625 -0.20799,-0.03682 -0.487862,0.09294 -0.72461,0 -0.0443,-0.075 0.08883,-0.118726 0.115235,-0.191406 0.0154,-0.04138 -0.0154,-0.06672 0,-0.113281 0.02652,-0.07088 0.119123,-0.114493 0.152344,-0.189453 0.02432,-0.0575 0.01289,-0.157676 0.03711,-0.228516 0.02872,-0.07956 0.108634,-0.133486 0.115234,-0.191406 0.0085,-0.075 -0.05571,-0.177803 -0.115234,-0.226563 -0.183648,0.0091 -0.311769,0.02584 -0.417969,0.07422 -0.238944,0.108468 -0.176791,0.420694 -0.417969,0.496094 -0.06243,0.021 -0.151982,0.03944 -0.232421,0.05664 a 10.846995,10.846995 0 0 1 0.701171,-2.246093 c 0.06206,0.02178 0.120455,0.05359 0.177735,0.05859 0.20355,0.01369 0.212699,-0.140175 0.380859,-0.228515 0.172586,0.02298 0.260869,-0.0184 0.417969,0 0.106244,0.0091 0.257737,0.145544 0.341797,0.152344 0.07086,0.0031 0.0859,-0.08717 0.152343,-0.07617 0.06632,0.0091 0.178254,0.148975 0.189454,0.228515 0.01094,0.0998 -0.06607,0.193828 -0.03711,0.304688 0.104056,0.106178 0.306838,0.166415 0.455078,0.228515 0.09736,-0.07956 0.0154,-0.265859 0,-0.380859 -0.0024,-0.0511 0.0062,-0.105824 0,-0.152344 -0.01096,-0.07956 -0.03711,-0.159975 -0.03711,-0.228515 0,-0.316454 0.244621,-0.446433 0.457031,-0.570313 0.09067,-0.05294 0.185965,-0.149933 0.265625,-0.189453 0.11282,-0.05522 0.172685,-0.06034 0.265625,-0.113281 0.168146,-0.09523 0.326472,-0.196588 0.457032,-0.304688 0.05976,-0.143454 -0.0062,-0.315351 0,-0.457031 0.05976,-0.03682 0.0882,0.0046 0.152343,0 0.10174,-0.02297 0.131913,-0.169062 0.189453,-0.226562 0.0332,-0.03226 0.151527,-0.04163 0.191407,-0.07617 0.10174,-0.07956 0.100913,-0.193096 0.189453,-0.228516 0.03106,-0.0091 0.103544,-0.02331 0.152344,-0.03711 0.06645,-0.01842 0.159424,-0.07602 0.265624,-0.113282 0.06864,-0.02294 0.241019,-0.0094 0.267579,-0.03711 0.0332,-0.03226 -0.0086,-0.177916 0,-0.228516 0.05306,-0.249754 0.423012,-0.25957 0.646484,-0.34375 0.154878,-0.05978 0.321561,-0.18351 0.494141,-0.15039 -0.0332,0.11958 -0.181104,0.08254 -0.152344,0.226562 0.03763,0.201472 0.270997,-0.04757 0.341797,-0.07617 0.134966,-0.0575 0.393292,-0.08591 0.570312,-0.15039 0.15488,-0.05522 0.413598,-0.16481 0.267578,-0.34375 -0.1217,-0.0091 -0.161378,0.107644 -0.267578,0.152344 -0.07302,0.0091 -0.0904,-0.03251 -0.152343,-0.03711 -0.05974,-0.0031 -0.09258,0.04951 -0.152344,0.03711 -0.05976,-0.0091 -0.141591,-0.119054 -0.150391,-0.189454 -0.02433,-0.185822 0.190425,-0.241846 0.265625,-0.378906 -0.05087,-0.1679 -0.276369,-0.01134 -0.417969,-0.07813 0.01546,-0.09934 0.07219,-0.206762 0.189453,-0.226562 0.09517,-0.01368 0.32332,0.03056 0.38086,0.07422 0.03314,0.02754 -0.01363,0.105364 0.03711,0.152344 0.05757,0.05112 0.153296,0.0092 0.228516,0 0.02654,-0.12612 -0.174464,-0.07054 -0.152344,-0.152344 0.15045,-0.09752 0.425735,-0.05034 0.609375,-0.07422 0.106234,-0.01368 0.207594,-0.101264 0.302734,-0.152344 0.08848,-0.05114 0.174639,-0.122609 0.267579,-0.03711 0.02656,0.09066 -0.06266,0.142933 -0.113282,0.189453 -0.17037,0.150454 -0.324271,0.3194 -0.457031,0.49414 0.08191,0.07958 0.204617,0.02331 0.341797,0.03711 0.05304,0.0046 0.136066,0.02791 0.191406,0.03711 0.06646,0.0092 0.136333,-0.0092 0.189453,0 0.09296,0.02296 0.09653,0.152344 0.189454,0.152344 0.15046,0 0.162511,-0.126796 0.07617,-0.228516 0.02652,-0.1039 0.07495,-0.192485 0.03711,-0.265625 -0.06864,-0.13712 -0.328597,0.02288 -0.341797,-0.152344 -0.0085,-0.110444 0.112544,-0.144275 0.152344,-0.228515 -0.01768,-0.212506 0.174463,-0.225249 0.152343,-0.417969 -0.01094,-0.07956 -0.09696,-0.07692 -0.152343,-0.152344 -0.02872,-0.04138 -0.04307,-0.123324 -0.07617,-0.152343 -0.115008,-0.09752 -0.328597,-0.07976 -0.341797,-0.265626 -0.0062,-0.110454 0.0154,-0.185547 0,-0.304687 -0.01546,-0.112726 -0.131196,-0.434951 -0.228516,-0.457031 -0.123904,-0.02753 -0.193557,0.197085 -0.341797,0.265625 -0.07959,0.03681 -0.222827,0.05371 -0.304687,0.03711 -0.05308,-0.0091 -0.145544,-0.04833 -0.152344,-0.15039 -0.0044,-0.0424 0.0071,-0.06547 0.02148,-0.08789 a 10.846995,10.846995 0 0 1 3.048828,-0.445313 z m -4.542969,1.011719 c -0.125644,0.304232 -0.420104,0.476797 -0.808594,0.466797 -0.10178,0.09751 -0.05814,0.284702 -0.113281,0.419922 -0.04649,0.11272 -0.191848,0.198653 -0.304688,0.189453 -0.0819,-0.0046 -0.228515,-0.112213 -0.228515,-0.189453 0,-0.03432 0.0154,-0.07075 0.0332,-0.105469 a 10.846995,10.846995 0 0 1 1.421875,-0.78125 z m 9.345703,0.316406 c -0.04078,0.0091 -0.07752,0.01676 -0.113281,0.03516 -0.0841,0.05112 -0.0882,0.128043 -0.152344,0.152343 -0.09068,0.03226 -0.215316,0.03144 -0.228516,0.113282 -0.01094,0.0686 0.07837,0.09226 0.07617,0.154297 -0.03322,0.08184 -0.09763,0.09015 -0.115234,0.189453 0.112818,0.183534 0.393803,0.0028 0.533203,-0.03711 0.06194,-0.01834 0.119124,0.0088 0.152344,-0.03711 0.0378,-0.05979 0.01078,-0.181445 0.03906,-0.265625 0.03106,-0.09294 0.124482,-0.07052 0.113282,-0.152344 -0.0085,-0.08184 -0.167508,-0.165144 -0.304688,-0.152344 z m -12.029297,1.447266 c 0.06542,0.09366 0.103076,0.207732 -0.02734,0.263672 -0.02022,0.0083 -0.230967,0.0368 -0.310547,0.0332 a 10.846995,10.846995 0 0 1 0.337891,-0.296875 z m 0.277344,0.339844 c 0.05308,0.003 0.0904,0.108681 0.152344,0.113281 0.05974,0.0046 0.153993,-0.04951 0.189453,-0.03711 0.093,0.02297 0.127682,0.199038 0.03906,0.267578 -0.07302,0.0091 -0.09928,-0.08717 -0.152344,-0.07617 -0.150453,0.02753 -0.191847,0.311934 -0.304687,0.302734 -0.10624,-0.0091 -0.184632,-0.225454 -0.07617,-0.302734 0.0024,-0.06618 -0.04171,-0.08558 -0.03711,-0.152344 0.0332,-0.04138 0.100913,-0.121634 0.189453,-0.115234 z m -0.46875,0.07031 c 0.0042,-0.0016 0.0063,-0.0029 0.01172,0.0039 -0.01546,0.11728 -0.05973,0.136206 -0.150391,0.191406 -0.157102,0.09523 -0.255741,0.214196 -0.306641,0.417968 -0.01546,0.05979 -0.190405,0.244116 -0.265625,0.228516 -0.174812,-0.03682 0.07555,-0.367369 0.115235,-0.417969 0.04428,-0.05522 0.09953,-0.09028 0.15039,-0.152343 0.02642,-0.03224 0.04375,-0.08267 0.06055,-0.128907 a 10.846995,10.846995 0 0 1 0.105469,-0.111328 c 0.07042,-0.02098 0.178226,-0.02899 0.253906,-0.02539 v -0.002 c 0.01554,0 0.02119,-0.0023 0.02539,-0.0039 z m 14.958984,0.306641 v 0.002 c 0.174788,-0.0091 0.262137,0.198908 0.341797,0.304687 0.06633,0.0864 0.272439,0.205826 0.38086,0.265626 0.06194,0.03226 0.120873,0.08435 0.189453,0.115234 0.04084,0.01832 0.09468,0.04105 0.148437,0.07031 a 10.846995,10.846995 0 0 1 0.265625,0.373047 c -0.0083,0.05802 -0.0428,0.105983 -0.0332,0.164063 0.04656,0.0083 0.07734,-0.02447 0.103516,-0.06641 a 10.846995,10.846995 0 0 1 0.753906,1.263671 c -0.0096,0.01638 -0.01749,0.03391 -0.02148,0.05859 -0.02218,0.123688 0.07244,0.280655 -0.113282,0.302735 -0.117198,0.0137 -0.256448,-0.114971 -0.417968,-0.150391 -0.06632,-0.0136 -0.175416,0.0184 -0.228516,0 -0.1217,-0.04138 -0.08545,-0.194438 -0.189453,-0.267578 -0.05976,-0.04138 -0.209548,-0.102082 -0.304688,-0.113281 -0.05974,-0.0046 -0.09038,0.0092 -0.152343,0 -0.07522,-0.0091 -0.203666,-7.7e-4 -0.265626,-0.03711 -0.05976,-0.0368 -0.213115,-0.101244 -0.228515,-0.152344 -0.02434,-0.08185 0.185053,-0.197085 0.189453,-0.265625 0.0049,-0.05294 -0.06497,-0.0728 -0.07617,-0.152343 -0.0086,-0.04882 0.011,-0.121044 0,-0.152344 -0.01546,-0.05752 -0.09873,-0.113035 -0.189453,-0.115234 -0.07972,0 -0.159936,0.03711 -0.228516,0.03711 -0.09736,0.0031 -0.296268,-0.04951 -0.417968,-0.03711 -0.073,0.0046 -0.122827,0.03251 -0.191407,0.03711 -0.192496,0.0136 -0.304618,-0.0092 -0.455078,0 -0.10844,0.0046 -0.316189,0.06867 -0.417968,0.115234 -0.05086,0.02296 -0.0859,0.08012 -0.152344,0.113281 -0.03092,0.01368 -0.07531,0.01871 -0.115235,0.03711 -0.06195,0.02754 -0.166822,0.09808 -0.226562,0.113281 -0.08629,0.02298 -0.18667,-0.0046 -0.34375,0 -0.112814,0.0046 -0.302488,-0.01655 -0.304688,-0.150391 -0.0024,-0.2056 0.377566,-0.116903 0.572266,-0.152343 0.07302,-0.01368 0.100913,-0.103217 0.189453,-0.154297 0.0421,-0.02296 0.0736,-0.0479 0.113281,-0.07422 0.0663,-0.0464 0.180207,-0.138506 0.191407,-0.191406 0.0085,-0.04882 -0.04566,-0.116924 -0.03906,-0.152344 0.0085,-0.0464 0.09258,-0.09063 0.152344,-0.150391 0.09298,-0.09296 0.152538,-0.207778 0.267578,-0.267578 0.07739,-0.04138 0.230205,-0.05168 0.265625,-0.113281 0.0086,-0.07088 -0.0026,-0.08786 0,-0.152344 0.04868,-0.04594 0.03637,-0.06737 0.07617,-0.07617 0.119512,-0.02754 0.241479,0.04631 0.380859,0.03711 0.05976,-0.003 0.125273,0.0043 0.189453,-0.03711 0.05308,-0.0368 0.09928,-0.08861 0.152344,-0.115235 0.05756,-0.03226 0.118573,-0.109281 0.189453,-0.113281 z m -13.603515,0.107422 c 0.02834,-0.0028 0.05325,-0.0016 0.06445,0.0098 -0.03542,0.14588 -0.379081,0.08946 -0.494141,0.03516 0.0024,-0.02754 0.04697,-0.03056 0.07617,-0.03516 0.02934,-0.0046 0.07786,0.003 0.113281,0 0.05086,-0.003 0.09696,0 0.152344,0 0.0277,0 0.05955,-0.007 0.08789,-0.0098 z m 13.658203,0.259765 c -0.0032,0.003 -0.0066,0.01103 -0.01758,0.01563 -0.07302,0.02296 -0.10844,0.169653 0,0.189454 0.05092,-0.03224 0.05246,-0.09653 0.03906,-0.189454 -0.01444,-0.01619 -0.01828,-0.01843 -0.02148,-0.01563 z m -14.375,0.0098 c 0.01886,-0.0018 0.03879,-9.41e-4 0.05859,0.0059 -0.101742,0.0864 -0.240948,0.134254 -0.417968,0.189454 -0.08409,0.02754 -0.213116,0.05447 -0.228516,-0.03711 -0.01776,-0.115028 0.07714,-0.102081 0.152344,-0.113281 0.09736,-0.0091 0.268019,-0.03711 0.380859,-0.03711 v -0.002 c 0.01882,0 0.03589,-0.0041 0.05469,-0.0059 z m 14.320312,0.310547 c -0.03542,0.0091 -0.07592,-0.0028 -0.113281,0.03711 0.0026,0.123668 0.02432,0.194635 0,0.302735 0.07084,0.13708 0.230205,0.05447 0.265625,-0.03711 0.04208,-0.229988 -0.04608,-0.331714 -0.152344,-0.302735 z m 0.951172,0.607422 c -0.09736,-0.0046 -0.170996,0.03251 -0.228515,0.07617 0.0819,0.13296 0.234308,0.156333 0.417968,0.189453 0.06626,-0.04883 0.04529,-0.181445 0.07617,-0.265625 -0.07972,0 -0.131175,0.0046 -0.228516,0 z M 21.03125,31.099609 c 0.05954,0.07398 0.121526,0.147867 0.197266,0.185547 0.05538,0.02756 0.120646,0.02331 0.191406,0.03711 0.05756,0.0091 0.09513,0.05877 0.15039,0.07617 0.117321,0.04138 0.28794,0.03056 0.38086,0.07422 0.141612,0.06207 0.220097,0.31002 0.341797,0.38086 0.0062,0.07088 -0.02216,0.136553 0,0.189453 0.05756,0.0773 0.174638,0.101244 0.267578,0.152343 0.112818,0.06207 0.159425,0.218819 0.265625,0.267579 0.03762,0.0136 0.09478,-0.0184 0.152344,0 0.146034,0.04594 0.178567,0.264282 0.304687,0.226562 0.0819,-0.02297 0.100281,-0.147042 0.113281,-0.226562 0.05538,-0.05978 0.103094,-0.152344 0.189454,-0.152344 0.137177,-0.0031 0.177615,0.167954 0.228515,0.302734 0.0287,0.075 0.09543,0.148996 0.115235,0.228516 0.0332,0.137066 0.0287,0.527555 0,0.609375 -0.03542,0.10162 -0.183499,0.154765 -0.267579,0.265625 -0.03978,0.05296 -0.08248,0.116924 -0.113281,0.152344 -0.05306,0.06618 -0.112424,0.09256 -0.152344,0.152343 -0.02214,0.03228 -0.01731,0.105824 -0.03711,0.152344 -0.06644,0.141628 -0.170634,0.247309 -0.115234,0.417969 0.02216,0.0686 0.115234,0.146715 0.115234,0.228515 0,0.09752 -0.213116,0.122216 -0.228516,0.228516 -0.01096,0.07728 0.08906,0.237837 0.113282,0.341797 0.01766,0.07726 0.144926,0.138833 0.191406,0.189453 0.0774,0.08641 0.155762,0.194288 0.226562,0.304688 0.139388,0.214346 0.20659,0.475385 0.34375,0.685546 0.07302,0.108624 0.216945,0.187735 0.265625,0.302735 0.02432,0.05751 -0.02216,0.175615 0,0.228515 0.07959,0.179389 0.467265,0.368732 0.646485,0.457032 0.08409,0.04138 0.151075,0.06916 0.228515,0.113281 0.11732,0.06618 0.358249,0.200747 0.417969,0.304687 0.05306,0.09295 0.08688,0.306959 0.113281,0.455079 0.0332,0.19457 -0.0086,0.360012 0,0.570312 0.0061,0.115014 0.03906,0.189688 0.03906,0.304688 0,0.04138 0.0024,0.112363 0,0.152343 -0.0024,0.137066 0.011,0.278589 0,0.417969 -0.0062,0.075 -0.0048,0.164596 0,0.228516 0.0061,0.0686 0.07177,0.09256 0.07617,0.152343 0.0049,0.0639 -0.08297,0.138834 -0.07617,0.189454 0.01544,0.139346 0.162913,0.252519 0.189453,0.380859 0.02212,0.101622 0.05031,0.335591 0.03711,0.457031 -0.008,0.06057 -0.02576,0.147577 -0.03516,0.216797 a 10.846995,10.846995 0 0 1 -4.964844,-9.101562 10.846995,10.846995 0 0 1 0.08789,-1.300782 z m 4.115234,1.021485 c 0.10624,-0.04884 0.08628,0.138944 0,0.152344 -0.0819,0.0091 -0.0796,-0.114624 0,-0.152344 z"
       transform="scale(0.5)"
       id="path4287"
       inkscape:connector-curvature="0"
       inkscape:label="#2" />
    <rect
       style="opacity:0.64099995;fill:#ffb900;stroke-width:0.52223253"
       id="rect825"
       width="18.857422"
       height="2.25"
       x="6.5712891"
       y="25.750002"
       inkscape:label="#1" />
  </g>
</svg>
