<?xml version="1.0" encoding="UTF-8" standalone="no"?>
<!-- Created with Inkscape (http://www.inkscape.org/) -->

<svg
   xmlns:dc="http://purl.org/dc/elements/1.1/"
   xmlns:cc="http://creativecommons.org/ns#"
   xmlns:rdf="http://www.w3.org/1999/02/22-rdf-syntax-ns#"
   xmlns:svg="http://www.w3.org/2000/svg"
   xmlns="http://www.w3.org/2000/svg"
   xmlns:sodipodi="http://sodipodi.sourceforge.net/DTD/sodipodi-0.dtd"
   xmlns:inkscape="http://www.inkscape.org/namespaces/inkscape"
   width="16"
   height="16"
   viewBox="0 0 16 16"
   version="1.1"
   id="svg8"
   inkscape:version="0.92+devel (1871f5fd98, 2017-07-15, custom)"
   sodipodi:docname="application-pgp-keys.svg">
  <defs
     id="ol-defs">
    <style
       id="current-color-scheme">      .ColorScheme-Text {
        color:#d0d0d0;
        stop-color:#d0d0d0;
      }
      .ColorScheme-Background {
        color:#212121;
        stop-color:#212121;
      }
      .ColorScheme-Highlight {
        color:#0039a9;
        stop-color:#0039a9;
      }
      .ColorScheme-ViewText {
        color:#d0d0d0;
        stop-color:#d0d0d0;
      }
      .ColorScheme-ViewBackground {
        color:#19191b;
        stop-color:#19191b;
      }
      .ColorScheme-ViewHover {
        color:#005cc7;
        stop-color:#005cc7;
      }
      .ColorScheme-ViewFocus{
        color:#002466;
        stop-color:#002466;
      }
      .ColorScheme-ButtonText {
        color:#d0d0d0;
        stop-color:#d0d0d0;
      }
      .ColorScheme-ButtonBackground {
        color:#232323;
        stop-color:#232323;                             
      }                                                 
      .ColorScheme-ButtonHover {                        
        color:#005cc7;                                  
        stop-color:#005cc7;                             
      }                                                 
      .ColorScheme-ButtonFocus{                         
        color:#0039a9;                                  
        stop-color:#0039a9;                             
      }</style>
    <style
       id="current-color-scheme-7">      .ColorScheme-Text {
        color:#d0d0d0;
        stop-color:#d0d0d0;
      }
      .ColorScheme-Background {
        color:#212121;
        stop-color:#212121;
      }
      .ColorScheme-Highlight {
        color:#0039a9;
        stop-color:#0039a9;
      }
      .ColorScheme-ViewText {
        color:#d0d0d0;
        stop-color:#d0d0d0;
      }
      .ColorScheme-ViewBackground {
        color:#19191b;
        stop-color:#19191b;
      }
      .ColorScheme-ViewHover {
        color:#005cc7;
        stop-color:#005cc7;
      }
      .ColorScheme-ViewFocus{
        color:#002466;
        stop-color:#002466;
      }
      .ColorScheme-ButtonText {
        color:#d0d0d0;
        stop-color:#d0d0d0;
      }
      .ColorScheme-ButtonBackground {
        color:#232323;
        stop-color:#232323;                             
      }                                                 
      .ColorScheme-ButtonHover {                        
        color:#005cc7;                                  
        stop-color:#005cc7;                             
      }                                                 
      .ColorScheme-ButtonFocus{                         
        color:#0039a9;                                  
        stop-color:#0039a9;                             
      }</style>
    <linearGradient
       gradientTransform="translate(471.31814,349.93102)"
       x2="0"
       gradientUnits="userSpaceOnUse"
       y2="365.35999"
       y1="392.35999"
       id="a">
      <stop
         id="stop2"
         stop-opacity="0"
         stop-color="#ffffff" />
      <stop
         id="stop4"
         stop-opacity=".2"
         stop-color="#ffffff"
         offset="1" />
    </linearGradient>
    <linearGradient
       gradientTransform="translate(309.57,152.44)"
       x2="0"
       gradientUnits="userSpaceOnUse"
       y2="365.35999"
       y1="392.35999"
       id="linearGradient4314">
      <stop
         id="stop4310"
         stop-opacity="0"
         stop-color="#ffffff" />
      <stop
         id="stop4312"
         stop-opacity=".2"
         stop-color="#ffffff"
         offset="1" />
    </linearGradient>
  </defs>
  <sodipodi:namedview
     id="base"
     pagecolor="#002266"
     bordercolor="#ffffff"
     borderopacity="0.46666667"
     inkscape:pageopacity="0"
     inkscape:pageshadow="2"
     inkscape:zoom="4.5464756"
     inkscape:cx="50.061909"
     inkscape:cy="38.894172"
     inkscape:document-units="px"
     inkscape:current-layer="svg8"
     inkscape:document-rotation="0"
     showgrid="false"
     inkscape:showpageshadow="false"
     borderlayer="true"
     units="px"
     fit-margin-top="0"
     fit-margin-left="0"
     fit-margin-right="0"
     fit-margin-bottom="0"
     inkscape:window-width="1920"
     inkscape:window-height="1051"
     inkscape:window-x="0"
     inkscape:window-y="0"
     inkscape:window-maximized="1"
     inkscape:snap-page="true" />
  <metadata
     id="metadata5">
    <rdf:RDF>
      <cc:Work
         rdf:about="">
        <dc:format>image/svg+xml</dc:format>
        <dc:type
           rdf:resource="http://purl.org/dc/dcmitype/StillImage" />
        <dc:title></dc:title>
      </cc:Work>
    </rdf:RDF>
  </metadata>
  <g
     id="g4338"
     inkscape:label="#application-pgp-keys"
     transform="scale(0.5)">
    <rect
       inkscape:label="#boundary"
       y="0"
       x="0"
       height="32"
       width="32"
       id="rect4264"
       style="fill:none;fill-opacity:0.74651441;stroke-width:23.61599922;stroke-opacity:0.3596773" />
    <path
       sodipodi:nodetypes="cccccccscccccccsscccccccccccccccccsscccccccsccccccccccccccccccccccc"
       inkscape:connector-curvature="0"
       style="opacity:0.6;fill:#d0d0d0;fill-opacity:1;stroke:none;stroke-width:0.54201037;stroke-linecap:square;stroke-linejoin:round;stroke-miterlimit:4;stroke-dasharray:none;stroke-opacity:1;shape-rendering:crispEdges"
       d="m 5.2856882,5.5402322 c -0.92786,0.92786 -0.92786,2.43222 0,3.36008 0.10812,0.106709 0.22622,0.202803 0.35269,0.286963 l -0.003,0.0025 c 0.004,0.0036 0.009,0.0076 0.0135,0.01174 0.058,0.05799 0.058,0.152013 0,0.210005 l 0.007,-0.0075 c -1.74798,1.8810158 -1.72958,4.7892998 0.0982,6.6171068 1.58699,1.586993 3.99931,1.820704 5.8297398,0.701743 l -0.0439,0.04393 c 0.0182,-0.01821 0.0371,-0.03522 0.0564,-0.05153 0.0628,-0.03863 0.12475,-0.07893 0.18606,-0.120742 0.33179,-0.160254 0.74226,-0.102988 1.01752,0.172269 0.28685,0.286859 0.33722,0.720646 0.15109,1.059101 -0.005,0.0091 -0.007,0.01532 -0.008,0.01938 -0.0971,0.195412 -0.0747,0.425456 0.0744,0.574591 0.19211,0.192103 0.51867,0.174824 0.7322,-0.03871 l 0.60136,-0.601355 0.34469,0.344693 0.89252,0.367509 0.36136,0.742811 0.55758,0.04953 2.67878,2.678781 0.68331,0.02254 0.84742,1.50818 -0.005,-0.01125 1.85292,0.703539 0.18607,1.20604 1.08745,0.667444 0.48241,1.269927 2.41811,0.125638 0.78598,-0.791221 0.11174,-2.210561 -9.97961,-9.979597 0.53717,-0.537164 c 0.21353,-0.213532 0.23081,-0.540095 0.0387,-0.732198 -0.15624,-0.156232 -0.40136,-0.173971 -0.60233,-0.06029 -0.003,6.58e-4 -0.005,9.45e-4 -0.008,0.0025 -0.33593,0.175508 -0.76031,0.122162 -1.04249,-0.160015 -0.27526,-0.275263 -0.33252,-0.685731 -0.17227,-1.01752 0.0418,-0.0613 0.0821,-0.123277 0.1207,-0.186011 0.0163,-0.01935 0.0334,-0.03827 0.0516,-0.0565 l -0.0439,0.04394 c 1.11894,-1.8304308 0.88524,-4.2427588 -0.70174,-5.8297408 -1.85456,-1.854561 -4.83624,-1.861221 -6.6991898,-0.02046 l 0.0186,-0.01856 c -0.058,0.05799 -0.15202,0.05799 -0.21001,0 -0.004,-0.0042 -0.008,-0.0088 -0.0118,-0.01348 l -0.002,0.002 c -0.0837,-0.125532 -0.17917,-0.242804 -0.28512,-0.350231 -0.92786,-0.92786 -2.43221,-0.92786 -3.36007,0 z m 3.86894,0.361715 0.004,-0.0041 -2.2e-4,-2.09e-4 c -10e-4,0.0015 -0.003,0.0029 -0.004,0.0044 z m -3.50533,3.509636 c -10e-4,0.0013 -0.003,0.0027 -0.004,0.0039 l 2.1e-4,2.09e-4 z m 0.22441,-3.283328 c 0.60311,-0.603095 1.58093,-0.603095 2.18403,0 0.6031,0.603107 0.6031,1.580925 0,2.184032 -0.0592,0.05832 -0.12305,0.111764 -0.19088,0.159811 -0.15319,0.104896 -0.32556,0.186257 -0.50563,0.239434 -0.53155,0.141301 -1.09815,-0.01077 -1.48752,-0.399245 -0.6031,-0.603107 -0.6031,-1.580924 0,-2.184032 z"
       id="rect7824"
       inkscape:label="#1" />
  </g>
</svg>
