<?xml version="1.0" encoding="UTF-8" standalone="no"?>
<!-- Created with Inkscape (http://www.inkscape.org/) -->

<svg
     xmlns:dc="http://purl.org/dc/elements/1.1/"
     xmlns:cc="http://creativecommons.org/ns#"
     xmlns:rdf="http://www.w3.org/1999/02/22-rdf-syntax-ns#"
     xmlns:svg="http://www.w3.org/2000/svg"
     xmlns="http://www.w3.org/2000/svg"
     xmlns:sodipodi="http://sodipodi.sourceforge.net/DTD/sodipodi-0.dtd"
     xmlns:inkscape="http://www.inkscape.org/namespaces/inkscape"
     width="22"
     height="22"
     viewBox="0 0 5.8208332 5.8208332"
     version="1.1"
     id="svg8"
     inkscape:version="0.92+devel (fa9b7f7a5b, 2017-07-19, custom)"
     sodipodi:docname="application-x-rpm.svg">
    <defs
         id="defs2" />
    <sodipodi:namedview
         id="base"
         pagecolor="#002466"
         bordercolor="#ffffff"
         borderopacity="0.38039216"
         inkscape:pageopacity="1"
         inkscape:pageshadow="2"
         inkscape:zoom="18.909091"
         inkscape:cx="11"
         inkscape:cy="11"
         inkscape:document-units="px"
         inkscape:current-layer="svg8"
         inkscape:document-rotation="0"
         showgrid="false"
         inkscape:showpageshadow="false"
         borderlayer="true"
         inkscape:window-width="1920"
         inkscape:window-height="1051"
         inkscape:window-x="0"
         inkscape:window-y="0"
         inkscape:window-maximized="1"
         inkscape:snap-page="true"
         inkscape:snap-grids="false"
         inkscape:snap-to-guides="false"
         units="px" />
    <metadata
         id="metadata5">
        <rdf:RDF>
            <cc:Work
                 rdf:about="">
                <dc:format>image/svg+xml</dc:format>
                <dc:type
                     rdf:resource="http://purl.org/dc/dcmitype/StillImage" />
                <dc:title></dc:title>
            </cc:Work>
        </rdf:RDF>
    </metadata>
    <g
         id="g840"
         inkscape:label="#application-x-rpm"
         transform="scale(0.36380208)">
        <rect
             y="0"
             x="0"
             height="16"
             width="16"
             id="rect836"
             style="opacity:0.93199978;fill:none;stroke-width:0.30000001"
             inkscape:label="#boundary" />
        <path
             inkscape:connector-curvature="0"
             id="path6"
             d="m 7.9801133,4.4744735 a 6.3698126,6.3698126 0 0 0 -5.798295,3.809659 l 4.441761,1.9517045 a 1.5190892,1.5190892 0 0 1 1.389205,-0.9105114 1.5190892,1.5190892 0 0 1 0.288352,0.02983 L 10.252841,5.7159507 8.9076703,9.6193599 a 1.5190892,1.5190892 0 0 1 0.488637,0.6008521 L 13.818181,8.2230529 A 6.3698126,6.3698126 0 0 0 7.9801133,4.4744735 Z m 0.01987,5.7613635 a 0.64475854,0.64475854 0 0 0 -0.644886,0.644886 0.64475854,0.64475854 0 0 0 0.644886,0.644886 0.64475854,0.64475854 0 0 0 0.644887,-0.644886 0.64475854,0.64475854 0 0 0 -0.644887,-0.644886 z"
             style="opacity:0.6;fill:#d0d0d0;stroke-width:0.7157017"
             inkscape:label="#1" />
    </g>
</svg>
