<?xml version="1.0" encoding="UTF-8" standalone="no"?>
<!-- Created with Inkscape (http://www.inkscape.org/) -->

<svg
     xmlns:dc="http://purl.org/dc/elements/1.1/"
     xmlns:cc="http://creativecommons.org/ns#"
     xmlns:rdf="http://www.w3.org/1999/02/22-rdf-syntax-ns#"
     xmlns:svg="http://www.w3.org/2000/svg"
     xmlns="http://www.w3.org/2000/svg"
     xmlns:sodipodi="http://sodipodi.sourceforge.net/DTD/sodipodi-0.dtd"
     xmlns:inkscape="http://www.inkscape.org/namespaces/inkscape"
     width="16"
     height="16"
     viewBox="0 0 4.2333332 4.2333332"
     version="1.1"
     id="svg8"
     inkscape:version="0.92+devel (572d1a9d8b, 2017-07-17, custom)"
     sodipodi:docname="application-x-deb.svg">
    <defs
         id="defs2" />
    <sodipodi:namedview
         id="base"
         pagecolor="#002466"
         bordercolor="#ffffff"
         borderopacity="0.38039216"
         inkscape:pageopacity="1"
         inkscape:pageshadow="2"
         inkscape:zoom="19.318181"
         inkscape:cx="11"
         inkscape:cy="11"
         inkscape:document-units="px"
         inkscape:current-layer="svg8"
         inkscape:document-rotation="0"
         showgrid="false"
         inkscape:showpageshadow="false"
         borderlayer="true"
         inkscape:window-width="1920"
         inkscape:window-height="1051"
         inkscape:window-x="0"
         inkscape:window-y="0"
         inkscape:window-maximized="1"
         inkscape:snap-page="true"
         inkscape:snap-grids="false"
         inkscape:snap-to-guides="false"
         units="px" />
    <metadata
         id="metadata5">
        <rdf:RDF>
            <cc:Work
                 rdf:about="">
                <dc:format>image/svg+xml</dc:format>
                <dc:type
                     rdf:resource="http://purl.org/dc/dcmitype/StillImage" />
                <dc:title></dc:title>
            </cc:Work>
        </rdf:RDF>
    </metadata>
    <g
         id="g840"
         inkscape:label="#application-x-deb"
         transform="scale(0.26458332)">
        <rect
             y="0"
             x="0"
             height="16"
             width="16"
             id="rect836"
             style="opacity:0.93199978;fill:none;stroke-width:0.30000001"
             inkscape:label="#boundary" />
        <path
             inkscape:label="#1"
             d="M 8.8124192,13.785223 C 8.1881322,13.681243 7.2932632,13.327754 6.7388332,12.96612 5.5211962,12.171904 4.7259722,11.290195 4.2338232,10.188709 4.0703132,9.8227693 3.9809852,9.5387998 3.7254332,8.5727719 3.6619102,8.3325671 3.5828012,8.0680364 3.5497062,7.9849234 c -0.05585,-0.1401971 -0.0583,-0.1874893 -0.03397,-0.6551089 0.02309,-0.4442715 0.09824,-1.0454016 0.138564,-1.1086263 0.0077,-0.012287 0.02611,-0.015173 0.04093,-0.00646 0.04973,0.029516 0.09571,-0.1069428 0.140873,-0.4181944 0.02474,-0.1705268 0.06363,-0.3493523 0.08642,-0.3973966 0.02282,-0.048029 0.06138,-0.1540727 0.08576,-0.2356198 0.05613,-0.1876927 0.132655,-0.3319668 0.369242,-0.6960875 0.104068,-0.1601394 0.212204,-0.3345579 0.240351,-0.3875949 0.03309,-0.062405 0.0693,-0.092979 0.102528,-0.086635 0.032,0.00607 0.08483,-0.034381 0.140131,-0.1073716 0.240543,-0.3174729 1.373494,-1.2541178 1.47834,-1.2221856 0.02861,0.00874 0.148185,-0.030624 0.265666,-0.087402 0.212533,-0.1027125 0.306183,-0.1264699 0.306183,-0.077685 0,0.014074 -0.03073,0.04602 -0.06828,0.071 -0.06589,0.043851 -0.06457,0.04459 0.03793,0.020781 0.05841,-0.013606 0.156788,-0.0329 0.21858,-0.042949 0.07636,-0.012424 0.107449,-0.030731 0.09689,-0.057067 -0.0091,-0.023117 0.01292,-0.046019 0.05448,-0.056762 0.104453,-0.026828 0.267206,-0.02243 0.267206,0.00723 0,0.035599 -0.09307,0.071547 -0.166876,0.064521 -0.05036,-0.00475 -0.05291,-5.292e-4 -0.01512,0.024162 0.03755,0.024766 0.03802,0.030044 0.0026,0.030412 -0.02364,2.432e-4 -0.03518,0.00789 -0.02584,0.017042 0.0096,0.0091 0.07276,-0.010583 0.140571,-0.043798 0.06781,-0.033219 0.192027,-0.074508 0.276004,-0.091794 0.103408,-0.021275 0.15272,-0.045965 0.15272,-0.076432 0,-0.039194 0.04802,-0.042529 0.371664,-0.025811 0.204424,0.010583 0.512891,0.041311 0.685491,0.068334 0.313802,0.049139 0.31383,0.049139 0.430772,-0.015448 0.140269,-0.077471 0.365878,-0.08755 0.425163,-0.018994 0.02171,0.025069 0.08139,0.06641 0.132655,0.091852 0.08364,0.041523 0.08917,0.041575 0.05382,5.291e-4 -0.06715,-0.077702 -4.59e-4,-0.075745 0.2588488,0.00761 0.836034,0.2686983 1.517597,0.7472406 2.023336,1.4206353 0.119928,0.1596884 0.127185,0.2315297 0.01347,0.1343257 l -0.06501,-0.055629 0.04967,0.093185 c 0.02721,0.051256 0.04967,0.1088449 0.04967,0.1279872 0,0.019159 0.0804,0.1606477 0.178668,0.3144419 0.221467,0.3466231 0.28341,0.4634033 0.268553,0.5061845 C 12.75206,5.0324671 12.653881,4.9103622 12.54033,4.7428041 12.426807,4.5752542 12.258773,4.3495008 12.16696,4.2411359 12.029825,4.0793089 11.993927,4.0516317 11.965972,4.0862192 c -0.01869,0.023172 -0.06449,0.046283 -0.101676,0.051468 l -0.06762,0.00935 0.0669,0.1258322 c 0.03675,0.069208 0.07177,0.111786 0.07774,0.094623 0.03194,-0.091915 0.180592,0.028933 0.248211,0.201728 0.02199,0.056047 0.08021,0.1714668 0.129521,0.2564911 0.04929,0.085021 0.08345,0.1605405 0.07587,0.1678247 -0.0077,0.00728 -0.05258,-0.016025 -0.09992,-0.051784 l -0.08609,-0.065008 0.05874,0.096759 c 0.03233,0.053221 0.08639,0.1183198 0.120203,0.144672 0.04217,0.0329 0.06234,0.084824 0.06421,0.1655653 0.0036,0.1490783 0.09247,0.32519 0.140873,0.2787488 0.0754,-0.07235 0.0909,-0.02713 0.07193,0.2098009 -0.01402,0.1745619 -0.0066,0.2896187 0.02666,0.4117629 0.05036,0.1854387 0.0395,0.231208 -0.03414,0.1445401 -0.04681,-0.055118 -0.04728,-0.055079 -0.02639,0.00212 0.04497,0.1226133 0.07853,0.3060473 0.06919,0.3780423 -0.01732,0.134345 -0.06998,0.07849 -0.0881,-0.093606 l -0.01759,-0.1679704 -0.0052,0.1787565 c -0.0026,0.09832 -0.02694,0.2883015 -0.05346,0.4221828 -0.02694,0.1352302 -0.04052,0.2990921 -0.03068,0.3686694 0.01842,0.1308926 0.0055,0.1359641 -0.108603,0.04221 -0.04637,-0.038191 -0.0544,-0.030467 -0.08626,0.083119 -0.02694,0.095571 -0.02666,0.1499826 0.0011,0.2300234 0.01979,0.057666 0.03136,0.1358761 0.02556,0.173795 -0.01319,0.087512 -0.08631,0.1148015 -0.08631,0.032268 0,-0.1037845 -0.04115,-0.066847 -0.166876,0.1498204 -0.339568,0.5850712 -0.876785,1.0378638 -1.484808,1.251436 -0.358462,0.1259146 -0.598886,0.1726048 -1.0031338,0.1948092 l -0.364082,0.019983 0.179878,0.053254 c 0.145051,0.042949 0.230235,0.049351 0.439931,0.033111 0.2747098,-0.02133 0.5972888,-0.078513 0.7435498,-0.1318766 0.05838,-0.02133 0.0978,-0.022265 0.117976,-0.00319 0.04755,0.045651 -0.374951,0.2251221 -0.625771,0.265787 -0.4267868,0.069197 -0.9980758,-0.00561 -1.5023798,-0.1966618 -0.342159,-0.1296392 -0.849905,-0.46727 -0.772096,-0.5134152 0.01484,-0.00874 0.111324,0.035387 0.21465,0.0981 0.132077,0.080134 0.187877,0.1012391 0.187877,0.071052 0,-0.057015 0.01952,-0.054282 0.124463,0.0174 0.09475,0.064752 0.38621,0.1849824 0.596124,0.2459167 0.228833,0.066421 0.140103,-0.014074 -0.166877,-0.1514258 -0.970599,-0.4342319 -1.373527,-0.8685541 -1.574342,-1.6969773 -0.07364,-0.3037836 0.0055,-0.9697624 0.139554,-1.1783308 0.03406,-0.052842 0.0619,-0.1178497 0.0619,-0.1444383 0,-0.1153842 0.200493,-0.4202362 0.406229,-0.6176704 0.362524,-0.3478922 0.739435,-0.4923205 1.228715,-0.4708297 0.236529,0.010418 0.33754,0.030363 0.534381,0.1055767 0.223281,0.08534 0.5043998,0.2639649 0.418304,0.2658011 -0.02034,4.282e-4 -0.108988,-0.028087 -0.197223,-0.063367 -0.134111,-0.053631 -0.220092,-0.064373 -0.524491,-0.065511 -0.427436,-0.00159 -0.636354,0.056597 -0.94055,0.2619914 -0.43127,0.2912001 -0.671087,0.6266092 -0.756021,1.0573608 -0.05698,0.2890368 -0.05874,0.3691243 -0.01429,0.6558285 0.02556,0.1652052 0.04381,0.2136821 0.07584,0.2018872 0.02694,-0.0099 0.04217,0.00476 0.04217,0.040093 0,0.1023936 0.23216,0.5177416 0.393176,0.7034121 0.387543,0.4469216 1.014425,0.7321181 1.60924,0.7321181 0.308723,0 0.5582788,-0.056866 0.7879938,-0.1795537 0.09225,-0.049299 0.208685,-0.1095018 0.25874,-0.133853 0.176634,-0.085915 0.286213,-0.1840561 0.414327,-0.3710547 0.07122,-0.1039576 0.148652,-0.1890121 0.172071,-0.1890121 0.03458,0 0.03309,0.015008 -0.008,0.080065 -0.135432,0.2144828 0.182405,-0.1754985 0.346986,-0.4257579 L 11.828138,7.669779 11.808078,7.4856487 c -0.01952,-0.1769369 -0.01649,-0.1877394 0.07171,-0.2766012 0.08496,-0.085571 0.09258,-0.1109037 0.102364,-0.3396723 0.0088,-0.2047487 0.0026,-0.2472553 -0.03491,-0.247489 -0.03502,-2.012e-4 -0.05003,-0.054128 -0.06512,-0.2332063 C 11.862047,6.1516803 11.66109,5.35418 11.614279,5.3264105 11.599989,5.3180543 11.560949,5.241345 11.527149,5.1559991 11.413131,4.867978 11.213082,4.5910222 10.901201,4.2893067 10.452435,3.8551803 9.8871362,3.5199507 9.3531562,3.3713015 8.8989392,3.2448564 8.1276352,3.2907525 7.5782522,3.4769111 c -0.268141,0.090857 -0.532309,0.2111615 -0.576888,0.2627061 -0.02034,0.023392 -0.04956,0.034964 -0.06517,0.025701 -0.01649,-0.00973 -0.01209,-0.035863 0.01072,-0.062091 0.101209,-0.1170279 -0.234633,0.09716 -0.450855,0.2875343 -0.130703,0.1150928 -0.24244,0.2127641 -0.24824,0.2170411 -0.0058,0.00423 0.01952,2.01e-4 0.05654,-0.00904 0.06143,-0.015393 0.06405,-0.011325 0.03073,0.048452 -0.02144,0.038296 -0.132572,0.1071599 -0.26891,0.1665055 -0.22908,0.099711 -0.377227,0.2092978 -0.494936,0.3660988 -0.04695,0.062605 -0.04972,0.076088 -0.01264,0.062399 0.02611,-0.00965 0.04744,-0.00371 0.04744,0.013386 0,0.08315 -0.07872,0.175983 -0.195326,0.2303615 -0.258382,0.1204579 -0.712258,0.7639044 -0.955385,1.3544185 -0.108356,0.2631458 -0.106624,0.2540063 -0.04772,0.2540063 0.06209,0 0.05778,0.067674 -0.02751,0.4311957 -0.124243,0.5295217 -0.124381,0.5125795 0.01072,1.2575298 0.164842,0.9076592 0.261158,1.2108609 0.444288,1.3987369 0.04293,0.044062 0.08469,0.1378222 0.103326,0.2320054 0.02227,0.112459 0.05954,0.186681 0.129356,0.257316 0.06366,0.0644 0.08491,0.103894 0.06044,0.112454 -0.04797,0.01677 0.102226,0.231719 0.239278,0.342386 0.06897,0.05567 0.120038,0.07438 0.175398,0.06423 0.121302,-0.02226 0.244831,0.0448 0.434618,0.235924 0.197222,0.198625 0.216986,0.252022 0.08648,0.233641 -0.08419,-0.01185 -0.08612,-0.0097 -0.0447,0.05104 0.02391,0.03491 0.111736,0.118801 0.195353,0.186453 0.117427,0.09503 0.14769,0.13614 0.13293,0.180714 -0.02116,0.0641 0.03925,0.123894 0.176057,0.174081 0.08483,0.0311 0.112149,0.09823 0.0483,0.118649 -0.01952,0.0062 0.100137,0.124181 0.265474,0.262226 0.186255,0.155523 0.311565,0.240771 0.329421,0.224119 0.04717,-0.04396 0.107641,-0.03057 0.108713,0.02408 0.0011,0.05962 0.05473,0.122261 0.247387,0.289344 0.121742,0.105584 0.152116,0.118869 0.226744,0.09915 0.06833,-0.01809 0.111297,-0.0065 0.207531,0.05596 0.192,0.124549 0.308406,0.174267 0.408087,0.174267 0.09808,0 0.112066,0.02702 0.06111,0.118378 -0.02694,0.04834 -0.02116,0.05632 0.04079,0.05632 0.03966,0 0.151538,0.02619 0.248542,0.05823 0.220559,0.07282 0.312562,0.07778 0.257282,0.01385 -0.08167,-0.09442 0.0047,-0.06862 0.296703,0.08838 0.407672,0.219391 0.613902,0.244452 1.4257118,0.173266 0.120203,-0.01053 0.15929,-0.0042 0.15929,0.02507 0,0.02529 -0.104288,0.06325 -0.295818,0.107715 -0.251757,0.05845 -0.386155,0.06976 -0.9026168,0.07595 -0.406966,0.0048 -0.684952,-0.0057 -0.844102,-0.03227 z m -0.41502,-4.3647378 c 0,-0.00618 -0.03757,-0.033164 -0.08345,-0.059961 l -0.08343,-0.048768 0.07163,0.059961 c 0.0699,0.058504 0.09524,0.071481 0.09524,0.048768 z M 12.574731,6.36906 c -0.0096,-0.023227 -0.01677,-0.016355 -0.01842,0.017619 -0.0016,0.030679 0.0058,0.04787 0.01594,0.038191 0.01017,-0.00968 0.01127,-0.034805 0.0022,-0.055805 z M 5.6706502,3.2955084 c 0.03777,-0.046176 0.03667,-0.047234 -0.01127,-0.010995 -0.02922,0.022018 -0.05311,0.044906 -0.05311,0.050937 0,0.023969 0.02501,0.00852 0.06454,-0.039937 z m 0.34504,-0.2693222 c 0.03021,-0.032053 0.04808,-0.058232 0.03972,-0.058232 -0.0085,0 -0.03988,0.026196 -0.07007,0.058232 -0.03021,0.032053 -0.04808,0.058232 -0.03972,0.058232 0.0085,0 0.03988,-0.026196 0.07009,-0.058232 z m 0.381911,-0.2046745 c 0.100027,-0.032476 0.156843,-0.038241 0.177926,-0.018004 0.02116,0.020258 0.09937,0.00825 0.245023,-0.037608 0.117702,-0.037026 0.208603,-0.072523 0.202006,-0.07887 -0.0066,-0.00635 -0.103545,0.017784 -0.215365,0.053614 -0.153627,0.049244 -0.208877,0.056544 -0.226029,0.029937 -0.02892,-0.044961 -0.30502,0.043636 -0.423684,0.135986 l -0.08109,0.063092 0.08713,-0.050198 c 0.04791,-0.027611 0.153271,-0.071693 0.234084,-0.097952 z m 0.874695,-0.073908 c 0.0881,-0.025124 0.154947,-0.050725 0.148515,-0.056863 -0.01429,-0.013606 -0.328047,0.072655 -0.328047,0.090153 0,0.017619 0.0026,0.01718 0.179521,-0.033271 z m 0.503128,-0.1587264 0.121357,-0.021275 -0.106184,-0.00264 c -0.05838,-0.00159 -0.140324,0.01751 -0.182049,0.04205 -0.04909,0.028933 -0.05445,0.037345 -0.01512,0.023859 0.0334,-0.011435 0.115282,-0.03036 0.182049,-0.04205 z m 0.240983,-0.054947 c 0.0094,-0.014486 -0.01045,-0.019516 -0.04373,-0.01116 -0.07086,0.017784 -0.0798,0.037553 -0.01704,0.037553 0.02419,0 0.05135,-0.011902 0.06072,-0.026388 z m 0.979582,0.00877 c -0.01017,-0.00968 -0.03623,-0.010693 -0.05816,-0.00212 -0.02419,0.00932 -0.01704,0.01619 0.01842,0.017619 0.032,0.00106 0.04989,-0.00561 0.03983,-0.015283 z m -0.18139,-0.031577 c -0.02919,-0.00728 -0.07699,-0.00728 -0.106184,0 -0.02919,0.00728 -0.0052,0.013331 0.05311,0.013331 0.05838,0 0.0823,-0.00597 0.05311,-0.013331 z m -0.302596,-0.030206 c -0.06215,-0.00624 -0.171384,-0.00635 -0.242714,-1.905e-4 -0.07136,0.00613 -0.02062,0.01127 0.112973,0.01138 0.133507,1.055e-4 0.19189,-0.00475 0.129741,-0.01116 z m -0.395858,-0.025536 c -0.0099,-0.00968 -0.03623,-0.010748 -0.05816,-0.00212 -0.02419,0.00932 -0.01704,0.01619 0.01842,0.017619 0.032,0.00106 0.04989,-0.00561 0.03983,-0.015283 z M 7.9107592,9.4535774 C 7.6017112,9.24108 7.4872072,9.1311697 7.4872072,9.0470091 c 0,-0.044642 0.01072,-0.081179 0.02336,-0.081179 0.04373,0 0.560403,0.5175358 0.549106,0.5500604 -0.0066,0.018829 -0.06888,-0.00723 -0.148927,-0.062314 z M 7.7517162,8.9140324 C 7.5912172,8.7583846 7.5397882,8.6746687 7.6046582,8.6746687 c 0.03898,0 0.337637,0.3281524 0.337637,0.3709809 0,0.020148 -0.0036,0.036657 -0.0085,0.036657 -0.0047,0 -0.08661,-0.075711 -0.18205,-0.1682591 z m 1.775856,-0.6371511 c -0.08474,-0.032795 -0.03186,-0.093611 0.106184,-0.1220334 0.07927,-0.016355 0.205221,-0.055937 0.27991,-0.088037 0.07468,-0.032105 0.1411758,-0.053185 0.1477728,-0.046863 0.0066,0.00635 -0.02721,0.071036 -0.0751,0.1438034 -0.08656,0.1314946 -0.08813,0.132289 -0.253957,0.130057 -0.09178,-0.00106 -0.183946,-0.00882 -0.204809,-0.016932 z M 10.437773,7.6255912 c -0.08189,-0.031578 -0.08529,-0.085343 -0.01704,-0.2684179 0.05874,-0.1572448 0.119653,-0.1882672 0.08576,-0.043691 -0.01209,0.052048 -0.02845,0.1273879 -0.03617,0.1674152 l -0.01402,0.072792 0.06064,-0.066267 c 0.03587,-0.039194 0.0691,-0.1312472 0.08133,-0.2253203 0.01127,-0.087482 0.03279,-0.1518766 0.04761,-0.1431053 0.03755,0.022265 0.03354,0.2524697 -0.0069,0.4072398 -0.03549,0.1351944 -0.0674,0.1509447 -0.201209,0.099331 z M 3.2579732,7.2601694 c -0.01017,-0.025343 -0.01842,-0.1246886 -0.01842,-0.2207986 0,-0.1267997 0.01045,-0.1714366 0.03793,-0.1627038 0.04505,0.014266 0.07149,0.4295561 0.02721,0.4295561 -0.01567,0 -0.0367,-0.020726 -0.04687,-0.046072 z M 10.556964,6.5791316 c -0.04711,-0.061195 -0.06168,-0.1095019 -0.0483,-0.1606258 0.02749,-0.1049856 0.09929,-0.090052 0.15228,0.03163 0.08244,0.189342 0.01072,0.278077 -0.103985,0.1289685 z M 3.2517342,6.1168762 c -0.0022,-0.165098 -1.7e-5,-0.1702051 0.07614,-0.1674152 0.06457,0.00212 0.08015,0.018664 0.08763,0.091773 0.0085,0.082432 -0.08499,0.2459331 -0.140489,0.2459331 -0.01127,0 -0.02199,-0.076627 -0.02336,-0.1702876 z M 11.116251,2.5375848 c 0.0041,-0.2605647 0.04997,-0.3488342 0.08562,-0.1664009 0.02474,0.1271158 -0.0069,0.3515846 -0.05489,0.3899277 -0.02611,0.020836 -0.034,-0.03597 -0.03073,-0.2235268 z M 7.1296202,2.3814395 c 0.01209,-0.035121 0.430728,-0.1996196 0.507935,-0.1996196 0.09071,0 -0.07202,0.1066569 -0.259674,0.1702135 -0.209235,0.070868 -0.264952,0.077463 -0.248267,0.029409 z"
             id="path4181"
             style="color:#000000;clip-rule:nonzero;display:inline;overflow:visible;visibility:visible;opacity:0.6;isolation:auto;mix-blend-mode:normal;color-interpolation:sRGB;color-interpolation-filters:linearRGB;solid-color:#000000;solid-opacity:1;fill:#d0d0d0;fill-opacity:1;fill-rule:nonzero;stroke-width:0.52894497;stroke-linecap:butt;stroke-linejoin:miter;stroke-miterlimit:4;stroke-dasharray:none;stroke-dashoffset:0;stroke-opacity:1;color-rendering:auto;image-rendering:auto;shape-rendering:auto;text-rendering:auto;enable-background:accumulate"
             inkscape:connector-curvature="0" />
    </g>
</svg>
