<?xml version="1.0" encoding="UTF-8" standalone="no"?>
<!-- Created with Inkscape (http://www.inkscape.org/) -->

<svg
   xmlns:dc="http://purl.org/dc/elements/1.1/"
   xmlns:cc="http://creativecommons.org/ns#"
   xmlns:rdf="http://www.w3.org/1999/02/22-rdf-syntax-ns#"
   xmlns:svg="http://www.w3.org/2000/svg"
   xmlns="http://www.w3.org/2000/svg"
   xmlns:sodipodi="http://sodipodi.sourceforge.net/DTD/sodipodi-0.dtd"
   xmlns:inkscape="http://www.inkscape.org/namespaces/inkscape"
   width="16"
   height="16"
   viewBox="0 0 16 16"
   version="1.1"
   id="svg8"
   inkscape:version="0.92+devel (1871f5fd98, 2017-07-15, custom)"
   sodipodi:docname="libreoffice-oasis-web-template.svg">
  <defs
     id="ol-defs">
    <style
       id="current-color-scheme">      .ColorScheme-Text {
        color:#d0d0d0;
        stop-color:#d0d0d0;
      }
      .ColorScheme-Background {
        color:#212121;
        stop-color:#212121;
      }
      .ColorScheme-Highlight {
        color:#0039a9;
        stop-color:#0039a9;
      }
      .ColorScheme-ViewText {
        color:#d0d0d0;
        stop-color:#d0d0d0;
      }
      .ColorScheme-ViewBackground {
        color:#19191b;
        stop-color:#19191b;
      }
      .ColorScheme-ViewHover {
        color:#005cc7;
        stop-color:#005cc7;
      }
      .ColorScheme-ViewFocus{
        color:#002466;
        stop-color:#002466;
      }
      .ColorScheme-ButtonText {
        color:#d0d0d0;
        stop-color:#d0d0d0;
      }
      .ColorScheme-ButtonBackground {
        color:#232323;
        stop-color:#232323;                             
      }                                                 
      .ColorScheme-ButtonHover {                        
        color:#005cc7;                                  
        stop-color:#005cc7;                             
      }                                                 
      .ColorScheme-ButtonFocus{                         
        color:#0039a9;                                  
        stop-color:#0039a9;                             
      }</style>
    <style
       id="current-color-scheme-7">      .ColorScheme-Text {
        color:#d0d0d0;
        stop-color:#d0d0d0;
      }
      .ColorScheme-Background {
        color:#212121;
        stop-color:#212121;
      }
      .ColorScheme-Highlight {
        color:#0039a9;
        stop-color:#0039a9;
      }
      .ColorScheme-ViewText {
        color:#d0d0d0;
        stop-color:#d0d0d0;
      }
      .ColorScheme-ViewBackground {
        color:#19191b;
        stop-color:#19191b;
      }
      .ColorScheme-ViewHover {
        color:#005cc7;
        stop-color:#005cc7;
      }
      .ColorScheme-ViewFocus{
        color:#002466;
        stop-color:#002466;
      }
      .ColorScheme-ButtonText {
        color:#d0d0d0;
        stop-color:#d0d0d0;
      }
      .ColorScheme-ButtonBackground {
        color:#232323;
        stop-color:#232323;                             
      }                                                 
      .ColorScheme-ButtonHover {                        
        color:#005cc7;                                  
        stop-color:#005cc7;                             
      }                                                 
      .ColorScheme-ButtonFocus{                         
        color:#0039a9;                                  
        stop-color:#0039a9;                             
      }</style>
    <linearGradient
       gradientTransform="translate(471.31814,349.93102)"
       x2="0"
       gradientUnits="userSpaceOnUse"
       y2="365.35999"
       y1="392.35999"
       id="a">
      <stop
         id="stop2"
         stop-opacity="0"
         stop-color="#ffffff" />
      <stop
         id="stop4"
         stop-opacity=".2"
         stop-color="#ffffff"
         offset="1" />
    </linearGradient>
    <linearGradient
       gradientTransform="translate(309.57,152.44)"
       x2="0"
       gradientUnits="userSpaceOnUse"
       y2="365.35999"
       y1="392.35999"
       id="linearGradient4314">
      <stop
         id="stop4310"
         stop-opacity="0"
         stop-color="#ffffff" />
      <stop
         id="stop4312"
         stop-opacity=".2"
         stop-color="#ffffff"
         offset="1" />
    </linearGradient>
  </defs>
  <sodipodi:namedview
     id="base"
     pagecolor="#002266"
     bordercolor="#ffffff"
     borderopacity="0.46666667"
     inkscape:pageopacity="0"
     inkscape:pageshadow="2"
     inkscape:zoom="12.859375"
     inkscape:cx="31.466236"
     inkscape:cy="10.315083"
     inkscape:document-units="px"
     inkscape:current-layer="svg8"
     inkscape:document-rotation="0"
     showgrid="false"
     inkscape:showpageshadow="false"
     borderlayer="true"
     units="px"
     fit-margin-top="0"
     fit-margin-left="0"
     fit-margin-right="0"
     fit-margin-bottom="0"
     inkscape:window-width="1920"
     inkscape:window-height="1051"
     inkscape:window-x="0"
     inkscape:window-y="0"
     inkscape:window-maximized="1"
     inkscape:snap-page="true" />
  <metadata
     id="metadata5">
    <rdf:RDF>
      <cc:Work
         rdf:about="">
        <dc:format>image/svg+xml</dc:format>
        <dc:type
           rdf:resource="http://purl.org/dc/dcmitype/StillImage" />
        <dc:title></dc:title>
      </cc:Work>
    </rdf:RDF>
  </metadata>
  <g
     id="g4338"
     inkscape:label="#libreoffice-oasis-web-template"
     transform="scale(0.5)">
    <rect
       inkscape:label="#boundary"
       y="0"
       x="0"
       height="32"
       width="32"
       id="rect4264"
       style="fill:none;fill-opacity:0.74651441;stroke-width:23.61599922;stroke-opacity:0.3596773" />
    <path
       inkscape:connector-curvature="0"
       id="path1391"
       d="m 16.342862,4.3636605 a 11.636253,11.636253 0 0 0 -3.271305,0.476485 c -0.0155,0.02406 -0.02662,0.04896 -0.02193,0.09445 0.0072,0.109488 0.106681,0.152973 0.163609,0.162765 0.08781,0.01779 0.240984,-1.43e-4 0.32637,-0.03964 0.159034,-0.07354 0.233933,-0.314586 0.366853,-0.285048 0.104395,0.02368 0.227987,0.368208 0.244566,0.489136 0.01658,0.127814 -0.0065,0.207891 0,0.326371 0.0142,0.199376 0.244321,0.181283 0.367696,0.285891 0.03551,0.03114 0.05017,0.118376 0.08096,0.162765 0.0594,0.08091 0.151853,0.07826 0.163607,0.163608 0.02373,0.206752 -0.182556,0.220687 -0.163607,0.448655 -0.04269,0.09038 -0.171888,0.126929 -0.162771,0.245411 0.01419,0.187968 0.293213,0.01572 0.36685,0.162763 0.04059,0.07846 -0.01207,0.174428 -0.04047,0.285891 0.09263,0.109129 0.07961,0.244568 -0.08181,0.244568 -0.09968,0 -0.104348,-0.138122 -0.204087,-0.162763 -0.05697,-0.0098 -0.13196,0.0098 -0.203244,0 -0.05936,-0.01 -0.147171,-0.03474 -0.204089,-0.03964 -0.14717,-0.01485 -0.279827,0.04571 -0.367694,-0.03964 0.142421,-0.187463 0.307211,-0.369059 0.489978,-0.530459 0.05431,-0.04991 0.15076,-0.106824 0.122283,-0.204088 -0.0997,-0.09172 -0.190977,-0.0152 -0.285892,0.03964 -0.102062,0.0548 -0.212396,0.148919 -0.326371,0.163607 -0.197012,0.02562 -0.491346,-0.02365 -0.652744,0.08096 -0.02373,0.08777 0.19208,0.02832 0.163609,0.163607 -0.0807,0.0098 -0.183658,0.05483 -0.245412,0 -0.05444,-0.05039 -0.0049,-0.134068 -0.04049,-0.163607 -0.06172,-0.04684 -0.306082,-0.09565 -0.408175,-0.08096 -0.125791,0.02123 -0.187507,0.138001 -0.204088,0.244567 0.151902,0.07164 0.394924,-0.09831 0.4495,0.0818 -0.08068,0.147039 -0.311993,0.207988 -0.285892,0.407331 0.0095,0.07553 0.09867,0.194296 0.162772,0.204088 0.0641,0.01338 0.0995,-0.04292 0.163607,-0.03964 0.06645,0.0049 0.08442,0.04943 0.162755,0.03964 0.113926,-0.04795 0.155329,-0.1734 0.285891,-0.163607 0.156635,0.19195 -0.119737,0.308455 -0.285891,0.367695 -0.189895,0.06916 -0.466632,0.101078 -0.611419,0.162765 -0.07595,0.03068 -0.32733,0.29794 -0.367695,0.0818 -0.03086,-0.154498 0.127979,-0.116296 0.163607,-0.244568 -0.185145,-0.03553 -0.36431,0.09863 -0.530457,0.162765 -0.239731,0.0903 -0.636299,0.09976 -0.693223,0.367695 -0.0091,0.05428 0.03563,0.209969 0,0.244568 -0.02849,0.0297 -0.212256,0.015 -0.285893,0.03964 -0.113927,0.03998 -0.214607,0.102537 -0.285891,0.122283 -0.05235,0.01485 -0.129447,0.02985 -0.162755,0.03964 -0.09498,0.03799 -0.09495,0.159215 -0.2040871,0.244567 -0.04277,0.03705 -0.168461,0.04721 -0.204088,0.0818 -0.06172,0.06169 -0.09495,0.219926 -0.204088,0.244568 -0.0688,0.0049 -0.09867,-0.03949 -0.162771,0 -0.0065,0.151984 0.0641,0.335242 0,0.489135 -0.140054,0.1159675 -0.309598,0.2242115 -0.489979,0.3263725 -0.0997,0.05679 -0.164863,0.06304 -0.285891,0.122283 -0.08545,0.0424 -0.187784,0.147296 -0.285047,0.204087 -0.227865,0.132891 -0.489978,0.27194 -0.489978,0.61142 0,0.07354 0.02872,0.160059 0.04049,0.245411 0.0065,0.0499 -0.0026,0.107932 0,0.162763 0.01658,0.12336 0.104445,0.322824 0,0.408176 -0.159034,-0.06662 -0.37751,-0.130658 -0.489138,-0.244568 -0.03106,-0.118921 0.05222,-0.219315 0.04049,-0.326371 -0.01191,-0.08532 -0.13294,-0.235619 -0.204088,-0.245413 -0.07128,-0.01175 -0.08677,0.08509 -0.162771,0.0818 -0.09018,-0.0073 -0.25372,-0.153813 -0.367696,-0.163606 -0.168524,-0.01975 -0.26351,0.02464 -0.448655,0 -0.180405,0.09477 -0.189804,0.2601 -0.408176,0.24541 -0.06145,-0.0054 -0.123179,-0.03989 -0.189751,-0.06325 a 11.636253,11.636253 0 0 0 -0.752241,2.410255 c 0.08629,-0.01843 0.181803,-0.03989 0.248784,-0.06241 0.258727,-0.08088 0.192318,-0.414101 0.448655,-0.530459 0.113938,-0.0519 0.251644,-0.07117 0.448655,-0.08096 0.06384,0.0523 0.131423,0.164112 0.122284,0.244567 -0.0071,0.06215 -0.09147,0.118736 -0.122284,0.204088 -0.02598,0.07598 -0.01436,0.18288 -0.04048,0.244568 -0.03564,0.08042 -0.135144,0.128038 -0.163607,0.204087 -0.01658,0.04994 0.01658,0.0779 0,0.122284 -0.02833,0.07796 -0.169808,0.123632 -0.122284,0.204087 0.253975,0.09971 0.552747,-0.03949 0.77587,0 0.09494,0.01678 0.328984,0.141295 0.326372,0.285891 -0.0022,0.109048 -0.110534,0.207048 -0.122284,0.325528 -0.01423,0.149504 -0.07529,0.328572 -0.0818,0.4495 -0.0095,0.19683 0.280254,0.53374 0.489136,0.530458 0.225484,-0.002 0.379788,-0.200284 0.652742,-0.08181 0.0902,0.03799 0.186146,0.168505 0.285893,0.163609 0.08307,-0.0049 0.189991,-0.144852 0.244566,-0.244568 0.06884,-0.120895 0.0854,-0.224203 0.204088,-0.285891 0.128173,-0.06609 0.24439,-0.06059 0.408175,-0.122283 0.07357,-0.02611 0.13764,-0.07789 0.204088,-0.122282 0.05705,-0.03623 0.0916,-0.11063 0.162755,-0.03964 0.09503,0.09477 -0.121156,0.101084 -0.04047,0.203244 0.16377,0.08785 0.249016,-0.159491 0.367695,-0.162771 0.03797,-0.0024 0.175766,0.118382 0.244568,0.162771 0.0925,0.06166 0.101997,0.184343 0.2040871,0.204088 0.06409,0.01436 0.192482,-0.0916 0.285048,-0.08181 0.121059,0.01678 0.193326,0.166889 0.285891,0.163607 0.111561,-0.0024 0.190976,-0.143857 0.285891,-0.163607 0.208866,-0.03997 0.274286,0.03289 0.366852,0.163607 0.102095,0.02024 0.06869,-0.08892 0.163607,-0.03964 -0.05222,0.104069 0.03827,0.11874 0.08096,0.204087 0.02363,0.05434 0.01518,0.09764 0.04132,0.122282 0.05697,0.05434 0.202014,0.0699 0.285048,0.122283 0.0878,0.05477 0.104348,0.169532 0.204087,0.285891 0.104429,0.118448 0.270513,0.194296 0.408175,0.204087 0.130539,0.0098 0.257707,-0.0098 0.366852,0 0.244484,0.03109 0.400882,0.152376 0.571782,0.285049 0.09733,0.07357 0.173298,0.116294 0.204088,0.204088 0.02378,0.06167 -0.02378,0.175535 0,0.244566 0.05222,0.149031 0.322904,0.192554 0.244568,0.448656 0.03564,0.07406 0.07739,0.111381 0.162771,0.163607 0.06884,0.04243 0.130459,0.112491 0.204088,0.122283 0.04742,0.0049 0.161401,-0.0033 0.204088,0 0.135306,0.0095 0.210046,0.03742 0.32637,0.08181 0.07357,0.02611 0.15657,0.04636 0.204089,0.08096 0.05914,0.04047 0.04865,0.169488 0.122282,0.204087 0.04747,0.02464 0.205206,-0.0098 0.285892,0 0.128173,0.01436 0.252875,0.119003 0.36685,0.122283 0.0688,0.0033 0.101851,-0.0033 0.163607,0 0.291941,0.02368 0.494942,0.344047 0.775028,0.448656 0.08783,0.0297 0.226484,0.01501 0.285891,0.03964 0.104445,0.0449 0.153632,0.347344 0.162755,0.489979 0.02373,0.431913 -0.297723,0.572118 -0.489979,0.856828 -0.04008,0.0592 -0.06536,0.202145 -0.122282,0.285049 -0.11391,0.168271 -0.219826,0.181571 -0.203246,0.489978 0.0023,0.0853 0.04049,0.108597 0.04049,0.203244 0,0.113993 -0.01436,0.306015 -0.04049,0.408175 -0.0188,0.07798 -0.02957,0.133105 -0.04132,0.204087 -0.01175,0.07161 0.0091,0.142401 0,0.204089 -0.0095,0.0686 -0.07006,0.149747 -0.122282,0.244568 -0.109195,0.20419 -0.185053,0.450004 -0.408176,0.53046 -0.132922,0.04684 -0.30624,0.03203 -0.448654,0.0818 -0.05934,0.02122 -0.13294,0.08768 -0.204088,0.122284 -0.206488,0.09722 -0.514014,0.235 -0.57094,0.448655 -0.05222,0.18978 0.117436,0.354802 0.08181,0.570942 -0.03773,0.0641 -0.06536,0.09001 -0.122282,0.163605 -0.04987,0.06851 -0.109032,0.136655 -0.163607,0.203244 -0.07122,0.08783 -0.201886,0.164965 -0.244569,0.28589 -0.01419,0.03999 0.01658,0.05815 0,0.122284 -0.0072,0.02366 -0.06038,0.03742 -0.08181,0.0818 -0.01895,0.03999 0.01658,0.169488 0,0.204086 -0.0546,0.109048 -0.250525,0.332255 -0.366851,0.366854 -0.246845,0.06906 -0.481842,-0.156881 -0.652743,-0.122283 0.02373,0.120901 0.105833,0.161659 0.162771,0.244566 0.03024,0.04794 -0.0046,0.111389 0.04047,0.163608 0.05431,0.06166 0.116619,0.09423 0.123131,0.162771 0.0142,0.147056 -0.08527,0.276598 -0.163606,0.326373 -0.0712,0.04273 -0.200514,0.0199 -0.326372,0.03964 -0.08781,0.0144 -0.365493,0.06548 -0.408175,0.122284 -0.0594,0.08291 0.04516,0.243468 0,0.326371 -0.01714,0.0329 -0.04078,0.05229 -0.06662,0.06579 a 11.636253,11.636253 0 0 0 4.012598,0.729486 11.636253,11.636253 0 0 0 8.245306,-3.437441 c -0.01091,-0.0041 -0.02164,-0.0051 -0.03289,-0.01018 0.04509,-0.156914 0.123404,-0.213769 0.204086,-0.448656 0.05455,-0.197189 0.14704,-0.476965 -0.04047,-0.571782 0.04337,-0.296609 -0.0023,-0.382501 0.04047,-0.937792 0.019,-0.412867 -0.213228,-0.633588 -0.204086,-1.060917 -0.0025,-0.177638 0.121193,-0.347834 0.244567,-0.48998 0.261087,-0.441379 0.396434,-0.702694 0.448657,-1.101398 -0.02848,-0.08287 0.03079,-0.09702 0,-0.163606 -0.121062,-0.263611 -0.19358,-0.53436 -0.366853,-0.733703 -0.09495,-0.109554 -0.207556,-0.186179 -0.285891,-0.285891 -0.0641,-0.08093 -0.162771,-0.224204 -0.162771,-0.285892 -0.0025,-0.06867 0.02153,-0.13555 0.04047,-0.204087 0.02363,-0.08783 0.04865,-0.269595 0.08182,-0.407332 0.01426,-0.06415 0.09356,-0.143252 0.0818,-0.245411 -0.01193,-0.09968 -0.160029,-0.337313 -0.285893,-0.366852 -0.166148,-0.03949 -0.321591,0.01975 -0.530458,0 -0.182773,-0.11595 -0.187567,-0.409164 -0.448655,-0.448655 -0.341788,-0.04984 -0.703646,0.142404 -0.938635,0.244568 -0.135287,0.05924 -0.289498,0.118236 -0.408173,0.123132 -0.113921,0.0073 -0.217227,-0.07202 -0.326373,-0.08181 -0.142415,-0.01436 -0.308617,0.05717 -0.448655,0.08181 -0.135302,0.02318 -0.245826,0.07117 -0.366852,0.08096 -0.230252,0.01674 -0.426152,-0.212327 -0.570939,-0.326401 -0.08783,-0.06916 -0.202857,-0.09864 -0.285891,-0.162771 -0.08781,-0.06902 -0.217088,-0.09702 -0.285891,-0.163607 -0.09257,-0.0903 -0.112887,-0.287248 -0.162755,-0.408176 -0.05932,-0.14211 -0.191066,-0.231563 -0.326371,-0.36685 -0.09968,-0.09968 -0.341594,-0.279904 -0.367695,-0.408176 -0.01426,-0.06606 0.04656,-0.133102 0.04132,-0.204087 -0.007,-0.10407 -0.124872,-0.170967 -0.122283,-0.244568 0.0025,-0.10407 0.134298,-0.156766 0.162755,-0.244569 0.01425,-0.04535 -0.01658,-0.106811 0,-0.163606 0.03303,-0.120879 0.138865,-0.191172 0.122283,-0.366852 -0.007,-0.0711 -0.03789,-0.11384 -0.04046,-0.204088 -0.0025,-0.06167 0.047,-0.106814 0.04046,-0.163607 -0.0071,-0.102112 -0.151017,-0.128046 -0.162755,-0.244567 -0.01425,-0.120895 0.08676,-0.229115 0.162755,-0.366852 0.03303,-0.06166 0.09149,-0.114322 0.122284,-0.163608 0.06646,-0.09968 0.15187,-0.185335 0.204089,-0.285047 0.03555,-0.07352 0.0071,-0.190578 0.04049,-0.245411 0.04509,-0.07112 0.162379,-0.110549 0.24541,-0.203244 0.06659,-0.07602 0.115243,-0.12901 0.162755,-0.163608 0.05935,-0.04243 0.139985,-0.09275 0.204088,-0.122284 0.220734,-0.102144 0.341861,-0.238307 0.448655,-0.449498 -0.03098,-0.189976 0.04394,-0.234174 0.122284,-0.366852 0.07358,-0.12336 0.122036,-0.295862 0.245411,-0.366852 0.149536,-0.08532 0.344209,-0.04774 0.448655,-0.204087 0.05223,-0.08044 0.0818,-0.243468 0.0818,-0.3263725 0,-0.116456 -0.09965,-0.270358 -0.204088,-0.285047 -0.109178,-0.01975 -0.264618,0.116522 -0.326372,0 -0.01904,-0.03801 0.0092,-0.119218 0,-0.163608 -0.01396,-0.07845 -0.119695,-0.187776 -0.122284,-0.244567 -0.0071,-0.112018 0.129615,-0.198943 0.162771,-0.327215 0.04516,-0.175664 0.01178,-0.287312 0,-0.489136 0.166162,-0.26356 0.529411,-0.146926 0.897311,-0.122284 0.0547,0.0049 0.104204,0 0.163606,0 0.218361,0.0044 0.415502,0.02637 0.489135,-0.163607 0.02848,-0.07106 0.01895,-0.300268 0,-0.366852 -0.01898,-0.08043 -0.129615,-0.318404 -0.203244,-0.367689 -0.118676,-0.07357 -0.341721,-0.02764 -0.408173,-0.162763 0.05459,-0.234839 0.332483,-0.02501 0.489135,-0.0818 0.08044,-0.02871 0.051,-0.143018 0.122283,-0.162763 0.04983,-0.01779 0.176609,0.03879 0.245412,0.03879 0.05697,0 0.189995,-0.12327 0.244569,-0.162764 0.07599,-0.04991 0.09632,-0.119217 0.162771,-0.163607 0.03168,-0.01983 0.09174,-0.03898 0.143374,-0.05735 a 11.636253,11.636253 0 0 0 -0.231926,-0.176182 c -0.04223,0.04139 -0.08652,0.07922 -0.07423,0.151801 -0.163783,0.127295 -0.386901,0.08853 -0.652743,0.123128 -0.121063,0.01469 -0.238647,0.09971 -0.366852,0 -0.0286,-0.07847 0.06921,-0.08756 0.08096,-0.163609 -0.0095,-0.07115 -0.05955,-0.06304 -0.08096,-0.122283 0.03551,-0.09232 0.0901,-0.06635 0.08096,-0.204088 0.06646,-0.07163 0.226463,-0.06634 0.24541,-0.163607 0.0144,-0.06655 -0.05348,-0.123272 -0.122284,-0.162764 -0.04009,-0.02122 -0.08044,-0.05716 -0.123127,-0.0818 -0.0206,-0.01139 -0.02914,-0.02547 -0.03795,-0.03964 a 11.636253,11.636253 0 0 0 -5.644469,-1.464868 z m -4.872801,1.084531 a 11.636253,11.636253 0 0 0 -1.5247531,0.83912 c -0.01916,0.03725 -0.03711,0.07536 -0.03711,0.112165 0,0.08287 0.1567011,0.198348 0.2445691,0.203244 0.121041,0.0099 0.277341,-0.08232 0.327214,-0.203244 0.05914,-0.145065 0.01306,-0.344891 0.122282,-0.449499 0.416758,0.01073 0.733008,-0.175406 0.867794,-0.501786 z m 10.02559,0.339021 v 8.47e-4 c 0.147171,-0.01381 0.317232,0.07581 0.326372,0.163607 0.01193,0.08777 -0.08898,0.06305 -0.122283,0.162765 -0.03033,0.0903 -9.53e-4,0.221756 -0.04132,0.285892 -0.03564,0.04928 -0.09631,0.01989 -0.162755,0.03964 -0.149536,0.04276 -0.450756,0.236516 -0.571783,0.03964 0.01894,-0.106534 0.08751,-0.116288 0.123128,-0.204087 0.0025,-0.06655 -0.09354,-0.09001 -0.0818,-0.163608 0.01425,-0.0878 0.1473,-0.08769 0.244566,-0.122283 0.0688,-0.02608 0.0734,-0.107931 0.163607,-0.162765 0.03839,-0.01975 0.07856,-0.02984 0.122284,-0.03964 z M 8.5917519,7.3397965 a 11.636253,11.636253 0 0 0 -0.362634,0.320468 c 0.08537,0.0038 0.311426,-0.02817 0.333118,-0.03711 0.139907,-0.06002 0.09971,-0.182886 0.02952,-0.283361 z m 0.296854,0.365165 v 8.73e-4 c -0.09498,-0.0069 -0.16846,0.07874 -0.204087,0.123127 -0.0049,0.07161 0.04307,0.09177 0.04049,0.162764 -0.116359,0.0829 -0.03217,0.316578 0.08181,0.326371 0.121059,0.0099 0.164964,-0.296833 0.326371,-0.326371 0.05692,-0.01175 0.08442,0.0916 0.162756,0.0818 0.09508,-0.07352 0.05927,-0.261249 -0.04047,-0.285891 -0.03804,-0.01338 -0.13999,0.04453 -0.204088,0.03964 -0.06645,-0.0049 -0.105833,-0.119002 -0.162771,-0.122284 z m -0.502628,0.0759 c -0.0046,0.0018 -0.01126,0.0051 -0.02783,0.0051 v 0.0017 c -0.08117,-0.004 -0.196844,0.0037 -0.272398,0.02615 a 11.636253,11.636253 0 0 0 -0.112164,0.120596 c -0.01792,0.04961 -0.03659,0.102879 -0.06494,0.137464 -0.05457,0.06657 -0.115248,0.104366 -0.162755,0.163607 -0.04256,0.05428 -0.309804,0.40916 -0.122283,0.448656 0.0807,0.01677 0.268467,-0.181276 0.285048,-0.245412 0.05461,-0.2186 0.158691,-0.346495 0.327215,-0.448655 0.09726,-0.05921 0.146191,-0.07826 0.162772,-0.204087 -0.0059,-0.0073 -0.0082,-0.0069 -0.01257,-0.0051 z m 16.0470161,0.328901 c -0.07604,0.0044 -0.142342,0.08769 -0.204088,0.122284 -0.05692,0.02856 -0.105833,0.08279 -0.162771,0.122284 -0.06884,0.04439 -0.139985,0.03636 -0.204089,0.03964 -0.149518,0.0098 -0.279968,-0.06917 -0.408174,-0.03964 -0.04271,0.0093 -0.02959,0.03252 -0.0818,0.0818 -0.0026,0.06916 0.0092,0.08756 0,0.163608 -0.03798,0.06609 -0.202015,0.07789 -0.285049,0.122283 -0.123419,0.06415 -0.186146,0.186179 -0.285891,0.285892 -0.0641,0.0641 -0.154466,0.112989 -0.163608,0.162763 -0.0071,0.03799 0.05046,0.111221 0.04132,0.163607 -0.01193,0.05676 -0.132945,0.154313 -0.204087,0.204088 -0.04256,0.02823 -0.07712,0.05632 -0.122284,0.08096 -0.09498,0.0548 -0.12576,0.148918 -0.204087,0.163607 -0.20887,0.03801 -0.614854,-0.05697 -0.612262,0.163608 0.0025,0.1435785 0.205345,0.1676595 0.326371,0.1627625 0.168519,-0.0049 0.27513,0.02464 0.367695,0 0.06409,-0.01632 0.178115,-0.09275 0.244566,-0.1222835 0.04282,-0.01975 0.08912,-0.02495 0.122284,-0.03964 0.07129,-0.03558 0.109032,-0.09764 0.163608,-0.122284 0.109178,-0.04994 0.332329,-0.117386 0.448655,-0.122283 0.161417,-0.0098 0.282633,0.01469 0.489136,0 0.07357,-0.0049 0.12576,-0.03474 0.204088,-0.03964 0.130545,-0.01338 0.344209,0.04292 0.448655,0.03964 0.07357,0 0.159898,-0.03964 0.245411,-0.03964 0.09732,0.0025 0.186663,0.0606 0.203244,0.122283 0.01178,0.03358 -0.0092,0.111221 0,0.163608 0.01193,0.08532 0.08703,0.1068145 0.08182,0.1636065 -0.0048,0.07354 -0.230198,0.197249 -0.204088,0.285049 0.01661,0.05482 0.181306,0.124115 0.24541,0.163607 0.06646,0.03899 0.204365,0.02985 0.285048,0.03964 0.06646,0.0098 0.09951,-0.0049 0.163608,0 0.102065,0.01191 0.262268,0.07789 0.326371,0.122283 0.111564,0.07846 0.07354,0.241502 0.204088,0.285892 0.05696,0.01975 0.173415,-0.01469 0.244567,0 0.173261,0.03799 0.32293,0.177453 0.448656,0.162762 0.199229,-0.02368 0.0985,-0.19285 0.122284,-0.325527 0.0044,-0.02647 0.01251,-0.04567 0.02276,-0.06325 A 11.636253,11.636253 0 0 0 25.930755,9.4287335 c -0.02809,0.04498 -0.06054,0.07976 -0.110487,0.07084 -0.01033,-0.06231 0.02566,-0.11485 0.03457,-0.177102 a 11.636253,11.636253 0 0 0 -0.285035,-0.39889 c -0.05767,-0.03139 -0.113876,-0.05709 -0.157695,-0.07674 -0.07357,-0.03313 -0.137643,-0.08769 -0.204089,-0.122284 -0.116319,-0.06415 -0.337021,-0.193196 -0.408174,-0.285891 -0.08545,-0.113487 -0.179346,-0.336165 -0.366852,-0.326372 z M 9.8398909,8.2253005 c -0.0304,0.0031 -0.06476,0.0093 -0.09446,0.0093 -0.0594,0 -0.109031,-0.0033 -0.163608,0 -0.03799,0.0033 -0.0908,-0.0049 -0.122283,0 -0.03133,0.0049 -0.07921,0.01009 -0.08181,0.03964 0.123425,0.05826 0.492462,0.116869 0.530459,-0.03964 -0.01191,-0.01234 -0.03791,-0.01234 -0.06831,-0.0093 z m 14.6512931,0.278301 c 0.0035,-0.0031 0.0082,-4.23e-4 0.02362,0.01687 0.0144,0.09968 0.01324,0.169489 -0.04132,0.204088 -0.11632,-0.02121 -0.07833,-0.179446 0,-0.204088 0.01178,-0.0049 0.0144,-0.01376 0.0177,-0.01687 z m -15.4204161,0.01097 c -0.02022,0.0019 -0.03969,0.0059 -0.05988,0.0059 v 0.0025 c -0.121059,0 -0.303729,0.02984 -0.408175,0.03964 -0.08068,0.01191 -0.182654,-0.0011 -0.163609,0.122283 0.01661,0.09825 0.155199,0.06918 0.245412,0.03964 0.189893,-0.05921 0.339509,-0.111392 0.448654,-0.204088 -0.02128,-0.0073 -0.04219,-0.0078 -0.0624,-0.0059 z m 15.3622261,0.33227 c 0.113993,-0.03109 0.208762,0.07881 0.163607,0.325528 -0.03798,0.09825 -0.209907,0.186675 -0.285891,0.03964 0.02611,-0.115967 0.0026,-0.192851 0,-0.325528 0.04009,-0.04275 0.08429,-0.02985 0.122284,-0.03964 z m 1.060919,0.651899 c 0.104421,0.0049 0.15905,0 0.244565,0 -0.03315,0.09031 -0.01062,0.233505 -0.0818,0.285891 -0.197013,-0.03553 -0.360791,-0.06145 -0.448656,-0.204087 0.0617,-0.04683 0.140117,-0.08586 0.244569,-0.08096 z M 5.6164589,11.358299 c -0.05338,0.121419 -0.102378,0.245171 -0.151801,0.368538 0.04851,-0.123697 0.09912,-0.246561 0.151801,-0.368538 z m -0.425042,1.117421 c -0.03376,0.104213 -0.06357,0.209932 -0.09445,0.315408 0.03001,-0.105573 0.0615,-0.210719 0.09445,-0.315408 z m -0.391308,2.130268 a 11.636253,11.636253 0 0 0 -0.09361,1.394037 11.636253,11.636253 0 0 0 5.3265171,9.763312 c 0.01012,-0.07427 0.02931,-0.166939 0.03794,-0.231917 0.0142,-0.130284 -0.0167,-0.380963 -0.04047,-0.48998 -0.02848,-0.137673 -0.1875081,-0.258688 -0.2040871,-0.408173 -0.0072,-0.0543 0.08705,-0.134706 0.08181,-0.203245 -0.0047,-0.06412 -0.0753,-0.09001 -0.08181,-0.163608 -0.0052,-0.06858 -0.0065,-0.16411 0,-0.244567 0.01175,-0.14952 -0.0026,-0.30246 0,-0.449499 0.0026,-0.04289 0,-0.118385 0,-0.162771 0,-0.123374 -0.03398,-0.202995 -0.04049,-0.326371 -0.0091,-0.225601 0.03563,-0.403535 0,-0.612262 -0.02833,-0.158888 -0.06536,-0.389423 -0.122282,-0.489135 -0.06407,-0.111505 -0.322798,-0.255382 -0.448656,-0.326371 -0.08307,-0.04733 -0.155199,-0.07789 -0.245411,-0.122284 -0.192259,-0.09473 -0.607838,-0.296694 -0.693222,-0.489135 -0.02378,-0.05676 0.0261,-0.183723 0,-0.245411 -0.05222,-0.12336 -0.207556,-0.209002 -0.285892,-0.325523 -0.147137,-0.225455 -0.217321,-0.504605 -0.366851,-0.734547 -0.07595,-0.118429 -0.161531,-0.233677 -0.244568,-0.326373 -0.04986,-0.0543 -0.185139,-0.121193 -0.204087,-0.204086 -0.02598,-0.111535 -0.134033,-0.283948 -0.122283,-0.366851 0.01661,-0.114041 0.244569,-0.139957 0.244569,-0.244569 0,-0.08775 -0.0985,-0.170967 -0.122283,-0.244566 -0.05944,-0.183075 0.051,-0.297565 0.122283,-0.4495 0.02126,-0.0499 0.0167,-0.128157 0.04047,-0.162771 0.04282,-0.06412 0.106681,-0.09261 0.163607,-0.163607 0.03303,-0.03799 0.07961,-0.106812 0.122282,-0.163609 0.0902,-0.11892 0.247899,-0.176876 0.285891,-0.285891 0.0308,-0.08778 0.03563,-0.505703 0,-0.652742 -0.02128,-0.0853 -0.09234,-0.164113 -0.123131,-0.244568 -0.05461,-0.144592 -0.09741,-0.329652 -0.244567,-0.32637 -0.09263,0 -0.144674,0.09947 -0.204088,0.163607 -0.01404,0.0853 -0.03442,0.219926 -0.122282,0.244567 -0.135305,0.04046 -0.169717,-0.195282 -0.326372,-0.244567 -0.06175,-0.01975 -0.122401,0.01469 -0.162763,0 -0.113925,-0.0523 -0.164863,-0.219307 -0.285891,-0.285893 -0.09971,-0.05482 -0.224137,-0.07987 -0.285891,-0.162771 -0.02376,-0.05674 0.0065,-0.128044 0,-0.204086 -0.130558,-0.076 -0.214935,-0.341591 -0.366852,-0.408175 -0.09968,-0.04684 -0.282317,-0.03657 -0.408175,-0.08096 -0.05927,-0.01877 -0.101012,-0.07202 -0.162763,-0.08181 -0.07592,-0.01485 -0.144683,-0.01012 -0.204088,-0.03964 -0.08127,-0.04042 -0.14864,-0.117992 -0.212521,-0.197341 z m -0.10626,0.201558 c -0.0057,0.04772 -0.0107,0.09567 -0.01603,0.143368 0.005,-0.04782 0.0104,-0.09562 0.01603,-0.143368 z m 4.521129,0.893095 c -0.08539,0.04046 -0.08787,0.1734 0,0.163607 0.09256,-0.01436 0.113975,-0.215993 0,-0.163607 z m 0.77587,10.211968 c -2.230625,1.070444 -4.461252,2.140889 0,0 z"
       style="opacity:0.64099995;fill:#d0d0d0;stroke-width:0.60454422"
       inkscape:label="#1" />
  </g>
</svg>
