<?xml version="1.0" encoding="UTF-8" standalone="no"?>
<!-- Created with Inkscape (http://www.inkscape.org/) -->

<svg
     xmlns:dc="http://purl.org/dc/elements/1.1/"
     xmlns:cc="http://creativecommons.org/ns#"
     xmlns:rdf="http://www.w3.org/1999/02/22-rdf-syntax-ns#"
     xmlns:svg="http://www.w3.org/2000/svg"
     xmlns="http://www.w3.org/2000/svg"
     xmlns:sodipodi="http://sodipodi.sourceforge.net/DTD/sodipodi-0.dtd"
     xmlns:inkscape="http://www.inkscape.org/namespaces/inkscape"
     width="16"
     height="16"
     viewBox="0 0 16 16"
     version="1.1"
     id="svg8"
     inkscape:version="0.92+devel (fa9b7f7a5b, 2017-07-19, custom)"
     sodipodi:docname="text-x-gettext-translation.svg">
    <defs
         id="ol-defs">
        <style
             id="current-color-scheme">      .ColorScheme-Text {
        color:#d0d0d0;
        stop-color:#d0d0d0;
      }
      .ColorScheme-Background {
        color:#212121;
        stop-color:#212121;
      }
      .ColorScheme-Highlight {
        color:#0039a9;
        stop-color:#0039a9;
      }
      .ColorScheme-ViewText {
        color:#d0d0d0;
        stop-color:#d0d0d0;
      }
      .ColorScheme-ViewBackground {
        color:#19191b;
        stop-color:#19191b;
      }
      .ColorScheme-ViewHover {
        color:#005cc7;
        stop-color:#005cc7;
      }
      .ColorScheme-ViewFocus{
        color:#002466;
        stop-color:#002466;
      }
      .ColorScheme-ButtonText {
        color:#d0d0d0;
        stop-color:#d0d0d0;
      }
      .ColorScheme-ButtonBackground {
        color:#232323;
        stop-color:#232323;                             
      }                                                 
      .ColorScheme-ButtonHover {                        
        color:#005cc7;                                  
        stop-color:#005cc7;                             
      }                                                 
      .ColorScheme-ButtonFocus{                         
        color:#0039a9;                                  
        stop-color:#0039a9;                             
      }</style>
        <style
             id="current-color-scheme-7">      .ColorScheme-Text {
        color:#d0d0d0;
        stop-color:#d0d0d0;
      }
      .ColorScheme-Background {
        color:#212121;
        stop-color:#212121;
      }
      .ColorScheme-Highlight {
        color:#0039a9;
        stop-color:#0039a9;
      }
      .ColorScheme-ViewText {
        color:#d0d0d0;
        stop-color:#d0d0d0;
      }
      .ColorScheme-ViewBackground {
        color:#19191b;
        stop-color:#19191b;
      }
      .ColorScheme-ViewHover {
        color:#005cc7;
        stop-color:#005cc7;
      }
      .ColorScheme-ViewFocus{
        color:#002466;
        stop-color:#002466;
      }
      .ColorScheme-ButtonText {
        color:#d0d0d0;
        stop-color:#d0d0d0;
      }
      .ColorScheme-ButtonBackground {
        color:#232323;
        stop-color:#232323;                             
      }                                                 
      .ColorScheme-ButtonHover {                        
        color:#005cc7;                                  
        stop-color:#005cc7;                             
      }                                                 
      .ColorScheme-ButtonFocus{                         
        color:#0039a9;                                  
        stop-color:#0039a9;                             
      }</style>
        <linearGradient
             gradientTransform="translate(471.31814,349.93102)"
             x2="0"
             gradientUnits="userSpaceOnUse"
             y2="365.35999"
             y1="392.35999"
             id="a">
            <stop
                 id="stop2"
                 stop-opacity="0"
                 stop-color="#ffffff" />
            <stop
                 id="stop4"
                 stop-opacity=".2"
                 stop-color="#ffffff"
                 offset="1" />
        </linearGradient>
        <linearGradient
             gradientTransform="translate(309.57,152.44)"
             x2="0"
             gradientUnits="userSpaceOnUse"
             y2="365.35999"
             y1="392.35999"
             id="linearGradient4314">
            <stop
                 id="stop4310"
                 stop-opacity="0"
                 stop-color="#ffffff" />
            <stop
                 id="stop4312"
                 stop-opacity=".2"
                 stop-color="#ffffff"
                 offset="1" />
        </linearGradient>
        <linearGradient
             gradientTransform="matrix(0.26457775,0,0,0.26457775,-3.3753991,-6.0090676)"
             gradientUnits="userSpaceOnUse"
             y2="14.09"
             x2="69.589996"
             y1="30.867001"
             x1="70.209999"
             id="0">
            <stop
                 id="stop17"
                 stop-color="#1f52b9" />
            <stop
                 id="stop19"
                 stop-color="#147bdc"
                 offset="1" />
        </linearGradient>
    </defs>
    <sodipodi:namedview
         id="base"
         pagecolor="#002266"
         bordercolor="#ffffff"
         borderopacity="0.46666667"
         inkscape:pageopacity="0"
         inkscape:pageshadow="2"
         inkscape:zoom="19.909091"
         inkscape:cx="11"
         inkscape:cy="11"
         inkscape:document-units="px"
         inkscape:current-layer="svg8"
         inkscape:document-rotation="0"
         showgrid="false"
         inkscape:showpageshadow="false"
         borderlayer="true"
         units="px"
         fit-margin-top="0"
         fit-margin-left="0"
         fit-margin-right="0"
         fit-margin-bottom="0"
         inkscape:window-width="1920"
         inkscape:window-height="1051"
         inkscape:window-x="0"
         inkscape:window-y="0"
         inkscape:window-maximized="1"
         inkscape:snap-page="true" />
    <metadata
         id="metadata5">
        <rdf:RDF>
            <cc:Work
                 rdf:about="">
                <dc:format>image/svg+xml</dc:format>
                <dc:type
                     rdf:resource="http://purl.org/dc/dcmitype/StillImage" />
                <dc:title></dc:title>
            </cc:Work>
        </rdf:RDF>
    </metadata>
    <g
         id="g4338"
         inkscape:label="#text-x-gettext-translation"
         style="stroke-width:4"
         transform="scale(0.5)">
        <rect
             inkscape:label="#boundary"
             y="0"
             x="0"
             height="32"
             width="32"
             id="rect4264"
             style="fill:none;fill-opacity:0.74651441;stroke-width:94.46399689;stroke-opacity:0.3596773" />
        <path
             inkscape:label="#1"
             inkscape:connector-curvature="0"
             id="path31"
             d="m 7.8527417,4.3636366 c -2.4204,0 -2.481311,2.0506859 -2.481311,2.0506859 V 21.43593 c 0,0 0.03038,1.822678 2.3162699,1.71681 H 16.45481 l 1.677921,4.483623 4.0198,-4.483623 h 0.128999 l -0.03507,-0.104332 0.0304,-0.03414 H 22.23508 L 21.9192,22.072381 c 0.392835,-0.305375 0.84662,-0.682253 1.315588,-1.131576 0.369085,0.384621 1.236208,1.058316 1.750007,1.432255 0.07819,0.05682 0.178504,0.07459 0.272225,0.04838 0.09324,-0.02672 0.169879,-0.09512 0.206778,-0.184963 l 0.290242,-0.709489 c 0.05828,-0.142777 0.005,-0.306841 -0.126154,-0.387942 -0.334602,-0.207851 -0.964907,-0.634379 -1.479681,-1.188488 1.129585,-1.321896 1.774193,-2.610624 1.915997,-3.831994 h 0.248514 c 0.174337,0 0.315853,-0.142462 0.315853,-0.316804 v -0.842279 c 0,-0.174342 -0.141021,-0.315853 -0.315853,-0.315853 H 23.85037 v -0.433473 c 0,-0.174831 -0.141021,-0.315853 -0.315853,-0.315853 h -0.788216 c -0.174337,0 -0.316804,0.141027 -0.316804,0.315853 v 0.433472 h -2.462341 c -0.174337,0 -0.315854,0.141027 -0.315854,0.315853 v 0.35759 L 15.974862,4.3636366 Z m 3.3103133,5.0508349 h 2.013693 c 0.158801,0 0.299097,0.103633 0.346211,0.25515 h -9.71e-4 l 2.437679,7.8650725 c 0.03397,0.110242 0.01429,0.229741 -0.0541,0.322494 -0.06799,0.09227 -0.175601,0.14702 -0.291197,0.14702 h -1.326944 c -0.160257,0 -0.30151,-0.104535 -0.347155,-0.257998 l -0.584276,-1.947295 h -2.460444 l -0.538755,1.93971 c -0.0437,0.156376 -0.18731,0.265584 -0.349998,0.265584 H 8.7585727 c -0.115095,0 -0.2227181,-0.05476 -0.2911941,-0.14702 -0.06848,-0.09275 -0.08852,-0.211791 -0.05501,-0.321548 L 10.81685,9.6705695 c 0.04662,-0.152489 0.186921,-0.256101 0.346209,-0.256098 z m 0.917212,1.4540705 -0.906779,3.479147 h 1.900821 l -0.969381,-3.479147 z m 7.836618,5.238639 c 0.0171,0.0029 0.03227,0.01045 0.05025,0.01045 h 4.715087 c -0.133055,0.851302 -0.584048,1.758342 -1.343094,2.697559 -0.483691,-0.774586 -0.794506,-1.526771 -0.971278,-2.026975 -0.04468,-0.126264 -0.164755,-0.210569 -0.298782,-0.210569 h -0.775884 c -0.10101,0 -0.195419,0.04838 -0.255149,0.12995 -0.05973,0.08159 -0.07708,0.186019 -0.04651,0.282659 0.184062,0.578873 0.607687,1.715361 1.39053,2.870199 -0.320713,0.311779 -0.632135,0.579471 -0.928601,0.824258 z"
             style="opacity:0.6;fill:#d0d0d0;stroke-width:1.99997985" />
    </g>
</svg>
