<?xml version="1.0" encoding="UTF-8" standalone="no"?>
<!-- Created with Inkscape (http://www.inkscape.org/) -->

<svg
   xmlns:dc="http://purl.org/dc/elements/1.1/"
   xmlns:cc="http://creativecommons.org/ns#"
   xmlns:rdf="http://www.w3.org/1999/02/22-rdf-syntax-ns#"
   xmlns:svg="http://www.w3.org/2000/svg"
   xmlns="http://www.w3.org/2000/svg"
   xmlns:sodipodi="http://sodipodi.sourceforge.net/DTD/sodipodi-0.dtd"
   xmlns:inkscape="http://www.inkscape.org/namespaces/inkscape"
   width="16"
   height="16"
   viewBox="0 0 16 16"
   version="1.1"
   id="svg8"
   inkscape:version="0.92+devel (bc9c9b4297, 2017-07-16, custom)"
   sodipodi:docname="text-x-go.svg">
  <defs
     id="ol-defs">
    <style
       id="current-color-scheme">      .ColorScheme-Text {
        color:#d0d0d0;
        stop-color:#d0d0d0;
      }
      .ColorScheme-Background {
        color:#212121;
        stop-color:#212121;
      }
      .ColorScheme-Highlight {
        color:#0039a9;
        stop-color:#0039a9;
      }
      .ColorScheme-ViewText {
        color:#d0d0d0;
        stop-color:#d0d0d0;
      }
      .ColorScheme-ViewBackground {
        color:#19191b;
        stop-color:#19191b;
      }
      .ColorScheme-ViewHover {
        color:#005cc7;
        stop-color:#005cc7;
      }
      .ColorScheme-ViewFocus{
        color:#002466;
        stop-color:#002466;
      }
      .ColorScheme-ButtonText {
        color:#d0d0d0;
        stop-color:#d0d0d0;
      }
      .ColorScheme-ButtonBackground {
        color:#232323;
        stop-color:#232323;                             
      }                                                 
      .ColorScheme-ButtonHover {                        
        color:#005cc7;                                  
        stop-color:#005cc7;                             
      }                                                 
      .ColorScheme-ButtonFocus{                         
        color:#0039a9;                                  
        stop-color:#0039a9;                             
      }</style>
    <style
       id="current-color-scheme-7">      .ColorScheme-Text {
        color:#d0d0d0;
        stop-color:#d0d0d0;
      }
      .ColorScheme-Background {
        color:#212121;
        stop-color:#212121;
      }
      .ColorScheme-Highlight {
        color:#0039a9;
        stop-color:#0039a9;
      }
      .ColorScheme-ViewText {
        color:#d0d0d0;
        stop-color:#d0d0d0;
      }
      .ColorScheme-ViewBackground {
        color:#19191b;
        stop-color:#19191b;
      }
      .ColorScheme-ViewHover {
        color:#005cc7;
        stop-color:#005cc7;
      }
      .ColorScheme-ViewFocus{
        color:#002466;
        stop-color:#002466;
      }
      .ColorScheme-ButtonText {
        color:#d0d0d0;
        stop-color:#d0d0d0;
      }
      .ColorScheme-ButtonBackground {
        color:#232323;
        stop-color:#232323;                             
      }                                                 
      .ColorScheme-ButtonHover {                        
        color:#005cc7;                                  
        stop-color:#005cc7;                             
      }                                                 
      .ColorScheme-ButtonFocus{                         
        color:#0039a9;                                  
        stop-color:#0039a9;                             
      }</style>
    <linearGradient
       gradientTransform="translate(471.31814,349.93102)"
       x2="0"
       gradientUnits="userSpaceOnUse"
       y2="365.35999"
       y1="392.35999"
       id="a">
      <stop
         id="stop2"
         stop-opacity="0"
         stop-color="#ffffff" />
      <stop
         id="stop4"
         stop-opacity=".2"
         stop-color="#ffffff"
         offset="1" />
    </linearGradient>
    <linearGradient
       gradientTransform="translate(309.57,152.44)"
       x2="0"
       gradientUnits="userSpaceOnUse"
       y2="365.35999"
       y1="392.35999"
       id="linearGradient4314">
      <stop
         id="stop4310"
         stop-opacity="0"
         stop-color="#ffffff" />
      <stop
         id="stop4312"
         stop-opacity=".2"
         stop-color="#ffffff"
         offset="1" />
    </linearGradient>
  </defs>
  <sodipodi:namedview
     id="base"
     pagecolor="#002266"
     bordercolor="#ffffff"
     borderopacity="0.46666667"
     inkscape:pageopacity="0"
     inkscape:pageshadow="2"
     inkscape:zoom="18.909091"
     inkscape:cx="11"
     inkscape:cy="11"
     inkscape:document-units="px"
     inkscape:current-layer="svg8"
     inkscape:document-rotation="0"
     showgrid="false"
     inkscape:showpageshadow="false"
     borderlayer="true"
     units="px"
     fit-margin-top="0"
     fit-margin-left="0"
     fit-margin-right="0"
     fit-margin-bottom="0"
     inkscape:window-width="1920"
     inkscape:window-height="1051"
     inkscape:window-x="0"
     inkscape:window-y="0"
     inkscape:window-maximized="1"
     inkscape:snap-page="true" />
  <metadata
     id="metadata5">
    <rdf:RDF>
      <cc:Work
         rdf:about="">
        <dc:format>image/svg+xml</dc:format>
        <dc:type
           rdf:resource="http://purl.org/dc/dcmitype/StillImage" />
        <dc:title></dc:title>
      </cc:Work>
    </rdf:RDF>
  </metadata>
  <g
     id="g4338"
     inkscape:label="#text-x-go"
     transform="scale(0.5)">
    <rect
       inkscape:label="#boundary"
       y="0"
       x="0"
       height="32"
       width="32"
       id="rect4264"
       style="fill:none;fill-opacity:0.74651441;stroke-width:23.61599922;stroke-opacity:0.3596773" />
    <path
       inkscape:label="#1"
       inkscape:connector-curvature="0"
       id="path851"
       d="m 10.181443,4.3636375 a 5.8181599,5.8181599 0 0 0 -5.8178065,5.8178065 5.8181599,5.8181599 0 0 0 0.014284,0.270595 3.1735418,3.1735418 0 0 0 -0.014284,0.258569 3.1735418,3.1735418 0 0 0 0.3615459,1.46723 5.8181599,5.8181599 0 0 0 5.4562606,3.822164 5.8181599,5.8181599 0 0 0 5.818556,-5.818558 5.8181599,5.8181599 0 0 0 -5.818556,-5.8178065 z m 5.818556,5.8178065 a 5.8181599,5.8181599 0 0 0 0.01426,0.271347 3.1735418,3.1735418 0 0 0 -0.01426,0.257817 3.1735418,3.1735418 0 0 0 0.361546,1.46723 5.8181599,5.8181599 0 0 0 5.45626,3.822164 5.8181599,5.8181599 0 0 0 5.818558,-5.818558 5.8181599,5.8181599 0 0 0 -5.818558,-5.8178065 5.8181599,5.8181599 0 0 0 -5.817806,5.8178065 z m 2.835993,-2.3293785 a 2.1818103,2.1818103 0 0 1 2.182053,2.1813025 2.1818103,2.1818103 0 0 1 -2.182053,2.182052 2.1818103,2.1818103 0 0 1 -2.182053,-2.182052 2.1818103,2.1818103 0 0 1 2.182053,-2.1813025 z m -11.9753593,0.0466 A 2.1818103,2.1818103 0 0 1 9.0426864,10.080722 2.1818103,2.1818103 0 0 1 6.8606327,12.262024 2.1818103,2.1818103 0 0 1 4.6793315,10.080722 2.1818103,2.1818103 0 0 1 6.8606327,7.8986685 Z M 25.082241,19.035181 c -2.20561,0.754223 -5.54903,1.193347 -9.082242,1.194378 -2.919658,-10e-4 -5.739985,-0.302727 -7.8863579,-0.846362 l -0.7088106,0.780969 c 0.9816808,0.299868 2.1125246,0.536013 3.3057775,0.720085 v 3.578627 a 3.1735418,3.1735418 0 0 0 3.173483,3.173485 3.1735418,3.1735418 0 0 0 2.645073,-1.423634 3.1735418,3.1735418 0 0 0 2.644321,1.423634 3.1735418,3.1735418 0 0 0 3.173486,-3.173485 v -3.7485 c 1.311731,-0.250677 2.506887,-0.582368 3.490683,-0.98542 z"
       style="opacity:0.6;fill:#d0d0d0;stroke-width:1.05784726" />
  </g>
</svg>
