<?xml version="1.0" encoding="UTF-8" standalone="no"?>
<svg
   xmlns:dc="http://purl.org/dc/elements/1.1/"
   xmlns:cc="http://creativecommons.org/ns#"
   xmlns:rdf="http://www.w3.org/1999/02/22-rdf-syntax-ns#"
   xmlns:svg="http://www.w3.org/2000/svg"
   xmlns="http://www.w3.org/2000/svg"
   xmlns:sodipodi="http://sodipodi.sourceforge.net/DTD/sodipodi-0.dtd"
   xmlns:inkscape="http://www.inkscape.org/namespaces/inkscape"
   height="16"
   viewBox="0 0 16 16"
   width="16"
   version="1.1"
   id="svg12"
   sodipodi:docname="amarok_cart_remove.svg"
   inkscape:version="0.92+devel (305337db3c, 2017-08-09, custom)">
  <metadata
     id="metadata16">
    <rdf:RDF>
      <cc:Work
         rdf:about="">
        <dc:format>image/svg+xml</dc:format>
        <dc:type
           rdf:resource="http://purl.org/dc/dcmitype/StillImage" />
      </cc:Work>
    </rdf:RDF>
  </metadata>
  <defs
     id="defs14" />
  <sodipodi:namedview
     id="namedview4"
     inkscape:document-rotation="0"
     showgrid="false"
     inkscape:zoom="47.0625"
     inkscape:cx="8"
     inkscape:cy="8"
     inkscape:window-width="1920"
     inkscape:window-height="1027"
     inkscape:window-x="0"
     inkscape:window-y="24"
     inkscape:window-maximized="1"
     inkscape:current-layer="svg12">
    <inkscape:grid
       id="grid2" />
  </sodipodi:namedview>
  <g
     id="g10"
     inkscape:label="#amarok_cart_remove">
    <rect
       fill="none"
       height="16"
       stroke-linecap="round"
       stroke-width="1.586777"
       width="16"
       id="rect6" />
    <path
       d="M 6.9570312 2 C 5.9903356 2 5.1894531 2.7989767 5.1894531 3.765625 V 4.84375 H 2.7871094 v 7.955078 C 2.7922994 13.463576 3.3234811 14 3.9882812 14 h 8.0234378 c .6648 0 1.199219 -.536404 1.199219 -1.201172 V 4.84375 H 10.808594 V 3.765625 C 10.808594 2.7989767 10.015523 2 9.0488281 2 Z m 0 1.1230469 h 2.0917969 c .3629052 0 .6367188 .2796912 .6367188 .6425781 V 4.84375 H 6.3203125 V 3.765625 c 0 -.3628871 .2738144 -.6425781 .6367187 -.6425781 z M 5.9411044 8.4032489 L 6.8995656 7.4447877 L 8.1839587 8.7291809 L 9.4669708 7.4461688 L 10.424051 8.4032487 L 9.1410386 9.6862608 L 10.424051 10.969273 L 9.4655895 11.927734 L 8.1825774 10.644722 L 6.9009464 11.926353 L 5.9438665 10.969273 L 7.2254975 9.6876421 Z"
       fill="#f00"
       stroke-linecap="round"
       stroke-miterlimit="26.700001"
       stroke-width="2"
       id="path8" />
  </g>
</svg>
