<?xml version="1.0" encoding="UTF-8" standalone="no"?>
<!-- Created with Inkscape (http://www.inkscape.org/) -->

<svg
   xmlns:dc="http://purl.org/dc/elements/1.1/"
   xmlns:cc="http://creativecommons.org/ns#"
   xmlns:rdf="http://www.w3.org/1999/02/22-rdf-syntax-ns#"
   xmlns:svg="http://www.w3.org/2000/svg"
   xmlns="http://www.w3.org/2000/svg"
   xmlns:sodipodi="http://sodipodi.sourceforge.net/DTD/sodipodi-0.dtd"
   xmlns:inkscape="http://www.inkscape.org/namespaces/inkscape"
   width="32"
   height="32"
   viewBox="0 0 32 32"
   version="1.1"
   id="svg8"
   inkscape:version="0.92+devel 15690 custom"
   sodipodi:docname="folder-games.svg">
  <defs
     id="ol-defs">
    <style
       id="current-color-scheme">      .ColorScheme-Text {
        color:#d0d0d0;
        stop-color:#d0d0d0;
      }
      .ColorScheme-Background {
        color:#212121;
        stop-color:#212121;
      }
      .ColorScheme-Highlight {
        color:#0039a9;
        stop-color:#0039a9;
      }
      .ColorScheme-ViewText {
        color:#d0d0d0;
        stop-color:#d0d0d0;
      }
      .ColorScheme-ViewBackground {
        color:#19191b;
        stop-color:#19191b;
      }
      .ColorScheme-ViewHover {
        color:#005cc7;
        stop-color:#005cc7;
      }
      .ColorScheme-ViewFocus{
        color:#002466;
        stop-color:#002466;
      }
      .ColorScheme-ButtonText {
        color:#d0d0d0;
        stop-color:#d0d0d0;
      }
      .ColorScheme-ButtonBackground {
        color:#232323;
        stop-color:#232323;                             
      }                                                 
      .ColorScheme-ButtonHover {                        
        color:#005cc7;                                  
        stop-color:#005cc7;                             
      }                                                 
      .ColorScheme-ButtonFocus{                         
        color:#0039a9;                                  
        stop-color:#0039a9;                             
      }</style>
    <style
       id="current-color-scheme-7">      .ColorScheme-Text {
        color:#d0d0d0;
        stop-color:#d0d0d0;
      }
      .ColorScheme-Background {
        color:#212121;
        stop-color:#212121;
      }
      .ColorScheme-Highlight {
        color:#0039a9;
        stop-color:#0039a9;
      }
      .ColorScheme-ViewText {
        color:#d0d0d0;
        stop-color:#d0d0d0;
      }
      .ColorScheme-ViewBackground {
        color:#19191b;
        stop-color:#19191b;
      }
      .ColorScheme-ViewHover {
        color:#005cc7;
        stop-color:#005cc7;
      }
      .ColorScheme-ViewFocus{
        color:#002466;
        stop-color:#002466;
      }
      .ColorScheme-ButtonText {
        color:#d0d0d0;
        stop-color:#d0d0d0;
      }
      .ColorScheme-ButtonBackground {
        color:#232323;
        stop-color:#232323;                             
      }                                                 
      .ColorScheme-ButtonHover {                        
        color:#005cc7;                                  
        stop-color:#005cc7;                             
      }                                                 
      .ColorScheme-ButtonFocus{                         
        color:#0039a9;                                  
        stop-color:#0039a9;                             
      }</style>
  </defs>
  <sodipodi:namedview
     id="base"
     pagecolor="#002266"
     bordercolor="#ffffff"
     borderopacity="0.46666667"
     inkscape:pageopacity="0"
     inkscape:pageshadow="2"
     inkscape:zoom="9.2500004"
     inkscape:cx="27.426618"
     inkscape:cy="10.781058"
     inkscape:document-units="px"
     inkscape:current-layer="svg8"
     inkscape:document-rotation="0"
     showgrid="false"
     inkscape:showpageshadow="false"
     borderlayer="true"
     units="px"
     fit-margin-top="0"
     fit-margin-left="0"
     fit-margin-right="0"
     fit-margin-bottom="0"
     inkscape:window-width="1920"
     inkscape:window-height="1051"
     inkscape:window-x="0"
     inkscape:window-y="0"
     inkscape:window-maximized="1"
     inkscape:snap-page="true" />
  <metadata
     id="metadata5">
    <rdf:RDF>
      <cc:Work
         rdf:about="">
        <dc:format>image/svg+xml</dc:format>
        <dc:type
           rdf:resource="http://purl.org/dc/dcmitype/StillImage" />
        <dc:title></dc:title>
      </cc:Work>
    </rdf:RDF>
  </metadata>
  <g
     id="g4269"
     inkscape:label="#folder-games"
     transform="scale(0.5)">
    <rect
       inkscape:label="#boundary"
       y="0"
       x="0"
       height="64"
       width="64"
       id="rect4266"
       style="fill:none;fill-opacity:0.74651441;stroke-width:23.61599922;stroke-opacity:0.3596773"
       sodipodi:insensitive="true" />
    <g
       inkscape:label="#glyph"
       id="g4331"
       transform="matrix(2.3272727,0,0,2.3272727,6.4000003,6.5368552)">
      <path
         style="vector-effect:none;fill:#4d4d4d;stroke-width:2.32727265;stroke-linecap:round;stroke-linejoin:round"
         d="m 6.4003906,16.333984 v 2.328125 16.746094 16.300781 c 0,1.289309 1.0368628,2.328125 2.3261719,2.328125 H 55.273438 c 1.289309,0 2.326171,-1.038816 2.326171,-2.328125 V 18.662109 c 0,-1.289309 -1.036862,-2.328125 -2.326171,-2.328125 H 13.591797 8.7265625 Z m 16.2441404,9.53711 h 0.002 c 0.01236,3e-6 0.02484,-0.0011 0.03711,0 5.493858,0.539584 13.309392,0.544638 19.617187,0 1.678482,-0.144925 4.255089,12.831266 3.222657,16.080078 -0.498265,1.567941 -2.122386,3.195453 -3.767579,3.189453 -2.276707,-0.0076 -4.069832,-5.482319 -4.8125,-5.574219 -2.856118,-0.193435 -5.756812,-0.210247 -8.90039,0 -0.77744,0.0571 -2.537746,5.566919 -4.814453,5.574219 -1.645205,0.0055 -3.269302,-1.621512 -3.767578,-3.189453 -1.023993,-3.222264 1.534516,-16.02872 3.183593,-16.080078 z m 2.634766,2.255859 c -1.825383,-3.2e-5 -3.304673,1.479304 -3.304688,3.304688 -3.2e-5,1.825417 1.479272,3.306672 3.304688,3.30664 1.825384,-1.5e-5 3.30472,-1.481257 3.304687,-3.30664 -1.4e-5,-1.825351 -1.479336,-3.304673 -3.304687,-3.304688 z m 14.535156,0 c -1.825351,1.4e-5 -3.304673,1.479337 -3.304687,3.304688 -3.2e-5,1.825384 1.479303,3.306626 3.304687,3.30664 1.825383,-1.5e-5 3.306674,-1.481257 3.306641,-3.30664 -1.4e-5,-1.825351 -1.481291,-3.304673 -3.306641,-3.304688 z m -4.298828,5.117188 c -0.392571,-1.3e-5 -0.710951,0.318366 -0.710937,0.710937 3.3e-5,0.392538 0.318399,0.710951 0.710937,0.710938 0.392538,1.3e-5 0.710904,-0.3184 0.710937,-0.710938 1.3e-5,-0.392571 -0.318366,-0.71095 -0.710937,-0.710937 z m -6.337891,0.242187 c -0.918176,1e-5 -1.662099,0.745887 -1.662109,1.664063 9e-6,0.918176 0.743933,1.662099 1.662109,1.662109 0.918177,-9e-6 1.662101,-0.743932 1.66211,-1.662109 -10e-6,-0.918176 -0.743934,-1.664054 -1.66211,-1.664063 z m 4.88086,1.214844 c -0.392538,3.4e-5 -0.710951,0.318399 -0.710938,0.710937 -1.3e-5,0.392538 0.3184,0.710905 0.710938,0.710938 0.392571,1.3e-5 0.71095,-0.318367 0.710937,-0.710938 1.3e-5,-0.392571 -0.318366,-0.71095 -0.710937,-0.710937 z m 2.914062,0 c -0.392538,3.4e-5 -0.71095,0.318399 -0.710937,0.710937 -1.3e-5,0.392538 0.318399,0.710905 0.710937,0.710938 0.392571,1.3e-5 0.710951,-0.318367 0.710938,-0.710938 1.3e-5,-0.392571 -0.318367,-0.71095 -0.710938,-0.710937 z m -1.457031,1.458984 c -0.392571,-1.3e-5 -0.710951,0.316414 -0.710937,0.708985 3.3e-5,0.392538 0.318399,0.710949 0.710937,0.710937 0.392538,1.2e-5 0.710904,-0.318399 0.710937,-0.710937 1.3e-5,-0.392571 -0.318366,-0.708998 -0.710937,-0.708985 z"
         transform="matrix(0.42968751,0,0,0.42968751,-2.7500002,-2.808805)"
         id="rect4311"
         inkscape:connector-curvature="0" />
      <path
         style="opacity:1;vector-effect:none;fill:#31363b;fill-opacity:1;stroke-linecap:round;stroke-linejoin:round"
         d="m 1,1.4724453 c -0.554,0 -1,0.446 -1,1 V 4.2107265 H 1 3.0898438 12.707031 L 11.662109,2.4587734 C 11.378087,1.983119 11.167281,1.4724453 10.613281,1.4724453 Z"
         id="rect4313"
         inkscape:connector-curvature="0"
         inkscape:label="#tab" />
    </g>
  </g>
</svg>
