<?xml version="1.0" encoding="UTF-8" standalone="no"?>
<!-- Created with Inkscape (http://www.inkscape.org/) -->

<svg
   xmlns:dc="http://purl.org/dc/elements/1.1/"
   xmlns:cc="http://creativecommons.org/ns#"
   xmlns:rdf="http://www.w3.org/1999/02/22-rdf-syntax-ns#"
   xmlns:svg="http://www.w3.org/2000/svg"
   xmlns="http://www.w3.org/2000/svg"
   xmlns:sodipodi="http://sodipodi.sourceforge.net/DTD/sodipodi-0.dtd"
   xmlns:inkscape="http://www.inkscape.org/namespaces/inkscape"
   width="32"
   height="32"
   viewBox="0 0 32 32"
   version="1.1"
   id="svg8"
   inkscape:version="0.92+devel trunk-123-gfa70b9518d 2017-07-11 custom"
   sodipodi:docname="folder-remote.svg">
  <defs
     id="ol-defs">
    <style
       id="current-color-scheme">      .ColorScheme-Text {
        color:#d0d0d0;
        stop-color:#d0d0d0;
      }
      .ColorScheme-Background {
        color:#212121;
        stop-color:#212121;
      }
      .ColorScheme-Highlight {
        color:#0039a9;
        stop-color:#0039a9;
      }
      .ColorScheme-ViewText {
        color:#d0d0d0;
        stop-color:#d0d0d0;
      }
      .ColorScheme-ViewBackground {
        color:#19191b;
        stop-color:#19191b;
      }
      .ColorScheme-ViewHover {
        color:#005cc7;
        stop-color:#005cc7;
      }
      .ColorScheme-ViewFocus{
        color:#002466;
        stop-color:#002466;
      }
      .ColorScheme-ButtonText {
        color:#d0d0d0;
        stop-color:#d0d0d0;
      }
      .ColorScheme-ButtonBackground {
        color:#232323;
        stop-color:#232323;                             
      }                                                 
      .ColorScheme-ButtonHover {                        
        color:#005cc7;                                  
        stop-color:#005cc7;                             
      }                                                 
      .ColorScheme-ButtonFocus{                         
        color:#0039a9;                                  
        stop-color:#0039a9;                             
      }</style>
    <style
       id="current-color-scheme-7">      .ColorScheme-Text {
        color:#d0d0d0;
        stop-color:#d0d0d0;
      }
      .ColorScheme-Background {
        color:#212121;
        stop-color:#212121;
      }
      .ColorScheme-Highlight {
        color:#0039a9;
        stop-color:#0039a9;
      }
      .ColorScheme-ViewText {
        color:#d0d0d0;
        stop-color:#d0d0d0;
      }
      .ColorScheme-ViewBackground {
        color:#19191b;
        stop-color:#19191b;
      }
      .ColorScheme-ViewHover {
        color:#005cc7;
        stop-color:#005cc7;
      }
      .ColorScheme-ViewFocus{
        color:#002466;
        stop-color:#002466;
      }
      .ColorScheme-ButtonText {
        color:#d0d0d0;
        stop-color:#d0d0d0;
      }
      .ColorScheme-ButtonBackground {
        color:#232323;
        stop-color:#232323;                             
      }                                                 
      .ColorScheme-ButtonHover {                        
        color:#005cc7;                                  
        stop-color:#005cc7;                             
      }                                                 
      .ColorScheme-ButtonFocus{                         
        color:#0039a9;                                  
        stop-color:#0039a9;                             
      }</style>
  </defs>
  <sodipodi:namedview
     id="base"
     pagecolor="#002266"
     bordercolor="#ffffff"
     borderopacity="0.46666667"
     inkscape:pageopacity="0"
     inkscape:pageshadow="2"
     inkscape:zoom="8.5231058"
     inkscape:cx="23.391822"
     inkscape:cy="17.519599"
     inkscape:document-units="px"
     inkscape:current-layer="svg8"
     inkscape:document-rotation="0"
     showgrid="false"
     inkscape:showpageshadow="false"
     borderlayer="true"
     units="px"
     fit-margin-top="0"
     fit-margin-left="0"
     fit-margin-right="0"
     fit-margin-bottom="0"
     inkscape:window-width="1920"
     inkscape:window-height="1051"
     inkscape:window-x="0"
     inkscape:window-y="0"
     inkscape:window-maximized="1"
     inkscape:snap-page="true"
     inkscape:snap-object-midpoints="true"
     inkscape:snap-center="true"
     inkscape:snap-bbox="true"
     inkscape:snap-midpoints="true"
     inkscape:object-paths="true"
     inkscape:snap-intersection-paths="true" />
  <metadata
     id="metadata5">
    <rdf:RDF>
      <cc:Work
         rdf:about="">
        <dc:format>image/svg+xml</dc:format>
        <dc:type
           rdf:resource="http://purl.org/dc/dcmitype/StillImage" />
        <dc:title></dc:title>
      </cc:Work>
    </rdf:RDF>
  </metadata>
  <g
     id="g4269"
     inkscape:label="#folder-remote"
     transform="scale(0.5)">
    <rect
       inkscape:label="#boundary"
       y="0"
       x="0"
       height="64"
       width="64"
       id="rect4266"
       style="fill:none;fill-opacity:0.74651441;stroke-width:23.61599922;stroke-opacity:0.3596773"
       sodipodi:insensitive="true" />
    <path
       inkscape:connector-curvature="0"
       id="rect4311"
       d="m 54.498047,16.296875 c -0.213183,8.68e-4 -0.423577,0.01378 -0.625,0.03711 H 6.4003906 v 35.375 c -0.045047,2.037974 2.1151752,2.514773 3.7265624,2.328125 h 45.146485 c 2.037974,0.04506 2.512819,-2.115175 2.326171,-3.726562 V 18.662109 c 0.03942,-1.783227 -1.609279,-2.371312 -3.101562,-2.365234 z m -21.800781,6.083984 c 2.173499,0.0014 4.311056,0.557558 6.210937,1.613282 0.0097,0.01558 0.01836,0.03044 0.04102,0.04297 0.04698,0.02713 0.09262,0.0665 0.136719,0.08984 0.0757,0.04345 0.150615,0.106448 0.134765,0.179688 -0.02085,0.107021 -0.198364,0.100867 -0.271484,0.179687 0.01005,0.151553 -0.04882,0.123023 -0.08789,0.22461 0.02356,0.06518 0.07747,0.05647 0.08789,0.134765 -0.01293,0.08368 -0.119361,0.09336 -0.08789,0.179688 0.141069,0.10971 0.269137,0.01616 0.402344,0 0.292515,-0.03807 0.538534,0.0053 0.71875,-0.134766 -0.01353,-0.07987 0.03557,-0.122429 0.08203,-0.167969 0.08586,0.06356 0.17161,0.12768 0.255859,0.19336 -0.05682,0.02021 -0.123343,0.04263 -0.158203,0.06445 -0.07313,0.04884 -0.09609,0.124767 -0.179687,0.179687 -0.06005,0.04346 -0.206841,0.179688 -0.269531,0.179688 -0.07571,0 -0.214702,-0.06254 -0.269532,-0.04297 -0.07844,0.02172 -0.04626,0.146144 -0.134765,0.177734 -0.172368,0.0625 -0.47705,-0.168554 -0.53711,0.08984 0.07312,0.148682 0.318638,0.09874 0.449219,0.179688 0.08102,0.05423 0.201776,0.315797 0.222656,0.404297 0.02086,0.07326 0.03134,0.326116 0,0.404296 -0.08102,0.209042 -0.296841,0.184488 -0.537109,0.179688 -0.06536,0 -0.121441,0.0055 -0.181641,0 -0.404809,-0.02712 -0.803496,-0.155237 -0.986328,0.134766 0.01296,0.222072 0.04969,0.345775 0,0.539062 -0.03648,0.141141 -0.187487,0.236122 -0.179687,0.359375 0.0028,0.06249 0.119395,0.183211 0.134765,0.269531 0.01005,0.04884 -0.02095,0.137868 0,0.179688 0.06795,0.128212 0.239247,-0.02173 0.359375,0 0.114914,0.01616 0.22461,0.186313 0.22461,0.314453 0,0.09122 -0.03237,0.268912 -0.08984,0.357422 -0.114924,0.172022 -0.329602,0.130739 -0.494141,0.224609 -0.135752,0.07811 -0.188571,0.268561 -0.269531,0.404297 -0.08619,0.14599 -0.168855,0.195261 -0.134766,0.404297 -0.117507,0.232379 -0.251263,0.381751 -0.49414,0.49414 -0.07054,0.03251 -0.159309,0.08808 -0.22461,0.134766 -0.05228,0.03807 -0.106417,0.09605 -0.179687,0.179688 -0.09136,0.101994 -0.219911,0.144396 -0.269531,0.222656 -0.03676,0.06034 -0.0058,0.190584 -0.04492,0.271484 -0.05746,0.109716 -0.151489,0.202815 -0.22461,0.3125 -0.03388,0.05423 -0.09646,0.113801 -0.132812,0.181641 -0.08361,0.151554 -0.195377,0.269321 -0.179688,0.402344 0.01291,0.128212 0.171888,0.157179 0.179688,0.269531 0.0072,0.06248 -0.04762,0.111837 -0.04492,0.179687 0.0028,0.0993 0.03722,0.14638 0.04492,0.22461 0.01825,0.193306 -0.09842,0.271291 -0.134766,0.404297 -0.01824,0.0625 0.01569,0.129777 0,0.179687 -0.03131,0.09661 -0.176987,0.155021 -0.179687,0.269531 -0.0028,0.08098 0.127066,0.155023 0.134765,0.269532 0.0058,0.07811 -0.06061,0.149966 -0.04492,0.222656 0.02872,0.14114 0.294612,0.339534 0.404297,0.449219 0.148879,0.148861 0.294114,0.247928 0.359374,0.404297 0.05487,0.133059 0.07587,0.349868 0.177735,0.449218 0.0757,0.07326 0.217823,0.103748 0.314453,0.179688 0.09136,0.07057 0.217813,0.103587 0.314453,0.179687 0.159312,0.125519 0.375553,0.377805 0.628906,0.359375 0.133168,-0.01077 0.255421,-0.06434 0.404297,-0.08984 0.154087,-0.02712 0.335487,-0.105643 0.492188,-0.08984 0.120096,0.01077 0.234025,0.09794 0.359375,0.08984 0.130581,-0.0054 0.300359,-0.06958 0.449219,-0.134765 0.258564,-0.112413 0.657126,-0.324371 1.033203,-0.269531 0.287282,0.04345 0.293031,0.366557 0.49414,0.49414 0.229821,0.02173 0.401168,-0.04346 0.583985,0 0.138491,0.0325 0.301333,0.292659 0.314453,0.402344 0.01292,0.11241 -0.07415,0.200894 -0.08984,0.271484 -0.03649,0.151556 -0.06383,0.350626 -0.08984,0.447266 -0.02083,0.07541 -0.04762,0.149039 -0.04492,0.224609 0,0.06788 0.107205,0.225403 0.177735,0.314453 0.08619,0.109718 0.21193,0.193904 0.316406,0.314454 0.190655,0.219342 0.269136,0.518537 0.402344,0.808593 0.03388,0.07326 -0.03134,0.08851 0,0.179688 -0.05746,0.438703 -0.20686,0.725277 -0.494141,1.210937 -0.135752,0.156406 -0.270278,0.343604 -0.267578,0.539063 -0.01006,0.4702 0.245509,0.713681 0.224609,1.167969 -0.04702,0.610999 0.0028,0.704885 -0.04492,1.03125 0.206312,0.10433 0.104932,0.411935 0.04492,0.628906 -0.08878,0.258453 -0.174999,0.321486 -0.224609,0.49414 0.01238,0.0056 0.02313,0.0072 0.03516,0.01172 -2.400506,2.417613 -5.665321,3.77775 -9.072265,3.78125 -1.507497,-0.0055 -3.003026,-0.275389 -4.416016,-0.800781 0.02843,-0.01486 0.05537,-0.03802 0.07422,-0.07422 0.04968,-0.09122 -0.06536,-0.266192 0,-0.357422 0.04696,-0.06249 0.352598,-0.118915 0.449219,-0.134765 0.138484,-0.02173 0.281024,0.0021 0.359374,-0.04492 0.0862,-0.05477 0.195318,-0.195613 0.179688,-0.357422 -0.0072,-0.07542 -0.075,-0.111848 -0.134766,-0.179688 -0.04964,-0.05746 -0.01165,-0.126937 -0.04492,-0.179687 -0.06266,-0.09122 -0.153577,-0.1365 -0.179687,-0.269531 0.188048,-0.03807 0.44714,0.210755 0.71875,0.134765 0.127996,-0.03807 0.344207,-0.284304 0.404297,-0.404297 0.01824,-0.03807 -0.02085,-0.180609 0,-0.224609 0.02358,-0.04882 0.08194,-0.06381 0.08984,-0.08984 0.01824,-0.07057 -0.01563,-0.09078 0,-0.134765 0.04697,-0.133057 0.189208,-0.217813 0.267578,-0.314453 0.06005,-0.07327 0.12676,-0.147277 0.18164,-0.222657 0.06263,-0.08098 0.09129,-0.11111 0.132813,-0.18164 0.0392,-0.237824 -0.147304,-0.418133 -0.08984,-0.626953 0.06264,-0.235091 0.401701,-0.387159 0.628906,-0.494141 0.07828,-0.03807 0.15932,-0.111416 0.22461,-0.134766 0.156701,-0.05477 0.347882,-0.03831 0.49414,-0.08984 0.245506,-0.08853 0.329066,-0.359309 0.449219,-0.583985 0.05746,-0.104334 0.124346,-0.194051 0.134766,-0.269531 0.01005,-0.06788 -0.01293,-0.145819 0,-0.224609 0.01293,-0.0781 0.02423,-0.13881 0.04492,-0.22461 0.02875,-0.112409 0.04492,-0.323791 0.04492,-0.449218 0,-0.10414 -0.04242,-0.128807 -0.04492,-0.222657 -0.01824,-0.339349 0.09732,-0.35391 0.222656,-0.539062 0.06263,-0.09122 0.09067,-0.249313 0.134766,-0.314453 0.211542,-0.313273 0.565172,-0.466163 0.539062,-0.941407 -0.01004,-0.156944 -0.06282,-0.489652 -0.177734,-0.539062 -0.06537,-0.0271 -0.217813,-0.01224 -0.314454,-0.04492 -0.308187,-0.115103 -0.532285,-0.466127 -0.853515,-0.492187 -0.06795,-0.0036 -0.103988,0.0036 -0.179688,0 -0.12541,-0.0036 -0.263265,-0.118966 -0.404297,-0.134766 -0.08878,-0.01079 -0.262213,0.02711 -0.314453,0 -0.08102,-0.03807 -0.06968,-0.18007 -0.134765,-0.22461 -0.05229,-0.03808 -0.14366,-0.0611 -0.22461,-0.08984 -0.127994,-0.04884 -0.210494,-0.07942 -0.359375,-0.08984 -0.04697,-0.0036 -0.172429,0.0055 -0.224609,0 -0.08102,-0.01078 -0.148869,-0.08808 -0.224609,-0.134766 -0.09395,-0.05746 -0.138515,-0.09819 -0.177735,-0.179687 0.08619,-0.281795 -0.212071,-0.330158 -0.269531,-0.494141 -0.02616,-0.07596 0.02616,-0.201671 0,-0.269531 -0.03388,-0.0966 -0.117516,-0.143659 -0.224609,-0.224609 -0.188045,-0.145983 -0.359895,-0.27829 -0.628907,-0.3125 -0.120095,-0.01079 -0.26066,0.01079 -0.404297,0 -0.151472,-0.01077 -0.334311,-0.09428 -0.449218,-0.22461 -0.109741,-0.128031 -0.128,-0.254193 -0.22461,-0.314453 -0.09136,-0.05764 -0.24982,-0.07498 -0.3125,-0.134766 -0.02876,-0.02711 -0.02088,-0.07498 -0.04687,-0.134765 -0.04698,-0.09391 -0.14535,-0.110101 -0.08789,-0.224609 -0.10444,-0.05423 -0.06735,0.06523 -0.179688,0.04297 -0.101853,-0.143832 -0.174477,-0.223667 -0.404297,-0.179687 -0.104437,0.02173 -0.191696,0.176987 -0.314453,0.179687 -0.10185,0.0036 -0.181248,-0.161227 -0.314453,-0.179687 -0.101852,-0.01077 -0.243933,0.105643 -0.314453,0.08984 -0.112335,-0.02173 -0.122824,-0.156769 -0.224609,-0.224609 -0.0757,-0.04884 -0.227752,-0.180434 -0.269532,-0.177734 -0.130585,0.0036 -0.224097,0.274394 -0.404296,0.177734 -0.08877,-0.112411 0.149484,-0.118379 0.04492,-0.222656 -0.07829,-0.07811 -0.116907,0.0031 -0.179687,0.04297 -0.07312,0.04884 -0.143659,0.106025 -0.22461,0.134765 -0.180215,0.06788 -0.308186,0.06204 -0.449218,0.134766 -0.130593,0.06788 -0.14887,0.181429 -0.22461,0.314453 -0.06005,0.10972 -0.176178,0.264031 -0.267578,0.269531 -0.109753,0.0054 -0.215213,-0.137877 -0.314453,-0.179687 -0.300338,-0.130358 -0.470644,0.08774 -0.71875,0.08984 -0.229838,0.0036 -0.549482,-0.367408 -0.539062,-0.583985 0.0072,-0.133059 0.07419,-0.329637 0.08984,-0.494141 0.01292,-0.130367 0.132266,-0.239382 0.134766,-0.359374 0.0029,-0.159105 -0.254911,-0.296004 -0.359375,-0.314454 -0.245509,-0.04346 -0.574062,0.10971 -0.853516,0 -0.05229,-0.08853 0.103596,-0.138839 0.134766,-0.224609 0.01824,-0.04884 -0.01824,-0.07982 0,-0.134766 0.03132,-0.08368 0.140467,-0.136119 0.179687,-0.224609 0.02874,-0.06788 0.01633,-0.185931 0.04492,-0.269531 0.03391,-0.09391 0.126966,-0.154286 0.134766,-0.222657 0.01006,-0.08853 -0.06452,-0.211981 -0.134766,-0.269531 -0.216777,0.01078 -0.368772,0.03079 -0.49414,0.08789 -0.282054,0.128032 -0.207505,0.494984 -0.492188,0.583984 -0.0737,0.02478 -0.178487,0.04808 -0.273437,0.06836 0.178892,-0.911426 0.454891,-1.800962 0.826172,-2.652344 0.07325,0.02571 0.141364,0.06431 0.208984,0.07031 0.240279,0.01616 0.250715,-0.165254 0.449219,-0.269531 0.203719,0.02711 0.308709,-0.02173 0.49414,0 0.125411,0.01078 0.305067,0.171588 0.404297,0.179688 0.08363,0.0036 0.101258,-0.102774 0.179688,-0.08984 0.07829,0.01078 0.211499,0.175651 0.224609,0.269531 0.01291,0.117798 -0.07909,0.228524 -0.04492,0.359375 0.122826,0.125338 0.362121,0.196231 0.53711,0.269531 0.114919,-0.09391 0.01824,-0.313481 0,-0.449218 -0.0029,-0.06033 0.0072,-0.124768 0,-0.179688 -0.01295,-0.09391 -0.04297,-0.188621 -0.04297,-0.269531 0,-0.373537 0.288336,-0.527605 0.539062,-0.673828 0.107021,-0.06249 0.21848,-0.175997 0.3125,-0.222657 0.13317,-0.06519 0.204756,-0.07228 0.314453,-0.134765 0.198477,-0.11241 0.384959,-0.231773 0.539063,-0.359375 0.07053,-0.169332 -0.0072,-0.371832 0,-0.539063 0.07053,-0.04346 0.103987,0.0053 0.179687,0 0.120088,-0.02712 0.1567,-0.201651 0.22461,-0.269531 0.0392,-0.03808 0.177539,-0.04907 0.224609,-0.08984 0.120085,-0.09391 0.120096,-0.225768 0.22461,-0.267578 0.03665,-0.01078 0.122077,-0.02857 0.179687,-0.04492 0.07843,-0.02173 0.189095,-0.09078 0.314453,-0.134765 0.08102,-0.02711 0.283103,-0.01029 0.314453,-0.04297 0.0392,-0.03807 -0.01005,-0.209801 0,-0.269531 0.06264,-0.294811 0.497938,-0.304947 0.761719,-0.404297 0.182817,-0.07057 0.380263,-0.218778 0.583985,-0.179688 -0.0392,0.141139 -0.213648,0.09953 -0.179688,0.269532 0.04441,0.237811 0.320727,-0.05608 0.404297,-0.08984 0.159313,-0.06787 0.464883,-0.103588 0.673828,-0.179688 0.182824,-0.06518 0.486802,-0.193089 0.314453,-0.404296 -0.14366,-0.01078 -0.189096,0.126927 -0.314453,0.179687 -0.08619,0.01076 -0.106568,-0.03767 -0.179687,-0.04297 -0.07053,-0.0036 -0.109158,0.05769 -0.179688,0.04297 -0.07053,-0.01077 -0.169268,-0.141499 -0.179688,-0.224609 -0.02872,-0.219341 0.225674,-0.285475 0.314454,-0.447266 -0.06005,-0.198192 -0.326999,-0.01101 -0.494141,-0.08984 0.01825,-0.117258 0.0862,-0.246161 0.224609,-0.269531 0.112336,-0.01617 0.381309,0.03831 0.449219,0.08984 0.03905,0.0325 -0.01498,0.124237 0.04492,0.179687 0.06795,0.06034 0.180731,0.01079 0.269531,0 0.03133,-0.148872 -0.205797,-0.08311 -0.179687,-0.179687 0.17759,-0.1151 0.500022,-0.06165 0.716797,-0.08984 0.125412,-0.01616 0.247073,-0.119387 0.359375,-0.179687 0.104438,-0.06033 0.204756,-0.143886 0.314453,-0.04297 0.03134,0.107026 -0.07304,0.169689 -0.132813,0.224609 -0.201103,0.177593 -0.384306,0.37576 -0.541015,0.582031 0.09668,0.09392 0.244316,0.02857 0.40625,0.04492 0.06263,0.0054 0.159299,0.03206 0.224609,0.04297 0.07844,0.01079 0.159976,-0.01079 0.222656,0 0.109743,0.02711 0.114925,0.179688 0.22461,0.179688 0.17762,0 0.191764,-0.149454 0.08984,-0.269532 0.03126,-0.122645 0.08958,-0.228123 0.04492,-0.314453 -0.08103,-0.161802 -0.388667,0.02714 -0.404297,-0.179687 -0.01003,-0.130368 0.132708,-0.170092 0.179688,-0.269532 -0.02085,-0.250838 0.205797,-0.266645 0.179687,-0.49414 -0.01293,-0.09391 -0.114327,-0.09067 -0.179687,-0.179688 -0.03389,-0.04884 -0.05076,-0.145417 -0.08984,-0.179687 -0.135754,-0.115102 -0.388667,-0.09507 -0.404297,-0.314453 -0.0072,-0.130366 0.01824,-0.218738 0,-0.359375 -0.01824,-0.133061 -0.154662,-0.51105 -0.269531,-0.53711 -0.146255,-0.0325 -0.227355,0.23159 -0.402344,0.3125 -0.09395,0.04346 -0.262755,0.06449 -0.359375,0.04492 -0.06264,-0.01077 -0.171787,-0.05921 -0.179687,-0.179687 -0.0051,-0.05005 0.0064,-0.07705 0.02344,-0.103516 1.168766,-0.345175 2.380941,-0.522791 3.59961,-0.525391 z m -5.361328,1.19336 c -0.14831,0.359123 -0.496511,0.564514 -0.955079,0.552734 -0.12018,0.115104 -0.06969,0.334522 -0.134765,0.494141 -0.05488,0.133064 -0.226189,0.235519 -0.359375,0.224609 -0.09668,-0.0054 -0.269531,-0.133429 -0.269531,-0.224609 0,-0.04049 0.01994,-0.08206 0.04102,-0.123047 0.535409,-0.349217 1.09623,-0.658372 1.677735,-0.923828 z m 11.03125,0.373047 c -0.04811,0.01078 -0.09254,0.02319 -0.134766,0.04492 -0.09926,0.06033 -0.103988,0.149034 -0.179688,0.177734 -0.107023,0.03806 -0.253841,0.03816 -0.269531,0.134766 -0.01291,0.08099 0.09254,0.106467 0.08984,0.179687 -0.0392,0.09661 -0.113926,0.107384 -0.134766,0.224609 0.133169,0.216634 0.464368,0.0041 0.628907,-0.04297 0.07312,-0.02173 0.140467,0.01127 0.179687,-0.04297 0.04437,-0.07057 0.01155,-0.215103 0.04492,-0.314453 0.03665,-0.109714 0.147886,-0.08311 0.134765,-0.179688 -0.01006,-0.0966 -0.197439,-0.194877 -0.359374,-0.179687 z M 24.167969,25.65625 c 0.07723,0.110553 0.122694,0.24646 -0.03125,0.3125 -0.02387,0.0098 -0.273258,0.04522 -0.367188,0.04102 0.130546,-0.120293 0.263003,-0.238755 0.398438,-0.353516 z m 0.328125,0.402344 c 0.06266,0.0036 0.104614,0.129465 0.177734,0.134765 0.07053,0.0054 0.18275,-0.05964 0.22461,-0.04492 0.10976,0.02711 0.149534,0.233553 0.04492,0.314453 -0.08619,0.01078 -0.117057,-0.102784 -0.179687,-0.08984 -0.177601,0.0325 -0.226171,0.370285 -0.359375,0.359375 -0.12541,-0.01077 -0.217877,-0.268155 -0.08984,-0.359375 0.0028,-0.07811 -0.04847,-0.09894 -0.04297,-0.177735 0.0392,-0.04884 0.120097,-0.144318 0.22461,-0.136718 z m -0.554688,0.08398 c 0.0049,-0.002 0.0092,-0.0042 0.01563,0.0039 -0.01824,0.138452 -0.07267,0.15946 -0.179687,0.22461 -0.185431,0.11241 -0.299285,0.253609 -0.359375,0.49414 -0.01824,0.07057 -0.225653,0.287982 -0.314453,0.269532 -0.206335,-0.04346 0.08794,-0.432458 0.134765,-0.492188 0.05227,-0.06519 0.117685,-0.106437 0.177735,-0.179687 0.03119,-0.03806 0.05255,-0.09775 0.07227,-0.152344 0.04082,-0.04453 0.0816,-0.08887 0.123047,-0.132813 0.08313,-0.02467 0.211461,-0.0336 0.300781,-0.0293 v -0.002 c 0.01822,0 0.0243,-0.0019 0.0293,-0.0039 z m 17.658203,0.361328 v 0.002 c 0.206317,-0.01078 0.308314,0.234503 0.402344,0.359375 0.07829,0.101994 0.321228,0.243864 0.449219,0.314454 0.07311,0.03807 0.143659,0.09831 0.224609,0.134765 0.04821,0.02163 0.110368,0.04944 0.173828,0.08398 0.107615,0.144085 0.213004,0.290961 0.314453,0.439453 -0.0098,0.0685 -0.05047,0.126752 -0.03906,0.195312 0.05496,0.0098 0.09214,-0.02863 0.123047,-0.07813 0.33032,0.47603 0.627745,0.973892 0.890625,1.490234 -0.01128,0.01935 -0.02059,0.04119 -0.02539,0.07031 -0.02617,0.145988 0.08445,0.331362 -0.134765,0.357422 -0.138339,0.01616 -0.303497,-0.137878 -0.494141,-0.179688 -0.07829,-0.01616 -0.206861,0.02173 -0.269531,0 -0.143643,-0.04884 -0.101853,-0.228123 -0.22461,-0.314453 -0.07053,-0.04884 -0.24512,-0.121655 -0.357422,-0.134765 -0.07053,-0.0053 -0.10852,0.01079 -0.18164,0 -0.08878,-0.01078 -0.23938,-6.9e-5 -0.3125,-0.04297 -0.07053,-0.04345 -0.251251,-0.119378 -0.269531,-0.179688 -0.02873,-0.09661 0.219309,-0.233543 0.224609,-0.314453 0.0057,-0.0625 -0.07868,-0.08582 -0.0918,-0.179687 -0.01004,-0.05764 0.01296,-0.142728 0,-0.179688 -0.01824,-0.06788 -0.115563,-0.132065 -0.222656,-0.134765 -0.09409,0 -0.188581,0.04297 -0.269531,0.04297 -0.114924,0.0036 -0.350499,-0.05769 -0.494141,-0.04297 -0.08619,0.0054 -0.143659,0.03767 -0.224609,0.04297 -0.227221,0.01616 -0.361453,-0.01079 -0.539063,0 -0.127996,0.0054 -0.372059,0.07983 -0.492187,0.134766 -0.06006,0.02711 -0.103201,0.09563 -0.181641,0.134766 -0.03649,0.01616 -0.08569,0.02124 -0.132813,0.04297 -0.07312,0.03251 -0.199011,0.116806 -0.269531,0.134766 -0.101851,0.02711 -0.218871,-0.0053 -0.404297,0 -0.133167,0.0054 -0.356675,-0.01975 -0.359375,-0.177734 -0.0029,-0.2427 0.444002,-0.139821 0.673829,-0.181641 0.08618,-0.01616 0.120095,-0.119387 0.224609,-0.179688 0.04969,-0.02712 0.08794,-0.05682 0.134765,-0.08789 0.07828,-0.05477 0.21149,-0.162149 0.22461,-0.22461 0.01005,-0.05764 -0.05468,-0.137877 -0.04687,-0.179687 0.01006,-0.05477 0.109157,-0.109157 0.179687,-0.179687 0.109753,-0.109716 0.178652,-0.243864 0.314454,-0.314454 0.09136,-0.04884 0.272673,-0.06204 0.314453,-0.134765 0.01005,-0.08368 -0.0029,-0.103588 0,-0.179688 0.05746,-0.05424 0.04285,-0.07955 0.08984,-0.08984 0.141069,-0.03249 0.2847,0.05376 0.449219,0.04297 0.07053,-0.0036 0.14886,0.0059 0.224609,-0.04297 0.06266,-0.04346 0.117058,-0.103336 0.179688,-0.134766 0.06794,-0.03807 0.140929,-0.129966 0.224609,-0.134766 z m -16.058593,0.126953 c 0.03345,-0.0034 0.06306,-0.0038 0.07617,0.0098 -0.04181,0.172213 -0.448177,0.107079 -0.583985,0.04297 0.0028,-0.03246 0.05536,-0.03767 0.08984,-0.04297 0.03464,-0.0053 0.09295,0.0036 0.134765,0 0.06006,-0.0036 0.114328,0 0.179688,0 0.03268,0 0.07007,-0.0065 0.103516,-0.0098 z M 41.664062,26.9375 c -0.0036,0.0034 -0.0066,0.01228 -0.01953,0.01758 -0.08618,0.02711 -0.12799,0.201269 0,0.22461 0.06003,-0.03807 0.06077,-0.114925 0.04492,-0.22461 -0.0171,-0.01904 -0.02159,-0.02108 -0.02539,-0.01758 z m -16.96875,0.01172 c 0.02225,-0.0022 0.04495,-0.0022 0.06836,0.0059 -0.120095,0.101991 -0.283244,0.15946 -0.492188,0.22461 C 24.172224,27.21222 24.01828,27.24486 24,27.13676 c -0.02096,-0.135752 0.09287,-0.121656 0.181641,-0.134766 0.114926,-0.01078 0.314061,-0.04297 0.447265,-0.04297 v -0.0039 c 0.02221,0 0.04416,-0.0039 0.06641,-0.0059 z m 16.904297,0.365234 c -0.04181,0.01078 -0.09065,-0.0041 -0.134765,0.04297 0.0029,0.145989 0.02872,0.231774 0,0.359375 0.08361,0.161785 0.272673,0.06318 0.314453,-0.04492 0.04969,-0.271467 -0.05426,-0.391632 -0.179688,-0.357422 z m 1.166016,0.716797 -0.04492,0.002 c -0.114931,-0.0054 -0.201641,0.03636 -0.269531,0.08789 0.09668,0.156942 0.277361,0.185519 0.49414,0.224609 0.07836,-0.05764 0.05336,-0.215073 0.08984,-0.314453 -0.09409,0 -0.154637,0.0053 -0.269531,0 z m -22.769531,5.621094 c 0.07029,0.08731 0.144955,0.172327 0.234375,0.216797 0.06536,0.03246 0.141079,0.02662 0.224609,0.04297 0.06794,0.01078 0.114468,0.06919 0.179688,0.08984 0.138484,0.04884 0.339532,0.03831 0.449218,0.08984 0.167158,0.07326 0.258686,0.365589 0.402344,0.449219 0.0072,0.08367 -0.02614,0.162179 0,0.224609 0.06795,0.09122 0.204743,0.117424 0.314453,0.177734 0.13317,0.07327 0.189098,0.256904 0.314453,0.314453 0.04441,0.01616 0.111738,-0.02173 0.179688,0 0.172372,0.05423 0.210497,0.314042 0.359375,0.269532 0.09669,-0.02711 0.119325,-0.175672 0.134765,-0.269532 0.06537,-0.07057 0.122688,-0.179687 0.22461,-0.179687 0.161923,-0.0036 0.209441,0.200277 0.269531,0.359375 0.03388,0.08853 0.111356,0.175671 0.134766,0.269531 0.0392,0.16179 0.03388,0.62216 0,0.71875 -0.0418,0.119951 -0.215213,0.183601 -0.314453,0.314453 -0.04695,0.0625 -0.09842,0.137878 -0.134766,0.179688 -0.06264,0.07811 -0.132568,0.109127 -0.179688,0.179687 -0.02617,0.03809 -0.02152,0.124768 -0.04492,0.179688 -0.07844,0.167178 -0.200166,0.292699 -0.134766,0.494141 0.02617,0.08098 0.134766,0.172981 0.134766,0.269531 0,0.115108 -0.251252,0.14405 -0.269532,0.269531 -0.01293,0.09122 0.106176,0.279625 0.134766,0.402344 0.02085,0.09121 0.169759,0.164869 0.224609,0.224609 0.09137,0.101994 0.185962,0.229065 0.269532,0.359375 0.164531,0.253011 0.242398,0.56052 0.404296,0.808594 0.08619,0.12821 0.256994,0.221686 0.314454,0.357422 0.02871,0.06788 -0.02616,0.209044 0,0.271484 0.09395,0.211747 0.55017,0.432868 0.761718,0.53711 0.09926,0.04885 0.178132,0.08268 0.269532,0.134765 0.138484,0.07811 0.42365,0.23668 0.49414,0.359375 0.06263,0.109716 0.103596,0.362282 0.134766,0.53711 0.0392,0.229667 -0.01005,0.425593 0,0.673828 0.0072,0.135753 0.04492,0.223623 0.04492,0.359375 0,0.04884 0.0029,0.132487 0,0.179687 -0.0029,0.16179 0.01294,0.329619 0,0.494141 -0.0072,0.08853 -0.0057,0.194061 0,0.269531 0.0072,0.08099 0.08464,0.109147 0.08984,0.179688 0.0058,0.07542 -0.09774,0.164869 -0.08984,0.224609 0.01824,0.164482 0.193269,0.297735 0.224609,0.449219 0.02617,0.119955 0.06055,0.395708 0.04492,0.539062 -0.0095,0.0715 -0.03181,0.172186 -0.04297,0.253906 -3.649255,-2.355099 -5.854275,-6.398971 -5.859375,-10.742187 0.0036,-0.512899 0.03653,-1.02443 0.101563,-1.533203 z m 4.857422,1.203125 c 0.12541,-0.05764 0.101847,0.163887 0,0.179687 -0.09667,0.01078 -0.09395,-0.135177 0,-0.179687 z"
       style="vector-effect:none;fill:#4d4d4d;stroke-width:2.32727265;stroke-linecap:round;stroke-linejoin:round"
       inkscape:label="#1" />
    <path
       inkscape:label="#2"
       inkscape:connector-curvature="0"
       id="rect4313"
       d="m 8.727273,9.9636369 c -1.2893091,0 -2.3272727,1.0379641 -2.3272727,2.3272731 v 4.045454 H 8.727273 13.590909 35.972727 L 33.540908,12.259091 C 32.879912,11.152114 32.389309,9.9636369 31.099999,9.9636369 Z"
       style="opacity:1;vector-effect:none;fill:#31363b;fill-opacity:1;stroke-width:2.32727265;stroke-linecap:round;stroke-linejoin:round" />
  </g>
</svg>
