<?xml version="1.0" encoding="UTF-8" standalone="no"?>
<!-- Created with Inkscape (http://www.inkscape.org/) -->

<svg
   xmlns:dc="http://purl.org/dc/elements/1.1/"
   xmlns:cc="http://creativecommons.org/ns#"
   xmlns:rdf="http://www.w3.org/1999/02/22-rdf-syntax-ns#"
   xmlns:svg="http://www.w3.org/2000/svg"
   xmlns="http://www.w3.org/2000/svg"
   xmlns:sodipodi="http://sodipodi.sourceforge.net/DTD/sodipodi-0.dtd"
   xmlns:inkscape="http://www.inkscape.org/namespaces/inkscape"
   width="22"
   height="22"
   viewBox="0 0 22 22"
   version="1.1"
   id="svg8"
   inkscape:version="0.92+devel 15665 custom"
   sodipodi:docname="dolphin.svg">
  <defs
     id="defs2" />
  <sodipodi:namedview
     id="base"
     pagecolor="#002266"
     bordercolor="#ffffff"
     borderopacity="0.46666667"
     inkscape:pageopacity="0"
     inkscape:pageshadow="2"
     inkscape:zoom="12.859375"
     inkscape:cx="32"
     inkscape:cy="32"
     inkscape:document-units="px"
     inkscape:current-layer="svg8"
     inkscape:document-rotation="0"
     showgrid="false"
     inkscape:showpageshadow="false"
     borderlayer="true"
     units="px"
     fit-margin-top="0"
     fit-margin-left="0"
     fit-margin-right="0"
     fit-margin-bottom="0"
     inkscape:window-width="1920"
     inkscape:window-height="1051"
     inkscape:window-x="0"
     inkscape:window-y="0"
     inkscape:window-maximized="1"
     inkscape:snap-page="true"
     inkscape:snap-object-midpoints="true" />
  <metadata
     id="metadata5">
    <rdf:RDF>
      <cc:Work
         rdf:about="">
        <dc:format>image/svg+xml</dc:format>
        <dc:type
           rdf:resource="http://purl.org/dc/dcmitype/StillImage" />
        <dc:title></dc:title>
      </cc:Work>
    </rdf:RDF>
  </metadata>
  <g
     id="g4308"
     inkscape:label="dolphin"
     transform="scale(0.34375)">
    <rect
       style="fill:none;stroke-width:0.51700002"
       id="rect4280"
       width="64"
       height="64"
       x="0"
       y="0"
       inkscape:label="boundary"
       sodipodi:insensitive="true" />
    <path
       inkscape:label="glyph"
       style="opacity:0.6;fill:#ffffff;stroke-width:0.11824657;shape-rendering:crispEdges"
       d="m 6.487297,36.348761 c 0.450513,0.52708 1.112621,-0.237358 1.544702,-0.562501 0.38116,-0.287488 0.787059,-0.62322 1.139105,-0.787688 1.829025,-0.85469 4.623237,-0.481768 6.408858,-1.282139 0.633111,-0.283694 1.148671,-0.736674 1.781479,-0.993512 0.600854,-0.244363 1.118672,-0.06004 1.594412,0.06726 0.252765,0.06796 0.523938,0.170822 0.756223,0.250205 1.505511,0.518516 3.017305,1.081645 4.929483,1.082855 1.534624,8.38e-4 2.765098,-0.653124 3.944349,-1.08716 0.299403,-0.110313 0.701998,-0.150575 0.893904,-0.457891 -1.007032,-0.07261 -1.873614,-0.330286 -2.952583,-0.580746 -1.417214,-0.328704 -2.509728,-0.529989 -3.18296,-1.530715 0.571391,-0.253975 1.281022,-0.243503 1.919648,-0.229469 0.697227,0.01396 1.38824,0.02327 2.056119,0.03118 2.820558,0.03258 5.011799,0.486795 7.262059,1.16922 1.093142,0.331008 2.136666,0.866978 3.087751,1.305436 1.948158,0.89914 3.682951,2.123098 5.352534,3.490834 0.75613,0.619403 1.471486,1.431155 2.303834,2.181536 0.363543,0.328122 0.735627,0.699159 1.134335,1.111807 0.380066,0.392284 0.939728,0.85818 1.066145,1.233615 0.1408,0.413975 -0.007,0.915595 -0.04422,1.398154 -0.06516,0.838911 -0.07028,1.728184 0.124276,2.548128 0.252276,1.060653 0.650495,2.06964 1.268804,2.806198 0.182225,-0.227607 0.215505,-0.582934 0.275665,-0.913314 0.426961,-0.789247 1.031842,-1.605164 0.865628,-2.780994 1.590549,0.547909 4.432122,0.03491 6.141641,-0.253649 0.513838,-0.08704 1.047248,-0.113571 1.441511,-0.385931 -0.983225,-0.393867 -1.749688,-0.967167 -2.639915,-1.534951 -1.346581,-0.85818 -2.462786,-1.584149 -4.294254,-1.868844 -0.593687,-0.09216 -1.255981,-0.08867 -1.618407,-0.375388 -0.278246,-0.219459 -0.440015,-0.77684 -0.646467,-1.305363 -0.557265,-1.429641 -1.226285,-2.933825 -1.798211,-4.120593 -1.718689,-3.567704 -3.966855,-6.62553 -6.668652,-8.850306 -1.369062,-1.128307 -2.926238,-1.977528 -4.610437,-2.929451 -0.320605,-0.371455 -0.887318,-0.851711 -1.085113,-1.464085 -0.202938,-0.630481 -0.108916,-1.226448 0.212247,-1.72183 0.751802,-0.77135 2.078834,-1.052019 2.508052,-2.097591 -0.844403,-0.439924 -1.809056,-0.456238 -2.744712,-0.40306 -2.021862,0.114967 -3.862592,0.560825 -5.314715,1.389496 -0.857157,0.488983 -1.616661,1.080598 -2.390479,1.623014 -0.263935,0.184553 -0.553657,0.457984 -0.807725,0.567598 -0.647795,0.278551 -1.751061,0.142429 -2.616107,0.245853 -2.162452,0.259327 -3.528909,0.640022 -5.253462,1.190747 -0.80705,0.257559 -1.644565,0.511441 -2.336392,0.843752 -0.590801,0.284043 -1.236455,0.812566 -1.875361,1.272062 -1.009616,0.726667 -1.674773,1.365712 -2.424921,2.168201 -1.253817,1.340833 -1.932891,2.887513 -2.736404,4.595848 -0.350743,0.745703 -0.851176,1.853437 -0.75855,2.656252 -0.457053,1.034634 -1.285561,1.752597 -1.300013,3.164691 0.02793,0.04724 0.05725,0.08797 0.08727,0.123112 z"
       id="path9551-0"
       inkscape:connector-curvature="0" />
  </g>
</svg>
