<?xml version="1.0" encoding="UTF-8" standalone="no"?>
<!-- Created with Inkscape (http://www.inkscape.org/) -->

<svg
   xmlns:dc="http://purl.org/dc/elements/1.1/"
   xmlns:cc="http://creativecommons.org/ns#"
   xmlns:rdf="http://www.w3.org/1999/02/22-rdf-syntax-ns#"
   xmlns:svg="http://www.w3.org/2000/svg"
   xmlns="http://www.w3.org/2000/svg"
   xmlns:sodipodi="http://sodipodi.sourceforge.net/DTD/sodipodi-0.dtd"
   xmlns:inkscape="http://www.inkscape.org/namespaces/inkscape"
   width="22"
   height="22"
   viewBox="0 0 5.8208331 5.8208335"
   version="1.1"
   id="svg8"
   inkscape:version="0.92+devel 15739 custom"
   sodipodi:docname="align-vertical-baseline.svg">
  <defs
     id="defs2">
    <style
       id="current-color-scheme"
       type="text/css">
      .ColorScheme-Text {
        color:#f2f2f2;
      }
      </style>
  </defs>
  <sodipodi:namedview
     id="base"
     pagecolor="#002466"
     bordercolor="#ffffff"
     borderopacity="0.32156863"
     inkscape:pageopacity="1"
     inkscape:pageshadow="2"
     inkscape:zoom="19.090909"
     inkscape:cx="5.4916108"
     inkscape:cy="4.990397"
     inkscape:document-units="px"
     inkscape:current-layer="svg8"
     inkscape:document-rotation="0"
     showgrid="false"
     units="px"
     inkscape:pagecheckerboard="false"
     borderlayer="true"
     inkscape:showpageshadow="false"
     inkscape:window-width="1920"
     inkscape:window-height="1051"
     inkscape:window-x="0"
     inkscape:window-y="0"
     inkscape:window-maximized="1"
     inkscape:measure-start="0,0"
     inkscape:measure-end="0,0"
     inkscape:snap-bbox="true"
     inkscape:bbox-nodes="true"
     inkscape:snap-page="true" />
  <metadata
     id="metadata5">
    <rdf:RDF>
      <cc:Work
         rdf:about="">
        <dc:format>image/svg+xml</dc:format>
        <dc:type
           rdf:resource="http://purl.org/dc/dcmitype/StillImage" />
        <dc:title></dc:title>
        <cc:license
           rdf:resource="http://creativecommons.org/licenses/by/4.0/" />
        <dc:creator>
          <cc:Agent>
            <dc:title>PixelPimps &amp; CodePoets</dc:title>
          </cc:Agent>
        </dc:creator>
      </cc:Work>
      <cc:License
         rdf:about="http://creativecommons.org/licenses/by/4.0/">
        <cc:permits
           rdf:resource="http://creativecommons.org/ns#Reproduction" />
        <cc:permits
           rdf:resource="http://creativecommons.org/ns#Distribution" />
        <cc:requires
           rdf:resource="http://creativecommons.org/ns#Notice" />
        <cc:requires
           rdf:resource="http://creativecommons.org/ns#Attribution" />
        <cc:permits
           rdf:resource="http://creativecommons.org/ns#DerivativeWorks" />
      </cc:License>
    </rdf:RDF>
  </metadata>
  <g
     id="g4918"
     inkscape:label="#align-vertical-baseline">
    <rect
       inkscape:label="#boundary"
       y="0"
       x="0"
       height="5.8208332"
       width="5.8208332"
       id="rect4912"
       style="fill:none;stroke-width:0.26458332" />
    <g
       transform="matrix(0.72727274,0,0,0.72727274,0.79375,0.62950309)"
       inkscape:label="#1"
       id="g4910">
      <path
         style="font-style:normal;font-variant:normal;font-weight:normal;font-stretch:normal;font-size:10.58333302px;font-family:'Times New Roman';-inkscape-font-specification:'Times New Roman, Normal';font-variant-ligatures:normal;font-variant-caps:normal;font-variant-numeric:normal;font-feature-settings:normal;text-align:start;writing-mode:lr-tb;text-anchor:start;opacity:0.76499999;fill:#d0d0d0;fill-opacity:1;stroke:none;stroke-width:0.15540257"
         d="m 1.3881724,0.90172452 c -0.3398438,0 -0.60381081,0.0689631 -0.79190061,0.20688798 -0.18808977,0.1379252 -0.28213466,0.28926 -0.28213466,0.4540041 0,0.086204 0.0245799,0.1542082 0.0737396,0.2040146 0.0512966,0.049806 0.11648716,0.07471 0.19557057,0.07471 0.0812201,0 0.14641076,-0.023945 0.19557069,-0.071835 0.0512967,-0.047891 0.0769466,-0.1158957 0.0769466,-0.2040148 l -0.00642,-0.1666598 c 0,-0.084289 0.040611,-0.1589974 0.1218308,-0.2241288 0.079083,-0.065131 0.18595231,-0.097697 0.32060751,-0.097697 0.1774028,0 0.312058,0.048848 0.4039654,0.1465457 0.094044,0.097697 0.141067,0.2777654 0.141067,0.5402065 V 1.867202 C 1.3325995,2.0319462 0.97138168,2.1717871 0.75336837,2.286725 0.5374927,2.4016628 0.38573834,2.524263 0.29810566,2.6545258 c -0.0641221,0.093866 -0.0961825,0.2049725 -0.0961825,0.3333196 0,0.2030567 0.0651906,0.366843 0.19557059,0.4913591 0.13251774,0.1245159 0.30030242,0.1867739 0.50335373,0.1867739 0.13038042,0 0.25328002,-0.023945 0.36869872,-0.071836 0.076947,-0.032566 0.2661044,-0.1532503 0.5674753,-0.3620539 0.00214,0.1570815 0.034199,0.2681883 0.096182,0.3333194 0.061984,0.065132 0.1453422,0.097697 0.2500739,0.097697 0.2180132,0 0.4467134,-0.1436722 0.6861003,-0.4310167 V 3.0711756 C 2.7411352,3.1861135 2.6545711,3.256034 2.6096861,3.280937 c -0.025648,0.01341 -0.055572,0.020115 -0.089771,0.020115 -0.032061,0 -0.060916,-0.00958 -0.086563,-0.028734 C 2.4098402,3.2531611 2.3927409,3.2158066 2.3820549,3.1602526 2.37137,3.1027833 2.3660239,2.9485755 2.3660239,2.6976279 V 1.8039867 c 0,-0.2547789 -0.019236,-0.4233542 -0.057709,-0.5057263 C 2.2484694,1.1718282 2.1554933,1.07892 2.0293876,1.0195357 1.8626717,0.94099495 1.6489332,0.90172452 1.3881724,0.90172452 Z m 1.0246618,0 V 1.0080413 c 0.1090067,0.022988 0.1880898,0.049806 0.2372496,0.080457 0.034199,0.022988 0.078015,0.068004 0.1314491,0.1350519 0.070534,0.088118 0.1218308,0.1618705 0.1538916,0.2212551 L 3.9902234,3.4303554 3.7818285,3.887233 C 3.7048815,4.057724 3.2682213,4.9578716 3.1912754,5.017256 3.1164674,5.076641 3.0470022,5.106332 2.9828805,5.106332 2.9615065,5.106332 2.9080725,5.091964 2.8225768,5.063231 2.7007461,5.021087 2.6045637,5.000015 2.5340299,5.000015 c -0.1025944,0 -0.1838148,0.023944 -0.2436617,0.071835 -0.05771,0.049806 -0.086563,0.1149376 -0.086563,0.1953942 -1e-7,0.084289 0.040611,0.1589974 0.1218308,0.2241286 0.081219,0.065131 0.1848837,0.097698 0.3109894,0.097698 0.1731281,0 0.3526683,-0.065131 0.5386206,-0.1953943 C 3.3633352,5.2634132 3.8748051,4.2856828 3.9902237,4.0309041 L 5.1860899,1.4045756 C 5.2395246,1.2838911 5.2758602,1.2101393 5.2950964,1.1833205 5.3463943,1.1201043 5.3934158,1.0770036 5.4361639,1.0540156 5.4789115,1.0310283 5.539827,1.015703 5.6189102,1.008041 V 0.90172297 H 4.6634993 V 1.0080399 c 0.091907,0 0.1560289,0.0067 0.1923645,0.020115 0.036335,0.011494 0.063052,0.027776 0.080151,0.048848 0.014962,0.017241 0.022443,0.043101 0.022443,0.077583 0,0.076625 -0.018167,0.1542081 -0.054503,0.2327488 L 4.2467095,2.8412977 3.5317545,1.5137664 c -0.070534,-0.1321787 -0.1058,-0.2356226 -0.1058,-0.3103322 0,-0.055553 0.023512,-0.1015283 0.070534,-0.1379253 0.04916,-0.038312 0.1218307,-0.057469 0.2180131,-0.057469 h 0.067328 V 0.90172266 Z M 1.8370231,2.042482 v 1.0028322 c -0.2650355,0.1915629 -0.478774,0.2873443 -0.6412152,0.2873443 -0.1196938,0 -0.22549392,-0.045017 -0.31740152,-0.1350518 -0.0919074,-0.09195 -0.13786121,-0.2068881 -0.13786121,-0.3448134 0,-0.1091908 0.0363359,-0.2097615 0.10900671,-0.3017117 C 0.92222268,2.4591308 1.0429851,2.3710124 1.2118384,2.2867248 1.3058822,2.2388341 1.5142783,2.1574197 1.8370231,2.042482 Z"
         id="path4272"
         inkscape:connector-curvature="0"
         sodipodi:nodetypes="scscsccccscscccscscccscccsccssccsccccccccscscccscccccccccccscccscscccccscsccc"
         inkscape:label="#2" />
      <path
         inkscape:connector-curvature="0"
         style="fill:#00ff00;stroke-width:0.99999994"
         d="m 0,14.900391 v 1.5 h 13.460938 c 0.303135,-0.613623 0.596635,-1.210996 0.730468,-1.5 z m 15.234375,0 -0.152344,0.333984 c -0.110617,0.244181 -0.319339,0.667217 -0.578125,1.166016 H 22 v -1.5 z"
         transform="scale(0.26458333)"
         id="rect4273"
         inkscape:label="#1" />
    </g>
  </g>
</svg>
