<?xml version="1.0" encoding="UTF-8" standalone="no"?>
<!-- Created with Inkscape (http://www.inkscape.org/) -->

<svg
   xmlns:dc="http://purl.org/dc/elements/1.1/"
   xmlns:cc="http://creativecommons.org/ns#"
   xmlns:rdf="http://www.w3.org/1999/02/22-rdf-syntax-ns#"
   xmlns:svg="http://www.w3.org/2000/svg"
   xmlns="http://www.w3.org/2000/svg"
   xmlns:sodipodi="http://sodipodi.sourceforge.net/DTD/sodipodi-0.dtd"
   xmlns:inkscape="http://www.inkscape.org/namespaces/inkscape"
   width="22"
   height="22"
   viewBox="0 0 22 22"
   version="1.1"
   id="svg8"
   inkscape:version="0.92+devel (d0390b9f4f, 2017-07-31, custom)"
   sodipodi:docname="atmosphere.svg">
  <defs
     id="ol-defs">
    <style
       id="current-color-scheme">      .ColorScheme-Text {
        color:#d0d0d0;
        stop-color:#d0d0d0;
      }
      .ColorScheme-Background {
        color:#212121;
        stop-color:#212121;
      }
      .ColorScheme-Highlight {
        color:#0039a9;
        stop-color:#0039a9;
      }
      .ColorScheme-ViewText {
        color:#d0d0d0;
        stop-color:#d0d0d0;
      }
      .ColorScheme-ViewBackground {
        color:#19191b;
        stop-color:#19191b;
      }
      .ColorScheme-ViewHover {
        color:#005cc7;
        stop-color:#005cc7;
      }
      .ColorScheme-ViewFocus{
        color:#002466;
        stop-color:#002466;
      }
      .ColorScheme-ButtonText {
        color:#d0d0d0;
        stop-color:#d0d0d0;
      }
      .ColorScheme-ButtonBackground {
        color:#232323;
        stop-color:#232323;                             
      }                                                 
      .ColorScheme-ButtonHover {                        
        color:#005cc7;                                  
        stop-color:#005cc7;                             
      }                                                 
      .ColorScheme-ButtonFocus{                         
        color:#0039a9;                                  
        stop-color:#0039a9;                             
      }</style>
    <style
       id="current-color-scheme-7">      .ColorScheme-Text {
        color:#d0d0d0;
        stop-color:#d0d0d0;
      }
      .ColorScheme-Background {
        color:#212121;
        stop-color:#212121;
      }
      .ColorScheme-Highlight {
        color:#0039a9;
        stop-color:#0039a9;
      }
      .ColorScheme-ViewText {
        color:#d0d0d0;
        stop-color:#d0d0d0;
      }
      .ColorScheme-ViewBackground {
        color:#19191b;
        stop-color:#19191b;
      }
      .ColorScheme-ViewHover {
        color:#005cc7;
        stop-color:#005cc7;
      }
      .ColorScheme-ViewFocus{
        color:#002466;
        stop-color:#002466;
      }
      .ColorScheme-ButtonText {
        color:#d0d0d0;
        stop-color:#d0d0d0;
      }
      .ColorScheme-ButtonBackground {
        color:#232323;
        stop-color:#232323;                             
      }                                                 
      .ColorScheme-ButtonHover {                        
        color:#005cc7;                                  
        stop-color:#005cc7;                             
      }                                                 
      .ColorScheme-ButtonFocus{                         
        color:#0039a9;                                  
        stop-color:#0039a9;                             
      }</style>
    <style
       type="text/css"
       id="current-color-scheme-6">
      .ColorScheme-Text {
        color:#f2f2f2;
      }
      </style>
    <style
       id="current-color-scheme-75">      .ColorScheme-Text {
        color:#d0d0d0;
        stop-color:#d0d0d0;
      }
      .ColorScheme-Background {
        color:#212121;
        stop-color:#212121;
      }
      .ColorScheme-Highlight {
        color:#0039a9;
        stop-color:#0039a9;
      }
      .ColorScheme-ViewText {
        color:#d0d0d0;
        stop-color:#d0d0d0;
      }
      .ColorScheme-ViewBackground {
        color:#19191b;
        stop-color:#19191b;
      }
      .ColorScheme-ViewHover {
        color:#005cc7;
        stop-color:#005cc7;
      }
      .ColorScheme-ViewFocus{
        color:#002466;
        stop-color:#002466;
      }
      .ColorScheme-ButtonText {
        color:#d0d0d0;
        stop-color:#d0d0d0;
      }
      .ColorScheme-ButtonBackground {
        color:#232323;
        stop-color:#232323;                             
      }                                                 
      .ColorScheme-ButtonHover {                        
        color:#005cc7;                                  
        stop-color:#005cc7;                             
      }                                                 
      .ColorScheme-ButtonFocus{                         
        color:#0039a9;                                  
        stop-color:#0039a9;                             
      }</style>
    <style
       id="current-color-scheme-7-3">      .ColorScheme-Text {
        color:#d0d0d0;
        stop-color:#d0d0d0;
      }
      .ColorScheme-Background {
        color:#212121;
        stop-color:#212121;
      }
      .ColorScheme-Highlight {
        color:#0039a9;
        stop-color:#0039a9;
      }
      .ColorScheme-ViewText {
        color:#d0d0d0;
        stop-color:#d0d0d0;
      }
      .ColorScheme-ViewBackground {
        color:#19191b;
        stop-color:#19191b;
      }
      .ColorScheme-ViewHover {
        color:#005cc7;
        stop-color:#005cc7;
      }
      .ColorScheme-ViewFocus{
        color:#002466;
        stop-color:#002466;
      }
      .ColorScheme-ButtonText {
        color:#d0d0d0;
        stop-color:#d0d0d0;
      }
      .ColorScheme-ButtonBackground {
        color:#232323;
        stop-color:#232323;                             
      }                                                 
      .ColorScheme-ButtonHover {                        
        color:#005cc7;                                  
        stop-color:#005cc7;                             
      }                                                 
      .ColorScheme-ButtonFocus{                         
        color:#0039a9;                                  
        stop-color:#0039a9;                             
      }</style>
    <style
       id="current-color-scheme-6-5"
       type="text/css">
      .ColorScheme-Text {
        color:#f2f2f2;
      }
      </style>
    <style
       id="current-color-scheme-70">      .ColorScheme-Text {
        color:#d0d0d0;
        stop-color:#d0d0d0;
      }
      .ColorScheme-Background {
        color:#212121;
        stop-color:#212121;
      }
      .ColorScheme-Highlight {
        color:#0039a9;
        stop-color:#0039a9;
      }
      .ColorScheme-ViewText {
        color:#d0d0d0;
        stop-color:#d0d0d0;
      }
      .ColorScheme-ViewBackground {
        color:#19191b;
        stop-color:#19191b;
      }
      .ColorScheme-ViewHover {
        color:#005cc7;
        stop-color:#005cc7;
      }
      .ColorScheme-ViewFocus{
        color:#002466;
        stop-color:#002466;
      }
      .ColorScheme-ButtonText {
        color:#d0d0d0;
        stop-color:#d0d0d0;
      }
      .ColorScheme-ButtonBackground {
        color:#232323;
        stop-color:#232323;                             
      }                                                 
      .ColorScheme-ButtonHover {                        
        color:#005cc7;                                  
        stop-color:#005cc7;                             
      }                                                 
      .ColorScheme-ButtonFocus{                         
        color:#0039a9;                                  
        stop-color:#0039a9;                             
      }</style>
    <style
       id="current-color-scheme-7-9">      .ColorScheme-Text {
        color:#d0d0d0;
        stop-color:#d0d0d0;
      }
      .ColorScheme-Background {
        color:#212121;
        stop-color:#212121;
      }
      .ColorScheme-Highlight {
        color:#0039a9;
        stop-color:#0039a9;
      }
      .ColorScheme-ViewText {
        color:#d0d0d0;
        stop-color:#d0d0d0;
      }
      .ColorScheme-ViewBackground {
        color:#19191b;
        stop-color:#19191b;
      }
      .ColorScheme-ViewHover {
        color:#005cc7;
        stop-color:#005cc7;
      }
      .ColorScheme-ViewFocus{
        color:#002466;
        stop-color:#002466;
      }
      .ColorScheme-ButtonText {
        color:#d0d0d0;
        stop-color:#d0d0d0;
      }
      .ColorScheme-ButtonBackground {
        color:#232323;
        stop-color:#232323;                             
      }                                                 
      .ColorScheme-ButtonHover {                        
        color:#005cc7;                                  
        stop-color:#005cc7;                             
      }                                                 
      .ColorScheme-ButtonFocus{                         
        color:#0039a9;                                  
        stop-color:#0039a9;                             
      }</style>
    <style
       id="current-color-scheme-75-3">      .ColorScheme-Text {
        color:#d0d0d0;
        stop-color:#d0d0d0;
      }
      .ColorScheme-Background {
        color:#212121;
        stop-color:#212121;
      }
      .ColorScheme-Highlight {
        color:#0039a9;
        stop-color:#0039a9;
      }
      .ColorScheme-ViewText {
        color:#d0d0d0;
        stop-color:#d0d0d0;
      }
      .ColorScheme-ViewBackground {
        color:#19191b;
        stop-color:#19191b;
      }
      .ColorScheme-ViewHover {
        color:#005cc7;
        stop-color:#005cc7;
      }
      .ColorScheme-ViewFocus{
        color:#002466;
        stop-color:#002466;
      }
      .ColorScheme-ButtonText {
        color:#d0d0d0;
        stop-color:#d0d0d0;
      }
      .ColorScheme-ButtonBackground {
        color:#232323;
        stop-color:#232323;                             
      }                                                 
      .ColorScheme-ButtonHover {                        
        color:#005cc7;                                  
        stop-color:#005cc7;                             
      }                                                 
      .ColorScheme-ButtonFocus{                         
        color:#0039a9;                                  
        stop-color:#0039a9;                             
      }</style>
    <style
       id="current-color-scheme-3">      .ColorScheme-Text {
        color:#d0d0d0;
        stop-color:#d0d0d0;
      }
      .ColorScheme-Background {
        color:#212121;
        stop-color:#212121;
      }
      .ColorScheme-Highlight {
        color:#0039a9;
        stop-color:#0039a9;
      }
      .ColorScheme-ViewText {
        color:#d0d0d0;
        stop-color:#d0d0d0;
      }
      .ColorScheme-ViewBackground {
        color:#19191b;
        stop-color:#19191b;
      }
      .ColorScheme-ViewHover {
        color:#005cc7;
        stop-color:#005cc7;
      }
      .ColorScheme-ViewFocus{
        color:#002466;
        stop-color:#002466;
      }
      .ColorScheme-ButtonText {
        color:#d0d0d0;
        stop-color:#d0d0d0;
      }
      .ColorScheme-ButtonBackground {
        color:#232323;
        stop-color:#232323;                             
      }                                                 
      .ColorScheme-ButtonHover {                        
        color:#005cc7;                                  
        stop-color:#005cc7;                             
      }                                                 
      .ColorScheme-ButtonFocus{                         
        color:#0039a9;                                  
        stop-color:#0039a9;                             
      }</style>
    <style
       type="text/css"
       id="current-color-scheme-67">
      .ColorScheme-Text {
        color:#f2f2f2;
      }
      </style>
    <style
       type="text/css"
       id="current-color-scheme-675">
      .ColorScheme-Text {
        color:#f2f2f2;
      }
      </style>
    <style
       id="current-color-scheme-753">      .ColorScheme-Text {
        color:#d0d0d0;
        stop-color:#d0d0d0;
      }
      .ColorScheme-Background {
        color:#212121;
        stop-color:#212121;
      }
      .ColorScheme-Highlight {
        color:#0039a9;
        stop-color:#0039a9;
      }
      .ColorScheme-ViewText {
        color:#d0d0d0;
        stop-color:#d0d0d0;
      }
      .ColorScheme-ViewBackground {
        color:#19191b;
        stop-color:#19191b;
      }
      .ColorScheme-ViewHover {
        color:#005cc7;
        stop-color:#005cc7;
      }
      .ColorScheme-ViewFocus{
        color:#002466;
        stop-color:#002466;
      }
      .ColorScheme-ButtonText {
        color:#d0d0d0;
        stop-color:#d0d0d0;
      }
      .ColorScheme-ButtonBackground {
        color:#232323;
        stop-color:#232323;                             
      }                                                 
      .ColorScheme-ButtonHover {                        
        color:#005cc7;                                  
        stop-color:#005cc7;                             
      }                                                 
      .ColorScheme-ButtonFocus{                         
        color:#0039a9;                                  
        stop-color:#0039a9;                             
      }</style>
    <style
       id="current-color-scheme-7535">      .ColorScheme-Text {
        color:#d0d0d0;
        stop-color:#d0d0d0;
      }
      .ColorScheme-Background {
        color:#212121;
        stop-color:#212121;
      }
      .ColorScheme-Highlight {
        color:#0039a9;
        stop-color:#0039a9;
      }
      .ColorScheme-ViewText {
        color:#d0d0d0;
        stop-color:#d0d0d0;
      }
      .ColorScheme-ViewBackground {
        color:#19191b;
        stop-color:#19191b;
      }
      .ColorScheme-ViewHover {
        color:#005cc7;
        stop-color:#005cc7;
      }
      .ColorScheme-ViewFocus{
        color:#002466;
        stop-color:#002466;
      }
      .ColorScheme-ButtonText {
        color:#d0d0d0;
        stop-color:#d0d0d0;
      }
      .ColorScheme-ButtonBackground {
        color:#232323;
        stop-color:#232323;                             
      }                                                 
      .ColorScheme-ButtonHover {                        
        color:#005cc7;                                  
        stop-color:#005cc7;                             
      }                                                 
      .ColorScheme-ButtonFocus{                         
        color:#0039a9;                                  
        stop-color:#0039a9;                             
      }</style>
  </defs>
  <sodipodi:namedview
     id="base"
     pagecolor="#002266"
     bordercolor="#ffffff"
     borderopacity="0.46666667"
     inkscape:pageopacity="0"
     inkscape:pageshadow="2"
     inkscape:zoom="27.375"
     inkscape:cx="8"
     inkscape:cy="8"
     inkscape:document-units="px"
     inkscape:current-layer="svg8"
     inkscape:document-rotation="0"
     showgrid="false"
     inkscape:showpageshadow="false"
     borderlayer="true"
     units="px"
     fit-margin-top="0"
     fit-margin-left="0"
     fit-margin-right="0"
     fit-margin-bottom="0"
     inkscape:window-width="1920"
     inkscape:window-height="1051"
     inkscape:window-x="0"
     inkscape:window-y="0"
     inkscape:window-maximized="1"
     inkscape:snap-page="true"
     guidecolor="#f4ff00"
     guideopacity="0.42745098"
     guidehicolor="#4fff00"
     guidehiopacity="0.49803922">
    <inkscape:grid
       type="xygrid"
       id="grid855"
       originx="0"
       originy="0" />
  </sodipodi:namedview>
  <metadata
     id="metadata5">
    <rdf:RDF>
      <cc:Work
         rdf:about="">
        <dc:format>image/svg+xml</dc:format>
        <dc:type
           rdf:resource="http://purl.org/dc/dcmitype/StillImage" />
        <dc:title></dc:title>
      </cc:Work>
    </rdf:RDF>
  </metadata>
  <g
     id="g854"
     inkscape:label="#atmosphere"
     transform="scale(1.375)"
     style="stroke-width:0.72727275">
    <rect
       style="vector-effect:none;fill:none;stroke-width:1.15401947;stroke-linecap:round"
       id="rect4264-9"
       width="16"
       height="16"
       x="0"
       y="0"
       inkscape:label="#boundary" />
    <path
       style="opacity:0.6;fill:#d0d0d0;stroke-width:0.30227202"
       d="m 8.3267817,2.0000019 a 5.9999417,5.9999417 0 0 0 -1.686766,0.2456874 c -0.00799,0.012405 -0.01372,0.025245 -0.01131,0.048705 0.00371,0.056453 0.055006,0.078877 0.084362,0.083926 0.045281,0.00917 0.1242567,-7.35e-5 0.1682844,-0.020437 0.082003,-0.03792 0.1206227,-0.1622085 0.1891588,-0.1469783 0.05383,0.01221 0.1175556,0.1898573 0.1261048,0.2522108 0.00856,0.065902 -0.00338,0.1071939 0,0.168285 0.00731,0.1028033 0.1259774,0.093474 0.1895925,0.1474127 0.018312,0.016058 0.02588,0.061035 0.041746,0.083926 0.030631,0.041723 0.078299,0.04035 0.084359,0.08436 0.012246,0.1066065 -0.09413,0.1137915 -0.084359,0.2313377 -0.022025,0.046597 -0.088631,0.065445 -0.083928,0.12654 0.00731,0.096921 0.1511887,0.0081 0.1891588,0.083925 0.02092,0.040458 -0.00623,0.08994 -0.020863,0.147413 0.047761,0.056269 0.041048,0.1261051 -0.042182,0.1261051 -0.051398,0 -0.053804,-0.071219 -0.1052334,-0.083925 -0.029375,-0.00505 -0.06804,0.00505 -0.1047969,0 -0.030606,-0.00513 -0.075887,-0.017915 -0.1052338,-0.020438 -0.075883,-0.00766 -0.1442864,0.023573 -0.1895925,-0.020438 0.073437,-0.096661 0.1584057,-0.1902957 0.2526463,-0.2735181 0.028007,-0.025732 0.077735,-0.05508 0.063051,-0.1052325 -0.051407,-0.047287 -0.098473,-0.00784 -0.1474128,0.020438 -0.052625,0.028258 -0.1095166,0.076787 -0.1682845,0.08436 -0.1015852,0.013215 -0.2533493,-0.012195 -0.3365708,0.041745 -0.012246,0.045254 0.099043,0.014601 0.084362,0.08436 -0.04161,0.00505 -0.0947,0.028273 -0.1265414,0 -0.028063,-0.025985 -0.00253,-0.069129 -0.020863,-0.08436 -0.031825,-0.024151 -0.1578246,-0.04932 -0.2104639,-0.041745 -0.064859,0.01095 -0.096684,0.071157 -0.1052334,0.1261051 0.078324,0.036941 0.2036324,-0.050693 0.2317748,0.04218 -0.041601,0.075817 -0.1608718,0.1072437 -0.1474129,0.2100302 0.00488,0.038944 0.050876,0.1001835 0.083928,0.1052326 0.033052,0.0069 0.051305,-0.02213 0.084359,-0.020437 0.034265,0.00253 0.043529,0.025486 0.08392,0.020437 0.058742,-0.024721 0.080093,-0.089409 0.1474127,-0.08436 0.080765,0.098975 -0.061739,0.1590471 -0.1474129,0.1895927 -0.097914,0.035662 -0.2406076,0.052118 -0.3152628,0.083926 -0.039163,0.01582 -0.1687805,0.1536252 -0.1895925,0.04218 -0.015902,-0.079663 0.065988,-0.059965 0.084359,-0.1261051 -0.095465,-0.018318 -0.1878463,0.050855 -0.2735178,0.083926 -0.1236104,0.046559 -0.3280912,0.051439 -0.3574429,0.1895925 -0.0047,0.027986 0.018368,0.108265 0,0.1261054 -0.014684,0.015316 -0.1094428,0.00773 -0.1474129,0.020437 -0.058742,0.020617 -0.1106561,0.052871 -0.147413,0.063052 -0.026986,0.00766 -0.066748,0.015389 -0.08392,0.020438 -0.048974,0.01959 -0.048957,0.082095 -0.1052334,0.1261052 -0.022054,0.019102 -0.086862,0.024341 -0.1052334,0.04218 -0.031825,0.031808 -0.048957,0.1133989 -0.1052334,0.1261052 -0.035476,0.00253 -0.050876,-0.020364 -0.083929,0 -0.00337,0.078367 0.033053,0.172859 0,0.2522106 -0.072215,0.059794 -0.1596368,0.1156082 -0.2526453,0.1682844 -0.051406,0.029284 -0.085008,0.032508 -0.1474126,0.063051 -0.04406,0.021855 -0.096826,0.075949 -0.1469775,0.1052334 -0.1174929,0.068522 -0.2526452,0.1402186 -0.2526452,0.3152631 0,0.037916 0.014811,0.082531 0.020877,0.1265415 0.00337,0.025739 -0.00135,0.055652 0,0.083925 0.00855,0.063607 0.053854,0.1664561 0,0.2104668 C 3.8959041,5.9410183 3.7832521,5.9079953 3.7256943,5.8492609 3.7096814,5.7879419 3.7526206,5.7361756 3.7465715,5.6809765 3.7404295,5.6369825 3.6780244,5.5594864 3.641339,5.5544351 3.604583,5.5483651 3.5965978,5.5983071 3.55741,5.5966141 3.51091,5.5928441 3.4265857,5.5173031 3.367817,5.5122551 c -0.086895,-0.010176 -0.1358728,0.012699 -0.2313377,0 -0.093021,0.048864 -0.097868,0.1341159 -0.2104656,0.1265417 -0.031683,-0.00277 -0.063515,-0.020579 -0.09784,-0.032612 A 5.9999417,5.9999417 0 0 0 2.4402781,6.8489664 c 0.044495,-0.0095 0.093742,-0.020579 0.1282793,-0.032179 0.1334058,-0.041704 0.099164,-0.2135197 0.2313377,-0.2735178 0.058749,-0.026759 0.1297536,-0.036697 0.2313376,-0.041746 0.03292,0.026957 0.067765,0.08462 0.063052,0.1261049 -0.00364,0.032043 -0.047165,0.061223 -0.063052,0.1052334 -0.013396,0.039181 -0.0074,0.094297 -0.020872,0.1261049 -0.018377,0.041468 -0.069684,0.066019 -0.08436,0.1052334 -0.00855,0.025739 0.00855,0.040164 0,0.063051 -0.014607,0.040198 -0.087557,0.063748 -0.063052,0.1052333 0.1309555,0.051415 0.2850098,-0.020353 0.4000578,0 0.048955,0.00865 0.169632,0.072856 0.1682853,0.1474129 -0.00115,0.056228 -0.056994,0.1067585 -0.063052,0.1678507 -0.00734,0.077088 -0.038822,0.1694183 -0.04218,0.231772 -0.0049,0.1014917 0.1445058,0.2752101 0.2522106,0.2735179 0.1162653,-0.00101 0.1958279,-0.1032719 0.33657,-0.042182 0.046508,0.019587 0.095981,0.086885 0.1474135,0.084362 0.042831,-0.00253 0.097964,-0.07469 0.1261046,-0.1261049 0.035494,-0.062337 0.044035,-0.1156053 0.1052328,-0.1474129 0.066089,-0.034081 0.1260137,-0.031244 0.2104654,-0.063051 0.037934,-0.013465 0.07097,-0.040164 0.1052326,-0.063051 0.029418,-0.01868 0.047232,-0.057044 0.083921,-0.020437 0.048999,0.048863 -0.062471,0.052121 -0.020869,0.1047968 0.084444,0.045298 0.1283984,-0.082239 0.1895925,-0.083928 0.019587,-0.00126 0.090629,0.061041 0.1261048,0.083928 0.047695,0.03179 0.052591,0.095051 0.1052334,0.1052334 0.033046,0.00739 0.099249,-0.047231 0.1469764,-0.042182 0.062422,0.00865 0.099683,0.086051 0.1474129,0.084359 0.057524,-0.00126 0.098473,-0.074177 0.1474129,-0.084359 0.1076967,-0.020608 0.141429,0.016952 0.1891588,0.084359 0.052642,0.010432 0.035419,-0.045854 0.084359,-0.020437 -0.026929,0.053659 0.01973,0.061225 0.041746,0.1052334 0.012189,0.028034 0.00782,0.050346 0.021316,0.063051 0.029375,0.028035 0.1041647,0.03604 0.1469792,0.063051 0.045272,0.028233 0.053804,0.087415 0.1052305,0.1474129 0.053847,0.061075 0.1394844,0.1001849 0.210464,0.1052334 0.067309,0.00505 0.1328797,-0.00505 0.1891587,0 0.1260624,0.016044 0.2067052,0.078568 0.294825,0.1469793 0.050185,0.037934 0.089357,0.059964 0.1052334,0.1052334 0.012274,0.031799 -0.012274,0.09051 0,0.1261048 0.02693,0.076844 0.1664957,0.099286 0.1261049,0.2313383 0.018368,0.038185 0.039903,0.05743 0.083928,0.084359 0.035493,0.021883 0.067269,0.058003 0.1052334,0.063051 0.024463,0.00253 0.083222,-0.00168 0.1052334,0 0.069767,0.00488 0.1083061,0.019304 0.1682844,0.042182 0.037933,0.013465 0.080731,0.023896 0.1052334,0.041746 0.030495,0.020863 0.025087,0.087392 0.063051,0.1052334 0.024491,0.012699 0.1058089,-0.00505 0.1474129,0 0.06609,0.0074 0.1303881,0.061361 0.1891587,0.063051 0.035476,0.00168 0.052517,-0.00168 0.084359,0 0.150531,0.012218 0.2552032,0.1774006 0.3996238,0.2313384 0.045289,0.015308 0.1167818,0.00774 0.147413,0.020437 0.053855,0.02316 0.079217,0.1790985 0.08392,0.2526465 0.012246,0.2227038 -0.153513,0.2949978 -0.2526462,0.4418018 -0.020665,0.03052 -0.033701,0.104229 -0.063051,0.146979 -0.058734,0.08677 -0.113349,0.09362 -0.1047997,0.252646 0.00118,0.04398 0.020863,0.05599 0.020863,0.104797 0,0.05878 -0.0074,0.157788 -0.020863,0.210464 -0.00969,0.04021 -0.015251,0.06863 -0.021317,0.105233 -0.00607,0.03692 0.0047,0.07343 0,0.105233 -0.00488,0.03537 -0.036124,0.07721 -0.063051,0.126105 -0.056302,0.105285 -0.095417,0.232033 -0.2104639,0.273518 -0.068539,0.02415 -0.1579039,0.01653 -0.2313383,0.04218 -0.030597,0.01094 -0.068548,0.04521 -0.1052334,0.06305 -0.1064693,0.05013 -0.2650394,0.121173 -0.294391,0.231339 -0.02693,0.09785 0.060554,0.182945 0.042182,0.294391 -0.019446,0.03305 -0.033701,0.04641 -0.063051,0.08436 -0.02571,0.03533 -0.056219,0.07046 -0.084359,0.104797 -0.036723,0.04528 -0.1040967,0.08506 -0.1261049,0.147413 -0.00731,0.02061 0.00856,0.02998 0,0.06305 -0.00371,0.01219 -0.031135,0.0193 -0.042182,0.04218 -0.00978,0.02061 0.00856,0.08739 0,0.105231 -0.028148,0.05623 -0.1291776,0.171317 -0.1891587,0.189158 -0.1272785,0.03561 -0.248451,-0.08089 -0.3365709,-0.06305 0.012246,0.06234 0.05457,0.08335 0.083928,0.126105 0.01559,0.02472 -0.00236,0.05743 0.020863,0.08436 0.028007,0.03179 0.060131,0.04859 0.06349,0.08393 0.00731,0.07583 -0.043968,0.14262 -0.084359,0.168288 -0.036714,0.02203 -0.1033909,0.01026 -0.1682844,0.02044 -0.04528,0.0074 -0.1884586,0.03377 -0.2104668,0.06305 -0.030631,0.04275 0.023273,0.125537 0,0.168284 -0.00884,0.01695 -0.021033,0.02696 -0.03435,0.03392 A 5.9999417,5.9999417 0 0 0 8.3267884,14 5.9999417,5.9999417 0 0 0 12.578274,12.22757 c -0.0056,-0.0021 -0.01117,-0.0026 -0.01695,-0.0052 0.02324,-0.08091 0.06363,-0.110225 0.10523,-0.231337 0.02812,-0.101676 0.07582,-0.245934 -0.02087,-0.294825 0.02237,-0.152938 -0.0012,-0.197226 0.02087,-0.483549 0.0098,-0.212885 -0.109944,-0.326694 -0.10523,-0.547035 -0.0013,-0.0916 0.06249,-0.179351 0.126105,-0.252646 0.134623,-0.227585 0.204412,-0.362328 0.231338,-0.5679096 -0.01469,-0.042727 0.01587,-0.050025 0,-0.084359 -0.06242,-0.1359671 -0.09981,-0.2755732 -0.18916,-0.3783589 -0.04896,-0.056489 -0.107022,-0.095998 -0.147412,-0.1474129 -0.03305,-0.041729 -0.08393,-0.1156053 -0.08393,-0.1474129 -0.0013,-0.035407 0.01112,-0.069894 0.02087,-0.1052334 0.01219,-0.045289 0.02509,-0.139011 0.04219,-0.2100302 0.0074,-0.03308 0.04824,-0.073865 0.04218,-0.1265415 -0.0061,-0.051398 -0.08252,-0.1739282 -0.147413,-0.1891587 -0.08567,-0.020353 -0.165821,0.010177 -0.273518,0 -0.09424,-0.059786 -0.09671,-0.2109742 -0.231338,-0.2313383 -0.176236,-0.02571 -0.362817,0.073429 -0.483984,0.1261049 -0.06976,0.030546 -0.149272,0.060965 -0.210464,0.063491 -0.05874,0.0038 -0.112008,-0.037134 -0.168287,-0.042182 -0.07343,-0.0074 -0.159131,0.029477 -0.231339,0.042182 -0.06977,0.011963 -0.126753,0.036698 -0.189159,0.041746 C 10.54928,8.4652135 10.448271,8.3470809 10.373613,8.288262 10.328333,8.252599 10.269015,8.237403 10.226201,8.204334 10.180921,8.168748 10.114264,8.154308 10.078788,8.119975 10.031058,8.073416 10.020578,7.9718619 9.9948678,7.909511 9.964276,7.8362344 9.8963433,7.7901092 9.8265768,7.7203514 9.7751793,7.6689539 9.650443,7.5760254 9.6369843,7.5098875 c -0.00735,-0.034064 0.024007,-0.068632 0.021315,-0.1052334 -0.0036,-0.05366 -0.064387,-0.088155 -0.063052,-0.1261049 0.00127,-0.05366 0.069247,-0.080833 0.083919,-0.1261049 0.00735,-0.023386 -0.00856,-0.055074 0,-0.084359 0.017033,-0.062328 0.071603,-0.098572 0.063052,-0.1891588 -0.0036,-0.036663 -0.01953,-0.058699 -0.020865,-0.1052334 -0.00127,-0.031799 0.02424,-0.055077 0.020865,-0.084359 -0.00367,-0.052651 -0.077867,-0.066025 -0.08392,-0.1261049 -0.00735,-0.062337 0.044738,-0.1181368 0.08392,-0.1891588 0.017033,-0.03179 0.047175,-0.058946 0.063053,-0.084359 0.034268,-0.051398 0.078307,-0.095564 0.1052332,-0.1469792 0.018338,-0.037908 0.00368,-0.098266 0.020895,-0.1265414 0.023243,-0.036672 0.083727,-0.057001 0.1265385,-0.1047968 0.03434,-0.039194 0.05942,-0.06652 0.08392,-0.084359 0.0306,-0.021884 0.07218,-0.047823 0.105234,-0.063054 0.113816,-0.052668 0.176272,-0.1228762 0.231338,-0.231772 -0.01599,-0.097957 0.02265,-0.1207445 0.06305,-0.1891587 0.03794,-0.063607 0.06292,-0.152555 0.126539,-0.1891588 0.07711,-0.043994 0.177483,-0.024604 0.231339,-0.1052334 0.02693,-0.041476 0.04218,-0.1255379 0.04218,-0.1682844 0,-0.060048 -0.05138,-0.1394033 -0.105234,-0.1469778 -0.0563,-0.010182 -0.136443,0.060082 -0.168287,0 -0.0098,-0.019599 0.0047,-0.061472 0,-0.08436 -0.0072,-0.04045 -0.06172,-0.096822 -0.06305,-0.1261052 -0.0037,-0.057759 0.06683,-0.1025799 0.08393,-0.1687201 0.0233,-0.090577 0.0061,-0.1481448 0,-0.2522106 0.08568,-0.1358983 0.272977,-0.075759 0.462677,-0.063053 0.02821,0.00253 0.05373,0 0.08436,0 0.112592,0.00229 0.214243,0.013597 0.25221,-0.08436 0.01469,-0.036638 0.0098,-0.1548255 0,-0.1891576 -0.0098,-0.041473 -0.06683,-0.1641769 -0.104797,-0.1895894 -0.06119,-0.037933 -0.176199,-0.014253 -0.210464,-0.083925 0.02815,-0.1210884 0.171436,-0.012898 0.25221,-0.04218 0.04148,-0.014803 0.0263,-0.073744 0.06305,-0.083925 0.02568,-0.00917 0.09106,0.020001 0.126541,0.020001 0.02938,0 0.09797,-0.063561 0.126105,-0.083925 0.03918,-0.025732 0.04967,-0.06147 0.08393,-0.08436 0.01633,-0.010222 0.0473,-0.020101 0.07393,-0.029573 A 5.9999417,5.9999417 0 0 0 11.779061,3.097111 c -0.02177,0.021345 -0.04461,0.040845 -0.03827,0.078272 -0.08445,0.065632 -0.199496,0.045645 -0.336571,0.063487 -0.06242,0.00757 -0.123052,0.051413 -0.189158,0 -0.01474,-0.040455 0.03569,-0.04515 0.04175,-0.08436 -0.0049,-0.03669 -0.03071,-0.032505 -0.04175,-0.063052 0.01831,-0.047602 0.04645,-0.034215 0.04175,-0.1052325 0.03427,-0.03693 0.11677,-0.034207 0.126538,-0.08436 0.0074,-0.034312 -0.02759,-0.063562 -0.06305,-0.083925 -0.02066,-0.010942 -0.04148,-0.029475 -0.06349,-0.04218 -0.01063,-0.00585 -0.01502,-0.013133 -0.01956,-0.020438 A 5.9999417,5.9999417 0 0 0 8.3267817,2.0000005 Z M 5.8142443,2.5592127 a 5.9999417,5.9999417 0 0 0 -0.786201,0.4326714 c -0.00986,0.019208 -0.019134,0.038858 -0.019134,0.057832 0,0.042728 0.080799,0.1022738 0.126105,0.1047984 0.062414,0.0051 0.143005,-0.042442 0.1687209,-0.1047984 0.030495,-0.074797 0.00675,-0.177834 0.063051,-0.2317725 0.2148916,0.00555 0.3779572,-0.090443 0.4474581,-0.2587309 z m 5.1694437,0.1748078 v 4.342e-4 c 0.07588,-0.00712 0.163573,0.03909 0.168284,0.08436 0.0061,0.045255 -0.04588,0.032513 -0.06305,0.083926 -0.01565,0.04656 -4.9e-4,0.1143428 -0.02132,0.1474126 -0.01837,0.02541 -0.04966,0.010258 -0.08392,0.020437 -0.07711,0.022051 -0.232422,0.1219538 -0.294826,0.020438 0.0098,-0.05493 0.04512,-0.059963 0.06349,-0.1052325 0.0013,-0.034312 -0.04823,-0.04641 -0.04218,-0.08436 0.0074,-0.04527 0.07595,-0.045218 0.126104,-0.063052 0.03547,-0.013448 0.03785,-0.05565 0.08436,-0.083926 0.01979,-0.010177 0.04051,-0.015389 0.06306,-0.020438 z M 4.3301162,3.5345715 A 5.9999417,5.9999417 0 0 0 4.143133,3.6998129 c 0.044018,0.00196 0.1605793,-0.014527 0.171764,-0.019134 0.072139,-0.03095 0.051414,-0.094301 0.015222,-0.1461079 z m 0.1530655,0.1882882 v 4.454e-4 c -0.048974,-0.00353 -0.086862,0.040599 -0.1052325,0.063487 -0.00253,0.036924 0.022207,0.047321 0.020877,0.083925 -0.059998,0.042747 -0.016586,0.1632357 0.042183,0.168285 0.062421,0.00509 0.08506,-0.1530544 0.1682853,-0.168285 0.029351,-0.00606 0.04353,0.04723 0.083921,0.04218 0.049024,-0.037909 0.030562,-0.1347066 -0.020869,-0.1474126 -0.019616,-0.0069 -0.072182,0.02296 -0.1052328,0.020437 -0.034265,-0.00253 -0.05457,-0.06136 -0.083929,-0.063052 z m -0.2591674,0.039136 c -0.00236,9.375e-4 -0.00581,0.00261 -0.014346,0.00261 v 8.7e-4 c -0.041855,-0.00205 -0.1014982,0.00192 -0.1404553,0.013481 a 5.9999417,5.9999417 0 0 0 -0.057835,0.062183 c -0.00924,0.025583 -0.018868,0.053047 -0.033482,0.070879 -0.028139,0.034324 -0.059425,0.053814 -0.083921,0.08436 -0.021946,0.027986 -0.1597428,0.210973 -0.063052,0.2313379 0.041611,0.00865 0.1384282,-0.09347 0.1469775,-0.1265402 0.028156,-0.1127158 0.081825,-0.1786612 0.1687204,-0.2313377 0.050152,-0.030529 0.07538,-0.040354 0.083929,-0.1052326 -0.00303,-0.00379 -0.00421,-0.00357 -0.00648,-0.00261 z M 12.498255,3.931586 c -0.03921,0.00227 -0.07339,0.045212 -0.105234,0.063052 -0.02935,0.014726 -0.05457,0.04269 -0.08393,0.063052 -0.0355,0.02289 -0.07218,0.018746 -0.105233,0.020437 -0.0771,0.00505 -0.144357,-0.035668 -0.210464,-0.020437 -0.02203,0.0048 -0.01525,0.016767 -0.04218,0.04218 -0.0014,0.035662 0.0047,0.045147 0,0.08436 -0.01959,0.03408 -0.104165,0.040165 -0.146979,0.063053 -0.06364,0.033079 -0.09598,0.095999 -0.147413,0.1474129 -0.03305,0.033053 -0.07965,0.05826 -0.08436,0.083925 -0.0037,0.01959 0.02603,0.057348 0.02132,0.08436 -0.0061,0.029267 -0.06855,0.079568 -0.105233,0.1052326 -0.02194,0.014559 -0.03977,0.029039 -0.06305,0.041745 -0.04898,0.028256 -0.06485,0.076786 -0.105234,0.08436 -0.107699,0.019599 -0.317034,-0.029375 -0.315697,0.08436 0.0013,0.074032 0.105883,0.086451 0.168284,0.083925 0.08689,-0.00253 0.141863,0.012699 0.189593,0 0.03304,-0.00842 0.09184,-0.047823 0.126105,-0.063054 0.02208,-0.010177 0.04595,-0.012869 0.06305,-0.020437 0.03676,-0.01834 0.05622,-0.050346 0.08436,-0.063053 0.0563,-0.02575 0.171357,-0.060527 0.231338,-0.063052 0.08323,-0.00505 0.145732,0.00757 0.252209,0 0.03794,-0.00253 0.06485,-0.017912 0.105233,-0.020437 0.06731,-0.0069 0.177483,0.02213 0.231339,0.020437 0.03793,0 0.08245,-0.020437 0.126541,-0.020437 0.05018,0.00127 0.09625,0.031245 0.104797,0.063052 0.0061,0.017317 -0.0047,0.057348 0,0.08436 0.0062,0.043994 0.04487,0.055077 0.04219,0.084359 -0.0025,0.037916 -0.118695,0.1017071 -0.105233,0.1469792 0.0086,0.028262 0.09349,0.063998 0.126538,0.084359 0.03427,0.020098 0.105375,0.015392 0.146979,0.020437 0.03427,0.00505 0.05131,-0.00253 0.08436,0 0.05263,0.00615 0.135233,0.040164 0.168284,0.063054 0.05753,0.040459 0.03792,0.1245232 0.105234,0.1474129 0.02937,0.010177 0.08942,-0.00757 0.126105,0 0.08934,0.019588 0.16651,0.0915 0.231338,0.083925 0.102728,-0.012218 0.05079,-0.099439 0.06305,-0.1678507 0.0023,-0.013635 0.0065,-0.023556 0.01174,-0.032612 a 5.9999417,5.9999417 0 0 0 -0.41746,-0.6983627 c -0.01448,0.023196 -0.03121,0.041125 -0.05697,0.036526 -0.0053,-0.03213 0.01324,-0.059219 0.01783,-0.091318 A 5.9999417,5.9999417 0 0 0 13.084425,4.3512108 c -0.02974,-0.016186 -0.05872,-0.029437 -0.08131,-0.039571 -0.03794,-0.017081 -0.07097,-0.045213 -0.105235,-0.063053 C 12.8379,4.2155078 12.724102,4.1489698 12.687417,4.1011742 12.643357,4.0426582 12.594937,3.9278396 12.498258,3.9328889 Z M 4.9736882,3.99116 c -0.015676,0.00158 -0.033389,0.00478 -0.048705,0.00478 -0.030632,0 -0.056219,-0.00169 -0.084362,0 -0.01959,0.0017 -0.046819,-0.00253 -0.063052,0 -0.016157,0.00253 -0.040845,0.00521 -0.042183,0.020438 0.063641,0.03004 0.2539258,0.06026 0.2735181,-0.020438 -0.00615,-0.00636 -0.019559,-0.00636 -0.035223,-0.00478 z m 7.5545708,0.143499 c 0.0018,-0.0016 0.0042,-2.221e-4 0.01219,0.0087 0.0074,0.051397 0.0068,0.087393 -0.02131,0.1052329 -0.05998,-0.010939 -0.04039,-0.092526 0,-0.1052329 0.0061,-0.00253 0.0074,-0.0071 0.0091,-0.0087 z m -7.9511498,0.00565 c -0.010426,9.6e-4 -0.020463,0.00305 -0.030874,0.00305 v 0.00131 c -0.062421,0 -0.15661,0.015389 -0.2104654,0.020437 -0.041602,0.00614 -0.094181,-5.565e-4 -0.084361,0.063053 0.00857,0.050658 0.080025,0.035668 0.1265406,0.020437 0.097914,-0.030529 0.1750592,-0.057437 0.2313374,-0.1052328 -0.010972,-0.00378 -0.021753,-0.004 -0.032178,-0.00304 z m 7.9211458,0.1713314 c 0.05878,-0.01603 0.107643,0.040636 0.08436,0.1678505 -0.01959,0.050658 -0.108233,0.096255 -0.147413,0.020437 0.01346,-0.059795 0.0014,-0.099438 0,-0.1678502 0.02066,-0.022043 0.04346,-0.015389 0.06305,-0.020437 z m 0.547036,0.3361353 c 0.05384,0.00253 0.08201,0 0.126104,0 -0.01709,0.046568 -0.0055,0.1204013 -0.04218,0.1474126 -0.101585,-0.018317 -0.186032,-0.031687 -0.231338,-0.1052325 0.03181,-0.024148 0.07225,-0.04427 0.126105,-0.041745 z M 2.7959814,5.6066107 c -0.027524,0.062606 -0.052789,0.1264167 -0.078272,0.190029 0.025013,-0.063782 0.051107,-0.1271339 0.078272,-0.190029 z M 2.5768194,6.1827808 C 2.5594144,6.2365148 2.5440414,6.2910275 2.5281164,6.345413 2.5435884,6.290976 2.5598244,6.236761 2.5768194,6.1827808 Z M 2.3750511,7.2812001 a 5.9999417,5.9999417 0 0 0 -0.048268,0.7188001 5.9999417,5.9999417 0 0 0 2.7464846,5.0342068 c 0.00521,-0.03829 0.015109,-0.08608 0.019559,-0.119583 0.00731,-0.06718 -0.00862,-0.196435 -0.020863,-0.252646 -0.014684,-0.07099 -0.096684,-0.133387 -0.1052334,-0.210464 -0.00371,-0.02801 0.044884,-0.06946 0.042182,-0.1048 -0.00244,-0.03306 -0.038826,-0.04641 -0.042182,-0.08436 -0.00269,-0.03536 -0.00338,-0.08462 0,-0.126104 0.00607,-0.0771 -0.00135,-0.155957 0,-0.231773 0.00135,-0.02211 0,-0.06104 0,-0.08393 0,-0.06362 -0.017518,-0.104669 -0.020891,-0.168284 -0.0047,-0.116326 0.018368,-0.208072 0,-0.315698 -0.014599,-0.08193 -0.033701,-0.200794 -0.063051,-0.25221 -0.033037,-0.0575 -0.1664427,-0.131679 -0.2313383,-0.168284 -0.042831,-0.0244 -0.080024,-0.04016 -0.1265397,-0.06305 -0.099133,-0.04885 -0.3134167,-0.152984 -0.3574427,-0.25221 -0.012259,-0.02927 0.013456,-0.09473 0,-0.126542 -0.02693,-0.0636 -0.1070217,-0.107766 -0.1474134,-0.167846 C 3.9442012,10.190174 3.9080128,10.046238 3.8309115,9.9276738 3.7917495,9.8666098 3.747622,9.807184 3.704806,9.7593865 3.6790982,9.7313815 3.609344,9.6968965 3.5995735,9.6541555 c -0.013396,-0.05751 -0.06911,-0.146409 -0.063052,-0.1891584 0.00857,-0.058801 0.1261055,-0.072164 0.1261055,-0.126105 0,-0.045247 -0.050792,-0.088155 -0.063052,-0.1261048 -0.030647,-0.094397 0.026297,-0.1534309 0.063052,-0.231772 0.010964,-0.025738 0.00861,-0.066081 0.020869,-0.083928 0.022079,-0.033061 0.055007,-0.047756 0.08436,-0.084359 0.01703,-0.019587 0.041047,-0.055074 0.063052,-0.084362 0.046508,-0.061319 0.127823,-0.091202 0.1474127,-0.147413 0.01588,-0.045264 0.018368,-0.2607534 0,-0.3365697 -0.010973,-0.043982 -0.047611,-0.08462 -0.06349,-0.1261048 -0.028157,-0.074554 -0.050228,-0.1699767 -0.1261045,-0.1682844 -0.047762,0 -0.074597,0.051287 -0.1052326,0.084359 -0.00724,0.043982 -0.017748,0.1134 -0.063052,0.1261049 -0.069767,0.020863 -0.08751,-0.1006923 -0.1682852,-0.1261049 -0.031842,-0.010176 -0.063113,0.00757 -0.083925,0 -0.058743,-0.026957 -0.085008,-0.1130797 -0.147413,-0.1474129 -0.051412,-0.028262 -0.1155711,-0.041182 -0.1474126,-0.083928 -0.012251,-0.029259 0.00337,-0.066022 0,-0.1052306 C 3.0060869,7.6585959 2.9625799,7.5216484 2.8842476,7.4873151 2.8328492,7.4631641 2.7386778,7.4684641 2.6737822,7.4455691 2.6432192,7.4358991 2.6216982,7.4084351 2.5898572,7.4033871 2.5507112,7.3957371 2.5152552,7.3981771 2.4846247,7.3829501 2.4427227,7.3620871 2.4079817,7.3221041 2.3750434,7.2811891 Z m -0.05479,0.1039295 c -0.00296,0.024604 -0.00552,0.049328 -0.00826,0.073924 0.0026,-0.024661 0.00536,-0.049303 0.00826,-0.073924 z m 2.3312062,0.4605009 c -0.044027,0.020863 -0.045305,0.08941 0,0.084359 0.047728,-0.00739 0.058769,-0.1113704 0,-0.084359 z m 0.4000581,5.2655455 c -1.150166,0.551947 -2.3003327,1.103895 0,0 z"
       id="path1391"
       inkscape:connector-curvature="0"
       inkscape:label="#" />
  </g>
</svg>
