<?xml version="1.0" encoding="UTF-8" standalone="no"?>
<svg
   xmlns:dc="http://purl.org/dc/elements/1.1/"
   xmlns:cc="http://creativecommons.org/ns#"
   xmlns:rdf="http://www.w3.org/1999/02/22-rdf-syntax-ns#"
   xmlns:svg="http://www.w3.org/2000/svg"
   xmlns="http://www.w3.org/2000/svg"
   xmlns:sodipodi="http://sodipodi.sourceforge.net/DTD/sodipodi-0.dtd"
   xmlns:inkscape="http://www.inkscape.org/namespaces/inkscape"
   viewBox="0 0 22 22"
   version="1.1"
   id="svg6"
   sodipodi:docname="black_sum.svg"
   inkscape:version="0.92+devel (ab74a354e7, 2017-08-02, custom)"
   width="22"
   height="22">
  <metadata
     id="metadata10">
    <rdf:RDF>
      <cc:Work
         rdf:about="">
        <dc:format>image/svg+xml</dc:format>
        <dc:type
           rdf:resource="http://purl.org/dc/dcmitype/StillImage" />
        <dc:title></dc:title>
      </cc:Work>
    </rdf:RDF>
  </metadata>
  <sodipodi:namedview
     pagecolor="#002466"
     bordercolor="#ffffff"
     inkscape:document-rotation="0"
     borderopacity="0.31764706"
     objecttolerance="10"
     gridtolerance="10"
     guidetolerance="10"
     inkscape:pageopacity="1"
     inkscape:pageshadow="2"
     inkscape:window-width="1920"
     inkscape:window-height="1051"
     id="namedview8"
     showgrid="false"
     inkscape:pagecheckerboard="false"
     borderlayer="true"
     inkscape:showpageshadow="false"
     inkscape:zoom="45.9375"
     inkscape:cx="8"
     inkscape:cy="8"
     inkscape:window-x="0"
     inkscape:window-y="0"
     inkscape:window-maximized="1"
     inkscape:current-layer="svg6"
     inkscape:snap-page="true"
     inkscape:snap-grids="false"
     inkscape:snap-to-guides="false" />
  <defs
     id="defs3051">
    <style
       type="text/css"
       id="current-color-scheme">
      .ColorScheme-Text {
        color:#f2f2f2;
      }
      </style>
  </defs>
  <g
     id="g828"
     inkscape:label="#black_sum"
     transform="scale(1.375)">
    <path
       inkscape:label="#"
       inkscape:connector-curvature="0"
       id="path4"
       d="M 1.9999993,2 C 2.0112067,2.3417678 1.9777746,2.695004 2.0163524,3.0297398 2.9273506,4.6864932 3.838349,6.3432466 4.7493473,8 3.832898,9.6666667 2.9164487,11.333333 1.9999993,13 c 0,0.333333 0,0.666667 0,1 3.9990517,0 7.9981033,0 11.9971547,0 0,-0.908323 0,-1.816645 0,-2.724968 -0.599857,0 -1.199715,0 -1.799573,0 0,0.399859 0,0.799718 0,1.199577 -2.6962356,0 -5.3924712,0 -8.0887068,0 C 4.9395841,10.98354 5.7634734,9.4886256 6.5985182,8 5.7634737,6.5113741 4.9395839,5.0164601 4.1088742,3.5253906 c 2.6962356,0 5.3924712,0 8.0887068,0 0,0.3998592 0,0.7997183 0,1.1995775 0.599858,0 1.199716,0 1.799573,0 0,-0.9083227 0,-1.8166454 0,-2.7249681 C 9.9981026,2 5.999051,2 1.9999993,2 Z"
       style="opacity:0.6;fill:#d0d0d0;fill-opacity:1;stroke:none;stroke-width:0.99988145" />
    <rect
       inkscape:label="#boundary"
       y="0"
       x="0"
       height="16"
       width="16"
       id="rect824"
       style="fill:none;stroke-width:1.29999995" />
  </g>
</svg>
