<?xml version="1.0" encoding="UTF-8" standalone="no"?>
<!-- Created with Inkscape (http://www.inkscape.org/) -->

<svg
   xmlns:dc="http://purl.org/dc/elements/1.1/"
   xmlns:cc="http://creativecommons.org/ns#"
   xmlns:rdf="http://www.w3.org/1999/02/22-rdf-syntax-ns#"
   xmlns:svg="http://www.w3.org/2000/svg"
   xmlns="http://www.w3.org/2000/svg"
   xmlns:sodipodi="http://sodipodi.sourceforge.net/DTD/sodipodi-0.dtd"
   xmlns:inkscape="http://www.inkscape.org/namespaces/inkscape"
   width="22.000002"
   height="22"
   viewBox="0 0 22.000002 22"
   version="1.1"
   id="main"
   inkscape:version="0.92+devel (327bdefa15, 2017-09-17, custom)"
   sodipodi:docname="blurimage.svg">
  <defs
     id="ol-defs" />
  <sodipodi:namedview
     id="base"
     pagecolor="#002466"
     bordercolor="#ffffff"
     borderopacity="0.30"
     inkscape:pageopacity="1"
     inkscape:pageshadow="2"
     inkscape:zoom="18.58365"
     inkscape:document-units="px"
     inkscape:current-layer="main"
     inkscape:document-rotation="0"
     showgrid="false"
     inkscape:showpageshadow="false"
     borderlayer="true"
     inkscape:window-width="1920"
     inkscape:window-height="1017"
     inkscape:window-x="0"
     inkscape:window-y="34"
     inkscape:window-maximized="1"
     units="px"
     inkscape:cx="6.823088"
     inkscape:cy="8.0269054" />
  <metadata
     id="metadata5">
    <rdf:RDF>
      <cc:Work
         rdf:about="">
        <dc:format>image/svg+xml</dc:format>
        <dc:type
           rdf:resource="http://purl.org/dc/dcmitype/StillImage" />
        <dc:title></dc:title>
      </cc:Work>
    </rdf:RDF>
  </metadata>
  <g
     id="g847"
     inkscape:label="#blurimage">
    <path
       style="fill:none;stroke:none;stroke-width:1"
       d="M 0,0 H 22.000001 V 22 H 0 Z"
       id="boundary"
       inkscape:label="#boundary"
       inkscape:connector-curvature="0" />
    <path
       inkscape:connector-curvature="0"
       inkscape:label="#"
       id="path6"
       d="M 11,3 C 10.027093,6.4050332 7.6455551,9.3322775 6.5957031,11.675781 6.2282991,12.372554 6,13.15458 6,14 c 0,2.770002 2.2299985,5 5,5 1.54485,0 2.904545,-0.708668 3.820312,-1.802734 h -3.25 c -0.390229,0 -0.705078,-0.314848 -0.705078,-0.705078 0,-0.390231 0.314849,-0.703126 0.705078,-0.703126 h 4.085938 c 0.152341,-0.398082 0.268075,-0.815621 0.314453,-1.255859 h -4.400391 c -0.390229,0 -0.705078,-0.314847 -0.705078,-0.705078 0,-0.390231 0.314849,-0.703125 0.705078,-0.703125 h 4.337891 c -0.08383,-0.441766 -0.224781,-0.861495 -0.414062,-1.255859 h -3.923829 c -0.390229,0 -0.705078,-0.314848 -0.705078,-0.705079 0,-0.390229 0.314849,-0.703126 0.705078,-0.703124 h 3.208985 C 13.598009,8.3459474 11.812199,5.8426102 11,3 Z"
       style="opacity:0.6;fill:#d0d0d0;stroke-width:1" />
  </g>
</svg>
