<?xml version="1.0" encoding="UTF-8" standalone="no"?>
<!-- Created with Inkscape (http://www.inkscape.org/) -->

<svg
   xmlns:dc="http://purl.org/dc/elements/1.1/"
   xmlns:cc="http://creativecommons.org/ns#"
   xmlns:rdf="http://www.w3.org/1999/02/22-rdf-syntax-ns#"
   xmlns:svg="http://www.w3.org/2000/svg"
   xmlns="http://www.w3.org/2000/svg"
   xmlns:sodipodi="http://sodipodi.sourceforge.net/DTD/sodipodi-0.dtd"
   xmlns:inkscape="http://www.inkscape.org/namespaces/inkscape"
   width="22.000002"
   height="22"
   viewBox="0 0 22.000002 22"
   version="1.1"
   id="main"
   inkscape:version="0.92+devel (327bdefa15, 2017-09-17, custom)"
   sodipodi:docname="category2parent.svg">
  <defs
     id="ol-defs" />
  <sodipodi:namedview
     id="base"
     pagecolor="#002466"
     bordercolor="#ffffff"
     borderopacity="0.30"
     inkscape:pageopacity="1"
     inkscape:pageshadow="2"
     inkscape:zoom="18.58365"
     inkscape:document-units="px"
     inkscape:current-layer="main"
     inkscape:document-rotation="0"
     showgrid="false"
     inkscape:showpageshadow="false"
     borderlayer="true"
     inkscape:window-width="1920"
     inkscape:window-height="1029"
     inkscape:window-x="0"
     inkscape:window-y="22"
     inkscape:window-maximized="1"
     units="px"
     inkscape:cx="6.372225"
     inkscape:cy="8.0269055" />
  <metadata
     id="metadata5">
    <rdf:RDF>
      <cc:Work
         rdf:about="">
        <dc:format>image/svg+xml</dc:format>
        <dc:type
           rdf:resource="http://purl.org/dc/dcmitype/StillImage" />
        <dc:title></dc:title>
      </cc:Work>
    </rdf:RDF>
  </metadata>
  <g
     id="g849"
     inkscape:label="#category2parent"
     style="stroke:none;stroke-width:0.72727275"
     transform="scale(1.375)">
    <path
       style="fill:none;stroke:none;stroke-width:0.72727275"
       d="M -5.5000004e-8,-4.9999999e-8 H 16.000001 V 16 H -5.5000004e-8 Z"
       id="boundary"
       inkscape:label="#boundary"
       inkscape:connector-curvature="0" />
    <path
       inkscape:label="#"
       inkscape:connector-curvature="0"
       id="path6"
       d="m 2,2 v 1.7089844 1.234375 8.6074216 C 1.999998,13.800076 2.1999177,14.000001 2.4492188,14 H 13.550781 C 13.800082,13.999993 13.999999,13.800076 14,13.550781 V 4.9453125 3.7089844 2 H 13.107422 V 2.5097656 H 10.474609 V 2 H 9.3164062 V 2.5097656 H 6.6835938 V 2 H 5.5253906 V 2.5097656 H 2.8925781 V 2 Z M 8.9785156,4.5371094 9.6679688,4.65625 9.7246094,5.3632812 a 1.8550078,1.8550078 0 0 1 0.3261716,0.2089844 l 0.664063,-0.2519531 0.404297,0.5722656 -0.460938,0.5390625 A 1.8550078,1.8550078 0 0 1 10.744141,6.8125 l 0.646484,0.2890625 -0.119141,0.6914063 -0.707031,0.054687 a 1.8550078,1.8550078 0 0 1 -0.208984,0.328125 L 10.609375,8.8398438 10.035156,9.2421875 9.4980469,8.7832031 A 1.8550078,1.8550078 0 0 1 9.1171875,8.8671875 L 8.8261719,9.5136719 8.1367188,9.3945312 8.0800781,8.6875 A 1.8550078,1.8550078 0 0 1 7.7519531,8.4804688 L 7.0898438,8.7324219 6.6855469,8.1601562 7.1445312,7.6210938 A 1.8550078,1.8550078 0 0 1 7.0605469,7.2402344 L 6.4140625,6.9492188 6.5332031,6.2597656 7.2402344,6.2050781 A 1.8550078,1.8550078 0 0 1 7.4492188,5.8769531 L 7.1953125,5.2128906 7.7695312,4.8085938 8.3066406,5.2695312 A 1.8550078,1.8550078 0 0 1 8.6875,5.1855469 Z M 8.9023438,6.3007812 A 0.72501231,0.72501231 0 0 0 8.1875,6.9023438 0.72501231,0.72501231 0 0 0 8.7773438,7.7402344 0.72501231,0.72501231 0 0 0 9.6171875,7.1503906 0.72501231,0.72501231 0 0 0 9.0253906,6.3125 0.72501231,0.72501231 0 0 0 8.9023438,6.3007812 Z M 6.0527344,8.1855469 6.625,8.2949219 6.6621094,8.8828125 A 1.5454603,1.5454603 0 0 1 6.9335938,9.0625 L 7.4902344,8.8613281 7.8183594,9.34375 7.4257812,9.7871094 a 1.5454603,1.5454603 0 0 1 0.066406,0.3164066 l 0.5351563,0.251953 -0.109375,0.572265 -0.5878907,0.03711 A 1.5454603,1.5454603 0 0 1 7.1503906,11.236328 L 7.3515625,11.791016 6.8691406,12.119141 6.4257812,11.728516 A 1.5454603,1.5454603 0 0 1 6.109375,11.794922 L 5.8574219,12.330078 5.2851562,12.220703 5.2480469,11.632812 A 1.5454603,1.5454603 0 0 1 4.9765625,11.453125 L 4.421875,11.654297 4.09375,11.171875 4.484375,10.728516 A 1.5454603,1.5454603 0 0 1 4.4199219,10.412109 L 3.8828125,10.160156 3.9921875,9.5878906 4.5800781,9.5507812 A 1.5454603,1.5454603 0 0 1 4.7597656,9.2792969 L 4.5585938,8.7226562 5.0410156,8.3945312 5.484375,8.7871094 a 1.5454603,1.5454603 0 0 1 0.3183594,-0.064453 z m 4.3398436,1.1152343 0.621094,0.25 -0.07617,0.4707028 a 1.1237436,1.1237436 0 0 1 0.0918,0.09961 1.1237436,1.1237436 0 0 1 0.07617,0.113281 l 0.474609,0.03906 0.09375,0.662109 -0.443359,0.167969 a 1.1237436,1.1237436 0 0 1 -0.101563,0.253906 l 0.203125,0.429687 -0.52539,0.41211 -0.369141,-0.298828 a 1.1237436,1.1237436 0 0 1 -0.269531,0.03711 l -0.2714846,0.392578 -0.6210938,-0.25 0.076172,-0.470703 A 1.1237436,1.1237436 0 0 1 9.2597686,11.50781 1.1237436,1.1237436 0 0 1 9.1835966,11.394529 l -0.4746094,-0.03711 -0.09375,-0.66211 0.4453125,-0.169921 a 1.1237436,1.1237436 0 0 1 0.1015597,-0.25195 L 8.9589844,9.8417969 9.484375,9.4296875 9.8515625,9.7304688 A 1.1237436,1.1237436 0 0 1 10.123047,9.6933594 Z M 5.9570312,9.6542969 A 0.60402858,0.60402858 0 0 0 5.6152344,9.7578125 0.60402858,0.60402858 0 0 0 5.4550781,10.597656 0.60402858,0.60402858 0 0 0 6.2949219,10.757812 0.60402858,0.60402858 0 0 0 6.4550781,9.9179688 0.60402858,0.60402858 0 0 0 5.9570312,9.6542969 Z M 10.113281,10.3125 a 0.5032632,0.5032632 0 0 0 -0.2792966,0.105469 0.5032632,0.5032632 0 0 0 -0.085937,0.707031 0.5032632,0.5032632 0 0 0 0.7070316,0.08594 0.5032632,0.5032632 0 0 0 0.08594,-0.707032 0.5032632,0.5032632 0 0 0 -0.378907,-0.191406 0.5032632,0.5032632 0 0 0 -0.04883,0 z"
       style="opacity:1;fill:#ff6600;stroke:none;stroke-width:0.19242425" />
  </g>
</svg>
