<?xml version="1.0" encoding="UTF-8" standalone="no"?>
<!-- Created with Inkscape (http://www.inkscape.org/) -->

<svg
   xmlns:dc="http://purl.org/dc/elements/1.1/"
   xmlns:cc="http://creativecommons.org/ns#"
   xmlns:rdf="http://www.w3.org/1999/02/22-rdf-syntax-ns#"
   xmlns:svg="http://www.w3.org/2000/svg"
   xmlns="http://www.w3.org/2000/svg"
   xmlns:sodipodi="http://sodipodi.sourceforge.net/DTD/sodipodi-0.dtd"
   xmlns:inkscape="http://www.inkscape.org/namespaces/inkscape"
   width="22.000002"
   height="22"
   viewBox="0 0 22.000002 22"
   version="1.1"
   id="main"
   inkscape:version="0.92+devel (327bdefa15, 2017-09-17, custom)"
   sodipodi:docname="colorfx.svg">
  <defs
     id="ol-defs" />
  <sodipodi:namedview
     id="base"
     pagecolor="#002466"
     bordercolor="#ffffff"
     borderopacity="0.30"
     inkscape:pageopacity="1"
     inkscape:pageshadow="2"
     inkscape:zoom="13.140625"
     inkscape:document-units="px"
     inkscape:current-layer="main"
     inkscape:document-rotation="0"
     showgrid="false"
     inkscape:showpageshadow="false"
     borderlayer="true"
     inkscape:window-width="1920"
     inkscape:window-height="1017"
     inkscape:window-x="0"
     inkscape:window-y="34"
     inkscape:window-maximized="1"
     units="px"
     inkscape:cx="5.3391402"
     inkscape:cy="8.0269054" />
  <metadata
     id="metadata5">
    <rdf:RDF>
      <cc:Work
         rdf:about="">
        <dc:format>image/svg+xml</dc:format>
        <dc:type
           rdf:resource="http://purl.org/dc/dcmitype/StillImage" />
        <dc:title></dc:title>
      </cc:Work>
    </rdf:RDF>
  </metadata>
  <g
     id="g839"
     inkscape:label="#colorfx"
     style="stroke:none">
    <path
       style="fill:none;stroke:none;stroke-width:1"
       d="M 0,0 H 22.000001 V 22 H 0 Z"
       id="boundary"
       inkscape:label="#boundary"
       inkscape:connector-curvature="0" />
    <path
       style="opacity:1;fill:#005cc7;stroke:none;stroke-width:1.80000007;stroke-dasharray:3.59999985, 1.79999992000000009;stroke-dashoffset:7.37999964"
       d="M 11.900391,3 9.8945312,3.00195 V 4.5878906 C 8.8737763,4.7641652 7.9093029,5.1812815 7.0820312,5.8046875 L 5.9824219,4.7070312 4.5625,6.1269531 5.6835938,7.2480469 C 5.0853643,8.0962666 4.6980167,9.0755016 4.5546875,10.103516 H 3.0019531 v 2.003906 h 1.5859375 c 0.176269,1.020767 0.5933864,1.985218 1.2167969,2.8125 l -1.0996094,1.097656 1.4179688,1.417969 1.1230469,-1.121094 c 0.8468957,0.597563 1.8231733,0.984879 2.8496092,1.128906 v 1.554688 L 12.105469,19 v -1.585938 c 1.021762,-0.176597 1.986731,-0.5942 2.814453,-1.21875 L 16.019531,17.292969 17.4375,15.875 16.316406,14.753906 c 0.597568,-0.846907 0.984887,-1.825113 1.128906,-2.851562 h 1.552735 l -0.002,-2.0039065 H 17.414062 C 17.236809,8.8746851 16.818228,7.9067275 16.191406,7.078125 L 17.291016,5.9804688 15.875,4.5644531 14.751953,5.6855469 C 13.905057,5.0879835 12.92878,4.700667 11.902344,4.5566406 Z"
       id="path816"
       inkscape:connector-curvature="0"
       inkscape:label="#" />
  </g>
</svg>
