<?xml version="1.0" encoding="UTF-8" standalone="no"?>
<!-- Created with Inkscape (http://www.inkscape.org/) -->

<svg
   xmlns:dc="http://purl.org/dc/elements/1.1/"
   xmlns:cc="http://creativecommons.org/ns#"
   xmlns:rdf="http://www.w3.org/1999/02/22-rdf-syntax-ns#"
   xmlns:svg="http://www.w3.org/2000/svg"
   xmlns="http://www.w3.org/2000/svg"
   xmlns:sodipodi="http://sodipodi.sourceforge.net/DTD/sodipodi-0.dtd"
   xmlns:inkscape="http://www.inkscape.org/namespaces/inkscape"
   width="22.000002"
   height="22"
   viewBox="0 0 22.000002 22"
   version="1.1"
   id="main"
   inkscape:version="0.92+devel (9cbd9e9661, 2017-09-28, custom)"
   sodipodi:docname="step_object_Controller.svg">
  <defs
     id="ol-defs" />
  <sodipodi:namedview
     id="base"
     pagecolor="#002466"
     bordercolor="#ffffff"
     borderopacity="0.30"
     inkscape:pageopacity="1"
     inkscape:pageshadow="0"
     inkscape:zoom="13.140625"
     inkscape:document-units="px"
     inkscape:current-layer="main"
     inkscape:document-rotation="0"
     showgrid="false"
     inkscape:showpageshadow="false"
     borderlayer="true"
     inkscape:window-width="1920"
     inkscape:window-height="1017"
     inkscape:window-x="0"
     inkscape:window-y="34"
     inkscape:window-maximized="1"
     units="px"
     inkscape:cx="6.5947884"
     inkscape:cy="8.0269054" />
  <metadata
     id="metadata5">
    <rdf:RDF>
      <cc:Work
         rdf:about="">
        <dc:format>image/svg+xml</dc:format>
        <dc:type
           rdf:resource="http://purl.org/dc/dcmitype/StillImage" />
        <dc:title></dc:title>
      </cc:Work>
    </rdf:RDF>
  </metadata>
  <g
     id="g849"
     inkscape:label="#step_object_Controller"
     style="stroke:none">
    <path
       style="fill:none;stroke:none;stroke-width:1"
       d="M 0,0 H 22.000001 V 22 H 0 Z"
       id="boundary"
       inkscape:label="#boundary"
       inkscape:connector-curvature="0" />
    <path
       inkscape:label="#"
       style="opacity:0.6;fill:#d0d0d0;stroke:none"
       id="path844"
       d="M 9.5546875,3 9.2617188,4.6484375 A 6.585552,6.585552 0 0 0 7.7441406,5.2851562 C 7.2533719,4.9380442 6.9027725,4.6848752 6.3652344,4.3203125 l -2.0449219,2.0449219 0.9628906,1.375 A 6.585552,6.585552 0 0 0 4.65625,9.2617188 C 4.0638312,9.3636817 3.637474,9.4324535 3,9.5546875 v 2.8906245 l 1.6484375,0.292969 a 6.585552,6.585552 0 0 0 0.6367187,1.517578 C 4.9380439,14.746628 4.684875,15.097227 4.3203125,15.634766 l 2.0449219,2.044922 1.375,-0.962891 A 6.585552,6.585552 0 0 0 9.2617188,17.34375 C 9.3636817,17.936169 9.4324534,18.362526 9.5546875,19 h 2.8906245 l 0.292969,-1.648438 a 6.585552,6.585552 0 0 0 1.517578,-0.636718 c 0.490769,0.347112 0.841368,0.600279 1.378907,0.964844 l 2.044922,-2.044922 -0.962891,-1.375 A 6.585552,6.585552 0 0 0 17.34375,12.738281 C 17.936169,12.636318 18.362526,12.567547 19,12.445312 V 9.5546875 L 17.351562,9.2617188 A 6.585552,6.585552 0 0 0 16.714844,7.7441406 c 0.347112,-0.490768 0.60028,-0.8413682 0.964844,-1.3789062 l -2.044922,-2.0449219 -1.375,0.9628906 A 6.585552,6.585552 0 0 0 12.738281,4.65625 C 12.636318,4.063831 12.567546,3.637474 12.445312,3 Z M 11,7.8769531 A 3.1223204,3.1223204 0 0 1 14.123047,11 3.1223204,3.1223204 0 0 1 11,14.123047 3.1223204,3.1223204 0 0 1 7.8769531,11 3.1223204,3.1223204 0 0 1 11,7.8769531 Z"
       inkscape:connector-curvature="0" />
  </g>
</svg>
