<?xml version="1.0" encoding="UTF-8" standalone="no"?>
<!-- Created with Inkscape (http://www.inkscape.org/) -->

<svg xmlns:dc="http://purl.org/dc/elements/1.1/" xmlns:cc="http://creativecommons.org/ns#" xmlns:rdf="http://www.w3.org/1999/02/22-rdf-syntax-ns#" xmlns:svg="http://www.w3.org/2000/svg" xmlns="http://www.w3.org/2000/svg" xmlns:sodipodi="http://sodipodi.sourceforge.net/DTD/sodipodi-0.dtd" xmlns:inkscape="http://www.inkscape.org/namespaces/inkscape" width="22.000002" height="22" viewBox="0 0 22.000002 22" version="1.1" id="main" inkscape:version="0.92+devel (f318dbfe43, 2017-10-09, custom)" sodipodi:docname="cssvalidator.svg">
  <defs id="ol-defs" />
  <sodipodi:namedview id="base" pagecolor="#002466" bordercolor="#ffffff" borderopacity="0.30" inkscape:pageopacity="1" inkscape:pageshadow="2" inkscape:zoom="37.1673" inkscape:document-units="px" inkscape:current-layer="main" inkscape:document-rotation="0" showgrid="false" inkscape:showpageshadow="false" borderlayer="true" inkscape:window-width="1920" inkscape:window-height="1027" inkscape:window-x="0" inkscape:window-y="24" inkscape:window-maximized="1" units="px" inkscape:cx="6.5605626" inkscape:cy="8.0269055" />
  <metadata id="metadata5">
    <rdf:RDF>
      <cc:Work rdf:about="">
        <dc:format>image/svg+xml</dc:format>
        <dc:type rdf:resource="http://purl.org/dc/dcmitype/StillImage" />
        <dc:title></dc:title>
      </cc:Work>
    </rdf:RDF>
  </metadata>
  <g id="g870" inkscape:label="#cssvalidator" style="stroke:none;stroke-width:0.72727275" transform="scale(1.375)">
    <path style="fill:none;stroke:none;stroke-width:0.72727275" d="M -5.5000004e-8,-4.9999999e-8 H 16.000001 V 16 H -5.5000004e-8 Z" id="boundary" inkscape:label="#boundary" inkscape:connector-curvature="0" />
    <path inkscape:label="#" inkscape:connector-curvature="0" d="M 5.9394531,2 C 5.3941871,2 4.9941356,2.036407 4.7402344,2.1113281 4.3656252,2.2237111 4.0803958,2.3785887 3.8847656,2.5742187 3.6891385,2.7656857 3.5553916,3.0212979 3.4804688,3.3417969 3.4055458,3.6581339 3.3671875,4.2198527 3.3671875,5.0273438 c 0,0.495317 -0.015529,0.8431767 -0.048828,1.0429687 C 3.2767375,6.3367004 3.1983202,6.5593002 3.0859375,6.7382812 2.9735546,6.9130972 2.8415049,7.0383582 2.6875,7.1132812 2.5334938,7.1882112 2.30385,7.2353102 2,7.2519531 V 8.7480469 C 2.3829342,8.7688559 2.6664668,8.8543189 2.8496093,9 c 0.1873048,0.14152 0.3263983,0.3779495 0.4179688,0.7109375 0.066599,0.2289278 0.099609,0.7263185 0.099609,1.4921875 0,0.657648 0.034709,1.137556 0.1054687,1.441406 0.070758,0.308012 0.2081549,0.567274 0.4121094,0.775391 0.2081177,0.208113 0.4620243,0.355947 0.7617188,0.443359 C 4.946172,13.954851 5.3775386,14 5.9394531,14 h 0.3320313 v -1.498047 c -0.4495323,0 -0.7435034,-0.02962 -0.8808594,-0.08789 -0.1331941,-0.05411 -0.2341827,-0.13592 -0.3007812,-0.244141 -0.066598,-0.108222 -0.099609,-0.299507 -0.099609,-0.574219 0,-0.191467 -0.013825,-0.633272 -0.042969,-1.324219 C 4.9222913,9.8177921 4.8684036,9.4580532 4.7851562,9.1875 4.7019118,8.9169497 4.5800451,8.6873054 4.421875,8.5 4.2678682,8.3085318 4.0678422,8.141519 3.8222656,8 4.1011422,7.821022 4.3082123,7.6489159 4.4414062,7.4824219 4.5787623,7.3159279 4.6918874,7.1054636 4.7792969,6.8515625 4.8667069,6.5934986 4.9186416,6.2577742 4.9394531,5.8457031 c 0.037461,-0.732571 0.056641,-1.2299624 0.056641,-1.4921875 0,-0.2580639 0.031313,-0.4389097 0.09375,-0.5429687 0.062436,-0.108223 0.1600307,-0.1863811 0.2890624,-0.2363281 0.1331954,-0.05411 0.4305598,-0.082031 0.8925782,-0.082031 V 2 Z m 3.7890625,0 v 1.4921875 c 0.4703434,0 0.7730554,0.029621 0.9062504,0.087891 0.137357,0.05411 0.231302,0.1322702 0.28125,0.2363281 0.05411,0.104058 0.08373,0.3128251 0.08789,0.625 0.02081,0.9906341 0.05382,1.6324652 0.09961,1.9238282 0.07076,0.4245579 0.202808,0.7721609 0.398437,1.046875 C 11.643473,7.6035764 11.869722,7.800209 12.177734,8 c -0.237252,0.137358 -0.433884,0.2973257 -0.58789,0.4804688 -0.149843,0.1789826 -0.269757,0.3998837 -0.361328,0.6621093 -0.09157,0.2580642 -0.147158,0.6022738 -0.167969,1.0351559 -0.03329,0.715922 -0.05247,1.203131 -0.05664,1.457032 0,0.253902 -0.03497,0.431098 -0.101562,0.535156 -0.06244,0.108222 -0.161473,0.190032 -0.298829,0.24414 -0.137357,0.05827 -0.429631,0.08789 -0.8749997,0.08789 V 14 h 0.3320317 c 0.545265,0 0.945318,-0.03641 1.199218,-0.111328 0.378772,-0.112381 0.665698,-0.267262 0.861329,-0.462891 0.195628,-0.191468 0.327676,-0.447078 0.398437,-0.767578 0.07492,-0.320498 0.113282,-0.883914 0.113281,-1.691406 0,-0.491155 0.01554,-0.837317 0.04883,-1.0371095 0.04579,-0.2663876 0.1242,-0.4872907 0.232421,-0.6621094 C 13.026447,9.0885996 13.158495,8.9616418 13.3125,8.8867188 13.466509,8.8117887 13.69615,8.7646899 14,8.7480469 V 7.2519531 c -0.382932,-0.02081 -0.668164,-0.1026226 -0.855469,-0.2441406 -0.187306,-0.145681 -0.326397,-0.385764 -0.417969,-0.71875 -0.06244,-0.23309 -0.09375,-0.7304815 -0.09375,-1.4921875 0,-0.657648 -0.03835,-1.1375563 -0.113281,-1.4414062 C 12.448771,3.0474557 12.311377,2.7881941 12.107422,2.5800781 11.903468,2.3677991 11.653204,2.2182683 11.353516,2.1308593 11.053828,2.0434493 10.622462,2 10.060547,2 Z" id="path814" style="opacity:0.6;fill:#d0d0d0;stroke:none;stroke-width:0.72727275" />
    <path style="fill:#00ff00;stroke:none;stroke-width:2.74874735" d="M 10.078726,5.590278 C 9.032697,6.6249571 7.9868601,7.6598298 6.9409083,8.6945849 6.467697,8.1695844 5.9944855,7.6445838 5.5212743,7.1195832 5.2359257,7.402901 4.9505771,7.6862188 4.6652287,7.9695366 5.4148634,8.7863526 6.125602,9.6405373 6.9256762,10.409722 8.2609534,9.08546 9.5984705,7.7634597 10.934771,6.4402316 10.649423,6.1569138 10.364075,5.8735959 10.078726,5.590278 Z" id="path858" inkscape:connector-curvature="0" inkscape:label="#" />
  </g>
</svg>
