<?xml version="1.0" encoding="UTF-8" standalone="no"?>
<!-- Created with Inkscape (http://www.inkscape.org/) -->

<svg
   xmlns:dc="http://purl.org/dc/elements/1.1/"
   xmlns:cc="http://creativecommons.org/ns#"
   xmlns:rdf="http://www.w3.org/1999/02/22-rdf-syntax-ns#"
   xmlns:svg="http://www.w3.org/2000/svg"
   xmlns="http://www.w3.org/2000/svg"
   xmlns:sodipodi="http://sodipodi.sourceforge.net/DTD/sodipodi-0.dtd"
   xmlns:inkscape="http://www.inkscape.org/namespaces/inkscape"
   width="22.000002"
   height="22"
   viewBox="0 0 22.000002 22"
   version="1.1"
   id="main"
   inkscape:version="0.92+devel (42c84a5464, 2017-09-20, custom)"
   sodipodi:docname="database-change-key.svg">
  <defs
     id="ol-defs" />
  <sodipodi:namedview
     id="base"
     pagecolor="#002466"
     bordercolor="#ffffff"
     borderopacity="0.30"
     inkscape:pageopacity="1"
     inkscape:pageshadow="2"
     inkscape:zoom="13.140625"
     inkscape:document-units="px"
     inkscape:current-layer="main"
     inkscape:document-rotation="0"
     showgrid="false"
     inkscape:showpageshadow="false"
     borderlayer="true"
     inkscape:window-width="1920"
     inkscape:window-height="1017"
     inkscape:window-x="0"
     inkscape:window-y="34"
     inkscape:window-maximized="1"
     units="px"
     inkscape:cx="6.823088"
     inkscape:cy="8.0269054" />
  <metadata
     id="metadata5">
    <rdf:RDF>
      <cc:Work
         rdf:about="">
        <dc:format>image/svg+xml</dc:format>
        <dc:type
           rdf:resource="http://purl.org/dc/dcmitype/StillImage" />
        <dc:title></dc:title>
      </cc:Work>
    </rdf:RDF>
  </metadata>
  <g
     id="g865"
     inkscape:label="#database-change-key"
     style="stroke:none;stroke-width:1.375"
     transform="matrix(0.72727272,0,0,0.72727272,3.0000004,3)">
    <path
       style="fill:none;stroke:none;stroke-width:1.375"
       d="M -4.1249996,-4.125 H 26.125001 v 30.25 H -4.1249996 Z"
       id="boundary"
       inkscape:label="#boundary"
       inkscape:connector-curvature="0" />
    <path
       inkscape:connector-curvature="0"
       style="opacity:0.6;fill:#d0d0d0;stroke:none;stroke-width:1.375"
       d="m 3.1167596,12.743079 c -0.6065269,0.603013 -0.9801948,1.43988 -0.9836121,2.371341 4.572e-4,0.05883 -0.047924,0.10719 -0.1067473,0.106748 -0.00432,-5.6e-5 -0.00908,-0.0013 -0.013375,-0.0018 l -2.32e-5,0.0039 C 1.9067336,15.201268 1.7991054,15.188708 1.6908753,15.187108 0.74961807,15.179608 -0.00733673,15.93667 5.5667468e-5,16.877929 0.00745567,17.819188 0.77630537,18.588043 1.7175629,18.595436 c 0.1089613,1.39e-4 0.2173914,-0.0099 0.3240563,-0.0305 l 0.00182,0.0018 c 0.00418,-5.04e-4 0.00719,-7e-5 0.011539,5.1e-5 0.058828,4.7e-4 0.1062863,0.04792 0.1067473,0.106749 0.085754,1.837647 1.5814882,3.311816 3.4331092,3.326355 1.6099089,0.0127 2.9429239,-1.082148 3.2920489,-2.575306 1.68e-4,-0.0032 0.0017,-0.0063 0.002,-0.0095 0.01184,-0.05133 0.02293,-0.10599 0.03241,-0.158217 0.08504,-0.248894 0.321223,-0.42347 0.600465,-0.421269 0.290999,0.0023 0.5382634,0.198434 0.6176214,0.465114 0.0021,0.0072 0.0037,0.01104 0.0058,0.01339 0.05101,0.148764 0.180399,0.254241 0.33168,0.255435 0.194878,0.0015 0.350538,-0.170346 0.348839,-0.386962 l -0.0057,-0.611898 0.350747,0.0039 0.634773,-0.261153 0.562334,0.196342 0.306898,-0.253529 2.716368,0.02097 0.35456,-0.33168 1.191387,0.341213 1.290513,-0.573775 0.711019,0.524216 0.8883,-0.205867 0.892113,0.404118 L 22,17.284075 l -0.0076,-0.800613 -1.075112,-1.18567 -10.123949,-0.07815 -0.0039,-0.545179 c -0.0017,-0.216616 -0.16159,-0.393058 -0.356464,-0.394587 -0.158486,-0.0012 -0.290565,0.113332 -0.333588,0.272587 -0.0011,0.0018 -0.0011,0.0033 -0.0018,0.0057 -0.07933,0.25877 -0.3199164,0.44449 -0.6061694,0.442251 -0.279234,-0.0022 -0.517213,-0.184361 -0.606178,-0.434621 -0.0103,-0.05238 -0.02357,-0.102911 -0.03622,-0.154411 -2.81e-4,-0.0032 -0.0017,-0.0063 -0.002,-0.0097 -0.372617,-1.498967 -1.7240886,-2.616175 -3.3339862,-2.62882 -0.9406696,-0.0074 -1.7854191,0.363029 -2.3961217,0.970267 z m -1.9157534,3.642792 c 0.1354096,-0.135402 0.3216646,-0.218938 0.5299282,-0.217312 0.4165302,0.0033 0.7573071,0.344053 0.7605836,0.760584 1.66e-5,0.04059 -0.00301,0.08014 -0.00954,0.120096 -0.015981,0.08898 -0.046408,0.177135 -0.089591,0.25734 -0.1329363,0.2313 -0.3814671,0.373467 -0.6499917,0.371767 -0.4165309,-0.0033 -0.75730743,-0.344053 -0.76058303,-0.760583 -0.00163,-0.208267 0.083805,-0.396425 0.21921653,-0.531836 z"
       id="path818"
       inkscape:label="#" />
    <path
       style="fill:#005cc7;stroke:none;stroke-width:1.375;stroke-dashoffset:7.37999964"
       d="m 21.317157,2.6849929 -0.654805,0.6548059 a 4.406411,4.406411 0 0 1 -0.833721,5.0595284 4.406411,4.406411 0 0 1 -5.059529,0.833721 l -0.651153,0.651155 a 5.2876931,5.2876931 0 0 0 6.333843,-0.861715 5.2876931,5.2876931 0 0 0 0.865365,-6.3374953 z M 19.307708,0.68284571 A 5.2876931,5.2876931 0 0 0 12.973865,1.54456 5.2876931,5.2876931 0 0 0 12.108499,7.8820552 l 0.654805,-0.6548056 a 4.406411,4.406411 0 0 1 0.833721,-5.0595288 4.406411,4.406411 0 0 1 5.059529,-0.8337203 z"
       id="circle813"
       inkscape:connector-curvature="0"
       inkscape:label="#" />
  </g>
</svg>
