<?xml version="1.0" encoding="UTF-8" standalone="no"?>
<!-- Created with Inkscape (http://www.inkscape.org/) -->

<svg
   xmlns:dc="http://purl.org/dc/elements/1.1/"
   xmlns:cc="http://creativecommons.org/ns#"
   xmlns:rdf="http://www.w3.org/1999/02/22-rdf-syntax-ns#"
   xmlns:svg="http://www.w3.org/2000/svg"
   xmlns="http://www.w3.org/2000/svg"
   xmlns:sodipodi="http://sodipodi.sourceforge.net/DTD/sodipodi-0.dtd"
   xmlns:inkscape="http://www.inkscape.org/namespaces/inkscape"
   width="22"
   height="22"
   viewBox="0 0 5.8208331 5.8208331"
   version="1.1"
   id="svg8"
   inkscape:version="0.92+devel (7f3bd2b258, 2017-08-07, custom)"
   sodipodi:docname="deep-history.svg">
  <defs
     id="defs2" />
  <sodipodi:namedview
     id="base"
     pagecolor="#002466"
     bordercolor="#ffffff"
     borderopacity="0.38039216"
     inkscape:pageopacity="1"
     inkscape:pageshadow="2"
     inkscape:zoom="12.625"
     inkscape:cx="7.8811881"
     inkscape:cy="8.0000002"
     inkscape:document-units="px"
     inkscape:current-layer="svg8"
     inkscape:document-rotation="0"
     showgrid="false"
     inkscape:showpageshadow="false"
     borderlayer="true"
     inkscape:window-width="1920"
     inkscape:window-height="1027"
     inkscape:window-x="0"
     inkscape:window-y="24"
     inkscape:window-maximized="1"
     units="px" />
  <metadata
     id="metadata5">
    <rdf:RDF>
      <cc:Work
         rdf:about="">
        <dc:format>image/svg+xml</dc:format>
        <dc:type
           rdf:resource="http://purl.org/dc/dcmitype/StillImage" />
        <dc:title></dc:title>
      </cc:Work>
    </rdf:RDF>
  </metadata>
  <g
     id="g845"
     inkscape:label="#deep-history"
     transform="scale(1.375)">
    <path
       inkscape:label="#boundary"
       inkscape:connector-curvature="0"
       id="rect811"
       d="M 0,0 H 4.2333332 V 4.2333332 H 0 Z"
       style="fill:none;stroke-width:0.25454992;stroke-linecap:round" />
    <path
       inkscape:label="#"
       id="path814"
       d="M 2.1166666,0.5291667 A 1.5875,1.5875 0 0 0 0.5291667,2.1166666 1.5875,1.5875 0 0 0 2.1166666,3.7041665 1.5875,1.5875 0 0 0 3.7041665,2.1166666 1.5875,1.5875 0 0 0 2.1166666,0.5291667 Z m -0.018603,0.2631622 c 0.1042076,-0.010701 0.2074705,0.073138 0.2162659,0.1778961 0.00212,0.3715956 1.758e-4,0.7434184 7.751e-4,1.1150482 l 0.6972443,0.1868103 c 0.084465,0.01144 0.161075,0.074015 0.1794464,0.158905 0.033343,0.1292196 -0.095014,0.2629661 -0.2251801,0.2383575 L 2.097288,2.4313761 C 2.0064511,2.423849 1.9265517,2.3458082 1.9190043,2.2546427 1.917256,1.8424739 1.9187153,1.4300905 1.9182291,1.0178965 1.90392,0.9105439 1.9888365,0.7999539 2.0980636,0.7923289 Z"
       style="opacity:1;fill:#005cc7;stroke-width:1.2700001"
       inkscape:connector-curvature="0" />
  </g>
</svg>
