<?xml version="1.0" encoding="UTF-8" standalone="no"?>
<!-- Created with Inkscape (http://www.inkscape.org/) -->

<svg
   xmlns:dc="http://purl.org/dc/elements/1.1/"
   xmlns:cc="http://creativecommons.org/ns#"
   xmlns:rdf="http://www.w3.org/1999/02/22-rdf-syntax-ns#"
   xmlns:svg="http://www.w3.org/2000/svg"
   xmlns="http://www.w3.org/2000/svg"
   xmlns:sodipodi="http://sodipodi.sourceforge.net/DTD/sodipodi-0.dtd"
   xmlns:inkscape="http://www.inkscape.org/namespaces/inkscape"
   width="22.000002"
   height="22"
   viewBox="0 0 22.000002 22"
   version="1.1"
   id="main"
   inkscape:version="0.92+devel (42c84a5464, 2017-09-20, custom)"
   sodipodi:docname="depth16to8.svg">
  <defs
     id="ol-defs" />
  <sodipodi:namedview
     id="base"
     pagecolor="#002466"
     bordercolor="#ffffff"
     borderopacity="0.30"
     inkscape:pageopacity="1"
     inkscape:pageshadow="2"
     inkscape:zoom="13.140625"
     inkscape:document-units="px"
     inkscape:current-layer="g864"
     inkscape:document-rotation="0"
     showgrid="false"
     inkscape:showpageshadow="false"
     borderlayer="true"
     inkscape:window-width="1920"
     inkscape:window-height="1017"
     inkscape:window-x="0"
     inkscape:window-y="34"
     inkscape:window-maximized="1"
     units="px"
     inkscape:cx="6.7089382"
     inkscape:cy="8.0269054" />
  <metadata
     id="metadata5">
    <rdf:RDF>
      <cc:Work
         rdf:about="">
        <dc:format>image/svg+xml</dc:format>
        <dc:type
           rdf:resource="http://purl.org/dc/dcmitype/StillImage" />
        <dc:title></dc:title>
      </cc:Work>
    </rdf:RDF>
  </metadata>
  <g
     id="g864"
     inkscape:label="#depth8to16"
     style="stroke:none">
    <path
       style="fill:none;stroke:none;stroke-width:1"
       d="M 0,0 H 22.000001 V 22 H 0 Z"
       id="boundary"
       inkscape:label="#boundary"
       inkscape:connector-curvature="0" />
    <path
       inkscape:label="#"
       inkscape:connector-curvature="0"
       id="rect843"
       d="m 12.66733,4.4545459 a 5.4109315,5.5711737 18.141362 0 0 -2.362216,0.578125 5.4109315,5.5711737 18.141362 0 1 0.08949,-0.00568 5.4109315,5.5711737 18.141362 0 1 4.920454,3.2585225 l -1.829545,0.539773 1.838068,1.169034 1.839488,1.1676126 0.904829,-1.9772716 0.90483,-1.978695 -1.420454,0.420454 A 5.4109315,5.5711737 18.141362 0 0 12.66733,4.4545459 Z M 6.2369325,10.838068 5.332103,12.815341 4.4272736,14.794033 5.847728,14.373579 a 5.4109315,5.5711737 18.141362 0 0 4.884943,3.171875 5.4109315,5.5711737 18.141362 0 0 2.362216,-0.578125 5.4109315,5.5711737 18.141362 0 1 -0.08949,0.0057 5.4109315,5.5711737 18.141362 0 1 -4.9204533,-3.25855 L 9.9144891,13.174706 8.076421,12.005671 Z"
       style="opacity:0.6;fill:#d0d0d0;stroke:none;stroke-width:1.20000005" />
    <path
       inkscape:label="#"
       d="m 16.408702,15.841924 q -0.487562,0 -0.7494,0.266353 -0.261839,0.266353 -0.261839,0.762944 0,0.49659 0.261839,0.762943 0.261838,0.261839 0.7494,0.261839 0.483047,0 0.740371,-0.261839 0.257324,-0.266353 0.257324,-0.762943 0,-0.501105 -0.257324,-0.762944 -0.257324,-0.266353 -0.740371,-0.266353 z m -1.268563,-0.573336 q -0.613966,-0.185093 -0.925464,-0.568822 -0.311498,-0.383729 -0.311498,-0.957065 0,-0.853233 0.636539,-1.300165 0.636539,-0.446931 1.868986,-0.446931 1.223418,0 1.859957,0.446931 0.636539,0.442417 0.636539,1.300165 0,0.573336 -0.316012,0.957065 -0.311498,0.383729 -0.925465,0.568822 0.686198,0.189607 1.033811,0.61848 0.352128,0.42436 0.352128,1.074442 0,1.00221 -0.66814,1.516858 -0.663625,0.510134 -1.972818,0.510134 -1.313708,0 -1.986362,-0.510134 -0.66814,-0.514648 -0.66814,-1.516858 0,-0.650082 0.347613,-1.074442 0.352128,-0.428873 1.038326,-0.61848 z m 0.406301,-1.349824 q 0,0.401787 0.221209,0.618481 0.225723,0.216694 0.641053,0.216694 0.406301,0 0.627509,-0.216694 0.221209,-0.216694 0.221209,-0.618481 0,-0.401786 -0.221209,-0.613966 -0.221208,-0.216694 -0.627509,-0.216694 -0.41533,0 -0.641053,0.216694 -0.221209,0.216694 -0.221209,0.613966 z"
       style="font-style:normal;font-variant:normal;font-weight:bold;font-stretch:normal;font-size:medium;line-height:1.25;font-family:sans-serif;-inkscape-font-specification:'sans-serif Bold';letter-spacing:0px;word-spacing:0px;fill:#ff0000;stroke:none;stroke-width:0.99999994"
       id="path853"
       inkscape:connector-curvature="0" />
    <path
       style="font-style:normal;font-variant:normal;font-weight:bold;font-stretch:normal;font-size:medium;line-height:1.25;font-family:sans-serif;-inkscape-font-specification:'sans-serif Bold';letter-spacing:0px;word-spacing:0px;stroke-width:1;fill:#005cc7"
       d="m 9.1796875,3.0234375 c -0.9781327,0 -1.7477449,0.3189873 -2.3105469,0.9570313 -0.5597933,0.6350333 -0.8398437,1.5094802 -0.8398437,2.6230468 0,0.9166213 0.1808817,1.6475831 0.5214843,2.2128906 H 5.3203125 V 3.1992188 H 3.6445312 L 2.0546875,3.5292969 V 4.7285156 L 3.6542969,4.3984375 V 8.8164062 H 2.0976562 V 10.035156 H 6.8769531 V 9.25 c 0.4717205,0.4970164 1.1023394,0.757812 1.90625,0.757812 0.7945447,0 1.4278769,-0.2170023 1.9003909,-0.6503901 0.472513,-0.436398 0.708984,-1.0159679 0.708984,-1.7382813 0,-0.653092 -0.212359,-1.180691 -0.636719,-1.5839844 C 10.33451,5.6318643 9.779051,5.4296875 9.0898438,5.4296875 c -0.2738767,0 -0.5260699,0.03804 -0.7578126,0.1132813 C 8.1002892,5.6151994 7.8841829,5.7255735 7.6855469,5.8730469 7.7337009,5.3072342 7.9024809,4.8816191 8.1914062,4.5957031 8.4803316,4.3067785 8.8846858,4.1621094 9.4023438,4.1621094 c 0.2407706,0 0.4874244,0.033396 0.7402342,0.099609 0.252809,0.063203 0.520724,0.1614409 0.806641,0.296875 V 3.3125 C 10.663302,3.21619 10.375919,3.1438565 10.083984,3.0957031 9.7920491,3.0475498 9.4896802,3.0234375 9.1796875,3.0234375 Z M 8.8007812,6.5507812 c 0.3069834,10e-8 0.5350649,0.098239 0.6855469,0.296875 0.1534914,0.1956267 0.2304688,0.490503 0.2304688,0.8847657 0,0.3942626 -0.076977,0.691989 -0.2304688,0.890625 -0.150482,0.1956266 -0.3785635,0.2929687 -0.6855469,0.2929687 -0.3039739,0 -0.5320555,-0.097342 -0.6855468,-0.2929687 -0.150482,-0.198636 -0.2265625,-0.4963624 -0.2265625,-0.890625 0,-0.3942627 0.07608,-0.689139 0.2265625,-0.8847657 0.1534913,-0.198636 0.3815728,-0.296875 0.6855468,-0.296875 z"
       id="path843"
       inkscape:connector-curvature="0"
       inkscape:label="#" />
  </g>
</svg>
