<?xml version="1.0" encoding="UTF-8" standalone="no"?>
<!-- Created with Inkscape (http://www.inkscape.org/) -->

<svg
   xmlns:dc="http://purl.org/dc/elements/1.1/"
   xmlns:cc="http://creativecommons.org/ns#"
   xmlns:rdf="http://www.w3.org/1999/02/22-rdf-syntax-ns#"
   xmlns:svg="http://www.w3.org/2000/svg"
   xmlns="http://www.w3.org/2000/svg"
   xmlns:sodipodi="http://sodipodi.sourceforge.net/DTD/sodipodi-0.dtd"
   xmlns:inkscape="http://www.inkscape.org/namespaces/inkscape"
   width="22"
   height="22"
   viewBox="0 0 5.8208331 5.8208336"
   version="1.1"
   id="svg8"
   inkscape:version="0.92+devel 15740 custom"
   sodipodi:docname="edit-copy.svg">
  <defs
     id="defs2" />
  <sodipodi:namedview
     id="base"
     pagecolor="#002466"
     bordercolor="#ffffff"
     borderopacity="0.32156863"
     inkscape:pageopacity="1"
     inkscape:pageshadow="2"
     inkscape:zoom="9.5454545"
     inkscape:cx="10.999999"
     inkscape:cy="10.999999"
     inkscape:document-units="px"
     inkscape:current-layer="svg8"
     inkscape:document-rotation="0"
     showgrid="false"
     units="px"
     inkscape:pagecheckerboard="false"
     borderlayer="true"
     inkscape:showpageshadow="false"
     inkscape:window-width="1920"
     inkscape:window-height="1051"
     inkscape:window-x="0"
     inkscape:window-y="0"
     inkscape:window-maximized="1"
     inkscape:object-paths="true" />
  <metadata
     id="metadata5">
    <rdf:RDF>
      <cc:Work
         rdf:about="">
        <dc:format>image/svg+xml</dc:format>
        <dc:type
           rdf:resource="http://purl.org/dc/dcmitype/StillImage" />
        <dc:title></dc:title>
        <cc:license
           rdf:resource="http://creativecommons.org/licenses/by/4.0/" />
        <dc:creator>
          <cc:Agent>
            <dc:title>PixelPimps &amp; CodePoets</dc:title>
          </cc:Agent>
        </dc:creator>
      </cc:Work>
      <cc:License
         rdf:about="http://creativecommons.org/licenses/by/4.0/">
        <cc:permits
           rdf:resource="http://creativecommons.org/ns#Reproduction" />
        <cc:permits
           rdf:resource="http://creativecommons.org/ns#Distribution" />
        <cc:requires
           rdf:resource="http://creativecommons.org/ns#Notice" />
        <cc:requires
           rdf:resource="http://creativecommons.org/ns#Attribution" />
        <cc:permits
           rdf:resource="http://creativecommons.org/ns#DerivativeWorks" />
      </cc:License>
    </rdf:RDF>
  </metadata>
  <g
     id="g4285"
     inkscape:label="#edit-clone"
     style="stroke-width:0.72727275">
    <rect
       inkscape:label="#boundary"
       y="7.1911622e-08"
       x="7.1911622e-08"
       height="5.8208332"
       width="5.8208332"
       id="rect4280"
       style="display:inline;fill:none;stroke-width:0.57330835;stroke-linecap:round" />
    <path
       inkscape:label="#2"
       inkscape:connector-curvature="0"
       id="rect4273"
       d="M 2.7491444,1.5437428 V 2.103287 H 2.1896002 V 2.4054297 H 2.7491444 V 2.964974 H 3.0507348 V 2.4054297 H 3.6108314 V 2.103287 H 3.0507348 V 1.5437428 Z"
       style="fill:#00ff00;stroke-width:0.19004422;stroke-linecap:round" />
    <path
       inkscape:label="#1"
       inkscape:connector-curvature="0"
       id="circle4266"
       d="M 1.5318773,2.8008358 A 0.73827935,0.73827935 0 0 0 0.79375002,3.5389632 0.73827935,0.73827935 0 0 0 1.5318773,4.2770906 0.73827935,0.73827935 0 0 0 2.2703806,3.5389632 0.73827935,0.73827935 0 0 0 1.5318773,2.8008358 Z m 2.7570785,0 A 0.73827935,0.73827935 0 0 0 3.5504528,3.5389632 0.73827935,0.73827935 0 0 0 4.2889558,4.2770906 0.73827935,0.73827935 0 0 0 5.0270833,3.5389632 0.73827935,0.73827935 0 0 0 4.2889558,2.8008358 Z"
       style="opacity:0.6;fill:#d0d0d0;stroke-width:0.1399449;stroke-linecap:round" />
    <path
       style="opacity:0.17272728;fill:#d0d0d0;stroke:none;stroke-width:0.1399449px;stroke-linecap:butt;stroke-linejoin:miter;stroke-opacity:1"
       d="m 1.9474338,2.9304093 v 0.00564 a 0.73827935,0.73827935 0 0 1 0.3194543,0.6069642 0.73827935,0.73827935 0 0 1 -0.291643,0.5862926 l 7.491e-4,0.026308 C 2.5031395,3.7861849 3.2713307,3.7889864 3.8389799,4.1300541 A 0.73827935,0.73827935 0 0 1 3.5469604,3.5430099 0.73827935,0.73827935 0 0 1 3.8382276,2.9567173 L 3.8378427,2.9413083 C 3.2678225,3.2985409 2.4828422,3.3056281 1.9474338,2.9304093 Z"
       id="path4293"
       inkscape:connector-curvature="0"
       inkscape:label="#3" />
  </g>
</svg>
