<?xml version="1.0" encoding="UTF-8" standalone="no"?>
<!-- Created with Inkscape (http://www.inkscape.org/) -->

<svg
   xmlns:dc="http://purl.org/dc/elements/1.1/"
   xmlns:cc="http://creativecommons.org/ns#"
   xmlns:rdf="http://www.w3.org/1999/02/22-rdf-syntax-ns#"
   xmlns:svg="http://www.w3.org/2000/svg"
   xmlns="http://www.w3.org/2000/svg"
   xmlns:sodipodi="http://sodipodi.sourceforge.net/DTD/sodipodi-0.dtd"
   xmlns:inkscape="http://www.inkscape.org/namespaces/inkscape"
   width="22"
   height="22"
   viewBox="0 0 22 22"
   version="1.1"
   id="main"
   inkscape:version="0.92+devel (944a8da0e8, 2017-09-23, custom)"
   sodipodi:docname="edit-select-lasso.svg">
  <defs
     id="ol-defs">
    <style
       type="text/css"
       id="current-color-scheme">
      .ColorScheme-Text {
        color:#f2f2f2;
      }
      </style>
  </defs>
  <sodipodi:namedview
     id="base"
     pagecolor="#002466"
     bordercolor="#ffffff"
     borderopacity="0.30"
     inkscape:pageopacity="1"
     inkscape:pageshadow="0"
     inkscape:zoom="19.340909"
     inkscape:document-units="px"
     inkscape:current-layer="main"
     inkscape:document-rotation="0"
     showgrid="false"
     inkscape:showpageshadow="false"
     borderlayer="true"
     inkscape:window-width="1920"
     inkscape:window-height="1017"
     inkscape:window-x="0"
     inkscape:window-y="34"
     inkscape:window-maximized="1"
     units="px"
     inkscape:cx="11"
     inkscape:cy="11.000001" />
  <metadata
     id="metadata5">
    <rdf:RDF>
      <cc:Work
         rdf:about="">
        <dc:format>image/svg+xml</dc:format>
        <dc:type
           rdf:resource="http://purl.org/dc/dcmitype/StillImage" />
        <dc:title></dc:title>
      </cc:Work>
    </rdf:RDF>
  </metadata>
  <g
     id="g841"
     inkscape:label="#edit-select-lasso"
     style="stroke:none">
    <path
       style="fill:none;stroke:none;stroke-width:1"
       d="M 6.8051148e-7,-2.5e-7 H 22.000001 V 22 H 6.8051148e-7 Z"
       id="boundary"
       inkscape:label="#boundary"
       inkscape:connector-curvature="0" />
    <path
       inkscape:label="#"
       style="color:#000000;font-style:normal;font-variant:normal;font-weight:normal;font-stretch:normal;font-size:medium;line-height:normal;font-family:sans-serif;font-variant-ligatures:normal;font-variant-position:normal;font-variant-caps:normal;font-variant-numeric:normal;font-variant-alternates:normal;font-variant-east-asian:normal;font-feature-settings:normal;font-variation-settings:normal;text-indent:0;text-align:start;text-decoration:none;text-decoration-line:none;text-decoration-style:solid;text-decoration-color:#000000;letter-spacing:normal;word-spacing:normal;text-transform:none;writing-mode:lr-tb;direction:ltr;text-orientation:mixed;dominant-baseline:auto;baseline-shift:baseline;text-anchor:start;white-space:normal;shape-padding:0;clip-rule:nonzero;display:inline;overflow:visible;visibility:visible;opacity:0.6;isolation:auto;mix-blend-mode:normal;color-interpolation:sRGB;color-interpolation-filters:linearRGB;solid-color:#000000;solid-opacity:1;vector-effect:none;fill:#ffffff;fill-opacity:1;fill-rule:nonzero;stroke:none;stroke-width:1.03794062;stroke-linecap:butt;stroke-linejoin:miter;stroke-miterlimit:4;stroke-dasharray:1.03794067, 1.03794067;stroke-dashoffset:0.15260001;stroke-opacity:1;color-rendering:auto;image-rendering:auto;shape-rendering:auto;text-rendering:auto;enable-background:accumulate"
       d="m 10.968104,5.0741109 -0.321487,0.021263 0.06643,1.0361971 0.286948,-0.018597 0.682828,0.045165 0.06643,-1.0361972 -0.714711,-0.047832 h -0.03189 z m -1.3576845,0.087678 -0.148787,0.010611 -0.03454,0.00258 -0.03454,0.00531 -0.868812,0.1726996 0.199269,1.017599 0.826301,-0.1647289 0.127531,-0.00803 z m 3.2387825,0.066429 -0.201927,1.017599 1.017599,0.2019252 0.201927,-1.0176005 z M 7.4530029,5.6373818 6.6506141,5.9163576 6.6134165,5.9296896 6.5788757,5.9456336 6.41149,6.0333118 6.8950489,6.9526052 7.0225816,6.8861765 7.7930874,6.6204864 Z M 14.921596,5.7675727 14.584169,6.7479742 14.982706,6.8861343 15.458294,7.1358859 15.939195,6.2165912 15.42641,5.945586 15.39187,5.929642 15.354676,5.91631 Z M 5.4921982,6.5168221 5.4709432,6.5274332 5.4310888,6.5486964 5.3938912,6.5779179 4.5941597,7.1943277 5.2265059,8.0179722 6.0288948,7.3989097 5.7977431,7.0986788 Z M 16.901,6.801113 l -0.635002,0.8209877 0.579206,0.4463616 0.130191,0.1514459 0.789104,-0.6722013 -0.164728,-0.1912977 -0.03454,-0.042513 -0.04251,-0.031888 z M 3.8209973,8.0365798 3.7120641,8.164118 3.6828381,8.201311 3.6589261,8.241171 3.4065188,8.679562 3.3879208,8.71145 3.3746298,8.743338 3.2391279,9.0834233 4.2009319,9.4739905 4.320494,9.1764152 4.5277334,8.8097612 4.6100974,8.7114442 Z m 14.6369567,0.4011948 -0.898038,0.5180986 0.116913,0.2045834 0.162072,0.4011934 0.05048,0.2152109 1.009628,-0.241781 -0.06376,-0.2603764 -0.008,-0.037193 -0.01333,-0.037193 -0.185983,-0.4569891 -0.01333,-0.031888 -0.0186,-0.031888 z m -15.4499735,1.8146744 -0.00532,0.06111 -0.00265,0.03986 0.00265,0.04251 0.039855,0.486216 0.00265,0.03986 0.00797,0.03986 0.114247,0.472932 0.00797,0.03719 0.015941,0.03719 0.480903,-0.193956 0.5048144,-0.122219 -0.1036194,-0.43042 -0.034541,-0.406508 0.00265,-0.02126 h -0.00265 l -0.00265,-0.02126 -0.132845,0.01061 z m 14.9584435,0.06111 -0.03454,0.433078 -0.07173,0.305545 1.009627,0.24178 0.07971,-0.332115 0.01061,-0.03986 0.0027,-0.03986 0.03719,-0.486216 z m -0.470275,1.546326 -0.02657,0.04783 -0.57655,0.674858 0.791762,0.6722 0.605775,-0.709397 0.03189,-0.03719 0.02392,-0.04251 0.05049,-0.08768 z m -12.9657548,0.04251 -0.7891045,0.674858 c 0.3094985,0.381588 0.534116,0.603577 0.7598783,0.828958 -0.8146475,1.596138 -0.7947381,3.380586 -0.7811337,3.857842 A 0.68017081,0.68017081 0 0 0 4.4188036,17.925626 0.68017081,0.68017081 0 0 0 5.0803759,17.2242 c -0.00886,-0.310602 0.048187,-1.756713 0.5340406,-2.949179 0.2298968,0.124668 0.4678291,0.248349 0.6881414,0.342744 L 6.7861168,13.698463 C 6.557125,13.597527 6.3474866,13.462622 6.1325152,13.337123 A 0.68017081,0.68017081 0 0 0 5.9518448,12.468312 0.68017081,0.68017081 0 0 0 5.5081397,12.327495 0.68017081,0.68017081 0 0 0 5.0803759,12.505508 Z m 11.6372968,1.259378 -0.156759,0.122219 -0.661571,0.348056 0.480901,0.916637 0.704083,-0.369313 0.03986,-0.0186 0.03454,-0.02922 0.193956,-0.148788 z m -1.700427,0.839587 -0.688141,0.239122 -0.233809,0.04516 0.199268,1.017599 0.271005,-0.05314 0.03454,-0.0053 0.03454,-0.01333 0.720025,-0.249751 z m -6.7910798,0.04783 -0.3400855,0.980403 0.5845218,0.201925 0.03454,0.01333 0.03454,0.0053 0.411823,0.08237 0.201925,-1.017599 -0.382596,-0.07705 z m 4.8488738,0.438391 -0.08768,0.01594 -0.876784,0.0558 0.06643,1.036199 0.916636,-0.05846 0.03454,-0.0026 0.03189,-0.0053 0.1169,-0.02392 z m -2.9704335,0.01594 -0.06642,1.036199 1.0361975,0.06643 0.06643,-1.036197 z"
       id="path818"
       inkscape:connector-curvature="0" />
  </g>
</svg>
