<?xml version="1.0" encoding="UTF-8" standalone="no"?>
<!-- Created with Inkscape (http://www.inkscape.org/) -->

<svg xmlns:dc="http://purl.org/dc/elements/1.1/" xmlns:cc="http://creativecommons.org/ns#" xmlns:rdf="http://www.w3.org/1999/02/22-rdf-syntax-ns#" xmlns:svg="http://www.w3.org/2000/svg" xmlns="http://www.w3.org/2000/svg" xmlns:sodipodi="http://sodipodi.sourceforge.net/DTD/sodipodi-0.dtd" xmlns:inkscape="http://www.inkscape.org/namespaces/inkscape" width="22.000002" height="22" viewBox="0 0 22.000002 22" version="1.1" id="main" inkscape:version="0.92+devel (f318dbfe43, 2017-10-09, custom)" sodipodi:docname="editplots.svg">
  <defs id="ol-defs" />
  <sodipodi:namedview id="base" pagecolor="#002466" bordercolor="#ffffff" borderopacity="0.30" inkscape:pageopacity="1" inkscape:pageshadow="2" inkscape:zoom="18.58365" inkscape:document-units="px" inkscape:current-layer="main" inkscape:document-rotation="0" showgrid="false" inkscape:showpageshadow="false" borderlayer="true" inkscape:window-width="1920" inkscape:window-height="1027" inkscape:window-x="0" inkscape:window-y="24" inkscape:window-maximized="1" units="px" inkscape:cx="6.7489002" inkscape:cy="8.0269055" />
  <metadata id="metadata5">
    <rdf:RDF>
      <cc:Work rdf:about="">
        <dc:format>image/svg+xml</dc:format>
        <dc:type rdf:resource="http://purl.org/dc/dcmitype/StillImage" />
        <dc:title></dc:title>
      </cc:Work>
    </rdf:RDF>
  </metadata>
  <g id="g841" inkscape:label="#editplots" style="stroke:none;stroke-width:0.72727275" transform="scale(1.375)">
    <path style="fill:none;stroke:none;stroke-width:0.72727275" d="M -5.5000004e-8,-4.9999999e-8 H 16.000001 V 16 H -5.5000004e-8 Z" id="boundary" inkscape:label="#boundary" inkscape:connector-curvature="0" />
    <path style="opacity:0.4;fill:#d0d0d0;stroke:none;stroke-width:0.65454537" d="M 7.5898438,2 6.2714844,4.2832031 h 0.8183594 v 1.9746094 l 1,-0.3378906 V 4.2832031 h 0.8183593 z m 4.1269532,5.1230469 v 0.8183593 h -1.650391 l -0.3359372,1 H 11.716797 V 9.7597656 L 14,8.4414062 Z M 8.0898438,7.4746094 7.65625,7.9082031 C 7.3939792,7.8133386 7.1019727,7.8794205 6.9042969,8.0761719 6.6705579,8.3100389 6.6398581,8.6634511 6.8007812,8.9414062 H 7.0898438 V 9.2148438 C 7.3627668,9.3548391 7.699036,9.3197496 7.9238281,9.0957031 8.1205778,8.8980285 8.1847138,8.6040677 8.0898438,8.3417969 L 8.4902344,7.9414062 H 8.0898438 Z M 2,7.9414062 v 1 h 2.5390625 l 0.3496094,-1 z m 6.0898438,3.1562498 -1,0.34961 V 14 h 1 z" id="rect811" inkscape:connector-curvature="0" inkscape:label="#" />
    <path d="M 5.3990036,12.037706 9.1262091,10.73624 10.740988,5.936133 10.618053,5.8131979 8.0898439,8.3414062 C 8.1847139,8.603677 8.1197039,8.8971404 7.9229542,9.094815 7.663476,9.3534325 7.2512487,9.376186 6.9648838,9.1476922 6.9417202,9.1327803 6.9164997,9.1226309 6.8962131,9.1023566 6.8781548,9.0842738 6.869499,9.0616366 6.855689,9.0412398 6.6213517,8.7547831 6.6421329,8.3373832 6.9037548,8.075618 7.1014306,7.8788666 7.3948927,7.8138614 7.6571635,7.9087259 L 10.185371,5.3805176 10.060376,5.255522 5.2623294,6.8723619 3.9588036,10.597507 Z" id="path866" inkscape:connector-curvature="0" style="opacity:0.7;fill:#d0d0d0;stroke-width:0.72727275" inkscape:label="#" />
  </g>
</svg>
