<?xml version="1.0" encoding="UTF-8" standalone="no"?>
<!-- Created with Inkscape (http://www.inkscape.org/) -->

<svg
   xmlns:dc="http://purl.org/dc/elements/1.1/"
   xmlns:cc="http://creativecommons.org/ns#"
   xmlns:rdf="http://www.w3.org/1999/02/22-rdf-syntax-ns#"
   xmlns:svg="http://www.w3.org/2000/svg"
   xmlns="http://www.w3.org/2000/svg"
   xmlns:sodipodi="http://sodipodi.sourceforge.net/DTD/sodipodi-0.dtd"
   xmlns:inkscape="http://www.inkscape.org/namespaces/inkscape"
   width="22"
   height="22"
   viewBox="0 0 5.8208331 5.8208331"
   version="1.1"
   id="svg8"
   inkscape:version="0.92+devel (01e32517f0, 2017-08-26, custom)"
   sodipodi:docname="filename-group-tracks.svg">
  <defs
     id="defs2" />
  <sodipodi:namedview
     id="base"
     pagecolor="#002466"
     bordercolor="#ffffff"
     borderopacity="0.38039216"
     inkscape:pageopacity="1"
     inkscape:pageshadow="2"
     inkscape:zoom="10.137867"
     inkscape:cx="1.7057212"
     inkscape:cy="0.14928212"
     inkscape:document-units="px"
     inkscape:current-layer="svg8"
     inkscape:document-rotation="0"
     showgrid="false"
     inkscape:showpageshadow="false"
     borderlayer="true"
     inkscape:window-width="1920"
     inkscape:window-height="1051"
     inkscape:window-x="0"
     inkscape:window-y="0"
     inkscape:window-maximized="1"
     units="px" />
  <metadata
     id="metadata5">
    <rdf:RDF>
      <cc:Work
         rdf:about="">
        <dc:format>image/svg+xml</dc:format>
        <dc:type
           rdf:resource="http://purl.org/dc/dcmitype/StillImage" />
        <dc:title></dc:title>
      </cc:Work>
    </rdf:RDF>
  </metadata>
  <g
     id="g843"
     inkscape:label="#filename-group-tracks"
     transform="scale(1.375)">
    <rect
       inkscape:label="#boundary"
       y="4.4595335e-08"
       x="4.4595339e-08"
       height="4.2333331"
       width="4.2333331"
       id="rect811"
       style="fill:none;stroke-width:0.20485653" />
    <path
       inkscape:connector-curvature="0"
       inkscape:label="#"
       id="rect837"
       d="m 0.84658913,0.52916665 c -0.17589503,0 -0.31742248,0.1415275 -0.31742248,0.3174225 V 3.3867441 c 0,0.175895 0.14152745,0.3174224 0.31742248,0.3174224 H 3.3867442 c 0.175895,0 0.3174224,-0.1415274 0.3174224,-0.3174224 V 0.84658915 c 0,-0.175895 -0.1415274,-0.3174225 -0.3174224,-0.3174225 z M 1.3907419,1.0275858 H 1.7535104 V 1.3907419 H 2.4798227 V 1.0275858 H 2.8425913 V 1.3907419 H 3.2057474 V 1.7535104 H 2.8425913 V 2.4798226 H 3.2057474 V 2.8425912 H 2.8425913 V 3.2057473 H 2.4798227 V 2.8425912 H 1.7535104 V 3.2057473 H 1.3907419 V 2.8425912 H 1.0275858 V 2.4798226 H 1.3907419 V 1.7535104 H 1.0275858 V 1.3907419 H 1.3907419 Z M 1.7535104,1.7535104 V 2.4798226 H 2.4798227 V 1.7535104 Z"
       style="opacity:0.6;fill:#d0d0d0;stroke-width:0.1984375" />
  </g>
</svg>
