<?xml version="1.0" encoding="UTF-8" standalone="no"?>
<!-- Created with Inkscape (http://www.inkscape.org/) -->

<svg
   xmlns:dc="http://purl.org/dc/elements/1.1/"
   xmlns:cc="http://creativecommons.org/ns#"
   xmlns:rdf="http://www.w3.org/1999/02/22-rdf-syntax-ns#"
   xmlns:svg="http://www.w3.org/2000/svg"
   xmlns="http://www.w3.org/2000/svg"
   xmlns:sodipodi="http://sodipodi.sourceforge.net/DTD/sodipodi-0.dtd"
   xmlns:inkscape="http://www.inkscape.org/namespaces/inkscape"
   width="22"
   height="22"
   viewBox="0 0 5.8208331 5.8208331"
   version="1.1"
   id="svg8"
   inkscape:version="0.92+devel (01e32517f0, 2017-08-26, custom)"
   sodipodi:docname="filename-initial-amarok.svg">
  <defs
     id="defs2" />
  <sodipodi:namedview
     id="base"
     pagecolor="#002466"
     bordercolor="#ffffff"
     borderopacity="0.38039216"
     inkscape:pageopacity="1"
     inkscape:pageshadow="2"
     inkscape:zoom="10.137867"
     inkscape:cx="1.7057212"
     inkscape:cy="0.14928212"
     inkscape:document-units="px"
     inkscape:current-layer="svg8"
     inkscape:document-rotation="0"
     showgrid="false"
     inkscape:showpageshadow="false"
     borderlayer="true"
     inkscape:window-width="1920"
     inkscape:window-height="1051"
     inkscape:window-x="0"
     inkscape:window-y="0"
     inkscape:window-maximized="1"
     units="px" />
  <metadata
     id="metadata5">
    <rdf:RDF>
      <cc:Work
         rdf:about="">
        <dc:format>image/svg+xml</dc:format>
        <dc:type
           rdf:resource="http://purl.org/dc/dcmitype/StillImage" />
        <dc:title></dc:title>
      </cc:Work>
    </rdf:RDF>
  </metadata>
  <g
     id="g826"
     inkscape:label="#filename-initial-amarok"
     transform="scale(1.375)">
    <rect
       inkscape:label="#boundary"
       y="4.4595335e-08"
       x="4.4595335e-08"
       height="4.2333331"
       width="4.2333331"
       id="rect811"
       style="fill:none;stroke-width:0.20485653" />
    <path
       inkscape:label="#"
       inkscape:connector-curvature="0"
       id="path816"
       d="M 1.2128458,1.9202955 0.52916661,3.6757437 H 0.90537103 L 1.0500651,3.2768018 H 1.751831 L 1.9047931,3.6757437 H 2.2902994 L 1.5874999,1.9202955 Z m 1.2500529,0 V 3.6757437 H 2.7750244 V 3.4886751 c 0.051081,0.071035 0.1121814,0.1250334 0.1824177,0.1617471 0.071034,0.035917 0.1428601,0.053744 0.2154907,0.053744 0.1476558,0 0.2727276,-0.058373 0.3756876,-0.1756997 0.1037583,-0.1173266 0.1555461,-0.284684 0.1555461,-0.5017781 0,-0.2099108 -0.050565,-0.3709185 -0.1519287,-0.4826579 C 3.4508741,2.4314923 3.3226043,2.3755649 3.1677652,2.3755649 c -0.1420688,0 -0.2646947,0.059125 -0.3684529,0.1772501 V 1.9202955 Z M 1.3962972,2.3300896 1.6381429,2.9812125 H 1.1591023 Z M 3.078365,2.6329135 c 0.082208,0 0.1493775,0.032502 0.2020548,0.097152 0.052677,0.063851 0.079065,0.1684144 0.079065,0.3136759 0,0.1364816 -0.026388,0.2363886 -0.079065,0.3002398 -0.051879,0.063053 -0.1149087,0.094568 -0.1891357,0.094568 -0.096575,0 -0.1737632,-0.04445 -0.2320272,-0.1338418 -0.041503,-0.063053 -0.062528,-0.1607955 -0.062528,-0.2924887 2e-7,-0.1277027 0.026623,-0.2224826 0.080099,-0.2847372 0.053475,-0.063053 0.120926,-0.094568 0.2015381,-0.094568 z"
       style="font-style:normal;font-variant:normal;font-weight:bold;font-stretch:normal;font-size:2.45188522px;font-family:Arial;-inkscape-font-specification:'Arial Bold';opacity:0.6;fill:#d0d0d0;fill-opacity:1;stroke:none;stroke-width:0.15324283" />
  </g>
</svg>
