<?xml version="1.0" encoding="UTF-8" standalone="no"?>
<!-- Created with Inkscape (http://www.inkscape.org/) -->

<svg
   xmlns:dc="http://purl.org/dc/elements/1.1/"
   xmlns:cc="http://creativecommons.org/ns#"
   xmlns:rdf="http://www.w3.org/1999/02/22-rdf-syntax-ns#"
   xmlns:svg="http://www.w3.org/2000/svg"
   xmlns="http://www.w3.org/2000/svg"
   xmlns:sodipodi="http://sodipodi.sourceforge.net/DTD/sodipodi-0.dtd"
   xmlns:inkscape="http://www.inkscape.org/namespaces/inkscape"
   width="22.000002"
   height="22"
   viewBox="0 0 22.000002 22"
   version="1.1"
   id="main"
   inkscape:version="0.92+devel (327bdefa15, 2017-09-17, custom)"
   sodipodi:docname="filmgrain.svg">
  <defs
     id="ol-defs" />
  <sodipodi:namedview
     id="base"
     pagecolor="#002466"
     bordercolor="#ffffff"
     borderopacity="0.30"
     inkscape:pageopacity="1"
     inkscape:pageshadow="2"
     inkscape:zoom="13.140625"
     inkscape:document-units="px"
     inkscape:current-layer="main"
     inkscape:document-rotation="0"
     showgrid="false"
     inkscape:showpageshadow="false"
     borderlayer="true"
     inkscape:window-width="1920"
     inkscape:window-height="1017"
     inkscape:window-x="0"
     inkscape:window-y="34"
     inkscape:window-maximized="1"
     units="px"
     inkscape:cx="6.4045386"
     inkscape:cy="8.0269054" />
  <metadata
     id="metadata5">
    <rdf:RDF>
      <cc:Work
         rdf:about="">
        <dc:format>image/svg+xml</dc:format>
        <dc:type
           rdf:resource="http://purl.org/dc/dcmitype/StillImage" />
        <dc:title></dc:title>
      </cc:Work>
    </rdf:RDF>
  </metadata>
  <g
     id="g839"
     inkscape:label="#filmgrain"
     style="stroke:none">
    <path
       style="fill:none;stroke:none;stroke-width:1"
       d="M 0,0 H 22.000001 V 22 H 0 Z"
       id="boundary"
       inkscape:label="#boundary"
       inkscape:connector-curvature="0" />
    <path
       style="opacity:0.6;fill:#d0d0d0;stroke-width:1;stroke:none"
       d="M 3.0000009,18.999997 19.000001,19 V 3.000003 l -15.9999986,-3.1e-6 z m 1.130688,-0.95738 -1.1e-6,-2.545454 2.545456,10e-7 -4e-7,2.545454 z m 0.025564,-11.5397761 2e-7,-2.5454543 2.545454,4e-7 2e-7,2.5454539 z m 0.00711,5.7698851 1.1e-6,-2.5454519 2.5454533,-2e-6 1.2e-6,2.5454549 z m 11.0937491,5.769887 1e-6,-2.545454 h 2.545455 l -3e-6,2.545453 z m 0.02557,-11.5397721 3e-6,-2.545454 2.545453,7e-7 -3e-6,2.5454533 z m 0.0085,5.7698851 V 9.7272721 l 2.545454,2e-6 1e-6,2.5454529 z"
       id="path829"
       inkscape:connector-curvature="0"
       inkscape:label="#" />
  </g>
</svg>
