<?xml version="1.0" encoding="UTF-8" standalone="no"?>
<!-- Created with Inkscape (http://www.inkscape.org/) -->

<svg
   xmlns:dc="http://purl.org/dc/elements/1.1/"
   xmlns:cc="http://creativecommons.org/ns#"
   xmlns:rdf="http://www.w3.org/1999/02/22-rdf-syntax-ns#"
   xmlns:svg="http://www.w3.org/2000/svg"
   xmlns="http://www.w3.org/2000/svg"
   xmlns:sodipodi="http://sodipodi.sourceforge.net/DTD/sodipodi-0.dtd"
   xmlns:inkscape="http://www.inkscape.org/namespaces/inkscape"
   width="22.000002"
   height="22"
   viewBox="0 0 22.000002 22"
   version="1.1"
   id="main"
   inkscape:version="0.92+devel (327bdefa15, 2017-09-17, custom)"
   sodipodi:docname="flower-shape.svg">
  <defs
     id="ol-defs" />
  <sodipodi:namedview
     id="base"
     pagecolor="#002466"
     bordercolor="#ffffff"
     borderopacity="0.30"
     inkscape:pageopacity="1"
     inkscape:pageshadow="2"
     inkscape:zoom="13.140625"
     inkscape:document-units="px"
     inkscape:current-layer="main"
     inkscape:document-rotation="0"
     showgrid="false"
     inkscape:showpageshadow="false"
     borderlayer="true"
     inkscape:window-width="1920"
     inkscape:window-height="1017"
     inkscape:window-x="0"
     inkscape:window-y="34"
     inkscape:window-maximized="1"
     units="px"
     inkscape:cx="6.4045386"
     inkscape:cy="8.0269054" />
  <metadata
     id="metadata5">
    <rdf:RDF>
      <cc:Work
         rdf:about="">
        <dc:format>image/svg+xml</dc:format>
        <dc:type
           rdf:resource="http://purl.org/dc/dcmitype/StillImage" />
        <dc:title></dc:title>
      </cc:Work>
    </rdf:RDF>
  </metadata>
  <g
     id="g839"
     inkscape:label="#flower-shape"
     style="stroke:none">
    <path
       style="fill:none;stroke:none;stroke-width:1"
       d="M 0,0 H 22.000001 V 22 H 0 Z"
       id="boundary"
       inkscape:label="#boundary"
       inkscape:connector-curvature="0" />
    <path
       style="opacity:0.6;fill:#d0d0d0;stroke:none;stroke-width:1.79999983;stroke-dasharray:3.59999993, 1.79999997000000000;stroke-dashoffset:7.37999964"
       d="M 11.000004,2.999984 C 9.7135061,3.00018 8.670641,4.0430445 8.6704464,5.329542 c 3.2e-6,0.021415 0.00511,0.041223 0.00569,0.0625 -0.014621,-0.015436 -0.024648,-0.033167 -0.039773,-0.048295 -0.9098307,-0.9095526 -2.3828024,-0.9095547 -3.2926312,0 -0.9095531,0.9098304 -0.9095535,2.3828022 0,3.292631 0.015129,0.01512 0.03286,0.025147 0.048295,0.039774 -0.021281,-5.773e-4 -0.041091,-0.00573 -0.062506,-0.00573 -1.2865032,2e-4 -2.3293679,1.043062 -2.3295623,2.329563 1.949e-4,1.286497 1.0430593,2.329363 2.3295578,2.329557 0.021415,-4e-6 0.041223,-0.0051 0.0625,-0.0057 -0.015436,0.01463 -0.033167,0.02465 -0.048296,0.03977 -0.9095543,0.909828 -0.9095548,2.3828 0,3.29263 0.9098297,0.909554 2.3828014,0.909556 3.2926312,0 0.015124,-0.01513 0.025152,-0.03285 0.039773,-0.04829 -5.775e-4,0.02128 -0.00567,0.04108 -0.00569,0.06249 2.061e-4,1.286515 1.0430698,2.329379 2.3295691,2.329574 1.286498,-1.95e-4 2.329364,-1.043059 2.329558,-2.329558 -3e-6,-0.02141 -0.0051,-0.04123 -0.0057,-0.06249 0.01462,0.01544 0.02465,0.03316 0.03977,0.04829 0.909831,0.909556 2.382802,0.909554 3.292632,0 0.909553,-0.90983 0.909555,-2.382802 0,-3.292632 -0.01513,-0.01512 -0.03285,-0.02515 -0.04829,-0.03977 0.02128,5.77e-4 0.04108,0.0057 0.06251,0.0057 1.286499,-2.12e-4 2.329365,-1.043074 2.329559,-2.329572 -1.96e-4,-1.286499 -1.04306,-2.3293643 -2.329558,-2.3295576 -0.02141,2.6e-6 -0.04123,0.00507 -0.06249,0.00573 0.01544,-0.014627 0.03316,-0.024653 0.04829,-0.039773 0.909553,-0.9098315 0.909554,-2.3828033 0,-3.2926316 -0.90983,-0.9095531 -2.382802,-0.9095538 -3.292631,0 -0.01512,0.015128 -0.02515,0.03286 -0.03977,0.048295 5.78e-4,-0.021276 0.0057,-0.041086 0.0057,-0.0625 -2.19e-4,-1.2865031 -1.043081,-2.3293689 -2.32958,-2.3295628 z m 0,4.7613885 A 3.2376554,3.2376554 0 0 1 14.238658,11.000027 3.2376554,3.2376554 0 0 1 11.000004,14.23868 3.2376554,3.2376554 0 0 1 7.7613508,11.000027 3.2376554,3.2376554 0 0 1 11.000004,7.7613725 Z"
       id="path835"
       inkscape:connector-curvature="0"
       inkscape:label="#" />
  </g>
</svg>
