<?xml version="1.0" encoding="UTF-8" standalone="no"?>
<svg
   xmlns:dc="http://purl.org/dc/elements/1.1/"
   xmlns:cc="http://creativecommons.org/ns#"
   xmlns:rdf="http://www.w3.org/1999/02/22-rdf-syntax-ns#"
   xmlns:svg="http://www.w3.org/2000/svg"
   xmlns="http://www.w3.org/2000/svg"
   xmlns:sodipodi="http://sodipodi.sourceforge.net/DTD/sodipodi-0.dtd"
   xmlns:inkscape="http://www.inkscape.org/namespaces/inkscape"
   viewBox="0 0 22 22"
   version="1.1"
   id="svg12"
   sodipodi:docname="format-border-style.svg"
   inkscape:version="0.92+devel (d0930c9bda, 2017-08-13, custom)"
   width="22"
   height="22">
  <metadata
     id="metadata16">
    <rdf:RDF>
      <cc:Work
         rdf:about="">
        <dc:format>image/svg+xml</dc:format>
        <dc:type
           rdf:resource="http://purl.org/dc/dcmitype/StillImage" />
        <dc:title></dc:title>
      </cc:Work>
    </rdf:RDF>
  </metadata>
  <sodipodi:namedview
     pagecolor="#002466"
     bordercolor="#ffffff"
     inkscape:document-rotation="0"
     borderopacity="0.25098039"
     objecttolerance="10"
     gridtolerance="10"
     guidetolerance="10"
     inkscape:pageopacity="1"
     inkscape:pageshadow="2"
     inkscape:window-width="1920"
     inkscape:window-height="1027"
     id="namedview14"
     showgrid="false"
     inkscape:snap-page="true"
     inkscape:snap-grids="false"
     inkscape:snap-to-guides="false"
     borderlayer="true"
     inkscape:showpageshadow="false"
     inkscape:zoom="32.482718"
     inkscape:cx="11.583627"
     inkscape:cy="6.8529111"
     inkscape:window-x="0"
     inkscape:window-y="24"
     inkscape:window-maximized="1"
     inkscape:current-layer="svg12" />
  <defs
     id="defs3051">
    <style
       type="text/css"
       id="current-color-scheme">
      .ColorScheme-Text {
        color:#f2f2f2;
      }
      .ColorScheme-NeutralText {
        color:#f67400;
      }
      </style>
  </defs>
  <g
     transform="matrix(1.375,0,0,1.375,-579.85715,-731.21223)"
     id="g10"
     inkscape:label="#format-border-style">
    <rect
       style="fill:none;stroke-width:1.29999995"
       id="rect828"
       width="16"
       height="16"
       x="421.71429"
       y="531.79071"
       inkscape:label="#boundary" />
    <path
       inkscape:connector-curvature="0"
       id="path4"
       d="m 423.71429,533.79073 v 12 h 12 v -12 z m 1,1 h 10 v 10 h -10 z"
       style="fill:#00ff00;fill-opacity:1;stroke:none;stroke-width:0.74999905"
       inkscape:label="#" />
    <path
       inkscape:label="#"
       sodipodi:nodetypes="ccccccccscscc"
       inkscape:connector-curvature="0"
       id="path814"
       d="m 431.4992,535.89261 -1.09456,2.21272 c 0.21798,0.0789 0.42493,0.18215 0.60966,0.31631 0.13796,0.1002 0.26514,0.21532 0.37758,0.34299 0.10777,0.1224 0.20178,0.2544 0.28089,0.394 l 1.89375,-1.63293 c -0.50663,-1.03629 -1.24255,-1.45444 -2.06732,-1.63309 z m -0.73362,2.87219 c -0.79599,-0.57346 -2.09177,-0.59996 -2.88543,0.46353 -1.3185,1.76677 0.33863,2.31552 -2.11312,4.3231 0,0 2.93129,0.22274 4.73158,-1.34941 1.24425,-1.08657 1.2975,-2.33823 0.57443,-3.15933 -0.0904,-0.10264 -0.19375,-0.19597 -0.30746,-0.27789 z"
       style="opacity:0.7;fill:#d0d0d0;stroke:none;stroke-width:0.50341862px;stroke-linecap:butt;stroke-linejoin:miter;stroke-opacity:1" />
  </g>
</svg>
