<?xml version="1.0" encoding="UTF-8" standalone="no"?>
<!-- Created with Inkscape (http://www.inkscape.org/) -->

<svg
   xmlns:dc="http://purl.org/dc/elements/1.1/"
   xmlns:cc="http://creativecommons.org/ns#"
   xmlns:rdf="http://www.w3.org/1999/02/22-rdf-syntax-ns#"
   xmlns:svg="http://www.w3.org/2000/svg"
   xmlns="http://www.w3.org/2000/svg"
   xmlns:sodipodi="http://sodipodi.sourceforge.net/DTD/sodipodi-0.dtd"
   xmlns:inkscape="http://www.inkscape.org/namespaces/inkscape"
   width="22"
   height="22"
   viewBox="0 0 5.8208331 5.8208331"
   version="1.1"
   id="main"
   inkscape:version="0.92+devel (5451be0409, 2017-08-29, custom)"
   sodipodi:docname="format-text-capitalize.svg">
  <defs
     id="ol-defs" />
  <sodipodi:namedview
     id="base"
     pagecolor="#002466"
     bordercolor="#ffffff"
     borderopacity="0.38039216"
     inkscape:pageopacity="1"
     inkscape:pageshadow="2"
     inkscape:zoom="20.275734"
     inkscape:cx="13.965621"
     inkscape:cy="8.7307127"
     inkscape:document-units="px"
     inkscape:current-layer="main"
     inkscape:document-rotation="0"
     showgrid="false"
     inkscape:showpageshadow="false"
     borderlayer="true"
     inkscape:window-width="1920"
     inkscape:window-height="1025"
     inkscape:window-x="0"
     inkscape:window-y="26"
     inkscape:window-maximized="1"
     units="px" />
  <metadata
     id="metadata5">
    <rdf:RDF>
      <cc:Work
         rdf:about="">
        <dc:format>image/svg+xml</dc:format>
        <dc:type
           rdf:resource="http://purl.org/dc/dcmitype/StillImage" />
        <dc:title></dc:title>
      </cc:Work>
    </rdf:RDF>
  </metadata>
  <g
     id="g833"
     inkscape:label="#format-text-capitalize"
     transform="scale(1.375)"
     style="stroke-width:0.72727275">
    <path
       inkscape:connector-curvature="0"
       inkscape:label="#boundary"
       id="rect811"
       d="M 4.4595339e-8,4.4595335e-8 H 4.2333332 V 4.2333332 H 4.4595339e-8 Z"
       style="fill:none;stroke-width:0.14898656" />
    <path
       style="font-size:3.85813951px;font-family:Arial;-inkscape-font-specification:Arial;opacity:0.6;fill:#d0d0d0;stroke-width:0.19242424"
       d="M 1.3797607,1.7254761 0.65732414,3.6070148 H 0.92190747 L 1.1286132,3.037024 H 1.9151285 L 2.1347533,3.6070148 H 2.4112222 L 1.6484781,1.7254761 Z m 1.0314615,1.8815387 v 0.00517 H 2.6225788 V 3.4437169 c 0.090224,0.132384 0.2145802,0.1989542 0.373104,0.1989542 0.1593667,0 0.2959605,-0.062981 0.409794,-0.1886188 C 3.5193101,3.3284136 3.576009,3.150431 3.576009,2.9202345 3.576009,2.8232655 3.562685,2.7320306 3.535701,2.6468662 3.5087188,2.561702 3.4711102,2.4896933 3.4230468,2.4298253 3.3758271,2.3691142 3.3153484,2.3221507 3.2411457,2.2892654 3.1677863,2.2555374 3.0896861,2.2386225 3.0070514,2.2386225 c -0.1492483,0 -0.2718101,0.060288 -0.3679361,0.1808675 V 1.7315733 H 2.4112222 Z M 1.508435,1.92288 1.6417602,2.3130371 1.8381306,2.8344524 H 1.2004434 L 1.4071492,2.282548 Z m 1.4784628,0.5028117 c 0.098656,0 0.1825207,0.041579 0.251664,0.125057 0.069987,0.083478 0.1049033,0.2132189 0.1049033,0.3886067 0,0.171172 -0.036521,0.3002058 -0.1090374,0.3870566 -0.072516,0.086007 -0.1583664,0.1286743 -0.2578653,0.1286743 -0.1222656,0 -0.2192654,-0.058494 -0.2909383,-0.1757 C 2.6417774,3.2077136 2.619995,3.0916237 2.619995,2.9305705 2.6199947,2.7669876 2.6559994,2.6419238 2.7285155,2.5559163 2.8010315,2.4690657 2.8873989,2.4256917 2.9868978,2.4256917 Z"
       id="path816"
       inkscape:connector-curvature="0"
       sodipodi:nodetypes="cccccccccccccscscccsccccccccccscscscccs"
       inkscape:label="#" />
    <path
       inkscape:label="#"
       inkscape:transform-center-y="-0.11461501"
       d="m 2.1166666,0.43207905 0.3970382,0.68769035 -0.7940765,0 z"
       inkscape:randomized="0"
       inkscape:rounded="0"
       inkscape:flatsided="true"
       sodipodi:arg2="-0.52359878"
       sodipodi:arg1="-1.5707963"
       sodipodi:r2="0.22923011"
       sodipodi:r1="0.45846024"
       sodipodi:cy="0.89053929"
       sodipodi:cx="2.1166666"
       sodipodi:sides="3"
       id="path827"
       style="fill:#00ff00;stroke-width:0.33289394;stroke-linecap:square"
       sodipodi:type="star" />
  </g>
</svg>
