<?xml version="1.0" encoding="UTF-8" standalone="no"?>
<!-- Created with Inkscape (http://www.inkscape.org/) -->

<svg
   xmlns:dc="http://purl.org/dc/elements/1.1/"
   xmlns:cc="http://creativecommons.org/ns#"
   xmlns:rdf="http://www.w3.org/1999/02/22-rdf-syntax-ns#"
   xmlns:svg="http://www.w3.org/2000/svg"
   xmlns="http://www.w3.org/2000/svg"
   xmlns:sodipodi="http://sodipodi.sourceforge.net/DTD/sodipodi-0.dtd"
   xmlns:inkscape="http://www.inkscape.org/namespaces/inkscape"
   width="22.000002"
   height="22"
   viewBox="0 0 22.000002 22"
   version="1.1"
   id="main"
   inkscape:version="0.92+devel (42c84a5464, 2017-09-20, custom)"
   sodipodi:docname="format-list-unordered.svg">
  <defs
     id="ol-defs" />
  <sodipodi:namedview
     id="base"
     pagecolor="#002466"
     bordercolor="#ffffff"
     borderopacity="0.30"
     inkscape:pageopacity="1"
     inkscape:pageshadow="2"
     inkscape:zoom="13.140625"
     inkscape:document-units="px"
     inkscape:current-layer="main"
     inkscape:document-rotation="0"
     showgrid="false"
     inkscape:showpageshadow="false"
     borderlayer="true"
     inkscape:window-width="1920"
     inkscape:window-height="1017"
     inkscape:window-x="0"
     inkscape:window-y="34"
     inkscape:window-maximized="1"
     units="px"
     inkscape:cx="6.5947884"
     inkscape:cy="8.0269056" />
  <metadata
     id="metadata5">
    <rdf:RDF>
      <cc:Work
         rdf:about="">
        <dc:format>image/svg+xml</dc:format>
        <dc:type
           rdf:resource="http://purl.org/dc/dcmitype/StillImage" />
        <dc:title></dc:title>
      </cc:Work>
    </rdf:RDF>
  </metadata>
  <g
     id="g839"
     inkscape:label="#format-list-unordered"
     style="stroke:none;stroke-width:1">
    <path
       style="fill:none;stroke:none;stroke-width:1"
       d="M 0,0 H 22.000001 V 22 H 0 Z"
       id="boundary"
       inkscape:label="#boundary"
       inkscape:connector-curvature="0" />
    <path
       style="opacity:0.6;fill:#d0d0d0;stroke:none;stroke-width:1.33000004"
       d="M 4.5871038,3.0000008 A 2.2020381,2.2020381 0 0 0 2.3859127,5.2039973 2.2020381,2.2020381 0 0 0 4.5871038,7.4051885 2.2020381,2.2020381 0 0 0 6.7910989,5.2039973 2.2020381,2.2020381 0 0 0 4.5871038,3.0000008 Z M 9.073609,4.3796017 V 6.0255876 H 19.61409 V 4.3796017 Z M 4.5871038,8.7988088 A 2.2020381,2.2020381 0 0 0 2.3859127,11 2.2020381,2.2020381 0 0 0 4.5871038,13.201191 2.2020381,2.2020381 0 0 0 6.7910989,11 2.2020381,2.2020381 0 0 0 4.5871038,8.7988088 Z M 9.073609,10.175604 v 1.645988 H 19.61409 v -1.645988 z m -4.4865052,4.419207 a 2.2020381,2.2020381 0 0 0 -2.2011911,2.201192 2.2020381,2.2020381 0 0 0 2.2011911,2.203996 2.2020381,2.2020381 0 0 0 2.2039951,-2.203996 2.2020381,2.2020381 0 0 0 -2.2039951,-2.201192 z m 4.4865052,1.376797 v 1.64879 H 19.61409 v -1.64879 z"
       id="path838"
       inkscape:connector-curvature="0"
       inkscape:label="#" />
  </g>
</svg>
