<?xml version="1.0" encoding="UTF-8" standalone="no"?>
<!-- Created with Inkscape (http://www.inkscape.org/) -->

<svg
   xmlns:dc="http://purl.org/dc/elements/1.1/"
   xmlns:cc="http://creativecommons.org/ns#"
   xmlns:rdf="http://www.w3.org/1999/02/22-rdf-syntax-ns#"
   xmlns:svg="http://www.w3.org/2000/svg"
   xmlns="http://www.w3.org/2000/svg"
   xmlns:sodipodi="http://sodipodi.sourceforge.net/DTD/sodipodi-0.dtd"
   xmlns:inkscape="http://www.inkscape.org/namespaces/inkscape"
   width="22"
   height="22"
   viewBox="0 0 5.8208331 5.8208331"
   version="1.1"
   id="svg8"
   inkscape:version="0.92+devel (5451be0409, 2017-08-29, custom)"
   sodipodi:docname="format-list-ordered.svg">
  <defs
     id="defs2" />
  <sodipodi:namedview
     id="base"
     pagecolor="#002466"
     bordercolor="#ffffff"
     borderopacity="0.38039216"
     inkscape:pageopacity="1"
     inkscape:pageshadow="2"
     inkscape:zoom="40.551468"
     inkscape:cx="4.2515657"
     inkscape:cy="7.9030544"
     inkscape:document-units="px"
     inkscape:current-layer="svg8"
     inkscape:document-rotation="0"
     showgrid="false"
     inkscape:showpageshadow="false"
     borderlayer="true"
     inkscape:window-width="1920"
     inkscape:window-height="1051"
     inkscape:window-x="0"
     inkscape:window-y="0"
     inkscape:window-maximized="1"
     units="px" />
  <metadata
     id="metadata5">
    <rdf:RDF>
      <cc:Work
         rdf:about="">
        <dc:format>image/svg+xml</dc:format>
        <dc:type
           rdf:resource="http://purl.org/dc/dcmitype/StillImage" />
        <dc:title></dc:title>
      </cc:Work>
    </rdf:RDF>
  </metadata>
  <g
     id="g872"
     inkscape:label="#format-list-ordered"
     transform="scale(1.375)"
     style="stroke-width:0.72727269">
    <rect
       inkscape:label="#boundary"
       y="4.4595335e-08"
       x="4.4595339e-08"
       height="4.2333331"
       width="4.2333331"
       id="rect811"
       style="fill:none;stroke-width:0.14898656" />
    <path
       inkscape:label="#"
       inkscape:connector-curvature="0"
       id="path838"
       transform="scale(0.26458333)"
       d="M 6.6582031,3.3105469 V 4.4570312 H 14 V 3.3105469 Z m 0,4.0371093 V 8.4941406 H 14 V 7.3476562 Z m 0,4.0371098 v 1.148437 H 14 v -1.148437 z"
       style="opacity:0.6;fill:#d0d0d0;stroke-width:0.96727276" />
    <path
       inkscape:label="#"
       id="circle836"
       d="M 1.3862959,1.0274829 A 0.40581602,0.40581602 0 0 1 0.98047984,1.4332989 0.40581602,0.40581602 0 0 1 0.57466382,1.0274829 0.40581602,0.40581602 0 0 1 0.98047984,0.62166685 0.40581602,0.40581602 0 0 1 1.3862959,1.0274829"
       style="fill:#ff0000;stroke-width:0.25592425"
       inkscape:connector-curvature="0" />
    <path
       inkscape:label="#"
       id="circle840"
       d="M 1.363412,2.0958405 A 0.40581602,0.40581602 0 0 1 0.957596,2.5016565 0.40581602,0.40581602 0 0 1 0.55177999,2.0958405 0.40581602,0.40581602 0 0 1 0.957596,1.6900244 0.40581602,0.40581602 0 0 1 1.363412,2.0958405"
       style="fill:#ff6600;stroke-width:0.25592425"
       inkscape:connector-curvature="0" />
    <path
       inkscape:label="#"
       id="path812"
       d="M 1.3407987,3.1641982 A 0.40581602,0.40581602 0 0 1 0.93498272,3.5700142 0.40581602,0.40581602 0 0 1 0.5291667,3.1641982 0.40581602,0.40581602 0 0 1 0.93498272,2.7583821 0.40581602,0.40581602 0 0 1 1.3407987,3.1641982"
       style="fill:#ffb900;stroke-width:0.25592425"
       inkscape:connector-curvature="0" />
  </g>
</svg>
