<?xml version="1.0" encoding="UTF-8" standalone="no"?>
<!-- Created with Inkscape (http://www.inkscape.org/) -->

<svg
   xmlns:dc="http://purl.org/dc/elements/1.1/"
   xmlns:cc="http://creativecommons.org/ns#"
   xmlns:rdf="http://www.w3.org/1999/02/22-rdf-syntax-ns#"
   xmlns:svg="http://www.w3.org/2000/svg"
   xmlns="http://www.w3.org/2000/svg"
   xmlns:sodipodi="http://sodipodi.sourceforge.net/DTD/sodipodi-0.dtd"
   xmlns:inkscape="http://www.inkscape.org/namespaces/inkscape"
   width="22"
   height="22"
   viewBox="0 0 5.8208331 5.8208331"
   version="1.1"
   id="main"
   inkscape:version="0.92+devel (5451be0409, 2017-08-29, custom)"
   sodipodi:docname="format-precision-less.svg">
  <defs
     id="ol-defs" />
  <sodipodi:namedview
     id="base"
     pagecolor="#002466"
     bordercolor="#ffffff"
     borderopacity="0.38039216"
     inkscape:pageopacity="1"
     inkscape:pageshadow="2"
     inkscape:zoom="20.275734"
     inkscape:cx="10.813453"
     inkscape:cy="6.2176441"
     inkscape:document-units="px"
     inkscape:current-layer="main"
     inkscape:document-rotation="0"
     showgrid="false"
     inkscape:showpageshadow="false"
     borderlayer="true"
     inkscape:window-width="1920"
     inkscape:window-height="1025"
     inkscape:window-x="0"
     inkscape:window-y="26"
     inkscape:window-maximized="1"
     units="px" />
  <metadata
     id="metadata5">
    <rdf:RDF>
      <cc:Work
         rdf:about="">
        <dc:format>image/svg+xml</dc:format>
        <dc:type
           rdf:resource="http://purl.org/dc/dcmitype/StillImage" />
        <dc:title></dc:title>
      </cc:Work>
    </rdf:RDF>
  </metadata>
  <g
     id="g836"
     inkscape:label="#format-precision-more"
     transform="scale(1.375)"
     style="stroke-width:0.72727275">
    <path
       inkscape:connector-curvature="0"
       inkscape:label="#boundary"
       id="rect811"
       d="M 4.4595339e-8,4.4595335e-8 H 4.2333332 V 4.2333332 H 4.4595339e-8 Z"
       style="fill:none;stroke-width:0.14898656" />
    <path
       inkscape:label="#"
       inkscape:connector-curvature="0"
       id="path820"
       transform="scale(0.26458333)"
       d="m 5.8398438,6.3144531 c -0.8349965,0 -1.4735673,0.3321317 -1.9160157,0.9941407 C 3.4847068,7.9672762 3.265625,8.924156 3.265625,10.181641 c 0,1.254158 0.2190818,2.21299 0.6582031,2.875 0.4424484,0.658682 1.0810192,0.988281 1.9160157,0.988281 0.8349964,0 1.4729872,-0.329599 1.9121093,-0.988281 0.4424489,-0.66201 0.6621094,-1.620842 0.6621094,-2.875 0,-1.257485 -0.2196605,-2.2143648 -0.6621094,-2.8730472 C 7.312831,6.6465848 6.6748402,6.3144531 5.8398438,6.3144531 Z m 0,0.7988281 c 0.5222883,10e-8 0.9143469,0.2572229 1.1738281,0.7695313 0.2628079,0.5089819 0.3925781,1.274211 0.3925781,2.2988285 0,1.02129 -0.1297702,1.788472 -0.3925781,2.300781 -0.2594812,0.508982 -0.6515398,0.763672 -1.1738281,0.763672 -0.518962,0 -0.9090674,-0.25469 -1.171875,-0.763672 -0.259481,-0.512309 -0.390625,-1.279491 -0.390625,-2.300781 0,-1.0246175 0.131144,-1.7898466 0.390625,-2.2988285 0.2628076,-0.5123084 0.652913,-0.7695313 1.171875,-0.7695313 z M 1.9003906,12.632812 v 1.267579 H 2.953125 v -1.267579 z"
       style="font-style:normal;font-variant:normal;font-weight:normal;font-stretch:normal;font-size:4.23333311px;font-family:'Misc Fixed';-inkscape-font-specification:'Misc Fixed';opacity:0.6;fill:#d0d0d0;stroke-width:0.72727263" />
    <path
       inkscape:label="#"
       d="m 2.9964461,1.8821336 q -0.2059631,0 -0.3102648,0.2033224 -0.1029815,0.2020022 -0.1029815,0.6086471 0,0.4053247 0.1029815,0.6086472 0.1043017,0.2020021 0.3102648,0.2020021 0.2072831,0 0.3102649,-0.2020021 0.1043017,-0.2033225 0.1043017,-0.6086472 0,-0.4066449 -0.1043017,-0.6086471 Q 3.2037292,1.8821336 2.9964461,1.8821336 Z m 0,-0.2112441 q 0.3313894,0 0.5056654,0.2627348 0.1755968,0.2614146 0.1755968,0.7604788 0,0.4977439 -0.1755968,0.7604788 -0.174276,0.2614145 -0.5056654,0.2614145 -0.3313892,0 -0.5069859,-0.2614145 Q 2.3151839,3.191847 2.3151839,2.6941031 q 0,-0.4990642 0.1742763,-0.7604788 0.1755967,-0.2627348 0.5069859,-0.2627348 z"
       style="font-style:normal;font-variant:normal;font-weight:normal;font-stretch:normal;font-size:4.23333311px;font-family:'Misc Fixed';-inkscape-font-specification:'Misc Fixed';fill:#ff0000;stroke-width:0.19242421"
       id="path824"
       inkscape:connector-curvature="0" />
  </g>
</svg>
