<?xml version="1.0" encoding="UTF-8" standalone="no"?>
<!-- Created with Inkscape (http://www.inkscape.org/) -->

<svg
   xmlns:dc="http://purl.org/dc/elements/1.1/"
   xmlns:cc="http://creativecommons.org/ns#"
   xmlns:rdf="http://www.w3.org/1999/02/22-rdf-syntax-ns#"
   xmlns:svg="http://www.w3.org/2000/svg"
   xmlns="http://www.w3.org/2000/svg"
   xmlns:sodipodi="http://sodipodi.sourceforge.net/DTD/sodipodi-0.dtd"
   xmlns:inkscape="http://www.inkscape.org/namespaces/inkscape"
   width="22.000002"
   height="22"
   viewBox="0 0 22.000002 22"
   version="1.1"
   id="main"
   inkscape:version="0.92+devel (327bdefa15, 2017-09-17, custom)"
   sodipodi:docname="format-currency.svg">
  <defs
     id="ol-defs" />
  <sodipodi:namedview
     id="base"
     pagecolor="#002466"
     bordercolor="#ffffff"
     borderopacity="0.30"
     inkscape:pageopacity="1"
     inkscape:pageshadow="2"
     inkscape:zoom="13.140625"
     inkscape:document-units="px"
     inkscape:current-layer="main"
     inkscape:document-rotation="0"
     showgrid="false"
     inkscape:showpageshadow="false"
     borderlayer="true"
     inkscape:window-width="1920"
     inkscape:window-height="1017"
     inkscape:window-x="0"
     inkscape:window-y="34"
     inkscape:window-maximized="1"
     units="px"
     inkscape:cx="6.4045386"
     inkscape:cy="8.0269054" />
  <metadata
     id="metadata5">
    <rdf:RDF>
      <cc:Work
         rdf:about="">
        <dc:format>image/svg+xml</dc:format>
        <dc:type
           rdf:resource="http://purl.org/dc/dcmitype/StillImage" />
        <dc:title></dc:title>
      </cc:Work>
    </rdf:RDF>
  </metadata>
  <g
     id="g839"
     inkscape:label="#format-currency"
     style="stroke:none">
    <path
       style="fill:none;stroke:none;stroke-width:1"
       d="M 0,0 H 22.000001 V 22 H 0 Z"
       id="boundary"
       inkscape:label="#boundary"
       inkscape:connector-curvature="0" />
    <path
       inkscape:label="#"
       inkscape:connector-curvature="0"
       style="opacity:0.6;fill:#d0d0d0;stroke-width:1.79999995;stroke-dasharray:3.59999984, 1.79999992000000009;stroke-dashoffset:7.37999964;stroke:none"
       d="m 10.475911,3.0000021 h 1.205729 c 0.08329,0 0.15212,0.027129 0.205728,0.080729 0.0536,0.0536 0.08073,0.122432 0.08073,0.2057292 v 1.5703119 c 0.339289,0.035733 0.668526,0.1045653 0.986979,0.2057291 0.318454,0.1011906 0.576637,0.2012658 0.776041,0.2994791 0.199404,0.098213 0.38914,0.2083287 0.567708,0.3333332 0.178569,0.124996 0.295385,0.21279 0.348959,0.2604166 0.0536,0.047644 0.09712,0.089356 0.132813,0.125 0.101187,0.1071373 0.11568,0.2194927 0.04427,0.3385415 l -0.723957,1.304687 c -0.04764,0.089289 -0.113867,0.1372824 -0.203126,0.143229 -0.08329,0.017867 -0.164765,-0.00295 -0.242188,-0.0625 -0.01787,-0.017867 -0.06176,-0.055775 -0.130213,-0.1093746 -0.06844,-0.0536 -0.182652,-0.1302333 -0.34635,-0.2343752 C 13.015347,7.3567782 12.840123,7.260791 12.655597,7.17448 12.471073,7.0881688 12.250468,7.0111626 11.991535,6.9427091 11.732611,6.8742651 11.475911,6.8385425 11.225911,6.8385425 c -0.565476,0 -1.025666,0.1294613 -1.3828128,0.3854167 -0.357137,0.2559553 -0.536457,0.5848276 -0.536457,0.9895829 0,0.1547645 0.02494,0.2987362 0.07552,0.4296875 0.05058,0.1309505 0.140603,0.2537205 0.265625,0.3697914 0.124996,0.1160707 0.241438,0.2139153 0.351562,0.2942708 0.1101198,0.080356 0.2767828,0.174477 0.4999998,0.2786458 0.223209,0.1041692 0.402156,0.1830326 0.539062,0.2395833 0.136907,0.056533 0.34524,0.1376359 0.625,0.2447921 0.315476,0.119053 0.557292,0.212796 0.723958,0.281249 0.166667,0.06844 0.393972,0.172616 0.679687,0.3125 0.285716,0.139885 0.51079,0.267115 0.67448,0.380208 0.163689,0.113093 0.346722,0.263393 0.552082,0.447917 0.20536,0.184524 0.363843,0.371655 0.473959,0.565104 0.11012,0.193457 0.203872,0.422993 0.281249,0.684895 0.07743,0.261903 0.117187,0.540915 0.117187,0.838543 h -0.0027 c 0,0.91071 -0.295763,1.693827 -0.88802,2.35156 -0.592266,0.657743 -1.360865,1.063987 -2.307291,1.218751 v 1.562499 c 0,0.08329 -0.02713,0.152112 -0.08073,0.205729 -0.0536,0.0536 -0.12244,0.08073 -0.205734,0.08073 h -1.205698 c -0.07743,0 -0.144013,-0.0294 -0.200521,-0.08593 -0.05653,-0.05653 -0.08333,-0.12312 -0.08333,-0.200521 V 17.151044 C 9.7992042,17.097444 9.4201082,17.005926 9.0540372,16.875002 8.6879664,16.744056 8.3858854,16.610494 8.1477876,16.476565 7.9096899,16.342636 7.6887116,16.201268 7.4863295,16.049481 7.2839563,15.897695 7.1440718,15.784975 7.069663,15.713544 6.995263,15.642077 6.9431817,15.590357 6.9134131,15.554689 6.8122224,15.429689 6.8085078,15.306551 6.8977877,15.187503 l 0.9192705,-1.205729 c 0.041689,-0.05956 0.110512,-0.09495 0.2057292,-0.106773 0.089289,-0.01187 0.1599771,0.01521 0.2135416,0.08073 l 0.018229,0.01823 c 0.6726131,0.589279 1.3954572,0.959818 2.169271,1.114582 0.22024,0.04764 0.441226,0.07292 0.661457,0.07292 0.482152,0 0.904762,-0.129467 1.270833,-0.385416 0.366072,-0.255957 0.54948,-0.618302 0.54948,-1.088542 0,-0.166667 -0.04352,-0.325151 -0.132814,-0.47396 -0.08929,-0.148808 -0.189365,-0.273808 -0.29948,-0.375 -0.11012,-0.101187 -0.285339,-0.211315 -0.523437,-0.333333 -0.238097,-0.122027 -0.433776,-0.218004 -0.588541,-0.286457 -0.154754,-0.06844 -0.392109,-0.164059 -0.713541,-0.289063 -0.232143,-0.09525 -0.41555,-0.1704 -0.549478,-0.223964 C 9.9643782,11.652128 9.7809702,11.572888 9.5488282,11.46875 9.3166862,11.36458 9.1314212,11.273063 8.9915372,11.192707 8.8516614,11.112352 8.6827641,11.005951 8.4863287,10.874999 8.2899021,10.744049 8.1291799,10.616818 8.0071622,10.494791 7.8851355,10.372765 7.756048,10.226935 7.6191415,10.057291 7.4822347,9.8876555 7.3784373,9.7146623 7.3040373,9.5390626 7.2296374,9.3634714 7.1671419,9.1655528 7.1165374,8.9453127 7.0659601,8.7250729 7.0384121,8.4940448 7.0384121,8.2500004 c 0,-0.8214308 0.2916666,-1.5424089 0.8749997,-2.1614577 C 8.4967449,5.4694941 9.2575322,5.0717995 10.192057,4.8932307 V 3.2864604 c 0,-0.077333 0.0268,-0.1439252 0.08333,-0.2005207 0.05653,-0.056533 0.12312,-0.085937 0.200521,-0.085938 z"
       id="rect1379" />
  </g>
</svg>
