<?xml version="1.0" encoding="UTF-8" standalone="no"?>
<!-- Created with Inkscape (http://www.inkscape.org/) -->

<svg
   xmlns:dc="http://purl.org/dc/elements/1.1/"
   xmlns:cc="http://creativecommons.org/ns#"
   xmlns:rdf="http://www.w3.org/1999/02/22-rdf-syntax-ns#"
   xmlns:svg="http://www.w3.org/2000/svg"
   xmlns="http://www.w3.org/2000/svg"
   xmlns:sodipodi="http://sodipodi.sourceforge.net/DTD/sodipodi-0.dtd"
   xmlns:inkscape="http://www.inkscape.org/namespaces/inkscape"
   width="22"
   height="22"
   viewBox="0 0 5.8208331 5.8208331"
   version="1.1"
   id="svg8"
   inkscape:version="0.92+devel (7f3bd2b258, 2017-08-07, custom)"
   sodipodi:docname="globe.svg">
  <defs
     id="defs2" />
  <sodipodi:namedview
     id="base"
     pagecolor="#002466"
     bordercolor="#ffffff"
     borderopacity="0.38039216"
     inkscape:pageopacity="1"
     inkscape:pageshadow="2"
     inkscape:zoom="25.25"
     inkscape:cx="7.970297"
     inkscape:cy="8.0000002"
     inkscape:document-units="px"
     inkscape:current-layer="svg8"
     inkscape:document-rotation="0"
     showgrid="false"
     inkscape:showpageshadow="false"
     borderlayer="true"
     inkscape:window-width="1920"
     inkscape:window-height="1027"
     inkscape:window-x="0"
     inkscape:window-y="24"
     inkscape:window-maximized="1"
     units="px" />
  <metadata
     id="metadata5">
    <rdf:RDF>
      <cc:Work
         rdf:about="">
        <dc:format>image/svg+xml</dc:format>
        <dc:type
           rdf:resource="http://purl.org/dc/dcmitype/StillImage" />
        <dc:title></dc:title>
      </cc:Work>
    </rdf:RDF>
  </metadata>
  <g
     id="g839"
     inkscape:label="#globe"
     transform="scale(1.375)">
    <path
       inkscape:label="#boundary"
       inkscape:connector-curvature="0"
       id="rect811"
       d="M 0,0 H 4.2333332 V 4.2333332 H 0 Z"
       style="fill:none;stroke-width:0.25454992;stroke-linecap:round" />
    <path
       style="opacity:0.6;fill:#d0d0d0;stroke-width:0.0824754"
       d="m 2.2031263,0.52916665 a 1.5874847,1.5874847 0 0 0 -0.4462903,0.065005 c -0.00212,0.00328 -0.00363,0.00668 -0.00299,0.012887 9.825e-4,0.014936 0.014554,0.020869 0.022321,0.022205 0.01198,0.00243 0.032876,-1.94e-5 0.044525,-0.00541 0.021697,-0.010033 0.031915,-0.042918 0.050048,-0.038888 0.014242,0.00323 0.031103,0.050233 0.033365,0.06673 0.00227,0.017437 -8.925e-4,0.028362 0,0.044525 0.00194,0.0272 0.033332,0.024732 0.050163,0.039003 0.00484,0.00425 0.00685,0.016149 0.011045,0.022205 0.0081,0.011039 0.020717,0.010676 0.02232,0.02232 0.00324,0.028206 -0.024905,0.030107 -0.02232,0.061208 -0.00583,0.012329 -0.02345,0.017316 -0.022206,0.03348 0.00194,0.025644 0.040002,0.00214 0.050048,0.022205 0.00553,0.010705 -0.00165,0.023797 -0.00552,0.039003 0.012637,0.014888 0.010861,0.033365 -0.011161,0.033365 -0.013599,0 -0.014236,-0.018844 -0.027843,-0.022205 -0.00777,-0.00134 -0.018002,0.00134 -0.027727,0 -0.0081,-0.00136 -0.020078,-0.00474 -0.027843,-0.00541 -0.020077,-0.00203 -0.038176,0.00624 -0.050163,-0.00541 0.01943,-0.025575 0.041912,-0.050349 0.066846,-0.072368 0.00741,-0.00681 0.020567,-0.014573 0.016682,-0.027843 -0.013601,-0.012512 -0.026054,-0.00208 -0.039003,0.00541 -0.013924,0.00748 -0.028976,0.020317 -0.044525,0.02232 -0.026878,0.0035 -0.067032,-0.00323 -0.089051,0.011045 -0.00324,0.011974 0.026205,0.00386 0.022321,0.02232 -0.011009,0.00134 -0.025056,0.00748 -0.033481,0 -0.00742,-0.00688 -6.687e-4,-0.01829 -0.00552,-0.02232 -0.00842,-0.00639 -0.041758,-0.013049 -0.055685,-0.011045 -0.017161,0.0029 -0.025581,0.018827 -0.027843,0.033365 0.020723,0.00977 0.053878,-0.013412 0.061324,0.01116 -0.011007,0.02006 -0.042564,0.028375 -0.039003,0.05557 0.00129,0.010304 0.013461,0.026507 0.022206,0.027843 0.00875,0.00182 0.013574,-0.00586 0.02232,-0.00541 0.00907,6.687e-4 0.011517,0.00674 0.022204,0.00541 0.015542,-0.00654 0.021191,-0.023656 0.039003,-0.02232 0.021369,0.026187 -0.016335,0.042081 -0.039003,0.0501631 -0.025907,0.00944 -0.063661,0.013789 -0.083413,0.022205 -0.010362,0.00418 -0.044656,0.040647 -0.050163,0.01116 -0.00421,-0.021077 0.017459,-0.015865 0.02232,-0.033365 -0.025259,-0.00485 -0.049701,0.013455 -0.072368,0.022205 -0.032705,0.012319 -0.086807,0.01361 -0.094573,0.050163 -0.00125,0.0074 0.00486,0.028645 0,0.033365 -0.00389,0.00405 -0.028957,0.00205 -0.039003,0.00541 -0.015542,0.00545 -0.029278,0.013988 -0.039003,0.016682 -0.00714,0.00203 -0.01766,0.00407 -0.022204,0.00541 -0.012958,0.00518 -0.012953,0.021721 -0.027843,0.033365 -0.00584,0.00506 -0.022982,0.00644 -0.027843,0.01116 -0.00842,0.00842 -0.012953,0.030004 -0.027843,0.033365 -0.00939,6.687e-4 -0.013461,-0.00538 -0.022206,0 -8.91e-4,0.020735 0.00875,0.045736 0,0.06673 -0.019107,0.015821 -0.042237,0.030588 -0.066846,0.044525 -0.013601,0.00775 -0.022492,0.0086 -0.039003,0.016682 -0.011657,0.00578 -0.025619,0.020095 -0.038888,0.027843 -0.031087,0.01813 -0.066846,0.0371 -0.066846,0.083413 0,0.010032 0.00392,0.021836 0.00552,0.033481 8.91e-4,0.00681 -3.571e-4,0.014725 0,0.022205 0.00226,0.016829 0.014249,0.044042 0,0.055686 C 1.030789,1.5718847 1.000983,1.5631497 0.985754,1.5476097 0.981517,1.5313857 0.992878,1.5176887 0.991278,1.5030847 0.989653,1.4914447 0.9731416,1.4709407 0.9634352,1.4696037 0.9537102,1.4679937 0.9515974,1.4812117 0.941229,1.4807637 0.9289259,1.4797662 0.9066151,1.4597797 0.8910658,1.4584437 c -0.022991,-0.00269 -0.0359497,0.00336 -0.0612081,0 C 0.8052458,1.4713717 0.8039634,1.4939287 0.774172,1.4919247 0.765789,1.4911924 0.7573671,1.4864847 0.7482851,1.4832947 A 1.5874847,1.5874847 0 0 0 0.64565458,1.8121142 c 0.0117727,-0.00251 0.0248027,-0.00544 0.0339406,-0.00851 0.0352969,-0.011034 0.0262371,-0.056494 0.0612081,-0.072368 0.015544,-0.00708 0.0343307,-0.00971 0.0612081,-0.011045 0.00871,0.00713 0.0179294,0.022389 0.0166826,0.033365 -9.6225e-4,0.00848 -0.0124792,0.016199 -0.0166826,0.027843 -0.003544,0.010366 -0.001958,0.024949 -0.005522,0.033365 -0.004862,0.010972 -0.0184372,0.017467 -0.0223202,0.027843 -0.002262,0.00681 0.002262,0.010627 0,0.016682 -0.003865,0.010636 -0.0231662,0.016867 -0.0166826,0.027843 0.0346486,0.013603 0.0754088,-0.00538 0.10584864,0 0.0129527,0.00229 0.0448818,0.019277 0.0445255,0.039003 -3.0361e-4,0.014877 -0.0150796,0.028246 -0.0166826,0.04441 -0.001941,0.020396 -0.0102717,0.044825 -0.0111601,0.061323 -0.001296,0.026853 0.0382338,0.072816 0.0667307,0.072368 0.0307618,-2.679e-4 0.0518128,-0.027324 0.0890508,-0.011161 0.012305,0.00518 0.025395,0.022988 0.039003,0.022321 0.011332,-6.688e-4 0.02592,-0.019762 0.033365,-0.033365 0.00939,-0.016493 0.011651,-0.030587 0.027843,-0.039003 0.017486,-0.00902 0.033341,-0.00827 0.055686,-0.016682 0.010037,-0.00356 0.018777,-0.010627 0.027843,-0.016682 0.00778,-0.00494 0.012497,-0.015093 0.022204,-0.00541 0.012964,0.012929 -0.016529,0.01379 -0.00552,0.027728 0.022342,0.011985 0.033972,-0.021759 0.050163,-0.022206 0.00518,-3.334e-4 0.023979,0.016151 0.033365,0.022206 0.01262,0.00841 0.013915,0.025149 0.027843,0.027843 0.00874,0.00196 0.02626,-0.012497 0.038887,-0.011161 0.016516,0.00229 0.026374,0.022768 0.039003,0.02232 0.01522,-3.334e-4 0.026054,-0.019626 0.039003,-0.02232 0.028495,-0.00545 0.03742,0.00448 0.050048,0.02232 0.013928,0.00276 0.00937,-0.012132 0.02232,-0.00541 -0.00713,0.014197 0.00522,0.016199 0.011045,0.027843 0.00323,0.00742 0.00207,0.013321 0.00564,0.016682 0.00777,0.00742 0.02756,0.00954 0.038888,0.016682 0.011978,0.00747 0.014236,0.023129 0.027842,0.039003 0.014247,0.01616 0.036905,0.026507 0.055685,0.027843 0.017809,0.00133 0.035158,-0.00134 0.050048,0 0.033354,0.00424 0.054691,0.020788 0.078006,0.038888 0.013278,0.010037 0.023642,0.015865 0.027843,0.027843 0.00325,0.00841 -0.00325,0.023947 0,0.033365 0.00713,0.020332 0.044052,0.02627 0.033365,0.061208 0.00486,0.010103 0.010558,0.015195 0.022206,0.02232 0.00939,0.00579 0.017798,0.015347 0.027843,0.016682 0.00647,6.688e-4 0.022019,-4.445e-4 0.027843,0 0.018459,0.00129 0.028656,0.00511 0.044525,0.011161 0.010037,0.00356 0.02136,0.00632 0.027843,0.011045 0.00807,0.00552 0.00664,0.023123 0.016682,0.027843 0.00648,0.00336 0.027995,-0.00134 0.039003,0 0.017486,0.00196 0.034498,0.016235 0.050048,0.016682 0.00939,4.445e-4 0.013895,-4.445e-4 0.02232,0 0.039828,0.00323 0.067522,0.046937 0.1057338,0.061208 0.011983,0.00405 0.030899,0.00205 0.039003,0.00541 0.014249,0.00613 0.02096,0.047386 0.022204,0.066846 0.00324,0.058924 -0.040617,0.078052 -0.066846,0.1168934 -0.00547,0.00808 -0.00892,0.027578 -0.016682,0.038888 -0.01554,0.022957 -0.02999,0.024771 -0.027728,0.066846 3.115e-4,0.011636 0.00552,0.014816 0.00552,0.027728 0,0.015551 -0.00196,0.041748 -0.00552,0.055685 -0.00256,0.010638 -0.00404,0.018159 -0.00564,0.027843 -0.00161,0.00977 0.00124,0.019427 0,0.027843 -0.00129,0.00936 -0.00956,0.020429 -0.016682,0.033365 -0.014897,0.027856 -0.025246,0.061392 -0.055685,0.072368 -0.018134,0.00639 -0.041779,0.00437 -0.061208,0.01116 -0.0081,0.00289 -0.018137,0.011962 -0.027843,0.016683 -0.02817,0.013264 -0.070125,0.03206 -0.077891,0.061208 -0.00713,0.025891 0.016021,0.048404 0.011161,0.077891 -0.00514,0.00875 -0.00892,0.01228 -0.016682,0.02232 -0.0068,0.00935 -0.014875,0.018643 -0.02232,0.027727 -0.00972,0.011982 -0.027542,0.022505 -0.033365,0.039003 -0.00194,0.00545 0.00226,0.00793 0,0.016683 -9.825e-4,0.00322 -0.00824,0.00511 -0.011161,0.01116 -0.00259,0.00545 0.00227,0.023122 0,0.027842 -0.00745,0.014877 -0.034178,0.045328 -0.050048,0.050048 -0.033676,0.00942 -0.065736,-0.021403 -0.089051,-0.016683 0.00324,0.016494 0.014438,0.022055 0.022206,0.033365 0.00412,0.00654 -6.23e-4,0.015197 0.00552,0.022321 0.00741,0.00841 0.01591,0.012855 0.016799,0.022206 0.00194,0.020062 -0.011633,0.037735 -0.02232,0.044526 -0.00971,0.00583 -0.027355,0.00272 -0.044525,0.00541 -0.01198,0.00197 -0.049863,0.00893 -0.055686,0.016683 -0.0081,0.011311 0.00616,0.033215 0,0.044525 -0.00234,0.00448 -0.00557,0.00713 -0.00909,0.00898 a 1.5874847,1.5874847 0 0 0 0.547423,0.099521 1.5874847,1.5874847 0 0 0 1.1248721,-0.4689555 c -0.00149,-5.556e-4 -0.00296,-6.945e-4 -0.00449,-0.00139 0.00615,-0.021407 0.016835,-0.029164 0.027842,-0.061208 0.00744,-0.026902 0.02006,-0.06507 -0.00552,-0.078006 0.00592,-0.040465 -3.175e-4,-0.052183 0.00552,-0.1279389 0.00259,-0.056326 -0.029089,-0.086438 -0.027842,-0.1447364 -3.375e-4,-0.024235 0.016534,-0.047453 0.033365,-0.066846 0.035619,-0.060215 0.054084,-0.095866 0.061208,-0.1502592 -0.00388,-0.011305 0.0042,-0.013236 0,-0.02232 -0.016516,-0.035963 -0.026409,-0.072901 -0.050048,-0.1000961 -0.012954,-0.014946 -0.028316,-0.0254 -0.039003,-0.039003 -0.00875,-0.011041 -0.022206,-0.030587 -0.022206,-0.039003 -3.373e-4,-0.00937 0.00294,-0.018493 0.00552,-0.027843 0.00323,-0.011983 0.00664,-0.03678 0.011162,-0.05557 0.00194,-0.00875 0.012763,-0.019544 0.01116,-0.033481 -0.00163,-0.013599 -0.021832,-0.046019 -0.039003,-0.050048 -0.022667,-0.00538 -0.043873,0.00269 -0.072368,0 -0.024935,-0.015818 -0.025589,-0.05582 -0.061208,-0.061208 -0.046629,-0.0068 -0.095995,0.019428 -0.1280539,0.033365 -0.018457,0.00808 -0.039495,0.01613 -0.055685,0.016798 -0.015541,0.00101 -0.029635,-0.00982 -0.044526,-0.011161 -0.019429,-0.00196 -0.042104,0.0078 -0.061208,0.011161 -0.018459,0.00317 -0.033537,0.00971 -0.050048,0.011045 -0.031412,0.00229 -0.058138,-0.028967 -0.077891,-0.04453 -0.011977,-0.00943 -0.027671,-0.013454 -0.038999,-0.022203 -0.01198,-0.00942 -0.029617,-0.013236 -0.039003,-0.02232 -0.012628,-0.012319 -0.0154,-0.039188 -0.022204,-0.055685 -0.00809,-0.019388 -0.026066,-0.031591 -0.044525,-0.050048 -0.013599,-0.013599 -0.046602,-0.038186 -0.050163,-0.055685 -0.00194,-0.00901 0.00635,-0.018159 0.00564,-0.027843 -9.525e-4,-0.014198 -0.017035,-0.023324 -0.016683,-0.033365 3.374e-4,-0.014197 0.018322,-0.021387 0.022204,-0.033365 0.00194,-0.00619 -0.00226,-0.014572 0,-0.02232 0.00451,-0.016491 0.018945,-0.02608 0.016683,-0.050048 -9.525e-4,-0.0097 -0.00517,-0.015531 -0.00552,-0.027843 -3.374e-4,-0.00841 0.00641,-0.014573 0.00552,-0.02232 -9.75e-4,-0.01393 -0.020602,-0.017469 -0.022204,-0.033365 -0.00194,-0.016493 0.011837,-0.031257 0.022204,-0.050048 0.00451,-0.00841 0.012482,-0.015596 0.016683,-0.02232 0.00907,-0.013599 0.020719,-0.025285 0.027843,-0.038888 0.00485,-0.01003 9.75e-4,-0.026 0.00553,-0.033481 0.00615,-0.0097 0.022153,-0.015082 0.03348,-0.027728 0.00908,-0.01037 0.015722,-0.0176 0.022204,-0.02232 0.0081,-0.00579 0.019098,-0.012653 0.027843,-0.016683 0.030114,-0.013935 0.046639,-0.032511 0.061208,-0.061323 -0.00423,-0.025918 0.00599,-0.031947 0.016683,-0.050048 0.010039,-0.016829 0.016649,-0.040364 0.03348,-0.050048 0.020401,-0.01164 0.046959,-0.00651 0.061208,-0.027843 0.00712,-0.010974 0.01116,-0.033215 0.01116,-0.044525 0,-0.015888 -0.013595,-0.036884 -0.027843,-0.038888 -0.014895,-0.00269 -0.036101,0.015897 -0.044526,0 -0.00259,-0.00518 0.00125,-0.016265 0,-0.02232 -0.00191,-0.010702 -0.01633,-0.025618 -0.016683,-0.033365 -9.75e-4,-0.015282 0.017683,-0.027141 0.022206,-0.044641 0.00616,-0.023965 0.00161,-0.039197 0,-0.06673 0.022669,-0.035957 0.072225,-0.020045 0.1224163,-0.016683 0.00746,6.687e-4 0.014216,0 0.02232,0 0.02979,6.052e-4 0.056685,0.0036 0.066731,-0.02232 0.00388,-0.00969 0.00259,-0.040964 0,-0.0500481 -0.00259,-0.010973 -0.017683,-0.043439 -0.027728,-0.050162 -0.01619,-0.010037 -0.046619,-0.00377 -0.055685,-0.022205 0.00745,-0.032038 0.045359,-0.00341 0.066731,-0.01116 0.010973,-0.00392 0.00696,-0.019511 0.016682,-0.022205 0.00679,-0.00243 0.024094,0.00529 0.033481,0.00529 0.00777,0 0.02592,-0.016817 0.033365,-0.022205 0.010366,-0.00681 0.013141,-0.016264 0.022206,-0.02232 0.00432,-0.00271 0.012515,-0.00532 0.01956,-0.00782 a 1.5874847,1.5874847 0 0 0 -0.03164,-0.024036 c -0.00576,0.00565 -0.011804,0.010807 -0.010127,0.02071 -0.022344,0.017365 -0.052783,0.012077 -0.089051,0.016798 -0.016516,0.002 -0.032558,0.013603 -0.050048,0 -0.0039,-0.010704 0.00944,-0.011946 0.011045,-0.02232 -0.00129,-0.00971 -0.00812,-0.0086 -0.011045,-0.016683 0.00484,-0.012595 0.012291,-0.00905 0.011045,-0.027843 0.00907,-0.00977 0.030896,-0.00905 0.03348,-0.02232 0.00197,-0.00908 -0.0073,-0.016818 -0.016683,-0.022205 -0.00547,-0.0029 -0.010974,-0.0078 -0.016798,-0.01116 -0.00281,-0.00155 -0.00398,-0.00347 -0.00517,-0.00541 A 1.5874847,1.5874847 0 0 0 2.2031263,0.52916665 Z M 1.5383506,0.67712445 A 1.5874847,1.5874847 0 0 0 1.330335,0.79160215 c -0.00261,0.00508 -0.00506,0.010281 -0.00506,0.015302 0,0.011305 0.021378,0.02706 0.033365,0.027728 0.016514,0.00135 0.037837,-0.01123 0.044641,-0.027728 0.00807,-0.01979 0.00178,-0.047052 0.016682,-0.061323 0.056857,0.00147 0.1000011,-0.023929 0.1183892,-0.068457 z m 1.3677488,0.046251 v 1.149e-4 c 0.020077,-0.00188 0.043279,0.010343 0.044525,0.02232 0.00163,0.011974 -0.012139,0.0086 -0.016682,0.022205 -0.00414,0.012319 -1.296e-4,0.030253 -0.00564,0.039003 -0.00486,0.00672 -0.013139,0.00272 -0.022204,0.00541 -0.020401,0.00584 -0.061495,0.032267 -0.078006,0.00541 0.00258,-0.014533 0.011938,-0.015865 0.016798,-0.027843 3.374e-4,-0.00908 -0.012761,-0.012279 -0.01116,-0.02232 0.00194,-0.011977 0.020095,-0.011964 0.033365,-0.016682 0.00939,-0.00355 0.010013,-0.014724 0.02232,-0.022205 0.00523,-0.00269 0.010717,-0.00407 0.016684,-0.00541 z M 1.145675,0.93518815 a 1.5874847,1.5874847 0 0 0 -0.049473,0.04372 c 0.011646,5.179e-4 0.042487,-0.00385 0.045446,-0.00506 0.019087,-0.00819 0.013603,-0.02495 0.00403,-0.038658 z m 0.040499,0.049818 v 1.179e-4 c -0.012958,-9.375e-4 -0.022982,0.010741 -0.027843,0.0167981 -6.687e-4,0.00977 0.00587,0.01252 0.00552,0.022205 -0.015874,0.01131 -0.00439,0.043189 0.011161,0.044525 0.016516,0.00135 0.022505,-0.040496 0.044526,-0.044525 0.00777,-0.00161 0.011517,0.012496 0.022204,0.01116 0.012971,-0.01003 0.00809,-0.0356414 -0.00552,-0.0390024 -0.00519,-0.00182 -0.019096,0.00608 -0.027841,0.00541 -0.00907,-6.687e-4 -0.014438,-0.0162349 -0.022206,-0.0166829 z m -0.068571,0.010354 c -6.231e-4,2.481e-4 -0.00154,6.906e-4 -0.0038,6.906e-4 v 2.302e-4 c -0.011074,-5.417e-4 -0.026855,5.08e-4 -0.037162,0.00357 A 1.5874847,1.5874847 0 0 0 1.061339,1.016304 c -0.00244,0.00677 -0.00499,0.014035 -0.00886,0.018754 -0.00745,0.00908 -0.015723,0.014238 -0.022204,0.02232 -0.00581,0.0074 -0.0422653,0.05582 -0.016682,0.061208 0.01101,0.00229 0.036626,-0.02473 0.038888,-0.033481 0.00745,-0.029823 0.02165,-0.047271 0.044641,-0.061208 0.013269,-0.00808 0.019944,-0.010677 0.022206,-0.0278431 -8.017e-4,-0.00101 -0.00111,-9.45e-4 -0.00171,-6.906e-4 z m 2.1892264,0.0448711 c -0.010374,6.012e-4 -0.019419,0.011962 -0.027843,0.016682 -0.00776,0.0039 -0.014438,0.011295 -0.022206,0.016683 -0.00939,0.00606 -0.019098,0.00496 -0.027843,0.00541 -0.020399,0.00133 -0.038195,-0.00944 -0.055685,-0.00541 -0.00583,0.00127 -0.00404,0.00444 -0.01116,0.01116 -3.572e-4,0.00944 0.00125,0.011945 0,0.02232 -0.00518,0.00902 -0.02756,0.010627 -0.038888,0.016682 -0.016838,0.00875 -0.025395,0.0254 -0.039003,0.039003 -0.00875,0.00874 -0.021073,0.015415 -0.02232,0.022205 -9.75e-4,0.00518 0.00689,0.015173 0.00564,0.02232 -0.00163,0.00774 -0.018137,0.021053 -0.027843,0.027843 -0.0058,0.00385 -0.010521,0.00768 -0.016683,0.011045 -0.012958,0.00748 -0.017157,0.020316 -0.027843,0.02232 -0.028496,0.00518 -0.083882,-0.00777 -0.083528,0.02232 3.374e-4,0.019588 0.028015,0.022873 0.044525,0.022205 0.022991,-6.687e-4 0.037535,0.00336 0.050163,0 0.00874,-0.00223 0.024299,-0.012653 0.033365,-0.016683 0.00584,-0.00269 0.012158,-0.0034 0.016682,-0.00541 0.00973,-0.00485 0.014875,-0.013321 0.022321,-0.016683 0.014895,-0.00681 0.045338,-0.016015 0.061208,-0.016683 0.022021,-0.00133 0.038558,0.002 0.066731,0 0.010037,-6.687e-4 0.017157,-0.00474 0.027843,-0.00541 0.017809,-0.00182 0.046959,0.00586 0.061208,0.00541 0.010037,0 0.021815,-0.00541 0.033481,-0.00541 0.013277,3.354e-4 0.025466,0.00827 0.027728,0.016683 0.00161,0.00458 -0.00125,0.015173 0,0.02232 0.00163,0.01164 0.011872,0.014572 0.011162,0.02232 -6.548e-4,0.010032 -0.031405,0.02691 -0.027843,0.038888 0.00226,0.00748 0.024735,0.016933 0.03348,0.02232 0.00907,0.00532 0.027881,0.00407 0.038888,0.00541 0.00907,0.00133 0.013575,-6.688e-4 0.02232,0 0.013924,0.00163 0.03578,0.010627 0.044525,0.016683 0.015221,0.010705 0.010033,0.032947 0.027843,0.039003 0.00777,0.00269 0.023658,-0.002 0.033365,0 0.023637,0.00518 0.044056,0.024209 0.061208,0.022205 0.02718,-0.00323 0.013438,-0.02631 0.016682,-0.044411 5.953e-4,-0.00361 0.00171,-0.00623 0.00311,-0.00863 A 1.5874847,1.5874847 0 0 0 3.5111621,1.2201741 c -0.00383,0.00614 -0.00826,0.010881 -0.015074,0.00966 -0.00141,-0.0085 0.0035,-0.015668 0.00472,-0.024161 a 1.5874847,1.5874847 0 0 0 -0.038887,-0.05442 c -0.00787,-0.00428 -0.015535,-0.00779 -0.021514,-0.01047 -0.010037,-0.00452 -0.018778,-0.011963 -0.027843,-0.016682 -0.015869,-0.00875 -0.045979,-0.026357 -0.055685,-0.039003 -0.011658,-0.015482 -0.024467,-0.045862 -0.050048,-0.044525 z m -1.9908751,0.015762 c -0.00415,4.187e-4 -0.00883,0.00126 -0.012887,0.00126 -0.00811,0 -0.014875,-4.485e-4 -0.022321,0 -0.00518,4.486e-4 -0.012388,-6.687e-4 -0.016683,0 -0.00427,6.688e-4 -0.010807,0.00138 -0.011161,0.00541 0.016838,0.00795 0.067185,0.015944 0.072368,-0.00541 -0.00163,-0.00168 -0.00517,-0.00168 -0.00932,-0.00126 z m 1.9988138,0.037967 c 4.763e-4,-4.246e-4 0.00111,-5.87e-5 0.00323,0.0023 0.00197,0.013599 0.00181,0.023122 -0.00564,0.027843 -0.015869,-0.0029 -0.010686,-0.024481 0,-0.027843 0.00161,-6.687e-4 0.00197,-0.00188 0.00242,-0.0023 z m -2.103742,0.00149 c -0.00276,2.54e-4 -0.00541,8.027e-4 -0.00817,8.027e-4 V 1.0966 c -0.016516,0 -0.041436,0.00407 -0.055686,0.00541 -0.011007,0.00163 -0.024919,-1.473e-4 -0.02232,0.016682 0.00227,0.013403 0.021173,0.00944 0.033481,0.00541 0.025906,-0.00808 0.046318,-0.015197 0.061208,-0.027843 -0.0029,-9.975e-4 -0.00575,-0.00106 -0.00851,-8.025e-4 z m 2.0958033,0.04533 c 0.015551,-0.00425 0.028481,0.010751 0.02232,0.04441 -0.00518,0.013403 -0.028637,0.025468 -0.039003,0.00541 0.00356,-0.01582 3.573e-4,-0.02631 0,-0.044411 0.00547,-0.00583 0.0115,-0.00407 0.016683,-0.00541 z m 0.1447366,0.088936 c 0.014245,6.688e-4 0.021698,0 0.033365,0 -0.00452,0.012321 -0.00145,0.031856 -0.01116,0.039003 -0.026878,-0.00484 -0.049221,-0.00838 -0.061208,-0.027843 0.00842,-0.00639 0.019115,-0.011713 0.033365,-0.011045 z M 0.73976853,1.4834111 c -0.007283,0.016564 -0.013967,0.033448 -0.0207096,0.050279 0.006618,-0.016876 0.0135221,-0.033638 0.0207096,-0.050279 z m -0.0579866,0.152445 c -0.004605,0.014217 -0.008672,0.02864 -0.012886,0.04303 0.004093,-0.014403 0.00839,-0.028747 0.012886,-0.04303 z M 0.62839733,1.9264796 A 1.5874847,1.5874847 0 0 0 0.61562653,2.1166621 1.5874847,1.5874847 0 0 0 1.3423006,3.4486295 c 0.00138,-0.010133 0.004,-0.022775 0.00518,-0.03164 0.00193,-0.017774 -0.00228,-0.051973 -0.00552,-0.066846 -0.00388,-0.018782 -0.025581,-0.035292 -0.027843,-0.055685 -9.825e-4,-0.00741 0.011875,-0.018377 0.011161,-0.027728 -6.448e-4,-0.00875 -0.010273,-0.012279 -0.011161,-0.02232 -7.123e-4,-0.00936 -8.925e-4,-0.022389 0,-0.033365 0.0016,-0.020399 -3.571e-4,-0.041264 0,-0.061323 3.573e-4,-0.00585 0,-0.01615 0,-0.022206 0,-0.016832 -0.00464,-0.027694 -0.00553,-0.044525 -0.00125,-0.030778 0.00486,-0.055052 0,-0.083528 -0.00386,-0.021676 -0.00892,-0.053127 -0.016682,-0.06673 -0.00874,-0.015208 -0.044038,-0.034836 -0.061208,-0.044521 -0.011332,-0.00646 -0.021173,-0.010626 -0.03348,-0.016682 -0.026229,-0.012924 -0.082925,-0.040477 -0.094573,-0.06673 -0.00324,-0.00774 0.00356,-0.025065 0,-0.033481 -0.00713,-0.016829 -0.028316,-0.028513 -0.039003,-0.04441 C 1.0435726,2.6961515 1.0339976,2.6580685 1.0135976,2.6266983 1.0032356,2.6105413 0.9915606,2.5948183 0.9802322,2.5821723 0.9734302,2.5747623 0.9549745,2.5656383 0.9523894,2.5543303 0.9488454,2.5391143 0.934104,2.5155923 0.9357069,2.5042823 c 0.002266,-0.015558 0.0333654,-0.019093 0.0333654,-0.033365 0,-0.011972 -0.0134386,-0.023324 -0.0166825,-0.033365 -0.008108,-0.024976 0.006958,-0.040595 0.0166825,-0.061323 0.002901,-0.00681 0.002278,-0.017484 0.005522,-0.022206 0.005842,-0.00875 0.014554,-0.012635 0.0223202,-0.02232 0.004506,-0.00518 0.0108604,-0.014572 0.0166825,-0.022321 0.012305,-0.016224 0.03382,-0.024131 0.039003,-0.039003 0.0042,-0.011976 0.00486,-0.068991 0,-0.089051 C 1.0497,2.1696913 1.040003,2.1589393 1.035802,2.1479633 1.028352,2.1282373 1.022513,2.1029903 1.002437,2.1034383 c -0.0126371,0 -0.0197372,0.01357 -0.0278428,0.02232 -0.001915,0.011637 -0.004696,0.030004 -0.0166825,0.033365 -0.0184591,0.00552 -0.0231538,-0.026641 -0.0445255,-0.033365 -0.008425,-0.00269 -0.0166988,0.002 -0.0222051,0 C 0.8756389,2.1186183 0.8686896,2.0958363 0.8521782,2.0867523 0.8385755,2.0792723 0.8216,2.0758563 0.8131753,2.0645463 c -0.003242,-0.00774 8.91e-4,-0.017468 0,-0.027842 C 0.7953639,2.0263363 0.7838526,1.9901023 0.7631272,1.9810183 0.749528,1.9746283 0.7246118,1.9760283 0.7074416,1.9699733 0.6993556,1.9674133 0.693661,1.9601433 0.6852365,1.9588123 0.6748792,1.9567823 0.6654981,1.9574323 0.6573937,1.9534023 0.646307,1.9478823 0.6371153,1.9373033 0.6284003,1.9264783 Z m -0.0144967,0.027498 c -7.8375e-4,0.00651 -0.00146,0.013051 -0.002186,0.019559 6.8858e-4,-0.00652 0.001419,-0.013045 0.002186,-0.019559 z M 1.2306991,2.0758185 c -0.011649,0.00552 -0.011987,0.023656 0,0.02232 0.012628,-0.00196 0.015549,-0.029467 0,-0.02232 z m 0.1058488,1.3931754 c -0.3043148,0.1460362 -0.60862976,0.2920724 0,0 z"
       id="path1391"
       inkscape:connector-curvature="0"
       inkscape:label="#" />
  </g>
</svg>
