<?xml version="1.0" encoding="UTF-8" standalone="no"?>
<!-- Created with Inkscape (http://www.inkscape.org/) -->

<svg
   xmlns:dc="http://purl.org/dc/elements/1.1/"
   xmlns:cc="http://creativecommons.org/ns#"
   xmlns:rdf="http://www.w3.org/1999/02/22-rdf-syntax-ns#"
   xmlns:svg="http://www.w3.org/2000/svg"
   xmlns="http://www.w3.org/2000/svg"
   xmlns:sodipodi="http://sodipodi.sourceforge.net/DTD/sodipodi-0.dtd"
   xmlns:inkscape="http://www.inkscape.org/namespaces/inkscape"
   width="22.000002"
   height="22"
   viewBox="0 0 22.000002 22"
   version="1.1"
   id="main"
   inkscape:version="0.92+devel (42c84a5464, 2017-09-20, custom)"
   sodipodi:docname="im-google.svg">
  <defs
     id="ol-defs" />
  <sodipodi:namedview
     id="base"
     pagecolor="#002466"
     bordercolor="#ffffff"
     borderopacity="0.30"
     inkscape:pageopacity="1"
     inkscape:pageshadow="2"
     inkscape:zoom="13.140625"
     inkscape:document-units="px"
     inkscape:current-layer="main"
     inkscape:document-rotation="0"
     showgrid="false"
     inkscape:showpageshadow="false"
     borderlayer="true"
     inkscape:window-width="1920"
     inkscape:window-height="1017"
     inkscape:window-x="0"
     inkscape:window-y="34"
     inkscape:window-maximized="1"
     units="px"
     inkscape:cx="6.823088"
     inkscape:cy="8.0269054" />
  <metadata
     id="metadata5">
    <rdf:RDF>
      <cc:Work
         rdf:about="">
        <dc:format>image/svg+xml</dc:format>
        <dc:type
           rdf:resource="http://purl.org/dc/dcmitype/StillImage" />
        <dc:title></dc:title>
      </cc:Work>
    </rdf:RDF>
  </metadata>
  <g
     id="g1479"
     inkscape:label="#im-google"
     style="stroke:none">
    <path
       style="fill:none;stroke:none;stroke-width:1"
       d="M 0,0 H 22.000001 V 22 H 0 Z"
       id="boundary"
       inkscape:label="#boundary"
       inkscape:connector-curvature="0" />
    <path
       style="opacity:0.6;fill:#d0d0d0;stroke:none;stroke-width:1"
       d="m 10.999178,3.3864738 c -4.4184796,4.1e-6 -7.9995956,2.6467913 -7.9991769,5.9105774 0.00174,1.3631868 0.7759893,2.5510988 1.8106679,3.7381008 l 4.8629881,5.578374 -0.5871107,-3.586802 c 0.625523,0.116613 1.2675026,0.176595 1.9126316,0.179258 4.41848,-3e-6 8.001241,-2.645147 8.000823,-5.9089308 4.18e-4,-3.263786 -3.582343,-5.9105733 -8.000823,-5.9105774 z m -0.10032,1.5409603 c 0.597856,0 1.168149,0.1218801 1.688971,0.3387811 l -0.450611,1.088702 c -0.381121,-0.157069 -0.798787,-0.24504 -1.238358,-0.24504 -1.7931266,0 -3.2332207,1.440092 -3.2332207,3.23322 0,1.7931278 1.4400941,3.2365088 3.2332207,3.2365088 1.589052,0 2.897715,-1.135129 3.17566,-2.6411748 h -3.17566 v -1.182443 h 3.177304 1.190667 0.0033 c 0.02581,0.192517 0.0444,0.387712 0.0444,0.587109 0,2.4320908 -1.983572,4.4189538 -4.415664,4.4189538 -2.432092,0 -4.4156643,-1.986863 -4.4156643,-4.4189538 0,-2.432092 1.9835723,-4.415663 4.4156643,-4.415663 z"
       id="path861"
       inkscape:connector-curvature="0"
       inkscape:label="#" />
  </g>
</svg>
