<?xml version="1.0" encoding="UTF-8" standalone="no"?>
<!-- Created with Inkscape (http://www.inkscape.org/) -->

<svg
   xmlns:dc="http://purl.org/dc/elements/1.1/"
   xmlns:cc="http://creativecommons.org/ns#"
   xmlns:rdf="http://www.w3.org/1999/02/22-rdf-syntax-ns#"
   xmlns:svg="http://www.w3.org/2000/svg"
   xmlns="http://www.w3.org/2000/svg"
   xmlns:sodipodi="http://sodipodi.sourceforge.net/DTD/sodipodi-0.dtd"
   xmlns:inkscape="http://www.inkscape.org/namespaces/inkscape"
   width="22"
   height="22"
   viewBox="0 0 5.8208331 5.8208331"
   version="1.1"
   id="main"
   inkscape:version="0.92+devel (039bd1db37, 2017-09-02, custom)"
   sodipodi:docname="im-icq.svg">
  <defs
     id="ol-defs">
    <style
       id="current-color-scheme">      .ColorScheme-Text {
        color:#d0d0d0;
        stop-color:#d0d0d0;
      }
      .ColorScheme-Background {
        color:#212121;
        stop-color:#212121;
      }
      .ColorScheme-Highlight {
        color:#0039a9;
        stop-color:#0039a9;
      }
      .ColorScheme-ViewText {
        color:#d0d0d0;
        stop-color:#d0d0d0;
      }
      .ColorScheme-ViewBackground {
        color:#19191b;
        stop-color:#19191b;
      }
      .ColorScheme-ViewHover {
        color:#005cc7;
        stop-color:#005cc7;
      }
      .ColorScheme-ViewFocus{
        color:#002466;
        stop-color:#002466;
      }
      .ColorScheme-ButtonText {
        color:#d0d0d0;
        stop-color:#d0d0d0;
      }
      .ColorScheme-ButtonBackground {
        color:#232323;
        stop-color:#232323;                             
      }                                                 
      .ColorScheme-ButtonHover {                        
        color:#005cc7;                                  
        stop-color:#005cc7;                             
      }                                                 
      .ColorScheme-ButtonFocus{                         
        color:#0039a9;                                  
        stop-color:#0039a9;                             
      }</style>
  </defs>
  <sodipodi:namedview
     id="base"
     pagecolor="#002466"
     bordercolor="#ffffff"
     borderopacity="0.30"
     inkscape:pageopacity="1"
     inkscape:pageshadow="2"
     inkscape:zoom="40.551468"
     inkscape:document-units="px"
     inkscape:current-layer="main"
     inkscape:document-rotation="0"
     showgrid="false"
     inkscape:showpageshadow="false"
     borderlayer="true"
     inkscape:window-width="1920"
     inkscape:window-height="1025"
     inkscape:window-x="0"
     inkscape:window-y="26"
     inkscape:window-maximized="1"
     units="px"
     inkscape:cx="4.0666161"
     inkscape:cy="7.9030554" />
  <metadata
     id="metadata5">
    <rdf:RDF>
      <cc:Work
         rdf:about="">
        <dc:format>image/svg+xml</dc:format>
        <dc:type
           rdf:resource="http://purl.org/dc/dcmitype/StillImage" />
        <dc:title></dc:title>
      </cc:Work>
    </rdf:RDF>
  </metadata>
  <g
     id="g848"
     inkscape:label="#im-icq"
     transform="scale(1.375)"
     style="stroke-width:0.72727275">
    <path
       style="fill:none;stroke-width:0.14898656"
       d="M -5.5e-8,-3e-8 H 4.2333333 V 4.2333332 H -5.5e-8 Z"
       id="boundary"
       inkscape:label="#boundary"
       inkscape:connector-curvature="0" />
    <path
       inkscape:label="#"
       style="opacity:0.6;stroke-width:0.19242424"
       inkscape:connector-curvature="0"
       d="m 2.1166685,0.52916255 a 0.39687551,0.59531341 0 0 0 -0.3968756,0.59531335 0.39687551,0.59531341 0 0 0 0.00104,0.03669 0.59531341,0.39687551 45 0 0 -0.025322,-0.026355 0.59531341,0.39687551 45 0 0 -0.70125015,-0.14056015 0.59531341,0.39687551 45 0 0 0.14004335,0.70176715 0.59531341,0.39687551 45 0 0 0.026355,0.024805 0.59531341,0.39687551 0 0 0 -0.036173,-0.00103 0.59531341,0.39687551 0 0 0 -0.5953194,0.3968718 0.59531341,0.39687551 0 0 0 0.5953134,0.3968756 0.59531341,0.39687551 0 0 0 0.03669,-0.00103 0.39687551,0.59531341 45 0 0 -0.026872,0.025322 0.39687551,0.59531341 45 0 0 -0.14004334,0.7012504 0.39687551,0.59531341 45 0 0 0.70125014,-0.1400435 0.39687551,0.59531341 45 0 0 0.025322,-0.026355 0.39687551,0.59531341 0 0 0 -0.00103,0.036173 0.39687551,0.59531341 0 0 0 0.3968756,0.5953135 0.39687551,0.59531341 0 0 0 0.3968756,-0.5953135 0.39687551,0.59531341 0 0 0 -0.00104,-0.03669 0.59531341,0.39687551 45 0 0 0.025322,0.026872 0.59531341,0.39687551 45 0 0 0.7012504,0.1400435 0.59531341,0.39687551 45 0 0 -0.1400451,-0.7012504 0.59531341,0.39687551 45 0 0 -0.026355,-0.025322 0.59531341,0.39687551 0 0 0 0.036173,0.00103 0.59531341,0.39687551 0 0 0 0.5953134,-0.3968756 0.59531341,0.39687551 0 0 0 -0.5953134,-0.3968756 0.59531341,0.39687551 0 0 0 -0.03669,0.00103 0.39687551,0.59531341 45 0 0 0.026872,-0.024805 0.39687551,0.59531341 45 0 0 0.1400435,-0.70176735 0.39687551,0.59531341 45 0 0 -0.7012504,0.14056015 0.39687551,0.59531341 45 0 0 -0.025322,0.026355 0.39687551,0.59531341 0 0 0 0.00104,-0.03669 0.39687551,0.59531341 0 0 0 -0.396878,-0.59530935 z M 2.3140729,1.6396908 a 0.39687551,0.59531341 45 0 0 0.083199,0.1963707 0.39687551,0.59531341 45 0 0 0.1958539,0.083199 0.59531341,0.39687551 0 0 0 -0.079582,0.1974043 0.59531341,0.39687551 0 0 0 0.080099,0.1974043 0.59531341,0.39687551 45 0 0 -0.1963707,0.083199 0.59531341,0.39687551 45 0 0 -0.083199,0.195854 A 0.39687551,0.59531341 0 0 0 2.1166685,2.5135406 0.39687551,0.59531341 0 0 0 1.9192642,2.5931225 0.39687551,0.59531341 45 0 0 1.836065,2.3972685 0.39687551,0.59531341 45 0 0 1.6402111,2.3140693 0.59531341,0.39687551 0 0 0 1.7197929,2.116665 0.59531341,0.39687551 0 0 0 1.6402111,1.9192607 0.59531341,0.39687551 45 0 0 1.836065,1.8360615 0.59531341,0.39687551 45 0 0 1.9192642,1.6402076 0.39687551,0.59531341 0 0 0 2.1166685,1.7197894 0.39687551,0.59531341 0 0 0 2.3140729,1.6396908 Z M 2.1166685,1.9182272 c -0.1099345,0 -0.1984378,0.088503 -0.1984378,0.1984378 0,0.1099346 0.088503,0.1984378 0.1984378,0.1984378 0.1099346,0 0.1984378,-0.088503 0.1984378,-0.1984378 0,-0.1099346 -0.088503,-0.1984378 -0.1984378,-0.1984378 z"
       fill="#d0d0d0"
       id="path839" />
  </g>
</svg>
