<?xml version="1.0" encoding="UTF-8" standalone="no"?>
<!-- Created with Inkscape (http://www.inkscape.org/) -->

<svg xmlns:dc="http://purl.org/dc/elements/1.1/" xmlns:cc="http://creativecommons.org/ns#" xmlns:rdf="http://www.w3.org/1999/02/22-rdf-syntax-ns#" xmlns:svg="http://www.w3.org/2000/svg" xmlns="http://www.w3.org/2000/svg" xmlns:sodipodi="http://sodipodi.sourceforge.net/DTD/sodipodi-0.dtd" xmlns:inkscape="http://www.inkscape.org/namespaces/inkscape" width="22.000002" height="22" viewBox="0 0 22.000002 22" version="1.1" id="main" inkscape:version="0.92+devel (8ef6761023, 2017-10-07, custom)" sodipodi:docname="im-local-xmpp.svg">
  <defs id="ol-defs" />
  <sodipodi:namedview id="base" pagecolor="#002466" bordercolor="#ffffff" borderopacity="0.30" inkscape:pageopacity="1" inkscape:pageshadow="2" inkscape:zoom="37.1673" inkscape:document-units="px" inkscape:current-layer="main" inkscape:document-rotation="0" showgrid="false" inkscape:showpageshadow="false" borderlayer="true" inkscape:window-width="1920" inkscape:window-height="1029" inkscape:window-x="0" inkscape:window-y="22" inkscape:window-maximized="1" units="px" inkscape:cx="6.7489002" inkscape:cy="8.0269055" />
  <metadata id="metadata5">
    <rdf:RDF>
      <cc:Work rdf:about="">
        <dc:format>image/svg+xml</dc:format>
        <dc:type rdf:resource="http://purl.org/dc/dcmitype/StillImage" />
        <dc:title></dc:title>
      </cc:Work>
    </rdf:RDF>
  </metadata>
  <g id="g846" inkscape:label="#im-local-xmpp" style="stroke:none;stroke-width:0.72727275" transform="scale(1.375)">
    <path style="fill:none;stroke:none;stroke-width:0.72727275" d="M -5.5000004e-8,-4.9999999e-8 H 16.000001 V 16 H -5.5000004e-8 Z" id="boundary" inkscape:label="#boundary" inkscape:connector-curvature="0" />
    <path inkscape:label="#" inkscape:connector-curvature="0" id="path822" d="m 5.7331358,2.5394785 c 0.1751363,0.2548164 0.2692618,0.5565717 0.2700567,0.8657698 -6.379e-4,0.266127 -0.070434,0.5275191 -0.2025425,0.7585414 0.00198,-2.8e-6 0.00398,-2.8e-6 0.00596,0 1.5802772,-0.1363683 3.4485109,2.4435713 3.9396497,3.594136 0,0 0.049051,-0.021143 0.1469427,-0.057586 C 9.5487828,6.2301073 6.7656355,2.6233339 5.7331358,2.5394785 Z m 5.0278192,0.075457 C 9.7896651,2.6781496 8.8262063,3.2029825 8.1576884,4.1498897 8.1271198,4.2041643 8.2899765,4.2744815 8.2629311,4.3305894 8.9439604,3.7370263 10.027805,3.5599421 10.810598,4.01089 c 0.433165,0.250178 0.764041,0.6452484 0.933284,1.1159693 0.480283,-0.5633257 1.292779,-0.7033804 1.934082,-0.3335994 0.05797,0.033756 0.113735,0.070158 0.166799,0.1111998 C 13.666229,4.1059276 13.162636,3.4185313 12.454766,3.0081062 11.928805,2.7046244 11.343729,2.5770071 10.760955,2.6149355 Z M 2.9471839,3.2046916 C 2.3449014,3.7585725 2.0015038,4.5389561 1.9999999,5.3572017 2.0004207,6.9764991 3.2905353,8.3397252 5.1374227,8.5085244 5.1997098,8.5078605 5.1785607,8.330469 5.2406796,8.325839 4.3861243,8.0328318 3.6907039,7.1839493 3.6898397,6.2805571 3.6899175,5.7803361 3.8672035,5.2963168 4.1902388,4.9143882 3.4622426,4.7801134 2.9336963,4.1455237 2.9332839,3.4052483 c 2.472e-4,-0.067084 0.00489,-0.13408 0.0139,-0.2005567 z M 7.3058186,5.2857161 C 6.2047668,6.3191098 4.4733801,10.533121 4.9170088,11.469219 5.0501185,11.190138 5.2632176,10.957308 5.5305934,10.80202 c 0.2307918,-0.132511 0.492416,-0.203426 0.7585414,-0.204528 -9.925e-4,-0.0017 -9.894e-4,-0.0023 -0.00199,-0.004 -0.9082425,-1.3003741 0.3909348,-4.2078978 1.1417836,-5.2085189 0,0 -0.042604,-0.032739 -0.1231141,-0.099286 z m 4.2831774,1.6104113 c -9.72e-4,0.00172 -0.0031,0.00426 -0.004,0.00596 -0.672026,1.4367485 -3.8394414,1.7643256 -5.0814293,1.614382 0,0 -0.00645,0.053873 -0.023828,0.1568712 C 7.9251967,9.1101831 12.439766,8.5029398 13.028636,7.6506974 12.72039,7.6749613 12.411181,7.6060366 12.143009,7.4521263 11.912857,7.3185102 11.723013,7.1260477 11.588996,6.8961274 Z m -1.308583,2.1048532 c -0.04411,0.013616 -0.08969,0.027726 -0.107228,0.00198 0.173525,0.8865733 -0.2129128,1.9125404 -0.9948414,2.3649844 -0.433243,0.250043 -0.9414056,0.338992 -1.433683,0.2502 0.2477124,0.6976 -0.038221,1.472244 -0.679113,1.842739 -0.05822,0.03333 -0.1166386,0.06195 -0.178714,0.08737 0.780816,0.244651 1.627808,0.15365 2.3371814,-0.254171 1.402143,-0.810013 1.936914,-2.609256 1.159655,-4.2931069 -0.01586,-0.026805 -0.05915,-0.013616 -0.103257,0 z" style="opacity:0.4;fill:#d0d0d0;stroke:none;stroke-width:0.72727269" />
    <path inkscape:label="#" inkscape:connector-curvature="0" id="circle818" d="M 4.4682382,2.3170789 A 1.0875448,1.0875448 0 0 0 3.3800689,3.4052483 1.0875448,1.0875448 0 0 0 4.4682382,4.4914319 1.0875448,1.0875448 0 0 0 5.5544219,3.4052483 1.0875448,1.0875448 0 0 0 4.4682382,2.3170789 Z M 12.937293,5.0355166 A 1.0875448,1.0875448 0 0 0 11.970253,5.5796013 1.0875448,1.0875448 0 0 0 12.367395,7.0629271 1.0875448,1.0875448 0 0 0 13.854692,6.665785 1.0875448,1.0875448 0 0 0 13.455564,5.1804735 1.0875448,1.0875448 0 0 0 12.937293,5.0355166 Z M 6.3487061,11.046262 A 1.0875448,1.0875448 0 0 0 5.7549787,11.191219 1.0875448,1.0875448 0 0 0 5.3558509,12.676531 1.0875448,1.0875448 0 0 0 6.843148,13.073673 1.0875448,1.0875448 0 0 0 7.2402902,11.588361 1.0875448,1.0875448 0 0 0 6.3487061,11.046262 Z" style="fill:#d0d0d0;stroke:none;stroke-width:0.72727269" />
  </g>
</svg>
