<?xml version="1.0" encoding="UTF-8" standalone="no"?>
<!-- Created with Inkscape (http://www.inkscape.org/) -->

<svg
   xmlns:dc="http://purl.org/dc/elements/1.1/"
   xmlns:cc="http://creativecommons.org/ns#"
   xmlns:rdf="http://www.w3.org/1999/02/22-rdf-syntax-ns#"
   xmlns:svg="http://www.w3.org/2000/svg"
   xmlns="http://www.w3.org/2000/svg"
   xmlns:sodipodi="http://sodipodi.sourceforge.net/DTD/sodipodi-0.dtd"
   xmlns:inkscape="http://www.inkscape.org/namespaces/inkscape"
   width="22"
   height="22"
   viewBox="0 0 5.8208331 5.8208331"
   version="1.1"
   id="svg8"
   inkscape:version="0.92+devel (7f3bd2b258, 2017-08-07, custom)"
   sodipodi:docname="im-skype.svg">
  <defs
     id="defs2">
    <style
       id="current-color-scheme"
       type="text/css">
      .ColorScheme-Text {
        color:#f2f2f2;
      }
      </style>
  </defs>
  <sodipodi:namedview
     id="base"
     pagecolor="#002466"
     bordercolor="#ffffff"
     borderopacity="0.38039216"
     inkscape:pageopacity="1"
     inkscape:pageshadow="2"
     inkscape:zoom="17.854446"
     inkscape:cx="7.970297"
     inkscape:cy="8.0000002"
     inkscape:document-units="px"
     inkscape:current-layer="svg8"
     inkscape:document-rotation="0"
     showgrid="false"
     inkscape:showpageshadow="false"
     borderlayer="true"
     inkscape:window-width="1920"
     inkscape:window-height="1027"
     inkscape:window-x="0"
     inkscape:window-y="24"
     inkscape:window-maximized="1"
     units="px" />
  <metadata
     id="metadata5">
    <rdf:RDF>
      <cc:Work
         rdf:about="">
        <dc:format>image/svg+xml</dc:format>
        <dc:type
           rdf:resource="http://purl.org/dc/dcmitype/StillImage" />
        <dc:title></dc:title>
      </cc:Work>
    </rdf:RDF>
  </metadata>
  <g
     id="g831"
     inkscape:label="#im-skype"
     transform="scale(1.375)">
    <path
       inkscape:label="#boundary"
       inkscape:connector-curvature="0"
       id="rect811"
       d="M 0,0 H 4.2333332 V 4.2333332 H 0 Z"
       style="fill:none;stroke-width:0.25454992;stroke-linecap:round" />
    <path
       inkscape:label="#"
       inkscape:connector-curvature="0"
       id="path826"
       d="m 1.4066324,0.52916636 c -0.48498123,0 -0.87746583,0.38799489 -0.87746583,0.86609694 0,0.1598083 0.0441932,0.3093765 0.12092286,0.4376994 -0.020108,0.096838 -0.0310059,0.1973172 -0.0310059,0.3002401 0,0.8247063 0.67802367,1.4934489 1.51463627,1.4934489 0.094721,0 0.1870273,-0.00892 0.2769857,-0.025321 0.1235604,0.065617 0.2646659,0.1028361 0.4154784,0.1028361 0.4849812,0 0.8779827,-0.3874783 0.8779827,-0.8655804 0,-0.1381125 -0.033511,-0.2685851 -0.091984,-0.3844726 0.022754,-0.1031875 0.035657,-0.2103272 0.035657,-0.3203939 0,-0.8247062 -0.6782882,-1.4934488 -1.5146362,-1.4934488 -0.088371,0 -0.1744969,0.007678 -0.2588989,0.0217041 C 1.7388369,0.57783721 1.5786116,0.52916636 1.4066324,0.52916636 Z M 2.1228677,1.0826209 h 5.168e-4 c 0.1349755,4.22e-5 0.2538656,0.016123 0.3529501,0.046509 0.099748,0.030692 0.183968,0.071926 0.2501138,0.1229899 0.066675,0.051329 0.1160568,0.1058954 0.1472779,0.1627808 0.031485,0.057679 0.047542,0.1149697 0.047542,0.1705322 0,0.053446 -0.021253,0.1021085 -0.062528,0.1441772 -0.04154,0.042598 -0.093382,0.064079 -0.1550292,0.064079 -0.056092,0 -0.1003144,-0.013849 -0.1307415,-0.040308 C 2.5446596,1.728776 2.5153436,1.69034 2.4825356,1.635042 2.4447006,1.564134 2.3992786,1.5085835 2.3466266,1.4691606 c -0.0508,-0.0381 -0.135752,-0.057361 -0.2526978,-0.057361 -0.1084791,0 -0.1968996,0.021229 -0.2625163,0.063562 -0.063236,0.040746 -0.093534,0.087846 -0.093534,0.1431437 0,0.034131 0.0096,0.062475 0.029972,0.086816 0.021431,0.025929 0.052069,0.048646 0.090434,0.067696 0.039688,0.019844 0.080947,0.035396 0.1219564,0.046509 0.042069,0.011642 0.112452,0.028682 0.2092895,0.050643 0.1225021,0.025929 0.2351154,0.055331 0.3348632,0.086816 0.1008063,0.03175 0.1877261,0.070247 0.2588991,0.1157552 0.072496,0.046567 0.1305676,0.1063295 0.1710488,0.177767 0.04101,0.071702 0.061495,0.1603747 0.061495,0.263033 0,0.1230311 -0.035822,0.2351525 -0.1059365,0.3333129 -0.06985,0.097896 -0.1738479,0.1754436 -0.3079917,0.230477 -0.1328208,0.054504 -0.2915997,0.082165 -0.4728393,0.082165 -0.2174875,0 -0.4002567,-0.03779 -0.5426025,-0.1121378 C 1.4846008,2.9931199 1.400886,2.9197718 1.337386,2.8292843 1.273092,2.7377382 1.2402343,2.6468583 1.2402343,2.5590166 c 0,-0.054769 0.021758,-0.1024475 0.063562,-0.1410767 0.04154,-0.038629 0.094113,-0.057878 0.1576131,-0.057878 0.052123,0 0.096812,0.015564 0.1333252,0.045992 0.034925,0.029104 0.065323,0.072079 0.0894,0.1276408 0.026987,0.06059 0.05586,0.111712 0.086816,0.1519287 0.029633,0.038894 0.072356,0.071752 0.1271241,0.097152 0.055033,0.025665 0.1291249,0.038241 0.2201415,0.038241 0.125148,0 0.2278972,-0.025909 0.304891,-0.078031 0.075406,-0.0508 0.1121379,-0.1119394 0.1121379,-0.1865519 0,-0.059002 -0.019488,-0.1053455 -0.058911,-0.1415934 C 2.4350601,2.3767383 2.3812499,2.3473624 2.315104,2.3269894 2.2463124,2.3058224 2.1532245,2.2831053 2.0376016,2.2592933 1.880439,2.2262202 1.7468245,2.1864378 1.6407266,2.1419878 1.5322474,2.0964795 1.4443066,2.0335127 1.3802774,1.9544023 1.3151904,1.8742333 1.282609,1.7734645 1.282609,1.6551958 1.282609,1.5424833 1.317182,1.4407303 1.3854451,1.3528887 1.453178,1.2658406 1.5522194,1.198434 1.6794839,1.1518673 1.8050255,1.1061437 1.9540241,1.0826717 2.1228677,1.0826209 Z"
       style="opacity:0.6;fill:#d0d0d0;fill-opacity:1;stroke:none;stroke-width:0.26458332" />
  </g>
</svg>
