<?xml version="1.0" encoding="UTF-8" standalone="no"?>
<!-- Created with Inkscape (http://www.inkscape.org/) -->

<svg
   xmlns:dc="http://purl.org/dc/elements/1.1/"
   xmlns:cc="http://creativecommons.org/ns#"
   xmlns:rdf="http://www.w3.org/1999/02/22-rdf-syntax-ns#"
   xmlns:svg="http://www.w3.org/2000/svg"
   xmlns="http://www.w3.org/2000/svg"
   xmlns:sodipodi="http://sodipodi.sourceforge.net/DTD/sodipodi-0.dtd"
   xmlns:inkscape="http://www.inkscape.org/namespaces/inkscape"
   width="22"
   height="21.999998"
   viewBox="0 0 5.8208331 5.8208326"
   version="1.1"
   id="main"
   inkscape:version="0.92+devel (039bd1db37, 2017-09-02, custom)"
   sodipodi:docname="insert-math-expression.svg">
  <defs
     id="ol-defs">
    <style
       id="current-color-scheme">      .ColorScheme-Text {
        color:#d0d0d0;
        stop-color:#d0d0d0;
      }
      .ColorScheme-Background {
        color:#212121;
        stop-color:#212121;
      }
      .ColorScheme-Highlight {
        color:#0039a9;
        stop-color:#0039a9;
      }
      .ColorScheme-ViewText {
        color:#d0d0d0;
        stop-color:#d0d0d0;
      }
      .ColorScheme-ViewBackground {
        color:#19191b;
        stop-color:#19191b;
      }
      .ColorScheme-ViewHover {
        color:#005cc7;
        stop-color:#005cc7;
      }
      .ColorScheme-ViewFocus{
        color:#002466;
        stop-color:#002466;
      }
      .ColorScheme-ButtonText {
        color:#d0d0d0;
        stop-color:#d0d0d0;
      }
      .ColorScheme-ButtonBackground {
        color:#232323;
        stop-color:#232323;                             
      }                                                 
      .ColorScheme-ButtonHover {                        
        color:#005cc7;                                  
        stop-color:#005cc7;                             
      }                                                 
      .ColorScheme-ButtonFocus{                         
        color:#0039a9;                                  
        stop-color:#0039a9;                             
      }</style>
  </defs>
  <sodipodi:namedview
     id="base"
     pagecolor="#002466"
     bordercolor="#ffffff"
     borderopacity="0.30"
     inkscape:pageopacity="1"
     inkscape:pageshadow="2"
     inkscape:zoom="40.551468"
     inkscape:document-units="px"
     inkscape:current-layer="main"
     inkscape:document-rotation="0"
     showgrid="false"
     inkscape:showpageshadow="false"
     borderlayer="true"
     inkscape:window-width="1920"
     inkscape:window-height="1025"
     inkscape:window-x="0"
     inkscape:window-y="26"
     inkscape:window-maximized="1"
     units="px"
     inkscape:cx="13.223989"
     inkscape:cy="6.0921731"
     inkscape:measure-start="0,0"
     inkscape:measure-end="0,0" />
  <metadata
     id="metadata5">
    <rdf:RDF>
      <cc:Work
         rdf:about="">
        <dc:format>image/svg+xml</dc:format>
        <dc:type
           rdf:resource="http://purl.org/dc/dcmitype/StillImage" />
        <dc:title></dc:title>
      </cc:Work>
    </rdf:RDF>
  </metadata>
  <g
     id="g835"
     inkscape:label="#insert-math-expression"
     transform="scale(1.3749999)"
     style="stroke-width:0.72727275">
    <path
       style="fill:none;stroke-width:0.14898658"
       d="M -5.5e-8,-3e-8 H 4.2333333 V 4.2333332 H -5.5e-8 Z"
       id="boundary"
       inkscape:label="#boundary"
       inkscape:connector-curvature="0" />
    <path
       inkscape:label="#"
       inkscape:connector-curvature="0"
       id="path820"
       d="m 2.7839123,0.529167 c -0.1735922,0 -0.3309824,0.05092 -0.4721706,0.1527611 C 2.1705534,0.7837687 2.0363088,0.9521531 1.9090079,1.1870811 1.8650309,1.2680911 1.8233689,1.3201685 1.7840216,1.343314 1.7446746,1.366461 1.6816023,1.377456 1.5948062,1.376297 l -0.057285,0.2031027 h 0.241293 L 1.4246859,2.9664005 c -0.059021,0.227984 -0.098947,0.3685937 -0.1197786,0.4218288 -0.030089,0.077538 -0.075802,0.1435027 -0.1371378,0.197895 -0.024303,0.021989 -0.053813,0.032983 -0.088532,0.032983 -0.00926,0 -0.017359,-0.00289 -0.024303,-0.00868 l -0.00868,-0.012152 c 0,-0.00579 0.00868,-0.017938 0.026039,-0.036455 0.017359,-0.01736 0.026039,-0.044555 0.026039,-0.081588 0,-0.040505 -0.013888,-0.074066 -0.041662,-0.1006836 -0.027775,-0.026617 -0.0677007,-0.039926 -0.11977853,-0.039926 -0.0624931,0 -0.11283488,0.017358 -0.15102515,0.052078 -0.0381903,0.034719 -0.0572854,0.075802 -0.0572854,0.1232505 0,0.05092 0.0231456,0.094897 0.0694369,0.1319301 0.0462913,0.03819 0.11862138,0.057285 0.21699028,0.057285 0.1562329,0 0.2945279,-0.041084 0.4148852,-0.1232505 C 1.5514082,3.4999068 1.6572994,3.3743419 1.7475673,3.2042216 1.8378352,3.0341013 1.9304176,2.7598258 2.0253147,2.381395 L 2.2284175,1.5793993 H 2.4731823 L 2.5339396,1.3762966 H 2.282231 C 2.3539825,1.0835045 2.4488787,0.8694071 2.5669221,0.7340057 2.6386735,0.6495242 2.7086889,0.6072834 2.7769686,0.6072834 c 0.013887,0 0.024882,0.00405 0.032982,0.012151 0.00926,0.0081 0.013887,0.018516 0.013887,0.031247 0,0.011573 -0.00984,0.033561 -0.029511,0.065965 -0.018516,0.032404 -0.027775,0.063072 -0.027775,0.092004 0,0.040505 0.015045,0.075223 0.045134,0.1041553 0.030089,0.028932 0.06828,0.043398 0.1145708,0.043398 0.049763,0 0.091425,-0.017359 0.1249863,-0.052078 0.033561,-0.035876 0.050342,-0.083903 0.050342,-0.1440814 0,-0.06828 -0.02546,-0.123829 -0.076381,-0.1666484 -0.049763,-0.042819 -0.130194,-0.064229 -0.2412929,-0.064229 z m 0.049474,2.0223482 -0.331127,0.058153 v 0.0447 c 0.024815,-0.00164 0.046506,-0.00218 0.065531,-0.00218 0.059556,0 0.1047969,0.011083 0.135402,0.033417 0.030605,0.022333 0.055186,0.060371 0.07421,0.1141368 0.00414,0.011581 0.03204,0.117974 0.083324,0.3189754 -0.02068,0.046321 -0.064496,0.1214469 -0.1314961,0.2256697 -0.067,0.1042231 -0.1199595,0.1721041 -0.1588368,0.2035369 -0.015716,0.013234 -0.028698,0.019962 -0.038624,0.019962 -0.01158,0 -0.027967,-0.00962 -0.049474,-0.028643 -0.029778,-0.026469 -0.057723,-0.039926 -0.084192,-0.039926 -0.026469,0 -0.049069,0.00914 -0.067267,0.027341 -0.018197,0.018198 -0.027341,0.040838 -0.027341,0.068135 0,0.030605 0.010093,0.055145 0.029945,0.073343 0.027297,0.023996 0.057615,0.036029 0.090702,0.036029 0.047149,0 0.095794,-0.020702 0.1462513,-0.062059 0.077754,-0.064519 0.1812579,-0.2089502 0.310296,-0.4331124 0.054593,0.2456685 0.090691,0.3847955 0.1080611,0.4170553 0.027297,0.052111 0.06391,0.078116 0.110231,0.078116 0.031432,0 0.069944,-0.018287 0.1154387,-0.054682 0.080235,-0.064519 0.1462169,-0.1454237 0.198329,-0.243029 l -0.043398,-0.022567 c -0.032259,0.06121 -0.071246,0.1108055 -0.1167408,0.1488553 -0.023161,0.019025 -0.043387,0.028643 -0.060757,0.028643 -0.010752,0 -0.02136,-0.00625 -0.032115,-0.01866 C 3.1489848,3.5294932 3.1359631,3.4904645 3.120247,3.4251186 L 3.0182615,2.998082 c 0.071136,-0.1232481 0.1322893,-0.2060924 0.1835737,-0.2491048 0.027297,-0.023161 0.050887,-0.034718 0.070739,-0.034718 0.013234,0 0.03924,0.00629 0.078116,0.019529 0.019851,0.00744 0.038613,0.011283 0.055983,0.011283 0.029778,0 0.056258,-0.010134 0.079419,-0.030813 0.012407,-0.011581 0.01866,-0.033231 0.01866,-0.064663 0,-0.027296 -0.010608,-0.050412 -0.032114,-0.069437 -0.02068,-0.019025 -0.049058,-0.028643 -0.084626,-0.028643 -0.023988,0 -0.045679,0.00432 -0.065531,0.012585 -0.031433,0.013234 -0.068005,0.037815 -0.1093631,0.074211 -0.041358,0.035568 -0.076506,0.073131 -0.1054572,0.112835 L 2.9982977,2.915191 C 2.964385,2.788634 2.940279,2.7101852 2.9253899,2.6804074 2.9047106,2.6373945 2.8739171,2.5945276 2.8333863,2.5515152 Z"
       style="font-style:italic;font-variant:normal;font-weight:bold;font-stretch:normal;font-size:4.23333311px;font-family:'Times New Roman';-inkscape-font-specification:'Times New Roman, Bold Italic';opacity:0.6;fill:#d0d0d0;stroke-width:0.19242427" />
  </g>
</svg>
