<?xml version="1.0" encoding="UTF-8" standalone="no"?>
<!-- Created with Inkscape (http://www.inkscape.org/) -->

<svg
   xmlns:dc="http://purl.org/dc/elements/1.1/"
   xmlns:cc="http://creativecommons.org/ns#"
   xmlns:rdf="http://www.w3.org/1999/02/22-rdf-syntax-ns#"
   xmlns:svg="http://www.w3.org/2000/svg"
   xmlns="http://www.w3.org/2000/svg"
   xmlns:sodipodi="http://sodipodi.sourceforge.net/DTD/sodipodi-0.dtd"
   xmlns:inkscape="http://www.inkscape.org/namespaces/inkscape"
   width="22.000002"
   height="22"
   viewBox="0 0 22.000002 22"
   version="1.1"
   id="main"
   inkscape:version="0.92+devel (9279f97481, 2017-09-04, custom)"
   sodipodi:docname="kdeconnect.svg">
  <defs
     id="ol-defs" />
  <sodipodi:namedview
     id="base"
     pagecolor="#002466"
     bordercolor="#ffffff"
     borderopacity="0.30"
     inkscape:pageopacity="1"
     inkscape:pageshadow="2"
     inkscape:zoom="37.1673"
     inkscape:document-units="px"
     inkscape:current-layer="main"
     inkscape:document-rotation="0"
     showgrid="false"
     inkscape:showpageshadow="false"
     borderlayer="true"
     inkscape:window-width="1920"
     inkscape:window-height="1025"
     inkscape:window-x="0"
     inkscape:window-y="26"
     inkscape:window-maximized="1"
     units="px"
     inkscape:cx="7.959642"
     inkscape:cy="8.0000001" />
  <metadata
     id="metadata5">
    <rdf:RDF>
      <cc:Work
         rdf:about="">
        <dc:format>image/svg+xml</dc:format>
        <dc:type
           rdf:resource="http://purl.org/dc/dcmitype/StillImage" />
        <dc:title></dc:title>
      </cc:Work>
    </rdf:RDF>
  </metadata>
  <g
     id="g839"
     inkscape:label="#kdeconnect"
     transform="scale(1.375)"
     style="stroke-width:0.72727275">
    <path
       style="fill:none;stroke:none;stroke-width:0.72727275"
       d="M -5.5000004e-8,-4.9999999e-8 H 16.000001 V 16 H -5.5000004e-8 Z"
       id="boundary"
       inkscape:label="#boundary"
       inkscape:connector-curvature="0" />
    <path
       inkscape:label="#"
       inkscape:connector-curvature="0"
       d="m 5.0527345,2.0000001 c -0.338716,0 -0.611329,0.2726127 -0.611329,0.6113278 V 13.388672 C 4.4414055,13.727387 4.7140185,14 5.0527345,14 h 5.8945325 c 0.338715,0 0.611328,-0.272613 0.611328,-0.611328 V 2.6113279 c 0,-0.3387151 -0.272613,-0.6113278 -0.611328,-0.6113278 z m 2.914062,0.7695309 a 0.45445851,0.45445851 0 0 1 0.0332,0 0.45445851,0.45445851 0 0 1 0.453125,0.455078 0.45445851,0.45445851 0 0 1 -0.453125,0.455078 0.45445851,0.45445851 0 0 1 -0.455078,-0.455078 0.45445851,0.45445851 0 0 1 0.421876,-0.455078 z m -0.925782,10.025391 h 1.917969 c 0.120832,0 0.218751,0.09596 0.218751,0.216797 0,0.120833 -0.09791,0.21875 -0.218751,0.21875 h -1.917969 c -0.120832,0 -0.21875,-0.09792 -0.21875,-0.21875 0,-0.120832 0.09792,-0.216797 0.21875,-0.216797 z"
       id="path818"
       style="opacity:0.6;fill:#d0d0d0;stroke-width:0.72727275" />
  </g>
</svg>
