<?xml version="1.0" encoding="UTF-8" standalone="no"?>
<!-- Created with Inkscape (http://www.inkscape.org/) -->

<svg
   xmlns:dc="http://purl.org/dc/elements/1.1/"
   xmlns:cc="http://creativecommons.org/ns#"
   xmlns:rdf="http://www.w3.org/1999/02/22-rdf-syntax-ns#"
   xmlns:svg="http://www.w3.org/2000/svg"
   xmlns="http://www.w3.org/2000/svg"
   xmlns:sodipodi="http://sodipodi.sourceforge.net/DTD/sodipodi-0.dtd"
   xmlns:inkscape="http://www.inkscape.org/namespaces/inkscape"
   width="22.000002"
   height="22"
   viewBox="0 0 22.000002 22"
   version="1.1"
   id="main"
   inkscape:version="0.92+devel (9d04be7596, 2017-09-23, custom)"
   sodipodi:docname="kdenlive-add-color-clip.svg">
  <defs
     id="ol-defs" />
  <sodipodi:namedview
     id="base"
     pagecolor="#002466"
     bordercolor="#ffffff"
     borderopacity="0.30"
     inkscape:pageopacity="1"
     inkscape:pageshadow="0"
     inkscape:zoom="13.140625"
     inkscape:document-units="px"
     inkscape:current-layer="main"
     inkscape:document-rotation="0"
     showgrid="false"
     inkscape:showpageshadow="false"
     borderlayer="true"
     inkscape:window-width="1920"
     inkscape:window-height="1017"
     inkscape:window-x="0"
     inkscape:window-y="34"
     inkscape:window-maximized="1"
     units="px"
     inkscape:cx="6.5947884"
     inkscape:cy="8.0269054" />
  <metadata
     id="metadata5">
    <rdf:RDF>
      <cc:Work
         rdf:about="">
        <dc:format>image/svg+xml</dc:format>
        <dc:type
           rdf:resource="http://purl.org/dc/dcmitype/StillImage" />
        <dc:title></dc:title>
      </cc:Work>
    </rdf:RDF>
  </metadata>
  <g
     id="g843"
     inkscape:label="#kdenlive-add-color-clip"
     style="stroke:none">
    <path
       style="fill:none;stroke:none;stroke-width:1"
       d="M 0,0 H 22.000001 V 22 H 0 Z"
       id="boundary"
       inkscape:label="#boundary"
       inkscape:connector-curvature="0" />
    <path
       inkscape:label="#"
       sodipodi:nodetypes="sssssssssccssscc"
       inkscape:connector-curvature="0"
       id="rect812"
       d="M 4.5996094,3 C 3.7132094,3 3,3.7132094 3,4.5996094 V 17.400391 C 3,18.286791 3.7132094,19 4.5996094,19 H 17.400391 C 18.286791,19 19,18.286791 19,17.400391 V 4.5996094 C 19,3.7132094 18.286791,3 17.400391,3 Z m 9.9779576,5.7550675 c 0.52309,1.8307595 1.802724,3.4060015 2.367188,4.6660155 0.19754,0.374628 0.320312,0.79545 0.320312,1.25 0,1.489327 -1.198174,2.6875 -2.6875,2.6875 -1.489326,0 -2.6875,-1.198173 -2.6875,-2.6875 0,-0.45455 0.122773,-0.875372 0.320313,-1.25 0.564466,-1.260014 1.844092,-2.835256 2.367187,-4.6660155 z"
       style="opacity:0.6;fill:#d0d0d0;stroke-width:1.33333337;stroke:none" />
  </g>
</svg>
