<?xml version="1.0" encoding="UTF-8" standalone="no"?>
<!-- Created with Inkscape (http://www.inkscape.org/) -->

<svg
   xmlns:dc="http://purl.org/dc/elements/1.1/"
   xmlns:cc="http://creativecommons.org/ns#"
   xmlns:rdf="http://www.w3.org/1999/02/22-rdf-syntax-ns#"
   xmlns:svg="http://www.w3.org/2000/svg"
   xmlns="http://www.w3.org/2000/svg"
   xmlns:sodipodi="http://sodipodi.sourceforge.net/DTD/sodipodi-0.dtd"
   xmlns:inkscape="http://www.inkscape.org/namespaces/inkscape"
   width="22.000002"
   height="22"
   viewBox="0 0 22.000002 22"
   version="1.1"
   id="main"
   inkscape:version="0.92+devel (9cbd9e9661, 2017-09-28, custom)"
   sodipodi:docname="kdenlive-select-texts.svg">
  <defs
     id="ol-defs" />
  <sodipodi:namedview
     id="base"
     pagecolor="#002466"
     bordercolor="#ffffff"
     borderopacity="0.30"
     inkscape:pageopacity="1"
     inkscape:pageshadow="0"
     inkscape:zoom="13.140625"
     inkscape:document-units="px"
     inkscape:current-layer="main"
     inkscape:document-rotation="0"
     showgrid="false"
     inkscape:showpageshadow="false"
     borderlayer="true"
     inkscape:window-width="1920"
     inkscape:window-height="1027"
     inkscape:window-x="0"
     inkscape:window-y="24"
     inkscape:window-maximized="1"
     units="px"
     inkscape:cx="6.5947884"
     inkscape:cy="8.0269054"
     inkscape:snap-page="true" />
  <metadata
     id="metadata5">
    <rdf:RDF>
      <cc:Work
         rdf:about="">
        <dc:format>image/svg+xml</dc:format>
        <dc:type
           rdf:resource="http://purl.org/dc/dcmitype/StillImage" />
        <dc:title></dc:title>
      </cc:Work>
    </rdf:RDF>
  </metadata>
  <g
     id="g874"
     transform="translate(0,6)"
     inkscape:label="#kdenlive-select-texts">
    <path
       style="fill:none;stroke:none;stroke-width:1"
       d="M 0,-6 H 22.000001 V 16 H 0 Z"
       id="boundary"
       inkscape:label="#boundary"
       inkscape:connector-curvature="0" />
    <path
       inkscape:label="#"
       inkscape:connector-curvature="0"
       id="rect858"
       d="m 4.000001,-3 v 14 h -1 v 1 h 1 v 1 h 1 v -1 h 12 v 1 h 1 v -1 h 1 v -1 h -1 V -3 h -1 v 14 h -12 V -3 Z"
       style="opacity:0.6;fill:#d0d0d0;stroke-linecap:round;stroke-dashoffset:0.15256613" />
    <path
       inkscape:label="#"
       d="m 15.04334,-1.2931813 0.111811,2.3703935 h -0.283254 q -0.082,-0.6261417 -0.223622,-0.8944881 -0.231076,-0.432336 -0.618688,-0.6335958 -0.380157,-0.2087139 -1.006299,-0.2087139 H 11.599561 V 7.062828 q 0,0.931759 0.20126,1.162835 0.283255,0.313071 0.872126,0.313071 h 0.350341 v 0.2758 H 8.7371993 v -0.2758 h 0.3577953 q 0.6410498,0 0.9093964,-0.387612 0.163989,-0.23853 0.163989,-1.088294 V -0.6595856 H 8.9533673 q -0.7081364,0 -1.0062991,0.104357 -0.3876115,0.1416273 -0.663412,0.5441469 -0.2758005,0.4025196 -0.327979,1.0882939 H 6.6724226 l 0.1192651,-2.3703935 z"
       style="font-style:normal;font-variant:normal;font-weight:normal;font-stretch:normal;font-size:medium;line-height:1.25;font-family:'Times New Roman';-inkscape-font-specification:'Times New Roman, ';letter-spacing:0px;word-spacing:0px;fill:#ffb900;stroke-width:1.6356355"
       id="path867"
       inkscape:connector-curvature="0" />
  </g>
</svg>
