<?xml version="1.0" encoding="UTF-8" standalone="no"?>
<!-- Created with Inkscape (http://www.inkscape.org/) -->

<svg
   xmlns:dc="http://purl.org/dc/elements/1.1/"
   xmlns:cc="http://creativecommons.org/ns#"
   xmlns:rdf="http://www.w3.org/1999/02/22-rdf-syntax-ns#"
   xmlns:svg="http://www.w3.org/2000/svg"
   xmlns="http://www.w3.org/2000/svg"
   xmlns:sodipodi="http://sodipodi.sourceforge.net/DTD/sodipodi-0.dtd"
   xmlns:inkscape="http://www.inkscape.org/namespaces/inkscape"
   width="22.000002"
   height="22"
   viewBox="0 0 22.000002 22"
   version="1.1"
   id="main"
   inkscape:version="0.92+devel (d86ea8daa7, 2017-09-19, custom)"
   sodipodi:docname="know.svg">
  <defs
     id="ol-defs" />
  <sodipodi:namedview
     id="base"
     pagecolor="#002466"
     bordercolor="#ffffff"
     borderopacity="0.30"
     inkscape:pageopacity="1"
     inkscape:pageshadow="2"
     inkscape:zoom="19.340909"
     inkscape:document-units="px"
     inkscape:current-layer="main"
     inkscape:document-rotation="0"
     showgrid="false"
     inkscape:showpageshadow="false"
     borderlayer="true"
     inkscape:window-width="1920"
     inkscape:window-height="1017"
     inkscape:window-x="0"
     inkscape:window-y="34"
     inkscape:window-maximized="1"
     units="px"
     inkscape:cx="11.000001"
     inkscape:cy="11" />
  <metadata
     id="metadata5">
    <rdf:RDF>
      <cc:Work
         rdf:about="">
        <dc:format>image/svg+xml</dc:format>
        <dc:type
           rdf:resource="http://purl.org/dc/dcmitype/StillImage" />
        <dc:title></dc:title>
      </cc:Work>
    </rdf:RDF>
  </metadata>
  <g
     id="g1495"
     inkscape:label="#know">
    <path
       style="fill:none;stroke:none;stroke-width:1"
       d="M 0,0 H 22.000001 V 22 H 0 Z"
       id="boundary"
       inkscape:label="#boundary"
       inkscape:connector-curvature="0" />
    <path
       style="opacity:0.6"
       inkscape:label="#"
       inkscape:connector-curvature="0"
       d="m 8.1771788,2.8767212 c -1.2962926,0 -2.5066686,0.454585 -3.3593755,1.3072921 -0.852706,0.852706 -1.30729,2.063081 -1.30729,3.359375 h 2.6666649 c 0,-0.7037 0.212081,-1.159999 0.526043,-1.473959 0.313961,-0.313962 0.7702576,-0.526041 1.4739576,-0.526041 0.703707,0 1.159997,0.21208 1.4739598,0.526041 0.313958,0.313962 0.5260394,0.770259 0.5260394,1.473959 0,0.611113 -0.120464,0.871096 -0.2812494,1.101562 -0.160781,0.230461 -0.4241788,0.448097 -0.8164058,0.722657 -0.392234,0.27456 -0.913252,0.5908497 -1.394532,1.1523427 -0.48128,0.561494 -0.8411436,1.412331 -0.8411436,2.356771 v 0.666667 h 2.6666654 v -0.666667 c 0,-0.388887 0.05546,-0.454723 0.199207,-0.622396 0.143721,-0.167671 0.4573304,-0.393056 0.8984354,-0.701823 0.441101,-0.308772 1.011047,-0.716137 1.475261,-1.38151 0.464214,-0.6653737 0.760416,-1.5720437 0.760416,-2.6276037 0,-1.296294 -0.454577,-2.506668 -1.307291,-3.359375 C 10.683834,3.3313062 9.4734658,2.8767212 8.1771658,2.8767212 Z M 6.8438472,16.210055 v 2.666666 h 2.6666654 v -2.666666 z"
       fill="#d0d0d0"
       stroke-linecap="round"
       stroke-linejoin="round"
       stroke-width=".529167"
       id="path835" />
    <path
       inkscape:label="#"
       sodipodi:nodetypes="cccccccccccc"
       inkscape:connector-curvature="0"
       id="path872"
       d="m 15.744257,11.428149 c -2.12238,1.3e-4 -3.841123,1.722697 -3.841252,3.849028 1.29e-4,2.126333 1.718872,3.850844 3.841252,3.850972 2.122834,5.14e-4 3.845011,-1.724185 3.84514,-3.850972 -1.29e-4,-2.126787 -1.722306,-3.849543 -3.84514,-3.849028 z m 1.817967,2.210619 0.707995,0.702986 c -1.104162,1.093362 -2.209568,2.185272 -3.312885,3.279487 -0.661087,-0.635564 -1.249096,-1.340526 -1.868507,-2.015448 l 0.707995,-0.702986 1.173871,1.302444 c 0.864252,-0.855002 1.727215,-1.711546 2.591531,-2.566483 z"
       style="fill:#00ff00;stroke:none;stroke-width:1.80000007;stroke-dasharray:3.59999997, 1.79999997;stroke-dashoffset:7.37999964" />
  </g>
</svg>
