<?xml version="1.0" encoding="UTF-8" standalone="no"?>
<!-- Created with Inkscape (http://www.inkscape.org/) -->

<svg
   xmlns:dc="http://purl.org/dc/elements/1.1/"
   xmlns:cc="http://creativecommons.org/ns#"
   xmlns:rdf="http://www.w3.org/1999/02/22-rdf-syntax-ns#"
   xmlns:svg="http://www.w3.org/2000/svg"
   xmlns="http://www.w3.org/2000/svg"
   xmlns:sodipodi="http://sodipodi.sourceforge.net/DTD/sodipodi-0.dtd"
   xmlns:inkscape="http://www.inkscape.org/namespaces/inkscape"
   width="22.000002"
   height="22"
   viewBox="0 0 22.000002 22"
   version="1.1"
   id="main"
   inkscape:version="0.92+devel (9279f97481, 2017-09-04, custom)"
   sodipodi:docname="kr_diskusage.svg">
  <defs
     id="ol-defs" />
  <sodipodi:namedview
     id="base"
     pagecolor="#002466"
     bordercolor="#ffffff"
     borderopacity="0.30"
     inkscape:pageopacity="1"
     inkscape:pageshadow="2"
     inkscape:zoom="18.58365"
     inkscape:document-units="px"
     inkscape:current-layer="main"
     inkscape:document-rotation="0"
     showgrid="false"
     inkscape:showpageshadow="false"
     borderlayer="true"
     inkscape:window-width="1920"
     inkscape:window-height="1025"
     inkscape:window-x="0"
     inkscape:window-y="26"
     inkscape:window-maximized="1"
     units="px"
     inkscape:cx="13.588476"
     inkscape:cy="11.591299" />
  <metadata
     id="metadata5">
    <rdf:RDF>
      <cc:Work
         rdf:about="">
        <dc:format>image/svg+xml</dc:format>
        <dc:type
           rdf:resource="http://purl.org/dc/dcmitype/StillImage" />
        <dc:title></dc:title>
      </cc:Work>
    </rdf:RDF>
  </metadata>
  <g
     id="g853"
     inkscape:label="#kr_diskusage"
     transform="scale(1.375)"
     style="stroke-width:0.72727275">
    <path
       style="fill:none;stroke:none;stroke-width:0.72727275"
       d="M -5.5000004e-8,-4.9999999e-8 H 16.000001 V 16 H -5.5000004e-8 Z"
       id="boundary"
       inkscape:label="#boundary"
       inkscape:connector-curvature="0" />
    <path
       inkscape:label="#"
       inkscape:connector-curvature="0"
       id="rect846"
       d="M 3.199707,2 C 2.534907,2 2,2.5349071 2,3.199707 v 9.600586 C 2,13.465093 2.534907,14 3.199707,14 h 9.600586 C 13.465093,14 14,13.465093 14,12.800293 V 3.199707 C 14,2.5349071 13.465093,2 12.800293,2 Z M 7.9838867,5.2739258 A 4.9266518,4.9266518 0 0 1 12.5,8.172852 L 9.0795898,9.716796 A 1.1749205,1.1749205 0 0 0 8.7016602,9.252441 L 9.7416995,6.2333984 8.2329102,9.048828 A 1.1749205,1.1749205 0 0 0 8.0102539,9.025388 1.1749205,1.1749205 0 0 0 6.9350586,9.729978 L 3.5,8.219727 A 4.9266518,4.9266518 0 0 1 7.9838867,5.2739258 Z M 8,9.729981 A 0.49868042,0.49868042 0 0 1 8.4980469,10.228027 0.49868042,0.49868042 0 0 1 8,10.727539 0.49868042,0.49868042 0 0 1 7.5004883,10.228027 0.49868042,0.49868042 0 0 1 8,9.729981 Z"
       style="opacity:0.6;fill:#d0d0d0;stroke-width:1.91490901;stroke-linecap:square" />
  </g>
</svg>
