<?xml version="1.0" encoding="UTF-8" standalone="no"?>
<!-- Created with Inkscape (http://www.inkscape.org/) -->

<svg
   xmlns:dc="http://purl.org/dc/elements/1.1/"
   xmlns:cc="http://creativecommons.org/ns#"
   xmlns:rdf="http://www.w3.org/1999/02/22-rdf-syntax-ns#"
   xmlns:svg="http://www.w3.org/2000/svg"
   xmlns="http://www.w3.org/2000/svg"
   xmlns:sodipodi="http://sodipodi.sourceforge.net/DTD/sodipodi-0.dtd"
   xmlns:inkscape="http://www.inkscape.org/namespaces/inkscape"
   width="22.000002"
   height="22"
   viewBox="0 0 22.000002 22"
   version="1.1"
   id="main"
   inkscape:version="0.92+devel (342812bdbc, 2017-09-26, custom)"
   sodipodi:docname="kstars_solarsystem.svg">
  <defs
     id="ol-defs">
    <style
       id="current-color-scheme"
       type="text/css">
      .ColorScheme-Text {
        color:#f2f2f2;
      }
      </style>
  </defs>
  <sodipodi:namedview
     id="base"
     pagecolor="#002466"
     bordercolor="#ffffff"
     borderopacity="0.30"
     inkscape:pageopacity="1"
     inkscape:pageshadow="0"
     inkscape:zoom="13.140625"
     inkscape:document-units="px"
     inkscape:current-layer="main"
     inkscape:document-rotation="0"
     showgrid="false"
     inkscape:showpageshadow="false"
     borderlayer="true"
     inkscape:window-width="1920"
     inkscape:window-height="1017"
     inkscape:window-x="0"
     inkscape:window-y="34"
     inkscape:window-maximized="1"
     units="px"
     inkscape:cx="6.5947884"
     inkscape:cy="8.0269054" />
  <metadata
     id="metadata5">
    <rdf:RDF>
      <cc:Work
         rdf:about="">
        <dc:format>image/svg+xml</dc:format>
        <dc:type
           rdf:resource="http://purl.org/dc/dcmitype/StillImage" />
        <dc:title></dc:title>
      </cc:Work>
    </rdf:RDF>
  </metadata>
  <g
     id="g840"
     inkscape:label="#kstars_solarsystem"
     style="stroke:none">
    <path
       style="fill:none;stroke:none;stroke-width:1"
       d="M 0,0 H 22.000001 V 22 H 0 Z"
       id="boundary"
       inkscape:label="#boundary"
       inkscape:connector-curvature="0" />
    <path
       inkscape:connector-curvature="0"
       inkscape:label="#"
       id="path832"
       d="m 10.472656,2.9335938 a 8,8 0 0 0 -7.9999998,8.0000002 8,8 0 0 0 1.3847657,4.498047 1.5,1.5 0 0 0 -0.1835938,0.251953 1.5,1.5 0 0 0 0.5488281,2.048828 1.5,1.5 0 0 0 1.7578126,-0.189453 8,8 0 0 0 4.4921872,1.390625 8,8 0 0 0 8,-8 8,8 0 0 0 -8,-8.0000002 z m 0,1 a 7,7 0 0 1 7,7.0000002 7,7 0 0 1 -7,7 A 7,7 0 0 1 6.4550781,16.662109 1.5,1.5 0 0 0 5.7226562,15.134766 1.5,1.5 0 0 0 4.75,14.949219 7,7 0 0 1 3.4726562,10.933594 7,7 0 0 1 10.472656,3.9335938 Z m 0,2 a 5,5 0 0 0 -4.9999998,5.0000002 5,5 0 0 0 4.9999998,5 5,5 0 0 0 3.072266,-1.0625 1.5,1.5 0 0 0 1.726562,-0.6875 1.5,1.5 0 0 0 -0.07813,-1.619141 5,5 0 0 0 0.279297,-1.630859 5,5 0 0 0 -5,-5.0000002 z m 0,1 a 4,4 0 0 1 4,4.0000002 4,4 0 0 1 -0.142578,1.042968 1.5,1.5 0 0 0 -1.65625,0.707032 1.5,1.5 0 0 0 0.03711,1.560547 4,4 0 0 1 -2.238282,0.689453 4,4 0 0 1 -3.9999998,-4 4,4 0 0 1 3.9999998,-4.0000002 z m 0,2 a 2,2 0 0 0 -1.9999998,2.0000002 2,2 0 0 0 1.9999998,2 2,2 0 0 0 2,-2 2,2 0 0 0 -2,-2.0000002 z"
       style="opacity:0.6;fill:#d0d0d0;fill-opacity:1;stroke:none" />
  </g>
</svg>
