<?xml version="1.0" encoding="UTF-8" standalone="no"?>
<!-- Created with Inkscape (http://www.inkscape.org/) -->

<svg
   xmlns:dc="http://purl.org/dc/elements/1.1/"
   xmlns:cc="http://creativecommons.org/ns#"
   xmlns:rdf="http://www.w3.org/1999/02/22-rdf-syntax-ns#"
   xmlns:svg="http://www.w3.org/2000/svg"
   xmlns="http://www.w3.org/2000/svg"
   xmlns:sodipodi="http://sodipodi.sourceforge.net/DTD/sodipodi-0.dtd"
   xmlns:inkscape="http://www.inkscape.org/namespaces/inkscape"
   width="22.000002"
   height="22"
   viewBox="0 0 22.000002 22"
   version="1.1"
   id="main"
   inkscape:version="0.92+devel (342812bdbc, 2017-09-26, custom)"
   sodipodi:docname="kstars_satellites.svg">
  <defs
     id="ol-defs" />
  <sodipodi:namedview
     id="base"
     pagecolor="#002466"
     bordercolor="#ffffff"
     borderopacity="0.30"
     inkscape:pageopacity="1"
     inkscape:pageshadow="0"
     inkscape:zoom="13.140625"
     inkscape:document-units="px"
     inkscape:current-layer="main"
     inkscape:document-rotation="0"
     showgrid="false"
     inkscape:showpageshadow="false"
     borderlayer="true"
     inkscape:window-width="1920"
     inkscape:window-height="1017"
     inkscape:window-x="0"
     inkscape:window-y="34"
     inkscape:window-maximized="1"
     units="px"
     inkscape:cx="6.5947884"
     inkscape:cy="8.0269054" />
  <metadata
     id="metadata5">
    <rdf:RDF>
      <cc:Work
         rdf:about="">
        <dc:format>image/svg+xml</dc:format>
        <dc:type
           rdf:resource="http://purl.org/dc/dcmitype/StillImage" />
        <dc:title></dc:title>
      </cc:Work>
    </rdf:RDF>
  </metadata>
  <g
     id="g839"
     inkscape:label="#kstars_satellites"
     style="stroke:none">
    <path
       style="fill:none;stroke:none;stroke-width:1"
       d="M 0,0 H 22.000001 V 22 H 0 Z"
       id="boundary"
       inkscape:label="#boundary"
       inkscape:connector-curvature="0" />
    <path
       inkscape:label="#"
       style="opacity:0.6;fill:#d0d0d0;stroke-width:0.71876675;stroke-linecap:round;stroke-dasharray:0.71876672, 0.71876671999999997;stroke-dashoffset:0.15260001;stroke:none"
       d="M 3.1235957,15.452081 10.348068,9.0316295 A 4.469037,4.469037 0 0 1 10.207559,6.3567649 L 3.0000008,11.519146 11.08964,4.5431665 l 0.03253,0.037728 a 4.469037,4.469037 0 0 1 6.021044,-0.7389693 4.469037,4.469037 0 0 1 1.014784,6.2370098 4.469037,4.469037 0 0 1 -0.741574,0.796213 l 0.04033,0.03513 -6.975981,8.089639 5.161081,-7.206258 a 4.469037,4.469037 0 0 1 -3.076877,-0.316144 l -6.3124683,7.103478 5.7400273,-7.439136 a 4.469037,4.469037 0 0 1 -0.07286,-0.04684 4.469037,4.469037 0 0 1 -1.281488,-1.4428135 z"
       id="path811"
       inkscape:connector-curvature="0" />
  </g>
</svg>
