<?xml version="1.0" encoding="UTF-8" standalone="no"?>
<!-- Created with Inkscape (http://www.inkscape.org/) -->

<svg
   xmlns:dc="http://purl.org/dc/elements/1.1/"
   xmlns:cc="http://creativecommons.org/ns#"
   xmlns:rdf="http://www.w3.org/1999/02/22-rdf-syntax-ns#"
   xmlns:svg="http://www.w3.org/2000/svg"
   xmlns="http://www.w3.org/2000/svg"
   xmlns:sodipodi="http://sodipodi.sourceforge.net/DTD/sodipodi-0.dtd"
   xmlns:inkscape="http://www.inkscape.org/namespaces/inkscape"
   width="22.000002"
   height="22"
   viewBox="0 0 22.000002 22"
   version="1.1"
   id="main"
   inkscape:version="0.92+devel (342812bdbc, 2017-09-26, custom)"
   sodipodi:docname="kstars_constellationart.svg">
  <defs
     id="ol-defs">
    <style
       id="current-color-scheme"
       type="text/css">
      .ColorScheme-Text {
        color:#f2f2f2;
      }
      </style>
  </defs>
  <sodipodi:namedview
     id="base"
     pagecolor="#002466"
     bordercolor="#ffffff"
     borderopacity="0.30"
     inkscape:pageopacity="1"
     inkscape:pageshadow="0"
     inkscape:zoom="13.140625"
     inkscape:document-units="px"
     inkscape:current-layer="g1437"
     inkscape:document-rotation="0"
     showgrid="false"
     inkscape:showpageshadow="false"
     borderlayer="true"
     inkscape:window-width="1920"
     inkscape:window-height="1017"
     inkscape:window-x="0"
     inkscape:window-y="34"
     inkscape:window-maximized="1"
     units="px"
     inkscape:cx="6.5947884"
     inkscape:cy="8.0269054" />
  <metadata
     id="metadata5">
    <rdf:RDF>
      <cc:Work
         rdf:about="">
        <dc:format>image/svg+xml</dc:format>
        <dc:type
           rdf:resource="http://purl.org/dc/dcmitype/StillImage" />
        <dc:title></dc:title>
      </cc:Work>
    </rdf:RDF>
  </metadata>
  <g
     id="g1437"
     inkscape:label="#kstars_constellationart"
     style="stroke:none">
    <path
       style="fill:none;stroke:none;stroke-width:1"
       d="M 0,0 H 22.000001 V 22 H 0 Z"
       id="boundary"
       inkscape:label="#boundary"
       inkscape:connector-curvature="0" />
    <path
       style="opacity:0.6;fill:#d0d0d0;fill-opacity:1;stroke:none;stroke-width:0.89305371"
       d="M 6.6643734,3.0134457 C 6.433823,2.925835 6.184255,3.2754962 6.1053605,3.7964438 6.0342611,4.2659603 6.1073795,6.7453518 6.2017478,7.065591 6.2484341,7.2241012 6.170794,7.2988325 5.7654021,7.4857365 5.1696027,7.7604252 4.3133058,8.5636805 4.0287829,9.1159698 3.9050482,9.3561514 3.822001,9.7002997 3.822001,9.9684132 c 0,0.3912548 0.047979,0.4973358 0.3680012,0.8142488 0.3879315,0.384159 0.7961443,0.540311 1.6787922,0.640635 0.2948399,0.03351 0.5949824,0.105887 0.6659083,0.161461 0.2525733,0.197889 0.5039609,0.839365 0.6028218,1.53301 0.062432,0.438019 0.2348153,0.986648 0.4538697,1.449673 0.3509349,0.741795 0.3518396,0.746024 0.2873921,1.687528 -0.035569,0.519614 -0.1136546,1.261835 -0.1734864,1.647595 -0.097855,0.630875 -0.092525,0.720188 0.064841,0.892375 0.268085,0.293356 0.9679852,0.266374 1.1741018,-0.04515 0.1540632,-0.232844 0.3541982,-0.913625 0.4766504,-1.621552 l 0.063085,-0.361116 0.4591264,0.232641 c 0.2600885,0.13236 0.5296985,0.36289 0.6238515,0.531259 l 0.166477,0.29688 h -0.266362 c -0.39519,0 -0.6992047,0.251723 -0.6992047,0.578133 0,0.578675 0.3347067,0.593759 0.3347067,0.593759 h 5.383346 c 0.897224,0 0.949908,-0.187889 1.028654,-1.019112 0.0226,-0.238604 0.09208,-0.304703 0.448611,-0.421881 0.857577,-0.28186 1.416821,-1.160402 1.146065,-1.802111 -0.144771,-0.343115 -0.598544,-0.584041 -0.969072,-0.513897 -0.219511,0.04156 -0.236962,0.0072 -0.331203,-0.640635 -0.200756,-1.37995 -0.760775,-2.326398 -1.76817,-2.991356 C 14.294505,11.118187 13.45437,10.891207 12.007415,10.789608 10.63689,10.693378 10.181272,10.53754 9.7345631,10.011818 9.5959349,9.8486682 9.457249,9.5530669 9.4261423,9.3555568 9.2962934,8.5311258 9.1561701,8.2183544 8.7374525,7.8190749 L 8.3133739,7.4128186 8.5026322,6.8676714 c 0.5637896,-1.6227517 0.6541064,-3.80735 0.1577152,-3.80735 -0.2806635,0 -0.7199709,0.6720075 -1.0304064,1.576413 L 7.4652172,5.1141722 7.339047,4.5464553 C 7.1707419,3.7887638 6.8625488,3.0887526 6.6643761,3.0134457 Z m -0.5993173,5.319526 c 0.247762,0 0.4486128,0.1989876 0.4486128,0.4444512 0,0.2454636 -0.2008508,0.4444513 -0.4486128,0.4444513 -0.2477607,0 -0.4486116,-0.1989877 -0.4486116,-0.4444513 0,-0.2454636 0.2008509,-0.4444512 0.4486116,-0.4444512 z"
       id="path826"
       inkscape:connector-curvature="0"
       inkscape:label="#" />
  </g>
</svg>
