<?xml version="1.0" encoding="UTF-8" standalone="no"?>
<!-- Created with Inkscape (http://www.inkscape.org/) -->

<svg
   xmlns:dc="http://purl.org/dc/elements/1.1/"
   xmlns:cc="http://creativecommons.org/ns#"
   xmlns:rdf="http://www.w3.org/1999/02/22-rdf-syntax-ns#"
   xmlns:svg="http://www.w3.org/2000/svg"
   xmlns="http://www.w3.org/2000/svg"
   xmlns:sodipodi="http://sodipodi.sourceforge.net/DTD/sodipodi-0.dtd"
   xmlns:inkscape="http://www.inkscape.org/namespaces/inkscape"
   width="22.000002"
   height="22"
   viewBox="0 0 22.000002 22"
   version="1.1"
   id="main"
   inkscape:version="0.92+devel (980bacf4fd, 2017-09-27, custom)"
   sodipodi:docname="kstars_ekos.svg">
  <defs
     id="ol-defs" />
  <sodipodi:namedview
     id="base"
     pagecolor="#002466"
     bordercolor="#ffffff"
     borderopacity="0.30"
     inkscape:pageopacity="1"
     inkscape:pageshadow="0"
     inkscape:zoom="13.140625"
     inkscape:document-units="px"
     inkscape:current-layer="main"
     inkscape:document-rotation="0"
     showgrid="false"
     inkscape:showpageshadow="false"
     borderlayer="true"
     inkscape:window-width="1920"
     inkscape:window-height="1017"
     inkscape:window-x="0"
     inkscape:window-y="34"
     inkscape:window-maximized="1"
     units="px"
     inkscape:cx="6.5947884"
     inkscape:cy="8.0269054" />
  <metadata
     id="metadata5">
    <rdf:RDF>
      <cc:Work
         rdf:about="">
        <dc:format>image/svg+xml</dc:format>
        <dc:type
           rdf:resource="http://purl.org/dc/dcmitype/StillImage" />
        <dc:title></dc:title>
      </cc:Work>
    </rdf:RDF>
  </metadata>
  <g
     id="g839"
     inkscape:label="#kstars_ekos"
     style="stroke:none">
    <path
       style="fill:none;stroke:none;stroke-width:1"
       d="M 0,0 H 22.000001 V 22 H 0 Z"
       id="boundary"
       inkscape:label="#boundary"
       inkscape:connector-curvature="0" />
    <path
       inkscape:label="#"
       inkscape:connector-curvature="0"
       style="opacity:0.6;fill:#d0d0d0;stroke-width:1.22293806;stroke-linecap:round;stroke-dasharray:1.22293813, 1.22293812999999996;stroke-dashoffset:0.15260001;stroke:none"
       d="m 11.000001,3 c -3.6818981,10e-8 -6.6666664,2.9847684 -6.6666664,6.666667 a 6.6666664,1.5046718 0 0 0 6.6666664,1.505208 6.6666664,1.5046718 0 0 0 6.666666,-1.505208 C 17.666667,5.9847684 14.681899,3.0000003 11.000001,3 Z M 7.8541678,4.6067707 C 8.0414698,4.7821954 8.8316866,4.9848258 9.3906262,5.1354166 8.8757887,5.6256895 7.9915104,8.074627 7.6354178,9.70052 6.49841,9.655303 5.5622542,9.291408 5.0000013,8.992187 5.1472178,7.3661831 6.9216727,4.9279525 7.8541678,4.6067707 Z M 4.3333346,11.276042 v 6.221354 c 0.00507,0.8302 2.9883439,1.502605 6.6666664,1.502604 3.678324,1e-6 6.661611,-0.672404 6.666666,-1.502604 v -6.221354 c -0.07608,0.05116 -0.153331,0.10116 -0.236979,0.145833 -0.418909,0.2237 -0.944902,0.3929 -1.580729,0.536459 -1.271653,0.287114 -2.967648,0.455728 -4.846354,0.455728 -1.8787064,0 -3.5773033,-0.168614 -4.8489579,-0.455728 C 5.5178203,11.814775 4.9866189,11.645575 4.5677095,11.421875 4.4841895,11.377275 4.4088093,11.3271 4.3333346,11.276042 Z"
       id="path848" />
  </g>
</svg>
