<?xml version="1.0" encoding="UTF-8" standalone="no"?>
<!-- Created with Inkscape (http://www.inkscape.org/) -->

<svg
   xmlns:dc="http://purl.org/dc/elements/1.1/"
   xmlns:cc="http://creativecommons.org/ns#"
   xmlns:rdf="http://www.w3.org/1999/02/22-rdf-syntax-ns#"
   xmlns:svg="http://www.w3.org/2000/svg"
   xmlns="http://www.w3.org/2000/svg"
   xmlns:sodipodi="http://sodipodi.sourceforge.net/DTD/sodipodi-0.dtd"
   xmlns:inkscape="http://www.inkscape.org/namespaces/inkscape"
   width="22.000002"
   height="22"
   viewBox="0 0 22.000002 22"
   version="1.1"
   id="main"
   inkscape:version="0.92+devel (342812bdbc, 2017-09-26, custom)"
   sodipodi:docname="kstars_cnames.svg">
  <defs
     id="ol-defs">
    <style
       id="current-color-scheme"
       type="text/css">
      .ColorScheme-Text {
        color:#f2f2f2;
      }
      </style>
  </defs>
  <sodipodi:namedview
     id="base"
     pagecolor="#002466"
     bordercolor="#ffffff"
     borderopacity="0.30"
     inkscape:pageopacity="1"
     inkscape:pageshadow="0"
     inkscape:zoom="15.791244"
     inkscape:document-units="px"
     inkscape:current-layer="main"
     inkscape:document-rotation="0"
     showgrid="false"
     inkscape:showpageshadow="false"
     borderlayer="true"
     inkscape:window-width="1920"
     inkscape:window-height="1017"
     inkscape:window-x="0"
     inkscape:window-y="34"
     inkscape:window-maximized="1"
     units="px"
     inkscape:cx="11.000001"
     inkscape:cy="11" />
  <metadata
     id="metadata5">
    <rdf:RDF>
      <cc:Work
         rdf:about="">
        <dc:format>image/svg+xml</dc:format>
        <dc:type
           rdf:resource="http://purl.org/dc/dcmitype/StillImage" />
        <dc:title></dc:title>
      </cc:Work>
    </rdf:RDF>
  </metadata>
  <g
     id="g838"
     inkscape:label="#kstars_cnames"
     style="stroke:none">
    <path
       style="fill:none;stroke:none;stroke-width:1"
       d="M 0,0 H 22.000001 V 22 H 0 Z"
       id="boundary"
       inkscape:label="#boundary"
       inkscape:connector-curvature="0" />
    <path
       inkscape:label="#"
       inkscape:connector-curvature="0"
       id="path832"
       d="M 7.2109385,4.2636719 A 4.2105263,4.2105263 0 0 0 3.000001,8.4726563 V 13.52539 A 4.2105263,4.2105263 0 0 0 7.2109385,17.736328 4.2105263,4.2105263 0 0 0 11.419923,13.52539 V 8.4726563 A 4.2105263,4.2105263 0 0 0 7.2109385,4.2636719 Z m 0,0.8417969 A 3.3684211,3.3684211 0 0 1 10.578126,8.4726563 V 13.52539 A 3.3684211,3.3684211 0 0 1 7.2109385,16.894531 3.3684211,3.3684211 0 0 1 3.8417979,13.52539 V 8.4726563 A 3.3684211,3.3684211 0 0 1 7.2109385,5.1054688 Z M 18.158204,7.6308594 v 0.8417969 h 0.841797 V 7.6308594 Z m -5.894531,2.5273436 v 7.578125 H 13.10547 V 12.683593 A 1.6842105,1.6842105 0 0 1 14.789063,11 a 1.6842105,1.6842105 0 0 1 1.683594,1.683593 h 0.84375 a 2.5263158,2.5263158 0 0 0 -2.527344,-2.52539 2.5263158,2.5263158 0 0 0 -1.683593,0.646484 v -0.646484 z m 5.894531,0 v 7.578125 h 0.841797 v -7.578125 z"
       style="opacity:0.6;fill:#d0d0d0;fill-opacity:1;stroke:none;stroke-width:0.84210527" />
  </g>
</svg>
