<?xml version="1.0" encoding="UTF-8" standalone="no"?>
<!-- Created with Inkscape (http://www.inkscape.org/) -->

<svg
   xmlns:dc="http://purl.org/dc/elements/1.1/"
   xmlns:cc="http://creativecommons.org/ns#"
   xmlns:rdf="http://www.w3.org/1999/02/22-rdf-syntax-ns#"
   xmlns:svg="http://www.w3.org/2000/svg"
   xmlns="http://www.w3.org/2000/svg"
   xmlns:sodipodi="http://sodipodi.sourceforge.net/DTD/sodipodi-0.dtd"
   xmlns:inkscape="http://www.inkscape.org/namespaces/inkscape"
   width="22.000002"
   height="22"
   viewBox="0 0 22.000002 22"
   version="1.1"
   id="main"
   inkscape:version="0.92+devel (342812bdbc, 2017-09-26, custom)"
   sodipodi:docname="kstars_stars.svg">
  <defs
     id="ol-defs" />
  <sodipodi:namedview
     id="base"
     pagecolor="#002466"
     bordercolor="#ffffff"
     borderopacity="0.30"
     inkscape:pageopacity="1"
     inkscape:pageshadow="0"
     inkscape:zoom="13.140625"
     inkscape:document-units="px"
     inkscape:current-layer="main"
     inkscape:document-rotation="0"
     showgrid="false"
     inkscape:showpageshadow="false"
     borderlayer="true"
     inkscape:window-width="1920"
     inkscape:window-height="1017"
     inkscape:window-x="0"
     inkscape:window-y="34"
     inkscape:window-maximized="1"
     units="px"
     inkscape:cx="6.5947884"
     inkscape:cy="8.0269054" />
  <metadata
     id="metadata5">
    <rdf:RDF>
      <cc:Work
         rdf:about="">
        <dc:format>image/svg+xml</dc:format>
        <dc:type
           rdf:resource="http://purl.org/dc/dcmitype/StillImage" />
        <dc:title></dc:title>
      </cc:Work>
    </rdf:RDF>
  </metadata>
  <g
     id="g821"
     inkscape:label="#kstars_stars"
     style="stroke:none">
    <path
       style="fill:none;stroke:none;stroke-width:1"
       d="M 0,0 H 22.000001 V 22 H 0 Z"
       id="boundary"
       inkscape:label="#boundary"
       inkscape:connector-curvature="0" />
    <path
       inkscape:label="#"
       inkscape:connector-curvature="0"
       id="path812"
       d="M 7.2450605,3 6.848222,5.4932807 4.8071155,4.0102767 6.2885384,6.0529646 3.7968387,6.4482214 6.2885384,6.8450594 4.8071155,8.886166 6.848222,7.4047433 7.2450605,9.896443 7.6403172,7.4047433 9.6830046,8.886166 8.2000008,6.8450594 10.691701,6.4482214 8.2000008,6.0529646 9.6830046,4.0102767 7.6403172,5.4932807 Z M 12.33597,7.2640318 11.662452,11.505929 8.1873526,8.982609 10.710674,12.459288 6.4687754,13.132807 10.710674,13.806324 8.1873526,17.281424 11.662452,14.758103 12.33597,19 l 0.673517,-4.241897 3.475099,2.523321 -2.521739,-3.4751 4.240316,-0.673517 -4.240316,-0.673519 2.521739,-3.476679 -3.475099,2.52332 z"
       style="opacity:0.6;fill:#d0d0d0;stroke-width:0.61763799;stroke-linecap:round;stroke-dasharray:0.61763797, 0.61763796999999998;stroke-dashoffset:0.15260001;stroke:none" />
  </g>
</svg>
