<?xml version="1.0" encoding="UTF-8" standalone="no"?>
<!-- Created with Inkscape (http://www.inkscape.org/) -->

<svg
   xmlns:dc="http://purl.org/dc/elements/1.1/"
   xmlns:cc="http://creativecommons.org/ns#"
   xmlns:rdf="http://www.w3.org/1999/02/22-rdf-syntax-ns#"
   xmlns:svg="http://www.w3.org/2000/svg"
   xmlns="http://www.w3.org/2000/svg"
   xmlns:sodipodi="http://sodipodi.sourceforge.net/DTD/sodipodi-0.dtd"
   xmlns:inkscape="http://www.inkscape.org/namespaces/inkscape"
   width="22.000002"
   height="22"
   viewBox="0 0 22.000002 22"
   version="1.1"
   id="main"
   inkscape:version="0.92+devel (980bacf4fd, 2017-09-27, custom)"
   sodipodi:docname="kstars_deepsky.svg">
  <defs
     id="ol-defs" />
  <sodipodi:namedview
     id="base"
     pagecolor="#002466"
     bordercolor="#ffffff"
     borderopacity="0.30"
     inkscape:pageopacity="1"
     inkscape:pageshadow="0"
     inkscape:zoom="13.140625"
     inkscape:document-units="px"
     inkscape:current-layer="main"
     inkscape:document-rotation="0"
     showgrid="false"
     inkscape:showpageshadow="false"
     borderlayer="true"
     inkscape:window-width="1920"
     inkscape:window-height="1017"
     inkscape:window-x="0"
     inkscape:window-y="34"
     inkscape:window-maximized="1"
     units="px"
     inkscape:cx="6.5947884"
     inkscape:cy="8.0269054" />
  <metadata
     id="metadata5">
    <rdf:RDF>
      <cc:Work
         rdf:about="">
        <dc:format>image/svg+xml</dc:format>
        <dc:type
           rdf:resource="http://purl.org/dc/dcmitype/StillImage" />
        <dc:title />
      </cc:Work>
    </rdf:RDF>
  </metadata>
  <g
     id="g824"
     inkscape:label="#kstars_deepsky"
     style="stroke:none">
    <path
       style="fill:none;stroke:none;stroke-width:1"
       d="M 0,0 H 22.000001 V 22 H 0 Z"
       id="boundary"
       inkscape:label="#boundary"
       inkscape:connector-curvature="0" />
    <path
       inkscape:label="#"
       inkscape:connector-curvature="0"
       id="path812"
       d="M 16.46449,3 A 2.5354369,2.5354369 0 0 0 13.928978,5.5355113 2.5354369,2.5354369 0 0 0 16.46449,8.071023 2.5354369,2.5354369 0 0 0 19.000001,5.5355113 2.5354369,2.5354369 0 0 0 16.46449,3 Z M 7.4573873,5.7642045 A 4.4577293,2.8994273 0 0 0 3.000001,8.663352 4.4577293,2.8994273 0 0 0 7.4573873,11.5625 4.4577293,2.8994273 0 0 0 11.914773,8.663352 4.4577293,2.8994273 0 0 0 7.4573873,5.7642045 Z M 5.7840919,13.5625 V 19 H 16.106535 v -5.4375 z"
       style="opacity:0.6;fill:#d0d0d0;stroke-width:0.98125684;stroke-linecap:round;stroke-dashoffset:0.15256613;stroke:none" />
  </g>
</svg>
