<?xml version="1.0" encoding="UTF-8" standalone="no"?>
<!-- Created with Inkscape (http://www.inkscape.org/) -->

<svg
   xmlns:dc="http://purl.org/dc/elements/1.1/"
   xmlns:cc="http://creativecommons.org/ns#"
   xmlns:rdf="http://www.w3.org/1999/02/22-rdf-syntax-ns#"
   xmlns:svg="http://www.w3.org/2000/svg"
   xmlns="http://www.w3.org/2000/svg"
   xmlns:sodipodi="http://sodipodi.sourceforge.net/DTD/sodipodi-0.dtd"
   xmlns:inkscape="http://www.inkscape.org/namespaces/inkscape"
   width="22.000002"
   height="22"
   viewBox="0 0 22.000002 22"
   version="1.1"
   id="main"
   inkscape:version="0.92+devel (342812bdbc, 2017-09-26, custom)"
   sodipodi:docname="kstars_grid.svg">
  <defs
     id="ol-defs" />
  <sodipodi:namedview
     id="base"
     pagecolor="#002466"
     bordercolor="#ffffff"
     borderopacity="0.30"
     inkscape:pageopacity="1"
     inkscape:pageshadow="0"
     inkscape:zoom="13.140625"
     inkscape:document-units="px"
     inkscape:current-layer="main"
     inkscape:document-rotation="0"
     showgrid="false"
     inkscape:showpageshadow="false"
     borderlayer="true"
     inkscape:window-width="1920"
     inkscape:window-height="1017"
     inkscape:window-x="0"
     inkscape:window-y="34"
     inkscape:window-maximized="1"
     units="px"
     inkscape:cx="6.5947884"
     inkscape:cy="8.0269054" />
  <metadata
     id="metadata5">
    <rdf:RDF>
      <cc:Work
         rdf:about="">
        <dc:format>image/svg+xml</dc:format>
        <dc:type
           rdf:resource="http://purl.org/dc/dcmitype/StillImage" />
        <dc:title></dc:title>
      </cc:Work>
    </rdf:RDF>
  </metadata>
  <g
     id="g828"
     inkscape:label="#kstars_grid"
     style="stroke:none">
    <path
       style="fill:none;stroke:none;stroke-width:1"
       d="M 0,0 H 22.000001 V 22 H 0 Z"
       id="boundary"
       inkscape:label="#boundary"
       inkscape:connector-curvature="0" />
    <path
       inkscape:label="#"
       inkscape:connector-curvature="0"
       id="path822"
       d="M 6.5253918,3.0000001 9.4277356,4.279297 C 8.9455834,5.2084418 8.3338036,6.0556229 7.6269543,6.8144533 L 3.8183605,3.0195314 H 3.0117199 v 0.9492187 l 3.7226563,3.7050778 c -0.7208313,0.623869 -1.5137908,1.162834 -2.3750001,1.59375 L 3.5683605,7.4824219 v -0.0039 L 3.029298,6.2226564 3.0156262,9.2460939 3.2402356,9.7519529 c -0.081462,0.03041 -0.1579059,0.071 -0.2402344,0.09961 v 1.3085931 c 0.2534343,-0.07884 0.4938265,-0.185321 0.7402343,-0.279296 l 1.9355469,4.365234 c -0.8615948,0.339004 -1.7534659,0.618754 -2.6757812,0.818359 v 1.269532 C 4.0991779,17.11219 5.157583,16.7826 6.1777356,16.376953 l 1.1347656,2.5625 H 8.6445324 L 7.294923,15.892578 c 1.6841497,-0.801264 3.227091,-1.847408 4.587891,-3.091796 l 3.423828,3.408203 C 14.188297,17.249941 12.9746,18.189861 11.669923,19 h 2.220703 c 0.806228,-0.590038 1.56484,-1.238733 2.292969,-1.919922 l 1.867188,1.859375 0.888672,0.0098 0.0059,-0.855469 -1.884766,-1.876953 c 0.685699,-0.708001 1.341002,-1.445641 1.939453,-2.230469 v -2.148437 c -0.823057,1.260444 -1.769656,2.430577 -2.8125,3.507812 L 12.76762,11.937534 c 1.332993,-1.390479 2.453589,-2.9836521 3.308594,-4.7324221 l 2.859375,1.259766 0.0039,-1.345703 -2.367188,-1.0253908 c 0.405262,-0.9880338 0.7385,-2.0121089 0.970703,-3.0761718 h -1.269531 c -0.208635,0.8916105 -0.490335,1.752914 -0.830078,2.5859375 l -4.404297,-1.90625 c 0.09074,-0.2269615 0.195599,-0.4465417 0.273437,-0.6796875 H 9.9960949 C 9.9715809,3.0832593 9.9377829,3.143949 9.9121109,3.2090185 L 9.4316418,3.0000001 Z m 4.0292972,1.7753907 4.392578,1.9335937 C 14.15549,8.3183459 13.1195,9.7839699 11.892579,11.066406 L 8.5000012,7.6855469 C 9.312957,6.818509 10.007586,5.8427861 10.554689,4.7753908 Z M 7.6093762,8.5449219 11.007814,11.927735 C 9.7544818,13.065458 8.3384673,14.024464 6.7929699,14.761719 L 4.8593761,10.394532 C 5.859109,9.8983139 6.7792227,9.2745429 7.6093762,8.5449219 Z"
       style="opacity:0.6;fill:#d0d0d0;fill-opacity:1;stroke:none" />
  </g>
</svg>
