<?xml version="1.0" encoding="UTF-8" standalone="no"?>
<!-- Created with Inkscape (http://www.inkscape.org/) -->

<svg
   xmlns:dc="http://purl.org/dc/elements/1.1/"
   xmlns:cc="http://creativecommons.org/ns#"
   xmlns:rdf="http://www.w3.org/1999/02/22-rdf-syntax-ns#"
   xmlns:svg="http://www.w3.org/2000/svg"
   xmlns="http://www.w3.org/2000/svg"
   xmlns:sodipodi="http://sodipodi.sourceforge.net/DTD/sodipodi-0.dtd"
   xmlns:inkscape="http://www.inkscape.org/namespaces/inkscape"
   width="22.000002"
   height="22"
   viewBox="0 0 22.000002 22"
   version="1.1"
   id="main"
   inkscape:version="0.92+devel (980bacf4fd, 2017-09-27, custom)"
   sodipodi:docname="kstars_indi.svg">
  <defs
     id="ol-defs" />
  <sodipodi:namedview
     id="base"
     pagecolor="#002466"
     bordercolor="#ffffff"
     borderopacity="0.30"
     inkscape:pageopacity="1"
     inkscape:pageshadow="0"
     inkscape:zoom="13.140625"
     inkscape:document-units="px"
     inkscape:current-layer="main"
     inkscape:document-rotation="0"
     showgrid="false"
     inkscape:showpageshadow="false"
     borderlayer="true"
     inkscape:window-width="1920"
     inkscape:window-height="1017"
     inkscape:window-x="0"
     inkscape:window-y="34"
     inkscape:window-maximized="1"
     units="px"
     inkscape:cx="6.5947884"
     inkscape:cy="8.0269054" />
  <metadata
     id="metadata5">
    <rdf:RDF>
      <cc:Work
         rdf:about="">
        <dc:format>image/svg+xml</dc:format>
        <dc:type
           rdf:resource="http://purl.org/dc/dcmitype/StillImage" />
        <dc:title></dc:title>
      </cc:Work>
    </rdf:RDF>
  </metadata>
  <g
     id="g829"
     inkscape:label="#kstars_indi"
     style="stroke:none">
    <path
       style="fill:none;stroke:none;stroke-width:1"
       d="M 0,0 H 22.000001 V 22 H 0 Z"
       id="boundary"
       inkscape:label="#boundary"
       inkscape:connector-curvature="0" />
    <path
       inkscape:label="#"
       id="path6"
       d="m 18.921875,3.9414062 c -0.569842,-0.0062 -1.546674,0.297224 -2.710937,0.8007813 l -0.300782,1.2050781 c 0.562103,-0.2164019 0.969554,-0.2561421 1.158203,-0.058594 0.376165,0.3939664 -0.254638,1.3888219 -1.609375,2.8359375 0.06682,0.1120912 0.107054,0.2493786 0.16211,0.3652344 2.053893,-2.0488886 4.280088,-4.4775199 3.777344,-5.0039063 -0.09128,-0.095621 -0.254057,-0.1420843 -0.476563,-0.144531 z m -6.070313,2.578125 A 2.8233519,2.8234566 0 0 1 12.996094,6.65625 2.8233519,2.8234566 0 0 0 12.927734,6.587891 2.8233519,2.8234566 0 0 0 12.851564,6.519532 Z m 0.201172,0.1933594 a 2.8233519,2.8234566 0 0 1 0.150391,0.1738282 2.8233519,2.8234566 0 0 0 -0.07813,-0.095703 2.8233519,2.8234566 0 0 0 -0.07227,-0.078125 z m 0.169922,0.1992188 a 2.8233519,2.8234566 0 0 1 0.25,0.3769531 2.8233519,2.8234566 0 0 0 -0.01953,-0.037109 2.8233519,2.8234566 0 0 0 -0.06641,-0.1113281 2.8233519,2.8234566 0 0 0 -0.08984,-0.1328125 2.8233519,2.8234566 0 0 0 -0.07422,-0.095703 z M 8.4101562,9.7636719 a 2.8233519,2.8234566 0 0 0 0.011719,0.03125 2.8233519,2.8234566 0 0 0 0.050781,0.1054687 A 2.8233519,2.8234566 0 0 0 8.53125,10.011719 2.8233519,2.8234566 0 0 1 8.4101562,9.7636719 Z M 8.53125,10.011719 a 2.8233519,2.8234566 0 0 0 0.019531,0.03711 2.8233519,2.8234566 0 0 0 0.070313,0.115234 A 2.8233519,2.8234566 0 0 0 8.6796875,10.25 2.8233519,2.8234566 0 0 1 8.53125,10.011719 Z M 8.6796875,10.25 a 2.8233519,2.8234566 0 0 0 0.015625,0.02539 2.8233519,2.8234566 0 0 0 0.095703,0.125 2.8233519,2.8234566 0 0 0 0.060547,0.07422 A 2.8233519,2.8234566 0 0 1 8.6796875,10.25 Z m 0.171875,0.224609 a 2.8233519,2.8234566 0 0 0 0.023437,0.03125 2.8233519,2.8234566 0 0 0 0.089844,0.0957 2.8233519,2.8234566 0 0 0 0.080078,0.07813 2.8233519,2.8234566 0 0 1 -0.1933594,-0.205079 z m -1.984375,0.597657 c -2.8101017,2.685998 -4.8107914,5.414225 -4.2402344,6.011718 0.1369324,0.143338 1.4610748,-0.218586 1.8847657,-0.421875 0.6463898,-0.234535 1.7022132,-0.668593 2.9707031,-1.365234 l -0.080078,-0.425781 c -1.21979,0.606572 -2.0793713,0.809685 -2.3789063,0.496094 -0.397572,-0.416327 0.5037007,-1.541276 2.0859375,-3.001954 z M 2.5292969,18.058594 V 19 H 19.470703 v -0.941406 z"
       style="opacity:0.3;fill:#d0d0d0;fill-opacity:1;stroke:none;stroke-width:0.94113475"
       inkscape:connector-curvature="0" />
    <path
       inkscape:label="#"
       inkscape:connector-curvature="0"
       id="path4"
       d="M 5.3533406,3 8.000233,17.117282 h 5.117326 L 16.646749,3 Z m 1.411676,0.9411522 a 0.47055866,0.47057611 0 0 1 0.080877,0.00735 0.47055866,0.47057611 0 0 1 0.00184,0 0.47055866,0.47057611 0 0 1 0.042277,0.011029 0.47055866,0.47057611 0 0 1 0.00184,0 0.47055866,0.47057611 0 0 1 0.00184,0 0.47055866,0.47057611 0 0 1 0.042276,0.014705 0.47055866,0.47057611 0 0 1 0.034924,0.014706 0.47055866,0.47057611 0 0 1 0.016543,0.0092 0.47055866,0.47057611 0 0 1 0.031248,0.018382 0.47055866,0.47057611 0 0 1 0.038601,0.027573 0.47055866,0.47057611 0 0 1 0.034924,0.031249 0.47055866,0.47057611 0 0 1 0.027572,0.027573 0.47055866,0.47057611 0 0 1 0.00735,0.0092 0.47055866,0.47057611 0 0 1 0.033086,0.045955 0.47055866,0.47057611 0 0 1 0.023896,0.04044 0.47055866,0.47057611 0 0 1 0.0092,0.018382 0.47055866,0.47057611 0 0 1 0.00552,0.012867 0.47055866,0.47057611 0 0 1 0.012867,0.036764 0.47055866,0.47057611 0 0 1 0.00552,0.012868 0.47055866,0.47057611 0 0 1 0.00368,0.016544 0.47055866,0.47057611 0 0 1 0.00735,0.036764 0.47055866,0.47057611 0 0 1 0.00552,0.045955 0.47055866,0.47057611 0 0 1 0.00184,0.033087 0.47055866,0.47057611 0 0 1 -0.00184,0.033087 0.47055866,0.47057611 0 0 1 -0.00552,0.047793 0.47055866,0.47057611 0 0 1 -0.00552,0.031249 0.47055866,0.47057611 0 0 1 -0.00552,0.02022 0.47055866,0.47057611 0 0 1 -0.00735,0.022059 0.47055866,0.47057611 0 0 1 -0.0092,0.023897 0.47055866,0.47057611 0 0 1 -0.016543,0.034925 0.47055866,0.47057611 0 0 1 -0.022057,0.036763 0.47055866,0.47057611 0 0 1 -0.00552,0.011029 0.47055866,0.47057611 0 0 1 -0.0092,0.012867 0.47055866,0.47057611 0 0 1 -0.020219,0.027573 0.47055866,0.47057611 0 0 1 -0.00368,0.00368 0.47055866,0.47057611 0 0 1 -0.031248,0.033087 0.47055866,0.47057611 0 0 1 -0.031248,0.027573 0.47055866,0.47057611 0 0 1 -0.00735,0.00735 0.47055866,0.47057611 0 0 1 -0.034924,0.023897 0.47055866,0.47057611 0 0 1 -0.040438,0.022059 0.47055866,0.47057611 0 0 1 -0.034924,0.016544 0.47055866,0.47057611 0 0 1 -0.023896,0.0092 0.47055866,0.47057611 0 0 1 -0.022057,0.00735 0.47055866,0.47057611 0 0 1 -0.020219,0.00552 0.47055866,0.47057611 0 0 1 -0.064334,0.011029 0.47055866,0.47057611 0 0 1 -0.00368,0 0.47055866,0.47057611 0 0 1 -0.044115,0.00184 0.47055866,0.47057611 0 0 1 -0.044115,-0.00184 0.47055866,0.47057611 0 0 1 -0.00368,0 0.47055866,0.47057611 0 0 1 -0.031248,-0.00552 0.47055866,0.47057611 0 0 1 -0.014705,-0.00184 0.47055866,0.47057611 0 0 1 -0.064334,-0.018382 0.47055866,0.47057611 0 0 1 -0.020219,-0.00735 0.47055866,0.47057611 0 0 1 -0.034924,-0.016544 0.47055866,0.47057611 0 0 1 -0.040438,-0.022059 0.47055866,0.47057611 0 0 1 -0.034924,-0.023897 0.47055866,0.47057611 0 0 1 -0.00735,-0.00735 0.47055866,0.47057611 0 0 1 -0.031248,-0.027573 0.47055866,0.47057611 0 0 1 -0.031248,-0.033087 0.47055866,0.47057611 0 0 1 -0.00368,-0.00368 0.47055866,0.47057611 0 0 1 -0.020219,-0.027573 0.47055866,0.47057611 0 0 1 -0.0092,-0.012867 0.47055866,0.47057611 0 0 1 -0.00552,-0.011029 0.47055866,0.47057611 0 0 1 -0.022057,-0.036763 0.47055866,0.47057611 0 0 1 -0.014705,-0.029411 0.47055866,0.47057611 0 0 1 -0.00184,-0.00552 0.47055866,0.47057611 0 0 1 -0.0092,-0.023897 0.47055866,0.47057611 0 0 1 -0.00735,-0.022059 0.47055866,0.47057611 0 0 1 -0.00552,-0.02022 0.47055866,0.47057611 0 0 1 -0.00552,-0.031249 0.47055866,0.47057611 0 0 1 -0.00552,-0.047793 0.47055866,0.47057611 0 0 1 -0.00184,-0.033087 0.47055866,0.47057611 0 0 1 0.00184,-0.033087 0.47055866,0.47057611 0 0 1 0.00552,-0.045955 0.47055866,0.47057611 0 0 1 0.00184,-0.014705 0.47055866,0.47057611 0 0 1 0.00552,-0.022058 0.47055866,0.47057611 0 0 1 0.00368,-0.016544 0.47055866,0.47057611 0 0 1 0.00552,-0.012867 0.47055866,0.47057611 0 0 1 0.012867,-0.036764 0.47055866,0.47057611 0 0 1 0.014705,-0.031249 0.47055866,0.47057611 0 0 1 0.023896,-0.04044 0.47055866,0.47057611 0 0 1 0.00735,-0.011029 0.47055866,0.47057611 0 0 1 0.018381,-0.027573 0.47055866,0.47057611 0 0 1 0.00735,-0.00735 0.47055866,0.47057611 0 0 1 0.00735,-0.0092 0.47055866,0.47057611 0 0 1 0.027572,-0.027573 0.47055866,0.47057611 0 0 1 0.034924,-0.031249 0.47055866,0.47057611 0 0 1 0.0386,-0.027573 0.47055866,0.47057611 0 0 1 0.027572,-0.016544 0.47055866,0.47057611 0 0 1 0.00368,-0.00184 0.47055866,0.47057611 0 0 1 0.016543,-0.0092 0.47055866,0.47057611 0 0 1 0.034924,-0.014705 0.47055866,0.47057611 0 0 1 0.031248,-0.011029 0.47055866,0.47057611 0 0 1 0.014705,-0.00368 0.47055866,0.47057611 0 0 1 0.045953,-0.011029 0.47055866,0.47057611 0 0 1 0.031248,-0.00368 0.47055866,0.47057611 0 0 1 0.014705,-0.00184 0.47055866,0.47057611 0 0 1 0.033086,-0.00184 z m 6.5878204,0 a 0.47055866,0.47057611 0 0 1 0.03309,0.00184 0.47055866,0.47057611 0 0 1 0.01471,0.00184 0.47055866,0.47057611 0 0 1 0.03309,0.00368 0.47055866,0.47057611 0 0 1 0.0019,0 0.47055866,0.47057611 0 0 1 0.04228,0.011029 0.47055866,0.47057611 0 0 1 0.0019,0 0.47055866,0.47057611 0 0 1 0.01287,0.00368 0.47055866,0.47057611 0 0 1 0.03125,0.011029 0.47055866,0.47057611 0 0 1 0.03493,0.014705 0.47055866,0.47057611 0 0 1 0.0073,0.00368 0.47055866,0.47057611 0 0 1 0.01287,0.00735 0.47055866,0.47057611 0 0 1 0.02758,0.016544 0.47055866,0.47057611 0 0 1 0.0386,0.027573 0.47055866,0.47057611 0 0 1 0.03493,0.031249 0.47055866,0.47057611 0 0 1 0.01103,0.0092 0.47055866,0.47057611 0 0 1 0.02206,0.023897 0.47055866,0.47057611 0 0 1 0.0092,0.011029 0.47055866,0.47057611 0 0 1 0.01838,0.027573 0.47055866,0.47057611 0 0 1 0.0073,0.011029 0.47055866,0.47057611 0 0 1 0.0239,0.04044 0.47055866,0.47057611 0 0 1 0.0092,0.018382 0.47055866,0.47057611 0 0 1 0.0056,0.012867 0.47055866,0.47057611 0 0 1 0.01287,0.036764 0.47055866,0.47057611 0 0 1 0.0037,0.00735 0.47055866,0.47057611 0 0 1 0.0037,0.012868 0.47055866,0.47057611 0 0 1 0.0073,0.031249 0.47055866,0.47057611 0 0 1 0.0019,0.014705 0.47055866,0.47057611 0 0 1 0.0056,0.045955 0.47055866,0.47057611 0 0 1 0.0019,0.033087 0.47055866,0.47057611 0 0 1 -0.0019,0.033087 0.47055866,0.47057611 0 0 1 -0.0056,0.047793 0.47055866,0.47057611 0 0 1 -0.0019,0.012867 0.47055866,0.47057611 0 0 1 -0.0073,0.033087 0.47055866,0.47057611 0 0 1 -0.0037,0.012867 0.47055866,0.47057611 0 0 1 -0.01103,0.031249 0.47055866,0.47057611 0 0 1 -0.0056,0.012867 0.47055866,0.47057611 0 0 1 -0.01471,0.029411 0.47055866,0.47057611 0 0 1 -0.02206,0.036763 0.47055866,0.47057611 0 0 1 -0.0019,0.00552 0.47055866,0.47057611 0 0 1 -0.0073,0.011029 0.47055866,0.47057611 0 0 1 -0.01838,0.025735 0.47055866,0.47057611 0 0 1 -0.0092,0.011029 0.47055866,0.47057611 0 0 1 -0.0019,0.00184 0.47055866,0.47057611 0 0 1 -0.03125,0.033087 0.47055866,0.47057611 0 0 1 -0.0239,0.022059 0.47055866,0.47057611 0 0 1 -0.01103,0.0092 0.47055866,0.47057611 0 0 1 -0.0037,0.00368 0.47055866,0.47057611 0 0 1 -0.03493,0.023897 0.47055866,0.47057611 0 0 1 -0.04044,0.022059 0.47055866,0.47057611 0 0 1 -0.02941,0.014706 0.47055866,0.47057611 0 0 1 -0.02941,0.011029 0.47055866,0.47057611 0 0 1 -0.02206,0.00735 0.47055866,0.47057611 0 0 1 -0.02022,0.00552 0.47055866,0.47057611 0 0 1 -0.01838,0.00368 0.47055866,0.47057611 0 0 1 -0.01286,0.00184 0.47055866,0.47057611 0 0 1 -0.03309,0.00552 0.47055866,0.47057611 0 0 1 -0.0037,0 0.47055866,0.47057611 0 0 1 -0.04411,0.00184 0.47055866,0.47057611 0 0 1 -0.04411,-0.00184 0.47055866,0.47057611 0 0 1 -0.03493,-0.00552 0.47055866,0.47057611 0 0 1 -0.01471,-0.00184 0.47055866,0.47057611 0 0 1 -0.02758,-0.00735 0.47055866,0.47057611 0 0 1 -0.01838,-0.00368 0.47055866,0.47057611 0 0 1 -0.03125,-0.011029 0.47055866,0.47057611 0 0 1 -0.0073,-0.00368 0.47055866,0.47057611 0 0 1 -0.03493,-0.016544 0.47055866,0.47057611 0 0 1 -0.04044,-0.022059 0.47055866,0.47057611 0 0 1 -0.03493,-0.023897 0.47055866,0.47057611 0 0 1 -0.0073,-0.00735 0.47055866,0.47057611 0 0 1 -0.03125,-0.027573 0.47055866,0.47057611 0 0 1 -0.03125,-0.033087 0.47055866,0.47057611 0 0 1 -0.0037,-0.00368 0.47055866,0.47057611 0 0 1 -0.02022,-0.027573 0.47055866,0.47057611 0 0 1 -0.0092,-0.012868 0.47055866,0.47057611 0 0 1 -0.0056,-0.011029 0.47055866,0.47057611 0 0 1 -0.02206,-0.036763 0.47055866,0.47057611 0 0 1 -0.01471,-0.029411 0.47055866,0.47057611 0 0 1 -0.0019,-0.00552 0.47055866,0.47057611 0 0 1 -0.0092,-0.023897 0.47055866,0.47057611 0 0 1 -0.0073,-0.022059 0.47055866,0.47057611 0 0 1 -0.0056,-0.02022 0.47055866,0.47057611 0 0 1 -0.0056,-0.031249 0.47055866,0.47057611 0 0 1 -0.0056,-0.047793 0.47055866,0.47057611 0 0 1 -0.0019,-0.033087 0.47055866,0.47057611 0 0 1 0.0019,-0.033087 0.47055866,0.47057611 0 0 1 0.0056,-0.045955 0.47055866,0.47057611 0 0 1 0.0019,-0.014705 0.47055866,0.47057611 0 0 1 0.0056,-0.022058 0.47055866,0.47057611 0 0 1 0.0037,-0.016544 0.47055866,0.47057611 0 0 1 0.0056,-0.012867 0.47055866,0.47057611 0 0 1 0.01286,-0.036764 0.47055866,0.47057611 0 0 1 0.01471,-0.031249 0.47055866,0.47057611 0 0 1 0.0239,-0.04044 0.47055866,0.47057611 0 0 1 0.0073,-0.011029 0.47055866,0.47057611 0 0 1 0.01838,-0.027573 0.47055866,0.47057611 0 0 1 0.0073,-0.00735 0.47055866,0.47057611 0 0 1 0.0073,-0.0092 0.47055866,0.47057611 0 0 1 0.02758,-0.027573 0.47055866,0.47057611 0 0 1 0.03493,-0.031249 0.47055866,0.47057611 0 0 1 0.03861,-0.027573 0.47055866,0.47057611 0 0 1 0.02758,-0.016544 0.47055866,0.47057611 0 0 1 0.0037,-0.00184 0.47055866,0.47057611 0 0 1 0.01655,-0.0092 0.47055866,0.47057611 0 0 1 0.03493,-0.014705 0.47055866,0.47057611 0 0 1 0.03125,-0.011029 0.47055866,0.47057611 0 0 1 0.01471,-0.00368 0.47055866,0.47057611 0 0 1 0.04596,-0.011029 0.47055866,0.47057611 0 0 1 0.03125,-0.00368 0.47055866,0.47057611 0 0 1 0.01471,-0.00184 0.47055866,0.47057611 0 0 1 0.03309,-0.00184 z m -2.44286,1.8841427 a 2.8233519,2.8234566 0 0 1 0.231603,0.00368 2.8233519,2.8234566 0 0 1 0.152564,0.012867 2.8233519,2.8234566 0 0 1 0.141535,0.018382 2.8233519,2.8234566 0 0 1 0.132345,0.023897 2.8233519,2.8234566 0 0 1 0.13602,0.031249 2.8233519,2.8234566 0 0 1 0.161755,0.047793 2.8233519,2.8234566 0 0 1 0.101097,0.033087 2.8233519,2.8234566 0 0 1 0.165431,0.068013 2.8233519,2.8234566 0 0 1 0.09375,0.042279 2.8233519,2.8234566 0 0 1 0.159917,0.084557 2.8233519,2.8234566 0 0 1 0.08823,0.049631 2.8233519,2.8234566 0 0 1 0.141535,0.093747 2.8233519,2.8234566 0 0 1 0.09191,0.066174 2.8233519,2.8234566 0 0 1 0.130506,0.106615 2.8233519,2.8234566 0 0 1 0.09007,0.08088 2.8233519,2.8234566 0 0 1 0.106612,0.1066149 2.8233519,2.8234566 0 0 1 0.09007,0.095586 2.8233519,2.8234566 0 0 1 0.09558,0.117644 2.8233519,2.8234566 0 0 1 0.0772,0.099262 2.8233519,2.8234566 0 0 1 0.08823,0.1341877 2.8233519,2.8234566 0 0 1 0.06801,0.1102913 2.8233519,2.8234566 0 0 1 0.06066,0.1176436 2.8233519,2.8234566 0 0 1 0.06617,0.1360266 2.8233519,2.8234566 0 0 1 0.05331,0.1341876 2.8233519,2.8234566 0 0 1 0.04596,0.1231583 2.8233519,2.8234566 0 0 1 0.04228,0.1452169 2.8233519,2.8234566 0 0 1 0.03309,0.1268353 2.8233519,2.8234566 0 0 1 0.04411,0.2408023 2.8233519,2.8234566 0 0 1 0.02022,0.2408023 2.8233519,2.8234566 0 0 1 0.0019,0.1617605 2.8233519,2.8234566 0 0 1 -0.0019,0.1121298 2.8233519,2.8234566 0 0 1 -0.01287,0.145217 2.8233519,2.8234566 0 0 1 -0.01838,0.1507312 2.8233519,2.8234566 0 0 1 -0.0239,0.1231582 2.8233519,2.8234566 0 0 1 -0.03125,0.1433789 2.8233519,2.8234566 0 0 1 -0.04411,0.1470557 2.8233519,2.8234566 0 0 1 -0.04044,0.123159 2.8233519,2.8234566 0 0 1 -0.04779,0.117644 2.8233519,2.8234566 0 0 1 -0.07353,0.16176 2.8233519,2.8234566 0 0 1 -0.03125,0.0625 2.8233519,2.8234566 0 0 1 -0.101096,0.174628 2.8233519,2.8234566 0 0 1 -0.06434,0.09742 2.8233519,2.8234566 0 0 1 -0.09375,0.130511 2.8233519,2.8234566 0 0 1 -0.07169,0.08823 2.8233519,2.8234566 0 0 1 -0.11764,0.134188 2.8233519,2.8234566 0 0 1 -0.06066,0.06066 2.8233519,2.8234566 0 0 1 -0.139697,0.130511 2.8233519,2.8234566 0 0 1 -0.09558,0.0772 2.8233519,2.8234566 0 0 1 -0.113962,0.08823 2.8233519,2.8234566 0 0 1 -0.115802,0.07537 2.8233519,2.8234566 0 0 1 -0.137859,0.08455 2.8233519,2.8234566 0 0 1 -0.09558,0.05147 2.8233519,2.8234566 0 0 1 -0.141536,0.06985 2.8233519,2.8234566 0 0 1 -0.145211,0.05699 2.8233519,2.8234566 0 0 1 -0.112125,0.04228 2.8233519,2.8234566 0 0 1 -0.178298,0.04964 2.8233519,2.8234566 0 0 1 -0.08823,0.0239 2.8233519,2.8234566 0 0 1 -0.251822,0.04596 2.8233519,2.8234566 0 0 1 -0.240795,0.02022 2.8233519,2.8234566 0 0 1 -0.161754,0.0019 2.8233519,2.8234566 0 0 1 -0.110287,-0.0019 2.8233519,2.8234566 0 0 1 -0.152564,-0.01287 2.8233519,2.8234566 0 0 1 -0.141535,-0.01838 2.8233519,2.8234566 0 0 1 -0.132344,-0.0239 2.8233519,2.8234566 0 0 1 -0.136017,-0.03125 2.8233519,2.8234566 0 0 1 -0.161755,-0.04779 2.8233519,2.8234566 0 0 1 -0.101096,-0.03309 2.8233519,2.8234566 0 0 1 -0.1452115,-0.05882 2.8233519,2.8234566 0 0 1 -0.1341828,-0.06066 2.8233519,2.8234566 0 0 1 -0.079039,-0.04228 A 2.8233519,2.8234566 0 0 1 9.4983093,11.036573 2.8233519,2.8234566 0 0 1 9.4229466,10.985102 2.8233519,2.8234566 0 0 1 9.290602,10.895033 2.8233519,2.8234566 0 0 1 9.1600955,10.786581 2.8233519,2.8234566 0 0 1 9.0718662,10.707533 2.8233519,2.8234566 0 0 1 8.9652553,10.600919 2.8233519,2.8234566 0 0 1 8.8751871,10.505333 2.8233519,2.8234566 0 0 1 8.790633,10.400557 2.8233519,2.8234566 0 0 1 8.6950507,10.275559 2.8233519,2.8234566 0 0 1 8.621526,10.16343 2.8233519,2.8234566 0 0 1 8.5516775,10.049463 2.8233519,2.8234566 0 0 1 8.4726386,9.90057 2.8233519,2.8234566 0 0 1 8.4211717,9.795792 2.8233519,2.8234566 0 0 1 8.375219,9.679986 2.8233519,2.8234566 0 0 1 8.3145608,9.51455 2.8233519,2.8234566 0 0 1 8.2814745,9.4005826 2.8233519,2.8234566 0 0 1 8.2465503,9.2663941 2.8233519,2.8234566 0 0 1 8.2005976,9.0182395 2.8233519,2.8234566 0 0 1 8.1803788,8.7774363 a 2.8233519,2.8234566 0 0 1 -0.00184,-0.1599225 2.8233519,2.8234566 0 0 1 0.00184,-0.1121288 2.8233519,2.8234566 0 0 1 0.012867,-0.1470551 2.8233519,2.8234566 0 0 1 0.018381,-0.148894 2.8233519,2.8234566 0 0 1 0.023896,-0.1305105 2.8233519,2.8234566 0 0 1 0.031248,-0.1360266 2.8233519,2.8234566 0 0 1 0.047791,-0.1617606 2.8233519,2.8234566 0 0 1 0.033086,-0.1011004 2.8233519,2.8234566 0 0 1 0.05882,-0.1452161 2.8233519,2.8234566 0 0 1 0.05882,-0.1305114 2.8233519,2.8234566 0 0 1 0.05882,-0.1084537 2.8233519,2.8234566 0 0 1 0.077201,-0.1341874 2.8233519,2.8234566 0 0 1 0.071687,-0.108453 2.8233519,2.8234566 0 0 1 0.090068,-0.1268351 2.8233519,2.8234566 0 0 1 0.064333,-0.079042 2.8233519,2.8234566 0 0 1 0.1268303,-0.1452169 2.8233519,2.8234566 0 0 1 0.05882,-0.058822 A 2.8233519,2.8234566 0 0 1 9.1527444,6.5127889 2.8233519,2.8234566 0 0 1 9.2354604,6.4466149 2.8233519,2.8234566 0 0 1 9.3751575,6.34 2.8233519,2.8234566 0 0 1 9.4744155,6.273826 2.8233519,2.8234566 0 0 1 9.5994077,6.196622 2.8233519,2.8234566 0 0 1 9.7464572,6.119418 2.8233519,2.8234566 0 0 1 9.8475538,6.069787 2.8233519,2.8234566 0 0 1 10.005632,6.007289 2.8233519,2.8234566 0 0 1 10.115919,5.968687 2.8233519,2.8234566 0 0 1 10.266645,5.922732 2.8233519,2.8234566 0 0 1 10.382447,5.893321 2.8233519,2.8234566 0 0 1 10.628755,5.847366 2.8233519,2.8234566 0 0 1 10.909987,5.825308 Z m 1.501744,6.5862261 a 0.47055866,0.47057611 0 0 1 0.08088,0.0073 0.47055866,0.47057611 0 0 1 0.0019,0 0.47055866,0.47057611 0 0 1 0.04228,0.01103 0.47055866,0.47057611 0 0 1 0.0019,0 0.47055866,0.47057611 0 0 1 0.0019,0 0.47055866,0.47057611 0 0 1 0.04228,0.0147 0.47055866,0.47057611 0 0 1 0.03493,0.01471 0.47055866,0.47057611 0 0 1 0.01654,0.0092 0.47055866,0.47057611 0 0 1 0.03125,0.01838 0.47055866,0.47057611 0 0 1 0.0386,0.02758 0.47055866,0.47057611 0 0 1 0.03493,0.03125 0.47055866,0.47057611 0 0 1 0.02758,0.02758 0.47055866,0.47057611 0 0 1 0.0073,0.0092 0.47055866,0.47057611 0 0 1 0.03309,0.04596 0.47055866,0.47057611 0 0 1 0.0239,0.04044 0.47055866,0.47057611 0 0 1 0.0092,0.01838 0.47055866,0.47057611 0 0 1 0.0056,0.01287 0.47055866,0.47057611 0 0 1 0.01286,0.03676 0.47055866,0.47057611 0 0 1 0.0056,0.01287 0.47055866,0.47057611 0 0 1 0.0037,0.01655 0.47055866,0.47057611 0 0 1 0.0073,0.03676 0.47055866,0.47057611 0 0 1 0.0056,0.04596 0.47055866,0.47057611 0 0 1 0.0019,0.03309 0.47055866,0.47057611 0 0 1 -0.0019,0.03309 0.47055866,0.47057611 0 0 1 -0.0056,0.04779 0.47055866,0.47057611 0 0 1 -0.0056,0.03125 0.47055866,0.47057611 0 0 1 -0.0056,0.02022 0.47055866,0.47057611 0 0 1 -0.0073,0.02206 0.47055866,0.47057611 0 0 1 -0.0092,0.0239 0.47055866,0.47057611 0 0 1 -0.01655,0.03493 0.47055866,0.47057611 0 0 1 -0.02206,0.03676 0.47055866,0.47057611 0 0 1 -0.0056,0.01103 0.47055866,0.47057611 0 0 1 -0.0092,0.01287 0.47055866,0.47057611 0 0 1 -0.02022,0.02758 0.47055866,0.47057611 0 0 1 -0.0037,0.0037 0.47055866,0.47057611 0 0 1 -0.03125,0.03309 0.47055866,0.47057611 0 0 1 -0.03125,0.02758 0.47055866,0.47057611 0 0 1 -0.0073,0.0073 0.47055866,0.47057611 0 0 1 -0.03493,0.0239 0.47055866,0.47057611 0 0 1 -0.04044,0.02206 0.47055866,0.47057611 0 0 1 -0.03493,0.01655 0.47055866,0.47057611 0 0 1 -0.0239,0.0092 0.47055866,0.47057611 0 0 1 -0.02206,0.0073 0.47055866,0.47057611 0 0 1 -0.02021,0.0056 0.47055866,0.47057611 0 0 1 -0.06434,0.01103 0.47055866,0.47057611 0 0 1 -0.0037,0 0.47055866,0.47057611 0 0 1 -0.04411,0.0019 0.47055866,0.47057611 0 0 1 -0.04411,-0.0019 0.47055866,0.47057611 0 0 1 -0.0037,0 0.47055866,0.47057611 0 0 1 -0.03125,-0.0056 0.47055866,0.47057611 0 0 1 -0.01471,-0.0019 0.47055866,0.47057611 0 0 1 -0.06434,-0.01838 0.47055866,0.47057611 0 0 1 -0.02022,-0.0073 0.47055866,0.47057611 0 0 1 -0.03493,-0.01655 0.47055866,0.47057611 0 0 1 -0.04044,-0.02206 0.47055866,0.47057611 0 0 1 -0.03493,-0.0239 0.47055866,0.47057611 0 0 1 -0.0073,-0.0073 0.47055866,0.47057611 0 0 1 -0.03125,-0.02758 0.47055866,0.47057611 0 0 1 -0.03125,-0.03309 0.47055866,0.47057611 0 0 1 -0.0037,-0.0037 0.47055866,0.47057611 0 0 1 -0.02022,-0.02758 0.47055866,0.47057611 0 0 1 -0.0092,-0.01286 0.47055866,0.47057611 0 0 1 -0.0056,-0.01103 0.47055866,0.47057611 0 0 1 -0.02206,-0.03676 0.47055866,0.47057611 0 0 1 -0.01471,-0.02941 0.47055866,0.47057611 0 0 1 -0.0019,-0.0056 0.47055866,0.47057611 0 0 1 -0.0092,-0.0239 0.47055866,0.47057611 0 0 1 -0.0073,-0.02206 0.47055866,0.47057611 0 0 1 -0.0056,-0.02022 0.47055866,0.47057611 0 0 1 -0.0056,-0.03125 0.47055866,0.47057611 0 0 1 -0.0056,-0.04779 0.47055866,0.47057611 0 0 1 -0.0019,-0.03309 0.47055866,0.47057611 0 0 1 0.0019,-0.03309 0.47055866,0.47057611 0 0 1 0.0056,-0.04596 0.47055866,0.47057611 0 0 1 0.0019,-0.01471 0.47055866,0.47057611 0 0 1 0.0056,-0.02206 0.47055866,0.47057611 0 0 1 0.0037,-0.01655 0.47055866,0.47057611 0 0 1 0.0056,-0.01286 0.47055866,0.47057611 0 0 1 0.01287,-0.03676 0.47055866,0.47057611 0 0 1 0.01471,-0.03125 0.47055866,0.47057611 0 0 1 0.0239,-0.04044 0.47055866,0.47057611 0 0 1 0.0073,-0.01103 0.47055866,0.47057611 0 0 1 0.01838,-0.02757 0.47055866,0.47057611 0 0 1 0.0073,-0.0073 0.47055866,0.47057611 0 0 1 0.0073,-0.0092 0.47055866,0.47057611 0 0 1 0.02758,-0.02758 0.47055866,0.47057611 0 0 1 0.03493,-0.03125 0.47055866,0.47057611 0 0 1 0.03861,-0.02757 0.47055866,0.47057611 0 0 1 0.02758,-0.01655 0.47055866,0.47057611 0 0 1 0.0037,-0.0019 0.47055866,0.47057611 0 0 1 0.01655,-0.0092 0.47055866,0.47057611 0 0 1 0.03493,-0.01471 0.47055866,0.47057611 0 0 1 0.03125,-0.01103 0.47055866,0.47057611 0 0 1 0.01471,-0.0037 0.47055866,0.47057611 0 0 1 0.04596,-0.01103 0.47055866,0.47057611 0 0 1 0.03125,-0.0037 0.47055866,0.47057611 0 0 1 0.01471,-0.0019 0.47055866,0.47057611 0 0 1 0.03309,-0.0019 z m -2.8233525,1.882305 a 0.47055866,0.47057611 0 0 1 0.080877,0.0073 0.47055866,0.47057611 0 0 1 0.00184,0 0.47055866,0.47057611 0 0 1 0.042277,0.01103 0.47055866,0.47057611 0 0 1 0.00184,0 0.47055866,0.47057611 0 0 1 0.00184,0 0.47055866,0.47057611 0 0 1 0.042276,0.0147 0.47055866,0.47057611 0 0 1 0.034924,0.01471 0.47055866,0.47057611 0 0 1 0.016543,0.0092 0.47055866,0.47057611 0 0 1 0.031248,0.01838 0.47055866,0.47057611 0 0 1 0.038601,0.02758 0.47055866,0.47057611 0 0 1 0.034924,0.03125 0.47055866,0.47057611 0 0 1 0.027572,0.02758 0.47055866,0.47057611 0 0 1 0.00735,0.0092 0.47055866,0.47057611 0 0 1 0.033086,0.04596 0.47055866,0.47057611 0 0 1 0.023896,0.04044 0.47055866,0.47057611 0 0 1 0.0092,0.01838 0.47055866,0.47057611 0 0 1 0.0055,0.01286 0.47055866,0.47057611 0 0 1 0.01287,0.03676 0.47055866,0.47057611 0 0 1 0.0055,0.01286 0.47055866,0.47057611 0 0 1 0.0037,0.01655 0.47055866,0.47057611 0 0 1 0.0073,0.03676 0.47055866,0.47057611 0 0 1 0.0055,0.04596 0.47055866,0.47057611 0 0 1 0.0018,0.03309 0.47055866,0.47057611 0 0 1 -0.0018,0.03309 0.47055866,0.47057611 0 0 1 -0.0055,0.04779 0.47055866,0.47057611 0 0 1 -0.0055,0.03125 0.47055866,0.47057611 0 0 1 -0.0055,0.02022 0.47055866,0.47057611 0 0 1 -0.0074,0.02206 0.47055866,0.47057611 0 0 1 -0.0092,0.0239 0.47055866,0.47057611 0 0 1 -0.01654,0.03493 0.47055866,0.47057611 0 0 1 -0.022058,0.03676 0.47055866,0.47057611 0 0 1 -0.00552,0.01103 0.47055866,0.47057611 0 0 1 -0.0092,0.01287 0.47055866,0.47057611 0 0 1 -0.020219,0.02758 0.47055866,0.47057611 0 0 1 -0.00368,0.0037 0.47055866,0.47057611 0 0 1 -0.031248,0.03309 0.47055866,0.47057611 0 0 1 -0.031248,0.02758 0.47055866,0.47057611 0 0 1 -0.00735,0.0073 0.47055866,0.47057611 0 0 1 -0.034924,0.0239 0.47055866,0.47057611 0 0 1 -0.040439,0.02206 0.47055866,0.47057611 0 0 1 -0.034924,0.01655 0.47055866,0.47057611 0 0 1 -0.023896,0.0092 0.47055866,0.47057611 0 0 1 -0.022057,0.0073 0.47055866,0.47057611 0 0 1 -0.020219,0.0056 0.47055866,0.47057611 0 0 1 -0.064334,0.01103 0.47055866,0.47057611 0 0 1 -0.00368,0 0.47055866,0.47057611 0 0 1 -0.044115,0.0019 0.47055866,0.47057611 0 0 1 -0.044115,-0.0019 0.47055866,0.47057611 0 0 1 -0.00368,0 0.47055866,0.47057611 0 0 1 -0.031248,-0.0056 0.47055866,0.47057611 0 0 1 -0.014705,-0.0019 0.47055866,0.47057611 0 0 1 -0.064333,-0.01838 0.47055866,0.47057611 0 0 1 -0.020219,-0.0073 0.47055866,0.47057611 0 0 1 -0.034924,-0.01654 0.47055866,0.47057611 0 0 1 -0.040438,-0.02206 0.47055866,0.47057611 0 0 1 -0.034924,-0.02389 0.47055866,0.47057611 0 0 1 -0.00735,-0.0073 0.47055866,0.47057611 0 0 1 -0.031248,-0.02758 0.47055866,0.47057611 0 0 1 -0.031248,-0.03309 0.47055866,0.47057611 0 0 1 -0.00368,-0.0037 0.47055866,0.47057611 0 0 1 -0.020219,-0.02758 0.47055866,0.47057611 0 0 1 -0.0092,-0.01287 0.47055866,0.47057611 0 0 1 -0.00552,-0.01103 0.47055866,0.47057611 0 0 1 -0.022057,-0.03676 0.47055866,0.47057611 0 0 1 -0.014705,-0.02941 0.47055866,0.47057611 0 0 1 -0.00184,-0.0056 0.47055866,0.47057611 0 0 1 -0.0092,-0.0239 0.47055866,0.47057611 0 0 1 -0.00735,-0.02206 0.47055866,0.47057611 0 0 1 -0.00552,-0.02022 0.47055866,0.47057611 0 0 1 -0.00552,-0.03125 0.47055866,0.47057611 0 0 1 -0.00552,-0.04779 0.47055866,0.47057611 0 0 1 -0.00184,-0.03309 0.47055866,0.47057611 0 0 1 0.00184,-0.03309 0.47055866,0.47057611 0 0 1 0.00552,-0.04596 0.47055866,0.47057611 0 0 1 0.00184,-0.01471 0.47055866,0.47057611 0 0 1 0.00552,-0.02206 0.47055866,0.47057611 0 0 1 0.00368,-0.01654 0.47055866,0.47057611 0 0 1 0.00552,-0.01287 0.47055866,0.47057611 0 0 1 0.012867,-0.03676 0.47055866,0.47057611 0 0 1 0.014705,-0.03125 0.47055866,0.47057611 0 0 1 0.023896,-0.04044 0.47055866,0.47057611 0 0 1 0.00735,-0.01103 0.47055866,0.47057611 0 0 1 0.018381,-0.02758 0.47055866,0.47057611 0 0 1 0.00735,-0.0073 0.47055866,0.47057611 0 0 1 0.00735,-0.0092 0.47055866,0.47057611 0 0 1 0.027572,-0.02758 0.47055866,0.47057611 0 0 1 0.034924,-0.03125 0.47055866,0.47057611 0 0 1 0.0386,-0.02758 0.47055866,0.47057611 0 0 1 0.027572,-0.01655 0.47055866,0.47057611 0 0 1 0.00368,-0.0019 0.47055866,0.47057611 0 0 1 0.016543,-0.0092 0.47055866,0.47057611 0 0 1 0.034924,-0.01471 0.47055866,0.47057611 0 0 1 0.031248,-0.01103 0.47055866,0.47057611 0 0 1 0.014705,-0.0037 0.47055866,0.47057611 0 0 1 0.045953,-0.01103 0.47055866,0.47057611 0 0 1 0.031248,-0.0037 0.47055866,0.47057611 0 0 1 0.014705,-0.0019 0.47055866,0.47057611 0 0 1 0.033086,-0.0019 z"
       style="opacity:0.7;fill:#d0d0d0;fill-opacity:1;stroke:none;stroke-width:0.94113475" />
  </g>
</svg>
