<?xml version="1.0" encoding="UTF-8" standalone="no"?>
<!-- Created with Inkscape (http://www.inkscape.org/) -->

<svg
   xmlns:dc="http://purl.org/dc/elements/1.1/"
   xmlns:cc="http://creativecommons.org/ns#"
   xmlns:rdf="http://www.w3.org/1999/02/22-rdf-syntax-ns#"
   xmlns:svg="http://www.w3.org/2000/svg"
   xmlns="http://www.w3.org/2000/svg"
   xmlns:sodipodi="http://sodipodi.sourceforge.net/DTD/sodipodi-0.dtd"
   xmlns:inkscape="http://www.inkscape.org/namespaces/inkscape"
   width="22.000002"
   height="22"
   viewBox="0 0 22.000002 22"
   version="1.1"
   id="main"
   inkscape:version="0.92+devel (9d04be7596, 2017-09-23, custom)"
   sodipodi:docname="kt-add-feeds.svg">
  <defs
     id="ol-defs" />
  <sodipodi:namedview
     id="base"
     pagecolor="#002466"
     bordercolor="#ffffff"
     borderopacity="0.30"
     inkscape:pageopacity="1"
     inkscape:pageshadow="0"
     inkscape:zoom="37.1673"
     inkscape:document-units="px"
     inkscape:current-layer="main"
     inkscape:document-rotation="0"
     showgrid="false"
     inkscape:showpageshadow="false"
     borderlayer="true"
     inkscape:window-width="1920"
     inkscape:window-height="1017"
     inkscape:window-x="0"
     inkscape:window-y="34"
     inkscape:window-maximized="1"
     units="px"
     inkscape:cx="6.5947884"
     inkscape:cy="8.0269054" />
  <metadata
     id="metadata5">
    <rdf:RDF>
      <cc:Work
         rdf:about="">
        <dc:format>image/svg+xml</dc:format>
        <dc:type
           rdf:resource="http://purl.org/dc/dcmitype/StillImage" />
        <dc:title></dc:title>
      </cc:Work>
    </rdf:RDF>
  </metadata>
  <g
     id="g846"
     inkscape:label="#kt-add-feeds"
     style="stroke:none">
    <path
       style="fill:none;stroke:none;stroke-width:1"
       d="M 0,0 H 22.000001 V 22 H 0 Z"
       id="boundary"
       inkscape:label="#boundary"
       inkscape:connector-curvature="0" />
    <path
       style="fill:#00ff00;stroke:none;stroke-width:3.06589437"
       d="M 3.0000005,16.082032 A 2.9171646,2.9171646 0 0 0 5.916017,19 2.9171646,2.9171646 0 0 0 8.8339857,16.08203 2.9171646,2.9171646 0 0 0 5.9160179,13.166014 2.9171646,2.9171646 0 0 0 3.0000021,16.08203 Z m 1.076173,0.460938 -5e-7,-0.919922 1.3808582,-1e-6 -2e-7,-1.380859 0.9199233,10e-7 0,1.380859 1.3808582,-1e-6 -4e-7,0.919922 -1.380858,1e-6 1e-7,1.380859 -0.9199221,0 -1e-6,-1.38086 z"
       id="path817"
       inkscape:connector-curvature="0"
       inkscape:label="#" />
    <path
       inkscape:label="#"
       id="path822"
       d="m 6.0208345,3.0000002 v 2.4765625 c 5.8146495,2e-7 10.5026055,4.6879553 10.5026035,10.5026043 h 2.476563 c 0,-7.1543364 -5.824823,-12.9791696 -12.9791665,-12.9791668 z m 0,5.1979165 v 2.4765623 c 2.94225,5e-6 5.2995475,2.362372 5.2994795,5.304688 h 2.476562 c -10e-7,-4.281941 -3.49417,-7.7811785 -7.7760415,-7.7812503 z"
       style="opacity:0.6;fill:#d0d0d0;stroke:none;stroke-width:3.06589437"
       inkscape:connector-curvature="0" />
  </g>
</svg>
