<?xml version="1.0" encoding="UTF-8" standalone="no"?>
<!-- Created with Inkscape (http://www.inkscape.org/) -->

<svg
   xmlns:dc="http://purl.org/dc/elements/1.1/"
   xmlns:cc="http://creativecommons.org/ns#"
   xmlns:rdf="http://www.w3.org/1999/02/22-rdf-syntax-ns#"
   xmlns:svg="http://www.w3.org/2000/svg"
   xmlns="http://www.w3.org/2000/svg"
   xmlns:sodipodi="http://sodipodi.sourceforge.net/DTD/sodipodi-0.dtd"
   xmlns:inkscape="http://www.inkscape.org/namespaces/inkscape"
   width="22"
   height="22"
   viewBox="0 0 5.8208331 5.8208331"
   version="1.1"
   id="svg8"
   inkscape:version="0.92+devel (7f3bd2b258, 2017-08-07, custom)"
   sodipodi:docname="cloud-upload.svg">
  <defs
     id="defs2" />
  <sodipodi:namedview
     id="base"
     pagecolor="#002466"
     bordercolor="#ffffff"
     borderopacity="0.38039216"
     inkscape:pageopacity="1"
     inkscape:pageshadow="2"
     inkscape:zoom="12.625"
     inkscape:cx="-14.063673"
     inkscape:cy="8.0000002"
     inkscape:document-units="px"
     inkscape:current-layer="svg8"
     inkscape:document-rotation="0"
     showgrid="false"
     inkscape:showpageshadow="false"
     borderlayer="true"
     inkscape:window-width="1920"
     inkscape:window-height="1027"
     inkscape:window-x="0"
     inkscape:window-y="24"
     inkscape:window-maximized="1"
     units="px" />
  <metadata
     id="metadata5">
    <rdf:RDF>
      <cc:Work
         rdf:about="">
        <dc:format>image/svg+xml</dc:format>
        <dc:type
           rdf:resource="http://purl.org/dc/dcmitype/StillImage" />
        <dc:title></dc:title>
      </cc:Work>
    </rdf:RDF>
  </metadata>
  <g
     id="g845"
     inkscape:label="#cloud-upload"
     transform="scale(1.375)">
    <path
       inkscape:label="#boundary"
       inkscape:connector-curvature="0"
       id="rect811"
       d="M 0,0 H 4.2333332 V 4.2333332 H 0 Z"
       style="fill:none;stroke-width:0.25454992;stroke-linecap:round" />
    <path
       inkscape:label="#"
       id="path830"
       d="m 1.798469,1.163624 c -0.5262567,0 -0.95304259,0.4267858 -0.95304259,0.9530426 2.5796e-4,0.1100175 0.0198563,0.2190331 0.0573608,0.3224609 -0.0184283,-0.0033 -0.0370898,-0.00464 -0.0558105,-0.00465 -0.17541894,-9e-7 -0.31781006,0.1420027 -0.31781006,0.3174216 0,0.175419 0.14239112,0.31781 0.31781005,0.31781 h 2.2219574 c 0.3508378,0 0.6352325,-0.2843947 0.6352325,-0.6352325 0,-0.3508378 -0.2843947,-0.6356201 -0.6352325,-0.6356201 C 2.9471077,1.7987079 2.8277097,1.8338644 2.7251566,1.8996256 2.6243854,1.4690172 2.2407118,1.1640824 1.798469,1.163624 Z M 2.0569804,1.8666819 2.5519112,2.7236063 H 1.5624368 Z"
       style="opacity:0.6;fill:#d0d0d0;stroke-width:0.17498602;stroke-linecap:round"
       inkscape:connector-curvature="0" />
  </g>
</svg>
