<?xml version="1.0" encoding="UTF-8" standalone="no"?>
<!-- Created with Inkscape (http://www.inkscape.org/) -->

<svg
   xmlns:dc="http://purl.org/dc/elements/1.1/"
   xmlns:cc="http://creativecommons.org/ns#"
   xmlns:rdf="http://www.w3.org/1999/02/22-rdf-syntax-ns#"
   xmlns:svg="http://www.w3.org/2000/svg"
   xmlns="http://www.w3.org/2000/svg"
   xmlns:sodipodi="http://sodipodi.sourceforge.net/DTD/sodipodi-0.dtd"
   xmlns:inkscape="http://www.inkscape.org/namespaces/inkscape"
   width="22.000002"
   height="22"
   viewBox="0 0 22.000002 22"
   version="1.1"
   id="main"
   inkscape:version="0.92+devel (5e751a51be, 2017-10-02, custom)"
   sodipodi:docname="labplot-xy-fourier-transform-curve.svg">
  <defs
     id="ol-defs">
    <style
       id="current-color-scheme"
       type="text/css">
      .ColorScheme-Text {
        color:#f2f2f2;
      }
      .ColorScheme-Highlight {
        color:#3daee9;
      }
      </style>
  </defs>
  <sodipodi:namedview
     id="base"
     pagecolor="#002466"
     bordercolor="#ffffff"
     borderopacity="0.30"
     inkscape:pageopacity="1"
     inkscape:pageshadow="0"
     inkscape:zoom="18.58365"
     inkscape:document-units="px"
     inkscape:current-layer="main"
     inkscape:document-rotation="0"
     showgrid="false"
     inkscape:showpageshadow="false"
     borderlayer="true"
     inkscape:window-width="1920"
     inkscape:window-height="1027"
     inkscape:window-x="0"
     inkscape:window-y="24"
     inkscape:window-maximized="1"
     units="px"
     inkscape:cx="13.846605"
     inkscape:cy="10.515829"
     inkscape:object-paths="true"
     inkscape:snap-intersection-paths="true" />
  <metadata
     id="metadata5">
    <rdf:RDF>
      <cc:Work
         rdf:about="">
        <dc:format>image/svg+xml</dc:format>
        <dc:type
           rdf:resource="http://purl.org/dc/dcmitype/StillImage" />
        <dc:title></dc:title>
      </cc:Work>
    </rdf:RDF>
  </metadata>
  <g
     id="g849"
     style="stroke:none"
     inkscape:label="#labplot-xy-fourier-transform-curve">
    <path
       style="fill:none;stroke:none;stroke-width:1"
       d="M 0,0 H 22.000001 V 22 H 0 Z"
       id="boundary"
       inkscape:label="#boundary"
       inkscape:connector-curvature="0" />
    <path
       inkscape:label="#"
       inkscape:connector-curvature="0"
       id="rect829"
       d="m 3.0000014,2.9999998 v 2.046875 1 V 10.5 v 1 7.5 h 1 v -7.5 h 6.4999996 v 5.451171 h 1 6.5 1 v -1 V 11.5 10.917968 10.5 h -7.5 V 5.0468748 H 4.0000014 v -2.046875 z m 1,3.046875 H 10.500001 V 10.5 H 4.0000014 Z M 11.500001,11.5 h 6.5 v 4.451171 h -6.5 z"
       style="display:inline;opacity:0.6;fill:#d0d0d0;stroke-width:0.69999999;stroke-linecap:round;stroke-dashoffset:0.15256613;stroke:none" />
    <path
       inkscape:label="#"
       sodipodi:nodetypes="sssccsscssscccssccscsccscsssccs"
       id="path816"
       class="ColorScheme-Highlight"
       d="m 7.5394433,3.372214 c -0.7975594,0 -1.4435312,0.5745325 -1.9669308,1.2997406 C 5.0491128,5.3971627 4.6166748,6.3194619 4.2600773,7.2342473 3.5468823,9.0638183 3.0000014,11.489875 3.0000014,11.489875 l 1,0.01013 c 0,0 0.3945416,-2.1570537 1.073028,-3.8975858 C 5.412273,6.7321481 5.8237866,5.8693958 6.2666225,5.2558152 6.7076692,4.6447125 7.1480174,4.330523 7.5342767,4.3279603 c 0.3710809,0.013118 0.6904662,0.176114 1.0196344,0.5169212 0.3314181,0.343137 0.652457,0.8645763 0.9490182,1.5117155 0.5931217,1.2942783 1.0886607,3.0713964 1.5845677,4.856827 0.495907,1.785432 0.991038,3.578779 1.639683,4.964675 0.324322,0.692949 0.686321,1.289832 1.135033,1.729269 0.447316,0.438071 1.004713,0.712053 1.620736,0.695426 0.773046,-0.0039 1.360343,-0.603513 1.791251,-1.33507 0.432309,-0.733935 0.755171,-1.657276 1.007579,-2.573449 C 18.786593,12.86193 19.000001,10.5 19.000001,10.5 h -0.909698 c 0,0 -0.175447,2.185042 -0.654202,3.922799 -0.239377,0.868878 -0.549683,1.730588 -0.905959,2.335443 -0.356276,0.604853 -0.71153,0.894385 -1.054082,0.894385 h -0.0069 -0.0052 C 15.090452,17.663815 14.780766,17.52008 14.454732,17.200785 14.128698,16.88149 13.809684,16.379635 13.514326,15.748571 12.923579,14.486443 12.42718,12.724879 11.931451,10.940089 11.435723,9.1552977 10.940977,7.3474181 10.29349,5.9345067 9.9697472,5.2280511 9.6078864,4.6168619 9.1636249,4.1568929 8.719364,3.6969239 8.1702889,3.3905716 7.5515,3.372214 H 7.5463 Z"
       style="fill:#00ff00;fill-opacity:1;stroke:none;stroke-width:0.91626525"
       inkscape:connector-curvature="0" />
  </g>
</svg>
