<?xml version="1.0" encoding="UTF-8" standalone="no"?>
<!-- Created with Inkscape (http://www.inkscape.org/) -->

<svg
   xmlns:dc="http://purl.org/dc/elements/1.1/"
   xmlns:cc="http://creativecommons.org/ns#"
   xmlns:rdf="http://www.w3.org/1999/02/22-rdf-syntax-ns#"
   xmlns:svg="http://www.w3.org/2000/svg"
   xmlns="http://www.w3.org/2000/svg"
   xmlns:sodipodi="http://sodipodi.sourceforge.net/DTD/sodipodi-0.dtd"
   xmlns:inkscape="http://www.inkscape.org/namespaces/inkscape"
   width="22.000002"
   height="22"
   viewBox="0 0 22.000002 22"
   version="1.1"
   id="main"
   inkscape:version="0.92+devel (5e751a51be, 2017-10-02, custom)"
   sodipodi:docname="labplot-xy-plot-two-axes-centered-origin.svg">
  <defs
     id="ol-defs" />
  <sodipodi:namedview
     id="base"
     pagecolor="#002466"
     bordercolor="#ffffff"
     borderopacity="0.30"
     inkscape:pageopacity="1"
     inkscape:pageshadow="0"
     inkscape:zoom="18.58365"
     inkscape:document-units="px"
     inkscape:current-layer="main"
     inkscape:document-rotation="0"
     showgrid="false"
     inkscape:showpageshadow="false"
     borderlayer="true"
     inkscape:window-width="1920"
     inkscape:window-height="1027"
     inkscape:window-x="0"
     inkscape:window-y="24"
     inkscape:window-maximized="1"
     units="px"
     inkscape:cx="3.9845568"
     inkscape:cy="13.167204" />
  <metadata
     id="metadata5">
    <rdf:RDF>
      <cc:Work
         rdf:about="">
        <dc:format>image/svg+xml</dc:format>
        <dc:type
           rdf:resource="http://purl.org/dc/dcmitype/StillImage" />
        <dc:title></dc:title>
      </cc:Work>
    </rdf:RDF>
  </metadata>
  <g
     id="g852"
     inkscape:label="#labplot-xy-plot-two-axes-centered-origin"
     style="stroke:none">
    <path
       style="fill:none;stroke:none;stroke-width:1"
       d="M 0,0 H 22.000001 V 22 H 0 Z"
       id="boundary"
       inkscape:label="#boundary"
       inkscape:connector-curvature="0" />
    <path
       inkscape:label="#"
       style="opacity:0.6;fill:#d0d0d0;stroke:none;stroke-width:1;stroke-linecap:round;stroke-dashoffset:0.15256613"
       d="m 10.500001,3 v 7.5 h -7.5 v 1 h 7.5 V 19 h 1 v -7.5 h 7.5 v -1 h -7.5 V 3 Z"
       id="rect811"
       inkscape:connector-curvature="0" />
    <path
       inkscape:label="#"
       id="rect837"
       d="M 19,3.234375 15.380859,3.7382812 12.5,6.953125 9.5722656,8.40625 8.4824219,11.863281 7.7890625,14.414062 5.4003906,14.390625 5.2773438,14.716797 c 0,0 -0.3984963,1.038814 -0.8046876,2.208984 -0.2030956,0.585085 -0.407473,1.202922 -0.5683593,1.746094 C 3.8686441,18.792243 3.8455413,18.889421 3.8144531,19 h 1.0371094 c 0.00571,-0.01962 0.0039,-0.02316 0.00977,-0.04297 0.1536144,-0.518621 0.3565727,-1.126762 0.5566407,-1.703125 0.3402779,-0.980285 0.5812147,-1.610977 0.6738281,-1.855468 L 8.5507812,15.421875 9.4433594,12.144531 10.396484,9.1132812 13.117188,7.7636719 15.880859,4.6796875 19,4.2441406 Z"
       style="fill:#ffb900;stroke-linecap:round;stroke-dashoffset:0.15256613;stroke:none"
       inkscape:connector-curvature="0" />
  </g>
</svg>
