<?xml version="1.0" encoding="UTF-8" standalone="no"?>
<svg
   xmlns:dc="http://purl.org/dc/elements/1.1/"
   xmlns:cc="http://creativecommons.org/ns#"
   xmlns:rdf="http://www.w3.org/1999/02/22-rdf-syntax-ns#"
   xmlns:svg="http://www.w3.org/2000/svg"
   xmlns="http://www.w3.org/2000/svg"
   xmlns:sodipodi="http://sodipodi.sourceforge.net/DTD/sodipodi-0.dtd"
   xmlns:inkscape="http://www.inkscape.org/namespaces/inkscape"
   height="22"
   viewBox="0 0 22 22"
   width="22"
   version="1.1"
   id="svg8"
   sodipodi:docname="labplot-zoom-out-y.svg"
   inkscape:version="0.92+devel (9cbd9e9661, 2017-09-28, custom)">
  <defs
     id="defs10" />
  <sodipodi:namedview
     id="namedview2"
     inkscape:document-rotation="0"
     showgrid="false"
     pagecolor="#002466"
     inkscape:pageopacity="1"
     bordercolor="#ffffff"
     borderopacity="0.24705882"
     borderlayer="true"
     inkscape:showpageshadow="false"
     inkscape:snap-object-midpoints="true"
     inkscape:snap-center="true"
     inkscape:zoom="16.704545"
     inkscape:cx="11.594816"
     inkscape:cy="4.4871638"
     inkscape:window-width="1920"
     inkscape:window-height="1027"
     inkscape:window-x="0"
     inkscape:window-y="24"
     inkscape:window-maximized="1"
     inkscape:current-layer="g852" />
  <metadata
     id="metadata4">
    <rdf:RDF>
      <cc:Work>
        <dc:format>image/svg+xml</dc:format>
        <dc:type
           rdf:resource="http://purl.org/dc/dcmitype/StillImage" />
        <dc:title></dc:title>
      </cc:Work>
    </rdf:RDF>
  </metadata>
  <g
     id="g852"
     inkscape:label="#labplot-zoom-out-y"
     style="stroke:none">
    <path
       inkscape:label="#boundary"
       inkscape:connector-curvature="0"
       id="rect845"
       d="M 0,-2.1e-7 H 22 V 22 H 0 Z"
       style="fill:none;stroke:none;stroke-width:1.41700006;stroke-linecap:round;stroke-dashoffset:0.15256613" />
    <path
       inkscape:label="#"
       inkscape:transform-center-y="1.8850096"
       inkscape:transform-center-x="1.9037989"
       inkscape:connector-curvature="0"
       id="path832"
       d="M 12.904138,3.0000003 C 11.332254,3.0004829 9.7604904,3.5968496 8.5669434,4.7879601 6.5023641,6.848232 6.2247545,10.036778 7.7313369,12.402333 l -4.3421693,4.334375 c -0.518997,0.51752 -0.5187894,1.357268 0,1.874996 0.51879,0.517729 1.3588397,0.517728 1.8776276,0 l 4.3446562,-4.336861 c 2.2499466,1.415736 5.2308126,1.188928 7.2941486,-0.609248 0.12536,-0.05116 0.239873,-0.128334 0.335734,-0.223807 0.09683,-0.09615 0.172111,-0.209532 0.223823,-0.335709 4.01e-4,-0.0012 0.0023,-0.0037 0.0025,-0.0049 C 19.561848,10.702642 19.527956,7.0674653 17.241334,4.7855135 16.047788,3.5943616 14.476021,2.9995181 12.904138,3.0000003 Z m 0,2.0266865 c 1.044772,-4.827e-4 2.08933,0.3997667 2.892292,1.201092 1.60593,1.6026439 1.605928,4.1715422 0,5.7741902 -1.605929,1.602646 -4.181146,1.602651 -5.78707,0 -1.6059296,-1.602644 -1.6034666,-4.171541 0.0025,-5.7741902 0.802964,-0.801324 1.847521,-1.2006093 2.892292,-1.201092 z"
       style="opacity:0.6;fill:#d0d0d0;stroke:none;stroke-width:0.76182389" />
    <text
       xml:space="preserve"
       style="font-size:7.93536282px;line-height:1.25;font-family:Arial;-inkscape-font-specification:Arial;letter-spacing:0px;word-spacing:0px;fill:#ffb900;stroke-width:0.54104751"
       x="15.7021"
       y="18.271124"
       id="text885"
       inkscape:label="#"><tspan
         sodipodi:role="line"
         id="tspan883"
         x="15.7021"
         y="18.271124"
         style="font-style:italic;font-variant:normal;font-weight:normal;font-stretch:normal;font-family:'Times New Roman';-inkscape-font-specification:'Times New Roman, Italic';fill:#ffb900;stroke-width:0.54104751">y</tspan></text>
    <path
       inkscape:label="#"
       inkscape:connector-curvature="0"
       id="rect817"
       d="M 9.9835244,8.3764307 V 9.8510621 H 15.822821 V 8.3764307 Z"
       style="fill:#ff0000;stroke:none;stroke-width:1.80420363;stroke-linecap:round;stroke-dashoffset:0.15256613"
       sodipodi:nodetypes="ccccc" />
  </g>
</svg>
