<?xml version="1.0" encoding="UTF-8" standalone="no"?>
<!-- Created with Inkscape (http://www.inkscape.org/) -->

<svg
   xmlns:dc="http://purl.org/dc/elements/1.1/"
   xmlns:cc="http://creativecommons.org/ns#"
   xmlns:rdf="http://www.w3.org/1999/02/22-rdf-syntax-ns#"
   xmlns:svg="http://www.w3.org/2000/svg"
   xmlns="http://www.w3.org/2000/svg"
   xmlns:sodipodi="http://sodipodi.sourceforge.net/DTD/sodipodi-0.dtd"
   xmlns:inkscape="http://www.inkscape.org/namespaces/inkscape"
   width="22.000002"
   height="22"
   viewBox="0 0 22.000002 22"
   version="1.1"
   id="main"
   inkscape:version="0.92+devel (5e751a51be, 2017-10-02, custom)"
   sodipodi:docname="labplot-xy-equation-curve.svg">
  <defs
     id="ol-defs">
    <style
       id="current-color-scheme"
       type="text/css">
      .ColorScheme-Text {
        color:#f2f2f2;
      }
      </style>
  </defs>
  <sodipodi:namedview
     id="base"
     pagecolor="#002466"
     bordercolor="#ffffff"
     borderopacity="0.30"
     inkscape:pageopacity="1"
     inkscape:pageshadow="0"
     inkscape:zoom="18.58365"
     inkscape:document-units="px"
     inkscape:current-layer="main"
     inkscape:document-rotation="0"
     showgrid="false"
     inkscape:showpageshadow="false"
     borderlayer="true"
     inkscape:window-width="1920"
     inkscape:window-height="1027"
     inkscape:window-x="0"
     inkscape:window-y="24"
     inkscape:window-maximized="1"
     units="px"
     inkscape:cx="10.145826"
     inkscape:cy="11.033407" />
  <metadata
     id="metadata5">
    <rdf:RDF>
      <cc:Work
         rdf:about="">
        <dc:format>image/svg+xml</dc:format>
        <dc:type
           rdf:resource="http://purl.org/dc/dcmitype/StillImage" />
        <dc:title></dc:title>
      </cc:Work>
    </rdf:RDF>
  </metadata>
  <g
     id="g874"
     inkscape:label="#labplot-xy-equation-curve"
     style="stroke:none">
    <path
       style="fill:none;stroke:none;stroke-width:1"
       d="M 0,0 H 22.000001 V 22 H 0 Z"
       id="boundary"
       inkscape:label="#boundary"
       inkscape:connector-curvature="0" />
    <path
       inkscape:label="#"
       inkscape:connector-curvature="0"
       id="path853"
       d="m 11.214844,2.859375 c -0.231781,-6.281e-4 -0.392168,0.1420932 -0.498047,0.2792969 -0.0307,0.039787 -0.04943,0.098432 -0.07617,0.1425781 0.185806,-0.03874 0.373766,-0.072266 0.574219,-0.072266 0.198989,0 0.385708,0.031662 0.570312,0.068359 C 11.759368,3.235359 11.742298,3.17878 11.712898,3.1406242 11.60718,3.0035057 11.445985,2.8600004 11.214851,2.8593742 Z m 0.224609,1.375 c 0.09291,0.2916502 0.186482,0.6317113 0.279297,1.0507812 0.260962,1.1782682 0.511152,2.7652719 0.75,4.3378907 0.03156,0.2078112 0.06255,0.4009781 0.09375,0.6074221 h 0.707031 C 13.232954,9.9884001 13.197286,9.7620441 13.160156,9.5175781 12.920944,7.9425639 12.671529,6.3501613 12.402344,5.1347656 12.351076,4.903286 12.297245,4.6999049 12.244141,4.4980469 11.992577,4.3540779 11.726926,4.2657588 11.439453,4.234375 Z m -0.449219,0.00195 c -0.288481,0.033713 -0.55659,0.1278583 -0.810546,0.2832031 -0.0512,0.1959826 -0.102667,0.3914716 -0.152344,0.6152344 C 9.7573473,6.3509144 9.505421,7.9442354 9.2636719,9.5136719 9.2257263,9.760015 9.1898106,9.9869128 9.1523438,10.230469 h 0.7089843 c 0.031821,-0.207155 0.06159,-0.400591 0.09375,-0.6093752 0.2414659,-1.5675949 0.4940439,-3.1546945 0.7558599,-4.3339844 0.09292,-0.4185607 0.186661,-0.7589421 0.279296,-1.0507813 z m -3.9062496,4.3418 C 6.910369,8.8248022 6.7278927,9.0583628 6.5371094,9.28125 c 0.025563,0.1237731 0.050516,0.2160896 0.076172,0.3671875 0.027093,0.1595637 0.058497,0.3993655 0.085938,0.5820315 H 7.4042969 C 7.37106,10.005112 7.3362487,9.7286296 7.3027344,9.53125 7.2494625,9.2175102 7.1955219,8.9458202 7.1347656,8.7265625 7.1194866,8.6714236 7.1006341,8.6272239 7.0839844,8.578125 Z M 15.8125,8.7597656 c -0.08302,0.1766569 -0.15828,0.3674081 -0.232422,0.6210938 -0.0659,0.22549 -0.136022,0.573477 -0.203125,0.8496096 h 0.71875 c 0.05068,-0.203156 0.108078,-0.4894715 0.15625,-0.6542971 0.03872,-0.1324899 0.06756,-0.1837494 0.103516,-0.2832031 -0.0073,-0.00644 -0.01615,-0.0111 -0.02344,-0.017578 C 16.150101,9.1137682 15.977261,8.9402944 15.8125,8.7597656 Z M 6.84375,11.230469 c 0.031065,0.221976 0.059002,0.394829 0.091797,0.623047 0.046511,0.323668 0.096707,0.64493 0.1484375,0.96289 0.3090723,0.439138 0.599617,0.902959 0.8847656,1.361328 0.065189,0.104789 0.1302802,0.19927 0.1953125,0.302735 C 8.1158994,14.32632 8.0667584,14.192158 8.0214844,14 7.8716526,13.364065 7.742105,12.555243 7.6269531,11.753906 7.5998361,11.5652 7.576715,11.416269 7.5507812,11.230469 Z m 2.1523438,0 c -0.1463776,0.930808 -0.2901532,1.810835 -0.4296876,2.49414 -0.089299,0.437304 -0.1750933,0.73652 -0.2558593,0.984375 0.1601419,0.250856 0.3223464,0.502978 0.484375,0.732422 0.039201,-0.07111 0.070702,-0.146314 0.1035156,-0.230468 0.127586,-0.327214 0.2383268,-0.781619 0.3535156,-1.345704 0.1493236,-0.731243 0.3005149,-1.659638 0.453125,-2.634765 z m 3.7187502,0 c 0.150967,0.985176 0.299179,1.926049 0.445312,2.671875 0.112346,0.573382 0.220775,1.039391 0.341797,1.376953 0.03824,0.106652 0.07901,0.198728 0.126953,0.285156 0.162862,-0.211876 0.328407,-0.44534 0.492188,-0.677734 -0.08635,-0.269163 -0.179398,-0.62922 -0.275391,-1.119141 -0.137231,-0.700388 -0.280965,-1.594206 -0.425781,-2.537109 z m 2.421875,0 c -0.03599,0.161306 -0.06885,0.276738 -0.105469,0.441406 -0.190067,0.85479 -0.388848,1.734534 -0.587891,2.419922 -0.07837,0.26985 -0.154955,0.474248 -0.230468,0.666015 0.103158,-0.147481 0.203831,-0.284691 0.308593,-0.435546 0.287548,-0.41406 0.584796,-0.833075 0.90625,-1.232422 0.09808,-0.413516 0.193283,-0.843656 0.28711,-1.265625 0.05026,-0.226054 0.09369,-0.376069 0.142578,-0.59375 z"
       style="color:#000000;font-style:normal;font-variant:normal;font-weight:normal;font-stretch:normal;font-size:medium;line-height:normal;font-family:sans-serif;font-variant-ligatures:normal;font-variant-position:normal;font-variant-caps:normal;font-variant-numeric:normal;font-variant-alternates:normal;font-variant-east-asian:normal;font-feature-settings:normal;font-variation-settings:normal;text-indent:0;text-align:start;text-decoration:none;text-decoration-line:none;text-decoration-style:solid;text-decoration-color:#000000;letter-spacing:normal;word-spacing:normal;text-transform:none;writing-mode:lr-tb;direction:ltr;text-orientation:mixed;dominant-baseline:auto;baseline-shift:baseline;text-anchor:start;white-space:normal;shape-padding:0;clip-rule:nonzero;display:inline;overflow:visible;visibility:visible;opacity:0.3;isolation:auto;mix-blend-mode:normal;color-interpolation:sRGB;color-interpolation-filters:linearRGB;solid-color:#000000;solid-opacity:1;vector-effect:none;fill:#d0d0d0;fill-opacity:1;fill-rule:nonzero;stroke:none;stroke-width:0.69999999;stroke-linecap:butt;stroke-linejoin:miter;stroke-miterlimit:4;stroke-dasharray:none;stroke-dashoffset:0;stroke-opacity:1;color-rendering:auto;image-rendering:auto;shape-rendering:auto;text-rendering:auto;enable-background:accumulate" />
    <path
       inkscape:connector-curvature="0"
       inkscape:label="#"
       id="rect812"
       d="m 3,3 v 7.230469 1 V 19 h 1 v -7.769531 h 15 v -1 H 4 V 3 Z"
       style="display:inline;opacity:0.69372696;fill:#d0d0d0;stroke-linecap:round;stroke-dashoffset:0.15256613;stroke:none" />
    <path
       inkscape:label="#"
       inkscape:connector-curvature="0"
       id="path862"
       d="M 11.214844,3.2089844 C 10.230451,3.2089844 9.4238851,3.7106271 8.7832031,4.375 8.1425221,5.0393728 7.6242416,5.8775156 7.1191406,6.6894531 6.6140396,7.5013905 6.1205024,8.2890479 5.5996094,8.8417969 5.0923614,9.3800659 4.5998862,9.6759972 4,9.6914062 V 10.230469 H 5.4648438 C 5.7782244,10.034894 6.0703848,9.8008465 6.328125,9.5273438 6.953759,8.8634479 7.464695,8.027053 7.96875,7.2167969 8.472805,6.4065409 8.9693751,5.6225849 9.5019531,5.0703125 10.034531,4.5180402 10.560398,4.2089844 11.214844,4.2089844 c 0.662945,0 1.18588,0.294228 1.722656,0.8183594 0.536776,0.5241312 1.047293,1.2721026 1.583984,2.0449218 0.536692,0.7728191 1.100665,1.5724846 1.810547,2.203125 0.492362,0.4374008 1.075047,0.7792084 1.740235,0.9550784 H 19 V 9.3632812 c -0.799676,0 -1.414836,-0.3126234 -2.003906,-0.8359374 C 16.407024,8.0040296 15.873605,7.2657868 15.341797,6.5 14.809989,5.7342131 14.281737,4.9423232 13.636719,4.3125 12.9917,3.6826764 12.190736,3.2089844 11.214844,3.2089844 Z M 4,11.230469 v 0.472656 c 0.5998862,0.01541 1.0923614,0.31134 1.5996094,0.849609 0.520893,0.552749 1.0144302,1.340407 1.5195312,2.152344 0.505101,0.811938 1.0233815,1.65008 1.6640625,2.314453 0.640682,0.664373 1.4472479,1.166016 2.4316409,1.166016 0.975892,0 1.776856,-0.473692 2.421875,-1.103516 0.645018,-0.629823 1.17327,-1.421713 1.705078,-2.1875 0.531808,-0.765787 1.065227,-1.50403 1.654297,-2.027343 C 17.585164,12.343873 18.200324,12.03125 19,12.03125 v -0.800781 h -1.134766 c -0.577546,0.190073 -1.093248,0.497827 -1.533203,0.888672 -0.709882,0.63064 -1.273855,1.430305 -1.810547,2.203125 -0.536691,0.772819 -1.047208,1.520791 -1.583984,2.044922 -0.536776,0.524132 -1.059711,0.818359 -1.722656,0.818359 -0.654446,0 -1.180313,-0.309056 -1.7128909,-0.861328 C 8.9693751,15.771945 8.472805,14.98799 7.96875,14.177734 7.464695,13.367478 6.953759,12.531084 6.328125,11.867188 6.098617,11.623642 5.8399323,11.414336 5.5664062,11.230469 Z"
       style="color:#000000;font-style:normal;font-variant:normal;font-weight:normal;font-stretch:normal;font-size:medium;line-height:normal;font-family:sans-serif;font-variant-ligatures:normal;font-variant-position:normal;font-variant-caps:normal;font-variant-numeric:normal;font-variant-alternates:normal;font-variant-east-asian:normal;font-feature-settings:normal;font-variation-settings:normal;text-indent:0;text-align:start;text-decoration:none;text-decoration-line:none;text-decoration-style:solid;text-decoration-color:#000000;letter-spacing:normal;word-spacing:normal;text-transform:none;writing-mode:lr-tb;direction:ltr;text-orientation:mixed;dominant-baseline:auto;baseline-shift:baseline;text-anchor:start;white-space:normal;shape-padding:0;clip-rule:nonzero;display:inline;overflow:visible;visibility:visible;opacity:1;isolation:auto;mix-blend-mode:normal;color-interpolation:sRGB;color-interpolation-filters:linearRGB;solid-color:#000000;solid-opacity:1;vector-effect:none;fill:#00ff00;fill-opacity:1;fill-rule:nonzero;stroke:none;stroke-width:1px;stroke-linecap:butt;stroke-linejoin:miter;stroke-miterlimit:4;stroke-dasharray:none;stroke-dashoffset:0;stroke-opacity:1;color-rendering:auto;image-rendering:auto;shape-rendering:auto;text-rendering:auto;enable-background:accumulate" />
  </g>
</svg>
