<?xml version="1.0" encoding="UTF-8" standalone="no"?>
<!-- Created with Inkscape (http://www.inkscape.org/) -->

<svg
   xmlns:dc="http://purl.org/dc/elements/1.1/"
   xmlns:cc="http://creativecommons.org/ns#"
   xmlns:rdf="http://www.w3.org/1999/02/22-rdf-syntax-ns#"
   xmlns:svg="http://www.w3.org/2000/svg"
   xmlns="http://www.w3.org/2000/svg"
   xmlns:sodipodi="http://sodipodi.sourceforge.net/DTD/sodipodi-0.dtd"
   xmlns:inkscape="http://www.inkscape.org/namespaces/inkscape"
   width="22.000002"
   height="22"
   viewBox="0 0 22.000002 22"
   version="1.1"
   id="main"
   inkscape:version="0.92+devel (342812bdbc, 2017-09-26, custom)"
   sodipodi:docname="lensautofix.svg">
  <defs
     id="ol-defs" />
  <sodipodi:namedview
     id="base"
     pagecolor="#002466"
     bordercolor="#ffffff"
     borderopacity="0.30"
     inkscape:pageopacity="1"
     inkscape:pageshadow="0"
     inkscape:zoom="13.140625"
     inkscape:document-units="px"
     inkscape:current-layer="main"
     inkscape:document-rotation="0"
     showgrid="false"
     inkscape:showpageshadow="false"
     borderlayer="true"
     inkscape:window-width="1920"
     inkscape:window-height="1017"
     inkscape:window-x="0"
     inkscape:window-y="34"
     inkscape:window-maximized="1"
     units="px"
     inkscape:cx="6.5947884"
     inkscape:cy="8.0269054" />
  <metadata
     id="metadata5">
    <rdf:RDF>
      <cc:Work
         rdf:about="">
        <dc:format>image/svg+xml</dc:format>
        <dc:type
           rdf:resource="http://purl.org/dc/dcmitype/StillImage" />
        <dc:title></dc:title>
      </cc:Work>
    </rdf:RDF>
  </metadata>
  <g
     id="g839"
     inkscape:label="#lensautofix"
     style="stroke:none">
    <path
       style="fill:none;stroke:none;stroke-width:1"
       d="M 0,0 H 22.000001 V 22 H 0 Z"
       id="boundary"
       inkscape:label="#boundary"
       inkscape:connector-curvature="0" />
    <path
       inkscape:label="#"
       style="opacity:0.6;fill:#d0d0d0;stroke:none;stroke-width:0.72727275"
       d="M 11.000001,3 C 9.567474,3.00333 8.161786,3.3916173 6.9303983,4.12358 L 13.715909,8.0411933 V 3.485796 C 12.845657,3.1679187 11.926492,3.0034 11.000001,3 Z m 3.920455,1.0312507 V 11.870739 L 18.87216,9.5894893 C 18.450002,7.2398533 17.001349,5.2014333 14.920456,4.0312507 Z M 5.849433,4.8906253 C 4.046277,6.4080333 3.003377,8.643404 3.000001,11 c 8.72e-4,0.03012 0.00173,0.05939 0.0028,0.08949 L 9.795416,7.1690387 Z m 1.2301133,5.2372157 -3.9517053,2.28125 c 0.4219507,2.349914 1.8706307,4.389314 3.9517053,5.559658 z m 11.9176137,0.78125 -6.792614,3.920454 3.947443,2.27983 C 17.954864,15.591824 18.996812,13.356473 19.000001,11 c -8.73e-4,-0.03012 -0.0017,-0.0608 -0.0028,-0.09091 z M 8.284092,13.958807 v 4.555397 C 9.154345,18.83208 10.07351,18.996601 11.000001,19 c 1.432852,-0.0035 2.838068,-0.391223 4.069601,-1.12358 z"
       id="path827"
       inkscape:connector-curvature="0" />
  </g>
</svg>
