<?xml version="1.0" encoding="UTF-8" standalone="no"?>
<!-- Created with Inkscape (http://www.inkscape.org/) -->

<svg
   xmlns:dc="http://purl.org/dc/elements/1.1/"
   xmlns:cc="http://creativecommons.org/ns#"
   xmlns:rdf="http://www.w3.org/1999/02/22-rdf-syntax-ns#"
   xmlns:svg="http://www.w3.org/2000/svg"
   xmlns="http://www.w3.org/2000/svg"
   xmlns:sodipodi="http://sodipodi.sourceforge.net/DTD/sodipodi-0.dtd"
   xmlns:inkscape="http://www.inkscape.org/namespaces/inkscape"
   width="22.000002"
   height="22"
   viewBox="0 0 22.000002 22"
   version="1.1"
   id="main"
   inkscape:version="0.92+devel (9cbd9e9661, 2017-09-28, custom)"
   sodipodi:docname="lensdistortion.svg">
  <defs
     id="ol-defs">
    <style
       id="current-color-scheme"
       type="text/css">
      .ColorScheme-Text {
        color:#f2f2f2;
      }
      </style>
  </defs>
  <sodipodi:namedview
     id="base"
     pagecolor="#002466"
     bordercolor="#ffffff"
     borderopacity="0.30"
     inkscape:pageopacity="1"
     inkscape:pageshadow="0"
     inkscape:zoom="13.140625"
     inkscape:document-units="px"
     inkscape:current-layer="main"
     inkscape:document-rotation="0"
     showgrid="false"
     inkscape:showpageshadow="false"
     borderlayer="true"
     inkscape:window-width="1920"
     inkscape:window-height="1027"
     inkscape:window-x="0"
     inkscape:window-y="24"
     inkscape:window-maximized="1"
     units="px"
     inkscape:cx="6.5947884"
     inkscape:cy="8.0269054" />
  <metadata
     id="metadata5">
    <rdf:RDF>
      <cc:Work
         rdf:about="">
        <dc:format>image/svg+xml</dc:format>
        <dc:type
           rdf:resource="http://purl.org/dc/dcmitype/StillImage" />
        <dc:title></dc:title>
      </cc:Work>
    </rdf:RDF>
  </metadata>
  <g
     id="g840"
     inkscape:label="#lensdistortion"
     style="stroke:none">
    <path
       style="fill:none;stroke:none;stroke-width:1"
       d="M 0,0 H 22.000001 V 22 H 0 Z"
       id="boundary"
       inkscape:label="#boundary"
       inkscape:connector-curvature="0" />
    <path
       inkscape:label="#"
       id="path834"
       d="M 3,3 V 6.8886719 8.0097656 15 15.111328 19 H 19 V 15.107422 15 11 8.0097656 6.8925781 3 Z M 4,4 H 18 V 6.3867188 A 11,6 0 0 0 11,5 11,6 0 0 0 4,6.3808594 Z m 7,2 a 10,5 0 0 1 7,1.4414062 V 9.5488281 A 8,3 0 0 0 11,8 8,3 0 0 0 4,9.5546875 V 7.4453125 A 10,5 0 0 1 11,6 Z m 0,3 a 7,2 0 0 1 7,2 7,2 0 0 1 -7,2 7,2 0 0 1 -7,-2 7,2 0 0 1 7,-2 z m 7,3.445312 v 2.113282 A 10,5 0 0 1 11,16 10,5 0 0 1 4,14.554688 V 12.451172 A 8,3 0 0 0 11,14 8,3 0 0 0 18,12.445312 Z m 0,3.167969 V 18 H 4 V 15.619141 A 11,6 0 0 0 11,17 11,6 0 0 0 18,15.613281 Z"
       style="opacity:0.6;fill:#d0d0d0;fill-opacity:1;stroke:none"
       inkscape:connector-curvature="0" />
  </g>
</svg>
