<?xml version="1.0" encoding="UTF-8" standalone="no"?>
<!-- Created with Inkscape (http://www.inkscape.org/) -->

<svg
   xmlns:dc="http://purl.org/dc/elements/1.1/"
   xmlns:cc="http://creativecommons.org/ns#"
   xmlns:rdf="http://www.w3.org/1999/02/22-rdf-syntax-ns#"
   xmlns:svg="http://www.w3.org/2000/svg"
   xmlns="http://www.w3.org/2000/svg"
   xmlns:sodipodi="http://sodipodi.sourceforge.net/DTD/sodipodi-0.dtd"
   xmlns:inkscape="http://www.inkscape.org/namespaces/inkscape"
   width="22.000002"
   height="22"
   viewBox="0 0 22.000002 22"
   version="1.1"
   id="main"
   inkscape:version="0.92+devel (9279f97481, 2017-09-04, custom)"
   sodipodi:docname="mail-mark-important.svg">
  <defs
     id="ol-defs" />
  <sodipodi:namedview
     id="base"
     pagecolor="#002466"
     bordercolor="#ffffff"
     borderopacity="0.30"
     inkscape:pageopacity="1"
     inkscape:pageshadow="2"
     inkscape:zoom="18.58365"
     inkscape:document-units="px"
     inkscape:current-layer="main"
     inkscape:document-rotation="0"
     showgrid="false"
     inkscape:showpageshadow="false"
     borderlayer="true"
     inkscape:window-width="1920"
     inkscape:window-height="1025"
     inkscape:window-x="0"
     inkscape:window-y="26"
     inkscape:window-maximized="1"
     units="px"
     inkscape:cx="7.9192839"
     inkscape:cy="8.0000001" />
  <metadata
     id="metadata5">
    <rdf:RDF>
      <cc:Work
         rdf:about="">
        <dc:format>image/svg+xml</dc:format>
        <dc:type
           rdf:resource="http://purl.org/dc/dcmitype/StillImage" />
        <dc:title></dc:title>
      </cc:Work>
    </rdf:RDF>
  </metadata>
  <g
     id="g877"
     inkscape:label="#mail-mark-important"
     transform="scale(1.375)"
     style="stroke-width:0.72727275">
    <path
       style="fill:none;stroke:none;stroke-width:0.72727275"
       d="M -5.5000004e-8,-4.9999999e-8 H 16.000001 V 16 H -5.5000004e-8 Z"
       id="boundary"
       inkscape:label="#boundary"
       inkscape:connector-curvature="0" />
    <path
       inkscape:label="#"
       sodipodi:nodetypes="cccccccc"
       inkscape:connector-curvature="0"
       id="path817"
       d="M 14,13.528739 H 2 V 6.500167 H 4.0840905 L 8.0054154,9.5416744 11.92674,6.500167 H 14 Z"
       style="opacity:0.6;fill:#d0d0d0;stroke:none;stroke-width:0.72727269px;stroke-linecap:butt;stroke-linejoin:miter;stroke-opacity:1" />
    <path
       style="fill:#ffb900;stroke:none;stroke-width:1.91490901;stroke-linecap:square"
       d="m 4.1074219,2.4707031 c -0.2181489,0 -0.3925782,0.1763824 -0.3925781,0.3945313 V 3.2421875 5.6835938 H 4.53125 L 7.9472656,8.3613281 11.363281,5.6835938 h 0.921875 V 3.2421875 2.8652344 c 0,-0.2181489 -0.17443,-0.3945313 -0.392578,-0.3945313 z M 8,2.9550781 c 0.2957293,0 0.5602316,0.2387114 0.5332031,0.5332031 L 8.3164062,5.8476562 C 8.299574,6.0310546 8.1758363,6.1660156 8,6.1660156 c -0.1758366,0 -0.2995743,-0.134961 -0.3164062,-0.3183594 L 7.4667969,3.4882812 C 7.4397686,3.1937895 7.7042706,2.9550781 8,2.9550781 Z M 8.00195,6.609375 A 0.41486399,0.41486399 0 0 1 8.4160156,7.0253906 0.41486399,0.41486399 0 0 1 8.0019531,7.4394531 0.41486399,0.41486399 0 0 1 7.5859375,7.0253906 0.41486399,0.41486399 0 0 1 8.0019531,6.609375 Z"
       id="rect819"
       inkscape:connector-curvature="0"
       inkscape:label="#" />
  </g>
</svg>
