<?xml version="1.0" encoding="UTF-8" standalone="no"?>
<!-- Created with Inkscape (http://www.inkscape.org/) -->

<svg
   xmlns:dc="http://purl.org/dc/elements/1.1/"
   xmlns:cc="http://creativecommons.org/ns#"
   xmlns:rdf="http://www.w3.org/1999/02/22-rdf-syntax-ns#"
   xmlns:svg="http://www.w3.org/2000/svg"
   xmlns="http://www.w3.org/2000/svg"
   xmlns:sodipodi="http://sodipodi.sourceforge.net/DTD/sodipodi-0.dtd"
   xmlns:inkscape="http://www.inkscape.org/namespaces/inkscape"
   width="22.000002"
   height="22"
   viewBox="0 0 22.000002 22"
   version="1.1"
   id="main"
   inkscape:version="0.92+devel (9cbd9e9661, 2017-09-28, custom)"
   sodipodi:docname="map-globe.svg">
  <defs
     id="ol-defs">
    <style
       id="current-color-scheme"
       type="text/css">
      .ColorScheme-Text {
        color:#f2f2f2;
      }
      </style>
  </defs>
  <sodipodi:namedview
     id="base"
     pagecolor="#002466"
     bordercolor="#ffffff"
     borderopacity="0.30"
     inkscape:pageopacity="1"
     inkscape:pageshadow="0"
     inkscape:zoom="13.140625"
     inkscape:document-units="px"
     inkscape:current-layer="main"
     inkscape:document-rotation="0"
     showgrid="false"
     inkscape:showpageshadow="false"
     borderlayer="true"
     inkscape:window-width="1920"
     inkscape:window-height="1027"
     inkscape:window-x="0"
     inkscape:window-y="24"
     inkscape:window-maximized="1"
     units="px"
     inkscape:cx="6.5947884"
     inkscape:cy="8.0269054" />
  <metadata
     id="metadata5">
    <rdf:RDF>
      <cc:Work
         rdf:about="">
        <dc:format>image/svg+xml</dc:format>
        <dc:type
           rdf:resource="http://purl.org/dc/dcmitype/StillImage" />
        <dc:title></dc:title>
      </cc:Work>
    </rdf:RDF>
  </metadata>
  <g
     id="g847"
     inkscape:label="#map-globe"
     style="stroke:none">
    <path
       style="fill:none;stroke:none;stroke-width:1"
       d="M 0,0 H 22.000001 V 22 H 0 Z"
       id="boundary"
       inkscape:label="#boundary"
       inkscape:connector-curvature="0" />
    <path
       inkscape:label="#"
       inkscape:connector-curvature="0"
       id="path840"
       d="m 11.118165,3.0009671 a 8.0012174,8.0000095 0 0 0 -5.7753905,2.34375 8.0012174,8.0000095 0 0 0 0,11.3124999 8.0012174,8.0000095 0 0 0 11.3144525,0 8.0012174,8.0000095 0 0 0 0,-11.3124999 8.0012174,8.0000095 0 0 0 -5.539062,-2.34375 z m -0.21875,1 a 7.0010627,7 0 0 1 4.679687,1.7148437 L 14.174805,7.1201077 A 8.0006073,5.0003795 44.990076 0 0 8.7490245,4.3779202 7.0010627,7 0 0 1 10.899415,4.0009671 Z M 8.006837,5.3017483 a 7.0005314,4.0003036 44.991434 0 1 5.458984,2.5273438 L 11.000977,10.293936 6.4482433,5.7431546 a 7.0005314,4.0003036 44.991434 0 1 1.421875,-0.4355469 7.0005314,4.0003036 44.991434 0 1 0.1367187,-0.00586 z m 8.285156,1.1152344 a 7.0010627,7 0 0 1 1.335937,6.8105463 8.0006073,5.0003795 44.990076 0 0 -2.75,-5.3964838 z M 5.7392589,6.4482327 10.293946,11.000967 7.8251964,13.467764 A 7.0005314,4.0003036 44.991434 0 1 5.7392589,6.4482327 Z m 8.4355461,2.0859375 a 7.0005314,4.0003036 44.991434 0 1 2.085938,7.0195308 l -4.552735,-4.552734 z m -9.8027336,0.240234 a 8.0006073,5.0003795 44.990076 0 0 2.75,5.3964848 L 5.7080089,15.584951 A 7.0010627,7 0 0 1 4.3720714,8.7744042 Z m 6.6289056,2.9335938 4.550781,4.550781 A 7.0005314,4.0003036 44.991434 0 1 8.5341807,14.172842 Z m -3.1757806,3.173828 a 8.0006073,5.0003795 44.990076 0 0 5.4257806,2.742188 7.0010627,7 0 0 1 -6.8300775,-1.337891 z"
       style="opacity:0.6;fill:#d0d0d0;fill-opacity:1;stroke:none;stroke-width:1.00007594" />
  </g>
</svg>
