<?xml version="1.0" encoding="UTF-8" standalone="no"?>
<!-- Created with Inkscape (http://www.inkscape.org/) -->

<svg
   xmlns:dc="http://purl.org/dc/elements/1.1/"
   xmlns:cc="http://creativecommons.org/ns#"
   xmlns:rdf="http://www.w3.org/1999/02/22-rdf-syntax-ns#"
   xmlns:svg="http://www.w3.org/2000/svg"
   xmlns="http://www.w3.org/2000/svg"
   xmlns:sodipodi="http://sodipodi.sourceforge.net/DTD/sodipodi-0.dtd"
   xmlns:inkscape="http://www.inkscape.org/namespaces/inkscape"
   width="22.000002"
   height="22"
   viewBox="0 0 22.000002 22"
   version="1.1"
   id="main"
   inkscape:version="0.92+devel (df5ad324d0, 2017-09-05, custom)"
   sodipodi:docname="media-show-active-track-amarok.svg">
  <defs
     id="ol-defs" />
  <sodipodi:namedview
     id="base"
     pagecolor="#002466"
     bordercolor="#ffffff"
     borderopacity="0.30"
     inkscape:pageopacity="1"
     inkscape:pageshadow="2"
     inkscape:zoom="37.1673"
     inkscape:document-units="px"
     inkscape:current-layer="main"
     inkscape:document-rotation="0"
     showgrid="false"
     inkscape:showpageshadow="false"
     borderlayer="true"
     inkscape:window-width="1920"
     inkscape:window-height="1025"
     inkscape:window-x="0"
     inkscape:window-y="26"
     inkscape:window-maximized="1"
     units="px"
     inkscape:cx="7.959642"
     inkscape:cy="8.0000001" />
  <metadata
     id="metadata5">
    <rdf:RDF>
      <cc:Work
         rdf:about="">
        <dc:format>image/svg+xml</dc:format>
        <dc:type
           rdf:resource="http://purl.org/dc/dcmitype/StillImage" />
        <dc:title></dc:title>
      </cc:Work>
    </rdf:RDF>
  </metadata>
  <g
     id="g847"
     inkscape:label="#media-show-active-track-amarok"
     transform="scale(1.375)"
     style="stroke-width:0.72727275">
    <path
       style="fill:none;stroke:none;stroke-width:0.72727275"
       d="M -5.5000004e-8,-4.9999999e-8 H 16.000001 V 16 H -5.5000004e-8 Z"
       id="boundary"
       inkscape:label="#boundary"
       inkscape:connector-curvature="0" />
    <path
       inkscape:label="#"
       inkscape:connector-curvature="0"
       id="rect842"
       d="M 3.199707,2 C 2.534907,2 2,2.534907 2,3.199707 v 9.600586 C 2,13.465093 2.534907,14 3.199707,14 h 9.600586 C 13.465093,14 14,13.465093 14,12.800293 V 3.199707 C 14,2.534907 13.465093,2 12.800293,2 Z M 8,4.25 h 2.506348 V 6.0400391 H 8.8950196 v 4.0458989 c 0,0.912887 -0.8050519,1.664062 -1.7358399,1.664062 -0.9128879,0 -1.6655274,-0.733276 -1.6655274,-1.664062 0,-0.912889 0.7347397,-1.665528 1.6655273,-1.665528 0.3042962,0 0.5902236,0.08971 0.8408204,0.23291 z"
       style="opacity:0.6;fill:#d0d0d0;stroke-width:1.91490901;stroke-linecap:square" />
  </g>
</svg>
