<?xml version="1.0" encoding="UTF-8" standalone="no"?>
<!-- Created with Inkscape (http://www.inkscape.org/) -->

<svg
   xmlns:dc="http://purl.org/dc/elements/1.1/"
   xmlns:cc="http://creativecommons.org/ns#"
   xmlns:rdf="http://www.w3.org/1999/02/22-rdf-syntax-ns#"
   xmlns:svg="http://www.w3.org/2000/svg"
   xmlns="http://www.w3.org/2000/svg"
   xmlns:sodipodi="http://sodipodi.sourceforge.net/DTD/sodipodi-0.dtd"
   xmlns:inkscape="http://www.inkscape.org/namespaces/inkscape"
   width="22"
   height="22"
   viewBox="0 0 5.8208331 5.8208331"
   version="1.1"
   id="svg8"
   inkscape:version="0.92+devel (01e32517f0, 2017-08-26, custom)"
   sodipodi:docname="media-album-cover-manager-amarok.svg">
  <defs
     id="defs2" />
  <sodipodi:namedview
     id="base"
     pagecolor="#002466"
     bordercolor="#ffffff"
     borderopacity="0.38039216"
     inkscape:pageopacity="1"
     inkscape:pageshadow="2"
     inkscape:zoom="28.674218"
     inkscape:cx="10.372923"
     inkscape:cy="11.718564"
     inkscape:document-units="px"
     inkscape:current-layer="svg8"
     inkscape:document-rotation="0"
     showgrid="false"
     inkscape:showpageshadow="false"
     borderlayer="true"
     inkscape:window-width="1920"
     inkscape:window-height="1051"
     inkscape:window-x="0"
     inkscape:window-y="0"
     inkscape:window-maximized="1"
     units="px" />
  <metadata
     id="metadata5">
    <rdf:RDF>
      <cc:Work
         rdf:about="">
        <dc:format>image/svg+xml</dc:format>
        <dc:type
           rdf:resource="http://purl.org/dc/dcmitype/StillImage" />
        <dc:title></dc:title>
      </cc:Work>
    </rdf:RDF>
  </metadata>
  <g
     id="g851"
     inkscape:label="#media-album-cover-manager-amarok"
     transform="scale(1.375)">
    <rect
       inkscape:label="#boundary"
       y="4.4595335e-08"
       x="4.4595339e-08"
       height="4.2333331"
       width="4.2333331"
       id="rect811"
       style="fill:none;stroke-width:0.20485653" />
    <path
       inkscape:label="#"
       id="rect812"
       transform="scale(0.26458333)"
       d="M 3.5136719,2.7558594 V 13.244141 H 14 V 2.7558594 Z M 6.6914062,4.828125 H 11.638672 V 9.125 c 0,0.6482801 -0.525549,1.171875 -1.173828,1.171875 -0.6482807,0 -1.1738284,-0.5235949 -1.1738284,-1.171875 0,-0.6482805 0.5255477,-1.1757812 1.1738284,-1.1757812 0.142031,-10e-8 0.260332,0.060926 0.384765,0.1074218 V 6.0332031 H 7.4785156 v 4.1308589 c 0,0.648281 -0.5255488,1.173829 -1.1738281,1.173829 -0.6482801,0 -1.1757813,-0.525548 -1.1757813,-1.173829 10e-8,-0.6482796 0.5275012,-1.1738276 1.1757813,-1.1738276 0.1423688,0 0.2620359,0.058769 0.3867187,0.1054687 V 4.9628906 Z"
       style="opacity:0.6;fill:#d0d0d0;stroke-width:0.60241419"
       inkscape:connector-curvature="0" />
    <path
       inkscape:label="#"
       inkscape:connector-curvature="0"
       style="opacity:0.3;fill:#d0d0d0;stroke-width:0.0505304"
       d="M 0.52916666,0.72935606 H 0.8080315 V 3.5039771 H 0.52916666 Z"
       id="path815" />
  </g>
</svg>
