<?xml version="1.0" encoding="UTF-8" standalone="no"?>
<!-- Created with Inkscape (http://www.inkscape.org/) -->

<svg
   xmlns:dc="http://purl.org/dc/elements/1.1/"
   xmlns:cc="http://creativecommons.org/ns#"
   xmlns:rdf="http://www.w3.org/1999/02/22-rdf-syntax-ns#"
   xmlns:svg="http://www.w3.org/2000/svg"
   xmlns="http://www.w3.org/2000/svg"
   xmlns:sodipodi="http://sodipodi.sourceforge.net/DTD/sodipodi-0.dtd"
   xmlns:inkscape="http://www.inkscape.org/namespaces/inkscape"
   width="22"
   height="22"
   viewBox="0 0 22 22"
   version="1.1"
   id="svg8"
   inkscape:version="0.92+devel 15740 custom"
   sodipodi:docname="mesh-gradient-fit.svg">
  <defs
     id="ol-defs">
    <style
       id="current-color-scheme">      .ColorScheme-Text {
        color:#d0d0d0;
        stop-color:#d0d0d0;
      }
      .ColorScheme-Background {
        color:#212121;
        stop-color:#212121;
      }
      .ColorScheme-Highlight {
        color:#0039a9;
        stop-color:#0039a9;
      }
      .ColorScheme-ViewText {
        color:#d0d0d0;
        stop-color:#d0d0d0;
      }
      .ColorScheme-ViewBackground {
        color:#19191b;
        stop-color:#19191b;
      }
      .ColorScheme-ViewHover {
        color:#005cc7;
        stop-color:#005cc7;
      }
      .ColorScheme-ViewFocus{
        color:#002466;
        stop-color:#002466;
      }
      .ColorScheme-ButtonText {
        color:#d0d0d0;
        stop-color:#d0d0d0;
      }
      .ColorScheme-ButtonBackground {
        color:#232323;
        stop-color:#232323;                             
      }                                                 
      .ColorScheme-ButtonHover {                        
        color:#005cc7;                                  
        stop-color:#005cc7;                             
      }                                                 
      .ColorScheme-ButtonFocus{                         
        color:#0039a9;                                  
        stop-color:#0039a9;                             
      }</style>
    <style
       id="current-color-scheme-7">      .ColorScheme-Text {
        color:#d0d0d0;
        stop-color:#d0d0d0;
      }
      .ColorScheme-Background {
        color:#212121;
        stop-color:#212121;
      }
      .ColorScheme-Highlight {
        color:#0039a9;
        stop-color:#0039a9;
      }
      .ColorScheme-ViewText {
        color:#d0d0d0;
        stop-color:#d0d0d0;
      }
      .ColorScheme-ViewBackground {
        color:#19191b;
        stop-color:#19191b;
      }
      .ColorScheme-ViewHover {
        color:#005cc7;
        stop-color:#005cc7;
      }
      .ColorScheme-ViewFocus{
        color:#002466;
        stop-color:#002466;
      }
      .ColorScheme-ButtonText {
        color:#d0d0d0;
        stop-color:#d0d0d0;
      }
      .ColorScheme-ButtonBackground {
        color:#232323;
        stop-color:#232323;                             
      }                                                 
      .ColorScheme-ButtonHover {                        
        color:#005cc7;                                  
        stop-color:#005cc7;                             
      }                                                 
      .ColorScheme-ButtonFocus{                         
        color:#0039a9;                                  
        stop-color:#0039a9;                             
      }</style>
    <style
       type="text/css"
       id="current-color-scheme-6">
      .ColorScheme-Text {
        color:#f2f2f2;
      }
      </style>
  </defs>
  <sodipodi:namedview
     id="base"
     pagecolor="#002266"
     bordercolor="#ffffff"
     borderopacity="0.46666667"
     inkscape:pageopacity="0"
     inkscape:pageshadow="2"
     inkscape:zoom="31.775611"
     inkscape:cx="3.3108692"
     inkscape:cy="12.744623"
     inkscape:document-units="px"
     inkscape:current-layer="svg8"
     inkscape:document-rotation="0"
     showgrid="false"
     inkscape:showpageshadow="false"
     borderlayer="true"
     units="px"
     fit-margin-top="0"
     fit-margin-left="0"
     fit-margin-right="0"
     fit-margin-bottom="0"
     inkscape:window-width="1920"
     inkscape:window-height="1051"
     inkscape:window-x="0"
     inkscape:window-y="0"
     inkscape:window-maximized="1"
     inkscape:snap-page="true"
     guidecolor="#f4ff00"
     guideopacity="0.42745098"
     guidehicolor="#4fff00"
     guidehiopacity="0.49803922" />
  <metadata
     id="metadata5">
    <rdf:RDF>
      <cc:Work
         rdf:about="">
        <dc:format>image/svg+xml</dc:format>
        <dc:type
           rdf:resource="http://purl.org/dc/dcmitype/StillImage" />
        <dc:title></dc:title>
      </cc:Work>
    </rdf:RDF>
  </metadata>
  <g
     style="stroke-width:1"
     transform="scale(3.7795276)"
     inkscape:label="#mesh-gradient-fit"
     id="g4318">
    <rect
       style="vector-effect:none;fill:none;stroke-width:1.58677697;stroke-linecap:round"
       id="rect4264"
       width="5.8208332"
       height="5.8208332"
       x="-2.5704804e-08"
       y="-2.5704804e-08"
       inkscape:label="#boundary" />
    <path
       style="color:#000000;font-style:normal;font-variant:normal;font-weight:normal;font-stretch:normal;font-size:medium;line-height:normal;font-family:sans-serif;font-variant-ligatures:normal;font-variant-position:normal;font-variant-caps:normal;font-variant-numeric:normal;font-variant-alternates:normal;font-variant-east-asian:normal;font-feature-settings:normal;text-indent:0;text-align:start;text-decoration:none;text-decoration-line:none;text-decoration-style:solid;text-decoration-color:#000000;letter-spacing:normal;word-spacing:normal;text-transform:none;writing-mode:lr-tb;direction:ltr;text-orientation:mixed;dominant-baseline:auto;baseline-shift:baseline;text-anchor:start;white-space:normal;shape-padding:0;clip-rule:nonzero;display:inline;overflow:visible;visibility:visible;opacity:0.68000034;isolation:auto;mix-blend-mode:normal;color-interpolation:sRGB;color-interpolation-filters:linearRGB;solid-color:#000000;solid-opacity:1;vector-effect:none;fill:#d0d0d0;fill-opacity:1;fill-rule:nonzero;stroke:none;stroke-width:0.39687499;stroke-linecap:butt;stroke-linejoin:miter;stroke-miterlimit:4;stroke-dasharray:none;stroke-dashoffset:0;stroke-opacity:1;color-rendering:auto;image-rendering:auto;shape-rendering:auto;text-rendering:auto;enable-background:accumulate"
       d="M 2.0061414,0.72802657 C 1.7210109,0.72125387 1.4052099,0.79509936 1.05286,1.0042042 L 0.93279749,1.0752322 1.0049061,1.193491 c 0.3684584,0.6156405 0.223306,1.1219122 -0.00937,1.6736509 v 0.00143 C 0.8896021,3.1273095 0.7679895,3.3988666 0.7352199,3.7147801 0.7024502,4.0306937 0.7644879,4.3857979 1.0034654,4.7884834 L 1.0744934,4.907104 1.1945546,4.837519 C 1.5554544,4.6233386 1.8362204,4.5785621 2.09772,4.6056873 c 0.2610775,0.027082 0.5062458,0.1326578 0.7686825,0.2401232 0.5734794,0.241848 1.2184782,0.4117907 1.9227872,-0.00973 L 4.907809,4.7654099 4.8367831,4.6467894 C 4.622602,4.2858908 4.5781863,4.0047639 4.6053114,3.7432646 4.6323929,3.4821865 4.7390499,3.2370191 4.8465163,2.9745821 v -0.00108 C 5.088097,2.4003135 5.2580137,1.7556055 4.8367825,1.0517872 L 4.7661148,0.93353699 4.6474941,1.0042032 C 4.0318551,1.372662 3.5259443,1.2285911 2.9742053,0.99591161 v -0.001083 h -0.00143 C 2.7140342,0.88889895 2.4424771,0.76872807 2.1265634,0.73595852 c -0.039489,-0.004102 -0.07969,-0.006955 -0.1204217,-0.007938 z M 1.9152844,1.0103333 c 0.062981,-0.00566 0.1235704,-0.00539 0.1824359,7.219e-4 0.2493504,0.025865 0.4848495,0.1241166 0.73407,0.2264224 0.3049629,0.548434 0.2039143,1.0124038 0.00757,1.5038339 C 2.6172178,2.650355 2.3831133,2.5608978 2.1168288,2.5332763 1.8889378,2.5096373 1.6401937,2.5366001 1.3683371,2.6425217 1.4987755,2.2034448 1.5225466,1.7256241 1.28433,1.21945 1.5178461,1.0969957 1.7263426,1.0272706 1.9152844,1.0103333 Z M 4.622978,1.2836268 C 4.9128639,1.8381482 4.8163514,2.3130062 4.6099987,2.8170251 4.0560832,3.1362554 3.5894407,3.0401188 3.0960696,2.8447872 3.2740933,2.3925324 3.387382,1.8984497 3.1937777,1.3669126 3.6346038,1.4987953 4.1143346,1.5234899 4.622978,1.2836268 Z M 1.8875221,2.8029642 c 0.068761,-0.00359 0.1354485,-0.00135 0.2008236,0.0054 0.2196444,0.022783 0.4296061,0.1039512 0.6464576,0.1921702 -0.088716,0.2168161 -0.1753919,0.4454319 -0.2022659,0.70451 -0.023839,0.2298201 0.00427,0.4807819 0.11285,0.755342 C 2.4832286,4.4009796 2.3131689,4.3499508 2.1265634,4.3305937 1.8596077,4.3029024 1.5472126,4.3992938 1.2190713,4.5566555 1.0557992,4.2453023 0.98589149,3.9787263 1.0103157,3.7432657 1.0361614,3.4940993 1.1351648,3.2589397 1.237459,3.0099167 1.4846327,2.8717561 1.694972,2.8130051 1.8875221,2.8029642 Z m 1.1079552,0.2999734 c 0.4494186,0.1746211 0.9398361,0.2821304 1.4670584,0.087252 -0.06073,0.1638641 -0.1130956,0.3357793 -0.132681,0.5245932 -0.027692,0.2669701 0.07012,0.5793296 0.227504,0.9074919 C 4.0031238,4.9120105 3.5287701,4.8171462 3.025042,4.6110966 2.8243334,4.262926 2.7826207,3.9889289 2.8090756,3.7338905 2.8313104,3.5195354 2.9098832,3.3141751 2.9954773,3.1029376 Z"
       id="path4282"
       inkscape:connector-curvature="0"
       inkscape:label="#1" />
  </g>
</svg>
