<?xml version="1.0" encoding="UTF-8" standalone="no"?>
<svg
   xmlns:dc="http://purl.org/dc/elements/1.1/"
   xmlns:cc="http://creativecommons.org/ns#"
   xmlns:rdf="http://www.w3.org/1999/02/22-rdf-syntax-ns#"
   xmlns:svg="http://www.w3.org/2000/svg"
   xmlns="http://www.w3.org/2000/svg"
   xmlns:sodipodi="http://sodipodi.sourceforge.net/DTD/sodipodi-0.dtd"
   xmlns:inkscape="http://www.inkscape.org/namespaces/inkscape"
   height="22"
   viewBox="0 0 5.8208331 5.8208331"
   width="22"
   version="1.1"
   id="svg4"
   sodipodi:docname="mode5.svg"
   inkscape:version="0.92+devel (1c31310676, 2017-09-09, custom)">
  <metadata
     id="metadata10">
    <rdf:RDF>
      <cc:Work
         rdf:about="">
        <dc:format>image/svg+xml</dc:format>
        <dc:type
           rdf:resource="http://purl.org/dc/dcmitype/StillImage" />
        <dc:title></dc:title>
      </cc:Work>
    </rdf:RDF>
  </metadata>
  <defs
     id="defs8" />
  <sodipodi:namedview
     pagecolor="#002466"
     bordercolor="#ffffff"
     inkscape:document-rotation="0"
     borderopacity="0.13333333"
     objecttolerance="10"
     gridtolerance="10"
     guidetolerance="10"
     inkscape:pageopacity="0"
     inkscape:pageshadow="2"
     inkscape:window-width="1920"
     inkscape:window-height="1027"
     id="namedview6"
     showgrid="false"
     borderlayer="true"
     inkscape:showpageshadow="false"
     inkscape:zoom="22.96875"
     inkscape:cx="7.847619"
     inkscape:cy="8.0000002"
     inkscape:window-x="0"
     inkscape:window-y="24"
     inkscape:window-maximized="1"
     inkscape:current-layer="svg4" />
  <g
     id="g852"
     inkscape:label="#mode5"
     transform="scale(1.375)"
     style="stroke-width:0.72727275">
    <path
       id="path2"
       stroke-width=".25455"
       stroke-linecap="round"
       fill="none"
       d="M 0,0 H 4.2333332 V 4.2333332 H 0 Z"
       inkscape:connector-curvature="0" />
    <path
       inkscape:label="#"
       inkscape:connector-curvature="0"
       id="path846"
       d="M 1.2149599,1.0339985 0.52916665,1.429746 1.2149599,1.8257754 V 1.6479145 c 0.2380529,0.00116 0.3462592,0.060982 0.436055,0.1508012 0.090679,0.090702 0.1608985,0.2350583 0.2384633,0.4070225 0.077565,0.1719637 0.1634158,0.3720678 0.3345815,0.5378106 0.1711657,0.1657427 0.4283912,0.2748246 0.7649989,0.2748246 h 0.029315 V 3.1993348 L 3.7041666,2.8033055 3.0183734,2.407558 v 0.1775791 h -0.029314 c -0.252715,0 -0.3692236,-0.061585 -0.4633967,-0.1527744 C 2.4314889,2.3411733 2.3607714,2.1984893 2.2838164,2.0278773 2.2068613,1.857265 2.1238783,1.6593968 1.9576911,1.4931671 1.7925792,1.3280127 1.5412278,1.2163974 1.2149599,1.21496 Z"
       style="opacity:0.6;fill:#d0d0d0;stroke-width:0.72727275" />
    <path
       inkscape:label="#"
       inkscape:connector-curvature="0"
       id="path844"
       transform="scale(0.26458333)"
       d="m 11.408203,3.9082031 v 0.6835938 h -0.111328 c -1.272218,0 -2.2436995,0.4126337 -2.890625,1.0390625 -0.00461,0.00446 -0.0091,0.00917 -0.013672,0.013672 0.3915742,0.552722 0.6337313,1.1118288 0.8359375,1.5625 C 9.3282347,7.05647 9.4304135,6.9175233 9.5449219,6.8066406 9.9008513,6.4619855 10.341732,6.2265625 11.296875,6.2265625 h 0.111328 V 6.9003906 L 14,5.4042969 Z M 6.5449219,8.8105469 C 6.4488538,8.9590748 6.3487522,9.0926288 6.2402344,9.2011719 5.9008592,9.5406339 5.4914692,9.7632358 4.5917969,9.7675781 V 9.0996094 L 2,10.595703 4.5917969,12.091797 V 11.40625 c 1.2331374,-0.0054 2.182596,-0.424624 2.8066406,-1.048828 0.010507,-0.01055 0.019319,-0.02251 0.029297,-0.0332 C 7.0160735,9.805053 6.75422,9.2721255 6.5449219,8.8105469 Z"
       style="opacity:0.6;fill:#d0d0d0;stroke-width:2.74874735" />
  </g>
</svg>
