<?xml version="1.0" encoding="UTF-8" standalone="no"?>
<!-- Created with Inkscape (http://www.inkscape.org/) -->

<svg xmlns:dc="http://purl.org/dc/elements/1.1/" xmlns:cc="http://creativecommons.org/ns#" xmlns:rdf="http://www.w3.org/1999/02/22-rdf-syntax-ns#" xmlns:svg="http://www.w3.org/2000/svg" xmlns="http://www.w3.org/2000/svg" xmlns:sodipodi="http://sodipodi.sourceforge.net/DTD/sodipodi-0.dtd" xmlns:inkscape="http://www.inkscape.org/namespaces/inkscape" width="22.000002" height="22" viewBox="0 0 22.000002 22" version="1.1" id="main" inkscape:version="0.92+devel (8ef6761023, 2017-10-07, custom)" sodipodi:docname="newfunction.svg">
  <defs id="ol-defs" />
  <sodipodi:namedview id="base" pagecolor="#002466" bordercolor="#ffffff" borderopacity="0.30" inkscape:pageopacity="1" inkscape:pageshadow="2" inkscape:zoom="13.140625" inkscape:document-units="px" inkscape:current-layer="main" inkscape:document-rotation="0" showgrid="false" inkscape:showpageshadow="false" borderlayer="true" inkscape:window-width="1920" inkscape:window-height="1029" inkscape:window-x="0" inkscape:window-y="22" inkscape:window-maximized="1" units="px" inkscape:cx="6.7489002" inkscape:cy="8.0269055" />
  <metadata id="metadata5">
    <rdf:RDF>
      <cc:Work rdf:about="">
        <dc:format>image/svg+xml</dc:format>
        <dc:type rdf:resource="http://purl.org/dc/dcmitype/StillImage" />
        <dc:title></dc:title>
      </cc:Work>
    </rdf:RDF>
  </metadata>
  <g id="g865" inkscape:label="#newfunction" style="stroke:none;stroke-width:0.72727275" transform="scale(1.375)">
    <path style="fill:none;stroke:none;stroke-width:0.72727275" d="M -5.5000004e-8,-4.9999999e-8 H 16.000001 V 16 H -5.5000004e-8 Z" id="boundary" inkscape:label="#boundary" inkscape:connector-curvature="0" />
    <path inkscape:label="#" inkscape:connector-curvature="0" style="opacity:0.4;fill:#d0d0d0;stroke:none;stroke-width:0.65454537" d="M 7.5898438,2.0000001 6.2714844,4.2832032 h 0.8183594 v 3.658203 H 2 V 8.9414063 H 7.0898438 V 14 h 1 V 8.9414063 H 11.716797 V 9.7597657 L 14,8.4414063 11.716797,7.1230469 V 7.9414062 H 8.0898438 v -3.658203 h 0.8183593 z" id="rect811" />
    <path inkscape:label="#" inkscape:connector-curvature="0" style="color:#000000;font-style:normal;font-variant:normal;font-weight:normal;font-stretch:normal;font-size:medium;line-height:normal;font-family:sans-serif;font-variant-ligatures:normal;font-variant-position:normal;font-variant-caps:normal;font-variant-numeric:normal;font-variant-alternates:normal;font-variant-east-asian:normal;font-feature-settings:normal;font-variation-settings:normal;text-indent:0;text-align:start;text-decoration:none;text-decoration-line:none;text-decoration-style:solid;text-decoration-color:#000000;letter-spacing:normal;word-spacing:normal;text-transform:none;writing-mode:lr-tb;direction:ltr;text-orientation:mixed;dominant-baseline:auto;baseline-shift:baseline;text-anchor:start;white-space:normal;shape-padding:0;clip-rule:nonzero;display:inline;overflow:visible;visibility:visible;opacity:1;isolation:auto;mix-blend-mode:normal;color-interpolation:sRGB;color-interpolation-filters:linearRGB;solid-color:#000000;solid-opacity:1;vector-effect:none;fill:#00ff00;fill-opacity:1;fill-rule:nonzero;stroke:none;stroke-width:1.09090912;stroke-linecap:round;stroke-linejoin:miter;stroke-miterlimit:4;stroke-dasharray:none;stroke-dashoffset:0;stroke-opacity:1;color-rendering:auto;image-rendering:auto;shape-rendering:auto;text-rendering:auto;enable-background:accumulate" d="m 10.774889,4.4913379 a 0.49698675,0.46476205 0 0 0 -0.512518,0.4502382 c 0,0 -0.04882,1.3705009 -0.300263,2.6651199 C 9.8363828,8.2540052 9.652288,8.8826591 9.4392367,9.2660419 9.3327111,9.4577333 9.2203001,9.5807453 9.1493279,9.6279268 9.0783609,9.6751097 9.0761602,9.6771609 8.9953137,9.6569714 8.7533171,9.596546 8.5819277,9.439682 8.4038478,9.1341139 8.2257682,8.828549 8.0789822,8.3989955 7.9275688,7.9492162 7.7761556,7.4994361 7.6212613,7.0294051 7.359399,6.6154457 7.0975366,6.2014861 6.6735222,5.8235746 6.0858704,5.7403859 5.7254941,5.6893705 5.3650476,5.7904798 5.0944853,5.9727669 4.8239237,6.155054 4.6235433,6.403054 4.4538382,6.6808028 4.1144288,7.2363003 3.8926673,7.9336336 3.7264776,8.6318351 3.3940988,10.028239 3.3058512,11.434932 3.3058512,11.434932 a 0.49698675,0.46476205 0 0 0 0.4659251,0.491388 0.49698675,0.46476205 0 0 0 0.5254594,-0.435714 c 0,0 0.090301,-1.355869 0.3999193,-2.6566478 C 4.8519637,8.1835684 5.0672484,7.5487283 5.3158002,7.1419339 5.440076,6.9385368 5.5721307,6.7977147 5.6755973,6.7280052 5.7790651,6.6582962 5.8344594,6.6444962 5.9370336,6.6590172 6.1831831,6.6938622 6.3286664,6.8116517 6.5039086,7.08868 6.6791514,7.3657083 6.8286086,7.781162 6.9788934,8.2275889 7.1291789,8.6740164 7.2820295,9.1513908 7.5315327,9.5795142 7.7810353,10.007637 8.1662941,10.412015 8.7390548,10.55503 9.0837484,10.6411 9.4600177,10.56193 9.7252634,10.385586 9.9905081,10.209252 10.171214,9.9656626 10.321906,9.6944943 10.623289,9.1521585 10.805904,8.4669573 10.940552,7.7737201 11.209843,6.387245 11.256344,4.9706237 11.256344,4.9706237 A 0.49698675,0.46476205 0 0 0 10.774889,4.4913379 Z" id="path817" />
  </g>
</svg>
