<?xml version="1.0" encoding="UTF-8" standalone="no"?>
<!-- Created with Inkscape (http://www.inkscape.org/) -->

<svg
   xmlns:dc="http://purl.org/dc/elements/1.1/"
   xmlns:cc="http://creativecommons.org/ns#"
   xmlns:rdf="http://www.w3.org/1999/02/22-rdf-syntax-ns#"
   xmlns:svg="http://www.w3.org/2000/svg"
   xmlns="http://www.w3.org/2000/svg"
   xmlns:sodipodi="http://sodipodi.sourceforge.net/DTD/sodipodi-0.dtd"
   xmlns:inkscape="http://www.inkscape.org/namespaces/inkscape"
   width="22.000002"
   height="22"
   viewBox="0 0 22.000002 22"
   version="1.1"
   id="main"
   inkscape:version="0.92+devel (9cbd9e9661, 2017-09-28, custom)"
   sodipodi:docname="nextfuzzy.svg">
  <defs
     id="ol-defs" />
  <sodipodi:namedview
     id="base"
     pagecolor="#002466"
     bordercolor="#ffffff"
     borderopacity="0.30"
     inkscape:pageopacity="1"
     inkscape:pageshadow="0"
     inkscape:zoom="19.159091"
     inkscape:document-units="px"
     inkscape:current-layer="main"
     inkscape:document-rotation="0"
     showgrid="false"
     inkscape:showpageshadow="false"
     borderlayer="true"
     inkscape:window-width="1920"
     inkscape:window-height="1027"
     inkscape:window-x="0"
     inkscape:window-y="24"
     inkscape:window-maximized="1"
     units="px"
     inkscape:cx="10.921709"
     inkscape:cy="11" />
  <metadata
     id="metadata5">
    <rdf:RDF>
      <cc:Work
         rdf:about="">
        <dc:format>image/svg+xml</dc:format>
        <dc:type
           rdf:resource="http://purl.org/dc/dcmitype/StillImage" />
        <dc:title></dc:title>
      </cc:Work>
    </rdf:RDF>
  </metadata>
  <g
     id="g830"
     inkscape:label="#nextfuzzy"
     style="stroke:none"
     transform="matrix(0.72727273,0,0,0.72727273,3.0000006,3)">
    <path
       style="fill:none;stroke:none;stroke-width:1"
       d="M 0,0 H 22.000001 V 22 H 0 Z"
       id="boundary"
       inkscape:label="#boundary"
       inkscape:connector-curvature="0" />
    <path
       inkscape:label="#"
       style="opacity:0.6;stroke:none"
       inkscape:connector-curvature="0"
       d="M 7.6666667,3 C 6.3703736,3 5.1599975,3.454585 4.3072905,4.307292 c -0.852706,0.852706 -1.30729,2.0630811 -1.30729,3.359375 h 2.666665 c 0,-0.7036999 0.212081,-1.1599989 0.5260431,-1.4739589 0.313961,-0.3139621 0.7702577,-0.526041 1.4739581,-0.526041 0.7037069,0 1.1599971,0.21208 1.47396,0.526041 C 9.4545845,6.50667 9.666666,6.9629671 9.666666,7.666667 9.666666,8.27778 9.546202,8.537763 9.3854165,8.768229 9.2246354,8.99869 8.9612376,9.216326 8.5690107,9.490886 8.1767765,9.765446 7.6557583,10.081736 7.1744783,10.643229 6.6931985,11.204723 6.3333345,12.05556 6.3333345,13 v 0.666667 h 2.666666 V 13 c 0,-0.388887 0.055462,-0.454723 0.1992073,-0.622396 0.1437207,-0.167671 0.4573302,-0.393056 0.8984352,-0.701823 0.441101,-0.308772 1.011047,-0.716137 1.475261,-1.38151 0.464214,-0.665374 0.760416,-1.572044 0.760416,-2.627604 0,-1.2962939 -0.454578,-2.5066679 -1.307291,-3.359375 C 10.173322,3.454585 8.962954,3 7.6666536,3 Z M 6.3333345,16.333334 V 19 h 2.666666 v -2.666666 z"
       fill="#d0d0d0"
       stroke-linecap="round"
       stroke-linejoin="round"
       stroke-width=".529167"
       id="path835" />
    <path
       inkscape:connector-curvature="0"
       inkscape:label="#"
       id="path814"
       d="m 11.745015,14.974322 2.451054,2e-6 1e-6,-1.509635 4.803931,2.768506 L 14.196046,19 v -1.509633 h -2.451055 z"
       style="opacity:1;fill:#00ff00;stroke:none;stroke-width:1.36181808" />
    <path
       inkscape:label="#"
       inkscape:connector-curvature="0"
       id="path818"
       d="M 0,0 V 20.759766 22 H 20.759766 22 V 20.759766 0 H 20.759766 V 20.759766 H 1.2402344 V 0 Z"
       style="opacity:0.6;fill:#d0d0d0;stroke:none;stroke-width:1.57779789;stroke-linecap:round;stroke-dashoffset:0.15256613" />
  </g>
</svg>
