<?xml version="1.0" encoding="UTF-8" standalone="no"?>
<!-- Created with Inkscape (http://www.inkscape.org/) -->

<svg
   xmlns:dc="http://purl.org/dc/elements/1.1/"
   xmlns:cc="http://creativecommons.org/ns#"
   xmlns:rdf="http://www.w3.org/1999/02/22-rdf-syntax-ns#"
   xmlns:svg="http://www.w3.org/2000/svg"
   xmlns="http://www.w3.org/2000/svg"
   xmlns:xlink="http://www.w3.org/1999/xlink"
   xmlns:sodipodi="http://sodipodi.sourceforge.net/DTD/sodipodi-0.dtd"
   xmlns:inkscape="http://www.inkscape.org/namespaces/inkscape"
   width="22"
   height="22"
   viewBox="0 0 22 22"
   version="1.1"
   id="svg8"
   inkscape:version="0.92+devel 15740 custom"
   sodipodi:docname="object-tweak-blur.svg">
  <defs
     id="ol-defs">
    <linearGradient
       gradientUnits="userSpaceOnUse"
       id="linearGradient8495">
      <stop
         id="stop8491"
         offset="0"
         style="stop-color:#d0d0d0;stop-opacity:0.62004614" />
      <stop
         id="stop8493"
         offset="1"
         style="stop-color:#d0d0d0;stop-opacity:0" />
    </linearGradient>
    <linearGradient
       gradientUnits="userSpaceOnUse"
       id="linearGradient8489">
      <stop
         id="stop8485"
         offset="0"
         style="stop-color:#d0d0d0;stop-opacity:0.53333336" />
      <stop
         id="stop8487"
         offset="1"
         style="stop-color:#d0d0d0;stop-opacity:0" />
    </linearGradient>
    <style
       id="current-color-scheme">      .ColorScheme-Text {
        color:#d0d0d0;
        stop-color:#d0d0d0;
      }
      .ColorScheme-Background {
        color:#212121;
        stop-color:#212121;
      }
      .ColorScheme-Highlight {
        color:#0039a9;
        stop-color:#0039a9;
      }
      .ColorScheme-ViewText {
        color:#d0d0d0;
        stop-color:#d0d0d0;
      }
      .ColorScheme-ViewBackground {
        color:#19191b;
        stop-color:#19191b;
      }
      .ColorScheme-ViewHover {
        color:#005cc7;
        stop-color:#005cc7;
      }
      .ColorScheme-ViewFocus{
        color:#002466;
        stop-color:#002466;
      }
      .ColorScheme-ButtonText {
        color:#d0d0d0;
        stop-color:#d0d0d0;
      }
      .ColorScheme-ButtonBackground {
        color:#232323;
        stop-color:#232323;                             
      }                                                 
      .ColorScheme-ButtonHover {                        
        color:#005cc7;                                  
        stop-color:#005cc7;                             
      }                                                 
      .ColorScheme-ButtonFocus{                         
        color:#0039a9;                                  
        stop-color:#0039a9;                             
      }</style>
    <style
       id="current-color-scheme-7">      .ColorScheme-Text {
        color:#d0d0d0;
        stop-color:#d0d0d0;
      }
      .ColorScheme-Background {
        color:#212121;
        stop-color:#212121;
      }
      .ColorScheme-Highlight {
        color:#0039a9;
        stop-color:#0039a9;
      }
      .ColorScheme-ViewText {
        color:#d0d0d0;
        stop-color:#d0d0d0;
      }
      .ColorScheme-ViewBackground {
        color:#19191b;
        stop-color:#19191b;
      }
      .ColorScheme-ViewHover {
        color:#005cc7;
        stop-color:#005cc7;
      }
      .ColorScheme-ViewFocus{
        color:#002466;
        stop-color:#002466;
      }
      .ColorScheme-ButtonText {
        color:#d0d0d0;
        stop-color:#d0d0d0;
      }
      .ColorScheme-ButtonBackground {
        color:#232323;
        stop-color:#232323;                             
      }                                                 
      .ColorScheme-ButtonHover {                        
        color:#005cc7;                                  
        stop-color:#005cc7;                             
      }                                                 
      .ColorScheme-ButtonFocus{                         
        color:#0039a9;                                  
        stop-color:#0039a9;                             
      }</style>
    <style
       type="text/css"
       id="current-color-scheme-6">
      .ColorScheme-Text {
        color:#f2f2f2;
      }
      </style>
    <radialGradient
       xlink:href="#linearGradient8489"
       gradientUnits="userSpaceOnUse"
       r="1.111868"
       fy="137.9821"
       fx="375.09409"
       cy="137.9821"
       cx="375.09409"
       id="radialBlackTransparent"
       inkscape:collect="always"
       gradientTransform="matrix(5.3963238,0,0,5.3963238,-2016.1291,-736.5961)" />
    <linearGradient
       id="BlackTransparent"
       gradientUnits="userSpaceOnUse">
      <stop
         style="stop-color:black;stop-opacity:1"
         offset="0"
         id="stop12" />
      <stop
         style="stop-color:black;stop-opacity:0"
         offset="1"
         id="stop14" />
    </linearGradient>
    <radialGradient
       xlink:href="#BlackTransparent"
       gradientUnits="userSpaceOnUse"
       r="1.111868"
       fy="137.9821"
       fx="375.09409"
       cy="137.9821"
       cx="375.09409"
       id="radialGradient8224"
       inkscape:collect="always" />
    <radialGradient
       xlink:href="#BlackTransparent"
       gradientUnits="userSpaceOnUse"
       r="1.111868"
       fy="137.9821"
       fx="375.09409"
       cy="137.9821"
       cx="375.09409"
       id="radialGradient8232"
       inkscape:collect="always" />
    <radialGradient
       xlink:href="#BlackTransparent"
       gradientUnits="userSpaceOnUse"
       r="1.111868"
       fy="137.9821"
       fx="375.09409"
       cy="137.9821"
       cx="375.09409"
       id="radialGradient8240"
       inkscape:collect="always" />
    <radialGradient
       xlink:href="#BlackTransparent"
       gradientUnits="userSpaceOnUse"
       r="1.111868"
       fy="137.9821"
       fx="375.09409"
       cy="137.9821"
       cx="375.09409"
       id="radialGradient8248"
       inkscape:collect="always" />
    <radialGradient
       xlink:href="#BlackTransparent"
       gradientUnits="userSpaceOnUse"
       r="1.111868"
       fy="137.9821"
       fx="375.09409"
       cy="137.9821"
       cx="375.09409"
       id="radialGradient8256"
       inkscape:collect="always" />
    <radialGradient
       xlink:href="#BlackTransparent"
       gradientUnits="userSpaceOnUse"
       r="1.111868"
       fy="137.9821"
       fx="375.09409"
       cy="137.9821"
       cx="375.09409"
       id="radialGradient8264"
       inkscape:collect="always" />
    <radialGradient
       xlink:href="#BlackTransparent"
       gradientUnits="userSpaceOnUse"
       r="1.111868"
       fy="137.9821"
       fx="375.09409"
       cy="137.9821"
       cx="375.09409"
       id="radialGradient8272"
       inkscape:collect="always" />
    <radialGradient
       xlink:href="#BlackTransparent"
       gradientUnits="userSpaceOnUse"
       r="1.111868"
       fy="137.9821"
       fx="375.09409"
       cy="137.9821"
       cx="375.09409"
       id="radialGradient8280"
       inkscape:collect="always" />
    <radialGradient
       r="1.111868"
       fy="137.9821"
       fx="375.09409"
       cy="137.9821"
       cx="375.09409"
       gradientUnits="userSpaceOnUse"
       id="radialGradient8314"
       xlink:href="#linearGradient8495"
       inkscape:collect="always"
       gradientTransform="matrix(0.97482555,0,0,0.97482555,-369.33287,-132.76588)" />
    <radialGradient
       r="1.111868"
       fy="137.9821"
       fx="375.09409"
       cy="137.9821"
       cx="375.09409"
       gradientUnits="userSpaceOnUse"
       id="radialGradient8316"
       xlink:href="#linearGradient8495"
       inkscape:collect="always"
       gradientTransform="matrix(0.97482555,0,0,0.97482555,-369.33217,-126.71109)" />
    <radialGradient
       r="1.111868"
       fy="137.9821"
       fx="375.09409"
       cy="137.9821"
       cx="375.09409"
       gradientUnits="userSpaceOnUse"
       id="radialGradient8318"
       xlink:href="#linearGradient8495"
       inkscape:collect="always"
       gradientTransform="matrix(0.97482555,0,0,0.97482555,-366.37887,-132.76591)" />
    <radialGradient
       r="1.111868"
       fy="137.9821"
       fx="375.09409"
       cy="137.9821"
       cx="375.09409"
       gradientUnits="userSpaceOnUse"
       id="radialGradient8320"
       xlink:href="#linearGradient8495"
       inkscape:collect="always"
       gradientTransform="matrix(0.97482555,0,0,0.97482555,-363.42507,-132.76589)" />
    <radialGradient
       r="1.111868"
       fy="137.9821"
       fx="375.09409"
       cy="137.9821"
       cx="375.09409"
       gradientUnits="userSpaceOnUse"
       id="radialGradient8322"
       xlink:href="#linearGradient8495"
       inkscape:collect="always"
       gradientTransform="matrix(0.97482555,0,0,0.97482555,-369.33297,-129.73854)" />
    <radialGradient
       r="1.111868"
       fy="137.9821"
       fx="375.09409"
       cy="137.9821"
       cx="375.09409"
       gradientUnits="userSpaceOnUse"
       id="radialGradient8324"
       xlink:href="#linearGradient8495"
       inkscape:collect="always"
       gradientTransform="matrix(0.97483338,0,0,0.97483338,-366.38102,-126.71192)" />
    <radialGradient
       r="1.111868"
       fy="137.9821"
       fx="375.09409"
       cy="137.9821"
       cx="375.09409"
       gradientUnits="userSpaceOnUse"
       id="radialGradient8326"
       xlink:href="#linearGradient8495"
       inkscape:collect="always"
       gradientTransform="matrix(0.97482555,0,0,0.97482555,-363.42487,-129.73848)" />
    <radialGradient
       r="1.111868"
       fy="137.9821"
       fx="375.09409"
       cy="137.9821"
       cx="375.09409"
       gradientUnits="userSpaceOnUse"
       id="radialGradient8328"
       xlink:href="#linearGradient8495"
       inkscape:collect="always"
       gradientTransform="matrix(0.979344,0,0,0.979344,-365.11978,-127.33458)" />
  </defs>
  <sodipodi:namedview
     id="base"
     pagecolor="#002266"
     bordercolor="#ffffff"
     borderopacity="0.46666667"
     inkscape:pageopacity="0"
     inkscape:pageshadow="2"
     inkscape:zoom="22.46875"
     inkscape:cx="8"
     inkscape:cy="12.744623"
     inkscape:document-units="px"
     inkscape:current-layer="svg8"
     inkscape:document-rotation="0"
     showgrid="false"
     inkscape:showpageshadow="false"
     borderlayer="true"
     units="px"
     fit-margin-top="0"
     fit-margin-left="0"
     fit-margin-right="0"
     fit-margin-bottom="0"
     inkscape:window-width="1920"
     inkscape:window-height="1051"
     inkscape:window-x="0"
     inkscape:window-y="0"
     inkscape:window-maximized="1"
     inkscape:snap-page="true"
     guidecolor="#f4ff00"
     guideopacity="0.42745098"
     guidehicolor="#4fff00"
     guidehiopacity="0.49803922" />
  <metadata
     id="metadata5">
    <rdf:RDF>
      <cc:Work
         rdf:about="">
        <dc:format>image/svg+xml</dc:format>
        <dc:type
           rdf:resource="http://purl.org/dc/dcmitype/StillImage" />
        <dc:title></dc:title>
      </cc:Work>
    </rdf:RDF>
  </metadata>
  <g
     id="g8510"
     inkscape:label="#object-tweak-blur"
     transform="scale(1.375)">
    <rect
       inkscape:label="#boundary"
       y="0"
       x="0"
       height="16"
       width="16"
       id="rect4264"
       style="vector-effect:none;fill:none;stroke-width:2.18181825;stroke-linecap:round" />
    <g
       transform="matrix(0.79910851,0,0,0.79910851,8.5794656,4.1862715)"
       inkscape:label="#3"
       style="opacity:0.63440863"
       id="g8483">
      <circle
         r="1.0838773"
         cy="1.7425905"
         cx="-3.6815886"
         style="color:#000000;fill:url(#radialGradient8314);stroke-width:0.27037555"
         id="use7678"
         inkscape:tile-x0="373.9822"
         inkscape:tile-y0="136.8702" />
      <circle
         r="1.0838773"
         cy="7.7973804"
         cx="-3.6808887"
         style="color:#000000;fill:url(#radialGradient8316);fill-opacity:1;stroke-width:0.27037555"
         id="use7680"
         inkscape:tile-x0="373.9822"
         inkscape:tile-y0="136.8702" />
      <circle
         r="1.0838773"
         cy="1.7425605"
         cx="-0.72758859"
         style="color:#000000;fill:url(#radialGradient8318);fill-opacity:1;stroke-width:0.27037555"
         id="use7682"
         inkscape:tile-x0="373.9822"
         inkscape:tile-y0="136.8702" />
      <circle
         r="1.0838773"
         cy="1.7425805"
         cx="2.2262113"
         style="color:#000000;fill:url(#radialGradient8320);fill-opacity:1;stroke-width:0.27037555"
         id="use7684"
         inkscape:tile-x0="373.9822"
         inkscape:tile-y0="136.8702" />
      <circle
         r="1.0838773"
         cy="4.7699304"
         cx="-3.6816885"
         style="color:#000000;fill:url(#radialGradient8322);fill-opacity:1;stroke-width:0.27037555"
         id="use7686"
         inkscape:tile-x0="373.9822"
         inkscape:tile-y0="136.8702" />
      <circle
         r="1.083886"
         cy="7.7976365"
         cx="-0.72678745"
         style="color:#000000;fill:url(#radialGradient8324);fill-opacity:1;stroke-width:0.27037776"
         id="use7688"
         inkscape:tile-x0="373.9822"
         inkscape:tile-y0="136.8702" />
      <circle
         r="1.0838773"
         cy="4.7699904"
         cx="2.2264113"
         style="color:#000000;fill:url(#radialGradient8326);fill-opacity:1;stroke-width:0.27037555"
         id="use7692"
         inkscape:tile-x0="373.9822"
         inkscape:tile-y0="136.8702" />
      <circle
         r="1.0889013"
         cy="7.7973733"
         cx="2.2263844"
         style="color:#000000;fill:url(#radialGradient8328);fill-opacity:1;stroke-width:0.27162883"
         id="use7694"
         inkscape:tile-x0="373.9822"
         inkscape:tile-y0="136.8702" />
    </g>
    <path
       inkscape:label="#2"
       inkscape:connector-curvature="0"
       id="path7657"
       d="M 3.2794852,2.4585254 A 0.70286493,0.70286493 0 0 0 2.5755829,3.1608669 0.70286493,0.70286493 0 0 0 3.2794852,3.8647692 0.70286493,0.70286493 0 0 0 3.9818266,3.1608669 0.70286493,0.70286493 0 0 0 3.2794852,2.4585254 Z m 9.4410298,0 a 0.70286493,0.70286493 0 0 0 -0.702342,0.7023415 0.70286493,0.70286493 0 0 0 0.702342,0.7039023 0.70286493,0.70286493 0 0 0 0.703902,-0.7039023 0.70286493,0.70286493 0 0 0 -0.703902,-0.7023415 z m -7.0811625,0.00936 A 0.69307436,0.69307436 0 0 0 4.9463756,3.1608672 0.69307436,0.69307436 0 0 0 5.6393525,3.8538441 0.69307436,0.69307436 0 0 0 6.3323294,3.1608672 0.69307436,0.69307436 0 0 0 5.6393525,2.4678902 Z m 4.7212955,0 A 0.69307846,0.69307846 0 0 0 9.6676709,3.1608669 0.69307846,0.69307846 0 0 0 10.360648,3.8538438 0.69307846,0.69307846 0 0 0 11.053625,3.1608669 0.69307846,0.69307846 0 0 0 10.360648,2.4678902 Z M 8.0007805,2.5131525 A 0.64807495,0.64807495 0 0 0 7.3515049,3.1608674 0.64807495,0.64807495 0 0 0 8.0007805,3.8085823 0.64807495,0.64807495 0 0 0 8.6484954,3.1608669 0.64807495,0.64807495 0 0 0 8.0007805,2.5131525 Z M 3.2794852,4.8917484 A 0.68894365,0.68894365 0 0 0 2.5896298,5.580043 0.68894365,0.68894365 0 0 0 3.2794852,6.2698985 0.68894365,0.68894365 0 0 0 3.9677798,5.580043 0.68894365,0.68894365 0 0 0 3.2794852,4.8917484 Z m 9.4410298,0 A 0.68819394,0.68819394 0 0 0 12.03222,5.580043 0.68819394,0.68819394 0 0 0 12.720515,6.2683377 0.68819394,0.68819394 0 0 0 13.40881,5.580043 0.68819394,0.68819394 0 0 0 12.720515,4.8917484 Z M 3.2794852,7.3624296 A 0.63740121,0.63740121 0 0 0 2.6411348,7.9992192 0.63740121,0.63740121 0 0 0 3.2794852,8.6375695 0.63740121,0.63740121 0 0 0 3.9162748,7.9992192 0.63740121,0.63740121 0 0 0 3.2794852,7.3624296 Z m 9.4410298,0.00312 A 0.63435353,0.63435353 0 0 0 12.086847,7.9992192 0.63435353,0.63435353 0 0 0 12.720515,8.6344485 0.63435353,0.63435353 0 0 0 13.355743,7.9992192 0.63435353,0.63435353 0 0 0 12.720515,7.3655511 Z M 3.2794852,9.7285395 A 0.690777,0.690777 0 0 0 2.588069,10.418396 0.690777,0.690777 0 0 0 3.2794852,11.109812 0.690777,0.690777 0 0 0 3.9693405,10.418396 0.690777,0.690777 0 0 0 3.2794852,9.7285395 Z m 9.4410298,0.0016 A 0.68902762,0.68902762 0 0 0 12.03222,10.418437 0.68902762,0.68902762 0 0 0 12.720515,11.108292 0.68902762,0.68902762 0 0 0 13.41037,10.418437 0.68902762,0.68902762 0 0 0 12.720515,9.7301415 Z M 3.2794852,12.135232 a 0.70286493,0.70286493 0 0 0 -0.7039023,0.70234 0.70286493,0.70286493 0 0 0 0.7039023,0.703902 0.70286493,0.70286493 0 0 0 0.7023414,-0.703902 0.70286493,0.70286493 0 0 0 -0.7023414,-0.70234 z m 9.4410298,0 a 0.70286493,0.70286493 0 0 0 -0.702342,0.702341 0.70286493,0.70286493 0 0 0 0.702342,0.703902 0.70286493,0.70286493 0 0 0 0.703902,-0.703902 0.70286493,0.70286493 0 0 0 -0.703902,-0.702341 z m -7.0811625,0.0062 A 0.69568071,0.69568071 0 0 0 4.943254,12.83753 0.69568071,0.69568071 0 0 0 5.6393525,13.533627 0.69568071,0.69568071 0 0 0 6.3354509,12.83753 0.69568071,0.69568071 0 0 0 5.6393525,12.141432 Z m 4.7212955,0.0015 a 0.69472062,0.69472062 0 0 0 -0.6945378,0.694587 0.69472062,0.69472062 0 0 0 0.6945378,0.694537 0.69472062,0.69472062 0 0 0 0.694537,-0.694537 0.69472062,0.69472062 0 0 0 -0.694537,-0.694537 z m -2.3598675,0.04058 A 0.65381871,0.65381871 0 0 0 7.3468226,12.83747 0.65381871,0.65381871 0 0 0 8.0007805,13.491428 0.65381871,0.65381871 0 0 0 8.6547384,12.83747 0.65381871,0.65381871 0 0 0 8.0007805,12.183512 Z"
       style="color:#000000;opacity:0.6;fill:#d0d0d0;stroke:none;stroke-width:0.17533121" />
    <circle
       inkscape:label="#1"
       inkscape:tile-y0="136.8702"
       inkscape:tile-x0="373.9822"
       id="use7690"
       style="color:#000000;fill:url(#radialBlackTransparent);stroke-width:1.49671316"
       cx="8"
       cy="8"
       r="6" />
  </g>
</svg>
