<?xml version="1.0" encoding="UTF-8" standalone="no"?>
<!-- Created with Inkscape (http://www.inkscape.org/) -->

<svg
   xmlns:dc="http://purl.org/dc/elements/1.1/"
   xmlns:cc="http://creativecommons.org/ns#"
   xmlns:rdf="http://www.w3.org/1999/02/22-rdf-syntax-ns#"
   xmlns:svg="http://www.w3.org/2000/svg"
   xmlns="http://www.w3.org/2000/svg"
   xmlns:sodipodi="http://sodipodi.sourceforge.net/DTD/sodipodi-0.dtd"
   xmlns:inkscape="http://www.inkscape.org/namespaces/inkscape"
   width="22"
   height="22"
   viewBox="0 0 5.8208331 5.8208336"
   version="1.1"
   id="svg8"
   inkscape:version="0.92+devel 15740 custom"
   sodipodi:docname="oject-tweak-push.svg">
  <defs
     id="defs2" />
  <sodipodi:namedview
     id="base"
     pagecolor="#002466"
     bordercolor="#ffffff"
     borderopacity="0.32156863"
     inkscape:pageopacity="1"
     inkscape:pageshadow="2"
     inkscape:zoom="19.090909"
     inkscape:cx="11"
     inkscape:cy="11"
     inkscape:document-units="px"
     inkscape:current-layer="svg8"
     inkscape:document-rotation="0"
     showgrid="false"
     units="px"
     inkscape:pagecheckerboard="false"
     borderlayer="true"
     inkscape:showpageshadow="false"
     inkscape:window-width="1920"
     inkscape:window-height="1051"
     inkscape:window-x="0"
     inkscape:window-y="0"
     inkscape:window-maximized="1" />
  <metadata
     id="metadata5">
    <rdf:RDF>
      <cc:Work
         rdf:about="">
        <dc:format>image/svg+xml</dc:format>
        <dc:type
           rdf:resource="http://purl.org/dc/dcmitype/StillImage" />
        <dc:title></dc:title>
        <cc:license
           rdf:resource="http://creativecommons.org/licenses/by/4.0/" />
        <dc:creator>
          <cc:Agent>
            <dc:title>PixelPimps &amp; CodePoets</dc:title>
          </cc:Agent>
        </dc:creator>
      </cc:Work>
      <cc:License
         rdf:about="http://creativecommons.org/licenses/by/4.0/">
        <cc:permits
           rdf:resource="http://creativecommons.org/ns#Reproduction" />
        <cc:permits
           rdf:resource="http://creativecommons.org/ns#Distribution" />
        <cc:requires
           rdf:resource="http://creativecommons.org/ns#Notice" />
        <cc:requires
           rdf:resource="http://creativecommons.org/ns#Attribution" />
        <cc:permits
           rdf:resource="http://creativecommons.org/ns#DerivativeWorks" />
      </cc:License>
    </rdf:RDF>
  </metadata>
  <g
     id="g8366"
     inkscape:label="#object-tweak-push"
     transform="scale(1.3750001)"
     style="stroke-width:0.72727269">
    <rect
       inkscape:label="#boundary"
       style="fill:none;stroke-width:0.19242422"
       id="rect4991"
       width="4.2333331"
       height="4.2333331"
       x="1.1959533e-07"
       y="1.1959533e-07" />
    <path
       inkscape:label="#!"
       inkscape:connector-curvature="0"
       id="path5011"
       d="M 2.1382959,0.59270363 A 0.20648512,0.20648512 0 0 0 1.9314658,0.79908308 0.20648512,0.20648512 0 0 0 1.9823844,0.9342663 0.20648512,0.20648512 0 0 0 1.9463358,1.0500731 0.20648512,0.20648512 0 0 0 2.0846733,1.2447368 0.20648512,0.20648512 0 0 0 1.9562494,1.4357955 0.20648512,0.20648512 0 0 0 2.1626289,1.642175 0.20648512,0.20648512 0 0 0 2.3690084,1.4357955 0.20648512,0.20648512 0 0 0 2.2311217,1.2411319 0.20648512,0.20648512 0 0 0 2.3595455,1.0500731 0.20648512,0.20648512 0 0 0 2.3090772,0.91534055 0.20648512,0.20648512 0 0 0 2.3446755,0.79908308 0.20648512,0.20648512 0 0 0 2.1382959,0.59270363 Z m 0.6777179,0.007656 A 0.20648512,0.20648512 0 0 0 2.6096343,0.80674277 0.20648512,0.20648512 0 0 0 2.7132747,0.98563511 0.20648512,0.20648512 0 0 0 2.6208995,1.1573175 0.20648512,0.20648512 0 0 0 2.7732058,1.3564875 0.20648512,0.20648512 0 0 0 2.6272081,1.5538546 0.20648512,0.20648512 0 0 0 2.8340382,1.7602342 0.20648512,0.20648512 0 0 0 3.0404177,1.5538553 0.20648512,0.20648512 0 0 0 2.8876608,1.3546856 0.20648512,0.20648512 0 0 0 3.0336585,1.1573183 0.20648512,0.20648512 0 0 0 2.9304688,0.97887661 0.20648512,0.20648512 0 0 0 3.0223933,0.80674346 0.20648512,0.20648512 0 0 0 2.8160138,0.600364 Z m -1.3612936,0.009914 A 0.20648512,0.20648512 0 0 0 1.2483407,0.8166526 0.20648512,0.20648512 0 0 0 1.351981,0.99554501 0.20648512,0.20648512 0 0 0 1.2587047,1.1681288 0.20648512,0.20648512 0 0 0 1.4655348,1.3745082 0.20648512,0.20648512 0 0 0 1.6719144,1.1681326 0.20648512,0.20648512 0 0 0 1.568274,0.98878971 0.20648512,0.20648512 0 0 0 1.6610997,0.81665644 0.20648512,0.20648512 0 0 0 1.4547202,0.61027707 Z M 0.77159501,0.72022581 A 0.24270579,0.24270579 0 0 0 0.5291667,0.96265411 0.24270579,0.24270579 0 0 0 0.77159501,1.2055332 0.24270579,0.24270579 0 0 0 1.0144739,0.96265411 0.24270579,0.24270579 0 0 0 0.77159501,0.72022581 Z M 3.4937317,0.75402221 A 0.20648512,0.20648512 0 0 0 3.2869016,0.96040171 0.20648512,0.20648512 0 0 0 3.4937317,1.1672317 0.20648512,0.20648512 0 0 0 3.7001112,0.96040171 0.20648512,0.20648512 0 0 0 3.4937317,0.75402221 Z M 0.77159501,1.312779 A 0.20648512,0.20648512 0 0 0 0.56521548,1.5191584 0.20648512,0.20648512 0 0 0 0.77159501,1.7255379 0.20648512,0.20648512 0 0 0 0.97842513,1.5191584 0.20648512,0.20648512 0 0 0 0.77159501,1.312779 Z M 3.4959847,1.340266 A 0.20648512,0.20648512 0 0 0 3.2896052,1.5466451 0.20648512,0.20648512 0 0 0 3.4959847,1.7530248 0.20648512,0.20648512 0 0 0 3.7023642,1.5466451 0.20648512,0.20648512 0 0 0 3.4959847,1.340266 Z M 1.4718434,1.3830739 A 0.20648512,0.20648512 0 0 0 1.2654638,1.5894534 0.20648512,0.20648512 0 0 0 1.4718434,1.7958331 0.20648512,0.20648512 0 0 0 1.6782229,1.5894534 0.20648512,0.20648512 0 0 0 1.4718434,1.3830739 Z m 0.680872,0.4866592 A 0.20648512,0.20648512 0 0 0 1.946336,2.0765634 0.20648512,0.20648512 0 0 0 2.1527154,2.2829428 0.20648512,0.20648512 0 0 0 2.3590949,2.0765634 0.20648512,0.20648512 0 0 0 2.1527154,1.8697331 Z M 0.77339745,1.9305653 A 0.20648512,0.20648512 0 0 0 0.56701796,2.1369448 0.20648512,0.20648512 0 0 0 0.77339745,2.3433244 0.20648512,0.20648512 0 0 0 0.97977697,2.1369448 0.20648512,0.20648512 0 0 0 0.77339745,1.9305653 Z m 2.72438975,0.02163 A 0.20648512,0.20648512 0 0 0 3.2914076,2.1585743 0.20648512,0.20648512 0 0 0 3.4977872,2.364954 0.20648512,0.20648512 0 0 0 3.7041667,2.1585743 0.20648512,0.20648512 0 0 0 3.4977872,1.9521953 Z M 2.8254766,2.1225254 A 0.20648512,0.20648512 0 0 0 2.6190972,2.3289052 0.20648512,0.20648512 0 0 0 2.8254766,2.5352846 0.20648512,0.20648512 0 0 0 3.0318561,2.3289052 0.20648512,0.20648512 0 0 0 2.8254766,2.1225254 Z m -1.3617443,0.012618 a 0.20648512,0.20648512 0 0 0 -0.2068301,0.2063795 0.20648512,0.20648512 0 0 0 0.2068301,0.20683 0.20648512,0.20648512 0 0 0 0.2063795,-0.20683 0.20648512,0.20648512 0 0 0 -0.2063795,-0.2063795 z m 2.0309006,0.4465543 a 0.20648512,0.20648512 0 0 0 -0.2063795,0.20683 0.20648512,0.20648512 0 0 0 0.2063795,0.2063795 0.20648512,0.20648512 0 0 0 0.2063795,-0.2063795 0.20648512,0.20648512 0 0 0 -0.2063795,-0.20683 z m -2.72213667,0.00811 A 0.20648512,0.20648512 0 0 0 0.56611676,2.7961863 0.20648512,0.20648512 0 0 0 0.77249623,3.0025657 0.20648512,0.20648512 0 0 0 0.97887572,2.7961863 0.20648512,0.20648512 0 0 0 0.77249623,2.5898077 Z M 2.1527154,2.9489458 A 0.20648512,0.20648512 0 0 0 1.946336,3.1553243 0.20648512,0.20648512 0 0 0 2.1527154,3.3621543 0.20648512,0.20648512 0 0 0 2.3590949,3.1553243 0.20648512,0.20648512 0 0 0 2.1527154,2.9489458 Z M 1.4637323,2.9998649 A 0.20648512,0.20648512 0 0 0 1.2569022,3.2066945 0.20648512,0.20648512 0 0 0 1.4637323,3.413074 0.20648512,0.20648512 0 0 0 1.6701118,3.2066945 0.20648512,0.20648512 0 0 0 1.4637323,2.9998649 Z m 1.3617443,0.037851 A 0.20648512,0.20648512 0 0 0 2.6190972,3.2440944 0.20648512,0.20648512 0 0 0 2.8254766,3.450474 0.20648512,0.20648512 0 0 0 3.0318561,3.2440944 0.20648512,0.20648512 0 0 0 2.8254766,3.0377159 Z M 3.4946329,3.2197616 A 0.20648512,0.20648512 0 0 0 3.2882534,3.4261411 0.20648512,0.20648512 0 0 0 3.4946329,3.6325206 0.20648512,0.20648512 0 0 0 3.7010124,3.4261411 0.20648512,0.20648512 0 0 0 3.4946329,3.2197616 Z m -2.72213667,0.00811 A 0.20648512,0.20648512 0 0 0 0.56611676,3.4342505 0.20648512,0.20648512 0 0 0 0.77249623,3.64063 0.20648512,0.20648512 0 0 0 0.97887572,3.4342505 0.20648512,0.20648512 0 0 0 0.77249623,3.2278716 Z"
       style="color:#000000;opacity:0.6;fill:#d0d0d0;stroke:none;stroke-width:0.0643492" />
  </g>
</svg>
