<?xml version="1.0" encoding="UTF-8" standalone="no"?>
<svg
   xmlns:dc="http://purl.org/dc/elements/1.1/"
   xmlns:cc="http://creativecommons.org/ns#"
   xmlns:rdf="http://www.w3.org/1999/02/22-rdf-syntax-ns#"
   xmlns:svg="http://www.w3.org/2000/svg"
   xmlns="http://www.w3.org/2000/svg"
   xmlns:sodipodi="http://sodipodi.sourceforge.net/DTD/sodipodi-0.dtd"
   xmlns:inkscape="http://www.inkscape.org/namespaces/inkscape"
   viewBox="0 0 22 22"
   version="1.1"
   id="svg8"
   sodipodi:docname="office-chart-area-focus-peak-node.svg"
   inkscape:version="0.92+devel (1c31310676, 2017-09-09, custom)"
   width="22"
   height="22">
  <metadata
     id="metadata12">
    <rdf:RDF>
      <cc:Work
         rdf:about="">
        <dc:format>image/svg+xml</dc:format>
        <dc:type
           rdf:resource="http://purl.org/dc/dcmitype/StillImage" />
        <dc:title></dc:title>
      </cc:Work>
    </rdf:RDF>
  </metadata>
  <sodipodi:namedview
     pagecolor="#002466"
     bordercolor="#ffffff"
     inkscape:document-rotation="0"
     borderopacity="0.25098039"
     objecttolerance="10"
     gridtolerance="10"
     guidetolerance="10"
     inkscape:pageopacity="0"
     inkscape:pageshadow="2"
     inkscape:window-width="1920"
     inkscape:window-height="1027"
     id="namedview10"
     showgrid="false"
     inkscape:zoom="22.96875"
     inkscape:cx="7.9346938"
     inkscape:cy="7.6081633"
     inkscape:window-x="0"
     inkscape:window-y="24"
     inkscape:window-maximized="1"
     inkscape:current-layer="svg8"
     borderlayer="true"
     inkscape:showpageshadow="false" />
  <defs
     id="defs3051">
    <style
       type="text/css"
       id="current-color-scheme">
      .ColorScheme-Text {
        color:#f2f2f2;
      }
      </style>
  </defs>
  <g
     id="g831"
     inkscape:label="#office-chart-area-focus-peak-node"
     transform="matrix(1.5,0,0,1.5,0,-2)"
     style="stroke-width:0.66666669">
    <path
       inkscape:label="#Boundary"
       id="rect822"
       d="M 0,0 H 16 V 16 H 0 Z"
       style="fill:none;stroke:none;stroke-width:0.80000007"
       inkscape:connector-curvature="0" />
    <path
       style="display:inline;opacity:0.8092105;fill:#d0d0d0;fill-opacity:1;stroke:none;stroke-width:0.66666669"
       d="m 2,2 v 5.9960938 1 V 14 H 14 V 13 H 3 v -1 h 3.0058594 v -0.0078 l 0.00781,0.0078 2,-2 h 1.5917969 l 2.0000007,2 h 2.40039 v -1 h -1.986328 l -2,-2 H 8.6054688 7.5996094 l -2,2 H 3 V 8.9960938 h 2 v -0.00781 L 5.00781,8.9960938 6.0039062,8 5.296875,7.2929688 4.59375,7.9960938 H 3 V 2 Z M 9,3.5898438 7.296875,5.2929688 8.0039062,6 9,5.0039062 9.9960938,6 10.703125,5.2929688 Z M 14,6 13,7 h 1 z"
       id="path835"
       inkscape:connector-curvature="0"
       inkscape:label="#" />
    <path
       style="display:inline;opacity:0.8092105;fill:#00ff00;fill-opacity:1;stroke:none;stroke-width:0.66666669"
       d="M 6,2 V 3 4 H 7 V 3 H 8 V 2 Z m 4,0 v 1 h 1 v 1 h 1 V 2 H 11 Z M 6,6 V 8 H 8 V 7 H 7 V 6 Z m 5,0 v 1 h -1 v 1 h 2 V 7 6 Z"
       id="path829"
       inkscape:connector-curvature="0"
       inkscape:label="#" />
    <path
       style="display:inline;opacity:0.3;fill:#d0d0d0;fill-opacity:1;stroke:none;stroke-width:0.66666669"
       d="M 9,5.0039062 8.0039062,6 l -1,1 H 8 V 8 H 7 6.0039062 L 5.0078125,9 H 3 v 2 h 2.5996094 l 2,-2 h 1.0058594 1.4140622 l 2,2 h 1.978516 V 7 H 13 12 V 8 H 11.998 10 9.9980469 V 7 H 10 10.998047 L 9.9980469,5.9980469 9.9960938,6 Z M 1.9980469,9 v 4 H 2 V 9 Z m 6.015625,1 -2,2 -0.00781,-0.0078 V 12 H 3 v 1 h 3.9980469 l 2,-0.0078 L 13.998047,13 V 12 H 11.605469 L 9.6054688,10 Z"
       id="path6"
       inkscape:connector-curvature="0"
       inkscape:label="#" />
  </g>
</svg>
