<?xml version="1.0" encoding="UTF-8" standalone="no"?>
<svg
   xmlns:dc="http://purl.org/dc/elements/1.1/"
   xmlns:cc="http://creativecommons.org/ns#"
   xmlns:rdf="http://www.w3.org/1999/02/22-rdf-syntax-ns#"
   xmlns:svg="http://www.w3.org/2000/svg"
   xmlns="http://www.w3.org/2000/svg"
   xmlns:sodipodi="http://sodipodi.sourceforge.net/DTD/sodipodi-0.dtd"
   xmlns:inkscape="http://www.inkscape.org/namespaces/inkscape"
   height="22"
   viewBox="0 0 22 22"
   width="22"
   version="1.1"
   id="svg4"
   sodipodi:docname="office-chart-area-percentage.svg"
   inkscape:version="0.92+devel (1c31310676, 2017-09-09, custom)">
  <metadata
     id="metadata10">
    <rdf:RDF>
      <cc:Work
         rdf:about="">
        <dc:format>image/svg+xml</dc:format>
        <dc:type
           rdf:resource="http://purl.org/dc/dcmitype/StillImage" />
        <dc:title></dc:title>
      </cc:Work>
    </rdf:RDF>
  </metadata>
  <defs
     id="defs8">
    <style
       id="current-color-scheme"
       type="text/css">
      .ColorScheme-Text {
        color:#f2f2f2;
      }
      </style>
  </defs>
  <sodipodi:namedview
     pagecolor="#002466"
     bordercolor="#ffffff"
     inkscape:document-rotation="0"
     borderopacity="0.13333333"
     objecttolerance="10"
     gridtolerance="10"
     guidetolerance="10"
     inkscape:pageopacity="0"
     inkscape:pageshadow="2"
     inkscape:window-width="1920"
     inkscape:window-height="1027"
     id="namedview6"
     showgrid="false"
     borderlayer="true"
     inkscape:showpageshadow="false"
     inkscape:zoom="22.96875"
     inkscape:cx="7.847619"
     inkscape:cy="8.0000001"
     inkscape:window-x="0"
     inkscape:window-y="24"
     inkscape:window-maximized="1"
     inkscape:current-layer="svg4" />
  <g
     id="g868"
     inkscape:label="#office-chart-area-percentage"
     transform="scale(1.375)"
     style="stroke-width:0.72727275">
    <path
       inkscape:connector-curvature="0"
       inkscape:label="#boundary"
       style="stroke:none"
       id="path2"
       stroke-width=".25455"
       stroke-linecap="round"
       fill="none"
       d="M 0,-4.9999999e-8 H 16 V 16 H 0 Z" />
    <path
       inkscape:label="#"
       inkscape:connector-curvature="0"
       id="path838"
       d="M 1.9962235,2.0000003 V 14 H 13.996223 V 13 H 2.9962235 V 2.0000003 Z"
       style="opacity:0.7;fill:#d0d0d0;fill-opacity:1;stroke:none;stroke-width:0.72727275" />
    <path
       inkscape:label="#"
       id="path836"
       d="m 4.5957031,2 v 1 h 1 v 3 h 1 V 2 h -1 z m 4.3007813,0 c -0.831,0 -1.5,0.6690001 -1.5,1.5 v 1 c 0,0.831 0.669,1.5000001 1.5,1.5 0.831,0 1.4999996,-0.669 1.4999996,-1.5 v -1 c 0,-0.8309999 -0.6689996,-1.4999999 -1.4999996,-1.5 z m 3.5996096,0 c -0.830999,0 -1.5,0.6690001 -1.5,1.5 v 1 c 0,0.831 0.669,1.5000001 1.5,1.5 0.831,0 1.5,-0.669 1.5,-1.5 v -1 c 0,-0.8309999 -0.668999,-1.4999999 -1.5,-1.5 z M 8.8964844,3 c 0.277,0 0.5,0.223 0.5,0.5 v 1 c 0,0.2770001 -0.223,0.5 -0.5,0.5 -0.277,0 -0.5,-0.223 -0.5,-0.5 v -1 c 0,-0.277 0.223,-0.5 0.5,-0.5 z m 3.5996096,0 c 0.277,0 0.5,0.223 0.5,0.5 v 1 c 0,0.2770001 -0.222999,0.5 -0.5,0.5 -0.276999,0 -0.499999,-0.223 -0.5,-0.5 v -1 c 0,-0.277 0.223,-0.5 0.5,-0.5 z"
       style="fill:#00ff00;fill-opacity:1;stroke:none;stroke-width:0.72727275"
       inkscape:connector-curvature="0" />
    <path
       inkscape:label="#"
       inkscape:connector-curvature="0"
       id="path826"
       d="m 8.5858103,7.0001019 3.5351557,3.5351561 0.002,-0.002 0.002,0.002 1.875,-1.8730467 V 7.2461957 L 12.12292,9.1231488 9.9998729,7.0001019 Z m -2.9902344,2 -2,2.0000001 H 3.0037791 v 1 H 4.001826 v -0.0078 l 0.00781,0.0078 2,-2 h 1.5917968 l 2,2 h 4.4023442 v -1 H 10.015498 L 8.0154979,9.0001019 Z"
       style="opacity:0.4;fill:#d0d0d0;fill-opacity:1;stroke:none;stroke-width:0.72727275" />
  </g>
</svg>
