<?xml version="1.0" encoding="UTF-8" standalone="no"?>
<svg
   xmlns:dc="http://purl.org/dc/elements/1.1/"
   xmlns:cc="http://creativecommons.org/ns#"
   xmlns:rdf="http://www.w3.org/1999/02/22-rdf-syntax-ns#"
   xmlns:svg="http://www.w3.org/2000/svg"
   xmlns="http://www.w3.org/2000/svg"
   xmlns:sodipodi="http://sodipodi.sourceforge.net/DTD/sodipodi-0.dtd"
   xmlns:inkscape="http://www.inkscape.org/namespaces/inkscape"
   height="22"
   viewBox="0 0 22 22"
   width="22"
   version="1.1"
   id="svg4"
   sodipodi:docname="office-chart-bar-percentage.svg"
   inkscape:version="0.92+devel (1c31310676, 2017-09-09, custom)">
  <metadata
     id="metadata10">
    <rdf:RDF>
      <cc:Work
         rdf:about="">
        <dc:format>image/svg+xml</dc:format>
        <dc:type
           rdf:resource="http://purl.org/dc/dcmitype/StillImage" />
        <dc:title></dc:title>
      </cc:Work>
    </rdf:RDF>
  </metadata>
  <defs
     id="defs8" />
  <sodipodi:namedview
     pagecolor="#002466"
     bordercolor="#ffffff"
     inkscape:document-rotation="0"
     borderopacity="0.13333333"
     objecttolerance="10"
     gridtolerance="10"
     guidetolerance="10"
     inkscape:pageopacity="0"
     inkscape:pageshadow="2"
     inkscape:window-width="1920"
     inkscape:window-height="1027"
     id="namedview6"
     showgrid="false"
     borderlayer="true"
     inkscape:showpageshadow="false"
     inkscape:zoom="22.96875"
     inkscape:cx="7.2380952"
     inkscape:cy="8.0000002"
     inkscape:window-x="0"
     inkscape:window-y="24"
     inkscape:window-maximized="1"
     inkscape:current-layer="svg4"
     inkscape:object-paths="true"
     inkscape:snap-intersection-paths="true" />
  <g
     id="g847"
     inkscape:label="#office-chart-bar-percentage"
     transform="scale(1.375)"
     style="stroke-width:0.72727275">
    <path
       inkscape:connector-curvature="0"
       inkscape:label="#boundary"
       style="stroke:none"
       id="path2"
       stroke-width=".25455"
       stroke-linecap="round"
       fill="none"
       d="M 0,-4.9999999e-8 H 16 V 16 H 0 Z" />
    <path
       inkscape:label="#"
       inkscape:connector-curvature="0"
       id="rect812"
       d="M 2,1.9999998 V 13 14 H 3 14 V 13 H 3 V 1.9999998 Z"
       style="opacity:0.5;fill:#d0d0d0;stroke:none;stroke-width:0.87272727" />
    <path
       inkscape:label="#"
       id="rect820"
       d="M 9.1503906,7.2878906 V 13 H 12.712891 V 7.2878906 Z M 4.265625,9.2703125 V 13 h 3.5625 V 9.2703125 Z"
       style="opacity:0.76404497;fill:#d0d0d0;stroke:none;stroke-width:0.87272727"
       inkscape:connector-curvature="0"
       sodipodi:nodetypes="cccccccccc" />
    <path
       inkscape:label="#"
       id="path836"
       d="m 3.9133979,2.5818811 v 1 h 1 v 3 h 1 v -4 h -1 z m 4.300782,0 c -0.831,0 -1.5,0.6690001 -1.5,1.5 v 1 c 0,0.831 0.669,1.5000001 1.5,1.5 0.8310002,0 1.4999992,-0.669 1.4999992,-1.5 v -1 c 0,-0.8309999 -0.668999,-1.4999999 -1.4999992,-1.5 z m 3.5996091,0 c -0.830999,0 -1.5,0.6690001 -1.5,1.5 v 1 c 0,0.831 0.669,1.5000001 1.5,1.5 0.831,0 1.5,-0.669 1.5,-1.5 v -1 c 0,-0.8309999 -0.668999,-1.4999999 -1.5,-1.5 z m -3.5996091,1 c 0.277,0 0.5000002,0.223 0.5000002,0.5 v 1 c 0,0.2770001 -0.2230002,0.5 -0.5000002,0.5 -0.277,0 -0.5,-0.223 -0.5,-0.5 v -1 c 0,-0.277 0.223,-0.5 0.5,-0.5 z m 3.5996091,0 c 0.277,0 0.5,0.223 0.5,0.5 v 1 c 0,0.2770001 -0.222999,0.5 -0.5,0.5 -0.276999,0 -0.499999,-0.223 -0.5,-0.5 v -1 c 0,-0.277 0.223,-0.5 0.5,-0.5 z"
       style="fill:#00ff00;fill-opacity:1;stroke:none;stroke-width:0.72727275"
       inkscape:connector-curvature="0" />
  </g>
</svg>
