<?xml version="1.0" encoding="UTF-8" standalone="no"?>
<!-- Created with Inkscape (http://www.inkscape.org/) -->

<svg
   xmlns:dc="http://purl.org/dc/elements/1.1/"
   xmlns:cc="http://creativecommons.org/ns#"
   xmlns:rdf="http://www.w3.org/1999/02/22-rdf-syntax-ns#"
   xmlns:svg="http://www.w3.org/2000/svg"
   xmlns="http://www.w3.org/2000/svg"
   xmlns:xlink="http://www.w3.org/1999/xlink"
   xmlns:sodipodi="http://sodipodi.sourceforge.net/DTD/sodipodi-0.dtd"
   xmlns:inkscape="http://www.inkscape.org/namespaces/inkscape"
   width="22.000002"
   height="22"
   viewBox="0 0 22.000002 22"
   version="1.1"
   id="main"
   inkscape:version="0.92+devel (9d04be7596, 2017-09-23, custom)"
   sodipodi:docname="password-copy.svg">
  <defs
     id="ol-defs">
    <linearGradient
       y2="1213.5142"
       y1="743.61575"
       xlink:href="#b"
       x2="455.060331"
       x1="455.060331"
       gradientUnits="userSpaceOnUse"
       id="a" />
    <linearGradient
       id="b">
      <stop
         id="stop835"
         stop-color="#dadada"
         offset="0" />
      <stop
         id="stop837"
         stop-color="#9b9b9b"
         offset=".10122021" />
      <stop
         id="stop839"
         stop-color="#9b9b9b"
         offset="1" />
    </linearGradient>
    <linearGradient
       y2="1282.3164"
       y1="827.47656"
       xlink:href="#b"
       x2="339.4375"
       x1="339.4375"
       gradientUnits="userSpaceOnUse"
       gradientTransform="matrix(0.94068848,0,0,0.9828646,225.0638,-72.347915)"
       id="c" />
  </defs>
  <sodipodi:namedview
     id="base"
     pagecolor="#002466"
     bordercolor="#ffffff"
     borderopacity="0.30"
     inkscape:pageopacity="1"
     inkscape:pageshadow="0"
     inkscape:zoom="13.140625"
     inkscape:document-units="px"
     inkscape:current-layer="main"
     inkscape:document-rotation="0"
     showgrid="false"
     inkscape:showpageshadow="false"
     borderlayer="true"
     inkscape:window-width="1920"
     inkscape:window-height="1017"
     inkscape:window-x="0"
     inkscape:window-y="34"
     inkscape:window-maximized="1"
     units="px"
     inkscape:cx="6.5947884"
     inkscape:cy="8.0269054" />
  <metadata
     id="metadata5">
    <rdf:RDF>
      <cc:Work
         rdf:about="">
        <dc:format>image/svg+xml</dc:format>
        <dc:type
           rdf:resource="http://purl.org/dc/dcmitype/StillImage" />
        <dc:title></dc:title>
      </cc:Work>
    </rdf:RDF>
  </metadata>
  <g
     id="g933"
     style="stroke:none"
     inkscape:label="#password-copy">
    <path
       style="fill:none;stroke:none;stroke-width:1"
       d="M 0,0 H 22.000001 V 22 H 0 Z"
       id="boundary"
       inkscape:label="#boundary"
       inkscape:connector-curvature="0" />
    <path
       inkscape:label="#"
       id="rect812"
       d="M 4.5996094,3 C 3.7132094,3 3,3.7132094 3,4.5996094 V 17.400391 C 3,18.286791 3.7132094,19 4.5996094,19 H 17.400391 C 18.28679,19 19,18.286791 19,17.400391 V 4.5996094 C 19,3.7132094 18.28679,3 17.400391,3 Z m 3.2988281,2.0097656 c 0.9099179,0.00715 1.6741872,0.6391202 1.8847656,1.4863282 1.6e-4,0.0019 0.00177,0.00406 0.00195,0.00586 0.00714,0.02911 0.013701,0.056328 0.019531,0.085937 0.050284,0.141445 0.1858055,0.2448938 0.3437509,0.2460938 0.161793,0.00127 0.296956,-0.103741 0.341796,-0.25 4e-4,-0.0013 0.0014,-0.00297 0.002,-0.00391 0.02432,-0.090012 0.09792,-0.1549998 0.1875,-0.1542969 0.110147,8.651e-4 0.202167,0.1002253 0.203124,0.2226563 v 0.3105469 l 5.722657,0.042969 0.607422,0.6699219 0.0039,0.453125 -0.722656,0.6503906 -0.503907,-0.2285156 -0.503906,0.1171875 -0.40039,-0.296875 -0.730469,0.3242187 -0.673828,-0.1933593 -0.199219,0.1875 -1.535156,-0.011719 -0.173828,0.1425781 -0.31836,-0.109375 -0.357422,0.1464844 -0.199218,-0.00195 0.0039,0.3457031 c 9.6e-4,0.122436 -0.08712,0.219608 -0.197266,0.21875 -0.0855,-6.76e-4 -0.15865,-0.060451 -0.1875,-0.1445312 -0.0011,-0.0013 -0.0027,-0.00176 -0.0039,-0.00586 -0.04485,-0.150728 -0.185136,-0.2623719 -0.34961,-0.2636719 -0.157828,-0.00124 -0.2898235,0.097605 -0.3378905,0.2382813 -0.00536,0.02952 -0.010888,0.060834 -0.017578,0.089844 -2.301e-4,0.0018 -0.00182,0.00211 -0.00195,0.00391 C 9.6093147,10.17792 8.8552358,10.798216 7.9453125,10.791016 6.8987726,10.782798 6.0523752,9.9487974 6.0039062,8.9101562 c -2.579e-4,-0.03325 -0.025345,-0.060281 -0.058594,-0.060547 -0.00242,-7.2e-5 -0.00547,-2.78e-4 -0.00781,0 -0.060286,0.01166 -0.1220028,0.015704 -0.1835938,0.015625 C 5.221906,8.8610564 4.7874131,8.4265323 4.7832031,7.8945312 4.7790247,7.3625293 5.2082318,6.9352531 5.7402344,6.9394531 c 0.061172,9.2e-4 0.1196035,0.00707 0.1796875,0.019531 0.00242,2.86e-4 0.00539,-3.3e-5 0.00781,0 0.033249,2.5e-4 0.062759,-0.027297 0.0625,-0.060547 C 5.992166,6.3719725 6.2021114,5.8994187 6.5449219,5.5585938 6.8900931,5.2153827 7.366768,5.0055656 7.8984375,5.0097656 Z m -2.1367187,2.484375 c -0.1177112,-9.19e-4 -0.2222902,0.046517 -0.2988282,0.1230469 -0.076531,0.076534 -0.1259361,0.1830703 -0.125,0.3007813 0.00185,0.235423 0.1942646,0.4277876 0.4296875,0.4296874 0.1518273,0.00102 0.2920535,-0.080206 0.3671875,-0.2109374 0.024402,-0.045331 0.041761,-0.094231 0.050781,-0.1445313 0.00367,-0.02258 0.00587,-0.045419 0.00586,-0.068359 C 6.189555,7.6884041 5.9971423,7.4960406 5.7617188,7.4941406 Z M 10.4375,11.798828 h 1.125 v 1.837891 h 1.837891 v 1.125 H 11.5625 v 1.83789 h -1.125 v -1.83789 H 8.5996094 v -1.125 H 10.4375 Z"
       style="fill:#00ff00;stroke-width:2.0999999;stroke:none"
       inkscape:connector-curvature="0" />
  </g>
</svg>
