<?xml version="1.0" encoding="UTF-8" standalone="no"?>
<!-- Created with Inkscape (http://www.inkscape.org/) -->

<svg
   xmlns:dc="http://purl.org/dc/elements/1.1/"
   xmlns:cc="http://creativecommons.org/ns#"
   xmlns:rdf="http://www.w3.org/1999/02/22-rdf-syntax-ns#"
   xmlns:svg="http://www.w3.org/2000/svg"
   xmlns="http://www.w3.org/2000/svg"
   xmlns:sodipodi="http://sodipodi.sourceforge.net/DTD/sodipodi-0.dtd"
   xmlns:inkscape="http://www.inkscape.org/namespaces/inkscape"
   width="22.000002"
   height="22"
   viewBox="0 0 22.000002 22"
   version="1.1"
   id="main"
   inkscape:version="0.92+devel (9cbd9e9661, 2017-09-28, custom)"
   sodipodi:docname="pathshape.svg">
  <defs
     id="ol-defs" />
  <sodipodi:namedview
     id="base"
     pagecolor="#002466"
     bordercolor="#ffffff"
     borderopacity="0.30"
     inkscape:pageopacity="1"
     inkscape:pageshadow="0"
     inkscape:zoom="13.140625"
     inkscape:document-units="px"
     inkscape:current-layer="main"
     inkscape:document-rotation="0"
     showgrid="false"
     inkscape:showpageshadow="false"
     borderlayer="true"
     inkscape:window-width="1920"
     inkscape:window-height="1027"
     inkscape:window-x="0"
     inkscape:window-y="24"
     inkscape:window-maximized="1"
     units="px"
     inkscape:cx="6.5947884"
     inkscape:cy="8.0269054" />
  <metadata
     id="metadata5">
    <rdf:RDF>
      <cc:Work
         rdf:about="">
        <dc:format>image/svg+xml</dc:format>
        <dc:type
           rdf:resource="http://purl.org/dc/dcmitype/StillImage" />
        <dc:title></dc:title>
      </cc:Work>
    </rdf:RDF>
  </metadata>
  <g
     id="g839"
     inkscape:label="#pathshape"
     style="stroke:none">
    <path
       style="fill:none;stroke:none;stroke-width:1"
       d="M 0,0 H 22.000001 V 22 H 0 Z"
       id="boundary"
       inkscape:label="#boundary"
       inkscape:connector-curvature="0" />
    <path
       inkscape:label="#"
       style="color:#000000;font-style:normal;font-variant:normal;font-weight:normal;font-stretch:normal;font-size:medium;line-height:normal;font-family:sans-serif;font-variant-ligatures:normal;font-variant-position:normal;font-variant-caps:normal;font-variant-numeric:normal;font-variant-alternates:normal;font-variant-east-asian:normal;font-feature-settings:normal;font-variation-settings:normal;text-indent:0;text-align:start;text-decoration:none;text-decoration-line:none;text-decoration-style:solid;text-decoration-color:#000000;letter-spacing:normal;word-spacing:normal;text-transform:none;writing-mode:lr-tb;direction:ltr;text-orientation:mixed;dominant-baseline:auto;baseline-shift:baseline;text-anchor:start;white-space:normal;shape-padding:0;clip-rule:nonzero;display:inline;overflow:visible;visibility:visible;opacity:0.6;isolation:auto;mix-blend-mode:normal;color-interpolation:sRGB;color-interpolation-filters:linearRGB;solid-color:#000000;solid-opacity:1;vector-effect:none;fill:#d0d0d0;fill-opacity:1;fill-rule:nonzero;stroke:none;stroke-width:1.33552659;stroke-linecap:butt;stroke-linejoin:miter;stroke-miterlimit:4;stroke-dasharray:none;stroke-dashoffset:0.15256613;stroke-opacity:1;color-rendering:auto;image-rendering:auto;shape-rendering:auto;text-rendering:auto;enable-background:accumulate"
       d="m 14.666668,3 c -0.863256,0 -1.682547,0.4560629 -2.338543,1.2135417 -0.709647,0.8194301 -1.071987,1.9730647 -1.354167,3.1822916 -0.282178,1.2092269 -0.459373,2.4833361 -0.632812,3.4921867 -0.179425,1.043676 -0.352024,2.288915 -0.614584,3.414063 -0.262558,1.125149 -0.64045,2.119028 -1.065104,2.609376 -0.478305,0.552298 -0.9254717,0.752604 -1.3281237,0.752604 -0.4026533,0 -0.84982,-0.200306 -1.3281253,-0.752604 C 5.0485983,15.80686 4.3359383,13.500807 4.3359383,11 H 3.000001 c -1.3e-6,2.738305 0.6827987,5.271501 1.9947907,6.786459 C 5.6507876,18.543936 6.4700783,19 7.3333343,19 8.196589,19 9.01588,18.543936 9.671876,17.786459 c 0.709646,-0.819431 1.071988,-1.973066 1.354166,-3.182292 0.282179,-1.209227 0.459374,-2.483336 0.632812,-3.492188 0.179427,-1.043675 0.352024,-2.2889134 0.614584,-3.4140624 0.262559,-1.1251489 0.640451,-2.119027 1.065104,-2.6093749 0.478306,-0.5522993 0.925472,-0.7526041 1.328126,-0.7526041 0.402652,0 0.849818,0.2003047 1.328124,0.7526041 C 16.951405,6.1931401 17.664064,8.4991929 17.664064,11 h 1.335937 c 0,-2.7383052 -0.682799,-5.2715008 -1.994792,-6.7864583 C 16.349213,3.4560629 15.529922,3 14.666668,3 Z"
       id="path832"
       inkscape:connector-curvature="0" />
  </g>
</svg>
