<?xml version="1.0" encoding="UTF-8" standalone="no"?>
<!-- Created with Inkscape (http://www.inkscape.org/) -->

<svg
   xmlns:dc="http://purl.org/dc/elements/1.1/"
   xmlns:cc="http://creativecommons.org/ns#"
   xmlns:rdf="http://www.w3.org/1999/02/22-rdf-syntax-ns#"
   xmlns:svg="http://www.w3.org/2000/svg"
   xmlns="http://www.w3.org/2000/svg"
   xmlns:sodipodi="http://sodipodi.sourceforge.net/DTD/sodipodi-0.dtd"
   xmlns:inkscape="http://www.inkscape.org/namespaces/inkscape"
   width="22.000002"
   height="22"
   viewBox="0 0 22.000002 22"
   version="1.1"
   id="main"
   inkscape:version="0.92+devel (9d04be7596, 2017-09-23, custom)"
   sodipodi:docname="podcast-amarok.svg">
  <defs
     id="ol-defs" />
  <sodipodi:namedview
     id="base"
     pagecolor="#002466"
     bordercolor="#ffffff"
     borderopacity="0.30"
     inkscape:pageopacity="1"
     inkscape:pageshadow="0"
     inkscape:zoom="13.140625"
     inkscape:document-units="px"
     inkscape:current-layer="main"
     inkscape:document-rotation="0"
     showgrid="false"
     inkscape:showpageshadow="false"
     borderlayer="true"
     inkscape:window-width="1920"
     inkscape:window-height="1017"
     inkscape:window-x="0"
     inkscape:window-y="34"
     inkscape:window-maximized="1"
     units="px"
     inkscape:cx="6.5947884"
     inkscape:cy="8.0269054" />
  <metadata
     id="metadata5">
    <rdf:RDF>
      <cc:Work
         rdf:about="">
        <dc:format>image/svg+xml</dc:format>
        <dc:type
           rdf:resource="http://purl.org/dc/dcmitype/StillImage" />
        <dc:title></dc:title>
      </cc:Work>
    </rdf:RDF>
  </metadata>
  <g
     id="g1424"
     inkscape:label="#podcast-amarok">
    <path
       style="fill:none;stroke:none;stroke-width:1"
       d="M 0,0 H 22.000001 V 22 H 0 Z"
       id="boundary"
       inkscape:label="#boundary"
       inkscape:connector-curvature="0" />
    <path
       inkscape:label="#"
       id="rect812"
       d="M 4.5996094,3 C 3.7132094,3 3,3.7132094 3,4.5996094 V 17.400391 C 3,18.286791 3.7132094,19 4.5996094,19 H 17.400391 C 18.286791,19 19,18.286791 19,17.400391 V 4.5996094 C 19,3.7132094 18.286791,3 17.400391,3 Z M 11,5 c 2.445511,1e-7 4.435547,1.9900349 4.435547,4.4355469 0,1.6025721 -0.857222,3.0054071 -2.134766,3.7851561 -0.01929,-0.293451 -0.09416,-0.57235 -0.214843,-0.826172 0.927797,-0.654395 1.533203,-1.733084 1.533203,-2.9589841 0,-2.004706 -1.614435,-3.6191407 -3.619141,-3.6191407 -2.0047073,1.1e-6 -3.6191406,1.6144347 -3.6191406,3.6191407 0,1.2364001 0.6136085,2.3239421 1.5546875,2.9765621 -0.118453,0.254659 -0.1882081,0.532434 -0.2050781,0.826172 C 7.4363553,12.462396 6.5644531,11.05079 6.5644531,9.4355469 6.5644531,6.9900349 8.5544877,5.000001 11,5 Z m 0,1.4140625 c 1.664619,0 3.023438,1.3568654 3.023438,3.0214844 -1e-6,1.0087571 -0.500071,1.9033761 -1.263672,2.4531251 -0.185334,-0.21746 -0.409078,-0.40046 -0.66211,-0.53711 0.663838,-0.379474 1.109375,-1.092749 1.109375,-1.9160151 0,-1.2238139 -0.983217,-2.2070313 -2.207031,-2.2070313 -1.2238153,0 -2.2070312,0.9832173 -2.2070312,2.2070313 0,0.8294351 0.4528959,1.5485341 1.125,1.9257811 C 9.6666738,11.49983 9.4430596,11.681829 9.2597656,11.900391 8.4862296,11.351827 7.9765625,10.452226 7.9765625,9.4355469 7.9765625,7.7709279 9.3353797,6.4140625 11,6.4140625 Z m 0,1.4414063 A 1.5807798,1.5807798 0 0 1 12.580078,9.4355469 1.5807798,1.5807798 0 0 1 11,11.017578 1.5807798,1.5807798 0 0 1 9.4199219,9.4355469 1.5807798,1.5807798 0 0 1 11,7.8554688 Z m 0.01563,3.8457032 c 0.921199,0 1.667969,0.74677 1.667969,1.667969 0,1.458248 -0.74677,3.630859 -1.667969,3.630859 -0.9212,0 -1.6679688,-2.2003 -1.6679688,-3.630859 1e-7,-0.921199 0.7467688,-1.667969 1.6679688,-1.667969 z"
       style="opacity:0.6;fill:#d0d0d0;stroke:none;stroke-width:2.0999999"
       inkscape:connector-curvature="0" />
  </g>
</svg>
