<?xml version="1.0" encoding="UTF-8" standalone="no"?>
<!-- Created with Inkscape (http://www.inkscape.org/) -->

<svg
   xmlns:dc="http://purl.org/dc/elements/1.1/"
   xmlns:cc="http://creativecommons.org/ns#"
   xmlns:rdf="http://www.w3.org/1999/02/22-rdf-syntax-ns#"
   xmlns:svg="http://www.w3.org/2000/svg"
   xmlns="http://www.w3.org/2000/svg"
   xmlns:sodipodi="http://sodipodi.sourceforge.net/DTD/sodipodi-0.dtd"
   xmlns:inkscape="http://www.inkscape.org/namespaces/inkscape"
   width="22.000002"
   height="22"
   viewBox="0 0 22.000002 22"
   version="1.1"
   id="main"
   inkscape:version="0.92+devel (9cbd9e9661, 2017-09-28, custom)"
   sodipodi:docname="preview-add-zone.svg">
  <defs
     id="ol-defs" />
  <sodipodi:namedview
     id="base"
     pagecolor="#002466"
     bordercolor="#ffffff"
     borderopacity="0.30"
     inkscape:pageopacity="1"
     inkscape:pageshadow="0"
     inkscape:zoom="13.140625"
     inkscape:document-units="px"
     inkscape:current-layer="main"
     inkscape:document-rotation="0"
     showgrid="false"
     inkscape:showpageshadow="false"
     borderlayer="true"
     inkscape:window-width="1920"
     inkscape:window-height="1027"
     inkscape:window-x="0"
     inkscape:window-y="24"
     inkscape:window-maximized="1"
     units="px"
     inkscape:cx="6.3664888"
     inkscape:cy="8.0269054" />
  <metadata
     id="metadata5">
    <rdf:RDF>
      <cc:Work
         rdf:about="">
        <dc:format>image/svg+xml</dc:format>
        <dc:type
           rdf:resource="http://purl.org/dc/dcmitype/StillImage" />
        <dc:title></dc:title>
      </cc:Work>
    </rdf:RDF>
  </metadata>
  <g
     id="g864"
     inkscape:label="#preview-add-zone"
     style="stroke:none">
    <path
       style="fill:none;stroke:none;stroke-width:1"
       d="M 0,0 H 22.000001 V 22 H 0 Z"
       id="boundary"
       inkscape:label="#boundary"
       inkscape:connector-curvature="0" />
    <path
       inkscape:label="#"
       inkscape:connector-curvature="0"
       id="path813"
       d="M 3.000001,4.0922902 V 8.2613248 H 3.7528418 18.24716 19.000001 V 6.5624607 4.0922902 H 18.24716 V 6.5624607 H 15.950285 V 5.1746766 H 15.197444 V 6.5624607 H 12.900569 V 5.1746766 h -0.75142 V 6.5624607 H 9.8522737 V 5.1746766 H 9.0994329 V 6.5624607 H 6.8025578 V 5.1746766 H 6.0497169 V 6.5624607 H 3.7528418 V 4.0922902 Z m 0,5.6903406 V 17.904791 H 3.7528418 V 13.879222 9.7826308 Z m 0.7528408,4.0965912 2.7031251,4.028409 V 9.8493928 Z M 18.24716,9.7826308 v 4.0965912 4.025569 h 0.752841 V 9.7826308 Z m 0,4.0965912 -2.703125,-4.0298292 v 8.0582382 z"
       style="opacity:0.46969694;fill:#d0d0d0;stroke:none;stroke-width:1.16564083;stroke-linecap:round;stroke-dasharray:1.16564081, 1.16564081;stroke-dashoffset:0.15260001" />
    <path
       style="fill:#d0d0d0;stroke-width:1.41700006;stroke-linecap:round;stroke-dashoffset:0.15256613"
       d="m 14.588107,12.986084 -2.833985,10e-7 10e-7,-2.833986 -1.619141,1e-6 -1e-6,2.833985 -2.8339848,-10e-7 5e-7,1.61914 2.8339853,1e-6 -1e-6,2.833984 1.619141,-1e-6 0,-2.833982 2.833985,-10e-7 z"
       id="rect815"
       inkscape:connector-curvature="0"
       inkscape:label="#" />
  </g>
</svg>
