<?xml version="1.0" encoding="UTF-8" standalone="no"?>
<!-- Created with Inkscape (http://www.inkscape.org/) -->

<svg
   xmlns:dc="http://purl.org/dc/elements/1.1/"
   xmlns:cc="http://creativecommons.org/ns#"
   xmlns:rdf="http://www.w3.org/1999/02/22-rdf-syntax-ns#"
   xmlns:svg="http://www.w3.org/2000/svg"
   xmlns="http://www.w3.org/2000/svg"
   xmlns:sodipodi="http://sodipodi.sourceforge.net/DTD/sodipodi-0.dtd"
   xmlns:inkscape="http://www.inkscape.org/namespaces/inkscape"
   width="22.000002"
   height="22"
   viewBox="0 0 22.000002 22"
   version="1.1"
   id="main"
   inkscape:version="0.92+devel (327bdefa15, 2017-09-17, custom)"
   sodipodi:docname="question.svg">
  <defs
     id="ol-defs" />
  <sodipodi:namedview
     id="base"
     pagecolor="#002466"
     bordercolor="#ffffff"
     borderopacity="0.30"
     inkscape:pageopacity="1"
     inkscape:pageshadow="2"
     inkscape:zoom="13.140625"
     inkscape:document-units="px"
     inkscape:current-layer="main"
     inkscape:document-rotation="0"
     showgrid="false"
     inkscape:showpageshadow="false"
     borderlayer="true"
     inkscape:window-width="1920"
     inkscape:window-height="1017"
     inkscape:window-x="0"
     inkscape:window-y="34"
     inkscape:window-maximized="1"
     units="px"
     inkscape:cx="6.4045386"
     inkscape:cy="8.0269054" />
  <metadata
     id="metadata5">
    <rdf:RDF>
      <cc:Work
         rdf:about="">
        <dc:format>image/svg+xml</dc:format>
        <dc:type
           rdf:resource="http://purl.org/dc/dcmitype/StillImage" />
        <dc:title></dc:title>
      </cc:Work>
    </rdf:RDF>
  </metadata>
  <g
     id="g844"
     inkscape:label="#question">
    <path
       style="fill:none;stroke:none;stroke-width:1"
       d="M 0,0 H 22.000001 V 22 H 0 Z"
       id="boundary"
       inkscape:label="#boundary"
       inkscape:connector-curvature="0" />
    <path
       style="opacity:0.6"
       inkscape:label="#"
       inkscape:connector-curvature="0"
       d="M 11.000007,3 C 9.7037148,3 8.4933388,3.454585 7.6406318,4.307292 6.787925,5.159998 6.3333412,6.370373 6.3333412,7.666666 h 2.6666656 c 0,-0.7037 0.212081,-1.159998 0.526042,-1.473958 0.313962,-0.313962 0.7702582,-0.526042 1.4739582,-0.526042 0.703708,0 1.159998,0.212081 1.47396,0.526042 0.313958,0.313961 0.52604,0.770258 0.52604,1.473958 0,0.611114 -0.120465,0.871097 -0.281249,1.101563 -0.160782,0.230461 -0.424179,0.448096 -0.816406,0.722656 -0.392234,0.27456 -0.913253,0.590851 -1.394533,1.152344 C 10.02654,11.204723 9.6666758,12.05556 9.6666758,13 v 0.666667 H 12.333341 V 13 c 0,-0.388887 0.05546,-0.454723 0.199208,-0.622396 0.14372,-0.167671 0.457329,-0.393056 0.898435,-0.701823 0.441101,-0.308772 1.011047,-0.716137 1.475261,-1.381511 0.464214,-0.665373 0.760416,-1.572043 0.760416,-2.627604 0,-1.296293 -0.454577,-2.506668 -1.307291,-3.359374 C 13.506663,3.454585 12.296294,3 10.999995,3 Z M 9.6666758,16.333334 V 19 h 2.6666652 v -2.666666 z"
       fill="#d0d0d0"
       stroke-linecap="round"
       stroke-linejoin="round"
       stroke-width=".529167"
       id="path835" />
  </g>
</svg>
