<?xml version="1.0" encoding="UTF-8" standalone="no"?>
<!-- Created with Inkscape (http://www.inkscape.org/) -->

<svg
   xmlns:dc="http://purl.org/dc/elements/1.1/"
   xmlns:cc="http://creativecommons.org/ns#"
   xmlns:rdf="http://www.w3.org/1999/02/22-rdf-syntax-ns#"
   xmlns:svg="http://www.w3.org/2000/svg"
   xmlns="http://www.w3.org/2000/svg"
   xmlns:sodipodi="http://sodipodi.sourceforge.net/DTD/sodipodi-0.dtd"
   xmlns:inkscape="http://www.inkscape.org/namespaces/inkscape"
   width="22.000002"
   height="22"
   viewBox="0 0 22.000002 22"
   version="1.1"
   id="main"
   inkscape:version="0.92+devel (9d04be7596, 2017-09-23, custom)"
   sodipodi:docname="raindrop.svg">
  <defs
     id="ol-defs" />
  <sodipodi:namedview
     id="base"
     pagecolor="#002466"
     bordercolor="#ffffff"
     borderopacity="0.30"
     inkscape:pageopacity="1"
     inkscape:pageshadow="0"
     inkscape:zoom="13.140625"
     inkscape:document-units="px"
     inkscape:current-layer="g850"
     inkscape:document-rotation="0"
     showgrid="false"
     inkscape:showpageshadow="false"
     borderlayer="true"
     inkscape:window-width="1920"
     inkscape:window-height="1017"
     inkscape:window-x="0"
     inkscape:window-y="34"
     inkscape:window-maximized="1"
     units="px"
     inkscape:cx="6.5947884"
     inkscape:cy="8.0269054">
    <inkscape:grid
       type="xygrid"
       id="grid846" />
  </sodipodi:namedview>
  <metadata
     id="metadata5">
    <rdf:RDF>
      <cc:Work
         rdf:about="">
        <dc:format>image/svg+xml</dc:format>
        <dc:type
           rdf:resource="http://purl.org/dc/dcmitype/StillImage" />
        <dc:title></dc:title>
      </cc:Work>
    </rdf:RDF>
  </metadata>
  <g
     id="g850"
     inkscape:label="#raindrop">
    <path
       style="fill:none;stroke:none;stroke-width:1"
       d="M 0,0 H 22.000001 V 22 H 0 Z"
       id="boundary"
       inkscape:label="#boundary"
       inkscape:connector-curvature="0" />
    <path
       inkscape:label="#"
       inkscape:connector-curvature="0"
       id="path839"
       d="M 11.000001,3 C 10.461567,4.8844378 9.1435163,6.5041778 8.562501,7.801136 8.3591694,8.186749 8.2329555,8.62019 8.2329555,9.088068 c 0,1.532995 1.234052,2.767045 2.7670455,2.767045 1.532994,0 2.767045,-1.23405 2.767046,-2.767045 0,-0.467878 -0.126215,-0.901319 -0.329546,-1.286932 C 12.856485,6.5041778 11.538429,4.8844378 11.000001,3 Z M 5.7670465,10.144886 C 5.228613,12.029324 3.9105617,13.649064 3.3295464,14.946023 3.1262148,15.331636 3.000001,15.765076 3.000001,16.232954 3.000001,17.765949 4.234053,19 5.7670465,19 c 1.5329941,0 2.7670454,-1.234051 2.7670454,-2.767046 0,-0.467878 -0.1262145,-0.901318 -0.3295454,-1.286931 -0.581016,-1.296959 -1.8990724,-2.916699 -2.4375,-4.801137 z m 10.4659085,0 c -0.538433,1.884438 -1.856484,3.504178 -2.437499,4.801137 -0.203332,0.385613 -0.329546,0.819053 -0.329546,1.286931 0,1.532994 1.234052,2.767046 2.767045,2.767046 1.532994,0 2.767046,-1.234051 2.767046,-2.767046 0,-0.467878 -0.126215,-0.901318 -0.329545,-1.286931 -0.581016,-1.296959 -1.899073,-2.916699 -2.437501,-4.801137 z"
       style="opacity:0.6;fill:#d0d0d0;stroke-width:0.7379027;stroke:none" />
  </g>
</svg>
