<?xml version="1.0" encoding="UTF-8" standalone="no"?>
<svg
   xmlns:dc="http://purl.org/dc/elements/1.1/"
   xmlns:cc="http://creativecommons.org/ns#"
   xmlns:rdf="http://www.w3.org/1999/02/22-rdf-syntax-ns#"
   xmlns:svg="http://www.w3.org/2000/svg"
   xmlns="http://www.w3.org/2000/svg"
   xmlns:sodipodi="http://sodipodi.sourceforge.net/DTD/sodipodi-0.dtd"
   xmlns:inkscape="http://www.inkscape.org/namespaces/inkscape"
   height="22"
   viewBox="0 0 22 22"
   width="22"
   version="1.1"
   id="svg4"
   sodipodi:docname="remove-link.svg"
   inkscape:version="0.92+devel (1c31310676, 2017-09-09, custom)">
  <metadata
     id="metadata10">
    <rdf:RDF>
      <cc:Work
         rdf:about="">
        <dc:format>image/svg+xml</dc:format>
        <dc:type
           rdf:resource="http://purl.org/dc/dcmitype/StillImage" />
        <dc:title></dc:title>
      </cc:Work>
    </rdf:RDF>
  </metadata>
  <defs
     id="defs8" />
  <sodipodi:namedview
     pagecolor="#002466"
     bordercolor="#ffffff"
     inkscape:document-rotation="0"
     borderopacity="0.13333333"
     objecttolerance="10"
     gridtolerance="10"
     guidetolerance="10"
     inkscape:pageopacity="0"
     inkscape:pageshadow="2"
     inkscape:window-width="1920"
     inkscape:window-height="1027"
     id="namedview6"
     showgrid="false"
     borderlayer="true"
     inkscape:showpageshadow="false"
     inkscape:zoom="22.96875"
     inkscape:cx="7.390476"
     inkscape:cy="8.0000001"
     inkscape:window-x="0"
     inkscape:window-y="24"
     inkscape:window-maximized="1"
     inkscape:current-layer="svg4" />
  <g
     id="g844"
     style="stroke:none;stroke-width:0.72727275"
     inkscape:label="#remove-link"
     transform="scale(1.375)">
    <path
       inkscape:connector-curvature="0"
       inkscape:label="#boundary"
       style="stroke:none"
       id="path2"
       stroke-width=".25455"
       stroke-linecap="round"
       fill="none"
       d="M 0,-4.9999999e-8 H 16 V 16 H 0 Z" />
    <path
       style="fill:#ff0000;stroke:none;stroke-width:2.74874735"
       d="m 6.1738281,5.3808594 c -1.1779428,0 -2.1727074,0.7964519 -2.4980469,1.8730468 H 2.7578125 C 2.3387076,7.2539063 2,7.590661 2,8.0097656 2,8.4288706 2.3387076,8.7675781 2.7578125,8.7675781 h 0.9257813 c 0.3334802,1.064545 1.3216685,1.8515629 2.4902343,1.8515629 h 3.6894531 c 1.1739108,0 2.1624178,-0.7951799 2.4902348,-1.8671879 h 0.888672 C 13.661293,8.7519531 14,8.4151988 14,7.9960938 14,7.5769886 13.661293,7.2402344 13.242188,7.2402344 H 12.353516 C 12.024455,6.1712869 11.035756,5.3808594 9.8632812,5.3808594 Z m 0,1.5136718 h 3.6894531 c 0.3263788,0 0.6113348,0.1323522 0.8105468,0.3457032 H 9.0527344 c -0.4191049,0 -0.7558594,0.3367542 -0.7558594,0.7558594 0,0.4191049 0.3367545,0.7558593 0.7558594,0.7558593 h 1.6249996 c -0.1994,0.217557 -0.485432,0.3535157 -0.8144528,0.3535157 H 6.1738281 c -0.3220796,0 -0.6047394,-0.1284167 -0.8046875,-0.3378907 h 1.4628906 c 0.4191052,0 0.7558594,-0.3387075 0.7558594,-0.7578125 0,-0.4191046 -0.3367541,-0.7558594 -0.7558594,-0.7558594 H 5.3496094 C 5.5504025,7.0321992 5.840313,6.8945312 6.1738281,6.8945312 Z"
       id="path816"
       inkscape:connector-curvature="0"
       inkscape:label="#" />
  </g>
</svg>
