<?xml version="1.0" encoding="UTF-8" standalone="no"?>
<!-- Created with Inkscape (http://www.inkscape.org/) -->

<svg
   xmlns:dc="http://purl.org/dc/elements/1.1/"
   xmlns:cc="http://creativecommons.org/ns#"
   xmlns:rdf="http://www.w3.org/1999/02/22-rdf-syntax-ns#"
   xmlns:svg="http://www.w3.org/2000/svg"
   xmlns="http://www.w3.org/2000/svg"
   xmlns:sodipodi="http://sodipodi.sourceforge.net/DTD/sodipodi-0.dtd"
   xmlns:inkscape="http://www.inkscape.org/namespaces/inkscape"
   width="22.000002"
   height="22"
   viewBox="0 0 22.000002 22"
   version="1.1"
   id="main"
   inkscape:version="0.92+devel (1da36c2be7, 2017-09-15, custom)"
   sodipodi:docname="resource-calendar-child-insert.svg">
  <defs
     id="ol-defs" />
  <sodipodi:namedview
     id="base"
     pagecolor="#002466"
     bordercolor="#ffffff"
     borderopacity="0.30"
     inkscape:pageopacity="1"
     inkscape:pageshadow="2"
     inkscape:zoom="26.28125"
     inkscape:document-units="px"
     inkscape:current-layer="main"
     inkscape:document-rotation="0"
     showgrid="false"
     inkscape:showpageshadow="false"
     borderlayer="true"
     inkscape:window-width="1920"
     inkscape:window-height="1029"
     inkscape:window-x="0"
     inkscape:window-y="22"
     inkscape:window-maximized="1"
     units="px"
     inkscape:cx="12.13875"
     inkscape:cy="11.504973"
     inkscape:snap-intersection-paths="true"
     inkscape:object-paths="false" />
  <metadata
     id="metadata5">
    <rdf:RDF>
      <cc:Work
         rdf:about="">
        <dc:format>image/svg+xml</dc:format>
        <dc:type
           rdf:resource="http://purl.org/dc/dcmitype/StillImage" />
        <dc:title></dc:title>
      </cc:Work>
    </rdf:RDF>
  </metadata>
  <g
     id="g905"
     inkscape:label="#resource-calendar-child-insert"
     style="stroke:none;stroke-width:0.72727275"
     transform="scale(1.375)">
    <path
       style="fill:none;stroke:none;stroke-width:0.72727275"
       d="M -5.5000004e-8,-4.9999999e-8 H 16.000001 V 16 H -5.5000004e-8 Z"
       id="boundary"
       inkscape:label="#boundary"
       inkscape:connector-curvature="0" />
    <path
       inkscape:label="#"
       inkscape:connector-curvature="0"
       id="path835"
       d="M 2.599121,2 C 2.2667209,2 1.9999998,2.2667211 1.9999999,2.5991211 V 13.399414 C 1.9999999,13.731817 2.2667231,14 2.599121,14 H 13.397949 C 13.73035,14 14,13.731819 14,13.399414 V 2.5991211 C 14,2.2667211 13.730347,2 13.397949,2 h -1.517578 v 1.1865234 h -1.17627 V 2 H 8.5859374 V 3.1865234 H 7.4111327 V 2 H 5.2929687 V 3.1865234 H 4.1166991 V 2 Z M 6.8339842,4.6601563 H 7.5048827 V 5.18457 H 8.0249022 V 4.6601563 H 8.9609374 V 5.18457 H 9.4809569 V 4.6601563 H 10.416992 V 5.18457 h 0.520019 V 4.6601563 h 0.670899 c 0.14697,0 0.266601,0.1181659 0.266601,0.2651367 v 3.275391 c 0,0.146973 -0.119629,0.265137 -0.266601,0.265137 H 6.8339842 c -0.1469701,0 -0.2651367,-0.118165 -0.2651367,-0.265137 V 4.925293 c 0,-0.1469708 0.1181657,-0.2651367 0.2651367,-0.2651367 z M 3.5029296,9.456055 h 1.1381835 v 1.713867 h 2.4448243 v -0.789551 l 2.0742188,1.350586 -2.0742188,1.350586 V 12.230469 H 3.5029296 Z"
       style="fill:#005cc7;stroke:none;stroke-width:2.74874735" />
  </g>
</svg>
