<?xml version="1.0" encoding="UTF-8" standalone="no"?>
<!-- Created with Inkscape (http://www.inkscape.org/) -->

<svg
   xmlns:dc="http://purl.org/dc/elements/1.1/"
   xmlns:cc="http://creativecommons.org/ns#"
   xmlns:rdf="http://www.w3.org/1999/02/22-rdf-syntax-ns#"
   xmlns:svg="http://www.w3.org/2000/svg"
   xmlns="http://www.w3.org/2000/svg"
   xmlns:sodipodi="http://sodipodi.sourceforge.net/DTD/sodipodi-0.dtd"
   xmlns:inkscape="http://www.inkscape.org/namespaces/inkscape"
   width="22.000002"
   height="22"
   viewBox="0 0 22.000002 22"
   version="1.1"
   id="main"
   inkscape:version="0.92+devel (1da36c2be7, 2017-09-15, custom)"
   sodipodi:docname="run-build-install.svg">
  <defs
     id="ol-defs" />
  <sodipodi:namedview
     id="base"
     pagecolor="#002466"
     bordercolor="#ffffff"
     borderopacity="0.30"
     inkscape:pageopacity="1"
     inkscape:pageshadow="2"
     inkscape:zoom="13.140625"
     inkscape:document-units="px"
     inkscape:current-layer="main"
     inkscape:document-rotation="0"
     showgrid="false"
     inkscape:showpageshadow="false"
     borderlayer="true"
     inkscape:window-width="1920"
     inkscape:window-height="1029"
     inkscape:window-x="0"
     inkscape:window-y="22"
     inkscape:window-maximized="1"
     units="px"
     inkscape:cx="7.313913"
     inkscape:cy="8.0000001" />
  <metadata
     id="metadata5">
    <rdf:RDF>
      <cc:Work
         rdf:about="">
        <dc:format>image/svg+xml</dc:format>
        <dc:type
           rdf:resource="http://purl.org/dc/dcmitype/StillImage" />
        <dc:title></dc:title>
      </cc:Work>
    </rdf:RDF>
  </metadata>
  <g
     id="g857"
     inkscape:label="#run-build-install"
     style="stroke:none;stroke-width:0.72727275"
     transform="scale(1.375)">
    <path
       style="fill:none;stroke:none;stroke-width:0.72727275"
       d="M -5.5000004e-8,-4.9999999e-8 H 16.000001 V 16 H -5.5000004e-8 Z"
       id="boundary"
       inkscape:label="#boundary"
       inkscape:connector-curvature="0" />
    <path
       inkscape:label="#"
       inkscape:connector-curvature="0"
       id="path6"
       d="M 7.453125,2 6.9179688,3.2773438 C 6.6378534,3.3414723 6.3639901,3.4303636 6.0996094,3.5429688 L 4.9160156,2.8242188 4.03125,3.4667969 4.3476562,4.8125 C 4.1593696,5.0295402 3.9907379,5.2628793 3.84375,5.5097656 L 2.4628906,5.625 2.125,6.6660156 3.1699219,7.5683594 C 3.1563518,7.711849 3.1491833,7.8558721 3.1484375,8 c 0.00145,0.1435053 0.00927,0.2868755 0.023437,0.4296875 L 2.125,9.3339844 2.4628906,10.375 3.8417969,10.490234 c 0.1478031,0.245612 0.3170853,0.47764 0.5058593,0.69336 L 4.03125,12.533203 4.9160156,13.175781 6.0957031,12.460938 c 0.2657058,0.112158 0.5408841,0.200398 0.8222657,0.263671 L 7.453125,14 h 1.09375 l 0.5351562,-1.277344 c 0.1202526,-0.02753 0.23387,-0.07671 0.3515626,-0.113281 -0.124508,-0.28447 -0.1954263,-0.597315 -0.1953126,-0.927734 -4.41e-4,-1.280577 1.0377818,-2.3188017 2.3183598,-2.3183598 0.798377,-2.749e-4 1.500963,0.4033835 1.917968,1.0175778 L 13.537109,10.375 13.875,9.3339844 12.830078,8.4316406 C 12.843648,8.288151 12.850816,8.1441279 12.851562,8 12.85011,7.8564947 12.842289,7.7131245 12.828125,7.5703125 L 13.875,6.6660156 13.537109,5.625 12.158203,5.5097656 C 12.0104,5.264154 11.841118,5.0321264 11.652344,4.8164062 L 11.96875,3.4667969 11.083984,2.8242188 9.9042969,3.5390625 C 9.6385911,3.426904 9.3634127,3.3386639 9.0820312,3.2753906 L 8.546875,2 Z M 6.4628906,5.7636719 10.337891,8 6.4628906,10.236328 Z"
       style="opacity:0.6;fill:#d0d0d0;stroke:none;stroke-width:0.72727275" />
    <path
       inkscape:label="#"
       style="fill:#00ff00;stroke:none;stroke-width:0.72727275"
       d="m 11.563834,9.3381774 c -1.280578,-4.42e-4 -2.3188022,1.0377816 -2.3183602,2.3183596 -4.42e-4,1.280578 1.0377822,2.318801 2.3183602,2.318359 1.280577,4.41e-4 2.3188,-1.037782 2.318359,-2.318359 4.41e-4,-1.280577 -1.037782,-2.3188006 -2.318359,-2.3183596 z"
       id="path851"
       inkscape:connector-curvature="0"
       sodipodi:nodetypes="ccccc" />
  </g>
</svg>
