<?xml version="1.0" encoding="UTF-8" standalone="no"?>
<!-- Created with Inkscape (http://www.inkscape.org/) -->

<svg
   xmlns:dc="http://purl.org/dc/elements/1.1/"
   xmlns:cc="http://creativecommons.org/ns#"
   xmlns:rdf="http://www.w3.org/1999/02/22-rdf-syntax-ns#"
   xmlns:svg="http://www.w3.org/2000/svg"
   xmlns="http://www.w3.org/2000/svg"
   xmlns:sodipodi="http://sodipodi.sourceforge.net/DTD/sodipodi-0.dtd"
   xmlns:inkscape="http://www.inkscape.org/namespaces/inkscape"
   width="22.000002"
   height="22"
   viewBox="0 0 22.000002 22"
   version="1.1"
   id="main"
   inkscape:version="0.92+devel (1da36c2be7, 2017-09-15, custom)"
   sodipodi:docname="run-build-install-root.svg">
  <defs
     id="ol-defs" />
  <sodipodi:namedview
     id="base"
     pagecolor="#002466"
     bordercolor="#ffffff"
     borderopacity="0.30"
     inkscape:pageopacity="1"
     inkscape:pageshadow="2"
     inkscape:zoom="37.1673"
     inkscape:document-units="px"
     inkscape:current-layer="g854"
     inkscape:document-rotation="0"
     showgrid="false"
     inkscape:showpageshadow="false"
     borderlayer="true"
     inkscape:window-width="1920"
     inkscape:window-height="1029"
     inkscape:window-x="0"
     inkscape:window-y="22"
     inkscape:window-maximized="1"
     units="px"
     inkscape:cx="12.561664"
     inkscape:cy="6.7748385"
     inkscape:object-paths="false"
     inkscape:snap-intersection-paths="true" />
  <metadata
     id="metadata5">
    <rdf:RDF>
      <cc:Work
         rdf:about="">
        <dc:format>image/svg+xml</dc:format>
        <dc:type
           rdf:resource="http://purl.org/dc/dcmitype/StillImage" />
        <dc:title></dc:title>
      </cc:Work>
    </rdf:RDF>
  </metadata>
  <g
     id="g854"
     inkscape:label="#run-build-install-root"
     style="stroke:none;stroke-width:0.72727275"
     transform="scale(1.375)">
    <path
       style="fill:none;stroke:none;stroke-width:0.72727275"
       d="M -5.5000004e-8,-4.9999999e-8 H 16.000001 V 16 H -5.5000004e-8 Z"
       id="boundary"
       inkscape:label="#boundary"
       inkscape:connector-curvature="0" />
    <path
       inkscape:label="#"
       id="path6"
       d="M 7.453125,2 6.9179688,3.2773438 A 4.8511233,4.8511233 0 0 0 6.0996094,3.5429688 L 4.9160156,2.8242188 4.03125,3.4667969 4.3476562,4.8125 A 4.8511233,4.8511233 0 0 0 3.84375,5.5097656 L 2.4628906,5.625 2.125,6.6660156 3.1699219,7.5683594 A 4.8511233,4.8511233 0 0 0 3.1484375,8 4.8511233,4.8511233 0 0 0 3.171875,8.4296875 L 2.125,9.3339844 2.4628906,10.375 3.8417969,10.490234 a 4.8511233,4.8511233 0 0 0 0.5058593,0.69336 L 4.03125,12.533203 4.9160156,13.175781 6.0957031,12.460938 a 4.8511233,4.8511233 0 0 0 0.8222657,0.263671 L 7.453125,14 h 1.09375 L 8.875,13.216797 V 9.5 C 8.875,9.223 9.098,9 9.375,9 h 4 c 0.05194,0 0.09946,0.014731 0.146484,0.029297 L 12.830078,8.4316406 A 4.8511233,4.8511233 0 0 0 12.851562,8 4.8511233,4.8511233 0 0 0 12.828125,7.5703125 L 13.875,6.6660156 13.537109,5.625 12.158203,5.5097656 A 4.8511233,4.8511233 0 0 0 11.652344,4.8164062 L 11.96875,3.4667969 11.083984,2.8242188 9.9042969,3.5390625 A 4.8511233,4.8511233 0 0 0 9.0820312,3.2753906 L 8.546875,2 Z M 6.7597656,6.0683594 10.365234,8.1484375 6.7597656,10.230469 Z m 7.0683594,3.2265625 c 0.01427,0.031565 0.01788,0.066866 0.02539,0.1015625 l 0.02148,-0.0625 z"
       style="fill:#ff0000;stroke:none;stroke-width:0.72727275"
       inkscape:connector-curvature="0" />
    <path
       inkscape:label="#"
       inkscape:connector-curvature="0"
       style="opacity:0.6;fill:#d0d0d0;stroke:none;stroke-width:0.72727275"
       d="m 9.3735584,9.008817 c -0.277,0 -0.5,0.223 -0.5,0.5 v 4 c 0,0.277 0.223,0.5 0.5,0.5 H 13.37356 c 0.277,0 0.5,-0.223 0.5,-0.5 v -4 c 0,-0.277 -0.223,-0.5 -0.5,-0.5 z m 2.4296896,0.996093 h 0.9375 l -1.796875,3.007814 h -0.9375 z"
       id="path844" />
  </g>
</svg>
