<?xml version="1.0" encoding="UTF-8" standalone="no"?>
<!-- Created with Inkscape (http://www.inkscape.org/) -->

<svg
   xmlns:dc="http://purl.org/dc/elements/1.1/"
   xmlns:cc="http://creativecommons.org/ns#"
   xmlns:rdf="http://www.w3.org/1999/02/22-rdf-syntax-ns#"
   xmlns:svg="http://www.w3.org/2000/svg"
   xmlns="http://www.w3.org/2000/svg"
   xmlns:sodipodi="http://sodipodi.sourceforge.net/DTD/sodipodi-0.dtd"
   xmlns:inkscape="http://www.inkscape.org/namespaces/inkscape"
   width="22.000002"
   height="22"
   viewBox="0 0 22.000002 22"
   version="1.1"
   id="main"
   inkscape:version="0.92+devel (9cbd9e9661, 2017-09-28, custom)"
   sodipodi:docname="skg-chart-bubble.svg">
  <defs
     id="ol-defs" />
  <sodipodi:namedview
     id="base"
     pagecolor="#002466"
     bordercolor="#ffffff"
     borderopacity="0.30"
     inkscape:pageopacity="1"
     inkscape:pageshadow="0"
     inkscape:zoom="18.58365"
     inkscape:document-units="px"
     inkscape:current-layer="g850"
     inkscape:document-rotation="0"
     showgrid="false"
     inkscape:showpageshadow="false"
     borderlayer="true"
     inkscape:window-width="1920"
     inkscape:window-height="1027"
     inkscape:window-x="0"
     inkscape:window-y="24"
     inkscape:window-maximized="1"
     units="px"
     inkscape:cx="6.5947884"
     inkscape:cy="8.0269054" />
  <metadata
     id="metadata5">
    <rdf:RDF>
      <cc:Work
         rdf:about="">
        <dc:format>image/svg+xml</dc:format>
        <dc:type
           rdf:resource="http://purl.org/dc/dcmitype/StillImage" />
        <dc:title></dc:title>
      </cc:Work>
    </rdf:RDF>
  </metadata>
  <g
     id="g850"
     inkscape:label="#skg-chart-bubble"
     style="stroke:none">
    <path
       style="fill:none;stroke:none;stroke-width:1"
       d="M 0,0 H 22.000001 V 22 H 0 Z"
       id="boundary"
       inkscape:label="#boundary"
       inkscape:connector-curvature="0" />
    <path
       inkscape:label="#"
       inkscape:connector-curvature="0"
       style="opacity:0.62000002;fill:#d0d0d0;stroke:none;stroke-width:1.88933337;stroke-linecap:round;stroke-dashoffset:0.15256613"
       d="M 4.3333341,3 V 16.333333 H 3.0000008 v 1.333334 H 4.3333341 V 19 H 5.6666675 V 17.666667 H 19.000001 V 16.333333 H 5.6666675 V 3 Z"
       id="rect811" />
    <path
       inkscape:label="#"
       id="circle839"
       d="M 9.6152344,5.1542969 A 1.3220121,1.3220121 0 0 0 8.2929688,6.4765625 1.3220121,1.3220121 0 0 0 9.6152344,7.7988281 1.3220121,1.3220121 0 0 0 10.9375,6.4765625 1.3220121,1.3220121 0 0 0 9.6152344,5.1542969 Z m 6.6113276,0.9101562 a 1.3220121,1.3220121 0 0 0 -1.322265,1.3203125 1.3220121,1.3220121 0 0 0 1.322265,1.3222656 1.3220121,1.3220121 0 0 0 1.322266,-1.3222656 1.3220121,1.3220121 0 0 0 -1.322266,-1.3203125 z m -4.5625,4.3749999 a 2.0657344,2.0657344 0 0 0 -2.0664058,2.064453 2.0657344,2.0657344 0 0 0 2.0664058,2.066406 2.0657344,2.0657344 0 0 0 2.066407,-2.066406 2.0657344,2.0657344 0 0 0 -2.066407,-2.064453 z"
       style="fill:#ffb900;stroke:none;stroke-width:1.41700006;stroke-linecap:round;stroke-dashoffset:0.15256613"
       inkscape:connector-curvature="0" />
  </g>
</svg>
