<?xml version="1.0" encoding="UTF-8" standalone="no"?>
<!-- Created with Inkscape (http://www.inkscape.org/) -->

<svg
   xmlns:dc="http://purl.org/dc/elements/1.1/"
   xmlns:cc="http://creativecommons.org/ns#"
   xmlns:rdf="http://www.w3.org/1999/02/22-rdf-syntax-ns#"
   xmlns:svg="http://www.w3.org/2000/svg"
   xmlns="http://www.w3.org/2000/svg"
   xmlns:sodipodi="http://sodipodi.sourceforge.net/DTD/sodipodi-0.dtd"
   xmlns:inkscape="http://www.inkscape.org/namespaces/inkscape"
   width="22.000002"
   height="22"
   viewBox="0 0 22.000002 22"
   version="1.1"
   id="main"
   inkscape:version="0.92+devel (1da36c2be7, 2017-09-15, custom)"
   sodipodi:docname="speaker.svg">
  <defs
     id="ol-defs" />
  <sodipodi:namedview
     id="base"
     pagecolor="#002466"
     bordercolor="#ffffff"
     borderopacity="0.30"
     inkscape:pageopacity="1"
     inkscape:pageshadow="2"
     inkscape:zoom="18.58365"
     inkscape:document-units="px"
     inkscape:current-layer="main"
     inkscape:document-rotation="0"
     showgrid="false"
     inkscape:showpageshadow="false"
     borderlayer="true"
     inkscape:window-width="1920"
     inkscape:window-height="1029"
     inkscape:window-x="0"
     inkscape:window-y="22"
     inkscape:window-maximized="1"
     units="px"
     inkscape:cx="7.5022506"
     inkscape:cy="8.0000001" />
  <metadata
     id="metadata5">
    <rdf:RDF>
      <cc:Work
         rdf:about="">
        <dc:format>image/svg+xml</dc:format>
        <dc:type
           rdf:resource="http://purl.org/dc/dcmitype/StillImage" />
        <dc:title></dc:title>
      </cc:Work>
    </rdf:RDF>
  </metadata>
  <g
     id="g839"
     inkscape:label="#speaker"
     style="stroke:none;stroke-width:0.72727275"
     transform="scale(1.375)">
    <path
       style="fill:none;stroke:none;stroke-width:0.72727275"
       d="M -5.5000004e-8,-4.9999999e-8 H 16.000001 V 16 H -5.5000004e-8 Z"
       id="boundary"
       inkscape:label="#boundary"
       inkscape:connector-curvature="0" />
    <path
       inkscape:label="#"
       inkscape:connector-curvature="0"
       style="opacity:0.6;fill:#d0d0d0;stroke:none;stroke-width:0.72727275"
       d="M 4.800781,2 C 4.357581,2 4,2.357581 4,2.800781 V 13.199219 C 4,13.642419 4.357581,14 4.800781,14 h 6.398437 C 11.642418,14 12,13.642419 12,13.199219 V 2.800781 C 12,2.357581 11.642418,2 11.199218,2 Z M 8,3.544922 A 1.1307238,1.1307238 0 0 1 9.130859,4.675781 1.1307238,1.1307238 0 0 1 8,5.80664 1.1307238,1.1307238 0 0 1 6.86914,4.675781 1.1307238,1.1307238 0 0 1 8,3.544922 Z M 7.9668,4.222656 A 0.45403225,0.45403225 0 0 0 7.544925,4.675781 0.45403225,0.45403225 0 0 0 8.000003,5.130859 0.45403225,0.45403225 0 0 0 8.455081,4.675781 0.45403225,0.45403225 0 0 0 8.000003,4.222656 a 0.45403225,0.45403225 0 0 0 -0.0332,0 z M 8,7.017578 A 2.7184825,2.7184825 0 0 1 10.71875,9.736328 2.7184825,2.7184825 0 0 1 8,12.455078 2.7184825,2.7184825 0 0 1 5.28125,9.736328 2.7184825,2.7184825 0 0 1 8,7.017578 Z M 8,8.644531 A 1.0915829,1.0915829 0 0 0 6.908203,9.736328 1.0915829,1.0915829 0 0 0 8,10.828125 1.0915829,1.0915829 0 0 0 9.091797,9.736328 1.0915829,1.0915829 0 0 0 8,8.644531 Z"
       id="rect811" />
  </g>
</svg>
