<?xml version="1.0" encoding="UTF-8" standalone="no"?>
<!-- Created with Inkscape (http://www.inkscape.org/) -->

<svg
   xmlns:dc="http://purl.org/dc/elements/1.1/"
   xmlns:cc="http://creativecommons.org/ns#"
   xmlns:rdf="http://www.w3.org/1999/02/22-rdf-syntax-ns#"
   xmlns:svg="http://www.w3.org/2000/svg"
   xmlns="http://www.w3.org/2000/svg"
   xmlns:sodipodi="http://sodipodi.sourceforge.net/DTD/sodipodi-0.dtd"
   xmlns:inkscape="http://www.inkscape.org/namespaces/inkscape"
   width="22.000002"
   height="22"
   viewBox="0 0 22.000002 22"
   version="1.1"
   id="main"
   inkscape:version="0.92+devel (1da36c2be7, 2017-09-15, custom)"
   sodipodi:docname="standard-connector.svg">
  <defs
     id="ol-defs" />
  <sodipodi:namedview
     id="base"
     pagecolor="#002466"
     bordercolor="#ffffff"
     borderopacity="0.30"
     inkscape:pageopacity="1"
     inkscape:pageshadow="2"
     inkscape:zoom="18.58365"
     inkscape:document-units="px"
     inkscape:current-layer="main"
     inkscape:document-rotation="0"
     showgrid="false"
     inkscape:showpageshadow="false"
     borderlayer="true"
     inkscape:window-width="1920"
     inkscape:window-height="1029"
     inkscape:window-x="0"
     inkscape:window-y="22"
     inkscape:window-maximized="1"
     units="px"
     inkscape:cx="7.5022506"
     inkscape:cy="8.0000001" />
  <metadata
     id="metadata5">
    <rdf:RDF>
      <cc:Work
         rdf:about="">
        <dc:format>image/svg+xml</dc:format>
        <dc:type
           rdf:resource="http://purl.org/dc/dcmitype/StillImage" />
        <dc:title></dc:title>
      </cc:Work>
    </rdf:RDF>
  </metadata>
  <g
     id="g839"
     style="stroke:none;stroke-width:0.72727275"
     inkscape:label="#standard-connector"
     transform="scale(1.375)">
    <path
       style="fill:none;stroke:none;stroke-width:0.72727275"
       d="M -5.5000004e-8,-4.9999999e-8 H 16.000001 V 16 H -5.5000004e-8 Z"
       id="boundary"
       inkscape:label="#boundary"
       inkscape:connector-curvature="0" />
    <path
       inkscape:label="#"
       inkscape:connector-curvature="0"
       id="path826"
       d="m 4,2.9999999 v 1 H 7 V 12 13 h 5 V 12 H 8 V 3.908203 2.9999999 Z"
       style="opacity:0.6;fill:#d0d0d0;stroke:none;stroke-width:0.72727275" />
    <path
       inkscape:label="#"
       inkscape:connector-curvature="0"
       id="circle831"
       d="m 3.4208979,2.2558593 a 1.2034036,1.2034036 0 0 0 -1.203125,1.203125 1.2034036,1.2034036 0 0 0 1.203125,1.203125 1.2034036,1.2034036 0 0 0 1.203125,-1.203125 1.2034036,1.2034036 0 0 0 -1.203125,-1.203125 z m 9.1582031,9.0800787 a 1.2034036,1.2034036 0 0 0 -1.203125,1.203125 1.2034036,1.2034036 0 0 0 1.203125,1.205078 1.2034036,1.2034036 0 0 0 1.203125,-1.205078 1.2034036,1.2034036 0 0 0 -1.203125,-1.203125 z"
       style="fill:#00ff00;stroke:none;stroke-width:0.72727275" />
  </g>
</svg>
