<?xml version="1.0" encoding="UTF-8" standalone="no"?>
<svg
   xmlns:dc="http://purl.org/dc/elements/1.1/"
   xmlns:cc="http://creativecommons.org/ns#"
   xmlns:rdf="http://www.w3.org/1999/02/22-rdf-syntax-ns#"
   xmlns:svg="http://www.w3.org/2000/svg"
   xmlns="http://www.w3.org/2000/svg"
   xmlns:sodipodi="http://sodipodi.sourceforge.net/DTD/sodipodi-0.dtd"
   xmlns:inkscape="http://www.inkscape.org/namespaces/inkscape"
   viewBox="0 0 22 22"
   version="1.1"
   id="svg6"
   sodipodi:docname="stateshape.svg"
   inkscape:version="0.92+devel (1da36c2be7, 2017-09-15, custom)"
   width="22"
   height="22">
  <metadata
     id="metadata10">
    <rdf:RDF>
      <cc:Work
         rdf:about="">
        <dc:format>image/svg+xml</dc:format>
        <dc:type
           rdf:resource="http://purl.org/dc/dcmitype/StillImage" />
        <dc:title></dc:title>
      </cc:Work>
    </rdf:RDF>
  </metadata>
  <sodipodi:namedview
     pagecolor="#002466"
     bordercolor="#ffffff"
     inkscape:document-rotation="0"
     borderopacity="0.29019608"
     objecttolerance="10"
     gridtolerance="10"
     guidetolerance="10"
     inkscape:pageopacity="0"
     inkscape:pageshadow="2"
     inkscape:window-width="1920"
     inkscape:window-height="1029"
     id="namedview8"
     showgrid="false"
     inkscape:zoom="16.241359"
     inkscape:cx="7.4166206"
     inkscape:cy="8"
     inkscape:window-x="0"
     inkscape:window-y="22"
     inkscape:window-maximized="1"
     inkscape:current-layer="svg6"
     borderlayer="true"
     inkscape:showpageshadow="false" />
  <defs
     id="defs3051">
    <style
       type="text/css"
       id="current-color-scheme">
      .ColorScheme-Text {
        color:#d0d0d0;
      }
      </style>
  </defs>
  <path
     style="opacity:1;fill:currentColor;stroke:none;stroke-width:1"
     d="M 11,3 A 7.9999965,7.9999965 0 0 0 3.0000001,10.999999 7.9999965,7.9999965 0 0 0 11,19 7.9999965,7.9999965 0 0 0 19,10.999999 7.9999965,7.9999965 0 0 0 11,3 Z m 0,1.7986346 c 3.419816,1.5e-6 6.201364,2.7815511 6.201365,6.2013644 0,3.419816 -2.781549,6.201364 -6.201365,6.201365 -3.4198173,0 -6.2013653,-2.781548 -6.2013653,-6.201365 C 4.7986361,7.5801844 7.5801853,4.7986333 11,4.7986346 Z m 0,0.8737205 c -2.9476227,-1.3e-6 -5.3276439,2.3800227 -5.3276453,5.3276439 0,2.947624 2.3800226,5.327645 5.3276453,5.327645 2.947622,-1e-6 5.327645,-2.380022 5.327645,-5.327645 C 16.327644,8.0523778 13.947622,5.6723564 11,5.6723551 Z"
     id="path817"
     inkscape:connector-curvature="0"
     class="ColorScheme-Text"
     sodipodi:insensitive="true"
     inkscape:label="#" />
</svg>
