<?xml version="1.0" encoding="UTF-8" standalone="no"?>
<!-- Created with Inkscape (http://www.inkscape.org/) -->

<svg
   xmlns:dc="http://purl.org/dc/elements/1.1/"
   xmlns:cc="http://creativecommons.org/ns#"
   xmlns:rdf="http://www.w3.org/1999/02/22-rdf-syntax-ns#"
   xmlns:svg="http://www.w3.org/2000/svg"
   xmlns="http://www.w3.org/2000/svg"
   xmlns:sodipodi="http://sodipodi.sourceforge.net/DTD/sodipodi-0.dtd"
   xmlns:inkscape="http://www.inkscape.org/namespaces/inkscape"
   width="22.000002"
   height="22"
   viewBox="0 0 22.000002 22"
   version="1.1"
   id="main"
   inkscape:version="0.92+devel (9cbd9e9661, 2017-09-28, custom)"
   sodipodi:docname="step_object_CircularMotor.svg">
  <defs
     id="ol-defs" />
  <sodipodi:namedview
     id="base"
     pagecolor="#002466"
     bordercolor="#ffffff"
     borderopacity="0.30"
     inkscape:pageopacity="1"
     inkscape:pageshadow="0"
     inkscape:zoom="13.140625"
     inkscape:document-units="px"
     inkscape:current-layer="main"
     inkscape:document-rotation="0"
     showgrid="false"
     inkscape:showpageshadow="false"
     borderlayer="true"
     inkscape:window-width="1920"
     inkscape:window-height="1017"
     inkscape:window-x="0"
     inkscape:window-y="34"
     inkscape:window-maximized="1"
     units="px"
     inkscape:cx="6.5947884"
     inkscape:cy="8.0269054" />
  <metadata
     id="metadata5">
    <rdf:RDF>
      <cc:Work
         rdf:about="">
        <dc:format>image/svg+xml</dc:format>
        <dc:type
           rdf:resource="http://purl.org/dc/dcmitype/StillImage" />
        <dc:title></dc:title>
      </cc:Work>
    </rdf:RDF>
  </metadata>
  <g
     id="g887"
     inkscape:label="#step_object_CircularMotor"
     style="stroke:none">
    <path
       style="fill:none;stroke:none;stroke-width:1"
       d="M 0,0 H 22.000001 V 22 H 0 Z"
       id="boundary"
       inkscape:label="#boundary"
       inkscape:connector-curvature="0" />
    <path
       inkscape:label="#"
       style="opacity:0.6;fill:#d0d0d0;stroke:none"
       id="path881"
       d="M 9.5546875,3 9.2617188,4.6484375 A 6.585552,6.585552 0 0 0 7.7441406,5.2851562 C 7.2533716,4.9380433 6.9027726,4.6848754 6.3652344,4.3203125 l -2.0449219,2.0449219 0.9628906,1.375 A 6.585552,6.585552 0 0 0 4.65625,9.2617188 C 4.063831,9.3636817 3.637474,9.4324535 3,9.5546875 v 2.8906245 l 1.6484375,0.292969 a 6.585552,6.585552 0 0 0 0.6367187,1.517578 c -0.347112,0.490769 -0.6002817,0.841368 -0.9648437,1.378907 l 2.0449219,2.044922 1.375,-0.962891 A 6.585552,6.585552 0 0 0 9.2617188,17.34375 C 9.3636818,17.936169 9.4324534,18.362526 9.5546875,19 h 2.8906245 l 0.292969,-1.648438 a 6.585552,6.585552 0 0 0 1.517578,-0.636718 c 0.490769,0.347112 0.841368,0.600279 1.378907,0.964844 l 2.044922,-2.044922 -0.962891,-1.375 A 6.585552,6.585552 0 0 0 17.34375,12.738281 C 17.936169,12.636318 18.362526,12.567546 19,12.445312 V 9.5546875 L 17.351562,9.2617188 A 6.585552,6.585552 0 0 0 16.714844,7.7441406 c 0.347112,-0.490768 0.600279,-0.8413682 0.964844,-1.3789062 l -2.044922,-2.0449219 -1.375,0.9628906 A 6.585552,6.585552 0 0 0 12.738281,4.65625 C 12.636318,4.0638309 12.567546,3.637474 12.445312,3 Z M 8.5117188,8.0117188 v 0.5 c 0.900629,0.00397 1.5930542,0.3116871 2.0488282,0.7675781 0.458743,0.4588596 0.687964,1.0056041 0.900391,1.4765621 0.212426,0.470957 0.408012,0.863516 0.667968,1.115235 0.259955,0.251719 0.581704,0.421875 1.279297,0.421875 h 0.08008 v -0.490235 l 1.894531,1.091797 -1.894531,1.09375 v -0.5 h -0.08008 c -0.929171,0 -1.638842,-0.300296 -2.111328,-0.757812 C 10.82439,12.272953 10.587157,11.720782 10.373047,11.246094 10.158938,10.771404 9.9651538,10.373421 9.7148438,10.123047 9.4669717,9.8751107 9.1688398,9.7102312 8.5117188,9.7070312 V 10.197266 L 6.6171875,9.1035156 Z m 4.9765622,0 1.894531,1.0917968 -1.894531,1.0937504 V 9.7050781 h -0.08008 c -0.697593,0 -1.019342,0.1721089 -1.279297,0.4238279 -0.08363,0.08098 -0.159592,0.183005 -0.232422,0.292969 -0.147682,-0.32915 -0.323386,-0.7388955 -0.609375,-1.1425781 0.0033,-0.00332 0.0064,-0.00647 0.0098,-0.00977 0.472486,-0.457516 1.182157,-0.7597656 2.111328,-0.7597656 h 0.08008 z M 9.9375,11.591797 c 0.152863,0.337115 0.343876,0.726293 0.644531,1.105469 -0.0073,0.0078 -0.01378,0.01769 -0.02148,0.02539 -0.455774,0.45589 -1.1482003,0.761625 -2.0488282,0.765625 v 0.5 l -1.8945313,-1.09375 1.8945313,-1.091797 v 0.488282 c 0.65708,-0.0032 0.9552599,-0.166134 1.203125,-0.414063 C 9.7940997,11.797677 9.86734,11.700274 9.9375,11.591797 Z"
       inkscape:connector-curvature="0" />
  </g>
</svg>
