<?xml version="1.0" encoding="UTF-8" standalone="no"?>
<!-- Created with Inkscape (http://www.inkscape.org/) -->

<svg
   xmlns:dc="http://purl.org/dc/elements/1.1/"
   xmlns:cc="http://creativecommons.org/ns#"
   xmlns:rdf="http://www.w3.org/1999/02/22-rdf-syntax-ns#"
   xmlns:svg="http://www.w3.org/2000/svg"
   xmlns="http://www.w3.org/2000/svg"
   xmlns:sodipodi="http://sodipodi.sourceforge.net/DTD/sodipodi-0.dtd"
   xmlns:inkscape="http://www.inkscape.org/namespaces/inkscape"
   width="22.000002"
   height="22"
   viewBox="0 0 22.000002 22"
   version="1.1"
   id="main"
   inkscape:version="0.92+devel (9cbd9e9661, 2017-09-28, custom)"
   sodipodi:docname="step_object_LinearMotor.svg">
  <defs
     id="ol-defs" />
  <sodipodi:namedview
     id="base"
     pagecolor="#002466"
     bordercolor="#ffffff"
     borderopacity="0.30"
     inkscape:pageopacity="1"
     inkscape:pageshadow="0"
     inkscape:zoom="18.58365"
     inkscape:document-units="px"
     inkscape:current-layer="main"
     inkscape:document-rotation="0"
     showgrid="false"
     inkscape:showpageshadow="false"
     borderlayer="true"
     inkscape:window-width="1920"
     inkscape:window-height="1017"
     inkscape:window-x="0"
     inkscape:window-y="34"
     inkscape:window-maximized="1"
     units="px"
     inkscape:cx="6.5947884"
     inkscape:cy="8.0269054" />
  <metadata
     id="metadata5">
    <rdf:RDF>
      <cc:Work
         rdf:about="">
        <dc:format>image/svg+xml</dc:format>
        <dc:type
           rdf:resource="http://purl.org/dc/dcmitype/StillImage" />
        <dc:title></dc:title>
      </cc:Work>
    </rdf:RDF>
  </metadata>
  <g
     id="g884"
     style="stroke:none"
     inkscape:label="#step_object_LinearMotor">
    <path
       style="fill:none;stroke:none;stroke-width:1"
       d="M 0,0 H 22.000001 V 22 H 0 Z"
       id="boundary"
       inkscape:label="#boundary"
       inkscape:connector-curvature="0" />
    <path
       inkscape:label="#"
       style="opacity:0.6;fill:#d0d0d0;stroke:none"
       id="path879"
       d="M 9.5546875,3 9.2617188,4.6484375 A 6.585552,6.585552 0 0 0 7.7441406,5.2851562 C 7.2533719,4.9380442 6.9027725,4.6848755 6.3652344,4.3203125 l -2.0449219,2.0449219 0.9628906,1.375 A 6.585552,6.585552 0 0 0 4.65625,9.2617188 C 4.0638312,9.3636817 3.637474,9.4324534 3,9.5546875 v 2.8906245 l 1.6484375,0.292969 a 6.585552,6.585552 0 0 0 0.6367187,1.517578 C 4.9380439,14.746628 4.684875,15.097227 4.3203125,15.634766 l 2.0449219,2.044922 1.375,-0.962891 A 6.585552,6.585552 0 0 0 9.2617188,17.34375 C 9.3636817,17.936169 9.4324534,18.362526 9.5546875,19 h 2.8906245 l 0.292969,-1.648438 a 6.585552,6.585552 0 0 0 1.517578,-0.636718 c 0.490769,0.347112 0.841368,0.600279 1.378907,0.964844 l 2.044922,-2.044922 -0.962891,-1.375 A 6.585552,6.585552 0 0 0 17.34375,12.738281 C 17.936169,12.636318 18.362526,12.567546 19,12.445312 V 9.5546875 L 17.351562,9.2617188 A 6.585552,6.585552 0 0 0 16.714844,7.7441406 c 0.347112,-0.490769 0.600279,-0.8413672 0.964844,-1.3789062 l -2.044922,-2.0449219 -1.375,0.9628906 A 6.585552,6.585552 0 0 0 12.738281,4.65625 C 12.636318,4.063831 12.567546,3.637474 12.445312,3 Z M 10.46875,7.6210938 v 0.546875 h 2.078125 c 1.384165,-1e-7 2.519531,1.1353679 2.519531,2.5195312 v 0.154297 c 0,0.632692 -0.04167,0.779932 -0.34375,1.285156 l -1.076172,-0.646484 c 0.151337,-0.253043 0.160157,-0.314422 0.160157,-0.638672 V 10.6875 c 0,-0.7093718 -0.550393,-1.2636719 -1.259766,-1.2636719 H 10.46875 v 0.546875 L 8.5175781,8.796875 Z m -3.0566406,2.0625 1.1328125,0.6093752 c -0.1446638,0.219692 -0.3515625,0.578168 -0.3515625,0.867187 v 0.154297 c 0,0.709372 0.5503931,1.261719 1.2597656,1.261719 h 2.078125 v -0.546875 l 2.203125,1.173828 -2.203125,1.175781 V 13.833984 H 9.453125 C 8.0711994,13.912666 6.9335938,12.698617 6.9335938,11.314453 v -0.154297 c 0,-0.56395 0.1893877,-1.037481 0.4785156,-1.4765622 z"
       inkscape:connector-curvature="0" />
  </g>
</svg>
