<?xml version="1.0" encoding="UTF-8" standalone="no"?>
<!-- Created with Inkscape (http://www.inkscape.org/) -->

<svg
   xmlns:dc="http://purl.org/dc/elements/1.1/"
   xmlns:cc="http://creativecommons.org/ns#"
   xmlns:rdf="http://www.w3.org/1999/02/22-rdf-syntax-ns#"
   xmlns:svg="http://www.w3.org/2000/svg"
   xmlns="http://www.w3.org/2000/svg"
   xmlns:sodipodi="http://sodipodi.sourceforge.net/DTD/sodipodi-0.dtd"
   xmlns:inkscape="http://www.inkscape.org/namespaces/inkscape"
   width="22.000002"
   height="22"
   viewBox="0 0 22.000002 22"
   version="1.1"
   id="main"
   inkscape:version="0.92+devel (9cbd9e9661, 2017-09-28, custom)"
   sodipodi:docname="step_object_CoulombForce.svg">
  <defs
     id="ol-defs" />
  <sodipodi:namedview
     id="base"
     pagecolor="#002466"
     bordercolor="#ffffff"
     borderopacity="0.30"
     inkscape:pageopacity="1"
     inkscape:pageshadow="0"
     inkscape:zoom="19.340909"
     inkscape:document-units="px"
     inkscape:current-layer="main"
     inkscape:document-rotation="0"
     showgrid="false"
     inkscape:showpageshadow="false"
     borderlayer="true"
     inkscape:window-width="1920"
     inkscape:window-height="1017"
     inkscape:window-x="0"
     inkscape:window-y="34"
     inkscape:window-maximized="1"
     units="px"
     inkscape:cx="10.922445"
     inkscape:cy="11"
     inkscape:snap-page="true"
     inkscape:snap-global="false" />
  <metadata
     id="metadata5">
    <rdf:RDF>
      <cc:Work
         rdf:about="">
        <dc:format>image/svg+xml</dc:format>
        <dc:type
           rdf:resource="http://purl.org/dc/dcmitype/StillImage" />
        <dc:title></dc:title>
      </cc:Work>
    </rdf:RDF>
  </metadata>
  <g
     id="g829"
     inkscape:label="#step_object_CoulombForce"
     style="stroke:none">
    <path
       style="fill:none;stroke:none;stroke-width:1"
       d="M 0,0 H 22.000001 V 22 H 0 Z"
       id="boundary"
       inkscape:label="#boundary"
       inkscape:connector-curvature="0" />
    <path
       sodipodi:nodetypes="cccccccscccccccccs"
       inkscape:connector-curvature="0"
       id="path816"
       d="M 11.228694,3 V 4.3284091 H 3.0000005 v 1.2940341 h 8.2286935 3.995738 z M 3.0000005,6.8011364 V 19 H 4.6136369 V 13.458807 H 10.339489 V 12.018466 H 4.6136369 V 8.241477 H 11.228694 V 6.8011364 Z"
       style="font-size:medium;line-height:1.25;font-family:Arial;-inkscape-font-specification:Arial;letter-spacing:0px;word-spacing:0px;opacity:0.6;fill:#d0d0d0;stroke:none;stroke-width:1.16189289"
       inkscape:label="#" />
    <path
       inkscape:label="#"
       d="m 16.662153,16.809419 1.254177,0.397666 q -0.288417,1.04879 -0.96139,1.560074 -0.668604,0.506915 -1.699913,0.506915 -1.276028,0 -2.097579,-0.869621 -0.821552,-0.873991 -0.821552,-2.385996 0,-1.599404 0.825922,-2.482136 0.825921,-0.887101 2.171868,-0.887101 1.175518,0 1.909671,0.694823 0.436996,0.410776 0.655494,1.179889 l -1.280398,0.305897 q -0.113619,-0.498175 -0.476325,-0.786592 -0.358337,-0.288418 -0.873991,-0.288418 -0.712303,0 -1.158039,0.511285 -0.441365,0.511286 -0.441365,1.656214 0,1.214848 0.436995,1.730502 0.436996,0.515655 1.136189,0.515655 0.515655,0 0.887101,-0.327746 0.371446,-0.327747 0.533135,-1.03131 z"
       style="font-style:normal;font-variant:normal;font-weight:bold;font-stretch:normal;font-size:medium;line-height:1.25;font-family:Arial;-inkscape-font-specification:'Arial Bold';letter-spacing:0px;word-spacing:0px;fill:#005cc7;stroke-width:0.61020482;stroke:none"
       id="path819"
       inkscape:connector-curvature="0" />
  </g>
</svg>
