<?xml version="1.0" encoding="UTF-8" standalone="no"?>
<!-- Created with Inkscape (http://www.inkscape.org/) -->

<svg
   xmlns:dc="http://purl.org/dc/elements/1.1/"
   xmlns:cc="http://creativecommons.org/ns#"
   xmlns:rdf="http://www.w3.org/1999/02/22-rdf-syntax-ns#"
   xmlns:svg="http://www.w3.org/2000/svg"
   xmlns="http://www.w3.org/2000/svg"
   xmlns:sodipodi="http://sodipodi.sourceforge.net/DTD/sodipodi-0.dtd"
   xmlns:inkscape="http://www.inkscape.org/namespaces/inkscape"
   width="22.000002"
   height="22"
   viewBox="0 0 22.000002 22"
   version="1.1"
   id="main"
   inkscape:version="0.92+devel (9cbd9e9661, 2017-09-28, custom)"
   sodipodi:docname="step_object_GravitationForce.svg">
  <defs
     id="ol-defs" />
  <sodipodi:namedview
     id="base"
     pagecolor="#002466"
     bordercolor="#ffffff"
     borderopacity="0.30"
     inkscape:pageopacity="1"
     inkscape:pageshadow="0"
     inkscape:zoom="19.340909"
     inkscape:document-units="px"
     inkscape:current-layer="main"
     inkscape:document-rotation="0"
     showgrid="false"
     inkscape:showpageshadow="false"
     borderlayer="true"
     inkscape:window-width="1920"
     inkscape:window-height="1017"
     inkscape:window-x="0"
     inkscape:window-y="34"
     inkscape:window-maximized="1"
     units="px"
     inkscape:cx="11.000001"
     inkscape:cy="11"
     inkscape:snap-page="true"
     inkscape:snap-global="false" />
  <metadata
     id="metadata5">
    <rdf:RDF>
      <cc:Work
         rdf:about="">
        <dc:format>image/svg+xml</dc:format>
        <dc:type
           rdf:resource="http://purl.org/dc/dcmitype/StillImage" />
        <dc:title></dc:title>
      </cc:Work>
    </rdf:RDF>
  </metadata>
  <g
     id="g885"
     inkscape:label="#step_object_GravitationForce"
     style="stroke:none">
    <path
       style="fill:none;stroke:none;stroke-width:1"
       d="M 0,0 H 22.000001 V 22 H 0 Z"
       id="boundary"
       inkscape:label="#boundary"
       inkscape:connector-curvature="0" />
    <path
       sodipodi:nodetypes="cccccccscccccccccs"
       inkscape:connector-curvature="0"
       id="path816"
       d="M 11.228694,3 V 4.3284091 H 3.0000005 v 1.2940341 h 8.2286935 3.995738 z M 3.0000005,6.8011364 V 19 H 4.6136369 V 13.458807 H 10.339489 V 12.018466 H 4.6136369 V 8.241477 H 11.228694 V 6.8011364 Z"
       style="font-size:medium;line-height:1.25;font-family:Arial;-inkscape-font-specification:Arial;letter-spacing:0px;word-spacing:0px;opacity:0.6;fill:#d0d0d0;stroke:none;stroke-width:1.16189289"
       inkscape:label="#" />
    <path
       inkscape:label="#"
       d="M 15.317442,16.804748 V 15.75701 h 2.706304 v 2.477243 q -0.394493,0.381767 -1.145301,0.674455 -0.746567,0.288446 -1.514342,0.288446 -0.975627,0 -1.700984,-0.407219 -0.725357,-0.411458 -1.090156,-1.17075 -0.3648,-0.763535 -0.3648,-1.658566 0,-0.971385 0.407218,-1.726435 0.407218,-0.75505 1.191961,-1.158026 0.598102,-0.309656 1.488891,-0.309656 1.158026,0 1.80703,0.487814 0.653246,0.483571 0.839888,1.340426 l -1.247106,0.233302 q -0.131497,-0.45812 -0.496296,-0.721116 -0.360558,-0.267237 -0.903516,-0.267237 -0.82292,0 -1.310733,0.521749 -0.483571,0.521748 -0.483571,1.548276 0,1.107125 0.492055,1.662808 0.492055,0.551441 1.289524,0.551441 0.394492,0 0.788985,-0.152707 0.398734,-0.156948 0.682938,-0.377525 v -0.788985 z"
       style="font-style:normal;font-variant:normal;font-weight:bold;font-stretch:normal;font-size:medium;line-height:1.25;font-family:Arial;-inkscape-font-specification:'Arial Bold';letter-spacing:0px;word-spacing:0px;fill:#005cc7;stroke:none;stroke-width:0.59231716"
       id="path875"
       inkscape:connector-curvature="0" />
  </g>
</svg>
