<?xml version="1.0" encoding="UTF-8" standalone="no"?>
<!-- Created with Inkscape (http://www.inkscape.org/) -->

<svg
   xmlns:dc="http://purl.org/dc/elements/1.1/"
   xmlns:cc="http://creativecommons.org/ns#"
   xmlns:rdf="http://www.w3.org/1999/02/22-rdf-syntax-ns#"
   xmlns:svg="http://www.w3.org/2000/svg"
   xmlns="http://www.w3.org/2000/svg"
   xmlns:sodipodi="http://sodipodi.sourceforge.net/DTD/sodipodi-0.dtd"
   xmlns:inkscape="http://www.inkscape.org/namespaces/inkscape"
   width="22.000002"
   height="22"
   viewBox="0 0 22.000002 22"
   version="1.1"
   id="main"
   inkscape:version="0.92+devel (1da36c2be7, 2017-09-15, custom)"
   sodipodi:docname="svn-update.svg">
  <defs
     id="ol-defs" />
  <sodipodi:namedview
     id="base"
     pagecolor="#002466"
     bordercolor="#ffffff"
     borderopacity="0.30"
     inkscape:pageopacity="1"
     inkscape:pageshadow="2"
     inkscape:zoom="18.58365"
     inkscape:document-units="px"
     inkscape:current-layer="main"
     inkscape:document-rotation="0"
     showgrid="false"
     inkscape:showpageshadow="false"
     borderlayer="true"
     inkscape:window-width="1920"
     inkscape:window-height="1029"
     inkscape:window-x="0"
     inkscape:window-y="22"
     inkscape:window-maximized="1"
     units="px"
     inkscape:cx="7.1255754"
     inkscape:cy="8.0269054" />
  <metadata
     id="metadata5">
    <rdf:RDF>
      <cc:Work
         rdf:about="">
        <dc:format>image/svg+xml</dc:format>
        <dc:type
           rdf:resource="http://purl.org/dc/dcmitype/StillImage" />
        <dc:title></dc:title>
      </cc:Work>
    </rdf:RDF>
  </metadata>
  <g
     id="g842"
     inkscape:label="#svn-update"
     style="stroke:none;stroke-width:0.72727275"
     transform="scale(1.375)">
    <path
       style="fill:none;stroke:none;stroke-width:0.72727275"
       d="M 0,0 H 16.000001 V 16 H 0 Z"
       id="boundary"
       inkscape:label="#boundary"
       inkscape:connector-curvature="0" />
    <path
       style="opacity:0.6;fill:#d0d0d0;stroke:none;stroke-width:0.72727084;stroke-dasharray:2.18181818, 0.72727091"
       d="m 3.5000013,2 a 1.5,1.5 0 0 0 -1.5,1.5 1.5,1.5 0 0 0 1,1.4121094 v 6.1757816 a 1.5,1.5 0 0 0 -1,1.412109 1.5,1.5 0 0 0 1.5,1.5 A 1.5,1.5 0 0 0 5.000001,12.5 1.5,1.5 0 0 0 4.0000013,11.087891 V 4.9121094 A 1.5,1.5 0 0 0 4.1035169,4.8710938 L 6.628908,7.3964844 A 1.5,1.5 0 0 0 6.500001,8 a 1.5,1.5 0 0 0 1.5,1.5 1.5,1.5 0 0 0 1.5,-1.5 1.5,1.5 0 0 0 -1.5,-1.5 1.5,1.5 0 0 0 -0.685547,0.1679688 L 4.832033,4.1855469 A 1.5,1.5 0 0 0 5.000001,3.5 1.5,1.5 0 0 0 3.5000013,2 Z"
       id="path811"
       inkscape:label="#"
       inkscape:connector-curvature="0" />
    <path
       inkscape:label="#"
       inkscape:transform-center-y="0.66267323"
       d="M 14.000001,10.023959 11.704433,14 9.4088656,10.023959 Z"
       inkscape:randomized="0"
       inkscape:rounded="0"
       inkscape:flatsided="true"
       sodipodi:arg2="0.52359878"
       sodipodi:arg1="-0.52359878"
       sodipodi:r2="1.3253468"
       sodipodi:r1="2.6506934"
       sodipodi:cy="11.349306"
       sodipodi:cx="11.704433"
       sodipodi:sides="3"
       id="path837"
       style="fill:#005cc7;stroke:none;stroke-width:0.72727269;stroke-dasharray:2.18181817, 0.72727272"
       sodipodi:type="star" />
  </g>
</svg>
