<?xml version="1.0" encoding="UTF-8" standalone="no"?>
<!-- Created with Inkscape (http://www.inkscape.org/) -->

<svg
   xmlns:dc="http://purl.org/dc/elements/1.1/"
   xmlns:cc="http://creativecommons.org/ns#"
   xmlns:rdf="http://www.w3.org/1999/02/22-rdf-syntax-ns#"
   xmlns:svg="http://www.w3.org/2000/svg"
   xmlns="http://www.w3.org/2000/svg"
   xmlns:sodipodi="http://sodipodi.sourceforge.net/DTD/sodipodi-0.dtd"
   xmlns:inkscape="http://www.inkscape.org/namespaces/inkscape"
   width="22.000002"
   height="22"
   viewBox="0 0 22.000002 22"
   version="1.1"
   id="main"
   inkscape:version="0.92+devel (42c84a5464, 2017-09-20, custom)"
   sodipodi:docname="system-switch-user.svg">
  <defs
     id="ol-defs" />
  <sodipodi:namedview
     id="base"
     pagecolor="#002466"
     bordercolor="#ffffff"
     borderopacity="0.30"
     inkscape:pageopacity="1"
     inkscape:pageshadow="2"
     inkscape:zoom="13.140625"
     inkscape:document-units="px"
     inkscape:current-layer="main"
     inkscape:document-rotation="0"
     showgrid="false"
     inkscape:showpageshadow="false"
     borderlayer="true"
     inkscape:window-width="1920"
     inkscape:window-height="1017"
     inkscape:window-x="0"
     inkscape:window-y="34"
     inkscape:window-maximized="1"
     units="px"
     inkscape:cx="6.4806386"
     inkscape:cy="8.0269074" />
  <metadata
     id="metadata5">
    <rdf:RDF>
      <cc:Work
         rdf:about="">
        <dc:format>image/svg+xml</dc:format>
        <dc:type
           rdf:resource="http://purl.org/dc/dcmitype/StillImage" />
        <dc:title></dc:title>
      </cc:Work>
    </rdf:RDF>
  </metadata>
  <g
     id="g842"
     inkscape:label="#system-switch-user"
     style="stroke:none">
    <path
       style="fill:none;stroke:none;stroke-width:1"
       d="M 0,0 H 22.000001 V 22 H 0 Z"
       id="boundary"
       inkscape:label="#boundary"
       inkscape:connector-curvature="0" />
    <path
       style="opacity:0.6;fill:#d0d0d0;stroke:none;stroke-width:0.5987525"
       d="M 11,3.300343 A 8.3294582,8 0 0 0 2.6699219,11.300344 8.3294582,8 0 0 0 6.2890625,17.898 V 15.013234 C 7.2285955,13.12436 8.9136588,11.946841 10.753906,11.85503 A 2.343823,2.343823 0 0 1 8.65625,9.5249525 2.343823,2.343823 0 0 1 11,7.1812025 a 2.343823,2.343823 0 0 1 2.34375,2.34375 2.343823,2.343823 0 0 1 -2.128906,2.3320305 c 1.869222,0.100586 3.571736,1.320972 4.496094,3.26172 v 2.769531 a 8.3294582,8 0 0 0 3.61914,-6.58789 A 8.3294582,8 0 0 0 11,3.300343 Z"
       id="path837"
       inkscape:connector-curvature="0" />
  </g>
</svg>
