<?xml version="1.0" encoding="UTF-8" standalone="no"?>
<svg
   xmlns:dc="http://purl.org/dc/elements/1.1/"
   xmlns:cc="http://creativecommons.org/ns#"
   xmlns:rdf="http://www.w3.org/1999/02/22-rdf-syntax-ns#"
   xmlns:svg="http://www.w3.org/2000/svg"
   xmlns="http://www.w3.org/2000/svg"
   xmlns:sodipodi="http://sodipodi.sourceforge.net/DTD/sodipodi-0.dtd"
   xmlns:inkscape="http://www.inkscape.org/namespaces/inkscape"
   height="22"
   viewBox="0 0 22 22"
   width="22"
   version="1.1"
   id="svg4"
   sodipodi:docname="taxes-finances.svg"
   inkscape:version="0.92+devel (1c31310676, 2017-09-09, custom)">
  <metadata
     id="metadata10">
    <rdf:RDF>
      <cc:Work
         rdf:about="">
        <dc:format>image/svg+xml</dc:format>
        <dc:type
           rdf:resource="http://purl.org/dc/dcmitype/StillImage" />
        <dc:title></dc:title>
      </cc:Work>
    </rdf:RDF>
  </metadata>
  <defs
     id="defs8" />
  <sodipodi:namedview
     pagecolor="#002466"
     bordercolor="#ffffff"
     inkscape:document-rotation="0"
     borderopacity="0.13333333"
     objecttolerance="10"
     gridtolerance="10"
     guidetolerance="10"
     inkscape:pageopacity="0"
     inkscape:pageshadow="2"
     inkscape:window-width="1920"
     inkscape:window-height="1027"
     id="namedview6"
     showgrid="false"
     borderlayer="true"
     inkscape:showpageshadow="false"
     inkscape:zoom="22.96875"
     inkscape:cx="7.542857"
     inkscape:cy="4.6463198"
     inkscape:window-x="0"
     inkscape:window-y="24"
     inkscape:window-maximized="1"
     inkscape:current-layer="svg4" />
  <g
     id="g830"
     inkscape:label="#taxes-finances"
     transform="scale(1.375)"
     style="stroke-width:0.72727275;stroke:none">
    <path
       inkscape:connector-curvature="0"
       inkscape:label="#boundary"
       style="stroke:none"
       id="path2"
       stroke-width=".25455"
       stroke-linecap="round"
       fill="none"
       d="M 0,-4.9999999e-8 H 16 V 16 H 0 Z" />
    <path
       inkscape:label="#"
       sodipodi:nodetypes="sssssssssccccccccccccccccccccccccccccccc"
       inkscape:connector-curvature="0"
       id="rect812"
       d="M 3.199707,2 C 2.534907,2 2,2.5349069 2,3.199707 v 9.600586 C 2,13.465093 2.534907,14 3.199707,14 h 9.600586 C 13.465093,14 14,13.465093 14,12.800293 V 3.199707 C 14,2.5349069 13.465093,2 12.800293,2 Z m 4.2093751,1.7568359 h 1.2260742 v 1.0327149 c 0.5657204,0.048484 1.1250015,0.155093 1.6728517,0.3032226 V 6.3671875 C 9.774989,6.1426563 9.2109969,5.987934 8.6351563,5.9277344 v 1.1264648 c 0.029155,0.1382444 -0.090426,0.3983174 0.1376953,0.3720704 0.6706832,0.1411291 1.4534594,0.3600084 1.7856444,1.0239254 0.27296,0.594649 0.283434,1.329568 -0.01318,1.917481 -0.367233,0.687624 -1.1888693,0.92089 -1.9101562,1.000488 v 0.855469 H 7.4090821 V 11.407715 C 6.6290994,11.37345 5.8533816,11.224038 5.1209961,10.952148 V 9.638184 c 0.7070912,0.367193 1.4899014,0.594838 2.288086,0.624023 V 8.940918 C 7.4377501,8.755188 7.4044821,8.619643 7.1717773,8.650879 6.5048846,8.507173 5.7316183,8.317051 5.3480469,7.6958008 5.0294764,7.1207787 5.027989,6.3749222 5.3260742,5.7915039 5.7312712,5.0576655 6.6255578,4.8069759 7.4090821,4.7734375 Z m 0,2.1665039 c -0.292338,0.025009 -0.627655,0.1772307 -0.694336,0.4921875 -0.114788,0.4326813 0.2900562,0.7766914 0.694336,0.788086 z M 8.6351563,8.921875 v 1.145508 C 8.5993699,10.394886 9.140199,10.000758 9.1390625,9.808106 9.2698907,9.429902 9.049541,8.975823 8.6351563,8.921875 Z"
       style="opacity:0.6;fill:#d0d0d0;stroke-width:0.87272733;stroke:none" />
  </g>
</svg>
