<?xml version="1.0" encoding="UTF-8" standalone="no"?>
<!-- Created with Inkscape (http://www.inkscape.org/) -->

<svg
   xmlns:dc="http://purl.org/dc/elements/1.1/"
   xmlns:cc="http://creativecommons.org/ns#"
   xmlns:rdf="http://www.w3.org/1999/02/22-rdf-syntax-ns#"
   xmlns:svg="http://www.w3.org/2000/svg"
   xmlns="http://www.w3.org/2000/svg"
   xmlns:sodipodi="http://sodipodi.sourceforge.net/DTD/sodipodi-0.dtd"
   xmlns:inkscape="http://www.inkscape.org/namespaces/inkscape"
   width="22"
   height="22"
   viewBox="0 0 5.8208331 5.8208336"
   version="1.1"
   id="svg8"
   inkscape:version="0.92+devel 15740 custom"
   sodipodi:docname="text_outer_style.svg">
  <defs
     id="defs2" />
  <sodipodi:namedview
     id="base"
     pagecolor="#002466"
     bordercolor="#ffffff"
     borderopacity="0.32156863"
     inkscape:pageopacity="1"
     inkscape:pageshadow="2"
     inkscape:zoom="19.090909"
     inkscape:cx="11"
     inkscape:cy="11"
     inkscape:document-units="px"
     inkscape:current-layer="svg8"
     inkscape:document-rotation="0"
     showgrid="false"
     units="px"
     inkscape:pagecheckerboard="false"
     borderlayer="true"
     inkscape:showpageshadow="false"
     inkscape:window-width="1920"
     inkscape:window-height="1051"
     inkscape:window-x="0"
     inkscape:window-y="0"
     inkscape:window-maximized="1"
     inkscape:snap-page="true"
     inkscape:snap-grids="false"
     inkscape:snap-to-guides="false" />
  <metadata
     id="metadata5">
    <rdf:RDF>
      <cc:Work
         rdf:about="">
        <dc:format>image/svg+xml</dc:format>
        <dc:type
           rdf:resource="http://purl.org/dc/dcmitype/StillImage" />
        <dc:title></dc:title>
        <cc:license
           rdf:resource="http://creativecommons.org/licenses/by/4.0/" />
        <dc:creator>
          <cc:Agent>
            <dc:title>PixelPimps &amp; CodePoets</dc:title>
          </cc:Agent>
        </dc:creator>
      </cc:Work>
      <cc:License
         rdf:about="http://creativecommons.org/licenses/by/4.0/">
        <cc:permits
           rdf:resource="http://creativecommons.org/ns#Reproduction" />
        <cc:permits
           rdf:resource="http://creativecommons.org/ns#Distribution" />
        <cc:requires
           rdf:resource="http://creativecommons.org/ns#Notice" />
        <cc:requires
           rdf:resource="http://creativecommons.org/ns#Attribution" />
        <cc:permits
           rdf:resource="http://creativecommons.org/ns#DerivativeWorks" />
      </cc:License>
    </rdf:RDF>
  </metadata>
  <g
     id="g4316"
     inkscape:label="#text_outer_style"
     transform="scale(1.3750001)">
    <path
       inkscape:label="#2"
       id="path4308"
       transform="scale(0.26458333)"
       d="M 2.2519531,2.2519531 V 2.5917969 13.751953 H 13.751953 V 2.2519531 Z M 2.9375,2.9375 H 13.066406 V 13.066406 H 2.9375 Z m 4.1757812,4.0371094 c -0.3088634,0 -0.6061773,0.048212 -0.8925781,0.1464844 C 5.9343029,7.2193685 5.7108291,7.3615572 5.5507812,7.546875 5.3907334,7.7293861 5.3105469,7.9228356 5.3105469,8.125 c 0,0.1432013 0.059803,0.2683014 0.1777343,0.375 0.1207376,0.1066986 0.2703712,0.1582031 0.4472657,0.1582031 0.1656635,0 0.2973553,-0.047112 0.3984375,-0.1425781 C 6.437876,8.41735 6.4902344,8.2996943 6.4902344,8.1621094 6.4902344,8.0497969 6.4367764,7.9332383 6.3300781,7.8125 6.2514591,7.725458 6.2128906,7.6527157 6.2128906,7.59375 c 0,-0.067389 0.036372,-0.127192 0.109375,-0.1777344 0.1179291,-0.081426 0.268661,-0.1210937 0.4511719,-0.1210937 0.112315,0 0.2128849,0.028925 0.3027344,0.087891 0.089852,0.056159 0.1507543,0.1245058 0.1816406,0.203125 0.033693,0.075812 0.050781,0.2609615 0.050781,0.5585937 v 0.396484 C 6.4409682,8.9397311 5.8774628,9.2604791 5.6191406,9.5019531 5.3608185,9.7406202 5.2304688,10.010107 5.2304688,10.310547 c 0,0.221821 0.075794,0.405872 0.2246093,0.554687 0.1488164,0.146009 0.3359195,0.220704 0.5605469,0.220704 0.3818676,0 0.8128264,-0.212734 1.2929688,-0.636719 0.028077,0.213399 0.1041141,0.373772 0.2304687,0.480469 0.1263536,0.103889 0.3027163,0.156249 0.5273437,0.15625 0.1909347,0 0.3609506,-0.04797 0.5097657,-0.140626 0.1516245,-0.09547 0.2971082,-0.245344 0.4375,-0.453124 L 8.8867188,10.390625 c -0.075812,0.103889 -0.1496535,0.15625 -0.2226563,0.15625 -0.036505,0 -0.069579,-0.01271 -0.097656,-0.03516 -0.028084,-0.02246 -0.048465,-0.05468 -0.0625,-0.09961 -0.014035,-0.04773 -0.021484,-0.162095 -0.021484,-0.341797 V 8.5410156 c 0,-0.4239836 -0.019282,-0.6945686 -0.058594,-0.8125 C 8.3592463,7.5431966 8.2170579,7.3720822 7.9980469,7.2148438 7.7818425,7.0547959 7.4867253,6.9746094 7.1132812,6.9746094 Z m 0.1953126,1.8496094 v 1.3183592 c -0.1853176,0.157239 -0.3498426,0.234375 -0.4902344,0.234375 -0.1263547,0 -0.224726,-0.03747 -0.2949219,-0.113281 -0.092659,-0.09827 -0.1386719,-0.212635 -0.1386719,-0.341797 0,-0.154431 0.054557,-0.3073598 0.1640625,-0.4589844 C 6.7144911,9.235455 6.9688437,9.0235762 7.3085938,8.8242188 Z"
       style="color:#000000;font-style:normal;font-variant:normal;font-weight:normal;font-stretch:normal;font-size:medium;line-height:normal;font-family:sans-serif;font-variant-ligatures:normal;font-variant-position:normal;font-variant-caps:normal;font-variant-numeric:normal;font-variant-alternates:normal;font-variant-east-asian:normal;font-feature-settings:normal;text-indent:0;text-align:start;text-decoration:none;text-decoration-line:none;text-decoration-style:solid;text-decoration-color:#000000;letter-spacing:normal;word-spacing:normal;text-transform:none;writing-mode:lr-tb;direction:ltr;text-orientation:mixed;dominant-baseline:auto;baseline-shift:baseline;text-anchor:start;white-space:normal;shape-padding:0;clip-rule:nonzero;display:inline;overflow:visible;visibility:visible;opacity:0.6;isolation:auto;mix-blend-mode:normal;color-interpolation:sRGB;color-interpolation-filters:linearRGB;solid-color:#000000;solid-opacity:1;vector-effect:none;fill:#d0d0d0;fill-opacity:1;fill-rule:nonzero;stroke:none;stroke-width:0.68699998;stroke-linecap:square;stroke-linejoin:miter;stroke-miterlimit:4;stroke-dasharray:none;stroke-dashoffset:0;stroke-opacity:1;color-rendering:auto;image-rendering:auto;shape-rendering:auto;text-rendering:auto;enable-background:accumulate"
       inkscape:connector-curvature="0" />
    <path
       inkscape:label="#1"
       d="M 3.179936,1.5120524 H 2.6082667 q 0.010029,0.2072719 0.1103221,0.3276234 0.076891,0.092492 0.1849846,0.092492 0.066862,0 0.1214659,-0.036774 0.054604,-0.037888 0.1170083,-0.1348382 l 0.037888,0.024516 q -0.084692,0.1727266 -0.1872133,0.2451603 -0.1025216,0.071319 -0.2373598,0.071319 -0.231788,0 -0.3510251,-0.1782984 -0.095836,-0.1437531 -0.095836,-0.3565969 0,-0.2607614 0.1404101,-0.4145438 0.1415244,-0.15489676 0.3309665,-0.15489676 0.1582398,0 0.2741338,0.13038066 0.1170084,0.1292664 0.1259242,0.3844567 z M 2.9058022,1.4373899 q 0,-0.1794128 -0.020059,-0.2462747 -0.018944,-0.066862 -0.060176,-0.1014072 -0.023402,-0.020059 -0.062404,-0.020059 -0.057947,0 -0.094721,0.056833 -0.065747,0.099178 -0.065747,0.2719051 v 0.039003 z"
       style="font-style:normal;font-variant:normal;font-weight:bold;font-stretch:normal;font-size:medium;line-height:37.84999847;font-family:'Times New Roman';-inkscape-font-specification:'Times New Roman, Bold';fill:#00ff00;stroke-width:0.21395811"
       id="path4286"
       inkscape:connector-curvature="0" />
    <rect
       inkscape:label="#boundary"
       y="0"
       x="0"
       height="4.2333331"
       width="4.2333331"
       id="rect4311"
       style="opacity:0.98999999;fill:none;stroke:none;stroke-width:0.18176875;stroke-linecap:square;stroke-miterlimit:4;stroke-dasharray:none;stroke-dashoffset:0" />
  </g>
</svg>
