<?xml version="1.0" encoding="UTF-8" standalone="no"?>
<!-- Created with Inkscape (http://www.inkscape.org/) -->

<svg
   xmlns:dc="http://purl.org/dc/elements/1.1/"
   xmlns:cc="http://creativecommons.org/ns#"
   xmlns:rdf="http://www.w3.org/1999/02/22-rdf-syntax-ns#"
   xmlns:svg="http://www.w3.org/2000/svg"
   xmlns="http://www.w3.org/2000/svg"
   xmlns:sodipodi="http://sodipodi.sourceforge.net/DTD/sodipodi-0.dtd"
   xmlns:inkscape="http://www.inkscape.org/namespaces/inkscape"
   width="22"
   height="22"
   viewBox="0 0 22 22"
   version="1.1"
   id="svg8"
   inkscape:version="0.92+devel unknown"
   sodipodi:docname="text-put-on-path.svg">
  <defs
     id="ol-defs">
    <style
       id="current-color-scheme">      .ColorScheme-Text {
        color:#d0d0d0;
        stop-color:#d0d0d0;
      }
      .ColorScheme-Background {
        color:#212121;
        stop-color:#212121;
      }
      .ColorScheme-Highlight {
        color:#0039a9;
        stop-color:#0039a9;
      }
      .ColorScheme-ViewText {
        color:#d0d0d0;
        stop-color:#d0d0d0;
      }
      .ColorScheme-ViewBackground {
        color:#19191b;
        stop-color:#19191b;
      }
      .ColorScheme-ViewHover {
        color:#005cc7;
        stop-color:#005cc7;
      }
      .ColorScheme-ViewFocus{
        color:#002466;
        stop-color:#002466;
      }
      .ColorScheme-ButtonText {
        color:#d0d0d0;
        stop-color:#d0d0d0;
      }
      .ColorScheme-ButtonBackground {
        color:#232323;
        stop-color:#232323;                             
      }                                                 
      .ColorScheme-ButtonHover {                        
        color:#005cc7;                                  
        stop-color:#005cc7;                             
      }                                                 
      .ColorScheme-ButtonFocus{                         
        color:#0039a9;                                  
        stop-color:#0039a9;                             
      }</style>
    <style
       id="current-color-scheme-7">      .ColorScheme-Text {
        color:#d0d0d0;
        stop-color:#d0d0d0;
      }
      .ColorScheme-Background {
        color:#212121;
        stop-color:#212121;
      }
      .ColorScheme-Highlight {
        color:#0039a9;
        stop-color:#0039a9;
      }
      .ColorScheme-ViewText {
        color:#d0d0d0;
        stop-color:#d0d0d0;
      }
      .ColorScheme-ViewBackground {
        color:#19191b;
        stop-color:#19191b;
      }
      .ColorScheme-ViewHover {
        color:#005cc7;
        stop-color:#005cc7;
      }
      .ColorScheme-ViewFocus{
        color:#002466;
        stop-color:#002466;
      }
      .ColorScheme-ButtonText {
        color:#d0d0d0;
        stop-color:#d0d0d0;
      }
      .ColorScheme-ButtonBackground {
        color:#232323;
        stop-color:#232323;                             
      }                                                 
      .ColorScheme-ButtonHover {                        
        color:#005cc7;                                  
        stop-color:#005cc7;                             
      }                                                 
      .ColorScheme-ButtonFocus{                         
        color:#0039a9;                                  
        stop-color:#0039a9;                             
      }</style>
    <style
       type="text/css"
       id="current-color-scheme-6">
      .ColorScheme-Text {
        color:#f2f2f2;
      }
      </style>
    <style
       id="current-color-scheme-75">      .ColorScheme-Text {
        color:#d0d0d0;
        stop-color:#d0d0d0;
      }
      .ColorScheme-Background {
        color:#212121;
        stop-color:#212121;
      }
      .ColorScheme-Highlight {
        color:#0039a9;
        stop-color:#0039a9;
      }
      .ColorScheme-ViewText {
        color:#d0d0d0;
        stop-color:#d0d0d0;
      }
      .ColorScheme-ViewBackground {
        color:#19191b;
        stop-color:#19191b;
      }
      .ColorScheme-ViewHover {
        color:#005cc7;
        stop-color:#005cc7;
      }
      .ColorScheme-ViewFocus{
        color:#002466;
        stop-color:#002466;
      }
      .ColorScheme-ButtonText {
        color:#d0d0d0;
        stop-color:#d0d0d0;
      }
      .ColorScheme-ButtonBackground {
        color:#232323;
        stop-color:#232323;                             
      }                                                 
      .ColorScheme-ButtonHover {                        
        color:#005cc7;                                  
        stop-color:#005cc7;                             
      }                                                 
      .ColorScheme-ButtonFocus{                         
        color:#0039a9;                                  
        stop-color:#0039a9;                             
      }</style>
    <style
       id="current-color-scheme-7-3">      .ColorScheme-Text {
        color:#d0d0d0;
        stop-color:#d0d0d0;
      }
      .ColorScheme-Background {
        color:#212121;
        stop-color:#212121;
      }
      .ColorScheme-Highlight {
        color:#0039a9;
        stop-color:#0039a9;
      }
      .ColorScheme-ViewText {
        color:#d0d0d0;
        stop-color:#d0d0d0;
      }
      .ColorScheme-ViewBackground {
        color:#19191b;
        stop-color:#19191b;
      }
      .ColorScheme-ViewHover {
        color:#005cc7;
        stop-color:#005cc7;
      }
      .ColorScheme-ViewFocus{
        color:#002466;
        stop-color:#002466;
      }
      .ColorScheme-ButtonText {
        color:#d0d0d0;
        stop-color:#d0d0d0;
      }
      .ColorScheme-ButtonBackground {
        color:#232323;
        stop-color:#232323;                             
      }                                                 
      .ColorScheme-ButtonHover {                        
        color:#005cc7;                                  
        stop-color:#005cc7;                             
      }                                                 
      .ColorScheme-ButtonFocus{                         
        color:#0039a9;                                  
        stop-color:#0039a9;                             
      }</style>
    <style
       id="current-color-scheme-6-5"
       type="text/css">
      .ColorScheme-Text {
        color:#f2f2f2;
      }
      </style>
    <style
       id="current-color-scheme-70">      .ColorScheme-Text {
        color:#d0d0d0;
        stop-color:#d0d0d0;
      }
      .ColorScheme-Background {
        color:#212121;
        stop-color:#212121;
      }
      .ColorScheme-Highlight {
        color:#0039a9;
        stop-color:#0039a9;
      }
      .ColorScheme-ViewText {
        color:#d0d0d0;
        stop-color:#d0d0d0;
      }
      .ColorScheme-ViewBackground {
        color:#19191b;
        stop-color:#19191b;
      }
      .ColorScheme-ViewHover {
        color:#005cc7;
        stop-color:#005cc7;
      }
      .ColorScheme-ViewFocus{
        color:#002466;
        stop-color:#002466;
      }
      .ColorScheme-ButtonText {
        color:#d0d0d0;
        stop-color:#d0d0d0;
      }
      .ColorScheme-ButtonBackground {
        color:#232323;
        stop-color:#232323;                             
      }                                                 
      .ColorScheme-ButtonHover {                        
        color:#005cc7;                                  
        stop-color:#005cc7;                             
      }                                                 
      .ColorScheme-ButtonFocus{                         
        color:#0039a9;                                  
        stop-color:#0039a9;                             
      }</style>
    <style
       id="current-color-scheme-7-9">      .ColorScheme-Text {
        color:#d0d0d0;
        stop-color:#d0d0d0;
      }
      .ColorScheme-Background {
        color:#212121;
        stop-color:#212121;
      }
      .ColorScheme-Highlight {
        color:#0039a9;
        stop-color:#0039a9;
      }
      .ColorScheme-ViewText {
        color:#d0d0d0;
        stop-color:#d0d0d0;
      }
      .ColorScheme-ViewBackground {
        color:#19191b;
        stop-color:#19191b;
      }
      .ColorScheme-ViewHover {
        color:#005cc7;
        stop-color:#005cc7;
      }
      .ColorScheme-ViewFocus{
        color:#002466;
        stop-color:#002466;
      }
      .ColorScheme-ButtonText {
        color:#d0d0d0;
        stop-color:#d0d0d0;
      }
      .ColorScheme-ButtonBackground {
        color:#232323;
        stop-color:#232323;                             
      }                                                 
      .ColorScheme-ButtonHover {                        
        color:#005cc7;                                  
        stop-color:#005cc7;                             
      }                                                 
      .ColorScheme-ButtonFocus{                         
        color:#0039a9;                                  
        stop-color:#0039a9;                             
      }</style>
    <style
       id="current-color-scheme-75-3">      .ColorScheme-Text {
        color:#d0d0d0;
        stop-color:#d0d0d0;
      }
      .ColorScheme-Background {
        color:#212121;
        stop-color:#212121;
      }
      .ColorScheme-Highlight {
        color:#0039a9;
        stop-color:#0039a9;
      }
      .ColorScheme-ViewText {
        color:#d0d0d0;
        stop-color:#d0d0d0;
      }
      .ColorScheme-ViewBackground {
        color:#19191b;
        stop-color:#19191b;
      }
      .ColorScheme-ViewHover {
        color:#005cc7;
        stop-color:#005cc7;
      }
      .ColorScheme-ViewFocus{
        color:#002466;
        stop-color:#002466;
      }
      .ColorScheme-ButtonText {
        color:#d0d0d0;
        stop-color:#d0d0d0;
      }
      .ColorScheme-ButtonBackground {
        color:#232323;
        stop-color:#232323;                             
      }                                                 
      .ColorScheme-ButtonHover {                        
        color:#005cc7;                                  
        stop-color:#005cc7;                             
      }                                                 
      .ColorScheme-ButtonFocus{                         
        color:#0039a9;                                  
        stop-color:#0039a9;                             
      }</style>
  </defs>
  <sodipodi:namedview
     id="base"
     pagecolor="#002266"
     bordercolor="#ffffff"
     borderopacity="0.46666667"
     inkscape:pageopacity="0"
     inkscape:pageshadow="2"
     inkscape:zoom="8"
     inkscape:cx="0.74547983"
     inkscape:cy="9.7383366"
     inkscape:document-units="px"
     inkscape:current-layer="svg8"
     inkscape:document-rotation="0"
     showgrid="false"
     inkscape:showpageshadow="false"
     borderlayer="true"
     units="px"
     fit-margin-top="0"
     fit-margin-left="0"
     fit-margin-right="0"
     fit-margin-bottom="0"
     inkscape:window-width="1920"
     inkscape:window-height="1051"
     inkscape:window-x="0"
     inkscape:window-y="0"
     inkscape:window-maximized="1"
     inkscape:snap-page="true"
     guidecolor="#f4ff00"
     guideopacity="0.42745098"
     guidehicolor="#4fff00"
     guidehiopacity="0.49803922" />
  <metadata
     id="metadata5">
    <rdf:RDF>
      <cc:Work
         rdf:about="">
        <dc:format>image/svg+xml</dc:format>
        <dc:type
           rdf:resource="http://purl.org/dc/dcmitype/StillImage" />
        <dc:title></dc:title>
      </cc:Work>
    </rdf:RDF>
  </metadata>
  <g
     id="text-put-on-path"
     inkscape:label="#put_on_path"
     transform="scale(1.375)"
     style="stroke-width:0.72727275">
    <rect
       inkscape:label="#boundary"
       y="0"
       x="0"
       height="16"
       width="16"
       id="rect4264-9"
       style="vector-effect:none;fill:none;stroke-width:1.58677685;stroke-linecap:round" />
    <path
       inkscape:label="#2"
       style="font-style:normal;font-variant:normal;font-weight:bold;font-stretch:normal;font-size:medium;line-height:37.84999847;font-family:Arial;-inkscape-font-specification:'Arial Bold';font-variant-ligatures:normal;font-variant-caps:normal;font-variant-numeric:normal;font-feature-settings:normal;text-align:center;writing-mode:lr-tb;text-anchor:middle;opacity:0.6;fill:#d0d0d0;stroke:none;stroke-width:0.72727275"
       d="M 10.699219,2 C 10.521291,2.00248 10.326972,2.033961 10.119141,2.09375 9.6113462,2.239832 9.2540583,2.5135268 9.046875,2.9140625 8.8390752,3.312456 8.8163548,3.7921496 8.9785156,4.3554688 9.1388263,4.912362 9.4125135,5.305358 9.7988281,5.5351562 10.187286,5.7643383 10.631635,5.8076788 11.130859,5.6640625 11.570091,5.5377048 11.890209,5.3337434 12.091797,5.0507812 12.293383,4.7678186 12.382438,4.4100273 12.357422,3.9765625 l -0.931641,0.1035156 c 0.02345,0.2506943 -0.005,0.4403499 -0.08594,0.5703125 -0.08153,0.1278208 -0.207499,0.2163146 -0.378906,0.265625 C 10.73168,4.9819683 10.52311,4.9518384 10.337891,4.8242188 10.154814,4.6959824 10.005205,4.4302091 9.8886719,4.0253906 9.7838557,3.6612682 9.7767877,3.3818851 9.8652344,3.1894531 9.9552076,2.9942627 10.112918,2.8655011 10.337891,2.8007812 c 0.169264,-0.048695 0.318335,-0.044132 0.449218,0.015625 0.133027,0.059141 0.241094,0.1726488 0.322266,0.3417969 l 0.84375,-0.4160156 C 11.74056,2.4067422 11.485074,2.185019 11.1875,2.078125 11.039476,2.0232981 10.877147,1.9975191 10.699219,2 Z M 6.3769531,4.3984375 C 5.9544437,4.3763737 5.5890491,4.516519 5.2832031,4.8222656 5.0025818,5.1027963 4.8778731,5.4622584 4.90625,5.9003906 L 3.65625,4.6523438 2.9921875,5.3164062 6.4589844,8.7832031 7.0761719,8.1660156 6.7070312,7.796875 C 6.9482399,7.836275 7.175464,7.824005 7.3867188,7.757812 7.5979731,7.688468 7.7745049,7.5809173 7.9179688,7.4375 8.2096258,7.1459372 8.3408769,6.7826363 8.3125,6.3476562 8.2856992,5.9111001 8.0577217,5.4794574 7.6289062,5.0507812 7.2142797,4.6362906 6.7978856,4.418927 6.3769531,4.3984375 Z M 6.2070312,5.3007812 c 0.230173,0.022064 0.4884625,0.1760561 0.7753907,0.4628907 0.269586,0.2694985 0.4154285,0.5199017 0.4375,0.75 0.022071,0.2269461 -0.040883,0.4139774 -0.1875,0.5605469 C 7.041662,7.2649167 6.8014231,7.3290427 6.5097656,7.2675781 6.3032407,7.2250257 6.0687207,7.0744956 5.8085938,6.8144531 5.5563489,6.5622906 5.4216381,6.3203191 5.4042969,6.0917969 5.3853786,5.861699 5.456005,5.6689433 5.6152344,5.5097656 5.7776165,5.3474371 5.9752821,5.2771422 6.2070312,5.3007812 Z M 3.3339844,8.8808594 C 3.1936793,8.8625296 3.0806567,8.8630741 2.9960938,8.8828125 2.8254413,8.9195326 2.6646711,9.0214725 2.5136719,9.1914062 2.3605297,9.3607234 2.225292,9.6481046 2.109375,10.050781 c -0.1276329,0.443373 -0.1445921,0.799801 -0.050781,1.070313 0.093811,0.270511 0.29421,0.498522 0.5976562,0.685547 L 3.0390625,11.03125 C 2.8965434,10.929948 2.807725,10.824631 2.7714844,10.716797 c -0.03838,-0.108451 -0.034525,-0.243655 0.011719,-0.404297 0.06844,-0.237751 0.1522991,-0.3870695 0.2519531,-0.4511719 0.097512,-0.06472 0.2327004,-0.073364 0.40625,-0.023437 l 0.089844,0.02539 C 3.5529533,10.045789 3.5421908,10.359927 3.5,10.804688 c -0.030029,0.329975 -0.027466,0.590759 0.00586,0.78125 0.031799,0.187731 0.110717,0.34851 0.2363281,0.484374 0.1234686,0.135249 0.2817759,0.231636 0.4746094,0.28711 0.2913925,0.08383 0.5599447,0.05273 0.8085937,-0.09375 0.2492659,-0.148622 0.4262249,-0.398729 0.5273438,-0.75 0.05734,-0.199196 0.073258,-0.398494 0.048828,-0.595703 C 5.577131,10.72076 5.511838,10.523535 5.40625,10.326172 c 0.018991,-0.0015 0.057353,-4.17e-4 0.1152344,0 0.1277078,-3.68e-4 0.2242405,-0.0035 0.2910156,-0.0098 L 6.0703125,9.421875 C 5.8846621,9.4542781 5.7164492,9.4657722 5.5664062,9.4550781 5.4148368,9.4416256 5.1886348,9.3909808 4.8886719,9.3046875 l -1.0507813,-0.3125 C 3.6418434,8.9357895 3.4742895,8.8991892 3.3339844,8.8808594 Z m 0.7851562,1.1523436 0.1796875,0.05274 c 0.2164015,0.06225 0.3612895,0.116358 0.4316407,0.162109 0.1079774,0.06817 0.1863553,0.168122 0.2363281,0.300781 0.064586,0.17861 0.074204,0.348935 0.027344,0.511719 -0.041928,0.145649 -0.1229264,0.252573 -0.2421875,0.320312 -0.1192606,0.06774 -0.2427273,0.08324 -0.3691406,0.04687 -0.1285554,-0.03698 -0.217929,-0.125735 -0.2675781,-0.267578 -0.029225,-0.0919 -0.034199,-0.271098 -0.015625,-0.537109 0.018574,-0.266011 0.024801,-0.463086 0.019531,-0.589844 z"
       id="path4294"
       inkscape:connector-curvature="0" />
    <path
       inkscape:label="#1"
       inkscape:connector-curvature="0"
       id="path4284"
       d="M 6.04696,13.35 A 7.303084,7.300713 0 0 1 13.350044,6.0492871"
       style="opacity:0.98999999;fill:none;stroke:#00ff00;stroke-width:0.94545442;stroke-linecap:square;stroke-miterlimit:4;stroke-dasharray:none" />
  </g>
</svg>
