<?xml version="1.0" encoding="UTF-8" standalone="no"?>
<!-- Created with Inkscape (http://www.inkscape.org/) -->

<svg
   xmlns:dc="http://purl.org/dc/elements/1.1/"
   xmlns:cc="http://creativecommons.org/ns#"
   xmlns:rdf="http://www.w3.org/1999/02/22-rdf-syntax-ns#"
   xmlns:svg="http://www.w3.org/2000/svg"
   xmlns="http://www.w3.org/2000/svg"
   xmlns:sodipodi="http://sodipodi.sourceforge.net/DTD/sodipodi-0.dtd"
   xmlns:inkscape="http://www.inkscape.org/namespaces/inkscape"
   width="22.000002"
   height="22"
   viewBox="0 0 22.000002 22"
   version="1.1"
   id="main"
   inkscape:version="0.92+devel (9d04be7596, 2017-09-23, custom)"
   sodipodi:docname="tool_color_eraser.svg">
  <defs
     id="ol-defs" />
  <sodipodi:namedview
     id="base"
     pagecolor="#002466"
     bordercolor="#ffffff"
     borderopacity="0.30"
     inkscape:pageopacity="1"
     inkscape:pageshadow="0"
     inkscape:zoom="18.58365"
     inkscape:document-units="px"
     inkscape:current-layer="main"
     inkscape:document-rotation="0"
     showgrid="false"
     inkscape:showpageshadow="false"
     borderlayer="true"
     inkscape:window-width="1920"
     inkscape:window-height="1017"
     inkscape:window-x="0"
     inkscape:window-y="34"
     inkscape:window-maximized="1"
     units="px"
     inkscape:cx="-13.610383"
     inkscape:cy="-0.19812186" />
  <metadata
     id="metadata5">
    <rdf:RDF>
      <cc:Work
         rdf:about="">
        <dc:format>image/svg+xml</dc:format>
        <dc:type
           rdf:resource="http://purl.org/dc/dcmitype/StillImage" />
        <dc:title></dc:title>
      </cc:Work>
    </rdf:RDF>
  </metadata>
  <g
     id="g853"
     inkscape:label="#tool_color_eraser"
     style="stroke:none">
    <path
       style="fill:none;stroke:none;stroke-width:1"
       d="M 0,0 H 22.000001 V 22 H 0 Z"
       id="boundary"
       inkscape:label="#boundary"
       inkscape:connector-curvature="0" />
    <path
       inkscape:label="#"
       inkscape:connector-curvature="0"
       id="path6"
       d="M 11,3 C 10.027093,6.4050332 7.6455551,9.3322775 6.5957031,11.675781 6.2282991,12.372554 6,13.15458 6,14 c 0,2.770002 2.2299971,5 5,5 2.770001,0 5,-2.229998 5,-5 0,-0.84542 -0.228299,-1.627446 -0.595703,-2.324219 C 14.354447,9.3322774 11.972896,6.4050332 11,3 Z m 0,7.841797 A 3.1180632,3.1180632 0 0 1 14.119141,13.958984 3.1180632,3.1180632 0 0 1 11,17.076172 3.1180632,3.1180632 0 0 1 7.8808594,13.958984 3.1180632,3.1180632 0 0 1 11,10.841797 Z"
       style="opacity:0.6;fill:#d0d0d0;stroke:none;stroke-width:1" />
    <path
       inkscape:label="#"
       id="path837"
       d="M 9.2762272,13.417127 H 12.72549 v 1.082289 H 9.2762272 Z"
       style="fill:#ff0000;stroke:none;stroke-width:1.60000002"
       inkscape:connector-curvature="0" />
  </g>
</svg>
