<?xml version="1.0" encoding="UTF-8" standalone="no"?>
<!-- Created with Inkscape (http://www.inkscape.org/) -->

<svg
   xmlns:dc="http://purl.org/dc/elements/1.1/"
   xmlns:cc="http://creativecommons.org/ns#"
   xmlns:rdf="http://www.w3.org/1999/02/22-rdf-syntax-ns#"
   xmlns:svg="http://www.w3.org/2000/svg"
   xmlns="http://www.w3.org/2000/svg"
   xmlns:sodipodi="http://sodipodi.sourceforge.net/DTD/sodipodi-0.dtd"
   xmlns:inkscape="http://www.inkscape.org/namespaces/inkscape"
   width="22.000002"
   height="22"
   viewBox="0 0 22.000002 22"
   version="1.1"
   id="main"
   inkscape:version="0.92+devel (1da36c2be7, 2017-09-15, custom)"
   sodipodi:docname="tools-wizard.svg">
  <defs
     id="ol-defs" />
  <sodipodi:namedview
     id="base"
     pagecolor="#002466"
     bordercolor="#ffffff"
     borderopacity="0.30"
     inkscape:pageopacity="1"
     inkscape:pageshadow="2"
     inkscape:zoom="18.58365"
     inkscape:document-units="px"
     inkscape:current-layer="main"
     inkscape:document-rotation="0"
     showgrid="false"
     inkscape:showpageshadow="false"
     borderlayer="true"
     inkscape:window-width="1920"
     inkscape:window-height="1029"
     inkscape:window-x="0"
     inkscape:window-y="22"
     inkscape:window-maximized="1"
     units="px"
     inkscape:cx="7.5022506"
     inkscape:cy="8.0000001" />
  <metadata
     id="metadata5">
    <rdf:RDF>
      <cc:Work
         rdf:about="">
        <dc:format>image/svg+xml</dc:format>
        <dc:type
           rdf:resource="http://purl.org/dc/dcmitype/StillImage" />
        <dc:title></dc:title>
      </cc:Work>
    </rdf:RDF>
  </metadata>
  <g
     id="g839"
     inkscape:label="#tools-wizard"
     style="stroke:none;stroke-width:0.72727275"
     transform="scale(1.375)">
    <path
       style="fill:none;stroke:none;stroke-width:0.72727275"
       d="M -5.5000004e-8,-4.9999999e-8 H 16.000001 V 16 H -5.5000004e-8 Z"
       id="boundary"
       inkscape:label="#boundary"
       inkscape:connector-curvature="0" />
    <path
       inkscape:connector-curvature="0"
       style="opacity:0.6;fill:#d0d0d0;stroke:none;stroke-width:0.72727275"
       d="M 7.9999997,1.9996651 3.2656247,13.255525 c 3.0538167,1.040331 6.2202953,0.944679 9.4687503,0 z m 0.2988281,4.5058594 0.328125,1.0703125 1.0683595,0.3359375 -0.9179687,0.642578 0.011719,1.119141 -0.8945314,-0.673828 -1.0625,0.355468 0.3632813,-1.0585934 -0.6660156,-0.8984375 1.1191406,0.017578 z m -1.9902343,3.9863285 0.5429687,0.679688 0.8652344,-0.06055 -0.4785157,0.726562 0.328125,0.804688 L 6.7265622,12.411772 6.0585935,12.970366 6.0195305,12.101225 5.2832024,11.642241 6.0976555,11.3356 Z m 3.7656255,0.398438 0.08594,0.621093 0.55664,0.279297 -0.5625,0.273438 -0.09375,0.617188 -0.43164,-0.451172 -0.6171874,0.101562 0.2949218,-0.550781 -0.2871094,-0.556641 0.6152344,0.111328 z"
       id="path811"
       inkscape:label="#" />
  </g>
</svg>
