<?xml version="1.0" encoding="UTF-8" standalone="no"?>
<!-- Created with Inkscape (http://www.inkscape.org/) -->

<svg
   xmlns:dc="http://purl.org/dc/elements/1.1/"
   xmlns:cc="http://creativecommons.org/ns#"
   xmlns:rdf="http://www.w3.org/1999/02/22-rdf-syntax-ns#"
   xmlns:svg="http://www.w3.org/2000/svg"
   xmlns="http://www.w3.org/2000/svg"
   xmlns:sodipodi="http://sodipodi.sourceforge.net/DTD/sodipodi-0.dtd"
   xmlns:inkscape="http://www.inkscape.org/namespaces/inkscape"
   width="22.000002"
   height="22"
   viewBox="0 0 22.000002 22"
   version="1.1"
   id="main"
   inkscape:version="0.92+devel (42c84a5464, 2017-09-20, custom)"
   sodipodi:docname="transform-browse.svg">
  <defs
     id="ol-defs" />
  <sodipodi:namedview
     id="base"
     pagecolor="#002466"
     bordercolor="#ffffff"
     borderopacity="0.30"
     inkscape:pageopacity="1"
     inkscape:pageshadow="2"
     inkscape:zoom="13.140625"
     inkscape:document-units="px"
     inkscape:current-layer="g839"
     inkscape:document-rotation="0"
     showgrid="false"
     inkscape:showpageshadow="false"
     borderlayer="true"
     inkscape:window-width="1920"
     inkscape:window-height="1017"
     inkscape:window-x="0"
     inkscape:window-y="34"
     inkscape:window-maximized="1"
     units="px"
     inkscape:cx="6.823088"
     inkscape:cy="8.0269054" />
  <metadata
     id="metadata5">
    <rdf:RDF>
      <cc:Work
         rdf:about="">
        <dc:format>image/svg+xml</dc:format>
        <dc:type
           rdf:resource="http://purl.org/dc/dcmitype/StillImage" />
        <dc:title></dc:title>
      </cc:Work>
    </rdf:RDF>
  </metadata>
  <g
     id="g839"
     inkscape:label="#transform-browse"
     style="stroke:none">
    <path
       style="fill:none;stroke:none;stroke-width:1"
       d="M 0,0 H 22.000001 V 22 H 0 Z"
       id="boundary"
       inkscape:label="#boundary"
       inkscape:connector-curvature="0" />
    <path
       style="opacity:0.6;fill:#d0d0d0;fill-opacity:1;stroke:none;stroke-width:1"
       d="m 11.211342,3.0020526 v 0.00227 c 0.645203,-0.0398 1.265795,0.5083893 1.291501,1.1424839 l 0.306052,5.4975199 c 0.01719,0.3109188 0.21372,0.3071441 0.227912,0.02632 l 0.277835,-5.5238421 c 0.02376,-0.584264 0.544953,-1.1085386 1.13956,-1.1446773 0.687876,-0.043787 1.338111,0.594424 1.293671,1.2696706 L 15.44399,10.315348 c -0.0091,0.181567 0.04348,0.270936 0.09984,0.05043 l 1.039716,-4.0546115 c 0.118506,-0.49766 0.595862,-0.8917933 1.115684,-0.9210053 0.768468,-0.05572 1.462285,0.7614986 1.267624,1.4933439 l -1.217699,4.8001839 c -0.488816,1.929178 -0.735411,6.738565 -0.764048,7.313217 l -7.1673057,0.0031 v 0 C 7.465641,18.975983 5.7459077,13.678881 3.0000011,11.859138 c 0,0 0.9896813,-2.8616455 5.0444492,1.118361 0,0 0.02845,-0.132987 0.07597,-0.322351 -0.02968,-0.09687 -0.04804,-0.19941 -0.05209,-0.300424 L 6.8528064,5.1905792 C 6.7384997,4.5423966 7.2750264,3.8570126 7.942441,3.7981086 8.5490263,3.7551219 9.1468053,4.2270006 9.2339423,4.8177912 l 0.8877707,5.2234138 c 0.03657,0.215557 0.294298,0.159222 0.277836,-0.1228004 L 10.07179,4.2717699 C 10.03076,3.6463513 10.574027,3.0400673 11.211349,3.0020993 Z"
       id="path4"
       inkscape:connector-curvature="0"
       inkscape:label="#" />
  </g>
</svg>
