<?xml version="1.0" encoding="UTF-8" standalone="no"?>
<svg
   xmlns:dc="http://purl.org/dc/elements/1.1/"
   xmlns:cc="http://creativecommons.org/ns#"
   xmlns:rdf="http://www.w3.org/1999/02/22-rdf-syntax-ns#"
   xmlns:svg="http://www.w3.org/2000/svg"
   xmlns="http://www.w3.org/2000/svg"
   xmlns:sodipodi="http://sodipodi.sourceforge.net/DTD/sodipodi-0.dtd"
   xmlns:inkscape="http://www.inkscape.org/namespaces/inkscape"
   height="22"
   viewBox="0 0 22 22"
   width="22"
   version="1.1"
   id="svg4"
   sodipodi:docname="user-group-new.svg"
   inkscape:version="0.92+devel (f008c6912a, 2017-09-14, custom)">
  <defs
     id="defs8" />
  <metadata
     id="metadata10">
    <rdf:RDF>
      <cc:Work
         rdf:about="">
        <dc:format>image/svg+xml</dc:format>
        <dc:type
           rdf:resource="http://purl.org/dc/dcmitype/StillImage" />
        <dc:title></dc:title>
      </cc:Work>
    </rdf:RDF>
  </metadata>
  <sodipodi:namedview
     pagecolor="#002466"
     bordercolor="#ffffff"
     inkscape:document-rotation="0"
     borderopacity="0.13333333"
     objecttolerance="10"
     gridtolerance="10"
     guidetolerance="10"
     inkscape:pageopacity="0"
     inkscape:pageshadow="2"
     inkscape:window-width="1920"
     inkscape:window-height="1027"
     id="namedview6"
     showgrid="false"
     borderlayer="true"
     inkscape:showpageshadow="false"
     inkscape:zoom="26.65625"
     inkscape:cx="7.2121923"
     inkscape:cy="7.9999998"
     inkscape:window-x="0"
     inkscape:window-y="24"
     inkscape:window-maximized="1"
     inkscape:current-layer="svg4" />
  <g
     id="g843"
     inkscape:label="#user-group-new"
     style="stroke:none;stroke-width:0.72727275"
     transform="scale(1.375)">
    <path
       d="M -1e-7,1.75e-7 H 16 V 16 H -1e-7 Z"
       fill="none"
       stroke-linecap="round"
       stroke-width=".25455"
       id="path2"
       style="stroke:none"
       inkscape:label="#boundary"
       inkscape:connector-curvature="0" />
    <path
       inkscape:label="#"
       id="path812"
       d="M 3.850097,5.0284422 A 1.3503063,1.3503063 0 0 0 2.499511,6.3790282 1.3503063,1.3503063 0 0 0 3.735839,7.7237547 2.812258,2.812258 0 0 0 2,8.3536376 V 14.419556 H 4.122558 V 9.0875245 A 5.0664589,5.0664589 0 0 1 5.205078,8.1236571 2.812258,2.812258 0 0 0 3.879394,7.7281493 1.3503063,1.3503063 0 0 0 5.199218,6.3790282 1.3503063,1.3503063 0 0 0 3.850097,5.0284422 Z m 8.299805,0 a 1.3503063,1.3503063 0 0 0 -1.349121,1.350586 1.3503063,1.3503063 0 0 0 1.319825,1.3491211 2.812258,2.812258 0 0 0 -1.328614,0.3940429 5.0664589,5.0664589 0 0 1 1.08545,0.9638673 V 14.419556 H 14 V 8.3536376 A 2.812258,2.812258 0 0 0 12.26416,7.7237547 1.3503063,1.3503063 0 0 0 13.500488,6.3790282 1.3503063,1.3503063 0 0 0 12.149902,5.0284422 Z"
       style="opacity:0.4;fill:#d0d0d0;stroke:none;stroke-width:0.72727269"
       inkscape:connector-curvature="0" />
    <path
       inkscape:label="#"
       id="path828"
       d="M 8.1445312,2.4199219 A 2.4326613,2.4326613 0 0 0 5.7109375,4.8535156 2.4326613,2.4326613 0 0 0 7.9414062,7.2734375 5.0664589,5.0664589 0 0 0 4.1230469,9.0878906 V 14.419922 H 11.876953 V 9.0859375 A 5.0664589,5.0664589 0 0 0 8.1992188,7.2832031 2.4326613,2.4326613 0 0 0 10.576172,4.8535156 2.4326613,2.4326613 0 0 0 8.1445312,2.4199219 Z M 8,8.4453125 8.484375,9.8085938 9.7929688,9.1875 9.171875,10.496094 10.537109,10.980469 9.171875,11.466797 9.7929688,12.773438 8.484375,12.152344 8,13.517578 7.515625,12.152344 6.2070312,12.773438 6.828125,11.466797 5.4628906,10.980469 6.828125,10.496094 6.2070312,9.1875 7.515625,9.8085938 Z"
       style="fill:#ffb900;fill-opacity:1;stroke:none;stroke-width:0.72727275"
       inkscape:connector-curvature="0" />
  </g>
</svg>
