<?xml version="1.0" encoding="UTF-8" standalone="no"?>
<!-- Created with Inkscape (http://www.inkscape.org/) -->

<svg
   xmlns:dc="http://purl.org/dc/elements/1.1/"
   xmlns:cc="http://creativecommons.org/ns#"
   xmlns:rdf="http://www.w3.org/1999/02/22-rdf-syntax-ns#"
   xmlns:svg="http://www.w3.org/2000/svg"
   xmlns="http://www.w3.org/2000/svg"
   xmlns:sodipodi="http://sodipodi.sourceforge.net/DTD/sodipodi-0.dtd"
   xmlns:inkscape="http://www.inkscape.org/namespaces/inkscape"
   width="22.000002"
   height="22"
   viewBox="0 0 22.000002 22"
   version="1.1"
   id="main"
   inkscape:version="0.92+devel (42c84a5464, 2017-09-20, custom)"
   sodipodi:docname="view-certificate-export-server.svg">
  <defs
     id="ol-defs" />
  <sodipodi:namedview
     id="base"
     pagecolor="#002466"
     bordercolor="#ffffff"
     borderopacity="0.30"
     inkscape:pageopacity="1"
     inkscape:pageshadow="2"
     inkscape:zoom="18.58365"
     inkscape:document-units="px"
     inkscape:current-layer="main"
     inkscape:document-rotation="0"
     showgrid="false"
     inkscape:showpageshadow="false"
     borderlayer="true"
     inkscape:window-width="1920"
     inkscape:window-height="1017"
     inkscape:window-x="0"
     inkscape:window-y="34"
     inkscape:window-maximized="1"
     units="px"
     inkscape:cx="12.275191"
     inkscape:cy="11.501138" />
  <metadata
     id="metadata5">
    <rdf:RDF>
      <cc:Work
         rdf:about="">
        <dc:format>image/svg+xml</dc:format>
        <dc:type
           rdf:resource="http://purl.org/dc/dcmitype/StillImage" />
        <dc:title></dc:title>
      </cc:Work>
    </rdf:RDF>
  </metadata>
  <g
     id="g866"
     inkscape:label="#view-certificate-export-server"
     style="stroke:none">
    <path
       style="fill:none;stroke:none;stroke-width:1"
       d="M 0,0 H 22.000001 V 22 H 0 Z"
       id="boundary"
       inkscape:label="#boundary"
       inkscape:connector-curvature="0" />
    <path
       inkscape:label="#"
       inkscape:connector-curvature="0"
       id="rect811"
       d="m 3.6588551,5.6666667 c -0.364932,0 -0.6588541,0.2939234 -0.6588541,0.6588541 v 9.3489572 c 0,0.364932 0.2939221,0.658855 0.6588541,0.658855 H 18.341146 c 0.364932,0 0.658855,-0.293923 0.658855,-0.658855 V 6.3255208 c 0,-0.3649307 -0.293923,-0.6588541 -0.658855,-0.6588541 z M 7.684897,7.3828124 c 1.077956,0 1.945312,0.8673565 1.945312,1.9453126 v 0.84375 h 0.971355 v 4.445311 H 4.7656261 v -4.445311 h 0.9713541 v -0.84375 c 0,-1.0779561 0.8699607,-1.9453126 1.9479168,-1.9453126 z m 7.447916,0.8463543 1.244792,1.0286458 1.244792,1.0312495 -1.192708,1.09375 -1.190105,1.09375 -0.03646,-1.416666 a 4.1384408,4.0194077 33.141362 0 0 -3.283854,2.906249 4.1384408,4.0194077 33.141362 0 0 -0.01302,0.0625 4.1384408,4.0194077 33.141362 0 1 0.03906,-1.804687 4.1384408,4.0194077 33.141362 0 1 3.216147,-2.895833 z M 7.684897,8.3567709 c -0.5389775,0 -0.9739585,0.4323754 -0.9739585,0.9713541 v 0.84375 H 8.656251 v -0.84375 c 0,-0.5389787 -0.432377,-0.9713541 -0.971354,-0.9713541 z"
       style="opacity:0.6;fill:#d0d0d0;stroke:none;stroke-width:1.33333337" />
  </g>
</svg>
