<?xml version="1.0" encoding="UTF-8" standalone="no"?>
<svg
   xmlns:dc="http://purl.org/dc/elements/1.1/"
   xmlns:cc="http://creativecommons.org/ns#"
   xmlns:rdf="http://www.w3.org/1999/02/22-rdf-syntax-ns#"
   xmlns:svg="http://www.w3.org/2000/svg"
   xmlns="http://www.w3.org/2000/svg"
   xmlns:sodipodi="http://sodipodi.sourceforge.net/DTD/sodipodi-0.dtd"
   xmlns:inkscape="http://www.inkscape.org/namespaces/inkscape"
   height="22"
   viewBox="0 0 22 22"
   width="22"
   version="1.1"
   id="svg4"
   sodipodi:docname="view-sort-ascending.svg"
   inkscape:version="0.92+devel (58ef38f81c, 2017-09-13, custom)">
  <metadata
     id="metadata10">
    <rdf:RDF>
      <cc:Work
         rdf:about="">
        <dc:format>image/svg+xml</dc:format>
        <dc:type
           rdf:resource="http://purl.org/dc/dcmitype/StillImage" />
        <dc:title></dc:title>
      </cc:Work>
    </rdf:RDF>
  </metadata>
  <defs
     id="defs8" />
  <sodipodi:namedview
     pagecolor="#002466"
     bordercolor="#ffffff"
     inkscape:document-rotation="0"
     borderopacity="0.13333333"
     objecttolerance="10"
     gridtolerance="10"
     guidetolerance="10"
     inkscape:pageopacity="0"
     inkscape:pageshadow="2"
     inkscape:window-width="1920"
     inkscape:window-height="1027"
     id="namedview6"
     showgrid="false"
     borderlayer="true"
     inkscape:showpageshadow="false"
     inkscape:zoom="22.96875"
     inkscape:cx="10.319718"
     inkscape:cy="10.525131"
     inkscape:window-x="0"
     inkscape:window-y="24"
     inkscape:window-maximized="1"
     inkscape:current-layer="svg4" />
  <g
     id="g834"
     inkscape:label="#view-sort-ascending"
     style="stroke:none;stroke-width:0.72727275"
     transform="scale(1.375)">
    <path
       inkscape:connector-curvature="0"
       inkscape:label="#boundary"
       style="stroke:none"
       id="path2"
       stroke-width=".25455"
       stroke-linecap="round"
       fill="none"
       d="M 0,-4.9999999e-8 H 16 V 16 H 0 Z" />
    <path
       inkscape:label="#"
       d="m 4.4799458,4.9222936 q -0.5090134,0 -0.7680653,0.1727013 -0.254506,0.1727013 -0.254506,0.5090134 0,0.309044 0.204514,0.4862911 0.2090598,0.1726998 0.5771847,0.1726998 0.4590214,0 0.7726112,-0.3272218 Q 5.3252728,5.6040083 5.3252728,5.1086297 V 4.9222936 Z M 6.9659334,4.3087503 V 7.2128562 H 5.3252728 v -0.754432 q -0.3272232,0.4635674 -0.7362526,0.6771702 -0.4090279,0.20906 -0.995303,0.20906 -0.7907891,0 -1.2861691,-0.4590214 -0.4908356,-0.4635659 -0.4908356,-1.1998185 0,-0.895319 0.6135448,-1.3134374 Q 3.0483451,3.9542588 4.366327,3.9542588 H 5.3252728 V 3.8269995 q 0,-0.3863056 -0.3044994,-0.5635514 -0.3044995,-0.1817902 -0.9498555,-0.1817902 -0.5226483,0 -0.9725807,0.10453 Q 2.6484061,3.2907178 2.2621005,3.4997763 V 2.2590547 q 0.5226483,-0.1272593 1.049841,-0.1908805 0.5271927,-0.068174 1.0543855,-0.068174 1.3770642,0 1.986063,0.545372 0.6135434,0.5408275 0.6135434,1.7633698 z"
       style="font-style:normal;font-variant:normal;font-weight:bold;font-stretch:normal;font-size:6.66666651px;line-height:1.25;font-family:sans-serif;-inkscape-font-specification:'sans-serif Bold';letter-spacing:0px;word-spacing:0px;opacity:0.6;fill:#d0d0d0;fill-opacity:1;stroke:none;stroke-width:0.72727275"
       id="path816"
       inkscape:connector-curvature="0" />
    <path
       inkscape:label="#"
       d="m 2.2280134,8.9098613 h 4.440238 V 10.046053 L 3.9868388,12.83654 H 6.6682514 V 14 H 2.1143946 V 12.863809 L 4.7958072,10.073321 H 2.2280134 Z"
       style="font-style:normal;font-variant:normal;font-weight:bold;font-stretch:normal;font-size:6.66666651px;line-height:1.25;font-family:sans-serif;-inkscape-font-specification:'sans-serif Bold';letter-spacing:0px;word-spacing:0px;opacity:0.6;fill:#d0d0d0;fill-opacity:1;stroke:none;stroke-width:0.72727275"
       id="path818"
       inkscape:connector-curvature="0" />
    <path
       inkscape:label="#"
       inkscape:connector-curvature="0"
       id="path823"
       d="M 11.58459,5.5544582 8.9858919,9.1893627 h 1.3879721 v 1.2816243 h 2.421452 V 9.1893627 h 1.387972 z"
       style="fill:#ffb900;stroke:none;stroke-width:0.72727275" />
  </g>
</svg>
