<?xml version="1.0" encoding="UTF-8" standalone="no"?>
<!-- Created with Inkscape (http://www.inkscape.org/) -->

<svg
   xmlns:dc="http://purl.org/dc/elements/1.1/"
   xmlns:cc="http://creativecommons.org/ns#"
   xmlns:rdf="http://www.w3.org/1999/02/22-rdf-syntax-ns#"
   xmlns:svg="http://www.w3.org/2000/svg"
   xmlns="http://www.w3.org/2000/svg"
   xmlns:sodipodi="http://sodipodi.sourceforge.net/DTD/sodipodi-0.dtd"
   xmlns:inkscape="http://www.inkscape.org/namespaces/inkscape"
   width="22.000002"
   height="22"
   viewBox="0 0 22.000002 22"
   version="1.1"
   id="main"
   inkscape:version="0.92+devel (42c84a5464, 2017-09-20, custom)"
   sodipodi:docname="view-certificate.svg">
  <defs
     id="ol-defs" />
  <sodipodi:namedview
     id="base"
     pagecolor="#002466"
     bordercolor="#ffffff"
     borderopacity="0.30"
     inkscape:pageopacity="1"
     inkscape:pageshadow="2"
     inkscape:zoom="13.140625"
     inkscape:document-units="px"
     inkscape:current-layer="main"
     inkscape:document-rotation="0"
     showgrid="false"
     inkscape:showpageshadow="false"
     borderlayer="true"
     inkscape:window-width="1920"
     inkscape:window-height="1017"
     inkscape:window-x="0"
     inkscape:window-y="34"
     inkscape:window-maximized="1"
     units="px"
     inkscape:cx="6.5947884"
     inkscape:cy="8.0269054" />
  <metadata
     id="metadata5">
    <rdf:RDF>
      <cc:Work
         rdf:about="">
        <dc:format>image/svg+xml</dc:format>
        <dc:type
           rdf:resource="http://purl.org/dc/dcmitype/StillImage" />
        <dc:title></dc:title>
      </cc:Work>
    </rdf:RDF>
  </metadata>
  <g
     id="g839"
     inkscape:label="#view-certificate"
     style="stroke:none">
    <path
       style="fill:none;stroke:none;stroke-width:1"
       d="M 0,0 H 22.000001 V 22 H 0 Z"
       id="boundary"
       inkscape:label="#boundary"
       inkscape:connector-curvature="0" />
    <path
       inkscape:connector-curvature="0"
       style="opacity:0.6;fill:#d0d0d0;stroke:none;stroke-width:1.33333337"
       d="m 3.658854,5.6666666 c -0.36493,0 -0.658853,0.2939227 -0.658853,0.6588542 v 9.3489582 c 0,0.364932 0.293923,0.658854 0.658853,0.658854 h 14.682292 c 0.364932,0 0.658855,-0.293922 0.658855,-0.658854 V 6.3255208 c 0,-0.3649315 -0.293923,-0.6588542 -0.658855,-0.6588542 z m 4.026043,1.7161459 c 1.077956,0 1.945312,0.8673567 1.945312,1.9453126 v 0.8437499 h 0.971355 v 4.445312 H 4.765626 V 10.171875 H 5.73698 V 9.3281251 c 0,-1.0779559 0.869961,-1.9453126 1.947917,-1.9453126 z m 0,0.9739583 c -0.538977,0 -0.973959,0.4323764 -0.973959,0.9713543 V 10.171875 H 8.65625 V 9.3281251 c 0,-0.5389779 -0.432376,-0.9713543 -0.971353,-0.9713543 z"
       id="rect811"
       inkscape:label="#" />
  </g>
</svg>
