<?xml version="1.0" encoding="UTF-8" standalone="no"?>
<!-- Created with Inkscape (http://www.inkscape.org/) -->

<svg
   xmlns:dc="http://purl.org/dc/elements/1.1/"
   xmlns:cc="http://creativecommons.org/ns#"
   xmlns:rdf="http://www.w3.org/1999/02/22-rdf-syntax-ns#"
   xmlns:svg="http://www.w3.org/2000/svg"
   xmlns="http://www.w3.org/2000/svg"
   xmlns:sodipodi="http://sodipodi.sourceforge.net/DTD/sodipodi-0.dtd"
   xmlns:inkscape="http://www.inkscape.org/namespaces/inkscape"
   width="22.000002"
   height="22"
   viewBox="0 0 22.000002 22"
   version="1.1"
   id="main"
   inkscape:version="0.92+devel (9d04be7596, 2017-09-23, custom)"
   sodipodi:docname="view-bank-account-checking.svg">
  <defs
     id="ol-defs" />
  <sodipodi:namedview
     id="base"
     pagecolor="#002466"
     bordercolor="#ffffff"
     borderopacity="0.30"
     inkscape:pageopacity="1"
     inkscape:pageshadow="0"
     inkscape:zoom="13.140625"
     inkscape:document-units="px"
     inkscape:current-layer="main"
     inkscape:document-rotation="0"
     showgrid="false"
     inkscape:showpageshadow="false"
     borderlayer="true"
     inkscape:window-width="1920"
     inkscape:window-height="1017"
     inkscape:window-x="0"
     inkscape:window-y="34"
     inkscape:window-maximized="1"
     units="px"
     inkscape:cx="6.5947884"
     inkscape:cy="8.0269058" />
  <metadata
     id="metadata5">
    <rdf:RDF>
      <cc:Work
         rdf:about="">
        <dc:format>image/svg+xml</dc:format>
        <dc:type
           rdf:resource="http://purl.org/dc/dcmitype/StillImage" />
        <dc:title></dc:title>
      </cc:Work>
    </rdf:RDF>
  </metadata>
  <g
     id="g848"
     style="stroke:none;stroke-width:1"
     inkscape:label="#view-bank-account-checking">
    <path
       style="fill:none;stroke:none;stroke-width:1"
       d="M 0,0 H 22.000001 V 22 H 0 Z"
       id="boundary"
       inkscape:label="#boundary"
       inkscape:connector-curvature="0" />
    <path
       inkscape:label="#"
       id="path1387"
       d="M 11,3 3,7.6230469 v 0.375 V 9 h 1 v 1 8 H 3 v 1 H 19 V 18 H 18 V 10 9 h 1 v -1.0019531 -0.375 z m 0.271484,4.4746094 c 1.02311,0 1.85322,0.3034659 2.492188,0.9082031 0.380338,0.3575176 0.6653,0.8716211 0.855469,1.5410156 L 12.949219,10.322266 C 12.850331,9.8886802 12.641853,9.5459449 12.326172,9.2949219 12.014295,9.0438989 11.634346,8.9179688 11.185547,8.9179688 c -0.619951,0 -1.123774,0.2229734 -1.5117189,0.6679687 -0.3841412,0.4449955 -0.5761719,1.1656245 -0.5761719,2.1621095 0,1.057339 0.1899746,1.810967 0.5703126,2.259765 0.3803382,0.448799 0.8738812,0.673829 1.4824222,0.673829 0.448798,0 0.834915,-0.142481 1.158203,-0.427735 0.323287,-0.285253 0.55654,-0.735313 0.697265,-1.347656 l 1.636719,0.519531 c -0.251023,0.912811 -0.670139,1.592114 -1.255859,2.03711 -0.581918,0.441191 -1.321153,0.662109 -2.21875,0.662109 -1.110586,0 -2.0232463,-0.379847 -2.7382815,-1.136719 C 7.7146524,14.227605 7.3574219,13.190969 7.3574219,11.875 c 0,-1.392037 0.3592864,-2.473905 1.078125,-3.2421875 C 9.1543854,7.8607267 10.100044,7.4746094 11.271484,7.4746094 Z"
       style="fill:#005cc7;fill-opacity:1;stroke:none;stroke-width:1"
       inkscape:connector-curvature="0" />
  </g>
</svg>
