<?xml version="1.0" encoding="UTF-8" standalone="no"?>
<!-- Created with Inkscape (http://www.inkscape.org/) -->

<svg xmlns:dc="http://purl.org/dc/elements/1.1/" xmlns:cc="http://creativecommons.org/ns#" xmlns:rdf="http://www.w3.org/1999/02/22-rdf-syntax-ns#" xmlns:svg="http://www.w3.org/2000/svg" xmlns="http://www.w3.org/2000/svg" xmlns:sodipodi="http://sodipodi.sourceforge.net/DTD/sodipodi-0.dtd" xmlns:inkscape="http://www.inkscape.org/namespaces/inkscape" width="16" height="16" viewBox="0 0 16 16" version="1.1" id="main" inkscape:version="0.92+devel (f318dbfe43, 2017-10-09, custom)" sodipodi:docname="view-key-secret.svg">
  <defs id="ol-defs" />
  <sodipodi:namedview id="base" pagecolor="#002466" bordercolor="#ffffff" borderopacity="0.30" inkscape:pageopacity="1" inkscape:pageshadow="2" inkscape:zoom="18.58365" inkscape:document-units="px" inkscape:current-layer="main" inkscape:document-rotation="0" showgrid="false" inkscape:showpageshadow="false" borderlayer="true" inkscape:window-width="1920" inkscape:window-height="1027" inkscape:window-x="0" inkscape:window-y="24" inkscape:window-maximized="1" units="px" inkscape:cx="6.7489001" inkscape:cy="8.0269054" />
  <metadata id="metadata5">
    <rdf:RDF>
      <cc:Work rdf:about="">
        <dc:format>image/svg+xml</dc:format>
        <dc:type rdf:resource="http://purl.org/dc/dcmitype/StillImage" />
        <dc:title></dc:title>
      </cc:Work>
    </rdf:RDF>
  </metadata>
  <g id="g843" inkscape:label="#view-key-secret" style="stroke:none">
    <path style="fill:none;stroke:none" d="M -5.5000004e-8,-4.9999999e-8 H 16.000001 V 16 H -5.5000004e-8 Z" id="boundary" inkscape:label="#boundary" inkscape:connector-curvature="0" />
    <path id="rect812" d="M 3.1992188,2 C 2.5344187,2 2,2.5344186 2,3.1992188 V 12.800781 C 2,13.465581 2.5344187,14 3.1992188,14 H 12.800781 C 13.465581,14 14,13.465581 14,12.800781 V 3.1992188 C 14,2.5344186 13.465581,2 12.800781,2 Z M 8,5.0878906 C 10.811149,5.0878906 13.089844,8 13.089844,8 13.089844,8 10.811148,10.912109 8,10.912109 5.1888514,10.912109 2.9101562,8 2.9101562,8 2.9101562,8 5.1888506,5.0878906 8,5.0878906 Z M 8,6 A 2.0008143,2.0008143 0 0 0 6,8 2.0008143,2.0008143 0 0 0 8,10 2.0008143,2.0008143 0 0 0 10,8 2.0008143,2.0008143 0 0 0 8,6 Z" style="opacity:0.6;fill:#d0d0d0;stroke:none;stroke-width:1.5;stroke-linecap:round" inkscape:connector-curvature="0" inkscape:label="#" />
  </g>
</svg>
