<?xml version="1.0" encoding="UTF-8" standalone="no"?>
<svg
   xmlns:dc="http://purl.org/dc/elements/1.1/"
   xmlns:cc="http://creativecommons.org/ns#"
   xmlns:rdf="http://www.w3.org/1999/02/22-rdf-syntax-ns#"
   xmlns:svg="http://www.w3.org/2000/svg"
   xmlns="http://www.w3.org/2000/svg"
   xmlns:sodipodi="http://sodipodi.sourceforge.net/DTD/sodipodi-0.dtd"
   xmlns:inkscape="http://www.inkscape.org/namespaces/inkscape"
   height="22"
   viewBox="0 0 22 22"
   width="22"
   version="1.1"
   id="svg4"
   sodipodi:docname="view-calendar-upcoming-days.svg"
   inkscape:version="0.92+devel (f008c6912a, 2017-09-14, custom)">
  <defs
     id="defs8" />
  <metadata
     id="metadata10">
    <rdf:RDF>
      <cc:Work
         rdf:about="">
        <dc:format>image/svg+xml</dc:format>
        <dc:type
           rdf:resource="http://purl.org/dc/dcmitype/StillImage" />
        <dc:title></dc:title>
      </cc:Work>
    </rdf:RDF>
  </metadata>
  <sodipodi:namedview
     pagecolor="#002466"
     bordercolor="#ffffff"
     inkscape:document-rotation="0"
     borderopacity="0.13333333"
     objecttolerance="10"
     gridtolerance="10"
     guidetolerance="10"
     inkscape:pageopacity="0"
     inkscape:pageshadow="2"
     inkscape:window-width="1920"
     inkscape:window-height="1027"
     id="namedview6"
     showgrid="false"
     borderlayer="true"
     inkscape:showpageshadow="false"
     inkscape:zoom="11.484375"
     inkscape:cx="6.4101024"
     inkscape:cy="10.525131"
     inkscape:window-x="0"
     inkscape:window-y="24"
     inkscape:window-maximized="1"
     inkscape:current-layer="svg4" />
  <g
     id="g859"
     inkscape:label="#view-calendar-upcoming-days"
     style="stroke:none;stroke-width:0.72727275"
     transform="scale(1.375)">
    <path
       inkscape:connector-curvature="0"
       inkscape:label="#boundary"
       style="stroke:none"
       id="path2"
       stroke-width=".25455"
       stroke-linecap="round"
       fill="none"
       d="M 0,-4.9999999e-8 H 16 V 16 H 0 Z" />
    <path
       style="opacity:0.41346154;fill:#d0d0d0;stroke:none;stroke-width:2.74874711"
       d="M 2.5996094,2 C 2.2672094,2 2,2.2672092 2,2.5996094 V 13.400391 C 2,13.732793 2.2672118,14 2.5996094,14 H 13.398438 C 13.730839,14 14,13.732794 14,13.400391 V 2.5996094 C 14,2.2672092 13.730835,2 13.398438,2 h -1.51758 V 3.1874999 H 10.705077 V 2 H 8.5859377 V 3.1874999 H 7.4121094 V 2 H 5.2929688 V 3.1874999 H 4.1171875 V 2 Z m 1.5332032,4.1542967 h 2.064453 V 8.216797 h -2.064453 z m 2.8359374,0 H 9.0312502 V 8.216797 H 6.9687499 Z m 2.8339845,0 H 11.867187 V 8.216797 H 9.8027345 Z M 4.1328126,9.078125 h 2.0644529 v 2.064453 H 4.1328126 Z m 2.8359373,0 h 2.0625003 v 2.064453 H 6.9687499 Z m 2.8339846,0 h 2.0644525 v 2.064453 H 9.8027345 Z"
       id="path837"
       inkscape:connector-curvature="0"
       inkscape:label="#" />
    <path
       inkscape:label="#"
       inkscape:connector-curvature="0"
       id="path849"
       d="m 4.1328125,6.1542968 v 2.0625 h 2.064453 v -2.0625 z m 2.835938,0 v 2.0625 h 2.0625 v -2.0625 z m -2.835938,2.9238281 v 2.0644531 h 2.064453 V 9.0781249 Z m 2.835938,0 v 2.0644531 h 2.0625 V 9.0781249 Z"
       style="opacity:0.97600002;fill:#d0d0d0;fill-opacity:1;stroke:none;stroke-width:2.74874711" />
    <path
       inkscape:label="#"
       inkscape:connector-curvature="0"
       id="path845"
       d="m 9.8027345,6.1542968 v 2.0625 h 2.0644535 v -2.0625 z m 0,2.9238281 V 11.142578 H 11.867188 V 9.0781249 Z"
       style="opacity:1;fill:#00ff00;stroke:none;stroke-width:2.74874711" />
  </g>
</svg>
