<?xml version="1.0" encoding="UTF-8" standalone="no"?>
<svg
   xmlns:dc="http://purl.org/dc/elements/1.1/"
   xmlns:cc="http://creativecommons.org/ns#"
   xmlns:rdf="http://www.w3.org/1999/02/22-rdf-syntax-ns#"
   xmlns:svg="http://www.w3.org/2000/svg"
   xmlns="http://www.w3.org/2000/svg"
   xmlns:sodipodi="http://sodipodi.sourceforge.net/DTD/sodipodi-0.dtd"
   xmlns:inkscape="http://www.inkscape.org/namespaces/inkscape"
   height="22"
   viewBox="0 0 22 22"
   width="22"
   version="1.1"
   id="svg4"
   sodipodi:docname="view-calendar-journal.svg"
   inkscape:version="0.92+devel (58ef38f81c, 2017-09-13, custom)">
  <defs
     id="defs8" />
  <metadata
     id="metadata10">
    <rdf:RDF>
      <cc:Work
         rdf:about="">
        <dc:format>image/svg+xml</dc:format>
        <dc:type
           rdf:resource="http://purl.org/dc/dcmitype/StillImage" />
        <dc:title></dc:title>
      </cc:Work>
    </rdf:RDF>
  </metadata>
  <sodipodi:namedview
     pagecolor="#002466"
     bordercolor="#ffffff"
     inkscape:document-rotation="0"
     borderopacity="0.13333333"
     objecttolerance="10"
     gridtolerance="10"
     guidetolerance="10"
     inkscape:pageopacity="0"
     inkscape:pageshadow="2"
     inkscape:window-width="1920"
     inkscape:window-height="1027"
     id="namedview6"
     showgrid="false"
     borderlayer="true"
     inkscape:showpageshadow="false"
     inkscape:zoom="16.241359"
     inkscape:cx="9.4577214"
     inkscape:cy="10.525131"
     inkscape:window-x="0"
     inkscape:window-y="24"
     inkscape:window-maximized="1"
     inkscape:current-layer="svg4" />
  <g
     id="g875"
     inkscape:label="#view-calendar-journal"
     style="stroke:none;stroke-width:0.72727275"
     transform="scale(1.375)">
    <path
       inkscape:connector-curvature="0"
       inkscape:label="#boundary"
       style="stroke:none"
       id="path2"
       stroke-width=".25455"
       stroke-linecap="round"
       fill="none"
       d="M 0,-4.9999999e-8 H 16 V 16 H 0 Z" />
    <path
       inkscape:label="#"
       inkscape:connector-curvature="0"
       id="path835"
       d="M 2.5991211,2 C 2.2667211,2 2,2.266721 2,2.5991211 V 13.400879 C 2,13.733281 2.2667233,14 2.5991211,14 H 13.39795 C 13.730351,14 14,13.733283 14,13.400879 V 2.5991211 C 14,2.2667211 13.730348,2 13.39795,2 H 11.880371 V 3.1879883 H 10.705567 V 2 H 8.5859375 V 3.1879883 H 7.4125977 V 2 H 5.2929688 V 3.1879883 H 4.1166992 V 2 Z m 1.9555664,2.8989258 c 0.045746,-0.00708 0.093739,-0.00139 0.1420898,0.020508 0.025967,0.013048 0.1463559,0.1215271 0.2666016,0.2416993 l 0.2197266,0.2211913 0.060059,-0.055664 c 0.084453,-0.074842 0.1728399,-0.1006527 0.2622069,-0.074707 0.061736,0.017821 0.2230412,0.1748132 1.2846681,1.2333985 0.6698595,0.6672861 1.2157832,1.2192963 1.2158202,1.2290038 3.84e-5,0.0081 -0.2029444,0.2187087 -0.449707,0.4658203 L 7.1035156,8.631348 6.3125,7.8417969 C 5.8767631,7.4066487 5.5162733,7.0559822 5.5097656,7.0625 c -0.021158,0.021098 -0.00996,0.4084313 0.016113,0.5302734 0.013013,0.066638 0.054889,0.184382 0.092285,0.2607422 0.06674,0.1364637 0.074095,0.1440648 1.0561523,1.1279294 0.5431022,0.543892 0.9965842,1.007393 1.0063477,1.026856 0.027637,0.05359 0.020896,0.161928 -0.013183,0.228516 -0.056738,0.112159 -0.227835,0.169678 -0.3383789,0.111327 C 7.2526881,10.307552 5.3041536,8.343101 5.2358398,8.23584 5.0373828,7.9304895 4.9468292,7.5160597 4.9838867,7.0903321 4.998427,6.9213806 5.0247715,6.7563573 5.0571289,6.6376954 5.0668593,6.6051526 5.038553,6.5692223 4.8564454,6.3857422 4.6841091,6.2103679 4.6436475,6.1607338 4.6337891,6.1103516 4.6126318,6.003161 4.6362891,5.9383528 4.7304688,5.8408203 L 4.8183594,5.75 4.5839844,5.5141602 C 4.3921236,5.3193583 4.3505891,5.2671798 4.3408204,5.2167969 4.3104161,5.0560678 4.4174464,4.920039 4.5546875,4.8989258 Z M 8.3793946,8.079102 c 0.00474,8e-6 -0.14893,-0.1580027 0.7192383,0.708984 1.3966121,1.396331 1.5948101,1.603614 1.7314451,1.78711 0.271575,0.365395 0.593391,0.936771 0.827637,1.466308 0.151303,0.339479 0.151113,0.307062 0,0.251953 -0.466386,-0.171925 -1.085639,-0.47109 -1.45459,-0.703125 C 9.8423053,11.363113 9.7777947,11.301976 8.1552734,9.681641 L 7.4624023,8.98877 7.9165039,8.534668 C 8.1665743,8.284254 8.3744552,8.079077 8.3793946,8.079102 Z"
       style="opacity:0.6;fill:#d0d0d0;stroke:none;stroke-width:2.74874735" />
  </g>
</svg>
