<?xml version="1.0" encoding="UTF-8" standalone="no"?>
<!-- Created with Inkscape (http://www.inkscape.org/) -->

<svg
   xmlns:dc="http://purl.org/dc/elements/1.1/"
   xmlns:cc="http://creativecommons.org/ns#"
   xmlns:rdf="http://www.w3.org/1999/02/22-rdf-syntax-ns#"
   xmlns:svg="http://www.w3.org/2000/svg"
   xmlns="http://www.w3.org/2000/svg"
   xmlns:sodipodi="http://sodipodi.sourceforge.net/DTD/sodipodi-0.dtd"
   xmlns:inkscape="http://www.inkscape.org/namespaces/inkscape"
   width="22.000002"
   height="22"
   viewBox="0 0 22.000002 22"
   version="1.1"
   id="main"
   inkscape:version="0.92+devel (42c84a5464, 2017-09-20, custom)"
   sodipodi:docname="view-certificate-export.svg">
  <defs
     id="ol-defs">
    <pattern
       patternUnits="userSpaceOnUse"
       width="16"
       height="10.666666"
       patternTransform="translate(3.000001,5.6666666)"
       id="pattern833">
      <path
         inkscape:label="#"
         id="rect811"
         d="M 0.658853,0 C 0.293923,0 0,0.2939227 0,0.6588542 v 9.3489578 c 0,0.364932 0.293923,0.658854 0.658853,0.658854 H 15.341145 C 15.706077,10.666666 16,10.372744 16,10.007812 V 0.6588542 C 16,0.2939227 15.706077,0 15.341145,0 Z m 4.026043,1.7161459 c 1.077956,0 1.945312,0.8673567 1.945312,1.9453126 v 0.8437499 h 0.971355 v 4.445312 H 1.765625 V 4.5052084 H 2.736979 V 3.6614585 c 0,-1.0779559 0.869961,-1.9453126 1.947917,-1.9453126 z m 0,0.9739583 c -0.538977,0 -0.973959,0.4323764 -0.973959,0.9713543 V 4.5052084 H 5.656249 V 3.6614585 c 0,-0.5389779 -0.432376,-0.9713543 -0.971353,-0.9713543 z"
         style="opacity:0.6;fill:#d0d0d0;stroke:none;stroke-width:1.33333337"
         inkscape:connector-curvature="0" />
    </pattern>
  </defs>
  <sodipodi:namedview
     id="base"
     pagecolor="#002466"
     bordercolor="#ffffff"
     borderopacity="0.30"
     inkscape:pageopacity="1"
     inkscape:pageshadow="2"
     inkscape:zoom="13.140625"
     inkscape:document-units="px"
     inkscape:current-layer="main"
     inkscape:document-rotation="0"
     showgrid="false"
     inkscape:showpageshadow="false"
     borderlayer="true"
     inkscape:window-width="1920"
     inkscape:window-height="1017"
     inkscape:window-x="0"
     inkscape:window-y="34"
     inkscape:window-maximized="1"
     units="px"
     inkscape:cx="6.252339"
     inkscape:cy="8.0269062" />
  <metadata
     id="metadata5">
    <rdf:RDF>
      <cc:Work
         rdf:about="">
        <dc:format>image/svg+xml</dc:format>
        <dc:type
           rdf:resource="http://purl.org/dc/dcmitype/StillImage" />
        <dc:title />
      </cc:Work>
    </rdf:RDF>
  </metadata>
  <g
     id="g839"
     inkscape:label="#view-certificate-export"
     style="stroke:none">
    <path
       style="fill:none;stroke:none;stroke-width:1"
       d="M 0,0 H 22.000001 V 22 H 0 Z"
       id="boundary"
       inkscape:label="#boundary"
       inkscape:connector-curvature="0" />
    <path
       style="opacity:0.6;fill:#d0d0d0;fill-opacity:1;stroke:none"
       d="M 3,5.6660156 V 16.333984 H 19 V 5.6660156 Z m 4.3203125,1.9492188 c 0.9893248,0 1.7851563,0.7977847 1.7851563,1.7871094 v 0.7734372 h 0.8925781 v 4.080078 H 4.640625 V 10.175781 H 5.5332031 V 9.4023438 c 0,-0.9893249 0.7977847,-1.7871094 1.7871094,-1.7871094 z m 5.1621095,0.3671875 4.291016,3.1367191 -4.291016,3.136718 z M 7.3203125,8.5078125 c -0.4946621,6e-7 -0.8925781,0.3998683 -0.8925781,0.8945313 V 10.175781 H 8.2128906 V 9.4023438 c 0,-0.494663 -0.3979165,-0.8945313 -0.8925781,-0.8945313 z"
       id="rect836"
       inkscape:connector-curvature="0"
       inkscape:label="#" />
  </g>
</svg>
