<?xml version="1.0" encoding="UTF-8" standalone="no"?>
<!-- Created with Inkscape (http://www.inkscape.org/) -->

<svg
   xmlns:dc="http://purl.org/dc/elements/1.1/"
   xmlns:cc="http://creativecommons.org/ns#"
   xmlns:rdf="http://www.w3.org/1999/02/22-rdf-syntax-ns#"
   xmlns:svg="http://www.w3.org/2000/svg"
   xmlns="http://www.w3.org/2000/svg"
   xmlns:sodipodi="http://sodipodi.sourceforge.net/DTD/sodipodi-0.dtd"
   xmlns:inkscape="http://www.inkscape.org/namespaces/inkscape"
   width="22.000002"
   height="22"
   viewBox="0 0 22.000002 22"
   version="1.1"
   id="main"
   inkscape:version="0.92+devel (9d04be7596, 2017-09-23, custom)"
   sodipodi:docname="view-categories.svg">
  <defs
     id="ol-defs" />
  <sodipodi:namedview
     id="base"
     pagecolor="#002466"
     bordercolor="#ffffff"
     borderopacity="0.30"
     inkscape:pageopacity="1"
     inkscape:pageshadow="2"
     inkscape:zoom="13.140625"
     inkscape:document-units="px"
     inkscape:current-layer="main"
     inkscape:document-rotation="0"
     showgrid="false"
     inkscape:showpageshadow="false"
     borderlayer="true"
     inkscape:window-width="1920"
     inkscape:window-height="1017"
     inkscape:window-x="0"
     inkscape:window-y="34"
     inkscape:window-maximized="1"
     units="px"
     inkscape:cx="6.5947884"
     inkscape:cy="8.0269058" />
  <metadata
     id="metadata5">
    <rdf:RDF>
      <cc:Work
         rdf:about="">
        <dc:format>image/svg+xml</dc:format>
        <dc:type
           rdf:resource="http://purl.org/dc/dcmitype/StillImage" />
        <dc:title></dc:title>
      </cc:Work>
    </rdf:RDF>
  </metadata>
  <g
     id="g824"
     inkscape:label="#view-categories"
     style="stroke:none">
    <path
       style="fill:none;stroke:none;stroke-width:1"
       d="M 0,0 H 22.000001 V 22 H 0 Z"
       id="boundary"
       inkscape:label="#boundary"
       inkscape:connector-curvature="0" />
    <path
       inkscape:label="#"
       id="rect818"
       d="M 4.5996094,3 C 3.7132094,3 3,3.7132094 3,4.5996094 V 17.400391 C 3,18.286791 3.7132094,19 4.5996094,19 H 17.400391 C 18.286791,19 19,18.286791 19,17.400391 V 4.5996094 C 19,3.7132094 18.286791,3 17.400391,3 Z m 6.0078126,2 h 0.904297 c 0.06247,0 0.11409,0.020347 0.154297,0.060547 0.0402,0.0402 0.06055,0.091824 0.06055,0.1542969 v 1.1777343 c 0.254467,0.0268 0.501395,0.078424 0.740235,0.1542969 0.23884,0.075893 0.432478,0.1509494 0.582031,0.2246094 0.149554,0.07366 0.291854,0.1562466 0.425781,0.25 0.133926,0.093747 0.221539,0.1595925 0.261719,0.1953125 0.0402,0.035733 0.07284,0.067017 0.09961,0.09375 0.07589,0.080353 0.08676,0.1646196 0.0332,0.2539062 l -0.542969,0.9785157 c -0.03573,0.066967 -0.0854,0.1029618 -0.152344,0.1074218 -0.06247,0.0134 -0.123575,-0.00221 -0.18164,-0.046875 -0.0134,-0.0134 -0.04632,-0.041831 -0.09766,-0.082031 -0.05133,-0.0402 -0.136992,-0.097675 -0.259765,-0.1757813 C 12.511997,8.2675834 12.380579,8.195593 12.242186,8.1308597 12.103792,8.0661267 11.938339,8.0083717 11.744139,7.9570315 11.549945,7.9056985 11.35742,7.8789065 11.16992,7.8789065 c -0.424107,0 -0.769249,0.097096 -1.03711,0.2890626 C 9.8649562,8.3599357 9.7304668,8.60659 9.7304668,8.9101565 c 0,0.1160734 0.018711,0.2240523 0.056641,0.3222657 0.03793,0.098213 0.1054517,0.1902907 0.1992187,0.2773437 0.09375,0.08705 0.1810775,0.1604362 0.2636715,0.2207032 0.08259,0.06027 0.207587,0.1308573 0.375,0.2089843 0.167406,0.078129 0.301617,0.1372746 0.404297,0.1796876 0.10268,0.0424 0.25893,0.103226 0.46875,0.183593 0.236607,0.08929 0.417969,0.159598 0.542969,0.210938 0.125,0.05133 0.295478,0.129461 0.509765,0.234375 0.214286,0.104913 0.383094,0.200336 0.50586,0.285156 0.122767,0.08482 0.260042,0.197545 0.414062,0.335938 0.15402,0.138394 0.272883,0.278741 0.355469,0.423828 0.08259,0.145093 0.152903,0.317246 0.210937,0.513672 0.05807,0.196427 0.08789,0.405686 0.08789,0.628906 h -0.002 c 0,0.683033 -0.221822,1.270372 -0.666016,1.763672 -0.4442,0.493306 -1.020648,0.797989 -1.730469,0.914062 v 1.171875 c 0,0.06247 -0.02035,0.114084 -0.06055,0.154297 C 11.625816,16.979653 11.574189,17 11.511719,17 h -0.904297 c -0.05807,0 -0.108011,-0.02205 -0.150391,-0.06445 -0.0424,-0.0424 -0.0625,-0.09234 -0.0625,-0.150391 V 15.613281 C 10.099891,15.573081 9.8155686,15.504443 9.5410156,15.40625 9.2664616,15.30804 9.0399021,15.207869 8.8613281,15.107422 8.6827551,15.006975 8.5170204,14.900949 8.3652344,14.787109 c -0.15178,-0.11384 -0.256694,-0.19838 -0.3125,-0.251953 -0.0558,-0.0536 -0.09486,-0.09239 -0.1171875,-0.11914 -0.07589,-0.09375 -0.078679,-0.186105 -0.011719,-0.275391 L 8.613281,13.236328 c 0.03127,-0.04467 0.08288,-0.07121 0.1542969,-0.08008 0.06697,-0.0089 0.1199823,0.01141 0.1601563,0.06055 l 0.013672,0.01367 c 0.50446,0.44196 1.0465929,0.719864 1.6269528,0.835937 0.165179,0.03573 0.330921,0.05469 0.496094,0.05469 0.361614,0 0.678572,-0.0971 0.953125,-0.289063 0.274554,-0.191968 0.41211,-0.463726 0.41211,-0.816406 0,-0.125 -0.03264,-0.243862 -0.09961,-0.355469 -0.06697,-0.111607 -0.142022,-0.205357 -0.224609,-0.28125 -0.08259,-0.07589 -0.214005,-0.158487 -0.392578,-0.25 -0.178574,-0.09152 -0.325334,-0.163504 -0.441407,-0.214844 -0.116067,-0.05133 -0.294082,-0.123042 -0.535156,-0.216796 -0.174105,-0.07143 -0.311662,-0.127796 -0.412109,-0.167969 -0.100447,-0.0402 -0.238003,-0.09963 -0.4121096,-0.177735 C 9.7380024,11.273433 9.5990536,11.204798 9.4941406,11.144531 9.3892336,11.084261 9.2625604,11.004463 9.1152344,10.90625 8.9679144,10.80804 8.8473724,10.712614 8.7558594,10.621094 8.6643394,10.529574 8.5675237,10.420202 8.4648438,10.292969 8.3621638,10.165742 8.2843156,10.035996 8.2285156,9.9042969 8.1727156,9.7726029 8.1258436,9.6241644 8.0878906,9.4589844 8.0499606,9.2938041 8.0292969,9.1205333 8.0292969,8.9375 c 0,-0.6160733 0.21875,-1.1568071 0.65625,-1.6210938 0.4375,-0.4642866 1.008091,-0.7625577 1.7089841,-0.8964843 V 5.2148438 c 0,-0.058 0.0201,-0.107944 0.0625,-0.1503907 C 10.499431,5.0220531 10.549371,5 10.607422,5 Z"
       style="opacity:0.6;fill:#d0d0d0;stroke:none"
       inkscape:connector-curvature="0" />
  </g>
</svg>
