<?xml version="1.0" encoding="UTF-8" standalone="no"?>
<!-- Created with Inkscape (http://www.inkscape.org/) -->

<svg
   xmlns:dc="http://purl.org/dc/elements/1.1/"
   xmlns:cc="http://creativecommons.org/ns#"
   xmlns:rdf="http://www.w3.org/1999/02/22-rdf-syntax-ns#"
   xmlns:svg="http://www.w3.org/2000/svg"
   xmlns="http://www.w3.org/2000/svg"
   xmlns:sodipodi="http://sodipodi.sourceforge.net/DTD/sodipodi-0.dtd"
   xmlns:inkscape="http://www.inkscape.org/namespaces/inkscape"
   width="128"
   height="64"
   id="svg2"
   version="1.1"
   inkscape:version="0.92+devel 15719 custom"
   sodipodi:docname="touchpad.svg">
  <defs
     id="defs4" />
  <sodipodi:namedview
     id="base"
     pagecolor="#002466"
     bordercolor="#ffffff"
     borderopacity="0.34509804"
     inkscape:pageopacity="1"
     inkscape:pageshadow="2"
     inkscape:zoom="3.959798"
     inkscape:cx="51.717623"
     inkscape:cy="35.126778"
     inkscape:document-units="px"
     inkscape:current-layer="layer1"
     showgrid="false"
     showguides="true"
     inkscape:guide-bbox="true"
     inkscape:window-width="1920"
     inkscape:window-height="1051"
     inkscape:window-x="0"
     inkscape:window-y="0"
     inkscape:window-maximized="1"
     inkscape:document-rotation="0"
     borderlayer="false"
     inkscape:showpageshadow="false"
     inkscape:pagecheckerboard="false" />
  <metadata
     id="metadata7">
    <rdf:RDF>
      <cc:Work
         rdf:about="">
        <dc:format>image/svg+xml</dc:format>
        <dc:type
           rdf:resource="http://purl.org/dc/dcmitype/StillImage" />
        <dc:title></dc:title>
      </cc:Work>
    </rdf:RDF>
  </metadata>
  <g
     inkscape:label="Layer 1"
     inkscape:groupmode="layer"
     id="layer1"
     transform="translate(0,-988.36218)">
    <g
       id="touchpad_enabled"
       style="opacity:0.6;fill:#d0d0d0;stroke:none">
      <title
         id="title3772">touchpad_enabled</title>
      <path
         style="fill:#d0d0d0;fill-opacity:1;fill-rule:nonzero;stroke:none;stroke-width:1.5;stroke-linecap:square;stroke-linejoin:bevel;stroke-miterlimit:4;stroke-dasharray:none;stroke-opacity:1"
         d="m 7.9042969,2.7597656 c -2.77,0 -5,2.23 -5,5 V 40.943359 c 0,2.77 2.23,5 5,5 H 56.113281 c 2.77,0 5,-2.23 5,-5 V 7.7597656 c 0,-2.77 -2.23,-5 -5,-5 z M 37.830078,48.216797 c -2.77,0 -5,2.23 -5,5 v 3.888672 c 0,2.77 2.23,5 5,5 h 18.03125 c 2.77,0 5,-2.23 5,-5 v -3.888672 c 0,-2.77 -2.23,-5 -5,-5 z m -29.9257811,0.125 c -2.77,0 -5,2.23 -5,5 v 3.890625 c 0,2.77 2.23,5 5,5 H 25.935547 c 2.77,0 5,-2.23 5,-5 v -3.890625 c 0,-2.77 -2.23,-5 -5,-5 z"
         transform="translate(0,988.36218)"
         id="rect3755"
         inkscape:connector-curvature="0" />
    </g>
    <g
       id="touchpad_disabled">
      <title
         id="title3779">touchpad_disabled</title>
      <path
         style="fill:#d0d0d0;fill-opacity:0.19711537;fill-rule:nonzero;stroke:none;stroke-width:1.5;stroke-linecap:square;stroke-linejoin:bevel;stroke-miterlimit:4;stroke-dasharray:none;stroke-opacity:1"
         d="m 71.291016,2.2539062 c -2.77,0 -5,2.2300001 -5,5 V 40.4375 c 0,2.77 2.23,5 5,5 h 48.210934 c 2.77,0 5,-2.23 5,-5 V 7.2539062 c 0,-2.7699999 -2.23,-5 -5,-5 z M 101.2168,47.710938 c -2.770003,0 -5.000003,2.23 -5.000003,5 v 3.890624 c 0,2.77 2.23,5 5.000003,5 h 18.03125 c 2.77,0 5,-2.23 5,-5 v -3.890624 c 0,-2.77 -2.23,-5 -5,-5 z m -29.925784,0.126953 c -2.77,0 -5,2.23 -5,5 v 3.888671 c 0,2.77 2.23,5 5,5 h 18.03125 c 2.77,0 5,-2.23 5,-5 v -3.888671 c 0,-2.77 -2.23,-5 -5,-5 z"
         transform="translate(0,988.36218)"
         id="rect3761"
         inkscape:connector-curvature="0" />
    </g>
  </g>
</svg>
