<?xml version="1.0" encoding="UTF-8" standalone="no"?>
<!-- Created with Inkscape (http://www.inkscape.org/) -->

<svg
   xmlns:dc="http://purl.org/dc/elements/1.1/"
   xmlns:cc="http://creativecommons.org/ns#"
   xmlns:rdf="http://www.w3.org/1999/02/22-rdf-syntax-ns#"
   xmlns:svg="http://www.w3.org/2000/svg"
   xmlns="http://www.w3.org/2000/svg"
   xmlns:sodipodi="http://sodipodi.sourceforge.net/DTD/sodipodi-0.dtd"
   xmlns:inkscape="http://www.inkscape.org/namespaces/inkscape"
   width="32"
   height="32"
   viewBox="0 0 32 32"
   version="1.1"
   id="svg8"
   inkscape:version="0.92+devel 15697 custom"
   sodipodi:docname="cuttlefish.svg">
  <defs
     id="ol-defs">
    <style
       id="current-color-scheme">      .ColorScheme-Text {
        color:#d0d0d0;
        stop-color:#d0d0d0;
      }
      .ColorScheme-Background {
        color:#212121;
        stop-color:#212121;
      }
      .ColorScheme-Highlight {
        color:#0039a9;
        stop-color:#0039a9;
      }
      .ColorScheme-ViewText {
        color:#d0d0d0;
        stop-color:#d0d0d0;
      }
      .ColorScheme-ViewBackground {
        color:#19191b;
        stop-color:#19191b;
      }
      .ColorScheme-ViewHover {
        color:#005cc7;
        stop-color:#005cc7;
      }
      .ColorScheme-ViewFocus{
        color:#002466;
        stop-color:#002466;
      }
      .ColorScheme-ButtonText {
        color:#d0d0d0;
        stop-color:#d0d0d0;
      }
      .ColorScheme-ButtonBackground {
        color:#232323;
        stop-color:#232323;                             
      }                                                 
      .ColorScheme-ButtonHover {                        
        color:#005cc7;                                  
        stop-color:#005cc7;                             
      }                                                 
      .ColorScheme-ButtonFocus{                         
        color:#0039a9;                                  
        stop-color:#0039a9;                             
      }</style>
    <style
       id="current-color-scheme-7">      .ColorScheme-Text {
        color:#d0d0d0;
        stop-color:#d0d0d0;
      }
      .ColorScheme-Background {
        color:#212121;
        stop-color:#212121;
      }
      .ColorScheme-Highlight {
        color:#0039a9;
        stop-color:#0039a9;
      }
      .ColorScheme-ViewText {
        color:#d0d0d0;
        stop-color:#d0d0d0;
      }
      .ColorScheme-ViewBackground {
        color:#19191b;
        stop-color:#19191b;
      }
      .ColorScheme-ViewHover {
        color:#005cc7;
        stop-color:#005cc7;
      }
      .ColorScheme-ViewFocus{
        color:#002466;
        stop-color:#002466;
      }
      .ColorScheme-ButtonText {
        color:#d0d0d0;
        stop-color:#d0d0d0;
      }
      .ColorScheme-ButtonBackground {
        color:#232323;
        stop-color:#232323;                             
      }                                                 
      .ColorScheme-ButtonHover {                        
        color:#005cc7;                                  
        stop-color:#005cc7;                             
      }                                                 
      .ColorScheme-ButtonFocus{                         
        color:#0039a9;                                  
        stop-color:#0039a9;                             
      }</style>
  </defs>
  <sodipodi:namedview
     id="base"
     pagecolor="#002266"
     bordercolor="#ffffff"
     borderopacity="0.46666667"
     inkscape:pageopacity="0"
     inkscape:pageshadow="2"
     inkscape:zoom="9.2500004"
     inkscape:cx="22.613485"
     inkscape:cy="30.60679"
     inkscape:document-units="px"
     inkscape:current-layer="svg8"
     inkscape:document-rotation="0"
     showgrid="false"
     inkscape:showpageshadow="false"
     borderlayer="true"
     units="px"
     fit-margin-top="0"
     fit-margin-left="0"
     fit-margin-right="0"
     fit-margin-bottom="0"
     inkscape:window-width="1920"
     inkscape:window-height="1054"
     inkscape:window-x="0"
     inkscape:window-y="0"
     inkscape:window-maximized="1"
     inkscape:snap-page="true" />
  <metadata
     id="metadata5">
    <rdf:RDF>
      <cc:Work
         rdf:about="">
        <dc:format>image/svg+xml</dc:format>
        <dc:type
           rdf:resource="http://purl.org/dc/dcmitype/StillImage" />
        <dc:title></dc:title>
      </cc:Work>
    </rdf:RDF>
  </metadata>
  <g
     id="g4295"
     inkscape:label="#cuttlefish"
     transform="scale(0.5)">
    <rect
       inkscape:label="#boundary"
       y="0"
       x="0"
       height="64"
       width="64"
       id="rect4266"
       style="fill:none;fill-opacity:0.74651441;stroke-width:23.61599922;stroke-opacity:0.3596773"
       sodipodi:insensitive="true" />
    <path
       style="opacity:0.6;fill:#ffffff;stroke-width:1.10201061"
       d="m 32.000001,6.4000001 c -12.131544,2.33e-4 -21.965962,8.0795579 -21.965988,18.0458409 0.007,5.797717 3.404447,11.239591 9.131815,14.627108 v 10.661379 c 0,1.320974 -1.298306,2.820503 -2.603304,3.023679 -1.326205,0.20736 -2.23458,1.448713 -2.030979,2.775503 0.209741,1.326445 1.453669,2.232764 2.780568,2.025914 3.857855,-0.600797 6.715911,-3.92108 6.715911,-7.825096 V 41.24068 c 0.676964,0.217042 1.366623,0.406365 2.066434,0.567261 v 13.360906 c 0.0023,1.341689 1.089408,2.428761 2.431097,2.4311 1.349597,0.0088 2.449038,-1.081479 2.451358,-2.4311 V 42.451165 c 0.340599,0.02001 0.681726,0.03351 1.023088,0.04054 0.348023,-0.0033 0.695913,-0.0135 1.043347,-0.03035 v 12.707496 c 0.0023,1.341692 1.08941,2.428763 2.431099,2.4311 1.341689,-0.0023 2.42876,-1.089408 2.431097,-2.4311 V 41.82312 c 0.699704,-0.159209 1.389356,-0.346852 2.066434,-0.562195 v 8.473392 c 0,3.904018 2.86312,7.224594 6.720975,7.825098 1.323285,0.200727 2.560561,-0.704049 2.770439,-2.025917 0.203776,-1.325093 -0.701764,-2.565687 -2.025917,-2.7755 -1.304992,-0.202892 -2.598237,-1.702705 -2.598237,-3.023679 V 39.057757 c 5.720171,-3.385281 9.114945,-8.82031 9.126749,-14.611916 C 53.965961,14.479558 44.131545,6.4002331 32.000001,6.4000001 Z M 19.099985,13.308372 c 2.80613,-2.04e-4 5.080797,3.342623 5.079982,7.465498 8.15e-4,4.122875 -2.273852,7.465703 -5.079982,7.465498 -2.806133,2.05e-4 -5.080797,-3.342623 -5.079983,-7.465498 -8.14e-4,-4.122875 2.27385,-7.465702 5.079983,-7.465498 z m 25.80003,0 c 2.806135,-2.05e-4 5.080799,3.342622 5.079985,7.465498 8.14e-4,4.122876 -2.27385,7.465704 -5.079985,7.465498 -2.80613,2.03e-4 -5.080795,-3.342623 -5.07998,-7.465498 -8.15e-4,-4.122875 2.27385,-7.465701 5.07998,-7.465498 z M 32.000001,35.225735 c 1.299949,-4.35e-4 2.353352,0.480866 2.350061,1.073736 -0.0028,0.590901 -1.05445,1.069107 -2.350061,1.06867 -1.295611,4.37e-4 -2.347213,-0.477771 -2.350061,-1.06867 -0.0033,-0.592875 1.050112,-1.074171 2.350061,-1.073736 z"
       id="path4264"
       inkscape:connector-curvature="0"
       sodipodi:nodetypes="cccscccscccccccccccccscccscccccccccccccccccc"
       inkscape:label="#glyph" />
  </g>
</svg>
