<?xml version="1.0" encoding="UTF-8" standalone="no"?>
<!-- Created with Inkscape (http://www.inkscape.org/) -->

<svg
   xmlns:dc="http://purl.org/dc/elements/1.1/"
   xmlns:cc="http://creativecommons.org/ns#"
   xmlns:rdf="http://www.w3.org/1999/02/22-rdf-syntax-ns#"
   xmlns:svg="http://www.w3.org/2000/svg"
   xmlns="http://www.w3.org/2000/svg"
   xmlns:sodipodi="http://sodipodi.sourceforge.net/DTD/sodipodi-0.dtd"
   xmlns:inkscape="http://www.inkscape.org/namespaces/inkscape"
   width="16"
   height="16"
   viewBox="0 0 16 16"
   version="1.1"
   id="svg8"
   inkscape:version="0.92+devel 15652 custom"
   sodipodi:docname="audacious.svg">
  <defs
     id="defs2" />
  <sodipodi:namedview
     id="base"
     pagecolor="#002266"
     bordercolor="#ffffff"
     borderopacity="0.46666667"
     inkscape:pageopacity="0"
     inkscape:pageshadow="2"
     inkscape:zoom="12.859375"
     inkscape:cx="32"
     inkscape:cy="32"
     inkscape:document-units="px"
     inkscape:current-layer="svg8"
     inkscape:document-rotation="0"
     showgrid="false"
     inkscape:showpageshadow="false"
     borderlayer="true"
     units="px"
     fit-margin-top="0"
     fit-margin-left="0"
     fit-margin-right="0"
     fit-margin-bottom="0"
     inkscape:window-width="1920"
     inkscape:window-height="1051"
     inkscape:window-x="0"
     inkscape:window-y="0"
     inkscape:window-maximized="1"
     inkscape:snap-page="true"
     inkscape:snap-object-midpoints="true" />
  <metadata
     id="metadata5">
    <rdf:RDF>
      <cc:Work
         rdf:about="">
        <dc:format>image/svg+xml</dc:format>
        <dc:type
           rdf:resource="http://purl.org/dc/dcmitype/StillImage" />
        <dc:title></dc:title>
      </cc:Work>
    </rdf:RDF>
  </metadata>
  <g
     id="g4308"
     inkscape:label="audacious"
     transform="scale(0.25)">
    <rect
       style="fill:none;stroke-width:0.51700002"
       id="rect4280"
       width="64"
       height="64"
       x="0"
       y="0"
       inkscape:label="boundary"
       sodipodi:insensitive="true" />
    <path
       inkscape:label="glyph"
       d="m 6.4,31.999999 q 0,5.342006 2.011923,9.990244 2.011925,4.648239 5.48076,8.117074 3.468835,3.468835 8.117074,5.480758 Q 26.657995,57.6 32.000001,57.6 q 5.272628,0 9.920866,-2.011925 4.717615,-2.011923 8.18645,-5.480758 3.468835,-3.468835 5.480758,-8.117074 Q 57.6,37.342005 57.6,31.999999 57.6,26.727371 55.588075,22.079133 53.576152,17.361518 50.107317,13.892683 46.638482,10.42385 41.920867,8.411925 37.272629,6.4 32.000001,6.4 q -5.342006,0 -9.990244,2.011925 -4.648239,2.011925 -8.117074,5.480758 -3.468835,3.468835 -5.48076,8.18645 Q 6.4,26.727371 6.4,31.999999 Z m 26.22439,-6.105147 q 0,-0.624391 -0.555013,-0.971273 -0.555013,-0.346885 -1.179404,-0.346885 H 26.10298 q -0.416258,0.138752 -0.901897,0.208128 -0.485637,0.06938 -0.901895,0.06938 -1.110028,0 -2.011925,-0.763143 -0.832521,-0.832521 -0.832521,-1.942546 0,-0.485637 0.138752,-0.901898 0.208128,-0.41626 0.416263,-0.763145 l 1.45691,-1.45691 q 0.555012,-0.485637 1.179403,-0.555013 0.693767,-0.138752 1.318158,-0.208128 0.277507,-0.06938 1.179404,-0.06938 0.971273,-0.06938 1.318158,-0.06938 0.901895,-0.485637 2.011923,-0.485637 1.179406,-0.06938 2.150677,-0.06938 1.873171,0 3.885093,0.555012 2.081301,0.624391 3.468835,1.456913 1.456913,0.763143 2.358808,1.87317 0.901897,1.110026 1.387534,2.70569 0.485636,1.526288 0.763145,3.676965 0.138752,0.763143 0.208128,1.526289 0.138752,0.763141 0.138752,1.526284 0,0.555014 -0.208128,1.040651 -0.208128,0.416259 -0.346882,0.901898 0,0.06938 0,0.346882 0,0.277506 -0.06938,0.624391 0,0.277506 0,0.555013 0,0.208128 0,0.277506 -0.138752,0.763145 -0.277507,1.526288 -0.06938,0.763143 -0.06938,1.526286 v 0.208128 q 0.06938,0.277509 0.277507,1.040652 0.208128,0.763143 0.277506,1.040649 v 0.416261 q 0,0.832521 -0.416258,1.595664 -0.416261,0.763143 -1.110028,1.387534 -0.693767,0.624391 -1.526288,0.971274 -0.763143,0.346884 -1.595665,0.346884 -1.110025,0 -2.150677,-0.485639 -1.040649,-0.555012 -2.011922,-0.971273 -0.138752,-0.06938 -0.555015,-0.06938 -0.346883,0 -0.485637,0 -1.318158,0 -2.566936,0.485637 -1.179403,0.41626 -2.358807,0.901897 -0.138752,0.06938 -0.693767,0.346882 -0.485637,0.277509 -0.624391,0.346885 -0.277506,0.138752 -0.416261,0.06938 -0.138752,0 -0.485636,0 h -0.555015 q -0.346885,-0.06938 -1.387534,-0.416261 -0.971276,-0.346882 -1.318158,-0.485636 -0.06938,0 -0.277507,-0.06938 -0.138752,-0.06938 -0.138752,-0.138752 Q 22.63414,43.44714 21.38536,42.475867 20.205956,41.435218 19.789696,40.047684 19.650944,39.562045 19.373435,38.729526 19.095929,37.827628 19.095929,37.827628 v -3.468831 q 0,-0.06938 0.138752,-0.41626 0.208128,-0.346883 0.346882,-0.485637 0.763145,-1.387534 1.942549,-2.566938 1.24878,-1.248777 2.636314,-2.081299 0.971275,-0.555012 2.011925,-0.555012 1.040651,-0.06938 2.011925,-0.416261 0.138752,-0.06938 0.555012,-0.208128 0.485637,-0.208128 0.624391,-0.277506 0.277507,-0.138752 0.832519,-0.138752 0.555015,-0.06938 1.110028,-0.138752 0.555013,-0.138752 0.901895,-0.346885 0.416261,-0.277506 0.416261,-0.832519 z m -3.052575,9.573982 q 0,1.110028 0.69377,1.595664 0.693767,0.416261 1.66504,0.416261 h 0.763141 q 0.208128,0 0.208128,-0.138752 0.138752,-0.138752 0.485637,-0.485637 0.41626,-0.346884 0.555012,-0.485636 0.138752,-0.208128 0.138752,-0.555015 0,-0.346883 0,-0.555013 v -0.693767 q -0.06938,-0.208128 -0.346884,-0.485637 -0.208128,-0.346884 -0.485637,-0.346884 h -2.566936 q -0.555012,0 -0.832519,0.693767 -0.277508,0.624391 -0.277508,1.040651 z"
       id="path4265"
       inkscape:connector-curvature="0"
       style="font-size:medium;font-family:'Circulate (BRK)';-inkscape-font-specification:'Circulate (BRK)';opacity:0.6;fill:#ffffff;stroke-width:1.73441744" />
  </g>
</svg>
