<?xml version="1.0" encoding="UTF-8" standalone="no"?>
<!-- Created with Inkscape (http://www.inkscape.org/) -->

<svg
   xmlns:dc="http://purl.org/dc/elements/1.1/"
   xmlns:cc="http://creativecommons.org/ns#"
   xmlns:rdf="http://www.w3.org/1999/02/22-rdf-syntax-ns#"
   xmlns:svg="http://www.w3.org/2000/svg"
   xmlns="http://www.w3.org/2000/svg"
   xmlns:sodipodi="http://sodipodi.sourceforge.net/DTD/sodipodi-0.dtd"
   xmlns:inkscape="http://www.inkscape.org/namespaces/inkscape"
   width="16"
   height="16"
   viewBox="0 0 4.2333332 4.2333332"
   version="1.1"
   id="main"
   inkscape:version="0.92+devel (5451be0409, 2017-08-29, custom)"
   sodipodi:docname="help-contents.svg">
  <defs
     id="ol-defs">
    <style
       id="current-color-scheme">      .ColorScheme-Text {
        color:#d0d0d0;
        stop-color:#d0d0d0;
      }
      .ColorScheme-Background {
        color:#212121;
        stop-color:#212121;
      }
      .ColorScheme-Highlight {
        color:#0039a9;
        stop-color:#0039a9;
      }
      .ColorScheme-ViewText {
        color:#d0d0d0;
        stop-color:#d0d0d0;
      }
      .ColorScheme-ViewBackground {
        color:#19191b;
        stop-color:#19191b;
      }
      .ColorScheme-ViewHover {
        color:#005cc7;
        stop-color:#005cc7;
      }
      .ColorScheme-ViewFocus{
        color:#002466;
        stop-color:#002466;
      }
      .ColorScheme-ButtonText {
        color:#d0d0d0;
        stop-color:#d0d0d0;
      }
      .ColorScheme-ButtonBackground {
        color:#232323;
        stop-color:#232323;                             
      }                                                 
      .ColorScheme-ButtonHover {                        
        color:#005cc7;                                  
        stop-color:#005cc7;                             
      }                                                 
      .ColorScheme-ButtonFocus{                         
        color:#0039a9;                                  
        stop-color:#0039a9;                             
      }</style>
  </defs>
  <sodipodi:namedview
     id="base"
     pagecolor="#002466"
     bordercolor="#ffffff"
     borderopacity="0.38039216"
     inkscape:pageopacity="1"
     inkscape:pageshadow="2"
     inkscape:zoom="40.551468"
     inkscape:cx="4.0666161"
     inkscape:cy="7.9030554"
     inkscape:document-units="px"
     inkscape:current-layer="g848"
     inkscape:document-rotation="0"
     showgrid="false"
     inkscape:showpageshadow="false"
     borderlayer="true"
     inkscape:window-width="1920"
     inkscape:window-height="1025"
     inkscape:window-x="0"
     inkscape:window-y="26"
     inkscape:window-maximized="1"
     units="px" />
  <metadata
     id="metadata5">
    <rdf:RDF>
      <cc:Work
         rdf:about="">
        <dc:format>image/svg+xml</dc:format>
        <dc:type
           rdf:resource="http://purl.org/dc/dcmitype/StillImage" />
        <dc:title />
      </cc:Work>
    </rdf:RDF>
  </metadata>
  <g
     id="g848"
     inkscape:label="#help-contents">
    <path
       style="fill:none;stroke-width:0.20485653"
       d="M -5.5e-8,-3e-8 H 4.2333333 V 4.2333332 H -5.5e-8 Z"
       id="rect811-3"
       inkscape:label="#boundary"
       inkscape:connector-curvature="0" />
    <path
       inkscape:label="#"
       sodipodi:nodetypes="csccsscsccssccscccscccccccc"
       inkscape:connector-curvature="0"
       d="m 2.116668,0.52916669 c -0.266103,0 -0.5145692,0.0933176 -0.689613,0.26836106 C 1.2520112,0.97257132 1.1586942,1.2210374 1.1586942,1.4871408 h 0.5474136 c 0,-0.1444557 0.043536,-0.2381248 0.107986,-0.3025747 0.06445,-0.06445 0.1581186,-0.1079858 0.3025742,-0.1079858 0.1444572,0 0.2381244,0.043536 0.3025748,0.1079858 0.064449,0.06445 0.1079856,0.158119 0.1079856,0.3025747 0,0.1254494 -0.024729,0.1788187 -0.057735,0.2261289 -0.033005,0.047309 -0.087076,0.091985 -0.167592,0.148347 C 2.2213836,1.9179784 2.1144289,1.9829066 2.0156317,2.09817 1.9168345,2.2134334 1.8429615,2.3880934 1.8429615,2.5819681 V 2.7188217 H 2.390375 V 2.5819681 c 0,-0.079831 0.011385,-0.093345 0.040893,-0.1277655 C 2.46077,2.4197836 2.525148,2.3735156 2.6156989,2.3101324 2.7062479,2.2467474 2.8232467,2.1631236 2.9185407,2.0265357 3.0138357,1.8899477 3.074639,1.7038263 3.074639,1.4871408 3.074639,1.2210374 2.981323,0.97257153 2.806278,0.79752775 2.6312347,0.62248397 2.38277,0.52916669 2.1166655,0.52916669 Z M 1.8429615,3.1567527 V 3.7041665 H 2.390375 V 3.1567527 Z"
       fill="#d0d0d0"
       stroke-linecap="round"
       stroke-linejoin="round"
       stroke-width=".529167"
       id="path839"
       style="opacity:0.6" />
  </g>
</svg>
