<?xml version="1.0" encoding="UTF-8" standalone="no"?>
<!-- Created with Inkscape (http://www.inkscape.org/) -->

<svg
   xmlns:dc="http://purl.org/dc/elements/1.1/"
   xmlns:cc="http://creativecommons.org/ns#"
   xmlns:rdf="http://www.w3.org/1999/02/22-rdf-syntax-ns#"
   xmlns:svg="http://www.w3.org/2000/svg"
   xmlns="http://www.w3.org/2000/svg"
   xmlns:sodipodi="http://sodipodi.sourceforge.net/DTD/sodipodi-0.dtd"
   xmlns:inkscape="http://www.inkscape.org/namespaces/inkscape"
   width="32"
   height="32"
   viewBox="0 0 32 32"
   version="1.1"
   id="svg8"
   inkscape:version="0.92+devel 15675 custom"
   sodipodi:docname="applications-games.svg">
  <defs
     id="ol-defs">
    <style
       id="current-color-scheme">      .ColorScheme-Text {
        color:#d0d0d0;
        stop-color:#d0d0d0;
      }
      .ColorScheme-Background {
        color:#212121;
        stop-color:#212121;
      }
      .ColorScheme-Highlight {
        color:#0039a9;
        stop-color:#0039a9;
      }
      .ColorScheme-ViewText {
        color:#d0d0d0;
        stop-color:#d0d0d0;
      }
      .ColorScheme-ViewBackground {
        color:#19191b;
        stop-color:#19191b;
      }
      .ColorScheme-ViewHover {
        color:#005cc7;
        stop-color:#005cc7;
      }
      .ColorScheme-ViewFocus{
        color:#002466;
        stop-color:#002466;
      }
      .ColorScheme-ButtonText {
        color:#d0d0d0;
        stop-color:#d0d0d0;
      }
      .ColorScheme-ButtonBackground {
        color:#232323;
        stop-color:#232323;                             
      }                                                 
      .ColorScheme-ButtonHover {                        
        color:#005cc7;                                  
        stop-color:#005cc7;                             
      }                                                 
      .ColorScheme-ButtonFocus{                         
        color:#0039a9;                                  
        stop-color:#0039a9;                             
      }</style>
  </defs>
  <sodipodi:namedview
     id="base"
     pagecolor="#002266"
     bordercolor="#ffffff"
     borderopacity="0.46666667"
     inkscape:pageopacity="0"
     inkscape:pageshadow="2"
     inkscape:zoom="12.859375"
     inkscape:cx="31.399413"
     inkscape:cy="11.170575"
     inkscape:document-units="px"
     inkscape:current-layer="svg8"
     inkscape:document-rotation="0"
     showgrid="false"
     inkscape:showpageshadow="false"
     borderlayer="true"
     units="px"
     fit-margin-top="0"
     fit-margin-left="0"
     fit-margin-right="0"
     fit-margin-bottom="0"
     inkscape:window-width="1920"
     inkscape:window-height="1051"
     inkscape:window-x="0"
     inkscape:window-y="0"
     inkscape:window-maximized="1"
     inkscape:snap-page="true" />
  <metadata
     id="metadata5">
    <rdf:RDF>
      <cc:Work
         rdf:about="">
        <dc:format>image/svg+xml</dc:format>
        <dc:type
           rdf:resource="http://purl.org/dc/dcmitype/StillImage" />
        <dc:title></dc:title>
      </cc:Work>
    </rdf:RDF>
  </metadata>
  <g
     id="g4267"
     inkscape:label="applications-games">
    <rect
       inkscape:label="boundary"
       y="0"
       x="0"
       height="32"
       width="32"
       id="rect4264"
       style="fill:none;fill-opacity:0.74651441;stroke-width:23.61599922;stroke-opacity:0.3596773" />
    <path
       inkscape:label="glyph"
       style="opacity:0.6;fill:#ffffff;fill-opacity:1;fill-rule:evenodd;stroke:none;stroke-width:0.03495318px;stroke-linecap:butt;stroke-linejoin:miter;stroke-opacity:1;shape-rendering:crispEdges"
       d="m 6.4985998,6.70447 c -1.590958,0.04061 -4.060287,12.405247 -3.071988,15.515192 0.480733,1.512739 2.04786,3.081146 3.635142,3.075852 2.196549,-0.007 3.8933872,-5.322868 4.6434552,-5.377955 3.032902,-0.202845 5.832052,-0.186624 8.587612,0 0.716521,0.08867 2.446988,5.370624 4.643537,5.377955 1.58727,0.0058 3.154409,-1.563113 3.63513,-3.075852 0.996084,-3.134428 -1.490048,-15.6537 -3.109434,-15.513877 -6.085713,0.525463 -13.625575,0.520588 -18.9260082,0 -0.01245,-0.0012 -0.0249,-0.0012 -0.03747,-0.0012 z m 2.541568,2.177641 a 3.1887607,3.1887607 0 0 1 3.1887362,3.188735 3.1887607,3.1887607 0 0 1 -3.1887362,3.188817 3.1887607,3.1887607 0 0 1 -3.188817,-3.188817 3.1887607,3.1887607 0 0 1 3.188817,-3.188735 z m 14.0236442,0 a 3.1887607,3.1887607 0 0 1 3.188735,3.188735 3.1887607,3.1887607 0 0 1 -3.188735,3.188817 3.1887607,3.1887607 0 0 1 -3.188736,-3.188817 3.1887607,3.1887607 0 0 1 3.188736,-3.188735 z m -4.148794,4.937424 a 0.68575499,0.68575499 0 0 1 0.685777,0.685778 0.68575499,0.68575499 0 0 1 -0.685777,0.685696 0.68575499,0.68575499 0 0 1 -0.685778,-0.685696 0.68575499,0.68575499 0 0 1 0.685778,-0.685778 z m -6.114234,0.233589 a 1.6039961,1.6039961 0 0 1 1.60398,1.603979 1.6039961,1.6039961 0 0 1 -1.60398,1.60398 1.6039961,1.6039961 0 0 1 -1.603979,-1.60398 1.6039961,1.6039961 0 0 1 1.603979,-1.603979 z m 4.708387,1.172177 a 0.68575499,0.68575499 0 0 1 0.685777,0.685777 0.68575499,0.68575499 0 0 1 -0.685777,0.685778 0.68575499,0.68575499 0 0 1 -0.685696,-0.685778 0.68575499,0.68575499 0 0 1 0.685696,-0.685777 z m 2.811601,0 a 0.68575499,0.68575499 0 0 1 0.685777,0.685777 0.68575499,0.68575499 0 0 1 -0.685777,0.685778 0.68575499,0.68575499 0 0 1 -0.685696,-0.685778 0.68575499,0.68575499 0 0 1 0.685696,-0.685777 z m -1.405754,1.405836 a 0.68575499,0.68575499 0 0 1 0.685777,0.685777 0.68575499,0.68575499 0 0 1 -0.685777,0.685696 0.68575499,0.68575499 0 0 1 -0.685778,-0.685696 0.68575499,0.68575499 0 0 1 0.685778,-0.685777 z"
       id="path7761"
       inkscape:connector-curvature="0" />
  </g>
</svg>
