<?xml version="1.0" encoding="UTF-8" standalone="no"?>
<!-- Created with Inkscape (http://www.inkscape.org/) -->

<svg
   xmlns:dc="http://purl.org/dc/elements/1.1/"
   xmlns:cc="http://creativecommons.org/ns#"
   xmlns:rdf="http://www.w3.org/1999/02/22-rdf-syntax-ns#"
   xmlns:svg="http://www.w3.org/2000/svg"
   xmlns="http://www.w3.org/2000/svg"
   xmlns:sodipodi="http://sodipodi.sourceforge.net/DTD/sodipodi-0.dtd"
   xmlns:inkscape="http://www.inkscape.org/namespaces/inkscape"
   width="32"
   height="32"
   viewBox="0 0 32 32"
   version="1.1"
   id="svg8"
   inkscape:version="0.92+devel 15698 custom"
   sodipodi:docname="applications-system.svg">
  <defs
     id="ol-defs">
    <style
       id="current-color-scheme">      .ColorScheme-Text {
        color:#d0d0d0;
        stop-color:#d0d0d0;
      }
      .ColorScheme-Background {
        color:#212121;
        stop-color:#212121;
      }
      .ColorScheme-Highlight {
        color:#0039a9;
        stop-color:#0039a9;
      }
      .ColorScheme-ViewText {
        color:#d0d0d0;
        stop-color:#d0d0d0;
      }
      .ColorScheme-ViewBackground {
        color:#19191b;
        stop-color:#19191b;
      }
      .ColorScheme-ViewHover {
        color:#005cc7;
        stop-color:#005cc7;
      }
      .ColorScheme-ViewFocus{
        color:#002466;
        stop-color:#002466;
      }
      .ColorScheme-ButtonText {
        color:#d0d0d0;
        stop-color:#d0d0d0;
      }
      .ColorScheme-ButtonBackground {
        color:#232323;
        stop-color:#232323;                             
      }                                                 
      .ColorScheme-ButtonHover {                        
        color:#005cc7;                                  
        stop-color:#005cc7;                             
      }                                                 
      .ColorScheme-ButtonFocus{                         
        color:#0039a9;                                  
        stop-color:#0039a9;                             
      }</style>
    <style
       id="current-color-scheme-7">      .ColorScheme-Text {
        color:#d0d0d0;
        stop-color:#d0d0d0;
      }
      .ColorScheme-Background {
        color:#212121;
        stop-color:#212121;
      }
      .ColorScheme-Highlight {
        color:#0039a9;
        stop-color:#0039a9;
      }
      .ColorScheme-ViewText {
        color:#d0d0d0;
        stop-color:#d0d0d0;
      }
      .ColorScheme-ViewBackground {
        color:#19191b;
        stop-color:#19191b;
      }
      .ColorScheme-ViewHover {
        color:#005cc7;
        stop-color:#005cc7;
      }
      .ColorScheme-ViewFocus{
        color:#002466;
        stop-color:#002466;
      }
      .ColorScheme-ButtonText {
        color:#d0d0d0;
        stop-color:#d0d0d0;
      }
      .ColorScheme-ButtonBackground {
        color:#232323;
        stop-color:#232323;                             
      }                                                 
      .ColorScheme-ButtonHover {                        
        color:#005cc7;                                  
        stop-color:#005cc7;                             
      }                                                 
      .ColorScheme-ButtonFocus{                         
        color:#0039a9;                                  
        stop-color:#0039a9;                             
      }</style>
  </defs>
  <sodipodi:namedview
     id="base"
     pagecolor="#002266"
     bordercolor="#ffffff"
     borderopacity="0.46666667"
     inkscape:pageopacity="0"
     inkscape:pageshadow="2"
     inkscape:zoom="12.859375"
     inkscape:cx="31.399413"
     inkscape:cy="11.170575"
     inkscape:document-units="px"
     inkscape:current-layer="svg8"
     inkscape:document-rotation="0"
     showgrid="false"
     inkscape:showpageshadow="false"
     borderlayer="true"
     units="px"
     fit-margin-top="0"
     fit-margin-left="0"
     fit-margin-right="0"
     fit-margin-bottom="0"
     inkscape:window-width="1920"
     inkscape:window-height="1054"
     inkscape:window-x="0"
     inkscape:window-y="0"
     inkscape:window-maximized="1"
     inkscape:snap-page="true" />
  <metadata
     id="metadata5">
    <rdf:RDF>
      <cc:Work
         rdf:about="">
        <dc:format>image/svg+xml</dc:format>
        <dc:type
           rdf:resource="http://purl.org/dc/dcmitype/StillImage" />
        <dc:title></dc:title>
      </cc:Work>
    </rdf:RDF>
  </metadata>
  <g
     id="g4296"
     inkscape:label="#applications-system">
    <rect
       inkscape:label="#boundary"
       y="0"
       x="0"
       height="32"
       width="32"
       id="rect4264"
       style="fill:none;fill-opacity:0.74651441;stroke-width:23.61599922;stroke-opacity:0.3596773"
       sodipodi:insensitive="true" />
    <path
       inkscape:connector-curvature="0"
       style="opacity:0.6;vector-effect:none;fill:#d0d0d0;stroke-width:1.31656802;stroke-linecap:square"
       d="m 19.943183,3.1999994 -0.954547,2.1272728 a 6.0947548,6.0947548 0 0 0 -1.252271,0.2749999 l -1.768183,-1.5090909 -1.881819,1.3227276 0.829546,2.1840908 a 6.0947548,6.0947548 0 0 0 -0.684091,1.079545 l -2.324999,0.179546 -0.393183,2.2659094 2.127273,0.956819 a 6.0947548,6.0947548 0 0 0 0.275,1.249999 l -1.509091,1.770456 1.327273,1.877272 2.177273,-0.827273 a 6.0947548,6.0947548 0 0 0 1.081819,0.684091 l 0.184091,2.322728 2.263635,0.393181 0.954546,-2.125 A 6.0947548,6.0947548 0 0 0 21.650001,17.15 l 1.765908,1.509091 1.881817,-1.325 -0.831817,-2.179544 A 6.0947548,6.0947548 0 0 0 25.152272,14.075 l 2.325,-0.181818 0.39091,-2.268182 -2.127273,-0.952273 A 6.0947548,6.0947548 0 0 0 25.463635,9.4204544 L 26.975,7.6499999 25.65,5.7704536 23.468182,6.6022721 A 6.0947548,6.0947548 0 0 0 22.39091,5.9159082 L 22.206818,3.5931817 Z m -0.250001,5.7954554 a 2.3820774,2.3820774 0 0 1 0.404545,0.034095 2.3820774,2.3820774 0 0 1 1.94091,2.7545452 2.3820774,2.3820774 0 0 1 -2.754545,1.940909 2.3820774,2.3820774 0 0 1 -1.938637,-2.754546 2.3820774,2.3820774 0 0 1 2.347727,-1.9749993 z m -9.363636,6.1909092 -0.8250008,1.761364 a 5.077715,5.077715 0 0 0 -1.043182,0.213636 L 7.0045454,15.875 5.4227272,16.952273 6.0840909,18.779546 a 5.077715,5.077715 0 0 0 -0.5909091,0.888637 l -1.934091,0.122726 -0.3590909,1.881819 1.7636364,0.827273 a 5.077715,5.077715 0 0 0 0.2136364,1.040909 l -1.2863637,1.454546 1.0772727,1.586363 1.8272729,-0.661363 a 5.077715,5.077715 0 0 0 0.8886366,0.588636 l 0.122727,1.93409 1.881819,0.356819 0.8249988,-1.756819 a 5.077715,5.077715 0 0 0 1.043182,-0.215908 l 1.454545,1.281818 1.584091,-1.075 -0.659091,-1.825001 a 5.077715,5.077715 0 0 0 0.588638,-0.893181 l 1.931817,-0.120454 0.361364,-1.881819 -1.761364,-0.825 A 5.077715,5.077715 0 0 0 14.840909,20.445455 L 16.127273,18.990909 15.050001,17.404546 13.225,18.068183 a 5.077715,5.077715 0 0 0 -0.893182,-0.59091 l -0.120455,-1.93409 z M 24.590908,18.850001 23.7,20.138638 a 3.6921364,3.6921364 0 0 0 -0.888635,0.122726 l -1.209092,-0.986363 -1.727273,1.354546 0.668183,1.413635 a 3.6921364,3.6921364 0 0 0 -0.334091,0.831819 l -1.461364,0.554546 0.309091,2.174999 1.559091,0.127273 a 3.6921364,3.6921364 0 0 0 0.252273,0.370455 3.6921364,3.6921364 0 0 0 0.299999,0.331818 l -0.25,1.547727 2.038637,0.818182 0.890908,-1.288637 a 3.6921364,3.6921364 0 0 0 0.888636,-0.122727 l 1.209091,0.986364 1.727273,-1.354546 -0.668182,-1.413636 a 3.6921364,3.6921364 0 0 0 0.334091,-0.831818 L 28.8,24.220455 l -0.309091,-2.175 -1.559091,-0.127272 a 3.6921364,3.6921364 0 0 0 -0.252273,-0.370455 3.6921364,3.6921364 0 0 0 -0.3,-0.331818 l 0.250001,-1.547727 z m -14.574999,1.15909 a 1.9845771,1.9845771 0 0 1 1.63409,0.868182 1.9845771,1.9845771 0 0 1 -0.524999,2.756819 1.9845771,1.9845771 0 0 1 -2.7568178,-0.525 1.9845771,1.9845771 0 0 1 0.525,-2.756819 1.9845771,1.9845771 0 0 1 1.1227268,-0.343182 z m 13.815909,2.163638 a 1.6535056,1.6535056 0 0 1 1.243181,0.631817 1.6535056,1.6535056 0 0 1 -0.281817,2.322728 1.6535056,1.6535056 0 0 1 -2.320454,-0.281819 1.6535056,1.6535056 0 0 1 0.281819,-2.322727 1.6535056,1.6535056 0 0 1 1.077271,-0.349999 z"
       id="path4264"
       inkscape:label="#glyph" />
  </g>
</svg>
