<?xml version="1.0" encoding="UTF-8" standalone="no"?>
<!-- Created with Inkscape (http://www.inkscape.org/) -->

<svg
   xmlns:dc="http://purl.org/dc/elements/1.1/"
   xmlns:cc="http://creativecommons.org/ns#"
   xmlns:rdf="http://www.w3.org/1999/02/22-rdf-syntax-ns#"
   xmlns:svg="http://www.w3.org/2000/svg"
   xmlns="http://www.w3.org/2000/svg"
   xmlns:sodipodi="http://sodipodi.sourceforge.net/DTD/sodipodi-0.dtd"
   xmlns:inkscape="http://www.inkscape.org/namespaces/inkscape"
   width="32"
   height="32"
   viewBox="0 0 32 32"
   version="1.1"
   id="svg8"
   inkscape:version="0.92+devel 15675 custom"
   sodipodi:docname="applications-utilities.svg">
  <defs
     id="ol-defs">
    <style
       id="current-color-scheme">      .ColorScheme-Text {
        color:#d0d0d0;
        stop-color:#d0d0d0;
      }
      .ColorScheme-Background {
        color:#212121;
        stop-color:#212121;
      }
      .ColorScheme-Highlight {
        color:#0039a9;
        stop-color:#0039a9;
      }
      .ColorScheme-ViewText {
        color:#d0d0d0;
        stop-color:#d0d0d0;
      }
      .ColorScheme-ViewBackground {
        color:#19191b;
        stop-color:#19191b;
      }
      .ColorScheme-ViewHover {
        color:#005cc7;
        stop-color:#005cc7;
      }
      .ColorScheme-ViewFocus{
        color:#002466;
        stop-color:#002466;
      }
      .ColorScheme-ButtonText {
        color:#d0d0d0;
        stop-color:#d0d0d0;
      }
      .ColorScheme-ButtonBackground {
        color:#232323;
        stop-color:#232323;                             
      }                                                 
      .ColorScheme-ButtonHover {                        
        color:#005cc7;                                  
        stop-color:#005cc7;                             
      }                                                 
      .ColorScheme-ButtonFocus{                         
        color:#0039a9;                                  
        stop-color:#0039a9;                             
      }</style>
  </defs>
  <sodipodi:namedview
     id="base"
     pagecolor="#002266"
     bordercolor="#ffffff"
     borderopacity="0.46666667"
     inkscape:pageopacity="0"
     inkscape:pageshadow="2"
     inkscape:zoom="25.71875"
     inkscape:cx="16"
     inkscape:cy="16"
     inkscape:document-units="px"
     inkscape:current-layer="g4267"
     inkscape:document-rotation="0"
     showgrid="false"
     inkscape:showpageshadow="false"
     borderlayer="true"
     units="px"
     fit-margin-top="0"
     fit-margin-left="0"
     fit-margin-right="0"
     fit-margin-bottom="0"
     inkscape:window-width="1920"
     inkscape:window-height="1051"
     inkscape:window-x="0"
     inkscape:window-y="0"
     inkscape:window-maximized="1"
     inkscape:snap-page="true" />
  <metadata
     id="metadata5">
    <rdf:RDF>
      <cc:Work
         rdf:about="">
        <dc:format>image/svg+xml</dc:format>
        <dc:type
           rdf:resource="http://purl.org/dc/dcmitype/StillImage" />
        <dc:title />
      </cc:Work>
    </rdf:RDF>
  </metadata>
  <g
     id="g4267"
     inkscape:label="applications-utilities">
    <rect
       inkscape:label="boundary"
       y="0"
       x="0"
       height="32"
       width="32"
       id="rect4264"
       style="fill:none;fill-opacity:0.74651441;stroke-width:23.61599922;stroke-opacity:0.3596773" />
    <path
       inkscape:label="glyph"
       id="path5737"
       d="m 13.374827,4.2334801 -0.825173,3.6498863 a 8.8282199,8.8282199 0 0 0 -1.854043,1.070439 L 7.1226294,7.8438748 4.4974543,12.389604 7.2452629,14.92956 a 8.8282199,8.8282199 0 0 0 -0.072749,1.070439 8.8282199,8.8282199 0 0 0 0.074824,1.068361 l -2.7498859,2.542034 2.6251751,4.54573 3.5771389,-1.10993 a 8.8282199,8.8282199 0 0 0 1.851963,1.080832 l 0.823096,3.639494 h 5.250349 l 0.825174,-3.649887 a 8.8282199,8.8282199 0 0 0 1.854042,-1.070439 l 3.57298,1.10993 2.625176,-4.54573 -2.747808,-2.539956 a 8.8282199,8.8282199 0 0 0 0.07275,-1.070439 8.8282199,8.8282199 0 0 0 -0.07483,-1.06836 l 2.74989,-2.542035 -2.625175,-4.5457292 -3.577139,1.1099306 A 8.8282199,8.8282199 0 0 0 19.448272,7.8729733 L 18.625178,4.2334801 Z m 2.625175,7.8131679 a 3.953676,3.953676 0 0 1 3.953351,3.953351 3.953676,3.953676 0 0 1 -3.953351,3.953352 3.953676,3.953676 0 0 1 -3.953351,-3.953352 3.953676,3.953676 0 0 1 3.953351,-3.953351 z"
       style="opacity:0.6;fill:#ffffff;stroke-width:0.96820748"
       inkscape:connector-curvature="0" />
  </g>
</svg>
