<?xml version="1.0" encoding="UTF-8" standalone="no"?>
<!-- Created with Inkscape (http://www.inkscape.org/) -->

<svg
   xmlns:dc="http://purl.org/dc/elements/1.1/"
   xmlns:cc="http://creativecommons.org/ns#"
   xmlns:rdf="http://www.w3.org/1999/02/22-rdf-syntax-ns#"
   xmlns:svg="http://www.w3.org/2000/svg"
   xmlns="http://www.w3.org/2000/svg"
   xmlns:sodipodi="http://sodipodi.sourceforge.net/DTD/sodipodi-0.dtd"
   xmlns:inkscape="http://www.inkscape.org/namespaces/inkscape"
   width="32"
   height="32"
   viewBox="0 0 32 32"
   version="1.1"
   id="svg8"
   inkscape:version="0.92+devel 15675 custom"
   sodipodi:docname="applications-graphics.svg">
  <defs
     id="ol-defs">
    <style
       id="current-color-scheme">      .ColorScheme-Text {
        color:#d0d0d0;
        stop-color:#d0d0d0;
      }
      .ColorScheme-Background {
        color:#212121;
        stop-color:#212121;
      }
      .ColorScheme-Highlight {
        color:#0039a9;
        stop-color:#0039a9;
      }
      .ColorScheme-ViewText {
        color:#d0d0d0;
        stop-color:#d0d0d0;
      }
      .ColorScheme-ViewBackground {
        color:#19191b;
        stop-color:#19191b;
      }
      .ColorScheme-ViewHover {
        color:#005cc7;
        stop-color:#005cc7;
      }
      .ColorScheme-ViewFocus{
        color:#002466;
        stop-color:#002466;
      }
      .ColorScheme-ButtonText {
        color:#d0d0d0;
        stop-color:#d0d0d0;
      }
      .ColorScheme-ButtonBackground {
        color:#232323;
        stop-color:#232323;                             
      }                                                 
      .ColorScheme-ButtonHover {                        
        color:#005cc7;                                  
        stop-color:#005cc7;                             
      }                                                 
      .ColorScheme-ButtonFocus{                         
        color:#0039a9;                                  
        stop-color:#0039a9;                             
      }</style>
  </defs>
  <sodipodi:namedview
     id="base"
     pagecolor="#002266"
     bordercolor="#ffffff"
     borderopacity="0.46666667"
     inkscape:pageopacity="0"
     inkscape:pageshadow="2"
     inkscape:zoom="12.859375"
     inkscape:cx="31.399413"
     inkscape:cy="11.170575"
     inkscape:document-units="px"
     inkscape:current-layer="g4267"
     inkscape:document-rotation="0"
     showgrid="false"
     inkscape:showpageshadow="false"
     borderlayer="true"
     units="px"
     fit-margin-top="0"
     fit-margin-left="0"
     fit-margin-right="0"
     fit-margin-bottom="0"
     inkscape:window-width="1920"
     inkscape:window-height="1051"
     inkscape:window-x="0"
     inkscape:window-y="0"
     inkscape:window-maximized="1"
     inkscape:snap-page="true" />
  <metadata
     id="metadata5">
    <rdf:RDF>
      <cc:Work
         rdf:about="">
        <dc:format>image/svg+xml</dc:format>
        <dc:type
           rdf:resource="http://purl.org/dc/dcmitype/StillImage" />
        <dc:title></dc:title>
      </cc:Work>
    </rdf:RDF>
  </metadata>
  <g
     id="g4267"
     inkscape:label="applications-graphics">
    <rect
       inkscape:label="boundary"
       y="0"
       x="0"
       height="32"
       width="32"
       id="rect4264"
       style="fill:none;fill-opacity:0.74651441;stroke-width:23.61599922;stroke-opacity:0.3596773" />
    <path
       id="path7750"
       d="m 15.678531,5.085276 c -0.340287,-0.0063 -0.679429,-0.0022 -1.017578,0.01367 -6.5937958,0.309929 -11.0039114,6.820382 -9.3906245,12.109376 2.1619307,7.087664 10.2191655,10.92234 19.5566415,9.365234 2.76489,-0.545804 1.290368,-3.903824 -0.613282,-3.560547 -1.903646,0.343306 -2.61391,-2.7699 -0.539062,-3.123047 2.07489,-0.352839 3.868226,-2.920755 3.273437,-6.425781 C 25.983787,7.782137 20.782842,5.179138 15.678531,5.085276 Z m 0.359375,1.826172 a 1.1802973,1.4355432 0 0 1 1.179688,1.435547 1.1802973,1.4355432 0 0 1 -1.179688,1.435547 1.1802973,1.4355432 0 0 1 -1.179687,-1.435547 1.1802973,1.4355432 0 0 1 1.179687,-1.435547 z m 5.363281,1.744141 a 1.1802973,1.4355432 46.373965 0 1 0.73047,0.316406 1.1802973,1.4355432 46.373965 0 1 -0.224609,1.845703 1.1802973,1.4355432 46.373965 0 1 -1.853517,0.134766 1.1802973,1.4355432 46.373965 0 1 0.224609,-1.84375 1.1802973,1.4355432 46.373965 0 1 1.123047,-0.453125 z M 10.5965,8.704419 a 1.4355432,1.1802973 43.245698 0 1 1.087891,0.447266 1.4355432,1.1802973 43.245698 0 1 0.236328,1.84375 1.4355432,1.1802973 43.245698 0 1 -1.853516,-0.125 A 1.4355432,1.1802973 43.245698 0 1 9.8308754,9.028638 1.4355432,1.1802973 43.245698 0 1 10.5965,8.704419 Z M 8.6961097,13.290356 A 1.1802973,1.4355432 89.638655 0 1 10.139469,14.462231 1.1802973,1.4355432 89.638655 0 1 8.7117347,15.651685 1.1802973,1.4355432 89.638655 0 1 7.2683754,14.47981 1.1802973,1.4355432 89.638655 0 1 8.6961097,13.290356 Z m 15.0195313,0.173829 a 1.1802973,1.4355433 89.664697 0 1 1.441407,1.171875 1.1802973,1.4355433 89.664697 0 1 -1.427735,1.189453 1.1802973,1.4355433 89.664697 0 1 -1.443359,-1.171875 1.1802973,1.4355433 89.664697 0 1 1.429687,-1.189453 z"
       style="opacity:0.6;fill:#ffffff;fill-opacity:1;stroke:none;stroke-width:1.04782557;shape-rendering:crispEdges"
       inkscape:connector-curvature="0"
       inkscape:label="glyph" />
  </g>
</svg>
