<?xml version="1.0" encoding="UTF-8" standalone="no"?>
<!-- Created with Inkscape (http://www.inkscape.org/) -->

<svg
   xmlns:dc="http://purl.org/dc/elements/1.1/"
   xmlns:cc="http://creativecommons.org/ns#"
   xmlns:rdf="http://www.w3.org/1999/02/22-rdf-syntax-ns#"
   xmlns:svg="http://www.w3.org/2000/svg"
   xmlns="http://www.w3.org/2000/svg"
   xmlns:sodipodi="http://sodipodi.sourceforge.net/DTD/sodipodi-0.dtd"
   xmlns:inkscape="http://www.inkscape.org/namespaces/inkscape"
   width="32"
   height="32"
   viewBox="0 0 32 32"
   version="1.1"
   id="svg8"
   inkscape:version="0.92+devel 15700 custom"
   sodipodi:docname="applications-office.svg">
  <defs
     id="ol-defs">
    <style
       id="current-color-scheme">      .ColorScheme-Text {
        color:#d0d0d0;
        stop-color:#d0d0d0;
      }
      .ColorScheme-Background {
        color:#212121;
        stop-color:#212121;
      }
      .ColorScheme-Highlight {
        color:#0039a9;
        stop-color:#0039a9;
      }
      .ColorScheme-ViewText {
        color:#d0d0d0;
        stop-color:#d0d0d0;
      }
      .ColorScheme-ViewBackground {
        color:#19191b;
        stop-color:#19191b;
      }
      .ColorScheme-ViewHover {
        color:#005cc7;
        stop-color:#005cc7;
      }
      .ColorScheme-ViewFocus{
        color:#002466;
        stop-color:#002466;
      }
      .ColorScheme-ButtonText {
        color:#d0d0d0;
        stop-color:#d0d0d0;
      }
      .ColorScheme-ButtonBackground {
        color:#232323;
        stop-color:#232323;                             
      }                                                 
      .ColorScheme-ButtonHover {                        
        color:#005cc7;                                  
        stop-color:#005cc7;                             
      }                                                 
      .ColorScheme-ButtonFocus{                         
        color:#0039a9;                                  
        stop-color:#0039a9;                             
      }</style>
  </defs>
  <sodipodi:namedview
     id="base"
     pagecolor="#002266"
     bordercolor="#ffffff"
     borderopacity="0.46666667"
     inkscape:pageopacity="0"
     inkscape:pageshadow="2"
     inkscape:zoom="12.859375"
     inkscape:cx="31.399413"
     inkscape:cy="11.170575"
     inkscape:document-units="px"
     inkscape:current-layer="svg8"
     inkscape:document-rotation="0"
     showgrid="false"
     inkscape:showpageshadow="false"
     borderlayer="true"
     units="px"
     fit-margin-top="0"
     fit-margin-left="0"
     fit-margin-right="0"
     fit-margin-bottom="0"
     inkscape:window-width="1920"
     inkscape:window-height="1054"
     inkscape:window-x="0"
     inkscape:window-y="0"
     inkscape:window-maximized="1"
     inkscape:snap-page="true" />
  <metadata
     id="metadata5">
    <rdf:RDF>
      <cc:Work
         rdf:about="">
        <dc:format>image/svg+xml</dc:format>
        <dc:type
           rdf:resource="http://purl.org/dc/dcmitype/StillImage" />
        <dc:title></dc:title>
      </cc:Work>
    </rdf:RDF>
  </metadata>
  <g
     id="g4267"
     inkscape:label="#">
    <rect
       inkscape:label="#boundary"
       y="0"
       x="0"
       height="32"
       width="32"
       id="rect4264"
       style="fill:none;fill-opacity:0.74651441;stroke-width:23.61599922;stroke-opacity:0.3596773"
       sodipodi:insensitive="true" />
  </g>
  <path
     inkscape:connector-curvature="0"
     id="path4268"
     d="M 16,3.1999997 A 12.799174,12.799174 0 0 0 3.1999997,16 12.799174,12.799174 0 0 0 16,28.8 12.799174,12.799174 0 0 0 28.8,16 12.799174,12.799174 0 0 0 16,3.1999997 Z m 7.940387,5.4986585 a 1.2208645,1.2208645 0 0 1 1.125484,0.7964237 1.2208645,1.2208645 0 0 1 -0.720118,1.5690011 l -4.623548,1.702534 -3.004471,2.661103 -2.563339,-0.9848 4.296871,-3.803278 5.045604,-1.8646795 a 1.2208645,1.2208645 0 0 1 0.326678,-0.071538 1.2208645,1.2208645 0 0 1 0.116838,-0.00479 z m 1.538004,2.6682558 c 0.304785,-0.0066 0.603143,0.09579 0.839343,0.288526 0.552821,0.448934 0.634738,1.263154 0.18122,1.812222 l -5.524885,6.757674 -10.832788,-4.1538 -3.3526072,2.577645 C 6.2267573,19.084151 5.4180172,18.97968 4.9859904,18.4155 4.5530164,17.851215 4.6621073,17.042089 5.2292102,16.612816 l 4.4876301,-3.452757 10.4464977,4.01073 4.342176,-5.326975 c 0.237828,-0.295335 0.593757,-0.46947 0.972877,-0.4769 z m -14.106707,5.536811 2.570492,0.9848 -5.7657227,5.1076 A 1.2208645,1.2208645 0 0 1 6.4548428,22.886441 1.2208645,1.2208645 0 0 1 6.5549854,21.167216 Z"
     style="opacity:0.6;fill:#d0d0d0;stroke:none;stroke-width:1.99999988;stroke-linejoin:round" />
</svg>
